,time,status,note,velocity,player,section,length,y,side
0,1, Note_on_c,65,74,1,1,1,76.0,True
1,2, Note_on_c,70,74,1,1,1,81.0,False
2,2, Note_on_c,73,74,1,1,1,85.0,False
3,3, Note_on_c,72,74,1,1,1,84.0,True
4,3, Note_on_c,75,74,1,1,1,87.0,False
5,4, Note_on_c,70,74,1,1,1,81.0,False
6,4, Note_on_c,73,74,1,1,1,85.0,False
7,5, Note_on_c,72,74,1,1,1,84.0,True
8,5, Note_on_c,77,74,1,1,1,90.0,True
9,6, Note_on_c,65,74,1,1,1,76.0,True
10,7, Note_on_c,70,74,1,1,1,81.0,False
11,7, Note_on_c,73,74,1,1,1,85.0,False
12,8, Note_on_c,72,74,1,1,1,84.0,True
13,8, Note_on_c,75,74,1,1,1,87.0,False
14,9, Note_on_c,65,74,1,1,1,76.0,True
15,10, Note_on_c,70,74,1,1,1,81.0,False
16,10, Note_on_c,73,74,1,1,1,85.0,False
17,11, Note_on_c,72,74,1,1,1,84.0,True
18,11, Note_on_c,75,74,1,1,1,87.0,False
19,12, Note_on_c,70,74,1,1,1,81.0,False
20,12, Note_on_c,73,74,1,1,1,85.0,False
21,13, Note_on_c,72,74,1,1,1,84.0,True
22,13, Note_on_c,77,74,1,1,1,90.0,True
23,14, Note_on_c,65,74,1,1,1,76.0,True
24,15, Note_on_c,70,74,1,1,1,81.0,False
25,15, Note_on_c,73,74,1,1,1,85.0,False
26,16, Note_on_c,72,74,1,1,1,84.0,True
27,16, Note_on_c,75,74,1,1,1,87.0,False
28,17, Note_on_c,65,74,1,1,1,76.0,True
29,18, Note_on_c,70,74,1,1,1,81.0,False
30,18, Note_on_c,73,74,1,1,1,85.0,False
31,19, Note_on_c,72,74,1,1,1,84.0,True
32,19, Note_on_c,75,74,1,1,1,87.0,False
33,20, Note_on_c,70,74,1,1,1,81.0,False
34,20, Note_on_c,73,74,1,1,1,85.0,False
35,21, Note_on_c,72,74,1,1,1,84.0,True
36,21, Note_on_c,77,74,1,1,1,90.0,True
37,22, Note_on_c,65,74,1,1,1,76.0,True
38,23, Note_on_c,70,74,1,1,1,81.0,False
39,23, Note_on_c,73,74,1,1,1,85.0,False
40,24, Note_on_c,72,74,1,1,1,84.0,True
41,24, Note_on_c,75,74,1,1,1,87.0,False
42,25, Note_on_c,65,74,1,1,1,76.0,True
43,26, Note_on_c,70,74,1,1,1,81.0,False
44,26, Note_on_c,73,74,1,1,1,85.0,False
45,27, Note_on_c,72,74,1,1,1,84.0,True
46,27, Note_on_c,75,74,1,1,1,87.0,False
47,28, Note_on_c,70,74,1,1,1,81.0,False
48,28, Note_on_c,73,74,1,1,1,85.0,False
49,29, Note_on_c,72,74,1,1,1,84.0,True
50,29, Note_on_c,77,74,1,1,1,90.0,True
51,30, Note_on_c,65,74,1,1,1,76.0,True
52,31, Note_on_c,70,74,1,1,1,81.0,False
53,31, Note_on_c,73,74,1,1,1,85.0,False
54,32, Note_on_c,72,74,1,1,1,84.0,True
55,32, Note_on_c,75,74,1,1,1,87.0,False
56,33, Note_on_c,65,74,1,1,1,76.0,True
57,34, Note_on_c,70,74,1,1,1,81.0,False
58,34, Note_on_c,73,74,1,1,1,85.0,False
59,35, Note_on_c,72,74,1,1,1,84.0,True
60,35, Note_on_c,75,74,1,1,1,87.0,False
61,36, Note_on_c,70,74,1,1,1,81.0,False
62,36, Note_on_c,73,74,1,1,1,85.0,False
63,37, Note_on_c,72,74,1,1,1,84.0,True
64,37, Note_on_c,77,74,1,1,1,90.0,True
65,38, Note_on_c,65,74,1,1,1,76.0,True
66,39, Note_on_c,70,74,1,1,1,81.0,False
67,39, Note_on_c,73,74,1,1,1,85.0,False
68,40, Note_on_c,72,74,1,1,1,84.0,True
69,40, Note_on_c,75,74,1,1,1,87.0,False
70,41, Note_on_c,65,74,1,1,1,76.0,True
71,42, Note_on_c,70,74,1,1,1,81.0,False
72,42, Note_on_c,73,74,1,1,1,85.0,False
73,43, Note_on_c,72,74,1,1,1,84.0,True
74,43, Note_on_c,75,74,1,1,1,87.0,False
75,44, Note_on_c,70,74,1,1,1,81.0,False
76,44, Note_on_c,73,74,1,1,1,85.0,False
77,45, Note_on_c,72,74,1,1,1,84.0,True
78,45, Note_on_c,77,74,1,1,1,90.0,True
79,46, Note_on_c,65,74,1,1,1,76.0,True
80,47, Note_on_c,70,74,1,1,1,81.0,False
81,47, Note_on_c,73,74,1,1,1,85.0,False
82,48, Note_on_c,72,74,1,1,1,84.0,True
83,48, Note_on_c,75,74,1,1,1,87.0,False
84,49, Note_on_c,65,74,1,1,1,76.0,True
85,50, Note_on_c,70,74,1,1,1,81.0,False
86,50, Note_on_c,73,74,1,1,1,85.0,False
87,51, Note_on_c,72,74,1,1,1,84.0,True
88,51, Note_on_c,75,74,1,1,1,87.0,False
89,52, Note_on_c,70,74,1,1,1,81.0,False
90,52, Note_on_c,73,74,1,1,1,85.0,False
91,53, Note_on_c,72,74,1,1,1,84.0,True
92,53, Note_on_c,77,74,1,1,1,90.0,True
93,54, Note_on_c,65,74,1,1,1,76.0,True
94,55, Note_on_c,70,74,1,1,1,81.0,False
95,55, Note_on_c,73,74,1,1,1,85.0,False
96,56, Note_on_c,72,74,1,1,1,84.0,True
97,56, Note_on_c,75,74,1,1,1,87.0,False
98,57, Note_on_c,65,74,1,1,1,76.0,True
99,58, Note_on_c,70,74,1,1,1,81.0,False
100,58, Note_on_c,73,74,1,1,1,85.0,False
101,59, Note_on_c,72,74,1,1,1,84.0,True
102,59, Note_on_c,75,74,1,1,1,87.0,False
103,60, Note_on_c,70,74,1,1,1,81.0,False
104,60, Note_on_c,73,74,1,1,1,85.0,False
105,61, Note_on_c,72,74,1,1,1,84.0,True
106,61, Note_on_c,77,74,1,1,1,90.0,True
107,62, Note_on_c,65,74,1,1,1,76.0,True
108,63, Note_on_c,70,74,1,1,1,81.0,False
109,63, Note_on_c,73,74,1,1,1,85.0,False
110,64, Note_on_c,72,74,1,1,1,84.0,True
111,64, Note_on_c,75,74,1,1,1,87.0,False
112,65, Note_on_c,65,74,1,1,1,76.0,True
113,66, Note_on_c,70,74,1,1,1,81.0,False
114,66, Note_on_c,73,74,1,1,1,85.0,False
115,67, Note_on_c,72,74,1,1,1,84.0,True
116,67, Note_on_c,75,74,1,1,1,87.0,False
117,68, Note_on_c,70,74,1,1,1,81.0,False
118,68, Note_on_c,73,74,1,1,1,85.0,False
119,69, Note_on_c,72,74,1,1,1,84.0,True
120,69, Note_on_c,77,74,1,1,1,90.0,True
121,70, Note_on_c,65,74,1,1,1,76.0,True
122,71, Note_on_c,70,74,1,1,1,81.0,False
123,71, Note_on_c,73,74,1,1,1,85.0,False
124,72, Note_on_c,72,74,1,1,1,84.0,True
125,72, Note_on_c,75,74,1,1,1,87.0,False
126,73, Note_on_c,65,74,1,1,1,76.0,True
127,74, Note_on_c,70,74,1,1,1,81.0,False
128,74, Note_on_c,73,74,1,1,1,85.0,False
129,75, Note_on_c,72,74,1,1,1,84.0,True
130,75, Note_on_c,75,74,1,1,1,87.0,False
131,76, Note_on_c,70,74,1,1,1,81.0,False
132,76, Note_on_c,73,74,1,1,1,85.0,False
133,77, Note_on_c,72,74,1,1,1,84.0,True
134,77, Note_on_c,77,74,1,1,1,90.0,True
135,78, Note_on_c,65,74,1,1,1,76.0,True
136,79, Note_on_c,70,74,1,1,1,81.0,False
137,79, Note_on_c,73,74,1,1,1,85.0,False
138,80, Note_on_c,72,74,1,1,1,84.0,True
139,80, Note_on_c,75,74,1,1,1,87.0,False
140,81, Note_on_c,65,74,1,1,1,76.0,True
141,82, Note_on_c,70,74,1,1,1,81.0,False
142,82, Note_on_c,73,74,1,1,1,85.0,False
143,83, Note_on_c,72,74,1,1,1,84.0,True
144,83, Note_on_c,75,74,1,1,1,87.0,False
145,84, Note_on_c,70,74,1,1,1,81.0,False
146,84, Note_on_c,73,74,1,1,1,85.0,False
147,85, Note_on_c,72,74,1,1,1,84.0,True
148,85, Note_on_c,77,74,1,1,1,90.0,True
149,86, Note_on_c,65,74,1,1,1,76.0,True
150,87, Note_on_c,70,74,1,1,1,81.0,False
151,87, Note_on_c,73,74,1,1,1,85.0,False
152,88, Note_on_c,72,74,1,1,1,84.0,True
153,88, Note_on_c,75,74,1,1,1,87.0,False
154,89, Note_on_c,65,74,1,1,1,76.0,True
155,90, Note_on_c,70,74,1,1,1,81.0,False
156,90, Note_on_c,73,74,1,1,1,85.0,False
157,91, Note_on_c,72,74,1,1,1,84.0,True
158,91, Note_on_c,75,74,1,1,1,87.0,False
159,92, Note_on_c,70,74,1,1,1,81.0,False
160,92, Note_on_c,73,74,1,1,1,85.0,False
161,93, Note_on_c,72,74,1,1,1,84.0,True
162,93, Note_on_c,77,74,1,1,1,90.0,True
163,94, Note_on_c,65,74,1,1,1,76.0,True
164,95, Note_on_c,70,74,1,1,1,81.0,False
165,95, Note_on_c,73,74,1,1,1,85.0,False
166,96, Note_on_c,72,74,1,1,1,84.0,True
167,96, Note_on_c,75,74,1,1,1,87.0,False
168,97, Note_on_c,65,74,1,1,1,76.0,True
169,98, Note_on_c,70,74,1,1,1,81.0,False
170,98, Note_on_c,73,74,1,1,1,85.0,False
171,99, Note_on_c,72,74,1,1,1,84.0,True
172,99, Note_on_c,75,74,1,1,1,87.0,False
173,100, Note_on_c,70,74,1,1,1,81.0,False
174,100, Note_on_c,73,74,1,1,1,85.0,False
175,101, Note_on_c,72,74,1,1,1,84.0,True
176,101, Note_on_c,77,74,1,1,1,90.0,True
177,102, Note_on_c,65,74,1,1,1,76.0,True
178,103, Note_on_c,70,74,1,1,1,81.0,False
179,103, Note_on_c,73,74,1,1,1,85.0,False
180,104, Note_on_c,72,74,1,1,1,84.0,True
181,104, Note_on_c,75,74,1,1,1,87.0,False
182,105, Note_on_c,65,74,1,1,1,76.0,True
183,106, Note_on_c,70,74,1,1,1,81.0,False
184,106, Note_on_c,73,74,1,1,1,85.0,False
185,107, Note_on_c,72,74,1,1,1,84.0,True
186,107, Note_on_c,75,74,1,1,1,87.0,False
187,108, Note_on_c,70,74,1,1,1,81.0,False
188,108, Note_on_c,73,74,1,1,1,85.0,False
189,109, Note_on_c,72,74,1,1,1,84.0,True
190,109, Note_on_c,77,74,1,1,1,90.0,True
191,110, Note_on_c,65,74,1,1,1,76.0,True
192,111, Note_on_c,70,74,1,1,1,81.0,False
193,111, Note_on_c,73,74,1,1,1,85.0,False
194,112, Note_on_c,72,74,1,1,1,84.0,True
195,112, Note_on_c,75,74,1,1,1,87.0,False
196,113, Note_on_c,65,74,1,1,1,76.0,True
197,114, Note_on_c,70,74,1,1,1,81.0,False
198,114, Note_on_c,73,74,1,1,1,85.0,False
199,115, Note_on_c,72,74,1,1,1,84.0,True
200,115, Note_on_c,75,74,1,1,1,87.0,False
201,116, Note_on_c,70,74,1,1,1,81.0,False
202,116, Note_on_c,73,74,1,1,1,85.0,False
203,117, Note_on_c,72,74,1,1,1,84.0,True
204,117, Note_on_c,77,74,1,1,1,90.0,True
205,118, Note_on_c,65,74,1,1,1,76.0,True
206,119, Note_on_c,70,74,1,1,1,81.0,False
207,119, Note_on_c,73,74,1,1,1,85.0,False
208,120, Note_on_c,72,74,1,1,1,84.0,True
209,120, Note_on_c,75,74,1,1,1,87.0,False
210,121, Note_on_c,65,74,1,1,1,76.0,True
211,122, Note_on_c,70,74,1,1,1,81.0,False
212,122, Note_on_c,73,74,1,1,1,85.0,False
213,123, Note_on_c,72,74,1,1,1,84.0,True
214,123, Note_on_c,75,74,1,1,1,87.0,False
215,124, Note_on_c,70,74,1,1,1,81.0,False
216,124, Note_on_c,73,74,1,1,1,85.0,False
217,125, Note_on_c,72,74,1,1,1,84.0,True
218,125, Note_on_c,77,74,1,1,1,90.0,True
219,126, Note_on_c,65,74,1,1,1,76.0,True
220,127, Note_on_c,70,74,1,1,1,81.0,False
221,127, Note_on_c,73,74,1,1,1,85.0,False
222,128, Note_on_c,72,74,1,1,1,84.0,True
223,128, Note_on_c,75,74,1,1,1,87.0,False
224,129, Note_on_c,65,74,1,1,1,76.0,True
225,130, Note_on_c,70,74,1,1,1,81.0,False
226,130, Note_on_c,73,74,1,1,1,85.0,False
227,131, Note_on_c,72,74,1,1,1,84.0,True
228,131, Note_on_c,75,74,1,1,1,87.0,False
229,132, Note_on_c,70,74,1,1,1,81.0,False
230,132, Note_on_c,73,74,1,1,1,85.0,False
231,133, Note_on_c,72,74,1,1,1,84.0,True
232,133, Note_on_c,77,74,1,1,1,90.0,True
233,134, Note_on_c,65,74,1,1,1,76.0,True
234,135, Note_on_c,70,74,1,1,1,81.0,False
235,135, Note_on_c,73,74,1,1,1,85.0,False
236,136, Note_on_c,72,74,1,1,1,84.0,True
237,136, Note_on_c,75,74,1,1,1,87.0,False
238,137, Note_on_c,65,74,1,1,1,76.0,True
239,138, Note_on_c,70,74,1,1,1,81.0,False
240,138, Note_on_c,73,74,1,1,1,85.0,False
241,139, Note_on_c,72,74,1,1,1,84.0,True
242,139, Note_on_c,75,74,1,1,1,87.0,False
243,140, Note_on_c,70,74,1,1,1,81.0,False
244,140, Note_on_c,73,74,1,1,1,85.0,False
245,141, Note_on_c,72,74,1,1,1,84.0,True
246,141, Note_on_c,77,74,1,1,1,90.0,True
247,142, Note_on_c,65,74,1,1,1,76.0,True
248,143, Note_on_c,70,74,1,1,1,81.0,False
249,143, Note_on_c,73,74,1,1,1,85.0,False
250,144, Note_on_c,72,74,1,1,1,84.0,True
251,144, Note_on_c,75,74,1,1,1,87.0,False
252,145, Note_on_c,65,74,1,1,1,76.0,True
253,146, Note_on_c,70,74,1,1,1,81.0,False
254,146, Note_on_c,73,74,1,1,1,85.0,False
255,147, Note_on_c,72,74,1,1,1,84.0,True
256,147, Note_on_c,75,74,1,1,1,87.0,False
257,148, Note_on_c,70,74,1,1,1,81.0,False
258,148, Note_on_c,73,74,1,1,1,85.0,False
259,149, Note_on_c,72,74,1,1,1,84.0,True
260,149, Note_on_c,77,74,1,1,1,90.0,True
261,150, Note_on_c,65,74,1,1,1,76.0,True
262,151, Note_on_c,70,74,1,1,1,81.0,False
263,151, Note_on_c,73,74,1,1,1,85.0,False
264,152, Note_on_c,72,74,1,1,1,84.0,True
265,152, Note_on_c,75,74,1,1,1,87.0,False
266,153, Note_on_c,65,74,1,1,1,76.0,True
267,154, Note_on_c,70,74,1,1,1,81.0,False
268,154, Note_on_c,73,74,1,1,1,85.0,False
269,155, Note_on_c,72,74,1,1,1,84.0,True
270,155, Note_on_c,75,74,1,1,1,87.0,False
271,156, Note_on_c,70,74,1,1,1,81.0,False
272,156, Note_on_c,73,74,1,1,1,85.0,False
273,157, Note_on_c,72,74,1,1,1,84.0,True
274,157, Note_on_c,77,74,1,1,1,90.0,True
275,158, Note_on_c,65,74,1,1,1,76.0,True
276,159, Note_on_c,70,74,1,1,1,81.0,False
277,159, Note_on_c,73,74,1,1,1,85.0,False
278,160, Note_on_c,72,74,1,1,1,84.0,True
279,160, Note_on_c,75,74,1,1,1,87.0,False
280,161, Note_on_c,65,74,1,1,1,76.0,True
281,162, Note_on_c,70,74,1,1,1,81.0,False
282,162, Note_on_c,73,74,1,1,1,85.0,False
283,163, Note_on_c,72,74,1,1,1,84.0,True
284,163, Note_on_c,75,74,1,1,1,87.0,False
285,164, Note_on_c,70,74,1,1,1,81.0,False
286,164, Note_on_c,73,74,1,1,1,85.0,False
287,165, Note_on_c,72,74,1,1,1,84.0,True
288,165, Note_on_c,77,74,1,1,1,90.0,True
289,166, Note_on_c,65,74,1,1,1,76.0,True
290,167, Note_on_c,70,74,1,1,1,81.0,False
291,167, Note_on_c,73,74,1,1,1,85.0,False
292,168, Note_on_c,72,74,1,1,1,84.0,True
293,168, Note_on_c,75,74,1,1,1,87.0,False
294,169, Note_on_c,65,74,1,1,1,76.0,True
295,170, Note_on_c,70,74,1,1,1,81.0,False
296,170, Note_on_c,73,74,1,1,1,85.0,False
297,171, Note_on_c,72,74,1,1,1,84.0,True
298,171, Note_on_c,75,74,1,1,1,87.0,False
299,172, Note_on_c,70,74,1,1,1,81.0,False
300,172, Note_on_c,73,74,1,1,1,85.0,False
301,173, Note_on_c,72,74,1,1,1,84.0,True
302,173, Note_on_c,77,74,1,1,1,90.0,True
303,174, Note_on_c,65,74,1,1,1,76.0,True
304,175, Note_on_c,70,74,1,1,1,81.0,False
305,175, Note_on_c,73,74,1,1,1,85.0,False
306,176, Note_on_c,72,74,1,1,1,84.0,True
307,176, Note_on_c,75,74,1,1,1,87.0,False
308,177, Note_on_c,65,74,1,1,1,76.0,True
309,178, Note_on_c,70,74,1,1,1,81.0,False
310,178, Note_on_c,73,74,1,1,1,85.0,False
311,179, Note_on_c,72,74,1,1,1,84.0,True
312,179, Note_on_c,75,74,1,1,1,87.0,False
313,180, Note_on_c,70,74,1,1,1,81.0,False
314,180, Note_on_c,73,74,1,1,1,85.0,False
315,181, Note_on_c,72,74,1,1,1,84.0,True
316,181, Note_on_c,77,74,1,1,1,90.0,True
317,182, Note_on_c,65,74,1,1,1,76.0,True
318,183, Note_on_c,70,74,1,1,1,81.0,False
319,183, Note_on_c,73,74,1,1,1,85.0,False
320,184, Note_on_c,72,74,1,1,1,84.0,True
321,184, Note_on_c,75,74,1,1,1,87.0,False
322,185, Note_on_c,65,74,1,1,1,76.0,True
323,186, Note_on_c,70,74,1,1,1,81.0,False
324,186, Note_on_c,73,74,1,1,1,85.0,False
325,187, Note_on_c,72,74,1,1,1,84.0,True
326,187, Note_on_c,75,74,1,1,1,87.0,False
327,188, Note_on_c,70,74,1,1,1,81.0,False
328,188, Note_on_c,73,74,1,1,1,85.0,False
329,189, Note_on_c,72,74,1,1,1,84.0,True
330,189, Note_on_c,77,74,1,1,1,90.0,True
331,190, Note_on_c,65,74,1,1,1,76.0,True
332,191, Note_on_c,70,74,1,1,1,81.0,False
333,191, Note_on_c,73,74,1,1,1,85.0,False
334,192, Note_on_c,72,74,1,1,1,84.0,True
335,192, Note_on_c,75,74,1,1,1,87.0,False
336,193, Note_on_c,65,74,1,1,1,76.0,True
337,194, Note_on_c,70,74,1,1,1,81.0,False
338,194, Note_on_c,73,74,1,1,1,85.0,False
339,195, Note_on_c,72,74,1,1,1,84.0,True
340,195, Note_on_c,75,74,1,1,1,87.0,False
341,196, Note_on_c,70,74,1,1,1,81.0,False
342,196, Note_on_c,73,74,1,1,1,85.0,False
343,197, Note_on_c,72,74,1,1,1,84.0,True
344,197, Note_on_c,77,74,1,1,1,90.0,True
345,198, Note_on_c,65,74,1,1,1,76.0,True
346,199, Note_on_c,70,74,1,1,1,81.0,False
347,199, Note_on_c,73,74,1,1,1,85.0,False
348,200, Note_on_c,72,74,1,1,1,84.0,True
349,200, Note_on_c,75,74,1,1,1,87.0,False
350,201, Note_on_c,65,74,1,1,1,76.0,True
351,202, Note_on_c,70,74,1,1,1,81.0,False
352,202, Note_on_c,73,74,1,1,1,85.0,False
353,203, Note_on_c,72,74,1,1,1,84.0,True
354,203, Note_on_c,75,74,1,1,1,87.0,False
355,204, Note_on_c,70,74,1,1,1,81.0,False
356,204, Note_on_c,73,74,1,1,1,85.0,False
357,205, Note_on_c,72,74,1,1,1,84.0,True
358,205, Note_on_c,77,74,1,1,1,90.0,True
359,206, Note_on_c,65,74,1,1,1,76.0,True
360,207, Note_on_c,70,74,1,1,1,81.0,False
361,207, Note_on_c,73,74,1,1,1,85.0,False
362,208, Note_on_c,72,74,1,1,1,84.0,True
363,208, Note_on_c,75,74,1,1,1,87.0,False
364,209, Note_on_c,65,74,1,1,1,76.0,True
365,210, Note_on_c,70,74,1,1,1,81.0,False
366,210, Note_on_c,73,74,1,1,1,85.0,False
367,211, Note_on_c,72,74,1,1,1,84.0,True
368,211, Note_on_c,75,74,1,1,1,87.0,False
369,212, Note_on_c,70,74,1,1,1,81.0,False
370,212, Note_on_c,73,74,1,1,1,85.0,False
371,213, Note_on_c,72,74,1,1,1,84.0,True
372,213, Note_on_c,77,74,1,1,1,90.0,True
373,214, Note_on_c,65,74,1,1,1,76.0,True
374,215, Note_on_c,70,74,1,1,1,81.0,False
375,215, Note_on_c,73,74,1,1,1,85.0,False
376,216, Note_on_c,72,74,1,1,1,84.0,True
377,216, Note_on_c,75,74,1,1,1,87.0,False
378,217, Note_on_c,65,74,1,1,1,76.0,True
379,218, Note_on_c,70,74,1,1,1,81.0,False
380,218, Note_on_c,73,74,1,1,1,85.0,False
381,219, Note_on_c,72,74,1,1,1,84.0,True
382,219, Note_on_c,75,74,1,1,1,87.0,False
383,220, Note_on_c,70,74,1,1,1,81.0,False
384,220, Note_on_c,73,74,1,1,1,85.0,False
385,221, Note_on_c,72,74,1,1,1,84.0,True
386,221, Note_on_c,77,74,1,1,1,90.0,True
387,222, Note_on_c,65,74,1,1,1,76.0,True
388,223, Note_on_c,70,74,1,1,1,81.0,False
389,223, Note_on_c,73,74,1,1,1,85.0,False
390,224, Note_on_c,72,74,1,1,1,84.0,True
391,224, Note_on_c,75,74,1,1,1,87.0,False
392,225, Note_on_c,65,74,1,1,1,76.0,True
393,226, Note_on_c,70,74,1,1,1,81.0,False
394,226, Note_on_c,73,74,1,1,1,85.0,False
395,227, Note_on_c,72,74,1,1,1,84.0,True
396,227, Note_on_c,75,74,1,1,1,87.0,False
397,228, Note_on_c,70,74,1,1,1,81.0,False
398,228, Note_on_c,73,74,1,1,1,85.0,False
399,229, Note_on_c,72,74,1,1,1,84.0,True
400,229, Note_on_c,77,74,1,1,1,90.0,True
401,230, Note_on_c,65,74,1,1,1,76.0,True
402,231, Note_on_c,70,74,1,1,1,81.0,False
403,231, Note_on_c,73,74,1,1,1,85.0,False
404,232, Note_on_c,72,74,1,1,1,84.0,True
405,232, Note_on_c,75,74,1,1,1,87.0,False
406,233, Note_on_c,65,74,1,1,1,76.0,True
407,234, Note_on_c,70,74,1,1,1,81.0,False
408,234, Note_on_c,73,74,1,1,1,85.0,False
409,235, Note_on_c,72,74,1,1,1,84.0,True
410,235, Note_on_c,75,74,1,1,1,87.0,False
411,236, Note_on_c,70,74,1,1,1,81.0,False
412,236, Note_on_c,73,74,1,1,1,85.0,False
413,237, Note_on_c,72,74,1,1,1,84.0,True
414,237, Note_on_c,77,74,1,1,1,90.0,True
415,238, Note_on_c,65,74,1,1,1,76.0,True
416,239, Note_on_c,70,74,1,1,1,81.0,False
417,239, Note_on_c,73,74,1,1,1,85.0,False
418,240, Note_on_c,72,74,1,1,1,84.0,True
419,240, Note_on_c,75,74,1,1,1,87.0,False
420,241, Note_on_c,65,74,1,1,1,76.0,True
421,242, Note_on_c,70,74,1,1,1,81.0,False
422,242, Note_on_c,73,74,1,1,1,85.0,False
423,243, Note_on_c,72,74,1,1,1,84.0,True
424,243, Note_on_c,75,74,1,1,1,87.0,False
425,244, Note_on_c,70,74,1,1,1,81.0,False
426,244, Note_on_c,73,74,1,1,1,85.0,False
427,245, Note_on_c,72,74,1,1,1,84.0,True
428,245, Note_on_c,77,74,1,1,1,90.0,True
429,246, Note_on_c,65,74,1,1,1,76.0,True
430,247, Note_on_c,70,74,1,1,1,81.0,False
431,247, Note_on_c,73,74,1,1,1,85.0,False
432,248, Note_on_c,72,74,1,1,1,84.0,True
433,248, Note_on_c,75,74,1,1,1,87.0,False
434,249, Note_on_c,65,74,1,1,1,76.0,True
435,250, Note_on_c,70,74,1,1,1,81.0,False
436,250, Note_on_c,73,74,1,1,1,85.0,False
437,251, Note_on_c,72,74,1,1,1,84.0,True
438,251, Note_on_c,75,74,1,1,1,87.0,False
439,252, Note_on_c,70,74,1,1,1,81.0,False
440,252, Note_on_c,73,74,1,1,1,85.0,False
441,253, Note_on_c,72,74,1,1,1,84.0,True
442,253, Note_on_c,77,74,1,1,1,90.0,True
443,254, Note_on_c,65,74,1,1,1,76.0,True
444,255, Note_on_c,70,74,1,1,1,81.0,False
445,255, Note_on_c,73,74,1,1,1,85.0,False
446,256, Note_on_c,72,74,1,1,1,84.0,True
447,256, Note_on_c,75,74,1,1,1,87.0,False
448,257, Note_on_c,65,74,1,1,1,76.0,True
449,258, Note_on_c,70,74,1,1,1,81.0,False
450,258, Note_on_c,73,74,1,1,1,85.0,False
451,259, Note_on_c,72,74,1,1,1,84.0,True
452,259, Note_on_c,75,74,1,1,1,87.0,False
453,260, Note_on_c,70,74,1,1,1,81.0,False
454,260, Note_on_c,73,74,1,1,1,85.0,False
455,261, Note_on_c,72,74,1,1,1,84.0,True
456,261, Note_on_c,77,74,1,1,1,90.0,True
457,262, Note_on_c,65,74,1,1,1,76.0,True
458,263, Note_on_c,70,74,1,1,1,81.0,False
459,263, Note_on_c,73,74,1,1,1,85.0,False
460,264, Note_on_c,72,74,1,1,1,84.0,True
461,264, Note_on_c,75,74,1,1,1,87.0,False
462,265, Note_on_c,65,74,1,1,1,76.0,True
463,266, Note_on_c,70,74,1,1,1,81.0,False
464,266, Note_on_c,73,74,1,1,1,85.0,False
465,267, Note_on_c,72,74,1,1,1,84.0,True
466,267, Note_on_c,75,74,1,1,1,87.0,False
467,268, Note_on_c,70,74,1,1,1,81.0,False
468,268, Note_on_c,73,74,1,1,1,85.0,False
469,269, Note_on_c,72,74,1,1,1,84.0,True
470,269, Note_on_c,77,74,1,1,1,90.0,True
471,270, Note_on_c,65,74,1,1,1,76.0,True
472,271, Note_on_c,70,74,1,1,1,81.0,False
473,271, Note_on_c,73,74,1,1,1,85.0,False
474,272, Note_on_c,72,74,1,1,1,84.0,True
475,272, Note_on_c,75,74,1,1,1,87.0,False
476,273, Note_on_c,65,74,1,1,1,76.0,True
477,274, Note_on_c,70,74,1,1,1,81.0,False
478,274, Note_on_c,73,74,1,1,1,85.0,False
479,275, Note_on_c,72,74,1,1,1,84.0,True
480,275, Note_on_c,75,74,1,1,1,87.0,False
481,276, Note_on_c,70,74,1,1,1,81.0,False
482,276, Note_on_c,73,74,1,1,1,85.0,False
483,277, Note_on_c,72,74,1,1,1,84.0,True
484,277, Note_on_c,77,74,1,1,1,90.0,True
485,278, Note_on_c,65,74,1,1,1,76.0,True
486,279, Note_on_c,70,74,1,1,1,81.0,False
487,279, Note_on_c,73,74,1,1,1,85.0,False
488,280, Note_on_c,72,74,1,1,1,84.0,True
489,280, Note_on_c,75,74,1,1,1,87.0,False
490,281, Note_on_c,65,74,1,1,1,76.0,True
491,282, Note_on_c,70,74,1,1,1,81.0,False
492,282, Note_on_c,73,74,1,1,1,85.0,False
493,283, Note_on_c,72,74,1,1,1,84.0,True
494,283, Note_on_c,75,74,1,1,1,87.0,False
495,284, Note_on_c,70,74,1,1,1,81.0,False
496,284, Note_on_c,73,74,1,1,1,85.0,False
497,285, Note_on_c,72,74,1,1,1,84.0,True
498,285, Note_on_c,77,74,1,1,1,90.0,True
499,286, Note_on_c,65,74,1,1,1,76.0,True
500,287, Note_on_c,70,74,1,1,1,81.0,False
501,287, Note_on_c,73,74,1,1,1,85.0,False
502,288, Note_on_c,72,74,1,1,1,84.0,True
503,288, Note_on_c,75,74,1,1,1,87.0,False
504,289, Note_on_c,65,74,1,1,1,76.0,True
505,290, Note_on_c,70,74,1,1,1,81.0,False
506,290, Note_on_c,73,74,1,1,1,85.0,False
507,291, Note_on_c,72,74,1,1,1,84.0,True
508,291, Note_on_c,75,74,1,1,1,87.0,False
509,292, Note_on_c,70,74,1,1,1,81.0,False
510,292, Note_on_c,73,74,1,1,1,85.0,False
511,293, Note_on_c,72,74,1,1,1,84.0,True
512,293, Note_on_c,77,74,1,1,1,90.0,True
513,294, Note_on_c,65,74,1,1,1,76.0,True
514,295, Note_on_c,70,74,1,1,1,81.0,False
515,295, Note_on_c,73,74,1,1,1,85.0,False
516,296, Note_on_c,72,74,1,1,1,84.0,True
517,296, Note_on_c,75,74,1,1,1,87.0,False
518,297, Note_on_c,65,74,1,1,1,76.0,True
519,298, Note_on_c,70,74,1,1,1,81.0,False
520,298, Note_on_c,73,74,1,1,1,85.0,False
521,299, Note_on_c,72,74,1,1,1,84.0,True
522,299, Note_on_c,75,74,1,1,1,87.0,False
523,300, Note_on_c,70,74,1,1,1,81.0,False
524,300, Note_on_c,73,74,1,1,1,85.0,False
525,301, Note_on_c,72,74,1,1,1,84.0,True
526,301, Note_on_c,77,74,1,1,1,90.0,True
527,302, Note_on_c,65,74,1,1,1,76.0,True
528,303, Note_on_c,70,74,1,1,1,81.0,False
529,303, Note_on_c,73,74,1,1,1,85.0,False
530,304, Note_on_c,72,74,1,1,1,84.0,True
531,304, Note_on_c,75,74,1,1,1,87.0,False
532,305, Note_on_c,65,74,1,1,1,76.0,True
533,306, Note_on_c,70,74,1,1,1,81.0,False
534,306, Note_on_c,73,74,1,1,1,85.0,False
535,307, Note_on_c,72,74,1,1,1,84.0,True
536,307, Note_on_c,75,74,1,1,1,87.0,False
537,308, Note_on_c,70,74,1,1,1,81.0,False
538,308, Note_on_c,73,74,1,1,1,85.0,False
539,309, Note_on_c,72,74,1,1,1,84.0,True
540,309, Note_on_c,77,74,1,1,1,90.0,True
541,310, Note_on_c,65,74,1,1,1,76.0,True
542,311, Note_on_c,70,74,1,1,1,81.0,False
543,311, Note_on_c,73,74,1,1,1,85.0,False
544,312, Note_on_c,72,74,1,1,1,84.0,True
545,312, Note_on_c,75,74,1,1,1,87.0,False
546,313, Note_on_c,65,74,1,1,1,76.0,True
547,314, Note_on_c,70,74,1,1,1,81.0,False
548,314, Note_on_c,73,74,1,1,1,85.0,False
549,315, Note_on_c,72,74,1,1,1,84.0,True
550,315, Note_on_c,75,74,1,1,1,87.0,False
551,316, Note_on_c,70,74,1,1,1,81.0,False
552,316, Note_on_c,73,74,1,1,1,85.0,False
553,317, Note_on_c,72,74,1,1,1,84.0,True
554,317, Note_on_c,77,74,1,1,1,90.0,True
555,318, Note_on_c,65,74,1,1,1,76.0,True
556,319, Note_on_c,70,74,1,1,1,81.0,False
557,319, Note_on_c,73,74,1,1,1,85.0,False
558,320, Note_on_c,72,74,1,1,1,84.0,True
559,320, Note_on_c,75,74,1,1,1,87.0,False
560,321, Note_on_c,65,74,1,1,1,76.0,True
561,322, Note_on_c,70,74,1,1,1,81.0,False
562,322, Note_on_c,73,74,1,1,1,85.0,False
563,323, Note_on_c,72,74,1,1,1,84.0,True
564,323, Note_on_c,75,74,1,1,1,87.0,False
565,324, Note_on_c,70,74,1,1,1,81.0,False
566,324, Note_on_c,73,74,1,1,1,85.0,False
567,325, Note_on_c,72,74,1,1,1,84.0,True
568,325, Note_on_c,77,74,1,1,1,90.0,True
569,326, Note_on_c,65,74,1,1,1,76.0,True
570,327, Note_on_c,70,74,1,1,1,81.0,False
571,327, Note_on_c,73,74,1,1,1,85.0,False
572,328, Note_on_c,72,74,1,1,1,84.0,True
573,328, Note_on_c,75,74,1,1,1,87.0,False
574,329, Note_on_c,65,74,1,1,1,76.0,True
575,330, Note_on_c,70,74,1,1,1,81.0,False
576,330, Note_on_c,73,74,1,1,1,85.0,False
577,331, Note_on_c,72,74,1,1,1,84.0,True
578,331, Note_on_c,75,74,1,1,1,87.0,False
579,332, Note_on_c,70,74,1,1,1,81.0,False
580,332, Note_on_c,73,74,1,1,1,85.0,False
581,333, Note_on_c,72,74,1,1,1,84.0,True
582,333, Note_on_c,77,74,1,1,1,90.0,True
583,334, Note_on_c,65,74,1,1,1,76.0,True
584,335, Note_on_c,70,74,1,1,1,81.0,False
585,335, Note_on_c,73,74,1,1,1,85.0,False
586,336, Note_on_c,72,74,1,1,1,84.0,True
587,336, Note_on_c,75,74,1,1,1,87.0,False
588,337, Note_on_c,65,74,1,1,1,76.0,True
589,338, Note_on_c,70,74,1,1,1,81.0,False
590,338, Note_on_c,73,74,1,1,1,85.0,False
591,339, Note_on_c,72,74,1,1,1,84.0,True
592,339, Note_on_c,75,74,1,1,1,87.0,False
593,340, Note_on_c,70,74,1,1,1,81.0,False
594,340, Note_on_c,73,74,1,1,1,85.0,False
595,341, Note_on_c,72,74,1,1,1,84.0,True
596,341, Note_on_c,77,74,1,1,1,90.0,True
597,342, Note_on_c,65,74,1,1,1,76.0,True
598,343, Note_on_c,70,74,1,1,1,81.0,False
599,343, Note_on_c,73,74,1,1,1,85.0,False
600,344, Note_on_c,72,74,1,1,1,84.0,True
601,344, Note_on_c,75,74,1,1,1,87.0,False
602,345, Note_on_c,65,74,1,1,1,76.0,True
603,346, Note_on_c,70,74,1,1,1,81.0,False
604,346, Note_on_c,73,74,1,1,1,85.0,False
605,347, Note_on_c,72,74,1,1,1,84.0,True
606,347, Note_on_c,75,74,1,1,1,87.0,False
607,348, Note_on_c,70,74,1,1,1,81.0,False
608,348, Note_on_c,73,74,1,1,1,85.0,False
609,349, Note_on_c,72,74,1,1,1,84.0,True
610,349, Note_on_c,77,74,1,1,1,90.0,True
611,350, Note_on_c,65,74,1,1,1,76.0,True
612,351, Note_on_c,70,74,1,1,1,81.0,False
613,351, Note_on_c,73,74,1,1,1,85.0,False
614,352, Note_on_c,72,74,1,1,1,84.0,True
615,352, Note_on_c,75,74,1,1,1,87.0,False
616,353, Note_on_c,65,74,1,1,1,76.0,True
617,354, Note_on_c,70,74,1,1,1,81.0,False
618,354, Note_on_c,73,74,1,1,1,85.0,False
619,355, Note_on_c,72,74,1,1,1,84.0,True
620,355, Note_on_c,75,74,1,1,1,87.0,False
621,356, Note_on_c,70,74,1,1,1,81.0,False
622,356, Note_on_c,73,74,1,1,1,85.0,False
623,357, Note_on_c,72,74,1,1,1,84.0,True
624,357, Note_on_c,77,74,1,1,1,90.0,True
625,358, Note_on_c,65,74,1,1,1,76.0,True
626,359, Note_on_c,70,74,1,1,1,81.0,False
627,359, Note_on_c,73,74,1,1,1,85.0,False
628,360, Note_on_c,72,74,1,1,1,84.0,True
629,360, Note_on_c,75,74,1,1,1,87.0,False
630,361, Note_on_c,65,74,1,1,1,76.0,True
631,362, Note_on_c,70,74,1,1,1,81.0,False
632,362, Note_on_c,73,74,1,1,1,85.0,False
633,363, Note_on_c,72,74,1,1,1,84.0,True
634,363, Note_on_c,75,74,1,1,1,87.0,False
635,364, Note_on_c,70,74,1,1,1,81.0,False
636,364, Note_on_c,73,74,1,1,1,85.0,False
637,365, Note_on_c,72,74,1,1,1,84.0,True
638,365, Note_on_c,77,74,1,1,1,90.0,True
639,366, Note_on_c,65,74,1,1,1,76.0,True
640,367, Note_on_c,70,74,1,1,1,81.0,False
641,367, Note_on_c,73,74,1,1,1,85.0,False
642,368, Note_on_c,72,74,1,1,1,84.0,True
643,368, Note_on_c,75,74,1,1,1,87.0,False
644,369, Note_on_c,65,74,1,1,1,76.0,True
645,370, Note_on_c,70,74,1,1,1,81.0,False
646,370, Note_on_c,73,74,1,1,1,85.0,False
647,371, Note_on_c,72,74,1,1,1,84.0,True
648,371, Note_on_c,75,74,1,1,1,87.0,False
649,372, Note_on_c,70,74,1,1,1,81.0,False
650,372, Note_on_c,73,74,1,1,1,85.0,False
651,373, Note_on_c,72,74,1,1,1,84.0,True
652,373, Note_on_c,77,74,1,1,1,90.0,True
653,374, Note_on_c,65,74,1,1,1,76.0,True
654,375, Note_on_c,70,74,1,1,1,81.0,False
655,375, Note_on_c,73,74,1,1,1,85.0,False
656,376, Note_on_c,72,74,1,1,1,84.0,True
657,376, Note_on_c,75,74,1,1,1,87.0,False
658,377, Note_on_c,65,74,1,1,1,76.0,True
659,378, Note_on_c,70,74,1,1,1,81.0,False
660,378, Note_on_c,73,74,1,1,1,85.0,False
661,379, Note_on_c,72,74,1,1,1,84.0,True
662,379, Note_on_c,75,74,1,1,1,87.0,False
663,380, Note_on_c,70,74,1,1,1,81.0,False
664,380, Note_on_c,73,74,1,1,1,85.0,False
665,381, Note_on_c,72,74,1,1,1,84.0,True
666,381, Note_on_c,77,74,1,1,1,90.0,True
667,382, Note_on_c,65,74,1,1,1,76.0,True
668,383, Note_on_c,70,74,1,1,1,81.0,False
669,383, Note_on_c,73,74,1,1,1,85.0,False
670,384, Note_on_c,72,74,1,1,1,84.0,True
671,384, Note_on_c,75,74,1,1,1,87.0,False
672,385, Note_on_c,65,74,1,1,1,76.0,True
673,386, Note_on_c,70,74,1,1,1,81.0,False
674,386, Note_on_c,73,74,1,1,1,85.0,False
675,387, Note_on_c,72,74,1,1,1,84.0,True
676,387, Note_on_c,75,74,1,1,1,87.0,False
677,388, Note_on_c,70,74,1,1,1,81.0,False
678,388, Note_on_c,73,74,1,1,1,85.0,False
679,389, Note_on_c,72,74,1,1,1,84.0,True
680,389, Note_on_c,77,74,1,1,1,90.0,True
681,390, Note_on_c,65,74,1,1,1,76.0,True
682,391, Note_on_c,70,74,1,1,1,81.0,False
683,391, Note_on_c,73,74,1,1,1,85.0,False
684,392, Note_on_c,72,74,1,1,1,84.0,True
685,392, Note_on_c,75,74,1,1,1,87.0,False
686,393, Note_on_c,65,74,1,1,1,76.0,True
687,394, Note_on_c,70,74,1,1,1,81.0,False
688,394, Note_on_c,73,74,1,1,1,85.0,False
689,395, Note_on_c,72,74,1,1,1,84.0,True
690,395, Note_on_c,75,74,1,1,1,87.0,False
691,396, Note_on_c,70,74,1,1,1,81.0,False
692,396, Note_on_c,73,74,1,1,1,85.0,False
693,397, Note_on_c,72,74,1,1,1,84.0,True
694,397, Note_on_c,77,74,1,1,1,90.0,True
695,398, Note_on_c,65,74,1,1,1,76.0,True
696,399, Note_on_c,70,74,1,1,1,81.0,False
697,399, Note_on_c,73,74,1,1,1,85.0,False
698,400, Note_on_c,72,74,1,1,1,84.0,True
699,400, Note_on_c,75,74,1,1,1,87.0,False
700,401, Note_on_c,65,74,1,1,1,76.0,True
701,402, Note_on_c,70,74,1,1,1,81.0,False
702,402, Note_on_c,73,74,1,1,1,85.0,False
703,403, Note_on_c,72,74,1,1,1,84.0,True
704,403, Note_on_c,75,74,1,1,1,87.0,False
705,404, Note_on_c,70,74,1,1,1,81.0,False
706,404, Note_on_c,73,74,1,1,1,85.0,False
707,405, Note_on_c,72,74,1,1,1,84.0,True
708,405, Note_on_c,77,74,1,1,1,90.0,True
709,406, Note_on_c,65,74,1,1,1,76.0,True
710,407, Note_on_c,70,74,1,1,1,81.0,False
711,407, Note_on_c,73,74,1,1,1,85.0,False
712,408, Note_on_c,72,74,1,1,1,84.0,True
713,408, Note_on_c,75,74,1,1,1,87.0,False
714,409, Note_on_c,65,74,1,1,1,76.0,True
715,410, Note_on_c,70,74,1,1,1,81.0,False
716,410, Note_on_c,73,74,1,1,1,85.0,False
717,411, Note_on_c,72,74,1,1,1,84.0,True
718,411, Note_on_c,75,74,1,1,1,87.0,False
719,412, Note_on_c,70,74,1,1,1,81.0,False
720,412, Note_on_c,73,74,1,1,1,85.0,False
721,413, Note_on_c,72,74,1,1,1,84.0,True
722,413, Note_on_c,77,74,1,1,1,90.0,True
723,414, Note_on_c,65,74,1,1,1,76.0,True
724,415, Note_on_c,70,74,1,1,1,81.0,False
725,415, Note_on_c,73,74,1,1,1,85.0,False
726,416, Note_on_c,72,74,1,1,1,84.0,True
727,416, Note_on_c,75,74,1,1,1,87.0,False
728,417, Note_on_c,65,74,1,1,1,76.0,True
729,418, Note_on_c,70,74,1,1,1,81.0,False
730,418, Note_on_c,73,74,1,1,1,85.0,False
731,419, Note_on_c,72,74,1,1,1,84.0,True
732,419, Note_on_c,75,74,1,1,1,87.0,False
733,420, Note_on_c,70,74,1,1,1,81.0,False
734,420, Note_on_c,73,74,1,1,1,85.0,False
735,421, Note_on_c,72,74,1,1,1,84.0,True
736,421, Note_on_c,77,74,1,1,1,90.0,True
737,422, Note_on_c,65,74,1,1,1,76.0,True
738,423, Note_on_c,70,74,1,1,1,81.0,False
739,423, Note_on_c,73,74,1,1,1,85.0,False
740,424, Note_on_c,72,74,1,1,1,84.0,True
741,424, Note_on_c,75,74,1,1,1,87.0,False
742,425, Note_on_c,65,74,1,1,1,76.0,True
743,426, Note_on_c,70,74,1,1,1,81.0,False
744,426, Note_on_c,73,74,1,1,1,85.0,False
745,427, Note_on_c,72,74,1,1,1,84.0,True
746,427, Note_on_c,75,74,1,1,1,87.0,False
747,428, Note_on_c,70,74,1,1,1,81.0,False
748,428, Note_on_c,73,74,1,1,1,85.0,False
749,429, Note_on_c,72,74,1,1,1,84.0,True
750,429, Note_on_c,77,74,1,1,1,90.0,True
751,430, Note_on_c,65,74,1,1,1,76.0,True
752,431, Note_on_c,70,74,1,1,1,81.0,False
753,431, Note_on_c,73,74,1,1,1,85.0,False
754,432, Note_on_c,72,74,1,1,1,84.0,True
755,432, Note_on_c,75,74,1,1,1,87.0,False
756,433, Note_on_c,65,74,1,1,1,76.0,True
757,434, Note_on_c,70,74,1,1,1,81.0,False
758,434, Note_on_c,73,74,1,1,1,85.0,False
759,435, Note_on_c,72,74,1,1,1,84.0,True
760,435, Note_on_c,75,74,1,1,1,87.0,False
761,436, Note_on_c,70,74,1,1,1,81.0,False
762,436, Note_on_c,73,74,1,1,1,85.0,False
763,437, Note_on_c,72,74,1,1,1,84.0,True
764,437, Note_on_c,77,74,1,1,1,90.0,True
765,438, Note_on_c,65,74,1,1,1,76.0,True
766,439, Note_on_c,70,74,1,1,1,81.0,False
767,439, Note_on_c,73,74,1,1,1,85.0,False
768,440, Note_on_c,72,74,1,1,1,84.0,True
769,440, Note_on_c,75,74,1,1,1,87.0,False
770,441, Note_on_c,65,74,1,1,1,76.0,True
771,442, Note_on_c,70,74,1,1,1,81.0,False
772,442, Note_on_c,73,74,1,1,1,85.0,False
773,443, Note_on_c,72,74,1,1,1,84.0,True
774,443, Note_on_c,75,74,1,1,1,87.0,False
775,444, Note_on_c,70,74,1,1,1,81.0,False
776,444, Note_on_c,73,74,1,1,1,85.0,False
777,445, Note_on_c,72,74,1,1,1,84.0,True
778,445, Note_on_c,77,74,1,1,1,90.0,True
779,446, Note_on_c,65,74,1,1,1,76.0,True
780,447, Note_on_c,70,74,1,1,1,81.0,False
781,447, Note_on_c,73,74,1,1,1,85.0,False
782,448, Note_on_c,72,74,1,1,1,84.0,True
783,448, Note_on_c,75,74,1,1,1,87.0,False
784,449, Note_on_c,65,74,1,1,1,76.0,True
785,450, Note_on_c,70,74,1,1,1,81.0,False
786,450, Note_on_c,73,74,1,1,1,85.0,False
787,451, Note_on_c,72,74,1,1,1,84.0,True
788,451, Note_on_c,75,74,1,1,1,87.0,False
789,452, Note_on_c,70,74,1,1,1,81.0,False
790,452, Note_on_c,73,74,1,1,1,85.0,False
791,453, Note_on_c,72,74,1,1,1,84.0,True
792,453, Note_on_c,77,74,1,1,1,90.0,True
793,454, Note_on_c,65,74,1,1,1,76.0,True
794,455, Note_on_c,70,74,1,1,1,81.0,False
795,455, Note_on_c,73,74,1,1,1,85.0,False
796,456, Note_on_c,72,74,1,1,1,84.0,True
797,456, Note_on_c,75,74,1,1,1,87.0,False
798,457, Note_on_c,65,74,1,1,1,76.0,True
799,458, Note_on_c,70,74,1,1,1,81.0,False
800,458, Note_on_c,73,74,1,1,1,85.0,False
801,459, Note_on_c,72,74,1,1,1,84.0,True
802,459, Note_on_c,75,74,1,1,1,87.0,False
803,460, Note_on_c,70,74,1,1,1,81.0,False
804,460, Note_on_c,73,74,1,1,1,85.0,False
805,461, Note_on_c,72,74,1,1,1,84.0,True
806,461, Note_on_c,77,74,1,1,1,90.0,True
807,462, Note_on_c,65,74,1,1,1,76.0,True
808,463, Note_on_c,70,74,1,1,1,81.0,False
809,463, Note_on_c,73,74,1,1,1,85.0,False
810,464, Note_on_c,72,74,1,1,1,84.0,True
811,464, Note_on_c,75,74,1,1,1,87.0,False
812,465, Note_on_c,65,74,1,1,1,76.0,True
813,466, Note_on_c,70,74,1,1,1,81.0,False
814,466, Note_on_c,73,74,1,1,1,85.0,False
815,467, Note_on_c,72,74,1,1,1,84.0,True
816,467, Note_on_c,75,74,1,1,1,87.0,False
817,468, Note_on_c,70,74,1,1,1,81.0,False
818,468, Note_on_c,73,74,1,1,1,85.0,False
819,469, Note_on_c,72,74,1,1,1,84.0,True
820,469, Note_on_c,77,74,1,1,1,90.0,True
821,470, Note_on_c,65,74,1,1,1,76.0,True
822,471, Note_on_c,70,74,1,1,1,81.0,False
823,471, Note_on_c,73,74,1,1,1,85.0,False
824,472, Note_on_c,72,74,1,1,1,84.0,True
825,472, Note_on_c,75,74,1,1,1,87.0,False
826,473, Note_on_c,65,74,1,1,1,76.0,True
827,474, Note_on_c,70,74,1,1,1,81.0,False
828,474, Note_on_c,73,74,1,1,1,85.0,False
829,475, Note_on_c,72,74,1,1,1,84.0,True
830,475, Note_on_c,75,74,1,1,1,87.0,False
831,476, Note_on_c,70,74,1,1,1,81.0,False
832,476, Note_on_c,73,74,1,1,1,85.0,False
833,477, Note_on_c,72,74,1,1,1,84.0,True
834,477, Note_on_c,77,74,1,1,1,90.0,True
835,478, Note_on_c,65,74,1,1,1,76.0,True
836,479, Note_on_c,70,74,1,1,1,81.0,False
837,479, Note_on_c,73,74,1,1,1,85.0,False
838,480, Note_on_c,72,74,1,1,1,84.0,True
839,480, Note_on_c,75,74,1,1,1,87.0,False
840,481, Note_on_c,65,74,1,1,1,76.0,True
841,482, Note_on_c,70,74,1,1,1,81.0,False
842,482, Note_on_c,73,74,1,1,1,85.0,False
843,483, Note_on_c,72,74,1,1,1,84.0,True
844,483, Note_on_c,75,74,1,1,1,87.0,False
845,484, Note_on_c,70,74,1,1,1,81.0,False
846,484, Note_on_c,73,74,1,1,1,85.0,False
847,485, Note_on_c,72,74,1,1,1,84.0,True
848,485, Note_on_c,77,74,1,1,1,90.0,True
849,486, Note_on_c,65,74,1,1,1,76.0,True
850,487, Note_on_c,70,74,1,1,1,81.0,False
851,487, Note_on_c,73,74,1,1,1,85.0,False
852,488, Note_on_c,72,74,1,1,1,84.0,True
853,488, Note_on_c,75,74,1,1,1,87.0,False
854,489, Note_on_c,65,74,1,1,1,76.0,True
855,490, Note_on_c,70,74,1,1,1,81.0,False
856,490, Note_on_c,73,74,1,1,1,85.0,False
857,491, Note_on_c,72,74,1,1,1,84.0,True
858,491, Note_on_c,75,74,1,1,1,87.0,False
859,492, Note_on_c,70,74,1,1,1,81.0,False
860,492, Note_on_c,73,74,1,1,1,85.0,False
861,493, Note_on_c,72,74,1,1,1,84.0,True
862,493, Note_on_c,77,74,1,1,1,90.0,True
863,494, Note_on_c,65,74,1,1,1,76.0,True
864,495, Note_on_c,70,74,1,1,1,81.0,False
865,495, Note_on_c,73,74,1,1,1,85.0,False
866,496, Note_on_c,72,74,1,1,1,84.0,True
867,496, Note_on_c,75,74,1,1,1,87.0,False
868,497, Note_on_c,65,74,1,1,1,76.0,True
869,498, Note_on_c,70,74,1,1,1,81.0,False
870,498, Note_on_c,73,74,1,1,1,85.0,False
871,499, Note_on_c,72,74,1,1,1,84.0,True
872,499, Note_on_c,75,74,1,1,1,87.0,False
873,500, Note_on_c,70,74,1,1,1,81.0,False
874,500, Note_on_c,73,74,1,1,1,85.0,False
875,501, Note_on_c,72,74,1,1,1,84.0,True
876,501, Note_on_c,77,74,1,1,1,90.0,True
877,502, Note_on_c,65,74,1,1,1,76.0,True
878,503, Note_on_c,70,74,1,1,1,81.0,False
879,503, Note_on_c,73,74,1,1,1,85.0,False
880,504, Note_on_c,72,74,1,1,1,84.0,True
881,504, Note_on_c,75,74,1,1,1,87.0,False
882,505, Note_on_c,65,74,1,1,1,76.0,True
883,506, Note_on_c,70,74,1,1,1,81.0,False
884,506, Note_on_c,73,74,1,1,1,85.0,False
885,507, Note_on_c,72,74,1,1,1,84.0,True
886,507, Note_on_c,75,74,1,1,1,87.0,False
887,508, Note_on_c,70,74,1,1,1,81.0,False
888,508, Note_on_c,73,74,1,1,1,85.0,False
889,509, Note_on_c,72,74,1,1,1,84.0,True
890,509, Note_on_c,77,74,1,1,1,90.0,True
891,510, Note_on_c,65,74,1,1,1,76.0,True
892,511, Note_on_c,70,74,1,1,1,81.0,False
893,511, Note_on_c,73,74,1,1,1,85.0,False
894,512, Note_on_c,72,74,1,1,1,84.0,True
895,512, Note_on_c,75,74,1,1,1,87.0,False
896,513, Note_on_c,65,74,1,1,1,76.0,True
897,514, Note_on_c,70,74,1,1,1,81.0,False
898,514, Note_on_c,73,74,1,1,1,85.0,False
899,515, Note_on_c,72,74,1,1,1,84.0,True
900,515, Note_on_c,75,74,1,1,1,87.0,False
901,516, Note_on_c,70,74,1,1,1,81.0,False
902,516, Note_on_c,73,74,1,1,1,85.0,False
903,517, Note_on_c,72,74,1,1,1,84.0,True
904,517, Note_on_c,77,74,1,1,1,90.0,True
905,518, Note_on_c,65,74,1,1,1,76.0,True
906,519, Note_on_c,70,74,1,1,1,81.0,False
907,519, Note_on_c,73,74,1,1,1,85.0,False
908,520, Note_on_c,72,74,1,1,1,84.0,True
909,520, Note_on_c,75,74,1,1,1,87.0,False
910,521, Note_on_c,65,74,1,1,1,76.0,True
911,522, Note_on_c,70,74,1,1,1,81.0,False
912,522, Note_on_c,73,74,1,1,1,85.0,False
913,523, Note_on_c,72,74,1,1,1,84.0,True
914,523, Note_on_c,75,74,1,1,1,87.0,False
915,524, Note_on_c,70,74,1,1,1,81.0,False
916,524, Note_on_c,73,74,1,1,1,85.0,False
917,525, Note_on_c,72,74,1,1,1,84.0,True
918,525, Note_on_c,77,74,1,1,1,90.0,True
919,526, Note_on_c,65,74,1,1,1,76.0,True
920,527, Note_on_c,70,74,1,1,1,81.0,False
921,527, Note_on_c,73,74,1,1,1,85.0,False
922,528, Note_on_c,72,74,1,1,1,84.0,True
923,528, Note_on_c,75,74,1,1,1,87.0,False
924,529, Note_on_c,65,74,1,1,1,76.0,True
925,530, Note_on_c,70,74,1,1,1,81.0,False
926,530, Note_on_c,73,74,1,1,1,85.0,False
927,531, Note_on_c,72,74,1,1,1,84.0,True
928,531, Note_on_c,75,74,1,1,1,87.0,False
929,532, Note_on_c,70,74,1,1,1,81.0,False
930,532, Note_on_c,73,74,1,1,1,85.0,False
931,533, Note_on_c,72,74,1,1,1,84.0,True
932,533, Note_on_c,77,74,1,1,1,90.0,True
933,534, Note_on_c,65,74,1,1,1,76.0,True
934,535, Note_on_c,70,74,1,1,1,81.0,False
935,535, Note_on_c,73,74,1,1,1,85.0,False
936,536, Note_on_c,72,74,1,1,1,84.0,True
937,536, Note_on_c,75,74,1,1,1,87.0,False
938,537, Note_on_c,65,74,1,1,1,76.0,True
939,538, Note_on_c,70,74,1,1,1,81.0,False
940,538, Note_on_c,73,74,1,1,1,85.0,False
941,539, Note_on_c,72,74,1,1,1,84.0,True
942,539, Note_on_c,75,74,1,1,1,87.0,False
943,540, Note_on_c,70,74,1,1,1,81.0,False
944,540, Note_on_c,73,74,1,1,1,85.0,False
945,541, Note_on_c,72,74,1,1,1,84.0,True
946,541, Note_on_c,77,74,1,1,1,90.0,True
947,542, Note_on_c,65,74,1,1,1,76.0,True
948,543, Note_on_c,70,74,1,1,1,81.0,False
949,543, Note_on_c,73,74,1,1,1,85.0,False
950,544, Note_on_c,72,74,1,1,1,84.0,True
951,544, Note_on_c,75,74,1,1,1,87.0,False
952,545, Note_on_c,65,74,1,1,1,76.0,True
953,546, Note_on_c,70,74,1,1,1,81.0,False
954,546, Note_on_c,73,74,1,1,1,85.0,False
955,547, Note_on_c,72,74,1,1,1,84.0,True
956,547, Note_on_c,75,74,1,1,1,87.0,False
957,548, Note_on_c,70,74,1,1,1,81.0,False
958,548, Note_on_c,73,74,1,1,1,85.0,False
959,549, Note_on_c,72,74,1,1,1,84.0,True
960,549, Note_on_c,77,74,1,1,1,90.0,True
961,550, Note_on_c,65,74,1,1,1,76.0,True
962,551, Note_on_c,70,74,1,1,1,81.0,False
963,551, Note_on_c,73,74,1,1,1,85.0,False
964,552, Note_on_c,72,74,1,1,1,84.0,True
965,552, Note_on_c,75,74,1,1,1,87.0,False
966,553, Note_on_c,65,74,1,1,1,76.0,True
967,554, Note_on_c,70,74,1,1,1,81.0,False
968,554, Note_on_c,73,74,1,1,1,85.0,False
969,555, Note_on_c,72,74,1,1,1,84.0,True
970,555, Note_on_c,75,74,1,1,1,87.0,False
971,556, Note_on_c,70,74,1,1,1,81.0,False
972,556, Note_on_c,73,74,1,1,1,85.0,False
973,557, Note_on_c,72,74,1,1,1,84.0,True
974,557, Note_on_c,77,74,1,1,1,90.0,True
975,558, Note_on_c,65,74,1,1,1,76.0,True
976,559, Note_on_c,70,74,1,1,1,81.0,False
977,559, Note_on_c,73,74,1,1,1,85.0,False
978,560, Note_on_c,72,74,1,1,1,84.0,True
979,560, Note_on_c,75,74,1,1,1,87.0,False
980,561, Note_on_c,65,74,1,1,1,76.0,True
981,562, Note_on_c,70,74,1,1,1,81.0,False
982,562, Note_on_c,73,74,1,1,1,85.0,False
983,563, Note_on_c,72,74,1,1,1,84.0,True
984,563, Note_on_c,75,74,1,1,1,87.0,False
985,564, Note_on_c,70,74,1,1,1,81.0,False
986,564, Note_on_c,73,74,1,1,1,85.0,False
987,565, Note_on_c,72,74,1,1,1,84.0,True
988,565, Note_on_c,77,74,1,1,1,90.0,True
989,566, Note_on_c,65,74,1,1,1,76.0,True
990,567, Note_on_c,70,74,1,1,1,81.0,False
991,567, Note_on_c,73,74,1,1,1,85.0,False
992,568, Note_on_c,72,74,1,1,1,84.0,True
993,568, Note_on_c,75,74,1,1,1,87.0,False
994,569, Note_on_c,65,74,1,1,1,76.0,True
995,570, Note_on_c,70,74,1,1,1,81.0,False
996,570, Note_on_c,73,74,1,1,1,85.0,False
997,571, Note_on_c,72,74,1,1,1,84.0,True
998,571, Note_on_c,75,74,1,1,1,87.0,False
999,572, Note_on_c,70,74,1,1,1,81.0,False
1000,572, Note_on_c,73,74,1,1,1,85.0,False
1001,573, Note_on_c,72,74,1,1,1,84.0,True
1002,573, Note_on_c,77,74,1,1,1,90.0,True
1003,574, Note_on_c,65,74,1,1,1,76.0,True
1004,575, Note_on_c,70,74,1,1,1,81.0,False
1005,575, Note_on_c,73,74,1,1,1,85.0,False
1006,576, Note_on_c,72,74,1,1,1,84.0,True
1007,576, Note_on_c,75,74,1,1,1,87.0,False
1008,577, Note_on_c,65,74,1,1,1,76.0,True
1009,578, Note_on_c,70,74,1,1,1,81.0,False
1010,578, Note_on_c,73,74,1,1,1,85.0,False
1011,579, Note_on_c,72,74,1,1,1,84.0,True
1012,579, Note_on_c,75,74,1,1,1,87.0,False
1013,580, Note_on_c,70,74,1,1,1,81.0,False
1014,580, Note_on_c,73,74,1,1,1,85.0,False
1015,581, Note_on_c,72,74,1,1,1,84.0,True
1016,581, Note_on_c,77,74,1,1,1,90.0,True
1017,582, Note_on_c,65,74,1,1,1,76.0,True
1018,583, Note_on_c,70,74,1,1,1,81.0,False
1019,583, Note_on_c,73,74,1,1,1,85.0,False
1020,584, Note_on_c,72,74,1,1,1,84.0,True
1021,584, Note_on_c,75,74,1,1,1,87.0,False
1022,585, Note_on_c,65,74,1,1,1,76.0,True
1023,586, Note_on_c,70,74,1,1,1,81.0,False
1024,586, Note_on_c,73,74,1,1,1,85.0,False
1025,587, Note_on_c,72,74,1,1,1,84.0,True
1026,587, Note_on_c,75,74,1,1,1,87.0,False
1027,588, Note_on_c,70,74,1,1,1,81.0,False
1028,588, Note_on_c,73,74,1,1,1,85.0,False
1029,589, Note_on_c,72,74,1,1,1,84.0,True
1030,589, Note_on_c,77,74,1,1,1,90.0,True
1031,590, Note_on_c,65,74,1,1,1,76.0,True
1032,591, Note_on_c,70,74,1,1,1,81.0,False
1033,591, Note_on_c,73,74,1,1,1,85.0,False
1034,592, Note_on_c,72,74,1,1,1,84.0,True
1035,592, Note_on_c,75,74,1,1,1,87.0,False
1036,593, Note_on_c,65,74,1,1,1,76.0,True
1037,594, Note_on_c,70,74,1,1,1,81.0,False
1038,594, Note_on_c,73,74,1,1,1,85.0,False
1039,595, Note_on_c,72,74,1,1,1,84.0,True
1040,595, Note_on_c,75,74,1,1,1,87.0,False
1041,596, Note_on_c,70,74,1,1,1,81.0,False
1042,596, Note_on_c,73,74,1,1,1,85.0,False
1043,597, Note_on_c,72,74,1,1,1,84.0,True
1044,597, Note_on_c,77,74,1,1,1,90.0,True
1045,598, Note_on_c,65,74,1,1,1,76.0,True
1046,599, Note_on_c,70,74,1,1,1,81.0,False
1047,599, Note_on_c,73,74,1,1,1,85.0,False
1048,600, Note_on_c,72,74,1,1,1,84.0,True
1049,600, Note_on_c,75,74,1,1,1,87.0,False
1050,601, Note_on_c,65,74,1,1,1,76.0,True
1051,602, Note_on_c,70,74,1,1,1,81.0,False
1052,602, Note_on_c,73,74,1,1,1,85.0,False
1053,603, Note_on_c,72,74,1,1,1,84.0,True
1054,603, Note_on_c,75,74,1,1,1,87.0,False
1055,604, Note_on_c,70,74,1,1,1,81.0,False
1056,604, Note_on_c,73,74,1,1,1,85.0,False
1057,605, Note_on_c,72,74,1,1,1,84.0,True
1058,605, Note_on_c,77,74,1,1,1,90.0,True
1059,606, Note_on_c,65,74,1,1,1,76.0,True
1060,607, Note_on_c,70,74,1,1,1,81.0,False
1061,607, Note_on_c,73,74,1,1,1,85.0,False
1062,608, Note_on_c,72,74,1,1,1,84.0,True
1063,608, Note_on_c,75,74,1,1,1,87.0,False
1064,609, Note_on_c,65,74,1,1,1,76.0,True
1065,610, Note_on_c,70,74,1,1,1,81.0,False
1066,610, Note_on_c,73,74,1,1,1,85.0,False
1067,611, Note_on_c,72,74,1,1,1,84.0,True
1068,611, Note_on_c,75,74,1,1,1,87.0,False
1069,612, Note_on_c,70,74,1,1,1,81.0,False
1070,612, Note_on_c,73,74,1,1,1,85.0,False
1071,613, Note_on_c,72,74,1,1,1,84.0,True
1072,613, Note_on_c,77,74,1,1,1,90.0,True
1073,614, Note_on_c,65,74,1,1,1,76.0,True
1074,615, Note_on_c,70,74,1,1,1,81.0,False
1075,615, Note_on_c,73,74,1,1,1,85.0,False
1076,616, Note_on_c,72,74,1,1,1,84.0,True
1077,616, Note_on_c,75,74,1,1,1,87.0,False
1078,617, Note_on_c,65,74,1,1,1,76.0,True
1079,618, Note_on_c,70,74,1,1,1,81.0,False
1080,618, Note_on_c,73,74,1,1,1,85.0,False
1081,619, Note_on_c,72,74,1,1,1,84.0,True
1082,619, Note_on_c,75,74,1,1,1,87.0,False
1083,620, Note_on_c,70,74,1,1,1,81.0,False
1084,620, Note_on_c,73,74,1,1,1,85.0,False
1085,621, Note_on_c,72,74,1,1,1,84.0,True
1086,621, Note_on_c,77,74,1,1,1,90.0,True
1087,622, Note_on_c,65,74,1,1,1,76.0,True
1088,623, Note_on_c,70,74,1,1,1,81.0,False
1089,623, Note_on_c,73,74,1,1,1,85.0,False
1090,624, Note_on_c,72,74,1,1,1,84.0,True
1091,624, Note_on_c,75,74,1,1,1,87.0,False
1092,625, Note_on_c,65,74,1,1,1,76.0,True
1093,626, Note_on_c,70,74,1,1,1,81.0,False
1094,626, Note_on_c,73,74,1,1,1,85.0,False
1095,627, Note_on_c,72,74,1,1,1,84.0,True
1096,627, Note_on_c,75,74,1,1,1,87.0,False
1097,628, Note_on_c,70,74,1,1,1,81.0,False
1098,628, Note_on_c,73,74,1,1,1,85.0,False
1099,629, Note_on_c,72,74,1,1,1,84.0,True
1100,629, Note_on_c,77,74,1,1,1,90.0,True
1101,630, Note_on_c,65,74,1,1,1,76.0,True
1102,631, Note_on_c,70,74,1,1,1,81.0,False
1103,631, Note_on_c,73,74,1,1,1,85.0,False
1104,632, Note_on_c,72,74,1,1,1,84.0,True
1105,632, Note_on_c,75,74,1,1,1,87.0,False
1106,633, Note_on_c,65,74,1,1,1,76.0,True
1107,634, Note_on_c,70,74,1,1,1,81.0,False
1108,634, Note_on_c,73,74,1,1,1,85.0,False
1109,635, Note_on_c,72,74,1,1,1,84.0,True
1110,635, Note_on_c,75,74,1,1,1,87.0,False
1111,636, Note_on_c,70,74,1,1,1,81.0,False
1112,636, Note_on_c,73,74,1,1,1,85.0,False
1113,637, Note_on_c,72,74,1,1,1,84.0,True
1114,637, Note_on_c,77,74,1,1,1,90.0,True
1115,638, Note_on_c,65,74,1,1,1,76.0,True
1116,639, Note_on_c,70,74,1,1,1,81.0,False
1117,639, Note_on_c,73,74,1,1,1,85.0,False
1118,640, Note_on_c,72,74,1,1,1,84.0,True
1119,640, Note_on_c,75,74,1,1,1,87.0,False
1120,641, Note_on_c,65,74,1,1,1,76.0,True
1121,642, Note_on_c,70,74,1,1,1,81.0,False
1122,642, Note_on_c,73,74,1,1,1,85.0,False
1123,643, Note_on_c,72,74,1,1,1,84.0,True
1124,643, Note_on_c,75,74,1,1,1,87.0,False
1125,644, Note_on_c,70,74,1,1,1,81.0,False
1126,644, Note_on_c,73,74,1,1,1,85.0,False
1127,645, Note_on_c,72,74,1,1,1,84.0,True
1128,645, Note_on_c,77,74,1,1,1,90.0,True
1129,646, Note_on_c,65,74,1,1,1,76.0,True
1130,647, Note_on_c,70,74,1,1,1,81.0,False
1131,647, Note_on_c,73,74,1,1,1,85.0,False
1132,648, Note_on_c,72,74,1,1,1,84.0,True
1133,648, Note_on_c,75,74,1,1,1,87.0,False
1134,649, Note_on_c,65,74,1,1,1,76.0,True
1135,650, Note_on_c,70,74,1,1,1,81.0,False
1136,650, Note_on_c,73,74,1,1,1,85.0,False
1137,651, Note_on_c,72,74,1,1,1,84.0,True
1138,651, Note_on_c,75,74,1,1,1,87.0,False
1139,652, Note_on_c,70,74,1,1,1,81.0,False
1140,652, Note_on_c,73,74,1,1,1,85.0,False
1141,653, Note_on_c,72,74,1,1,1,84.0,True
1142,653, Note_on_c,77,74,1,1,1,90.0,True
1143,654, Note_on_c,65,74,1,1,1,76.0,True
1144,655, Note_on_c,70,74,1,1,1,81.0,False
1145,655, Note_on_c,73,74,1,1,1,85.0,False
1146,656, Note_on_c,72,74,1,1,1,84.0,True
1147,656, Note_on_c,75,74,1,1,1,87.0,False
1148,657, Note_on_c,65,74,1,1,1,76.0,True
1149,658, Note_on_c,70,74,1,1,1,81.0,False
1150,658, Note_on_c,73,74,1,1,1,85.0,False
1151,659, Note_on_c,72,74,1,1,1,84.0,True
1152,659, Note_on_c,75,74,1,1,1,87.0,False
1153,660, Note_on_c,70,74,1,1,1,81.0,False
1154,660, Note_on_c,73,74,1,1,1,85.0,False
1155,661, Note_on_c,72,74,1,1,1,84.0,True
1156,661, Note_on_c,77,74,1,1,1,90.0,True
1157,662, Note_on_c,65,74,1,1,1,76.0,True
1158,663, Note_on_c,70,74,1,1,1,81.0,False
1159,663, Note_on_c,73,74,1,1,1,85.0,False
1160,664, Note_on_c,72,74,1,1,1,84.0,True
1161,664, Note_on_c,75,74,1,1,1,87.0,False
1162,665, Note_on_c,65,74,1,1,1,76.0,True
1163,666, Note_on_c,70,74,1,1,1,81.0,False
1164,666, Note_on_c,73,74,1,1,1,85.0,False
1165,667, Note_on_c,72,74,1,1,1,84.0,True
1166,667, Note_on_c,75,74,1,1,1,87.0,False
1167,668, Note_on_c,70,74,1,1,1,81.0,False
1168,668, Note_on_c,73,74,1,1,1,85.0,False
1169,669, Note_on_c,72,74,1,1,1,84.0,True
1170,669, Note_on_c,77,74,1,1,1,90.0,True
1171,670, Note_on_c,65,74,1,1,1,76.0,True
1172,671, Note_on_c,70,74,1,1,1,81.0,False
1173,671, Note_on_c,73,74,1,1,1,85.0,False
1174,672, Note_on_c,72,74,1,1,1,84.0,True
1175,672, Note_on_c,75,74,1,1,1,87.0,False
1176,673, Note_on_c,65,74,1,1,1,76.0,True
1177,674, Note_on_c,70,74,1,1,1,81.0,False
1178,674, Note_on_c,73,74,1,1,1,85.0,False
1179,675, Note_on_c,72,74,1,1,1,84.0,True
1180,675, Note_on_c,75,74,1,1,1,87.0,False
1181,676, Note_on_c,70,74,1,1,1,81.0,False
1182,676, Note_on_c,73,74,1,1,1,85.0,False
1183,677, Note_on_c,72,74,1,1,1,84.0,True
1184,677, Note_on_c,77,74,1,1,1,90.0,True
1185,678, Note_on_c,65,74,1,1,1,76.0,True
1186,679, Note_on_c,70,74,1,1,1,81.0,False
1187,679, Note_on_c,73,74,1,1,1,85.0,False
1188,680, Note_on_c,72,74,1,1,1,84.0,True
1189,680, Note_on_c,75,74,1,1,1,87.0,False
1190,681, Note_on_c,65,74,1,1,1,76.0,True
1191,682, Note_on_c,70,74,1,1,1,81.0,False
1192,682, Note_on_c,73,74,1,1,1,85.0,False
1193,683, Note_on_c,72,74,1,1,1,84.0,True
1194,683, Note_on_c,75,74,1,1,1,87.0,False
1195,684, Note_on_c,70,74,1,1,1,81.0,False
1196,684, Note_on_c,73,74,1,1,1,85.0,False
1197,685, Note_on_c,72,74,1,1,1,84.0,True
1198,685, Note_on_c,77,74,1,1,1,90.0,True
1199,686, Note_on_c,65,74,1,1,1,76.0,True
1200,687, Note_on_c,70,74,1,1,1,81.0,False
1201,687, Note_on_c,73,74,1,1,1,85.0,False
1202,688, Note_on_c,72,74,1,1,1,84.0,True
1203,688, Note_on_c,75,74,1,1,1,87.0,False
1204,689, Note_on_c,65,74,1,1,1,76.0,True
1205,690, Note_on_c,70,74,1,1,1,81.0,False
1206,690, Note_on_c,73,74,1,1,1,85.0,False
1207,691, Note_on_c,72,74,1,1,1,84.0,True
1208,691, Note_on_c,75,74,1,1,1,87.0,False
1209,692, Note_on_c,70,74,1,1,1,81.0,False
1210,692, Note_on_c,73,74,1,1,1,85.0,False
1211,693, Note_on_c,72,74,1,1,1,84.0,True
1212,693, Note_on_c,77,74,1,1,1,90.0,True
1213,694, Note_on_c,65,74,1,1,1,76.0,True
1214,695, Note_on_c,70,74,1,1,1,81.0,False
1215,695, Note_on_c,73,74,1,1,1,85.0,False
1216,696, Note_on_c,72,74,1,1,1,84.0,True
1217,696, Note_on_c,75,74,1,1,1,87.0,False
1218,697, Note_on_c,65,74,1,1,1,76.0,True
1219,698, Note_on_c,70,74,1,1,1,81.0,False
1220,698, Note_on_c,73,74,1,1,1,85.0,False
1221,699, Note_on_c,72,74,1,1,1,84.0,True
1222,699, Note_on_c,75,74,1,1,1,87.0,False
1223,700, Note_on_c,70,74,1,1,1,81.0,False
1224,700, Note_on_c,73,74,1,1,1,85.0,False
1225,701, Note_on_c,72,74,1,1,1,84.0,True
1226,701, Note_on_c,77,74,1,1,1,90.0,True
1227,702, Note_on_c,65,74,1,1,1,76.0,True
1228,703, Note_on_c,70,74,1,1,1,81.0,False
1229,703, Note_on_c,73,74,1,1,1,85.0,False
1230,704, Note_on_c,72,74,1,1,1,84.0,True
1231,704, Note_on_c,75,74,1,1,1,87.0,False
1232,705, Note_on_c,65,74,1,1,1,76.0,True
1233,706, Note_on_c,70,74,1,1,1,81.0,False
1234,706, Note_on_c,73,74,1,1,1,85.0,False
1235,707, Note_on_c,72,74,1,1,1,84.0,True
1236,707, Note_on_c,75,74,1,1,1,87.0,False
1237,708, Note_on_c,70,74,1,1,1,81.0,False
1238,708, Note_on_c,73,74,1,1,1,85.0,False
1239,709, Note_on_c,72,74,1,1,1,84.0,True
1240,709, Note_on_c,77,74,1,1,1,90.0,True
1241,710, Note_on_c,65,74,1,1,1,76.0,True
1242,711, Note_on_c,70,74,1,1,1,81.0,False
1243,711, Note_on_c,73,74,1,1,1,85.0,False
1244,712, Note_on_c,72,74,1,1,1,84.0,True
1245,712, Note_on_c,75,74,1,1,1,87.0,False
1246,713, Note_on_c,65,74,1,1,1,76.0,True
1247,714, Note_on_c,70,74,1,1,1,81.0,False
1248,714, Note_on_c,73,74,1,1,1,85.0,False
1249,715, Note_on_c,72,74,1,1,1,84.0,True
1250,715, Note_on_c,75,74,1,1,1,87.0,False
1251,716, Note_on_c,70,74,1,1,1,81.0,False
1252,716, Note_on_c,73,74,1,1,1,85.0,False
1253,717, Note_on_c,72,74,1,1,1,84.0,True
1254,717, Note_on_c,77,74,1,1,1,90.0,True
1255,718, Note_on_c,65,74,1,1,1,76.0,True
1256,719, Note_on_c,70,74,1,1,1,81.0,False
1257,719, Note_on_c,73,74,1,1,1,85.0,False
1258,720, Note_on_c,72,74,1,1,1,84.0,True
1259,720, Note_on_c,75,74,1,1,1,87.0,False
1260,721, Note_on_c,65,74,1,1,1,76.0,True
1261,722, Note_on_c,70,74,1,1,1,81.0,False
1262,722, Note_on_c,73,74,1,1,1,85.0,False
1263,723, Note_on_c,72,74,1,1,1,84.0,True
1264,723, Note_on_c,75,74,1,1,1,87.0,False
1265,724, Note_on_c,70,74,1,1,1,81.0,False
1266,724, Note_on_c,73,74,1,1,1,85.0,False
1267,725, Note_on_c,72,74,1,1,1,84.0,True
1268,725, Note_on_c,77,74,1,1,1,90.0,True
1269,726, Note_on_c,65,74,1,1,1,76.0,True
1270,727, Note_on_c,70,74,1,1,1,81.0,False
1271,727, Note_on_c,73,74,1,1,1,85.0,False
1272,728, Note_on_c,72,74,1,1,1,84.0,True
1273,728, Note_on_c,75,74,1,1,1,87.0,False
1274,729, Note_on_c,65,74,1,1,1,76.0,True
1275,730, Note_on_c,70,74,1,1,1,81.0,False
1276,730, Note_on_c,73,74,1,1,1,85.0,False
1277,731, Note_on_c,72,74,1,1,1,84.0,True
1278,731, Note_on_c,75,74,1,1,1,87.0,False
1279,732, Note_on_c,70,74,1,1,1,81.0,False
1280,732, Note_on_c,73,74,1,1,1,85.0,False
1281,733, Note_on_c,72,74,1,1,1,84.0,True
1282,733, Note_on_c,77,74,1,1,1,90.0,True
1283,734, Note_on_c,65,74,1,1,1,76.0,True
1284,735, Note_on_c,70,74,1,1,1,81.0,False
1285,735, Note_on_c,73,74,1,1,1,85.0,False
1286,736, Note_on_c,72,74,1,1,1,84.0,True
1287,736, Note_on_c,75,74,1,1,1,87.0,False
1288,737, Note_on_c,65,74,1,1,1,76.0,True
1289,738, Note_on_c,70,74,1,1,1,81.0,False
1290,738, Note_on_c,73,74,1,1,1,85.0,False
1291,739, Note_on_c,72,74,1,1,1,84.0,True
1292,739, Note_on_c,75,74,1,1,1,87.0,False
1293,740, Note_on_c,70,74,1,1,1,81.0,False
1294,740, Note_on_c,73,74,1,1,1,85.0,False
1295,741, Note_on_c,72,74,1,1,1,84.0,True
1296,741, Note_on_c,77,74,1,1,1,90.0,True
1297,742, Note_on_c,65,74,1,1,1,76.0,True
1298,743, Note_on_c,70,74,1,1,1,81.0,False
1299,743, Note_on_c,73,74,1,1,1,85.0,False
1300,744, Note_on_c,72,74,1,1,1,84.0,True
1301,744, Note_on_c,75,74,1,1,1,87.0,False
1302,745, Note_on_c,65,74,1,1,1,76.0,True
1303,746, Note_on_c,70,74,1,1,1,81.0,False
1304,746, Note_on_c,73,74,1,1,1,85.0,False
1305,747, Note_on_c,72,74,1,1,1,84.0,True
1306,747, Note_on_c,75,74,1,1,1,87.0,False
1307,748, Note_on_c,70,74,1,1,1,81.0,False
1308,748, Note_on_c,73,74,1,1,1,85.0,False
1309,749, Note_on_c,72,74,1,1,1,84.0,True
1310,749, Note_on_c,77,74,1,1,1,90.0,True
1311,750, Note_on_c,65,74,1,1,1,76.0,True
1312,751, Note_on_c,70,74,1,1,1,81.0,False
1313,751, Note_on_c,73,74,1,1,1,85.0,False
1314,752, Note_on_c,72,74,1,1,1,84.0,True
1315,752, Note_on_c,75,74,1,1,1,87.0,False
1316,753, Note_on_c,65,74,1,1,1,76.0,True
1317,754, Note_on_c,70,74,1,1,1,81.0,False
1318,754, Note_on_c,73,74,1,1,1,85.0,False
1319,755, Note_on_c,72,74,1,1,1,84.0,True
1320,755, Note_on_c,75,74,1,1,1,87.0,False
1321,756, Note_on_c,70,74,1,1,1,81.0,False
1322,756, Note_on_c,73,74,1,1,1,85.0,False
1323,757, Note_on_c,72,74,1,1,1,84.0,True
1324,757, Note_on_c,77,74,1,1,1,90.0,True
1325,758, Note_on_c,65,74,1,1,1,76.0,True
1326,759, Note_on_c,70,74,1,1,1,81.0,False
1327,759, Note_on_c,73,74,1,1,1,85.0,False
1328,760, Note_on_c,72,74,1,1,1,84.0,True
1329,760, Note_on_c,75,74,1,1,1,87.0,False
1330,761, Note_on_c,65,74,1,1,1,76.0,True
1331,762, Note_on_c,70,74,1,1,1,81.0,False
1332,762, Note_on_c,73,74,1,1,1,85.0,False
1333,763, Note_on_c,72,74,1,1,1,84.0,True
1334,763, Note_on_c,75,74,1,1,1,87.0,False
1335,764, Note_on_c,70,74,1,1,1,81.0,False
1336,764, Note_on_c,73,74,1,1,1,85.0,False
1337,765, Note_on_c,72,74,1,1,1,84.0,True
1338,765, Note_on_c,77,74,1,1,1,90.0,True
1339,766, Note_on_c,65,74,1,1,1,76.0,True
1340,767, Note_on_c,70,74,1,1,1,81.0,False
1341,767, Note_on_c,73,74,1,1,1,85.0,False
1342,768, Note_on_c,72,74,1,1,1,84.0,True
1343,768, Note_on_c,75,74,1,1,1,87.0,False
1344,769, Note_on_c,65,74,1,1,1,76.0,True
1345,770, Note_on_c,70,74,1,1,1,81.0,False
1346,770, Note_on_c,73,74,1,1,1,85.0,False
1347,771, Note_on_c,72,74,1,1,1,84.0,True
1348,771, Note_on_c,75,74,1,1,1,87.0,False
1349,772, Note_on_c,70,74,1,1,1,81.0,False
1350,772, Note_on_c,73,74,1,1,1,85.0,False
1351,773, Note_on_c,72,74,1,1,1,84.0,True
1352,773, Note_on_c,77,74,1,1,1,90.0,True
1353,774, Note_on_c,65,74,1,1,1,76.0,True
1354,775, Note_on_c,70,74,1,1,1,81.0,False
1355,775, Note_on_c,73,74,1,1,1,85.0,False
1356,776, Note_on_c,72,74,1,1,1,84.0,True
1357,776, Note_on_c,75,74,1,1,1,87.0,False
1358,777, Note_on_c,65,74,1,1,1,76.0,True
1359,778, Note_on_c,70,74,1,1,1,81.0,False
1360,778, Note_on_c,73,74,1,1,1,85.0,False
1361,779, Note_on_c,72,74,1,1,1,84.0,True
1362,779, Note_on_c,75,74,1,1,1,87.0,False
1363,780, Note_on_c,70,74,1,1,1,81.0,False
1364,780, Note_on_c,73,74,1,1,1,85.0,False
1365,781, Note_on_c,72,74,1,1,1,84.0,True
1366,781, Note_on_c,77,74,1,1,1,90.0,True
1367,782, Note_on_c,65,74,1,1,1,76.0,True
1368,783, Note_on_c,70,74,1,1,1,81.0,False
1369,783, Note_on_c,73,74,1,1,1,85.0,False
1370,784, Note_on_c,72,74,1,1,1,84.0,True
1371,784, Note_on_c,75,74,1,1,1,87.0,False
1372,785, Note_on_c,65,74,1,1,1,76.0,True
1373,786, Note_on_c,70,74,1,1,1,81.0,False
1374,786, Note_on_c,73,74,1,1,1,85.0,False
1375,787, Note_on_c,72,74,1,1,1,84.0,True
1376,787, Note_on_c,75,74,1,1,1,87.0,False
1377,788, Note_on_c,70,74,1,1,1,81.0,False
1378,788, Note_on_c,73,74,1,1,1,85.0,False
1379,789, Note_on_c,72,74,1,1,1,84.0,True
1380,789, Note_on_c,77,74,1,1,1,90.0,True
1381,790, Note_on_c,65,74,1,1,1,76.0,True
1382,791, Note_on_c,70,74,1,1,1,81.0,False
1383,791, Note_on_c,73,74,1,1,1,85.0,False
1384,792, Note_on_c,72,74,1,1,1,84.0,True
1385,792, Note_on_c,75,74,1,1,1,87.0,False
1386,793, Note_on_c,65,74,1,1,1,76.0,True
1387,794, Note_on_c,70,74,1,1,1,81.0,False
1388,794, Note_on_c,73,74,1,1,1,85.0,False
1389,795, Note_on_c,72,74,1,1,1,84.0,True
1390,795, Note_on_c,75,74,1,1,1,87.0,False
1391,796, Note_on_c,70,74,1,1,1,81.0,False
1392,796, Note_on_c,73,74,1,1,1,85.0,False
1393,797, Note_on_c,72,74,1,1,1,84.0,True
1394,797, Note_on_c,77,74,1,1,1,90.0,True
1395,798, Note_on_c,65,74,1,1,1,76.0,True
1396,799, Note_on_c,70,74,1,1,1,81.0,False
1397,799, Note_on_c,73,74,1,1,1,85.0,False
1398,800, Note_on_c,72,74,1,1,1,84.0,True
1399,800, Note_on_c,75,74,1,1,1,87.0,False
1400,801, Note_on_c,65,74,1,1,1,76.0,True
1401,802, Note_on_c,70,74,1,1,1,81.0,False
1402,802, Note_on_c,73,74,1,1,1,85.0,False
1403,803, Note_on_c,72,74,1,1,1,84.0,True
1404,803, Note_on_c,75,74,1,1,1,87.0,False
1405,804, Note_on_c,70,74,1,1,1,81.0,False
1406,804, Note_on_c,73,74,1,1,1,85.0,False
1407,805, Note_on_c,72,74,1,1,1,84.0,True
1408,805, Note_on_c,77,74,1,1,1,90.0,True
1409,806, Note_on_c,65,74,1,1,1,76.0,True
1410,807, Note_on_c,70,74,1,1,1,81.0,False
1411,807, Note_on_c,73,74,1,1,1,85.0,False
1412,808, Note_on_c,72,74,1,1,1,84.0,True
1413,808, Note_on_c,75,74,1,1,1,87.0,False
1414,809, Note_on_c,65,74,1,1,1,76.0,True
1415,810, Note_on_c,70,74,1,1,1,81.0,False
1416,810, Note_on_c,73,74,1,1,1,85.0,False
1417,811, Note_on_c,72,74,1,1,1,84.0,True
1418,811, Note_on_c,75,74,1,1,1,87.0,False
1419,812, Note_on_c,70,74,1,1,1,81.0,False
1420,812, Note_on_c,73,74,1,1,1,85.0,False
1421,813, Note_on_c,72,74,1,1,1,84.0,True
1422,813, Note_on_c,77,74,1,1,1,90.0,True
1423,814, Note_on_c,65,74,1,1,1,76.0,True
1424,815, Note_on_c,70,74,1,1,1,81.0,False
1425,815, Note_on_c,73,74,1,1,1,85.0,False
1426,816, Note_on_c,72,74,1,1,1,84.0,True
1427,816, Note_on_c,75,74,1,1,1,87.0,False
1428,817, Note_on_c,65,74,1,1,1,76.0,True
1429,818, Note_on_c,70,74,1,1,1,81.0,False
1430,818, Note_on_c,73,74,1,1,1,85.0,False
1431,819, Note_on_c,72,74,1,1,1,84.0,True
1432,819, Note_on_c,75,74,1,1,1,87.0,False
1433,820, Note_on_c,70,74,1,1,1,81.0,False
1434,820, Note_on_c,73,74,1,1,1,85.0,False
1435,821, Note_on_c,72,74,1,1,1,84.0,True
1436,821, Note_on_c,77,74,1,1,1,90.0,True
1437,822, Note_on_c,65,74,1,1,1,76.0,True
1438,823, Note_on_c,70,74,1,1,1,81.0,False
1439,823, Note_on_c,73,74,1,1,1,85.0,False
1440,824, Note_on_c,72,74,1,1,1,84.0,True
1441,824, Note_on_c,75,74,1,1,1,87.0,False
1442,825, Note_on_c,65,74,1,1,1,76.0,True
1443,826, Note_on_c,70,74,1,1,1,81.0,False
1444,826, Note_on_c,73,74,1,1,1,85.0,False
1445,827, Note_on_c,72,74,1,1,1,84.0,True
1446,827, Note_on_c,75,74,1,1,1,87.0,False
1447,828, Note_on_c,70,74,1,1,1,81.0,False
1448,828, Note_on_c,73,74,1,1,1,85.0,False
1449,829, Note_on_c,72,74,1,1,1,84.0,True
1450,829, Note_on_c,77,74,1,1,1,90.0,True
1451,830, Note_on_c,65,74,1,1,1,76.0,True
1452,831, Note_on_c,70,74,1,1,1,81.0,False
1453,831, Note_on_c,73,74,1,1,1,85.0,False
1454,832, Note_on_c,72,74,1,1,1,84.0,True
1455,832, Note_on_c,75,74,1,1,1,87.0,False
1456,833, Note_on_c,65,74,1,1,1,76.0,True
1457,834, Note_on_c,70,74,1,1,1,81.0,False
1458,834, Note_on_c,73,74,1,1,1,85.0,False
1459,835, Note_on_c,72,74,1,1,1,84.0,True
1460,835, Note_on_c,75,74,1,1,1,87.0,False
1461,836, Note_on_c,70,74,1,1,1,81.0,False
1462,836, Note_on_c,73,74,1,1,1,85.0,False
1463,837, Note_on_c,72,74,1,1,1,84.0,True
1464,837, Note_on_c,77,74,1,1,1,90.0,True
1465,838, Note_on_c,65,74,1,1,1,76.0,True
1466,839, Note_on_c,70,74,1,1,1,81.0,False
1467,839, Note_on_c,73,74,1,1,1,85.0,False
1468,840, Note_on_c,72,74,1,1,1,84.0,True
1469,840, Note_on_c,75,74,1,1,1,87.0,False
1470,841, Note_on_c,65,74,1,1,1,76.0,True
1471,842, Note_on_c,70,74,1,1,1,81.0,False
1472,842, Note_on_c,73,74,1,1,1,85.0,False
1473,843, Note_on_c,72,74,1,1,1,84.0,True
1474,843, Note_on_c,75,74,1,1,1,87.0,False
1475,844, Note_on_c,70,74,1,1,1,81.0,False
1476,844, Note_on_c,73,74,1,1,1,85.0,False
1477,845, Note_on_c,72,74,1,1,1,84.0,True
1478,845, Note_on_c,77,74,1,1,1,90.0,True
1479,846, Note_on_c,65,74,1,1,1,76.0,True
1480,847, Note_on_c,70,74,1,1,1,81.0,False
1481,847, Note_on_c,73,74,1,1,1,85.0,False
1482,848, Note_on_c,72,74,1,1,1,84.0,True
1483,848, Note_on_c,75,74,1,1,1,87.0,False
1484,849, Note_on_c,65,74,1,1,1,76.0,True
1485,850, Note_on_c,70,74,1,1,1,81.0,False
1486,850, Note_on_c,73,74,1,1,1,85.0,False
1487,851, Note_on_c,72,74,1,1,1,84.0,True
1488,851, Note_on_c,75,74,1,1,1,87.0,False
1489,852, Note_on_c,70,74,1,1,1,81.0,False
1490,852, Note_on_c,73,74,1,1,1,85.0,False
1491,853, Note_on_c,72,74,1,1,1,84.0,True
1492,853, Note_on_c,77,74,1,1,1,90.0,True
1493,854, Note_on_c,65,74,1,1,1,76.0,True
1494,855, Note_on_c,70,74,1,1,1,81.0,False
1495,855, Note_on_c,73,74,1,1,1,85.0,False
1496,856, Note_on_c,72,74,1,1,1,84.0,True
1497,856, Note_on_c,75,74,1,1,1,87.0,False
1498,857, Note_on_c,65,74,1,1,1,76.0,True
1499,858, Note_on_c,70,74,1,1,1,81.0,False
1500,858, Note_on_c,73,74,1,1,1,85.0,False
1501,859, Note_on_c,72,74,1,1,1,84.0,True
1502,859, Note_on_c,75,74,1,1,1,87.0,False
1503,860, Note_on_c,70,74,1,1,1,81.0,False
1504,860, Note_on_c,73,74,1,1,1,85.0,False
1505,861, Note_on_c,72,74,1,1,1,84.0,True
1506,861, Note_on_c,77,74,1,1,1,90.0,True
1507,862, Note_on_c,65,74,1,1,1,76.0,True
1508,863, Note_on_c,70,74,1,1,1,81.0,False
1509,863, Note_on_c,73,74,1,1,1,85.0,False
1510,864, Note_on_c,72,74,1,1,1,84.0,True
1511,864, Note_on_c,75,74,1,1,1,87.0,False
1512,865, Note_on_c,65,74,1,1,1,76.0,True
1513,866, Note_on_c,70,74,1,1,1,81.0,False
1514,866, Note_on_c,73,74,1,1,1,85.0,False
1515,867, Note_on_c,72,74,1,1,1,84.0,True
1516,867, Note_on_c,75,74,1,1,1,87.0,False
1517,868, Note_on_c,70,74,1,1,1,81.0,False
1518,868, Note_on_c,73,74,1,1,1,85.0,False
1519,869, Note_on_c,72,74,1,1,1,84.0,True
1520,869, Note_on_c,77,74,1,1,1,90.0,True
1521,870, Note_on_c,65,74,1,1,1,76.0,True
1522,871, Note_on_c,70,74,1,1,1,81.0,False
1523,871, Note_on_c,73,74,1,1,1,85.0,False
1524,872, Note_on_c,72,74,1,1,1,84.0,True
1525,872, Note_on_c,75,74,1,1,1,87.0,False
1526,873, Note_on_c,65,74,1,1,1,76.0,True
1527,874, Note_on_c,70,74,1,1,1,81.0,False
1528,874, Note_on_c,73,74,1,1,1,85.0,False
1529,875, Note_on_c,72,74,1,1,1,84.0,True
1530,875, Note_on_c,75,74,1,1,1,87.0,False
1531,876, Note_on_c,70,74,1,1,1,81.0,False
1532,876, Note_on_c,73,74,1,1,1,85.0,False
1533,877, Note_on_c,72,74,1,1,1,84.0,True
1534,877, Note_on_c,77,74,1,1,1,90.0,True
1535,878, Note_on_c,65,74,1,1,1,76.0,True
1536,879, Note_on_c,70,74,1,1,1,81.0,False
1537,879, Note_on_c,73,74,1,1,1,85.0,False
1538,880, Note_on_c,72,74,1,1,1,84.0,True
1539,880, Note_on_c,75,74,1,1,1,87.0,False
1540,881, Note_on_c,65,74,1,1,1,76.0,True
1541,882, Note_on_c,70,74,1,1,1,81.0,False
1542,882, Note_on_c,73,74,1,1,1,85.0,False
1543,883, Note_on_c,72,74,1,1,1,84.0,True
1544,883, Note_on_c,75,74,1,1,1,87.0,False
1545,884, Note_on_c,70,74,1,1,1,81.0,False
1546,884, Note_on_c,73,74,1,1,1,85.0,False
1547,885, Note_on_c,72,74,1,1,1,84.0,True
1548,885, Note_on_c,77,74,1,1,1,90.0,True
1549,886, Note_on_c,65,74,1,1,1,76.0,True
1550,887, Note_on_c,70,74,1,1,1,81.0,False
1551,887, Note_on_c,73,74,1,1,1,85.0,False
1552,888, Note_on_c,72,74,1,1,1,84.0,True
1553,888, Note_on_c,75,74,1,1,1,87.0,False
1554,889, Note_on_c,65,74,1,1,1,76.0,True
1555,890, Note_on_c,70,74,1,1,1,81.0,False
1556,890, Note_on_c,73,74,1,1,1,85.0,False
1557,891, Note_on_c,72,74,1,1,1,84.0,True
1558,891, Note_on_c,75,74,1,1,1,87.0,False
1559,892, Note_on_c,70,74,1,1,1,81.0,False
1560,892, Note_on_c,73,74,1,1,1,85.0,False
1561,893, Note_on_c,72,74,1,1,1,84.0,True
1562,893, Note_on_c,77,74,1,1,1,90.0,True
1563,894, Note_on_c,65,74,1,1,1,76.0,True
1564,895, Note_on_c,70,74,1,1,1,81.0,False
1565,895, Note_on_c,73,74,1,1,1,85.0,False
1566,896, Note_on_c,72,74,1,1,1,84.0,True
1567,896, Note_on_c,75,74,1,1,1,87.0,False
1568,897, Note_on_c,65,74,1,1,1,76.0,True
1569,898, Note_on_c,70,74,1,1,1,81.0,False
1570,898, Note_on_c,73,74,1,1,1,85.0,False
1571,899, Note_on_c,72,74,1,1,1,84.0,True
1572,899, Note_on_c,75,74,1,1,1,87.0,False
1573,900, Note_on_c,70,74,1,1,1,81.0,False
1574,900, Note_on_c,73,74,1,1,1,85.0,False
1575,901, Note_on_c,72,74,1,1,1,84.0,True
1576,901, Note_on_c,77,74,1,1,1,90.0,True
1577,902, Note_on_c,65,74,1,1,1,76.0,True
1578,903, Note_on_c,70,74,1,1,1,81.0,False
1579,903, Note_on_c,73,74,1,1,1,85.0,False
1580,904, Note_on_c,72,74,1,1,1,84.0,True
1581,904, Note_on_c,75,74,1,1,1,87.0,False
1582,905, Note_on_c,65,74,1,1,1,76.0,True
1583,906, Note_on_c,70,74,1,1,1,81.0,False
1584,906, Note_on_c,73,74,1,1,1,85.0,False
1585,907, Note_on_c,72,74,1,1,1,84.0,True
1586,907, Note_on_c,75,74,1,1,1,87.0,False
1587,908, Note_on_c,70,74,1,1,1,81.0,False
1588,908, Note_on_c,73,74,1,1,1,85.0,False
1589,909, Note_on_c,72,74,1,1,1,84.0,True
1590,909, Note_on_c,77,74,1,1,1,90.0,True
1591,910, Note_on_c,65,74,1,1,1,76.0,True
1592,911, Note_on_c,70,74,1,1,1,81.0,False
1593,911, Note_on_c,73,74,1,1,1,85.0,False
1594,912, Note_on_c,72,74,1,1,1,84.0,True
1595,912, Note_on_c,75,74,1,1,1,87.0,False
1596,913, Note_on_c,65,74,1,1,1,76.0,True
1597,914, Note_on_c,70,74,1,1,1,81.0,False
1598,914, Note_on_c,73,74,1,1,1,85.0,False
1599,915, Note_on_c,72,74,1,1,1,84.0,True
1600,915, Note_on_c,75,74,1,1,1,87.0,False
1601,916, Note_on_c,70,74,1,1,1,81.0,False
1602,916, Note_on_c,73,74,1,1,1,85.0,False
1603,917, Note_on_c,72,74,1,1,1,84.0,True
1604,917, Note_on_c,77,74,1,1,1,90.0,True
1605,918, Note_on_c,65,74,1,1,1,76.0,True
1606,919, Note_on_c,70,74,1,1,1,81.0,False
1607,919, Note_on_c,73,74,1,1,1,85.0,False
1608,920, Note_on_c,72,74,1,1,1,84.0,True
1609,920, Note_on_c,75,74,1,1,1,87.0,False
1610,921, Note_on_c,65,74,1,1,1,76.0,True
1611,922, Note_on_c,70,74,1,1,1,81.0,False
1612,922, Note_on_c,73,74,1,1,1,85.0,False
1613,923, Note_on_c,72,74,1,1,1,84.0,True
1614,923, Note_on_c,75,74,1,1,1,87.0,False
1615,924, Note_on_c,70,74,1,1,1,81.0,False
1616,924, Note_on_c,73,74,1,1,1,85.0,False
1617,925, Note_on_c,72,74,1,1,1,84.0,True
1618,925, Note_on_c,77,74,1,1,1,90.0,True
1619,926, Note_on_c,65,74,1,1,1,76.0,True
1620,927, Note_on_c,70,74,1,1,1,81.0,False
1621,927, Note_on_c,73,74,1,1,1,85.0,False
1622,928, Note_on_c,72,74,1,1,1,84.0,True
1623,928, Note_on_c,75,74,1,1,1,87.0,False
1624,929, Note_on_c,65,74,1,1,1,76.0,True
1625,930, Note_on_c,70,74,1,1,1,81.0,False
1626,930, Note_on_c,73,74,1,1,1,85.0,False
1627,931, Note_on_c,72,74,1,1,1,84.0,True
1628,931, Note_on_c,75,74,1,1,1,87.0,False
1629,932, Note_on_c,70,74,1,1,1,81.0,False
1630,932, Note_on_c,73,74,1,1,1,85.0,False
1631,933, Note_on_c,72,74,1,1,1,84.0,True
1632,933, Note_on_c,77,74,1,1,1,90.0,True
1633,934, Note_on_c,65,74,1,1,1,76.0,True
1634,935, Note_on_c,70,74,1,1,1,81.0,False
1635,935, Note_on_c,73,74,1,1,1,85.0,False
1636,936, Note_on_c,72,74,1,1,1,84.0,True
1637,936, Note_on_c,75,74,1,1,1,87.0,False
1638,937, Note_on_c,65,74,1,1,1,76.0,True
1639,938, Note_on_c,70,74,1,1,1,81.0,False
1640,938, Note_on_c,73,74,1,1,1,85.0,False
1641,939, Note_on_c,72,74,1,1,1,84.0,True
1642,939, Note_on_c,75,74,1,1,1,87.0,False
1643,940, Note_on_c,70,74,1,1,1,81.0,False
1644,940, Note_on_c,73,74,1,1,1,85.0,False
1645,941, Note_on_c,72,74,1,1,1,84.0,True
1646,941, Note_on_c,77,74,1,1,1,90.0,True
1647,942, Note_on_c,65,74,1,1,1,76.0,True
1648,943, Note_on_c,70,74,1,1,1,81.0,False
1649,943, Note_on_c,73,74,1,1,1,85.0,False
1650,944, Note_on_c,72,74,1,1,1,84.0,True
1651,944, Note_on_c,75,74,1,1,1,87.0,False
1652,945, Note_on_c,65,74,1,1,1,76.0,True
1653,946, Note_on_c,70,74,1,1,1,81.0,False
1654,946, Note_on_c,73,74,1,1,1,85.0,False
1655,947, Note_on_c,72,74,1,1,1,84.0,True
1656,947, Note_on_c,75,74,1,1,1,87.0,False
1657,948, Note_on_c,70,74,1,1,1,81.0,False
1658,948, Note_on_c,73,74,1,1,1,85.0,False
1659,949, Note_on_c,72,74,1,1,1,84.0,True
1660,949, Note_on_c,77,74,1,1,1,90.0,True
1661,950, Note_on_c,65,74,1,1,1,76.0,True
1662,951, Note_on_c,70,74,1,1,1,81.0,False
1663,951, Note_on_c,73,74,1,1,1,85.0,False
1664,952, Note_on_c,72,74,1,1,1,84.0,True
1665,952, Note_on_c,75,74,1,1,1,87.0,False
1666,953, Note_on_c,65,74,1,1,1,76.0,True
1667,954, Note_on_c,70,74,1,1,1,81.0,False
1668,954, Note_on_c,73,74,1,1,1,85.0,False
1669,955, Note_on_c,72,74,1,1,1,84.0,True
1670,955, Note_on_c,75,74,1,1,1,87.0,False
1671,956, Note_on_c,70,74,1,1,1,81.0,False
1672,956, Note_on_c,73,74,1,1,1,85.0,False
1673,957, Note_on_c,72,74,1,1,1,84.0,True
1674,957, Note_on_c,77,74,1,1,1,90.0,True
1675,958, Note_on_c,65,74,1,1,1,76.0,True
1676,959, Note_on_c,70,74,1,1,1,81.0,False
1677,959, Note_on_c,73,74,1,1,1,85.0,False
1678,960, Note_on_c,72,74,1,1,1,84.0,True
1679,960, Note_on_c,75,74,1,1,1,87.0,False
1680,961, Note_on_c,65,74,1,1,1,76.0,True
1681,962, Note_on_c,70,74,1,1,1,81.0,False
1682,962, Note_on_c,73,74,1,1,1,85.0,False
1683,963, Note_on_c,72,74,1,1,1,84.0,True
1684,963, Note_on_c,75,74,1,1,1,87.0,False
1685,964, Note_on_c,70,74,1,1,1,81.0,False
1686,964, Note_on_c,73,74,1,1,1,85.0,False
1687,965, Note_on_c,72,74,1,1,1,84.0,True
1688,965, Note_on_c,77,74,1,1,1,90.0,True
1689,966, Note_on_c,65,74,1,1,1,76.0,True
1690,967, Note_on_c,70,74,1,1,1,81.0,False
1691,967, Note_on_c,73,74,1,1,1,85.0,False
1692,968, Note_on_c,72,74,1,1,1,84.0,True
1693,968, Note_on_c,75,74,1,1,1,87.0,False
1694,969, Note_on_c,65,74,1,1,1,76.0,True
1695,970, Note_on_c,70,74,1,1,1,81.0,False
1696,970, Note_on_c,73,74,1,1,1,85.0,False
1697,971, Note_on_c,72,74,1,1,1,84.0,True
1698,971, Note_on_c,75,74,1,1,1,87.0,False
1699,972, Note_on_c,70,74,1,1,1,81.0,False
1700,972, Note_on_c,73,74,1,1,1,85.0,False
1701,973, Note_on_c,72,74,1,1,1,84.0,True
1702,973, Note_on_c,77,74,1,1,1,90.0,True
1703,974, Note_on_c,65,74,1,1,1,76.0,True
1704,975, Note_on_c,70,74,1,1,1,81.0,False
1705,975, Note_on_c,73,74,1,1,1,85.0,False
1706,976, Note_on_c,72,74,1,1,1,84.0,True
1707,976, Note_on_c,75,74,1,1,1,87.0,False
1708,977, Note_on_c,65,74,1,1,1,76.0,True
1709,978, Note_on_c,70,74,1,1,1,81.0,False
1710,978, Note_on_c,73,74,1,1,1,85.0,False
1711,979, Note_on_c,72,74,1,1,1,84.0,True
1712,979, Note_on_c,75,74,1,1,1,87.0,False
1713,980, Note_on_c,70,74,1,1,1,81.0,False
1714,980, Note_on_c,73,74,1,1,1,85.0,False
1715,981, Note_on_c,72,74,1,1,1,84.0,True
1716,981, Note_on_c,77,74,1,1,1,90.0,True
1717,982, Note_on_c,65,74,1,1,1,76.0,True
1718,983, Note_on_c,70,74,1,1,1,81.0,False
1719,983, Note_on_c,73,74,1,1,1,85.0,False
1720,984, Note_on_c,72,74,1,1,1,84.0,True
1721,984, Note_on_c,75,74,1,1,1,87.0,False
1722,985, Note_on_c,65,74,1,1,1,76.0,True
1723,986, Note_on_c,70,74,1,1,1,81.0,False
1724,986, Note_on_c,73,74,1,1,1,85.0,False
1725,987, Note_on_c,72,74,1,1,1,84.0,True
1726,987, Note_on_c,75,74,1,1,1,87.0,False
1727,988, Note_on_c,70,74,1,1,1,81.0,False
1728,988, Note_on_c,73,74,1,1,1,85.0,False
1729,989, Note_on_c,72,74,1,1,1,84.0,True
1730,989, Note_on_c,77,74,1,1,1,90.0,True
1731,990, Note_on_c,65,74,1,1,1,76.0,True
1732,991, Note_on_c,70,74,1,1,1,81.0,False
1733,991, Note_on_c,73,74,1,1,1,85.0,False
1734,992, Note_on_c,72,74,1,1,1,84.0,True
1735,992, Note_on_c,75,74,1,1,1,87.0,False
1736,993, Note_on_c,65,74,1,1,1,76.0,True
1737,994, Note_on_c,70,74,1,1,1,81.0,False
1738,994, Note_on_c,73,74,1,1,1,85.0,False
1739,995, Note_on_c,72,74,1,1,1,84.0,True
1740,995, Note_on_c,75,74,1,1,1,87.0,False
1741,996, Note_on_c,70,74,1,1,1,81.0,False
1742,996, Note_on_c,73,74,1,1,1,85.0,False
1743,997, Note_on_c,72,74,1,1,1,84.0,True
1744,997, Note_on_c,77,74,1,1,1,90.0,True
1745,998, Note_on_c,65,74,1,1,1,76.0,True
1746,999, Note_on_c,70,74,1,1,1,81.0,False
1747,999, Note_on_c,73,74,1,1,1,85.0,False
1748,1000, Note_on_c,72,74,1,1,1,84.0,True
1749,1000, Note_on_c,75,74,1,1,1,87.0,False
1750,1001, Note_on_c,65,74,1,1,1,76.0,True
1751,1002, Note_on_c,70,74,1,1,1,81.0,False
1752,1002, Note_on_c,73,74,1,1,1,85.0,False
1753,1003, Note_on_c,72,74,1,1,1,84.0,True
1754,1003, Note_on_c,75,74,1,1,1,87.0,False
1755,1004, Note_on_c,70,74,1,1,1,81.0,False
1756,1004, Note_on_c,73,74,1,1,1,85.0,False
1757,1005, Note_on_c,72,74,1,1,1,84.0,True
1758,1005, Note_on_c,77,74,1,1,1,90.0,True
1759,1006, Note_on_c,65,74,1,1,1,76.0,True
1760,1007, Note_on_c,70,74,1,1,1,81.0,False
1761,1007, Note_on_c,73,74,1,1,1,85.0,False
1762,1008, Note_on_c,72,74,1,1,1,84.0,True
1763,1008, Note_on_c,75,74,1,1,1,87.0,False
1764,1009, Note_on_c,65,74,1,1,1,76.0,True
1765,1010, Note_on_c,70,74,1,1,1,81.0,False
1766,1010, Note_on_c,73,74,1,1,1,85.0,False
1767,1011, Note_on_c,72,74,1,1,1,84.0,True
1768,1011, Note_on_c,75,74,1,1,1,87.0,False
1769,1012, Note_on_c,70,74,1,1,1,81.0,False
1770,1012, Note_on_c,73,74,1,1,1,85.0,False
1771,1013, Note_on_c,72,74,1,1,1,84.0,True
1772,1013, Note_on_c,77,74,1,1,1,90.0,True
1773,1014, Note_on_c,65,74,1,1,1,76.0,True
1774,1015, Note_on_c,70,74,1,1,1,81.0,False
1775,1015, Note_on_c,73,74,1,1,1,85.0,False
1776,1016, Note_on_c,72,74,1,1,1,84.0,True
1777,1016, Note_on_c,75,74,1,1,1,87.0,False
1778,1017, Note_on_c,65,74,1,1,1,76.0,True
1779,1018, Note_on_c,70,74,1,1,1,81.0,False
1780,1018, Note_on_c,73,74,1,1,1,85.0,False
1781,1019, Note_on_c,72,74,1,1,1,84.0,True
1782,1019, Note_on_c,75,74,1,1,1,87.0,False
1783,1020, Note_on_c,70,74,1,1,1,81.0,False
1784,1020, Note_on_c,73,74,1,1,1,85.0,False
1785,1021, Note_on_c,72,74,1,1,1,84.0,True
1786,1021, Note_on_c,77,74,1,1,1,90.0,True
1787,1022, Note_on_c,65,74,1,1,1,76.0,True
1788,1023, Note_on_c,70,74,1,1,1,81.0,False
1789,1023, Note_on_c,73,74,1,1,1,85.0,False
1790,1024, Note_on_c,72,74,1,1,1,84.0,True
1791,1024, Note_on_c,75,74,1,1,1,87.0,False
1792,1025, Note_on_c,65,74,1,1,1,76.0,True
1793,1026, Note_on_c,70,74,1,1,1,81.0,False
1794,1026, Note_on_c,73,74,1,1,1,85.0,False
1795,1027, Note_on_c,72,74,1,1,1,84.0,True
1796,1027, Note_on_c,75,74,1,1,1,87.0,False
1797,1028, Note_on_c,70,74,1,1,1,81.0,False
1798,1028, Note_on_c,73,74,1,1,1,85.0,False
1799,1029, Note_on_c,72,74,1,1,1,84.0,True
1800,1029, Note_on_c,77,74,1,1,1,90.0,True
1801,1030, Note_on_c,65,74,1,1,1,76.0,True
1802,1031, Note_on_c,70,74,1,1,1,81.0,False
1803,1031, Note_on_c,73,74,1,1,1,85.0,False
1804,1032, Note_on_c,72,74,1,1,1,84.0,True
1805,1032, Note_on_c,75,74,1,1,1,87.0,False
1806,1033, Note_on_c,65,74,1,1,1,76.0,True
1807,1034, Note_on_c,70,74,1,1,1,81.0,False
1808,1034, Note_on_c,73,74,1,1,1,85.0,False
1809,1035, Note_on_c,72,74,1,1,1,84.0,True
1810,1035, Note_on_c,75,74,1,1,1,87.0,False
1811,1036, Note_on_c,70,74,1,1,1,81.0,False
1812,1036, Note_on_c,73,74,1,1,1,85.0,False
1813,1037, Note_on_c,72,74,1,1,1,84.0,True
1814,1037, Note_on_c,77,74,1,1,1,90.0,True
1815,1038, Note_on_c,65,74,1,1,1,76.0,True
1816,1039, Note_on_c,70,74,1,1,1,81.0,False
1817,1039, Note_on_c,73,74,1,1,1,85.0,False
1818,1040, Note_on_c,72,74,1,1,1,84.0,True
1819,1040, Note_on_c,75,74,1,1,1,87.0,False
1820,1041, Note_on_c,65,74,1,1,1,76.0,True
1821,1042, Note_on_c,70,74,1,1,1,81.0,False
1822,1042, Note_on_c,73,74,1,1,1,85.0,False
1823,1043, Note_on_c,72,74,1,1,1,84.0,True
1824,1043, Note_on_c,75,74,1,1,1,87.0,False
1825,1044, Note_on_c,70,74,1,1,1,81.0,False
1826,1044, Note_on_c,73,74,1,1,1,85.0,False
1827,1045, Note_on_c,72,74,1,1,1,84.0,True
1828,1045, Note_on_c,77,74,1,1,1,90.0,True
1829,1046, Note_on_c,65,74,1,1,1,76.0,True
1830,1047, Note_on_c,70,74,1,1,1,81.0,False
1831,1047, Note_on_c,73,74,1,1,1,85.0,False
1832,1048, Note_on_c,72,74,1,1,1,84.0,True
1833,1048, Note_on_c,75,74,1,1,1,87.0,False
1834,1049, Note_on_c,65,74,1,1,1,76.0,True
1835,1050, Note_on_c,70,74,1,1,1,81.0,False
1836,1050, Note_on_c,73,74,1,1,1,85.0,False
1837,1051, Note_on_c,72,74,1,1,1,84.0,True
1838,1051, Note_on_c,75,74,1,1,1,87.0,False
1839,1052, Note_on_c,70,74,1,1,1,81.0,False
1840,1052, Note_on_c,73,74,1,1,1,85.0,False
1841,1053, Note_on_c,72,74,1,1,1,84.0,True
1842,1053, Note_on_c,77,74,1,1,1,90.0,True
1843,1054, Note_on_c,65,74,1,1,1,76.0,True
1844,1055, Note_on_c,70,74,1,1,1,81.0,False
1845,1055, Note_on_c,73,74,1,1,1,85.0,False
1846,1056, Note_on_c,72,74,1,1,1,84.0,True
1847,1056, Note_on_c,75,74,1,1,1,87.0,False
1848,1057, Note_on_c,65,74,1,1,1,76.0,True
1849,1058, Note_on_c,70,74,1,1,1,81.0,False
1850,1058, Note_on_c,73,74,1,1,1,85.0,False
1851,1059, Note_on_c,72,74,1,1,1,84.0,True
1852,1059, Note_on_c,75,74,1,1,1,87.0,False
1853,1060, Note_on_c,70,74,1,1,1,81.0,False
1854,1060, Note_on_c,73,74,1,1,1,85.0,False
1855,1061, Note_on_c,72,74,1,1,1,84.0,True
1856,1061, Note_on_c,77,74,1,1,1,90.0,True
1857,1062, Note_on_c,65,74,1,1,1,76.0,True
1858,1063, Note_on_c,70,74,1,1,1,81.0,False
1859,1063, Note_on_c,73,74,1,1,1,85.0,False
1860,1064, Note_on_c,72,74,1,1,1,84.0,True
1861,1064, Note_on_c,75,74,1,1,1,87.0,False
1862,1065, Note_on_c,65,74,1,1,1,76.0,True
1863,1066, Note_on_c,70,74,1,1,1,81.0,False
1864,1066, Note_on_c,73,74,1,1,1,85.0,False
1865,1067, Note_on_c,72,74,1,1,1,84.0,True
1866,1067, Note_on_c,75,74,1,1,1,87.0,False
1867,1068, Note_on_c,70,74,1,1,1,81.0,False
1868,1068, Note_on_c,73,74,1,1,1,85.0,False
1869,1069, Note_on_c,72,74,1,1,1,84.0,True
1870,1069, Note_on_c,77,74,1,1,1,90.0,True
1871,1070, Note_on_c,65,74,1,1,1,76.0,True
1872,1071, Note_on_c,70,74,1,1,1,81.0,False
1873,1071, Note_on_c,73,74,1,1,1,85.0,False
1874,1072, Note_on_c,72,74,1,1,1,84.0,True
1875,1072, Note_on_c,75,74,1,1,1,87.0,False
1876,1073, Note_on_c,65,74,1,1,1,76.0,True
1877,1074, Note_on_c,70,74,1,1,1,81.0,False
1878,1074, Note_on_c,73,74,1,1,1,85.0,False
1879,1075, Note_on_c,72,74,1,1,1,84.0,True
1880,1075, Note_on_c,75,74,1,1,1,87.0,False
1881,1076, Note_on_c,70,74,1,1,1,81.0,False
1882,1076, Note_on_c,73,74,1,1,1,85.0,False
1883,1077, Note_on_c,72,74,1,1,1,84.0,True
1884,1077, Note_on_c,77,74,1,1,1,90.0,True
1885,1078, Note_on_c,65,74,1,1,1,76.0,True
1886,1079, Note_on_c,70,74,1,1,1,81.0,False
1887,1079, Note_on_c,73,74,1,1,1,85.0,False
1888,1080, Note_on_c,72,74,1,1,1,84.0,True
1889,1080, Note_on_c,75,74,1,1,1,87.0,False
1890,1081, Note_on_c,65,74,1,1,1,76.0,True
1891,1082, Note_on_c,70,74,1,1,1,81.0,False
1892,1082, Note_on_c,73,74,1,1,1,85.0,False
1893,1083, Note_on_c,72,74,1,1,1,84.0,True
1894,1083, Note_on_c,75,74,1,1,1,87.0,False
1895,1084, Note_on_c,70,74,1,1,1,81.0,False
1896,1084, Note_on_c,73,74,1,1,1,85.0,False
1897,1085, Note_on_c,72,74,1,1,1,84.0,True
1898,1085, Note_on_c,77,74,1,1,1,90.0,True
1899,1086, Note_on_c,65,74,1,1,1,76.0,True
1900,1087, Note_on_c,70,74,1,1,1,81.0,False
1901,1087, Note_on_c,73,74,1,1,1,85.0,False
1902,1088, Note_on_c,72,74,1,1,1,84.0,True
1903,1088, Note_on_c,75,74,1,1,1,87.0,False
1904,1089, Note_on_c,65,74,1,1,1,76.0,True
1905,1090, Note_on_c,70,74,1,1,1,81.0,False
1906,1090, Note_on_c,73,74,1,1,1,85.0,False
1907,1091, Note_on_c,72,74,1,1,1,84.0,True
1908,1091, Note_on_c,75,74,1,1,1,87.0,False
1909,1092, Note_on_c,70,74,1,1,1,81.0,False
1910,1092, Note_on_c,73,74,1,1,1,85.0,False
1911,1093, Note_on_c,72,74,1,1,1,84.0,True
1912,1093, Note_on_c,77,74,1,1,1,90.0,True
1913,1094, Note_on_c,65,74,1,1,1,76.0,True
1914,1095, Note_on_c,70,74,1,1,1,81.0,False
1915,1095, Note_on_c,73,74,1,1,1,85.0,False
1916,1096, Note_on_c,72,74,1,1,1,84.0,True
1917,1096, Note_on_c,75,74,1,1,1,87.0,False
1918,1097, Note_on_c,65,74,1,1,1,76.0,True
1919,1098, Note_on_c,70,74,1,1,1,81.0,False
1920,1098, Note_on_c,73,74,1,1,1,85.0,False
1921,1099, Note_on_c,72,74,1,1,1,84.0,True
1922,1099, Note_on_c,75,74,1,1,1,87.0,False
1923,1100, Note_on_c,70,74,1,1,1,81.0,False
1924,1100, Note_on_c,73,74,1,1,1,85.0,False
1925,1101, Note_on_c,72,74,1,1,1,84.0,True
1926,1101, Note_on_c,77,74,1,1,1,90.0,True
1927,1102, Note_on_c,65,74,1,1,1,76.0,True
1928,1103, Note_on_c,70,74,1,1,1,81.0,False
1929,1103, Note_on_c,73,74,1,1,1,85.0,False
1930,1104, Note_on_c,72,74,1,1,1,84.0,True
1931,1104, Note_on_c,75,74,1,1,1,87.0,False
1932,1105, Note_on_c,65,74,1,1,1,76.0,True
1933,1106, Note_on_c,70,74,1,1,1,81.0,False
1934,1106, Note_on_c,73,74,1,1,1,85.0,False
1935,1107, Note_on_c,72,74,1,1,1,84.0,True
1936,1107, Note_on_c,75,74,1,1,1,87.0,False
1937,1108, Note_on_c,70,74,1,1,1,81.0,False
1938,1108, Note_on_c,73,74,1,1,1,85.0,False
1939,1109, Note_on_c,72,74,1,1,1,84.0,True
1940,1109, Note_on_c,77,74,1,1,1,90.0,True
1941,1110, Note_on_c,65,74,1,1,1,76.0,True
1942,1111, Note_on_c,70,74,1,1,1,81.0,False
1943,1111, Note_on_c,73,74,1,1,1,85.0,False
1944,1112, Note_on_c,72,74,1,1,1,84.0,True
1945,1112, Note_on_c,75,74,1,1,1,87.0,False
1946,1113, Note_on_c,65,74,1,1,1,76.0,True
1947,1114, Note_on_c,70,74,1,1,1,81.0,False
1948,1114, Note_on_c,73,74,1,1,1,85.0,False
1949,1115, Note_on_c,72,74,1,1,1,84.0,True
1950,1115, Note_on_c,75,74,1,1,1,87.0,False
1951,1116, Note_on_c,70,74,1,1,1,81.0,False
1952,1116, Note_on_c,73,74,1,1,1,85.0,False
1953,1117, Note_on_c,72,74,1,1,1,84.0,True
1954,1117, Note_on_c,77,74,1,1,1,90.0,True
1955,1118, Note_on_c,65,74,1,1,1,76.0,True
1956,1119, Note_on_c,70,74,1,1,1,81.0,False
1957,1119, Note_on_c,73,74,1,1,1,85.0,False
1958,1120, Note_on_c,72,74,1,1,1,84.0,True
1959,1120, Note_on_c,75,74,1,1,1,87.0,False
1960,1121, Note_on_c,65,74,1,1,1,76.0,True
1961,1122, Note_on_c,70,74,1,1,1,81.0,False
1962,1122, Note_on_c,73,74,1,1,1,85.0,False
1963,1123, Note_on_c,72,74,1,1,1,84.0,True
1964,1123, Note_on_c,75,74,1,1,1,87.0,False
1965,1124, Note_on_c,70,74,1,1,1,81.0,False
1966,1124, Note_on_c,73,74,1,1,1,85.0,False
1967,1125, Note_on_c,72,74,1,1,1,84.0,True
1968,1125, Note_on_c,77,74,1,1,1,90.0,True
1969,1126, Note_on_c,65,74,1,1,1,76.0,True
1970,1127, Note_on_c,70,74,1,1,1,81.0,False
1971,1127, Note_on_c,73,74,1,1,1,85.0,False
1972,1128, Note_on_c,72,74,1,1,1,84.0,True
1973,1128, Note_on_c,75,74,1,1,1,87.0,False
1974,1129, Note_on_c,65,74,1,1,1,76.0,True
1975,1130, Note_on_c,70,74,1,1,1,81.0,False
1976,1130, Note_on_c,73,74,1,1,1,85.0,False
1977,1131, Note_on_c,72,74,1,1,1,84.0,True
1978,1131, Note_on_c,75,74,1,1,1,87.0,False
1979,1132, Note_on_c,70,74,1,1,1,81.0,False
1980,1132, Note_on_c,73,74,1,1,1,85.0,False
1981,1133, Note_on_c,72,74,1,1,1,84.0,True
1982,1133, Note_on_c,77,74,1,1,1,90.0,True
1983,1134, Note_on_c,65,74,1,1,1,76.0,True
1984,1135, Note_on_c,70,74,1,1,1,81.0,False
1985,1135, Note_on_c,73,74,1,1,1,85.0,False
1986,1136, Note_on_c,72,74,1,1,1,84.0,True
1987,1136, Note_on_c,75,74,1,1,1,87.0,False
1988,1137, Note_on_c,65,74,1,1,1,76.0,True
1989,1138, Note_on_c,70,74,1,1,1,81.0,False
1990,1138, Note_on_c,73,74,1,1,1,85.0,False
1991,1139, Note_on_c,72,74,1,1,1,84.0,True
1992,1139, Note_on_c,75,74,1,1,1,87.0,False
1993,1140, Note_on_c,70,74,1,1,1,81.0,False
1994,1140, Note_on_c,73,74,1,1,1,85.0,False
1995,1141, Note_on_c,72,74,1,1,1,84.0,True
1996,1141, Note_on_c,77,74,1,1,1,90.0,True
1997,1142, Note_on_c,65,74,1,1,1,76.0,True
1998,1143, Note_on_c,70,74,1,1,1,81.0,False
1999,1143, Note_on_c,73,74,1,1,1,85.0,False
2000,1144, Note_on_c,72,74,1,1,1,84.0,True
2001,1144, Note_on_c,75,74,1,1,1,87.0,False
2002,1145, Note_on_c,65,74,1,1,1,76.0,True
2003,1146, Note_on_c,70,74,1,1,1,81.0,False
2004,1146, Note_on_c,73,74,1,1,1,85.0,False
2005,1147, Note_on_c,72,74,1,1,1,84.0,True
2006,1147, Note_on_c,75,74,1,1,1,87.0,False
2007,1148, Note_on_c,70,74,1,1,1,81.0,False
2008,1148, Note_on_c,73,74,1,1,1,85.0,False
2009,1149, Note_on_c,72,74,1,1,1,84.0,True
2010,1149, Note_on_c,77,74,1,1,1,90.0,True
2011,1150, Note_on_c,65,74,1,1,1,76.0,True
2012,1151, Note_on_c,70,74,1,1,1,81.0,False
2013,1151, Note_on_c,73,74,1,1,1,85.0,False
2014,1152, Note_on_c,72,74,1,1,1,84.0,True
2015,1152, Note_on_c,75,74,1,1,1,87.0,False
2016,1153, Note_on_c,65,74,1,1,1,76.0,True
2017,1154, Note_on_c,70,74,1,1,1,81.0,False
2018,1154, Note_on_c,73,74,1,1,1,85.0,False
2019,1155, Note_on_c,72,74,1,1,1,84.0,True
2020,1155, Note_on_c,75,74,1,1,1,87.0,False
2021,1156, Note_on_c,70,74,1,1,1,81.0,False
2022,1156, Note_on_c,73,74,1,1,1,85.0,False
2023,1157, Note_on_c,72,74,1,1,1,84.0,True
2024,1157, Note_on_c,77,74,1,1,1,90.0,True
2025,1158, Note_on_c,65,74,1,1,1,76.0,True
2026,1159, Note_on_c,70,74,1,1,1,81.0,False
2027,1159, Note_on_c,73,74,1,1,1,85.0,False
2028,1160, Note_on_c,72,74,1,1,1,84.0,True
2029,1160, Note_on_c,75,74,1,1,1,87.0,False
2030,1161, Note_on_c,65,74,1,1,1,76.0,True
2031,1162, Note_on_c,70,74,1,1,1,81.0,False
2032,1162, Note_on_c,73,74,1,1,1,85.0,False
2033,1163, Note_on_c,72,74,1,1,1,84.0,True
2034,1163, Note_on_c,75,74,1,1,1,87.0,False
2035,1164, Note_on_c,70,74,1,1,1,81.0,False
2036,1164, Note_on_c,73,74,1,1,1,85.0,False
2037,1165, Note_on_c,72,74,1,1,1,84.0,True
2038,1165, Note_on_c,77,74,1,1,1,90.0,True
2039,1166, Note_on_c,65,74,1,1,1,76.0,True
2040,1167, Note_on_c,70,74,1,1,1,81.0,False
2041,1167, Note_on_c,73,74,1,1,1,85.0,False
2042,1168, Note_on_c,72,74,1,1,1,84.0,True
2043,1168, Note_on_c,75,74,1,1,1,87.0,False
2044,1169, Note_on_c,65,74,1,1,1,76.0,True
2045,1170, Note_on_c,70,74,1,1,1,81.0,False
2046,1170, Note_on_c,73,74,1,1,1,85.0,False
2047,1171, Note_on_c,72,74,1,1,1,84.0,True
2048,1171, Note_on_c,75,74,1,1,1,87.0,False
2049,1172, Note_on_c,70,74,1,1,1,81.0,False
2050,1172, Note_on_c,73,74,1,1,1,85.0,False
2051,1173, Note_on_c,72,74,1,1,1,84.0,True
2052,1173, Note_on_c,77,74,1,1,1,90.0,True
2053,1174, Note_on_c,65,74,1,1,1,76.0,True
2054,1175, Note_on_c,70,74,1,1,1,81.0,False
2055,1175, Note_on_c,73,74,1,1,1,85.0,False
2056,1176, Note_on_c,72,74,1,1,1,84.0,True
2057,1176, Note_on_c,75,74,1,1,1,87.0,False
2058,1177, Note_on_c,65,74,1,1,1,76.0,True
2059,1178, Note_on_c,70,74,1,1,1,81.0,False
2060,1178, Note_on_c,73,74,1,1,1,85.0,False
2061,1179, Note_on_c,72,74,1,1,1,84.0,True
2062,1179, Note_on_c,75,74,1,1,1,87.0,False
2063,1180, Note_on_c,70,74,1,1,1,81.0,False
2064,1180, Note_on_c,73,74,1,1,1,85.0,False
2065,1181, Note_on_c,72,74,1,1,1,84.0,True
2066,1181, Note_on_c,77,74,1,1,1,90.0,True
2067,1182, Note_on_c,65,74,1,1,1,76.0,True
2068,1183, Note_on_c,70,74,1,1,1,81.0,False
2069,1183, Note_on_c,73,74,1,1,1,85.0,False
2070,1184, Note_on_c,72,74,1,1,1,84.0,True
2071,1184, Note_on_c,75,74,1,1,1,87.0,False
2072,1185, Note_on_c,65,74,1,1,1,76.0,True
2073,1186, Note_on_c,70,74,1,1,1,81.0,False
2074,1186, Note_on_c,73,74,1,1,1,85.0,False
2075,1187, Note_on_c,72,74,1,1,1,84.0,True
2076,1187, Note_on_c,75,74,1,1,1,87.0,False
2077,1188, Note_on_c,70,74,1,1,1,81.0,False
2078,1188, Note_on_c,73,74,1,1,1,85.0,False
2079,1189, Note_on_c,72,74,1,1,1,84.0,True
2080,1189, Note_on_c,77,74,1,1,1,90.0,True
2081,1190, Note_on_c,65,74,1,1,1,76.0,True
2082,1191, Note_on_c,70,74,1,1,1,81.0,False
2083,1191, Note_on_c,73,74,1,1,1,85.0,False
2084,1192, Note_on_c,72,74,1,1,1,84.0,True
2085,1192, Note_on_c,75,74,1,1,1,87.0,False
2086,1193, Note_on_c,65,74,1,1,1,76.0,True
2087,1194, Note_on_c,70,74,1,1,1,81.0,False
2088,1194, Note_on_c,73,74,1,1,1,85.0,False
2089,1195, Note_on_c,72,74,1,1,1,84.0,True
2090,1195, Note_on_c,75,74,1,1,1,87.0,False
2091,1196, Note_on_c,70,74,1,1,1,81.0,False
2092,1196, Note_on_c,73,74,1,1,1,85.0,False
2093,1197, Note_on_c,72,74,1,1,1,84.0,True
2094,1197, Note_on_c,77,74,1,1,1,90.0,True
2095,1198, Note_on_c,65,74,1,1,1,76.0,True
2096,1199, Note_on_c,70,74,1,1,1,81.0,False
2097,1199, Note_on_c,73,74,1,1,1,85.0,False
2098,1200, Note_on_c,72,74,1,1,1,84.0,True
2099,1200, Note_on_c,75,74,1,1,1,87.0,False
2100,1201, Note_on_c,65,74,1,1,1,76.0,True
2101,1202, Note_on_c,70,74,1,1,1,81.0,False
2102,1202, Note_on_c,73,74,1,1,1,85.0,False
2103,1203, Note_on_c,72,74,1,1,1,84.0,True
2104,1203, Note_on_c,75,74,1,1,1,87.0,False
2105,1204, Note_on_c,70,74,1,1,1,81.0,False
2106,1204, Note_on_c,73,74,1,1,1,85.0,False
2107,1205, Note_on_c,72,74,1,1,1,84.0,True
2108,1205, Note_on_c,77,74,1,1,1,90.0,True
2109,1206, Note_on_c,65,74,1,1,1,76.0,True
2110,1207, Note_on_c,70,74,1,1,1,81.0,False
2111,1207, Note_on_c,73,74,1,1,1,85.0,False
2112,1208, Note_on_c,72,74,1,1,1,84.0,True
2113,1208, Note_on_c,75,74,1,1,1,87.0,False
2114,1209, Note_on_c,65,74,1,1,1,76.0,True
2115,1210, Note_on_c,70,74,1,1,1,81.0,False
2116,1210, Note_on_c,73,74,1,1,1,85.0,False
2117,1211, Note_on_c,72,74,1,1,1,84.0,True
2118,1211, Note_on_c,75,74,1,1,1,87.0,False
2119,1212, Note_on_c,70,74,1,1,1,81.0,False
2120,1212, Note_on_c,73,74,1,1,1,85.0,False
2121,1213, Note_on_c,72,74,1,1,1,84.0,True
2122,1213, Note_on_c,77,74,1,1,1,90.0,True
2123,1214, Note_on_c,65,74,1,1,1,76.0,True
2124,1215, Note_on_c,70,74,1,1,1,81.0,False
2125,1215, Note_on_c,73,74,1,1,1,85.0,False
2126,1216, Note_on_c,72,74,1,1,1,84.0,True
2127,1216, Note_on_c,75,74,1,1,1,87.0,False
2128,1217, Note_on_c,65,74,1,1,1,76.0,True
2129,1218, Note_on_c,70,74,1,1,1,81.0,False
2130,1218, Note_on_c,73,74,1,1,1,85.0,False
2131,1219, Note_on_c,72,74,1,1,1,84.0,True
2132,1219, Note_on_c,75,74,1,1,1,87.0,False
2133,1220, Note_on_c,70,74,1,1,1,81.0,False
2134,1220, Note_on_c,73,74,1,1,1,85.0,False
2135,1221, Note_on_c,72,74,1,1,1,84.0,True
2136,1221, Note_on_c,77,74,1,1,1,90.0,True
2137,1222, Note_on_c,65,74,1,1,1,76.0,True
2138,1223, Note_on_c,70,74,1,1,1,81.0,False
2139,1223, Note_on_c,73,74,1,1,1,85.0,False
2140,1224, Note_on_c,72,74,1,1,1,84.0,True
2141,1224, Note_on_c,75,74,1,1,1,87.0,False
2142,1225, Note_on_c,65,74,1,1,1,76.0,True
2143,1226, Note_on_c,70,74,1,1,1,81.0,False
2144,1226, Note_on_c,73,74,1,1,1,85.0,False
2145,1227, Note_on_c,72,74,1,1,1,84.0,True
2146,1227, Note_on_c,75,74,1,1,1,87.0,False
2147,1228, Note_on_c,70,74,1,1,1,81.0,False
2148,1228, Note_on_c,73,74,1,1,1,85.0,False
2149,1229, Note_on_c,72,74,1,1,1,84.0,True
2150,1229, Note_on_c,77,74,1,1,1,90.0,True
2151,1230, Note_on_c,65,74,1,1,1,76.0,True
2152,1231, Note_on_c,70,74,1,1,1,81.0,False
2153,1231, Note_on_c,73,74,1,1,1,85.0,False
2154,1232, Note_on_c,72,74,1,1,1,84.0,True
2155,1232, Note_on_c,75,74,1,1,1,87.0,False
2156,1233, Note_on_c,65,74,1,1,1,76.0,True
2157,1234, Note_on_c,70,74,1,1,1,81.0,False
2158,1234, Note_on_c,73,74,1,1,1,85.0,False
2159,1235, Note_on_c,72,74,1,1,1,84.0,True
2160,1235, Note_on_c,75,74,1,1,1,87.0,False
2161,1236, Note_on_c,70,74,1,1,1,81.0,False
2162,1236, Note_on_c,73,74,1,1,1,85.0,False
2163,1237, Note_on_c,72,74,1,1,1,84.0,True
2164,1237, Note_on_c,77,74,1,1,1,90.0,True
2165,1238, Note_on_c,65,74,1,1,1,76.0,True
2166,1239, Note_on_c,70,74,1,1,1,81.0,False
2167,1239, Note_on_c,73,74,1,1,1,85.0,False
2168,1240, Note_on_c,72,74,1,1,1,84.0,True
2169,1240, Note_on_c,75,74,1,1,1,87.0,False
2170,1241, Note_on_c,65,74,1,1,1,76.0,True
2171,1242, Note_on_c,70,74,1,1,1,81.0,False
2172,1242, Note_on_c,73,74,1,1,1,85.0,False
2173,1243, Note_on_c,72,74,1,1,1,84.0,True
2174,1243, Note_on_c,75,74,1,1,1,87.0,False
2175,1244, Note_on_c,70,74,1,1,1,81.0,False
2176,1244, Note_on_c,73,74,1,1,1,85.0,False
2177,1245, Note_on_c,72,74,1,1,1,84.0,True
2178,1245, Note_on_c,77,74,1,1,1,90.0,True
2179,1246, Note_on_c,65,74,1,1,1,76.0,True
2180,1247, Note_on_c,70,74,1,1,1,81.0,False
2181,1247, Note_on_c,73,74,1,1,1,85.0,False
2182,1248, Note_on_c,72,74,1,1,1,84.0,True
2183,1248, Note_on_c,75,74,1,1,1,87.0,False
2184,1249, Note_on_c,65,74,1,1,1,76.0,True
2185,1250, Note_on_c,70,74,1,1,1,81.0,False
2186,1250, Note_on_c,73,74,1,1,1,85.0,False
2187,1251, Note_on_c,72,74,1,1,1,84.0,True
2188,1251, Note_on_c,75,74,1,1,1,87.0,False
2189,1252, Note_on_c,70,74,1,1,1,81.0,False
2190,1252, Note_on_c,73,74,1,1,1,85.0,False
2191,1253, Note_on_c,72,74,1,1,1,84.0,True
2192,1253, Note_on_c,77,74,1,1,1,90.0,True
2193,1254, Note_on_c,65,74,1,1,1,76.0,True
2194,1255, Note_on_c,70,74,1,1,1,81.0,False
2195,1255, Note_on_c,73,74,1,1,1,85.0,False
2196,1256, Note_on_c,72,74,1,1,1,84.0,True
2197,1256, Note_on_c,75,74,1,1,1,87.0,False
2198,1257, Note_on_c,65,74,1,1,1,76.0,True
2199,1258, Note_on_c,70,74,1,1,1,81.0,False
2200,1258, Note_on_c,73,74,1,1,1,85.0,False
2201,1259, Note_on_c,72,74,1,1,1,84.0,True
2202,1259, Note_on_c,75,74,1,1,1,87.0,False
2203,1260, Note_on_c,70,74,1,1,1,81.0,False
2204,1260, Note_on_c,73,74,1,1,1,85.0,False
2205,1261, Note_on_c,72,74,1,1,1,84.0,True
2206,1261, Note_on_c,77,74,1,1,1,90.0,True
2207,1262, Note_on_c,65,74,1,1,1,76.0,True
2208,1263, Note_on_c,70,74,1,1,1,81.0,False
2209,1263, Note_on_c,73,74,1,1,1,85.0,False
2210,1264, Note_on_c,72,74,1,1,1,84.0,True
2211,1264, Note_on_c,75,74,1,1,1,87.0,False
2212,1265, Note_on_c,65,74,1,1,1,76.0,True
2213,1266, Note_on_c,70,74,1,1,1,81.0,False
2214,1266, Note_on_c,73,74,1,1,1,85.0,False
2215,1267, Note_on_c,72,74,1,1,1,84.0,True
2216,1267, Note_on_c,75,74,1,1,1,87.0,False
2217,1268, Note_on_c,70,74,1,1,1,81.0,False
2218,1268, Note_on_c,73,74,1,1,1,85.0,False
2219,1269, Note_on_c,72,74,1,1,1,84.0,True
2220,1269, Note_on_c,77,74,1,1,1,90.0,True
2221,1270, Note_on_c,65,74,1,1,1,76.0,True
2222,1271, Note_on_c,70,74,1,1,1,81.0,False
2223,1271, Note_on_c,73,74,1,1,1,85.0,False
2224,1272, Note_on_c,72,74,1,1,1,84.0,True
2225,1272, Note_on_c,75,74,1,1,1,87.0,False
2226,1273, Note_on_c,65,74,1,1,1,76.0,True
2227,1274, Note_on_c,70,74,1,1,1,81.0,False
2228,1274, Note_on_c,73,74,1,1,1,85.0,False
2229,1275, Note_on_c,72,74,1,1,1,84.0,True
2230,1275, Note_on_c,75,74,1,1,1,87.0,False
2231,1276, Note_on_c,70,74,1,1,1,81.0,False
2232,1276, Note_on_c,73,74,1,1,1,85.0,False
2233,1277, Note_on_c,72,74,1,1,1,84.0,True
2234,1277, Note_on_c,77,74,1,1,1,90.0,True
2235,1278, Note_on_c,65,74,1,1,1,76.0,True
2236,1279, Note_on_c,70,74,1,1,1,81.0,False
2237,1279, Note_on_c,73,74,1,1,1,85.0,False
2238,1280, Note_on_c,72,74,1,1,1,84.0,True
2239,1280, Note_on_c,75,74,1,1,1,87.0,False
2240,1281, Note_on_c,65,74,1,1,1,76.0,True
2241,1282, Note_on_c,70,74,1,1,1,81.0,False
2242,1282, Note_on_c,73,74,1,1,1,85.0,False
2243,1283, Note_on_c,72,74,1,1,1,84.0,True
2244,1283, Note_on_c,75,74,1,1,1,87.0,False
2245,1284, Note_on_c,70,74,1,1,1,81.0,False
2246,1284, Note_on_c,73,74,1,1,1,85.0,False
2247,1285, Note_on_c,72,74,1,1,1,84.0,True
2248,1285, Note_on_c,77,74,1,1,1,90.0,True
2249,1286, Note_on_c,65,74,1,1,1,76.0,True
2250,1287, Note_on_c,70,74,1,1,1,81.0,False
2251,1287, Note_on_c,73,74,1,1,1,85.0,False
2252,1288, Note_on_c,72,74,1,1,1,84.0,True
2253,1288, Note_on_c,75,74,1,1,1,87.0,False
2254,1289, Note_on_c,65,74,1,1,1,76.0,True
2255,1290, Note_on_c,70,74,1,1,1,81.0,False
2256,1290, Note_on_c,73,74,1,1,1,85.0,False
2257,1291, Note_on_c,72,74,1,1,1,84.0,True
2258,1291, Note_on_c,75,74,1,1,1,87.0,False
2259,1292, Note_on_c,70,74,1,1,1,81.0,False
2260,1292, Note_on_c,73,74,1,1,1,85.0,False
2261,1293, Note_on_c,72,74,1,1,1,84.0,True
2262,1293, Note_on_c,77,74,1,1,1,90.0,True
2263,1294, Note_on_c,65,74,1,1,1,76.0,True
2264,1295, Note_on_c,70,74,1,1,1,81.0,False
2265,1295, Note_on_c,73,74,1,1,1,85.0,False
2266,1296, Note_on_c,72,74,1,1,1,84.0,True
2267,1296, Note_on_c,75,74,1,1,1,87.0,False
2268,1297, Note_on_c,65,74,1,1,1,76.0,True
2269,1298, Note_on_c,70,74,1,1,1,81.0,False
2270,1298, Note_on_c,73,74,1,1,1,85.0,False
2271,1299, Note_on_c,72,74,1,1,1,84.0,True
2272,1299, Note_on_c,75,74,1,1,1,87.0,False
2273,1300, Note_on_c,70,74,1,1,1,81.0,False
2274,1300, Note_on_c,73,74,1,1,1,85.0,False
2275,1301, Note_on_c,72,74,1,1,1,84.0,True
2276,1301, Note_on_c,77,74,1,1,1,90.0,True
2277,1302, Note_on_c,65,74,1,1,1,76.0,True
2278,1303, Note_on_c,70,74,1,1,1,81.0,False
2279,1303, Note_on_c,73,74,1,1,1,85.0,False
2280,1304, Note_on_c,72,74,1,1,1,84.0,True
2281,1304, Note_on_c,75,74,1,1,1,87.0,False
2282,1305, Note_on_c,65,74,1,1,1,76.0,True
2283,1306, Note_on_c,70,74,1,1,1,81.0,False
2284,1306, Note_on_c,73,74,1,1,1,85.0,False
2285,1307, Note_on_c,72,74,1,1,1,84.0,True
2286,1307, Note_on_c,75,74,1,1,1,87.0,False
2287,1308, Note_on_c,70,74,1,1,1,81.0,False
2288,1308, Note_on_c,73,74,1,1,1,85.0,False
2289,1309, Note_on_c,72,74,1,1,1,84.0,True
2290,1309, Note_on_c,77,74,1,1,1,90.0,True
2291,1310, Note_on_c,65,74,1,1,1,76.0,True
2292,1311, Note_on_c,70,74,1,1,1,81.0,False
2293,1311, Note_on_c,73,74,1,1,1,85.0,False
2294,1312, Note_on_c,72,74,1,1,1,84.0,True
2295,1312, Note_on_c,75,74,1,1,1,87.0,False
2296,1313, Note_on_c,65,74,1,1,1,76.0,True
2297,1314, Note_on_c,70,74,1,1,1,81.0,False
2298,1314, Note_on_c,73,74,1,1,1,85.0,False
2299,1315, Note_on_c,72,74,1,1,1,84.0,True
2300,1315, Note_on_c,75,74,1,1,1,87.0,False
2301,1316, Note_on_c,70,74,1,1,1,81.0,False
2302,1316, Note_on_c,73,74,1,1,1,85.0,False
2303,1317, Note_on_c,72,74,1,1,1,84.0,True
2304,1317, Note_on_c,77,74,1,1,1,90.0,True
2305,1318, Note_on_c,65,74,1,1,1,76.0,True
2306,1319, Note_on_c,70,74,1,1,1,81.0,False
2307,1319, Note_on_c,73,74,1,1,1,85.0,False
2308,1320, Note_on_c,72,74,1,1,1,84.0,True
2309,1320, Note_on_c,75,74,1,1,1,87.0,False
2310,1321, Note_on_c,65,74,1,1,1,76.0,True
2311,1322, Note_on_c,70,74,1,1,1,81.0,False
2312,1322, Note_on_c,73,74,1,1,1,85.0,False
2313,1323, Note_on_c,72,74,1,1,1,84.0,True
2314,1323, Note_on_c,75,74,1,1,1,87.0,False
2315,1324, Note_on_c,70,74,1,1,1,81.0,False
2316,1324, Note_on_c,73,74,1,1,1,85.0,False
2317,1325, Note_on_c,72,74,1,1,1,84.0,True
2318,1325, Note_on_c,77,74,1,1,1,90.0,True
2319,1326, Note_on_c,65,74,1,1,1,76.0,True
2320,1327, Note_on_c,70,74,1,1,1,81.0,False
2321,1327, Note_on_c,73,74,1,1,1,85.0,False
2322,1328, Note_on_c,72,74,1,1,1,84.0,True
2323,1328, Note_on_c,75,74,1,1,1,87.0,False
2324,1329, Note_on_c,65,74,1,1,1,76.0,True
2325,1330, Note_on_c,70,74,1,1,1,81.0,False
2326,1330, Note_on_c,73,74,1,1,1,85.0,False
2327,1331, Note_on_c,72,74,1,1,1,84.0,True
2328,1331, Note_on_c,75,74,1,1,1,87.0,False
2329,1332, Note_on_c,70,74,1,1,1,81.0,False
2330,1332, Note_on_c,73,74,1,1,1,85.0,False
2331,1333, Note_on_c,72,74,1,1,1,84.0,True
2332,1333, Note_on_c,77,74,1,1,1,90.0,True
2333,1334, Note_on_c,65,74,1,1,1,76.0,True
2334,1335, Note_on_c,70,74,1,1,1,81.0,False
2335,1335, Note_on_c,73,74,1,1,1,85.0,False
2336,1336, Note_on_c,72,74,1,1,1,84.0,True
2337,1336, Note_on_c,75,74,1,1,1,87.0,False
2338,1337, Note_on_c,65,74,1,1,1,76.0,True
2339,1338, Note_on_c,70,74,1,1,1,81.0,False
2340,1338, Note_on_c,73,74,1,1,1,85.0,False
2341,1339, Note_on_c,72,74,1,1,1,84.0,True
2342,1339, Note_on_c,75,74,1,1,1,87.0,False
2343,1340, Note_on_c,70,74,1,1,1,81.0,False
2344,1340, Note_on_c,73,74,1,1,1,85.0,False
2345,1341, Note_on_c,72,74,1,1,1,84.0,True
2346,1341, Note_on_c,77,74,1,1,1,90.0,True
2347,1342, Note_on_c,65,74,1,1,1,76.0,True
2348,1343, Note_on_c,70,74,1,1,1,81.0,False
2349,1343, Note_on_c,73,74,1,1,1,85.0,False
2350,1344, Note_on_c,72,74,1,1,1,84.0,True
2351,1344, Note_on_c,75,74,1,1,1,87.0,False
2352,1345, Note_on_c,65,74,1,1,1,76.0,True
2353,1346, Note_on_c,70,74,1,1,1,81.0,False
2354,1346, Note_on_c,73,74,1,1,1,85.0,False
2355,1347, Note_on_c,72,74,1,1,1,84.0,True
2356,1347, Note_on_c,75,74,1,1,1,87.0,False
2357,1348, Note_on_c,70,74,1,1,1,81.0,False
2358,1348, Note_on_c,73,74,1,1,1,85.0,False
2359,1349, Note_on_c,72,74,1,1,1,84.0,True
2360,1349, Note_on_c,77,74,1,1,1,90.0,True
2361,1350, Note_on_c,65,74,1,1,1,76.0,True
2362,1351, Note_on_c,70,74,1,1,1,81.0,False
2363,1351, Note_on_c,73,74,1,1,1,85.0,False
2364,1352, Note_on_c,72,74,1,1,1,84.0,True
2365,1352, Note_on_c,75,74,1,1,1,87.0,False
2366,1353, Note_on_c,65,74,1,1,1,76.0,True
2367,1354, Note_on_c,70,74,1,1,1,81.0,False
2368,1354, Note_on_c,73,74,1,1,1,85.0,False
2369,1355, Note_on_c,72,74,1,1,1,84.0,True
2370,1355, Note_on_c,75,74,1,1,1,87.0,False
2371,1356, Note_on_c,70,74,1,1,1,81.0,False
2372,1356, Note_on_c,73,74,1,1,1,85.0,False
2373,1357, Note_on_c,72,74,1,1,1,84.0,True
2374,1357, Note_on_c,77,74,1,1,1,90.0,True
2375,1358, Note_on_c,65,74,1,1,1,76.0,True
2376,1359, Note_on_c,70,74,1,1,1,81.0,False
2377,1359, Note_on_c,73,74,1,1,1,85.0,False
2378,1360, Note_on_c,72,74,1,1,1,84.0,True
2379,1360, Note_on_c,75,74,1,1,1,87.0,False
2380,1361, Note_on_c,65,74,1,1,1,76.0,True
2381,1362, Note_on_c,70,74,1,1,1,81.0,False
2382,1362, Note_on_c,73,74,1,1,1,85.0,False
2383,1363, Note_on_c,72,74,1,1,1,84.0,True
2384,1363, Note_on_c,75,74,1,1,1,87.0,False
2385,1364, Note_on_c,70,74,1,1,1,81.0,False
2386,1364, Note_on_c,73,74,1,1,1,85.0,False
2387,1365, Note_on_c,72,74,1,1,1,84.0,True
2388,1365, Note_on_c,77,74,1,1,1,90.0,True
2389,1366, Note_on_c,65,74,1,1,1,76.0,True
2390,1367, Note_on_c,70,74,1,1,1,81.0,False
2391,1367, Note_on_c,73,74,1,1,1,85.0,False
2392,1368, Note_on_c,72,74,1,1,1,84.0,True
2393,1368, Note_on_c,75,74,1,1,1,87.0,False
2394,1369, Note_on_c,65,74,1,1,1,76.0,True
2395,1370, Note_on_c,70,74,1,1,1,81.0,False
2396,1370, Note_on_c,73,74,1,1,1,85.0,False
2397,1371, Note_on_c,72,74,1,1,1,84.0,True
2398,1371, Note_on_c,75,74,1,1,1,87.0,False
2399,1372, Note_on_c,70,74,1,1,1,81.0,False
2400,1372, Note_on_c,73,74,1,1,1,85.0,False
2401,1373, Note_on_c,72,74,1,1,1,84.0,True
2402,1373, Note_on_c,77,74,1,1,1,90.0,True
2403,1374, Note_on_c,65,74,1,1,1,76.0,True
2404,1375, Note_on_c,70,74,1,1,1,81.0,False
2405,1375, Note_on_c,73,74,1,1,1,85.0,False
2406,1376, Note_on_c,72,74,1,1,1,84.0,True
2407,1376, Note_on_c,75,74,1,1,1,87.0,False
2408,1377, Note_on_c,65,74,1,1,1,76.0,True
2409,1378, Note_on_c,70,74,1,1,1,81.0,False
2410,1378, Note_on_c,73,74,1,1,1,85.0,False
2411,1379, Note_on_c,72,74,1,1,1,84.0,True
2412,1379, Note_on_c,75,74,1,1,1,87.0,False
2413,1380, Note_on_c,70,74,1,1,1,81.0,False
2414,1380, Note_on_c,73,74,1,1,1,85.0,False
2415,1381, Note_on_c,72,74,1,1,1,84.0,True
2416,1381, Note_on_c,77,74,1,1,1,90.0,True
2417,1382, Note_on_c,65,74,1,1,1,76.0,True
2418,1383, Note_on_c,70,74,1,1,1,81.0,False
2419,1383, Note_on_c,73,74,1,1,1,85.0,False
2420,1384, Note_on_c,72,74,1,1,1,84.0,True
2421,1384, Note_on_c,75,74,1,1,1,87.0,False
2422,1385, Note_on_c,65,74,1,1,1,76.0,True
2423,1386, Note_on_c,70,74,1,1,1,81.0,False
2424,1386, Note_on_c,73,74,1,1,1,85.0,False
2425,1387, Note_on_c,72,74,1,1,1,84.0,True
2426,1387, Note_on_c,75,74,1,1,1,87.0,False
2427,1388, Note_on_c,70,74,1,1,1,81.0,False
2428,1388, Note_on_c,73,74,1,1,1,85.0,False
2429,1389, Note_on_c,72,74,1,1,1,84.0,True
2430,1389, Note_on_c,77,74,1,1,1,90.0,True
2431,1390, Note_on_c,65,74,1,1,1,76.0,True
2432,1391, Note_on_c,70,74,1,1,1,81.0,False
2433,1391, Note_on_c,73,74,1,1,1,85.0,False
2434,1392, Note_on_c,72,74,1,1,1,84.0,True
2435,1392, Note_on_c,75,74,1,1,1,87.0,False
2436,1393, Note_on_c,65,74,1,1,1,76.0,True
2437,1394, Note_on_c,70,74,1,1,1,81.0,False
2438,1394, Note_on_c,73,74,1,1,1,85.0,False
2439,1395, Note_on_c,72,74,1,1,1,84.0,True
2440,1395, Note_on_c,75,74,1,1,1,87.0,False
2441,1396, Note_on_c,70,74,1,1,1,81.0,False
2442,1396, Note_on_c,73,74,1,1,1,85.0,False
2443,1397, Note_on_c,72,74,1,1,1,84.0,True
2444,1397, Note_on_c,77,74,1,1,1,90.0,True
2445,1398, Note_on_c,65,74,1,1,1,76.0,True
2446,1399, Note_on_c,70,74,1,1,1,81.0,False
2447,1399, Note_on_c,73,74,1,1,1,85.0,False
2448,1400, Note_on_c,72,74,1,1,1,84.0,True
2449,1400, Note_on_c,75,74,1,1,1,87.0,False
2450,1401, Note_on_c,65,74,1,1,1,76.0,True
2451,1402, Note_on_c,70,74,1,1,1,81.0,False
2452,1402, Note_on_c,73,74,1,1,1,85.0,False
2453,1403, Note_on_c,72,74,1,1,1,84.0,True
2454,1403, Note_on_c,75,74,1,1,1,87.0,False
2455,1404, Note_on_c,70,74,1,1,1,81.0,False
2456,1404, Note_on_c,73,74,1,1,1,85.0,False
2457,1405, Note_on_c,72,74,1,1,1,84.0,True
2458,1405, Note_on_c,77,74,1,1,1,90.0,True
2459,1406, Note_on_c,65,74,1,1,1,76.0,True
2460,1407, Note_on_c,70,74,1,1,1,81.0,False
2461,1407, Note_on_c,73,74,1,1,1,85.0,False
2462,1408, Note_on_c,72,74,1,1,1,84.0,True
2463,1408, Note_on_c,75,74,1,1,1,87.0,False
2464,1409, Note_on_c,65,74,1,1,1,76.0,True
2465,1410, Note_on_c,70,74,1,1,1,81.0,False
2466,1410, Note_on_c,73,74,1,1,1,85.0,False
2467,1411, Note_on_c,72,74,1,1,1,84.0,True
2468,1411, Note_on_c,75,74,1,1,1,87.0,False
2469,1412, Note_on_c,70,74,1,1,1,81.0,False
2470,1412, Note_on_c,73,74,1,1,1,85.0,False
2471,1413, Note_on_c,72,74,1,1,1,84.0,True
2472,1413, Note_on_c,77,74,1,1,1,90.0,True
2473,1414, Note_on_c,65,74,1,1,1,76.0,True
2474,1415, Note_on_c,70,74,1,1,1,81.0,False
2475,1415, Note_on_c,73,74,1,1,1,85.0,False
2476,1416, Note_on_c,72,74,1,1,1,84.0,True
2477,1416, Note_on_c,75,74,1,1,1,87.0,False
2478,1417, Note_on_c,65,74,1,1,1,76.0,True
2479,1418, Note_on_c,70,74,1,1,1,81.0,False
2480,1418, Note_on_c,73,74,1,1,1,85.0,False
2481,1419, Note_on_c,72,74,1,1,1,84.0,True
2482,1419, Note_on_c,75,74,1,1,1,87.0,False
2483,1420, Note_on_c,70,74,1,1,1,81.0,False
2484,1420, Note_on_c,73,74,1,1,1,85.0,False
2485,1421, Note_on_c,72,74,1,1,1,84.0,True
2486,1421, Note_on_c,77,74,1,1,1,90.0,True
2487,1422, Note_on_c,65,74,1,1,1,76.0,True
2488,1423, Note_on_c,70,74,1,1,1,81.0,False
2489,1423, Note_on_c,73,74,1,1,1,85.0,False
2490,1424, Note_on_c,72,74,1,1,1,84.0,True
2491,1424, Note_on_c,75,74,1,1,1,87.0,False
2492,1425, Note_on_c,65,74,1,1,1,76.0,True
2493,1426, Note_on_c,70,74,1,1,1,81.0,False
2494,1426, Note_on_c,73,74,1,1,1,85.0,False
2495,1427, Note_on_c,72,74,1,1,1,84.0,True
2496,1427, Note_on_c,75,74,1,1,1,87.0,False
2497,1428, Note_on_c,70,74,1,1,1,81.0,False
2498,1428, Note_on_c,73,74,1,1,1,85.0,False
2499,1429, Note_on_c,72,74,1,1,1,84.0,True
2500,1429, Note_on_c,77,74,1,1,1,90.0,True
2501,1430, Note_on_c,65,74,1,1,1,76.0,True
2502,1431, Note_on_c,70,74,1,1,1,81.0,False
2503,1431, Note_on_c,73,74,1,1,1,85.0,False
2504,1432, Note_on_c,72,74,1,1,1,84.0,True
2505,1432, Note_on_c,75,74,1,1,1,87.0,False
2506,1433, Note_on_c,65,74,1,1,1,76.0,True
2507,1434, Note_on_c,70,74,1,1,1,81.0,False
2508,1434, Note_on_c,73,74,1,1,1,85.0,False
2509,1435, Note_on_c,72,74,1,1,1,84.0,True
2510,1435, Note_on_c,75,74,1,1,1,87.0,False
2511,1436, Note_on_c,70,74,1,1,1,81.0,False
2512,1436, Note_on_c,73,74,1,1,1,85.0,False
2513,1437, Note_on_c,72,74,1,1,1,84.0,True
2514,1437, Note_on_c,77,74,1,1,1,90.0,True
2515,1438, Note_on_c,65,74,1,1,1,76.0,True
2516,1439, Note_on_c,70,74,1,1,1,81.0,False
2517,1439, Note_on_c,73,74,1,1,1,85.0,False
2518,1440, Note_on_c,72,74,1,1,1,84.0,True
2519,1440, Note_on_c,75,74,1,1,1,87.0,False
2520,1441, Note_on_c,65,74,1,1,1,76.0,True
2521,1442, Note_on_c,70,74,1,1,1,81.0,False
2522,1442, Note_on_c,73,74,1,1,1,85.0,False
2523,1443, Note_on_c,72,74,1,1,1,84.0,True
2524,1443, Note_on_c,75,74,1,1,1,87.0,False
2525,1444, Note_on_c,70,74,1,1,1,81.0,False
2526,1444, Note_on_c,73,74,1,1,1,85.0,False
2527,1445, Note_on_c,72,74,1,1,1,84.0,True
2528,1445, Note_on_c,77,74,1,1,1,90.0,True
2529,1446, Note_on_c,65,74,1,1,1,76.0,True
2530,1447, Note_on_c,70,74,1,1,1,81.0,False
2531,1447, Note_on_c,73,74,1,1,1,85.0,False
2532,1448, Note_on_c,72,74,1,1,1,84.0,True
2533,1448, Note_on_c,75,74,1,1,1,87.0,False
2534,1449, Note_on_c,65,74,1,1,1,76.0,True
2535,1450, Note_on_c,70,74,1,1,1,81.0,False
2536,1450, Note_on_c,73,74,1,1,1,85.0,False
2537,1451, Note_on_c,72,74,1,1,1,84.0,True
2538,1451, Note_on_c,75,74,1,1,1,87.0,False
2539,1452, Note_on_c,70,74,1,1,1,81.0,False
2540,1452, Note_on_c,73,74,1,1,1,85.0,False
2541,1453, Note_on_c,72,74,1,1,1,84.0,True
2542,1453, Note_on_c,77,74,1,1,1,90.0,True
2543,1454, Note_on_c,65,74,1,1,1,76.0,True
2544,1455, Note_on_c,70,74,1,1,1,81.0,False
2545,1455, Note_on_c,73,74,1,1,1,85.0,False
2546,1456, Note_on_c,72,74,1,1,1,84.0,True
2547,1456, Note_on_c,75,74,1,1,1,87.0,False
2548,1457, Note_on_c,65,74,1,1,1,76.0,True
2549,1458, Note_on_c,70,74,1,1,1,81.0,False
2550,1458, Note_on_c,73,74,1,1,1,85.0,False
2551,1459, Note_on_c,72,74,1,1,1,84.0,True
2552,1459, Note_on_c,75,74,1,1,1,87.0,False
2553,1460, Note_on_c,70,74,1,1,1,81.0,False
2554,1460, Note_on_c,73,74,1,1,1,85.0,False
2555,1461, Note_on_c,72,74,1,1,1,84.0,True
2556,1461, Note_on_c,77,74,1,1,1,90.0,True
2557,1462, Note_on_c,65,74,1,1,1,76.0,True
2558,1463, Note_on_c,70,74,1,1,1,81.0,False
2559,1463, Note_on_c,73,74,1,1,1,85.0,False
2560,1464, Note_on_c,72,74,1,1,1,84.0,True
2561,1464, Note_on_c,75,74,1,1,1,87.0,False
2562,1465, Note_on_c,65,74,1,1,1,76.0,True
2563,1466, Note_on_c,70,74,1,1,1,81.0,False
2564,1466, Note_on_c,73,74,1,1,1,85.0,False
2565,1467, Note_on_c,72,74,1,1,1,84.0,True
2566,1467, Note_on_c,75,74,1,1,1,87.0,False
2567,1468, Note_on_c,70,74,1,1,1,81.0,False
2568,1468, Note_on_c,73,74,1,1,1,85.0,False
2569,1469, Note_on_c,72,74,1,1,1,84.0,True
2570,1469, Note_on_c,77,74,1,1,1,90.0,True
2571,1470, Note_on_c,65,74,1,1,1,76.0,True
2572,1471, Note_on_c,70,74,1,1,1,81.0,False
2573,1471, Note_on_c,73,74,1,1,1,85.0,False
2574,1472, Note_on_c,72,74,1,1,1,84.0,True
2575,1472, Note_on_c,75,74,1,1,1,87.0,False
2576,1473, Note_on_c,65,74,1,1,1,76.0,True
2577,1474, Note_on_c,70,74,1,1,1,81.0,False
2578,1474, Note_on_c,73,74,1,1,1,85.0,False
2579,1475, Note_on_c,72,74,1,1,1,84.0,True
2580,1475, Note_on_c,75,74,1,1,1,87.0,False
2581,1476, Note_on_c,70,74,1,1,1,81.0,False
2582,1476, Note_on_c,73,74,1,1,1,85.0,False
2583,1477, Note_on_c,72,74,1,1,1,84.0,True
2584,1477, Note_on_c,77,74,1,1,1,90.0,True
2585,1478, Note_on_c,65,74,1,1,1,76.0,True
2586,1479, Note_on_c,70,74,1,1,1,81.0,False
2587,1479, Note_on_c,73,74,1,1,1,85.0,False
2588,1480, Note_on_c,72,74,1,1,1,84.0,True
2589,1480, Note_on_c,75,74,1,1,1,87.0,False
2590,1481, Note_on_c,65,74,1,1,1,76.0,True
2591,1482, Note_on_c,70,74,1,1,1,81.0,False
2592,1482, Note_on_c,73,74,1,1,1,85.0,False
2593,1483, Note_on_c,72,74,1,1,1,84.0,True
2594,1483, Note_on_c,75,74,1,1,1,87.0,False
2595,1484, Note_on_c,70,74,1,1,1,81.0,False
2596,1484, Note_on_c,73,74,1,1,1,85.0,False
2597,1485, Note_on_c,72,74,1,1,1,84.0,True
2598,1485, Note_on_c,77,74,1,1,1,90.0,True
2599,1486, Note_on_c,65,74,1,1,1,76.0,True
2600,1487, Note_on_c,70,74,1,1,1,81.0,False
2601,1487, Note_on_c,73,74,1,1,1,85.0,False
2602,1488, Note_on_c,72,74,1,1,1,84.0,True
2603,1488, Note_on_c,75,74,1,1,1,87.0,False
2604,1489, Note_on_c,65,74,1,1,1,76.0,True
2605,1490, Note_on_c,70,74,1,1,1,81.0,False
2606,1490, Note_on_c,73,74,1,1,1,85.0,False
2607,1491, Note_on_c,72,74,1,1,1,84.0,True
2608,1491, Note_on_c,75,74,1,1,1,87.0,False
2609,1492, Note_on_c,70,74,1,1,1,81.0,False
2610,1492, Note_on_c,73,74,1,1,1,85.0,False
2611,1493, Note_on_c,72,74,1,1,1,84.0,True
2612,1493, Note_on_c,77,74,1,1,1,90.0,True
2613,1494, Note_on_c,65,74,1,1,1,76.0,True
2614,1495, Note_on_c,70,74,1,1,1,81.0,False
2615,1495, Note_on_c,73,74,1,1,1,85.0,False
2616,1496, Note_on_c,72,74,1,1,1,84.0,True
2617,1496, Note_on_c,75,74,1,1,1,87.0,False
2618,1497, Note_on_c,65,74,1,1,1,76.0,True
2619,1498, Note_on_c,70,74,1,1,1,81.0,False
2620,1498, Note_on_c,73,74,1,1,1,85.0,False
2621,1499, Note_on_c,72,74,1,1,1,84.0,True
2622,1499, Note_on_c,75,74,1,1,1,87.0,False
2623,1500, Note_on_c,70,74,1,1,1,81.0,False
2624,1500, Note_on_c,73,74,1,1,1,85.0,False
2625,1501, Note_on_c,72,74,1,1,1,84.0,True
2626,1501, Note_on_c,77,74,1,1,1,90.0,True
2627,1502, Note_on_c,65,74,1,1,1,76.0,True
2628,1503, Note_on_c,70,74,1,1,1,81.0,False
2629,1503, Note_on_c,73,74,1,1,1,85.0,False
2630,1504, Note_on_c,72,74,1,1,1,84.0,True
2631,1504, Note_on_c,75,74,1,1,1,87.0,False
2632,1505, Note_on_c,65,74,1,1,1,76.0,True
2633,1506, Note_on_c,70,74,1,1,1,81.0,False
2634,1506, Note_on_c,73,74,1,1,1,85.0,False
2635,1507, Note_on_c,72,74,1,1,1,84.0,True
2636,1507, Note_on_c,75,74,1,1,1,87.0,False
2637,1508, Note_on_c,70,74,1,1,1,81.0,False
2638,1508, Note_on_c,73,74,1,1,1,85.0,False
2639,1509, Note_on_c,72,74,1,1,1,84.0,True
2640,1509, Note_on_c,77,74,1,1,1,90.0,True
2641,1510, Note_on_c,65,74,1,1,1,76.0,True
2642,1511, Note_on_c,70,74,1,1,1,81.0,False
2643,1511, Note_on_c,73,74,1,1,1,85.0,False
2644,1512, Note_on_c,72,74,1,1,1,84.0,True
2645,1512, Note_on_c,75,74,1,1,1,87.0,False
2646,1513, Note_on_c,65,74,1,1,1,76.0,True
2647,1514, Note_on_c,70,74,1,1,1,81.0,False
2648,1514, Note_on_c,73,74,1,1,1,85.0,False
2649,1515, Note_on_c,72,74,1,1,1,84.0,True
2650,1515, Note_on_c,75,74,1,1,1,87.0,False
2651,1516, Note_on_c,70,74,1,1,1,81.0,False
2652,1516, Note_on_c,73,74,1,1,1,85.0,False
2653,1517, Note_on_c,72,74,1,1,1,84.0,True
2654,1517, Note_on_c,77,74,1,1,1,90.0,True
2655,1518, Note_on_c,65,74,1,1,1,76.0,True
2656,1519, Note_on_c,70,74,1,1,1,81.0,False
2657,1519, Note_on_c,73,74,1,1,1,85.0,False
2658,1520, Note_on_c,72,74,1,1,1,84.0,True
2659,1520, Note_on_c,75,74,1,1,1,87.0,False
2660,1521, Note_on_c,65,74,1,1,1,76.0,True
2661,1522, Note_on_c,70,74,1,1,1,81.0,False
2662,1522, Note_on_c,73,74,1,1,1,85.0,False
2663,1523, Note_on_c,72,74,1,1,1,84.0,True
2664,1523, Note_on_c,75,74,1,1,1,87.0,False
2665,1524, Note_on_c,70,74,1,1,1,81.0,False
2666,1524, Note_on_c,73,74,1,1,1,85.0,False
2667,1525, Note_on_c,72,74,1,1,1,84.0,True
2668,1525, Note_on_c,77,74,1,1,1,90.0,True
2669,1526, Note_on_c,65,74,1,1,1,76.0,True
2670,1527, Note_on_c,70,74,1,1,1,81.0,False
2671,1527, Note_on_c,73,74,1,1,1,85.0,False
2672,1528, Note_on_c,72,74,1,1,1,84.0,True
2673,1528, Note_on_c,75,74,1,1,1,87.0,False
2674,1529, Note_on_c,65,74,1,1,1,76.0,True
2675,1530, Note_on_c,70,74,1,1,1,81.0,False
2676,1530, Note_on_c,73,74,1,1,1,85.0,False
2677,1531, Note_on_c,72,74,1,1,1,84.0,True
2678,1531, Note_on_c,75,74,1,1,1,87.0,False
2679,1532, Note_on_c,70,74,1,1,1,81.0,False
2680,1532, Note_on_c,73,74,1,1,1,85.0,False
2681,1533, Note_on_c,72,74,1,1,1,84.0,True
2682,1533, Note_on_c,77,74,1,1,1,90.0,True
2683,1534, Note_on_c,65,74,1,1,1,76.0,True
2684,1535, Note_on_c,70,74,1,1,1,81.0,False
2685,1535, Note_on_c,73,74,1,1,1,85.0,False
2686,1536, Note_on_c,72,74,1,1,1,84.0,True
2687,1536, Note_on_c,75,74,1,1,1,87.0,False
2688,1537, Note_on_c,65,74,1,1,1,76.0,True
2689,1538, Note_on_c,70,74,1,1,1,81.0,False
2690,1538, Note_on_c,73,74,1,1,1,85.0,False
2691,1539, Note_on_c,72,74,1,1,1,84.0,True
2692,1539, Note_on_c,75,74,1,1,1,87.0,False
2693,1540, Note_on_c,70,74,1,1,1,81.0,False
2694,1540, Note_on_c,73,74,1,1,1,85.0,False
2695,1541, Note_on_c,72,74,1,1,1,84.0,True
2696,1541, Note_on_c,77,74,1,1,1,90.0,True
2697,1542, Note_on_c,65,74,1,1,1,76.0,True
2698,1543, Note_on_c,70,74,1,1,1,81.0,False
2699,1543, Note_on_c,73,74,1,1,1,85.0,False
2700,1544, Note_on_c,72,74,1,1,1,84.0,True
2701,1544, Note_on_c,75,74,1,1,1,87.0,False
2702,1545, Note_on_c,65,74,1,1,1,76.0,True
2703,1546, Note_on_c,70,74,1,1,1,81.0,False
2704,1546, Note_on_c,73,74,1,1,1,85.0,False
2705,1547, Note_on_c,72,74,1,1,1,84.0,True
2706,1547, Note_on_c,75,74,1,1,1,87.0,False
2707,1548, Note_on_c,70,74,1,1,1,81.0,False
2708,1548, Note_on_c,73,74,1,1,1,85.0,False
2709,1549, Note_on_c,72,74,1,1,1,84.0,True
2710,1549, Note_on_c,77,74,1,1,1,90.0,True
2711,1550, Note_on_c,65,74,1,1,1,76.0,True
2712,1551, Note_on_c,70,74,1,1,1,81.0,False
2713,1551, Note_on_c,73,74,1,1,1,85.0,False
2714,1552, Note_on_c,72,74,1,1,1,84.0,True
2715,1552, Note_on_c,75,74,1,1,1,87.0,False
2716,1553, Note_on_c,65,74,1,1,1,76.0,True
2717,1554, Note_on_c,70,74,1,1,1,81.0,False
2718,1554, Note_on_c,73,74,1,1,1,85.0,False
2719,1555, Note_on_c,72,74,1,1,1,84.0,True
2720,1555, Note_on_c,75,74,1,1,1,87.0,False
2721,1556, Note_on_c,70,74,1,1,1,81.0,False
2722,1556, Note_on_c,73,74,1,1,1,85.0,False
2723,1557, Note_on_c,72,74,1,1,1,84.0,True
2724,1557, Note_on_c,77,74,1,1,1,90.0,True
2725,1558, Note_on_c,65,74,1,1,1,76.0,True
2726,1559, Note_on_c,70,74,1,1,1,81.0,False
2727,1559, Note_on_c,73,74,1,1,1,85.0,False
2728,1560, Note_on_c,72,74,1,1,1,84.0,True
2729,1560, Note_on_c,75,74,1,1,1,87.0,False
2730,1561, Note_on_c,65,74,1,1,1,76.0,True
2731,1562, Note_on_c,70,74,1,1,1,81.0,False
2732,1562, Note_on_c,73,74,1,1,1,85.0,False
2733,1563, Note_on_c,72,74,1,1,1,84.0,True
2734,1563, Note_on_c,75,74,1,1,1,87.0,False
2735,1564, Note_on_c,70,74,1,1,1,81.0,False
2736,1564, Note_on_c,73,74,1,1,1,85.0,False
2737,1565, Note_on_c,72,74,1,1,1,84.0,True
2738,1565, Note_on_c,77,74,1,1,1,90.0,True
2739,1566, Note_on_c,65,74,1,1,1,76.0,True
2740,1567, Note_on_c,70,74,1,1,1,81.0,False
2741,1567, Note_on_c,73,74,1,1,1,85.0,False
2742,1568, Note_on_c,72,74,1,1,1,84.0,True
2743,1568, Note_on_c,75,74,1,1,1,87.0,False
2744,1569, Note_on_c,65,74,1,1,1,76.0,True
2745,1570, Note_on_c,70,74,1,1,1,81.0,False
2746,1570, Note_on_c,73,74,1,1,1,85.0,False
2747,1571, Note_on_c,72,74,1,1,1,84.0,True
2748,1571, Note_on_c,75,74,1,1,1,87.0,False
2749,1572, Note_on_c,70,74,1,1,1,81.0,False
2750,1572, Note_on_c,73,74,1,1,1,85.0,False
2751,1573, Note_on_c,72,74,1,1,1,84.0,True
2752,1573, Note_on_c,77,74,1,1,1,90.0,True
2753,1574, Note_on_c,65,74,1,1,1,76.0,True
2754,1575, Note_on_c,70,74,1,1,1,81.0,False
2755,1575, Note_on_c,73,74,1,1,1,85.0,False
2756,1576, Note_on_c,72,74,1,1,1,84.0,True
2757,1576, Note_on_c,75,74,1,1,1,87.0,False
2758,1577, Note_on_c,65,74,1,1,1,76.0,True
2759,1578, Note_on_c,70,74,1,1,1,81.0,False
2760,1578, Note_on_c,73,74,1,1,1,85.0,False
2761,1579, Note_on_c,72,74,1,1,1,84.0,True
2762,1579, Note_on_c,75,74,1,1,1,87.0,False
2763,1580, Note_on_c,70,74,1,1,1,81.0,False
2764,1580, Note_on_c,73,74,1,1,1,85.0,False
2765,1581, Note_on_c,72,74,1,1,1,84.0,True
2766,1581, Note_on_c,77,74,1,1,1,90.0,True
2767,1582, Note_on_c,65,74,1,1,1,76.0,True
2768,1583, Note_on_c,70,74,1,1,1,81.0,False
2769,1583, Note_on_c,73,74,1,1,1,85.0,False
2770,1584, Note_on_c,72,74,1,1,1,84.0,True
2771,1584, Note_on_c,75,74,1,1,1,87.0,False
2772,1585, Note_on_c,65,74,1,1,1,76.0,True
2773,1586, Note_on_c,70,74,1,1,1,81.0,False
2774,1586, Note_on_c,73,74,1,1,1,85.0,False
2775,1587, Note_on_c,72,74,1,1,1,84.0,True
2776,1587, Note_on_c,75,74,1,1,1,87.0,False
2777,1588, Note_on_c,70,74,1,1,1,81.0,False
2778,1588, Note_on_c,73,74,1,1,1,85.0,False
2779,1589, Note_on_c,72,74,1,1,1,84.0,True
2780,1589, Note_on_c,77,74,1,1,1,90.0,True
2781,1590, Note_on_c,65,74,1,1,1,76.0,True
2782,1591, Note_on_c,70,74,1,1,1,81.0,False
2783,1591, Note_on_c,73,74,1,1,1,85.0,False
2784,1592, Note_on_c,72,74,1,1,1,84.0,True
2785,1592, Note_on_c,75,74,1,1,1,87.0,False
2786,1593, Note_on_c,65,74,1,1,1,76.0,True
2787,1594, Note_on_c,70,74,1,1,1,81.0,False
2788,1594, Note_on_c,73,74,1,1,1,85.0,False
2789,1595, Note_on_c,72,74,1,1,1,84.0,True
2790,1595, Note_on_c,75,74,1,1,1,87.0,False
2791,1596, Note_on_c,70,74,1,1,1,81.0,False
2792,1596, Note_on_c,73,74,1,1,1,85.0,False
2793,1597, Note_on_c,72,74,1,1,1,84.0,True
2794,1597, Note_on_c,77,74,1,1,1,90.0,True
2795,1598, Note_on_c,65,74,1,1,1,76.0,True
2796,1599, Note_on_c,70,74,1,1,1,81.0,False
2797,1599, Note_on_c,73,74,1,1,1,85.0,False
2798,1600, Note_on_c,72,74,1,1,1,84.0,True
2799,1600, Note_on_c,75,74,1,1,1,87.0,False
2800,1601, Note_on_c,65,74,1,1,1,76.0,True
2801,1602, Note_on_c,70,74,1,1,1,81.0,False
2802,1602, Note_on_c,73,74,1,1,1,85.0,False
2803,1603, Note_on_c,72,74,1,1,1,84.0,True
2804,1603, Note_on_c,75,74,1,1,1,87.0,False
2805,1604, Note_on_c,70,74,1,1,1,81.0,False
2806,1604, Note_on_c,73,74,1,1,1,85.0,False
2807,1605, Note_on_c,72,74,1,1,1,84.0,True
2808,1605, Note_on_c,77,74,1,1,1,90.0,True
2809,1606, Note_on_c,65,74,1,1,1,76.0,True
2810,1607, Note_on_c,70,74,1,1,1,81.0,False
2811,1607, Note_on_c,73,74,1,1,1,85.0,False
2812,1608, Note_on_c,72,74,1,1,1,84.0,True
2813,1608, Note_on_c,75,74,1,1,1,87.0,False
2814,1609, Note_on_c,65,74,1,1,1,76.0,True
2815,1610, Note_on_c,70,74,1,1,1,81.0,False
2816,1610, Note_on_c,73,74,1,1,1,85.0,False
2817,1611, Note_on_c,72,74,1,1,1,84.0,True
2818,1611, Note_on_c,75,74,1,1,1,87.0,False
2819,1612, Note_on_c,70,74,1,1,1,81.0,False
2820,1612, Note_on_c,73,74,1,1,1,85.0,False
2821,1613, Note_on_c,72,74,1,1,1,84.0,True
2822,1613, Note_on_c,77,74,1,1,1,90.0,True
2823,1614, Note_on_c,65,74,1,1,1,76.0,True
2824,1615, Note_on_c,70,74,1,1,1,81.0,False
2825,1615, Note_on_c,73,74,1,1,1,85.0,False
2826,1616, Note_on_c,72,74,1,1,1,84.0,True
2827,1616, Note_on_c,75,74,1,1,1,87.0,False
2828,1617, Note_on_c,65,74,1,1,1,76.0,True
2829,1618, Note_on_c,70,74,1,1,1,81.0,False
2830,1618, Note_on_c,73,74,1,1,1,85.0,False
2831,1619, Note_on_c,72,74,1,1,1,84.0,True
2832,1619, Note_on_c,75,74,1,1,1,87.0,False
2833,1620, Note_on_c,70,74,1,1,1,81.0,False
2834,1620, Note_on_c,73,74,1,1,1,85.0,False
2835,1621, Note_on_c,72,74,1,1,1,84.0,True
2836,1621, Note_on_c,77,74,1,1,1,90.0,True
2837,1622, Note_on_c,65,74,1,1,1,76.0,True
2838,1623, Note_on_c,70,74,1,1,1,81.0,False
2839,1623, Note_on_c,73,74,1,1,1,85.0,False
2840,1624, Note_on_c,72,74,1,1,1,84.0,True
2841,1624, Note_on_c,75,74,1,1,1,87.0,False
2842,1625, Note_on_c,65,74,1,1,1,76.0,True
2843,1626, Note_on_c,70,74,1,1,1,81.0,False
2844,1626, Note_on_c,73,74,1,1,1,85.0,False
2845,1627, Note_on_c,72,74,1,1,1,84.0,True
2846,1627, Note_on_c,75,74,1,1,1,87.0,False
2847,1628, Note_on_c,70,74,1,1,1,81.0,False
2848,1628, Note_on_c,73,74,1,1,1,85.0,False
2849,1629, Note_on_c,72,74,1,1,1,84.0,True
2850,1629, Note_on_c,77,74,1,1,1,90.0,True
2851,1630, Note_on_c,65,74,1,1,1,76.0,True
2852,1631, Note_on_c,70,74,1,1,1,81.0,False
2853,1631, Note_on_c,73,74,1,1,1,85.0,False
2854,1632, Note_on_c,72,74,1,1,1,84.0,True
2855,1632, Note_on_c,75,74,1,1,1,87.0,False
2856,1633, Note_on_c,65,74,1,1,1,76.0,True
2857,1634, Note_on_c,70,74,1,1,1,81.0,False
2858,1634, Note_on_c,73,74,1,1,1,85.0,False
2859,1635, Note_on_c,72,74,1,1,1,84.0,True
2860,1635, Note_on_c,75,74,1,1,1,87.0,False
2861,1636, Note_on_c,70,74,1,1,1,81.0,False
2862,1636, Note_on_c,73,74,1,1,1,85.0,False
2863,1637, Note_on_c,72,74,1,1,1,84.0,True
2864,1637, Note_on_c,77,74,1,1,1,90.0,True
2865,1638, Note_on_c,65,74,1,1,1,76.0,True
2866,1639, Note_on_c,70,74,1,1,1,81.0,False
2867,1639, Note_on_c,73,74,1,1,1,85.0,False
2868,1640, Note_on_c,72,74,1,1,1,84.0,True
2869,1640, Note_on_c,75,74,1,1,1,87.0,False
2870,1641, Note_on_c,65,74,1,1,1,76.0,True
2871,1642, Note_on_c,70,74,1,1,1,81.0,False
2872,1642, Note_on_c,73,74,1,1,1,85.0,False
2873,1643, Note_on_c,72,74,1,1,1,84.0,True
2874,1643, Note_on_c,75,74,1,1,1,87.0,False
2875,1644, Note_on_c,70,74,1,1,1,81.0,False
2876,1644, Note_on_c,73,74,1,1,1,85.0,False
2877,1645, Note_on_c,72,74,1,1,1,84.0,True
2878,1645, Note_on_c,77,74,1,1,1,90.0,True
2879,1646, Note_on_c,65,74,1,1,1,76.0,True
2880,1647, Note_on_c,70,74,1,1,1,81.0,False
2881,1647, Note_on_c,73,74,1,1,1,85.0,False
2882,1648, Note_on_c,72,74,1,1,1,84.0,True
2883,1648, Note_on_c,75,74,1,1,1,87.0,False
2884,1649, Note_on_c,65,74,1,1,1,76.0,True
2885,1650, Note_on_c,70,74,1,1,1,81.0,False
2886,1650, Note_on_c,73,74,1,1,1,85.0,False
2887,1651, Note_on_c,72,74,1,1,1,84.0,True
2888,1651, Note_on_c,75,74,1,1,1,87.0,False
2889,1652, Note_on_c,70,74,1,1,1,81.0,False
2890,1652, Note_on_c,73,74,1,1,1,85.0,False
2891,1653, Note_on_c,72,74,1,1,1,84.0,True
2892,1653, Note_on_c,77,74,1,1,1,90.0,True
2893,1654, Note_on_c,65,74,1,1,1,76.0,True
2894,1655, Note_on_c,70,74,1,1,1,81.0,False
2895,1655, Note_on_c,73,74,1,1,1,85.0,False
2896,1656, Note_on_c,72,74,1,1,1,84.0,True
2897,1656, Note_on_c,75,74,1,1,1,87.0,False
2898,1657, Note_on_c,65,74,1,1,1,76.0,True
2899,1658, Note_on_c,70,74,1,1,1,81.0,False
2900,1658, Note_on_c,73,74,1,1,1,85.0,False
2901,1659, Note_on_c,72,74,1,1,1,84.0,True
2902,1659, Note_on_c,75,74,1,1,1,87.0,False
2903,1660, Note_on_c,70,74,1,1,1,81.0,False
2904,1660, Note_on_c,73,74,1,1,1,85.0,False
2905,1661, Note_on_c,72,74,1,1,1,84.0,True
2906,1661, Note_on_c,77,74,1,1,1,90.0,True
2907,1662, Note_on_c,65,74,1,1,1,76.0,True
2908,1663, Note_on_c,70,74,1,1,1,81.0,False
2909,1663, Note_on_c,73,74,1,1,1,85.0,False
2910,1664, Note_on_c,72,74,1,1,1,84.0,True
2911,1664, Note_on_c,75,74,1,1,1,87.0,False
2912,1665, Note_on_c,65,74,1,1,1,76.0,True
2913,1666, Note_on_c,70,74,1,1,1,81.0,False
2914,1666, Note_on_c,73,74,1,1,1,85.0,False
2915,1667, Note_on_c,72,74,1,1,1,84.0,True
2916,1667, Note_on_c,75,74,1,1,1,87.0,False
2917,1668, Note_on_c,70,74,1,1,1,81.0,False
2918,1668, Note_on_c,73,74,1,1,1,85.0,False
2919,1669, Note_on_c,72,74,1,1,1,84.0,True
2920,1669, Note_on_c,77,74,1,1,1,90.0,True
2921,1670, Note_on_c,65,74,1,1,1,76.0,True
2922,1671, Note_on_c,70,74,1,1,1,81.0,False
2923,1671, Note_on_c,73,74,1,1,1,85.0,False
2924,1672, Note_on_c,72,74,1,1,1,84.0,True
2925,1672, Note_on_c,75,74,1,1,1,87.0,False
2926,1673, Note_on_c,65,74,1,1,1,76.0,True
2927,1674, Note_on_c,70,74,1,1,1,81.0,False
2928,1674, Note_on_c,73,74,1,1,1,85.0,False
2929,1675, Note_on_c,72,74,1,1,1,84.0,True
2930,1675, Note_on_c,75,74,1,1,1,87.0,False
2931,1676, Note_on_c,70,74,1,1,1,81.0,False
2932,1676, Note_on_c,73,74,1,1,1,85.0,False
2933,1677, Note_on_c,72,74,1,1,1,84.0,True
2934,1677, Note_on_c,77,74,1,1,1,90.0,True
2935,1678, Note_on_c,65,74,1,1,1,76.0,True
2936,1679, Note_on_c,70,74,1,1,1,81.0,False
2937,1679, Note_on_c,73,74,1,1,1,85.0,False
2938,1680, Note_on_c,72,74,1,1,1,84.0,True
2939,1680, Note_on_c,75,74,1,1,1,87.0,False
2940,1681, Note_on_c,65,74,1,1,1,76.0,True
2941,1682, Note_on_c,70,74,1,1,1,81.0,False
2942,1682, Note_on_c,73,74,1,1,1,85.0,False
2943,1683, Note_on_c,72,74,1,1,1,84.0,True
2944,1683, Note_on_c,75,74,1,1,1,87.0,False
2945,1684, Note_on_c,70,74,1,1,1,81.0,False
2946,1684, Note_on_c,73,74,1,1,1,85.0,False
2947,1685, Note_on_c,72,74,1,1,1,84.0,True
2948,1685, Note_on_c,77,74,1,1,1,90.0,True
2949,1686, Note_on_c,65,74,1,1,1,76.0,True
2950,1687, Note_on_c,70,74,1,1,1,81.0,False
2951,1687, Note_on_c,73,74,1,1,1,85.0,False
2952,1688, Note_on_c,72,74,1,1,1,84.0,True
2953,1688, Note_on_c,75,74,1,1,1,87.0,False
2954,1689, Note_on_c,65,74,1,1,1,76.0,True
2955,1690, Note_on_c,70,74,1,1,1,81.0,False
2956,1690, Note_on_c,73,74,1,1,1,85.0,False
2957,1691, Note_on_c,72,74,1,1,1,84.0,True
2958,1691, Note_on_c,75,74,1,1,1,87.0,False
2959,1692, Note_on_c,70,74,1,1,1,81.0,False
2960,1692, Note_on_c,73,74,1,1,1,85.0,False
2961,1693, Note_on_c,72,74,1,1,1,84.0,True
2962,1693, Note_on_c,77,74,1,1,1,90.0,True
2963,1694, Note_on_c,65,74,1,1,1,76.0,True
2964,1695, Note_on_c,70,74,1,1,1,81.0,False
2965,1695, Note_on_c,73,74,1,1,1,85.0,False
2966,1696, Note_on_c,72,74,1,1,1,84.0,True
2967,1696, Note_on_c,75,74,1,1,1,87.0,False
2968,1697, Note_on_c,65,74,1,1,1,76.0,True
2969,1698, Note_on_c,70,74,1,1,1,81.0,False
2970,1698, Note_on_c,73,74,1,1,1,85.0,False
2971,1699, Note_on_c,72,74,1,1,1,84.0,True
2972,1699, Note_on_c,75,74,1,1,1,87.0,False
2973,1700, Note_on_c,70,74,1,1,1,81.0,False
2974,1700, Note_on_c,73,74,1,1,1,85.0,False
2975,1701, Note_on_c,72,74,1,1,1,84.0,True
2976,1701, Note_on_c,77,74,1,1,1,90.0,True
2977,1702, Note_on_c,65,74,1,1,1,76.0,True
2978,1703, Note_on_c,70,74,1,1,1,81.0,False
2979,1703, Note_on_c,73,74,1,1,1,85.0,False
2980,1704, Note_on_c,72,74,1,1,1,84.0,True
2981,1704, Note_on_c,75,74,1,1,1,87.0,False
2982,1705, Note_on_c,65,74,1,1,1,76.0,True
2983,1706, Note_on_c,70,74,1,1,1,81.0,False
2984,1706, Note_on_c,73,74,1,1,1,85.0,False
2985,1707, Note_on_c,72,74,1,1,1,84.0,True
2986,1707, Note_on_c,75,74,1,1,1,87.0,False
2987,1708, Note_on_c,70,74,1,1,1,81.0,False
2988,1708, Note_on_c,73,74,1,1,1,85.0,False
2989,1709, Note_on_c,72,74,1,1,1,84.0,True
2990,1709, Note_on_c,77,74,1,1,1,90.0,True
2991,1710, Note_on_c,65,74,1,1,1,76.0,True
2992,1711, Note_on_c,70,74,1,1,1,81.0,False
2993,1711, Note_on_c,73,74,1,1,1,85.0,False
2994,1712, Note_on_c,72,74,1,1,1,84.0,True
2995,1712, Note_on_c,75,74,1,1,1,87.0,False
2996,1713, Note_on_c,65,74,1,1,1,76.0,True
2997,1714, Note_on_c,70,74,1,1,1,81.0,False
2998,1714, Note_on_c,73,74,1,1,1,85.0,False
2999,1715, Note_on_c,72,74,1,1,1,84.0,True
3000,1715, Note_on_c,75,74,1,1,1,87.0,False
3001,1716, Note_on_c,70,74,1,1,1,81.0,False
3002,1716, Note_on_c,73,74,1,1,1,85.0,False
3003,1717, Note_on_c,72,74,1,1,1,84.0,True
3004,1717, Note_on_c,77,74,1,1,1,90.0,True
3005,1718, Note_on_c,65,74,1,1,1,76.0,True
3006,1719, Note_on_c,70,74,1,1,1,81.0,False
3007,1719, Note_on_c,73,74,1,1,1,85.0,False
3008,1720, Note_on_c,72,74,1,1,1,84.0,True
3009,1720, Note_on_c,75,74,1,1,1,87.0,False
3010,1721, Note_on_c,65,74,1,1,1,76.0,True
3011,1722, Note_on_c,70,74,1,1,1,81.0,False
3012,1722, Note_on_c,73,74,1,1,1,85.0,False
3013,1723, Note_on_c,72,74,1,1,1,84.0,True
3014,1723, Note_on_c,75,74,1,1,1,87.0,False
3015,1724, Note_on_c,70,74,1,1,1,81.0,False
3016,1724, Note_on_c,73,74,1,1,1,85.0,False
3017,1725, Note_on_c,72,74,1,1,1,84.0,True
3018,1725, Note_on_c,77,74,1,1,1,90.0,True
3019,1726, Note_on_c,65,74,1,1,1,76.0,True
3020,1727, Note_on_c,70,74,1,1,1,81.0,False
3021,1727, Note_on_c,73,74,1,1,1,85.0,False
3022,1728, Note_on_c,72,74,1,1,1,84.0,True
3023,1728, Note_on_c,75,74,1,1,1,87.0,False
3024,1729, Note_on_c,65,74,1,1,1,76.0,True
3025,1730, Note_on_c,70,74,1,1,1,81.0,False
3026,1730, Note_on_c,73,74,1,1,1,85.0,False
3027,1731, Note_on_c,72,74,1,1,1,84.0,True
3028,1731, Note_on_c,75,74,1,1,1,87.0,False
3029,1732, Note_on_c,70,74,1,1,1,81.0,False
3030,1732, Note_on_c,73,74,1,1,1,85.0,False
3031,1733, Note_on_c,72,74,1,1,1,84.0,True
3032,1733, Note_on_c,77,74,1,1,1,90.0,True
3033,1734, Note_on_c,65,74,1,1,1,76.0,True
3034,1735, Note_on_c,70,74,1,1,1,81.0,False
3035,1735, Note_on_c,73,74,1,1,1,85.0,False
3036,1736, Note_on_c,72,74,1,1,1,84.0,True
3037,1736, Note_on_c,75,74,1,1,1,87.0,False
3038,1737, Note_on_c,65,74,1,1,1,76.0,True
3039,1738, Note_on_c,70,74,1,1,1,81.0,False
3040,1738, Note_on_c,73,74,1,1,1,85.0,False
3041,1739, Note_on_c,72,74,1,1,1,84.0,True
3042,1739, Note_on_c,75,74,1,1,1,87.0,False
3043,1740, Note_on_c,70,74,1,1,1,81.0,False
3044,1740, Note_on_c,73,74,1,1,1,85.0,False
3045,1741, Note_on_c,72,74,1,1,1,84.0,True
3046,1741, Note_on_c,77,74,1,1,1,90.0,True
3047,1742, Note_on_c,65,74,1,1,1,76.0,True
3048,1743, Note_on_c,70,74,1,1,1,81.0,False
3049,1743, Note_on_c,73,74,1,1,1,85.0,False
3050,1744, Note_on_c,72,74,1,1,1,84.0,True
3051,1744, Note_on_c,75,74,1,1,1,87.0,False
3052,1745, Note_on_c,65,74,1,1,1,76.0,True
3053,1746, Note_on_c,70,74,1,1,1,81.0,False
3054,1746, Note_on_c,73,74,1,1,1,85.0,False
3055,1747, Note_on_c,72,74,1,1,1,84.0,True
3056,1747, Note_on_c,75,74,1,1,1,87.0,False
3057,1748, Note_on_c,70,74,1,1,1,81.0,False
3058,1748, Note_on_c,73,74,1,1,1,85.0,False
3059,1749, Note_on_c,72,74,1,1,1,84.0,True
3060,1749, Note_on_c,77,74,1,1,1,90.0,True
3061,1750, Note_on_c,65,74,1,1,1,76.0,True
3062,1751, Note_on_c,70,74,1,1,1,81.0,False
3063,1751, Note_on_c,73,74,1,1,1,85.0,False
3064,1752, Note_on_c,72,74,1,1,1,84.0,True
3065,1752, Note_on_c,75,74,1,1,1,87.0,False
3066,1753, Note_on_c,65,74,1,1,1,76.0,True
3067,1754, Note_on_c,70,74,1,1,1,81.0,False
3068,1754, Note_on_c,73,74,1,1,1,85.0,False
3069,1755, Note_on_c,72,74,1,1,1,84.0,True
3070,1755, Note_on_c,75,74,1,1,1,87.0,False
3071,1756, Note_on_c,70,74,1,1,1,81.0,False
3072,1756, Note_on_c,73,74,1,1,1,85.0,False
3073,1757, Note_on_c,72,74,1,1,1,84.0,True
3074,1757, Note_on_c,77,74,1,1,1,90.0,True
3075,1758, Note_on_c,65,74,1,1,1,76.0,True
3076,1759, Note_on_c,70,74,1,1,1,81.0,False
3077,1759, Note_on_c,73,74,1,1,1,85.0,False
3078,1760, Note_on_c,72,74,1,1,1,84.0,True
3079,1760, Note_on_c,75,74,1,1,1,87.0,False
3080,1761, Note_on_c,65,74,1,1,1,76.0,True
3081,1762, Note_on_c,70,74,1,1,1,81.0,False
3082,1762, Note_on_c,73,74,1,1,1,85.0,False
3083,1763, Note_on_c,72,74,1,1,1,84.0,True
3084,1763, Note_on_c,75,74,1,1,1,87.0,False
3085,1764, Note_on_c,70,74,1,1,1,81.0,False
3086,1764, Note_on_c,73,74,1,1,1,85.0,False
3087,1765, Note_on_c,72,74,1,1,1,84.0,True
3088,1765, Note_on_c,77,74,1,1,1,90.0,True
3089,1766, Note_on_c,65,74,1,1,1,76.0,True
3090,1767, Note_on_c,70,74,1,1,1,81.0,False
3091,1767, Note_on_c,73,74,1,1,1,85.0,False
3092,1768, Note_on_c,72,74,1,1,1,84.0,True
3093,1768, Note_on_c,75,74,1,1,1,87.0,False
3094,1769, Note_on_c,65,74,1,1,1,76.0,True
3095,1770, Note_on_c,70,74,1,1,1,81.0,False
3096,1770, Note_on_c,73,74,1,1,1,85.0,False
3097,1771, Note_on_c,72,74,1,1,1,84.0,True
3098,1771, Note_on_c,75,74,1,1,1,87.0,False
3099,1772, Note_on_c,70,74,1,1,1,81.0,False
3100,1772, Note_on_c,73,74,1,1,1,85.0,False
3101,1773, Note_on_c,72,74,1,1,1,84.0,True
3102,1773, Note_on_c,77,74,1,1,1,90.0,True
3103,1774, Note_on_c,65,74,1,1,1,76.0,True
3104,1775, Note_on_c,70,74,1,1,1,81.0,False
3105,1775, Note_on_c,73,74,1,1,1,85.0,False
3106,1776, Note_on_c,72,74,1,1,1,84.0,True
3107,1776, Note_on_c,75,74,1,1,1,87.0,False
3108,1777, Note_on_c,65,74,1,1,1,76.0,True
3109,1778, Note_on_c,70,74,1,1,1,81.0,False
3110,1778, Note_on_c,73,74,1,1,1,85.0,False
3111,1779, Note_on_c,72,74,1,1,1,84.0,True
3112,1779, Note_on_c,75,74,1,1,1,87.0,False
3113,1780, Note_on_c,70,74,1,1,1,81.0,False
3114,1780, Note_on_c,73,74,1,1,1,85.0,False
3115,1781, Note_on_c,72,74,1,1,1,84.0,True
3116,1781, Note_on_c,77,74,1,1,1,90.0,True
3117,1782, Note_on_c,65,74,1,1,1,76.0,True
3118,1783, Note_on_c,70,74,1,1,1,81.0,False
3119,1783, Note_on_c,73,74,1,1,1,85.0,False
3120,1784, Note_on_c,72,74,1,1,1,84.0,True
3121,1784, Note_on_c,75,74,1,1,1,87.0,False
3122,1785, Note_on_c,65,74,1,1,1,76.0,True
3123,1786, Note_on_c,70,74,1,1,1,81.0,False
3124,1786, Note_on_c,73,74,1,1,1,85.0,False
3125,1787, Note_on_c,72,74,1,1,1,84.0,True
3126,1787, Note_on_c,75,74,1,1,1,87.0,False
3127,1788, Note_on_c,70,74,1,1,1,81.0,False
3128,1788, Note_on_c,73,74,1,1,1,85.0,False
3129,1789, Note_on_c,72,74,1,1,1,84.0,True
3130,1789, Note_on_c,77,74,1,1,1,90.0,True
3131,1790, Note_on_c,65,74,1,1,1,76.0,True
3132,1791, Note_on_c,70,74,1,1,1,81.0,False
3133,1791, Note_on_c,73,74,1,1,1,85.0,False
3134,1792, Note_on_c,72,74,1,1,1,84.0,True
3135,1792, Note_on_c,75,74,1,1,1,87.0,False
3136,1793, Note_on_c,65,74,1,1,1,76.0,True
3137,1794, Note_on_c,70,74,1,1,1,81.0,False
3138,1794, Note_on_c,73,74,1,1,1,85.0,False
3139,1795, Note_on_c,72,74,1,1,1,84.0,True
3140,1795, Note_on_c,75,74,1,1,1,87.0,False
3141,1796, Note_on_c,70,74,1,1,1,81.0,False
3142,1796, Note_on_c,73,74,1,1,1,85.0,False
3143,1797, Note_on_c,72,74,1,1,1,84.0,True
3144,1797, Note_on_c,77,74,1,1,1,90.0,True
3145,1798, Note_on_c,65,74,1,1,1,76.0,True
3146,1799, Note_on_c,70,74,1,1,1,81.0,False
3147,1799, Note_on_c,73,74,1,1,1,85.0,False
3148,1800, Note_on_c,72,74,1,1,1,84.0,True
3149,1800, Note_on_c,75,74,1,1,1,87.0,False
3150,1801, Note_on_c,65,74,1,1,1,76.0,True
3151,1802, Note_on_c,70,74,1,1,1,81.0,False
3152,1802, Note_on_c,73,74,1,1,1,85.0,False
3153,1803, Note_on_c,72,74,1,1,1,84.0,True
3154,1803, Note_on_c,75,74,1,1,1,87.0,False
3155,1804, Note_on_c,70,74,1,1,1,81.0,False
3156,1804, Note_on_c,73,74,1,1,1,85.0,False
3157,1805, Note_on_c,72,74,1,1,1,84.0,True
3158,1805, Note_on_c,77,74,1,1,1,90.0,True
3159,1806, Note_on_c,65,74,1,1,1,76.0,True
3160,1807, Note_on_c,70,74,1,1,1,81.0,False
3161,1807, Note_on_c,73,74,1,1,1,85.0,False
3162,1808, Note_on_c,72,74,1,1,1,84.0,True
3163,1808, Note_on_c,75,74,1,1,1,87.0,False
3164,1809, Note_on_c,65,74,1,1,1,76.0,True
3165,1810, Note_on_c,70,74,1,1,1,81.0,False
3166,1810, Note_on_c,73,74,1,1,1,85.0,False
3167,1811, Note_on_c,72,74,1,1,1,84.0,True
3168,1811, Note_on_c,75,74,1,1,1,87.0,False
3169,1812, Note_on_c,70,74,1,1,1,81.0,False
3170,1812, Note_on_c,73,74,1,1,1,85.0,False
3171,1813, Note_on_c,72,74,1,1,1,84.0,True
3172,1813, Note_on_c,77,74,1,1,1,90.0,True
3173,1814, Note_on_c,65,74,1,1,1,76.0,True
3174,1815, Note_on_c,70,74,1,1,1,81.0,False
3175,1815, Note_on_c,73,74,1,1,1,85.0,False
3176,1816, Note_on_c,72,74,1,1,1,84.0,True
3177,1816, Note_on_c,75,74,1,1,1,87.0,False
3178,1817, Note_on_c,65,74,1,1,1,76.0,True
3179,1818, Note_on_c,70,74,1,1,1,81.0,False
3180,1818, Note_on_c,73,74,1,1,1,85.0,False
3181,1819, Note_on_c,72,74,1,1,1,84.0,True
3182,1819, Note_on_c,75,74,1,1,1,87.0,False
3183,1820, Note_on_c,70,74,1,1,1,81.0,False
3184,1820, Note_on_c,73,74,1,1,1,85.0,False
3185,1821, Note_on_c,72,74,1,1,1,84.0,True
3186,1821, Note_on_c,77,74,1,1,1,90.0,True
3187,1822, Note_on_c,65,74,1,1,1,76.0,True
3188,1823, Note_on_c,70,74,1,1,1,81.0,False
3189,1823, Note_on_c,73,74,1,1,1,85.0,False
3190,1824, Note_on_c,72,74,1,1,1,84.0,True
3191,1824, Note_on_c,75,74,1,1,1,87.0,False
3192,1825, Note_on_c,65,74,1,1,1,76.0,True
3193,1826, Note_on_c,70,74,1,1,1,81.0,False
3194,1826, Note_on_c,73,74,1,1,1,85.0,False
3195,1827, Note_on_c,72,74,1,1,1,84.0,True
3196,1827, Note_on_c,75,74,1,1,1,87.0,False
3197,1828, Note_on_c,70,74,1,1,1,81.0,False
3198,1828, Note_on_c,73,74,1,1,1,85.0,False
3199,1829, Note_on_c,72,74,1,1,1,84.0,True
3200,1829, Note_on_c,77,74,1,1,1,90.0,True
3201,1830, Note_on_c,65,74,1,1,1,76.0,True
3202,1831, Note_on_c,70,74,1,1,1,81.0,False
3203,1831, Note_on_c,73,74,1,1,1,85.0,False
3204,1832, Note_on_c,72,74,1,1,1,84.0,True
3205,1832, Note_on_c,75,74,1,1,1,87.0,False
3206,1833, Note_on_c,65,74,1,1,1,76.0,True
3207,1834, Note_on_c,70,74,1,1,1,81.0,False
3208,1834, Note_on_c,73,74,1,1,1,85.0,False
3209,1835, Note_on_c,72,74,1,1,1,84.0,True
3210,1835, Note_on_c,75,74,1,1,1,87.0,False
3211,1836, Note_on_c,70,74,1,1,1,81.0,False
3212,1836, Note_on_c,73,74,1,1,1,85.0,False
3213,1837, Note_on_c,72,74,1,1,1,84.0,True
3214,1837, Note_on_c,77,74,1,1,1,90.0,True
3215,1838, Note_on_c,65,74,1,1,1,76.0,True
3216,1839, Note_on_c,70,74,1,1,1,81.0,False
3217,1839, Note_on_c,73,74,1,1,1,85.0,False
3218,1840, Note_on_c,72,74,1,1,1,84.0,True
3219,1840, Note_on_c,75,74,1,1,1,87.0,False
3220,1841, Note_on_c,65,74,1,1,1,76.0,True
3221,1842, Note_on_c,70,74,1,1,1,81.0,False
3222,1842, Note_on_c,73,74,1,1,1,85.0,False
3223,1843, Note_on_c,72,74,1,1,1,84.0,True
3224,1843, Note_on_c,75,74,1,1,1,87.0,False
3225,1844, Note_on_c,70,74,1,1,1,81.0,False
3226,1844, Note_on_c,73,74,1,1,1,85.0,False
3227,1845, Note_on_c,72,74,1,1,1,84.0,True
3228,1845, Note_on_c,77,74,1,1,1,90.0,True
3229,1846, Note_on_c,65,74,1,1,1,76.0,True
3230,1847, Note_on_c,70,74,1,1,1,81.0,False
3231,1847, Note_on_c,73,74,1,1,1,85.0,False
3232,1848, Note_on_c,72,74,1,1,1,84.0,True
3233,1848, Note_on_c,75,74,1,1,1,87.0,False
3234,1849, Note_on_c,65,74,1,1,1,76.0,True
3235,1850, Note_on_c,70,74,1,1,1,81.0,False
3236,1850, Note_on_c,73,74,1,1,1,85.0,False
3237,1851, Note_on_c,72,74,1,1,1,84.0,True
3238,1851, Note_on_c,75,74,1,1,1,87.0,False
3239,1852, Note_on_c,70,74,1,1,1,81.0,False
3240,1852, Note_on_c,73,74,1,1,1,85.0,False
3241,1853, Note_on_c,72,74,1,1,1,84.0,True
3242,1853, Note_on_c,77,74,1,1,1,90.0,True
3243,1854, Note_on_c,65,74,1,1,1,76.0,True
3244,1855, Note_on_c,70,74,1,1,1,81.0,False
3245,1855, Note_on_c,73,74,1,1,1,85.0,False
3246,1856, Note_on_c,72,74,1,1,1,84.0,True
3247,1856, Note_on_c,75,74,1,1,1,87.0,False
3248,1857, Note_on_c,65,74,1,1,1,76.0,True
3249,1858, Note_on_c,70,74,1,1,1,81.0,False
3250,1858, Note_on_c,73,74,1,1,1,85.0,False
3251,1859, Note_on_c,72,74,1,1,1,84.0,True
3252,1859, Note_on_c,75,74,1,1,1,87.0,False
3253,1860, Note_on_c,70,74,1,1,1,81.0,False
3254,1860, Note_on_c,73,74,1,1,1,85.0,False
3255,1861, Note_on_c,72,74,1,1,1,84.0,True
3256,1861, Note_on_c,77,74,1,1,1,90.0,True
3257,1862, Note_on_c,65,74,1,1,1,76.0,True
3258,1863, Note_on_c,70,74,1,1,1,81.0,False
3259,1863, Note_on_c,73,74,1,1,1,85.0,False
3260,1864, Note_on_c,72,74,1,1,1,84.0,True
3261,1864, Note_on_c,75,74,1,1,1,87.0,False
3262,1865, Note_on_c,65,74,1,1,1,76.0,True
3263,1866, Note_on_c,70,74,1,1,1,81.0,False
3264,1866, Note_on_c,73,74,1,1,1,85.0,False
3265,1867, Note_on_c,72,74,1,1,1,84.0,True
3266,1867, Note_on_c,75,74,1,1,1,87.0,False
3267,1868, Note_on_c,70,74,1,1,1,81.0,False
3268,1868, Note_on_c,73,74,1,1,1,85.0,False
3269,1869, Note_on_c,72,74,1,1,1,84.0,True
3270,1869, Note_on_c,77,74,1,1,1,90.0,True
3271,1870, Note_on_c,65,74,1,1,1,76.0,True
3272,1871, Note_on_c,70,74,1,1,1,81.0,False
3273,1871, Note_on_c,73,74,1,1,1,85.0,False
3274,1872, Note_on_c,72,74,1,1,1,84.0,True
3275,1872, Note_on_c,75,74,1,1,1,87.0,False
3276,1873, Note_on_c,65,74,1,1,1,76.0,True
3277,1874, Note_on_c,70,74,1,1,1,81.0,False
3278,1874, Note_on_c,73,74,1,1,1,85.0,False
3279,1875, Note_on_c,72,74,1,1,1,84.0,True
3280,1875, Note_on_c,75,74,1,1,1,87.0,False
3281,1876, Note_on_c,70,74,1,1,1,81.0,False
3282,1876, Note_on_c,73,74,1,1,1,85.0,False
3283,1877, Note_on_c,72,74,1,1,1,84.0,True
3284,1877, Note_on_c,77,74,1,1,1,90.0,True
3285,1878, Note_on_c,65,74,1,1,1,76.0,True
3286,1879, Note_on_c,70,74,1,1,1,81.0,False
3287,1879, Note_on_c,73,74,1,1,1,85.0,False
3288,1880, Note_on_c,72,74,1,1,1,84.0,True
3289,1880, Note_on_c,75,74,1,1,1,87.0,False
3290,1881, Note_on_c,65,74,1,1,1,76.0,True
3291,1882, Note_on_c,70,74,1,1,1,81.0,False
3292,1882, Note_on_c,73,74,1,1,1,85.0,False
3293,1883, Note_on_c,72,74,1,1,1,84.0,True
3294,1883, Note_on_c,75,74,1,1,1,87.0,False
3295,1884, Note_on_c,70,74,1,1,1,81.0,False
3296,1884, Note_on_c,73,74,1,1,1,85.0,False
3297,1885, Note_on_c,72,74,1,1,1,84.0,True
3298,1885, Note_on_c,77,74,1,1,1,90.0,True
3299,1886, Note_on_c,65,74,1,1,1,76.0,True
3300,1887, Note_on_c,70,74,1,1,1,81.0,False
3301,1887, Note_on_c,73,74,1,1,1,85.0,False
3302,1888, Note_on_c,72,74,1,1,1,84.0,True
3303,1888, Note_on_c,75,74,1,1,1,87.0,False
3304,1889, Note_on_c,65,74,1,1,1,76.0,True
3305,1890, Note_on_c,70,74,1,1,1,81.0,False
3306,1890, Note_on_c,73,74,1,1,1,85.0,False
3307,1891, Note_on_c,72,74,1,1,1,84.0,True
3308,1891, Note_on_c,75,74,1,1,1,87.0,False
3309,1892, Note_on_c,70,74,1,1,1,81.0,False
3310,1892, Note_on_c,73,74,1,1,1,85.0,False
3311,1893, Note_on_c,72,74,1,1,1,84.0,True
3312,1893, Note_on_c,77,74,1,1,1,90.0,True
3313,1894, Note_on_c,65,74,1,1,1,76.0,True
3314,1895, Note_on_c,70,74,1,1,1,81.0,False
3315,1895, Note_on_c,73,74,1,1,1,85.0,False
3316,1896, Note_on_c,72,74,1,1,1,84.0,True
3317,1896, Note_on_c,75,74,1,1,1,87.0,False
3318,1897, Note_on_c,65,74,1,1,1,76.0,True
3319,1898, Note_on_c,70,74,1,1,1,81.0,False
3320,1898, Note_on_c,73,74,1,1,1,85.0,False
3321,1899, Note_on_c,72,74,1,1,1,84.0,True
3322,1899, Note_on_c,75,74,1,1,1,87.0,False
3323,1900, Note_on_c,70,74,1,1,1,81.0,False
3324,1900, Note_on_c,73,74,1,1,1,85.0,False
3325,1901, Note_on_c,72,74,1,1,1,84.0,True
3326,1901, Note_on_c,77,74,1,1,1,90.0,True
3327,1902, Note_on_c,65,74,1,1,1,76.0,True
3328,1903, Note_on_c,70,74,1,1,1,81.0,False
3329,1903, Note_on_c,73,74,1,1,1,85.0,False
3330,1904, Note_on_c,72,74,1,1,1,84.0,True
3331,1904, Note_on_c,75,74,1,1,1,87.0,False
3332,1905, Note_on_c,65,74,1,1,1,76.0,True
3333,1906, Note_on_c,70,74,1,1,1,81.0,False
3334,1906, Note_on_c,73,74,1,1,1,85.0,False
3335,1907, Note_on_c,72,74,1,1,1,84.0,True
3336,1907, Note_on_c,75,74,1,1,1,87.0,False
3337,1908, Note_on_c,70,74,1,1,1,81.0,False
3338,1908, Note_on_c,73,74,1,1,1,85.0,False
3339,1909, Note_on_c,72,74,1,1,1,84.0,True
3340,1909, Note_on_c,77,74,1,1,1,90.0,True
3341,1910, Note_on_c,65,74,1,1,1,76.0,True
3342,1911, Note_on_c,70,74,1,1,1,81.0,False
3343,1911, Note_on_c,73,74,1,1,1,85.0,False
3344,1912, Note_on_c,72,74,1,1,1,84.0,True
3345,1912, Note_on_c,75,74,1,1,1,87.0,False
3346,1913, Note_on_c,65,74,1,1,1,76.0,True
3347,1914, Note_on_c,70,74,1,1,1,81.0,False
3348,1914, Note_on_c,73,74,1,1,1,85.0,False
3349,1915, Note_on_c,72,74,1,1,1,84.0,True
3350,1915, Note_on_c,75,74,1,1,1,87.0,False
3351,1916, Note_on_c,70,74,1,1,1,81.0,False
3352,1916, Note_on_c,73,74,1,1,1,85.0,False
3353,1917, Note_on_c,72,74,1,1,1,84.0,True
3354,1917, Note_on_c,77,74,1,1,1,90.0,True
3355,1918, Note_on_c,65,74,1,1,1,76.0,True
3356,1919, Note_on_c,70,74,1,1,1,81.0,False
3357,1919, Note_on_c,73,74,1,1,1,85.0,False
3358,1920, Note_on_c,72,74,1,1,1,84.0,True
3359,1920, Note_on_c,75,74,1,1,1,87.0,False
3360,1921, Note_on_c,65,74,1,1,1,76.0,True
3361,1922, Note_on_c,70,74,1,1,1,81.0,False
3362,1922, Note_on_c,73,74,1,1,1,85.0,False
3363,1923, Note_on_c,72,74,1,1,1,84.0,True
3364,1923, Note_on_c,75,74,1,1,1,87.0,False
3365,1924, Note_on_c,70,74,1,1,1,81.0,False
3366,1924, Note_on_c,73,74,1,1,1,85.0,False
3367,1925, Note_on_c,72,74,1,1,1,84.0,True
3368,1925, Note_on_c,77,74,1,1,1,90.0,True
3369,1926, Note_on_c,65,74,1,1,1,76.0,True
3370,1927, Note_on_c,70,74,1,1,1,81.0,False
3371,1927, Note_on_c,73,74,1,1,1,85.0,False
3372,1928, Note_on_c,72,74,1,1,1,84.0,True
3373,1928, Note_on_c,75,74,1,1,1,87.0,False
3374,1929, Note_on_c,65,74,1,1,1,76.0,True
3375,1930, Note_on_c,70,74,1,1,1,81.0,False
3376,1930, Note_on_c,73,74,1,1,1,85.0,False
3377,1931, Note_on_c,72,74,1,1,1,84.0,True
3378,1931, Note_on_c,75,74,1,1,1,87.0,False
3379,1932, Note_on_c,70,74,1,1,1,81.0,False
3380,1932, Note_on_c,73,74,1,1,1,85.0,False
3381,1933, Note_on_c,72,74,1,1,1,84.0,True
3382,1933, Note_on_c,77,74,1,1,1,90.0,True
3383,1934, Note_on_c,65,74,1,1,1,76.0,True
3384,1935, Note_on_c,70,74,1,1,1,81.0,False
3385,1935, Note_on_c,73,74,1,1,1,85.0,False
3386,1936, Note_on_c,72,74,1,1,1,84.0,True
3387,1936, Note_on_c,75,74,1,1,1,87.0,False
3388,1937, Note_on_c,65,74,1,1,1,76.0,True
3389,1938, Note_on_c,70,74,1,1,1,81.0,False
3390,1938, Note_on_c,73,74,1,1,1,85.0,False
3391,1939, Note_on_c,72,74,1,1,1,84.0,True
3392,1939, Note_on_c,75,74,1,1,1,87.0,False
3393,1940, Note_on_c,70,74,1,1,1,81.0,False
3394,1940, Note_on_c,73,74,1,1,1,85.0,False
3395,1941, Note_on_c,72,74,1,1,1,84.0,True
3396,1941, Note_on_c,77,74,1,1,1,90.0,True
3397,1942, Note_on_c,65,74,1,1,1,76.0,True
3398,1943, Note_on_c,70,74,1,1,1,81.0,False
3399,1943, Note_on_c,73,74,1,1,1,85.0,False
3400,1944, Note_on_c,72,74,1,1,1,84.0,True
3401,1944, Note_on_c,75,74,1,1,1,87.0,False
3402,1945, Note_on_c,65,74,1,1,1,76.0,True
3403,1946, Note_on_c,70,74,1,1,1,81.0,False
3404,1946, Note_on_c,73,74,1,1,1,85.0,False
3405,1947, Note_on_c,72,74,1,1,1,84.0,True
3406,1947, Note_on_c,75,74,1,1,1,87.0,False
3407,1948, Note_on_c,70,74,1,1,1,81.0,False
3408,1948, Note_on_c,73,74,1,1,1,85.0,False
3409,1949, Note_on_c,72,74,1,1,1,84.0,True
3410,1949, Note_on_c,77,74,1,1,1,90.0,True
3411,1950, Note_on_c,65,74,1,1,1,76.0,True
3412,1951, Note_on_c,70,74,1,1,1,81.0,False
3413,1951, Note_on_c,73,74,1,1,1,85.0,False
3414,1952, Note_on_c,72,74,1,1,1,84.0,True
3415,1952, Note_on_c,75,74,1,1,1,87.0,False
3416,1953, Note_on_c,65,74,1,1,1,76.0,True
3417,1954, Note_on_c,70,74,1,1,1,81.0,False
3418,1954, Note_on_c,73,74,1,1,1,85.0,False
3419,1955, Note_on_c,72,74,1,1,1,84.0,True
3420,1955, Note_on_c,75,74,1,1,1,87.0,False
3421,1956, Note_on_c,70,74,1,1,1,81.0,False
3422,1956, Note_on_c,73,74,1,1,1,85.0,False
3423,1957, Note_on_c,72,74,1,1,1,84.0,True
3424,1957, Note_on_c,77,74,1,1,1,90.0,True
3425,1958, Note_on_c,65,74,1,1,1,76.0,True
3426,1959, Note_on_c,70,74,1,1,1,81.0,False
3427,1959, Note_on_c,73,74,1,1,1,85.0,False
3428,1960, Note_on_c,72,74,1,1,1,84.0,True
3429,1960, Note_on_c,75,74,1,1,1,87.0,False
3430,1961, Note_on_c,65,74,1,1,1,76.0,True
3431,1962, Note_on_c,70,74,1,1,1,81.0,False
3432,1962, Note_on_c,73,74,1,1,1,85.0,False
3433,1963, Note_on_c,72,74,1,1,1,84.0,True
3434,1963, Note_on_c,75,74,1,1,1,87.0,False
3435,1964, Note_on_c,70,74,1,1,1,81.0,False
3436,1964, Note_on_c,73,74,1,1,1,85.0,False
3437,1965, Note_on_c,72,74,1,1,1,84.0,True
3438,1965, Note_on_c,77,74,1,1,1,90.0,True
3439,1966, Note_on_c,65,74,1,1,1,76.0,True
3440,1967, Note_on_c,70,74,1,1,1,81.0,False
3441,1967, Note_on_c,73,74,1,1,1,85.0,False
3442,1968, Note_on_c,72,74,1,1,1,84.0,True
3443,1968, Note_on_c,75,74,1,1,1,87.0,False
3444,1969, Note_on_c,65,74,1,1,1,76.0,True
3445,1970, Note_on_c,70,74,1,1,1,81.0,False
3446,1970, Note_on_c,73,74,1,1,1,85.0,False
3447,1971, Note_on_c,72,74,1,1,1,84.0,True
3448,1971, Note_on_c,75,74,1,1,1,87.0,False
3449,1972, Note_on_c,70,74,1,1,1,81.0,False
3450,1972, Note_on_c,73,74,1,1,1,85.0,False
3451,1973, Note_on_c,72,74,1,1,1,84.0,True
3452,1973, Note_on_c,77,74,1,1,1,90.0,True
3453,1974, Note_on_c,65,74,1,1,1,76.0,True
3454,1975, Note_on_c,70,74,1,1,1,81.0,False
3455,1975, Note_on_c,73,74,1,1,1,85.0,False
3456,1976, Note_on_c,72,74,1,1,1,84.0,True
3457,1976, Note_on_c,75,74,1,1,1,87.0,False
3458,1977, Note_on_c,65,74,1,1,1,76.0,True
3459,1978, Note_on_c,70,74,1,1,1,81.0,False
3460,1978, Note_on_c,73,74,1,1,1,85.0,False
3461,1979, Note_on_c,72,74,1,1,1,84.0,True
3462,1979, Note_on_c,75,74,1,1,1,87.0,False
3463,1980, Note_on_c,70,74,1,1,1,81.0,False
3464,1980, Note_on_c,73,74,1,1,1,85.0,False
3465,1981, Note_on_c,72,74,1,1,1,84.0,True
3466,1981, Note_on_c,77,74,1,1,1,90.0,True
3467,1982, Note_on_c,65,74,1,1,1,76.0,True
3468,1983, Note_on_c,70,74,1,1,1,81.0,False
3469,1983, Note_on_c,73,74,1,1,1,85.0,False
3470,1984, Note_on_c,72,74,1,1,1,84.0,True
3471,1984, Note_on_c,75,74,1,1,1,87.0,False
3472,1985, Note_on_c,65,74,1,1,1,76.0,True
3473,1986, Note_on_c,70,74,1,1,1,81.0,False
3474,1986, Note_on_c,73,74,1,1,1,85.0,False
3475,1987, Note_on_c,72,74,1,1,1,84.0,True
3476,1987, Note_on_c,75,74,1,1,1,87.0,False
3477,1988, Note_on_c,70,74,1,1,1,81.0,False
3478,1988, Note_on_c,73,74,1,1,1,85.0,False
3479,1989, Note_on_c,72,74,1,1,1,84.0,True
3480,1989, Note_on_c,77,74,1,1,1,90.0,True
3481,1990, Note_on_c,65,74,1,1,1,76.0,True
3482,1991, Note_on_c,70,74,1,1,1,81.0,False
3483,1991, Note_on_c,73,74,1,1,1,85.0,False
3484,1992, Note_on_c,72,74,1,1,1,84.0,True
3485,1992, Note_on_c,75,74,1,1,1,87.0,False
3486,1993, Note_on_c,65,74,1,1,1,76.0,True
3487,1994, Note_on_c,70,74,1,1,1,81.0,False
3488,1994, Note_on_c,73,74,1,1,1,85.0,False
3489,1995, Note_on_c,72,74,1,1,1,84.0,True
3490,1995, Note_on_c,75,74,1,1,1,87.0,False
3491,1996, Note_on_c,70,74,1,1,1,81.0,False
3492,1996, Note_on_c,73,74,1,1,1,85.0,False
3493,1997, Note_on_c,72,74,1,1,1,84.0,True
3494,1997, Note_on_c,77,74,1,1,1,90.0,True
3495,1998, Note_on_c,65,74,1,1,1,76.0,True
3496,1999, Note_on_c,70,74,1,1,1,81.0,False
3497,1999, Note_on_c,73,74,1,1,1,85.0,False
3498,2000, Note_on_c,72,74,1,1,1,84.0,True
3499,2000, Note_on_c,75,74,1,1,1,87.0,False
3500,2001, Note_on_c,65,74,1,1,1,76.0,True
3501,2002, Note_on_c,70,74,1,1,1,81.0,False
3502,2002, Note_on_c,73,74,1,1,1,85.0,False
3503,2003, Note_on_c,72,74,1,1,1,84.0,True
3504,2003, Note_on_c,75,74,1,1,1,87.0,False
3505,2004, Note_on_c,70,74,1,1,1,81.0,False
3506,2004, Note_on_c,73,74,1,1,1,85.0,False
3507,2005, Note_on_c,72,74,1,1,1,84.0,True
3508,2005, Note_on_c,77,74,1,1,1,90.0,True
3509,2006, Note_on_c,65,74,1,1,1,76.0,True
3510,2007, Note_on_c,70,74,1,1,1,81.0,False
3511,2007, Note_on_c,73,74,1,1,1,85.0,False
3512,2008, Note_on_c,72,74,1,1,1,84.0,True
3513,2008, Note_on_c,75,74,1,1,1,87.0,False
3514,2009, Note_on_c,65,74,1,1,1,76.0,True
3515,2010, Note_on_c,70,74,1,1,1,81.0,False
3516,2010, Note_on_c,73,74,1,1,1,85.0,False
3517,2011, Note_on_c,72,74,1,1,1,84.0,True
3518,2011, Note_on_c,75,74,1,1,1,87.0,False
3519,2012, Note_on_c,70,74,1,1,1,81.0,False
3520,2012, Note_on_c,73,74,1,1,1,85.0,False
3521,2013, Note_on_c,72,74,1,1,1,84.0,True
3522,2013, Note_on_c,77,74,1,1,1,90.0,True
3523,2014, Note_on_c,65,74,1,1,1,76.0,True
3524,2015, Note_on_c,70,74,1,1,1,81.0,False
3525,2015, Note_on_c,73,74,1,1,1,85.0,False
3526,2016, Note_on_c,72,74,1,1,1,84.0,True
3527,2016, Note_on_c,75,74,1,1,1,87.0,False
3528,2017, Note_on_c,65,74,1,1,1,76.0,True
3529,2018, Note_on_c,70,74,1,1,1,81.0,False
3530,2018, Note_on_c,73,74,1,1,1,85.0,False
3531,2019, Note_on_c,72,74,1,1,1,84.0,True
3532,2019, Note_on_c,75,74,1,1,1,87.0,False
3533,2020, Note_on_c,70,74,1,1,1,81.0,False
3534,2020, Note_on_c,73,74,1,1,1,85.0,False
3535,2021, Note_on_c,72,74,1,1,1,84.0,True
3536,2021, Note_on_c,77,74,1,1,1,90.0,True
3537,2022, Note_on_c,65,74,1,1,1,76.0,True
3538,2023, Note_on_c,70,74,1,1,1,81.0,False
3539,2023, Note_on_c,73,74,1,1,1,85.0,False
3540,2024, Note_on_c,72,74,1,1,1,84.0,True
3541,2024, Note_on_c,75,74,1,1,1,87.0,False
3542,2025, Note_on_c,65,74,1,1,1,76.0,True
3543,2026, Note_on_c,70,74,1,1,1,81.0,False
3544,2026, Note_on_c,73,74,1,1,1,85.0,False
3545,2027, Note_on_c,72,74,1,1,1,84.0,True
3546,2027, Note_on_c,75,74,1,1,1,87.0,False
3547,2028, Note_on_c,70,74,1,1,1,81.0,False
3548,2028, Note_on_c,73,74,1,1,1,85.0,False
3549,2029, Note_on_c,72,74,1,1,1,84.0,True
3550,2029, Note_on_c,77,74,1,1,1,90.0,True
3551,2030, Note_on_c,65,74,1,1,1,76.0,True
3552,2031, Note_on_c,70,74,1,1,1,81.0,False
3553,2031, Note_on_c,73,74,1,1,1,85.0,False
3554,2032, Note_on_c,72,74,1,1,1,84.0,True
3555,2032, Note_on_c,75,74,1,1,1,87.0,False
3556,2033, Note_on_c,65,74,1,1,1,76.0,True
3557,2034, Note_on_c,70,74,1,1,1,81.0,False
3558,2034, Note_on_c,73,74,1,1,1,85.0,False
3559,2035, Note_on_c,72,74,1,1,1,84.0,True
3560,2035, Note_on_c,75,74,1,1,1,87.0,False
3561,2036, Note_on_c,70,74,1,1,1,81.0,False
3562,2036, Note_on_c,73,74,1,1,1,85.0,False
3563,2037, Note_on_c,72,74,1,1,1,84.0,True
3564,2037, Note_on_c,77,74,1,1,1,90.0,True
3565,2038, Note_on_c,65,74,1,1,1,76.0,True
3566,2039, Note_on_c,70,74,1,1,1,81.0,False
3567,2039, Note_on_c,73,74,1,1,1,85.0,False
3568,2040, Note_on_c,72,74,1,1,1,84.0,True
3569,2040, Note_on_c,75,74,1,1,1,87.0,False
3570,2041, Note_on_c,65,74,1,1,1,76.0,True
3571,2042, Note_on_c,70,74,1,1,1,81.0,False
3572,2042, Note_on_c,73,74,1,1,1,85.0,False
3573,2043, Note_on_c,72,74,1,1,1,84.0,True
3574,2043, Note_on_c,75,74,1,1,1,87.0,False
3575,2044, Note_on_c,70,74,1,1,1,81.0,False
3576,2044, Note_on_c,73,74,1,1,1,85.0,False
3577,2045, Note_on_c,72,74,1,1,1,84.0,True
3578,2045, Note_on_c,77,74,1,1,1,90.0,True
3579,2046, Note_on_c,65,74,1,1,1,76.0,True
3580,2047, Note_on_c,70,74,1,1,1,81.0,False
3581,2047, Note_on_c,73,74,1,1,1,85.0,False
3582,2048, Note_on_c,72,74,1,1,1,84.0,True
3583,2048, Note_on_c,75,74,1,1,1,87.0,False
3584,2049, Note_on_c,65,74,1,1,1,76.0,True
3585,2050, Note_on_c,70,74,1,1,1,81.0,False
3586,2050, Note_on_c,73,74,1,1,1,85.0,False
3587,2051, Note_on_c,72,74,1,1,1,84.0,True
3588,2051, Note_on_c,75,74,1,1,1,87.0,False
3589,2052, Note_on_c,70,74,1,1,1,81.0,False
3590,2052, Note_on_c,73,74,1,1,1,85.0,False
3591,2053, Note_on_c,72,74,1,1,1,84.0,True
3592,2053, Note_on_c,77,74,1,1,1,90.0,True
3593,2054, Note_on_c,65,74,1,1,1,76.0,True
3594,2055, Note_on_c,70,74,1,1,1,81.0,False
3595,2055, Note_on_c,73,74,1,1,1,85.0,False
3596,2056, Note_on_c,72,74,1,1,1,84.0,True
3597,2056, Note_on_c,75,74,1,1,1,87.0,False
3598,2057, Note_on_c,65,74,1,1,1,76.0,True
3599,2058, Note_on_c,70,74,1,1,1,81.0,False
3600,2058, Note_on_c,73,74,1,1,1,85.0,False
3601,2059, Note_on_c,72,74,1,1,1,84.0,True
3602,2059, Note_on_c,75,74,1,1,1,87.0,False
3603,2060, Note_on_c,70,74,1,1,1,81.0,False
3604,2060, Note_on_c,73,74,1,1,1,85.0,False
3605,2061, Note_on_c,72,74,1,1,1,84.0,True
3606,2061, Note_on_c,77,74,1,1,1,90.0,True
3607,2062, Note_on_c,65,74,1,1,1,76.0,True
3608,2063, Note_on_c,70,74,1,1,1,81.0,False
3609,2063, Note_on_c,73,74,1,1,1,85.0,False
3610,2064, Note_on_c,72,74,1,1,1,84.0,True
3611,2064, Note_on_c,75,74,1,1,1,87.0,False
3612,2065, Note_on_c,65,74,1,1,1,76.0,True
3613,2066, Note_on_c,70,74,1,1,1,81.0,False
3614,2066, Note_on_c,73,74,1,1,1,85.0,False
3615,2067, Note_on_c,72,74,1,1,1,84.0,True
3616,2067, Note_on_c,75,74,1,1,1,87.0,False
3617,2068, Note_on_c,70,74,1,1,1,81.0,False
3618,2068, Note_on_c,73,74,1,1,1,85.0,False
3619,2069, Note_on_c,72,74,1,1,1,84.0,True
3620,2069, Note_on_c,77,74,1,1,1,90.0,True
3621,2070, Note_on_c,65,74,1,1,1,76.0,True
3622,2071, Note_on_c,70,74,1,1,1,81.0,False
3623,2071, Note_on_c,73,74,1,1,1,85.0,False
3624,2072, Note_on_c,72,74,1,1,1,84.0,True
3625,2072, Note_on_c,75,74,1,1,1,87.0,False
3626,2073, Note_on_c,65,74,1,1,1,76.0,True
3627,2074, Note_on_c,70,74,1,1,1,81.0,False
3628,2074, Note_on_c,73,74,1,1,1,85.0,False
3629,2075, Note_on_c,72,74,1,1,1,84.0,True
3630,2075, Note_on_c,75,74,1,1,1,87.0,False
3631,2076, Note_on_c,70,74,1,1,1,81.0,False
3632,2076, Note_on_c,73,74,1,1,1,85.0,False
3633,2077, Note_on_c,72,74,1,1,1,84.0,True
3634,2077, Note_on_c,77,74,1,1,1,90.0,True
3635,2078, Note_on_c,65,74,1,1,1,76.0,True
3636,2079, Note_on_c,70,74,1,1,1,81.0,False
3637,2079, Note_on_c,73,74,1,1,1,85.0,False
3638,2080, Note_on_c,72,74,1,1,1,84.0,True
3639,2080, Note_on_c,75,74,1,1,1,87.0,False
3640,2081, Note_on_c,65,74,1,1,1,76.0,True
3641,2082, Note_on_c,70,74,1,1,1,81.0,False
3642,2082, Note_on_c,73,74,1,1,1,85.0,False
3643,2083, Note_on_c,72,74,1,1,1,84.0,True
3644,2083, Note_on_c,75,74,1,1,1,87.0,False
3645,2084, Note_on_c,70,74,1,1,1,81.0,False
3646,2084, Note_on_c,73,74,1,1,1,85.0,False
3647,2085, Note_on_c,72,74,1,1,1,84.0,True
3648,2085, Note_on_c,77,74,1,1,1,90.0,True
3649,2086, Note_on_c,65,74,1,1,1,76.0,True
3650,2087, Note_on_c,70,74,1,1,1,81.0,False
3651,2087, Note_on_c,73,74,1,1,1,85.0,False
3652,2088, Note_on_c,72,74,1,1,1,84.0,True
3653,2088, Note_on_c,75,74,1,1,1,87.0,False
3654,2089, Note_on_c,65,74,1,1,1,76.0,True
3655,2090, Note_on_c,70,74,1,1,1,81.0,False
3656,2090, Note_on_c,73,74,1,1,1,85.0,False
3657,2091, Note_on_c,72,74,1,1,1,84.0,True
3658,2091, Note_on_c,75,74,1,1,1,87.0,False
3659,2092, Note_on_c,70,74,1,1,1,81.0,False
3660,2092, Note_on_c,73,74,1,1,1,85.0,False
3661,2093, Note_on_c,72,74,1,1,1,84.0,True
3662,2093, Note_on_c,77,74,1,1,1,90.0,True
3663,2094, Note_on_c,65,74,1,1,1,76.0,True
3664,2095, Note_on_c,70,74,1,1,1,81.0,False
3665,2095, Note_on_c,73,74,1,1,1,85.0,False
3666,2096, Note_on_c,72,74,1,1,1,84.0,True
3667,2096, Note_on_c,75,74,1,1,1,87.0,False
3668,2097, Note_on_c,65,74,1,1,1,76.0,True
3669,2098, Note_on_c,70,74,1,1,1,81.0,False
3670,2098, Note_on_c,73,74,1,1,1,85.0,False
3671,2099, Note_on_c,72,74,1,1,1,84.0,True
3672,2099, Note_on_c,75,74,1,1,1,87.0,False
3673,2100, Note_on_c,70,74,1,1,1,81.0,False
3674,2100, Note_on_c,73,74,1,1,1,85.0,False
3675,2101, Note_on_c,72,74,1,1,1,84.0,True
3676,2101, Note_on_c,77,74,1,1,1,90.0,True
3677,2102, Note_on_c,65,74,1,1,1,76.0,True
3678,2103, Note_on_c,70,74,1,1,1,81.0,False
3679,2103, Note_on_c,73,74,1,1,1,85.0,False
3680,2104, Note_on_c,72,74,1,1,1,84.0,True
3681,2104, Note_on_c,75,74,1,1,1,87.0,False
3682,2105, Note_on_c,65,74,1,1,1,76.0,True
3683,2106, Note_on_c,70,74,1,1,1,81.0,False
3684,2106, Note_on_c,73,74,1,1,1,85.0,False
3685,2107, Note_on_c,72,74,1,1,1,84.0,True
3686,2107, Note_on_c,75,74,1,1,1,87.0,False
3687,2108, Note_on_c,70,74,1,1,1,81.0,False
3688,2108, Note_on_c,73,74,1,1,1,85.0,False
3689,2109, Note_on_c,72,74,1,1,1,84.0,True
3690,2109, Note_on_c,77,74,1,1,1,90.0,True
3691,2110, Note_on_c,65,74,1,1,1,76.0,True
3692,2111, Note_on_c,70,74,1,1,1,81.0,False
3693,2111, Note_on_c,73,74,1,1,1,85.0,False
3694,2112, Note_on_c,72,74,1,1,1,84.0,True
3695,2112, Note_on_c,75,74,1,1,1,87.0,False
3696,2113, Note_on_c,65,74,1,1,1,76.0,True
3697,2114, Note_on_c,70,74,1,1,1,81.0,False
3698,2114, Note_on_c,73,74,1,1,1,85.0,False
3699,2115, Note_on_c,72,74,1,1,1,84.0,True
3700,2115, Note_on_c,75,74,1,1,1,87.0,False
3701,2116, Note_on_c,70,74,1,1,1,81.0,False
3702,2116, Note_on_c,73,74,1,1,1,85.0,False
3703,2117, Note_on_c,72,74,1,1,1,84.0,True
3704,2117, Note_on_c,77,74,1,1,1,90.0,True
3705,2118, Note_on_c,65,74,1,1,1,76.0,True
3706,2119, Note_on_c,70,74,1,1,1,81.0,False
3707,2119, Note_on_c,73,74,1,1,1,85.0,False
3708,2120, Note_on_c,72,74,1,1,1,84.0,True
3709,2120, Note_on_c,75,74,1,1,1,87.0,False
3710,2121, Note_on_c,65,74,1,1,1,76.0,True
3711,2122, Note_on_c,70,74,1,1,1,81.0,False
3712,2122, Note_on_c,73,74,1,1,1,85.0,False
3713,2123, Note_on_c,72,74,1,1,1,84.0,True
3714,2123, Note_on_c,75,74,1,1,1,87.0,False
3715,2124, Note_on_c,70,74,1,1,1,81.0,False
3716,2124, Note_on_c,73,74,1,1,1,85.0,False
3717,2125, Note_on_c,72,74,1,1,1,84.0,True
3718,2125, Note_on_c,77,74,1,1,1,90.0,True
3719,2126, Note_on_c,65,74,1,1,1,76.0,True
3720,2127, Note_on_c,70,74,1,1,1,81.0,False
3721,2127, Note_on_c,73,74,1,1,1,85.0,False
3722,2128, Note_on_c,72,74,1,1,1,84.0,True
3723,2128, Note_on_c,75,74,1,1,1,87.0,False
3724,2129, Note_on_c,65,74,1,1,1,76.0,True
3725,2130, Note_on_c,70,74,1,1,1,81.0,False
3726,2130, Note_on_c,73,74,1,1,1,85.0,False
3727,2131, Note_on_c,72,74,1,1,1,84.0,True
3728,2131, Note_on_c,75,74,1,1,1,87.0,False
3729,2132, Note_on_c,70,74,1,1,1,81.0,False
3730,2132, Note_on_c,73,74,1,1,1,85.0,False
3731,2133, Note_on_c,72,74,1,1,1,84.0,True
3732,2133, Note_on_c,77,74,1,1,1,90.0,True
3733,2134, Note_on_c,65,74,1,1,1,76.0,True
3734,2135, Note_on_c,70,74,1,1,1,81.0,False
3735,2135, Note_on_c,73,74,1,1,1,85.0,False
3736,2136, Note_on_c,72,74,1,1,1,84.0,True
3737,2136, Note_on_c,75,74,1,1,1,87.0,False
3738,2137, Note_on_c,65,74,1,1,1,76.0,True
3739,2138, Note_on_c,70,74,1,1,1,81.0,False
3740,2138, Note_on_c,73,74,1,1,1,85.0,False
3741,2139, Note_on_c,72,74,1,1,1,84.0,True
3742,2139, Note_on_c,75,74,1,1,1,87.0,False
3743,2140, Note_on_c,70,74,1,1,1,81.0,False
3744,2140, Note_on_c,73,74,1,1,1,85.0,False
3745,2141, Note_on_c,72,74,1,1,1,84.0,True
3746,2141, Note_on_c,77,74,1,1,1,90.0,True
3747,2142, Note_on_c,65,74,1,1,1,76.0,True
3748,2143, Note_on_c,70,74,1,1,1,81.0,False
3749,2143, Note_on_c,73,74,1,1,1,85.0,False
3750,2144, Note_on_c,72,74,1,1,1,84.0,True
3751,2144, Note_on_c,75,74,1,1,1,87.0,False
3752,2145, Note_on_c,65,74,1,1,1,76.0,True
3753,2146, Note_on_c,70,74,1,1,1,81.0,False
3754,2146, Note_on_c,73,74,1,1,1,85.0,False
3755,2147, Note_on_c,72,74,1,1,1,84.0,True
3756,2147, Note_on_c,75,74,1,1,1,87.0,False
3757,2148, Note_on_c,70,74,1,1,1,81.0,False
3758,2148, Note_on_c,73,74,1,1,1,85.0,False
3759,2149, Note_on_c,72,74,1,1,1,84.0,True
3760,2149, Note_on_c,77,74,1,1,1,90.0,True
3761,2150, Note_on_c,65,74,1,1,1,76.0,True
3762,2151, Note_on_c,70,74,1,1,1,81.0,False
3763,2151, Note_on_c,73,74,1,1,1,85.0,False
3764,2152, Note_on_c,72,74,1,1,1,84.0,True
3765,2152, Note_on_c,75,74,1,1,1,87.0,False
3766,2153, Note_on_c,65,74,1,1,1,76.0,True
3767,2154, Note_on_c,70,74,1,1,1,81.0,False
3768,2154, Note_on_c,73,74,1,1,1,85.0,False
3769,2155, Note_on_c,72,74,1,1,1,84.0,True
3770,2155, Note_on_c,75,74,1,1,1,87.0,False
3771,2156, Note_on_c,70,74,1,1,1,81.0,False
3772,2156, Note_on_c,73,74,1,1,1,85.0,False
3773,2157, Note_on_c,72,74,1,1,1,84.0,True
3774,2157, Note_on_c,77,74,1,1,1,90.0,True
3775,2158, Note_on_c,65,74,1,1,1,76.0,True
3776,2159, Note_on_c,70,74,1,1,1,81.0,False
3777,2159, Note_on_c,73,74,1,1,1,85.0,False
3778,2160, Note_on_c,72,74,1,1,1,84.0,True
3779,2160, Note_on_c,75,74,1,1,1,87.0,False
3780,2161, Note_on_c,65,74,1,1,1,76.0,True
3781,2162, Note_on_c,70,74,1,1,1,81.0,False
3782,2162, Note_on_c,73,74,1,1,1,85.0,False
3783,2163, Note_on_c,72,74,1,1,1,84.0,True
3784,2163, Note_on_c,75,74,1,1,1,87.0,False
3785,2164, Note_on_c,70,74,1,1,1,81.0,False
3786,2164, Note_on_c,73,74,1,1,1,85.0,False
3787,2165, Note_on_c,72,74,1,1,1,84.0,True
3788,2165, Note_on_c,77,74,1,1,1,90.0,True
3789,2166, Note_on_c,65,74,1,1,1,76.0,True
3790,2167, Note_on_c,70,74,1,1,1,81.0,False
3791,2167, Note_on_c,73,74,1,1,1,85.0,False
3792,2168, Note_on_c,72,74,1,1,1,84.0,True
3793,2168, Note_on_c,75,74,1,1,1,87.0,False
3794,2169, Note_on_c,65,74,1,1,1,76.0,True
3795,2170, Note_on_c,70,74,1,1,1,81.0,False
3796,2170, Note_on_c,73,74,1,1,1,85.0,False
3797,2171, Note_on_c,72,74,1,1,1,84.0,True
3798,2171, Note_on_c,75,74,1,1,1,87.0,False
3799,2172, Note_on_c,70,74,1,1,1,81.0,False
3800,2172, Note_on_c,73,74,1,1,1,85.0,False
3801,2173, Note_on_c,72,74,1,1,1,84.0,True
3802,2173, Note_on_c,77,74,1,1,1,90.0,True
3803,2174, Note_on_c,65,74,1,1,1,76.0,True
3804,2175, Note_on_c,70,74,1,1,1,81.0,False
3805,2175, Note_on_c,73,74,1,1,1,85.0,False
3806,2176, Note_on_c,72,74,1,1,1,84.0,True
3807,2176, Note_on_c,75,74,1,1,1,87.0,False
3808,2177, Note_on_c,65,74,1,1,1,76.0,True
3809,2178, Note_on_c,70,74,1,1,1,81.0,False
3810,2178, Note_on_c,73,74,1,1,1,85.0,False
3811,2179, Note_on_c,72,74,1,1,1,84.0,True
3812,2179, Note_on_c,75,74,1,1,1,87.0,False
3813,2180, Note_on_c,70,74,1,1,1,81.0,False
3814,2180, Note_on_c,73,74,1,1,1,85.0,False
3815,2181, Note_on_c,72,74,1,1,1,84.0,True
3816,2181, Note_on_c,77,74,1,1,1,90.0,True
3817,2182, Note_on_c,65,74,1,1,1,76.0,True
3818,2183, Note_on_c,70,74,1,1,1,81.0,False
3819,2183, Note_on_c,73,74,1,1,1,85.0,False
3820,2184, Note_on_c,72,74,1,1,1,84.0,True
3821,2184, Note_on_c,75,74,1,1,1,87.0,False
3822,2185, Note_on_c,65,74,1,1,1,76.0,True
3823,2186, Note_on_c,70,74,1,1,1,81.0,False
3824,2186, Note_on_c,73,74,1,1,1,85.0,False
3825,2187, Note_on_c,72,74,1,1,1,84.0,True
3826,2187, Note_on_c,75,74,1,1,1,87.0,False
3827,2188, Note_on_c,70,74,1,1,1,81.0,False
3828,2188, Note_on_c,73,74,1,1,1,85.0,False
3829,2189, Note_on_c,72,74,1,1,1,84.0,True
3830,2189, Note_on_c,77,74,1,1,1,90.0,True
3831,2190, Note_on_c,65,74,1,1,1,76.0,True
3832,2191, Note_on_c,70,74,1,1,1,81.0,False
3833,2191, Note_on_c,73,74,1,1,1,85.0,False
3834,2192, Note_on_c,72,74,1,1,1,84.0,True
3835,2192, Note_on_c,75,74,1,1,1,87.0,False
3836,2193, Note_on_c,65,74,1,1,1,76.0,True
3837,2194, Note_on_c,70,74,1,1,1,81.0,False
3838,2194, Note_on_c,73,74,1,1,1,85.0,False
3839,2195, Note_on_c,72,74,1,1,1,84.0,True
3840,2195, Note_on_c,75,74,1,1,1,87.0,False
3841,2196, Note_on_c,70,74,1,1,1,81.0,False
3842,2196, Note_on_c,73,74,1,1,1,85.0,False
3843,2197, Note_on_c,72,74,1,1,1,84.0,True
3844,2197, Note_on_c,77,74,1,1,1,90.0,True
3845,2198, Note_on_c,65,74,1,1,1,76.0,True
3846,2199, Note_on_c,70,74,1,1,1,81.0,False
3847,2199, Note_on_c,73,74,1,1,1,85.0,False
3848,2200, Note_on_c,72,74,1,1,1,84.0,True
3849,2200, Note_on_c,75,74,1,1,1,87.0,False
3850,2201, Note_on_c,65,74,1,1,1,76.0,True
3851,2202, Note_on_c,70,74,1,1,1,81.0,False
3852,2202, Note_on_c,73,74,1,1,1,85.0,False
3853,2203, Note_on_c,72,74,1,1,1,84.0,True
3854,2203, Note_on_c,75,74,1,1,1,87.0,False
3855,2204, Note_on_c,70,74,1,1,1,81.0,False
3856,2204, Note_on_c,73,74,1,1,1,85.0,False
3857,2205, Note_on_c,72,74,1,1,1,84.0,True
3858,2205, Note_on_c,77,74,1,1,1,90.0,True
3859,2206, Note_on_c,65,74,1,1,1,76.0,True
3860,2207, Note_on_c,70,74,1,1,1,81.0,False
3861,2207, Note_on_c,73,74,1,1,1,85.0,False
3862,2208, Note_on_c,72,74,1,1,1,84.0,True
3863,2208, Note_on_c,75,74,1,1,1,87.0,False
3864,2209, Note_on_c,65,74,1,1,1,76.0,True
3865,2210, Note_on_c,70,74,1,1,1,81.0,False
3866,2210, Note_on_c,73,74,1,1,1,85.0,False
3867,2211, Note_on_c,72,74,1,1,1,84.0,True
3868,2211, Note_on_c,75,74,1,1,1,87.0,False
3869,2212, Note_on_c,70,74,1,1,1,81.0,False
3870,2212, Note_on_c,73,74,1,1,1,85.0,False
3871,2213, Note_on_c,72,74,1,1,1,84.0,True
3872,2213, Note_on_c,77,74,1,1,1,90.0,True
3873,2214, Note_on_c,65,74,1,1,1,76.0,True
3874,2215, Note_on_c,70,74,1,1,1,81.0,False
3875,2215, Note_on_c,73,74,1,1,1,85.0,False
3876,2216, Note_on_c,72,74,1,1,1,84.0,True
3877,2216, Note_on_c,75,74,1,1,1,87.0,False
3878,2217, Note_on_c,65,74,1,1,1,76.0,True
3879,2218, Note_on_c,70,74,1,1,1,81.0,False
3880,2218, Note_on_c,73,74,1,1,1,85.0,False
3881,2219, Note_on_c,72,74,1,1,1,84.0,True
3882,2219, Note_on_c,75,74,1,1,1,87.0,False
3883,2220, Note_on_c,70,74,1,1,1,81.0,False
3884,2220, Note_on_c,73,74,1,1,1,85.0,False
3885,2221, Note_on_c,72,74,1,1,1,84.0,True
3886,2221, Note_on_c,77,74,1,1,1,90.0,True
3887,2222, Note_on_c,65,74,1,1,1,76.0,True
3888,2223, Note_on_c,70,74,1,1,1,81.0,False
3889,2223, Note_on_c,73,74,1,1,1,85.0,False
3890,2224, Note_on_c,72,74,1,1,1,84.0,True
3891,2224, Note_on_c,75,74,1,1,1,87.0,False
3892,2225, Note_on_c,65,74,1,1,1,76.0,True
3893,2226, Note_on_c,70,74,1,1,1,81.0,False
3894,2226, Note_on_c,73,74,1,1,1,85.0,False
3895,2227, Note_on_c,72,74,1,1,1,84.0,True
3896,2227, Note_on_c,75,74,1,1,1,87.0,False
3897,2228, Note_on_c,70,74,1,1,1,81.0,False
3898,2228, Note_on_c,73,74,1,1,1,85.0,False
3899,2229, Note_on_c,72,74,1,1,1,84.0,True
3900,2229, Note_on_c,77,74,1,1,1,90.0,True
3901,2230, Note_on_c,65,74,1,1,1,76.0,True
3902,2231, Note_on_c,70,74,1,1,1,81.0,False
3903,2231, Note_on_c,73,74,1,1,1,85.0,False
3904,2232, Note_on_c,72,74,1,1,1,84.0,True
3905,2232, Note_on_c,75,74,1,1,1,87.0,False
3906,2233, Note_on_c,65,74,1,1,1,76.0,True
3907,2234, Note_on_c,70,74,1,1,1,81.0,False
3908,2234, Note_on_c,73,74,1,1,1,85.0,False
3909,2235, Note_on_c,72,74,1,1,1,84.0,True
3910,2235, Note_on_c,75,74,1,1,1,87.0,False
3911,2236, Note_on_c,70,74,1,1,1,81.0,False
3912,2236, Note_on_c,73,74,1,1,1,85.0,False
3913,2237, Note_on_c,72,74,1,1,1,84.0,True
3914,2237, Note_on_c,77,74,1,1,1,90.0,True
3915,2238, Note_on_c,65,74,1,1,1,76.0,True
3916,2239, Note_on_c,70,74,1,1,1,81.0,False
3917,2239, Note_on_c,73,74,1,1,1,85.0,False
3918,2240, Note_on_c,72,74,1,1,1,84.0,True
3919,2240, Note_on_c,75,74,1,1,1,87.0,False
3920,2241, Note_on_c,65,74,1,1,1,76.0,True
3921,2242, Note_on_c,70,74,1,1,1,81.0,False
3922,2242, Note_on_c,73,74,1,1,1,85.0,False
3923,2243, Note_on_c,72,74,1,1,1,84.0,True
3924,2243, Note_on_c,75,74,1,1,1,87.0,False
3925,2244, Note_on_c,70,74,1,1,1,81.0,False
3926,2244, Note_on_c,73,74,1,1,1,85.0,False
3927,2245, Note_on_c,72,74,1,1,1,84.0,True
3928,2245, Note_on_c,77,74,1,1,1,90.0,True
3929,2246, Note_on_c,65,74,1,1,1,76.0,True
3930,2247, Note_on_c,70,74,1,1,1,81.0,False
3931,2247, Note_on_c,73,74,1,1,1,85.0,False
3932,2248, Note_on_c,72,74,1,1,1,84.0,True
3933,2248, Note_on_c,75,74,1,1,1,87.0,False
3934,2249, Note_on_c,65,74,1,1,1,76.0,True
3935,2250, Note_on_c,70,74,1,1,1,81.0,False
3936,2250, Note_on_c,73,74,1,1,1,85.0,False
3937,2251, Note_on_c,72,74,1,1,1,84.0,True
3938,2251, Note_on_c,75,74,1,1,1,87.0,False
3939,2252, Note_on_c,70,74,1,1,1,81.0,False
3940,2252, Note_on_c,73,74,1,1,1,85.0,False
3941,2253, Note_on_c,72,74,1,1,1,84.0,True
3942,2253, Note_on_c,77,74,1,1,1,90.0,True
3943,2254, Note_on_c,65,74,1,1,1,76.0,True
3944,2255, Note_on_c,70,74,1,1,1,81.0,False
3945,2255, Note_on_c,73,74,1,1,1,85.0,False
3946,2256, Note_on_c,72,74,1,1,1,84.0,True
3947,2256, Note_on_c,75,74,1,1,1,87.0,False
3948,2257, Note_on_c,65,74,1,1,1,76.0,True
3949,2258, Note_on_c,70,74,1,1,1,81.0,False
3950,2258, Note_on_c,73,74,1,1,1,85.0,False
3951,2259, Note_on_c,72,74,1,1,1,84.0,True
3952,2259, Note_on_c,75,74,1,1,1,87.0,False
3953,2260, Note_on_c,70,74,1,1,1,81.0,False
3954,2260, Note_on_c,73,74,1,1,1,85.0,False
3955,2261, Note_on_c,72,74,1,1,1,84.0,True
3956,2261, Note_on_c,77,74,1,1,1,90.0,True
3957,2262, Note_on_c,65,74,1,1,1,76.0,True
3958,2263, Note_on_c,70,74,1,1,1,81.0,False
3959,2263, Note_on_c,73,74,1,1,1,85.0,False
3960,2264, Note_on_c,72,74,1,1,1,84.0,True
3961,2264, Note_on_c,75,74,1,1,1,87.0,False
3962,2265, Note_on_c,65,74,1,1,1,76.0,True
3963,2266, Note_on_c,70,74,1,1,1,81.0,False
3964,2266, Note_on_c,73,74,1,1,1,85.0,False
3965,2267, Note_on_c,72,74,1,1,1,84.0,True
3966,2267, Note_on_c,75,74,1,1,1,87.0,False
3967,2268, Note_on_c,70,74,1,1,1,81.0,False
3968,2268, Note_on_c,73,74,1,1,1,85.0,False
3969,2269, Note_on_c,72,74,1,1,1,84.0,True
3970,2269, Note_on_c,77,74,1,1,1,90.0,True
3971,2270, Note_on_c,65,74,1,1,1,76.0,True
3972,2271, Note_on_c,70,74,1,1,1,81.0,False
3973,2271, Note_on_c,73,74,1,1,1,85.0,False
3974,2272, Note_on_c,72,74,1,1,1,84.0,True
3975,2272, Note_on_c,75,74,1,1,1,87.0,False
3976,2273, Note_on_c,65,74,1,1,1,76.0,True
3977,2274, Note_on_c,70,74,1,1,1,81.0,False
3978,2274, Note_on_c,73,74,1,1,1,85.0,False
3979,2275, Note_on_c,72,74,1,1,1,84.0,True
3980,2275, Note_on_c,75,74,1,1,1,87.0,False
3981,2276, Note_on_c,70,74,1,1,1,81.0,False
3982,2276, Note_on_c,73,74,1,1,1,85.0,False
3983,2277, Note_on_c,72,74,1,1,1,84.0,True
3984,2277, Note_on_c,77,74,1,1,1,90.0,True
3985,2278, Note_on_c,65,74,1,1,1,76.0,True
3986,2279, Note_on_c,70,74,1,1,1,81.0,False
3987,2279, Note_on_c,73,74,1,1,1,85.0,False
3988,2280, Note_on_c,72,74,1,1,1,84.0,True
3989,2280, Note_on_c,75,74,1,1,1,87.0,False
3990,2281, Note_on_c,65,74,1,1,1,76.0,True
3991,2282, Note_on_c,70,74,1,1,1,81.0,False
3992,2282, Note_on_c,73,74,1,1,1,85.0,False
3993,2283, Note_on_c,72,74,1,1,1,84.0,True
3994,2283, Note_on_c,75,74,1,1,1,87.0,False
3995,2284, Note_on_c,70,74,1,1,1,81.0,False
3996,2284, Note_on_c,73,74,1,1,1,85.0,False
3997,2285, Note_on_c,72,74,1,1,1,84.0,True
3998,2285, Note_on_c,77,74,1,1,1,90.0,True
3999,2286, Note_on_c,65,74,1,1,1,76.0,True
4000,2287, Note_on_c,70,74,1,1,1,81.0,False
4001,2287, Note_on_c,73,74,1,1,1,85.0,False
4002,2288, Note_on_c,72,74,1,1,1,84.0,True
4003,2288, Note_on_c,75,74,1,1,1,87.0,False
4004,2289, Note_on_c,65,74,1,1,1,76.0,True
4005,2290, Note_on_c,70,74,1,1,1,81.0,False
4006,2290, Note_on_c,73,74,1,1,1,85.0,False
4007,2291, Note_on_c,72,74,1,1,1,84.0,True
4008,2291, Note_on_c,75,74,1,1,1,87.0,False
4009,2292, Note_on_c,70,74,1,1,1,81.0,False
4010,2292, Note_on_c,73,74,1,1,1,85.0,False
4011,2293, Note_on_c,72,74,1,1,1,84.0,True
4012,2293, Note_on_c,77,74,1,1,1,90.0,True
4013,2294, Note_on_c,65,74,1,1,1,76.0,True
4014,2295, Note_on_c,70,74,1,1,1,81.0,False
4015,2295, Note_on_c,73,74,1,1,1,85.0,False
4016,2296, Note_on_c,72,74,1,1,1,84.0,True
4017,2296, Note_on_c,75,74,1,1,1,87.0,False
4018,2297, Note_on_c,65,74,1,1,1,76.0,True
4019,2298, Note_on_c,70,74,1,1,1,81.0,False
4020,2298, Note_on_c,73,74,1,1,1,85.0,False
4021,2299, Note_on_c,72,74,1,1,1,84.0,True
4022,2299, Note_on_c,75,74,1,1,1,87.0,False
4023,2300, Note_on_c,70,74,1,1,1,81.0,False
4024,2300, Note_on_c,73,74,1,1,1,85.0,False
4025,2301, Note_on_c,72,74,1,1,1,84.0,True
4026,2301, Note_on_c,77,74,1,1,1,90.0,True
4027,2302, Note_on_c,65,74,1,1,1,76.0,True
4028,2303, Note_on_c,70,74,1,1,1,81.0,False
4029,2303, Note_on_c,73,74,1,1,1,85.0,False
4030,2304, Note_on_c,72,74,1,1,1,84.0,True
4031,2304, Note_on_c,75,74,1,1,1,87.0,False
4032,2305, Note_on_c,65,74,1,1,1,76.0,True
4033,2306, Note_on_c,70,74,1,1,1,81.0,False
4034,2306, Note_on_c,73,74,1,1,1,85.0,False
4035,2307, Note_on_c,72,74,1,1,1,84.0,True
4036,2307, Note_on_c,75,74,1,1,1,87.0,False
4037,2308, Note_on_c,70,74,1,1,1,81.0,False
4038,2308, Note_on_c,73,74,1,1,1,85.0,False
4039,2309, Note_on_c,72,74,1,1,1,84.0,True
4040,2309, Note_on_c,77,74,1,1,1,90.0,True
4041,2310, Note_on_c,65,74,1,1,1,76.0,True
4042,2311, Note_on_c,70,74,1,1,1,81.0,False
4043,2311, Note_on_c,73,74,1,1,1,85.0,False
4044,2312, Note_on_c,72,74,1,1,1,84.0,True
4045,2312, Note_on_c,75,74,1,1,1,87.0,False
4046,2313, Note_on_c,65,74,1,1,1,76.0,True
4047,2314, Note_on_c,70,74,1,1,1,81.0,False
4048,2314, Note_on_c,73,74,1,1,1,85.0,False
4049,2315, Note_on_c,72,74,1,1,1,84.0,True
4050,2315, Note_on_c,75,74,1,1,1,87.0,False
4051,2316, Note_on_c,70,74,1,1,1,81.0,False
4052,2316, Note_on_c,73,74,1,1,1,85.0,False
4053,2317, Note_on_c,72,74,1,1,1,84.0,True
4054,2317, Note_on_c,77,74,1,1,1,90.0,True
4055,2318, Note_on_c,65,74,1,1,1,76.0,True
4056,2319, Note_on_c,70,74,1,1,1,81.0,False
4057,2319, Note_on_c,73,74,1,1,1,85.0,False
4058,2320, Note_on_c,72,74,1,1,1,84.0,True
4059,2320, Note_on_c,75,74,1,1,1,87.0,False
4060,2321, Note_on_c,65,74,1,1,1,76.0,True
4061,2322, Note_on_c,70,74,1,1,1,81.0,False
4062,2322, Note_on_c,73,74,1,1,1,85.0,False
4063,2323, Note_on_c,72,74,1,1,1,84.0,True
4064,2323, Note_on_c,75,74,1,1,1,87.0,False
4065,2324, Note_on_c,70,74,1,1,1,81.0,False
4066,2324, Note_on_c,73,74,1,1,1,85.0,False
4067,2325, Note_on_c,72,74,1,1,1,84.0,True
4068,2325, Note_on_c,77,74,1,1,1,90.0,True
4069,2326, Note_on_c,65,74,1,1,1,76.0,True
4070,2327, Note_on_c,70,74,1,1,1,81.0,False
4071,2327, Note_on_c,73,74,1,1,1,85.0,False
4072,2328, Note_on_c,72,74,1,1,1,84.0,True
4073,2328, Note_on_c,75,74,1,1,1,87.0,False
4074,2329, Note_on_c,65,74,1,1,1,76.0,True
4075,2330, Note_on_c,70,74,1,1,1,81.0,False
4076,2330, Note_on_c,73,74,1,1,1,85.0,False
4077,2331, Note_on_c,72,74,1,1,1,84.0,True
4078,2331, Note_on_c,75,74,1,1,1,87.0,False
4079,2332, Note_on_c,70,74,1,1,1,81.0,False
4080,2332, Note_on_c,73,74,1,1,1,85.0,False
4081,2333, Note_on_c,72,74,1,1,1,84.0,True
4082,2333, Note_on_c,77,74,1,1,1,90.0,True
4083,2334, Note_on_c,65,74,1,1,1,76.0,True
4084,2335, Note_on_c,70,74,1,1,1,81.0,False
4085,2335, Note_on_c,73,74,1,1,1,85.0,False
4086,2336, Note_on_c,72,74,1,1,1,84.0,True
4087,2336, Note_on_c,75,74,1,1,1,87.0,False
4088,2337, Note_on_c,65,74,1,1,1,76.0,True
4089,2338, Note_on_c,70,74,1,1,1,81.0,False
4090,2338, Note_on_c,73,74,1,1,1,85.0,False
4091,2339, Note_on_c,72,74,1,1,1,84.0,True
4092,2339, Note_on_c,75,74,1,1,1,87.0,False
4093,2340, Note_on_c,70,74,1,1,1,81.0,False
4094,2340, Note_on_c,73,74,1,1,1,85.0,False
4095,2341, Note_on_c,72,74,1,1,1,84.0,True
4096,2341, Note_on_c,77,74,1,1,1,90.0,True
4097,2342, Note_on_c,65,74,1,1,1,76.0,True
4098,2343, Note_on_c,70,74,1,1,1,81.0,False
4099,2343, Note_on_c,73,74,1,1,1,85.0,False
4100,2344, Note_on_c,72,74,1,1,1,84.0,True
4101,2344, Note_on_c,75,74,1,1,1,87.0,False
4102,2345, Note_on_c,65,74,1,1,1,76.0,True
4103,2346, Note_on_c,70,74,1,1,1,81.0,False
4104,2346, Note_on_c,73,74,1,1,1,85.0,False
4105,2347, Note_on_c,72,74,1,1,1,84.0,True
4106,2347, Note_on_c,75,74,1,1,1,87.0,False
4107,2348, Note_on_c,70,74,1,1,1,81.0,False
4108,2348, Note_on_c,73,74,1,1,1,85.0,False
4109,2349, Note_on_c,72,74,1,1,1,84.0,True
4110,2349, Note_on_c,77,74,1,1,1,90.0,True
4111,2350, Note_on_c,65,74,1,1,1,76.0,True
4112,2351, Note_on_c,70,74,1,1,1,81.0,False
4113,2351, Note_on_c,73,74,1,1,1,85.0,False
4114,2352, Note_on_c,72,74,1,1,1,84.0,True
4115,2352, Note_on_c,75,74,1,1,1,87.0,False
4116,2353, Note_on_c,65,74,1,1,1,76.0,True
4117,2354, Note_on_c,70,74,1,1,1,81.0,False
4118,2354, Note_on_c,73,74,1,1,1,85.0,False
4119,2355, Note_on_c,72,74,1,1,1,84.0,True
4120,2355, Note_on_c,75,74,1,1,1,87.0,False
4121,2356, Note_on_c,70,74,1,1,1,81.0,False
4122,2356, Note_on_c,73,74,1,1,1,85.0,False
4123,2357, Note_on_c,72,74,1,1,1,84.0,True
4124,2357, Note_on_c,77,74,1,1,1,90.0,True
4125,2358, Note_on_c,65,74,1,1,1,76.0,True
4126,2359, Note_on_c,70,74,1,1,1,81.0,False
4127,2359, Note_on_c,73,74,1,1,1,85.0,False
4128,2360, Note_on_c,72,74,1,1,1,84.0,True
4129,2360, Note_on_c,75,74,1,1,1,87.0,False
4130,2361, Note_on_c,65,74,1,1,1,76.0,True
4131,2362, Note_on_c,70,74,1,1,1,81.0,False
4132,2362, Note_on_c,73,74,1,1,1,85.0,False
4133,2363, Note_on_c,72,74,1,1,1,84.0,True
4134,2363, Note_on_c,75,74,1,1,1,87.0,False
4135,2364, Note_on_c,70,74,1,1,1,81.0,False
4136,2364, Note_on_c,73,74,1,1,1,85.0,False
4137,2365, Note_on_c,72,74,1,1,1,84.0,True
4138,2365, Note_on_c,77,74,1,1,1,90.0,True
4139,2366, Note_on_c,65,74,1,1,1,76.0,True
4140,2367, Note_on_c,70,74,1,1,1,81.0,False
4141,2367, Note_on_c,73,74,1,1,1,85.0,False
4142,2368, Note_on_c,72,74,1,1,1,84.0,True
4143,2368, Note_on_c,75,74,1,1,1,87.0,False
4144,2369, Note_on_c,65,74,1,1,1,76.0,True
4145,2370, Note_on_c,70,74,1,1,1,81.0,False
4146,2370, Note_on_c,73,74,1,1,1,85.0,False
4147,2371, Note_on_c,72,74,1,1,1,84.0,True
4148,2371, Note_on_c,75,74,1,1,1,87.0,False
4149,2372, Note_on_c,70,74,1,1,1,81.0,False
4150,2372, Note_on_c,73,74,1,1,1,85.0,False
4151,2373, Note_on_c,72,74,1,1,1,84.0,True
4152,2373, Note_on_c,77,74,1,1,1,90.0,True
4153,2374, Note_on_c,65,74,1,1,1,76.0,True
4154,2375, Note_on_c,70,74,1,1,1,81.0,False
4155,2375, Note_on_c,73,74,1,1,1,85.0,False
4156,2376, Note_on_c,72,74,1,1,1,84.0,True
4157,2376, Note_on_c,75,74,1,1,1,87.0,False
4158,2377, Note_on_c,65,74,1,1,1,76.0,True
4159,2378, Note_on_c,70,74,1,1,1,81.0,False
4160,2378, Note_on_c,73,74,1,1,1,85.0,False
4161,2379, Note_on_c,72,74,1,1,1,84.0,True
4162,2379, Note_on_c,75,74,1,1,1,87.0,False
4163,2380, Note_on_c,70,74,1,1,1,81.0,False
4164,2380, Note_on_c,73,74,1,1,1,85.0,False
4165,2381, Note_on_c,72,74,1,1,1,84.0,True
4166,2381, Note_on_c,77,74,1,1,1,90.0,True
4167,2382, Note_on_c,65,74,1,1,1,76.0,True
4168,2383, Note_on_c,70,74,1,1,1,81.0,False
4169,2383, Note_on_c,73,74,1,1,1,85.0,False
4170,2384, Note_on_c,72,74,1,1,1,84.0,True
4171,2384, Note_on_c,75,74,1,1,1,87.0,False
4172,2385, Note_on_c,65,74,1,1,1,76.0,True
4173,2386, Note_on_c,70,74,1,1,1,81.0,False
4174,2386, Note_on_c,73,74,1,1,1,85.0,False
4175,2387, Note_on_c,72,74,1,1,1,84.0,True
4176,2387, Note_on_c,75,74,1,1,1,87.0,False
4177,2388, Note_on_c,70,74,1,1,1,81.0,False
4178,2388, Note_on_c,73,74,1,1,1,85.0,False
4179,2389, Note_on_c,72,74,1,1,1,84.0,True
4180,2389, Note_on_c,77,74,1,1,1,90.0,True
4181,2390, Note_on_c,65,74,1,1,1,76.0,True
4182,2391, Note_on_c,70,74,1,1,1,81.0,False
4183,2391, Note_on_c,73,74,1,1,1,85.0,False
4184,2392, Note_on_c,72,74,1,1,1,84.0,True
4185,2392, Note_on_c,75,74,1,1,1,87.0,False
4186,2393, Note_on_c,65,74,1,1,1,76.0,True
4187,2394, Note_on_c,70,74,1,1,1,81.0,False
4188,2394, Note_on_c,73,74,1,1,1,85.0,False
4189,2395, Note_on_c,72,74,1,1,1,84.0,True
4190,2395, Note_on_c,75,74,1,1,1,87.0,False
4191,2396, Note_on_c,70,74,1,1,1,81.0,False
4192,2396, Note_on_c,73,74,1,1,1,85.0,False
4193,2397, Note_on_c,72,74,1,1,1,84.0,True
4194,2397, Note_on_c,77,74,1,1,1,90.0,True
4195,2398, Note_on_c,65,74,1,1,1,76.0,True
4196,2399, Note_on_c,70,74,1,1,1,81.0,False
4197,2399, Note_on_c,73,74,1,1,1,85.0,False
4198,2400, Note_on_c,72,74,1,1,1,84.0,True
4199,2400, Note_on_c,75,74,1,1,1,87.0,False
4200,2401, Note_on_c,65,74,1,1,1,76.0,True
4201,2402, Note_on_c,70,74,1,1,1,81.0,False
4202,2402, Note_on_c,73,74,1,1,1,85.0,False
4203,2403, Note_on_c,72,74,1,1,1,84.0,True
4204,2403, Note_on_c,75,74,1,1,1,87.0,False
4205,2404, Note_on_c,70,74,1,1,1,81.0,False
4206,2404, Note_on_c,73,74,1,1,1,85.0,False
4207,2405, Note_on_c,72,74,1,1,1,84.0,True
4208,2405, Note_on_c,77,74,1,1,1,90.0,True
4209,2406, Note_on_c,65,74,1,1,1,76.0,True
4210,2407, Note_on_c,70,74,1,1,1,81.0,False
4211,2407, Note_on_c,73,74,1,1,1,85.0,False
4212,2408, Note_on_c,72,74,1,1,1,84.0,True
4213,2408, Note_on_c,75,74,1,1,1,87.0,False
4214,2409, Note_on_c,65,74,1,1,1,76.0,True
4215,2410, Note_on_c,70,74,1,1,1,81.0,False
4216,2410, Note_on_c,73,74,1,1,1,85.0,False
4217,2411, Note_on_c,72,74,1,1,1,84.0,True
4218,2411, Note_on_c,75,74,1,1,1,87.0,False
4219,2412, Note_on_c,70,74,1,1,1,81.0,False
4220,2412, Note_on_c,73,74,1,1,1,85.0,False
4221,2413, Note_on_c,72,74,1,1,1,84.0,True
4222,2413, Note_on_c,77,74,1,1,1,90.0,True
4223,2414, Note_on_c,65,74,1,1,1,76.0,True
4224,2415, Note_on_c,70,74,1,1,1,81.0,False
4225,2415, Note_on_c,73,74,1,1,1,85.0,False
4226,2416, Note_on_c,72,74,1,1,1,84.0,True
4227,2416, Note_on_c,75,74,1,1,1,87.0,False
4228,2417, Note_on_c,65,74,1,1,1,76.0,True
4229,2418, Note_on_c,70,74,1,1,1,81.0,False
4230,2418, Note_on_c,73,74,1,1,1,85.0,False
4231,2419, Note_on_c,72,74,1,1,1,84.0,True
4232,2419, Note_on_c,75,74,1,1,1,87.0,False
4233,2420, Note_on_c,70,74,1,1,1,81.0,False
4234,2420, Note_on_c,73,74,1,1,1,85.0,False
4235,2421, Note_on_c,72,74,1,1,1,84.0,True
4236,2421, Note_on_c,77,74,1,1,1,90.0,True
4237,2422, Note_on_c,65,74,1,1,1,76.0,True
4238,2423, Note_on_c,70,74,1,1,1,81.0,False
4239,2423, Note_on_c,73,74,1,1,1,85.0,False
4240,2424, Note_on_c,72,74,1,1,1,84.0,True
4241,2424, Note_on_c,75,74,1,1,1,87.0,False
4242,2425, Note_on_c,65,74,1,1,1,76.0,True
4243,2426, Note_on_c,70,74,1,1,1,81.0,False
4244,2426, Note_on_c,73,74,1,1,1,85.0,False
4245,2427, Note_on_c,72,74,1,1,1,84.0,True
4246,2427, Note_on_c,75,74,1,1,1,87.0,False
4247,2428, Note_on_c,70,74,1,1,1,81.0,False
4248,2428, Note_on_c,73,74,1,1,1,85.0,False
4249,2429, Note_on_c,72,74,1,1,1,84.0,True
4250,2429, Note_on_c,77,74,1,1,1,90.0,True
4251,2430, Note_on_c,65,74,1,1,1,76.0,True
4252,2431, Note_on_c,70,74,1,1,1,81.0,False
4253,2431, Note_on_c,73,74,1,1,1,85.0,False
4254,2432, Note_on_c,72,74,1,1,1,84.0,True
4255,2432, Note_on_c,75,74,1,1,1,87.0,False
4256,2433, Note_on_c,65,74,1,1,1,76.0,True
4257,2434, Note_on_c,70,74,1,1,1,81.0,False
4258,2434, Note_on_c,73,74,1,1,1,85.0,False
4259,2435, Note_on_c,72,74,1,1,1,84.0,True
4260,2435, Note_on_c,75,74,1,1,1,87.0,False
4261,2436, Note_on_c,70,74,1,1,1,81.0,False
4262,2436, Note_on_c,73,74,1,1,1,85.0,False
4263,2437, Note_on_c,72,74,1,1,1,84.0,True
4264,2437, Note_on_c,77,74,1,1,1,90.0,True
4265,2438, Note_on_c,65,74,1,1,1,76.0,True
4266,2439, Note_on_c,70,74,1,1,1,81.0,False
4267,2439, Note_on_c,73,74,1,1,1,85.0,False
4268,2440, Note_on_c,72,74,1,1,1,84.0,True
4269,2440, Note_on_c,75,74,1,1,1,87.0,False
4270,2441, Note_on_c,65,74,1,1,1,76.0,True
4271,2442, Note_on_c,70,74,1,1,1,81.0,False
4272,2442, Note_on_c,73,74,1,1,1,85.0,False
4273,2443, Note_on_c,72,74,1,1,1,84.0,True
4274,2443, Note_on_c,75,74,1,1,1,87.0,False
4275,2444, Note_on_c,70,74,1,1,1,81.0,False
4276,2444, Note_on_c,73,74,1,1,1,85.0,False
4277,2445, Note_on_c,72,74,1,1,1,84.0,True
4278,2445, Note_on_c,77,74,1,1,1,90.0,True
4279,2446, Note_on_c,65,74,1,1,1,76.0,True
4280,2447, Note_on_c,70,74,1,1,1,81.0,False
4281,2447, Note_on_c,73,74,1,1,1,85.0,False
4282,2448, Note_on_c,72,74,1,1,1,84.0,True
4283,2448, Note_on_c,75,74,1,1,1,87.0,False
4284,2449, Note_on_c,65,74,1,1,1,76.0,True
4285,2450, Note_on_c,70,74,1,1,1,81.0,False
4286,2450, Note_on_c,73,74,1,1,1,85.0,False
4287,2451, Note_on_c,72,74,1,1,1,84.0,True
4288,2451, Note_on_c,75,74,1,1,1,87.0,False
4289,2452, Note_on_c,70,74,1,1,1,81.0,False
4290,2452, Note_on_c,73,74,1,1,1,85.0,False
4291,2453, Note_on_c,72,74,1,1,1,84.0,True
4292,2453, Note_on_c,77,74,1,1,1,90.0,True
4293,2454, Note_on_c,65,74,1,1,1,76.0,True
4294,2455, Note_on_c,70,74,1,1,1,81.0,False
4295,2455, Note_on_c,73,74,1,1,1,85.0,False
4296,2456, Note_on_c,72,74,1,1,1,84.0,True
4297,2456, Note_on_c,75,74,1,1,1,87.0,False
4298,2457, Note_on_c,65,74,1,1,1,76.0,True
4299,2458, Note_on_c,70,74,1,1,1,81.0,False
4300,2458, Note_on_c,73,74,1,1,1,85.0,False
4301,2459, Note_on_c,72,74,1,1,1,84.0,True
4302,2459, Note_on_c,75,74,1,1,1,87.0,False
4303,2460, Note_on_c,70,74,1,1,1,81.0,False
4304,2460, Note_on_c,73,74,1,1,1,85.0,False
4305,2461, Note_on_c,72,74,1,1,1,84.0,True
4306,2461, Note_on_c,77,74,1,1,1,90.0,True
4307,2462, Note_on_c,65,74,1,1,1,76.0,True
4308,2463, Note_on_c,70,74,1,1,1,81.0,False
4309,2463, Note_on_c,73,74,1,1,1,85.0,False
4310,2464, Note_on_c,72,74,1,1,1,84.0,True
4311,2464, Note_on_c,75,74,1,1,1,87.0,False
4312,2465, Note_on_c,65,74,1,1,1,76.0,True
4313,2466, Note_on_c,70,74,1,1,1,81.0,False
4314,2466, Note_on_c,73,74,1,1,1,85.0,False
4315,2467, Note_on_c,72,74,1,1,1,84.0,True
4316,2467, Note_on_c,75,74,1,1,1,87.0,False
4317,2468, Note_on_c,70,74,1,1,1,81.0,False
4318,2468, Note_on_c,73,74,1,1,1,85.0,False
4319,2469, Note_on_c,72,74,1,1,1,84.0,True
4320,2469, Note_on_c,77,74,1,1,1,90.0,True
4321,2470, Note_on_c,65,74,1,1,1,76.0,True
4322,2471, Note_on_c,70,74,1,1,1,81.0,False
4323,2471, Note_on_c,73,74,1,1,1,85.0,False
4324,2472, Note_on_c,72,74,1,1,1,84.0,True
4325,2472, Note_on_c,75,74,1,1,1,87.0,False
4326,2473, Note_on_c,65,74,1,1,1,76.0,True
4327,2474, Note_on_c,70,74,1,1,1,81.0,False
4328,2474, Note_on_c,73,74,1,1,1,85.0,False
4329,2475, Note_on_c,72,74,1,1,1,84.0,True
4330,2475, Note_on_c,75,74,1,1,1,87.0,False
4331,2476, Note_on_c,70,74,1,1,1,81.0,False
4332,2476, Note_on_c,73,74,1,1,1,85.0,False
4333,2477, Note_on_c,72,74,1,1,1,84.0,True
4334,2477, Note_on_c,77,74,1,1,1,90.0,True
4335,2478, Note_on_c,65,74,1,1,1,76.0,True
4336,2479, Note_on_c,70,74,1,1,1,81.0,False
4337,2479, Note_on_c,73,74,1,1,1,85.0,False
4338,2480, Note_on_c,72,74,1,1,1,84.0,True
4339,2480, Note_on_c,75,74,1,1,1,87.0,False
4340,2481, Note_on_c,65,74,1,1,1,76.0,True
4341,2482, Note_on_c,70,74,1,1,1,81.0,False
4342,2482, Note_on_c,73,74,1,1,1,85.0,False
4343,2483, Note_on_c,72,74,1,1,1,84.0,True
4344,2483, Note_on_c,75,74,1,1,1,87.0,False
4345,2484, Note_on_c,70,74,1,1,1,81.0,False
4346,2484, Note_on_c,73,74,1,1,1,85.0,False
4347,2485, Note_on_c,72,74,1,1,1,84.0,True
4348,2485, Note_on_c,77,74,1,1,1,90.0,True
4349,2486, Note_on_c,65,74,1,1,1,76.0,True
4350,2487, Note_on_c,70,74,1,1,1,81.0,False
4351,2487, Note_on_c,73,74,1,1,1,85.0,False
4352,2488, Note_on_c,72,74,1,1,1,84.0,True
4353,2488, Note_on_c,75,74,1,1,1,87.0,False
4354,2489, Note_on_c,65,74,1,1,1,76.0,True
4355,2490, Note_on_c,70,74,1,1,1,81.0,False
4356,2490, Note_on_c,73,74,1,1,1,85.0,False
4357,2491, Note_on_c,72,74,1,1,1,84.0,True
4358,2491, Note_on_c,75,74,1,1,1,87.0,False
4359,2492, Note_on_c,70,74,1,1,1,81.0,False
4360,2492, Note_on_c,73,74,1,1,1,85.0,False
4361,2493, Note_on_c,72,74,1,1,1,84.0,True
4362,2493, Note_on_c,77,74,1,1,1,90.0,True
4363,2494, Note_on_c,65,74,1,1,1,76.0,True
4364,2495, Note_on_c,70,74,1,1,1,81.0,False
4365,2495, Note_on_c,73,74,1,1,1,85.0,False
4366,2496, Note_on_c,72,74,1,1,1,84.0,True
4367,2496, Note_on_c,75,74,1,1,1,87.0,False
4368,2497, Note_on_c,65,74,1,1,1,76.0,True
4369,2498, Note_on_c,70,74,1,1,1,81.0,False
4370,2498, Note_on_c,73,74,1,1,1,85.0,False
4371,2499, Note_on_c,72,74,1,1,1,84.0,True
4372,2499, Note_on_c,75,74,1,1,1,87.0,False
4373,2500, Note_on_c,70,74,1,1,1,81.0,False
4374,2500, Note_on_c,73,74,1,1,1,85.0,False
4375,2501, Note_on_c,72,74,1,1,1,84.0,True
4376,2501, Note_on_c,77,74,1,1,1,90.0,True
4377,2502, Note_on_c,65,74,1,1,1,76.0,True
4378,2503, Note_on_c,70,74,1,1,1,81.0,False
4379,2503, Note_on_c,73,74,1,1,1,85.0,False
4380,2504, Note_on_c,72,74,1,1,1,84.0,True
4381,2504, Note_on_c,75,74,1,1,1,87.0,False
4382,2505, Note_on_c,65,74,1,1,1,76.0,True
4383,2506, Note_on_c,70,74,1,1,1,81.0,False
4384,2506, Note_on_c,73,74,1,1,1,85.0,False
4385,2507, Note_on_c,72,74,1,1,1,84.0,True
4386,2507, Note_on_c,75,74,1,1,1,87.0,False
4387,2508, Note_on_c,70,74,1,1,1,81.0,False
4388,2508, Note_on_c,73,74,1,1,1,85.0,False
4389,2509, Note_on_c,72,74,1,1,1,84.0,True
4390,2509, Note_on_c,77,74,1,1,1,90.0,True
4391,2510, Note_on_c,65,74,1,1,1,76.0,True
4392,2511, Note_on_c,70,74,1,1,1,81.0,False
4393,2511, Note_on_c,73,74,1,1,1,85.0,False
4394,2512, Note_on_c,72,74,1,1,1,84.0,True
4395,2512, Note_on_c,75,74,1,1,1,87.0,False
4396,2513, Note_on_c,65,74,1,1,1,76.0,True
4397,2514, Note_on_c,70,74,1,1,1,81.0,False
4398,2514, Note_on_c,73,74,1,1,1,85.0,False
4399,2515, Note_on_c,72,74,1,1,1,84.0,True
4400,2515, Note_on_c,75,74,1,1,1,87.0,False
4401,2516, Note_on_c,70,74,1,1,1,81.0,False
4402,2516, Note_on_c,73,74,1,1,1,85.0,False
4403,2517, Note_on_c,72,74,1,1,1,84.0,True
4404,2517, Note_on_c,77,74,1,1,1,90.0,True
4405,2518, Note_on_c,65,74,1,1,1,76.0,True
4406,2519, Note_on_c,70,74,1,1,1,81.0,False
4407,2519, Note_on_c,73,74,1,1,1,85.0,False
4408,2520, Note_on_c,72,74,1,1,1,84.0,True
4409,2520, Note_on_c,75,74,1,1,1,87.0,False
4410,2521, Note_on_c,65,74,1,1,1,76.0,True
4411,2522, Note_on_c,70,74,1,1,1,81.0,False
4412,2522, Note_on_c,73,74,1,1,1,85.0,False
4413,2523, Note_on_c,72,74,1,1,1,84.0,True
4414,2523, Note_on_c,75,74,1,1,1,87.0,False
4415,2524, Note_on_c,70,74,1,1,1,81.0,False
4416,2524, Note_on_c,73,74,1,1,1,85.0,False
4417,2525, Note_on_c,72,74,1,1,1,84.0,True
4418,2525, Note_on_c,77,74,1,1,1,90.0,True
4419,2526, Note_on_c,65,74,1,1,1,76.0,True
4420,2527, Note_on_c,70,74,1,1,1,81.0,False
4421,2527, Note_on_c,73,74,1,1,1,85.0,False
4422,2528, Note_on_c,72,74,1,1,1,84.0,True
4423,2528, Note_on_c,75,74,1,1,1,87.0,False
4424,2529, Note_on_c,65,74,1,1,1,76.0,True
4425,2530, Note_on_c,70,74,1,1,1,81.0,False
4426,2530, Note_on_c,73,74,1,1,1,85.0,False
4427,2531, Note_on_c,72,74,1,1,1,84.0,True
4428,2531, Note_on_c,75,74,1,1,1,87.0,False
4429,2532, Note_on_c,70,74,1,1,1,81.0,False
4430,2532, Note_on_c,73,74,1,1,1,85.0,False
4431,2533, Note_on_c,72,74,1,1,1,84.0,True
4432,2533, Note_on_c,77,74,1,1,1,90.0,True
4433,2534, Note_on_c,65,74,1,1,1,76.0,True
4434,2535, Note_on_c,70,74,1,1,1,81.0,False
4435,2535, Note_on_c,73,74,1,1,1,85.0,False
4436,2536, Note_on_c,72,74,1,1,1,84.0,True
4437,2536, Note_on_c,75,74,1,1,1,87.0,False
4438,2537, Note_on_c,65,74,1,1,1,76.0,True
4439,2538, Note_on_c,70,74,1,1,1,81.0,False
4440,2538, Note_on_c,73,74,1,1,1,85.0,False
4441,2539, Note_on_c,72,74,1,1,1,84.0,True
4442,2539, Note_on_c,75,74,1,1,1,87.0,False
4443,2540, Note_on_c,70,74,1,1,1,81.0,False
4444,2540, Note_on_c,73,74,1,1,1,85.0,False
4445,2541, Note_on_c,72,74,1,1,1,84.0,True
4446,2541, Note_on_c,77,74,1,1,1,90.0,True
4447,2542, Note_on_c,65,74,1,1,1,76.0,True
4448,2543, Note_on_c,70,74,1,1,1,81.0,False
4449,2543, Note_on_c,73,74,1,1,1,85.0,False
4450,2544, Note_on_c,72,74,1,1,1,84.0,True
4451,2544, Note_on_c,75,74,1,1,1,87.0,False
4452,2545, Note_on_c,65,74,1,1,1,76.0,True
4453,2546, Note_on_c,70,74,1,1,1,81.0,False
4454,2546, Note_on_c,73,74,1,1,1,85.0,False
4455,2547, Note_on_c,72,74,1,1,1,84.0,True
4456,2547, Note_on_c,75,74,1,1,1,87.0,False
4457,2548, Note_on_c,70,74,1,1,1,81.0,False
4458,2548, Note_on_c,73,74,1,1,1,85.0,False
4459,2549, Note_on_c,72,74,1,1,1,84.0,True
4460,2549, Note_on_c,77,74,1,1,1,90.0,True
4461,2550, Note_on_c,65,74,1,1,1,76.0,True
4462,2551, Note_on_c,70,74,1,1,1,81.0,False
4463,2551, Note_on_c,73,74,1,1,1,85.0,False
4464,2552, Note_on_c,72,74,1,1,1,84.0,True
4465,2552, Note_on_c,75,74,1,1,1,87.0,False
4466,2553, Note_on_c,65,74,1,1,1,76.0,True
4467,2554, Note_on_c,70,74,1,1,1,81.0,False
4468,2554, Note_on_c,73,74,1,1,1,85.0,False
4469,2555, Note_on_c,72,74,1,1,1,84.0,True
4470,2555, Note_on_c,75,74,1,1,1,87.0,False
4471,2556, Note_on_c,70,74,1,1,1,81.0,False
4472,2556, Note_on_c,73,74,1,1,1,85.0,False
4473,2557, Note_on_c,72,74,1,1,1,84.0,True
4474,2557, Note_on_c,77,74,1,1,1,90.0,True
4475,2558, Note_on_c,65,74,1,1,1,76.0,True
4476,2559, Note_on_c,70,74,1,1,1,81.0,False
4477,2559, Note_on_c,73,74,1,1,1,85.0,False
4478,2560, Note_on_c,72,74,1,1,1,84.0,True
4479,2560, Note_on_c,75,74,1,1,1,87.0,False
4480,2561, Note_on_c,65,74,1,1,1,76.0,True
4481,2562, Note_on_c,70,74,1,1,1,81.0,False
4482,2562, Note_on_c,73,74,1,1,1,85.0,False
4483,2563, Note_on_c,72,74,1,1,1,84.0,True
4484,2563, Note_on_c,75,74,1,1,1,87.0,False
4485,2564, Note_on_c,70,74,1,1,1,81.0,False
4486,2564, Note_on_c,73,74,1,1,1,85.0,False
4487,2565, Note_on_c,72,74,1,1,1,84.0,True
4488,2565, Note_on_c,77,74,1,1,1,90.0,True
4489,2566, Note_on_c,65,74,1,1,1,76.0,True
4490,2567, Note_on_c,70,74,1,1,1,81.0,False
4491,2567, Note_on_c,73,74,1,1,1,85.0,False
4492,2568, Note_on_c,72,74,1,1,1,84.0,True
4493,2568, Note_on_c,75,74,1,1,1,87.0,False
4494,2569, Note_on_c,65,74,1,1,1,76.0,True
4495,2570, Note_on_c,70,74,1,1,1,81.0,False
4496,2570, Note_on_c,73,74,1,1,1,85.0,False
4497,2571, Note_on_c,72,74,1,1,1,84.0,True
4498,2571, Note_on_c,75,74,1,1,1,87.0,False
4499,2572, Note_on_c,70,74,1,1,1,81.0,False
4500,2572, Note_on_c,73,74,1,1,1,85.0,False
4501,2573, Note_on_c,72,74,1,1,1,84.0,True
4502,2573, Note_on_c,77,74,1,1,1,90.0,True
4503,2574, Note_on_c,65,74,1,1,1,76.0,True
4504,2575, Note_on_c,70,74,1,1,1,81.0,False
4505,2575, Note_on_c,73,74,1,1,1,85.0,False
4506,2576, Note_on_c,72,74,1,1,1,84.0,True
4507,2576, Note_on_c,75,74,1,1,1,87.0,False
4508,2577, Note_on_c,65,74,1,1,1,76.0,True
4509,2578, Note_on_c,70,74,1,1,1,81.0,False
4510,2578, Note_on_c,73,74,1,1,1,85.0,False
4511,2579, Note_on_c,72,74,1,1,1,84.0,True
4512,2579, Note_on_c,75,74,1,1,1,87.0,False
4513,2580, Note_on_c,70,74,1,1,1,81.0,False
4514,2580, Note_on_c,73,74,1,1,1,85.0,False
4515,2581, Note_on_c,72,74,1,1,1,84.0,True
4516,2581, Note_on_c,77,74,1,1,1,90.0,True
4517,2582, Note_on_c,65,74,1,1,1,76.0,True
4518,2583, Note_on_c,70,74,1,1,1,81.0,False
4519,2583, Note_on_c,73,74,1,1,1,85.0,False
4520,2584, Note_on_c,72,74,1,1,1,84.0,True
4521,2584, Note_on_c,75,74,1,1,1,87.0,False
4522,2585, Note_on_c,65,74,1,1,1,76.0,True
4523,2586, Note_on_c,70,74,1,1,1,81.0,False
4524,2586, Note_on_c,73,74,1,1,1,85.0,False
4525,2587, Note_on_c,72,74,1,1,1,84.0,True
4526,2587, Note_on_c,75,74,1,1,1,87.0,False
4527,2588, Note_on_c,70,74,1,1,1,81.0,False
4528,2588, Note_on_c,73,74,1,1,1,85.0,False
4529,2589, Note_on_c,72,74,1,1,1,84.0,True
4530,2589, Note_on_c,77,74,1,1,1,90.0,True
4531,2590, Note_on_c,65,74,1,1,1,76.0,True
4532,2591, Note_on_c,70,74,1,1,1,81.0,False
4533,2591, Note_on_c,73,74,1,1,1,85.0,False
4534,2592, Note_on_c,72,74,1,1,1,84.0,True
4535,2592, Note_on_c,75,74,1,1,1,87.0,False
4536,2593, Note_on_c,65,74,1,1,1,76.0,True
4537,2594, Note_on_c,70,74,1,1,1,81.0,False
4538,2594, Note_on_c,73,74,1,1,1,85.0,False
4539,2595, Note_on_c,72,74,1,1,1,84.0,True
4540,2595, Note_on_c,75,74,1,1,1,87.0,False
4541,2596, Note_on_c,70,74,1,1,1,81.0,False
4542,2596, Note_on_c,73,74,1,1,1,85.0,False
4543,2597, Note_on_c,72,74,1,1,1,84.0,True
4544,2597, Note_on_c,77,74,1,1,1,90.0,True
4545,2598, Note_on_c,65,74,1,1,1,76.0,True
4546,2599, Note_on_c,70,74,1,1,1,81.0,False
4547,2599, Note_on_c,73,74,1,1,1,85.0,False
4548,2600, Note_on_c,72,74,1,1,1,84.0,True
4549,2600, Note_on_c,75,74,1,1,1,87.0,False
4550,2601, Note_on_c,65,74,1,1,1,76.0,True
4551,2602, Note_on_c,70,74,1,1,1,81.0,False
4552,2602, Note_on_c,73,74,1,1,1,85.0,False
4553,2603, Note_on_c,72,74,1,1,1,84.0,True
4554,2603, Note_on_c,75,74,1,1,1,87.0,False
4555,2604, Note_on_c,70,74,1,1,1,81.0,False
4556,2604, Note_on_c,73,74,1,1,1,85.0,False
4557,2605, Note_on_c,72,74,1,1,1,84.0,True
4558,2605, Note_on_c,77,74,1,1,1,90.0,True
4559,2606, Note_on_c,65,74,1,1,1,76.0,True
4560,2607, Note_on_c,70,74,1,1,1,81.0,False
4561,2607, Note_on_c,73,74,1,1,1,85.0,False
4562,2608, Note_on_c,72,74,1,1,1,84.0,True
4563,2608, Note_on_c,75,74,1,1,1,87.0,False
4564,2609, Note_on_c,65,74,1,1,1,76.0,True
4565,2610, Note_on_c,70,74,1,1,1,81.0,False
4566,2610, Note_on_c,73,74,1,1,1,85.0,False
4567,2611, Note_on_c,72,74,1,1,1,84.0,True
4568,2611, Note_on_c,75,74,1,1,1,87.0,False
4569,2612, Note_on_c,70,74,1,1,1,81.0,False
4570,2612, Note_on_c,73,74,1,1,1,85.0,False
4571,2613, Note_on_c,72,74,1,1,1,84.0,True
4572,2613, Note_on_c,77,74,1,1,1,90.0,True
4573,2614, Note_on_c,65,74,1,1,1,76.0,True
4574,2615, Note_on_c,70,74,1,1,1,81.0,False
4575,2615, Note_on_c,73,74,1,1,1,85.0,False
4576,2616, Note_on_c,72,74,1,1,1,84.0,True
4577,2616, Note_on_c,75,74,1,1,1,87.0,False
4578,2617, Note_on_c,65,74,1,1,1,76.0,True
4579,2618, Note_on_c,70,74,1,1,1,81.0,False
4580,2618, Note_on_c,73,74,1,1,1,85.0,False
4581,2619, Note_on_c,72,74,1,1,1,84.0,True
4582,2619, Note_on_c,75,74,1,1,1,87.0,False
4583,2620, Note_on_c,70,74,1,1,1,81.0,False
4584,2620, Note_on_c,73,74,1,1,1,85.0,False
4585,2621, Note_on_c,72,74,1,1,1,84.0,True
4586,2621, Note_on_c,77,74,1,1,1,90.0,True
4587,2622, Note_on_c,65,74,1,1,1,76.0,True
4588,2623, Note_on_c,70,74,1,1,1,81.0,False
4589,2623, Note_on_c,73,74,1,1,1,85.0,False
4590,2624, Note_on_c,72,74,1,1,1,84.0,True
4591,2624, Note_on_c,75,74,1,1,1,87.0,False
4592,2625, Note_on_c,63,76,1,2,1,73.0,False
4593,2626, Note_on_c,68,76,1,2,1,79.0,False
4594,2626, Note_on_c,73,76,1,2,1,85.0,False
4595,2627, Note_on_c,72,76,1,2,1,84.0,True
4596,2627, Note_on_c,75,76,1,2,1,87.0,False
4597,2628, Note_on_c,68,76,1,2,1,79.0,False
4598,2628, Note_on_c,73,76,1,2,1,85.0,False
4599,2629, Note_on_c,70,76,1,2,1,81.0,False
4600,2629, Note_on_c,75,76,1,2,1,87.0,False
4601,2630, Note_on_c,63,76,1,2,1,73.0,False
4602,2631, Note_on_c,68,76,1,2,1,79.0,False
4603,2631, Note_on_c,73,76,1,2,1,85.0,False
4604,2632, Note_on_c,72,76,1,2,1,84.0,True
4605,2632, Note_on_c,75,76,1,2,1,87.0,False
4606,2633, Note_on_c,63,76,1,2,1,73.0,False
4607,2634, Note_on_c,68,76,1,2,1,79.0,False
4608,2634, Note_on_c,73,76,1,2,1,85.0,False
4609,2635, Note_on_c,72,76,1,2,1,84.0,True
4610,2635, Note_on_c,75,76,1,2,1,87.0,False
4611,2636, Note_on_c,68,76,1,2,1,79.0,False
4612,2636, Note_on_c,73,76,1,2,1,85.0,False
4613,2637, Note_on_c,70,76,1,2,1,81.0,False
4614,2637, Note_on_c,75,76,1,2,1,87.0,False
4615,2638, Note_on_c,63,76,1,2,1,73.0,False
4616,2639, Note_on_c,68,76,1,2,1,79.0,False
4617,2639, Note_on_c,73,76,1,2,1,85.0,False
4618,2640, Note_on_c,72,76,1,2,1,84.0,True
4619,2640, Note_on_c,75,76,1,2,1,87.0,False
4620,2641, Note_on_c,63,76,1,2,1,73.0,False
4621,2642, Note_on_c,68,76,1,2,1,79.0,False
4622,2642, Note_on_c,73,76,1,2,1,85.0,False
4623,2643, Note_on_c,72,76,1,2,1,84.0,True
4624,2643, Note_on_c,75,76,1,2,1,87.0,False
4625,2644, Note_on_c,68,76,1,2,1,79.0,False
4626,2644, Note_on_c,73,76,1,2,1,85.0,False
4627,2645, Note_on_c,70,76,1,2,1,81.0,False
4628,2645, Note_on_c,75,76,1,2,1,87.0,False
4629,2646, Note_on_c,63,76,1,2,1,73.0,False
4630,2647, Note_on_c,68,76,1,2,1,79.0,False
4631,2647, Note_on_c,73,76,1,2,1,85.0,False
4632,2648, Note_on_c,72,76,1,2,1,84.0,True
4633,2648, Note_on_c,75,76,1,2,1,87.0,False
4634,2649, Note_on_c,63,76,1,2,1,73.0,False
4635,2650, Note_on_c,68,76,1,2,1,79.0,False
4636,2650, Note_on_c,73,76,1,2,1,85.0,False
4637,2651, Note_on_c,72,76,1,2,1,84.0,True
4638,2651, Note_on_c,75,76,1,2,1,87.0,False
4639,2652, Note_on_c,68,76,1,2,1,79.0,False
4640,2652, Note_on_c,73,76,1,2,1,85.0,False
4641,2653, Note_on_c,70,76,1,2,1,81.0,False
4642,2653, Note_on_c,75,76,1,2,1,87.0,False
4643,2654, Note_on_c,63,76,1,2,1,73.0,False
4644,2655, Note_on_c,68,76,1,2,1,79.0,False
4645,2655, Note_on_c,73,76,1,2,1,85.0,False
4646,2656, Note_on_c,72,76,1,2,1,84.0,True
4647,2656, Note_on_c,75,76,1,2,1,87.0,False
4648,2657, Note_on_c,63,76,1,2,1,73.0,False
4649,2658, Note_on_c,68,76,1,2,1,79.0,False
4650,2658, Note_on_c,73,76,1,2,1,85.0,False
4651,2659, Note_on_c,72,76,1,2,1,84.0,True
4652,2659, Note_on_c,75,76,1,2,1,87.0,False
4653,2660, Note_on_c,68,76,1,2,1,79.0,False
4654,2660, Note_on_c,73,76,1,2,1,85.0,False
4655,2661, Note_on_c,70,76,1,2,1,81.0,False
4656,2661, Note_on_c,75,76,1,2,1,87.0,False
4657,2662, Note_on_c,63,76,1,2,1,73.0,False
4658,2663, Note_on_c,68,76,1,2,1,79.0,False
4659,2663, Note_on_c,73,76,1,2,1,85.0,False
4660,2664, Note_on_c,72,76,1,2,1,84.0,True
4661,2664, Note_on_c,75,76,1,2,1,87.0,False
4662,2665, Note_on_c,63,76,1,2,1,73.0,False
4663,2666, Note_on_c,68,76,1,2,1,79.0,False
4664,2666, Note_on_c,73,76,1,2,1,85.0,False
4665,2667, Note_on_c,72,76,1,2,1,84.0,True
4666,2667, Note_on_c,75,76,1,2,1,87.0,False
4667,2668, Note_on_c,68,76,1,2,1,79.0,False
4668,2668, Note_on_c,73,76,1,2,1,85.0,False
4669,2669, Note_on_c,70,76,1,2,1,81.0,False
4670,2669, Note_on_c,75,76,1,2,1,87.0,False
4671,2670, Note_on_c,63,76,1,2,1,73.0,False
4672,2671, Note_on_c,68,76,1,2,1,79.0,False
4673,2671, Note_on_c,73,76,1,2,1,85.0,False
4674,2672, Note_on_c,72,76,1,2,1,84.0,True
4675,2672, Note_on_c,75,76,1,2,1,87.0,False
4676,2673, Note_on_c,63,76,1,2,1,73.0,False
4677,2674, Note_on_c,68,76,1,2,1,79.0,False
4678,2674, Note_on_c,73,76,1,2,1,85.0,False
4679,2675, Note_on_c,72,76,1,2,1,84.0,True
4680,2675, Note_on_c,75,76,1,2,1,87.0,False
4681,2676, Note_on_c,68,76,1,2,1,79.0,False
4682,2676, Note_on_c,73,76,1,2,1,85.0,False
4683,2677, Note_on_c,70,76,1,2,1,81.0,False
4684,2677, Note_on_c,75,76,1,2,1,87.0,False
4685,2678, Note_on_c,63,76,1,2,1,73.0,False
4686,2679, Note_on_c,68,76,1,2,1,79.0,False
4687,2679, Note_on_c,73,76,1,2,1,85.0,False
4688,2680, Note_on_c,72,76,1,2,1,84.0,True
4689,2680, Note_on_c,75,76,1,2,1,87.0,False
4690,2681, Note_on_c,63,76,1,2,1,73.0,False
4691,2682, Note_on_c,68,76,1,2,1,79.0,False
4692,2682, Note_on_c,73,76,1,2,1,85.0,False
4693,2683, Note_on_c,72,76,1,2,1,84.0,True
4694,2683, Note_on_c,75,76,1,2,1,87.0,False
4695,2684, Note_on_c,68,76,1,2,1,79.0,False
4696,2684, Note_on_c,73,76,1,2,1,85.0,False
4697,2685, Note_on_c,70,76,1,2,1,81.0,False
4698,2685, Note_on_c,75,76,1,2,1,87.0,False
4699,2686, Note_on_c,63,76,1,2,1,73.0,False
4700,2687, Note_on_c,68,76,1,2,1,79.0,False
4701,2687, Note_on_c,73,76,1,2,1,85.0,False
4702,2688, Note_on_c,72,76,1,2,1,84.0,True
4703,2688, Note_on_c,75,76,1,2,1,87.0,False
4704,2689, Note_on_c,63,76,1,2,1,73.0,False
4705,2690, Note_on_c,68,76,1,2,1,79.0,False
4706,2690, Note_on_c,73,76,1,2,1,85.0,False
4707,2691, Note_on_c,72,76,1,2,1,84.0,True
4708,2691, Note_on_c,75,76,1,2,1,87.0,False
4709,2692, Note_on_c,68,76,1,2,1,79.0,False
4710,2692, Note_on_c,73,76,1,2,1,85.0,False
4711,2693, Note_on_c,70,76,1,2,1,81.0,False
4712,2693, Note_on_c,75,76,1,2,1,87.0,False
4713,2694, Note_on_c,63,76,1,2,1,73.0,False
4714,2695, Note_on_c,68,76,1,2,1,79.0,False
4715,2695, Note_on_c,73,76,1,2,1,85.0,False
4716,2696, Note_on_c,72,76,1,2,1,84.0,True
4717,2696, Note_on_c,75,76,1,2,1,87.0,False
4718,2697, Note_on_c,63,76,1,2,1,73.0,False
4719,2698, Note_on_c,68,76,1,2,1,79.0,False
4720,2698, Note_on_c,73,76,1,2,1,85.0,False
4721,2699, Note_on_c,72,76,1,2,1,84.0,True
4722,2699, Note_on_c,75,76,1,2,1,87.0,False
4723,2700, Note_on_c,68,76,1,2,1,79.0,False
4724,2700, Note_on_c,73,76,1,2,1,85.0,False
4725,2701, Note_on_c,70,76,1,2,1,81.0,False
4726,2701, Note_on_c,75,76,1,2,1,87.0,False
4727,2702, Note_on_c,63,76,1,2,1,73.0,False
4728,2703, Note_on_c,68,76,1,2,1,79.0,False
4729,2703, Note_on_c,73,76,1,2,1,85.0,False
4730,2704, Note_on_c,72,76,1,2,1,84.0,True
4731,2704, Note_on_c,75,76,1,2,1,87.0,False
4732,2705, Note_on_c,63,76,1,2,1,73.0,False
4733,2706, Note_on_c,68,76,1,2,1,79.0,False
4734,2706, Note_on_c,73,76,1,2,1,85.0,False
4735,2707, Note_on_c,72,76,1,2,1,84.0,True
4736,2707, Note_on_c,75,76,1,2,1,87.0,False
4737,2708, Note_on_c,68,76,1,2,1,79.0,False
4738,2708, Note_on_c,73,76,1,2,1,85.0,False
4739,2709, Note_on_c,70,76,1,2,1,81.0,False
4740,2709, Note_on_c,75,76,1,2,1,87.0,False
4741,2710, Note_on_c,63,76,1,2,1,73.0,False
4742,2711, Note_on_c,68,76,1,2,1,79.0,False
4743,2711, Note_on_c,73,76,1,2,1,85.0,False
4744,2712, Note_on_c,72,76,1,2,1,84.0,True
4745,2712, Note_on_c,75,76,1,2,1,87.0,False
4746,2713, Note_on_c,63,76,1,2,1,73.0,False
4747,2714, Note_on_c,68,76,1,2,1,79.0,False
4748,2714, Note_on_c,73,76,1,2,1,85.0,False
4749,2715, Note_on_c,72,76,1,2,1,84.0,True
4750,2715, Note_on_c,75,76,1,2,1,87.0,False
4751,2716, Note_on_c,68,76,1,2,1,79.0,False
4752,2716, Note_on_c,73,76,1,2,1,85.0,False
4753,2717, Note_on_c,70,76,1,2,1,81.0,False
4754,2717, Note_on_c,75,76,1,2,1,87.0,False
4755,2718, Note_on_c,63,76,1,2,1,73.0,False
4756,2719, Note_on_c,68,76,1,2,1,79.0,False
4757,2719, Note_on_c,73,76,1,2,1,85.0,False
4758,2720, Note_on_c,72,76,1,2,1,84.0,True
4759,2720, Note_on_c,75,76,1,2,1,87.0,False
4760,2721, Note_on_c,63,76,1,2,1,73.0,False
4761,2722, Note_on_c,68,76,1,2,1,79.0,False
4762,2722, Note_on_c,73,76,1,2,1,85.0,False
4763,2723, Note_on_c,72,76,1,2,1,84.0,True
4764,2723, Note_on_c,75,76,1,2,1,87.0,False
4765,2724, Note_on_c,68,76,1,2,1,79.0,False
4766,2724, Note_on_c,73,76,1,2,1,85.0,False
4767,2725, Note_on_c,70,76,1,2,1,81.0,False
4768,2725, Note_on_c,75,76,1,2,1,87.0,False
4769,2726, Note_on_c,63,76,1,2,1,73.0,False
4770,2727, Note_on_c,68,76,1,2,1,79.0,False
4771,2727, Note_on_c,73,76,1,2,1,85.0,False
4772,2728, Note_on_c,72,76,1,2,1,84.0,True
4773,2728, Note_on_c,75,76,1,2,1,87.0,False
4774,2729, Note_on_c,63,76,1,2,1,73.0,False
4775,2730, Note_on_c,68,76,1,2,1,79.0,False
4776,2730, Note_on_c,73,76,1,2,1,85.0,False
4777,2731, Note_on_c,72,76,1,2,1,84.0,True
4778,2731, Note_on_c,75,76,1,2,1,87.0,False
4779,2732, Note_on_c,68,76,1,2,1,79.0,False
4780,2732, Note_on_c,73,76,1,2,1,85.0,False
4781,2733, Note_on_c,70,76,1,2,1,81.0,False
4782,2733, Note_on_c,75,76,1,2,1,87.0,False
4783,2734, Note_on_c,63,76,1,2,1,73.0,False
4784,2735, Note_on_c,68,76,1,2,1,79.0,False
4785,2735, Note_on_c,73,76,1,2,1,85.0,False
4786,2736, Note_on_c,72,76,1,2,1,84.0,True
4787,2736, Note_on_c,75,76,1,2,1,87.0,False
4788,2737, Note_on_c,63,76,1,2,1,73.0,False
4789,2738, Note_on_c,68,76,1,2,1,79.0,False
4790,2738, Note_on_c,73,76,1,2,1,85.0,False
4791,2739, Note_on_c,72,76,1,2,1,84.0,True
4792,2739, Note_on_c,75,76,1,2,1,87.0,False
4793,2740, Note_on_c,68,76,1,2,1,79.0,False
4794,2740, Note_on_c,73,76,1,2,1,85.0,False
4795,2741, Note_on_c,70,76,1,2,1,81.0,False
4796,2741, Note_on_c,75,76,1,2,1,87.0,False
4797,2742, Note_on_c,63,76,1,2,1,73.0,False
4798,2743, Note_on_c,68,76,1,2,1,79.0,False
4799,2743, Note_on_c,73,76,1,2,1,85.0,False
4800,2744, Note_on_c,72,76,1,2,1,84.0,True
4801,2744, Note_on_c,75,76,1,2,1,87.0,False
4802,2745, Note_on_c,63,76,1,2,1,73.0,False
4803,2746, Note_on_c,68,76,1,2,1,79.0,False
4804,2746, Note_on_c,73,76,1,2,1,85.0,False
4805,2747, Note_on_c,72,76,1,2,1,84.0,True
4806,2747, Note_on_c,75,76,1,2,1,87.0,False
4807,2748, Note_on_c,68,76,1,2,1,79.0,False
4808,2748, Note_on_c,73,76,1,2,1,85.0,False
4809,2749, Note_on_c,70,76,1,2,1,81.0,False
4810,2749, Note_on_c,75,76,1,2,1,87.0,False
4811,2750, Note_on_c,63,76,1,2,1,73.0,False
4812,2751, Note_on_c,68,76,1,2,1,79.0,False
4813,2751, Note_on_c,73,76,1,2,1,85.0,False
4814,2752, Note_on_c,72,76,1,2,1,84.0,True
4815,2752, Note_on_c,75,76,1,2,1,87.0,False
4816,2753, Note_on_c,63,76,1,2,1,73.0,False
4817,2754, Note_on_c,68,76,1,2,1,79.0,False
4818,2754, Note_on_c,73,76,1,2,1,85.0,False
4819,2755, Note_on_c,72,76,1,2,1,84.0,True
4820,2755, Note_on_c,75,76,1,2,1,87.0,False
4821,2756, Note_on_c,68,76,1,2,1,79.0,False
4822,2756, Note_on_c,73,76,1,2,1,85.0,False
4823,2757, Note_on_c,70,76,1,2,1,81.0,False
4824,2757, Note_on_c,75,76,1,2,1,87.0,False
4825,2758, Note_on_c,63,76,1,2,1,73.0,False
4826,2759, Note_on_c,68,76,1,2,1,79.0,False
4827,2759, Note_on_c,73,76,1,2,1,85.0,False
4828,2760, Note_on_c,72,76,1,2,1,84.0,True
4829,2760, Note_on_c,75,76,1,2,1,87.0,False
4830,2761, Note_on_c,63,76,1,2,1,73.0,False
4831,2762, Note_on_c,68,76,1,2,1,79.0,False
4832,2762, Note_on_c,73,76,1,2,1,85.0,False
4833,2763, Note_on_c,72,76,1,2,1,84.0,True
4834,2763, Note_on_c,75,76,1,2,1,87.0,False
4835,2764, Note_on_c,68,76,1,2,1,79.0,False
4836,2764, Note_on_c,73,76,1,2,1,85.0,False
4837,2765, Note_on_c,70,76,1,2,1,81.0,False
4838,2765, Note_on_c,75,76,1,2,1,87.0,False
4839,2766, Note_on_c,63,76,1,2,1,73.0,False
4840,2767, Note_on_c,68,76,1,2,1,79.0,False
4841,2767, Note_on_c,73,76,1,2,1,85.0,False
4842,2768, Note_on_c,72,76,1,2,1,84.0,True
4843,2768, Note_on_c,75,76,1,2,1,87.0,False
4844,2769, Note_on_c,63,76,1,2,1,73.0,False
4845,2770, Note_on_c,68,76,1,2,1,79.0,False
4846,2770, Note_on_c,73,76,1,2,1,85.0,False
4847,2771, Note_on_c,72,76,1,2,1,84.0,True
4848,2771, Note_on_c,75,76,1,2,1,87.0,False
4849,2772, Note_on_c,68,76,1,2,1,79.0,False
4850,2772, Note_on_c,73,76,1,2,1,85.0,False
4851,2773, Note_on_c,70,76,1,2,1,81.0,False
4852,2773, Note_on_c,75,76,1,2,1,87.0,False
4853,2774, Note_on_c,63,76,1,2,1,73.0,False
4854,2775, Note_on_c,68,76,1,2,1,79.0,False
4855,2775, Note_on_c,73,76,1,2,1,85.0,False
4856,2776, Note_on_c,72,76,1,2,1,84.0,True
4857,2776, Note_on_c,75,76,1,2,1,87.0,False
4858,2777, Note_on_c,63,76,1,2,1,73.0,False
4859,2778, Note_on_c,68,76,1,2,1,79.0,False
4860,2778, Note_on_c,73,76,1,2,1,85.0,False
4861,2779, Note_on_c,72,76,1,2,1,84.0,True
4862,2779, Note_on_c,75,76,1,2,1,87.0,False
4863,2780, Note_on_c,68,76,1,2,1,79.0,False
4864,2780, Note_on_c,73,76,1,2,1,85.0,False
4865,2781, Note_on_c,70,76,1,2,1,81.0,False
4866,2781, Note_on_c,75,76,1,2,1,87.0,False
4867,2782, Note_on_c,63,76,1,2,1,73.0,False
4868,2783, Note_on_c,68,76,1,2,1,79.0,False
4869,2783, Note_on_c,73,76,1,2,1,85.0,False
4870,2784, Note_on_c,72,76,1,2,1,84.0,True
4871,2784, Note_on_c,75,76,1,2,1,87.0,False
4872,2785, Note_on_c,63,76,1,2,1,73.0,False
4873,2786, Note_on_c,68,76,1,2,1,79.0,False
4874,2786, Note_on_c,73,76,1,2,1,85.0,False
4875,2787, Note_on_c,72,76,1,2,1,84.0,True
4876,2787, Note_on_c,75,76,1,2,1,87.0,False
4877,2788, Note_on_c,68,76,1,2,1,79.0,False
4878,2788, Note_on_c,73,76,1,2,1,85.0,False
4879,2789, Note_on_c,70,76,1,2,1,81.0,False
4880,2789, Note_on_c,75,76,1,2,1,87.0,False
4881,2790, Note_on_c,63,76,1,2,1,73.0,False
4882,2791, Note_on_c,68,76,1,2,1,79.0,False
4883,2791, Note_on_c,73,76,1,2,1,85.0,False
4884,2792, Note_on_c,72,76,1,2,1,84.0,True
4885,2792, Note_on_c,75,76,1,2,1,87.0,False
4886,2793, Note_on_c,63,76,1,2,1,73.0,False
4887,2794, Note_on_c,68,76,1,2,1,79.0,False
4888,2794, Note_on_c,73,76,1,2,1,85.0,False
4889,2795, Note_on_c,72,76,1,2,1,84.0,True
4890,2795, Note_on_c,75,76,1,2,1,87.0,False
4891,2796, Note_on_c,68,76,1,2,1,79.0,False
4892,2796, Note_on_c,73,76,1,2,1,85.0,False
4893,2797, Note_on_c,70,76,1,2,1,81.0,False
4894,2797, Note_on_c,75,76,1,2,1,87.0,False
4895,2798, Note_on_c,63,76,1,2,1,73.0,False
4896,2799, Note_on_c,68,76,1,2,1,79.0,False
4897,2799, Note_on_c,73,76,1,2,1,85.0,False
4898,2800, Note_on_c,72,76,1,2,1,84.0,True
4899,2800, Note_on_c,75,76,1,2,1,87.0,False
4900,2801, Note_on_c,63,76,1,2,1,73.0,False
4901,2802, Note_on_c,68,76,1,2,1,79.0,False
4902,2802, Note_on_c,73,76,1,2,1,85.0,False
4903,2803, Note_on_c,72,76,1,2,1,84.0,True
4904,2803, Note_on_c,75,76,1,2,1,87.0,False
4905,2804, Note_on_c,68,76,1,2,1,79.0,False
4906,2804, Note_on_c,73,76,1,2,1,85.0,False
4907,2805, Note_on_c,70,76,1,2,1,81.0,False
4908,2805, Note_on_c,75,76,1,2,1,87.0,False
4909,2806, Note_on_c,63,76,1,2,1,73.0,False
4910,2807, Note_on_c,68,76,1,2,1,79.0,False
4911,2807, Note_on_c,73,76,1,2,1,85.0,False
4912,2808, Note_on_c,72,76,1,2,1,84.0,True
4913,2808, Note_on_c,75,76,1,2,1,87.0,False
4914,2809, Note_on_c,63,76,1,2,1,73.0,False
4915,2810, Note_on_c,68,76,1,2,1,79.0,False
4916,2810, Note_on_c,73,76,1,2,1,85.0,False
4917,2811, Note_on_c,72,76,1,2,1,84.0,True
4918,2811, Note_on_c,75,76,1,2,1,87.0,False
4919,2812, Note_on_c,68,76,1,2,1,79.0,False
4920,2812, Note_on_c,73,76,1,2,1,85.0,False
4921,2813, Note_on_c,70,76,1,2,1,81.0,False
4922,2813, Note_on_c,75,76,1,2,1,87.0,False
4923,2814, Note_on_c,63,76,1,2,1,73.0,False
4924,2815, Note_on_c,68,76,1,2,1,79.0,False
4925,2815, Note_on_c,73,76,1,2,1,85.0,False
4926,2816, Note_on_c,72,76,1,2,1,84.0,True
4927,2816, Note_on_c,75,76,1,2,1,87.0,False
4928,2817, Note_on_c,63,76,1,2,1,73.0,False
4929,2818, Note_on_c,68,76,1,2,1,79.0,False
4930,2818, Note_on_c,73,76,1,2,1,85.0,False
4931,2819, Note_on_c,72,76,1,2,1,84.0,True
4932,2819, Note_on_c,75,76,1,2,1,87.0,False
4933,2820, Note_on_c,68,76,1,2,1,79.0,False
4934,2820, Note_on_c,73,76,1,2,1,85.0,False
4935,2821, Note_on_c,70,76,1,2,1,81.0,False
4936,2821, Note_on_c,75,76,1,2,1,87.0,False
4937,2822, Note_on_c,63,76,1,2,1,73.0,False
4938,2823, Note_on_c,68,76,1,2,1,79.0,False
4939,2823, Note_on_c,73,76,1,2,1,85.0,False
4940,2824, Note_on_c,72,76,1,2,1,84.0,True
4941,2824, Note_on_c,75,76,1,2,1,87.0,False
4942,2825, Note_on_c,63,76,1,2,1,73.0,False
4943,2826, Note_on_c,68,76,1,2,1,79.0,False
4944,2826, Note_on_c,73,76,1,2,1,85.0,False
4945,2827, Note_on_c,72,76,1,2,1,84.0,True
4946,2827, Note_on_c,75,76,1,2,1,87.0,False
4947,2828, Note_on_c,68,76,1,2,1,79.0,False
4948,2828, Note_on_c,73,76,1,2,1,85.0,False
4949,2829, Note_on_c,70,76,1,2,1,81.0,False
4950,2829, Note_on_c,75,76,1,2,1,87.0,False
4951,2830, Note_on_c,63,76,1,2,1,73.0,False
4952,2831, Note_on_c,68,76,1,2,1,79.0,False
4953,2831, Note_on_c,73,76,1,2,1,85.0,False
4954,2832, Note_on_c,72,76,1,2,1,84.0,True
4955,2832, Note_on_c,75,76,1,2,1,87.0,False
4956,2833, Note_on_c,63,76,1,2,1,73.0,False
4957,2834, Note_on_c,68,76,1,2,1,79.0,False
4958,2834, Note_on_c,73,76,1,2,1,85.0,False
4959,2835, Note_on_c,72,76,1,2,1,84.0,True
4960,2835, Note_on_c,75,76,1,2,1,87.0,False
4961,2836, Note_on_c,68,76,1,2,1,79.0,False
4962,2836, Note_on_c,73,76,1,2,1,85.0,False
4963,2837, Note_on_c,70,76,1,2,1,81.0,False
4964,2837, Note_on_c,75,76,1,2,1,87.0,False
4965,2838, Note_on_c,63,76,1,2,1,73.0,False
4966,2839, Note_on_c,68,76,1,2,1,79.0,False
4967,2839, Note_on_c,73,76,1,2,1,85.0,False
4968,2840, Note_on_c,72,76,1,2,1,84.0,True
4969,2840, Note_on_c,75,76,1,2,1,87.0,False
4970,2841, Note_on_c,63,76,1,2,1,73.0,False
4971,2842, Note_on_c,68,76,1,2,1,79.0,False
4972,2842, Note_on_c,73,76,1,2,1,85.0,False
4973,2843, Note_on_c,72,76,1,2,1,84.0,True
4974,2843, Note_on_c,75,76,1,2,1,87.0,False
4975,2844, Note_on_c,68,76,1,2,1,79.0,False
4976,2844, Note_on_c,73,76,1,2,1,85.0,False
4977,2845, Note_on_c,70,76,1,2,1,81.0,False
4978,2845, Note_on_c,75,76,1,2,1,87.0,False
4979,2846, Note_on_c,63,76,1,2,1,73.0,False
4980,2847, Note_on_c,68,76,1,2,1,79.0,False
4981,2847, Note_on_c,73,76,1,2,1,85.0,False
4982,2848, Note_on_c,72,76,1,2,1,84.0,True
4983,2848, Note_on_c,75,76,1,2,1,87.0,False
4984,2849, Note_on_c,63,76,1,2,1,73.0,False
4985,2850, Note_on_c,68,76,1,2,1,79.0,False
4986,2850, Note_on_c,73,76,1,2,1,85.0,False
4987,2851, Note_on_c,72,76,1,2,1,84.0,True
4988,2851, Note_on_c,75,76,1,2,1,87.0,False
4989,2852, Note_on_c,68,76,1,2,1,79.0,False
4990,2852, Note_on_c,73,76,1,2,1,85.0,False
4991,2853, Note_on_c,70,76,1,2,1,81.0,False
4992,2853, Note_on_c,75,76,1,2,1,87.0,False
4993,2854, Note_on_c,63,76,1,2,1,73.0,False
4994,2855, Note_on_c,68,76,1,2,1,79.0,False
4995,2855, Note_on_c,73,76,1,2,1,85.0,False
4996,2856, Note_on_c,72,76,1,2,1,84.0,True
4997,2856, Note_on_c,75,76,1,2,1,87.0,False
4998,2857, Note_on_c,63,76,1,2,1,73.0,False
4999,2858, Note_on_c,68,76,1,2,1,79.0,False
5000,2858, Note_on_c,73,76,1,2,1,85.0,False
5001,2859, Note_on_c,72,76,1,2,1,84.0,True
5002,2859, Note_on_c,75,76,1,2,1,87.0,False
5003,2860, Note_on_c,68,76,1,2,1,79.0,False
5004,2860, Note_on_c,73,76,1,2,1,85.0,False
5005,2861, Note_on_c,70,76,1,2,1,81.0,False
5006,2861, Note_on_c,75,76,1,2,1,87.0,False
5007,2862, Note_on_c,63,76,1,2,1,73.0,False
5008,2863, Note_on_c,68,76,1,2,1,79.0,False
5009,2863, Note_on_c,73,76,1,2,1,85.0,False
5010,2864, Note_on_c,72,76,1,2,1,84.0,True
5011,2864, Note_on_c,75,76,1,2,1,87.0,False
5012,2865, Note_on_c,63,76,1,2,1,73.0,False
5013,2866, Note_on_c,68,76,1,2,1,79.0,False
5014,2866, Note_on_c,73,76,1,2,1,85.0,False
5015,2867, Note_on_c,72,76,1,2,1,84.0,True
5016,2867, Note_on_c,75,76,1,2,1,87.0,False
5017,2868, Note_on_c,68,76,1,2,1,79.0,False
5018,2868, Note_on_c,73,76,1,2,1,85.0,False
5019,2869, Note_on_c,70,76,1,2,1,81.0,False
5020,2869, Note_on_c,75,76,1,2,1,87.0,False
5021,2870, Note_on_c,63,76,1,2,1,73.0,False
5022,2871, Note_on_c,68,76,1,2,1,79.0,False
5023,2871, Note_on_c,73,76,1,2,1,85.0,False
5024,2872, Note_on_c,72,76,1,2,1,84.0,True
5025,2872, Note_on_c,75,76,1,2,1,87.0,False
5026,2873, Note_on_c,63,76,1,2,1,73.0,False
5027,2874, Note_on_c,68,76,1,2,1,79.0,False
5028,2874, Note_on_c,73,76,1,2,1,85.0,False
5029,2875, Note_on_c,72,76,1,2,1,84.0,True
5030,2875, Note_on_c,75,76,1,2,1,87.0,False
5031,2876, Note_on_c,68,76,1,2,1,79.0,False
5032,2876, Note_on_c,73,76,1,2,1,85.0,False
5033,2877, Note_on_c,70,76,1,2,1,81.0,False
5034,2877, Note_on_c,75,76,1,2,1,87.0,False
5035,2878, Note_on_c,63,76,1,2,1,73.0,False
5036,2879, Note_on_c,68,76,1,2,1,79.0,False
5037,2879, Note_on_c,73,76,1,2,1,85.0,False
5038,2880, Note_on_c,72,76,1,2,1,84.0,True
5039,2880, Note_on_c,75,76,1,2,1,87.0,False
5040,2881, Note_on_c,63,76,1,2,1,73.0,False
5041,2882, Note_on_c,68,76,1,2,1,79.0,False
5042,2882, Note_on_c,73,76,1,2,1,85.0,False
5043,2883, Note_on_c,72,76,1,2,1,84.0,True
5044,2883, Note_on_c,75,76,1,2,1,87.0,False
5045,2884, Note_on_c,68,76,1,2,1,79.0,False
5046,2884, Note_on_c,73,76,1,2,1,85.0,False
5047,2885, Note_on_c,70,76,1,2,1,81.0,False
5048,2885, Note_on_c,75,76,1,2,1,87.0,False
5049,2886, Note_on_c,63,76,1,2,1,73.0,False
5050,2887, Note_on_c,68,76,1,2,1,79.0,False
5051,2887, Note_on_c,73,76,1,2,1,85.0,False
5052,2888, Note_on_c,72,76,1,2,1,84.0,True
5053,2888, Note_on_c,75,76,1,2,1,87.0,False
5054,2889, Note_on_c,63,76,1,2,1,73.0,False
5055,2890, Note_on_c,68,76,1,2,1,79.0,False
5056,2890, Note_on_c,73,76,1,2,1,85.0,False
5057,2891, Note_on_c,72,76,1,2,1,84.0,True
5058,2891, Note_on_c,75,76,1,2,1,87.0,False
5059,2892, Note_on_c,68,76,1,2,1,79.0,False
5060,2892, Note_on_c,73,76,1,2,1,85.0,False
5061,2893, Note_on_c,70,76,1,2,1,81.0,False
5062,2893, Note_on_c,75,76,1,2,1,87.0,False
5063,2894, Note_on_c,63,76,1,2,1,73.0,False
5064,2895, Note_on_c,68,76,1,2,1,79.0,False
5065,2895, Note_on_c,73,76,1,2,1,85.0,False
5066,2896, Note_on_c,72,76,1,2,1,84.0,True
5067,2896, Note_on_c,75,76,1,2,1,87.0,False
5068,2897, Note_on_c,63,76,1,2,1,73.0,False
5069,2898, Note_on_c,68,76,1,2,1,79.0,False
5070,2898, Note_on_c,73,76,1,2,1,85.0,False
5071,2899, Note_on_c,72,76,1,2,1,84.0,True
5072,2899, Note_on_c,75,76,1,2,1,87.0,False
5073,2900, Note_on_c,68,76,1,2,1,79.0,False
5074,2900, Note_on_c,73,76,1,2,1,85.0,False
5075,2901, Note_on_c,70,76,1,2,1,81.0,False
5076,2901, Note_on_c,75,76,1,2,1,87.0,False
5077,2902, Note_on_c,63,76,1,2,1,73.0,False
5078,2903, Note_on_c,68,76,1,2,1,79.0,False
5079,2903, Note_on_c,73,76,1,2,1,85.0,False
5080,2904, Note_on_c,72,76,1,2,1,84.0,True
5081,2904, Note_on_c,75,76,1,2,1,87.0,False
5082,2905, Note_on_c,63,76,1,2,1,73.0,False
5083,2906, Note_on_c,68,76,1,2,1,79.0,False
5084,2906, Note_on_c,73,76,1,2,1,85.0,False
5085,2907, Note_on_c,72,76,1,2,1,84.0,True
5086,2907, Note_on_c,75,76,1,2,1,87.0,False
5087,2908, Note_on_c,68,76,1,2,1,79.0,False
5088,2908, Note_on_c,73,76,1,2,1,85.0,False
5089,2909, Note_on_c,70,76,1,2,1,81.0,False
5090,2909, Note_on_c,75,76,1,2,1,87.0,False
5091,2910, Note_on_c,63,76,1,2,1,73.0,False
5092,2911, Note_on_c,68,76,1,2,1,79.0,False
5093,2911, Note_on_c,73,76,1,2,1,85.0,False
5094,2912, Note_on_c,72,76,1,2,1,84.0,True
5095,2912, Note_on_c,75,76,1,2,1,87.0,False
5096,2913, Note_on_c,63,76,1,2,1,73.0,False
5097,2914, Note_on_c,68,76,1,2,1,79.0,False
5098,2914, Note_on_c,73,76,1,2,1,85.0,False
5099,2915, Note_on_c,72,76,1,2,1,84.0,True
5100,2915, Note_on_c,75,76,1,2,1,87.0,False
5101,2916, Note_on_c,68,76,1,2,1,79.0,False
5102,2916, Note_on_c,73,76,1,2,1,85.0,False
5103,2917, Note_on_c,70,76,1,2,1,81.0,False
5104,2917, Note_on_c,75,76,1,2,1,87.0,False
5105,2918, Note_on_c,63,76,1,2,1,73.0,False
5106,2919, Note_on_c,68,76,1,2,1,79.0,False
5107,2919, Note_on_c,73,76,1,2,1,85.0,False
5108,2920, Note_on_c,72,76,1,2,1,84.0,True
5109,2920, Note_on_c,75,76,1,2,1,87.0,False
5110,2921, Note_on_c,63,76,1,2,1,73.0,False
5111,2922, Note_on_c,68,76,1,2,1,79.0,False
5112,2922, Note_on_c,73,76,1,2,1,85.0,False
5113,2923, Note_on_c,72,76,1,2,1,84.0,True
5114,2923, Note_on_c,75,76,1,2,1,87.0,False
5115,2924, Note_on_c,68,76,1,2,1,79.0,False
5116,2924, Note_on_c,73,76,1,2,1,85.0,False
5117,2925, Note_on_c,70,76,1,2,1,81.0,False
5118,2925, Note_on_c,75,76,1,2,1,87.0,False
5119,2926, Note_on_c,63,76,1,2,1,73.0,False
5120,2927, Note_on_c,68,76,1,2,1,79.0,False
5121,2927, Note_on_c,73,76,1,2,1,85.0,False
5122,2928, Note_on_c,72,76,1,2,1,84.0,True
5123,2928, Note_on_c,75,76,1,2,1,87.0,False
5124,2929, Note_on_c,63,76,1,2,1,73.0,False
5125,2930, Note_on_c,68,76,1,2,1,79.0,False
5126,2930, Note_on_c,73,76,1,2,1,85.0,False
5127,2931, Note_on_c,72,76,1,2,1,84.0,True
5128,2931, Note_on_c,75,76,1,2,1,87.0,False
5129,2932, Note_on_c,68,76,1,2,1,79.0,False
5130,2932, Note_on_c,73,76,1,2,1,85.0,False
5131,2933, Note_on_c,70,76,1,2,1,81.0,False
5132,2933, Note_on_c,75,76,1,2,1,87.0,False
5133,2934, Note_on_c,63,76,1,2,1,73.0,False
5134,2935, Note_on_c,68,76,1,2,1,79.0,False
5135,2935, Note_on_c,73,76,1,2,1,85.0,False
5136,2936, Note_on_c,72,76,1,2,1,84.0,True
5137,2936, Note_on_c,75,76,1,2,1,87.0,False
5138,2937, Note_on_c,63,76,1,2,1,73.0,False
5139,2938, Note_on_c,68,76,1,2,1,79.0,False
5140,2938, Note_on_c,73,76,1,2,1,85.0,False
5141,2939, Note_on_c,72,76,1,2,1,84.0,True
5142,2939, Note_on_c,75,76,1,2,1,87.0,False
5143,2940, Note_on_c,68,76,1,2,1,79.0,False
5144,2940, Note_on_c,73,76,1,2,1,85.0,False
5145,2941, Note_on_c,70,76,1,2,1,81.0,False
5146,2941, Note_on_c,75,76,1,2,1,87.0,False
5147,2942, Note_on_c,63,76,1,2,1,73.0,False
5148,2943, Note_on_c,68,76,1,2,1,79.0,False
5149,2943, Note_on_c,73,76,1,2,1,85.0,False
5150,2944, Note_on_c,72,76,1,2,1,84.0,True
5151,2944, Note_on_c,75,76,1,2,1,87.0,False
5152,2945, Note_on_c,63,76,1,2,1,73.0,False
5153,2946, Note_on_c,68,76,1,2,1,79.0,False
5154,2946, Note_on_c,73,76,1,2,1,85.0,False
5155,2947, Note_on_c,72,76,1,2,1,84.0,True
5156,2947, Note_on_c,75,76,1,2,1,87.0,False
5157,2948, Note_on_c,68,76,1,2,1,79.0,False
5158,2948, Note_on_c,73,76,1,2,1,85.0,False
5159,2949, Note_on_c,70,76,1,2,1,81.0,False
5160,2949, Note_on_c,75,76,1,2,1,87.0,False
5161,2950, Note_on_c,63,76,1,2,1,73.0,False
5162,2951, Note_on_c,68,76,1,2,1,79.0,False
5163,2951, Note_on_c,73,76,1,2,1,85.0,False
5164,2952, Note_on_c,72,76,1,2,1,84.0,True
5165,2952, Note_on_c,75,76,1,2,1,87.0,False
5166,2953, Note_on_c,63,76,1,2,1,73.0,False
5167,2954, Note_on_c,68,76,1,2,1,79.0,False
5168,2954, Note_on_c,73,76,1,2,1,85.0,False
5169,2955, Note_on_c,72,76,1,2,1,84.0,True
5170,2955, Note_on_c,75,76,1,2,1,87.0,False
5171,2956, Note_on_c,68,76,1,2,1,79.0,False
5172,2956, Note_on_c,73,76,1,2,1,85.0,False
5173,2957, Note_on_c,70,76,1,2,1,81.0,False
5174,2957, Note_on_c,75,76,1,2,1,87.0,False
5175,2958, Note_on_c,63,76,1,2,1,73.0,False
5176,2959, Note_on_c,68,76,1,2,1,79.0,False
5177,2959, Note_on_c,73,76,1,2,1,85.0,False
5178,2960, Note_on_c,72,76,1,2,1,84.0,True
5179,2960, Note_on_c,75,76,1,2,1,87.0,False
5180,2961, Note_on_c,63,76,1,2,1,73.0,False
5181,2962, Note_on_c,68,76,1,2,1,79.0,False
5182,2962, Note_on_c,73,76,1,2,1,85.0,False
5183,2963, Note_on_c,72,76,1,2,1,84.0,True
5184,2963, Note_on_c,75,76,1,2,1,87.0,False
5185,2964, Note_on_c,68,76,1,2,1,79.0,False
5186,2964, Note_on_c,73,76,1,2,1,85.0,False
5187,2965, Note_on_c,70,76,1,2,1,81.0,False
5188,2965, Note_on_c,75,76,1,2,1,87.0,False
5189,2966, Note_on_c,63,76,1,2,1,73.0,False
5190,2967, Note_on_c,68,76,1,2,1,79.0,False
5191,2967, Note_on_c,73,76,1,2,1,85.0,False
5192,2968, Note_on_c,72,76,1,2,1,84.0,True
5193,2968, Note_on_c,75,76,1,2,1,87.0,False
5194,2969, Note_on_c,63,76,1,2,1,73.0,False
5195,2970, Note_on_c,68,76,1,2,1,79.0,False
5196,2970, Note_on_c,73,76,1,2,1,85.0,False
5197,2971, Note_on_c,72,76,1,2,1,84.0,True
5198,2971, Note_on_c,75,76,1,2,1,87.0,False
5199,2972, Note_on_c,68,76,1,2,1,79.0,False
5200,2972, Note_on_c,73,76,1,2,1,85.0,False
5201,2973, Note_on_c,70,76,1,2,1,81.0,False
5202,2973, Note_on_c,75,76,1,2,1,87.0,False
5203,2974, Note_on_c,63,76,1,2,1,73.0,False
5204,2975, Note_on_c,68,76,1,2,1,79.0,False
5205,2975, Note_on_c,73,76,1,2,1,85.0,False
5206,2976, Note_on_c,72,76,1,2,1,84.0,True
5207,2976, Note_on_c,75,76,1,2,1,87.0,False
5208,2977, Note_on_c,63,76,1,2,1,73.0,False
5209,2978, Note_on_c,68,76,1,2,1,79.0,False
5210,2978, Note_on_c,73,76,1,2,1,85.0,False
5211,2979, Note_on_c,72,76,1,2,1,84.0,True
5212,2979, Note_on_c,75,76,1,2,1,87.0,False
5213,2980, Note_on_c,68,76,1,2,1,79.0,False
5214,2980, Note_on_c,73,76,1,2,1,85.0,False
5215,2981, Note_on_c,70,76,1,2,1,81.0,False
5216,2981, Note_on_c,75,76,1,2,1,87.0,False
5217,2982, Note_on_c,63,76,1,2,1,73.0,False
5218,2983, Note_on_c,68,76,1,2,1,79.0,False
5219,2983, Note_on_c,73,76,1,2,1,85.0,False
5220,2984, Note_on_c,72,76,1,2,1,84.0,True
5221,2984, Note_on_c,75,76,1,2,1,87.0,False
5222,2985, Note_on_c,63,76,1,2,1,73.0,False
5223,2986, Note_on_c,68,76,1,2,1,79.0,False
5224,2986, Note_on_c,73,76,1,2,1,85.0,False
5225,2987, Note_on_c,72,76,1,2,1,84.0,True
5226,2987, Note_on_c,75,76,1,2,1,87.0,False
5227,2988, Note_on_c,68,76,1,2,1,79.0,False
5228,2988, Note_on_c,73,76,1,2,1,85.0,False
5229,2989, Note_on_c,70,76,1,2,1,81.0,False
5230,2989, Note_on_c,75,76,1,2,1,87.0,False
5231,2990, Note_on_c,63,76,1,2,1,73.0,False
5232,2991, Note_on_c,68,76,1,2,1,79.0,False
5233,2991, Note_on_c,73,76,1,2,1,85.0,False
5234,2992, Note_on_c,72,76,1,2,1,84.0,True
5235,2992, Note_on_c,75,76,1,2,1,87.0,False
5236,2993, Note_on_c,63,76,1,2,1,73.0,False
5237,2994, Note_on_c,68,76,1,2,1,79.0,False
5238,2994, Note_on_c,73,76,1,2,1,85.0,False
5239,2995, Note_on_c,72,76,1,2,1,84.0,True
5240,2995, Note_on_c,75,76,1,2,1,87.0,False
5241,2996, Note_on_c,68,76,1,2,1,79.0,False
5242,2996, Note_on_c,73,76,1,2,1,85.0,False
5243,2997, Note_on_c,70,76,1,2,1,81.0,False
5244,2997, Note_on_c,75,76,1,2,1,87.0,False
5245,2998, Note_on_c,63,76,1,2,1,73.0,False
5246,2999, Note_on_c,68,76,1,2,1,79.0,False
5247,2999, Note_on_c,73,76,1,2,1,85.0,False
5248,3000, Note_on_c,72,76,1,2,1,84.0,True
5249,3000, Note_on_c,75,76,1,2,1,87.0,False
5250,3001, Note_on_c,63,76,1,2,1,73.0,False
5251,3002, Note_on_c,68,76,1,2,1,79.0,False
5252,3002, Note_on_c,73,76,1,2,1,85.0,False
5253,3003, Note_on_c,72,76,1,2,1,84.0,True
5254,3003, Note_on_c,75,76,1,2,1,87.0,False
5255,3004, Note_on_c,68,76,1,2,1,79.0,False
5256,3004, Note_on_c,73,76,1,2,1,85.0,False
5257,3005, Note_on_c,70,76,1,2,1,81.0,False
5258,3005, Note_on_c,75,76,1,2,1,87.0,False
5259,3006, Note_on_c,63,76,1,2,1,73.0,False
5260,3007, Note_on_c,68,76,1,2,1,79.0,False
5261,3007, Note_on_c,73,76,1,2,1,85.0,False
5262,3008, Note_on_c,72,76,1,2,1,84.0,True
5263,3008, Note_on_c,75,76,1,2,1,87.0,False
5264,3009, Note_on_c,63,76,1,2,1,73.0,False
5265,3010, Note_on_c,68,76,1,2,1,79.0,False
5266,3010, Note_on_c,73,76,1,2,1,85.0,False
5267,3011, Note_on_c,72,76,1,2,1,84.0,True
5268,3011, Note_on_c,75,76,1,2,1,87.0,False
5269,3012, Note_on_c,68,76,1,2,1,79.0,False
5270,3012, Note_on_c,73,76,1,2,1,85.0,False
5271,3013, Note_on_c,70,76,1,2,1,81.0,False
5272,3013, Note_on_c,75,76,1,2,1,87.0,False
5273,3014, Note_on_c,63,76,1,2,1,73.0,False
5274,3015, Note_on_c,68,76,1,2,1,79.0,False
5275,3015, Note_on_c,73,76,1,2,1,85.0,False
5276,3016, Note_on_c,72,76,1,2,1,84.0,True
5277,3016, Note_on_c,75,76,1,2,1,87.0,False
5278,3017, Note_on_c,63,76,1,2,1,73.0,False
5279,3018, Note_on_c,68,76,1,2,1,79.0,False
5280,3018, Note_on_c,73,76,1,2,1,85.0,False
5281,3019, Note_on_c,72,76,1,2,1,84.0,True
5282,3019, Note_on_c,75,76,1,2,1,87.0,False
5283,3020, Note_on_c,68,76,1,2,1,79.0,False
5284,3020, Note_on_c,73,76,1,2,1,85.0,False
5285,3021, Note_on_c,70,76,1,2,1,81.0,False
5286,3021, Note_on_c,75,76,1,2,1,87.0,False
5287,3022, Note_on_c,63,76,1,2,1,73.0,False
5288,3023, Note_on_c,68,76,1,2,1,79.0,False
5289,3023, Note_on_c,73,76,1,2,1,85.0,False
5290,3024, Note_on_c,72,76,1,2,1,84.0,True
5291,3024, Note_on_c,75,76,1,2,1,87.0,False
5292,3025, Note_on_c,63,76,1,2,1,73.0,False
5293,3026, Note_on_c,68,76,1,2,1,79.0,False
5294,3026, Note_on_c,73,76,1,2,1,85.0,False
5295,3027, Note_on_c,72,76,1,2,1,84.0,True
5296,3027, Note_on_c,75,76,1,2,1,87.0,False
5297,3028, Note_on_c,68,76,1,2,1,79.0,False
5298,3028, Note_on_c,73,76,1,2,1,85.0,False
5299,3029, Note_on_c,70,76,1,2,1,81.0,False
5300,3029, Note_on_c,75,76,1,2,1,87.0,False
5301,3030, Note_on_c,63,76,1,2,1,73.0,False
5302,3031, Note_on_c,68,76,1,2,1,79.0,False
5303,3031, Note_on_c,73,76,1,2,1,85.0,False
5304,3032, Note_on_c,72,76,1,2,1,84.0,True
5305,3032, Note_on_c,75,76,1,2,1,87.0,False
5306,3033, Note_on_c,63,76,1,2,1,73.0,False
5307,3034, Note_on_c,68,76,1,2,1,79.0,False
5308,3034, Note_on_c,73,76,1,2,1,85.0,False
5309,3035, Note_on_c,72,76,1,2,1,84.0,True
5310,3035, Note_on_c,75,76,1,2,1,87.0,False
5311,3036, Note_on_c,68,76,1,2,1,79.0,False
5312,3036, Note_on_c,73,76,1,2,1,85.0,False
5313,3037, Note_on_c,70,76,1,2,1,81.0,False
5314,3037, Note_on_c,75,76,1,2,1,87.0,False
5315,3038, Note_on_c,63,76,1,2,1,73.0,False
5316,3039, Note_on_c,68,76,1,2,1,79.0,False
5317,3039, Note_on_c,73,76,1,2,1,85.0,False
5318,3040, Note_on_c,72,76,1,2,1,84.0,True
5319,3040, Note_on_c,75,76,1,2,1,87.0,False
5320,3041, Note_on_c,63,76,1,2,1,73.0,False
5321,3042, Note_on_c,68,76,1,2,1,79.0,False
5322,3042, Note_on_c,73,76,1,2,1,85.0,False
5323,3043, Note_on_c,72,76,1,2,1,84.0,True
5324,3043, Note_on_c,75,76,1,2,1,87.0,False
5325,3044, Note_on_c,68,76,1,2,1,79.0,False
5326,3044, Note_on_c,73,76,1,2,1,85.0,False
5327,3045, Note_on_c,70,76,1,2,1,81.0,False
5328,3045, Note_on_c,75,76,1,2,1,87.0,False
5329,3046, Note_on_c,63,76,1,2,1,73.0,False
5330,3047, Note_on_c,68,76,1,2,1,79.0,False
5331,3047, Note_on_c,73,76,1,2,1,85.0,False
5332,3048, Note_on_c,72,76,1,2,1,84.0,True
5333,3048, Note_on_c,75,76,1,2,1,87.0,False
5334,3049, Note_on_c,63,76,1,2,1,73.0,False
5335,3050, Note_on_c,68,76,1,2,1,79.0,False
5336,3050, Note_on_c,73,76,1,2,1,85.0,False
5337,3051, Note_on_c,72,76,1,2,1,84.0,True
5338,3051, Note_on_c,75,76,1,2,1,87.0,False
5339,3052, Note_on_c,68,76,1,2,1,79.0,False
5340,3052, Note_on_c,73,76,1,2,1,85.0,False
5341,3053, Note_on_c,70,76,1,2,1,81.0,False
5342,3053, Note_on_c,75,76,1,2,1,87.0,False
5343,3054, Note_on_c,63,76,1,2,1,73.0,False
5344,3055, Note_on_c,68,76,1,2,1,79.0,False
5345,3055, Note_on_c,73,76,1,2,1,85.0,False
5346,3056, Note_on_c,72,76,1,2,1,84.0,True
5347,3056, Note_on_c,75,76,1,2,1,87.0,False
5348,3057, Note_on_c,63,76,1,2,1,73.0,False
5349,3058, Note_on_c,68,76,1,2,1,79.0,False
5350,3058, Note_on_c,73,76,1,2,1,85.0,False
5351,3059, Note_on_c,72,76,1,2,1,84.0,True
5352,3059, Note_on_c,75,76,1,2,1,87.0,False
5353,3060, Note_on_c,68,76,1,2,1,79.0,False
5354,3060, Note_on_c,73,76,1,2,1,85.0,False
5355,3061, Note_on_c,70,76,1,2,1,81.0,False
5356,3061, Note_on_c,75,76,1,2,1,87.0,False
5357,3062, Note_on_c,63,76,1,2,1,73.0,False
5358,3063, Note_on_c,68,76,1,2,1,79.0,False
5359,3063, Note_on_c,73,76,1,2,1,85.0,False
5360,3064, Note_on_c,72,76,1,2,1,84.0,True
5361,3064, Note_on_c,75,76,1,2,1,87.0,False
5362,3065, Note_on_c,63,76,1,2,1,73.0,False
5363,3066, Note_on_c,68,76,1,2,1,79.0,False
5364,3066, Note_on_c,73,76,1,2,1,85.0,False
5365,3067, Note_on_c,72,76,1,2,1,84.0,True
5366,3067, Note_on_c,75,76,1,2,1,87.0,False
5367,3068, Note_on_c,68,76,1,2,1,79.0,False
5368,3068, Note_on_c,73,76,1,2,1,85.0,False
5369,3069, Note_on_c,70,76,1,2,1,81.0,False
5370,3069, Note_on_c,75,76,1,2,1,87.0,False
5371,3070, Note_on_c,63,76,1,2,1,73.0,False
5372,3071, Note_on_c,68,76,1,2,1,79.0,False
5373,3071, Note_on_c,73,76,1,2,1,85.0,False
5374,3072, Note_on_c,72,76,1,2,1,84.0,True
5375,3072, Note_on_c,75,76,1,2,1,87.0,False
5376,3073, Note_on_c,63,76,1,2,1,73.0,False
5377,3074, Note_on_c,68,76,1,2,1,79.0,False
5378,3074, Note_on_c,73,76,1,2,1,85.0,False
5379,3075, Note_on_c,72,76,1,2,1,84.0,True
5380,3075, Note_on_c,75,76,1,2,1,87.0,False
5381,3076, Note_on_c,68,76,1,2,1,79.0,False
5382,3076, Note_on_c,73,76,1,2,1,85.0,False
5383,3077, Note_on_c,70,76,1,2,1,81.0,False
5384,3077, Note_on_c,75,76,1,2,1,87.0,False
5385,3078, Note_on_c,63,76,1,2,1,73.0,False
5386,3079, Note_on_c,68,76,1,2,1,79.0,False
5387,3079, Note_on_c,73,76,1,2,1,85.0,False
5388,3080, Note_on_c,72,76,1,2,1,84.0,True
5389,3080, Note_on_c,75,76,1,2,1,87.0,False
5390,3081, Note_on_c,63,76,1,2,1,73.0,False
5391,3082, Note_on_c,68,76,1,2,1,79.0,False
5392,3082, Note_on_c,73,76,1,2,1,85.0,False
5393,3083, Note_on_c,72,76,1,2,1,84.0,True
5394,3083, Note_on_c,75,76,1,2,1,87.0,False
5395,3084, Note_on_c,68,76,1,2,1,79.0,False
5396,3084, Note_on_c,73,76,1,2,1,85.0,False
5397,3085, Note_on_c,70,76,1,2,1,81.0,False
5398,3085, Note_on_c,75,76,1,2,1,87.0,False
5399,3086, Note_on_c,63,76,1,2,1,73.0,False
5400,3087, Note_on_c,68,76,1,2,1,79.0,False
5401,3087, Note_on_c,73,76,1,2,1,85.0,False
5402,3088, Note_on_c,72,76,1,2,1,84.0,True
5403,3088, Note_on_c,75,76,1,2,1,87.0,False
5404,3089, Note_on_c,63,76,1,2,1,73.0,False
5405,3090, Note_on_c,68,76,1,2,1,79.0,False
5406,3090, Note_on_c,73,76,1,2,1,85.0,False
5407,3091, Note_on_c,72,76,1,2,1,84.0,True
5408,3091, Note_on_c,75,76,1,2,1,87.0,False
5409,3092, Note_on_c,68,76,1,2,1,79.0,False
5410,3092, Note_on_c,73,76,1,2,1,85.0,False
5411,3093, Note_on_c,70,76,1,2,1,81.0,False
5412,3093, Note_on_c,75,76,1,2,1,87.0,False
5413,3094, Note_on_c,63,76,1,2,1,73.0,False
5414,3095, Note_on_c,68,76,1,2,1,79.0,False
5415,3095, Note_on_c,73,76,1,2,1,85.0,False
5416,3096, Note_on_c,72,76,1,2,1,84.0,True
5417,3096, Note_on_c,75,76,1,2,1,87.0,False
5418,3097, Note_on_c,63,76,1,2,1,73.0,False
5419,3098, Note_on_c,68,76,1,2,1,79.0,False
5420,3098, Note_on_c,73,76,1,2,1,85.0,False
5421,3099, Note_on_c,72,76,1,2,1,84.0,True
5422,3099, Note_on_c,75,76,1,2,1,87.0,False
5423,3100, Note_on_c,68,76,1,2,1,79.0,False
5424,3100, Note_on_c,73,76,1,2,1,85.0,False
5425,3101, Note_on_c,70,76,1,2,1,81.0,False
5426,3101, Note_on_c,75,76,1,2,1,87.0,False
5427,3102, Note_on_c,63,76,1,2,1,73.0,False
5428,3103, Note_on_c,68,76,1,2,1,79.0,False
5429,3103, Note_on_c,73,76,1,2,1,85.0,False
5430,3104, Note_on_c,72,76,1,2,1,84.0,True
5431,3104, Note_on_c,75,76,1,2,1,87.0,False
5432,3105, Note_on_c,63,76,1,2,1,73.0,False
5433,3106, Note_on_c,68,76,1,2,1,79.0,False
5434,3106, Note_on_c,73,76,1,2,1,85.0,False
5435,3107, Note_on_c,72,76,1,2,1,84.0,True
5436,3107, Note_on_c,75,76,1,2,1,87.0,False
5437,3108, Note_on_c,68,76,1,2,1,79.0,False
5438,3108, Note_on_c,73,76,1,2,1,85.0,False
5439,3109, Note_on_c,70,76,1,2,1,81.0,False
5440,3109, Note_on_c,75,76,1,2,1,87.0,False
5441,3110, Note_on_c,63,76,1,2,1,73.0,False
5442,3111, Note_on_c,68,76,1,2,1,79.0,False
5443,3111, Note_on_c,73,76,1,2,1,85.0,False
5444,3112, Note_on_c,72,76,1,2,1,84.0,True
5445,3112, Note_on_c,75,76,1,2,1,87.0,False
5446,3113, Note_on_c,63,76,1,2,1,73.0,False
5447,3114, Note_on_c,68,76,1,2,1,79.0,False
5448,3114, Note_on_c,73,76,1,2,1,85.0,False
5449,3115, Note_on_c,72,76,1,2,1,84.0,True
5450,3115, Note_on_c,75,76,1,2,1,87.0,False
5451,3116, Note_on_c,68,76,1,2,1,79.0,False
5452,3116, Note_on_c,73,76,1,2,1,85.0,False
5453,3117, Note_on_c,70,76,1,2,1,81.0,False
5454,3117, Note_on_c,75,76,1,2,1,87.0,False
5455,3118, Note_on_c,63,76,1,2,1,73.0,False
5456,3119, Note_on_c,68,76,1,2,1,79.0,False
5457,3119, Note_on_c,73,76,1,2,1,85.0,False
5458,3120, Note_on_c,72,76,1,2,1,84.0,True
5459,3120, Note_on_c,75,76,1,2,1,87.0,False
5460,3121, Note_on_c,63,76,1,2,1,73.0,False
5461,3122, Note_on_c,68,76,1,2,1,79.0,False
5462,3122, Note_on_c,73,76,1,2,1,85.0,False
5463,3123, Note_on_c,72,76,1,2,1,84.0,True
5464,3123, Note_on_c,75,76,1,2,1,87.0,False
5465,3124, Note_on_c,68,76,1,2,1,79.0,False
5466,3124, Note_on_c,73,76,1,2,1,85.0,False
5467,3125, Note_on_c,70,76,1,2,1,81.0,False
5468,3125, Note_on_c,75,76,1,2,1,87.0,False
5469,3126, Note_on_c,63,76,1,2,1,73.0,False
5470,3127, Note_on_c,68,76,1,2,1,79.0,False
5471,3127, Note_on_c,73,76,1,2,1,85.0,False
5472,3128, Note_on_c,72,76,1,2,1,84.0,True
5473,3128, Note_on_c,75,76,1,2,1,87.0,False
5474,3129, Note_on_c,63,76,1,2,1,73.0,False
5475,3130, Note_on_c,68,76,1,2,1,79.0,False
5476,3130, Note_on_c,73,76,1,2,1,85.0,False
5477,3131, Note_on_c,72,76,1,2,1,84.0,True
5478,3131, Note_on_c,75,76,1,2,1,87.0,False
5479,3132, Note_on_c,68,76,1,2,1,79.0,False
5480,3132, Note_on_c,73,76,1,2,1,85.0,False
5481,3133, Note_on_c,70,76,1,2,1,81.0,False
5482,3133, Note_on_c,75,76,1,2,1,87.0,False
5483,3134, Note_on_c,63,76,1,2,1,73.0,False
5484,3135, Note_on_c,68,76,1,2,1,79.0,False
5485,3135, Note_on_c,73,76,1,2,1,85.0,False
5486,3136, Note_on_c,72,76,1,2,1,84.0,True
5487,3136, Note_on_c,75,76,1,2,1,87.0,False
5488,3137, Note_on_c,63,76,1,2,1,73.0,False
5489,3138, Note_on_c,68,76,1,2,1,79.0,False
5490,3138, Note_on_c,73,76,1,2,1,85.0,False
5491,3139, Note_on_c,72,76,1,2,1,84.0,True
5492,3139, Note_on_c,75,76,1,2,1,87.0,False
5493,3140, Note_on_c,68,76,1,2,1,79.0,False
5494,3140, Note_on_c,73,76,1,2,1,85.0,False
5495,3141, Note_on_c,70,76,1,2,1,81.0,False
5496,3141, Note_on_c,75,76,1,2,1,87.0,False
5497,3142, Note_on_c,63,76,1,2,1,73.0,False
5498,3143, Note_on_c,68,76,1,2,1,79.0,False
5499,3143, Note_on_c,73,76,1,2,1,85.0,False
5500,3144, Note_on_c,72,76,1,2,1,84.0,True
5501,3144, Note_on_c,75,76,1,2,1,87.0,False
5502,3145, Note_on_c,63,76,1,2,1,73.0,False
5503,3146, Note_on_c,68,76,1,2,1,79.0,False
5504,3146, Note_on_c,73,76,1,2,1,85.0,False
5505,3147, Note_on_c,72,76,1,2,1,84.0,True
5506,3147, Note_on_c,75,76,1,2,1,87.0,False
5507,3148, Note_on_c,68,76,1,2,1,79.0,False
5508,3148, Note_on_c,73,76,1,2,1,85.0,False
5509,3149, Note_on_c,70,76,1,2,1,81.0,False
5510,3149, Note_on_c,75,76,1,2,1,87.0,False
5511,3150, Note_on_c,63,76,1,2,1,73.0,False
5512,3151, Note_on_c,68,76,1,2,1,79.0,False
5513,3151, Note_on_c,73,76,1,2,1,85.0,False
5514,3152, Note_on_c,72,76,1,2,1,84.0,True
5515,3152, Note_on_c,75,76,1,2,1,87.0,False
5516,3153, Note_on_c,63,76,1,2,1,73.0,False
5517,3154, Note_on_c,68,76,1,2,1,79.0,False
5518,3154, Note_on_c,73,76,1,2,1,85.0,False
5519,3155, Note_on_c,72,76,1,2,1,84.0,True
5520,3155, Note_on_c,75,76,1,2,1,87.0,False
5521,3156, Note_on_c,68,76,1,2,1,79.0,False
5522,3156, Note_on_c,73,76,1,2,1,85.0,False
5523,3157, Note_on_c,70,76,1,2,1,81.0,False
5524,3157, Note_on_c,75,76,1,2,1,87.0,False
5525,3158, Note_on_c,63,76,1,2,1,73.0,False
5526,3159, Note_on_c,68,76,1,2,1,79.0,False
5527,3159, Note_on_c,73,76,1,2,1,85.0,False
5528,3160, Note_on_c,72,76,1,2,1,84.0,True
5529,3160, Note_on_c,75,76,1,2,1,87.0,False
5530,3161, Note_on_c,63,76,1,2,1,73.0,False
5531,3162, Note_on_c,68,76,1,2,1,79.0,False
5532,3162, Note_on_c,73,76,1,2,1,85.0,False
5533,3163, Note_on_c,72,76,1,2,1,84.0,True
5534,3163, Note_on_c,75,76,1,2,1,87.0,False
5535,3164, Note_on_c,68,76,1,2,1,79.0,False
5536,3164, Note_on_c,73,76,1,2,1,85.0,False
5537,3165, Note_on_c,70,76,1,2,1,81.0,False
5538,3165, Note_on_c,75,76,1,2,1,87.0,False
5539,3166, Note_on_c,63,76,1,2,1,73.0,False
5540,3167, Note_on_c,68,76,1,2,1,79.0,False
5541,3167, Note_on_c,73,76,1,2,1,85.0,False
5542,3168, Note_on_c,72,76,1,2,1,84.0,True
5543,3168, Note_on_c,75,76,1,2,1,87.0,False
5544,3169, Note_on_c,63,76,1,2,1,73.0,False
5545,3170, Note_on_c,68,76,1,2,1,79.0,False
5546,3170, Note_on_c,73,76,1,2,1,85.0,False
5547,3171, Note_on_c,72,76,1,2,1,84.0,True
5548,3171, Note_on_c,75,76,1,2,1,87.0,False
5549,3172, Note_on_c,68,76,1,2,1,79.0,False
5550,3172, Note_on_c,73,76,1,2,1,85.0,False
5551,3173, Note_on_c,70,76,1,2,1,81.0,False
5552,3173, Note_on_c,75,76,1,2,1,87.0,False
5553,3174, Note_on_c,63,76,1,2,1,73.0,False
5554,3175, Note_on_c,68,76,1,2,1,79.0,False
5555,3175, Note_on_c,73,76,1,2,1,85.0,False
5556,3176, Note_on_c,72,76,1,2,1,84.0,True
5557,3176, Note_on_c,75,76,1,2,1,87.0,False
5558,3177, Note_on_c,63,76,1,2,1,73.0,False
5559,3178, Note_on_c,68,76,1,2,1,79.0,False
5560,3178, Note_on_c,73,76,1,2,1,85.0,False
5561,3179, Note_on_c,72,76,1,2,1,84.0,True
5562,3179, Note_on_c,75,76,1,2,1,87.0,False
5563,3180, Note_on_c,68,76,1,2,1,79.0,False
5564,3180, Note_on_c,73,76,1,2,1,85.0,False
5565,3181, Note_on_c,70,76,1,2,1,81.0,False
5566,3181, Note_on_c,75,76,1,2,1,87.0,False
5567,3182, Note_on_c,63,76,1,2,1,73.0,False
5568,3183, Note_on_c,68,76,1,2,1,79.0,False
5569,3183, Note_on_c,73,76,1,2,1,85.0,False
5570,3184, Note_on_c,72,76,1,2,1,84.0,True
5571,3184, Note_on_c,75,76,1,2,1,87.0,False
5572,3185, Note_on_c,63,76,1,2,1,73.0,False
5573,3186, Note_on_c,68,76,1,2,1,79.0,False
5574,3186, Note_on_c,73,76,1,2,1,85.0,False
5575,3187, Note_on_c,72,76,1,2,1,84.0,True
5576,3187, Note_on_c,75,76,1,2,1,87.0,False
5577,3188, Note_on_c,68,76,1,2,1,79.0,False
5578,3188, Note_on_c,73,76,1,2,1,85.0,False
5579,3189, Note_on_c,70,76,1,2,1,81.0,False
5580,3189, Note_on_c,75,76,1,2,1,87.0,False
5581,3190, Note_on_c,63,76,1,2,1,73.0,False
5582,3191, Note_on_c,68,76,1,2,1,79.0,False
5583,3191, Note_on_c,73,76,1,2,1,85.0,False
5584,3192, Note_on_c,72,76,1,2,1,84.0,True
5585,3192, Note_on_c,75,76,1,2,1,87.0,False
5586,3193, Note_on_c,63,76,1,2,1,73.0,False
5587,3194, Note_on_c,68,76,1,2,1,79.0,False
5588,3194, Note_on_c,73,76,1,2,1,85.0,False
5589,3195, Note_on_c,72,76,1,2,1,84.0,True
5590,3195, Note_on_c,75,76,1,2,1,87.0,False
5591,3196, Note_on_c,68,76,1,2,1,79.0,False
5592,3196, Note_on_c,73,76,1,2,1,85.0,False
5593,3197, Note_on_c,70,76,1,2,1,81.0,False
5594,3197, Note_on_c,75,76,1,2,1,87.0,False
5595,3198, Note_on_c,63,76,1,2,1,73.0,False
5596,3199, Note_on_c,68,76,1,2,1,79.0,False
5597,3199, Note_on_c,73,76,1,2,1,85.0,False
5598,3200, Note_on_c,72,76,1,2,1,84.0,True
5599,3200, Note_on_c,75,76,1,2,1,87.0,False
5600,3201, Note_on_c,63,76,1,2,1,73.0,False
5601,3202, Note_on_c,68,76,1,2,1,79.0,False
5602,3202, Note_on_c,73,76,1,2,1,85.0,False
5603,3203, Note_on_c,72,76,1,2,1,84.0,True
5604,3203, Note_on_c,75,76,1,2,1,87.0,False
5605,3204, Note_on_c,68,76,1,2,1,79.0,False
5606,3204, Note_on_c,73,76,1,2,1,85.0,False
5607,3205, Note_on_c,70,76,1,2,1,81.0,False
5608,3205, Note_on_c,75,76,1,2,1,87.0,False
5609,3206, Note_on_c,63,76,1,2,1,73.0,False
5610,3207, Note_on_c,68,76,1,2,1,79.0,False
5611,3207, Note_on_c,73,76,1,2,1,85.0,False
5612,3208, Note_on_c,72,76,1,2,1,84.0,True
5613,3208, Note_on_c,75,76,1,2,1,87.0,False
5614,3209, Note_on_c,63,76,1,2,1,73.0,False
5615,3210, Note_on_c,68,76,1,2,1,79.0,False
5616,3210, Note_on_c,73,76,1,2,1,85.0,False
5617,3211, Note_on_c,72,76,1,2,1,84.0,True
5618,3211, Note_on_c,75,76,1,2,1,87.0,False
5619,3212, Note_on_c,68,76,1,2,1,79.0,False
5620,3212, Note_on_c,73,76,1,2,1,85.0,False
5621,3213, Note_on_c,70,76,1,2,1,81.0,False
5622,3213, Note_on_c,75,76,1,2,1,87.0,False
5623,3214, Note_on_c,63,76,1,2,1,73.0,False
5624,3215, Note_on_c,68,76,1,2,1,79.0,False
5625,3215, Note_on_c,73,76,1,2,1,85.0,False
5626,3216, Note_on_c,72,76,1,2,1,84.0,True
5627,3216, Note_on_c,75,76,1,2,1,87.0,False
5628,3217, Note_on_c,63,76,1,2,1,73.0,False
5629,3218, Note_on_c,68,76,1,2,1,79.0,False
5630,3218, Note_on_c,73,76,1,2,1,85.0,False
5631,3219, Note_on_c,72,76,1,2,1,84.0,True
5632,3219, Note_on_c,75,76,1,2,1,87.0,False
5633,3220, Note_on_c,68,76,1,2,1,79.0,False
5634,3220, Note_on_c,73,76,1,2,1,85.0,False
5635,3221, Note_on_c,70,76,1,2,1,81.0,False
5636,3221, Note_on_c,75,76,1,2,1,87.0,False
5637,3222, Note_on_c,63,76,1,2,1,73.0,False
5638,3223, Note_on_c,68,76,1,2,1,79.0,False
5639,3223, Note_on_c,73,76,1,2,1,85.0,False
5640,3224, Note_on_c,72,76,1,2,1,84.0,True
5641,3224, Note_on_c,75,76,1,2,1,87.0,False
5642,3225, Note_on_c,63,76,1,2,1,73.0,False
5643,3226, Note_on_c,68,76,1,2,1,79.0,False
5644,3226, Note_on_c,73,76,1,2,1,85.0,False
5645,3227, Note_on_c,72,76,1,2,1,84.0,True
5646,3227, Note_on_c,75,76,1,2,1,87.0,False
5647,3228, Note_on_c,68,76,1,2,1,79.0,False
5648,3228, Note_on_c,73,76,1,2,1,85.0,False
5649,3229, Note_on_c,70,76,1,2,1,81.0,False
5650,3229, Note_on_c,75,76,1,2,1,87.0,False
5651,3230, Note_on_c,63,76,1,2,1,73.0,False
5652,3231, Note_on_c,68,76,1,2,1,79.0,False
5653,3231, Note_on_c,73,76,1,2,1,85.0,False
5654,3232, Note_on_c,72,76,1,2,1,84.0,True
5655,3232, Note_on_c,75,76,1,2,1,87.0,False
5656,3233, Note_on_c,63,76,1,2,1,73.0,False
5657,3234, Note_on_c,68,76,1,2,1,79.0,False
5658,3234, Note_on_c,73,76,1,2,1,85.0,False
5659,3235, Note_on_c,72,76,1,2,1,84.0,True
5660,3235, Note_on_c,75,76,1,2,1,87.0,False
5661,3236, Note_on_c,68,76,1,2,1,79.0,False
5662,3236, Note_on_c,73,76,1,2,1,85.0,False
5663,3237, Note_on_c,70,76,1,2,1,81.0,False
5664,3237, Note_on_c,75,76,1,2,1,87.0,False
5665,3238, Note_on_c,63,76,1,2,1,73.0,False
5666,3239, Note_on_c,68,76,1,2,1,79.0,False
5667,3239, Note_on_c,73,76,1,2,1,85.0,False
5668,3240, Note_on_c,72,76,1,2,1,84.0,True
5669,3240, Note_on_c,75,76,1,2,1,87.0,False
5670,3241, Note_on_c,63,76,1,2,1,73.0,False
5671,3242, Note_on_c,68,76,1,2,1,79.0,False
5672,3242, Note_on_c,73,76,1,2,1,85.0,False
5673,3243, Note_on_c,72,76,1,2,1,84.0,True
5674,3243, Note_on_c,75,76,1,2,1,87.0,False
5675,3244, Note_on_c,68,76,1,2,1,79.0,False
5676,3244, Note_on_c,73,76,1,2,1,85.0,False
5677,3245, Note_on_c,70,76,1,2,1,81.0,False
5678,3245, Note_on_c,75,76,1,2,1,87.0,False
5679,3246, Note_on_c,63,76,1,2,1,73.0,False
5680,3247, Note_on_c,68,76,1,2,1,79.0,False
5681,3247, Note_on_c,73,76,1,2,1,85.0,False
5682,3248, Note_on_c,72,76,1,2,1,84.0,True
5683,3248, Note_on_c,75,76,1,2,1,87.0,False
5684,3249, Note_on_c,63,76,1,2,1,73.0,False
5685,3250, Note_on_c,68,76,1,2,1,79.0,False
5686,3250, Note_on_c,73,76,1,2,1,85.0,False
5687,3251, Note_on_c,72,76,1,2,1,84.0,True
5688,3251, Note_on_c,75,76,1,2,1,87.0,False
5689,3252, Note_on_c,68,76,1,2,1,79.0,False
5690,3252, Note_on_c,73,76,1,2,1,85.0,False
5691,3253, Note_on_c,70,76,1,2,1,81.0,False
5692,3253, Note_on_c,75,76,1,2,1,87.0,False
5693,3254, Note_on_c,63,76,1,2,1,73.0,False
5694,3255, Note_on_c,68,76,1,2,1,79.0,False
5695,3255, Note_on_c,73,76,1,2,1,85.0,False
5696,3256, Note_on_c,72,76,1,2,1,84.0,True
5697,3256, Note_on_c,75,76,1,2,1,87.0,False
5698,3257, Note_on_c,63,76,1,2,1,73.0,False
5699,3258, Note_on_c,68,76,1,2,1,79.0,False
5700,3258, Note_on_c,73,76,1,2,1,85.0,False
5701,3259, Note_on_c,72,76,1,2,1,84.0,True
5702,3259, Note_on_c,75,76,1,2,1,87.0,False
5703,3260, Note_on_c,68,76,1,2,1,79.0,False
5704,3260, Note_on_c,73,76,1,2,1,85.0,False
5705,3261, Note_on_c,70,76,1,2,1,81.0,False
5706,3261, Note_on_c,75,76,1,2,1,87.0,False
5707,3262, Note_on_c,63,76,1,2,1,73.0,False
5708,3263, Note_on_c,68,76,1,2,1,79.0,False
5709,3263, Note_on_c,73,76,1,2,1,85.0,False
5710,3264, Note_on_c,72,76,1,2,1,84.0,True
5711,3264, Note_on_c,75,76,1,2,1,87.0,False
5712,3265, Note_on_c,63,76,1,2,1,73.0,False
5713,3266, Note_on_c,68,76,1,2,1,79.0,False
5714,3266, Note_on_c,73,76,1,2,1,85.0,False
5715,3267, Note_on_c,72,76,1,2,1,84.0,True
5716,3267, Note_on_c,75,76,1,2,1,87.0,False
5717,3268, Note_on_c,68,76,1,2,1,79.0,False
5718,3268, Note_on_c,73,76,1,2,1,85.0,False
5719,3269, Note_on_c,70,76,1,2,1,81.0,False
5720,3269, Note_on_c,75,76,1,2,1,87.0,False
5721,3270, Note_on_c,63,76,1,2,1,73.0,False
5722,3271, Note_on_c,68,76,1,2,1,79.0,False
5723,3271, Note_on_c,73,76,1,2,1,85.0,False
5724,3272, Note_on_c,72,76,1,2,1,84.0,True
5725,3272, Note_on_c,75,76,1,2,1,87.0,False
5726,3273, Note_on_c,63,76,1,2,1,73.0,False
5727,3274, Note_on_c,68,76,1,2,1,79.0,False
5728,3274, Note_on_c,73,76,1,2,1,85.0,False
5729,3275, Note_on_c,72,76,1,2,1,84.0,True
5730,3275, Note_on_c,75,76,1,2,1,87.0,False
5731,3276, Note_on_c,68,76,1,2,1,79.0,False
5732,3276, Note_on_c,73,76,1,2,1,85.0,False
5733,3277, Note_on_c,70,76,1,2,1,81.0,False
5734,3277, Note_on_c,75,76,1,2,1,87.0,False
5735,3278, Note_on_c,63,76,1,2,1,73.0,False
5736,3279, Note_on_c,68,76,1,2,1,79.0,False
5737,3279, Note_on_c,73,76,1,2,1,85.0,False
5738,3280, Note_on_c,72,76,1,2,1,84.0,True
5739,3280, Note_on_c,75,76,1,2,1,87.0,False
5740,3281, Note_on_c,63,76,1,2,1,73.0,False
5741,3282, Note_on_c,68,76,1,2,1,79.0,False
5742,3282, Note_on_c,73,76,1,2,1,85.0,False
5743,3283, Note_on_c,72,76,1,2,1,84.0,True
5744,3283, Note_on_c,75,76,1,2,1,87.0,False
5745,3284, Note_on_c,68,76,1,2,1,79.0,False
5746,3284, Note_on_c,73,76,1,2,1,85.0,False
5747,3285, Note_on_c,70,76,1,2,1,81.0,False
5748,3285, Note_on_c,75,76,1,2,1,87.0,False
5749,3286, Note_on_c,63,76,1,2,1,73.0,False
5750,3287, Note_on_c,68,76,1,2,1,79.0,False
5751,3287, Note_on_c,73,76,1,2,1,85.0,False
5752,3288, Note_on_c,72,76,1,2,1,84.0,True
5753,3288, Note_on_c,75,76,1,2,1,87.0,False
5754,3289, Note_on_c,63,76,1,2,1,73.0,False
5755,3290, Note_on_c,68,76,1,2,1,79.0,False
5756,3290, Note_on_c,73,76,1,2,1,85.0,False
5757,3291, Note_on_c,72,76,1,2,1,84.0,True
5758,3291, Note_on_c,75,76,1,2,1,87.0,False
5759,3292, Note_on_c,68,76,1,2,1,79.0,False
5760,3292, Note_on_c,73,76,1,2,1,85.0,False
5761,3293, Note_on_c,70,76,1,2,1,81.0,False
5762,3293, Note_on_c,75,76,1,2,1,87.0,False
5763,3294, Note_on_c,63,76,1,2,1,73.0,False
5764,3295, Note_on_c,68,76,1,2,1,79.0,False
5765,3295, Note_on_c,73,76,1,2,1,85.0,False
5766,3296, Note_on_c,72,76,1,2,1,84.0,True
5767,3296, Note_on_c,75,76,1,2,1,87.0,False
5768,3297, Note_on_c,63,76,1,2,1,73.0,False
5769,3298, Note_on_c,68,76,1,2,1,79.0,False
5770,3298, Note_on_c,73,76,1,2,1,85.0,False
5771,3299, Note_on_c,72,76,1,2,1,84.0,True
5772,3299, Note_on_c,75,76,1,2,1,87.0,False
5773,3300, Note_on_c,68,76,1,2,1,79.0,False
5774,3300, Note_on_c,73,76,1,2,1,85.0,False
5775,3301, Note_on_c,70,76,1,2,1,81.0,False
5776,3301, Note_on_c,75,76,1,2,1,87.0,False
5777,3302, Note_on_c,63,76,1,2,1,73.0,False
5778,3303, Note_on_c,68,76,1,2,1,79.0,False
5779,3303, Note_on_c,73,76,1,2,1,85.0,False
5780,3304, Note_on_c,72,76,1,2,1,84.0,True
5781,3304, Note_on_c,75,76,1,2,1,87.0,False
5782,3305, Note_on_c,63,76,1,2,1,73.0,False
5783,3306, Note_on_c,68,76,1,2,1,79.0,False
5784,3306, Note_on_c,73,76,1,2,1,85.0,False
5785,3307, Note_on_c,72,76,1,2,1,84.0,True
5786,3307, Note_on_c,75,76,1,2,1,87.0,False
5787,3308, Note_on_c,68,76,1,2,1,79.0,False
5788,3308, Note_on_c,73,76,1,2,1,85.0,False
5789,3309, Note_on_c,70,76,1,2,1,81.0,False
5790,3309, Note_on_c,75,76,1,2,1,87.0,False
5791,3310, Note_on_c,63,76,1,2,1,73.0,False
5792,3311, Note_on_c,68,76,1,2,1,79.0,False
5793,3311, Note_on_c,73,76,1,2,1,85.0,False
5794,3312, Note_on_c,72,76,1,2,1,84.0,True
5795,3312, Note_on_c,75,76,1,2,1,87.0,False
5796,3313, Note_on_c,63,76,1,2,1,73.0,False
5797,3314, Note_on_c,68,76,1,2,1,79.0,False
5798,3314, Note_on_c,73,76,1,2,1,85.0,False
5799,3315, Note_on_c,72,76,1,2,1,84.0,True
5800,3315, Note_on_c,75,76,1,2,1,87.0,False
5801,3316, Note_on_c,68,76,1,2,1,79.0,False
5802,3316, Note_on_c,73,76,1,2,1,85.0,False
5803,3317, Note_on_c,70,76,1,2,1,81.0,False
5804,3317, Note_on_c,75,76,1,2,1,87.0,False
5805,3318, Note_on_c,63,76,1,2,1,73.0,False
5806,3319, Note_on_c,68,76,1,2,1,79.0,False
5807,3319, Note_on_c,73,76,1,2,1,85.0,False
5808,3320, Note_on_c,72,76,1,2,1,84.0,True
5809,3320, Note_on_c,75,76,1,2,1,87.0,False
5810,3321, Note_on_c,63,76,1,2,1,73.0,False
5811,3322, Note_on_c,68,76,1,2,1,79.0,False
5812,3322, Note_on_c,73,76,1,2,1,85.0,False
5813,3323, Note_on_c,72,76,1,2,1,84.0,True
5814,3323, Note_on_c,75,76,1,2,1,87.0,False
5815,3324, Note_on_c,68,76,1,2,1,79.0,False
5816,3324, Note_on_c,73,76,1,2,1,85.0,False
5817,3325, Note_on_c,70,76,1,2,1,81.0,False
5818,3325, Note_on_c,75,76,1,2,1,87.0,False
5819,3326, Note_on_c,63,76,1,2,1,73.0,False
5820,3327, Note_on_c,68,76,1,2,1,79.0,False
5821,3327, Note_on_c,73,76,1,2,1,85.0,False
5822,3328, Note_on_c,72,76,1,2,1,84.0,True
5823,3328, Note_on_c,75,76,1,2,1,87.0,False
5824,3329, Note_on_c,63,76,1,2,1,73.0,False
5825,3330, Note_on_c,68,76,1,2,1,79.0,False
5826,3330, Note_on_c,73,76,1,2,1,85.0,False
5827,3331, Note_on_c,72,76,1,2,1,84.0,True
5828,3331, Note_on_c,75,76,1,2,1,87.0,False
5829,3332, Note_on_c,68,76,1,2,1,79.0,False
5830,3332, Note_on_c,73,76,1,2,1,85.0,False
5831,3333, Note_on_c,70,76,1,2,1,81.0,False
5832,3333, Note_on_c,75,76,1,2,1,87.0,False
5833,3334, Note_on_c,63,76,1,2,1,73.0,False
5834,3335, Note_on_c,68,76,1,2,1,79.0,False
5835,3335, Note_on_c,73,76,1,2,1,85.0,False
5836,3336, Note_on_c,72,76,1,2,1,84.0,True
5837,3336, Note_on_c,75,76,1,2,1,87.0,False
5838,3337, Note_on_c,63,76,1,2,1,73.0,False
5839,3338, Note_on_c,68,76,1,2,1,79.0,False
5840,3338, Note_on_c,73,76,1,2,1,85.0,False
5841,3339, Note_on_c,72,76,1,2,1,84.0,True
5842,3339, Note_on_c,75,76,1,2,1,87.0,False
5843,3340, Note_on_c,68,76,1,2,1,79.0,False
5844,3340, Note_on_c,73,76,1,2,1,85.0,False
5845,3341, Note_on_c,70,76,1,2,1,81.0,False
5846,3341, Note_on_c,75,76,1,2,1,87.0,False
5847,3342, Note_on_c,63,76,1,2,1,73.0,False
5848,3343, Note_on_c,68,76,1,2,1,79.0,False
5849,3343, Note_on_c,73,76,1,2,1,85.0,False
5850,3344, Note_on_c,72,76,1,2,1,84.0,True
5851,3344, Note_on_c,75,76,1,2,1,87.0,False
5852,3345, Note_on_c,63,76,1,2,1,73.0,False
5853,3346, Note_on_c,68,76,1,2,1,79.0,False
5854,3346, Note_on_c,73,76,1,2,1,85.0,False
5855,3347, Note_on_c,72,76,1,2,1,84.0,True
5856,3347, Note_on_c,75,76,1,2,1,87.0,False
5857,3348, Note_on_c,68,76,1,2,1,79.0,False
5858,3348, Note_on_c,73,76,1,2,1,85.0,False
5859,3349, Note_on_c,70,76,1,2,1,81.0,False
5860,3349, Note_on_c,75,76,1,2,1,87.0,False
5861,3350, Note_on_c,63,76,1,2,1,73.0,False
5862,3351, Note_on_c,68,76,1,2,1,79.0,False
5863,3351, Note_on_c,73,76,1,2,1,85.0,False
5864,3352, Note_on_c,72,76,1,2,1,84.0,True
5865,3352, Note_on_c,75,76,1,2,1,87.0,False
5866,3353, Note_on_c,63,76,1,2,1,73.0,False
5867,3354, Note_on_c,68,76,1,2,1,79.0,False
5868,3354, Note_on_c,73,76,1,2,1,85.0,False
5869,3355, Note_on_c,72,76,1,2,1,84.0,True
5870,3355, Note_on_c,75,76,1,2,1,87.0,False
5871,3356, Note_on_c,68,76,1,2,1,79.0,False
5872,3356, Note_on_c,73,76,1,2,1,85.0,False
5873,3357, Note_on_c,70,76,1,2,1,81.0,False
5874,3357, Note_on_c,75,76,1,2,1,87.0,False
5875,3358, Note_on_c,63,76,1,2,1,73.0,False
5876,3359, Note_on_c,68,76,1,2,1,79.0,False
5877,3359, Note_on_c,73,76,1,2,1,85.0,False
5878,3360, Note_on_c,72,76,1,2,1,84.0,True
5879,3360, Note_on_c,75,76,1,2,1,87.0,False
5880,3361, Note_on_c,63,76,1,2,1,73.0,False
5881,3362, Note_on_c,68,76,1,2,1,79.0,False
5882,3362, Note_on_c,73,76,1,2,1,85.0,False
5883,3363, Note_on_c,72,76,1,2,1,84.0,True
5884,3363, Note_on_c,75,76,1,2,1,87.0,False
5885,3364, Note_on_c,68,76,1,2,1,79.0,False
5886,3364, Note_on_c,73,76,1,2,1,85.0,False
5887,3365, Note_on_c,70,76,1,2,1,81.0,False
5888,3365, Note_on_c,75,76,1,2,1,87.0,False
5889,3366, Note_on_c,63,76,1,2,1,73.0,False
5890,3367, Note_on_c,68,76,1,2,1,79.0,False
5891,3367, Note_on_c,73,76,1,2,1,85.0,False
5892,3368, Note_on_c,72,76,1,2,1,84.0,True
5893,3368, Note_on_c,75,76,1,2,1,87.0,False
5894,3369, Note_on_c,63,76,1,2,1,73.0,False
5895,3370, Note_on_c,68,76,1,2,1,79.0,False
5896,3370, Note_on_c,73,76,1,2,1,85.0,False
5897,3371, Note_on_c,72,76,1,2,1,84.0,True
5898,3371, Note_on_c,75,76,1,2,1,87.0,False
5899,3372, Note_on_c,68,76,1,2,1,79.0,False
5900,3372, Note_on_c,73,76,1,2,1,85.0,False
5901,3373, Note_on_c,70,76,1,2,1,81.0,False
5902,3373, Note_on_c,75,76,1,2,1,87.0,False
5903,3374, Note_on_c,63,76,1,2,1,73.0,False
5904,3375, Note_on_c,68,76,1,2,1,79.0,False
5905,3375, Note_on_c,73,76,1,2,1,85.0,False
5906,3376, Note_on_c,72,76,1,2,1,84.0,True
5907,3376, Note_on_c,75,76,1,2,1,87.0,False
5908,3377, Note_on_c,63,76,1,2,1,73.0,False
5909,3378, Note_on_c,68,76,1,2,1,79.0,False
5910,3378, Note_on_c,73,76,1,2,1,85.0,False
5911,3379, Note_on_c,72,76,1,2,1,84.0,True
5912,3379, Note_on_c,75,76,1,2,1,87.0,False
5913,3380, Note_on_c,68,76,1,2,1,79.0,False
5914,3380, Note_on_c,73,76,1,2,1,85.0,False
5915,3381, Note_on_c,70,76,1,2,1,81.0,False
5916,3381, Note_on_c,75,76,1,2,1,87.0,False
5917,3382, Note_on_c,63,76,1,2,1,73.0,False
5918,3383, Note_on_c,68,76,1,2,1,79.0,False
5919,3383, Note_on_c,73,76,1,2,1,85.0,False
5920,3384, Note_on_c,72,76,1,2,1,84.0,True
5921,3384, Note_on_c,75,76,1,2,1,87.0,False
5922,3385, Note_on_c,63,76,1,2,1,73.0,False
5923,3386, Note_on_c,68,76,1,2,1,79.0,False
5924,3386, Note_on_c,73,76,1,2,1,85.0,False
5925,3387, Note_on_c,72,76,1,2,1,84.0,True
5926,3387, Note_on_c,75,76,1,2,1,87.0,False
5927,3388, Note_on_c,68,76,1,2,1,79.0,False
5928,3388, Note_on_c,73,76,1,2,1,85.0,False
5929,3389, Note_on_c,70,76,1,2,1,81.0,False
5930,3389, Note_on_c,75,76,1,2,1,87.0,False
5931,3390, Note_on_c,63,76,1,2,1,73.0,False
5932,3391, Note_on_c,68,76,1,2,1,79.0,False
5933,3391, Note_on_c,73,76,1,2,1,85.0,False
5934,3392, Note_on_c,72,76,1,2,1,84.0,True
5935,3392, Note_on_c,75,76,1,2,1,87.0,False
5936,3393, Note_on_c,63,76,1,2,1,73.0,False
5937,3394, Note_on_c,68,76,1,2,1,79.0,False
5938,3394, Note_on_c,73,76,1,2,1,85.0,False
5939,3395, Note_on_c,72,76,1,2,1,84.0,True
5940,3395, Note_on_c,75,76,1,2,1,87.0,False
5941,3396, Note_on_c,68,76,1,2,1,79.0,False
5942,3396, Note_on_c,73,76,1,2,1,85.0,False
5943,3397, Note_on_c,70,76,1,2,1,81.0,False
5944,3397, Note_on_c,75,76,1,2,1,87.0,False
5945,3398, Note_on_c,63,76,1,2,1,73.0,False
5946,3399, Note_on_c,68,76,1,2,1,79.0,False
5947,3399, Note_on_c,73,76,1,2,1,85.0,False
5948,3400, Note_on_c,72,76,1,2,1,84.0,True
5949,3400, Note_on_c,75,76,1,2,1,87.0,False
5950,3401, Note_on_c,63,76,1,2,1,73.0,False
5951,3402, Note_on_c,68,76,1,2,1,79.0,False
5952,3402, Note_on_c,73,76,1,2,1,85.0,False
5953,3403, Note_on_c,72,76,1,2,1,84.0,True
5954,3403, Note_on_c,75,76,1,2,1,87.0,False
5955,3404, Note_on_c,68,76,1,2,1,79.0,False
5956,3404, Note_on_c,73,76,1,2,1,85.0,False
5957,3405, Note_on_c,70,76,1,2,1,81.0,False
5958,3405, Note_on_c,75,76,1,2,1,87.0,False
5959,3406, Note_on_c,63,76,1,2,1,73.0,False
5960,3407, Note_on_c,68,76,1,2,1,79.0,False
5961,3407, Note_on_c,73,76,1,2,1,85.0,False
5962,3408, Note_on_c,72,76,1,2,1,84.0,True
5963,3408, Note_on_c,75,76,1,2,1,87.0,False
5964,3409, Note_on_c,63,76,1,2,1,73.0,False
5965,3410, Note_on_c,68,76,1,2,1,79.0,False
5966,3410, Note_on_c,73,76,1,2,1,85.0,False
5967,3411, Note_on_c,72,76,1,2,1,84.0,True
5968,3411, Note_on_c,75,76,1,2,1,87.0,False
5969,3412, Note_on_c,68,76,1,2,1,79.0,False
5970,3412, Note_on_c,73,76,1,2,1,85.0,False
5971,3413, Note_on_c,70,76,1,2,1,81.0,False
5972,3413, Note_on_c,75,76,1,2,1,87.0,False
5973,3414, Note_on_c,63,76,1,2,1,73.0,False
5974,3415, Note_on_c,68,76,1,2,1,79.0,False
5975,3415, Note_on_c,73,76,1,2,1,85.0,False
5976,3416, Note_on_c,72,76,1,2,1,84.0,True
5977,3416, Note_on_c,75,76,1,2,1,87.0,False
5978,3417, Note_on_c,63,76,1,2,1,73.0,False
5979,3418, Note_on_c,68,76,1,2,1,79.0,False
5980,3418, Note_on_c,73,76,1,2,1,85.0,False
5981,3419, Note_on_c,72,76,1,2,1,84.0,True
5982,3419, Note_on_c,75,76,1,2,1,87.0,False
5983,3420, Note_on_c,68,76,1,2,1,79.0,False
5984,3420, Note_on_c,73,76,1,2,1,85.0,False
5985,3421, Note_on_c,70,76,1,2,1,81.0,False
5986,3421, Note_on_c,75,76,1,2,1,87.0,False
5987,3422, Note_on_c,63,76,1,2,1,73.0,False
5988,3423, Note_on_c,68,76,1,2,1,79.0,False
5989,3423, Note_on_c,73,76,1,2,1,85.0,False
5990,3424, Note_on_c,72,76,1,2,1,84.0,True
5991,3424, Note_on_c,75,76,1,2,1,87.0,False
5992,3425, Note_on_c,63,76,1,2,1,73.0,False
5993,3426, Note_on_c,68,76,1,2,1,79.0,False
5994,3426, Note_on_c,73,76,1,2,1,85.0,False
5995,3427, Note_on_c,72,76,1,2,1,84.0,True
5996,3427, Note_on_c,75,76,1,2,1,87.0,False
5997,3428, Note_on_c,68,76,1,2,1,79.0,False
5998,3428, Note_on_c,73,76,1,2,1,85.0,False
5999,3429, Note_on_c,70,76,1,2,1,81.0,False
6000,3429, Note_on_c,75,76,1,2,1,87.0,False
6001,3430, Note_on_c,63,76,1,2,1,73.0,False
6002,3431, Note_on_c,68,76,1,2,1,79.0,False
6003,3431, Note_on_c,73,76,1,2,1,85.0,False
6004,3432, Note_on_c,72,76,1,2,1,84.0,True
6005,3432, Note_on_c,75,76,1,2,1,87.0,False
6006,3433, Note_on_c,63,76,1,2,1,73.0,False
6007,3434, Note_on_c,68,76,1,2,1,79.0,False
6008,3434, Note_on_c,73,76,1,2,1,85.0,False
6009,3435, Note_on_c,72,76,1,2,1,84.0,True
6010,3435, Note_on_c,75,76,1,2,1,87.0,False
6011,3436, Note_on_c,68,76,1,2,1,79.0,False
6012,3436, Note_on_c,73,76,1,2,1,85.0,False
6013,3437, Note_on_c,70,76,1,2,1,81.0,False
6014,3437, Note_on_c,75,76,1,2,1,87.0,False
6015,3438, Note_on_c,63,76,1,2,1,73.0,False
6016,3439, Note_on_c,68,76,1,2,1,79.0,False
6017,3439, Note_on_c,73,76,1,2,1,85.0,False
6018,3440, Note_on_c,72,76,1,2,1,84.0,True
6019,3440, Note_on_c,75,76,1,2,1,87.0,False
6020,3441, Note_on_c,63,76,1,2,1,73.0,False
6021,3442, Note_on_c,68,76,1,2,1,79.0,False
6022,3442, Note_on_c,73,76,1,2,1,85.0,False
6023,3443, Note_on_c,72,76,1,2,1,84.0,True
6024,3443, Note_on_c,75,76,1,2,1,87.0,False
6025,3444, Note_on_c,68,76,1,2,1,79.0,False
6026,3444, Note_on_c,73,76,1,2,1,85.0,False
6027,3445, Note_on_c,70,76,1,2,1,81.0,False
6028,3445, Note_on_c,75,76,1,2,1,87.0,False
6029,3446, Note_on_c,63,76,1,2,1,73.0,False
6030,3447, Note_on_c,68,76,1,2,1,79.0,False
6031,3447, Note_on_c,73,76,1,2,1,85.0,False
6032,3448, Note_on_c,72,76,1,2,1,84.0,True
6033,3448, Note_on_c,75,76,1,2,1,87.0,False
6034,3449, Note_on_c,63,76,1,2,1,73.0,False
6035,3450, Note_on_c,68,76,1,2,1,79.0,False
6036,3450, Note_on_c,73,76,1,2,1,85.0,False
6037,3451, Note_on_c,72,76,1,2,1,84.0,True
6038,3451, Note_on_c,75,76,1,2,1,87.0,False
6039,3452, Note_on_c,68,76,1,2,1,79.0,False
6040,3452, Note_on_c,73,76,1,2,1,85.0,False
6041,3453, Note_on_c,70,76,1,2,1,81.0,False
6042,3453, Note_on_c,75,76,1,2,1,87.0,False
6043,3454, Note_on_c,63,76,1,2,1,73.0,False
6044,3455, Note_on_c,68,76,1,2,1,79.0,False
6045,3455, Note_on_c,73,76,1,2,1,85.0,False
6046,3456, Note_on_c,72,76,1,2,1,84.0,True
6047,3456, Note_on_c,75,76,1,2,1,87.0,False
6048,3457, Note_on_c,63,76,1,2,1,73.0,False
6049,3458, Note_on_c,68,76,1,2,1,79.0,False
6050,3458, Note_on_c,73,76,1,2,1,85.0,False
6051,3459, Note_on_c,72,76,1,2,1,84.0,True
6052,3459, Note_on_c,75,76,1,2,1,87.0,False
6053,3460, Note_on_c,68,76,1,2,1,79.0,False
6054,3460, Note_on_c,73,76,1,2,1,85.0,False
6055,3461, Note_on_c,70,76,1,2,1,81.0,False
6056,3461, Note_on_c,75,76,1,2,1,87.0,False
6057,3462, Note_on_c,63,76,1,2,1,73.0,False
6058,3463, Note_on_c,68,76,1,2,1,79.0,False
6059,3463, Note_on_c,73,76,1,2,1,85.0,False
6060,3464, Note_on_c,72,76,1,2,1,84.0,True
6061,3464, Note_on_c,75,76,1,2,1,87.0,False
6062,3465, Note_on_c,63,76,1,2,1,73.0,False
6063,3466, Note_on_c,68,76,1,2,1,79.0,False
6064,3466, Note_on_c,73,76,1,2,1,85.0,False
6065,3467, Note_on_c,72,76,1,2,1,84.0,True
6066,3467, Note_on_c,75,76,1,2,1,87.0,False
6067,3468, Note_on_c,68,76,1,2,1,79.0,False
6068,3468, Note_on_c,73,76,1,2,1,85.0,False
6069,3469, Note_on_c,70,76,1,2,1,81.0,False
6070,3469, Note_on_c,75,76,1,2,1,87.0,False
6071,3470, Note_on_c,63,76,1,2,1,73.0,False
6072,3471, Note_on_c,68,76,1,2,1,79.0,False
6073,3471, Note_on_c,73,76,1,2,1,85.0,False
6074,3472, Note_on_c,72,76,1,2,1,84.0,True
6075,3472, Note_on_c,75,76,1,2,1,87.0,False
6076,3473, Note_on_c,63,76,1,2,1,73.0,False
6077,3474, Note_on_c,68,76,1,2,1,79.0,False
6078,3474, Note_on_c,73,76,1,2,1,85.0,False
6079,3475, Note_on_c,72,76,1,2,1,84.0,True
6080,3475, Note_on_c,75,76,1,2,1,87.0,False
6081,3476, Note_on_c,68,76,1,2,1,79.0,False
6082,3476, Note_on_c,73,76,1,2,1,85.0,False
6083,3477, Note_on_c,70,76,1,2,1,81.0,False
6084,3477, Note_on_c,75,76,1,2,1,87.0,False
6085,3478, Note_on_c,63,76,1,2,1,73.0,False
6086,3479, Note_on_c,68,76,1,2,1,79.0,False
6087,3479, Note_on_c,73,76,1,2,1,85.0,False
6088,3480, Note_on_c,72,76,1,2,1,84.0,True
6089,3480, Note_on_c,75,76,1,2,1,87.0,False
6090,3481, Note_on_c,63,76,1,2,1,73.0,False
6091,3482, Note_on_c,68,76,1,2,1,79.0,False
6092,3482, Note_on_c,73,76,1,2,1,85.0,False
6093,3483, Note_on_c,72,76,1,2,1,84.0,True
6094,3483, Note_on_c,75,76,1,2,1,87.0,False
6095,3484, Note_on_c,68,76,1,2,1,79.0,False
6096,3484, Note_on_c,73,76,1,2,1,85.0,False
6097,3485, Note_on_c,70,76,1,2,1,81.0,False
6098,3485, Note_on_c,75,76,1,2,1,87.0,False
6099,3486, Note_on_c,63,76,1,2,1,73.0,False
6100,3487, Note_on_c,68,76,1,2,1,79.0,False
6101,3487, Note_on_c,73,76,1,2,1,85.0,False
6102,3488, Note_on_c,72,76,1,2,1,84.0,True
6103,3488, Note_on_c,75,76,1,2,1,87.0,False
6104,3489, Note_on_c,63,76,1,2,1,73.0,False
6105,3490, Note_on_c,68,76,1,2,1,79.0,False
6106,3490, Note_on_c,73,76,1,2,1,85.0,False
6107,3491, Note_on_c,72,76,1,2,1,84.0,True
6108,3491, Note_on_c,75,76,1,2,1,87.0,False
6109,3492, Note_on_c,68,76,1,2,1,79.0,False
6110,3492, Note_on_c,73,76,1,2,1,85.0,False
6111,3493, Note_on_c,70,76,1,2,1,81.0,False
6112,3493, Note_on_c,75,76,1,2,1,87.0,False
6113,3494, Note_on_c,63,76,1,2,1,73.0,False
6114,3495, Note_on_c,68,76,1,2,1,79.0,False
6115,3495, Note_on_c,73,76,1,2,1,85.0,False
6116,3496, Note_on_c,72,76,1,2,1,84.0,True
6117,3496, Note_on_c,75,76,1,2,1,87.0,False
6118,3497, Note_on_c,63,76,1,2,1,73.0,False
6119,3498, Note_on_c,68,76,1,2,1,79.0,False
6120,3498, Note_on_c,73,76,1,2,1,85.0,False
6121,3499, Note_on_c,72,76,1,2,1,84.0,True
6122,3499, Note_on_c,75,76,1,2,1,87.0,False
6123,3500, Note_on_c,68,76,1,2,1,79.0,False
6124,3500, Note_on_c,73,76,1,2,1,85.0,False
6125,3501, Note_on_c,70,76,1,2,1,81.0,False
6126,3501, Note_on_c,75,76,1,2,1,87.0,False
6127,3502, Note_on_c,63,76,1,2,1,73.0,False
6128,3503, Note_on_c,68,76,1,2,1,79.0,False
6129,3503, Note_on_c,73,76,1,2,1,85.0,False
6130,3504, Note_on_c,72,76,1,2,1,84.0,True
6131,3504, Note_on_c,75,76,1,2,1,87.0,False
6132,3505, Note_on_c,63,76,1,2,1,73.0,False
6133,3506, Note_on_c,68,76,1,2,1,79.0,False
6134,3506, Note_on_c,73,76,1,2,1,85.0,False
6135,3507, Note_on_c,72,76,1,2,1,84.0,True
6136,3507, Note_on_c,75,76,1,2,1,87.0,False
6137,3508, Note_on_c,68,76,1,2,1,79.0,False
6138,3508, Note_on_c,73,76,1,2,1,85.0,False
6139,3509, Note_on_c,70,76,1,2,1,81.0,False
6140,3509, Note_on_c,75,76,1,2,1,87.0,False
6141,3510, Note_on_c,63,76,1,2,1,73.0,False
6142,3511, Note_on_c,68,76,1,2,1,79.0,False
6143,3511, Note_on_c,73,76,1,2,1,85.0,False
6144,3512, Note_on_c,72,76,1,2,1,84.0,True
6145,3512, Note_on_c,75,76,1,2,1,87.0,False
6146,3513, Note_on_c,63,76,1,2,1,73.0,False
6147,3514, Note_on_c,68,76,1,2,1,79.0,False
6148,3514, Note_on_c,73,76,1,2,1,85.0,False
6149,3515, Note_on_c,72,76,1,2,1,84.0,True
6150,3515, Note_on_c,75,76,1,2,1,87.0,False
6151,3516, Note_on_c,68,76,1,2,1,79.0,False
6152,3516, Note_on_c,73,76,1,2,1,85.0,False
6153,3517, Note_on_c,70,76,1,2,1,81.0,False
6154,3517, Note_on_c,75,76,1,2,1,87.0,False
6155,3518, Note_on_c,63,76,1,2,1,73.0,False
6156,3519, Note_on_c,68,76,1,2,1,79.0,False
6157,3519, Note_on_c,73,76,1,2,1,85.0,False
6158,3520, Note_on_c,72,76,1,2,1,84.0,True
6159,3520, Note_on_c,75,76,1,2,1,87.0,False
6160,3521, Note_on_c,63,76,1,2,1,73.0,False
6161,3522, Note_on_c,68,76,1,2,1,79.0,False
6162,3522, Note_on_c,73,76,1,2,1,85.0,False
6163,3523, Note_on_c,72,76,1,2,1,84.0,True
6164,3523, Note_on_c,75,76,1,2,1,87.0,False
6165,3524, Note_on_c,68,76,1,2,1,79.0,False
6166,3524, Note_on_c,73,76,1,2,1,85.0,False
6167,3525, Note_on_c,70,76,1,2,1,81.0,False
6168,3525, Note_on_c,75,76,1,2,1,87.0,False
6169,3526, Note_on_c,63,76,1,2,1,73.0,False
6170,3527, Note_on_c,68,76,1,2,1,79.0,False
6171,3527, Note_on_c,73,76,1,2,1,85.0,False
6172,3528, Note_on_c,72,76,1,2,1,84.0,True
6173,3528, Note_on_c,75,76,1,2,1,87.0,False
6174,3529, Note_on_c,63,76,1,2,1,73.0,False
6175,3530, Note_on_c,68,76,1,2,1,79.0,False
6176,3530, Note_on_c,73,76,1,2,1,85.0,False
6177,3531, Note_on_c,72,76,1,2,1,84.0,True
6178,3531, Note_on_c,75,76,1,2,1,87.0,False
6179,3532, Note_on_c,68,76,1,2,1,79.0,False
6180,3532, Note_on_c,73,76,1,2,1,85.0,False
6181,3533, Note_on_c,70,76,1,2,1,81.0,False
6182,3533, Note_on_c,75,76,1,2,1,87.0,False
6183,3534, Note_on_c,63,76,1,2,1,73.0,False
6184,3535, Note_on_c,68,76,1,2,1,79.0,False
6185,3535, Note_on_c,73,76,1,2,1,85.0,False
6186,3536, Note_on_c,72,76,1,2,1,84.0,True
6187,3536, Note_on_c,75,76,1,2,1,87.0,False
6188,3537, Note_on_c,63,76,1,2,1,73.0,False
6189,3538, Note_on_c,68,76,1,2,1,79.0,False
6190,3538, Note_on_c,73,76,1,2,1,85.0,False
6191,3539, Note_on_c,72,76,1,2,1,84.0,True
6192,3539, Note_on_c,75,76,1,2,1,87.0,False
6193,3540, Note_on_c,68,76,1,2,1,79.0,False
6194,3540, Note_on_c,73,76,1,2,1,85.0,False
6195,3541, Note_on_c,70,76,1,2,1,81.0,False
6196,3541, Note_on_c,75,76,1,2,1,87.0,False
6197,3542, Note_on_c,63,76,1,2,1,73.0,False
6198,3543, Note_on_c,68,76,1,2,1,79.0,False
6199,3543, Note_on_c,73,76,1,2,1,85.0,False
6200,3544, Note_on_c,72,76,1,2,1,84.0,True
6201,3544, Note_on_c,75,76,1,2,1,87.0,False
6202,3545, Note_on_c,63,76,1,2,1,73.0,False
6203,3546, Note_on_c,68,76,1,2,1,79.0,False
6204,3546, Note_on_c,73,76,1,2,1,85.0,False
6205,3547, Note_on_c,72,76,1,2,1,84.0,True
6206,3547, Note_on_c,75,76,1,2,1,87.0,False
6207,3548, Note_on_c,68,76,1,2,1,79.0,False
6208,3548, Note_on_c,73,76,1,2,1,85.0,False
6209,3549, Note_on_c,70,76,1,2,1,81.0,False
6210,3549, Note_on_c,75,76,1,2,1,87.0,False
6211,3550, Note_on_c,63,76,1,2,1,73.0,False
6212,3551, Note_on_c,68,76,1,2,1,79.0,False
6213,3551, Note_on_c,73,76,1,2,1,85.0,False
6214,3552, Note_on_c,72,76,1,2,1,84.0,True
6215,3552, Note_on_c,75,76,1,2,1,87.0,False
6216,3553, Note_on_c,63,76,1,2,1,73.0,False
6217,3554, Note_on_c,68,76,1,2,1,79.0,False
6218,3554, Note_on_c,73,76,1,2,1,85.0,False
6219,3555, Note_on_c,72,76,1,2,1,84.0,True
6220,3555, Note_on_c,75,76,1,2,1,87.0,False
6221,3556, Note_on_c,68,76,1,2,1,79.0,False
6222,3556, Note_on_c,73,76,1,2,1,85.0,False
6223,3557, Note_on_c,70,76,1,2,1,81.0,False
6224,3557, Note_on_c,75,76,1,2,1,87.0,False
6225,3558, Note_on_c,63,76,1,2,1,73.0,False
6226,3559, Note_on_c,68,76,1,2,1,79.0,False
6227,3559, Note_on_c,73,76,1,2,1,85.0,False
6228,3560, Note_on_c,72,76,1,2,1,84.0,True
6229,3560, Note_on_c,75,76,1,2,1,87.0,False
6230,3561, Note_on_c,63,76,1,2,1,73.0,False
6231,3562, Note_on_c,68,76,1,2,1,79.0,False
6232,3562, Note_on_c,73,76,1,2,1,85.0,False
6233,3563, Note_on_c,72,76,1,2,1,84.0,True
6234,3563, Note_on_c,75,76,1,2,1,87.0,False
6235,3564, Note_on_c,68,76,1,2,1,79.0,False
6236,3564, Note_on_c,73,76,1,2,1,85.0,False
6237,3565, Note_on_c,70,76,1,2,1,81.0,False
6238,3565, Note_on_c,75,76,1,2,1,87.0,False
6239,3566, Note_on_c,63,76,1,2,1,73.0,False
6240,3567, Note_on_c,68,76,1,2,1,79.0,False
6241,3567, Note_on_c,73,76,1,2,1,85.0,False
6242,3568, Note_on_c,72,76,1,2,1,84.0,True
6243,3568, Note_on_c,75,76,1,2,1,87.0,False
6244,3569, Note_on_c,63,76,1,2,1,73.0,False
6245,3570, Note_on_c,68,76,1,2,1,79.0,False
6246,3570, Note_on_c,73,76,1,2,1,85.0,False
6247,3571, Note_on_c,72,76,1,2,1,84.0,True
6248,3571, Note_on_c,75,76,1,2,1,87.0,False
6249,3572, Note_on_c,68,76,1,2,1,79.0,False
6250,3572, Note_on_c,73,76,1,2,1,85.0,False
6251,3573, Note_on_c,70,76,1,2,1,81.0,False
6252,3573, Note_on_c,75,76,1,2,1,87.0,False
6253,3574, Note_on_c,63,76,1,2,1,73.0,False
6254,3575, Note_on_c,68,76,1,2,1,79.0,False
6255,3575, Note_on_c,73,76,1,2,1,85.0,False
6256,3576, Note_on_c,72,76,1,2,1,84.0,True
6257,3576, Note_on_c,75,76,1,2,1,87.0,False
6258,3577, Note_on_c,63,76,1,2,1,73.0,False
6259,3578, Note_on_c,68,76,1,2,1,79.0,False
6260,3578, Note_on_c,73,76,1,2,1,85.0,False
6261,3579, Note_on_c,72,76,1,2,1,84.0,True
6262,3579, Note_on_c,75,76,1,2,1,87.0,False
6263,3580, Note_on_c,68,76,1,2,1,79.0,False
6264,3580, Note_on_c,73,76,1,2,1,85.0,False
6265,3581, Note_on_c,70,76,1,2,1,81.0,False
6266,3581, Note_on_c,75,76,1,2,1,87.0,False
6267,3582, Note_on_c,63,76,1,2,1,73.0,False
6268,3583, Note_on_c,68,76,1,2,1,79.0,False
6269,3583, Note_on_c,73,76,1,2,1,85.0,False
6270,3584, Note_on_c,72,76,1,2,1,84.0,True
6271,3584, Note_on_c,75,76,1,2,1,87.0,False
6272,3585, Note_on_c,63,76,1,2,1,73.0,False
6273,3586, Note_on_c,68,76,1,2,1,79.0,False
6274,3586, Note_on_c,73,76,1,2,1,85.0,False
6275,3587, Note_on_c,72,76,1,2,1,84.0,True
6276,3587, Note_on_c,75,76,1,2,1,87.0,False
6277,3588, Note_on_c,68,76,1,2,1,79.0,False
6278,3588, Note_on_c,73,76,1,2,1,85.0,False
6279,3589, Note_on_c,70,76,1,2,1,81.0,False
6280,3589, Note_on_c,75,76,1,2,1,87.0,False
6281,3590, Note_on_c,63,76,1,2,1,73.0,False
6282,3591, Note_on_c,68,76,1,2,1,79.0,False
6283,3591, Note_on_c,73,76,1,2,1,85.0,False
6284,3592, Note_on_c,72,76,1,2,1,84.0,True
6285,3592, Note_on_c,75,76,1,2,1,87.0,False
6286,3593, Note_on_c,63,76,1,2,1,73.0,False
6287,3594, Note_on_c,68,76,1,2,1,79.0,False
6288,3594, Note_on_c,73,76,1,2,1,85.0,False
6289,3595, Note_on_c,72,76,1,2,1,84.0,True
6290,3595, Note_on_c,75,76,1,2,1,87.0,False
6291,3596, Note_on_c,68,76,1,2,1,79.0,False
6292,3596, Note_on_c,73,76,1,2,1,85.0,False
6293,3597, Note_on_c,70,76,1,2,1,81.0,False
6294,3597, Note_on_c,75,76,1,2,1,87.0,False
6295,3598, Note_on_c,63,76,1,2,1,73.0,False
6296,3599, Note_on_c,68,76,1,2,1,79.0,False
6297,3599, Note_on_c,73,76,1,2,1,85.0,False
6298,3600, Note_on_c,72,76,1,2,1,84.0,True
6299,3600, Note_on_c,75,76,1,2,1,87.0,False
6300,3601, Note_on_c,63,76,1,2,1,73.0,False
6301,3602, Note_on_c,68,76,1,2,1,79.0,False
6302,3602, Note_on_c,73,76,1,2,1,85.0,False
6303,3603, Note_on_c,72,76,1,2,1,84.0,True
6304,3603, Note_on_c,75,76,1,2,1,87.0,False
6305,3604, Note_on_c,68,76,1,2,1,79.0,False
6306,3604, Note_on_c,73,76,1,2,1,85.0,False
6307,3605, Note_on_c,70,76,1,2,1,81.0,False
6308,3605, Note_on_c,75,76,1,2,1,87.0,False
6309,3606, Note_on_c,63,76,1,2,1,73.0,False
6310,3607, Note_on_c,68,76,1,2,1,79.0,False
6311,3607, Note_on_c,73,76,1,2,1,85.0,False
6312,3608, Note_on_c,72,76,1,2,1,84.0,True
6313,3608, Note_on_c,75,76,1,2,1,87.0,False
6314,3609, Note_on_c,63,76,1,2,1,73.0,False
6315,3610, Note_on_c,68,76,1,2,1,79.0,False
6316,3610, Note_on_c,73,76,1,2,1,85.0,False
6317,3611, Note_on_c,72,76,1,2,1,84.0,True
6318,3611, Note_on_c,75,76,1,2,1,87.0,False
6319,3612, Note_on_c,68,76,1,2,1,79.0,False
6320,3612, Note_on_c,73,76,1,2,1,85.0,False
6321,3613, Note_on_c,70,76,1,2,1,81.0,False
6322,3613, Note_on_c,75,76,1,2,1,87.0,False
6323,3614, Note_on_c,63,76,1,2,1,73.0,False
6324,3615, Note_on_c,68,76,1,2,1,79.0,False
6325,3615, Note_on_c,73,76,1,2,1,85.0,False
6326,3616, Note_on_c,72,76,1,2,1,84.0,True
6327,3616, Note_on_c,75,76,1,2,1,87.0,False
6328,3617, Note_on_c,63,76,1,2,1,73.0,False
6329,3618, Note_on_c,68,76,1,2,1,79.0,False
6330,3618, Note_on_c,73,76,1,2,1,85.0,False
6331,3619, Note_on_c,72,76,1,2,1,84.0,True
6332,3619, Note_on_c,75,76,1,2,1,87.0,False
6333,3620, Note_on_c,68,76,1,2,1,79.0,False
6334,3620, Note_on_c,73,76,1,2,1,85.0,False
6335,3621, Note_on_c,70,76,1,2,1,81.0,False
6336,3621, Note_on_c,75,76,1,2,1,87.0,False
6337,3622, Note_on_c,63,76,1,2,1,73.0,False
6338,3623, Note_on_c,68,76,1,2,1,79.0,False
6339,3623, Note_on_c,73,76,1,2,1,85.0,False
6340,3624, Note_on_c,72,76,1,2,1,84.0,True
6341,3624, Note_on_c,75,76,1,2,1,87.0,False
6342,3625, Note_on_c,63,76,1,2,1,73.0,False
6343,3626, Note_on_c,68,76,1,2,1,79.0,False
6344,3626, Note_on_c,73,76,1,2,1,85.0,False
6345,3627, Note_on_c,72,76,1,2,1,84.0,True
6346,3627, Note_on_c,75,76,1,2,1,87.0,False
6347,3628, Note_on_c,68,76,1,2,1,79.0,False
6348,3628, Note_on_c,73,76,1,2,1,85.0,False
6349,3629, Note_on_c,70,76,1,2,1,81.0,False
6350,3629, Note_on_c,75,76,1,2,1,87.0,False
6351,3630, Note_on_c,63,76,1,2,1,73.0,False
6352,3631, Note_on_c,68,76,1,2,1,79.0,False
6353,3631, Note_on_c,73,76,1,2,1,85.0,False
6354,3632, Note_on_c,72,76,1,2,1,84.0,True
6355,3632, Note_on_c,75,76,1,2,1,87.0,False
6356,3633, Note_on_c,63,76,1,2,1,73.0,False
6357,3634, Note_on_c,68,76,1,2,1,79.0,False
6358,3634, Note_on_c,73,76,1,2,1,85.0,False
6359,3635, Note_on_c,72,76,1,2,1,84.0,True
6360,3635, Note_on_c,75,76,1,2,1,87.0,False
6361,3636, Note_on_c,68,76,1,2,1,79.0,False
6362,3636, Note_on_c,73,76,1,2,1,85.0,False
6363,3637, Note_on_c,70,76,1,2,1,81.0,False
6364,3637, Note_on_c,75,76,1,2,1,87.0,False
6365,3638, Note_on_c,63,76,1,2,1,73.0,False
6366,3639, Note_on_c,68,76,1,2,1,79.0,False
6367,3639, Note_on_c,73,76,1,2,1,85.0,False
6368,3640, Note_on_c,72,76,1,2,1,84.0,True
6369,3640, Note_on_c,75,76,1,2,1,87.0,False
6370,3641, Note_on_c,63,76,1,2,1,73.0,False
6371,3642, Note_on_c,68,76,1,2,1,79.0,False
6372,3642, Note_on_c,73,76,1,2,1,85.0,False
6373,3643, Note_on_c,72,76,1,2,1,84.0,True
6374,3643, Note_on_c,75,76,1,2,1,87.0,False
6375,3644, Note_on_c,68,76,1,2,1,79.0,False
6376,3644, Note_on_c,73,76,1,2,1,85.0,False
6377,3645, Note_on_c,70,76,1,2,1,81.0,False
6378,3645, Note_on_c,75,76,1,2,1,87.0,False
6379,3646, Note_on_c,63,76,1,2,1,73.0,False
6380,3647, Note_on_c,68,76,1,2,1,79.0,False
6381,3647, Note_on_c,73,76,1,2,1,85.0,False
6382,3648, Note_on_c,72,76,1,2,1,84.0,True
6383,3648, Note_on_c,75,76,1,2,1,87.0,False
6384,3649, Note_on_c,63,76,1,2,1,73.0,False
6385,3650, Note_on_c,68,76,1,2,1,79.0,False
6386,3650, Note_on_c,73,76,1,2,1,85.0,False
6387,3651, Note_on_c,72,76,1,2,1,84.0,True
6388,3651, Note_on_c,75,76,1,2,1,87.0,False
6389,3652, Note_on_c,68,76,1,2,1,79.0,False
6390,3652, Note_on_c,73,76,1,2,1,85.0,False
6391,3653, Note_on_c,70,76,1,2,1,81.0,False
6392,3653, Note_on_c,75,76,1,2,1,87.0,False
6393,3654, Note_on_c,63,76,1,2,1,73.0,False
6394,3655, Note_on_c,68,76,1,2,1,79.0,False
6395,3655, Note_on_c,73,76,1,2,1,85.0,False
6396,3656, Note_on_c,72,76,1,2,1,84.0,True
6397,3656, Note_on_c,75,76,1,2,1,87.0,False
6398,3657, Note_on_c,63,76,1,2,1,73.0,False
6399,3658, Note_on_c,68,76,1,2,1,79.0,False
6400,3658, Note_on_c,73,76,1,2,1,85.0,False
6401,3659, Note_on_c,72,76,1,2,1,84.0,True
6402,3659, Note_on_c,75,76,1,2,1,87.0,False
6403,3660, Note_on_c,68,76,1,2,1,79.0,False
6404,3660, Note_on_c,73,76,1,2,1,85.0,False
6405,3661, Note_on_c,70,76,1,2,1,81.0,False
6406,3661, Note_on_c,75,76,1,2,1,87.0,False
6407,3662, Note_on_c,63,76,1,2,1,73.0,False
6408,3663, Note_on_c,68,76,1,2,1,79.0,False
6409,3663, Note_on_c,73,76,1,2,1,85.0,False
6410,3664, Note_on_c,72,76,1,2,1,84.0,True
6411,3664, Note_on_c,75,76,1,2,1,87.0,False
6412,3665, Note_on_c,63,76,1,2,1,73.0,False
6413,3666, Note_on_c,68,76,1,2,1,79.0,False
6414,3666, Note_on_c,73,76,1,2,1,85.0,False
6415,3667, Note_on_c,72,76,1,2,1,84.0,True
6416,3667, Note_on_c,75,76,1,2,1,87.0,False
6417,3668, Note_on_c,68,76,1,2,1,79.0,False
6418,3668, Note_on_c,73,76,1,2,1,85.0,False
6419,3669, Note_on_c,70,76,1,2,1,81.0,False
6420,3669, Note_on_c,75,76,1,2,1,87.0,False
6421,3670, Note_on_c,63,76,1,2,1,73.0,False
6422,3671, Note_on_c,68,76,1,2,1,79.0,False
6423,3671, Note_on_c,73,76,1,2,1,85.0,False
6424,3672, Note_on_c,72,76,1,2,1,84.0,True
6425,3672, Note_on_c,75,76,1,2,1,87.0,False
6426,3673, Note_on_c,63,76,1,2,1,73.0,False
6427,3674, Note_on_c,68,76,1,2,1,79.0,False
6428,3674, Note_on_c,73,76,1,2,1,85.0,False
6429,3675, Note_on_c,72,76,1,2,1,84.0,True
6430,3675, Note_on_c,75,76,1,2,1,87.0,False
6431,3676, Note_on_c,68,76,1,2,1,79.0,False
6432,3676, Note_on_c,73,76,1,2,1,85.0,False
6433,3677, Note_on_c,70,76,1,2,1,81.0,False
6434,3677, Note_on_c,75,76,1,2,1,87.0,False
6435,3678, Note_on_c,63,76,1,2,1,73.0,False
6436,3679, Note_on_c,68,76,1,2,1,79.0,False
6437,3679, Note_on_c,73,76,1,2,1,85.0,False
6438,3680, Note_on_c,72,76,1,2,1,84.0,True
6439,3680, Note_on_c,75,76,1,2,1,87.0,False
6440,3681, Note_on_c,63,76,1,2,1,73.0,False
6441,3682, Note_on_c,68,76,1,2,1,79.0,False
6442,3682, Note_on_c,73,76,1,2,1,85.0,False
6443,3683, Note_on_c,72,76,1,2,1,84.0,True
6444,3683, Note_on_c,75,76,1,2,1,87.0,False
6445,3684, Note_on_c,68,76,1,2,1,79.0,False
6446,3684, Note_on_c,73,76,1,2,1,85.0,False
6447,3685, Note_on_c,70,76,1,2,1,81.0,False
6448,3685, Note_on_c,75,76,1,2,1,87.0,False
6449,3686, Note_on_c,63,76,1,2,1,73.0,False
6450,3687, Note_on_c,68,76,1,2,1,79.0,False
6451,3687, Note_on_c,73,76,1,2,1,85.0,False
6452,3688, Note_on_c,72,76,1,2,1,84.0,True
6453,3688, Note_on_c,75,76,1,2,1,87.0,False
6454,3689, Note_on_c,63,76,1,2,1,73.0,False
6455,3690, Note_on_c,68,76,1,2,1,79.0,False
6456,3690, Note_on_c,73,76,1,2,1,85.0,False
6457,3691, Note_on_c,72,76,1,2,1,84.0,True
6458,3691, Note_on_c,75,76,1,2,1,87.0,False
6459,3692, Note_on_c,68,76,1,2,1,79.0,False
6460,3692, Note_on_c,73,76,1,2,1,85.0,False
6461,3693, Note_on_c,70,76,1,2,1,81.0,False
6462,3693, Note_on_c,75,76,1,2,1,87.0,False
6463,3694, Note_on_c,63,76,1,2,1,73.0,False
6464,3695, Note_on_c,68,76,1,2,1,79.0,False
6465,3695, Note_on_c,73,76,1,2,1,85.0,False
6466,3696, Note_on_c,72,76,1,2,1,84.0,True
6467,3696, Note_on_c,75,76,1,2,1,87.0,False
6468,3697, Note_on_c,63,76,1,2,1,73.0,False
6469,3698, Note_on_c,68,76,1,2,1,79.0,False
6470,3698, Note_on_c,73,76,1,2,1,85.0,False
6471,3699, Note_on_c,72,76,1,2,1,84.0,True
6472,3699, Note_on_c,75,76,1,2,1,87.0,False
6473,3700, Note_on_c,68,76,1,2,1,79.0,False
6474,3700, Note_on_c,73,76,1,2,1,85.0,False
6475,3701, Note_on_c,70,76,1,2,1,81.0,False
6476,3701, Note_on_c,75,76,1,2,1,87.0,False
6477,3702, Note_on_c,63,76,1,2,1,73.0,False
6478,3703, Note_on_c,68,76,1,2,1,79.0,False
6479,3703, Note_on_c,73,76,1,2,1,85.0,False
6480,3704, Note_on_c,72,76,1,2,1,84.0,True
6481,3704, Note_on_c,75,76,1,2,1,87.0,False
6482,3705, Note_on_c,63,76,1,2,1,73.0,False
6483,3706, Note_on_c,68,76,1,2,1,79.0,False
6484,3706, Note_on_c,73,76,1,2,1,85.0,False
6485,3707, Note_on_c,72,76,1,2,1,84.0,True
6486,3707, Note_on_c,75,76,1,2,1,87.0,False
6487,3708, Note_on_c,68,76,1,2,1,79.0,False
6488,3708, Note_on_c,73,76,1,2,1,85.0,False
6489,3709, Note_on_c,70,76,1,2,1,81.0,False
6490,3709, Note_on_c,75,76,1,2,1,87.0,False
6491,3710, Note_on_c,63,76,1,2,1,73.0,False
6492,3711, Note_on_c,68,76,1,2,1,79.0,False
6493,3711, Note_on_c,73,76,1,2,1,85.0,False
6494,3712, Note_on_c,72,76,1,2,1,84.0,True
6495,3712, Note_on_c,75,76,1,2,1,87.0,False
6496,3713, Note_on_c,63,76,1,2,1,73.0,False
6497,3714, Note_on_c,68,76,1,2,1,79.0,False
6498,3714, Note_on_c,73,76,1,2,1,85.0,False
6499,3715, Note_on_c,72,76,1,2,1,84.0,True
6500,3715, Note_on_c,75,76,1,2,1,87.0,False
6501,3716, Note_on_c,68,76,1,2,1,79.0,False
6502,3716, Note_on_c,73,76,1,2,1,85.0,False
6503,3717, Note_on_c,70,76,1,2,1,81.0,False
6504,3717, Note_on_c,75,76,1,2,1,87.0,False
6505,3718, Note_on_c,63,76,1,2,1,73.0,False
6506,3719, Note_on_c,68,76,1,2,1,79.0,False
6507,3719, Note_on_c,73,76,1,2,1,85.0,False
6508,3720, Note_on_c,72,76,1,2,1,84.0,True
6509,3720, Note_on_c,75,76,1,2,1,87.0,False
6510,3721, Note_on_c,63,76,1,2,1,73.0,False
6511,3722, Note_on_c,68,76,1,2,1,79.0,False
6512,3722, Note_on_c,73,76,1,2,1,85.0,False
6513,3723, Note_on_c,72,76,1,2,1,84.0,True
6514,3723, Note_on_c,75,76,1,2,1,87.0,False
6515,3724, Note_on_c,68,76,1,2,1,79.0,False
6516,3724, Note_on_c,73,76,1,2,1,85.0,False
6517,3725, Note_on_c,70,76,1,2,1,81.0,False
6518,3725, Note_on_c,75,76,1,2,1,87.0,False
6519,3726, Note_on_c,63,76,1,2,1,73.0,False
6520,3727, Note_on_c,68,76,1,2,1,79.0,False
6521,3727, Note_on_c,73,76,1,2,1,85.0,False
6522,3728, Note_on_c,72,76,1,2,1,84.0,True
6523,3728, Note_on_c,75,76,1,2,1,87.0,False
6524,3729, Note_on_c,63,76,1,2,1,73.0,False
6525,3730, Note_on_c,68,76,1,2,1,79.0,False
6526,3730, Note_on_c,73,76,1,2,1,85.0,False
6527,3731, Note_on_c,72,76,1,2,1,84.0,True
6528,3731, Note_on_c,75,76,1,2,1,87.0,False
6529,3732, Note_on_c,68,76,1,2,1,79.0,False
6530,3732, Note_on_c,73,76,1,2,1,85.0,False
6531,3733, Note_on_c,70,76,1,2,1,81.0,False
6532,3733, Note_on_c,75,76,1,2,1,87.0,False
6533,3734, Note_on_c,63,76,1,2,1,73.0,False
6534,3735, Note_on_c,68,76,1,2,1,79.0,False
6535,3735, Note_on_c,73,76,1,2,1,85.0,False
6536,3736, Note_on_c,72,76,1,2,1,84.0,True
6537,3736, Note_on_c,75,76,1,2,1,87.0,False
6538,3737, Note_on_c,63,76,1,2,1,73.0,False
6539,3738, Note_on_c,68,76,1,2,1,79.0,False
6540,3738, Note_on_c,73,76,1,2,1,85.0,False
6541,3739, Note_on_c,72,76,1,2,1,84.0,True
6542,3739, Note_on_c,75,76,1,2,1,87.0,False
6543,3740, Note_on_c,68,76,1,2,1,79.0,False
6544,3740, Note_on_c,73,76,1,2,1,85.0,False
6545,3741, Note_on_c,70,76,1,2,1,81.0,False
6546,3741, Note_on_c,75,76,1,2,1,87.0,False
6547,3742, Note_on_c,63,76,1,2,1,73.0,False
6548,3743, Note_on_c,68,76,1,2,1,79.0,False
6549,3743, Note_on_c,73,76,1,2,1,85.0,False
6550,3744, Note_on_c,72,76,1,2,1,84.0,True
6551,3744, Note_on_c,75,76,1,2,1,87.0,False
6552,3745, Note_on_c,63,76,1,2,1,73.0,False
6553,3746, Note_on_c,68,76,1,2,1,79.0,False
6554,3746, Note_on_c,73,76,1,2,1,85.0,False
6555,3747, Note_on_c,72,76,1,2,1,84.0,True
6556,3747, Note_on_c,75,76,1,2,1,87.0,False
6557,3748, Note_on_c,68,76,1,2,1,79.0,False
6558,3748, Note_on_c,73,76,1,2,1,85.0,False
6559,3749, Note_on_c,70,76,1,2,1,81.0,False
6560,3749, Note_on_c,75,76,1,2,1,87.0,False
6561,3750, Note_on_c,63,76,1,2,1,73.0,False
6562,3751, Note_on_c,68,76,1,2,1,79.0,False
6563,3751, Note_on_c,73,76,1,2,1,85.0,False
6564,3752, Note_on_c,72,76,1,2,1,84.0,True
6565,3752, Note_on_c,75,76,1,2,1,87.0,False
6566,3753, Note_on_c,63,76,1,2,1,73.0,False
6567,3754, Note_on_c,68,76,1,2,1,79.0,False
6568,3754, Note_on_c,73,76,1,2,1,85.0,False
6569,3755, Note_on_c,72,76,1,2,1,84.0,True
6570,3755, Note_on_c,75,76,1,2,1,87.0,False
6571,3756, Note_on_c,68,76,1,2,1,79.0,False
6572,3756, Note_on_c,73,76,1,2,1,85.0,False
6573,3757, Note_on_c,70,76,1,2,1,81.0,False
6574,3757, Note_on_c,75,76,1,2,1,87.0,False
6575,3758, Note_on_c,63,76,1,2,1,73.0,False
6576,3759, Note_on_c,68,76,1,2,1,79.0,False
6577,3759, Note_on_c,73,76,1,2,1,85.0,False
6578,3760, Note_on_c,72,76,1,2,1,84.0,True
6579,3760, Note_on_c,75,76,1,2,1,87.0,False
6580,3761, Note_on_c,63,76,1,2,1,73.0,False
6581,3762, Note_on_c,68,76,1,2,1,79.0,False
6582,3762, Note_on_c,73,76,1,2,1,85.0,False
6583,3763, Note_on_c,72,76,1,2,1,84.0,True
6584,3763, Note_on_c,75,76,1,2,1,87.0,False
6585,3764, Note_on_c,68,76,1,2,1,79.0,False
6586,3764, Note_on_c,73,76,1,2,1,85.0,False
6587,3765, Note_on_c,70,76,1,2,1,81.0,False
6588,3765, Note_on_c,75,76,1,2,1,87.0,False
6589,3766, Note_on_c,63,76,1,2,1,73.0,False
6590,3767, Note_on_c,68,76,1,2,1,79.0,False
6591,3767, Note_on_c,73,76,1,2,1,85.0,False
6592,3768, Note_on_c,72,76,1,2,1,84.0,True
6593,3768, Note_on_c,75,76,1,2,1,87.0,False
6594,3769, Note_on_c,63,76,1,2,1,73.0,False
6595,3770, Note_on_c,68,76,1,2,1,79.0,False
6596,3770, Note_on_c,73,76,1,2,1,85.0,False
6597,3771, Note_on_c,72,76,1,2,1,84.0,True
6598,3771, Note_on_c,75,76,1,2,1,87.0,False
6599,3772, Note_on_c,68,76,1,2,1,79.0,False
6600,3772, Note_on_c,73,76,1,2,1,85.0,False
6601,3773, Note_on_c,70,76,1,2,1,81.0,False
6602,3773, Note_on_c,75,76,1,2,1,87.0,False
6603,3774, Note_on_c,63,76,1,2,1,73.0,False
6604,3775, Note_on_c,68,76,1,2,1,79.0,False
6605,3775, Note_on_c,73,76,1,2,1,85.0,False
6606,3776, Note_on_c,72,76,1,2,1,84.0,True
6607,3776, Note_on_c,75,76,1,2,1,87.0,False
6608,3777, Note_on_c,63,76,1,2,1,73.0,False
6609,3778, Note_on_c,68,76,1,2,1,79.0,False
6610,3778, Note_on_c,73,76,1,2,1,85.0,False
6611,3779, Note_on_c,72,76,1,2,1,84.0,True
6612,3779, Note_on_c,75,76,1,2,1,87.0,False
6613,3780, Note_on_c,68,76,1,2,1,79.0,False
6614,3780, Note_on_c,73,76,1,2,1,85.0,False
6615,3781, Note_on_c,70,76,1,2,1,81.0,False
6616,3781, Note_on_c,75,76,1,2,1,87.0,False
6617,3782, Note_on_c,63,76,1,2,1,73.0,False
6618,3783, Note_on_c,68,76,1,2,1,79.0,False
6619,3783, Note_on_c,73,76,1,2,1,85.0,False
6620,3784, Note_on_c,72,76,1,2,1,84.0,True
6621,3784, Note_on_c,75,76,1,2,1,87.0,False
6622,3785, Note_on_c,63,76,1,2,1,73.0,False
6623,3786, Note_on_c,68,76,1,2,1,79.0,False
6624,3786, Note_on_c,73,76,1,2,1,85.0,False
6625,3787, Note_on_c,72,76,1,2,1,84.0,True
6626,3787, Note_on_c,75,76,1,2,1,87.0,False
6627,3788, Note_on_c,68,76,1,2,1,79.0,False
6628,3788, Note_on_c,73,76,1,2,1,85.0,False
6629,3789, Note_on_c,70,76,1,2,1,81.0,False
6630,3789, Note_on_c,75,76,1,2,1,87.0,False
6631,3790, Note_on_c,63,76,1,2,1,73.0,False
6632,3791, Note_on_c,68,76,1,2,1,79.0,False
6633,3791, Note_on_c,73,76,1,2,1,85.0,False
6634,3792, Note_on_c,72,76,1,2,1,84.0,True
6635,3792, Note_on_c,75,76,1,2,1,87.0,False
6636,3793, Note_on_c,63,76,1,2,1,73.0,False
6637,3794, Note_on_c,68,76,1,2,1,79.0,False
6638,3794, Note_on_c,73,76,1,2,1,85.0,False
6639,3795, Note_on_c,72,76,1,2,1,84.0,True
6640,3795, Note_on_c,75,76,1,2,1,87.0,False
6641,3796, Note_on_c,68,76,1,2,1,79.0,False
6642,3796, Note_on_c,73,76,1,2,1,85.0,False
6643,3797, Note_on_c,70,76,1,2,1,81.0,False
6644,3797, Note_on_c,75,76,1,2,1,87.0,False
6645,3798, Note_on_c,63,76,1,2,1,73.0,False
6646,3799, Note_on_c,68,76,1,2,1,79.0,False
6647,3799, Note_on_c,73,76,1,2,1,85.0,False
6648,3800, Note_on_c,72,76,1,2,1,84.0,True
6649,3800, Note_on_c,75,76,1,2,1,87.0,False
6650,3801, Note_on_c,63,76,1,2,1,73.0,False
6651,3802, Note_on_c,68,76,1,2,1,79.0,False
6652,3802, Note_on_c,73,76,1,2,1,85.0,False
6653,3803, Note_on_c,72,76,1,2,1,84.0,True
6654,3803, Note_on_c,75,76,1,2,1,87.0,False
6655,3804, Note_on_c,68,76,1,2,1,79.0,False
6656,3804, Note_on_c,73,76,1,2,1,85.0,False
6657,3805, Note_on_c,70,76,1,2,1,81.0,False
6658,3805, Note_on_c,75,76,1,2,1,87.0,False
6659,3806, Note_on_c,63,76,1,2,1,73.0,False
6660,3807, Note_on_c,68,76,1,2,1,79.0,False
6661,3807, Note_on_c,73,76,1,2,1,85.0,False
6662,3808, Note_on_c,72,76,1,2,1,84.0,True
6663,3808, Note_on_c,75,76,1,2,1,87.0,False
6664,3809, Note_on_c,63,76,1,2,1,73.0,False
6665,3810, Note_on_c,68,76,1,2,1,79.0,False
6666,3810, Note_on_c,73,76,1,2,1,85.0,False
6667,3811, Note_on_c,72,76,1,2,1,84.0,True
6668,3811, Note_on_c,75,76,1,2,1,87.0,False
6669,3812, Note_on_c,68,76,1,2,1,79.0,False
6670,3812, Note_on_c,73,76,1,2,1,85.0,False
6671,3813, Note_on_c,70,76,1,2,1,81.0,False
6672,3813, Note_on_c,75,76,1,2,1,87.0,False
6673,3814, Note_on_c,63,76,1,2,1,73.0,False
6674,3815, Note_on_c,68,76,1,2,1,79.0,False
6675,3815, Note_on_c,73,76,1,2,1,85.0,False
6676,3816, Note_on_c,72,76,1,2,1,84.0,True
6677,3816, Note_on_c,75,76,1,2,1,87.0,False
6678,3817, Note_on_c,63,76,1,2,1,73.0,False
6679,3818, Note_on_c,68,76,1,2,1,79.0,False
6680,3818, Note_on_c,73,76,1,2,1,85.0,False
6681,3819, Note_on_c,72,76,1,2,1,84.0,True
6682,3819, Note_on_c,75,76,1,2,1,87.0,False
6683,3820, Note_on_c,68,76,1,2,1,79.0,False
6684,3820, Note_on_c,73,76,1,2,1,85.0,False
6685,3821, Note_on_c,70,76,1,2,1,81.0,False
6686,3821, Note_on_c,75,76,1,2,1,87.0,False
6687,3822, Note_on_c,63,76,1,2,1,73.0,False
6688,3823, Note_on_c,68,76,1,2,1,79.0,False
6689,3823, Note_on_c,73,76,1,2,1,85.0,False
6690,3824, Note_on_c,72,76,1,2,1,84.0,True
6691,3824, Note_on_c,75,76,1,2,1,87.0,False
6692,3825, Note_on_c,63,76,1,2,1,73.0,False
6693,3826, Note_on_c,68,76,1,2,1,79.0,False
6694,3826, Note_on_c,73,76,1,2,1,85.0,False
6695,3827, Note_on_c,72,76,1,2,1,84.0,True
6696,3827, Note_on_c,75,76,1,2,1,87.0,False
6697,3828, Note_on_c,68,76,1,2,1,79.0,False
6698,3828, Note_on_c,73,76,1,2,1,85.0,False
6699,3829, Note_on_c,70,76,1,2,1,81.0,False
6700,3829, Note_on_c,75,76,1,2,1,87.0,False
6701,3830, Note_on_c,63,76,1,2,1,73.0,False
6702,3831, Note_on_c,68,76,1,2,1,79.0,False
6703,3831, Note_on_c,73,76,1,2,1,85.0,False
6704,3832, Note_on_c,72,76,1,2,1,84.0,True
6705,3832, Note_on_c,75,76,1,2,1,87.0,False
6706,3833, Note_on_c,63,76,1,2,1,73.0,False
6707,3834, Note_on_c,68,76,1,2,1,79.0,False
6708,3834, Note_on_c,73,76,1,2,1,85.0,False
6709,3835, Note_on_c,72,76,1,2,1,84.0,True
6710,3835, Note_on_c,75,76,1,2,1,87.0,False
6711,3836, Note_on_c,68,76,1,2,1,79.0,False
6712,3836, Note_on_c,73,76,1,2,1,85.0,False
6713,3837, Note_on_c,70,76,1,2,1,81.0,False
6714,3837, Note_on_c,75,76,1,2,1,87.0,False
6715,3838, Note_on_c,63,76,1,2,1,73.0,False
6716,3839, Note_on_c,68,76,1,2,1,79.0,False
6717,3839, Note_on_c,73,76,1,2,1,85.0,False
6718,3840, Note_on_c,72,76,1,2,1,84.0,True
6719,3840, Note_on_c,75,76,1,2,1,87.0,False
6720,3841, Note_on_c,63,76,1,2,1,73.0,False
6721,3842, Note_on_c,68,76,1,2,1,79.0,False
6722,3842, Note_on_c,73,76,1,2,1,85.0,False
6723,3843, Note_on_c,72,76,1,2,1,84.0,True
6724,3843, Note_on_c,75,76,1,2,1,87.0,False
6725,3844, Note_on_c,68,76,1,2,1,79.0,False
6726,3844, Note_on_c,73,76,1,2,1,85.0,False
6727,3845, Note_on_c,70,76,1,2,1,81.0,False
6728,3845, Note_on_c,75,76,1,2,1,87.0,False
6729,3846, Note_on_c,63,76,1,2,1,73.0,False
6730,3847, Note_on_c,68,76,1,2,1,79.0,False
6731,3847, Note_on_c,73,76,1,2,1,85.0,False
6732,3848, Note_on_c,72,76,1,2,1,84.0,True
6733,3848, Note_on_c,75,76,1,2,1,87.0,False
6734,3849, Note_on_c,63,76,1,2,1,73.0,False
6735,3850, Note_on_c,68,76,1,2,1,79.0,False
6736,3850, Note_on_c,73,76,1,2,1,85.0,False
6737,3851, Note_on_c,72,76,1,2,1,84.0,True
6738,3851, Note_on_c,75,76,1,2,1,87.0,False
6739,3852, Note_on_c,68,76,1,2,1,79.0,False
6740,3852, Note_on_c,73,76,1,2,1,85.0,False
6741,3853, Note_on_c,70,76,1,2,1,81.0,False
6742,3853, Note_on_c,75,76,1,2,1,87.0,False
6743,3854, Note_on_c,63,76,1,2,1,73.0,False
6744,3855, Note_on_c,68,76,1,2,1,79.0,False
6745,3855, Note_on_c,73,76,1,2,1,85.0,False
6746,3856, Note_on_c,72,76,1,2,1,84.0,True
6747,3856, Note_on_c,75,76,1,2,1,87.0,False
6748,3857, Note_on_c,63,76,1,2,1,73.0,False
6749,3858, Note_on_c,68,76,1,2,1,79.0,False
6750,3858, Note_on_c,73,76,1,2,1,85.0,False
6751,3859, Note_on_c,72,76,1,2,1,84.0,True
6752,3859, Note_on_c,75,76,1,2,1,87.0,False
6753,3860, Note_on_c,68,76,1,2,1,79.0,False
6754,3860, Note_on_c,73,76,1,2,1,85.0,False
6755,3861, Note_on_c,70,76,1,2,1,81.0,False
6756,3861, Note_on_c,75,76,1,2,1,87.0,False
6757,3862, Note_on_c,63,76,1,2,1,73.0,False
6758,3863, Note_on_c,68,76,1,2,1,79.0,False
6759,3863, Note_on_c,73,76,1,2,1,85.0,False
6760,3864, Note_on_c,72,76,1,2,1,84.0,True
6761,3864, Note_on_c,75,76,1,2,1,87.0,False
6762,3865, Note_on_c,63,76,1,2,1,73.0,False
6763,3866, Note_on_c,68,76,1,2,1,79.0,False
6764,3866, Note_on_c,73,76,1,2,1,85.0,False
6765,3867, Note_on_c,72,76,1,2,1,84.0,True
6766,3867, Note_on_c,75,76,1,2,1,87.0,False
6767,3868, Note_on_c,68,76,1,2,1,79.0,False
6768,3868, Note_on_c,73,76,1,2,1,85.0,False
6769,3869, Note_on_c,70,76,1,2,1,81.0,False
6770,3869, Note_on_c,75,76,1,2,1,87.0,False
6771,3870, Note_on_c,63,76,1,2,1,73.0,False
6772,3871, Note_on_c,68,76,1,2,1,79.0,False
6773,3871, Note_on_c,73,76,1,2,1,85.0,False
6774,3872, Note_on_c,72,76,1,2,1,84.0,True
6775,3872, Note_on_c,75,76,1,2,1,87.0,False
6776,3873, Note_on_c,63,76,1,2,1,73.0,False
6777,3874, Note_on_c,68,76,1,2,1,79.0,False
6778,3874, Note_on_c,73,76,1,2,1,85.0,False
6779,3875, Note_on_c,72,76,1,2,1,84.0,True
6780,3875, Note_on_c,75,76,1,2,1,87.0,False
6781,3876, Note_on_c,68,76,1,2,1,79.0,False
6782,3876, Note_on_c,73,76,1,2,1,85.0,False
6783,3877, Note_on_c,70,76,1,2,1,81.0,False
6784,3877, Note_on_c,75,76,1,2,1,87.0,False
6785,3878, Note_on_c,63,76,1,2,1,73.0,False
6786,3879, Note_on_c,68,76,1,2,1,79.0,False
6787,3879, Note_on_c,73,76,1,2,1,85.0,False
6788,3880, Note_on_c,72,76,1,2,1,84.0,True
6789,3880, Note_on_c,75,76,1,2,1,87.0,False
6790,3881, Note_on_c,63,76,1,2,1,73.0,False
6791,3882, Note_on_c,68,76,1,2,1,79.0,False
6792,3882, Note_on_c,73,76,1,2,1,85.0,False
6793,3883, Note_on_c,72,76,1,2,1,84.0,True
6794,3883, Note_on_c,75,76,1,2,1,87.0,False
6795,3884, Note_on_c,68,76,1,2,1,79.0,False
6796,3884, Note_on_c,73,76,1,2,1,85.0,False
6797,3885, Note_on_c,70,76,1,2,1,81.0,False
6798,3885, Note_on_c,75,76,1,2,1,87.0,False
6799,3886, Note_on_c,63,76,1,2,1,73.0,False
6800,3887, Note_on_c,68,76,1,2,1,79.0,False
6801,3887, Note_on_c,73,76,1,2,1,85.0,False
6802,3888, Note_on_c,72,76,1,2,1,84.0,True
6803,3888, Note_on_c,75,76,1,2,1,87.0,False
6804,3889, Note_on_c,63,76,1,2,1,73.0,False
6805,3890, Note_on_c,68,76,1,2,1,79.0,False
6806,3890, Note_on_c,73,76,1,2,1,85.0,False
6807,3891, Note_on_c,72,76,1,2,1,84.0,True
6808,3891, Note_on_c,75,76,1,2,1,87.0,False
6809,3892, Note_on_c,68,76,1,2,1,79.0,False
6810,3892, Note_on_c,73,76,1,2,1,85.0,False
6811,3893, Note_on_c,70,76,1,2,1,81.0,False
6812,3893, Note_on_c,75,76,1,2,1,87.0,False
6813,3894, Note_on_c,63,76,1,2,1,73.0,False
6814,3895, Note_on_c,68,76,1,2,1,79.0,False
6815,3895, Note_on_c,73,76,1,2,1,85.0,False
6816,3896, Note_on_c,72,76,1,2,1,84.0,True
6817,3896, Note_on_c,75,76,1,2,1,87.0,False
6818,3897, Note_on_c,63,76,1,2,1,73.0,False
6819,3898, Note_on_c,68,76,1,2,1,79.0,False
6820,3898, Note_on_c,73,76,1,2,1,85.0,False
6821,3899, Note_on_c,72,76,1,2,1,84.0,True
6822,3899, Note_on_c,75,76,1,2,1,87.0,False
6823,3900, Note_on_c,68,76,1,2,1,79.0,False
6824,3900, Note_on_c,73,76,1,2,1,85.0,False
6825,3901, Note_on_c,70,76,1,2,1,81.0,False
6826,3901, Note_on_c,75,76,1,2,1,87.0,False
6827,3902, Note_on_c,63,76,1,2,1,73.0,False
6828,3903, Note_on_c,68,76,1,2,1,79.0,False
6829,3903, Note_on_c,73,76,1,2,1,85.0,False
6830,3904, Note_on_c,72,76,1,2,1,84.0,True
6831,3904, Note_on_c,75,76,1,2,1,87.0,False
6832,3905, Note_on_c,63,76,1,2,1,73.0,False
6833,3906, Note_on_c,68,76,1,2,1,79.0,False
6834,3906, Note_on_c,73,76,1,2,1,85.0,False
6835,3907, Note_on_c,72,76,1,2,1,84.0,True
6836,3907, Note_on_c,75,76,1,2,1,87.0,False
6837,3908, Note_on_c,68,76,1,2,1,79.0,False
6838,3908, Note_on_c,73,76,1,2,1,85.0,False
6839,3909, Note_on_c,70,76,1,2,1,81.0,False
6840,3909, Note_on_c,75,76,1,2,1,87.0,False
6841,3910, Note_on_c,63,76,1,2,1,73.0,False
6842,3911, Note_on_c,68,76,1,2,1,79.0,False
6843,3911, Note_on_c,73,76,1,2,1,85.0,False
6844,3912, Note_on_c,72,76,1,2,1,84.0,True
6845,3912, Note_on_c,75,76,1,2,1,87.0,False
6846,3913, Note_on_c,63,76,1,2,1,73.0,False
6847,3914, Note_on_c,68,76,1,2,1,79.0,False
6848,3914, Note_on_c,73,76,1,2,1,85.0,False
6849,3915, Note_on_c,72,76,1,2,1,84.0,True
6850,3915, Note_on_c,75,76,1,2,1,87.0,False
6851,3916, Note_on_c,68,76,1,2,1,79.0,False
6852,3916, Note_on_c,73,76,1,2,1,85.0,False
6853,3917, Note_on_c,70,76,1,2,1,81.0,False
6854,3917, Note_on_c,75,76,1,2,1,87.0,False
6855,3918, Note_on_c,63,76,1,2,1,73.0,False
6856,3919, Note_on_c,68,76,1,2,1,79.0,False
6857,3919, Note_on_c,73,76,1,2,1,85.0,False
6858,3920, Note_on_c,72,76,1,2,1,84.0,True
6859,3920, Note_on_c,75,76,1,2,1,87.0,False
6860,3921, Note_on_c,63,76,1,2,1,73.0,False
6861,3922, Note_on_c,68,76,1,2,1,79.0,False
6862,3922, Note_on_c,73,76,1,2,1,85.0,False
6863,3923, Note_on_c,72,76,1,2,1,84.0,True
6864,3923, Note_on_c,75,76,1,2,1,87.0,False
6865,3924, Note_on_c,68,76,1,2,1,79.0,False
6866,3924, Note_on_c,73,76,1,2,1,85.0,False
6867,3925, Note_on_c,70,76,1,2,1,81.0,False
6868,3925, Note_on_c,75,76,1,2,1,87.0,False
6869,3926, Note_on_c,63,76,1,2,1,73.0,False
6870,3927, Note_on_c,68,76,1,2,1,79.0,False
6871,3927, Note_on_c,73,76,1,2,1,85.0,False
6872,3928, Note_on_c,72,76,1,2,1,84.0,True
6873,3928, Note_on_c,75,76,1,2,1,87.0,False
6874,3929, Note_on_c,63,76,1,2,1,73.0,False
6875,3930, Note_on_c,68,76,1,2,1,79.0,False
6876,3930, Note_on_c,73,76,1,2,1,85.0,False
6877,3931, Note_on_c,72,76,1,2,1,84.0,True
6878,3931, Note_on_c,75,76,1,2,1,87.0,False
6879,3932, Note_on_c,68,76,1,2,1,79.0,False
6880,3932, Note_on_c,73,76,1,2,1,85.0,False
6881,3933, Note_on_c,70,76,1,2,1,81.0,False
6882,3933, Note_on_c,75,76,1,2,1,87.0,False
6883,3934, Note_on_c,63,76,1,2,1,73.0,False
6884,3935, Note_on_c,68,76,1,2,1,79.0,False
6885,3935, Note_on_c,73,76,1,2,1,85.0,False
6886,3936, Note_on_c,72,76,1,2,1,84.0,True
6887,3936, Note_on_c,75,76,1,2,1,87.0,False
6888,3937, Note_on_c,63,76,1,2,1,73.0,False
6889,3938, Note_on_c,68,76,1,2,1,79.0,False
6890,3938, Note_on_c,73,76,1,2,1,85.0,False
6891,3939, Note_on_c,72,76,1,2,1,84.0,True
6892,3939, Note_on_c,75,76,1,2,1,87.0,False
6893,3940, Note_on_c,68,76,1,2,1,79.0,False
6894,3940, Note_on_c,73,76,1,2,1,85.0,False
6895,3941, Note_on_c,70,76,1,2,1,81.0,False
6896,3941, Note_on_c,75,76,1,2,1,87.0,False
6897,3942, Note_on_c,63,76,1,2,1,73.0,False
6898,3943, Note_on_c,68,76,1,2,1,79.0,False
6899,3943, Note_on_c,73,76,1,2,1,85.0,False
6900,3944, Note_on_c,72,76,1,2,1,84.0,True
6901,3944, Note_on_c,75,76,1,2,1,87.0,False
6902,3945, Note_on_c,63,76,1,2,1,73.0,False
6903,3946, Note_on_c,68,76,1,2,1,79.0,False
6904,3946, Note_on_c,73,76,1,2,1,85.0,False
6905,3947, Note_on_c,72,76,1,2,1,84.0,True
6906,3947, Note_on_c,75,76,1,2,1,87.0,False
6907,3948, Note_on_c,68,76,1,2,1,79.0,False
6908,3948, Note_on_c,73,76,1,2,1,85.0,False
6909,3949, Note_on_c,70,76,1,2,1,81.0,False
6910,3949, Note_on_c,75,76,1,2,1,87.0,False
6911,3950, Note_on_c,63,76,1,2,1,73.0,False
6912,3951, Note_on_c,68,76,1,2,1,79.0,False
6913,3951, Note_on_c,73,76,1,2,1,85.0,False
6914,3952, Note_on_c,72,76,1,2,1,84.0,True
6915,3952, Note_on_c,75,76,1,2,1,87.0,False
6916,3953, Note_on_c,63,76,1,2,1,73.0,False
6917,3954, Note_on_c,68,76,1,2,1,79.0,False
6918,3954, Note_on_c,73,76,1,2,1,85.0,False
6919,3955, Note_on_c,72,76,1,2,1,84.0,True
6920,3955, Note_on_c,75,76,1,2,1,87.0,False
6921,3956, Note_on_c,68,76,1,2,1,79.0,False
6922,3956, Note_on_c,73,76,1,2,1,85.0,False
6923,3957, Note_on_c,70,76,1,2,1,81.0,False
6924,3957, Note_on_c,75,76,1,2,1,87.0,False
6925,3958, Note_on_c,63,76,1,2,1,73.0,False
6926,3959, Note_on_c,68,76,1,2,1,79.0,False
6927,3959, Note_on_c,73,76,1,2,1,85.0,False
6928,3960, Note_on_c,72,76,1,2,1,84.0,True
6929,3960, Note_on_c,75,76,1,2,1,87.0,False
6930,3961, Note_on_c,63,76,1,2,1,73.0,False
6931,3962, Note_on_c,68,76,1,2,1,79.0,False
6932,3962, Note_on_c,73,76,1,2,1,85.0,False
6933,3963, Note_on_c,72,76,1,2,1,84.0,True
6934,3963, Note_on_c,75,76,1,2,1,87.0,False
6935,3964, Note_on_c,68,76,1,2,1,79.0,False
6936,3964, Note_on_c,73,76,1,2,1,85.0,False
6937,3965, Note_on_c,70,76,1,2,1,81.0,False
6938,3965, Note_on_c,75,76,1,2,1,87.0,False
6939,3966, Note_on_c,63,76,1,2,1,73.0,False
6940,3967, Note_on_c,68,76,1,2,1,79.0,False
6941,3967, Note_on_c,73,76,1,2,1,85.0,False
6942,3968, Note_on_c,72,76,1,2,1,84.0,True
6943,3968, Note_on_c,75,76,1,2,1,87.0,False
6944,3969, Note_on_c,63,76,1,2,1,73.0,False
6945,3970, Note_on_c,68,76,1,2,1,79.0,False
6946,3970, Note_on_c,73,76,1,2,1,85.0,False
6947,3971, Note_on_c,72,76,1,2,1,84.0,True
6948,3971, Note_on_c,75,76,1,2,1,87.0,False
6949,3972, Note_on_c,68,76,1,2,1,79.0,False
6950,3972, Note_on_c,73,76,1,2,1,85.0,False
6951,3973, Note_on_c,70,76,1,2,1,81.0,False
6952,3973, Note_on_c,75,76,1,2,1,87.0,False
6953,3974, Note_on_c,63,76,1,2,1,73.0,False
6954,3975, Note_on_c,68,76,1,2,1,79.0,False
6955,3975, Note_on_c,73,76,1,2,1,85.0,False
6956,3976, Note_on_c,72,76,1,2,1,84.0,True
6957,3976, Note_on_c,75,76,1,2,1,87.0,False
6958,3977, Note_on_c,63,76,1,2,1,73.0,False
6959,3978, Note_on_c,68,76,1,2,1,79.0,False
6960,3978, Note_on_c,73,76,1,2,1,85.0,False
6961,3979, Note_on_c,72,76,1,2,1,84.0,True
6962,3979, Note_on_c,75,76,1,2,1,87.0,False
6963,3980, Note_on_c,68,76,1,2,1,79.0,False
6964,3980, Note_on_c,73,76,1,2,1,85.0,False
6965,3981, Note_on_c,70,76,1,2,1,81.0,False
6966,3981, Note_on_c,75,76,1,2,1,87.0,False
6967,3982, Note_on_c,63,76,1,2,1,73.0,False
6968,3983, Note_on_c,68,76,1,2,1,79.0,False
6969,3983, Note_on_c,73,76,1,2,1,85.0,False
6970,3984, Note_on_c,72,76,1,2,1,84.0,True
6971,3984, Note_on_c,75,76,1,2,1,87.0,False
6972,3985, Note_on_c,63,76,1,2,1,73.0,False
6973,3986, Note_on_c,68,76,1,2,1,79.0,False
6974,3986, Note_on_c,73,76,1,2,1,85.0,False
6975,3987, Note_on_c,72,76,1,2,1,84.0,True
6976,3987, Note_on_c,75,76,1,2,1,87.0,False
6977,3988, Note_on_c,68,76,1,2,1,79.0,False
6978,3988, Note_on_c,73,76,1,2,1,85.0,False
6979,3989, Note_on_c,70,76,1,2,1,81.0,False
6980,3989, Note_on_c,75,76,1,2,1,87.0,False
6981,3990, Note_on_c,63,76,1,2,1,73.0,False
6982,3991, Note_on_c,68,76,1,2,1,79.0,False
6983,3991, Note_on_c,73,76,1,2,1,85.0,False
6984,3992, Note_on_c,72,76,1,2,1,84.0,True
6985,3992, Note_on_c,75,76,1,2,1,87.0,False
6986,3993, Note_on_c,63,76,1,2,1,73.0,False
6987,3994, Note_on_c,68,76,1,2,1,79.0,False
6988,3994, Note_on_c,73,76,1,2,1,85.0,False
6989,3995, Note_on_c,72,76,1,2,1,84.0,True
6990,3995, Note_on_c,75,76,1,2,1,87.0,False
6991,3996, Note_on_c,68,76,1,2,1,79.0,False
6992,3996, Note_on_c,73,76,1,2,1,85.0,False
6993,3997, Note_on_c,70,76,1,2,1,81.0,False
6994,3997, Note_on_c,75,76,1,2,1,87.0,False
6995,3998, Note_on_c,63,76,1,2,1,73.0,False
6996,3999, Note_on_c,68,76,1,2,1,79.0,False
6997,3999, Note_on_c,73,76,1,2,1,85.0,False
6998,4000, Note_on_c,72,76,1,2,1,84.0,True
6999,4000, Note_on_c,75,76,1,2,1,87.0,False
7000,4001, Note_on_c,63,76,1,2,1,73.0,False
7001,4002, Note_on_c,68,76,1,2,1,79.0,False
7002,4002, Note_on_c,73,76,1,2,1,85.0,False
7003,4003, Note_on_c,72,76,1,2,1,84.0,True
7004,4003, Note_on_c,75,76,1,2,1,87.0,False
7005,4004, Note_on_c,68,76,1,2,1,79.0,False
7006,4004, Note_on_c,73,76,1,2,1,85.0,False
7007,4005, Note_on_c,70,76,1,2,1,81.0,False
7008,4005, Note_on_c,75,76,1,2,1,87.0,False
7009,4006, Note_on_c,63,76,1,2,1,73.0,False
7010,4007, Note_on_c,68,76,1,2,1,79.0,False
7011,4007, Note_on_c,73,76,1,2,1,85.0,False
7012,4008, Note_on_c,72,76,1,2,1,84.0,True
7013,4008, Note_on_c,75,76,1,2,1,87.0,False
7014,4009, Note_on_c,63,76,1,2,1,73.0,False
7015,4010, Note_on_c,68,76,1,2,1,79.0,False
7016,4010, Note_on_c,73,76,1,2,1,85.0,False
7017,4011, Note_on_c,72,76,1,2,1,84.0,True
7018,4011, Note_on_c,75,76,1,2,1,87.0,False
7019,4012, Note_on_c,68,76,1,2,1,79.0,False
7020,4012, Note_on_c,73,76,1,2,1,85.0,False
7021,4013, Note_on_c,70,76,1,2,1,81.0,False
7022,4013, Note_on_c,75,76,1,2,1,87.0,False
7023,4014, Note_on_c,63,76,1,2,1,73.0,False
7024,4015, Note_on_c,68,76,1,2,1,79.0,False
7025,4015, Note_on_c,73,76,1,2,1,85.0,False
7026,4016, Note_on_c,72,76,1,2,1,84.0,True
7027,4016, Note_on_c,75,76,1,2,1,87.0,False
7028,4017, Note_on_c,63,76,1,2,1,73.0,False
7029,4018, Note_on_c,68,76,1,2,1,79.0,False
7030,4018, Note_on_c,73,76,1,2,1,85.0,False
7031,4019, Note_on_c,72,76,1,2,1,84.0,True
7032,4019, Note_on_c,75,76,1,2,1,87.0,False
7033,4020, Note_on_c,68,76,1,2,1,79.0,False
7034,4020, Note_on_c,73,76,1,2,1,85.0,False
7035,4021, Note_on_c,70,76,1,2,1,81.0,False
7036,4021, Note_on_c,75,76,1,2,1,87.0,False
7037,4022, Note_on_c,63,76,1,2,1,73.0,False
7038,4023, Note_on_c,68,76,1,2,1,79.0,False
7039,4023, Note_on_c,73,76,1,2,1,85.0,False
7040,4024, Note_on_c,72,76,1,2,1,84.0,True
7041,4024, Note_on_c,75,76,1,2,1,87.0,False
7042,4025, Note_on_c,63,76,1,2,1,73.0,False
7043,4026, Note_on_c,68,76,1,2,1,79.0,False
7044,4026, Note_on_c,73,76,1,2,1,85.0,False
7045,4027, Note_on_c,72,76,1,2,1,84.0,True
7046,4027, Note_on_c,75,76,1,2,1,87.0,False
7047,4028, Note_on_c,68,76,1,2,1,79.0,False
7048,4028, Note_on_c,73,76,1,2,1,85.0,False
7049,4029, Note_on_c,70,76,1,2,1,81.0,False
7050,4029, Note_on_c,75,76,1,2,1,87.0,False
7051,4030, Note_on_c,63,76,1,2,1,73.0,False
7052,4031, Note_on_c,68,76,1,2,1,79.0,False
7053,4031, Note_on_c,73,76,1,2,1,85.0,False
7054,4032, Note_on_c,72,76,1,2,1,84.0,True
7055,4032, Note_on_c,75,76,1,2,1,87.0,False
7056,4033, Note_on_c,63,76,1,2,1,73.0,False
7057,4034, Note_on_c,68,76,1,2,1,79.0,False
7058,4034, Note_on_c,73,76,1,2,1,85.0,False
7059,4035, Note_on_c,72,76,1,2,1,84.0,True
7060,4035, Note_on_c,75,76,1,2,1,87.0,False
7061,4036, Note_on_c,68,76,1,2,1,79.0,False
7062,4036, Note_on_c,73,76,1,2,1,85.0,False
7063,4037, Note_on_c,70,76,1,2,1,81.0,False
7064,4037, Note_on_c,75,76,1,2,1,87.0,False
7065,4038, Note_on_c,63,76,1,2,1,73.0,False
7066,4039, Note_on_c,68,76,1,2,1,79.0,False
7067,4039, Note_on_c,73,76,1,2,1,85.0,False
7068,4040, Note_on_c,72,76,1,2,1,84.0,True
7069,4040, Note_on_c,75,76,1,2,1,87.0,False
7070,4041, Note_on_c,63,76,1,2,1,73.0,False
7071,4042, Note_on_c,68,76,1,2,1,79.0,False
7072,4042, Note_on_c,73,76,1,2,1,85.0,False
7073,4043, Note_on_c,72,76,1,2,1,84.0,True
7074,4043, Note_on_c,75,76,1,2,1,87.0,False
7075,4044, Note_on_c,68,76,1,2,1,79.0,False
7076,4044, Note_on_c,73,76,1,2,1,85.0,False
7077,4045, Note_on_c,70,76,1,2,1,81.0,False
7078,4045, Note_on_c,75,76,1,2,1,87.0,False
7079,4046, Note_on_c,63,76,1,2,1,73.0,False
7080,4047, Note_on_c,68,76,1,2,1,79.0,False
7081,4047, Note_on_c,73,76,1,2,1,85.0,False
7082,4048, Note_on_c,72,76,1,2,1,84.0,True
7083,4048, Note_on_c,75,76,1,2,1,87.0,False
7084,4049, Note_on_c,63,76,1,2,1,73.0,False
7085,4050, Note_on_c,68,76,1,2,1,79.0,False
7086,4050, Note_on_c,73,76,1,2,1,85.0,False
7087,4051, Note_on_c,72,76,1,2,1,84.0,True
7088,4051, Note_on_c,75,76,1,2,1,87.0,False
7089,4052, Note_on_c,68,76,1,2,1,79.0,False
7090,4052, Note_on_c,73,76,1,2,1,85.0,False
7091,4053, Note_on_c,70,76,1,2,1,81.0,False
7092,4053, Note_on_c,75,76,1,2,1,87.0,False
7093,4054, Note_on_c,63,76,1,2,1,73.0,False
7094,4055, Note_on_c,68,76,1,2,1,79.0,False
7095,4055, Note_on_c,73,76,1,2,1,85.0,False
7096,4056, Note_on_c,72,76,1,2,1,84.0,True
7097,4056, Note_on_c,75,76,1,2,1,87.0,False
7098,4057, Note_on_c,63,76,1,2,1,73.0,False
7099,4058, Note_on_c,68,76,1,2,1,79.0,False
7100,4058, Note_on_c,73,76,1,2,1,85.0,False
7101,4059, Note_on_c,72,76,1,2,1,84.0,True
7102,4059, Note_on_c,75,76,1,2,1,87.0,False
7103,4060, Note_on_c,68,76,1,2,1,79.0,False
7104,4060, Note_on_c,73,76,1,2,1,85.0,False
7105,4061, Note_on_c,70,76,1,2,1,81.0,False
7106,4061, Note_on_c,75,76,1,2,1,87.0,False
7107,4062, Note_on_c,63,76,1,2,1,73.0,False
7108,4063, Note_on_c,68,76,1,2,1,79.0,False
7109,4063, Note_on_c,73,76,1,2,1,85.0,False
7110,4064, Note_on_c,72,76,1,2,1,84.0,True
7111,4064, Note_on_c,75,76,1,2,1,87.0,False
7112,4065, Note_on_c,63,76,1,2,1,73.0,False
7113,4066, Note_on_c,68,76,1,2,1,79.0,False
7114,4066, Note_on_c,73,76,1,2,1,85.0,False
7115,4067, Note_on_c,72,76,1,2,1,84.0,True
7116,4067, Note_on_c,75,76,1,2,1,87.0,False
7117,4068, Note_on_c,68,76,1,2,1,79.0,False
7118,4068, Note_on_c,73,76,1,2,1,85.0,False
7119,4069, Note_on_c,70,76,1,2,1,81.0,False
7120,4069, Note_on_c,75,76,1,2,1,87.0,False
7121,4070, Note_on_c,63,76,1,2,1,73.0,False
7122,4071, Note_on_c,68,76,1,2,1,79.0,False
7123,4071, Note_on_c,73,76,1,2,1,85.0,False
7124,4072, Note_on_c,72,76,1,2,1,84.0,True
7125,4072, Note_on_c,75,76,1,2,1,87.0,False
7126,4073, Note_on_c,63,76,1,2,1,73.0,False
7127,4074, Note_on_c,68,76,1,2,1,79.0,False
7128,4074, Note_on_c,73,76,1,2,1,85.0,False
7129,4075, Note_on_c,72,76,1,2,1,84.0,True
7130,4075, Note_on_c,75,76,1,2,1,87.0,False
7131,4076, Note_on_c,68,76,1,2,1,79.0,False
7132,4076, Note_on_c,73,76,1,2,1,85.0,False
7133,4077, Note_on_c,70,76,1,2,1,81.0,False
7134,4077, Note_on_c,75,76,1,2,1,87.0,False
7135,4078, Note_on_c,63,76,1,2,1,73.0,False
7136,4079, Note_on_c,68,76,1,2,1,79.0,False
7137,4079, Note_on_c,73,76,1,2,1,85.0,False
7138,4080, Note_on_c,72,76,1,2,1,84.0,True
7139,4080, Note_on_c,75,76,1,2,1,87.0,False
7140,4081, Note_on_c,63,76,1,2,1,73.0,False
7141,4082, Note_on_c,68,76,1,2,1,79.0,False
7142,4082, Note_on_c,73,76,1,2,1,85.0,False
7143,4083, Note_on_c,72,76,1,2,1,84.0,True
7144,4083, Note_on_c,75,76,1,2,1,87.0,False
7145,4084, Note_on_c,68,76,1,2,1,79.0,False
7146,4084, Note_on_c,73,76,1,2,1,85.0,False
7147,4085, Note_on_c,70,76,1,2,1,81.0,False
7148,4085, Note_on_c,75,76,1,2,1,87.0,False
7149,4086, Note_on_c,63,76,1,2,1,73.0,False
7150,4087, Note_on_c,68,76,1,2,1,79.0,False
7151,4087, Note_on_c,73,76,1,2,1,85.0,False
7152,4088, Note_on_c,72,76,1,2,1,84.0,True
7153,4088, Note_on_c,75,76,1,2,1,87.0,False
7154,4089, Note_on_c,63,76,1,2,1,73.0,False
7155,4090, Note_on_c,68,76,1,2,1,79.0,False
7156,4090, Note_on_c,73,76,1,2,1,85.0,False
7157,4091, Note_on_c,72,76,1,2,1,84.0,True
7158,4091, Note_on_c,75,76,1,2,1,87.0,False
7159,4092, Note_on_c,68,76,1,2,1,79.0,False
7160,4092, Note_on_c,73,76,1,2,1,85.0,False
7161,4093, Note_on_c,70,76,1,2,1,81.0,False
7162,4093, Note_on_c,75,76,1,2,1,87.0,False
7163,4094, Note_on_c,63,76,1,2,1,73.0,False
7164,4095, Note_on_c,68,76,1,2,1,79.0,False
7165,4095, Note_on_c,73,76,1,2,1,85.0,False
7166,4096, Note_on_c,72,76,1,2,1,84.0,True
7167,4096, Note_on_c,75,76,1,2,1,87.0,False
7168,4097, Note_on_c,63,76,1,2,1,73.0,False
7169,4098, Note_on_c,68,76,1,2,1,79.0,False
7170,4098, Note_on_c,73,76,1,2,1,85.0,False
7171,4099, Note_on_c,72,76,1,2,1,84.0,True
7172,4099, Note_on_c,75,76,1,2,1,87.0,False
7173,4100, Note_on_c,68,76,1,2,1,79.0,False
7174,4100, Note_on_c,73,76,1,2,1,85.0,False
7175,4101, Note_on_c,70,76,1,2,1,81.0,False
7176,4101, Note_on_c,75,76,1,2,1,87.0,False
7177,4102, Note_on_c,63,76,1,2,1,73.0,False
7178,4103, Note_on_c,68,76,1,2,1,79.0,False
7179,4103, Note_on_c,73,76,1,2,1,85.0,False
7180,4104, Note_on_c,72,76,1,2,1,84.0,True
7181,4104, Note_on_c,75,76,1,2,1,87.0,False
7182,4105, Note_on_c,63,76,1,2,1,73.0,False
7183,4106, Note_on_c,68,76,1,2,1,79.0,False
7184,4106, Note_on_c,73,76,1,2,1,85.0,False
7185,4107, Note_on_c,72,76,1,2,1,84.0,True
7186,4107, Note_on_c,75,76,1,2,1,87.0,False
7187,4108, Note_on_c,68,76,1,2,1,79.0,False
7188,4108, Note_on_c,73,76,1,2,1,85.0,False
7189,4109, Note_on_c,70,76,1,2,1,81.0,False
7190,4109, Note_on_c,75,76,1,2,1,87.0,False
7191,4110, Note_on_c,63,76,1,2,1,73.0,False
7192,4111, Note_on_c,68,76,1,2,1,79.0,False
7193,4111, Note_on_c,73,76,1,2,1,85.0,False
7194,4112, Note_on_c,72,76,1,2,1,84.0,True
7195,4112, Note_on_c,75,76,1,2,1,87.0,False
7196,4113, Note_on_c,63,76,1,2,1,73.0,False
7197,4114, Note_on_c,68,76,1,2,1,79.0,False
7198,4114, Note_on_c,73,76,1,2,1,85.0,False
7199,4115, Note_on_c,72,76,1,2,1,84.0,True
7200,4115, Note_on_c,75,76,1,2,1,87.0,False
7201,4116, Note_on_c,68,76,1,2,1,79.0,False
7202,4116, Note_on_c,73,76,1,2,1,85.0,False
7203,4117, Note_on_c,70,76,1,2,1,81.0,False
7204,4117, Note_on_c,75,76,1,2,1,87.0,False
7205,4118, Note_on_c,63,76,1,2,1,73.0,False
7206,4119, Note_on_c,68,76,1,2,1,79.0,False
7207,4119, Note_on_c,73,76,1,2,1,85.0,False
7208,4120, Note_on_c,72,76,1,2,1,84.0,True
7209,4120, Note_on_c,75,76,1,2,1,87.0,False
7210,4121, Note_on_c,63,76,1,2,1,73.0,False
7211,4122, Note_on_c,68,76,1,2,1,79.0,False
7212,4122, Note_on_c,73,76,1,2,1,85.0,False
7213,4123, Note_on_c,72,76,1,2,1,84.0,True
7214,4123, Note_on_c,75,76,1,2,1,87.0,False
7215,4124, Note_on_c,68,76,1,2,1,79.0,False
7216,4124, Note_on_c,73,76,1,2,1,85.0,False
7217,4125, Note_on_c,70,76,1,2,1,81.0,False
7218,4125, Note_on_c,75,76,1,2,1,87.0,False
7219,4126, Note_on_c,63,76,1,2,1,73.0,False
7220,4127, Note_on_c,68,76,1,2,1,79.0,False
7221,4127, Note_on_c,73,76,1,2,1,85.0,False
7222,4128, Note_on_c,72,76,1,2,1,84.0,True
7223,4128, Note_on_c,75,76,1,2,1,87.0,False
7224,4129, Note_on_c,63,76,1,2,1,73.0,False
7225,4130, Note_on_c,68,76,1,2,1,79.0,False
7226,4130, Note_on_c,73,76,1,2,1,85.0,False
7227,4131, Note_on_c,72,76,1,2,1,84.0,True
7228,4131, Note_on_c,75,76,1,2,1,87.0,False
7229,4132, Note_on_c,68,76,1,2,1,79.0,False
7230,4132, Note_on_c,73,76,1,2,1,85.0,False
7231,4133, Note_on_c,70,76,1,2,1,81.0,False
7232,4133, Note_on_c,75,76,1,2,1,87.0,False
7233,4134, Note_on_c,63,76,1,2,1,73.0,False
7234,4135, Note_on_c,68,76,1,2,1,79.0,False
7235,4135, Note_on_c,73,76,1,2,1,85.0,False
7236,4136, Note_on_c,72,76,1,2,1,84.0,True
7237,4136, Note_on_c,75,76,1,2,1,87.0,False
7238,4137, Note_on_c,63,76,1,2,1,73.0,False
7239,4138, Note_on_c,68,76,1,2,1,79.0,False
7240,4138, Note_on_c,73,76,1,2,1,85.0,False
7241,4139, Note_on_c,72,76,1,2,1,84.0,True
7242,4139, Note_on_c,75,76,1,2,1,87.0,False
7243,4140, Note_on_c,68,76,1,2,1,79.0,False
7244,4140, Note_on_c,73,76,1,2,1,85.0,False
7245,4141, Note_on_c,70,76,1,2,1,81.0,False
7246,4141, Note_on_c,75,76,1,2,1,87.0,False
7247,4142, Note_on_c,63,76,1,2,1,73.0,False
7248,4143, Note_on_c,68,76,1,2,1,79.0,False
7249,4143, Note_on_c,73,76,1,2,1,85.0,False
7250,4144, Note_on_c,72,76,1,2,1,84.0,True
7251,4144, Note_on_c,75,76,1,2,1,87.0,False
7252,4145, Note_on_c,63,76,1,2,1,73.0,False
7253,4146, Note_on_c,68,76,1,2,1,79.0,False
7254,4146, Note_on_c,73,76,1,2,1,85.0,False
7255,4147, Note_on_c,72,76,1,2,1,84.0,True
7256,4147, Note_on_c,75,76,1,2,1,87.0,False
7257,4148, Note_on_c,68,76,1,2,1,79.0,False
7258,4148, Note_on_c,73,76,1,2,1,85.0,False
7259,4149, Note_on_c,70,76,1,2,1,81.0,False
7260,4149, Note_on_c,75,76,1,2,1,87.0,False
7261,4150, Note_on_c,63,76,1,2,1,73.0,False
7262,4151, Note_on_c,68,76,1,2,1,79.0,False
7263,4151, Note_on_c,73,76,1,2,1,85.0,False
7264,4152, Note_on_c,72,76,1,2,1,84.0,True
7265,4152, Note_on_c,75,76,1,2,1,87.0,False
7266,4153, Note_on_c,63,76,1,2,1,73.0,False
7267,4154, Note_on_c,68,76,1,2,1,79.0,False
7268,4154, Note_on_c,73,76,1,2,1,85.0,False
7269,4155, Note_on_c,72,76,1,2,1,84.0,True
7270,4155, Note_on_c,75,76,1,2,1,87.0,False
7271,4156, Note_on_c,68,76,1,2,1,79.0,False
7272,4156, Note_on_c,73,76,1,2,1,85.0,False
7273,4157, Note_on_c,70,76,1,2,1,81.0,False
7274,4157, Note_on_c,75,76,1,2,1,87.0,False
7275,4158, Note_on_c,63,76,1,2,1,73.0,False
7276,4159, Note_on_c,68,76,1,2,1,79.0,False
7277,4159, Note_on_c,73,76,1,2,1,85.0,False
7278,4160, Note_on_c,72,76,1,2,1,84.0,True
7279,4160, Note_on_c,75,76,1,2,1,87.0,False
7280,4161, Note_on_c,63,76,1,2,1,73.0,False
7281,4162, Note_on_c,68,76,1,2,1,79.0,False
7282,4162, Note_on_c,73,76,1,2,1,85.0,False
7283,4163, Note_on_c,72,76,1,2,1,84.0,True
7284,4163, Note_on_c,75,76,1,2,1,87.0,False
7285,4164, Note_on_c,68,76,1,2,1,79.0,False
7286,4164, Note_on_c,73,76,1,2,1,85.0,False
7287,4165, Note_on_c,70,76,1,2,1,81.0,False
7288,4165, Note_on_c,75,76,1,2,1,87.0,False
7289,4166, Note_on_c,63,76,1,2,1,73.0,False
7290,4167, Note_on_c,68,76,1,2,1,79.0,False
7291,4167, Note_on_c,73,76,1,2,1,85.0,False
7292,4168, Note_on_c,72,76,1,2,1,84.0,True
7293,4168, Note_on_c,75,76,1,2,1,87.0,False
7294,4169, Note_on_c,63,76,1,2,1,73.0,False
7295,4170, Note_on_c,68,76,1,2,1,79.0,False
7296,4170, Note_on_c,73,76,1,2,1,85.0,False
7297,4171, Note_on_c,72,76,1,2,1,84.0,True
7298,4171, Note_on_c,75,76,1,2,1,87.0,False
7299,4172, Note_on_c,68,76,1,2,1,79.0,False
7300,4172, Note_on_c,73,76,1,2,1,85.0,False
7301,4173, Note_on_c,70,76,1,2,1,81.0,False
7302,4173, Note_on_c,75,76,1,2,1,87.0,False
7303,4174, Note_on_c,63,76,1,2,1,73.0,False
7304,4175, Note_on_c,68,76,1,2,1,79.0,False
7305,4175, Note_on_c,73,76,1,2,1,85.0,False
7306,4176, Note_on_c,72,76,1,2,1,84.0,True
7307,4176, Note_on_c,75,76,1,2,1,87.0,False
7308,4177, Note_on_c,63,76,1,2,1,73.0,False
7309,4178, Note_on_c,68,76,1,2,1,79.0,False
7310,4178, Note_on_c,73,76,1,2,1,85.0,False
7311,4179, Note_on_c,72,76,1,2,1,84.0,True
7312,4179, Note_on_c,75,76,1,2,1,87.0,False
7313,4180, Note_on_c,68,76,1,2,1,79.0,False
7314,4180, Note_on_c,73,76,1,2,1,85.0,False
7315,4181, Note_on_c,70,76,1,2,1,81.0,False
7316,4181, Note_on_c,75,76,1,2,1,87.0,False
7317,4182, Note_on_c,63,76,1,2,1,73.0,False
7318,4183, Note_on_c,68,76,1,2,1,79.0,False
7319,4183, Note_on_c,73,76,1,2,1,85.0,False
7320,4184, Note_on_c,72,76,1,2,1,84.0,True
7321,4184, Note_on_c,75,76,1,2,1,87.0,False
7322,4185, Note_on_c,63,76,1,2,1,73.0,False
7323,4186, Note_on_c,68,76,1,2,1,79.0,False
7324,4186, Note_on_c,73,76,1,2,1,85.0,False
7325,4187, Note_on_c,72,76,1,2,1,84.0,True
7326,4187, Note_on_c,75,76,1,2,1,87.0,False
7327,4188, Note_on_c,68,76,1,2,1,79.0,False
7328,4188, Note_on_c,73,76,1,2,1,85.0,False
7329,4189, Note_on_c,70,76,1,2,1,81.0,False
7330,4189, Note_on_c,75,76,1,2,1,87.0,False
7331,4190, Note_on_c,63,76,1,2,1,73.0,False
7332,4191, Note_on_c,68,76,1,2,1,79.0,False
7333,4191, Note_on_c,73,76,1,2,1,85.0,False
7334,4192, Note_on_c,72,76,1,2,1,84.0,True
7335,4192, Note_on_c,75,76,1,2,1,87.0,False
7336,4193, Note_on_c,63,76,1,2,1,73.0,False
7337,4194, Note_on_c,68,76,1,2,1,79.0,False
7338,4194, Note_on_c,73,76,1,2,1,85.0,False
7339,4195, Note_on_c,72,76,1,2,1,84.0,True
7340,4195, Note_on_c,75,76,1,2,1,87.0,False
7341,4196, Note_on_c,68,76,1,2,1,79.0,False
7342,4196, Note_on_c,73,76,1,2,1,85.0,False
7343,4197, Note_on_c,70,76,1,2,1,81.0,False
7344,4197, Note_on_c,75,76,1,2,1,87.0,False
7345,4198, Note_on_c,63,76,1,2,1,73.0,False
7346,4199, Note_on_c,68,76,1,2,1,79.0,False
7347,4199, Note_on_c,73,76,1,2,1,85.0,False
7348,4200, Note_on_c,72,76,1,2,1,84.0,True
7349,4200, Note_on_c,75,76,1,2,1,87.0,False
7350,4201, Note_on_c,63,76,1,2,1,73.0,False
7351,4202, Note_on_c,68,76,1,2,1,79.0,False
7352,4202, Note_on_c,73,76,1,2,1,85.0,False
7353,4203, Note_on_c,72,76,1,2,1,84.0,True
7354,4203, Note_on_c,75,76,1,2,1,87.0,False
7355,4204, Note_on_c,68,76,1,2,1,79.0,False
7356,4204, Note_on_c,73,76,1,2,1,85.0,False
7357,4205, Note_on_c,70,76,1,2,1,81.0,False
7358,4205, Note_on_c,75,76,1,2,1,87.0,False
7359,4206, Note_on_c,63,76,1,2,1,73.0,False
7360,4207, Note_on_c,68,76,1,2,1,79.0,False
7361,4207, Note_on_c,73,76,1,2,1,85.0,False
7362,4208, Note_on_c,72,76,1,2,1,84.0,True
7363,4208, Note_on_c,75,76,1,2,1,87.0,False
7364,4209, Note_on_c,63,76,1,2,1,73.0,False
7365,4210, Note_on_c,68,76,1,2,1,79.0,False
7366,4210, Note_on_c,73,76,1,2,1,85.0,False
7367,4211, Note_on_c,72,76,1,2,1,84.0,True
7368,4211, Note_on_c,75,76,1,2,1,87.0,False
7369,4212, Note_on_c,68,76,1,2,1,79.0,False
7370,4212, Note_on_c,73,76,1,2,1,85.0,False
7371,4213, Note_on_c,70,76,1,2,1,81.0,False
7372,4213, Note_on_c,75,76,1,2,1,87.0,False
7373,4214, Note_on_c,63,76,1,2,1,73.0,False
7374,4215, Note_on_c,68,76,1,2,1,79.0,False
7375,4215, Note_on_c,73,76,1,2,1,85.0,False
7376,4216, Note_on_c,72,76,1,2,1,84.0,True
7377,4216, Note_on_c,75,76,1,2,1,87.0,False
7378,4217, Note_on_c,63,76,1,2,1,73.0,False
7379,4218, Note_on_c,68,76,1,2,1,79.0,False
7380,4218, Note_on_c,73,76,1,2,1,85.0,False
7381,4219, Note_on_c,72,76,1,2,1,84.0,True
7382,4219, Note_on_c,75,76,1,2,1,87.0,False
7383,4220, Note_on_c,68,76,1,2,1,79.0,False
7384,4220, Note_on_c,73,76,1,2,1,85.0,False
7385,4221, Note_on_c,70,76,1,2,1,81.0,False
7386,4221, Note_on_c,75,76,1,2,1,87.0,False
7387,4222, Note_on_c,63,76,1,2,1,73.0,False
7388,4223, Note_on_c,68,76,1,2,1,79.0,False
7389,4223, Note_on_c,73,76,1,2,1,85.0,False
7390,4224, Note_on_c,72,76,1,2,1,84.0,True
7391,4224, Note_on_c,75,76,1,2,1,87.0,False
7392,4225, Note_on_c,63,76,1,2,1,73.0,False
7393,4226, Note_on_c,68,76,1,2,1,79.0,False
7394,4226, Note_on_c,73,76,1,2,1,85.0,False
7395,4227, Note_on_c,72,76,1,2,1,84.0,True
7396,4227, Note_on_c,75,76,1,2,1,87.0,False
7397,4228, Note_on_c,68,76,1,2,1,79.0,False
7398,4228, Note_on_c,73,76,1,2,1,85.0,False
7399,4229, Note_on_c,70,76,1,2,1,81.0,False
7400,4229, Note_on_c,75,76,1,2,1,87.0,False
7401,4230, Note_on_c,63,76,1,2,1,73.0,False
7402,4231, Note_on_c,68,76,1,2,1,79.0,False
7403,4231, Note_on_c,73,76,1,2,1,85.0,False
7404,4232, Note_on_c,72,76,1,2,1,84.0,True
7405,4232, Note_on_c,75,76,1,2,1,87.0,False
7406,4233, Note_on_c,63,76,1,2,1,73.0,False
7407,4234, Note_on_c,68,76,1,2,1,79.0,False
7408,4234, Note_on_c,73,76,1,2,1,85.0,False
7409,4235, Note_on_c,72,76,1,2,1,84.0,True
7410,4235, Note_on_c,75,76,1,2,1,87.0,False
7411,4236, Note_on_c,68,76,1,2,1,79.0,False
7412,4236, Note_on_c,73,76,1,2,1,85.0,False
7413,4237, Note_on_c,70,76,1,2,1,81.0,False
7414,4237, Note_on_c,75,76,1,2,1,87.0,False
7415,4238, Note_on_c,63,76,1,2,1,73.0,False
7416,4239, Note_on_c,68,76,1,2,1,79.0,False
7417,4239, Note_on_c,73,76,1,2,1,85.0,False
7418,4240, Note_on_c,72,76,1,2,1,84.0,True
7419,4240, Note_on_c,75,76,1,2,1,87.0,False
7420,4241, Note_on_c,63,76,1,2,1,73.0,False
7421,4242, Note_on_c,68,76,1,2,1,79.0,False
7422,4242, Note_on_c,73,76,1,2,1,85.0,False
7423,4243, Note_on_c,72,76,1,2,1,84.0,True
7424,4243, Note_on_c,75,76,1,2,1,87.0,False
7425,4244, Note_on_c,68,76,1,2,1,79.0,False
7426,4244, Note_on_c,73,76,1,2,1,85.0,False
7427,4245, Note_on_c,70,76,1,2,1,81.0,False
7428,4245, Note_on_c,75,76,1,2,1,87.0,False
7429,4246, Note_on_c,63,76,1,2,1,73.0,False
7430,4247, Note_on_c,68,76,1,2,1,79.0,False
7431,4247, Note_on_c,73,76,1,2,1,85.0,False
7432,4248, Note_on_c,72,76,1,2,1,84.0,True
7433,4248, Note_on_c,75,76,1,2,1,87.0,False
7434,4249, Note_on_c,63,76,1,2,1,73.0,False
7435,4250, Note_on_c,68,76,1,2,1,79.0,False
7436,4250, Note_on_c,73,76,1,2,1,85.0,False
7437,4251, Note_on_c,72,76,1,2,1,84.0,True
7438,4251, Note_on_c,75,76,1,2,1,87.0,False
7439,4252, Note_on_c,68,76,1,2,1,79.0,False
7440,4252, Note_on_c,73,76,1,2,1,85.0,False
7441,4253, Note_on_c,70,76,1,2,1,81.0,False
7442,4253, Note_on_c,75,76,1,2,1,87.0,False
7443,4254, Note_on_c,63,76,1,2,1,73.0,False
7444,4255, Note_on_c,68,76,1,2,1,79.0,False
7445,4255, Note_on_c,73,76,1,2,1,85.0,False
7446,4256, Note_on_c,72,76,1,2,1,84.0,True
7447,4256, Note_on_c,75,76,1,2,1,87.0,False
7448,4257, Note_on_c,63,76,1,2,1,73.0,False
7449,4258, Note_on_c,68,76,1,2,1,79.0,False
7450,4258, Note_on_c,73,76,1,2,1,85.0,False
7451,4259, Note_on_c,72,76,1,2,1,84.0,True
7452,4259, Note_on_c,75,76,1,2,1,87.0,False
7453,4260, Note_on_c,68,76,1,2,1,79.0,False
7454,4260, Note_on_c,73,76,1,2,1,85.0,False
7455,4261, Note_on_c,70,76,1,2,1,81.0,False
7456,4261, Note_on_c,75,76,1,2,1,87.0,False
7457,4262, Note_on_c,63,76,1,2,1,73.0,False
7458,4263, Note_on_c,68,76,1,2,1,79.0,False
7459,4263, Note_on_c,73,76,1,2,1,85.0,False
7460,4264, Note_on_c,72,76,1,2,1,84.0,True
7461,4264, Note_on_c,75,76,1,2,1,87.0,False
7462,4265, Note_on_c,63,76,1,2,1,73.0,False
7463,4266, Note_on_c,68,76,1,2,1,79.0,False
7464,4266, Note_on_c,73,76,1,2,1,85.0,False
7465,4267, Note_on_c,72,76,1,2,1,84.0,True
7466,4267, Note_on_c,75,76,1,2,1,87.0,False
7467,4268, Note_on_c,68,76,1,2,1,79.0,False
7468,4268, Note_on_c,73,76,1,2,1,85.0,False
7469,4269, Note_on_c,70,76,1,2,1,81.0,False
7470,4269, Note_on_c,75,76,1,2,1,87.0,False
7471,4270, Note_on_c,63,76,1,2,1,73.0,False
7472,4271, Note_on_c,68,76,1,2,1,79.0,False
7473,4271, Note_on_c,73,76,1,2,1,85.0,False
7474,4272, Note_on_c,72,76,1,2,1,84.0,True
7475,4272, Note_on_c,75,76,1,2,1,87.0,False
7476,4273, Note_on_c,63,76,1,2,1,73.0,False
7477,4274, Note_on_c,68,76,1,2,1,79.0,False
7478,4274, Note_on_c,73,76,1,2,1,85.0,False
7479,4275, Note_on_c,72,76,1,2,1,84.0,True
7480,4275, Note_on_c,75,76,1,2,1,87.0,False
7481,4276, Note_on_c,68,76,1,2,1,79.0,False
7482,4276, Note_on_c,73,76,1,2,1,85.0,False
7483,4277, Note_on_c,70,76,1,2,1,81.0,False
7484,4277, Note_on_c,75,76,1,2,1,87.0,False
7485,4278, Note_on_c,63,76,1,2,1,73.0,False
7486,4279, Note_on_c,68,76,1,2,1,79.0,False
7487,4279, Note_on_c,73,76,1,2,1,85.0,False
7488,4280, Note_on_c,72,76,1,2,1,84.0,True
7489,4280, Note_on_c,75,76,1,2,1,87.0,False
7490,4281, Note_on_c,63,76,1,2,1,73.0,False
7491,4282, Note_on_c,68,76,1,2,1,79.0,False
7492,4282, Note_on_c,73,76,1,2,1,85.0,False
7493,4283, Note_on_c,72,76,1,2,1,84.0,True
7494,4283, Note_on_c,75,76,1,2,1,87.0,False
7495,4284, Note_on_c,68,76,1,2,1,79.0,False
7496,4284, Note_on_c,73,76,1,2,1,85.0,False
7497,4285, Note_on_c,70,76,1,2,1,81.0,False
7498,4285, Note_on_c,75,76,1,2,1,87.0,False
7499,4286, Note_on_c,63,76,1,2,1,73.0,False
7500,4287, Note_on_c,68,76,1,2,1,79.0,False
7501,4287, Note_on_c,73,76,1,2,1,85.0,False
7502,4288, Note_on_c,72,76,1,2,1,84.0,True
7503,4288, Note_on_c,75,76,1,2,1,87.0,False
7504,4289, Note_on_c,63,76,1,2,1,73.0,False
7505,4290, Note_on_c,68,76,1,2,1,79.0,False
7506,4290, Note_on_c,73,76,1,2,1,85.0,False
7507,4291, Note_on_c,72,76,1,2,1,84.0,True
7508,4291, Note_on_c,75,76,1,2,1,87.0,False
7509,4292, Note_on_c,68,76,1,2,1,79.0,False
7510,4292, Note_on_c,73,76,1,2,1,85.0,False
7511,4293, Note_on_c,70,76,1,2,1,81.0,False
7512,4293, Note_on_c,75,76,1,2,1,87.0,False
7513,4294, Note_on_c,63,76,1,2,1,73.0,False
7514,4295, Note_on_c,68,76,1,2,1,79.0,False
7515,4295, Note_on_c,73,76,1,2,1,85.0,False
7516,4296, Note_on_c,72,76,1,2,1,84.0,True
7517,4296, Note_on_c,75,76,1,2,1,87.0,False
7518,4297, Note_on_c,63,76,1,2,1,73.0,False
7519,4298, Note_on_c,68,76,1,2,1,79.0,False
7520,4298, Note_on_c,73,76,1,2,1,85.0,False
7521,4299, Note_on_c,72,76,1,2,1,84.0,True
7522,4299, Note_on_c,75,76,1,2,1,87.0,False
7523,4300, Note_on_c,68,76,1,2,1,79.0,False
7524,4300, Note_on_c,73,76,1,2,1,85.0,False
7525,4301, Note_on_c,70,76,1,2,1,81.0,False
7526,4301, Note_on_c,75,76,1,2,1,87.0,False
7527,4302, Note_on_c,63,76,1,2,1,73.0,False
7528,4303, Note_on_c,68,76,1,2,1,79.0,False
7529,4303, Note_on_c,73,76,1,2,1,85.0,False
7530,4304, Note_on_c,72,76,1,2,1,84.0,True
7531,4304, Note_on_c,75,76,1,2,1,87.0,False
7532,4305, Note_on_c,63,76,1,2,1,73.0,False
7533,4306, Note_on_c,68,76,1,2,1,79.0,False
7534,4306, Note_on_c,73,76,1,2,1,85.0,False
7535,4307, Note_on_c,72,76,1,2,1,84.0,True
7536,4307, Note_on_c,75,76,1,2,1,87.0,False
7537,4308, Note_on_c,68,76,1,2,1,79.0,False
7538,4308, Note_on_c,73,76,1,2,1,85.0,False
7539,4309, Note_on_c,70,76,1,2,1,81.0,False
7540,4309, Note_on_c,75,76,1,2,1,87.0,False
7541,4310, Note_on_c,63,76,1,2,1,73.0,False
7542,4311, Note_on_c,68,76,1,2,1,79.0,False
7543,4311, Note_on_c,73,76,1,2,1,85.0,False
7544,4312, Note_on_c,72,76,1,2,1,84.0,True
7545,4312, Note_on_c,75,76,1,2,1,87.0,False
7546,4313, Note_on_c,63,76,1,2,1,73.0,False
7547,4314, Note_on_c,68,76,1,2,1,79.0,False
7548,4314, Note_on_c,73,76,1,2,1,85.0,False
7549,4315, Note_on_c,72,76,1,2,1,84.0,True
7550,4315, Note_on_c,75,76,1,2,1,87.0,False
7551,4316, Note_on_c,68,76,1,2,1,79.0,False
7552,4316, Note_on_c,73,76,1,2,1,85.0,False
7553,4317, Note_on_c,70,76,1,2,1,81.0,False
7554,4317, Note_on_c,75,76,1,2,1,87.0,False
7555,4318, Note_on_c,63,76,1,2,1,73.0,False
7556,4319, Note_on_c,68,76,1,2,1,79.0,False
7557,4319, Note_on_c,73,76,1,2,1,85.0,False
7558,4320, Note_on_c,72,76,1,2,1,84.0,True
7559,4320, Note_on_c,75,76,1,2,1,87.0,False
7560,4321, Note_on_c,63,76,1,2,1,73.0,False
7561,4322, Note_on_c,68,76,1,2,1,79.0,False
7562,4322, Note_on_c,73,76,1,2,1,85.0,False
7563,4323, Note_on_c,72,76,1,2,1,84.0,True
7564,4323, Note_on_c,75,76,1,2,1,87.0,False
7565,4324, Note_on_c,68,76,1,2,1,79.0,False
7566,4324, Note_on_c,73,76,1,2,1,85.0,False
7567,4325, Note_on_c,70,76,1,2,1,81.0,False
7568,4325, Note_on_c,75,76,1,2,1,87.0,False
7569,4326, Note_on_c,63,76,1,2,1,73.0,False
7570,4327, Note_on_c,68,76,1,2,1,79.0,False
7571,4327, Note_on_c,73,76,1,2,1,85.0,False
7572,4328, Note_on_c,72,76,1,2,1,84.0,True
7573,4328, Note_on_c,75,76,1,2,1,87.0,False
7574,4329, Note_on_c,63,76,1,2,1,73.0,False
7575,4330, Note_on_c,68,76,1,2,1,79.0,False
7576,4330, Note_on_c,73,76,1,2,1,85.0,False
7577,4331, Note_on_c,72,76,1,2,1,84.0,True
7578,4331, Note_on_c,75,76,1,2,1,87.0,False
7579,4332, Note_on_c,68,76,1,2,1,79.0,False
7580,4332, Note_on_c,73,76,1,2,1,85.0,False
7581,4333, Note_on_c,70,76,1,2,1,81.0,False
7582,4333, Note_on_c,75,76,1,2,1,87.0,False
7583,4334, Note_on_c,63,76,1,2,1,73.0,False
7584,4335, Note_on_c,68,76,1,2,1,79.0,False
7585,4335, Note_on_c,73,76,1,2,1,85.0,False
7586,4336, Note_on_c,72,76,1,2,1,84.0,True
7587,4336, Note_on_c,75,76,1,2,1,87.0,False
7588,4337, Note_on_c,63,76,1,2,1,73.0,False
7589,4338, Note_on_c,68,76,1,2,1,79.0,False
7590,4338, Note_on_c,73,76,1,2,1,85.0,False
7591,4339, Note_on_c,72,76,1,2,1,84.0,True
7592,4339, Note_on_c,75,76,1,2,1,87.0,False
7593,4340, Note_on_c,68,76,1,2,1,79.0,False
7594,4340, Note_on_c,73,76,1,2,1,85.0,False
7595,4341, Note_on_c,70,76,1,2,1,81.0,False
7596,4341, Note_on_c,75,76,1,2,1,87.0,False
7597,4342, Note_on_c,63,76,1,2,1,73.0,False
7598,4343, Note_on_c,68,76,1,2,1,79.0,False
7599,4343, Note_on_c,73,76,1,2,1,85.0,False
7600,4344, Note_on_c,72,76,1,2,1,84.0,True
7601,4344, Note_on_c,75,76,1,2,1,87.0,False
7602,4345, Note_on_c,63,76,1,2,1,73.0,False
7603,4346, Note_on_c,68,76,1,2,1,79.0,False
7604,4346, Note_on_c,73,76,1,2,1,85.0,False
7605,4347, Note_on_c,72,76,1,2,1,84.0,True
7606,4347, Note_on_c,75,76,1,2,1,87.0,False
7607,4348, Note_on_c,68,76,1,2,1,79.0,False
7608,4348, Note_on_c,73,76,1,2,1,85.0,False
7609,4349, Note_on_c,70,76,1,2,1,81.0,False
7610,4349, Note_on_c,75,76,1,2,1,87.0,False
7611,4350, Note_on_c,63,76,1,2,1,73.0,False
7612,4351, Note_on_c,68,76,1,2,1,79.0,False
7613,4351, Note_on_c,73,76,1,2,1,85.0,False
7614,4352, Note_on_c,72,76,1,2,1,84.0,True
7615,4352, Note_on_c,75,76,1,2,1,87.0,False
7616,4353, Note_on_c,63,76,1,2,1,73.0,False
7617,4354, Note_on_c,68,76,1,2,1,79.0,False
7618,4354, Note_on_c,73,76,1,2,1,85.0,False
7619,4355, Note_on_c,72,76,1,2,1,84.0,True
7620,4355, Note_on_c,75,76,1,2,1,87.0,False
7621,4356, Note_on_c,68,76,1,2,1,79.0,False
7622,4356, Note_on_c,73,76,1,2,1,85.0,False
7623,4357, Note_on_c,70,76,1,2,1,81.0,False
7624,4357, Note_on_c,75,76,1,2,1,87.0,False
7625,4358, Note_on_c,63,76,1,2,1,73.0,False
7626,4359, Note_on_c,68,76,1,2,1,79.0,False
7627,4359, Note_on_c,73,76,1,2,1,85.0,False
7628,4360, Note_on_c,72,76,1,2,1,84.0,True
7629,4360, Note_on_c,75,76,1,2,1,87.0,False
7630,4361, Note_on_c,63,76,1,2,1,73.0,False
7631,4362, Note_on_c,68,76,1,2,1,79.0,False
7632,4362, Note_on_c,73,76,1,2,1,85.0,False
7633,4363, Note_on_c,72,76,1,2,1,84.0,True
7634,4363, Note_on_c,75,76,1,2,1,87.0,False
7635,4364, Note_on_c,68,76,1,2,1,79.0,False
7636,4364, Note_on_c,73,76,1,2,1,85.0,False
7637,4365, Note_on_c,70,76,1,2,1,81.0,False
7638,4365, Note_on_c,75,76,1,2,1,87.0,False
7639,4366, Note_on_c,63,76,1,2,1,73.0,False
7640,4367, Note_on_c,68,76,1,2,1,79.0,False
7641,4367, Note_on_c,73,76,1,2,1,85.0,False
7642,4368, Note_on_c,72,76,1,2,1,84.0,True
7643,4368, Note_on_c,75,76,1,2,1,87.0,False
7644,4369, Note_on_c,63,76,1,2,1,73.0,False
7645,4370, Note_on_c,68,76,1,2,1,79.0,False
7646,4370, Note_on_c,73,76,1,2,1,85.0,False
7647,4371, Note_on_c,72,76,1,2,1,84.0,True
7648,4371, Note_on_c,75,76,1,2,1,87.0,False
7649,4372, Note_on_c,68,76,1,2,1,79.0,False
7650,4372, Note_on_c,73,76,1,2,1,85.0,False
7651,4373, Note_on_c,70,76,1,2,1,81.0,False
7652,4373, Note_on_c,75,76,1,2,1,87.0,False
7653,4374, Note_on_c,63,76,1,2,1,73.0,False
7654,4375, Note_on_c,68,76,1,2,1,79.0,False
7655,4375, Note_on_c,73,76,1,2,1,85.0,False
7656,4376, Note_on_c,72,76,1,2,1,84.0,True
7657,4376, Note_on_c,75,76,1,2,1,87.0,False
7658,4377, Note_on_c,63,76,1,2,1,73.0,False
7659,4378, Note_on_c,68,76,1,2,1,79.0,False
7660,4378, Note_on_c,73,76,1,2,1,85.0,False
7661,4379, Note_on_c,72,76,1,2,1,84.0,True
7662,4379, Note_on_c,75,76,1,2,1,87.0,False
7663,4380, Note_on_c,68,76,1,2,1,79.0,False
7664,4380, Note_on_c,73,76,1,2,1,85.0,False
7665,4381, Note_on_c,70,76,1,2,1,81.0,False
7666,4381, Note_on_c,75,76,1,2,1,87.0,False
7667,4382, Note_on_c,63,76,1,2,1,73.0,False
7668,4383, Note_on_c,68,76,1,2,1,79.0,False
7669,4383, Note_on_c,73,76,1,2,1,85.0,False
7670,4384, Note_on_c,72,76,1,2,1,84.0,True
7671,4384, Note_on_c,75,76,1,2,1,87.0,False
7672,4385, Note_on_c,63,76,1,2,1,73.0,False
7673,4386, Note_on_c,68,76,1,2,1,79.0,False
7674,4386, Note_on_c,73,76,1,2,1,85.0,False
7675,4387, Note_on_c,72,76,1,2,1,84.0,True
7676,4387, Note_on_c,75,76,1,2,1,87.0,False
7677,4388, Note_on_c,68,76,1,2,1,79.0,False
7678,4388, Note_on_c,73,76,1,2,1,85.0,False
7679,4389, Note_on_c,70,76,1,2,1,81.0,False
7680,4389, Note_on_c,75,76,1,2,1,87.0,False
7681,4390, Note_on_c,63,76,1,2,1,73.0,False
7682,4391, Note_on_c,68,76,1,2,1,79.0,False
7683,4391, Note_on_c,73,76,1,2,1,85.0,False
7684,4392, Note_on_c,72,76,1,2,1,84.0,True
7685,4392, Note_on_c,75,76,1,2,1,87.0,False
7686,4393, Note_on_c,63,76,1,2,1,73.0,False
7687,4394, Note_on_c,68,76,1,2,1,79.0,False
7688,4394, Note_on_c,73,76,1,2,1,85.0,False
7689,4395, Note_on_c,72,76,1,2,1,84.0,True
7690,4395, Note_on_c,75,76,1,2,1,87.0,False
7691,4396, Note_on_c,68,76,1,2,1,79.0,False
7692,4396, Note_on_c,73,76,1,2,1,85.0,False
7693,4397, Note_on_c,70,76,1,2,1,81.0,False
7694,4397, Note_on_c,75,76,1,2,1,87.0,False
7695,4398, Note_on_c,63,76,1,2,1,73.0,False
7696,4399, Note_on_c,68,76,1,2,1,79.0,False
7697,4399, Note_on_c,73,76,1,2,1,85.0,False
7698,4400, Note_on_c,72,76,1,2,1,84.0,True
7699,4400, Note_on_c,75,76,1,2,1,87.0,False
7700,4401, Note_on_c,63,76,1,2,1,73.0,False
7701,4402, Note_on_c,68,76,1,2,1,79.0,False
7702,4402, Note_on_c,73,76,1,2,1,85.0,False
7703,4403, Note_on_c,72,76,1,2,1,84.0,True
7704,4403, Note_on_c,75,76,1,2,1,87.0,False
7705,4404, Note_on_c,68,76,1,2,1,79.0,False
7706,4404, Note_on_c,73,76,1,2,1,85.0,False
7707,4405, Note_on_c,70,76,1,2,1,81.0,False
7708,4405, Note_on_c,75,76,1,2,1,87.0,False
7709,4406, Note_on_c,63,76,1,2,1,73.0,False
7710,4407, Note_on_c,68,76,1,2,1,79.0,False
7711,4407, Note_on_c,73,76,1,2,1,85.0,False
7712,4408, Note_on_c,72,76,1,2,1,84.0,True
7713,4408, Note_on_c,75,76,1,2,1,87.0,False
7714,4409, Note_on_c,63,76,1,2,1,73.0,False
7715,4410, Note_on_c,68,76,1,2,1,79.0,False
7716,4410, Note_on_c,73,76,1,2,1,85.0,False
7717,4411, Note_on_c,72,76,1,2,1,84.0,True
7718,4411, Note_on_c,75,76,1,2,1,87.0,False
7719,4412, Note_on_c,68,76,1,2,1,79.0,False
7720,4412, Note_on_c,73,76,1,2,1,85.0,False
7721,4413, Note_on_c,70,76,1,2,1,81.0,False
7722,4413, Note_on_c,75,76,1,2,1,87.0,False
7723,4414, Note_on_c,63,76,1,2,1,73.0,False
7724,4415, Note_on_c,68,76,1,2,1,79.0,False
7725,4415, Note_on_c,73,76,1,2,1,85.0,False
7726,4416, Note_on_c,72,76,1,2,1,84.0,True
7727,4416, Note_on_c,75,76,1,2,1,87.0,False
7728,4417, Note_on_c,63,76,1,2,1,73.0,False
7729,4418, Note_on_c,68,76,1,2,1,79.0,False
7730,4418, Note_on_c,73,76,1,2,1,85.0,False
7731,4419, Note_on_c,72,76,1,2,1,84.0,True
7732,4419, Note_on_c,75,76,1,2,1,87.0,False
7733,4420, Note_on_c,68,76,1,2,1,79.0,False
7734,4420, Note_on_c,73,76,1,2,1,85.0,False
7735,4421, Note_on_c,70,76,1,2,1,81.0,False
7736,4421, Note_on_c,75,76,1,2,1,87.0,False
7737,4422, Note_on_c,63,76,1,2,1,73.0,False
7738,4423, Note_on_c,68,76,1,2,1,79.0,False
7739,4423, Note_on_c,73,76,1,2,1,85.0,False
7740,4424, Note_on_c,72,76,1,2,1,84.0,True
7741,4424, Note_on_c,75,76,1,2,1,87.0,False
7742,4425, Note_on_c,63,76,1,2,1,73.0,False
7743,4426, Note_on_c,68,76,1,2,1,79.0,False
7744,4426, Note_on_c,73,76,1,2,1,85.0,False
7745,4427, Note_on_c,72,76,1,2,1,84.0,True
7746,4427, Note_on_c,75,76,1,2,1,87.0,False
7747,4428, Note_on_c,68,76,1,2,1,79.0,False
7748,4428, Note_on_c,73,76,1,2,1,85.0,False
7749,4429, Note_on_c,70,76,1,2,1,81.0,False
7750,4429, Note_on_c,75,76,1,2,1,87.0,False
7751,4430, Note_on_c,63,76,1,2,1,73.0,False
7752,4431, Note_on_c,68,76,1,2,1,79.0,False
7753,4431, Note_on_c,73,76,1,2,1,85.0,False
7754,4432, Note_on_c,72,76,1,2,1,84.0,True
7755,4432, Note_on_c,75,76,1,2,1,87.0,False
7756,4433, Note_on_c,63,76,1,2,1,73.0,False
7757,4434, Note_on_c,68,76,1,2,1,79.0,False
7758,4434, Note_on_c,73,76,1,2,1,85.0,False
7759,4435, Note_on_c,72,76,1,2,1,84.0,True
7760,4435, Note_on_c,75,76,1,2,1,87.0,False
7761,4436, Note_on_c,68,76,1,2,1,79.0,False
7762,4436, Note_on_c,73,76,1,2,1,85.0,False
7763,4437, Note_on_c,70,76,1,2,1,81.0,False
7764,4437, Note_on_c,75,76,1,2,1,87.0,False
7765,4438, Note_on_c,63,76,1,2,1,73.0,False
7766,4439, Note_on_c,68,76,1,2,1,79.0,False
7767,4439, Note_on_c,73,76,1,2,1,85.0,False
7768,4440, Note_on_c,72,76,1,2,1,84.0,True
7769,4440, Note_on_c,75,76,1,2,1,87.0,False
7770,4441, Note_on_c,63,76,1,2,1,73.0,False
7771,4442, Note_on_c,68,76,1,2,1,79.0,False
7772,4442, Note_on_c,73,76,1,2,1,85.0,False
7773,4443, Note_on_c,72,76,1,2,1,84.0,True
7774,4443, Note_on_c,75,76,1,2,1,87.0,False
7775,4444, Note_on_c,68,76,1,2,1,79.0,False
7776,4444, Note_on_c,73,76,1,2,1,85.0,False
7777,4445, Note_on_c,70,76,1,2,1,81.0,False
7778,4445, Note_on_c,75,76,1,2,1,87.0,False
7779,4446, Note_on_c,63,76,1,2,1,73.0,False
7780,4447, Note_on_c,68,76,1,2,1,79.0,False
7781,4447, Note_on_c,73,76,1,2,1,85.0,False
7782,4448, Note_on_c,72,76,1,2,1,84.0,True
7783,4448, Note_on_c,75,76,1,2,1,87.0,False
7784,4449, Note_on_c,63,76,1,2,1,73.0,False
7785,4450, Note_on_c,68,76,1,2,1,79.0,False
7786,4450, Note_on_c,73,76,1,2,1,85.0,False
7787,4451, Note_on_c,72,76,1,2,1,84.0,True
7788,4451, Note_on_c,75,76,1,2,1,87.0,False
7789,4452, Note_on_c,68,76,1,2,1,79.0,False
7790,4452, Note_on_c,73,76,1,2,1,85.0,False
7791,4453, Note_on_c,70,76,1,2,1,81.0,False
7792,4453, Note_on_c,75,76,1,2,1,87.0,False
7793,4454, Note_on_c,63,76,1,2,1,73.0,False
7794,4455, Note_on_c,68,76,1,2,1,79.0,False
7795,4455, Note_on_c,73,76,1,2,1,85.0,False
7796,4456, Note_on_c,72,76,1,2,1,84.0,True
7797,4456, Note_on_c,75,76,1,2,1,87.0,False
7798,4457, Note_on_c,63,76,1,2,1,73.0,False
7799,4458, Note_on_c,68,76,1,2,1,79.0,False
7800,4458, Note_on_c,73,76,1,2,1,85.0,False
7801,4459, Note_on_c,72,76,1,2,1,84.0,True
7802,4459, Note_on_c,75,76,1,2,1,87.0,False
7803,4460, Note_on_c,68,76,1,2,1,79.0,False
7804,4460, Note_on_c,73,76,1,2,1,85.0,False
7805,4461, Note_on_c,70,76,1,2,1,81.0,False
7806,4461, Note_on_c,75,76,1,2,1,87.0,False
7807,4462, Note_on_c,63,76,1,2,1,73.0,False
7808,4463, Note_on_c,68,76,1,2,1,79.0,False
7809,4463, Note_on_c,73,76,1,2,1,85.0,False
7810,4464, Note_on_c,72,76,1,2,1,84.0,True
7811,4464, Note_on_c,75,76,1,2,1,87.0,False
7812,4465, Note_on_c,63,76,1,2,1,73.0,False
7813,4466, Note_on_c,68,76,1,2,1,79.0,False
7814,4466, Note_on_c,73,76,1,2,1,85.0,False
7815,4467, Note_on_c,72,76,1,2,1,84.0,True
7816,4467, Note_on_c,75,76,1,2,1,87.0,False
7817,4468, Note_on_c,68,76,1,2,1,79.0,False
7818,4468, Note_on_c,73,76,1,2,1,85.0,False
7819,4469, Note_on_c,70,76,1,2,1,81.0,False
7820,4469, Note_on_c,75,76,1,2,1,87.0,False
7821,4470, Note_on_c,63,76,1,2,1,73.0,False
7822,4471, Note_on_c,68,76,1,2,1,79.0,False
7823,4471, Note_on_c,73,76,1,2,1,85.0,False
7824,4472, Note_on_c,72,76,1,2,1,84.0,True
7825,4472, Note_on_c,75,76,1,2,1,87.0,False
7826,4473, Note_on_c,63,76,1,2,1,73.0,False
7827,4474, Note_on_c,68,76,1,2,1,79.0,False
7828,4474, Note_on_c,73,76,1,2,1,85.0,False
7829,4475, Note_on_c,72,76,1,2,1,84.0,True
7830,4475, Note_on_c,75,76,1,2,1,87.0,False
7831,4476, Note_on_c,68,76,1,2,1,79.0,False
7832,4476, Note_on_c,73,76,1,2,1,85.0,False
7833,4477, Note_on_c,70,76,1,2,1,81.0,False
7834,4477, Note_on_c,75,76,1,2,1,87.0,False
7835,4478, Note_on_c,63,76,1,2,1,73.0,False
7836,4479, Note_on_c,68,76,1,2,1,79.0,False
7837,4479, Note_on_c,73,76,1,2,1,85.0,False
7838,4480, Note_on_c,72,76,1,2,1,84.0,True
7839,4480, Note_on_c,75,76,1,2,1,87.0,False
7840,4481, Note_on_c,63,76,1,2,1,73.0,False
7841,4482, Note_on_c,68,76,1,2,1,79.0,False
7842,4482, Note_on_c,73,76,1,2,1,85.0,False
7843,4483, Note_on_c,72,76,1,2,1,84.0,True
7844,4483, Note_on_c,75,76,1,2,1,87.0,False
7845,4484, Note_on_c,68,76,1,2,1,79.0,False
7846,4484, Note_on_c,73,76,1,2,1,85.0,False
7847,4485, Note_on_c,70,76,1,2,1,81.0,False
7848,4485, Note_on_c,75,76,1,2,1,87.0,False
7849,4486, Note_on_c,63,76,1,2,1,73.0,False
7850,4487, Note_on_c,68,76,1,2,1,79.0,False
7851,4487, Note_on_c,73,76,1,2,1,85.0,False
7852,4488, Note_on_c,72,76,1,2,1,84.0,True
7853,4488, Note_on_c,75,76,1,2,1,87.0,False
7854,4489, Note_on_c,63,76,1,2,1,73.0,False
7855,4490, Note_on_c,68,76,1,2,1,79.0,False
7856,4490, Note_on_c,73,76,1,2,1,85.0,False
7857,4491, Note_on_c,72,76,1,2,1,84.0,True
7858,4491, Note_on_c,75,76,1,2,1,87.0,False
7859,4492, Note_on_c,68,76,1,2,1,79.0,False
7860,4492, Note_on_c,73,76,1,2,1,85.0,False
7861,4493, Note_on_c,70,76,1,2,1,81.0,False
7862,4493, Note_on_c,75,76,1,2,1,87.0,False
7863,4494, Note_on_c,63,76,1,2,1,73.0,False
7864,4495, Note_on_c,68,76,1,2,1,79.0,False
7865,4495, Note_on_c,73,76,1,2,1,85.0,False
7866,4496, Note_on_c,72,76,1,2,1,84.0,True
7867,4496, Note_on_c,75,76,1,2,1,87.0,False
7868,4497, Note_on_c,63,76,1,2,1,73.0,False
7869,4498, Note_on_c,68,76,1,2,1,79.0,False
7870,4498, Note_on_c,73,76,1,2,1,85.0,False
7871,4499, Note_on_c,72,76,1,2,1,84.0,True
7872,4499, Note_on_c,75,76,1,2,1,87.0,False
7873,4500, Note_on_c,68,76,1,2,1,79.0,False
7874,4500, Note_on_c,73,76,1,2,1,85.0,False
7875,4501, Note_on_c,70,76,1,2,1,81.0,False
7876,4501, Note_on_c,75,76,1,2,1,87.0,False
7877,4502, Note_on_c,63,76,1,2,1,73.0,False
7878,4503, Note_on_c,68,76,1,2,1,79.0,False
7879,4503, Note_on_c,73,76,1,2,1,85.0,False
7880,4504, Note_on_c,72,76,1,2,1,84.0,True
7881,4504, Note_on_c,75,76,1,2,1,87.0,False
7882,4505, Note_on_c,63,76,1,2,1,73.0,False
7883,4506, Note_on_c,68,76,1,2,1,79.0,False
7884,4506, Note_on_c,73,76,1,2,1,85.0,False
7885,4507, Note_on_c,72,76,1,2,1,84.0,True
7886,4507, Note_on_c,75,76,1,2,1,87.0,False
7887,4508, Note_on_c,68,76,1,2,1,79.0,False
7888,4508, Note_on_c,73,76,1,2,1,85.0,False
7889,4509, Note_on_c,70,76,1,2,1,81.0,False
7890,4509, Note_on_c,75,76,1,2,1,87.0,False
7891,4510, Note_on_c,63,76,1,2,1,73.0,False
7892,4511, Note_on_c,68,76,1,2,1,79.0,False
7893,4511, Note_on_c,73,76,1,2,1,85.0,False
7894,4512, Note_on_c,72,76,1,2,1,84.0,True
7895,4512, Note_on_c,75,76,1,2,1,87.0,False
7896,4513, Note_on_c,63,76,1,2,1,73.0,False
7897,4514, Note_on_c,68,76,1,2,1,79.0,False
7898,4514, Note_on_c,73,76,1,2,1,85.0,False
7899,4515, Note_on_c,72,76,1,2,1,84.0,True
7900,4515, Note_on_c,75,76,1,2,1,87.0,False
7901,4516, Note_on_c,68,76,1,2,1,79.0,False
7902,4516, Note_on_c,73,76,1,2,1,85.0,False
7903,4517, Note_on_c,70,76,1,2,1,81.0,False
7904,4517, Note_on_c,75,76,1,2,1,87.0,False
7905,4518, Note_on_c,63,76,1,2,1,73.0,False
7906,4519, Note_on_c,68,76,1,2,1,79.0,False
7907,4519, Note_on_c,73,76,1,2,1,85.0,False
7908,4520, Note_on_c,72,76,1,2,1,84.0,True
7909,4520, Note_on_c,75,76,1,2,1,87.0,False
7910,4521, Note_on_c,63,76,1,2,1,73.0,False
7911,4522, Note_on_c,68,76,1,2,1,79.0,False
7912,4522, Note_on_c,73,76,1,2,1,85.0,False
7913,4523, Note_on_c,72,76,1,2,1,84.0,True
7914,4523, Note_on_c,75,76,1,2,1,87.0,False
7915,4524, Note_on_c,68,76,1,2,1,79.0,False
7916,4524, Note_on_c,73,76,1,2,1,85.0,False
7917,4525, Note_on_c,70,76,1,2,1,81.0,False
7918,4525, Note_on_c,75,76,1,2,1,87.0,False
7919,4526, Note_on_c,63,76,1,2,1,73.0,False
7920,4527, Note_on_c,68,76,1,2,1,79.0,False
7921,4527, Note_on_c,73,76,1,2,1,85.0,False
7922,4528, Note_on_c,72,76,1,2,1,84.0,True
7923,4528, Note_on_c,75,76,1,2,1,87.0,False
7924,4529, Note_on_c,63,76,1,2,1,73.0,False
7925,4530, Note_on_c,68,76,1,2,1,79.0,False
7926,4530, Note_on_c,73,76,1,2,1,85.0,False
7927,4531, Note_on_c,72,76,1,2,1,84.0,True
7928,4531, Note_on_c,75,76,1,2,1,87.0,False
7929,4532, Note_on_c,68,76,1,2,1,79.0,False
7930,4532, Note_on_c,73,76,1,2,1,85.0,False
7931,4533, Note_on_c,70,76,1,2,1,81.0,False
7932,4533, Note_on_c,75,76,1,2,1,87.0,False
7933,4534, Note_on_c,63,76,1,2,1,73.0,False
7934,4535, Note_on_c,68,76,1,2,1,79.0,False
7935,4535, Note_on_c,73,76,1,2,1,85.0,False
7936,4536, Note_on_c,72,76,1,2,1,84.0,True
7937,4536, Note_on_c,75,76,1,2,1,87.0,False
7938,4537, Note_on_c,63,76,1,2,1,73.0,False
7939,4538, Note_on_c,68,76,1,2,1,79.0,False
7940,4538, Note_on_c,73,76,1,2,1,85.0,False
7941,4539, Note_on_c,72,76,1,2,1,84.0,True
7942,4539, Note_on_c,75,76,1,2,1,87.0,False
7943,4540, Note_on_c,68,76,1,2,1,79.0,False
7944,4540, Note_on_c,73,76,1,2,1,85.0,False
7945,4541, Note_on_c,70,76,1,2,1,81.0,False
7946,4541, Note_on_c,75,76,1,2,1,87.0,False
7947,4542, Note_on_c,63,76,1,2,1,73.0,False
7948,4543, Note_on_c,68,76,1,2,1,79.0,False
7949,4543, Note_on_c,73,76,1,2,1,85.0,False
7950,4544, Note_on_c,72,76,1,2,1,84.0,True
7951,4544, Note_on_c,75,76,1,2,1,87.0,False
7952,4545, Note_on_c,63,76,1,2,1,73.0,False
7953,4546, Note_on_c,68,76,1,2,1,79.0,False
7954,4546, Note_on_c,73,76,1,2,1,85.0,False
7955,4547, Note_on_c,72,76,1,2,1,84.0,True
7956,4547, Note_on_c,75,76,1,2,1,87.0,False
7957,4548, Note_on_c,68,76,1,2,1,79.0,False
7958,4548, Note_on_c,73,76,1,2,1,85.0,False
7959,4549, Note_on_c,70,76,1,2,1,81.0,False
7960,4549, Note_on_c,75,76,1,2,1,87.0,False
7961,4550, Note_on_c,63,76,1,2,1,73.0,False
7962,4551, Note_on_c,68,76,1,2,1,79.0,False
7963,4551, Note_on_c,73,76,1,2,1,85.0,False
7964,4552, Note_on_c,72,76,1,2,1,84.0,True
7965,4552, Note_on_c,75,76,1,2,1,87.0,False
7966,4553, Note_on_c,63,76,1,2,1,73.0,False
7967,4554, Note_on_c,68,76,1,2,1,79.0,False
7968,4554, Note_on_c,73,76,1,2,1,85.0,False
7969,4555, Note_on_c,72,76,1,2,1,84.0,True
7970,4555, Note_on_c,75,76,1,2,1,87.0,False
7971,4556, Note_on_c,68,76,1,2,1,79.0,False
7972,4556, Note_on_c,73,76,1,2,1,85.0,False
7973,4557, Note_on_c,70,76,1,2,1,81.0,False
7974,4557, Note_on_c,75,76,1,2,1,87.0,False
7975,4558, Note_on_c,63,76,1,2,1,73.0,False
7976,4559, Note_on_c,68,76,1,2,1,79.0,False
7977,4559, Note_on_c,73,76,1,2,1,85.0,False
7978,4560, Note_on_c,72,76,1,2,1,84.0,True
7979,4560, Note_on_c,75,76,1,2,1,87.0,False
7980,4561, Note_on_c,63,76,1,2,1,73.0,False
7981,4562, Note_on_c,68,76,1,2,1,79.0,False
7982,4562, Note_on_c,73,76,1,2,1,85.0,False
7983,4563, Note_on_c,72,76,1,2,1,84.0,True
7984,4563, Note_on_c,75,76,1,2,1,87.0,False
7985,4564, Note_on_c,68,76,1,2,1,79.0,False
7986,4564, Note_on_c,73,76,1,2,1,85.0,False
7987,4565, Note_on_c,70,76,1,2,1,81.0,False
7988,4565, Note_on_c,75,76,1,2,1,87.0,False
7989,4566, Note_on_c,63,76,1,2,1,73.0,False
7990,4567, Note_on_c,68,76,1,2,1,79.0,False
7991,4567, Note_on_c,73,76,1,2,1,85.0,False
7992,4568, Note_on_c,72,76,1,2,1,84.0,True
7993,4568, Note_on_c,75,76,1,2,1,87.0,False
7994,4569, Note_on_c,63,76,1,2,1,73.0,False
7995,4570, Note_on_c,68,76,1,2,1,79.0,False
7996,4570, Note_on_c,73,76,1,2,1,85.0,False
7997,4571, Note_on_c,72,76,1,2,1,84.0,True
7998,4571, Note_on_c,75,76,1,2,1,87.0,False
7999,4572, Note_on_c,68,76,1,2,1,79.0,False
8000,4572, Note_on_c,73,76,1,2,1,85.0,False
8001,4573, Note_on_c,70,76,1,2,1,81.0,False
8002,4573, Note_on_c,75,76,1,2,1,87.0,False
8003,4574, Note_on_c,63,76,1,2,1,73.0,False
8004,4575, Note_on_c,68,76,1,2,1,79.0,False
8005,4575, Note_on_c,73,76,1,2,1,85.0,False
8006,4576, Note_on_c,72,76,1,2,1,84.0,True
8007,4576, Note_on_c,75,76,1,2,1,87.0,False
8008,4577, Note_on_c,63,76,1,2,1,73.0,False
8009,4578, Note_on_c,68,76,1,2,1,79.0,False
8010,4578, Note_on_c,73,76,1,2,1,85.0,False
8011,4579, Note_on_c,72,76,1,2,1,84.0,True
8012,4579, Note_on_c,75,76,1,2,1,87.0,False
8013,4580, Note_on_c,68,76,1,2,1,79.0,False
8014,4580, Note_on_c,73,76,1,2,1,85.0,False
8015,4581, Note_on_c,70,76,1,2,1,81.0,False
8016,4581, Note_on_c,75,76,1,2,1,87.0,False
8017,4582, Note_on_c,63,76,1,2,1,73.0,False
8018,4583, Note_on_c,68,76,1,2,1,79.0,False
8019,4583, Note_on_c,73,76,1,2,1,85.0,False
8020,4584, Note_on_c,72,76,1,2,1,84.0,True
8021,4584, Note_on_c,75,76,1,2,1,87.0,False
8022,4585, Note_on_c,63,76,1,2,1,73.0,False
8023,4586, Note_on_c,68,76,1,2,1,79.0,False
8024,4586, Note_on_c,73,76,1,2,1,85.0,False
8025,4587, Note_on_c,72,76,1,2,1,84.0,True
8026,4587, Note_on_c,75,76,1,2,1,87.0,False
8027,4588, Note_on_c,68,76,1,2,1,79.0,False
8028,4588, Note_on_c,73,76,1,2,1,85.0,False
8029,4589, Note_on_c,70,76,1,2,1,81.0,False
8030,4589, Note_on_c,75,76,1,2,1,87.0,False
8031,4590, Note_on_c,63,76,1,2,1,73.0,False
8032,4591, Note_on_c,68,76,1,2,1,79.0,False
8033,4591, Note_on_c,73,76,1,2,1,85.0,False
8034,4592, Note_on_c,72,76,1,2,1,84.0,True
8035,4592, Note_on_c,75,76,1,2,1,87.0,False
8036,4593, Note_on_c,63,76,1,2,1,73.0,False
8037,4594, Note_on_c,68,76,1,2,1,79.0,False
8038,4594, Note_on_c,73,76,1,2,1,85.0,False
8039,4595, Note_on_c,72,76,1,2,1,84.0,True
8040,4595, Note_on_c,75,76,1,2,1,87.0,False
8041,4596, Note_on_c,68,76,1,2,1,79.0,False
8042,4596, Note_on_c,73,76,1,2,1,85.0,False
8043,4597, Note_on_c,70,76,1,2,1,81.0,False
8044,4597, Note_on_c,75,76,1,2,1,87.0,False
8045,4598, Note_on_c,63,76,1,2,1,73.0,False
8046,4599, Note_on_c,68,76,1,2,1,79.0,False
8047,4599, Note_on_c,73,76,1,2,1,85.0,False
8048,4600, Note_on_c,72,76,1,2,1,84.0,True
8049,4600, Note_on_c,75,76,1,2,1,87.0,False
8050,4601, Note_on_c,63,76,1,2,1,73.0,False
8051,4602, Note_on_c,68,76,1,2,1,79.0,False
8052,4602, Note_on_c,73,76,1,2,1,85.0,False
8053,4603, Note_on_c,72,76,1,2,1,84.0,True
8054,4603, Note_on_c,75,76,1,2,1,87.0,False
8055,4604, Note_on_c,68,76,1,2,1,79.0,False
8056,4604, Note_on_c,73,76,1,2,1,85.0,False
8057,4605, Note_on_c,70,76,1,2,1,81.0,False
8058,4605, Note_on_c,75,76,1,2,1,87.0,False
8059,4606, Note_on_c,63,76,1,2,1,73.0,False
8060,4607, Note_on_c,68,76,1,2,1,79.0,False
8061,4607, Note_on_c,73,76,1,2,1,85.0,False
8062,4608, Note_on_c,72,76,1,2,1,84.0,True
8063,4608, Note_on_c,75,76,1,2,1,87.0,False
8064,4609, Note_on_c,63,76,1,2,1,73.0,False
8065,4610, Note_on_c,68,76,1,2,1,79.0,False
8066,4610, Note_on_c,73,76,1,2,1,85.0,False
8067,4611, Note_on_c,72,76,1,2,1,84.0,True
8068,4611, Note_on_c,75,76,1,2,1,87.0,False
8069,4612, Note_on_c,68,76,1,2,1,79.0,False
8070,4612, Note_on_c,73,76,1,2,1,85.0,False
8071,4613, Note_on_c,70,76,1,2,1,81.0,False
8072,4613, Note_on_c,75,76,1,2,1,87.0,False
8073,4614, Note_on_c,63,76,1,2,1,73.0,False
8074,4615, Note_on_c,68,76,1,2,1,79.0,False
8075,4615, Note_on_c,73,76,1,2,1,85.0,False
8076,4616, Note_on_c,72,76,1,2,1,84.0,True
8077,4616, Note_on_c,75,76,1,2,1,87.0,False
8078,4617, Note_on_c,63,76,1,2,1,73.0,False
8079,4618, Note_on_c,68,76,1,2,1,79.0,False
8080,4618, Note_on_c,73,76,1,2,1,85.0,False
8081,4619, Note_on_c,72,76,1,2,1,84.0,True
8082,4619, Note_on_c,75,76,1,2,1,87.0,False
8083,4620, Note_on_c,68,76,1,2,1,79.0,False
8084,4620, Note_on_c,73,76,1,2,1,85.0,False
8085,4621, Note_on_c,70,76,1,2,1,81.0,False
8086,4621, Note_on_c,75,76,1,2,1,87.0,False
8087,4622, Note_on_c,63,76,1,2,1,73.0,False
8088,4623, Note_on_c,68,76,1,2,1,79.0,False
8089,4623, Note_on_c,73,76,1,2,1,85.0,False
8090,4624, Note_on_c,72,76,1,2,1,84.0,True
8091,4624, Note_on_c,75,76,1,2,1,87.0,False
8092,4625, Note_on_c,63,76,1,2,1,73.0,False
8093,4626, Note_on_c,68,76,1,2,1,79.0,False
8094,4626, Note_on_c,73,76,1,2,1,85.0,False
8095,4627, Note_on_c,72,76,1,2,1,84.0,True
8096,4627, Note_on_c,75,76,1,2,1,87.0,False
8097,4628, Note_on_c,68,76,1,2,1,79.0,False
8098,4628, Note_on_c,73,76,1,2,1,85.0,False
8099,4629, Note_on_c,70,76,1,2,1,81.0,False
8100,4629, Note_on_c,75,76,1,2,1,87.0,False
8101,4630, Note_on_c,63,76,1,2,1,73.0,False
8102,4631, Note_on_c,68,76,1,2,1,79.0,False
8103,4631, Note_on_c,73,76,1,2,1,85.0,False
8104,4632, Note_on_c,72,76,1,2,1,84.0,True
8105,4632, Note_on_c,75,76,1,2,1,87.0,False
8106,4633, Note_on_c,63,76,1,2,1,73.0,False
8107,4634, Note_on_c,68,76,1,2,1,79.0,False
8108,4634, Note_on_c,73,76,1,2,1,85.0,False
8109,4635, Note_on_c,72,76,1,2,1,84.0,True
8110,4635, Note_on_c,75,76,1,2,1,87.0,False
8111,4636, Note_on_c,68,76,1,2,1,79.0,False
8112,4636, Note_on_c,73,76,1,2,1,85.0,False
8113,4637, Note_on_c,70,76,1,2,1,81.0,False
8114,4637, Note_on_c,75,76,1,2,1,87.0,False
8115,4638, Note_on_c,63,76,1,2,1,73.0,False
8116,4639, Note_on_c,68,76,1,2,1,79.0,False
8117,4639, Note_on_c,73,76,1,2,1,85.0,False
8118,4640, Note_on_c,72,76,1,2,1,84.0,True
8119,4640, Note_on_c,75,76,1,2,1,87.0,False
8120,4641, Note_on_c,63,76,1,2,1,73.0,False
8121,4642, Note_on_c,68,76,1,2,1,79.0,False
8122,4642, Note_on_c,73,76,1,2,1,85.0,False
8123,4643, Note_on_c,72,76,1,2,1,84.0,True
8124,4643, Note_on_c,75,76,1,2,1,87.0,False
8125,4644, Note_on_c,68,76,1,2,1,79.0,False
8126,4644, Note_on_c,73,76,1,2,1,85.0,False
8127,4645, Note_on_c,70,76,1,2,1,81.0,False
8128,4645, Note_on_c,75,76,1,2,1,87.0,False
8129,4646, Note_on_c,63,76,1,2,1,73.0,False
8130,4647, Note_on_c,68,76,1,2,1,79.0,False
8131,4647, Note_on_c,73,76,1,2,1,85.0,False
8132,4648, Note_on_c,72,76,1,2,1,84.0,True
8133,4648, Note_on_c,75,76,1,2,1,87.0,False
8134,4649, Note_on_c,63,76,1,2,1,73.0,False
8135,4650, Note_on_c,68,76,1,2,1,79.0,False
8136,4650, Note_on_c,73,76,1,2,1,85.0,False
8137,4651, Note_on_c,72,76,1,2,1,84.0,True
8138,4651, Note_on_c,75,76,1,2,1,87.0,False
8139,4652, Note_on_c,68,76,1,2,1,79.0,False
8140,4652, Note_on_c,73,76,1,2,1,85.0,False
8141,4653, Note_on_c,70,76,1,2,1,81.0,False
8142,4653, Note_on_c,75,76,1,2,1,87.0,False
8143,4654, Note_on_c,63,76,1,2,1,73.0,False
8144,4655, Note_on_c,68,76,1,2,1,79.0,False
8145,4655, Note_on_c,73,76,1,2,1,85.0,False
8146,4656, Note_on_c,72,76,1,2,1,84.0,True
8147,4656, Note_on_c,75,76,1,2,1,87.0,False
8148,4657, Note_on_c,63,76,1,2,1,73.0,False
8149,4658, Note_on_c,68,76,1,2,1,79.0,False
8150,4658, Note_on_c,73,76,1,2,1,85.0,False
8151,4659, Note_on_c,72,76,1,2,1,84.0,True
8152,4659, Note_on_c,75,76,1,2,1,87.0,False
8153,4660, Note_on_c,68,76,1,2,1,79.0,False
8154,4660, Note_on_c,73,76,1,2,1,85.0,False
8155,4661, Note_on_c,70,76,1,2,1,81.0,False
8156,4661, Note_on_c,75,76,1,2,1,87.0,False
8157,4662, Note_on_c,63,76,1,2,1,73.0,False
8158,4663, Note_on_c,68,76,1,2,1,79.0,False
8159,4663, Note_on_c,73,76,1,2,1,85.0,False
8160,4664, Note_on_c,72,76,1,2,1,84.0,True
8161,4664, Note_on_c,75,76,1,2,1,87.0,False
8162,4665, Note_on_c,63,76,1,2,1,73.0,False
8163,4666, Note_on_c,68,76,1,2,1,79.0,False
8164,4666, Note_on_c,73,76,1,2,1,85.0,False
8165,4667, Note_on_c,72,76,1,2,1,84.0,True
8166,4667, Note_on_c,75,76,1,2,1,87.0,False
8167,4668, Note_on_c,68,76,1,2,1,79.0,False
8168,4668, Note_on_c,73,76,1,2,1,85.0,False
8169,4669, Note_on_c,70,76,1,2,1,81.0,False
8170,4669, Note_on_c,75,76,1,2,1,87.0,False
8171,4670, Note_on_c,63,76,1,2,1,73.0,False
8172,4671, Note_on_c,68,76,1,2,1,79.0,False
8173,4671, Note_on_c,73,76,1,2,1,85.0,False
8174,4672, Note_on_c,72,76,1,2,1,84.0,True
8175,4672, Note_on_c,75,76,1,2,1,87.0,False
8176,4673, Note_on_c,63,76,1,2,1,73.0,False
8177,4674, Note_on_c,68,76,1,2,1,79.0,False
8178,4674, Note_on_c,73,76,1,2,1,85.0,False
8179,4675, Note_on_c,72,76,1,2,1,84.0,True
8180,4675, Note_on_c,75,76,1,2,1,87.0,False
8181,4676, Note_on_c,68,76,1,2,1,79.0,False
8182,4676, Note_on_c,73,76,1,2,1,85.0,False
8183,4677, Note_on_c,70,76,1,2,1,81.0,False
8184,4677, Note_on_c,75,76,1,2,1,87.0,False
8185,4678, Note_on_c,63,76,1,2,1,73.0,False
8186,4679, Note_on_c,68,76,1,2,1,79.0,False
8187,4679, Note_on_c,73,76,1,2,1,85.0,False
8188,4680, Note_on_c,72,76,1,2,1,84.0,True
8189,4680, Note_on_c,75,76,1,2,1,87.0,False
8190,4681, Note_on_c,63,76,1,2,1,73.0,False
8191,4682, Note_on_c,68,76,1,2,1,79.0,False
8192,4682, Note_on_c,73,76,1,2,1,85.0,False
8193,4683, Note_on_c,72,76,1,2,1,84.0,True
8194,4683, Note_on_c,75,76,1,2,1,87.0,False
8195,4684, Note_on_c,68,76,1,2,1,79.0,False
8196,4684, Note_on_c,73,76,1,2,1,85.0,False
8197,4685, Note_on_c,70,76,1,2,1,81.0,False
8198,4685, Note_on_c,75,76,1,2,1,87.0,False
8199,4686, Note_on_c,63,76,1,2,1,73.0,False
8200,4687, Note_on_c,68,76,1,2,1,79.0,False
8201,4687, Note_on_c,73,76,1,2,1,85.0,False
8202,4688, Note_on_c,72,76,1,2,1,84.0,True
8203,4688, Note_on_c,75,76,1,2,1,87.0,False
8204,4689, Note_on_c,63,76,1,2,1,73.0,False
8205,4690, Note_on_c,68,76,1,2,1,79.0,False
8206,4690, Note_on_c,73,76,1,2,1,85.0,False
8207,4691, Note_on_c,72,76,1,2,1,84.0,True
8208,4691, Note_on_c,75,76,1,2,1,87.0,False
8209,4692, Note_on_c,68,76,1,2,1,79.0,False
8210,4692, Note_on_c,73,76,1,2,1,85.0,False
8211,4693, Note_on_c,70,76,1,2,1,81.0,False
8212,4693, Note_on_c,75,76,1,2,1,87.0,False
8213,4694, Note_on_c,63,76,1,2,1,73.0,False
8214,4695, Note_on_c,68,76,1,2,1,79.0,False
8215,4695, Note_on_c,73,76,1,2,1,85.0,False
8216,4696, Note_on_c,72,76,1,2,1,84.0,True
8217,4696, Note_on_c,75,76,1,2,1,87.0,False
8218,4697, Note_on_c,63,76,1,2,1,73.0,False
8219,4698, Note_on_c,68,76,1,2,1,79.0,False
8220,4698, Note_on_c,73,76,1,2,1,85.0,False
8221,4699, Note_on_c,72,76,1,2,1,84.0,True
8222,4699, Note_on_c,75,76,1,2,1,87.0,False
8223,4700, Note_on_c,68,76,1,2,1,79.0,False
8224,4700, Note_on_c,73,76,1,2,1,85.0,False
8225,4701, Note_on_c,70,76,1,2,1,81.0,False
8226,4701, Note_on_c,75,76,1,2,1,87.0,False
8227,4702, Note_on_c,63,76,1,2,1,73.0,False
8228,4703, Note_on_c,68,76,1,2,1,79.0,False
8229,4703, Note_on_c,73,76,1,2,1,85.0,False
8230,4704, Note_on_c,72,76,1,2,1,84.0,True
8231,4704, Note_on_c,75,76,1,2,1,87.0,False
8232,4705, Note_on_c,63,76,1,2,1,73.0,False
8233,4706, Note_on_c,68,76,1,2,1,79.0,False
8234,4706, Note_on_c,73,76,1,2,1,85.0,False
8235,4707, Note_on_c,72,76,1,2,1,84.0,True
8236,4707, Note_on_c,75,76,1,2,1,87.0,False
8237,4708, Note_on_c,68,76,1,2,1,79.0,False
8238,4708, Note_on_c,73,76,1,2,1,85.0,False
8239,4709, Note_on_c,70,76,1,2,1,81.0,False
8240,4709, Note_on_c,75,76,1,2,1,87.0,False
8241,4710, Note_on_c,63,76,1,2,1,73.0,False
8242,4711, Note_on_c,68,76,1,2,1,79.0,False
8243,4711, Note_on_c,73,76,1,2,1,85.0,False
8244,4712, Note_on_c,72,76,1,2,1,84.0,True
8245,4712, Note_on_c,75,76,1,2,1,87.0,False
8246,4713, Note_on_c,63,76,1,2,1,73.0,False
8247,4714, Note_on_c,68,76,1,2,1,79.0,False
8248,4714, Note_on_c,73,76,1,2,1,85.0,False
8249,4715, Note_on_c,72,76,1,2,1,84.0,True
8250,4715, Note_on_c,75,76,1,2,1,87.0,False
8251,4716, Note_on_c,68,76,1,2,1,79.0,False
8252,4716, Note_on_c,73,76,1,2,1,85.0,False
8253,4717, Note_on_c,70,76,1,2,1,81.0,False
8254,4717, Note_on_c,75,76,1,2,1,87.0,False
8255,4718, Note_on_c,63,76,1,2,1,73.0,False
8256,4719, Note_on_c,68,76,1,2,1,79.0,False
8257,4719, Note_on_c,73,76,1,2,1,85.0,False
8258,4720, Note_on_c,72,76,1,2,1,84.0,True
8259,4720, Note_on_c,75,76,1,2,1,87.0,False
8260,4721, Note_on_c,63,76,1,2,1,73.0,False
8261,4722, Note_on_c,68,76,1,2,1,79.0,False
8262,4722, Note_on_c,73,76,1,2,1,85.0,False
8263,4723, Note_on_c,72,76,1,2,1,84.0,True
8264,4723, Note_on_c,75,76,1,2,1,87.0,False
8265,4724, Note_on_c,68,76,1,2,1,79.0,False
8266,4724, Note_on_c,73,76,1,2,1,85.0,False
8267,4725, Note_on_c,70,76,1,2,1,81.0,False
8268,4725, Note_on_c,75,76,1,2,1,87.0,False
8269,4726, Note_on_c,63,76,1,2,1,73.0,False
8270,4727, Note_on_c,68,76,1,2,1,79.0,False
8271,4727, Note_on_c,73,76,1,2,1,85.0,False
8272,4728, Note_on_c,72,76,1,2,1,84.0,True
8273,4728, Note_on_c,75,76,1,2,1,87.0,False
8274,4729, Note_on_c,63,76,1,2,1,73.0,False
8275,4730, Note_on_c,68,76,1,2,1,79.0,False
8276,4730, Note_on_c,73,76,1,2,1,85.0,False
8277,4731, Note_on_c,72,76,1,2,1,84.0,True
8278,4731, Note_on_c,75,76,1,2,1,87.0,False
8279,4732, Note_on_c,68,76,1,2,1,79.0,False
8280,4732, Note_on_c,73,76,1,2,1,85.0,False
8281,4733, Note_on_c,70,76,1,2,1,81.0,False
8282,4733, Note_on_c,75,76,1,2,1,87.0,False
8283,4734, Note_on_c,63,76,1,2,1,73.0,False
8284,4735, Note_on_c,68,76,1,2,1,79.0,False
8285,4735, Note_on_c,73,76,1,2,1,85.0,False
8286,4736, Note_on_c,72,76,1,2,1,84.0,True
8287,4736, Note_on_c,75,76,1,2,1,87.0,False
8288,4737, Note_on_c,63,76,1,2,1,73.0,False
8289,4738, Note_on_c,68,76,1,2,1,79.0,False
8290,4738, Note_on_c,73,76,1,2,1,85.0,False
8291,4739, Note_on_c,72,76,1,2,1,84.0,True
8292,4739, Note_on_c,75,76,1,2,1,87.0,False
8293,4740, Note_on_c,68,76,1,2,1,79.0,False
8294,4740, Note_on_c,73,76,1,2,1,85.0,False
8295,4741, Note_on_c,70,76,1,2,1,81.0,False
8296,4741, Note_on_c,75,76,1,2,1,87.0,False
8297,4742, Note_on_c,63,76,1,2,1,73.0,False
8298,4743, Note_on_c,68,76,1,2,1,79.0,False
8299,4743, Note_on_c,73,76,1,2,1,85.0,False
8300,4744, Note_on_c,72,76,1,2,1,84.0,True
8301,4744, Note_on_c,75,76,1,2,1,87.0,False
8302,4745, Note_on_c,63,76,1,2,1,73.0,False
8303,4746, Note_on_c,68,76,1,2,1,79.0,False
8304,4746, Note_on_c,73,76,1,2,1,85.0,False
8305,4747, Note_on_c,72,76,1,2,1,84.0,True
8306,4747, Note_on_c,75,76,1,2,1,87.0,False
8307,4748, Note_on_c,68,76,1,2,1,79.0,False
8308,4748, Note_on_c,73,76,1,2,1,85.0,False
8309,4749, Note_on_c,70,76,1,2,1,81.0,False
8310,4749, Note_on_c,75,76,1,2,1,87.0,False
8311,4750, Note_on_c,63,76,1,2,1,73.0,False
8312,4751, Note_on_c,68,76,1,2,1,79.0,False
8313,4751, Note_on_c,73,76,1,2,1,85.0,False
8314,4752, Note_on_c,72,76,1,2,1,84.0,True
8315,4752, Note_on_c,75,76,1,2,1,87.0,False
8316,4753, Note_on_c,63,76,1,2,1,73.0,False
8317,4754, Note_on_c,68,76,1,2,1,79.0,False
8318,4754, Note_on_c,73,76,1,2,1,85.0,False
8319,4755, Note_on_c,72,76,1,2,1,84.0,True
8320,4755, Note_on_c,75,76,1,2,1,87.0,False
8321,4756, Note_on_c,68,76,1,2,1,79.0,False
8322,4756, Note_on_c,73,76,1,2,1,85.0,False
8323,4757, Note_on_c,70,76,1,2,1,81.0,False
8324,4757, Note_on_c,75,76,1,2,1,87.0,False
8325,4758, Note_on_c,63,76,1,2,1,73.0,False
8326,4759, Note_on_c,68,76,1,2,1,79.0,False
8327,4759, Note_on_c,73,76,1,2,1,85.0,False
8328,4760, Note_on_c,72,76,1,2,1,84.0,True
8329,4760, Note_on_c,75,76,1,2,1,87.0,False
8330,4761, Note_on_c,63,76,1,2,1,73.0,False
8331,4762, Note_on_c,68,76,1,2,1,79.0,False
8332,4762, Note_on_c,73,76,1,2,1,85.0,False
8333,4763, Note_on_c,72,76,1,2,1,84.0,True
8334,4763, Note_on_c,75,76,1,2,1,87.0,False
8335,4764, Note_on_c,68,76,1,2,1,79.0,False
8336,4764, Note_on_c,73,76,1,2,1,85.0,False
8337,4765, Note_on_c,70,76,1,2,1,81.0,False
8338,4765, Note_on_c,75,76,1,2,1,87.0,False
8339,4766, Note_on_c,63,76,1,2,1,73.0,False
8340,4767, Note_on_c,68,76,1,2,1,79.0,False
8341,4767, Note_on_c,73,76,1,2,1,85.0,False
8342,4768, Note_on_c,72,76,1,2,1,84.0,True
8343,4768, Note_on_c,75,76,1,2,1,87.0,False
8344,4769, Note_on_c,63,76,1,2,1,73.0,False
8345,4770, Note_on_c,68,76,1,2,1,79.0,False
8346,4770, Note_on_c,73,76,1,2,1,85.0,False
8347,4771, Note_on_c,72,76,1,2,1,84.0,True
8348,4771, Note_on_c,75,76,1,2,1,87.0,False
8349,4772, Note_on_c,68,76,1,2,1,79.0,False
8350,4772, Note_on_c,73,76,1,2,1,85.0,False
8351,4773, Note_on_c,70,76,1,2,1,81.0,False
8352,4773, Note_on_c,75,76,1,2,1,87.0,False
8353,4774, Note_on_c,63,76,1,2,1,73.0,False
8354,4775, Note_on_c,68,76,1,2,1,79.0,False
8355,4775, Note_on_c,73,76,1,2,1,85.0,False
8356,4776, Note_on_c,72,76,1,2,1,84.0,True
8357,4776, Note_on_c,75,76,1,2,1,87.0,False
8358,4777, Note_on_c,63,76,1,2,1,73.0,False
8359,4778, Note_on_c,68,76,1,2,1,79.0,False
8360,4778, Note_on_c,73,76,1,2,1,85.0,False
8361,4779, Note_on_c,72,76,1,2,1,84.0,True
8362,4779, Note_on_c,75,76,1,2,1,87.0,False
8363,4780, Note_on_c,68,76,1,2,1,79.0,False
8364,4780, Note_on_c,73,76,1,2,1,85.0,False
8365,4781, Note_on_c,70,76,1,2,1,81.0,False
8366,4781, Note_on_c,75,76,1,2,1,87.0,False
8367,4782, Note_on_c,63,76,1,2,1,73.0,False
8368,4783, Note_on_c,68,76,1,2,1,79.0,False
8369,4783, Note_on_c,73,76,1,2,1,85.0,False
8370,4784, Note_on_c,72,76,1,2,1,84.0,True
8371,4784, Note_on_c,75,76,1,2,1,87.0,False
8372,4785, Note_on_c,63,76,1,2,1,73.0,False
8373,4786, Note_on_c,68,76,1,2,1,79.0,False
8374,4786, Note_on_c,73,76,1,2,1,85.0,False
8375,4787, Note_on_c,72,76,1,2,1,84.0,True
8376,4787, Note_on_c,75,76,1,2,1,87.0,False
8377,4788, Note_on_c,68,76,1,2,1,79.0,False
8378,4788, Note_on_c,73,76,1,2,1,85.0,False
8379,4789, Note_on_c,70,76,1,2,1,81.0,False
8380,4789, Note_on_c,75,76,1,2,1,87.0,False
8381,4790, Note_on_c,63,76,1,2,1,73.0,False
8382,4791, Note_on_c,68,76,1,2,1,79.0,False
8383,4791, Note_on_c,73,76,1,2,1,85.0,False
8384,4792, Note_on_c,72,76,1,2,1,84.0,True
8385,4792, Note_on_c,75,76,1,2,1,87.0,False
8386,4793, Note_on_c,63,76,1,2,1,73.0,False
8387,4794, Note_on_c,68,76,1,2,1,79.0,False
8388,4794, Note_on_c,73,76,1,2,1,85.0,False
8389,4795, Note_on_c,72,76,1,2,1,84.0,True
8390,4795, Note_on_c,75,76,1,2,1,87.0,False
8391,4796, Note_on_c,68,76,1,2,1,79.0,False
8392,4796, Note_on_c,73,76,1,2,1,85.0,False
8393,4797, Note_on_c,70,76,1,2,1,81.0,False
8394,4797, Note_on_c,75,76,1,2,1,87.0,False
8395,4798, Note_on_c,63,76,1,2,1,73.0,False
8396,4799, Note_on_c,68,76,1,2,1,79.0,False
8397,4799, Note_on_c,73,76,1,2,1,85.0,False
8398,4800, Note_on_c,72,76,1,2,1,84.0,True
8399,4800, Note_on_c,75,76,1,2,1,87.0,False
8400,4801, Note_on_c,63,76,1,2,1,73.0,False
8401,4802, Note_on_c,68,76,1,2,1,79.0,False
8402,4802, Note_on_c,73,76,1,2,1,85.0,False
8403,4803, Note_on_c,72,76,1,2,1,84.0,True
8404,4803, Note_on_c,75,76,1,2,1,87.0,False
8405,4804, Note_on_c,68,76,1,2,1,79.0,False
8406,4804, Note_on_c,73,76,1,2,1,85.0,False
8407,4805, Note_on_c,70,76,1,2,1,81.0,False
8408,4805, Note_on_c,75,76,1,2,1,87.0,False
8409,4806, Note_on_c,63,76,1,2,1,73.0,False
8410,4807, Note_on_c,68,76,1,2,1,79.0,False
8411,4807, Note_on_c,73,76,1,2,1,85.0,False
8412,4808, Note_on_c,72,76,1,2,1,84.0,True
8413,4808, Note_on_c,75,76,1,2,1,87.0,False
8414,4809, Note_on_c,63,76,1,2,1,73.0,False
8415,4810, Note_on_c,68,76,1,2,1,79.0,False
8416,4810, Note_on_c,73,76,1,2,1,85.0,False
8417,4811, Note_on_c,72,76,1,2,1,84.0,True
8418,4811, Note_on_c,75,76,1,2,1,87.0,False
8419,4812, Note_on_c,68,76,1,2,1,79.0,False
8420,4812, Note_on_c,73,76,1,2,1,85.0,False
8421,4813, Note_on_c,70,76,1,2,1,81.0,False
8422,4813, Note_on_c,75,76,1,2,1,87.0,False
8423,4814, Note_on_c,63,76,1,2,1,73.0,False
8424,4815, Note_on_c,68,76,1,2,1,79.0,False
8425,4815, Note_on_c,73,76,1,2,1,85.0,False
8426,4816, Note_on_c,72,76,1,2,1,84.0,True
8427,4816, Note_on_c,75,76,1,2,1,87.0,False
8428,4817, Note_on_c,63,76,1,2,1,73.0,False
8429,4818, Note_on_c,68,76,1,2,1,79.0,False
8430,4818, Note_on_c,73,76,1,2,1,85.0,False
8431,4819, Note_on_c,72,76,1,2,1,84.0,True
8432,4819, Note_on_c,75,76,1,2,1,87.0,False
8433,4820, Note_on_c,68,76,1,2,1,79.0,False
8434,4820, Note_on_c,73,76,1,2,1,85.0,False
8435,4821, Note_on_c,70,76,1,2,1,81.0,False
8436,4821, Note_on_c,75,76,1,2,1,87.0,False
8437,4822, Note_on_c,63,76,1,2,1,73.0,False
8438,4823, Note_on_c,68,76,1,2,1,79.0,False
8439,4823, Note_on_c,73,76,1,2,1,85.0,False
8440,4824, Note_on_c,72,76,1,2,1,84.0,True
8441,4824, Note_on_c,75,76,1,2,1,87.0,False
8442,4825, Note_on_c,63,76,1,2,1,73.0,False
8443,4826, Note_on_c,68,76,1,2,1,79.0,False
8444,4826, Note_on_c,73,76,1,2,1,85.0,False
8445,4827, Note_on_c,72,76,1,2,1,84.0,True
8446,4827, Note_on_c,75,76,1,2,1,87.0,False
8447,4828, Note_on_c,68,76,1,2,1,79.0,False
8448,4828, Note_on_c,73,76,1,2,1,85.0,False
8449,4829, Note_on_c,70,76,1,2,1,81.0,False
8450,4829, Note_on_c,75,76,1,2,1,87.0,False
8451,4830, Note_on_c,63,76,1,2,1,73.0,False
8452,4831, Note_on_c,68,76,1,2,1,79.0,False
8453,4831, Note_on_c,73,76,1,2,1,85.0,False
8454,4832, Note_on_c,72,76,1,2,1,84.0,True
8455,4832, Note_on_c,75,76,1,2,1,87.0,False
8456,4833, Note_on_c,63,76,1,2,1,73.0,False
8457,4834, Note_on_c,68,76,1,2,1,79.0,False
8458,4834, Note_on_c,73,76,1,2,1,85.0,False
8459,4835, Note_on_c,72,76,1,2,1,84.0,True
8460,4835, Note_on_c,75,76,1,2,1,87.0,False
8461,4836, Note_on_c,68,76,1,2,1,79.0,False
8462,4836, Note_on_c,73,76,1,2,1,85.0,False
8463,4837, Note_on_c,70,76,1,2,1,81.0,False
8464,4837, Note_on_c,75,76,1,2,1,87.0,False
8465,4838, Note_on_c,63,76,1,2,1,73.0,False
8466,4839, Note_on_c,68,76,1,2,1,79.0,False
8467,4839, Note_on_c,73,76,1,2,1,85.0,False
8468,4840, Note_on_c,72,76,1,2,1,84.0,True
8469,4840, Note_on_c,75,76,1,2,1,87.0,False
8470,4841, Note_on_c,63,76,1,2,1,73.0,False
8471,4842, Note_on_c,68,76,1,2,1,79.0,False
8472,4842, Note_on_c,73,76,1,2,1,85.0,False
8473,4843, Note_on_c,72,76,1,2,1,84.0,True
8474,4843, Note_on_c,75,76,1,2,1,87.0,False
8475,4844, Note_on_c,68,76,1,2,1,79.0,False
8476,4844, Note_on_c,73,76,1,2,1,85.0,False
8477,4845, Note_on_c,70,76,1,2,1,81.0,False
8478,4845, Note_on_c,75,76,1,2,1,87.0,False
8479,4846, Note_on_c,63,76,1,2,1,73.0,False
8480,4847, Note_on_c,68,76,1,2,1,79.0,False
8481,4847, Note_on_c,73,76,1,2,1,85.0,False
8482,4848, Note_on_c,72,76,1,2,1,84.0,True
8483,4848, Note_on_c,75,76,1,2,1,87.0,False
8484,4849, Note_on_c,63,76,1,2,1,73.0,False
8485,4850, Note_on_c,68,76,1,2,1,79.0,False
8486,4850, Note_on_c,73,76,1,2,1,85.0,False
8487,4851, Note_on_c,72,76,1,2,1,84.0,True
8488,4851, Note_on_c,75,76,1,2,1,87.0,False
8489,4852, Note_on_c,68,76,1,2,1,79.0,False
8490,4852, Note_on_c,73,76,1,2,1,85.0,False
8491,4853, Note_on_c,70,76,1,2,1,81.0,False
8492,4853, Note_on_c,75,76,1,2,1,87.0,False
8493,4854, Note_on_c,63,76,1,2,1,73.0,False
8494,4855, Note_on_c,68,76,1,2,1,79.0,False
8495,4855, Note_on_c,73,76,1,2,1,85.0,False
8496,4856, Note_on_c,72,76,1,2,1,84.0,True
8497,4856, Note_on_c,75,76,1,2,1,87.0,False
8498,4857, Note_on_c,63,76,1,2,1,73.0,False
8499,4858, Note_on_c,68,76,1,2,1,79.0,False
8500,4858, Note_on_c,73,76,1,2,1,85.0,False
8501,4859, Note_on_c,72,76,1,2,1,84.0,True
8502,4859, Note_on_c,75,76,1,2,1,87.0,False
8503,4860, Note_on_c,68,76,1,2,1,79.0,False
8504,4860, Note_on_c,73,76,1,2,1,85.0,False
8505,4861, Note_on_c,70,76,1,2,1,81.0,False
8506,4861, Note_on_c,75,76,1,2,1,87.0,False
8507,4862, Note_on_c,63,76,1,2,1,73.0,False
8508,4863, Note_on_c,68,76,1,2,1,79.0,False
8509,4863, Note_on_c,73,76,1,2,1,85.0,False
8510,4864, Note_on_c,72,76,1,2,1,84.0,True
8511,4864, Note_on_c,75,76,1,2,1,87.0,False
8512,4865, Note_on_c,63,76,1,2,1,73.0,False
8513,4866, Note_on_c,68,76,1,2,1,79.0,False
8514,4866, Note_on_c,73,76,1,2,1,85.0,False
8515,4867, Note_on_c,72,76,1,2,1,84.0,True
8516,4867, Note_on_c,75,76,1,2,1,87.0,False
8517,4868, Note_on_c,68,76,1,2,1,79.0,False
8518,4868, Note_on_c,73,76,1,2,1,85.0,False
8519,4869, Note_on_c,70,76,1,2,1,81.0,False
8520,4869, Note_on_c,75,76,1,2,1,87.0,False
8521,4870, Note_on_c,63,76,1,2,1,73.0,False
8522,4871, Note_on_c,68,76,1,2,1,79.0,False
8523,4871, Note_on_c,73,76,1,2,1,85.0,False
8524,4872, Note_on_c,72,76,1,2,1,84.0,True
8525,4872, Note_on_c,75,76,1,2,1,87.0,False
8526,4873, Note_on_c,63,76,1,2,1,73.0,False
8527,4874, Note_on_c,68,76,1,2,1,79.0,False
8528,4874, Note_on_c,73,76,1,2,1,85.0,False
8529,4875, Note_on_c,72,76,1,2,1,84.0,True
8530,4875, Note_on_c,75,76,1,2,1,87.0,False
8531,4876, Note_on_c,68,76,1,2,1,79.0,False
8532,4876, Note_on_c,73,76,1,2,1,85.0,False
8533,4877, Note_on_c,70,76,1,2,1,81.0,False
8534,4877, Note_on_c,75,76,1,2,1,87.0,False
8535,4878, Note_on_c,63,76,1,2,1,73.0,False
8536,4879, Note_on_c,68,76,1,2,1,79.0,False
8537,4879, Note_on_c,73,76,1,2,1,85.0,False
8538,4880, Note_on_c,72,76,1,2,1,84.0,True
8539,4880, Note_on_c,75,76,1,2,1,87.0,False
8540,4881, Note_on_c,63,76,1,2,1,73.0,False
8541,4882, Note_on_c,68,76,1,2,1,79.0,False
8542,4882, Note_on_c,73,76,1,2,1,85.0,False
8543,4883, Note_on_c,72,76,1,2,1,84.0,True
8544,4883, Note_on_c,75,76,1,2,1,87.0,False
8545,4884, Note_on_c,68,76,1,2,1,79.0,False
8546,4884, Note_on_c,73,76,1,2,1,85.0,False
8547,4885, Note_on_c,70,76,1,2,1,81.0,False
8548,4885, Note_on_c,75,76,1,2,1,87.0,False
8549,4886, Note_on_c,63,76,1,2,1,73.0,False
8550,4887, Note_on_c,68,76,1,2,1,79.0,False
8551,4887, Note_on_c,73,76,1,2,1,85.0,False
8552,4888, Note_on_c,72,76,1,2,1,84.0,True
8553,4888, Note_on_c,75,76,1,2,1,87.0,False
8554,4889, Note_on_c,63,76,1,2,1,73.0,False
8555,4890, Note_on_c,68,76,1,2,1,79.0,False
8556,4890, Note_on_c,73,76,1,2,1,85.0,False
8557,4891, Note_on_c,72,76,1,2,1,84.0,True
8558,4891, Note_on_c,75,76,1,2,1,87.0,False
8559,4892, Note_on_c,68,76,1,2,1,79.0,False
8560,4892, Note_on_c,73,76,1,2,1,85.0,False
8561,4893, Note_on_c,70,76,1,2,1,81.0,False
8562,4893, Note_on_c,75,76,1,2,1,87.0,False
8563,4894, Note_on_c,63,76,1,2,1,73.0,False
8564,4895, Note_on_c,68,76,1,2,1,79.0,False
8565,4895, Note_on_c,73,76,1,2,1,85.0,False
8566,4896, Note_on_c,72,76,1,2,1,84.0,True
8567,4896, Note_on_c,75,76,1,2,1,87.0,False
8568,4897, Note_on_c,63,76,1,2,1,73.0,False
8569,4898, Note_on_c,68,76,1,2,1,79.0,False
8570,4898, Note_on_c,73,76,1,2,1,85.0,False
8571,4899, Note_on_c,72,76,1,2,1,84.0,True
8572,4899, Note_on_c,75,76,1,2,1,87.0,False
8573,4900, Note_on_c,68,76,1,2,1,79.0,False
8574,4900, Note_on_c,73,76,1,2,1,85.0,False
8575,4901, Note_on_c,70,76,1,2,1,81.0,False
8576,4901, Note_on_c,75,76,1,2,1,87.0,False
8577,4902, Note_on_c,63,76,1,2,1,73.0,False
8578,4903, Note_on_c,68,76,1,2,1,79.0,False
8579,4903, Note_on_c,73,76,1,2,1,85.0,False
8580,4904, Note_on_c,72,76,1,2,1,84.0,True
8581,4904, Note_on_c,75,76,1,2,1,87.0,False
8582,4905, Note_on_c,63,76,1,2,1,73.0,False
8583,4906, Note_on_c,68,76,1,2,1,79.0,False
8584,4906, Note_on_c,73,76,1,2,1,85.0,False
8585,4907, Note_on_c,72,76,1,2,1,84.0,True
8586,4907, Note_on_c,75,76,1,2,1,87.0,False
8587,4908, Note_on_c,68,76,1,2,1,79.0,False
8588,4908, Note_on_c,73,76,1,2,1,85.0,False
8589,4909, Note_on_c,70,76,1,2,1,81.0,False
8590,4909, Note_on_c,75,76,1,2,1,87.0,False
8591,4910, Note_on_c,63,76,1,2,1,73.0,False
8592,4911, Note_on_c,68,76,1,2,1,79.0,False
8593,4911, Note_on_c,73,76,1,2,1,85.0,False
8594,4912, Note_on_c,72,76,1,2,1,84.0,True
8595,4912, Note_on_c,75,76,1,2,1,87.0,False
8596,4913, Note_on_c,63,76,1,2,1,73.0,False
8597,4914, Note_on_c,68,76,1,2,1,79.0,False
8598,4914, Note_on_c,73,76,1,2,1,85.0,False
8599,4915, Note_on_c,72,76,1,2,1,84.0,True
8600,4915, Note_on_c,75,76,1,2,1,87.0,False
8601,4916, Note_on_c,68,76,1,2,1,79.0,False
8602,4916, Note_on_c,73,76,1,2,1,85.0,False
8603,4917, Note_on_c,70,76,1,2,1,81.0,False
8604,4917, Note_on_c,75,76,1,2,1,87.0,False
8605,4918, Note_on_c,63,76,1,2,1,73.0,False
8606,4919, Note_on_c,68,76,1,2,1,79.0,False
8607,4919, Note_on_c,73,76,1,2,1,85.0,False
8608,4920, Note_on_c,72,76,1,2,1,84.0,True
8609,4920, Note_on_c,75,76,1,2,1,87.0,False
8610,4921, Note_on_c,63,76,1,2,1,73.0,False
8611,4922, Note_on_c,68,76,1,2,1,79.0,False
8612,4922, Note_on_c,73,76,1,2,1,85.0,False
8613,4923, Note_on_c,72,76,1,2,1,84.0,True
8614,4923, Note_on_c,75,76,1,2,1,87.0,False
8615,4924, Note_on_c,68,76,1,2,1,79.0,False
8616,4924, Note_on_c,73,76,1,2,1,85.0,False
8617,4925, Note_on_c,70,76,1,2,1,81.0,False
8618,4925, Note_on_c,75,76,1,2,1,87.0,False
8619,4926, Note_on_c,63,76,1,2,1,73.0,False
8620,4927, Note_on_c,68,76,1,2,1,79.0,False
8621,4927, Note_on_c,73,76,1,2,1,85.0,False
8622,4928, Note_on_c,72,76,1,2,1,84.0,True
8623,4928, Note_on_c,75,76,1,2,1,87.0,False
8624,4929, Note_on_c,63,76,1,2,1,73.0,False
8625,4930, Note_on_c,68,76,1,2,1,79.0,False
8626,4930, Note_on_c,73,76,1,2,1,85.0,False
8627,4931, Note_on_c,72,76,1,2,1,84.0,True
8628,4931, Note_on_c,75,76,1,2,1,87.0,False
8629,4932, Note_on_c,68,76,1,2,1,79.0,False
8630,4932, Note_on_c,73,76,1,2,1,85.0,False
8631,4933, Note_on_c,70,76,1,2,1,81.0,False
8632,4933, Note_on_c,75,76,1,2,1,87.0,False
8633,4934, Note_on_c,63,76,1,2,1,73.0,False
8634,4935, Note_on_c,68,76,1,2,1,79.0,False
8635,4935, Note_on_c,73,76,1,2,1,85.0,False
8636,4936, Note_on_c,72,76,1,2,1,84.0,True
8637,4936, Note_on_c,75,76,1,2,1,87.0,False
8638,4937, Note_on_c,63,76,1,2,1,73.0,False
8639,4938, Note_on_c,68,76,1,2,1,79.0,False
8640,4938, Note_on_c,73,76,1,2,1,85.0,False
8641,4939, Note_on_c,72,76,1,2,1,84.0,True
8642,4939, Note_on_c,75,76,1,2,1,87.0,False
8643,4940, Note_on_c,68,76,1,2,1,79.0,False
8644,4940, Note_on_c,73,76,1,2,1,85.0,False
8645,4941, Note_on_c,70,76,1,2,1,81.0,False
8646,4941, Note_on_c,75,76,1,2,1,87.0,False
8647,4942, Note_on_c,63,76,1,2,1,73.0,False
8648,4943, Note_on_c,68,76,1,2,1,79.0,False
8649,4943, Note_on_c,73,76,1,2,1,85.0,False
8650,4944, Note_on_c,72,76,1,2,1,84.0,True
8651,4944, Note_on_c,75,76,1,2,1,87.0,False
8652,4945, Note_on_c,63,76,1,2,1,73.0,False
8653,4946, Note_on_c,68,76,1,2,1,79.0,False
8654,4946, Note_on_c,73,76,1,2,1,85.0,False
8655,4947, Note_on_c,72,76,1,2,1,84.0,True
8656,4947, Note_on_c,75,76,1,2,1,87.0,False
8657,4948, Note_on_c,68,76,1,2,1,79.0,False
8658,4948, Note_on_c,73,76,1,2,1,85.0,False
8659,4949, Note_on_c,70,76,1,2,1,81.0,False
8660,4949, Note_on_c,75,76,1,2,1,87.0,False
8661,4950, Note_on_c,63,76,1,2,1,73.0,False
8662,4951, Note_on_c,68,76,1,2,1,79.0,False
8663,4951, Note_on_c,73,76,1,2,1,85.0,False
8664,4952, Note_on_c,72,76,1,2,1,84.0,True
8665,4952, Note_on_c,75,76,1,2,1,87.0,False
8666,4953, Note_on_c,63,76,1,2,1,73.0,False
8667,4954, Note_on_c,68,76,1,2,1,79.0,False
8668,4954, Note_on_c,73,76,1,2,1,85.0,False
8669,4955, Note_on_c,72,76,1,2,1,84.0,True
8670,4955, Note_on_c,75,76,1,2,1,87.0,False
8671,4956, Note_on_c,68,76,1,2,1,79.0,False
8672,4956, Note_on_c,73,76,1,2,1,85.0,False
8673,4957, Note_on_c,70,76,1,2,1,81.0,False
8674,4957, Note_on_c,75,76,1,2,1,87.0,False
8675,4958, Note_on_c,63,76,1,2,1,73.0,False
8676,4959, Note_on_c,68,76,1,2,1,79.0,False
8677,4959, Note_on_c,73,76,1,2,1,85.0,False
8678,4960, Note_on_c,72,76,1,2,1,84.0,True
8679,4960, Note_on_c,75,76,1,2,1,87.0,False
8680,4961, Note_on_c,63,76,1,2,1,73.0,False
8681,4962, Note_on_c,68,76,1,2,1,79.0,False
8682,4962, Note_on_c,73,76,1,2,1,85.0,False
8683,4963, Note_on_c,72,76,1,2,1,84.0,True
8684,4963, Note_on_c,75,76,1,2,1,87.0,False
8685,4964, Note_on_c,68,76,1,2,1,79.0,False
8686,4964, Note_on_c,73,76,1,2,1,85.0,False
8687,4965, Note_on_c,70,76,1,2,1,81.0,False
8688,4965, Note_on_c,75,76,1,2,1,87.0,False
8689,4966, Note_on_c,63,76,1,2,1,73.0,False
8690,4967, Note_on_c,68,76,1,2,1,79.0,False
8691,4967, Note_on_c,73,76,1,2,1,85.0,False
8692,4968, Note_on_c,72,76,1,2,1,84.0,True
8693,4968, Note_on_c,75,76,1,2,1,87.0,False
8694,4969, Note_on_c,63,76,1,2,1,73.0,False
8695,4970, Note_on_c,68,76,1,2,1,79.0,False
8696,4970, Note_on_c,73,76,1,2,1,85.0,False
8697,4971, Note_on_c,72,76,1,2,1,84.0,True
8698,4971, Note_on_c,75,76,1,2,1,87.0,False
8699,4972, Note_on_c,68,76,1,2,1,79.0,False
8700,4972, Note_on_c,73,76,1,2,1,85.0,False
8701,4973, Note_on_c,70,76,1,2,1,81.0,False
8702,4973, Note_on_c,75,76,1,2,1,87.0,False
8703,4974, Note_on_c,63,76,1,2,1,73.0,False
8704,4975, Note_on_c,68,76,1,2,1,79.0,False
8705,4975, Note_on_c,73,76,1,2,1,85.0,False
8706,4976, Note_on_c,72,76,1,2,1,84.0,True
8707,4976, Note_on_c,75,76,1,2,1,87.0,False
8708,4977, Note_on_c,63,76,1,2,1,73.0,False
8709,4978, Note_on_c,68,76,1,2,1,79.0,False
8710,4978, Note_on_c,73,76,1,2,1,85.0,False
8711,4979, Note_on_c,72,76,1,2,1,84.0,True
8712,4979, Note_on_c,75,76,1,2,1,87.0,False
8713,4980, Note_on_c,68,76,1,2,1,79.0,False
8714,4980, Note_on_c,73,76,1,2,1,85.0,False
8715,4981, Note_on_c,70,76,1,2,1,81.0,False
8716,4981, Note_on_c,75,76,1,2,1,87.0,False
8717,4982, Note_on_c,63,76,1,2,1,73.0,False
8718,4983, Note_on_c,68,76,1,2,1,79.0,False
8719,4983, Note_on_c,73,76,1,2,1,85.0,False
8720,4984, Note_on_c,72,76,1,2,1,84.0,True
8721,4984, Note_on_c,75,76,1,2,1,87.0,False
8722,4985, Note_on_c,63,76,1,2,1,73.0,False
8723,4986, Note_on_c,68,76,1,2,1,79.0,False
8724,4986, Note_on_c,73,76,1,2,1,85.0,False
8725,4987, Note_on_c,72,76,1,2,1,84.0,True
8726,4987, Note_on_c,75,76,1,2,1,87.0,False
8727,4988, Note_on_c,68,76,1,2,1,79.0,False
8728,4988, Note_on_c,73,76,1,2,1,85.0,False
8729,4989, Note_on_c,70,76,1,2,1,81.0,False
8730,4989, Note_on_c,75,76,1,2,1,87.0,False
8731,4990, Note_on_c,63,76,1,2,1,73.0,False
8732,4991, Note_on_c,68,76,1,2,1,79.0,False
8733,4991, Note_on_c,73,76,1,2,1,85.0,False
8734,4992, Note_on_c,72,76,1,2,1,84.0,True
8735,4992, Note_on_c,75,76,1,2,1,87.0,False
8736,4993, Note_on_c,63,76,1,2,1,73.0,False
8737,4994, Note_on_c,68,76,1,2,1,79.0,False
8738,4994, Note_on_c,73,76,1,2,1,85.0,False
8739,4995, Note_on_c,72,76,1,2,1,84.0,True
8740,4995, Note_on_c,75,76,1,2,1,87.0,False
8741,4996, Note_on_c,68,76,1,2,1,79.0,False
8742,4996, Note_on_c,73,76,1,2,1,85.0,False
8743,4997, Note_on_c,70,76,1,2,1,81.0,False
8744,4997, Note_on_c,75,76,1,2,1,87.0,False
8745,4998, Note_on_c,63,76,1,2,1,73.0,False
8746,4999, Note_on_c,68,76,1,2,1,79.0,False
8747,4999, Note_on_c,73,76,1,2,1,85.0,False
8748,5000, Note_on_c,72,76,1,2,1,84.0,True
8749,5000, Note_on_c,75,76,1,2,1,87.0,False
8750,5001, Note_on_c,63,76,1,2,1,73.0,False
8751,5002, Note_on_c,68,76,1,2,1,79.0,False
8752,5002, Note_on_c,73,76,1,2,1,85.0,False
8753,5003, Note_on_c,72,76,1,2,1,84.0,True
8754,5003, Note_on_c,75,76,1,2,1,87.0,False
8755,5004, Note_on_c,68,76,1,2,1,79.0,False
8756,5004, Note_on_c,73,76,1,2,1,85.0,False
8757,5005, Note_on_c,70,76,1,2,1,81.0,False
8758,5005, Note_on_c,75,76,1,2,1,87.0,False
8759,5006, Note_on_c,63,76,1,2,1,73.0,False
8760,5007, Note_on_c,68,76,1,2,1,79.0,False
8761,5007, Note_on_c,73,76,1,2,1,85.0,False
8762,5008, Note_on_c,72,76,1,2,1,84.0,True
8763,5008, Note_on_c,75,76,1,2,1,87.0,False
8764,5009, Note_on_c,63,76,1,2,1,73.0,False
8765,5010, Note_on_c,68,76,1,2,1,79.0,False
8766,5010, Note_on_c,73,76,1,2,1,85.0,False
8767,5011, Note_on_c,72,76,1,2,1,84.0,True
8768,5011, Note_on_c,75,76,1,2,1,87.0,False
8769,5012, Note_on_c,68,76,1,2,1,79.0,False
8770,5012, Note_on_c,73,76,1,2,1,85.0,False
8771,5013, Note_on_c,70,76,1,2,1,81.0,False
8772,5013, Note_on_c,75,76,1,2,1,87.0,False
8773,5014, Note_on_c,63,76,1,2,1,73.0,False
8774,5015, Note_on_c,68,76,1,2,1,79.0,False
8775,5015, Note_on_c,73,76,1,2,1,85.0,False
8776,5016, Note_on_c,72,76,1,2,1,84.0,True
8777,5016, Note_on_c,75,76,1,2,1,87.0,False
8778,5017, Note_on_c,63,76,1,2,1,73.0,False
8779,5018, Note_on_c,68,76,1,2,1,79.0,False
8780,5018, Note_on_c,73,76,1,2,1,85.0,False
8781,5019, Note_on_c,72,76,1,2,1,84.0,True
8782,5019, Note_on_c,75,76,1,2,1,87.0,False
8783,5020, Note_on_c,68,76,1,2,1,79.0,False
8784,5020, Note_on_c,73,76,1,2,1,85.0,False
8785,5021, Note_on_c,70,76,1,2,1,81.0,False
8786,5021, Note_on_c,75,76,1,2,1,87.0,False
8787,5022, Note_on_c,63,76,1,2,1,73.0,False
8788,5023, Note_on_c,68,76,1,2,1,79.0,False
8789,5023, Note_on_c,73,76,1,2,1,85.0,False
8790,5024, Note_on_c,72,76,1,2,1,84.0,True
8791,5024, Note_on_c,75,76,1,2,1,87.0,False
8792,5025, Note_on_c,63,76,1,2,1,73.0,False
8793,5026, Note_on_c,68,76,1,2,1,79.0,False
8794,5026, Note_on_c,73,76,1,2,1,85.0,False
8795,5027, Note_on_c,72,76,1,2,1,84.0,True
8796,5027, Note_on_c,75,76,1,2,1,87.0,False
8797,5028, Note_on_c,68,76,1,2,1,79.0,False
8798,5028, Note_on_c,73,76,1,2,1,85.0,False
8799,5029, Note_on_c,70,76,1,2,1,81.0,False
8800,5029, Note_on_c,75,76,1,2,1,87.0,False
8801,5030, Note_on_c,63,76,1,2,1,73.0,False
8802,5031, Note_on_c,68,76,1,2,1,79.0,False
8803,5031, Note_on_c,73,76,1,2,1,85.0,False
8804,5032, Note_on_c,72,76,1,2,1,84.0,True
8805,5032, Note_on_c,75,76,1,2,1,87.0,False
8806,5033, Note_on_c,63,76,1,2,1,73.0,False
8807,5034, Note_on_c,68,76,1,2,1,79.0,False
8808,5034, Note_on_c,73,76,1,2,1,85.0,False
8809,5035, Note_on_c,72,76,1,2,1,84.0,True
8810,5035, Note_on_c,75,76,1,2,1,87.0,False
8811,5036, Note_on_c,68,76,1,2,1,79.0,False
8812,5036, Note_on_c,73,76,1,2,1,85.0,False
8813,5037, Note_on_c,70,76,1,2,1,81.0,False
8814,5037, Note_on_c,75,76,1,2,1,87.0,False
8815,5038, Note_on_c,63,76,1,2,1,73.0,False
8816,5039, Note_on_c,68,76,1,2,1,79.0,False
8817,5039, Note_on_c,73,76,1,2,1,85.0,False
8818,5040, Note_on_c,72,76,1,2,1,84.0,True
8819,5040, Note_on_c,75,76,1,2,1,87.0,False
8820,5041, Note_on_c,63,76,1,2,1,73.0,False
8821,5042, Note_on_c,68,76,1,2,1,79.0,False
8822,5042, Note_on_c,73,76,1,2,1,85.0,False
8823,5043, Note_on_c,72,76,1,2,1,84.0,True
8824,5043, Note_on_c,75,76,1,2,1,87.0,False
8825,5044, Note_on_c,68,76,1,2,1,79.0,False
8826,5044, Note_on_c,73,76,1,2,1,85.0,False
8827,5045, Note_on_c,70,76,1,2,1,81.0,False
8828,5045, Note_on_c,75,76,1,2,1,87.0,False
8829,5046, Note_on_c,63,76,1,2,1,73.0,False
8830,5047, Note_on_c,68,76,1,2,1,79.0,False
8831,5047, Note_on_c,73,76,1,2,1,85.0,False
8832,5048, Note_on_c,72,76,1,2,1,84.0,True
8833,5048, Note_on_c,75,76,1,2,1,87.0,False
8834,5049, Note_on_c,63,76,1,2,1,73.0,False
8835,5050, Note_on_c,68,76,1,2,1,79.0,False
8836,5050, Note_on_c,73,76,1,2,1,85.0,False
8837,5051, Note_on_c,72,76,1,2,1,84.0,True
8838,5051, Note_on_c,75,76,1,2,1,87.0,False
8839,5052, Note_on_c,68,76,1,2,1,79.0,False
8840,5052, Note_on_c,73,76,1,2,1,85.0,False
8841,5053, Note_on_c,70,76,1,2,1,81.0,False
8842,5053, Note_on_c,75,76,1,2,1,87.0,False
8843,5054, Note_on_c,63,76,1,2,1,73.0,False
8844,5055, Note_on_c,68,76,1,2,1,79.0,False
8845,5055, Note_on_c,73,76,1,2,1,85.0,False
8846,5056, Note_on_c,72,76,1,2,1,84.0,True
8847,5056, Note_on_c,75,76,1,2,1,87.0,False
8848,5057, Note_on_c,63,76,1,2,1,73.0,False
8849,5058, Note_on_c,68,76,1,2,1,79.0,False
8850,5058, Note_on_c,73,76,1,2,1,85.0,False
8851,5059, Note_on_c,72,76,1,2,1,84.0,True
8852,5059, Note_on_c,75,76,1,2,1,87.0,False
8853,5060, Note_on_c,68,76,1,2,1,79.0,False
8854,5060, Note_on_c,73,76,1,2,1,85.0,False
8855,5061, Note_on_c,70,76,1,2,1,81.0,False
8856,5061, Note_on_c,75,76,1,2,1,87.0,False
8857,5062, Note_on_c,63,76,1,2,1,73.0,False
8858,5063, Note_on_c,68,76,1,2,1,79.0,False
8859,5063, Note_on_c,73,76,1,2,1,85.0,False
8860,5064, Note_on_c,72,76,1,2,1,84.0,True
8861,5064, Note_on_c,75,76,1,2,1,87.0,False
8862,5065, Note_on_c,63,76,1,2,1,73.0,False
8863,5066, Note_on_c,68,76,1,2,1,79.0,False
8864,5066, Note_on_c,73,76,1,2,1,85.0,False
8865,5067, Note_on_c,72,76,1,2,1,84.0,True
8866,5067, Note_on_c,75,76,1,2,1,87.0,False
8867,5068, Note_on_c,68,76,1,2,1,79.0,False
8868,5068, Note_on_c,73,76,1,2,1,85.0,False
8869,5069, Note_on_c,70,76,1,2,1,81.0,False
8870,5069, Note_on_c,75,76,1,2,1,87.0,False
8871,5070, Note_on_c,63,76,1,2,1,73.0,False
8872,5071, Note_on_c,68,76,1,2,1,79.0,False
8873,5071, Note_on_c,73,76,1,2,1,85.0,False
8874,5072, Note_on_c,72,76,1,2,1,84.0,True
8875,5072, Note_on_c,75,76,1,2,1,87.0,False
8876,5073, Note_on_c,63,76,1,2,1,73.0,False
8877,5074, Note_on_c,68,76,1,2,1,79.0,False
8878,5074, Note_on_c,73,76,1,2,1,85.0,False
8879,5075, Note_on_c,72,76,1,2,1,84.0,True
8880,5075, Note_on_c,75,76,1,2,1,87.0,False
8881,5076, Note_on_c,68,76,1,2,1,79.0,False
8882,5076, Note_on_c,73,76,1,2,1,85.0,False
8883,5077, Note_on_c,70,76,1,2,1,81.0,False
8884,5077, Note_on_c,75,76,1,2,1,87.0,False
8885,5078, Note_on_c,63,76,1,2,1,73.0,False
8886,5079, Note_on_c,68,76,1,2,1,79.0,False
8887,5079, Note_on_c,73,76,1,2,1,85.0,False
8888,5080, Note_on_c,72,76,1,2,1,84.0,True
8889,5080, Note_on_c,75,76,1,2,1,87.0,False
8890,5081, Note_on_c,63,76,1,2,1,73.0,False
8891,5082, Note_on_c,68,76,1,2,1,79.0,False
8892,5082, Note_on_c,73,76,1,2,1,85.0,False
8893,5083, Note_on_c,72,76,1,2,1,84.0,True
8894,5083, Note_on_c,75,76,1,2,1,87.0,False
8895,5084, Note_on_c,68,76,1,2,1,79.0,False
8896,5084, Note_on_c,73,76,1,2,1,85.0,False
8897,5085, Note_on_c,70,76,1,2,1,81.0,False
8898,5085, Note_on_c,75,76,1,2,1,87.0,False
8899,5086, Note_on_c,63,76,1,2,1,73.0,False
8900,5087, Note_on_c,68,76,1,2,1,79.0,False
8901,5087, Note_on_c,73,76,1,2,1,85.0,False
8902,5088, Note_on_c,72,76,1,2,1,84.0,True
8903,5088, Note_on_c,75,76,1,2,1,87.0,False
8904,5089, Note_on_c,63,76,1,2,1,73.0,False
8905,5090, Note_on_c,68,76,1,2,1,79.0,False
8906,5090, Note_on_c,73,76,1,2,1,85.0,False
8907,5091, Note_on_c,72,76,1,2,1,84.0,True
8908,5091, Note_on_c,75,76,1,2,1,87.0,False
8909,5092, Note_on_c,68,76,1,2,1,79.0,False
8910,5092, Note_on_c,73,76,1,2,1,85.0,False
8911,5093, Note_on_c,70,76,1,2,1,81.0,False
8912,5093, Note_on_c,75,76,1,2,1,87.0,False
8913,5094, Note_on_c,63,76,1,2,1,73.0,False
8914,5095, Note_on_c,68,76,1,2,1,79.0,False
8915,5095, Note_on_c,73,76,1,2,1,85.0,False
8916,5096, Note_on_c,72,76,1,2,1,84.0,True
8917,5096, Note_on_c,75,76,1,2,1,87.0,False
8918,5097, Note_on_c,63,76,1,2,1,73.0,False
8919,5098, Note_on_c,68,76,1,2,1,79.0,False
8920,5098, Note_on_c,73,76,1,2,1,85.0,False
8921,5099, Note_on_c,72,76,1,2,1,84.0,True
8922,5099, Note_on_c,75,76,1,2,1,87.0,False
8923,5100, Note_on_c,68,76,1,2,1,79.0,False
8924,5100, Note_on_c,73,76,1,2,1,85.0,False
8925,5101, Note_on_c,70,76,1,2,1,81.0,False
8926,5101, Note_on_c,75,76,1,2,1,87.0,False
8927,5102, Note_on_c,63,76,1,2,1,73.0,False
8928,5103, Note_on_c,68,76,1,2,1,79.0,False
8929,5103, Note_on_c,73,76,1,2,1,85.0,False
8930,5104, Note_on_c,72,76,1,2,1,84.0,True
8931,5104, Note_on_c,75,76,1,2,1,87.0,False
8932,5105, Note_on_c,63,76,1,2,1,73.0,False
8933,5106, Note_on_c,68,76,1,2,1,79.0,False
8934,5106, Note_on_c,73,76,1,2,1,85.0,False
8935,5107, Note_on_c,72,76,1,2,1,84.0,True
8936,5107, Note_on_c,75,76,1,2,1,87.0,False
8937,5108, Note_on_c,68,76,1,2,1,79.0,False
8938,5108, Note_on_c,73,76,1,2,1,85.0,False
8939,5109, Note_on_c,70,76,1,2,1,81.0,False
8940,5109, Note_on_c,75,76,1,2,1,87.0,False
8941,5110, Note_on_c,63,76,1,2,1,73.0,False
8942,5111, Note_on_c,68,76,1,2,1,79.0,False
8943,5111, Note_on_c,73,76,1,2,1,85.0,False
8944,5112, Note_on_c,72,76,1,2,1,84.0,True
8945,5112, Note_on_c,75,76,1,2,1,87.0,False
8946,5113, Note_on_c,63,76,1,2,1,73.0,False
8947,5114, Note_on_c,68,76,1,2,1,79.0,False
8948,5114, Note_on_c,73,76,1,2,1,85.0,False
8949,5115, Note_on_c,72,76,1,2,1,84.0,True
8950,5115, Note_on_c,75,76,1,2,1,87.0,False
8951,5116, Note_on_c,68,76,1,2,1,79.0,False
8952,5116, Note_on_c,73,76,1,2,1,85.0,False
8953,5117, Note_on_c,70,76,1,2,1,81.0,False
8954,5117, Note_on_c,75,76,1,2,1,87.0,False
8955,5118, Note_on_c,63,76,1,2,1,73.0,False
8956,5119, Note_on_c,68,76,1,2,1,79.0,False
8957,5119, Note_on_c,73,76,1,2,1,85.0,False
8958,5120, Note_on_c,72,76,1,2,1,84.0,True
8959,5120, Note_on_c,75,76,1,2,1,87.0,False
8960,5121, Note_on_c,63,76,1,2,1,73.0,False
8961,5122, Note_on_c,68,76,1,2,1,79.0,False
8962,5122, Note_on_c,73,76,1,2,1,85.0,False
8963,5123, Note_on_c,72,76,1,2,1,84.0,True
8964,5123, Note_on_c,75,76,1,2,1,87.0,False
8965,5124, Note_on_c,68,76,1,2,1,79.0,False
8966,5124, Note_on_c,73,76,1,2,1,85.0,False
8967,5125, Note_on_c,70,76,1,2,1,81.0,False
8968,5125, Note_on_c,75,76,1,2,1,87.0,False
8969,5126, Note_on_c,63,76,1,2,1,73.0,False
8970,5127, Note_on_c,68,76,1,2,1,79.0,False
8971,5127, Note_on_c,73,76,1,2,1,85.0,False
8972,5128, Note_on_c,72,76,1,2,1,84.0,True
8973,5128, Note_on_c,75,76,1,2,1,87.0,False
8974,5129, Note_on_c,63,76,1,2,1,73.0,False
8975,5130, Note_on_c,68,76,1,2,1,79.0,False
8976,5130, Note_on_c,73,76,1,2,1,85.0,False
8977,5131, Note_on_c,72,76,1,2,1,84.0,True
8978,5131, Note_on_c,75,76,1,2,1,87.0,False
8979,5132, Note_on_c,68,76,1,2,1,79.0,False
8980,5132, Note_on_c,73,76,1,2,1,85.0,False
8981,5133, Note_on_c,70,76,1,2,1,81.0,False
8982,5133, Note_on_c,75,76,1,2,1,87.0,False
8983,5134, Note_on_c,63,76,1,2,1,73.0,False
8984,5135, Note_on_c,68,76,1,2,1,79.0,False
8985,5135, Note_on_c,73,76,1,2,1,85.0,False
8986,5136, Note_on_c,72,76,1,2,1,84.0,True
8987,5136, Note_on_c,75,76,1,2,1,87.0,False
8988,5137, Note_on_c,63,76,1,2,1,73.0,False
8989,5138, Note_on_c,68,76,1,2,1,79.0,False
8990,5138, Note_on_c,73,76,1,2,1,85.0,False
8991,5139, Note_on_c,72,76,1,2,1,84.0,True
8992,5139, Note_on_c,75,76,1,2,1,87.0,False
8993,5140, Note_on_c,68,76,1,2,1,79.0,False
8994,5140, Note_on_c,73,76,1,2,1,85.0,False
8995,5141, Note_on_c,70,76,1,2,1,81.0,False
8996,5141, Note_on_c,75,76,1,2,1,87.0,False
8997,5142, Note_on_c,63,76,1,2,1,73.0,False
8998,5143, Note_on_c,68,76,1,2,1,79.0,False
8999,5143, Note_on_c,73,76,1,2,1,85.0,False
9000,5144, Note_on_c,72,76,1,2,1,84.0,True
9001,5144, Note_on_c,75,76,1,2,1,87.0,False
9002,5145, Note_on_c,63,76,1,2,1,73.0,False
9003,5146, Note_on_c,68,76,1,2,1,79.0,False
9004,5146, Note_on_c,73,76,1,2,1,85.0,False
9005,5147, Note_on_c,72,76,1,2,1,84.0,True
9006,5147, Note_on_c,75,76,1,2,1,87.0,False
9007,5148, Note_on_c,68,76,1,2,1,79.0,False
9008,5148, Note_on_c,73,76,1,2,1,85.0,False
9009,5149, Note_on_c,70,76,1,2,1,81.0,False
9010,5149, Note_on_c,75,76,1,2,1,87.0,False
9011,5150, Note_on_c,63,76,1,2,1,73.0,False
9012,5151, Note_on_c,68,76,1,2,1,79.0,False
9013,5151, Note_on_c,73,76,1,2,1,85.0,False
9014,5152, Note_on_c,72,76,1,2,1,84.0,True
9015,5152, Note_on_c,75,76,1,2,1,87.0,False
9016,5153, Note_on_c,63,76,1,2,1,73.0,False
9017,5154, Note_on_c,68,76,1,2,1,79.0,False
9018,5154, Note_on_c,73,76,1,2,1,85.0,False
9019,5155, Note_on_c,72,76,1,2,1,84.0,True
9020,5155, Note_on_c,75,76,1,2,1,87.0,False
9021,5156, Note_on_c,68,76,1,2,1,79.0,False
9022,5156, Note_on_c,73,76,1,2,1,85.0,False
9023,5157, Note_on_c,70,76,1,2,1,81.0,False
9024,5157, Note_on_c,75,76,1,2,1,87.0,False
9025,5158, Note_on_c,63,76,1,2,1,73.0,False
9026,5159, Note_on_c,68,76,1,2,1,79.0,False
9027,5159, Note_on_c,73,76,1,2,1,85.0,False
9028,5160, Note_on_c,72,76,1,2,1,84.0,True
9029,5160, Note_on_c,75,76,1,2,1,87.0,False
9030,5161, Note_on_c,63,76,1,2,1,73.0,False
9031,5162, Note_on_c,68,76,1,2,1,79.0,False
9032,5162, Note_on_c,73,76,1,2,1,85.0,False
9033,5163, Note_on_c,72,76,1,2,1,84.0,True
9034,5163, Note_on_c,75,76,1,2,1,87.0,False
9035,5164, Note_on_c,68,76,1,2,1,79.0,False
9036,5164, Note_on_c,73,76,1,2,1,85.0,False
9037,5165, Note_on_c,70,76,1,2,1,81.0,False
9038,5165, Note_on_c,75,76,1,2,1,87.0,False
9039,5166, Note_on_c,63,76,1,2,1,73.0,False
9040,5167, Note_on_c,68,76,1,2,1,79.0,False
9041,5167, Note_on_c,73,76,1,2,1,85.0,False
9042,5168, Note_on_c,72,76,1,2,1,84.0,True
9043,5168, Note_on_c,75,76,1,2,1,87.0,False
9044,5169, Note_on_c,63,76,1,2,1,73.0,False
9045,5170, Note_on_c,68,76,1,2,1,79.0,False
9046,5170, Note_on_c,73,76,1,2,1,85.0,False
9047,5171, Note_on_c,72,76,1,2,1,84.0,True
9048,5171, Note_on_c,75,76,1,2,1,87.0,False
9049,5172, Note_on_c,68,76,1,2,1,79.0,False
9050,5172, Note_on_c,73,76,1,2,1,85.0,False
9051,5173, Note_on_c,70,76,1,2,1,81.0,False
9052,5173, Note_on_c,75,76,1,2,1,87.0,False
9053,5174, Note_on_c,63,76,1,2,1,73.0,False
9054,5175, Note_on_c,68,76,1,2,1,79.0,False
9055,5175, Note_on_c,73,76,1,2,1,85.0,False
9056,5176, Note_on_c,72,76,1,2,1,84.0,True
9057,5176, Note_on_c,75,76,1,2,1,87.0,False
9058,5177, Note_on_c,63,76,1,2,1,73.0,False
9059,5178, Note_on_c,68,76,1,2,1,79.0,False
9060,5178, Note_on_c,73,76,1,2,1,85.0,False
9061,5179, Note_on_c,72,76,1,2,1,84.0,True
9062,5179, Note_on_c,75,76,1,2,1,87.0,False
9063,5180, Note_on_c,68,76,1,2,1,79.0,False
9064,5180, Note_on_c,73,76,1,2,1,85.0,False
9065,5181, Note_on_c,70,76,1,2,1,81.0,False
9066,5181, Note_on_c,75,76,1,2,1,87.0,False
9067,5182, Note_on_c,63,76,1,2,1,73.0,False
9068,5183, Note_on_c,68,76,1,2,1,79.0,False
9069,5183, Note_on_c,73,76,1,2,1,85.0,False
9070,5184, Note_on_c,72,76,1,2,1,84.0,True
9071,5184, Note_on_c,75,76,1,2,1,87.0,False
9072,5185, Note_on_c,63,76,1,2,1,73.0,False
9073,5186, Note_on_c,68,76,1,2,1,79.0,False
9074,5186, Note_on_c,73,76,1,2,1,85.0,False
9075,5187, Note_on_c,72,76,1,2,1,84.0,True
9076,5187, Note_on_c,75,76,1,2,1,87.0,False
9077,5188, Note_on_c,68,76,1,2,1,79.0,False
9078,5188, Note_on_c,73,76,1,2,1,85.0,False
9079,5189, Note_on_c,70,76,1,2,1,81.0,False
9080,5189, Note_on_c,75,76,1,2,1,87.0,False
9081,5190, Note_on_c,63,76,1,2,1,73.0,False
9082,5191, Note_on_c,68,76,1,2,1,79.0,False
9083,5191, Note_on_c,73,76,1,2,1,85.0,False
9084,5192, Note_on_c,72,76,1,2,1,84.0,True
9085,5192, Note_on_c,75,76,1,2,1,87.0,False
9086,5193, Note_on_c,63,76,1,2,1,73.0,False
9087,5194, Note_on_c,68,76,1,2,1,79.0,False
9088,5194, Note_on_c,73,76,1,2,1,85.0,False
9089,5195, Note_on_c,72,76,1,2,1,84.0,True
9090,5195, Note_on_c,75,76,1,2,1,87.0,False
9091,5196, Note_on_c,68,76,1,2,1,79.0,False
9092,5196, Note_on_c,73,76,1,2,1,85.0,False
9093,5197, Note_on_c,70,76,1,2,1,81.0,False
9094,5197, Note_on_c,75,76,1,2,1,87.0,False
9095,5198, Note_on_c,63,76,1,2,1,73.0,False
9096,5199, Note_on_c,68,76,1,2,1,79.0,False
9097,5199, Note_on_c,73,76,1,2,1,85.0,False
9098,5200, Note_on_c,72,76,1,2,1,84.0,True
9099,5200, Note_on_c,75,76,1,2,1,87.0,False
9100,5201, Note_on_c,63,76,1,2,1,73.0,False
9101,5202, Note_on_c,68,76,1,2,1,79.0,False
9102,5202, Note_on_c,73,76,1,2,1,85.0,False
9103,5203, Note_on_c,72,76,1,2,1,84.0,True
9104,5203, Note_on_c,75,76,1,2,1,87.0,False
9105,5204, Note_on_c,68,76,1,2,1,79.0,False
9106,5204, Note_on_c,73,76,1,2,1,85.0,False
9107,5205, Note_on_c,70,76,1,2,1,81.0,False
9108,5205, Note_on_c,75,76,1,2,1,87.0,False
9109,5206, Note_on_c,63,76,1,2,1,73.0,False
9110,5207, Note_on_c,68,76,1,2,1,79.0,False
9111,5207, Note_on_c,73,76,1,2,1,85.0,False
9112,5208, Note_on_c,72,76,1,2,1,84.0,True
9113,5208, Note_on_c,75,76,1,2,1,87.0,False
9114,5209, Note_on_c,63,76,1,2,1,73.0,False
9115,5210, Note_on_c,68,76,1,2,1,79.0,False
9116,5210, Note_on_c,73,76,1,2,1,85.0,False
9117,5211, Note_on_c,72,76,1,2,1,84.0,True
9118,5211, Note_on_c,75,76,1,2,1,87.0,False
9119,5212, Note_on_c,68,76,1,2,1,79.0,False
9120,5212, Note_on_c,73,76,1,2,1,85.0,False
9121,5213, Note_on_c,70,76,1,2,1,81.0,False
9122,5213, Note_on_c,75,76,1,2,1,87.0,False
9123,5214, Note_on_c,63,76,1,2,1,73.0,False
9124,5215, Note_on_c,68,76,1,2,1,79.0,False
9125,5215, Note_on_c,73,76,1,2,1,85.0,False
9126,5216, Note_on_c,72,76,1,2,1,84.0,True
9127,5216, Note_on_c,75,76,1,2,1,87.0,False
9128,5217, Note_on_c,63,76,1,2,1,73.0,False
9129,5218, Note_on_c,68,76,1,2,1,79.0,False
9130,5218, Note_on_c,73,76,1,2,1,85.0,False
9131,5219, Note_on_c,72,76,1,2,1,84.0,True
9132,5219, Note_on_c,75,76,1,2,1,87.0,False
9133,5220, Note_on_c,68,76,1,2,1,79.0,False
9134,5220, Note_on_c,73,76,1,2,1,85.0,False
9135,5221, Note_on_c,70,76,1,2,1,81.0,False
9136,5221, Note_on_c,75,76,1,2,1,87.0,False
9137,5222, Note_on_c,63,76,1,2,1,73.0,False
9138,5223, Note_on_c,68,76,1,2,1,79.0,False
9139,5223, Note_on_c,73,76,1,2,1,85.0,False
9140,5224, Note_on_c,72,76,1,2,1,84.0,True
9141,5224, Note_on_c,75,76,1,2,1,87.0,False
9142,5225, Note_on_c,63,76,1,2,1,73.0,False
9143,5226, Note_on_c,68,76,1,2,1,79.0,False
9144,5226, Note_on_c,73,76,1,2,1,85.0,False
9145,5227, Note_on_c,72,76,1,2,1,84.0,True
9146,5227, Note_on_c,75,76,1,2,1,87.0,False
9147,5228, Note_on_c,68,76,1,2,1,79.0,False
9148,5228, Note_on_c,73,76,1,2,1,85.0,False
9149,5229, Note_on_c,70,76,1,2,1,81.0,False
9150,5229, Note_on_c,75,76,1,2,1,87.0,False
9151,5230, Note_on_c,63,76,1,2,1,73.0,False
9152,5231, Note_on_c,68,76,1,2,1,79.0,False
9153,5231, Note_on_c,73,76,1,2,1,85.0,False
9154,5232, Note_on_c,72,76,1,2,1,84.0,True
9155,5232, Note_on_c,75,76,1,2,1,87.0,False
9156,5233, Note_on_c,63,76,1,2,1,73.0,False
9157,5234, Note_on_c,68,76,1,2,1,79.0,False
9158,5234, Note_on_c,73,76,1,2,1,85.0,False
9159,5235, Note_on_c,72,76,1,2,1,84.0,True
9160,5235, Note_on_c,75,76,1,2,1,87.0,False
9161,5236, Note_on_c,68,76,1,2,1,79.0,False
9162,5236, Note_on_c,73,76,1,2,1,85.0,False
9163,5237, Note_on_c,70,76,1,2,1,81.0,False
9164,5237, Note_on_c,75,76,1,2,1,87.0,False
9165,5238, Note_on_c,63,76,1,2,1,73.0,False
9166,5239, Note_on_c,68,76,1,2,1,79.0,False
9167,5239, Note_on_c,73,76,1,2,1,85.0,False
9168,5240, Note_on_c,72,76,1,2,1,84.0,True
9169,5240, Note_on_c,75,76,1,2,1,87.0,False
9170,5241, Note_on_c,63,76,1,2,1,73.0,False
9171,5242, Note_on_c,68,76,1,2,1,79.0,False
9172,5242, Note_on_c,73,76,1,2,1,85.0,False
9173,5243, Note_on_c,72,76,1,2,1,84.0,True
9174,5243, Note_on_c,75,76,1,2,1,87.0,False
9175,5244, Note_on_c,68,76,1,2,1,79.0,False
9176,5244, Note_on_c,73,76,1,2,1,85.0,False
9177,5245, Note_on_c,70,76,1,2,1,81.0,False
9178,5245, Note_on_c,75,76,1,2,1,87.0,False
9179,5246, Note_on_c,63,76,1,2,1,73.0,False
9180,5247, Note_on_c,68,76,1,2,1,79.0,False
9181,5247, Note_on_c,73,76,1,2,1,85.0,False
9182,5248, Note_on_c,72,76,1,2,1,84.0,True
9183,5248, Note_on_c,75,76,1,2,1,87.0,False
9184,5249, Note_on_c,63,76,1,2,1,73.0,False
9185,5250, Note_on_c,68,76,1,2,1,79.0,False
9186,5250, Note_on_c,73,76,1,2,1,85.0,False
9187,5251, Note_on_c,72,76,1,2,1,84.0,True
9188,5251, Note_on_c,75,76,1,2,1,87.0,False
9189,5252, Note_on_c,68,76,1,2,1,79.0,False
9190,5252, Note_on_c,73,76,1,2,1,85.0,False
9191,5253, Note_on_c,70,76,1,2,1,81.0,False
9192,5253, Note_on_c,75,76,1,2,1,87.0,False
9193,5254, Note_on_c,63,76,1,2,1,73.0,False
9194,5255, Note_on_c,68,76,1,2,1,79.0,False
9195,5255, Note_on_c,73,76,1,2,1,85.0,False
9196,5256, Note_on_c,72,76,1,2,1,84.0,True
9197,5256, Note_on_c,75,76,1,2,1,87.0,False
9198,5257, Note_on_c,63,76,1,2,1,73.0,False
9199,5258, Note_on_c,68,76,1,2,1,79.0,False
9200,5258, Note_on_c,73,76,1,2,1,85.0,False
9201,5259, Note_on_c,72,76,1,2,1,84.0,True
9202,5259, Note_on_c,75,76,1,2,1,87.0,False
9203,5260, Note_on_c,68,76,1,2,1,79.0,False
9204,5260, Note_on_c,73,76,1,2,1,85.0,False
9205,5261, Note_on_c,70,76,1,2,1,81.0,False
9206,5261, Note_on_c,75,76,1,2,1,87.0,False
9207,5262, Note_on_c,63,76,1,2,1,73.0,False
9208,5263, Note_on_c,68,76,1,2,1,79.0,False
9209,5263, Note_on_c,73,76,1,2,1,85.0,False
9210,5264, Note_on_c,72,76,1,2,1,84.0,True
9211,5264, Note_on_c,75,76,1,2,1,87.0,False
9212,5265, Note_on_c,63,76,1,2,1,73.0,False
9213,5266, Note_on_c,68,76,1,2,1,79.0,False
9214,5266, Note_on_c,73,76,1,2,1,85.0,False
9215,5267, Note_on_c,72,76,1,2,1,84.0,True
9216,5267, Note_on_c,75,76,1,2,1,87.0,False
9217,5268, Note_on_c,68,76,1,2,1,79.0,False
9218,5268, Note_on_c,73,76,1,2,1,85.0,False
9219,5269, Note_on_c,70,76,1,2,1,81.0,False
9220,5269, Note_on_c,75,76,1,2,1,87.0,False
9221,5270, Note_on_c,63,76,1,2,1,73.0,False
9222,5271, Note_on_c,68,76,1,2,1,79.0,False
9223,5271, Note_on_c,73,76,1,2,1,85.0,False
9224,5272, Note_on_c,72,76,1,2,1,84.0,True
9225,5272, Note_on_c,75,76,1,2,1,87.0,False
9226,5273, Note_on_c,63,76,1,2,1,73.0,False
9227,5274, Note_on_c,68,76,1,2,1,79.0,False
9228,5274, Note_on_c,73,76,1,2,1,85.0,False
9229,5275, Note_on_c,72,76,1,2,1,84.0,True
9230,5275, Note_on_c,75,76,1,2,1,87.0,False
9231,5276, Note_on_c,68,76,1,2,1,79.0,False
9232,5276, Note_on_c,73,76,1,2,1,85.0,False
9233,5277, Note_on_c,70,76,1,2,1,81.0,False
9234,5277, Note_on_c,75,76,1,2,1,87.0,False
9235,5278, Note_on_c,63,76,1,2,1,73.0,False
9236,5279, Note_on_c,68,76,1,2,1,79.0,False
9237,5279, Note_on_c,73,76,1,2,1,85.0,False
9238,5280, Note_on_c,72,76,1,2,1,84.0,True
9239,5280, Note_on_c,75,76,1,2,1,87.0,False
9240,5281, Note_on_c,63,76,1,2,1,73.0,False
9241,5282, Note_on_c,68,76,1,2,1,79.0,False
9242,5282, Note_on_c,73,76,1,2,1,85.0,False
9243,5283, Note_on_c,72,76,1,2,1,84.0,True
9244,5283, Note_on_c,75,76,1,2,1,87.0,False
9245,5284, Note_on_c,68,76,1,2,1,79.0,False
9246,5284, Note_on_c,73,76,1,2,1,85.0,False
9247,5285, Note_on_c,70,76,1,2,1,81.0,False
9248,5285, Note_on_c,75,76,1,2,1,87.0,False
9249,5286, Note_on_c,63,76,1,2,1,73.0,False
9250,5287, Note_on_c,68,76,1,2,1,79.0,False
9251,5287, Note_on_c,73,76,1,2,1,85.0,False
9252,5288, Note_on_c,72,76,1,2,1,84.0,True
9253,5288, Note_on_c,75,76,1,2,1,87.0,False
9254,5289, Note_on_c,63,76,1,2,1,73.0,False
9255,5290, Note_on_c,68,76,1,2,1,79.0,False
9256,5290, Note_on_c,73,76,1,2,1,85.0,False
9257,5291, Note_on_c,72,76,1,2,1,84.0,True
9258,5291, Note_on_c,75,76,1,2,1,87.0,False
9259,5292, Note_on_c,68,76,1,2,1,79.0,False
9260,5292, Note_on_c,73,76,1,2,1,85.0,False
9261,5293, Note_on_c,70,76,1,2,1,81.0,False
9262,5293, Note_on_c,75,76,1,2,1,87.0,False
9263,5294, Note_on_c,63,76,1,2,1,73.0,False
9264,5295, Note_on_c,68,76,1,2,1,79.0,False
9265,5295, Note_on_c,73,76,1,2,1,85.0,False
9266,5296, Note_on_c,72,76,1,2,1,84.0,True
9267,5296, Note_on_c,75,76,1,2,1,87.0,False
9268,5297, Note_on_c,63,76,1,2,1,73.0,False
9269,5298, Note_on_c,68,76,1,2,1,79.0,False
9270,5298, Note_on_c,73,76,1,2,1,85.0,False
9271,5299, Note_on_c,72,76,1,2,1,84.0,True
9272,5299, Note_on_c,75,76,1,2,1,87.0,False
9273,5300, Note_on_c,68,76,1,2,1,79.0,False
9274,5300, Note_on_c,73,76,1,2,1,85.0,False
9275,5301, Note_on_c,70,76,1,2,1,81.0,False
9276,5301, Note_on_c,75,76,1,2,1,87.0,False
9277,5302, Note_on_c,63,76,1,2,1,73.0,False
9278,5303, Note_on_c,68,76,1,2,1,79.0,False
9279,5303, Note_on_c,73,76,1,2,1,85.0,False
9280,5304, Note_on_c,72,76,1,2,1,84.0,True
9281,5304, Note_on_c,75,76,1,2,1,87.0,False
9282,5305, Note_on_c,63,76,1,2,1,73.0,False
9283,5306, Note_on_c,68,76,1,2,1,79.0,False
9284,5306, Note_on_c,73,76,1,2,1,85.0,False
9285,5307, Note_on_c,72,76,1,2,1,84.0,True
9286,5307, Note_on_c,75,76,1,2,1,87.0,False
9287,5308, Note_on_c,68,76,1,2,1,79.0,False
9288,5308, Note_on_c,73,76,1,2,1,85.0,False
9289,5309, Note_on_c,70,76,1,2,1,81.0,False
9290,5309, Note_on_c,75,76,1,2,1,87.0,False
9291,5310, Note_on_c,63,76,1,2,1,73.0,False
9292,5311, Note_on_c,68,76,1,2,1,79.0,False
9293,5311, Note_on_c,73,76,1,2,1,85.0,False
9294,5312, Note_on_c,72,76,1,2,1,84.0,True
9295,5312, Note_on_c,75,76,1,2,1,87.0,False
9296,5313, Note_on_c,63,76,1,2,1,73.0,False
9297,5314, Note_on_c,68,76,1,2,1,79.0,False
9298,5314, Note_on_c,73,76,1,2,1,85.0,False
9299,5315, Note_on_c,72,76,1,2,1,84.0,True
9300,5315, Note_on_c,75,76,1,2,1,87.0,False
9301,5316, Note_on_c,68,76,1,2,1,79.0,False
9302,5316, Note_on_c,73,76,1,2,1,85.0,False
9303,5317, Note_on_c,70,76,1,2,1,81.0,False
9304,5317, Note_on_c,75,76,1,2,1,87.0,False
9305,5318, Note_on_c,63,76,1,2,1,73.0,False
9306,5319, Note_on_c,68,76,1,2,1,79.0,False
9307,5319, Note_on_c,73,76,1,2,1,85.0,False
9308,5320, Note_on_c,72,76,1,2,1,84.0,True
9309,5320, Note_on_c,75,76,1,2,1,87.0,False
9310,5321, Note_on_c,63,76,1,2,1,73.0,False
9311,5322, Note_on_c,68,76,1,2,1,79.0,False
9312,5322, Note_on_c,73,76,1,2,1,85.0,False
9313,5323, Note_on_c,72,76,1,2,1,84.0,True
9314,5323, Note_on_c,75,76,1,2,1,87.0,False
9315,5324, Note_on_c,68,76,1,2,1,79.0,False
9316,5324, Note_on_c,73,76,1,2,1,85.0,False
9317,5325, Note_on_c,70,76,1,2,1,81.0,False
9318,5325, Note_on_c,75,76,1,2,1,87.0,False
9319,5326, Note_on_c,63,76,1,2,1,73.0,False
9320,5327, Note_on_c,68,76,1,2,1,79.0,False
9321,5327, Note_on_c,73,76,1,2,1,85.0,False
9322,5328, Note_on_c,72,76,1,2,1,84.0,True
9323,5328, Note_on_c,75,76,1,2,1,87.0,False
9324,5329, Note_on_c,63,76,1,2,1,73.0,False
9325,5330, Note_on_c,68,76,1,2,1,79.0,False
9326,5330, Note_on_c,73,76,1,2,1,85.0,False
9327,5331, Note_on_c,72,76,1,2,1,84.0,True
9328,5331, Note_on_c,75,76,1,2,1,87.0,False
9329,5332, Note_on_c,68,76,1,2,1,79.0,False
9330,5332, Note_on_c,73,76,1,2,1,85.0,False
9331,5333, Note_on_c,70,76,1,2,1,81.0,False
9332,5333, Note_on_c,75,76,1,2,1,87.0,False
9333,5334, Note_on_c,63,76,1,2,1,73.0,False
9334,5335, Note_on_c,68,76,1,2,1,79.0,False
9335,5335, Note_on_c,73,76,1,2,1,85.0,False
9336,5336, Note_on_c,72,76,1,2,1,84.0,True
9337,5336, Note_on_c,75,76,1,2,1,87.0,False
9338,5337, Note_on_c,63,76,1,2,1,73.0,False
9339,5338, Note_on_c,68,76,1,2,1,79.0,False
9340,5338, Note_on_c,73,76,1,2,1,85.0,False
9341,5339, Note_on_c,72,76,1,2,1,84.0,True
9342,5339, Note_on_c,75,76,1,2,1,87.0,False
9343,5340, Note_on_c,68,76,1,2,1,79.0,False
9344,5340, Note_on_c,73,76,1,2,1,85.0,False
9345,5341, Note_on_c,70,76,1,2,1,81.0,False
9346,5341, Note_on_c,75,76,1,2,1,87.0,False
9347,5342, Note_on_c,63,76,1,2,1,73.0,False
9348,5343, Note_on_c,68,76,1,2,1,79.0,False
9349,5343, Note_on_c,73,76,1,2,1,85.0,False
9350,5344, Note_on_c,72,76,1,2,1,84.0,True
9351,5344, Note_on_c,75,76,1,2,1,87.0,False
9352,5345, Note_on_c,63,76,1,2,1,73.0,False
9353,5346, Note_on_c,68,76,1,2,1,79.0,False
9354,5346, Note_on_c,73,76,1,2,1,85.0,False
9355,5347, Note_on_c,72,76,1,2,1,84.0,True
9356,5347, Note_on_c,75,76,1,2,1,87.0,False
9357,5348, Note_on_c,68,76,1,2,1,79.0,False
9358,5348, Note_on_c,73,76,1,2,1,85.0,False
9359,5349, Note_on_c,70,76,1,2,1,81.0,False
9360,5349, Note_on_c,75,76,1,2,1,87.0,False
9361,5350, Note_on_c,63,76,1,2,1,73.0,False
9362,5351, Note_on_c,68,76,1,2,1,79.0,False
9363,5351, Note_on_c,73,76,1,2,1,85.0,False
9364,5352, Note_on_c,72,76,1,2,1,84.0,True
9365,5352, Note_on_c,75,76,1,2,1,87.0,False
9366,5353, Note_on_c,63,76,1,2,1,73.0,False
9367,5354, Note_on_c,68,76,1,2,1,79.0,False
9368,5354, Note_on_c,73,76,1,2,1,85.0,False
9369,5355, Note_on_c,72,76,1,2,1,84.0,True
9370,5355, Note_on_c,75,76,1,2,1,87.0,False
9371,5356, Note_on_c,68,76,1,2,1,79.0,False
9372,5356, Note_on_c,73,76,1,2,1,85.0,False
9373,5357, Note_on_c,70,76,1,2,1,81.0,False
9374,5357, Note_on_c,75,76,1,2,1,87.0,False
9375,5358, Note_on_c,63,76,1,2,1,73.0,False
9376,5359, Note_on_c,68,76,1,2,1,79.0,False
9377,5359, Note_on_c,73,76,1,2,1,85.0,False
9378,5360, Note_on_c,72,76,1,2,1,84.0,True
9379,5360, Note_on_c,75,76,1,2,1,87.0,False
9380,5361, Note_on_c,63,76,1,2,1,73.0,False
9381,5362, Note_on_c,68,76,1,2,1,79.0,False
9382,5362, Note_on_c,73,76,1,2,1,85.0,False
9383,5363, Note_on_c,72,76,1,2,1,84.0,True
9384,5363, Note_on_c,75,76,1,2,1,87.0,False
9385,5364, Note_on_c,68,76,1,2,1,79.0,False
9386,5364, Note_on_c,73,76,1,2,1,85.0,False
9387,5365, Note_on_c,70,76,1,2,1,81.0,False
9388,5365, Note_on_c,75,76,1,2,1,87.0,False
9389,5366, Note_on_c,63,76,1,2,1,73.0,False
9390,5367, Note_on_c,68,76,1,2,1,79.0,False
9391,5367, Note_on_c,73,76,1,2,1,85.0,False
9392,5368, Note_on_c,72,76,1,2,1,84.0,True
9393,5368, Note_on_c,75,76,1,2,1,87.0,False
9394,5369, Note_on_c,63,76,1,2,1,73.0,False
9395,5370, Note_on_c,68,76,1,2,1,79.0,False
9396,5370, Note_on_c,73,76,1,2,1,85.0,False
9397,5371, Note_on_c,72,76,1,2,1,84.0,True
9398,5371, Note_on_c,75,76,1,2,1,87.0,False
9399,5372, Note_on_c,68,76,1,2,1,79.0,False
9400,5372, Note_on_c,73,76,1,2,1,85.0,False
9401,5373, Note_on_c,70,76,1,2,1,81.0,False
9402,5373, Note_on_c,75,76,1,2,1,87.0,False
9403,5374, Note_on_c,63,76,1,2,1,73.0,False
9404,5375, Note_on_c,68,76,1,2,1,79.0,False
9405,5375, Note_on_c,73,76,1,2,1,85.0,False
9406,5376, Note_on_c,72,76,1,2,1,84.0,True
9407,5376, Note_on_c,75,76,1,2,1,87.0,False
9408,5377, Note_on_c,63,76,1,2,1,73.0,False
9409,5378, Note_on_c,68,76,1,2,1,79.0,False
9410,5378, Note_on_c,73,76,1,2,1,85.0,False
9411,5379, Note_on_c,72,76,1,2,1,84.0,True
9412,5379, Note_on_c,75,76,1,2,1,87.0,False
9413,5380, Note_on_c,68,76,1,2,1,79.0,False
9414,5380, Note_on_c,73,76,1,2,1,85.0,False
9415,5381, Note_on_c,70,76,1,2,1,81.0,False
9416,5381, Note_on_c,75,76,1,2,1,87.0,False
9417,5382, Note_on_c,63,76,1,2,1,73.0,False
9418,5383, Note_on_c,68,76,1,2,1,79.0,False
9419,5383, Note_on_c,73,76,1,2,1,85.0,False
9420,5384, Note_on_c,72,76,1,2,1,84.0,True
9421,5384, Note_on_c,75,76,1,2,1,87.0,False
9422,5385, Note_on_c,63,76,1,2,1,73.0,False
9423,5386, Note_on_c,68,76,1,2,1,79.0,False
9424,5386, Note_on_c,73,76,1,2,1,85.0,False
9425,5387, Note_on_c,72,76,1,2,1,84.0,True
9426,5387, Note_on_c,75,76,1,2,1,87.0,False
9427,5388, Note_on_c,68,76,1,2,1,79.0,False
9428,5388, Note_on_c,73,76,1,2,1,85.0,False
9429,5389, Note_on_c,70,76,1,2,1,81.0,False
9430,5389, Note_on_c,75,76,1,2,1,87.0,False
9431,5390, Note_on_c,63,76,1,2,1,73.0,False
9432,5391, Note_on_c,68,76,1,2,1,79.0,False
9433,5391, Note_on_c,73,76,1,2,1,85.0,False
9434,5392, Note_on_c,72,76,1,2,1,84.0,True
9435,5392, Note_on_c,75,76,1,2,1,87.0,False
9436,5393, Note_on_c,63,76,1,2,1,73.0,False
9437,5394, Note_on_c,68,76,1,2,1,79.0,False
9438,5394, Note_on_c,73,76,1,2,1,85.0,False
9439,5395, Note_on_c,72,76,1,2,1,84.0,True
9440,5395, Note_on_c,75,76,1,2,1,87.0,False
9441,5396, Note_on_c,68,76,1,2,1,79.0,False
9442,5396, Note_on_c,73,76,1,2,1,85.0,False
9443,5397, Note_on_c,70,76,1,2,1,81.0,False
9444,5397, Note_on_c,75,76,1,2,1,87.0,False
9445,5398, Note_on_c,63,76,1,2,1,73.0,False
9446,5399, Note_on_c,68,76,1,2,1,79.0,False
9447,5399, Note_on_c,73,76,1,2,1,85.0,False
9448,5400, Note_on_c,72,76,1,2,1,84.0,True
9449,5400, Note_on_c,75,76,1,2,1,87.0,False
9450,5401, Note_on_c,65,76,1,3,1,76.0,True
9451,5402, Note_on_c,70,76,1,3,1,81.0,False
9452,5402, Note_on_c,75,76,1,3,1,87.0,False
9453,5403, Note_on_c,72,76,1,3,1,84.0,True
9454,5403, Note_on_c,77,76,1,3,1,90.0,True
9455,5404, Note_on_c,70,76,1,3,1,81.0,False
9456,5404, Note_on_c,75,76,1,3,1,87.0,False
9457,5405, Note_on_c,73,76,1,3,1,85.0,False
9458,5405, Note_on_c,77,76,1,3,1,90.0,True
9459,5406, Note_on_c,65,76,1,3,1,76.0,True
9460,5407, Note_on_c,70,76,1,3,1,81.0,False
9461,5407, Note_on_c,75,76,1,3,1,87.0,False
9462,5408, Note_on_c,72,76,1,3,1,84.0,True
9463,5408, Note_on_c,77,76,1,3,1,90.0,True
9464,5409, Note_on_c,65,76,1,3,1,76.0,True
9465,5410, Note_on_c,70,76,1,3,1,81.0,False
9466,5410, Note_on_c,75,76,1,3,1,87.0,False
9467,5411, Note_on_c,72,76,1,3,1,84.0,True
9468,5411, Note_on_c,77,76,1,3,1,90.0,True
9469,5412, Note_on_c,70,76,1,3,1,81.0,False
9470,5412, Note_on_c,75,76,1,3,1,87.0,False
9471,5413, Note_on_c,73,76,1,3,1,85.0,False
9472,5413, Note_on_c,77,76,1,3,1,90.0,True
9473,5414, Note_on_c,65,76,1,3,1,76.0,True
9474,5415, Note_on_c,70,76,1,3,1,81.0,False
9475,5415, Note_on_c,75,76,1,3,1,87.0,False
9476,5416, Note_on_c,72,76,1,3,1,84.0,True
9477,5416, Note_on_c,77,76,1,3,1,90.0,True
9478,5417, Note_on_c,65,76,1,3,1,76.0,True
9479,5418, Note_on_c,70,76,1,3,1,81.0,False
9480,5418, Note_on_c,75,76,1,3,1,87.0,False
9481,5419, Note_on_c,72,76,1,3,1,84.0,True
9482,5419, Note_on_c,77,76,1,3,1,90.0,True
9483,5420, Note_on_c,70,76,1,3,1,81.0,False
9484,5420, Note_on_c,75,76,1,3,1,87.0,False
9485,5421, Note_on_c,73,76,1,3,1,85.0,False
9486,5421, Note_on_c,77,76,1,3,1,90.0,True
9487,5422, Note_on_c,65,76,1,3,1,76.0,True
9488,5423, Note_on_c,70,76,1,3,1,81.0,False
9489,5423, Note_on_c,75,76,1,3,1,87.0,False
9490,5424, Note_on_c,72,76,1,3,1,84.0,True
9491,5424, Note_on_c,77,76,1,3,1,90.0,True
9492,5425, Note_on_c,65,76,1,3,1,76.0,True
9493,5426, Note_on_c,70,76,1,3,1,81.0,False
9494,5426, Note_on_c,75,76,1,3,1,87.0,False
9495,5427, Note_on_c,72,76,1,3,1,84.0,True
9496,5427, Note_on_c,77,76,1,3,1,90.0,True
9497,5428, Note_on_c,70,76,1,3,1,81.0,False
9498,5428, Note_on_c,75,76,1,3,1,87.0,False
9499,5429, Note_on_c,73,76,1,3,1,85.0,False
9500,5429, Note_on_c,77,76,1,3,1,90.0,True
9501,5430, Note_on_c,65,76,1,3,1,76.0,True
9502,5431, Note_on_c,70,76,1,3,1,81.0,False
9503,5431, Note_on_c,75,76,1,3,1,87.0,False
9504,5432, Note_on_c,72,76,1,3,1,84.0,True
9505,5432, Note_on_c,77,76,1,3,1,90.0,True
9506,5433, Note_on_c,65,76,1,3,1,76.0,True
9507,5434, Note_on_c,70,76,1,3,1,81.0,False
9508,5434, Note_on_c,75,76,1,3,1,87.0,False
9509,5435, Note_on_c,72,76,1,3,1,84.0,True
9510,5435, Note_on_c,77,76,1,3,1,90.0,True
9511,5436, Note_on_c,70,76,1,3,1,81.0,False
9512,5436, Note_on_c,75,76,1,3,1,87.0,False
9513,5437, Note_on_c,73,76,1,3,1,85.0,False
9514,5437, Note_on_c,77,76,1,3,1,90.0,True
9515,5438, Note_on_c,65,76,1,3,1,76.0,True
9516,5439, Note_on_c,70,76,1,3,1,81.0,False
9517,5439, Note_on_c,75,76,1,3,1,87.0,False
9518,5440, Note_on_c,72,76,1,3,1,84.0,True
9519,5440, Note_on_c,77,76,1,3,1,90.0,True
9520,5441, Note_on_c,65,76,1,3,1,76.0,True
9521,5442, Note_on_c,70,76,1,3,1,81.0,False
9522,5442, Note_on_c,75,76,1,3,1,87.0,False
9523,5443, Note_on_c,72,76,1,3,1,84.0,True
9524,5443, Note_on_c,77,76,1,3,1,90.0,True
9525,5444, Note_on_c,70,76,1,3,1,81.0,False
9526,5444, Note_on_c,75,76,1,3,1,87.0,False
9527,5445, Note_on_c,73,76,1,3,1,85.0,False
9528,5445, Note_on_c,77,76,1,3,1,90.0,True
9529,5446, Note_on_c,65,76,1,3,1,76.0,True
9530,5447, Note_on_c,70,76,1,3,1,81.0,False
9531,5447, Note_on_c,75,76,1,3,1,87.0,False
9532,5448, Note_on_c,72,76,1,3,1,84.0,True
9533,5448, Note_on_c,77,76,1,3,1,90.0,True
9534,5449, Note_on_c,65,76,1,3,1,76.0,True
9535,5450, Note_on_c,70,76,1,3,1,81.0,False
9536,5450, Note_on_c,75,76,1,3,1,87.0,False
9537,5451, Note_on_c,72,76,1,3,1,84.0,True
9538,5451, Note_on_c,77,76,1,3,1,90.0,True
9539,5452, Note_on_c,70,76,1,3,1,81.0,False
9540,5452, Note_on_c,75,76,1,3,1,87.0,False
9541,5453, Note_on_c,73,76,1,3,1,85.0,False
9542,5453, Note_on_c,77,76,1,3,1,90.0,True
9543,5454, Note_on_c,65,76,1,3,1,76.0,True
9544,5455, Note_on_c,70,76,1,3,1,81.0,False
9545,5455, Note_on_c,75,76,1,3,1,87.0,False
9546,5456, Note_on_c,72,76,1,3,1,84.0,True
9547,5456, Note_on_c,77,76,1,3,1,90.0,True
9548,5457, Note_on_c,65,76,1,3,1,76.0,True
9549,5458, Note_on_c,70,76,1,3,1,81.0,False
9550,5458, Note_on_c,75,76,1,3,1,87.0,False
9551,5459, Note_on_c,72,76,1,3,1,84.0,True
9552,5459, Note_on_c,77,76,1,3,1,90.0,True
9553,5460, Note_on_c,70,76,1,3,1,81.0,False
9554,5460, Note_on_c,75,76,1,3,1,87.0,False
9555,5461, Note_on_c,73,76,1,3,1,85.0,False
9556,5461, Note_on_c,77,76,1,3,1,90.0,True
9557,5462, Note_on_c,65,76,1,3,1,76.0,True
9558,5463, Note_on_c,70,76,1,3,1,81.0,False
9559,5463, Note_on_c,75,76,1,3,1,87.0,False
9560,5464, Note_on_c,72,76,1,3,1,84.0,True
9561,5464, Note_on_c,77,76,1,3,1,90.0,True
9562,5465, Note_on_c,65,76,1,3,1,76.0,True
9563,5466, Note_on_c,70,76,1,3,1,81.0,False
9564,5466, Note_on_c,75,76,1,3,1,87.0,False
9565,5467, Note_on_c,72,76,1,3,1,84.0,True
9566,5467, Note_on_c,77,76,1,3,1,90.0,True
9567,5468, Note_on_c,70,76,1,3,1,81.0,False
9568,5468, Note_on_c,75,76,1,3,1,87.0,False
9569,5469, Note_on_c,73,76,1,3,1,85.0,False
9570,5469, Note_on_c,77,76,1,3,1,90.0,True
9571,5470, Note_on_c,65,76,1,3,1,76.0,True
9572,5471, Note_on_c,70,76,1,3,1,81.0,False
9573,5471, Note_on_c,75,76,1,3,1,87.0,False
9574,5472, Note_on_c,72,76,1,3,1,84.0,True
9575,5472, Note_on_c,77,76,1,3,1,90.0,True
9576,5473, Note_on_c,65,76,1,3,1,76.0,True
9577,5474, Note_on_c,70,76,1,3,1,81.0,False
9578,5474, Note_on_c,75,76,1,3,1,87.0,False
9579,5475, Note_on_c,72,76,1,3,1,84.0,True
9580,5475, Note_on_c,77,76,1,3,1,90.0,True
9581,5476, Note_on_c,70,76,1,3,1,81.0,False
9582,5476, Note_on_c,75,76,1,3,1,87.0,False
9583,5477, Note_on_c,73,76,1,3,1,85.0,False
9584,5477, Note_on_c,77,76,1,3,1,90.0,True
9585,5478, Note_on_c,65,76,1,3,1,76.0,True
9586,5479, Note_on_c,70,76,1,3,1,81.0,False
9587,5479, Note_on_c,75,76,1,3,1,87.0,False
9588,5480, Note_on_c,72,76,1,3,1,84.0,True
9589,5480, Note_on_c,77,76,1,3,1,90.0,True
9590,5481, Note_on_c,65,76,1,3,1,76.0,True
9591,5482, Note_on_c,70,76,1,3,1,81.0,False
9592,5482, Note_on_c,75,76,1,3,1,87.0,False
9593,5483, Note_on_c,72,76,1,3,1,84.0,True
9594,5483, Note_on_c,77,76,1,3,1,90.0,True
9595,5484, Note_on_c,70,76,1,3,1,81.0,False
9596,5484, Note_on_c,75,76,1,3,1,87.0,False
9597,5485, Note_on_c,73,76,1,3,1,85.0,False
9598,5485, Note_on_c,77,76,1,3,1,90.0,True
9599,5486, Note_on_c,65,76,1,3,1,76.0,True
9600,5487, Note_on_c,70,76,1,3,1,81.0,False
9601,5487, Note_on_c,75,76,1,3,1,87.0,False
9602,5488, Note_on_c,72,76,1,3,1,84.0,True
9603,5488, Note_on_c,77,76,1,3,1,90.0,True
9604,5489, Note_on_c,65,76,1,3,1,76.0,True
9605,5490, Note_on_c,70,76,1,3,1,81.0,False
9606,5490, Note_on_c,75,76,1,3,1,87.0,False
9607,5491, Note_on_c,72,76,1,3,1,84.0,True
9608,5491, Note_on_c,77,76,1,3,1,90.0,True
9609,5492, Note_on_c,70,76,1,3,1,81.0,False
9610,5492, Note_on_c,75,76,1,3,1,87.0,False
9611,5493, Note_on_c,73,76,1,3,1,85.0,False
9612,5493, Note_on_c,77,76,1,3,1,90.0,True
9613,5494, Note_on_c,65,76,1,3,1,76.0,True
9614,5495, Note_on_c,70,76,1,3,1,81.0,False
9615,5495, Note_on_c,75,76,1,3,1,87.0,False
9616,5496, Note_on_c,72,76,1,3,1,84.0,True
9617,5496, Note_on_c,77,76,1,3,1,90.0,True
9618,5497, Note_on_c,65,76,1,3,1,76.0,True
9619,5498, Note_on_c,70,76,1,3,1,81.0,False
9620,5498, Note_on_c,75,76,1,3,1,87.0,False
9621,5499, Note_on_c,72,76,1,3,1,84.0,True
9622,5499, Note_on_c,77,76,1,3,1,90.0,True
9623,5500, Note_on_c,70,76,1,3,1,81.0,False
9624,5500, Note_on_c,75,76,1,3,1,87.0,False
9625,5501, Note_on_c,73,76,1,3,1,85.0,False
9626,5501, Note_on_c,77,76,1,3,1,90.0,True
9627,5502, Note_on_c,65,76,1,3,1,76.0,True
9628,5503, Note_on_c,70,76,1,3,1,81.0,False
9629,5503, Note_on_c,75,76,1,3,1,87.0,False
9630,5504, Note_on_c,72,76,1,3,1,84.0,True
9631,5504, Note_on_c,77,76,1,3,1,90.0,True
9632,5505, Note_on_c,65,76,1,3,1,76.0,True
9633,5506, Note_on_c,70,76,1,3,1,81.0,False
9634,5506, Note_on_c,75,76,1,3,1,87.0,False
9635,5507, Note_on_c,72,76,1,3,1,84.0,True
9636,5507, Note_on_c,77,76,1,3,1,90.0,True
9637,5508, Note_on_c,70,76,1,3,1,81.0,False
9638,5508, Note_on_c,75,76,1,3,1,87.0,False
9639,5509, Note_on_c,73,76,1,3,1,85.0,False
9640,5509, Note_on_c,77,76,1,3,1,90.0,True
9641,5510, Note_on_c,65,76,1,3,1,76.0,True
9642,5511, Note_on_c,70,76,1,3,1,81.0,False
9643,5511, Note_on_c,75,76,1,3,1,87.0,False
9644,5512, Note_on_c,72,76,1,3,1,84.0,True
9645,5512, Note_on_c,77,76,1,3,1,90.0,True
9646,5513, Note_on_c,65,76,1,3,1,76.0,True
9647,5514, Note_on_c,70,76,1,3,1,81.0,False
9648,5514, Note_on_c,75,76,1,3,1,87.0,False
9649,5515, Note_on_c,72,76,1,3,1,84.0,True
9650,5515, Note_on_c,77,76,1,3,1,90.0,True
9651,5516, Note_on_c,70,76,1,3,1,81.0,False
9652,5516, Note_on_c,75,76,1,3,1,87.0,False
9653,5517, Note_on_c,73,76,1,3,1,85.0,False
9654,5517, Note_on_c,77,76,1,3,1,90.0,True
9655,5518, Note_on_c,65,76,1,3,1,76.0,True
9656,5519, Note_on_c,70,76,1,3,1,81.0,False
9657,5519, Note_on_c,75,76,1,3,1,87.0,False
9658,5520, Note_on_c,72,76,1,3,1,84.0,True
9659,5520, Note_on_c,77,76,1,3,1,90.0,True
9660,5521, Note_on_c,65,76,1,3,1,76.0,True
9661,5522, Note_on_c,70,76,1,3,1,81.0,False
9662,5522, Note_on_c,75,76,1,3,1,87.0,False
9663,5523, Note_on_c,72,76,1,3,1,84.0,True
9664,5523, Note_on_c,77,76,1,3,1,90.0,True
9665,5524, Note_on_c,70,76,1,3,1,81.0,False
9666,5524, Note_on_c,75,76,1,3,1,87.0,False
9667,5525, Note_on_c,73,76,1,3,1,85.0,False
9668,5525, Note_on_c,77,76,1,3,1,90.0,True
9669,5526, Note_on_c,65,76,1,3,1,76.0,True
9670,5527, Note_on_c,70,76,1,3,1,81.0,False
9671,5527, Note_on_c,75,76,1,3,1,87.0,False
9672,5528, Note_on_c,72,76,1,3,1,84.0,True
9673,5528, Note_on_c,77,76,1,3,1,90.0,True
9674,5529, Note_on_c,65,76,1,3,1,76.0,True
9675,5530, Note_on_c,70,76,1,3,1,81.0,False
9676,5530, Note_on_c,75,76,1,3,1,87.0,False
9677,5531, Note_on_c,72,76,1,3,1,84.0,True
9678,5531, Note_on_c,77,76,1,3,1,90.0,True
9679,5532, Note_on_c,70,76,1,3,1,81.0,False
9680,5532, Note_on_c,75,76,1,3,1,87.0,False
9681,5533, Note_on_c,73,76,1,3,1,85.0,False
9682,5533, Note_on_c,77,76,1,3,1,90.0,True
9683,5534, Note_on_c,65,76,1,3,1,76.0,True
9684,5535, Note_on_c,70,76,1,3,1,81.0,False
9685,5535, Note_on_c,75,76,1,3,1,87.0,False
9686,5536, Note_on_c,72,76,1,3,1,84.0,True
9687,5536, Note_on_c,77,76,1,3,1,90.0,True
9688,5537, Note_on_c,65,76,1,3,1,76.0,True
9689,5538, Note_on_c,70,76,1,3,1,81.0,False
9690,5538, Note_on_c,75,76,1,3,1,87.0,False
9691,5539, Note_on_c,72,76,1,3,1,84.0,True
9692,5539, Note_on_c,77,76,1,3,1,90.0,True
9693,5540, Note_on_c,70,76,1,3,1,81.0,False
9694,5540, Note_on_c,75,76,1,3,1,87.0,False
9695,5541, Note_on_c,73,76,1,3,1,85.0,False
9696,5541, Note_on_c,77,76,1,3,1,90.0,True
9697,5542, Note_on_c,65,76,1,3,1,76.0,True
9698,5543, Note_on_c,70,76,1,3,1,81.0,False
9699,5543, Note_on_c,75,76,1,3,1,87.0,False
9700,5544, Note_on_c,72,76,1,3,1,84.0,True
9701,5544, Note_on_c,77,76,1,3,1,90.0,True
9702,5545, Note_on_c,65,76,1,3,1,76.0,True
9703,5546, Note_on_c,70,76,1,3,1,81.0,False
9704,5546, Note_on_c,75,76,1,3,1,87.0,False
9705,5547, Note_on_c,72,76,1,3,1,84.0,True
9706,5547, Note_on_c,77,76,1,3,1,90.0,True
9707,5548, Note_on_c,70,76,1,3,1,81.0,False
9708,5548, Note_on_c,75,76,1,3,1,87.0,False
9709,5549, Note_on_c,73,76,1,3,1,85.0,False
9710,5549, Note_on_c,77,76,1,3,1,90.0,True
9711,5550, Note_on_c,65,76,1,3,1,76.0,True
9712,5551, Note_on_c,70,76,1,3,1,81.0,False
9713,5551, Note_on_c,75,76,1,3,1,87.0,False
9714,5552, Note_on_c,72,76,1,3,1,84.0,True
9715,5552, Note_on_c,77,76,1,3,1,90.0,True
9716,5553, Note_on_c,65,76,1,3,1,76.0,True
9717,5554, Note_on_c,70,76,1,3,1,81.0,False
9718,5554, Note_on_c,75,76,1,3,1,87.0,False
9719,5555, Note_on_c,72,76,1,3,1,84.0,True
9720,5555, Note_on_c,77,76,1,3,1,90.0,True
9721,5556, Note_on_c,70,76,1,3,1,81.0,False
9722,5556, Note_on_c,75,76,1,3,1,87.0,False
9723,5557, Note_on_c,73,76,1,3,1,85.0,False
9724,5557, Note_on_c,77,76,1,3,1,90.0,True
9725,5558, Note_on_c,65,76,1,3,1,76.0,True
9726,5559, Note_on_c,70,76,1,3,1,81.0,False
9727,5559, Note_on_c,75,76,1,3,1,87.0,False
9728,5560, Note_on_c,72,76,1,3,1,84.0,True
9729,5560, Note_on_c,77,76,1,3,1,90.0,True
9730,5561, Note_on_c,65,76,1,3,1,76.0,True
9731,5562, Note_on_c,70,76,1,3,1,81.0,False
9732,5562, Note_on_c,75,76,1,3,1,87.0,False
9733,5563, Note_on_c,72,76,1,3,1,84.0,True
9734,5563, Note_on_c,77,76,1,3,1,90.0,True
9735,5564, Note_on_c,70,76,1,3,1,81.0,False
9736,5564, Note_on_c,75,76,1,3,1,87.0,False
9737,5565, Note_on_c,73,76,1,3,1,85.0,False
9738,5565, Note_on_c,77,76,1,3,1,90.0,True
9739,5566, Note_on_c,65,76,1,3,1,76.0,True
9740,5567, Note_on_c,70,76,1,3,1,81.0,False
9741,5567, Note_on_c,75,76,1,3,1,87.0,False
9742,5568, Note_on_c,72,76,1,3,1,84.0,True
9743,5568, Note_on_c,77,76,1,3,1,90.0,True
9744,5569, Note_on_c,65,76,1,3,1,76.0,True
9745,5570, Note_on_c,70,76,1,3,1,81.0,False
9746,5570, Note_on_c,75,76,1,3,1,87.0,False
9747,5571, Note_on_c,72,76,1,3,1,84.0,True
9748,5571, Note_on_c,77,76,1,3,1,90.0,True
9749,5572, Note_on_c,70,76,1,3,1,81.0,False
9750,5572, Note_on_c,75,76,1,3,1,87.0,False
9751,5573, Note_on_c,73,76,1,3,1,85.0,False
9752,5573, Note_on_c,77,76,1,3,1,90.0,True
9753,5574, Note_on_c,65,76,1,3,1,76.0,True
9754,5575, Note_on_c,70,76,1,3,1,81.0,False
9755,5575, Note_on_c,75,76,1,3,1,87.0,False
9756,5576, Note_on_c,72,76,1,3,1,84.0,True
9757,5576, Note_on_c,77,76,1,3,1,90.0,True
9758,5577, Note_on_c,65,76,1,3,1,76.0,True
9759,5578, Note_on_c,70,76,1,3,1,81.0,False
9760,5578, Note_on_c,75,76,1,3,1,87.0,False
9761,5579, Note_on_c,72,76,1,3,1,84.0,True
9762,5579, Note_on_c,77,76,1,3,1,90.0,True
9763,5580, Note_on_c,70,76,1,3,1,81.0,False
9764,5580, Note_on_c,75,76,1,3,1,87.0,False
9765,5581, Note_on_c,73,76,1,3,1,85.0,False
9766,5581, Note_on_c,77,76,1,3,1,90.0,True
9767,5582, Note_on_c,65,76,1,3,1,76.0,True
9768,5583, Note_on_c,70,76,1,3,1,81.0,False
9769,5583, Note_on_c,75,76,1,3,1,87.0,False
9770,5584, Note_on_c,72,76,1,3,1,84.0,True
9771,5584, Note_on_c,77,76,1,3,1,90.0,True
9772,5585, Note_on_c,65,76,1,3,1,76.0,True
9773,5586, Note_on_c,70,76,1,3,1,81.0,False
9774,5586, Note_on_c,75,76,1,3,1,87.0,False
9775,5587, Note_on_c,72,76,1,3,1,84.0,True
9776,5587, Note_on_c,77,76,1,3,1,90.0,True
9777,5588, Note_on_c,70,76,1,3,1,81.0,False
9778,5588, Note_on_c,75,76,1,3,1,87.0,False
9779,5589, Note_on_c,73,76,1,3,1,85.0,False
9780,5589, Note_on_c,77,76,1,3,1,90.0,True
9781,5590, Note_on_c,65,76,1,3,1,76.0,True
9782,5591, Note_on_c,70,76,1,3,1,81.0,False
9783,5591, Note_on_c,75,76,1,3,1,87.0,False
9784,5592, Note_on_c,72,76,1,3,1,84.0,True
9785,5592, Note_on_c,77,76,1,3,1,90.0,True
9786,5593, Note_on_c,65,76,1,3,1,76.0,True
9787,5594, Note_on_c,70,76,1,3,1,81.0,False
9788,5594, Note_on_c,75,76,1,3,1,87.0,False
9789,5595, Note_on_c,72,76,1,3,1,84.0,True
9790,5595, Note_on_c,77,76,1,3,1,90.0,True
9791,5596, Note_on_c,70,76,1,3,1,81.0,False
9792,5596, Note_on_c,75,76,1,3,1,87.0,False
9793,5597, Note_on_c,73,76,1,3,1,85.0,False
9794,5597, Note_on_c,77,76,1,3,1,90.0,True
9795,5598, Note_on_c,65,76,1,3,1,76.0,True
9796,5599, Note_on_c,70,76,1,3,1,81.0,False
9797,5599, Note_on_c,75,76,1,3,1,87.0,False
9798,5600, Note_on_c,72,76,1,3,1,84.0,True
9799,5600, Note_on_c,77,76,1,3,1,90.0,True
9800,5601, Note_on_c,65,76,1,3,1,76.0,True
9801,5602, Note_on_c,70,76,1,3,1,81.0,False
9802,5602, Note_on_c,75,76,1,3,1,87.0,False
9803,5603, Note_on_c,72,76,1,3,1,84.0,True
9804,5603, Note_on_c,77,76,1,3,1,90.0,True
9805,5604, Note_on_c,70,76,1,3,1,81.0,False
9806,5604, Note_on_c,75,76,1,3,1,87.0,False
9807,5605, Note_on_c,73,76,1,3,1,85.0,False
9808,5605, Note_on_c,77,76,1,3,1,90.0,True
9809,5606, Note_on_c,65,76,1,3,1,76.0,True
9810,5607, Note_on_c,70,76,1,3,1,81.0,False
9811,5607, Note_on_c,75,76,1,3,1,87.0,False
9812,5608, Note_on_c,72,76,1,3,1,84.0,True
9813,5608, Note_on_c,77,76,1,3,1,90.0,True
9814,5609, Note_on_c,65,76,1,3,1,76.0,True
9815,5610, Note_on_c,70,76,1,3,1,81.0,False
9816,5610, Note_on_c,75,76,1,3,1,87.0,False
9817,5611, Note_on_c,72,76,1,3,1,84.0,True
9818,5611, Note_on_c,77,76,1,3,1,90.0,True
9819,5612, Note_on_c,70,76,1,3,1,81.0,False
9820,5612, Note_on_c,75,76,1,3,1,87.0,False
9821,5613, Note_on_c,73,76,1,3,1,85.0,False
9822,5613, Note_on_c,77,76,1,3,1,90.0,True
9823,5614, Note_on_c,65,76,1,3,1,76.0,True
9824,5615, Note_on_c,70,76,1,3,1,81.0,False
9825,5615, Note_on_c,75,76,1,3,1,87.0,False
9826,5616, Note_on_c,72,76,1,3,1,84.0,True
9827,5616, Note_on_c,77,76,1,3,1,90.0,True
9828,5617, Note_on_c,65,76,1,3,1,76.0,True
9829,5618, Note_on_c,70,76,1,3,1,81.0,False
9830,5618, Note_on_c,75,76,1,3,1,87.0,False
9831,5619, Note_on_c,72,76,1,3,1,84.0,True
9832,5619, Note_on_c,77,76,1,3,1,90.0,True
9833,5620, Note_on_c,70,76,1,3,1,81.0,False
9834,5620, Note_on_c,75,76,1,3,1,87.0,False
9835,5621, Note_on_c,73,76,1,3,1,85.0,False
9836,5621, Note_on_c,77,76,1,3,1,90.0,True
9837,5622, Note_on_c,65,76,1,3,1,76.0,True
9838,5623, Note_on_c,70,76,1,3,1,81.0,False
9839,5623, Note_on_c,75,76,1,3,1,87.0,False
9840,5624, Note_on_c,72,76,1,3,1,84.0,True
9841,5624, Note_on_c,77,76,1,3,1,90.0,True
9842,5625, Note_on_c,65,76,1,3,1,76.0,True
9843,5626, Note_on_c,70,76,1,3,1,81.0,False
9844,5626, Note_on_c,75,76,1,3,1,87.0,False
9845,5627, Note_on_c,72,76,1,3,1,84.0,True
9846,5627, Note_on_c,77,76,1,3,1,90.0,True
9847,5628, Note_on_c,70,76,1,3,1,81.0,False
9848,5628, Note_on_c,75,76,1,3,1,87.0,False
9849,5629, Note_on_c,73,76,1,3,1,85.0,False
9850,5629, Note_on_c,77,76,1,3,1,90.0,True
9851,5630, Note_on_c,65,76,1,3,1,76.0,True
9852,5631, Note_on_c,70,76,1,3,1,81.0,False
9853,5631, Note_on_c,75,76,1,3,1,87.0,False
9854,5632, Note_on_c,72,76,1,3,1,84.0,True
9855,5632, Note_on_c,77,76,1,3,1,90.0,True
9856,5633, Note_on_c,65,76,1,3,1,76.0,True
9857,5634, Note_on_c,70,76,1,3,1,81.0,False
9858,5634, Note_on_c,75,76,1,3,1,87.0,False
9859,5635, Note_on_c,72,76,1,3,1,84.0,True
9860,5635, Note_on_c,77,76,1,3,1,90.0,True
9861,5636, Note_on_c,70,76,1,3,1,81.0,False
9862,5636, Note_on_c,75,76,1,3,1,87.0,False
9863,5637, Note_on_c,73,76,1,3,1,85.0,False
9864,5637, Note_on_c,77,76,1,3,1,90.0,True
9865,5638, Note_on_c,65,76,1,3,1,76.0,True
9866,5639, Note_on_c,70,76,1,3,1,81.0,False
9867,5639, Note_on_c,75,76,1,3,1,87.0,False
9868,5640, Note_on_c,72,76,1,3,1,84.0,True
9869,5640, Note_on_c,77,76,1,3,1,90.0,True
9870,5641, Note_on_c,65,76,1,3,1,76.0,True
9871,5642, Note_on_c,70,76,1,3,1,81.0,False
9872,5642, Note_on_c,75,76,1,3,1,87.0,False
9873,5643, Note_on_c,72,76,1,3,1,84.0,True
9874,5643, Note_on_c,77,76,1,3,1,90.0,True
9875,5644, Note_on_c,70,76,1,3,1,81.0,False
9876,5644, Note_on_c,75,76,1,3,1,87.0,False
9877,5645, Note_on_c,73,76,1,3,1,85.0,False
9878,5645, Note_on_c,77,76,1,3,1,90.0,True
9879,5646, Note_on_c,65,76,1,3,1,76.0,True
9880,5647, Note_on_c,70,76,1,3,1,81.0,False
9881,5647, Note_on_c,75,76,1,3,1,87.0,False
9882,5648, Note_on_c,72,76,1,3,1,84.0,True
9883,5648, Note_on_c,77,76,1,3,1,90.0,True
9884,5649, Note_on_c,65,76,1,3,1,76.0,True
9885,5650, Note_on_c,70,76,1,3,1,81.0,False
9886,5650, Note_on_c,75,76,1,3,1,87.0,False
9887,5651, Note_on_c,72,76,1,3,1,84.0,True
9888,5651, Note_on_c,77,76,1,3,1,90.0,True
9889,5652, Note_on_c,70,76,1,3,1,81.0,False
9890,5652, Note_on_c,75,76,1,3,1,87.0,False
9891,5653, Note_on_c,73,76,1,3,1,85.0,False
9892,5653, Note_on_c,77,76,1,3,1,90.0,True
9893,5654, Note_on_c,65,76,1,3,1,76.0,True
9894,5655, Note_on_c,70,76,1,3,1,81.0,False
9895,5655, Note_on_c,75,76,1,3,1,87.0,False
9896,5656, Note_on_c,72,76,1,3,1,84.0,True
9897,5656, Note_on_c,77,76,1,3,1,90.0,True
9898,5657, Note_on_c,65,76,1,3,1,76.0,True
9899,5658, Note_on_c,70,76,1,3,1,81.0,False
9900,5658, Note_on_c,75,76,1,3,1,87.0,False
9901,5659, Note_on_c,72,76,1,3,1,84.0,True
9902,5659, Note_on_c,77,76,1,3,1,90.0,True
9903,5660, Note_on_c,70,76,1,3,1,81.0,False
9904,5660, Note_on_c,75,76,1,3,1,87.0,False
9905,5661, Note_on_c,73,76,1,3,1,85.0,False
9906,5661, Note_on_c,77,76,1,3,1,90.0,True
9907,5662, Note_on_c,65,76,1,3,1,76.0,True
9908,5663, Note_on_c,70,76,1,3,1,81.0,False
9909,5663, Note_on_c,75,76,1,3,1,87.0,False
9910,5664, Note_on_c,72,76,1,3,1,84.0,True
9911,5664, Note_on_c,77,76,1,3,1,90.0,True
9912,5665, Note_on_c,65,76,1,3,1,76.0,True
9913,5666, Note_on_c,70,76,1,3,1,81.0,False
9914,5666, Note_on_c,75,76,1,3,1,87.0,False
9915,5667, Note_on_c,72,76,1,3,1,84.0,True
9916,5667, Note_on_c,77,76,1,3,1,90.0,True
9917,5668, Note_on_c,70,76,1,3,1,81.0,False
9918,5668, Note_on_c,75,76,1,3,1,87.0,False
9919,5669, Note_on_c,73,76,1,3,1,85.0,False
9920,5669, Note_on_c,77,76,1,3,1,90.0,True
9921,5670, Note_on_c,65,76,1,3,1,76.0,True
9922,5671, Note_on_c,70,76,1,3,1,81.0,False
9923,5671, Note_on_c,75,76,1,3,1,87.0,False
9924,5672, Note_on_c,72,76,1,3,1,84.0,True
9925,5672, Note_on_c,77,76,1,3,1,90.0,True
9926,5673, Note_on_c,65,76,1,3,1,76.0,True
9927,5674, Note_on_c,70,76,1,3,1,81.0,False
9928,5674, Note_on_c,75,76,1,3,1,87.0,False
9929,5675, Note_on_c,72,76,1,3,1,84.0,True
9930,5675, Note_on_c,77,76,1,3,1,90.0,True
9931,5676, Note_on_c,70,76,1,3,1,81.0,False
9932,5676, Note_on_c,75,76,1,3,1,87.0,False
9933,5677, Note_on_c,73,76,1,3,1,85.0,False
9934,5677, Note_on_c,77,76,1,3,1,90.0,True
9935,5678, Note_on_c,65,76,1,3,1,76.0,True
9936,5679, Note_on_c,70,76,1,3,1,81.0,False
9937,5679, Note_on_c,75,76,1,3,1,87.0,False
9938,5680, Note_on_c,72,76,1,3,1,84.0,True
9939,5680, Note_on_c,77,76,1,3,1,90.0,True
9940,5681, Note_on_c,65,76,1,3,1,76.0,True
9941,5682, Note_on_c,70,76,1,3,1,81.0,False
9942,5682, Note_on_c,75,76,1,3,1,87.0,False
9943,5683, Note_on_c,72,76,1,3,1,84.0,True
9944,5683, Note_on_c,77,76,1,3,1,90.0,True
9945,5684, Note_on_c,70,76,1,3,1,81.0,False
9946,5684, Note_on_c,75,76,1,3,1,87.0,False
9947,5685, Note_on_c,73,76,1,3,1,85.0,False
9948,5685, Note_on_c,77,76,1,3,1,90.0,True
9949,5686, Note_on_c,65,76,1,3,1,76.0,True
9950,5687, Note_on_c,70,76,1,3,1,81.0,False
9951,5687, Note_on_c,75,76,1,3,1,87.0,False
9952,5688, Note_on_c,72,76,1,3,1,84.0,True
9953,5688, Note_on_c,77,76,1,3,1,90.0,True
9954,5689, Note_on_c,65,76,1,3,1,76.0,True
9955,5690, Note_on_c,70,76,1,3,1,81.0,False
9956,5690, Note_on_c,75,76,1,3,1,87.0,False
9957,5691, Note_on_c,72,76,1,3,1,84.0,True
9958,5691, Note_on_c,77,76,1,3,1,90.0,True
9959,5692, Note_on_c,70,76,1,3,1,81.0,False
9960,5692, Note_on_c,75,76,1,3,1,87.0,False
9961,5693, Note_on_c,73,76,1,3,1,85.0,False
9962,5693, Note_on_c,77,76,1,3,1,90.0,True
9963,5694, Note_on_c,65,76,1,3,1,76.0,True
9964,5695, Note_on_c,70,76,1,3,1,81.0,False
9965,5695, Note_on_c,75,76,1,3,1,87.0,False
9966,5696, Note_on_c,72,76,1,3,1,84.0,True
9967,5696, Note_on_c,77,76,1,3,1,90.0,True
9968,5697, Note_on_c,65,76,1,3,1,76.0,True
9969,5698, Note_on_c,70,76,1,3,1,81.0,False
9970,5698, Note_on_c,75,76,1,3,1,87.0,False
9971,5699, Note_on_c,72,76,1,3,1,84.0,True
9972,5699, Note_on_c,77,76,1,3,1,90.0,True
9973,5700, Note_on_c,70,76,1,3,1,81.0,False
9974,5700, Note_on_c,75,76,1,3,1,87.0,False
9975,5701, Note_on_c,73,76,1,3,1,85.0,False
9976,5701, Note_on_c,77,76,1,3,1,90.0,True
9977,5702, Note_on_c,65,76,1,3,1,76.0,True
9978,5703, Note_on_c,70,76,1,3,1,81.0,False
9979,5703, Note_on_c,75,76,1,3,1,87.0,False
9980,5704, Note_on_c,72,76,1,3,1,84.0,True
9981,5704, Note_on_c,77,76,1,3,1,90.0,True
9982,5705, Note_on_c,65,76,1,3,1,76.0,True
9983,5706, Note_on_c,70,76,1,3,1,81.0,False
9984,5706, Note_on_c,75,76,1,3,1,87.0,False
9985,5707, Note_on_c,72,76,1,3,1,84.0,True
9986,5707, Note_on_c,77,76,1,3,1,90.0,True
9987,5708, Note_on_c,70,76,1,3,1,81.0,False
9988,5708, Note_on_c,75,76,1,3,1,87.0,False
9989,5709, Note_on_c,73,76,1,3,1,85.0,False
9990,5709, Note_on_c,77,76,1,3,1,90.0,True
9991,5710, Note_on_c,65,76,1,3,1,76.0,True
9992,5711, Note_on_c,70,76,1,3,1,81.0,False
9993,5711, Note_on_c,75,76,1,3,1,87.0,False
9994,5712, Note_on_c,72,76,1,3,1,84.0,True
9995,5712, Note_on_c,77,76,1,3,1,90.0,True
9996,5713, Note_on_c,65,76,1,3,1,76.0,True
9997,5714, Note_on_c,70,76,1,3,1,81.0,False
9998,5714, Note_on_c,75,76,1,3,1,87.0,False
9999,5715, Note_on_c,72,76,1,3,1,84.0,True
10000,5715, Note_on_c,77,76,1,3,1,90.0,True
10001,5716, Note_on_c,70,76,1,3,1,81.0,False
10002,5716, Note_on_c,75,76,1,3,1,87.0,False
10003,5717, Note_on_c,73,76,1,3,1,85.0,False
10004,5717, Note_on_c,77,76,1,3,1,90.0,True
10005,5718, Note_on_c,65,76,1,3,1,76.0,True
10006,5719, Note_on_c,70,76,1,3,1,81.0,False
10007,5719, Note_on_c,75,76,1,3,1,87.0,False
10008,5720, Note_on_c,72,76,1,3,1,84.0,True
10009,5720, Note_on_c,77,76,1,3,1,90.0,True
10010,5721, Note_on_c,65,76,1,3,1,76.0,True
10011,5722, Note_on_c,70,76,1,3,1,81.0,False
10012,5722, Note_on_c,75,76,1,3,1,87.0,False
10013,5723, Note_on_c,72,76,1,3,1,84.0,True
10014,5723, Note_on_c,77,76,1,3,1,90.0,True
10015,5724, Note_on_c,70,76,1,3,1,81.0,False
10016,5724, Note_on_c,75,76,1,3,1,87.0,False
10017,5725, Note_on_c,73,76,1,3,1,85.0,False
10018,5725, Note_on_c,77,76,1,3,1,90.0,True
10019,5726, Note_on_c,65,76,1,3,1,76.0,True
10020,5727, Note_on_c,70,76,1,3,1,81.0,False
10021,5727, Note_on_c,75,76,1,3,1,87.0,False
10022,5728, Note_on_c,72,76,1,3,1,84.0,True
10023,5728, Note_on_c,77,76,1,3,1,90.0,True
10024,5729, Note_on_c,65,76,1,3,1,76.0,True
10025,5730, Note_on_c,70,76,1,3,1,81.0,False
10026,5730, Note_on_c,75,76,1,3,1,87.0,False
10027,5731, Note_on_c,72,76,1,3,1,84.0,True
10028,5731, Note_on_c,77,76,1,3,1,90.0,True
10029,5732, Note_on_c,70,76,1,3,1,81.0,False
10030,5732, Note_on_c,75,76,1,3,1,87.0,False
10031,5733, Note_on_c,73,76,1,3,1,85.0,False
10032,5733, Note_on_c,77,76,1,3,1,90.0,True
10033,5734, Note_on_c,65,76,1,3,1,76.0,True
10034,5735, Note_on_c,70,76,1,3,1,81.0,False
10035,5735, Note_on_c,75,76,1,3,1,87.0,False
10036,5736, Note_on_c,72,76,1,3,1,84.0,True
10037,5736, Note_on_c,77,76,1,3,1,90.0,True
10038,5737, Note_on_c,65,76,1,3,1,76.0,True
10039,5738, Note_on_c,70,76,1,3,1,81.0,False
10040,5738, Note_on_c,75,76,1,3,1,87.0,False
10041,5739, Note_on_c,72,76,1,3,1,84.0,True
10042,5739, Note_on_c,77,76,1,3,1,90.0,True
10043,5740, Note_on_c,70,76,1,3,1,81.0,False
10044,5740, Note_on_c,75,76,1,3,1,87.0,False
10045,5741, Note_on_c,73,76,1,3,1,85.0,False
10046,5741, Note_on_c,77,76,1,3,1,90.0,True
10047,5742, Note_on_c,65,76,1,3,1,76.0,True
10048,5743, Note_on_c,70,76,1,3,1,81.0,False
10049,5743, Note_on_c,75,76,1,3,1,87.0,False
10050,5744, Note_on_c,72,76,1,3,1,84.0,True
10051,5744, Note_on_c,77,76,1,3,1,90.0,True
10052,5745, Note_on_c,65,76,1,3,1,76.0,True
10053,5746, Note_on_c,70,76,1,3,1,81.0,False
10054,5746, Note_on_c,75,76,1,3,1,87.0,False
10055,5747, Note_on_c,72,76,1,3,1,84.0,True
10056,5747, Note_on_c,77,76,1,3,1,90.0,True
10057,5748, Note_on_c,70,76,1,3,1,81.0,False
10058,5748, Note_on_c,75,76,1,3,1,87.0,False
10059,5749, Note_on_c,73,76,1,3,1,85.0,False
10060,5749, Note_on_c,77,76,1,3,1,90.0,True
10061,5750, Note_on_c,65,76,1,3,1,76.0,True
10062,5751, Note_on_c,70,76,1,3,1,81.0,False
10063,5751, Note_on_c,75,76,1,3,1,87.0,False
10064,5752, Note_on_c,72,76,1,3,1,84.0,True
10065,5752, Note_on_c,77,76,1,3,1,90.0,True
10066,5753, Note_on_c,65,76,1,3,1,76.0,True
10067,5754, Note_on_c,70,76,1,3,1,81.0,False
10068,5754, Note_on_c,75,76,1,3,1,87.0,False
10069,5755, Note_on_c,72,76,1,3,1,84.0,True
10070,5755, Note_on_c,77,76,1,3,1,90.0,True
10071,5756, Note_on_c,70,76,1,3,1,81.0,False
10072,5756, Note_on_c,75,76,1,3,1,87.0,False
10073,5757, Note_on_c,73,76,1,3,1,85.0,False
10074,5757, Note_on_c,77,76,1,3,1,90.0,True
10075,5758, Note_on_c,65,76,1,3,1,76.0,True
10076,5759, Note_on_c,70,76,1,3,1,81.0,False
10077,5759, Note_on_c,75,76,1,3,1,87.0,False
10078,5760, Note_on_c,72,76,1,3,1,84.0,True
10079,5760, Note_on_c,77,76,1,3,1,90.0,True
10080,5761, Note_on_c,65,76,1,3,1,76.0,True
10081,5762, Note_on_c,70,76,1,3,1,81.0,False
10082,5762, Note_on_c,75,76,1,3,1,87.0,False
10083,5763, Note_on_c,72,76,1,3,1,84.0,True
10084,5763, Note_on_c,77,76,1,3,1,90.0,True
10085,5764, Note_on_c,70,76,1,3,1,81.0,False
10086,5764, Note_on_c,75,76,1,3,1,87.0,False
10087,5765, Note_on_c,73,76,1,3,1,85.0,False
10088,5765, Note_on_c,77,76,1,3,1,90.0,True
10089,5766, Note_on_c,65,76,1,3,1,76.0,True
10090,5767, Note_on_c,70,76,1,3,1,81.0,False
10091,5767, Note_on_c,75,76,1,3,1,87.0,False
10092,5768, Note_on_c,72,76,1,3,1,84.0,True
10093,5768, Note_on_c,77,76,1,3,1,90.0,True
10094,5769, Note_on_c,65,76,1,3,1,76.0,True
10095,5770, Note_on_c,70,76,1,3,1,81.0,False
10096,5770, Note_on_c,75,76,1,3,1,87.0,False
10097,5771, Note_on_c,72,76,1,3,1,84.0,True
10098,5771, Note_on_c,77,76,1,3,1,90.0,True
10099,5772, Note_on_c,70,76,1,3,1,81.0,False
10100,5772, Note_on_c,75,76,1,3,1,87.0,False
10101,5773, Note_on_c,73,76,1,3,1,85.0,False
10102,5773, Note_on_c,77,76,1,3,1,90.0,True
10103,5774, Note_on_c,65,76,1,3,1,76.0,True
10104,5775, Note_on_c,70,76,1,3,1,81.0,False
10105,5775, Note_on_c,75,76,1,3,1,87.0,False
10106,5776, Note_on_c,72,76,1,3,1,84.0,True
10107,5776, Note_on_c,77,76,1,3,1,90.0,True
10108,5777, Note_on_c,65,76,1,3,1,76.0,True
10109,5778, Note_on_c,70,76,1,3,1,81.0,False
10110,5778, Note_on_c,75,76,1,3,1,87.0,False
10111,5779, Note_on_c,72,76,1,3,1,84.0,True
10112,5779, Note_on_c,77,76,1,3,1,90.0,True
10113,5780, Note_on_c,70,76,1,3,1,81.0,False
10114,5780, Note_on_c,75,76,1,3,1,87.0,False
10115,5781, Note_on_c,73,76,1,3,1,85.0,False
10116,5781, Note_on_c,77,76,1,3,1,90.0,True
10117,5782, Note_on_c,65,76,1,3,1,76.0,True
10118,5783, Note_on_c,70,76,1,3,1,81.0,False
10119,5783, Note_on_c,75,76,1,3,1,87.0,False
10120,5784, Note_on_c,72,76,1,3,1,84.0,True
10121,5784, Note_on_c,77,76,1,3,1,90.0,True
10122,5785, Note_on_c,65,76,1,3,1,76.0,True
10123,5786, Note_on_c,70,76,1,3,1,81.0,False
10124,5786, Note_on_c,75,76,1,3,1,87.0,False
10125,5787, Note_on_c,72,76,1,3,1,84.0,True
10126,5787, Note_on_c,77,76,1,3,1,90.0,True
10127,5788, Note_on_c,70,76,1,3,1,81.0,False
10128,5788, Note_on_c,75,76,1,3,1,87.0,False
10129,5789, Note_on_c,73,76,1,3,1,85.0,False
10130,5789, Note_on_c,77,76,1,3,1,90.0,True
10131,5790, Note_on_c,65,76,1,3,1,76.0,True
10132,5791, Note_on_c,70,76,1,3,1,81.0,False
10133,5791, Note_on_c,75,76,1,3,1,87.0,False
10134,5792, Note_on_c,72,76,1,3,1,84.0,True
10135,5792, Note_on_c,77,76,1,3,1,90.0,True
10136,5793, Note_on_c,65,76,1,3,1,76.0,True
10137,5794, Note_on_c,70,76,1,3,1,81.0,False
10138,5794, Note_on_c,75,76,1,3,1,87.0,False
10139,5795, Note_on_c,72,76,1,3,1,84.0,True
10140,5795, Note_on_c,77,76,1,3,1,90.0,True
10141,5796, Note_on_c,70,76,1,3,1,81.0,False
10142,5796, Note_on_c,75,76,1,3,1,87.0,False
10143,5797, Note_on_c,73,76,1,3,1,85.0,False
10144,5797, Note_on_c,77,76,1,3,1,90.0,True
10145,5798, Note_on_c,65,76,1,3,1,76.0,True
10146,5799, Note_on_c,70,76,1,3,1,81.0,False
10147,5799, Note_on_c,75,76,1,3,1,87.0,False
10148,5800, Note_on_c,72,76,1,3,1,84.0,True
10149,5800, Note_on_c,77,76,1,3,1,90.0,True
10150,5801, Note_on_c,65,76,1,3,1,76.0,True
10151,5802, Note_on_c,70,76,1,3,1,81.0,False
10152,5802, Note_on_c,75,76,1,3,1,87.0,False
10153,5803, Note_on_c,72,76,1,3,1,84.0,True
10154,5803, Note_on_c,77,76,1,3,1,90.0,True
10155,5804, Note_on_c,70,76,1,3,1,81.0,False
10156,5804, Note_on_c,75,76,1,3,1,87.0,False
10157,5805, Note_on_c,73,76,1,3,1,85.0,False
10158,5805, Note_on_c,77,76,1,3,1,90.0,True
10159,5806, Note_on_c,65,76,1,3,1,76.0,True
10160,5807, Note_on_c,70,76,1,3,1,81.0,False
10161,5807, Note_on_c,75,76,1,3,1,87.0,False
10162,5808, Note_on_c,72,76,1,3,1,84.0,True
10163,5808, Note_on_c,77,76,1,3,1,90.0,True
10164,5809, Note_on_c,65,76,1,3,1,76.0,True
10165,5810, Note_on_c,70,76,1,3,1,81.0,False
10166,5810, Note_on_c,75,76,1,3,1,87.0,False
10167,5811, Note_on_c,72,76,1,3,1,84.0,True
10168,5811, Note_on_c,77,76,1,3,1,90.0,True
10169,5812, Note_on_c,70,76,1,3,1,81.0,False
10170,5812, Note_on_c,75,76,1,3,1,87.0,False
10171,5813, Note_on_c,73,76,1,3,1,85.0,False
10172,5813, Note_on_c,77,76,1,3,1,90.0,True
10173,5814, Note_on_c,65,76,1,3,1,76.0,True
10174,5815, Note_on_c,70,76,1,3,1,81.0,False
10175,5815, Note_on_c,75,76,1,3,1,87.0,False
10176,5816, Note_on_c,72,76,1,3,1,84.0,True
10177,5816, Note_on_c,77,76,1,3,1,90.0,True
10178,5817, Note_on_c,65,76,1,3,1,76.0,True
10179,5818, Note_on_c,70,76,1,3,1,81.0,False
10180,5818, Note_on_c,75,76,1,3,1,87.0,False
10181,5819, Note_on_c,72,76,1,3,1,84.0,True
10182,5819, Note_on_c,77,76,1,3,1,90.0,True
10183,5820, Note_on_c,70,76,1,3,1,81.0,False
10184,5820, Note_on_c,75,76,1,3,1,87.0,False
10185,5821, Note_on_c,73,76,1,3,1,85.0,False
10186,5821, Note_on_c,77,76,1,3,1,90.0,True
10187,5822, Note_on_c,65,76,1,3,1,76.0,True
10188,5823, Note_on_c,70,76,1,3,1,81.0,False
10189,5823, Note_on_c,75,76,1,3,1,87.0,False
10190,5824, Note_on_c,72,76,1,3,1,84.0,True
10191,5824, Note_on_c,77,76,1,3,1,90.0,True
10192,5825, Note_on_c,65,76,1,3,1,76.0,True
10193,5826, Note_on_c,70,76,1,3,1,81.0,False
10194,5826, Note_on_c,75,76,1,3,1,87.0,False
10195,5827, Note_on_c,72,76,1,3,1,84.0,True
10196,5827, Note_on_c,77,76,1,3,1,90.0,True
10197,5828, Note_on_c,70,76,1,3,1,81.0,False
10198,5828, Note_on_c,75,76,1,3,1,87.0,False
10199,5829, Note_on_c,73,76,1,3,1,85.0,False
10200,5829, Note_on_c,77,76,1,3,1,90.0,True
10201,5830, Note_on_c,65,76,1,3,1,76.0,True
10202,5831, Note_on_c,70,76,1,3,1,81.0,False
10203,5831, Note_on_c,75,76,1,3,1,87.0,False
10204,5832, Note_on_c,72,76,1,3,1,84.0,True
10205,5832, Note_on_c,77,76,1,3,1,90.0,True
10206,5833, Note_on_c,65,76,1,3,1,76.0,True
10207,5834, Note_on_c,70,76,1,3,1,81.0,False
10208,5834, Note_on_c,75,76,1,3,1,87.0,False
10209,5835, Note_on_c,72,76,1,3,1,84.0,True
10210,5835, Note_on_c,77,76,1,3,1,90.0,True
10211,5836, Note_on_c,70,76,1,3,1,81.0,False
10212,5836, Note_on_c,75,76,1,3,1,87.0,False
10213,5837, Note_on_c,73,76,1,3,1,85.0,False
10214,5837, Note_on_c,77,76,1,3,1,90.0,True
10215,5838, Note_on_c,65,76,1,3,1,76.0,True
10216,5839, Note_on_c,70,76,1,3,1,81.0,False
10217,5839, Note_on_c,75,76,1,3,1,87.0,False
10218,5840, Note_on_c,72,76,1,3,1,84.0,True
10219,5840, Note_on_c,77,76,1,3,1,90.0,True
10220,5841, Note_on_c,65,76,1,3,1,76.0,True
10221,5842, Note_on_c,70,76,1,3,1,81.0,False
10222,5842, Note_on_c,75,76,1,3,1,87.0,False
10223,5843, Note_on_c,72,76,1,3,1,84.0,True
10224,5843, Note_on_c,77,76,1,3,1,90.0,True
10225,5844, Note_on_c,70,76,1,3,1,81.0,False
10226,5844, Note_on_c,75,76,1,3,1,87.0,False
10227,5845, Note_on_c,73,76,1,3,1,85.0,False
10228,5845, Note_on_c,77,76,1,3,1,90.0,True
10229,5846, Note_on_c,65,76,1,3,1,76.0,True
10230,5847, Note_on_c,70,76,1,3,1,81.0,False
10231,5847, Note_on_c,75,76,1,3,1,87.0,False
10232,5848, Note_on_c,72,76,1,3,1,84.0,True
10233,5848, Note_on_c,77,76,1,3,1,90.0,True
10234,5849, Note_on_c,65,76,1,3,1,76.0,True
10235,5850, Note_on_c,70,76,1,3,1,81.0,False
10236,5850, Note_on_c,75,76,1,3,1,87.0,False
10237,5851, Note_on_c,72,76,1,3,1,84.0,True
10238,5851, Note_on_c,77,76,1,3,1,90.0,True
10239,5852, Note_on_c,70,76,1,3,1,81.0,False
10240,5852, Note_on_c,75,76,1,3,1,87.0,False
10241,5853, Note_on_c,73,76,1,3,1,85.0,False
10242,5853, Note_on_c,77,76,1,3,1,90.0,True
10243,5854, Note_on_c,65,76,1,3,1,76.0,True
10244,5855, Note_on_c,70,76,1,3,1,81.0,False
10245,5855, Note_on_c,75,76,1,3,1,87.0,False
10246,5856, Note_on_c,72,76,1,3,1,84.0,True
10247,5856, Note_on_c,77,76,1,3,1,90.0,True
10248,5857, Note_on_c,65,76,1,3,1,76.0,True
10249,5858, Note_on_c,70,76,1,3,1,81.0,False
10250,5858, Note_on_c,75,76,1,3,1,87.0,False
10251,5859, Note_on_c,72,76,1,3,1,84.0,True
10252,5859, Note_on_c,77,76,1,3,1,90.0,True
10253,5860, Note_on_c,70,76,1,3,1,81.0,False
10254,5860, Note_on_c,75,76,1,3,1,87.0,False
10255,5861, Note_on_c,73,76,1,3,1,85.0,False
10256,5861, Note_on_c,77,76,1,3,1,90.0,True
10257,5862, Note_on_c,65,76,1,3,1,76.0,True
10258,5863, Note_on_c,70,76,1,3,1,81.0,False
10259,5863, Note_on_c,75,76,1,3,1,87.0,False
10260,5864, Note_on_c,72,76,1,3,1,84.0,True
10261,5864, Note_on_c,77,76,1,3,1,90.0,True
10262,5865, Note_on_c,65,76,1,3,1,76.0,True
10263,5866, Note_on_c,70,76,1,3,1,81.0,False
10264,5866, Note_on_c,75,76,1,3,1,87.0,False
10265,5867, Note_on_c,72,76,1,3,1,84.0,True
10266,5867, Note_on_c,77,76,1,3,1,90.0,True
10267,5868, Note_on_c,70,76,1,3,1,81.0,False
10268,5868, Note_on_c,75,76,1,3,1,87.0,False
10269,5869, Note_on_c,73,76,1,3,1,85.0,False
10270,5869, Note_on_c,77,76,1,3,1,90.0,True
10271,5870, Note_on_c,65,76,1,3,1,76.0,True
10272,5871, Note_on_c,70,76,1,3,1,81.0,False
10273,5871, Note_on_c,75,76,1,3,1,87.0,False
10274,5872, Note_on_c,72,76,1,3,1,84.0,True
10275,5872, Note_on_c,77,76,1,3,1,90.0,True
10276,5873, Note_on_c,65,76,1,3,1,76.0,True
10277,5874, Note_on_c,70,76,1,3,1,81.0,False
10278,5874, Note_on_c,75,76,1,3,1,87.0,False
10279,5875, Note_on_c,72,76,1,3,1,84.0,True
10280,5875, Note_on_c,77,76,1,3,1,90.0,True
10281,5876, Note_on_c,70,76,1,3,1,81.0,False
10282,5876, Note_on_c,75,76,1,3,1,87.0,False
10283,5877, Note_on_c,73,76,1,3,1,85.0,False
10284,5877, Note_on_c,77,76,1,3,1,90.0,True
10285,5878, Note_on_c,65,76,1,3,1,76.0,True
10286,5879, Note_on_c,70,76,1,3,1,81.0,False
10287,5879, Note_on_c,75,76,1,3,1,87.0,False
10288,5880, Note_on_c,72,76,1,3,1,84.0,True
10289,5880, Note_on_c,77,76,1,3,1,90.0,True
10290,5881, Note_on_c,65,76,1,3,1,76.0,True
10291,5882, Note_on_c,70,76,1,3,1,81.0,False
10292,5882, Note_on_c,75,76,1,3,1,87.0,False
10293,5883, Note_on_c,72,76,1,3,1,84.0,True
10294,5883, Note_on_c,77,76,1,3,1,90.0,True
10295,5884, Note_on_c,70,76,1,3,1,81.0,False
10296,5884, Note_on_c,75,76,1,3,1,87.0,False
10297,5885, Note_on_c,73,76,1,3,1,85.0,False
10298,5885, Note_on_c,77,76,1,3,1,90.0,True
10299,5886, Note_on_c,65,76,1,3,1,76.0,True
10300,5887, Note_on_c,70,76,1,3,1,81.0,False
10301,5887, Note_on_c,75,76,1,3,1,87.0,False
10302,5888, Note_on_c,72,76,1,3,1,84.0,True
10303,5888, Note_on_c,77,76,1,3,1,90.0,True
10304,5889, Note_on_c,65,76,1,3,1,76.0,True
10305,5890, Note_on_c,70,76,1,3,1,81.0,False
10306,5890, Note_on_c,75,76,1,3,1,87.0,False
10307,5891, Note_on_c,72,76,1,3,1,84.0,True
10308,5891, Note_on_c,77,76,1,3,1,90.0,True
10309,5892, Note_on_c,70,76,1,3,1,81.0,False
10310,5892, Note_on_c,75,76,1,3,1,87.0,False
10311,5893, Note_on_c,73,76,1,3,1,85.0,False
10312,5893, Note_on_c,77,76,1,3,1,90.0,True
10313,5894, Note_on_c,65,76,1,3,1,76.0,True
10314,5895, Note_on_c,70,76,1,3,1,81.0,False
10315,5895, Note_on_c,75,76,1,3,1,87.0,False
10316,5896, Note_on_c,72,76,1,3,1,84.0,True
10317,5896, Note_on_c,77,76,1,3,1,90.0,True
10318,5897, Note_on_c,65,76,1,3,1,76.0,True
10319,5898, Note_on_c,70,76,1,3,1,81.0,False
10320,5898, Note_on_c,75,76,1,3,1,87.0,False
10321,5899, Note_on_c,72,76,1,3,1,84.0,True
10322,5899, Note_on_c,77,76,1,3,1,90.0,True
10323,5900, Note_on_c,70,76,1,3,1,81.0,False
10324,5900, Note_on_c,75,76,1,3,1,87.0,False
10325,5901, Note_on_c,73,76,1,3,1,85.0,False
10326,5901, Note_on_c,77,76,1,3,1,90.0,True
10327,5902, Note_on_c,65,76,1,3,1,76.0,True
10328,5903, Note_on_c,70,76,1,3,1,81.0,False
10329,5903, Note_on_c,75,76,1,3,1,87.0,False
10330,5904, Note_on_c,72,76,1,3,1,84.0,True
10331,5904, Note_on_c,77,76,1,3,1,90.0,True
10332,5905, Note_on_c,65,76,1,3,1,76.0,True
10333,5906, Note_on_c,70,76,1,3,1,81.0,False
10334,5906, Note_on_c,75,76,1,3,1,87.0,False
10335,5907, Note_on_c,72,76,1,3,1,84.0,True
10336,5907, Note_on_c,77,76,1,3,1,90.0,True
10337,5908, Note_on_c,70,76,1,3,1,81.0,False
10338,5908, Note_on_c,75,76,1,3,1,87.0,False
10339,5909, Note_on_c,73,76,1,3,1,85.0,False
10340,5909, Note_on_c,77,76,1,3,1,90.0,True
10341,5910, Note_on_c,65,76,1,3,1,76.0,True
10342,5911, Note_on_c,70,76,1,3,1,81.0,False
10343,5911, Note_on_c,75,76,1,3,1,87.0,False
10344,5912, Note_on_c,72,76,1,3,1,84.0,True
10345,5912, Note_on_c,77,76,1,3,1,90.0,True
10346,5913, Note_on_c,65,76,1,3,1,76.0,True
10347,5914, Note_on_c,70,76,1,3,1,81.0,False
10348,5914, Note_on_c,75,76,1,3,1,87.0,False
10349,5915, Note_on_c,72,76,1,3,1,84.0,True
10350,5915, Note_on_c,77,76,1,3,1,90.0,True
10351,5916, Note_on_c,70,76,1,3,1,81.0,False
10352,5916, Note_on_c,75,76,1,3,1,87.0,False
10353,5917, Note_on_c,73,76,1,3,1,85.0,False
10354,5917, Note_on_c,77,76,1,3,1,90.0,True
10355,5918, Note_on_c,65,76,1,3,1,76.0,True
10356,5919, Note_on_c,70,76,1,3,1,81.0,False
10357,5919, Note_on_c,75,76,1,3,1,87.0,False
10358,5920, Note_on_c,72,76,1,3,1,84.0,True
10359,5920, Note_on_c,77,76,1,3,1,90.0,True
10360,5921, Note_on_c,65,76,1,3,1,76.0,True
10361,5922, Note_on_c,70,76,1,3,1,81.0,False
10362,5922, Note_on_c,75,76,1,3,1,87.0,False
10363,5923, Note_on_c,72,76,1,3,1,84.0,True
10364,5923, Note_on_c,77,76,1,3,1,90.0,True
10365,5924, Note_on_c,70,76,1,3,1,81.0,False
10366,5924, Note_on_c,75,76,1,3,1,87.0,False
10367,5925, Note_on_c,73,76,1,3,1,85.0,False
10368,5925, Note_on_c,77,76,1,3,1,90.0,True
10369,5926, Note_on_c,65,76,1,3,1,76.0,True
10370,5927, Note_on_c,70,76,1,3,1,81.0,False
10371,5927, Note_on_c,75,76,1,3,1,87.0,False
10372,5928, Note_on_c,72,76,1,3,1,84.0,True
10373,5928, Note_on_c,77,76,1,3,1,90.0,True
10374,5929, Note_on_c,65,76,1,3,1,76.0,True
10375,5930, Note_on_c,70,76,1,3,1,81.0,False
10376,5930, Note_on_c,75,76,1,3,1,87.0,False
10377,5931, Note_on_c,72,76,1,3,1,84.0,True
10378,5931, Note_on_c,77,76,1,3,1,90.0,True
10379,5932, Note_on_c,70,76,1,3,1,81.0,False
10380,5932, Note_on_c,75,76,1,3,1,87.0,False
10381,5933, Note_on_c,73,76,1,3,1,85.0,False
10382,5933, Note_on_c,77,76,1,3,1,90.0,True
10383,5934, Note_on_c,65,76,1,3,1,76.0,True
10384,5935, Note_on_c,70,76,1,3,1,81.0,False
10385,5935, Note_on_c,75,76,1,3,1,87.0,False
10386,5936, Note_on_c,72,76,1,3,1,84.0,True
10387,5936, Note_on_c,77,76,1,3,1,90.0,True
10388,5937, Note_on_c,65,76,1,3,1,76.0,True
10389,5938, Note_on_c,70,76,1,3,1,81.0,False
10390,5938, Note_on_c,75,76,1,3,1,87.0,False
10391,5939, Note_on_c,72,76,1,3,1,84.0,True
10392,5939, Note_on_c,77,76,1,3,1,90.0,True
10393,5940, Note_on_c,70,76,1,3,1,81.0,False
10394,5940, Note_on_c,75,76,1,3,1,87.0,False
10395,5941, Note_on_c,73,76,1,3,1,85.0,False
10396,5941, Note_on_c,77,76,1,3,1,90.0,True
10397,5942, Note_on_c,65,76,1,3,1,76.0,True
10398,5943, Note_on_c,70,76,1,3,1,81.0,False
10399,5943, Note_on_c,75,76,1,3,1,87.0,False
10400,5944, Note_on_c,72,76,1,3,1,84.0,True
10401,5944, Note_on_c,77,76,1,3,1,90.0,True
10402,5945, Note_on_c,65,76,1,3,1,76.0,True
10403,5946, Note_on_c,70,76,1,3,1,81.0,False
10404,5946, Note_on_c,75,76,1,3,1,87.0,False
10405,5947, Note_on_c,72,76,1,3,1,84.0,True
10406,5947, Note_on_c,77,76,1,3,1,90.0,True
10407,5948, Note_on_c,70,76,1,3,1,81.0,False
10408,5948, Note_on_c,75,76,1,3,1,87.0,False
10409,5949, Note_on_c,73,76,1,3,1,85.0,False
10410,5949, Note_on_c,77,76,1,3,1,90.0,True
10411,5950, Note_on_c,65,76,1,3,1,76.0,True
10412,5951, Note_on_c,70,76,1,3,1,81.0,False
10413,5951, Note_on_c,75,76,1,3,1,87.0,False
10414,5952, Note_on_c,72,76,1,3,1,84.0,True
10415,5952, Note_on_c,77,76,1,3,1,90.0,True
10416,5953, Note_on_c,65,76,1,3,1,76.0,True
10417,5954, Note_on_c,70,76,1,3,1,81.0,False
10418,5954, Note_on_c,75,76,1,3,1,87.0,False
10419,5955, Note_on_c,72,76,1,3,1,84.0,True
10420,5955, Note_on_c,77,76,1,3,1,90.0,True
10421,5956, Note_on_c,70,76,1,3,1,81.0,False
10422,5956, Note_on_c,75,76,1,3,1,87.0,False
10423,5957, Note_on_c,73,76,1,3,1,85.0,False
10424,5957, Note_on_c,77,76,1,3,1,90.0,True
10425,5958, Note_on_c,65,76,1,3,1,76.0,True
10426,5959, Note_on_c,70,76,1,3,1,81.0,False
10427,5959, Note_on_c,75,76,1,3,1,87.0,False
10428,5960, Note_on_c,72,76,1,3,1,84.0,True
10429,5960, Note_on_c,77,76,1,3,1,90.0,True
10430,5961, Note_on_c,65,76,1,3,1,76.0,True
10431,5962, Note_on_c,70,76,1,3,1,81.0,False
10432,5962, Note_on_c,75,76,1,3,1,87.0,False
10433,5963, Note_on_c,72,76,1,3,1,84.0,True
10434,5963, Note_on_c,77,76,1,3,1,90.0,True
10435,5964, Note_on_c,70,76,1,3,1,81.0,False
10436,5964, Note_on_c,75,76,1,3,1,87.0,False
10437,5965, Note_on_c,73,76,1,3,1,85.0,False
10438,5965, Note_on_c,77,76,1,3,1,90.0,True
10439,5966, Note_on_c,65,76,1,3,1,76.0,True
10440,5967, Note_on_c,70,76,1,3,1,81.0,False
10441,5967, Note_on_c,75,76,1,3,1,87.0,False
10442,5968, Note_on_c,72,76,1,3,1,84.0,True
10443,5968, Note_on_c,77,76,1,3,1,90.0,True
10444,5969, Note_on_c,65,76,1,3,1,76.0,True
10445,5970, Note_on_c,70,76,1,3,1,81.0,False
10446,5970, Note_on_c,75,76,1,3,1,87.0,False
10447,5971, Note_on_c,72,76,1,3,1,84.0,True
10448,5971, Note_on_c,77,76,1,3,1,90.0,True
10449,5972, Note_on_c,70,76,1,3,1,81.0,False
10450,5972, Note_on_c,75,76,1,3,1,87.0,False
10451,5973, Note_on_c,73,76,1,3,1,85.0,False
10452,5973, Note_on_c,77,76,1,3,1,90.0,True
10453,5974, Note_on_c,65,76,1,3,1,76.0,True
10454,5975, Note_on_c,70,76,1,3,1,81.0,False
10455,5975, Note_on_c,75,76,1,3,1,87.0,False
10456,5976, Note_on_c,72,76,1,3,1,84.0,True
10457,5976, Note_on_c,77,76,1,3,1,90.0,True
10458,5977, Note_on_c,65,76,1,3,1,76.0,True
10459,5978, Note_on_c,70,76,1,3,1,81.0,False
10460,5978, Note_on_c,75,76,1,3,1,87.0,False
10461,5979, Note_on_c,72,76,1,3,1,84.0,True
10462,5979, Note_on_c,77,76,1,3,1,90.0,True
10463,5980, Note_on_c,70,76,1,3,1,81.0,False
10464,5980, Note_on_c,75,76,1,3,1,87.0,False
10465,5981, Note_on_c,73,76,1,3,1,85.0,False
10466,5981, Note_on_c,77,76,1,3,1,90.0,True
10467,5982, Note_on_c,65,76,1,3,1,76.0,True
10468,5983, Note_on_c,70,76,1,3,1,81.0,False
10469,5983, Note_on_c,75,76,1,3,1,87.0,False
10470,5984, Note_on_c,72,76,1,3,1,84.0,True
10471,5984, Note_on_c,77,76,1,3,1,90.0,True
10472,5985, Note_on_c,65,76,1,3,1,76.0,True
10473,5986, Note_on_c,70,76,1,3,1,81.0,False
10474,5986, Note_on_c,75,76,1,3,1,87.0,False
10475,5987, Note_on_c,72,76,1,3,1,84.0,True
10476,5987, Note_on_c,77,76,1,3,1,90.0,True
10477,5988, Note_on_c,70,76,1,3,1,81.0,False
10478,5988, Note_on_c,75,76,1,3,1,87.0,False
10479,5989, Note_on_c,73,76,1,3,1,85.0,False
10480,5989, Note_on_c,77,76,1,3,1,90.0,True
10481,5990, Note_on_c,65,76,1,3,1,76.0,True
10482,5991, Note_on_c,70,76,1,3,1,81.0,False
10483,5991, Note_on_c,75,76,1,3,1,87.0,False
10484,5992, Note_on_c,72,76,1,3,1,84.0,True
10485,5992, Note_on_c,77,76,1,3,1,90.0,True
10486,5993, Note_on_c,65,76,1,3,1,76.0,True
10487,5994, Note_on_c,70,76,1,3,1,81.0,False
10488,5994, Note_on_c,75,76,1,3,1,87.0,False
10489,5995, Note_on_c,72,76,1,3,1,84.0,True
10490,5995, Note_on_c,77,76,1,3,1,90.0,True
10491,5996, Note_on_c,70,76,1,3,1,81.0,False
10492,5996, Note_on_c,75,76,1,3,1,87.0,False
10493,5997, Note_on_c,73,76,1,3,1,85.0,False
10494,5997, Note_on_c,77,76,1,3,1,90.0,True
10495,5998, Note_on_c,65,76,1,3,1,76.0,True
10496,5999, Note_on_c,70,76,1,3,1,81.0,False
10497,5999, Note_on_c,75,76,1,3,1,87.0,False
10498,6000, Note_on_c,72,76,1,3,1,84.0,True
10499,6000, Note_on_c,77,76,1,3,1,90.0,True
10500,6001, Note_on_c,65,76,1,3,1,76.0,True
10501,6002, Note_on_c,70,76,1,3,1,81.0,False
10502,6002, Note_on_c,75,76,1,3,1,87.0,False
10503,6003, Note_on_c,72,76,1,3,1,84.0,True
10504,6003, Note_on_c,77,76,1,3,1,90.0,True
10505,6004, Note_on_c,70,76,1,3,1,81.0,False
10506,6004, Note_on_c,75,76,1,3,1,87.0,False
10507,6005, Note_on_c,73,76,1,3,1,85.0,False
10508,6005, Note_on_c,77,76,1,3,1,90.0,True
10509,6006, Note_on_c,65,76,1,3,1,76.0,True
10510,6007, Note_on_c,70,76,1,3,1,81.0,False
10511,6007, Note_on_c,75,76,1,3,1,87.0,False
10512,6008, Note_on_c,72,76,1,3,1,84.0,True
10513,6008, Note_on_c,77,76,1,3,1,90.0,True
10514,6009, Note_on_c,65,76,1,3,1,76.0,True
10515,6010, Note_on_c,70,76,1,3,1,81.0,False
10516,6010, Note_on_c,75,76,1,3,1,87.0,False
10517,6011, Note_on_c,72,76,1,3,1,84.0,True
10518,6011, Note_on_c,77,76,1,3,1,90.0,True
10519,6012, Note_on_c,70,76,1,3,1,81.0,False
10520,6012, Note_on_c,75,76,1,3,1,87.0,False
10521,6013, Note_on_c,73,76,1,3,1,85.0,False
10522,6013, Note_on_c,77,76,1,3,1,90.0,True
10523,6014, Note_on_c,65,76,1,3,1,76.0,True
10524,6015, Note_on_c,70,76,1,3,1,81.0,False
10525,6015, Note_on_c,75,76,1,3,1,87.0,False
10526,6016, Note_on_c,72,76,1,3,1,84.0,True
10527,6016, Note_on_c,77,76,1,3,1,90.0,True
10528,6017, Note_on_c,65,76,1,3,1,76.0,True
10529,6018, Note_on_c,70,76,1,3,1,81.0,False
10530,6018, Note_on_c,75,76,1,3,1,87.0,False
10531,6019, Note_on_c,72,76,1,3,1,84.0,True
10532,6019, Note_on_c,77,76,1,3,1,90.0,True
10533,6020, Note_on_c,70,76,1,3,1,81.0,False
10534,6020, Note_on_c,75,76,1,3,1,87.0,False
10535,6021, Note_on_c,73,76,1,3,1,85.0,False
10536,6021, Note_on_c,77,76,1,3,1,90.0,True
10537,6022, Note_on_c,65,76,1,3,1,76.0,True
10538,6023, Note_on_c,70,76,1,3,1,81.0,False
10539,6023, Note_on_c,75,76,1,3,1,87.0,False
10540,6024, Note_on_c,72,76,1,3,1,84.0,True
10541,6024, Note_on_c,77,76,1,3,1,90.0,True
10542,6025, Note_on_c,65,76,1,3,1,76.0,True
10543,6026, Note_on_c,70,76,1,3,1,81.0,False
10544,6026, Note_on_c,75,76,1,3,1,87.0,False
10545,6027, Note_on_c,72,76,1,3,1,84.0,True
10546,6027, Note_on_c,77,76,1,3,1,90.0,True
10547,6028, Note_on_c,70,76,1,3,1,81.0,False
10548,6028, Note_on_c,75,76,1,3,1,87.0,False
10549,6029, Note_on_c,73,76,1,3,1,85.0,False
10550,6029, Note_on_c,77,76,1,3,1,90.0,True
10551,6030, Note_on_c,65,76,1,3,1,76.0,True
10552,6031, Note_on_c,70,76,1,3,1,81.0,False
10553,6031, Note_on_c,75,76,1,3,1,87.0,False
10554,6032, Note_on_c,72,76,1,3,1,84.0,True
10555,6032, Note_on_c,77,76,1,3,1,90.0,True
10556,6033, Note_on_c,65,76,1,3,1,76.0,True
10557,6034, Note_on_c,70,76,1,3,1,81.0,False
10558,6034, Note_on_c,75,76,1,3,1,87.0,False
10559,6035, Note_on_c,72,76,1,3,1,84.0,True
10560,6035, Note_on_c,77,76,1,3,1,90.0,True
10561,6036, Note_on_c,70,76,1,3,1,81.0,False
10562,6036, Note_on_c,75,76,1,3,1,87.0,False
10563,6037, Note_on_c,73,76,1,3,1,85.0,False
10564,6037, Note_on_c,77,76,1,3,1,90.0,True
10565,6038, Note_on_c,65,76,1,3,1,76.0,True
10566,6039, Note_on_c,70,76,1,3,1,81.0,False
10567,6039, Note_on_c,75,76,1,3,1,87.0,False
10568,6040, Note_on_c,72,76,1,3,1,84.0,True
10569,6040, Note_on_c,77,76,1,3,1,90.0,True
10570,6041, Note_on_c,65,76,1,3,1,76.0,True
10571,6042, Note_on_c,70,76,1,3,1,81.0,False
10572,6042, Note_on_c,75,76,1,3,1,87.0,False
10573,6043, Note_on_c,72,76,1,3,1,84.0,True
10574,6043, Note_on_c,77,76,1,3,1,90.0,True
10575,6044, Note_on_c,70,76,1,3,1,81.0,False
10576,6044, Note_on_c,75,76,1,3,1,87.0,False
10577,6045, Note_on_c,73,76,1,3,1,85.0,False
10578,6045, Note_on_c,77,76,1,3,1,90.0,True
10579,6046, Note_on_c,65,76,1,3,1,76.0,True
10580,6047, Note_on_c,70,76,1,3,1,81.0,False
10581,6047, Note_on_c,75,76,1,3,1,87.0,False
10582,6048, Note_on_c,72,76,1,3,1,84.0,True
10583,6048, Note_on_c,77,76,1,3,1,90.0,True
10584,6049, Note_on_c,65,76,1,3,1,76.0,True
10585,6050, Note_on_c,70,76,1,3,1,81.0,False
10586,6050, Note_on_c,75,76,1,3,1,87.0,False
10587,6051, Note_on_c,72,76,1,3,1,84.0,True
10588,6051, Note_on_c,77,76,1,3,1,90.0,True
10589,6052, Note_on_c,70,76,1,3,1,81.0,False
10590,6052, Note_on_c,75,76,1,3,1,87.0,False
10591,6053, Note_on_c,73,76,1,3,1,85.0,False
10592,6053, Note_on_c,77,76,1,3,1,90.0,True
10593,6054, Note_on_c,65,76,1,3,1,76.0,True
10594,6055, Note_on_c,70,76,1,3,1,81.0,False
10595,6055, Note_on_c,75,76,1,3,1,87.0,False
10596,6056, Note_on_c,72,76,1,3,1,84.0,True
10597,6056, Note_on_c,77,76,1,3,1,90.0,True
10598,6057, Note_on_c,65,76,1,3,1,76.0,True
10599,6058, Note_on_c,70,76,1,3,1,81.0,False
10600,6058, Note_on_c,75,76,1,3,1,87.0,False
10601,6059, Note_on_c,72,76,1,3,1,84.0,True
10602,6059, Note_on_c,77,76,1,3,1,90.0,True
10603,6060, Note_on_c,70,76,1,3,1,81.0,False
10604,6060, Note_on_c,75,76,1,3,1,87.0,False
10605,6061, Note_on_c,73,76,1,3,1,85.0,False
10606,6061, Note_on_c,77,76,1,3,1,90.0,True
10607,6062, Note_on_c,65,76,1,3,1,76.0,True
10608,6063, Note_on_c,70,76,1,3,1,81.0,False
10609,6063, Note_on_c,75,76,1,3,1,87.0,False
10610,6064, Note_on_c,72,76,1,3,1,84.0,True
10611,6064, Note_on_c,77,76,1,3,1,90.0,True
10612,6065, Note_on_c,65,76,1,3,1,76.0,True
10613,6066, Note_on_c,70,76,1,3,1,81.0,False
10614,6066, Note_on_c,75,76,1,3,1,87.0,False
10615,6067, Note_on_c,72,76,1,3,1,84.0,True
10616,6067, Note_on_c,77,76,1,3,1,90.0,True
10617,6068, Note_on_c,70,76,1,3,1,81.0,False
10618,6068, Note_on_c,75,76,1,3,1,87.0,False
10619,6069, Note_on_c,73,76,1,3,1,85.0,False
10620,6069, Note_on_c,77,76,1,3,1,90.0,True
10621,6070, Note_on_c,65,76,1,3,1,76.0,True
10622,6071, Note_on_c,70,76,1,3,1,81.0,False
10623,6071, Note_on_c,75,76,1,3,1,87.0,False
10624,6072, Note_on_c,72,76,1,3,1,84.0,True
10625,6072, Note_on_c,77,76,1,3,1,90.0,True
10626,6073, Note_on_c,65,76,1,3,1,76.0,True
10627,6074, Note_on_c,70,76,1,3,1,81.0,False
10628,6074, Note_on_c,75,76,1,3,1,87.0,False
10629,6075, Note_on_c,72,76,1,3,1,84.0,True
10630,6075, Note_on_c,77,76,1,3,1,90.0,True
10631,6076, Note_on_c,70,76,1,3,1,81.0,False
10632,6076, Note_on_c,75,76,1,3,1,87.0,False
10633,6077, Note_on_c,73,76,1,3,1,85.0,False
10634,6077, Note_on_c,77,76,1,3,1,90.0,True
10635,6078, Note_on_c,65,76,1,3,1,76.0,True
10636,6079, Note_on_c,70,76,1,3,1,81.0,False
10637,6079, Note_on_c,75,76,1,3,1,87.0,False
10638,6080, Note_on_c,72,76,1,3,1,84.0,True
10639,6080, Note_on_c,77,76,1,3,1,90.0,True
10640,6081, Note_on_c,65,76,1,3,1,76.0,True
10641,6082, Note_on_c,70,76,1,3,1,81.0,False
10642,6082, Note_on_c,75,76,1,3,1,87.0,False
10643,6083, Note_on_c,72,76,1,3,1,84.0,True
10644,6083, Note_on_c,77,76,1,3,1,90.0,True
10645,6084, Note_on_c,70,76,1,3,1,81.0,False
10646,6084, Note_on_c,75,76,1,3,1,87.0,False
10647,6085, Note_on_c,73,76,1,3,1,85.0,False
10648,6085, Note_on_c,77,76,1,3,1,90.0,True
10649,6086, Note_on_c,65,76,1,3,1,76.0,True
10650,6087, Note_on_c,70,76,1,3,1,81.0,False
10651,6087, Note_on_c,75,76,1,3,1,87.0,False
10652,6088, Note_on_c,72,76,1,3,1,84.0,True
10653,6088, Note_on_c,77,76,1,3,1,90.0,True
10654,6089, Note_on_c,65,76,1,3,1,76.0,True
10655,6090, Note_on_c,70,76,1,3,1,81.0,False
10656,6090, Note_on_c,75,76,1,3,1,87.0,False
10657,6091, Note_on_c,72,76,1,3,1,84.0,True
10658,6091, Note_on_c,77,76,1,3,1,90.0,True
10659,6092, Note_on_c,70,76,1,3,1,81.0,False
10660,6092, Note_on_c,75,76,1,3,1,87.0,False
10661,6093, Note_on_c,73,76,1,3,1,85.0,False
10662,6093, Note_on_c,77,76,1,3,1,90.0,True
10663,6094, Note_on_c,65,76,1,3,1,76.0,True
10664,6095, Note_on_c,70,76,1,3,1,81.0,False
10665,6095, Note_on_c,75,76,1,3,1,87.0,False
10666,6096, Note_on_c,72,76,1,3,1,84.0,True
10667,6096, Note_on_c,77,76,1,3,1,90.0,True
10668,6097, Note_on_c,65,76,1,3,1,76.0,True
10669,6098, Note_on_c,70,76,1,3,1,81.0,False
10670,6098, Note_on_c,75,76,1,3,1,87.0,False
10671,6099, Note_on_c,72,76,1,3,1,84.0,True
10672,6099, Note_on_c,77,76,1,3,1,90.0,True
10673,6100, Note_on_c,70,76,1,3,1,81.0,False
10674,6100, Note_on_c,75,76,1,3,1,87.0,False
10675,6101, Note_on_c,73,76,1,3,1,85.0,False
10676,6101, Note_on_c,77,76,1,3,1,90.0,True
10677,6102, Note_on_c,65,76,1,3,1,76.0,True
10678,6103, Note_on_c,70,76,1,3,1,81.0,False
10679,6103, Note_on_c,75,76,1,3,1,87.0,False
10680,6104, Note_on_c,72,76,1,3,1,84.0,True
10681,6104, Note_on_c,77,76,1,3,1,90.0,True
10682,6105, Note_on_c,65,76,1,3,1,76.0,True
10683,6106, Note_on_c,70,76,1,3,1,81.0,False
10684,6106, Note_on_c,75,76,1,3,1,87.0,False
10685,6107, Note_on_c,72,76,1,3,1,84.0,True
10686,6107, Note_on_c,77,76,1,3,1,90.0,True
10687,6108, Note_on_c,70,76,1,3,1,81.0,False
10688,6108, Note_on_c,75,76,1,3,1,87.0,False
10689,6109, Note_on_c,73,76,1,3,1,85.0,False
10690,6109, Note_on_c,77,76,1,3,1,90.0,True
10691,6110, Note_on_c,65,76,1,3,1,76.0,True
10692,6111, Note_on_c,70,76,1,3,1,81.0,False
10693,6111, Note_on_c,75,76,1,3,1,87.0,False
10694,6112, Note_on_c,72,76,1,3,1,84.0,True
10695,6112, Note_on_c,77,76,1,3,1,90.0,True
10696,6113, Note_on_c,65,76,1,3,1,76.0,True
10697,6114, Note_on_c,70,76,1,3,1,81.0,False
10698,6114, Note_on_c,75,76,1,3,1,87.0,False
10699,6115, Note_on_c,72,76,1,3,1,84.0,True
10700,6115, Note_on_c,77,76,1,3,1,90.0,True
10701,6116, Note_on_c,70,76,1,3,1,81.0,False
10702,6116, Note_on_c,75,76,1,3,1,87.0,False
10703,6117, Note_on_c,73,76,1,3,1,85.0,False
10704,6117, Note_on_c,77,76,1,3,1,90.0,True
10705,6118, Note_on_c,65,76,1,3,1,76.0,True
10706,6119, Note_on_c,70,76,1,3,1,81.0,False
10707,6119, Note_on_c,75,76,1,3,1,87.0,False
10708,6120, Note_on_c,72,76,1,3,1,84.0,True
10709,6120, Note_on_c,77,76,1,3,1,90.0,True
10710,6121, Note_on_c,65,76,1,3,1,76.0,True
10711,6122, Note_on_c,70,76,1,3,1,81.0,False
10712,6122, Note_on_c,75,76,1,3,1,87.0,False
10713,6123, Note_on_c,72,76,1,3,1,84.0,True
10714,6123, Note_on_c,77,76,1,3,1,90.0,True
10715,6124, Note_on_c,70,76,1,3,1,81.0,False
10716,6124, Note_on_c,75,76,1,3,1,87.0,False
10717,6125, Note_on_c,73,76,1,3,1,85.0,False
10718,6125, Note_on_c,77,76,1,3,1,90.0,True
10719,6126, Note_on_c,65,76,1,3,1,76.0,True
10720,6127, Note_on_c,70,76,1,3,1,81.0,False
10721,6127, Note_on_c,75,76,1,3,1,87.0,False
10722,6128, Note_on_c,72,76,1,3,1,84.0,True
10723,6128, Note_on_c,77,76,1,3,1,90.0,True
10724,6129, Note_on_c,65,76,1,3,1,76.0,True
10725,6130, Note_on_c,70,76,1,3,1,81.0,False
10726,6130, Note_on_c,75,76,1,3,1,87.0,False
10727,6131, Note_on_c,72,76,1,3,1,84.0,True
10728,6131, Note_on_c,77,76,1,3,1,90.0,True
10729,6132, Note_on_c,70,76,1,3,1,81.0,False
10730,6132, Note_on_c,75,76,1,3,1,87.0,False
10731,6133, Note_on_c,73,76,1,3,1,85.0,False
10732,6133, Note_on_c,77,76,1,3,1,90.0,True
10733,6134, Note_on_c,65,76,1,3,1,76.0,True
10734,6135, Note_on_c,70,76,1,3,1,81.0,False
10735,6135, Note_on_c,75,76,1,3,1,87.0,False
10736,6136, Note_on_c,72,76,1,3,1,84.0,True
10737,6136, Note_on_c,77,76,1,3,1,90.0,True
10738,6137, Note_on_c,65,76,1,3,1,76.0,True
10739,6138, Note_on_c,70,76,1,3,1,81.0,False
10740,6138, Note_on_c,75,76,1,3,1,87.0,False
10741,6139, Note_on_c,72,76,1,3,1,84.0,True
10742,6139, Note_on_c,77,76,1,3,1,90.0,True
10743,6140, Note_on_c,70,76,1,3,1,81.0,False
10744,6140, Note_on_c,75,76,1,3,1,87.0,False
10745,6141, Note_on_c,73,76,1,3,1,85.0,False
10746,6141, Note_on_c,77,76,1,3,1,90.0,True
10747,6142, Note_on_c,65,76,1,3,1,76.0,True
10748,6143, Note_on_c,70,76,1,3,1,81.0,False
10749,6143, Note_on_c,75,76,1,3,1,87.0,False
10750,6144, Note_on_c,72,76,1,3,1,84.0,True
10751,6144, Note_on_c,77,76,1,3,1,90.0,True
10752,6145, Note_on_c,65,76,1,3,1,76.0,True
10753,6146, Note_on_c,70,76,1,3,1,81.0,False
10754,6146, Note_on_c,75,76,1,3,1,87.0,False
10755,6147, Note_on_c,72,76,1,3,1,84.0,True
10756,6147, Note_on_c,77,76,1,3,1,90.0,True
10757,6148, Note_on_c,70,76,1,3,1,81.0,False
10758,6148, Note_on_c,75,76,1,3,1,87.0,False
10759,6149, Note_on_c,73,76,1,3,1,85.0,False
10760,6149, Note_on_c,77,76,1,3,1,90.0,True
10761,6150, Note_on_c,65,76,1,3,1,76.0,True
10762,6151, Note_on_c,70,76,1,3,1,81.0,False
10763,6151, Note_on_c,75,76,1,3,1,87.0,False
10764,6152, Note_on_c,72,76,1,3,1,84.0,True
10765,6152, Note_on_c,77,76,1,3,1,90.0,True
10766,6153, Note_on_c,65,76,1,3,1,76.0,True
10767,6154, Note_on_c,70,76,1,3,1,81.0,False
10768,6154, Note_on_c,75,76,1,3,1,87.0,False
10769,6155, Note_on_c,72,76,1,3,1,84.0,True
10770,6155, Note_on_c,77,76,1,3,1,90.0,True
10771,6156, Note_on_c,70,76,1,3,1,81.0,False
10772,6156, Note_on_c,75,76,1,3,1,87.0,False
10773,6157, Note_on_c,73,76,1,3,1,85.0,False
10774,6157, Note_on_c,77,76,1,3,1,90.0,True
10775,6158, Note_on_c,65,76,1,3,1,76.0,True
10776,6159, Note_on_c,70,76,1,3,1,81.0,False
10777,6159, Note_on_c,75,76,1,3,1,87.0,False
10778,6160, Note_on_c,72,76,1,3,1,84.0,True
10779,6160, Note_on_c,77,76,1,3,1,90.0,True
10780,6161, Note_on_c,65,76,1,3,1,76.0,True
10781,6162, Note_on_c,70,76,1,3,1,81.0,False
10782,6162, Note_on_c,75,76,1,3,1,87.0,False
10783,6163, Note_on_c,72,76,1,3,1,84.0,True
10784,6163, Note_on_c,77,76,1,3,1,90.0,True
10785,6164, Note_on_c,70,76,1,3,1,81.0,False
10786,6164, Note_on_c,75,76,1,3,1,87.0,False
10787,6165, Note_on_c,73,76,1,3,1,85.0,False
10788,6165, Note_on_c,77,76,1,3,1,90.0,True
10789,6166, Note_on_c,65,76,1,3,1,76.0,True
10790,6167, Note_on_c,70,76,1,3,1,81.0,False
10791,6167, Note_on_c,75,76,1,3,1,87.0,False
10792,6168, Note_on_c,72,76,1,3,1,84.0,True
10793,6168, Note_on_c,77,76,1,3,1,90.0,True
10794,6169, Note_on_c,65,76,1,3,1,76.0,True
10795,6170, Note_on_c,70,76,1,3,1,81.0,False
10796,6170, Note_on_c,75,76,1,3,1,87.0,False
10797,6171, Note_on_c,72,76,1,3,1,84.0,True
10798,6171, Note_on_c,77,76,1,3,1,90.0,True
10799,6172, Note_on_c,70,76,1,3,1,81.0,False
10800,6172, Note_on_c,75,76,1,3,1,87.0,False
10801,6173, Note_on_c,73,76,1,3,1,85.0,False
10802,6173, Note_on_c,77,76,1,3,1,90.0,True
10803,6174, Note_on_c,65,76,1,3,1,76.0,True
10804,6175, Note_on_c,70,76,1,3,1,81.0,False
10805,6175, Note_on_c,75,76,1,3,1,87.0,False
10806,6176, Note_on_c,72,76,1,3,1,84.0,True
10807,6176, Note_on_c,77,76,1,3,1,90.0,True
10808,6177, Note_on_c,65,76,1,3,1,76.0,True
10809,6178, Note_on_c,70,76,1,3,1,81.0,False
10810,6178, Note_on_c,75,76,1,3,1,87.0,False
10811,6179, Note_on_c,72,76,1,3,1,84.0,True
10812,6179, Note_on_c,77,76,1,3,1,90.0,True
10813,6180, Note_on_c,70,76,1,3,1,81.0,False
10814,6180, Note_on_c,75,76,1,3,1,87.0,False
10815,6181, Note_on_c,73,76,1,3,1,85.0,False
10816,6181, Note_on_c,77,76,1,3,1,90.0,True
10817,6182, Note_on_c,65,76,1,3,1,76.0,True
10818,6183, Note_on_c,70,76,1,3,1,81.0,False
10819,6183, Note_on_c,75,76,1,3,1,87.0,False
10820,6184, Note_on_c,72,76,1,3,1,84.0,True
10821,6184, Note_on_c,77,76,1,3,1,90.0,True
10822,6185, Note_on_c,65,76,1,3,1,76.0,True
10823,6186, Note_on_c,70,76,1,3,1,81.0,False
10824,6186, Note_on_c,75,76,1,3,1,87.0,False
10825,6187, Note_on_c,72,76,1,3,1,84.0,True
10826,6187, Note_on_c,77,76,1,3,1,90.0,True
10827,6188, Note_on_c,70,76,1,3,1,81.0,False
10828,6188, Note_on_c,75,76,1,3,1,87.0,False
10829,6189, Note_on_c,73,76,1,3,1,85.0,False
10830,6189, Note_on_c,77,76,1,3,1,90.0,True
10831,6190, Note_on_c,65,76,1,3,1,76.0,True
10832,6191, Note_on_c,70,76,1,3,1,81.0,False
10833,6191, Note_on_c,75,76,1,3,1,87.0,False
10834,6192, Note_on_c,72,76,1,3,1,84.0,True
10835,6192, Note_on_c,77,76,1,3,1,90.0,True
10836,6193, Note_on_c,65,76,1,3,1,76.0,True
10837,6194, Note_on_c,70,76,1,3,1,81.0,False
10838,6194, Note_on_c,75,76,1,3,1,87.0,False
10839,6195, Note_on_c,72,76,1,3,1,84.0,True
10840,6195, Note_on_c,77,76,1,3,1,90.0,True
10841,6196, Note_on_c,70,76,1,3,1,81.0,False
10842,6196, Note_on_c,75,76,1,3,1,87.0,False
10843,6197, Note_on_c,73,76,1,3,1,85.0,False
10844,6197, Note_on_c,77,76,1,3,1,90.0,True
10845,6198, Note_on_c,65,76,1,3,1,76.0,True
10846,6199, Note_on_c,70,76,1,3,1,81.0,False
10847,6199, Note_on_c,75,76,1,3,1,87.0,False
10848,6200, Note_on_c,72,76,1,3,1,84.0,True
10849,6200, Note_on_c,77,76,1,3,1,90.0,True
10850,6201, Note_on_c,65,76,1,3,1,76.0,True
10851,6202, Note_on_c,70,76,1,3,1,81.0,False
10852,6202, Note_on_c,75,76,1,3,1,87.0,False
10853,6203, Note_on_c,72,76,1,3,1,84.0,True
10854,6203, Note_on_c,77,76,1,3,1,90.0,True
10855,6204, Note_on_c,70,76,1,3,1,81.0,False
10856,6204, Note_on_c,75,76,1,3,1,87.0,False
10857,6205, Note_on_c,73,76,1,3,1,85.0,False
10858,6205, Note_on_c,77,76,1,3,1,90.0,True
10859,6206, Note_on_c,65,76,1,3,1,76.0,True
10860,6207, Note_on_c,70,76,1,3,1,81.0,False
10861,6207, Note_on_c,75,76,1,3,1,87.0,False
10862,6208, Note_on_c,72,76,1,3,1,84.0,True
10863,6208, Note_on_c,77,76,1,3,1,90.0,True
10864,6209, Note_on_c,65,76,1,3,1,76.0,True
10865,6210, Note_on_c,70,76,1,3,1,81.0,False
10866,6210, Note_on_c,75,76,1,3,1,87.0,False
10867,6211, Note_on_c,72,76,1,3,1,84.0,True
10868,6211, Note_on_c,77,76,1,3,1,90.0,True
10869,6212, Note_on_c,70,76,1,3,1,81.0,False
10870,6212, Note_on_c,75,76,1,3,1,87.0,False
10871,6213, Note_on_c,73,76,1,3,1,85.0,False
10872,6213, Note_on_c,77,76,1,3,1,90.0,True
10873,6214, Note_on_c,65,76,1,3,1,76.0,True
10874,6215, Note_on_c,70,76,1,3,1,81.0,False
10875,6215, Note_on_c,75,76,1,3,1,87.0,False
10876,6216, Note_on_c,72,76,1,3,1,84.0,True
10877,6216, Note_on_c,77,76,1,3,1,90.0,True
10878,6217, Note_on_c,65,76,1,3,1,76.0,True
10879,6218, Note_on_c,70,76,1,3,1,81.0,False
10880,6218, Note_on_c,75,76,1,3,1,87.0,False
10881,6219, Note_on_c,72,76,1,3,1,84.0,True
10882,6219, Note_on_c,77,76,1,3,1,90.0,True
10883,6220, Note_on_c,70,76,1,3,1,81.0,False
10884,6220, Note_on_c,75,76,1,3,1,87.0,False
10885,6221, Note_on_c,73,76,1,3,1,85.0,False
10886,6221, Note_on_c,77,76,1,3,1,90.0,True
10887,6222, Note_on_c,65,76,1,3,1,76.0,True
10888,6223, Note_on_c,70,76,1,3,1,81.0,False
10889,6223, Note_on_c,75,76,1,3,1,87.0,False
10890,6224, Note_on_c,72,76,1,3,1,84.0,True
10891,6224, Note_on_c,77,76,1,3,1,90.0,True
10892,6225, Note_on_c,65,76,1,3,1,76.0,True
10893,6226, Note_on_c,70,76,1,3,1,81.0,False
10894,6226, Note_on_c,75,76,1,3,1,87.0,False
10895,6227, Note_on_c,72,76,1,3,1,84.0,True
10896,6227, Note_on_c,77,76,1,3,1,90.0,True
10897,6228, Note_on_c,70,76,1,3,1,81.0,False
10898,6228, Note_on_c,75,76,1,3,1,87.0,False
10899,6229, Note_on_c,73,76,1,3,1,85.0,False
10900,6229, Note_on_c,77,76,1,3,1,90.0,True
10901,6230, Note_on_c,65,76,1,3,1,76.0,True
10902,6231, Note_on_c,70,76,1,3,1,81.0,False
10903,6231, Note_on_c,75,76,1,3,1,87.0,False
10904,6232, Note_on_c,72,76,1,3,1,84.0,True
10905,6232, Note_on_c,77,76,1,3,1,90.0,True
10906,6233, Note_on_c,65,76,1,3,1,76.0,True
10907,6234, Note_on_c,70,76,1,3,1,81.0,False
10908,6234, Note_on_c,75,76,1,3,1,87.0,False
10909,6235, Note_on_c,72,76,1,3,1,84.0,True
10910,6235, Note_on_c,77,76,1,3,1,90.0,True
10911,6236, Note_on_c,70,76,1,3,1,81.0,False
10912,6236, Note_on_c,75,76,1,3,1,87.0,False
10913,6237, Note_on_c,73,76,1,3,1,85.0,False
10914,6237, Note_on_c,77,76,1,3,1,90.0,True
10915,6238, Note_on_c,65,76,1,3,1,76.0,True
10916,6239, Note_on_c,70,76,1,3,1,81.0,False
10917,6239, Note_on_c,75,76,1,3,1,87.0,False
10918,6240, Note_on_c,72,76,1,3,1,84.0,True
10919,6240, Note_on_c,77,76,1,3,1,90.0,True
10920,6241, Note_on_c,65,76,1,3,1,76.0,True
10921,6242, Note_on_c,70,76,1,3,1,81.0,False
10922,6242, Note_on_c,75,76,1,3,1,87.0,False
10923,6243, Note_on_c,72,76,1,3,1,84.0,True
10924,6243, Note_on_c,77,76,1,3,1,90.0,True
10925,6244, Note_on_c,70,76,1,3,1,81.0,False
10926,6244, Note_on_c,75,76,1,3,1,87.0,False
10927,6245, Note_on_c,73,76,1,3,1,85.0,False
10928,6245, Note_on_c,77,76,1,3,1,90.0,True
10929,6246, Note_on_c,65,76,1,3,1,76.0,True
10930,6247, Note_on_c,70,76,1,3,1,81.0,False
10931,6247, Note_on_c,75,76,1,3,1,87.0,False
10932,6248, Note_on_c,72,76,1,3,1,84.0,True
10933,6248, Note_on_c,77,76,1,3,1,90.0,True
10934,6249, Note_on_c,65,76,1,3,1,76.0,True
10935,6250, Note_on_c,70,76,1,3,1,81.0,False
10936,6250, Note_on_c,75,76,1,3,1,87.0,False
10937,6251, Note_on_c,72,76,1,3,1,84.0,True
10938,6251, Note_on_c,77,76,1,3,1,90.0,True
10939,6252, Note_on_c,70,76,1,3,1,81.0,False
10940,6252, Note_on_c,75,76,1,3,1,87.0,False
10941,6253, Note_on_c,73,76,1,3,1,85.0,False
10942,6253, Note_on_c,77,76,1,3,1,90.0,True
10943,6254, Note_on_c,65,76,1,3,1,76.0,True
10944,6255, Note_on_c,70,76,1,3,1,81.0,False
10945,6255, Note_on_c,75,76,1,3,1,87.0,False
10946,6256, Note_on_c,72,76,1,3,1,84.0,True
10947,6256, Note_on_c,77,76,1,3,1,90.0,True
10948,6257, Note_on_c,65,76,1,3,1,76.0,True
10949,6258, Note_on_c,70,76,1,3,1,81.0,False
10950,6258, Note_on_c,75,76,1,3,1,87.0,False
10951,6259, Note_on_c,72,76,1,3,1,84.0,True
10952,6259, Note_on_c,77,76,1,3,1,90.0,True
10953,6260, Note_on_c,70,76,1,3,1,81.0,False
10954,6260, Note_on_c,75,76,1,3,1,87.0,False
10955,6261, Note_on_c,73,76,1,3,1,85.0,False
10956,6261, Note_on_c,77,76,1,3,1,90.0,True
10957,6262, Note_on_c,65,76,1,3,1,76.0,True
10958,6263, Note_on_c,70,76,1,3,1,81.0,False
10959,6263, Note_on_c,75,76,1,3,1,87.0,False
10960,6264, Note_on_c,72,76,1,3,1,84.0,True
10961,6264, Note_on_c,77,76,1,3,1,90.0,True
10962,6265, Note_on_c,65,76,1,3,1,76.0,True
10963,6266, Note_on_c,70,76,1,3,1,81.0,False
10964,6266, Note_on_c,75,76,1,3,1,87.0,False
10965,6267, Note_on_c,72,76,1,3,1,84.0,True
10966,6267, Note_on_c,77,76,1,3,1,90.0,True
10967,6268, Note_on_c,70,76,1,3,1,81.0,False
10968,6268, Note_on_c,75,76,1,3,1,87.0,False
10969,6269, Note_on_c,73,76,1,3,1,85.0,False
10970,6269, Note_on_c,77,76,1,3,1,90.0,True
10971,6270, Note_on_c,65,76,1,3,1,76.0,True
10972,6271, Note_on_c,70,76,1,3,1,81.0,False
10973,6271, Note_on_c,75,76,1,3,1,87.0,False
10974,6272, Note_on_c,72,76,1,3,1,84.0,True
10975,6272, Note_on_c,77,76,1,3,1,90.0,True
10976,6273, Note_on_c,65,76,1,3,1,76.0,True
10977,6274, Note_on_c,70,76,1,3,1,81.0,False
10978,6274, Note_on_c,75,76,1,3,1,87.0,False
10979,6275, Note_on_c,72,76,1,3,1,84.0,True
10980,6275, Note_on_c,77,76,1,3,1,90.0,True
10981,6276, Note_on_c,70,76,1,3,1,81.0,False
10982,6276, Note_on_c,75,76,1,3,1,87.0,False
10983,6277, Note_on_c,73,76,1,3,1,85.0,False
10984,6277, Note_on_c,77,76,1,3,1,90.0,True
10985,6278, Note_on_c,65,76,1,3,1,76.0,True
10986,6279, Note_on_c,70,76,1,3,1,81.0,False
10987,6279, Note_on_c,75,76,1,3,1,87.0,False
10988,6280, Note_on_c,72,76,1,3,1,84.0,True
10989,6280, Note_on_c,77,76,1,3,1,90.0,True
10990,6281, Note_on_c,65,76,1,3,1,76.0,True
10991,6282, Note_on_c,70,76,1,3,1,81.0,False
10992,6282, Note_on_c,75,76,1,3,1,87.0,False
10993,6283, Note_on_c,72,76,1,3,1,84.0,True
10994,6283, Note_on_c,77,76,1,3,1,90.0,True
10995,6284, Note_on_c,70,76,1,3,1,81.0,False
10996,6284, Note_on_c,75,76,1,3,1,87.0,False
10997,6285, Note_on_c,73,76,1,3,1,85.0,False
10998,6285, Note_on_c,77,76,1,3,1,90.0,True
10999,6286, Note_on_c,65,76,1,3,1,76.0,True
11000,6287, Note_on_c,70,76,1,3,1,81.0,False
11001,6287, Note_on_c,75,76,1,3,1,87.0,False
11002,6288, Note_on_c,72,76,1,3,1,84.0,True
11003,6288, Note_on_c,77,76,1,3,1,90.0,True
11004,6289, Note_on_c,65,76,1,3,1,76.0,True
11005,6290, Note_on_c,70,76,1,3,1,81.0,False
11006,6290, Note_on_c,75,76,1,3,1,87.0,False
11007,6291, Note_on_c,72,76,1,3,1,84.0,True
11008,6291, Note_on_c,77,76,1,3,1,90.0,True
11009,6292, Note_on_c,70,76,1,3,1,81.0,False
11010,6292, Note_on_c,75,76,1,3,1,87.0,False
11011,6293, Note_on_c,73,76,1,3,1,85.0,False
11012,6293, Note_on_c,77,76,1,3,1,90.0,True
11013,6294, Note_on_c,65,76,1,3,1,76.0,True
11014,6295, Note_on_c,70,76,1,3,1,81.0,False
11015,6295, Note_on_c,75,76,1,3,1,87.0,False
11016,6296, Note_on_c,72,76,1,3,1,84.0,True
11017,6296, Note_on_c,77,76,1,3,1,90.0,True
11018,6297, Note_on_c,65,76,1,3,1,76.0,True
11019,6298, Note_on_c,70,76,1,3,1,81.0,False
11020,6298, Note_on_c,75,76,1,3,1,87.0,False
11021,6299, Note_on_c,72,76,1,3,1,84.0,True
11022,6299, Note_on_c,77,76,1,3,1,90.0,True
11023,6300, Note_on_c,70,76,1,3,1,81.0,False
11024,6300, Note_on_c,75,76,1,3,1,87.0,False
11025,6301, Note_on_c,73,76,1,3,1,85.0,False
11026,6301, Note_on_c,77,76,1,3,1,90.0,True
11027,6302, Note_on_c,65,76,1,3,1,76.0,True
11028,6303, Note_on_c,70,76,1,3,1,81.0,False
11029,6303, Note_on_c,75,76,1,3,1,87.0,False
11030,6304, Note_on_c,72,76,1,3,1,84.0,True
11031,6304, Note_on_c,77,76,1,3,1,90.0,True
11032,6305, Note_on_c,65,76,1,3,1,76.0,True
11033,6306, Note_on_c,70,76,1,3,1,81.0,False
11034,6306, Note_on_c,75,76,1,3,1,87.0,False
11035,6307, Note_on_c,72,76,1,3,1,84.0,True
11036,6307, Note_on_c,77,76,1,3,1,90.0,True
11037,6308, Note_on_c,70,76,1,3,1,81.0,False
11038,6308, Note_on_c,75,76,1,3,1,87.0,False
11039,6309, Note_on_c,73,76,1,3,1,85.0,False
11040,6309, Note_on_c,77,76,1,3,1,90.0,True
11041,6310, Note_on_c,65,76,1,3,1,76.0,True
11042,6311, Note_on_c,70,76,1,3,1,81.0,False
11043,6311, Note_on_c,75,76,1,3,1,87.0,False
11044,6312, Note_on_c,72,76,1,3,1,84.0,True
11045,6312, Note_on_c,77,76,1,3,1,90.0,True
11046,6313, Note_on_c,65,76,1,3,1,76.0,True
11047,6314, Note_on_c,70,76,1,3,1,81.0,False
11048,6314, Note_on_c,75,76,1,3,1,87.0,False
11049,6315, Note_on_c,72,76,1,3,1,84.0,True
11050,6315, Note_on_c,77,76,1,3,1,90.0,True
11051,6316, Note_on_c,70,76,1,3,1,81.0,False
11052,6316, Note_on_c,75,76,1,3,1,87.0,False
11053,6317, Note_on_c,73,76,1,3,1,85.0,False
11054,6317, Note_on_c,77,76,1,3,1,90.0,True
11055,6318, Note_on_c,65,76,1,3,1,76.0,True
11056,6319, Note_on_c,70,76,1,3,1,81.0,False
11057,6319, Note_on_c,75,76,1,3,1,87.0,False
11058,6320, Note_on_c,72,76,1,3,1,84.0,True
11059,6320, Note_on_c,77,76,1,3,1,90.0,True
11060,6321, Note_on_c,65,76,1,3,1,76.0,True
11061,6322, Note_on_c,70,76,1,3,1,81.0,False
11062,6322, Note_on_c,75,76,1,3,1,87.0,False
11063,6323, Note_on_c,72,76,1,3,1,84.0,True
11064,6323, Note_on_c,77,76,1,3,1,90.0,True
11065,6324, Note_on_c,70,76,1,3,1,81.0,False
11066,6324, Note_on_c,75,76,1,3,1,87.0,False
11067,6325, Note_on_c,73,76,1,3,1,85.0,False
11068,6325, Note_on_c,77,76,1,3,1,90.0,True
11069,6326, Note_on_c,65,76,1,3,1,76.0,True
11070,6327, Note_on_c,70,76,1,3,1,81.0,False
11071,6327, Note_on_c,75,76,1,3,1,87.0,False
11072,6328, Note_on_c,72,76,1,3,1,84.0,True
11073,6328, Note_on_c,77,76,1,3,1,90.0,True
11074,6329, Note_on_c,65,76,1,3,1,76.0,True
11075,6330, Note_on_c,70,76,1,3,1,81.0,False
11076,6330, Note_on_c,75,76,1,3,1,87.0,False
11077,6331, Note_on_c,72,76,1,3,1,84.0,True
11078,6331, Note_on_c,77,76,1,3,1,90.0,True
11079,6332, Note_on_c,70,76,1,3,1,81.0,False
11080,6332, Note_on_c,75,76,1,3,1,87.0,False
11081,6333, Note_on_c,73,76,1,3,1,85.0,False
11082,6333, Note_on_c,77,76,1,3,1,90.0,True
11083,6334, Note_on_c,65,76,1,3,1,76.0,True
11084,6335, Note_on_c,70,76,1,3,1,81.0,False
11085,6335, Note_on_c,75,76,1,3,1,87.0,False
11086,6336, Note_on_c,72,76,1,3,1,84.0,True
11087,6336, Note_on_c,77,76,1,3,1,90.0,True
11088,6337, Note_on_c,65,76,1,3,1,76.0,True
11089,6338, Note_on_c,70,76,1,3,1,81.0,False
11090,6338, Note_on_c,75,76,1,3,1,87.0,False
11091,6339, Note_on_c,72,76,1,3,1,84.0,True
11092,6339, Note_on_c,77,76,1,3,1,90.0,True
11093,6340, Note_on_c,70,76,1,3,1,81.0,False
11094,6340, Note_on_c,75,76,1,3,1,87.0,False
11095,6341, Note_on_c,73,76,1,3,1,85.0,False
11096,6341, Note_on_c,77,76,1,3,1,90.0,True
11097,6342, Note_on_c,65,76,1,3,1,76.0,True
11098,6343, Note_on_c,70,76,1,3,1,81.0,False
11099,6343, Note_on_c,75,76,1,3,1,87.0,False
11100,6344, Note_on_c,72,76,1,3,1,84.0,True
11101,6344, Note_on_c,77,76,1,3,1,90.0,True
11102,6345, Note_on_c,65,76,1,3,1,76.0,True
11103,6346, Note_on_c,70,76,1,3,1,81.0,False
11104,6346, Note_on_c,75,76,1,3,1,87.0,False
11105,6347, Note_on_c,72,76,1,3,1,84.0,True
11106,6347, Note_on_c,77,76,1,3,1,90.0,True
11107,6348, Note_on_c,70,76,1,3,1,81.0,False
11108,6348, Note_on_c,75,76,1,3,1,87.0,False
11109,6349, Note_on_c,73,76,1,3,1,85.0,False
11110,6349, Note_on_c,77,76,1,3,1,90.0,True
11111,6350, Note_on_c,65,76,1,3,1,76.0,True
11112,6351, Note_on_c,70,76,1,3,1,81.0,False
11113,6351, Note_on_c,75,76,1,3,1,87.0,False
11114,6352, Note_on_c,72,76,1,3,1,84.0,True
11115,6352, Note_on_c,77,76,1,3,1,90.0,True
11116,6353, Note_on_c,65,76,1,3,1,76.0,True
11117,6354, Note_on_c,70,76,1,3,1,81.0,False
11118,6354, Note_on_c,75,76,1,3,1,87.0,False
11119,6355, Note_on_c,72,76,1,3,1,84.0,True
11120,6355, Note_on_c,77,76,1,3,1,90.0,True
11121,6356, Note_on_c,70,76,1,3,1,81.0,False
11122,6356, Note_on_c,75,76,1,3,1,87.0,False
11123,6357, Note_on_c,73,76,1,3,1,85.0,False
11124,6357, Note_on_c,77,76,1,3,1,90.0,True
11125,6358, Note_on_c,65,76,1,3,1,76.0,True
11126,6359, Note_on_c,70,76,1,3,1,81.0,False
11127,6359, Note_on_c,75,76,1,3,1,87.0,False
11128,6360, Note_on_c,72,76,1,3,1,84.0,True
11129,6360, Note_on_c,77,76,1,3,1,90.0,True
11130,6361, Note_on_c,65,76,1,3,1,76.0,True
11131,6362, Note_on_c,70,76,1,3,1,81.0,False
11132,6362, Note_on_c,75,76,1,3,1,87.0,False
11133,6363, Note_on_c,72,76,1,3,1,84.0,True
11134,6363, Note_on_c,77,76,1,3,1,90.0,True
11135,6364, Note_on_c,70,76,1,3,1,81.0,False
11136,6364, Note_on_c,75,76,1,3,1,87.0,False
11137,6365, Note_on_c,73,76,1,3,1,85.0,False
11138,6365, Note_on_c,77,76,1,3,1,90.0,True
11139,6366, Note_on_c,65,76,1,3,1,76.0,True
11140,6367, Note_on_c,70,76,1,3,1,81.0,False
11141,6367, Note_on_c,75,76,1,3,1,87.0,False
11142,6368, Note_on_c,72,76,1,3,1,84.0,True
11143,6368, Note_on_c,77,76,1,3,1,90.0,True
11144,6369, Note_on_c,65,76,1,3,1,76.0,True
11145,6370, Note_on_c,70,76,1,3,1,81.0,False
11146,6370, Note_on_c,75,76,1,3,1,87.0,False
11147,6371, Note_on_c,72,76,1,3,1,84.0,True
11148,6371, Note_on_c,77,76,1,3,1,90.0,True
11149,6372, Note_on_c,70,76,1,3,1,81.0,False
11150,6372, Note_on_c,75,76,1,3,1,87.0,False
11151,6373, Note_on_c,73,76,1,3,1,85.0,False
11152,6373, Note_on_c,77,76,1,3,1,90.0,True
11153,6374, Note_on_c,65,76,1,3,1,76.0,True
11154,6375, Note_on_c,70,76,1,3,1,81.0,False
11155,6375, Note_on_c,75,76,1,3,1,87.0,False
11156,6376, Note_on_c,72,76,1,3,1,84.0,True
11157,6376, Note_on_c,77,76,1,3,1,90.0,True
11158,6377, Note_on_c,65,76,1,3,1,76.0,True
11159,6378, Note_on_c,70,76,1,3,1,81.0,False
11160,6378, Note_on_c,75,76,1,3,1,87.0,False
11161,6379, Note_on_c,72,76,1,3,1,84.0,True
11162,6379, Note_on_c,77,76,1,3,1,90.0,True
11163,6380, Note_on_c,70,76,1,3,1,81.0,False
11164,6380, Note_on_c,75,76,1,3,1,87.0,False
11165,6381, Note_on_c,73,76,1,3,1,85.0,False
11166,6381, Note_on_c,77,76,1,3,1,90.0,True
11167,6382, Note_on_c,65,76,1,3,1,76.0,True
11168,6383, Note_on_c,70,76,1,3,1,81.0,False
11169,6383, Note_on_c,75,76,1,3,1,87.0,False
11170,6384, Note_on_c,72,76,1,3,1,84.0,True
11171,6384, Note_on_c,77,76,1,3,1,90.0,True
11172,6385, Note_on_c,65,76,1,3,1,76.0,True
11173,6386, Note_on_c,70,76,1,3,1,81.0,False
11174,6386, Note_on_c,75,76,1,3,1,87.0,False
11175,6387, Note_on_c,72,76,1,3,1,84.0,True
11176,6387, Note_on_c,77,76,1,3,1,90.0,True
11177,6388, Note_on_c,70,76,1,3,1,81.0,False
11178,6388, Note_on_c,75,76,1,3,1,87.0,False
11179,6389, Note_on_c,73,76,1,3,1,85.0,False
11180,6389, Note_on_c,77,76,1,3,1,90.0,True
11181,6390, Note_on_c,65,76,1,3,1,76.0,True
11182,6391, Note_on_c,70,76,1,3,1,81.0,False
11183,6391, Note_on_c,75,76,1,3,1,87.0,False
11184,6392, Note_on_c,72,76,1,3,1,84.0,True
11185,6392, Note_on_c,77,76,1,3,1,90.0,True
11186,6393, Note_on_c,65,76,1,3,1,76.0,True
11187,6394, Note_on_c,70,76,1,3,1,81.0,False
11188,6394, Note_on_c,75,76,1,3,1,87.0,False
11189,6395, Note_on_c,72,76,1,3,1,84.0,True
11190,6395, Note_on_c,77,76,1,3,1,90.0,True
11191,6396, Note_on_c,70,76,1,3,1,81.0,False
11192,6396, Note_on_c,75,76,1,3,1,87.0,False
11193,6397, Note_on_c,73,76,1,3,1,85.0,False
11194,6397, Note_on_c,77,76,1,3,1,90.0,True
11195,6398, Note_on_c,65,76,1,3,1,76.0,True
11196,6399, Note_on_c,70,76,1,3,1,81.0,False
11197,6399, Note_on_c,75,76,1,3,1,87.0,False
11198,6400, Note_on_c,72,76,1,3,1,84.0,True
11199,6400, Note_on_c,77,76,1,3,1,90.0,True
11200,6401, Note_on_c,65,76,1,3,1,76.0,True
11201,6402, Note_on_c,70,76,1,3,1,81.0,False
11202,6402, Note_on_c,75,76,1,3,1,87.0,False
11203,6403, Note_on_c,72,76,1,3,1,84.0,True
11204,6403, Note_on_c,77,76,1,3,1,90.0,True
11205,6404, Note_on_c,70,76,1,3,1,81.0,False
11206,6404, Note_on_c,75,76,1,3,1,87.0,False
11207,6405, Note_on_c,73,76,1,3,1,85.0,False
11208,6405, Note_on_c,77,76,1,3,1,90.0,True
11209,6406, Note_on_c,65,76,1,3,1,76.0,True
11210,6407, Note_on_c,70,76,1,3,1,81.0,False
11211,6407, Note_on_c,75,76,1,3,1,87.0,False
11212,6408, Note_on_c,72,76,1,3,1,84.0,True
11213,6408, Note_on_c,77,76,1,3,1,90.0,True
11214,6409, Note_on_c,65,76,1,3,1,76.0,True
11215,6410, Note_on_c,70,76,1,3,1,81.0,False
11216,6410, Note_on_c,75,76,1,3,1,87.0,False
11217,6411, Note_on_c,72,76,1,3,1,84.0,True
11218,6411, Note_on_c,77,76,1,3,1,90.0,True
11219,6412, Note_on_c,70,76,1,3,1,81.0,False
11220,6412, Note_on_c,75,76,1,3,1,87.0,False
11221,6413, Note_on_c,73,76,1,3,1,85.0,False
11222,6413, Note_on_c,77,76,1,3,1,90.0,True
11223,6414, Note_on_c,65,76,1,3,1,76.0,True
11224,6415, Note_on_c,70,76,1,3,1,81.0,False
11225,6415, Note_on_c,75,76,1,3,1,87.0,False
11226,6416, Note_on_c,72,76,1,3,1,84.0,True
11227,6416, Note_on_c,77,76,1,3,1,90.0,True
11228,6417, Note_on_c,65,76,1,3,1,76.0,True
11229,6418, Note_on_c,70,76,1,3,1,81.0,False
11230,6418, Note_on_c,75,76,1,3,1,87.0,False
11231,6419, Note_on_c,72,76,1,3,1,84.0,True
11232,6419, Note_on_c,77,76,1,3,1,90.0,True
11233,6420, Note_on_c,70,76,1,3,1,81.0,False
11234,6420, Note_on_c,75,76,1,3,1,87.0,False
11235,6421, Note_on_c,73,76,1,3,1,85.0,False
11236,6421, Note_on_c,77,76,1,3,1,90.0,True
11237,6422, Note_on_c,65,76,1,3,1,76.0,True
11238,6423, Note_on_c,70,76,1,3,1,81.0,False
11239,6423, Note_on_c,75,76,1,3,1,87.0,False
11240,6424, Note_on_c,72,76,1,3,1,84.0,True
11241,6424, Note_on_c,77,76,1,3,1,90.0,True
11242,6425, Note_on_c,65,76,1,3,1,76.0,True
11243,6426, Note_on_c,70,76,1,3,1,81.0,False
11244,6426, Note_on_c,75,76,1,3,1,87.0,False
11245,6427, Note_on_c,72,76,1,3,1,84.0,True
11246,6427, Note_on_c,77,76,1,3,1,90.0,True
11247,6428, Note_on_c,70,76,1,3,1,81.0,False
11248,6428, Note_on_c,75,76,1,3,1,87.0,False
11249,6429, Note_on_c,73,76,1,3,1,85.0,False
11250,6429, Note_on_c,77,76,1,3,1,90.0,True
11251,6430, Note_on_c,65,76,1,3,1,76.0,True
11252,6431, Note_on_c,70,76,1,3,1,81.0,False
11253,6431, Note_on_c,75,76,1,3,1,87.0,False
11254,6432, Note_on_c,72,76,1,3,1,84.0,True
11255,6432, Note_on_c,77,76,1,3,1,90.0,True
11256,6433, Note_on_c,65,76,1,3,1,76.0,True
11257,6434, Note_on_c,70,76,1,3,1,81.0,False
11258,6434, Note_on_c,75,76,1,3,1,87.0,False
11259,6435, Note_on_c,72,76,1,3,1,84.0,True
11260,6435, Note_on_c,77,76,1,3,1,90.0,True
11261,6436, Note_on_c,70,76,1,3,1,81.0,False
11262,6436, Note_on_c,75,76,1,3,1,87.0,False
11263,6437, Note_on_c,73,76,1,3,1,85.0,False
11264,6437, Note_on_c,77,76,1,3,1,90.0,True
11265,6438, Note_on_c,65,76,1,3,1,76.0,True
11266,6439, Note_on_c,70,76,1,3,1,81.0,False
11267,6439, Note_on_c,75,76,1,3,1,87.0,False
11268,6440, Note_on_c,72,76,1,3,1,84.0,True
11269,6440, Note_on_c,77,76,1,3,1,90.0,True
11270,6441, Note_on_c,65,76,1,3,1,76.0,True
11271,6442, Note_on_c,70,76,1,3,1,81.0,False
11272,6442, Note_on_c,75,76,1,3,1,87.0,False
11273,6443, Note_on_c,72,76,1,3,1,84.0,True
11274,6443, Note_on_c,77,76,1,3,1,90.0,True
11275,6444, Note_on_c,70,76,1,3,1,81.0,False
11276,6444, Note_on_c,75,76,1,3,1,87.0,False
11277,6445, Note_on_c,73,76,1,3,1,85.0,False
11278,6445, Note_on_c,77,76,1,3,1,90.0,True
11279,6446, Note_on_c,65,76,1,3,1,76.0,True
11280,6447, Note_on_c,70,76,1,3,1,81.0,False
11281,6447, Note_on_c,75,76,1,3,1,87.0,False
11282,6448, Note_on_c,72,76,1,3,1,84.0,True
11283,6448, Note_on_c,77,76,1,3,1,90.0,True
11284,6449, Note_on_c,65,76,1,3,1,76.0,True
11285,6450, Note_on_c,70,76,1,3,1,81.0,False
11286,6450, Note_on_c,75,76,1,3,1,87.0,False
11287,6451, Note_on_c,72,76,1,3,1,84.0,True
11288,6451, Note_on_c,77,76,1,3,1,90.0,True
11289,6452, Note_on_c,70,76,1,3,1,81.0,False
11290,6452, Note_on_c,75,76,1,3,1,87.0,False
11291,6453, Note_on_c,73,76,1,3,1,85.0,False
11292,6453, Note_on_c,77,76,1,3,1,90.0,True
11293,6454, Note_on_c,65,76,1,3,1,76.0,True
11294,6455, Note_on_c,70,76,1,3,1,81.0,False
11295,6455, Note_on_c,75,76,1,3,1,87.0,False
11296,6456, Note_on_c,72,76,1,3,1,84.0,True
11297,6456, Note_on_c,77,76,1,3,1,90.0,True
11298,6457, Note_on_c,65,76,1,3,1,76.0,True
11299,6458, Note_on_c,70,76,1,3,1,81.0,False
11300,6458, Note_on_c,75,76,1,3,1,87.0,False
11301,6459, Note_on_c,72,76,1,3,1,84.0,True
11302,6459, Note_on_c,77,76,1,3,1,90.0,True
11303,6460, Note_on_c,70,76,1,3,1,81.0,False
11304,6460, Note_on_c,75,76,1,3,1,87.0,False
11305,6461, Note_on_c,73,76,1,3,1,85.0,False
11306,6461, Note_on_c,77,76,1,3,1,90.0,True
11307,6462, Note_on_c,65,76,1,3,1,76.0,True
11308,6463, Note_on_c,70,76,1,3,1,81.0,False
11309,6463, Note_on_c,75,76,1,3,1,87.0,False
11310,6464, Note_on_c,72,76,1,3,1,84.0,True
11311,6464, Note_on_c,77,76,1,3,1,90.0,True
11312,6465, Note_on_c,65,76,1,3,1,76.0,True
11313,6466, Note_on_c,70,76,1,3,1,81.0,False
11314,6466, Note_on_c,75,76,1,3,1,87.0,False
11315,6467, Note_on_c,72,76,1,3,1,84.0,True
11316,6467, Note_on_c,77,76,1,3,1,90.0,True
11317,6468, Note_on_c,70,76,1,3,1,81.0,False
11318,6468, Note_on_c,75,76,1,3,1,87.0,False
11319,6469, Note_on_c,73,76,1,3,1,85.0,False
11320,6469, Note_on_c,77,76,1,3,1,90.0,True
11321,6470, Note_on_c,65,76,1,3,1,76.0,True
11322,6471, Note_on_c,70,76,1,3,1,81.0,False
11323,6471, Note_on_c,75,76,1,3,1,87.0,False
11324,6472, Note_on_c,72,76,1,3,1,84.0,True
11325,6472, Note_on_c,77,76,1,3,1,90.0,True
11326,6473, Note_on_c,65,76,1,3,1,76.0,True
11327,6474, Note_on_c,70,76,1,3,1,81.0,False
11328,6474, Note_on_c,75,76,1,3,1,87.0,False
11329,6475, Note_on_c,72,76,1,3,1,84.0,True
11330,6475, Note_on_c,77,76,1,3,1,90.0,True
11331,6476, Note_on_c,70,76,1,3,1,81.0,False
11332,6476, Note_on_c,75,76,1,3,1,87.0,False
11333,6477, Note_on_c,73,76,1,3,1,85.0,False
11334,6477, Note_on_c,77,76,1,3,1,90.0,True
11335,6478, Note_on_c,65,76,1,3,1,76.0,True
11336,6479, Note_on_c,70,76,1,3,1,81.0,False
11337,6479, Note_on_c,75,76,1,3,1,87.0,False
11338,6480, Note_on_c,72,76,1,3,1,84.0,True
11339,6480, Note_on_c,77,76,1,3,1,90.0,True
11340,6481, Note_on_c,65,76,1,3,1,76.0,True
11341,6482, Note_on_c,70,76,1,3,1,81.0,False
11342,6482, Note_on_c,75,76,1,3,1,87.0,False
11343,6483, Note_on_c,72,76,1,3,1,84.0,True
11344,6483, Note_on_c,77,76,1,3,1,90.0,True
11345,6484, Note_on_c,70,76,1,3,1,81.0,False
11346,6484, Note_on_c,75,76,1,3,1,87.0,False
11347,6485, Note_on_c,73,76,1,3,1,85.0,False
11348,6485, Note_on_c,77,76,1,3,1,90.0,True
11349,6486, Note_on_c,65,76,1,3,1,76.0,True
11350,6487, Note_on_c,70,76,1,3,1,81.0,False
11351,6487, Note_on_c,75,76,1,3,1,87.0,False
11352,6488, Note_on_c,72,76,1,3,1,84.0,True
11353,6488, Note_on_c,77,76,1,3,1,90.0,True
11354,6489, Note_on_c,65,76,1,3,1,76.0,True
11355,6490, Note_on_c,70,76,1,3,1,81.0,False
11356,6490, Note_on_c,75,76,1,3,1,87.0,False
11357,6491, Note_on_c,72,76,1,3,1,84.0,True
11358,6491, Note_on_c,77,76,1,3,1,90.0,True
11359,6492, Note_on_c,70,76,1,3,1,81.0,False
11360,6492, Note_on_c,75,76,1,3,1,87.0,False
11361,6493, Note_on_c,73,76,1,3,1,85.0,False
11362,6493, Note_on_c,77,76,1,3,1,90.0,True
11363,6494, Note_on_c,65,76,1,3,1,76.0,True
11364,6495, Note_on_c,70,76,1,3,1,81.0,False
11365,6495, Note_on_c,75,76,1,3,1,87.0,False
11366,6496, Note_on_c,72,76,1,3,1,84.0,True
11367,6496, Note_on_c,77,76,1,3,1,90.0,True
11368,6497, Note_on_c,65,76,1,3,1,76.0,True
11369,6498, Note_on_c,70,76,1,3,1,81.0,False
11370,6498, Note_on_c,75,76,1,3,1,87.0,False
11371,6499, Note_on_c,72,76,1,3,1,84.0,True
11372,6499, Note_on_c,77,76,1,3,1,90.0,True
11373,6500, Note_on_c,70,76,1,3,1,81.0,False
11374,6500, Note_on_c,75,76,1,3,1,87.0,False
11375,6501, Note_on_c,73,76,1,3,1,85.0,False
11376,6501, Note_on_c,77,76,1,3,1,90.0,True
11377,6502, Note_on_c,65,76,1,3,1,76.0,True
11378,6503, Note_on_c,70,76,1,3,1,81.0,False
11379,6503, Note_on_c,75,76,1,3,1,87.0,False
11380,6504, Note_on_c,72,76,1,3,1,84.0,True
11381,6504, Note_on_c,77,76,1,3,1,90.0,True
11382,6505, Note_on_c,65,76,1,3,1,76.0,True
11383,6506, Note_on_c,70,76,1,3,1,81.0,False
11384,6506, Note_on_c,75,76,1,3,1,87.0,False
11385,6507, Note_on_c,72,76,1,3,1,84.0,True
11386,6507, Note_on_c,77,76,1,3,1,90.0,True
11387,6508, Note_on_c,70,76,1,3,1,81.0,False
11388,6508, Note_on_c,75,76,1,3,1,87.0,False
11389,6509, Note_on_c,73,76,1,3,1,85.0,False
11390,6509, Note_on_c,77,76,1,3,1,90.0,True
11391,6510, Note_on_c,65,76,1,3,1,76.0,True
11392,6511, Note_on_c,70,76,1,3,1,81.0,False
11393,6511, Note_on_c,75,76,1,3,1,87.0,False
11394,6512, Note_on_c,72,76,1,3,1,84.0,True
11395,6512, Note_on_c,77,76,1,3,1,90.0,True
11396,6513, Note_on_c,65,76,1,3,1,76.0,True
11397,6514, Note_on_c,70,76,1,3,1,81.0,False
11398,6514, Note_on_c,75,76,1,3,1,87.0,False
11399,6515, Note_on_c,72,76,1,3,1,84.0,True
11400,6515, Note_on_c,77,76,1,3,1,90.0,True
11401,6516, Note_on_c,70,76,1,3,1,81.0,False
11402,6516, Note_on_c,75,76,1,3,1,87.0,False
11403,6517, Note_on_c,73,76,1,3,1,85.0,False
11404,6517, Note_on_c,77,76,1,3,1,90.0,True
11405,6518, Note_on_c,65,76,1,3,1,76.0,True
11406,6519, Note_on_c,70,76,1,3,1,81.0,False
11407,6519, Note_on_c,75,76,1,3,1,87.0,False
11408,6520, Note_on_c,72,76,1,3,1,84.0,True
11409,6520, Note_on_c,77,76,1,3,1,90.0,True
11410,6521, Note_on_c,65,76,1,3,1,76.0,True
11411,6522, Note_on_c,70,76,1,3,1,81.0,False
11412,6522, Note_on_c,75,76,1,3,1,87.0,False
11413,6523, Note_on_c,72,76,1,3,1,84.0,True
11414,6523, Note_on_c,77,76,1,3,1,90.0,True
11415,6524, Note_on_c,70,76,1,3,1,81.0,False
11416,6524, Note_on_c,75,76,1,3,1,87.0,False
11417,6525, Note_on_c,73,76,1,3,1,85.0,False
11418,6525, Note_on_c,77,76,1,3,1,90.0,True
11419,6526, Note_on_c,65,76,1,3,1,76.0,True
11420,6527, Note_on_c,70,76,1,3,1,81.0,False
11421,6527, Note_on_c,75,76,1,3,1,87.0,False
11422,6528, Note_on_c,72,76,1,3,1,84.0,True
11423,6528, Note_on_c,77,76,1,3,1,90.0,True
11424,6529, Note_on_c,65,76,1,3,1,76.0,True
11425,6530, Note_on_c,70,76,1,3,1,81.0,False
11426,6530, Note_on_c,75,76,1,3,1,87.0,False
11427,6531, Note_on_c,72,76,1,3,1,84.0,True
11428,6531, Note_on_c,77,76,1,3,1,90.0,True
11429,6532, Note_on_c,70,76,1,3,1,81.0,False
11430,6532, Note_on_c,75,76,1,3,1,87.0,False
11431,6533, Note_on_c,73,76,1,3,1,85.0,False
11432,6533, Note_on_c,77,76,1,3,1,90.0,True
11433,6534, Note_on_c,65,76,1,3,1,76.0,True
11434,6535, Note_on_c,70,76,1,3,1,81.0,False
11435,6535, Note_on_c,75,76,1,3,1,87.0,False
11436,6536, Note_on_c,72,76,1,3,1,84.0,True
11437,6536, Note_on_c,77,76,1,3,1,90.0,True
11438,6537, Note_on_c,65,76,1,3,1,76.0,True
11439,6538, Note_on_c,70,76,1,3,1,81.0,False
11440,6538, Note_on_c,75,76,1,3,1,87.0,False
11441,6539, Note_on_c,72,76,1,3,1,84.0,True
11442,6539, Note_on_c,77,76,1,3,1,90.0,True
11443,6540, Note_on_c,70,76,1,3,1,81.0,False
11444,6540, Note_on_c,75,76,1,3,1,87.0,False
11445,6541, Note_on_c,73,76,1,3,1,85.0,False
11446,6541, Note_on_c,77,76,1,3,1,90.0,True
11447,6542, Note_on_c,65,76,1,3,1,76.0,True
11448,6543, Note_on_c,70,76,1,3,1,81.0,False
11449,6543, Note_on_c,75,76,1,3,1,87.0,False
11450,6544, Note_on_c,72,76,1,3,1,84.0,True
11451,6544, Note_on_c,77,76,1,3,1,90.0,True
11452,6545, Note_on_c,65,76,1,3,1,76.0,True
11453,6546, Note_on_c,70,76,1,3,1,81.0,False
11454,6546, Note_on_c,75,76,1,3,1,87.0,False
11455,6547, Note_on_c,72,76,1,3,1,84.0,True
11456,6547, Note_on_c,77,76,1,3,1,90.0,True
11457,6548, Note_on_c,70,76,1,3,1,81.0,False
11458,6548, Note_on_c,75,76,1,3,1,87.0,False
11459,6549, Note_on_c,73,76,1,3,1,85.0,False
11460,6549, Note_on_c,77,76,1,3,1,90.0,True
11461,6550, Note_on_c,65,76,1,3,1,76.0,True
11462,6551, Note_on_c,70,76,1,3,1,81.0,False
11463,6551, Note_on_c,75,76,1,3,1,87.0,False
11464,6552, Note_on_c,72,76,1,3,1,84.0,True
11465,6552, Note_on_c,77,76,1,3,1,90.0,True
11466,6553, Note_on_c,65,76,1,3,1,76.0,True
11467,6554, Note_on_c,70,76,1,3,1,81.0,False
11468,6554, Note_on_c,75,76,1,3,1,87.0,False
11469,6555, Note_on_c,72,76,1,3,1,84.0,True
11470,6555, Note_on_c,77,76,1,3,1,90.0,True
11471,6556, Note_on_c,70,76,1,3,1,81.0,False
11472,6556, Note_on_c,75,76,1,3,1,87.0,False
11473,6557, Note_on_c,73,76,1,3,1,85.0,False
11474,6557, Note_on_c,77,76,1,3,1,90.0,True
11475,6558, Note_on_c,65,76,1,3,1,76.0,True
11476,6559, Note_on_c,70,76,1,3,1,81.0,False
11477,6559, Note_on_c,75,76,1,3,1,87.0,False
11478,6560, Note_on_c,72,76,1,3,1,84.0,True
11479,6560, Note_on_c,77,76,1,3,1,90.0,True
11480,6561, Note_on_c,65,76,1,3,1,76.0,True
11481,6562, Note_on_c,70,76,1,3,1,81.0,False
11482,6562, Note_on_c,75,76,1,3,1,87.0,False
11483,6563, Note_on_c,72,76,1,3,1,84.0,True
11484,6563, Note_on_c,77,76,1,3,1,90.0,True
11485,6564, Note_on_c,70,76,1,3,1,81.0,False
11486,6564, Note_on_c,75,76,1,3,1,87.0,False
11487,6565, Note_on_c,73,76,1,3,1,85.0,False
11488,6565, Note_on_c,77,76,1,3,1,90.0,True
11489,6566, Note_on_c,65,76,1,3,1,76.0,True
11490,6567, Note_on_c,70,76,1,3,1,81.0,False
11491,6567, Note_on_c,75,76,1,3,1,87.0,False
11492,6568, Note_on_c,72,76,1,3,1,84.0,True
11493,6568, Note_on_c,77,76,1,3,1,90.0,True
11494,6569, Note_on_c,65,76,1,3,1,76.0,True
11495,6570, Note_on_c,70,76,1,3,1,81.0,False
11496,6570, Note_on_c,75,76,1,3,1,87.0,False
11497,6571, Note_on_c,72,76,1,3,1,84.0,True
11498,6571, Note_on_c,77,76,1,3,1,90.0,True
11499,6572, Note_on_c,70,76,1,3,1,81.0,False
11500,6572, Note_on_c,75,76,1,3,1,87.0,False
11501,6573, Note_on_c,73,76,1,3,1,85.0,False
11502,6573, Note_on_c,77,76,1,3,1,90.0,True
11503,6574, Note_on_c,65,76,1,3,1,76.0,True
11504,6575, Note_on_c,70,76,1,3,1,81.0,False
11505,6575, Note_on_c,75,76,1,3,1,87.0,False
11506,6576, Note_on_c,72,76,1,3,1,84.0,True
11507,6576, Note_on_c,77,76,1,3,1,90.0,True
11508,6577, Note_on_c,65,76,1,3,1,76.0,True
11509,6578, Note_on_c,70,76,1,3,1,81.0,False
11510,6578, Note_on_c,75,76,1,3,1,87.0,False
11511,6579, Note_on_c,72,76,1,3,1,84.0,True
11512,6579, Note_on_c,77,76,1,3,1,90.0,True
11513,6580, Note_on_c,70,76,1,3,1,81.0,False
11514,6580, Note_on_c,75,76,1,3,1,87.0,False
11515,6581, Note_on_c,73,76,1,3,1,85.0,False
11516,6581, Note_on_c,77,76,1,3,1,90.0,True
11517,6582, Note_on_c,65,76,1,3,1,76.0,True
11518,6583, Note_on_c,70,76,1,3,1,81.0,False
11519,6583, Note_on_c,75,76,1,3,1,87.0,False
11520,6584, Note_on_c,72,76,1,3,1,84.0,True
11521,6584, Note_on_c,77,76,1,3,1,90.0,True
11522,6585, Note_on_c,65,76,1,3,1,76.0,True
11523,6586, Note_on_c,70,76,1,3,1,81.0,False
11524,6586, Note_on_c,75,76,1,3,1,87.0,False
11525,6587, Note_on_c,72,76,1,3,1,84.0,True
11526,6587, Note_on_c,77,76,1,3,1,90.0,True
11527,6588, Note_on_c,70,76,1,3,1,81.0,False
11528,6588, Note_on_c,75,76,1,3,1,87.0,False
11529,6589, Note_on_c,73,76,1,3,1,85.0,False
11530,6589, Note_on_c,77,76,1,3,1,90.0,True
11531,6590, Note_on_c,65,76,1,3,1,76.0,True
11532,6591, Note_on_c,70,76,1,3,1,81.0,False
11533,6591, Note_on_c,75,76,1,3,1,87.0,False
11534,6592, Note_on_c,72,76,1,3,1,84.0,True
11535,6592, Note_on_c,77,76,1,3,1,90.0,True
11536,6593, Note_on_c,65,76,1,3,1,76.0,True
11537,6594, Note_on_c,70,76,1,3,1,81.0,False
11538,6594, Note_on_c,75,76,1,3,1,87.0,False
11539,6595, Note_on_c,72,76,1,3,1,84.0,True
11540,6595, Note_on_c,77,76,1,3,1,90.0,True
11541,6596, Note_on_c,70,76,1,3,1,81.0,False
11542,6596, Note_on_c,75,76,1,3,1,87.0,False
11543,6597, Note_on_c,73,76,1,3,1,85.0,False
11544,6597, Note_on_c,77,76,1,3,1,90.0,True
11545,6598, Note_on_c,65,76,1,3,1,76.0,True
11546,6599, Note_on_c,70,76,1,3,1,81.0,False
11547,6599, Note_on_c,75,76,1,3,1,87.0,False
11548,6600, Note_on_c,72,76,1,3,1,84.0,True
11549,6600, Note_on_c,77,76,1,3,1,90.0,True
11550,6601, Note_on_c,65,76,1,3,1,76.0,True
11551,6602, Note_on_c,70,76,1,3,1,81.0,False
11552,6602, Note_on_c,75,76,1,3,1,87.0,False
11553,6603, Note_on_c,72,76,1,3,1,84.0,True
11554,6603, Note_on_c,77,76,1,3,1,90.0,True
11555,6604, Note_on_c,70,76,1,3,1,81.0,False
11556,6604, Note_on_c,75,76,1,3,1,87.0,False
11557,6605, Note_on_c,73,76,1,3,1,85.0,False
11558,6605, Note_on_c,77,76,1,3,1,90.0,True
11559,6606, Note_on_c,65,76,1,3,1,76.0,True
11560,6607, Note_on_c,70,76,1,3,1,81.0,False
11561,6607, Note_on_c,75,76,1,3,1,87.0,False
11562,6608, Note_on_c,72,76,1,3,1,84.0,True
11563,6608, Note_on_c,77,76,1,3,1,90.0,True
11564,6609, Note_on_c,65,76,1,3,1,76.0,True
11565,6610, Note_on_c,70,76,1,3,1,81.0,False
11566,6610, Note_on_c,75,76,1,3,1,87.0,False
11567,6611, Note_on_c,72,76,1,3,1,84.0,True
11568,6611, Note_on_c,77,76,1,3,1,90.0,True
11569,6612, Note_on_c,70,76,1,3,1,81.0,False
11570,6612, Note_on_c,75,76,1,3,1,87.0,False
11571,6613, Note_on_c,73,76,1,3,1,85.0,False
11572,6613, Note_on_c,77,76,1,3,1,90.0,True
11573,6614, Note_on_c,65,76,1,3,1,76.0,True
11574,6615, Note_on_c,70,76,1,3,1,81.0,False
11575,6615, Note_on_c,75,76,1,3,1,87.0,False
11576,6616, Note_on_c,72,76,1,3,1,84.0,True
11577,6616, Note_on_c,77,76,1,3,1,90.0,True
11578,6617, Note_on_c,65,76,1,3,1,76.0,True
11579,6618, Note_on_c,70,76,1,3,1,81.0,False
11580,6618, Note_on_c,75,76,1,3,1,87.0,False
11581,6619, Note_on_c,72,76,1,3,1,84.0,True
11582,6619, Note_on_c,77,76,1,3,1,90.0,True
11583,6620, Note_on_c,70,76,1,3,1,81.0,False
11584,6620, Note_on_c,75,76,1,3,1,87.0,False
11585,6621, Note_on_c,73,76,1,3,1,85.0,False
11586,6621, Note_on_c,77,76,1,3,1,90.0,True
11587,6622, Note_on_c,65,76,1,3,1,76.0,True
11588,6623, Note_on_c,70,76,1,3,1,81.0,False
11589,6623, Note_on_c,75,76,1,3,1,87.0,False
11590,6624, Note_on_c,72,76,1,3,1,84.0,True
11591,6624, Note_on_c,77,76,1,3,1,90.0,True
11592,6625, Note_on_c,65,76,1,3,1,76.0,True
11593,6626, Note_on_c,70,76,1,3,1,81.0,False
11594,6626, Note_on_c,75,76,1,3,1,87.0,False
11595,6627, Note_on_c,72,76,1,3,1,84.0,True
11596,6627, Note_on_c,77,76,1,3,1,90.0,True
11597,6628, Note_on_c,70,76,1,3,1,81.0,False
11598,6628, Note_on_c,75,76,1,3,1,87.0,False
11599,6629, Note_on_c,73,76,1,3,1,85.0,False
11600,6629, Note_on_c,77,76,1,3,1,90.0,True
11601,6630, Note_on_c,65,76,1,3,1,76.0,True
11602,6631, Note_on_c,70,76,1,3,1,81.0,False
11603,6631, Note_on_c,75,76,1,3,1,87.0,False
11604,6632, Note_on_c,72,76,1,3,1,84.0,True
11605,6632, Note_on_c,77,76,1,3,1,90.0,True
11606,6633, Note_on_c,65,76,1,3,1,76.0,True
11607,6634, Note_on_c,70,76,1,3,1,81.0,False
11608,6634, Note_on_c,75,76,1,3,1,87.0,False
11609,6635, Note_on_c,72,76,1,3,1,84.0,True
11610,6635, Note_on_c,77,76,1,3,1,90.0,True
11611,6636, Note_on_c,70,76,1,3,1,81.0,False
11612,6636, Note_on_c,75,76,1,3,1,87.0,False
11613,6637, Note_on_c,73,76,1,3,1,85.0,False
11614,6637, Note_on_c,77,76,1,3,1,90.0,True
11615,6638, Note_on_c,65,76,1,3,1,76.0,True
11616,6639, Note_on_c,70,76,1,3,1,81.0,False
11617,6639, Note_on_c,75,76,1,3,1,87.0,False
11618,6640, Note_on_c,72,76,1,3,1,84.0,True
11619,6640, Note_on_c,77,76,1,3,1,90.0,True
11620,6641, Note_on_c,65,76,1,3,1,76.0,True
11621,6642, Note_on_c,70,76,1,3,1,81.0,False
11622,6642, Note_on_c,75,76,1,3,1,87.0,False
11623,6643, Note_on_c,72,76,1,3,1,84.0,True
11624,6643, Note_on_c,77,76,1,3,1,90.0,True
11625,6644, Note_on_c,70,76,1,3,1,81.0,False
11626,6644, Note_on_c,75,76,1,3,1,87.0,False
11627,6645, Note_on_c,73,76,1,3,1,85.0,False
11628,6645, Note_on_c,77,76,1,3,1,90.0,True
11629,6646, Note_on_c,65,76,1,3,1,76.0,True
11630,6647, Note_on_c,70,76,1,3,1,81.0,False
11631,6647, Note_on_c,75,76,1,3,1,87.0,False
11632,6648, Note_on_c,72,76,1,3,1,84.0,True
11633,6648, Note_on_c,77,76,1,3,1,90.0,True
11634,6649, Note_on_c,65,76,1,3,1,76.0,True
11635,6650, Note_on_c,70,76,1,3,1,81.0,False
11636,6650, Note_on_c,75,76,1,3,1,87.0,False
11637,6651, Note_on_c,72,76,1,3,1,84.0,True
11638,6651, Note_on_c,77,76,1,3,1,90.0,True
11639,6652, Note_on_c,70,76,1,3,1,81.0,False
11640,6652, Note_on_c,75,76,1,3,1,87.0,False
11641,6653, Note_on_c,73,76,1,3,1,85.0,False
11642,6653, Note_on_c,77,76,1,3,1,90.0,True
11643,6654, Note_on_c,65,76,1,3,1,76.0,True
11644,6655, Note_on_c,70,76,1,3,1,81.0,False
11645,6655, Note_on_c,75,76,1,3,1,87.0,False
11646,6656, Note_on_c,72,76,1,3,1,84.0,True
11647,6656, Note_on_c,77,76,1,3,1,90.0,True
11648,6657, Note_on_c,65,76,1,3,1,76.0,True
11649,6658, Note_on_c,70,76,1,3,1,81.0,False
11650,6658, Note_on_c,75,76,1,3,1,87.0,False
11651,6659, Note_on_c,72,76,1,3,1,84.0,True
11652,6659, Note_on_c,77,76,1,3,1,90.0,True
11653,6660, Note_on_c,70,76,1,3,1,81.0,False
11654,6660, Note_on_c,75,76,1,3,1,87.0,False
11655,6661, Note_on_c,73,76,1,3,1,85.0,False
11656,6661, Note_on_c,77,76,1,3,1,90.0,True
11657,6662, Note_on_c,65,76,1,3,1,76.0,True
11658,6663, Note_on_c,70,76,1,3,1,81.0,False
11659,6663, Note_on_c,75,76,1,3,1,87.0,False
11660,6664, Note_on_c,72,76,1,3,1,84.0,True
11661,6664, Note_on_c,77,76,1,3,1,90.0,True
11662,6665, Note_on_c,65,76,1,3,1,76.0,True
11663,6666, Note_on_c,70,76,1,3,1,81.0,False
11664,6666, Note_on_c,75,76,1,3,1,87.0,False
11665,6667, Note_on_c,72,76,1,3,1,84.0,True
11666,6667, Note_on_c,77,76,1,3,1,90.0,True
11667,6668, Note_on_c,70,76,1,3,1,81.0,False
11668,6668, Note_on_c,75,76,1,3,1,87.0,False
11669,6669, Note_on_c,73,76,1,3,1,85.0,False
11670,6669, Note_on_c,77,76,1,3,1,90.0,True
11671,6670, Note_on_c,65,76,1,3,1,76.0,True
11672,6671, Note_on_c,70,76,1,3,1,81.0,False
11673,6671, Note_on_c,75,76,1,3,1,87.0,False
11674,6672, Note_on_c,72,76,1,3,1,84.0,True
11675,6672, Note_on_c,77,76,1,3,1,90.0,True
11676,6673, Note_on_c,65,76,1,3,1,76.0,True
11677,6674, Note_on_c,70,76,1,3,1,81.0,False
11678,6674, Note_on_c,75,76,1,3,1,87.0,False
11679,6675, Note_on_c,72,76,1,3,1,84.0,True
11680,6675, Note_on_c,77,76,1,3,1,90.0,True
11681,6676, Note_on_c,70,76,1,3,1,81.0,False
11682,6676, Note_on_c,75,76,1,3,1,87.0,False
11683,6677, Note_on_c,73,76,1,3,1,85.0,False
11684,6677, Note_on_c,77,76,1,3,1,90.0,True
11685,6678, Note_on_c,65,76,1,3,1,76.0,True
11686,6679, Note_on_c,70,76,1,3,1,81.0,False
11687,6679, Note_on_c,75,76,1,3,1,87.0,False
11688,6680, Note_on_c,72,76,1,3,1,84.0,True
11689,6680, Note_on_c,77,76,1,3,1,90.0,True
11690,6681, Note_on_c,65,76,1,3,1,76.0,True
11691,6682, Note_on_c,70,76,1,3,1,81.0,False
11692,6682, Note_on_c,75,76,1,3,1,87.0,False
11693,6683, Note_on_c,72,76,1,3,1,84.0,True
11694,6683, Note_on_c,77,76,1,3,1,90.0,True
11695,6684, Note_on_c,70,76,1,3,1,81.0,False
11696,6684, Note_on_c,75,76,1,3,1,87.0,False
11697,6685, Note_on_c,73,76,1,3,1,85.0,False
11698,6685, Note_on_c,77,76,1,3,1,90.0,True
11699,6686, Note_on_c,65,76,1,3,1,76.0,True
11700,6687, Note_on_c,70,76,1,3,1,81.0,False
11701,6687, Note_on_c,75,76,1,3,1,87.0,False
11702,6688, Note_on_c,72,76,1,3,1,84.0,True
11703,6688, Note_on_c,77,76,1,3,1,90.0,True
11704,6689, Note_on_c,65,76,1,3,1,76.0,True
11705,6690, Note_on_c,70,76,1,3,1,81.0,False
11706,6690, Note_on_c,75,76,1,3,1,87.0,False
11707,6691, Note_on_c,72,76,1,3,1,84.0,True
11708,6691, Note_on_c,77,76,1,3,1,90.0,True
11709,6692, Note_on_c,70,76,1,3,1,81.0,False
11710,6692, Note_on_c,75,76,1,3,1,87.0,False
11711,6693, Note_on_c,73,76,1,3,1,85.0,False
11712,6693, Note_on_c,77,76,1,3,1,90.0,True
11713,6694, Note_on_c,65,76,1,3,1,76.0,True
11714,6695, Note_on_c,70,76,1,3,1,81.0,False
11715,6695, Note_on_c,75,76,1,3,1,87.0,False
11716,6696, Note_on_c,72,76,1,3,1,84.0,True
11717,6696, Note_on_c,77,76,1,3,1,90.0,True
11718,6697, Note_on_c,65,76,1,3,1,76.0,True
11719,6698, Note_on_c,70,76,1,3,1,81.0,False
11720,6698, Note_on_c,75,76,1,3,1,87.0,False
11721,6699, Note_on_c,72,76,1,3,1,84.0,True
11722,6699, Note_on_c,77,76,1,3,1,90.0,True
11723,6700, Note_on_c,70,76,1,3,1,81.0,False
11724,6700, Note_on_c,75,76,1,3,1,87.0,False
11725,6701, Note_on_c,73,76,1,3,1,85.0,False
11726,6701, Note_on_c,77,76,1,3,1,90.0,True
11727,6702, Note_on_c,65,76,1,3,1,76.0,True
11728,6703, Note_on_c,70,76,1,3,1,81.0,False
11729,6703, Note_on_c,75,76,1,3,1,87.0,False
11730,6704, Note_on_c,72,76,1,3,1,84.0,True
11731,6704, Note_on_c,77,76,1,3,1,90.0,True
11732,6705, Note_on_c,65,76,1,3,1,76.0,True
11733,6706, Note_on_c,70,76,1,3,1,81.0,False
11734,6706, Note_on_c,75,76,1,3,1,87.0,False
11735,6707, Note_on_c,72,76,1,3,1,84.0,True
11736,6707, Note_on_c,77,76,1,3,1,90.0,True
11737,6708, Note_on_c,70,76,1,3,1,81.0,False
11738,6708, Note_on_c,75,76,1,3,1,87.0,False
11739,6709, Note_on_c,73,76,1,3,1,85.0,False
11740,6709, Note_on_c,77,76,1,3,1,90.0,True
11741,6710, Note_on_c,65,76,1,3,1,76.0,True
11742,6711, Note_on_c,70,76,1,3,1,81.0,False
11743,6711, Note_on_c,75,76,1,3,1,87.0,False
11744,6712, Note_on_c,72,76,1,3,1,84.0,True
11745,6712, Note_on_c,77,76,1,3,1,90.0,True
11746,6713, Note_on_c,65,76,1,3,1,76.0,True
11747,6714, Note_on_c,70,76,1,3,1,81.0,False
11748,6714, Note_on_c,75,76,1,3,1,87.0,False
11749,6715, Note_on_c,72,76,1,3,1,84.0,True
11750,6715, Note_on_c,77,76,1,3,1,90.0,True
11751,6716, Note_on_c,70,76,1,3,1,81.0,False
11752,6716, Note_on_c,75,76,1,3,1,87.0,False
11753,6717, Note_on_c,73,76,1,3,1,85.0,False
11754,6717, Note_on_c,77,76,1,3,1,90.0,True
11755,6718, Note_on_c,65,76,1,3,1,76.0,True
11756,6719, Note_on_c,70,76,1,3,1,81.0,False
11757,6719, Note_on_c,75,76,1,3,1,87.0,False
11758,6720, Note_on_c,72,76,1,3,1,84.0,True
11759,6720, Note_on_c,77,76,1,3,1,90.0,True
11760,6721, Note_on_c,65,76,1,3,1,76.0,True
11761,6722, Note_on_c,70,76,1,3,1,81.0,False
11762,6722, Note_on_c,75,76,1,3,1,87.0,False
11763,6723, Note_on_c,72,76,1,3,1,84.0,True
11764,6723, Note_on_c,77,76,1,3,1,90.0,True
11765,6724, Note_on_c,70,76,1,3,1,81.0,False
11766,6724, Note_on_c,75,76,1,3,1,87.0,False
11767,6725, Note_on_c,73,76,1,3,1,85.0,False
11768,6725, Note_on_c,77,76,1,3,1,90.0,True
11769,6726, Note_on_c,65,76,1,3,1,76.0,True
11770,6727, Note_on_c,70,76,1,3,1,81.0,False
11771,6727, Note_on_c,75,76,1,3,1,87.0,False
11772,6728, Note_on_c,72,76,1,3,1,84.0,True
11773,6728, Note_on_c,77,76,1,3,1,90.0,True
11774,6729, Note_on_c,65,76,1,3,1,76.0,True
11775,6730, Note_on_c,70,76,1,3,1,81.0,False
11776,6730, Note_on_c,75,76,1,3,1,87.0,False
11777,6731, Note_on_c,72,76,1,3,1,84.0,True
11778,6731, Note_on_c,77,76,1,3,1,90.0,True
11779,6732, Note_on_c,70,76,1,3,1,81.0,False
11780,6732, Note_on_c,75,76,1,3,1,87.0,False
11781,6733, Note_on_c,73,76,1,3,1,85.0,False
11782,6733, Note_on_c,77,76,1,3,1,90.0,True
11783,6734, Note_on_c,65,76,1,3,1,76.0,True
11784,6735, Note_on_c,70,76,1,3,1,81.0,False
11785,6735, Note_on_c,75,76,1,3,1,87.0,False
11786,6736, Note_on_c,72,76,1,3,1,84.0,True
11787,6736, Note_on_c,77,76,1,3,1,90.0,True
11788,6737, Note_on_c,65,76,1,3,1,76.0,True
11789,6738, Note_on_c,70,76,1,3,1,81.0,False
11790,6738, Note_on_c,75,76,1,3,1,87.0,False
11791,6739, Note_on_c,72,76,1,3,1,84.0,True
11792,6739, Note_on_c,77,76,1,3,1,90.0,True
11793,6740, Note_on_c,70,76,1,3,1,81.0,False
11794,6740, Note_on_c,75,76,1,3,1,87.0,False
11795,6741, Note_on_c,73,76,1,3,1,85.0,False
11796,6741, Note_on_c,77,76,1,3,1,90.0,True
11797,6742, Note_on_c,65,76,1,3,1,76.0,True
11798,6743, Note_on_c,70,76,1,3,1,81.0,False
11799,6743, Note_on_c,75,76,1,3,1,87.0,False
11800,6744, Note_on_c,72,76,1,3,1,84.0,True
11801,6744, Note_on_c,77,76,1,3,1,90.0,True
11802,6745, Note_on_c,65,76,1,3,1,76.0,True
11803,6746, Note_on_c,70,76,1,3,1,81.0,False
11804,6746, Note_on_c,75,76,1,3,1,87.0,False
11805,6747, Note_on_c,72,76,1,3,1,84.0,True
11806,6747, Note_on_c,77,76,1,3,1,90.0,True
11807,6748, Note_on_c,70,76,1,3,1,81.0,False
11808,6748, Note_on_c,75,76,1,3,1,87.0,False
11809,6749, Note_on_c,73,76,1,3,1,85.0,False
11810,6749, Note_on_c,77,76,1,3,1,90.0,True
11811,6750, Note_on_c,65,76,1,3,1,76.0,True
11812,6751, Note_on_c,70,76,1,3,1,81.0,False
11813,6751, Note_on_c,75,76,1,3,1,87.0,False
11814,6752, Note_on_c,72,76,1,3,1,84.0,True
11815,6752, Note_on_c,77,76,1,3,1,90.0,True
11816,6753, Note_on_c,65,76,1,3,1,76.0,True
11817,6754, Note_on_c,70,76,1,3,1,81.0,False
11818,6754, Note_on_c,75,76,1,3,1,87.0,False
11819,6755, Note_on_c,72,76,1,3,1,84.0,True
11820,6755, Note_on_c,77,76,1,3,1,90.0,True
11821,6756, Note_on_c,70,76,1,3,1,81.0,False
11822,6756, Note_on_c,75,76,1,3,1,87.0,False
11823,6757, Note_on_c,73,76,1,3,1,85.0,False
11824,6757, Note_on_c,77,76,1,3,1,90.0,True
11825,6758, Note_on_c,65,76,1,3,1,76.0,True
11826,6759, Note_on_c,70,76,1,3,1,81.0,False
11827,6759, Note_on_c,75,76,1,3,1,87.0,False
11828,6760, Note_on_c,72,76,1,3,1,84.0,True
11829,6760, Note_on_c,77,76,1,3,1,90.0,True
11830,6761, Note_on_c,65,76,1,3,1,76.0,True
11831,6762, Note_on_c,70,76,1,3,1,81.0,False
11832,6762, Note_on_c,75,76,1,3,1,87.0,False
11833,6763, Note_on_c,72,76,1,3,1,84.0,True
11834,6763, Note_on_c,77,76,1,3,1,90.0,True
11835,6764, Note_on_c,70,76,1,3,1,81.0,False
11836,6764, Note_on_c,75,76,1,3,1,87.0,False
11837,6765, Note_on_c,73,76,1,3,1,85.0,False
11838,6765, Note_on_c,77,76,1,3,1,90.0,True
11839,6766, Note_on_c,65,76,1,3,1,76.0,True
11840,6767, Note_on_c,70,76,1,3,1,81.0,False
11841,6767, Note_on_c,75,76,1,3,1,87.0,False
11842,6768, Note_on_c,72,76,1,3,1,84.0,True
11843,6768, Note_on_c,77,76,1,3,1,90.0,True
11844,6769, Note_on_c,65,76,1,3,1,76.0,True
11845,6770, Note_on_c,70,76,1,3,1,81.0,False
11846,6770, Note_on_c,75,76,1,3,1,87.0,False
11847,6771, Note_on_c,72,76,1,3,1,84.0,True
11848,6771, Note_on_c,77,76,1,3,1,90.0,True
11849,6772, Note_on_c,70,76,1,3,1,81.0,False
11850,6772, Note_on_c,75,76,1,3,1,87.0,False
11851,6773, Note_on_c,73,76,1,3,1,85.0,False
11852,6773, Note_on_c,77,76,1,3,1,90.0,True
11853,6774, Note_on_c,65,76,1,3,1,76.0,True
11854,6775, Note_on_c,70,76,1,3,1,81.0,False
11855,6775, Note_on_c,75,76,1,3,1,87.0,False
11856,6776, Note_on_c,72,76,1,3,1,84.0,True
11857,6776, Note_on_c,77,76,1,3,1,90.0,True
11858,6777, Note_on_c,65,76,1,3,1,76.0,True
11859,6778, Note_on_c,70,76,1,3,1,81.0,False
11860,6778, Note_on_c,75,76,1,3,1,87.0,False
11861,6779, Note_on_c,72,76,1,3,1,84.0,True
11862,6779, Note_on_c,77,76,1,3,1,90.0,True
11863,6780, Note_on_c,70,76,1,3,1,81.0,False
11864,6780, Note_on_c,75,76,1,3,1,87.0,False
11865,6781, Note_on_c,73,76,1,3,1,85.0,False
11866,6781, Note_on_c,77,76,1,3,1,90.0,True
11867,6782, Note_on_c,65,76,1,3,1,76.0,True
11868,6783, Note_on_c,70,76,1,3,1,81.0,False
11869,6783, Note_on_c,75,76,1,3,1,87.0,False
11870,6784, Note_on_c,72,76,1,3,1,84.0,True
11871,6784, Note_on_c,77,76,1,3,1,90.0,True
11872,6785, Note_on_c,65,76,1,3,1,76.0,True
11873,6786, Note_on_c,70,76,1,3,1,81.0,False
11874,6786, Note_on_c,75,76,1,3,1,87.0,False
11875,6787, Note_on_c,72,76,1,3,1,84.0,True
11876,6787, Note_on_c,77,76,1,3,1,90.0,True
11877,6788, Note_on_c,70,76,1,3,1,81.0,False
11878,6788, Note_on_c,75,76,1,3,1,87.0,False
11879,6789, Note_on_c,73,76,1,3,1,85.0,False
11880,6789, Note_on_c,77,76,1,3,1,90.0,True
11881,6790, Note_on_c,65,76,1,3,1,76.0,True
11882,6791, Note_on_c,70,76,1,3,1,81.0,False
11883,6791, Note_on_c,75,76,1,3,1,87.0,False
11884,6792, Note_on_c,72,76,1,3,1,84.0,True
11885,6792, Note_on_c,77,76,1,3,1,90.0,True
11886,6793, Note_on_c,65,76,1,3,1,76.0,True
11887,6794, Note_on_c,70,76,1,3,1,81.0,False
11888,6794, Note_on_c,75,76,1,3,1,87.0,False
11889,6795, Note_on_c,72,76,1,3,1,84.0,True
11890,6795, Note_on_c,77,76,1,3,1,90.0,True
11891,6796, Note_on_c,70,76,1,3,1,81.0,False
11892,6796, Note_on_c,75,76,1,3,1,87.0,False
11893,6797, Note_on_c,73,76,1,3,1,85.0,False
11894,6797, Note_on_c,77,76,1,3,1,90.0,True
11895,6798, Note_on_c,65,76,1,3,1,76.0,True
11896,6799, Note_on_c,70,76,1,3,1,81.0,False
11897,6799, Note_on_c,75,76,1,3,1,87.0,False
11898,6800, Note_on_c,72,76,1,3,1,84.0,True
11899,6800, Note_on_c,77,76,1,3,1,90.0,True
11900,6801, Note_on_c,65,76,1,3,1,76.0,True
11901,6802, Note_on_c,70,76,1,3,1,81.0,False
11902,6802, Note_on_c,75,76,1,3,1,87.0,False
11903,6803, Note_on_c,72,76,1,3,1,84.0,True
11904,6803, Note_on_c,77,76,1,3,1,90.0,True
11905,6804, Note_on_c,70,76,1,3,1,81.0,False
11906,6804, Note_on_c,75,76,1,3,1,87.0,False
11907,6805, Note_on_c,73,76,1,3,1,85.0,False
11908,6805, Note_on_c,77,76,1,3,1,90.0,True
11909,6806, Note_on_c,65,76,1,3,1,76.0,True
11910,6807, Note_on_c,70,76,1,3,1,81.0,False
11911,6807, Note_on_c,75,76,1,3,1,87.0,False
11912,6808, Note_on_c,72,76,1,3,1,84.0,True
11913,6808, Note_on_c,77,76,1,3,1,90.0,True
11914,6809, Note_on_c,65,76,1,3,1,76.0,True
11915,6810, Note_on_c,70,76,1,3,1,81.0,False
11916,6810, Note_on_c,75,76,1,3,1,87.0,False
11917,6811, Note_on_c,72,76,1,3,1,84.0,True
11918,6811, Note_on_c,77,76,1,3,1,90.0,True
11919,6812, Note_on_c,70,76,1,3,1,81.0,False
11920,6812, Note_on_c,75,76,1,3,1,87.0,False
11921,6813, Note_on_c,73,76,1,3,1,85.0,False
11922,6813, Note_on_c,77,76,1,3,1,90.0,True
11923,6814, Note_on_c,65,76,1,3,1,76.0,True
11924,6815, Note_on_c,70,76,1,3,1,81.0,False
11925,6815, Note_on_c,75,76,1,3,1,87.0,False
11926,6816, Note_on_c,72,76,1,3,1,84.0,True
11927,6816, Note_on_c,77,76,1,3,1,90.0,True
11928,6817, Note_on_c,65,76,1,3,1,76.0,True
11929,6818, Note_on_c,70,76,1,3,1,81.0,False
11930,6818, Note_on_c,75,76,1,3,1,87.0,False
11931,6819, Note_on_c,72,76,1,3,1,84.0,True
11932,6819, Note_on_c,77,76,1,3,1,90.0,True
11933,6820, Note_on_c,70,76,1,3,1,81.0,False
11934,6820, Note_on_c,75,76,1,3,1,87.0,False
11935,6821, Note_on_c,73,76,1,3,1,85.0,False
11936,6821, Note_on_c,77,76,1,3,1,90.0,True
11937,6822, Note_on_c,65,76,1,3,1,76.0,True
11938,6823, Note_on_c,70,76,1,3,1,81.0,False
11939,6823, Note_on_c,75,76,1,3,1,87.0,False
11940,6824, Note_on_c,72,76,1,3,1,84.0,True
11941,6824, Note_on_c,77,76,1,3,1,90.0,True
11942,6825, Note_on_c,65,76,1,3,1,76.0,True
11943,6826, Note_on_c,70,76,1,3,1,81.0,False
11944,6826, Note_on_c,75,76,1,3,1,87.0,False
11945,6827, Note_on_c,72,76,1,3,1,84.0,True
11946,6827, Note_on_c,77,76,1,3,1,90.0,True
11947,6828, Note_on_c,70,76,1,3,1,81.0,False
11948,6828, Note_on_c,75,76,1,3,1,87.0,False
11949,6829, Note_on_c,73,76,1,3,1,85.0,False
11950,6829, Note_on_c,77,76,1,3,1,90.0,True
11951,6830, Note_on_c,65,76,1,3,1,76.0,True
11952,6831, Note_on_c,70,76,1,3,1,81.0,False
11953,6831, Note_on_c,75,76,1,3,1,87.0,False
11954,6832, Note_on_c,72,76,1,3,1,84.0,True
11955,6832, Note_on_c,77,76,1,3,1,90.0,True
11956,6833, Note_on_c,65,76,1,3,1,76.0,True
11957,6834, Note_on_c,70,76,1,3,1,81.0,False
11958,6834, Note_on_c,75,76,1,3,1,87.0,False
11959,6835, Note_on_c,72,76,1,3,1,84.0,True
11960,6835, Note_on_c,77,76,1,3,1,90.0,True
11961,6836, Note_on_c,70,76,1,3,1,81.0,False
11962,6836, Note_on_c,75,76,1,3,1,87.0,False
11963,6837, Note_on_c,73,76,1,3,1,85.0,False
11964,6837, Note_on_c,77,76,1,3,1,90.0,True
11965,6838, Note_on_c,65,76,1,3,1,76.0,True
11966,6839, Note_on_c,70,76,1,3,1,81.0,False
11967,6839, Note_on_c,75,76,1,3,1,87.0,False
11968,6840, Note_on_c,72,76,1,3,1,84.0,True
11969,6840, Note_on_c,77,76,1,3,1,90.0,True
11970,6841, Note_on_c,65,76,1,3,1,76.0,True
11971,6842, Note_on_c,70,76,1,3,1,81.0,False
11972,6842, Note_on_c,75,76,1,3,1,87.0,False
11973,6843, Note_on_c,72,76,1,3,1,84.0,True
11974,6843, Note_on_c,77,76,1,3,1,90.0,True
11975,6844, Note_on_c,70,76,1,3,1,81.0,False
11976,6844, Note_on_c,75,76,1,3,1,87.0,False
11977,6845, Note_on_c,73,76,1,3,1,85.0,False
11978,6845, Note_on_c,77,76,1,3,1,90.0,True
11979,6846, Note_on_c,65,76,1,3,1,76.0,True
11980,6847, Note_on_c,70,76,1,3,1,81.0,False
11981,6847, Note_on_c,75,76,1,3,1,87.0,False
11982,6848, Note_on_c,72,76,1,3,1,84.0,True
11983,6848, Note_on_c,77,76,1,3,1,90.0,True
11984,6849, Note_on_c,65,76,1,3,1,76.0,True
11985,6850, Note_on_c,70,76,1,3,1,81.0,False
11986,6850, Note_on_c,75,76,1,3,1,87.0,False
11987,6851, Note_on_c,72,76,1,3,1,84.0,True
11988,6851, Note_on_c,77,76,1,3,1,90.0,True
11989,6852, Note_on_c,70,76,1,3,1,81.0,False
11990,6852, Note_on_c,75,76,1,3,1,87.0,False
11991,6853, Note_on_c,73,76,1,3,1,85.0,False
11992,6853, Note_on_c,77,76,1,3,1,90.0,True
11993,6854, Note_on_c,65,76,1,3,1,76.0,True
11994,6855, Note_on_c,70,76,1,3,1,81.0,False
11995,6855, Note_on_c,75,76,1,3,1,87.0,False
11996,6856, Note_on_c,72,76,1,3,1,84.0,True
11997,6856, Note_on_c,77,76,1,3,1,90.0,True
11998,6857, Note_on_c,65,76,1,3,1,76.0,True
11999,6858, Note_on_c,70,76,1,3,1,81.0,False
12000,6858, Note_on_c,75,76,1,3,1,87.0,False
12001,6859, Note_on_c,72,76,1,3,1,84.0,True
12002,6859, Note_on_c,77,76,1,3,1,90.0,True
12003,6860, Note_on_c,70,76,1,3,1,81.0,False
12004,6860, Note_on_c,75,76,1,3,1,87.0,False
12005,6861, Note_on_c,73,76,1,3,1,85.0,False
12006,6861, Note_on_c,77,76,1,3,1,90.0,True
12007,6862, Note_on_c,65,76,1,3,1,76.0,True
12008,6863, Note_on_c,70,76,1,3,1,81.0,False
12009,6863, Note_on_c,75,76,1,3,1,87.0,False
12010,6864, Note_on_c,72,76,1,3,1,84.0,True
12011,6864, Note_on_c,77,76,1,3,1,90.0,True
12012,6865, Note_on_c,65,76,1,3,1,76.0,True
12013,6866, Note_on_c,70,76,1,3,1,81.0,False
12014,6866, Note_on_c,75,76,1,3,1,87.0,False
12015,6867, Note_on_c,72,76,1,3,1,84.0,True
12016,6867, Note_on_c,77,76,1,3,1,90.0,True
12017,6868, Note_on_c,70,76,1,3,1,81.0,False
12018,6868, Note_on_c,75,76,1,3,1,87.0,False
12019,6869, Note_on_c,73,76,1,3,1,85.0,False
12020,6869, Note_on_c,77,76,1,3,1,90.0,True
12021,6870, Note_on_c,65,76,1,3,1,76.0,True
12022,6871, Note_on_c,70,76,1,3,1,81.0,False
12023,6871, Note_on_c,75,76,1,3,1,87.0,False
12024,6872, Note_on_c,72,76,1,3,1,84.0,True
12025,6872, Note_on_c,77,76,1,3,1,90.0,True
12026,6873, Note_on_c,65,76,1,3,1,76.0,True
12027,6874, Note_on_c,70,76,1,3,1,81.0,False
12028,6874, Note_on_c,75,76,1,3,1,87.0,False
12029,6875, Note_on_c,72,76,1,3,1,84.0,True
12030,6875, Note_on_c,77,76,1,3,1,90.0,True
12031,6876, Note_on_c,70,76,1,3,1,81.0,False
12032,6876, Note_on_c,75,76,1,3,1,87.0,False
12033,6877, Note_on_c,73,76,1,3,1,85.0,False
12034,6877, Note_on_c,77,76,1,3,1,90.0,True
12035,6878, Note_on_c,65,76,1,3,1,76.0,True
12036,6879, Note_on_c,70,76,1,3,1,81.0,False
12037,6879, Note_on_c,75,76,1,3,1,87.0,False
12038,6880, Note_on_c,72,76,1,3,1,84.0,True
12039,6880, Note_on_c,77,76,1,3,1,90.0,True
12040,6881, Note_on_c,65,76,1,3,1,76.0,True
12041,6882, Note_on_c,70,76,1,3,1,81.0,False
12042,6882, Note_on_c,75,76,1,3,1,87.0,False
12043,6883, Note_on_c,72,76,1,3,1,84.0,True
12044,6883, Note_on_c,77,76,1,3,1,90.0,True
12045,6884, Note_on_c,70,76,1,3,1,81.0,False
12046,6884, Note_on_c,75,76,1,3,1,87.0,False
12047,6885, Note_on_c,73,76,1,3,1,85.0,False
12048,6885, Note_on_c,77,76,1,3,1,90.0,True
12049,6886, Note_on_c,65,76,1,3,1,76.0,True
12050,6887, Note_on_c,70,76,1,3,1,81.0,False
12051,6887, Note_on_c,75,76,1,3,1,87.0,False
12052,6888, Note_on_c,72,76,1,3,1,84.0,True
12053,6888, Note_on_c,77,76,1,3,1,90.0,True
12054,6889, Note_on_c,65,76,1,3,1,76.0,True
12055,6890, Note_on_c,70,76,1,3,1,81.0,False
12056,6890, Note_on_c,75,76,1,3,1,87.0,False
12057,6891, Note_on_c,72,76,1,3,1,84.0,True
12058,6891, Note_on_c,77,76,1,3,1,90.0,True
12059,6892, Note_on_c,70,76,1,3,1,81.0,False
12060,6892, Note_on_c,75,76,1,3,1,87.0,False
12061,6893, Note_on_c,73,76,1,3,1,85.0,False
12062,6893, Note_on_c,77,76,1,3,1,90.0,True
12063,6894, Note_on_c,65,76,1,3,1,76.0,True
12064,6895, Note_on_c,70,76,1,3,1,81.0,False
12065,6895, Note_on_c,75,76,1,3,1,87.0,False
12066,6896, Note_on_c,72,76,1,3,1,84.0,True
12067,6896, Note_on_c,77,76,1,3,1,90.0,True
12068,6897, Note_on_c,65,76,1,3,1,76.0,True
12069,6898, Note_on_c,70,76,1,3,1,81.0,False
12070,6898, Note_on_c,75,76,1,3,1,87.0,False
12071,6899, Note_on_c,72,76,1,3,1,84.0,True
12072,6899, Note_on_c,77,76,1,3,1,90.0,True
12073,6900, Note_on_c,70,76,1,3,1,81.0,False
12074,6900, Note_on_c,75,76,1,3,1,87.0,False
12075,6901, Note_on_c,73,76,1,3,1,85.0,False
12076,6901, Note_on_c,77,76,1,3,1,90.0,True
12077,6902, Note_on_c,65,76,1,3,1,76.0,True
12078,6903, Note_on_c,70,76,1,3,1,81.0,False
12079,6903, Note_on_c,75,76,1,3,1,87.0,False
12080,6904, Note_on_c,72,76,1,3,1,84.0,True
12081,6904, Note_on_c,77,76,1,3,1,90.0,True
12082,6905, Note_on_c,65,76,1,3,1,76.0,True
12083,6906, Note_on_c,70,76,1,3,1,81.0,False
12084,6906, Note_on_c,75,76,1,3,1,87.0,False
12085,6907, Note_on_c,72,76,1,3,1,84.0,True
12086,6907, Note_on_c,77,76,1,3,1,90.0,True
12087,6908, Note_on_c,70,76,1,3,1,81.0,False
12088,6908, Note_on_c,75,76,1,3,1,87.0,False
12089,6909, Note_on_c,73,76,1,3,1,85.0,False
12090,6909, Note_on_c,77,76,1,3,1,90.0,True
12091,6910, Note_on_c,65,76,1,3,1,76.0,True
12092,6911, Note_on_c,70,76,1,3,1,81.0,False
12093,6911, Note_on_c,75,76,1,3,1,87.0,False
12094,6912, Note_on_c,72,76,1,3,1,84.0,True
12095,6912, Note_on_c,77,76,1,3,1,90.0,True
12096,6913, Note_on_c,65,76,1,3,1,76.0,True
12097,6914, Note_on_c,70,76,1,3,1,81.0,False
12098,6914, Note_on_c,75,76,1,3,1,87.0,False
12099,6915, Note_on_c,72,76,1,3,1,84.0,True
12100,6915, Note_on_c,77,76,1,3,1,90.0,True
12101,6916, Note_on_c,70,76,1,3,1,81.0,False
12102,6916, Note_on_c,75,76,1,3,1,87.0,False
12103,6917, Note_on_c,73,76,1,3,1,85.0,False
12104,6917, Note_on_c,77,76,1,3,1,90.0,True
12105,6918, Note_on_c,65,76,1,3,1,76.0,True
12106,6919, Note_on_c,70,76,1,3,1,81.0,False
12107,6919, Note_on_c,75,76,1,3,1,87.0,False
12108,6920, Note_on_c,72,76,1,3,1,84.0,True
12109,6920, Note_on_c,77,76,1,3,1,90.0,True
12110,6921, Note_on_c,65,76,1,3,1,76.0,True
12111,6922, Note_on_c,70,76,1,3,1,81.0,False
12112,6922, Note_on_c,75,76,1,3,1,87.0,False
12113,6923, Note_on_c,72,76,1,3,1,84.0,True
12114,6923, Note_on_c,77,76,1,3,1,90.0,True
12115,6924, Note_on_c,70,76,1,3,1,81.0,False
12116,6924, Note_on_c,75,76,1,3,1,87.0,False
12117,6925, Note_on_c,73,76,1,3,1,85.0,False
12118,6925, Note_on_c,77,76,1,3,1,90.0,True
12119,6926, Note_on_c,65,76,1,3,1,76.0,True
12120,6927, Note_on_c,70,76,1,3,1,81.0,False
12121,6927, Note_on_c,75,76,1,3,1,87.0,False
12122,6928, Note_on_c,72,76,1,3,1,84.0,True
12123,6928, Note_on_c,77,76,1,3,1,90.0,True
12124,6929, Note_on_c,65,76,1,3,1,76.0,True
12125,6930, Note_on_c,70,76,1,3,1,81.0,False
12126,6930, Note_on_c,75,76,1,3,1,87.0,False
12127,6931, Note_on_c,72,76,1,3,1,84.0,True
12128,6931, Note_on_c,77,76,1,3,1,90.0,True
12129,6932, Note_on_c,70,76,1,3,1,81.0,False
12130,6932, Note_on_c,75,76,1,3,1,87.0,False
12131,6933, Note_on_c,73,76,1,3,1,85.0,False
12132,6933, Note_on_c,77,76,1,3,1,90.0,True
12133,6934, Note_on_c,65,76,1,3,1,76.0,True
12134,6935, Note_on_c,70,76,1,3,1,81.0,False
12135,6935, Note_on_c,75,76,1,3,1,87.0,False
12136,6936, Note_on_c,72,76,1,3,1,84.0,True
12137,6936, Note_on_c,77,76,1,3,1,90.0,True
12138,6937, Note_on_c,65,76,1,3,1,76.0,True
12139,6938, Note_on_c,70,76,1,3,1,81.0,False
12140,6938, Note_on_c,75,76,1,3,1,87.0,False
12141,6939, Note_on_c,72,76,1,3,1,84.0,True
12142,6939, Note_on_c,77,76,1,3,1,90.0,True
12143,6940, Note_on_c,70,76,1,3,1,81.0,False
12144,6940, Note_on_c,75,76,1,3,1,87.0,False
12145,6941, Note_on_c,73,76,1,3,1,85.0,False
12146,6941, Note_on_c,77,76,1,3,1,90.0,True
12147,6942, Note_on_c,65,76,1,3,1,76.0,True
12148,6943, Note_on_c,70,76,1,3,1,81.0,False
12149,6943, Note_on_c,75,76,1,3,1,87.0,False
12150,6944, Note_on_c,72,76,1,3,1,84.0,True
12151,6944, Note_on_c,77,76,1,3,1,90.0,True
12152,6945, Note_on_c,65,76,1,3,1,76.0,True
12153,6946, Note_on_c,70,76,1,3,1,81.0,False
12154,6946, Note_on_c,75,76,1,3,1,87.0,False
12155,6947, Note_on_c,72,76,1,3,1,84.0,True
12156,6947, Note_on_c,77,76,1,3,1,90.0,True
12157,6948, Note_on_c,70,76,1,3,1,81.0,False
12158,6948, Note_on_c,75,76,1,3,1,87.0,False
12159,6949, Note_on_c,73,76,1,3,1,85.0,False
12160,6949, Note_on_c,77,76,1,3,1,90.0,True
12161,6950, Note_on_c,65,76,1,3,1,76.0,True
12162,6951, Note_on_c,70,76,1,3,1,81.0,False
12163,6951, Note_on_c,75,76,1,3,1,87.0,False
12164,6952, Note_on_c,72,76,1,3,1,84.0,True
12165,6952, Note_on_c,77,76,1,3,1,90.0,True
12166,6953, Note_on_c,65,76,1,3,1,76.0,True
12167,6954, Note_on_c,70,76,1,3,1,81.0,False
12168,6954, Note_on_c,75,76,1,3,1,87.0,False
12169,6955, Note_on_c,72,76,1,3,1,84.0,True
12170,6955, Note_on_c,77,76,1,3,1,90.0,True
12171,6956, Note_on_c,70,76,1,3,1,81.0,False
12172,6956, Note_on_c,75,76,1,3,1,87.0,False
12173,6957, Note_on_c,73,76,1,3,1,85.0,False
12174,6957, Note_on_c,77,76,1,3,1,90.0,True
12175,6958, Note_on_c,65,76,1,3,1,76.0,True
12176,6959, Note_on_c,70,76,1,3,1,81.0,False
12177,6959, Note_on_c,75,76,1,3,1,87.0,False
12178,6960, Note_on_c,72,76,1,3,1,84.0,True
12179,6960, Note_on_c,77,76,1,3,1,90.0,True
12180,6961, Note_on_c,65,76,1,3,1,76.0,True
12181,6962, Note_on_c,70,76,1,3,1,81.0,False
12182,6962, Note_on_c,75,76,1,3,1,87.0,False
12183,6963, Note_on_c,72,76,1,3,1,84.0,True
12184,6963, Note_on_c,77,76,1,3,1,90.0,True
12185,6964, Note_on_c,70,76,1,3,1,81.0,False
12186,6964, Note_on_c,75,76,1,3,1,87.0,False
12187,6965, Note_on_c,73,76,1,3,1,85.0,False
12188,6965, Note_on_c,77,76,1,3,1,90.0,True
12189,6966, Note_on_c,65,76,1,3,1,76.0,True
12190,6967, Note_on_c,70,76,1,3,1,81.0,False
12191,6967, Note_on_c,75,76,1,3,1,87.0,False
12192,6968, Note_on_c,72,76,1,3,1,84.0,True
12193,6968, Note_on_c,77,76,1,3,1,90.0,True
12194,6969, Note_on_c,65,76,1,3,1,76.0,True
12195,6970, Note_on_c,70,76,1,3,1,81.0,False
12196,6970, Note_on_c,75,76,1,3,1,87.0,False
12197,6971, Note_on_c,72,76,1,3,1,84.0,True
12198,6971, Note_on_c,77,76,1,3,1,90.0,True
12199,6972, Note_on_c,70,76,1,3,1,81.0,False
12200,6972, Note_on_c,75,76,1,3,1,87.0,False
12201,6973, Note_on_c,73,76,1,3,1,85.0,False
12202,6973, Note_on_c,77,76,1,3,1,90.0,True
12203,6974, Note_on_c,65,76,1,3,1,76.0,True
12204,6975, Note_on_c,70,76,1,3,1,81.0,False
12205,6975, Note_on_c,75,76,1,3,1,87.0,False
12206,6976, Note_on_c,72,76,1,3,1,84.0,True
12207,6976, Note_on_c,77,76,1,3,1,90.0,True
12208,6977, Note_on_c,65,76,1,3,1,76.0,True
12209,6978, Note_on_c,70,76,1,3,1,81.0,False
12210,6978, Note_on_c,75,76,1,3,1,87.0,False
12211,6979, Note_on_c,72,76,1,3,1,84.0,True
12212,6979, Note_on_c,77,76,1,3,1,90.0,True
12213,6980, Note_on_c,70,76,1,3,1,81.0,False
12214,6980, Note_on_c,75,76,1,3,1,87.0,False
12215,6981, Note_on_c,73,76,1,3,1,85.0,False
12216,6981, Note_on_c,77,76,1,3,1,90.0,True
12217,6982, Note_on_c,65,76,1,3,1,76.0,True
12218,6983, Note_on_c,70,76,1,3,1,81.0,False
12219,6983, Note_on_c,75,76,1,3,1,87.0,False
12220,6984, Note_on_c,72,76,1,3,1,84.0,True
12221,6984, Note_on_c,77,76,1,3,1,90.0,True
12222,6985, Note_on_c,65,76,1,3,1,76.0,True
12223,6986, Note_on_c,70,76,1,3,1,81.0,False
12224,6986, Note_on_c,75,76,1,3,1,87.0,False
12225,6987, Note_on_c,72,76,1,3,1,84.0,True
12226,6987, Note_on_c,77,76,1,3,1,90.0,True
12227,6988, Note_on_c,70,76,1,3,1,81.0,False
12228,6988, Note_on_c,75,76,1,3,1,87.0,False
12229,6989, Note_on_c,73,76,1,3,1,85.0,False
12230,6989, Note_on_c,77,76,1,3,1,90.0,True
12231,6990, Note_on_c,65,76,1,3,1,76.0,True
12232,6991, Note_on_c,70,76,1,3,1,81.0,False
12233,6991, Note_on_c,75,76,1,3,1,87.0,False
12234,6992, Note_on_c,72,76,1,3,1,84.0,True
12235,6992, Note_on_c,77,76,1,3,1,90.0,True
12236,6993, Note_on_c,65,76,1,3,1,76.0,True
12237,6994, Note_on_c,70,76,1,3,1,81.0,False
12238,6994, Note_on_c,75,76,1,3,1,87.0,False
12239,6995, Note_on_c,72,76,1,3,1,84.0,True
12240,6995, Note_on_c,77,76,1,3,1,90.0,True
12241,6996, Note_on_c,70,76,1,3,1,81.0,False
12242,6996, Note_on_c,75,76,1,3,1,87.0,False
12243,6997, Note_on_c,73,76,1,3,1,85.0,False
12244,6997, Note_on_c,77,76,1,3,1,90.0,True
12245,6998, Note_on_c,65,76,1,3,1,76.0,True
12246,6999, Note_on_c,70,76,1,3,1,81.0,False
12247,6999, Note_on_c,75,76,1,3,1,87.0,False
12248,7000, Note_on_c,72,76,1,3,1,84.0,True
12249,7000, Note_on_c,77,76,1,3,1,90.0,True
12250,7001, Note_on_c,65,76,1,3,1,76.0,True
12251,7002, Note_on_c,70,76,1,3,1,81.0,False
12252,7002, Note_on_c,75,76,1,3,1,87.0,False
12253,7003, Note_on_c,72,76,1,3,1,84.0,True
12254,7003, Note_on_c,77,76,1,3,1,90.0,True
12255,7004, Note_on_c,70,76,1,3,1,81.0,False
12256,7004, Note_on_c,75,76,1,3,1,87.0,False
12257,7005, Note_on_c,73,76,1,3,1,85.0,False
12258,7005, Note_on_c,77,76,1,3,1,90.0,True
12259,7006, Note_on_c,65,76,1,3,1,76.0,True
12260,7007, Note_on_c,70,76,1,3,1,81.0,False
12261,7007, Note_on_c,75,76,1,3,1,87.0,False
12262,7008, Note_on_c,72,76,1,3,1,84.0,True
12263,7008, Note_on_c,77,76,1,3,1,90.0,True
12264,7009, Note_on_c,65,76,1,3,1,76.0,True
12265,7010, Note_on_c,70,76,1,3,1,81.0,False
12266,7010, Note_on_c,75,76,1,3,1,87.0,False
12267,7011, Note_on_c,72,76,1,3,1,84.0,True
12268,7011, Note_on_c,77,76,1,3,1,90.0,True
12269,7012, Note_on_c,70,76,1,3,1,81.0,False
12270,7012, Note_on_c,75,76,1,3,1,87.0,False
12271,7013, Note_on_c,73,76,1,3,1,85.0,False
12272,7013, Note_on_c,77,76,1,3,1,90.0,True
12273,7014, Note_on_c,65,76,1,3,1,76.0,True
12274,7015, Note_on_c,70,76,1,3,1,81.0,False
12275,7015, Note_on_c,75,76,1,3,1,87.0,False
12276,7016, Note_on_c,72,76,1,3,1,84.0,True
12277,7016, Note_on_c,77,76,1,3,1,90.0,True
12278,7017, Note_on_c,65,76,1,3,1,76.0,True
12279,7018, Note_on_c,70,76,1,3,1,81.0,False
12280,7018, Note_on_c,75,76,1,3,1,87.0,False
12281,7019, Note_on_c,72,76,1,3,1,84.0,True
12282,7019, Note_on_c,77,76,1,3,1,90.0,True
12283,7020, Note_on_c,70,76,1,3,1,81.0,False
12284,7020, Note_on_c,75,76,1,3,1,87.0,False
12285,7021, Note_on_c,73,76,1,3,1,85.0,False
12286,7021, Note_on_c,77,76,1,3,1,90.0,True
12287,7022, Note_on_c,65,76,1,3,1,76.0,True
12288,7023, Note_on_c,70,76,1,3,1,81.0,False
12289,7023, Note_on_c,75,76,1,3,1,87.0,False
12290,7024, Note_on_c,72,76,1,3,1,84.0,True
12291,7024, Note_on_c,77,76,1,3,1,90.0,True
12292,7025, Note_on_c,65,76,1,3,1,76.0,True
12293,7026, Note_on_c,70,76,1,3,1,81.0,False
12294,7026, Note_on_c,75,76,1,3,1,87.0,False
12295,7027, Note_on_c,72,76,1,3,1,84.0,True
12296,7027, Note_on_c,77,76,1,3,1,90.0,True
12297,7028, Note_on_c,70,76,1,3,1,81.0,False
12298,7028, Note_on_c,75,76,1,3,1,87.0,False
12299,7029, Note_on_c,73,76,1,3,1,85.0,False
12300,7029, Note_on_c,77,76,1,3,1,90.0,True
12301,7030, Note_on_c,65,76,1,3,1,76.0,True
12302,7031, Note_on_c,70,76,1,3,1,81.0,False
12303,7031, Note_on_c,75,76,1,3,1,87.0,False
12304,7032, Note_on_c,72,76,1,3,1,84.0,True
12305,7032, Note_on_c,77,76,1,3,1,90.0,True
12306,7033, Note_on_c,65,76,1,3,1,76.0,True
12307,7034, Note_on_c,70,76,1,3,1,81.0,False
12308,7034, Note_on_c,75,76,1,3,1,87.0,False
12309,7035, Note_on_c,72,76,1,3,1,84.0,True
12310,7035, Note_on_c,77,76,1,3,1,90.0,True
12311,7036, Note_on_c,70,76,1,3,1,81.0,False
12312,7036, Note_on_c,75,76,1,3,1,87.0,False
12313,7037, Note_on_c,73,76,1,3,1,85.0,False
12314,7037, Note_on_c,77,76,1,3,1,90.0,True
12315,7038, Note_on_c,65,76,1,3,1,76.0,True
12316,7039, Note_on_c,70,76,1,3,1,81.0,False
12317,7039, Note_on_c,75,76,1,3,1,87.0,False
12318,7040, Note_on_c,72,76,1,3,1,84.0,True
12319,7040, Note_on_c,77,76,1,3,1,90.0,True
12320,7041, Note_on_c,65,76,1,3,1,76.0,True
12321,7042, Note_on_c,70,76,1,3,1,81.0,False
12322,7042, Note_on_c,75,76,1,3,1,87.0,False
12323,7043, Note_on_c,72,76,1,3,1,84.0,True
12324,7043, Note_on_c,77,76,1,3,1,90.0,True
12325,7044, Note_on_c,70,76,1,3,1,81.0,False
12326,7044, Note_on_c,75,76,1,3,1,87.0,False
12327,7045, Note_on_c,73,76,1,3,1,85.0,False
12328,7045, Note_on_c,77,76,1,3,1,90.0,True
12329,7046, Note_on_c,65,76,1,3,1,76.0,True
12330,7047, Note_on_c,70,76,1,3,1,81.0,False
12331,7047, Note_on_c,75,76,1,3,1,87.0,False
12332,7048, Note_on_c,72,76,1,3,1,84.0,True
12333,7048, Note_on_c,77,76,1,3,1,90.0,True
12334,7049, Note_on_c,65,76,1,3,1,76.0,True
12335,7050, Note_on_c,70,76,1,3,1,81.0,False
12336,7050, Note_on_c,75,76,1,3,1,87.0,False
12337,7051, Note_on_c,72,76,1,3,1,84.0,True
12338,7051, Note_on_c,77,76,1,3,1,90.0,True
12339,7052, Note_on_c,70,76,1,3,1,81.0,False
12340,7052, Note_on_c,75,76,1,3,1,87.0,False
12341,7053, Note_on_c,73,76,1,3,1,85.0,False
12342,7053, Note_on_c,77,76,1,3,1,90.0,True
12343,7054, Note_on_c,65,76,1,3,1,76.0,True
12344,7055, Note_on_c,70,76,1,3,1,81.0,False
12345,7055, Note_on_c,75,76,1,3,1,87.0,False
12346,7056, Note_on_c,72,76,1,3,1,84.0,True
12347,7056, Note_on_c,77,76,1,3,1,90.0,True
12348,7057, Note_on_c,65,76,1,3,1,76.0,True
12349,7058, Note_on_c,70,76,1,3,1,81.0,False
12350,7058, Note_on_c,75,76,1,3,1,87.0,False
12351,7059, Note_on_c,72,76,1,3,1,84.0,True
12352,7059, Note_on_c,77,76,1,3,1,90.0,True
12353,7060, Note_on_c,70,76,1,3,1,81.0,False
12354,7060, Note_on_c,75,76,1,3,1,87.0,False
12355,7061, Note_on_c,73,76,1,3,1,85.0,False
12356,7061, Note_on_c,77,76,1,3,1,90.0,True
12357,7062, Note_on_c,65,76,1,3,1,76.0,True
12358,7063, Note_on_c,70,76,1,3,1,81.0,False
12359,7063, Note_on_c,75,76,1,3,1,87.0,False
12360,7064, Note_on_c,72,76,1,3,1,84.0,True
12361,7064, Note_on_c,77,76,1,3,1,90.0,True
12362,7065, Note_on_c,65,76,1,3,1,76.0,True
12363,7066, Note_on_c,70,76,1,3,1,81.0,False
12364,7066, Note_on_c,75,76,1,3,1,87.0,False
12365,7067, Note_on_c,72,76,1,3,1,84.0,True
12366,7067, Note_on_c,77,76,1,3,1,90.0,True
12367,7068, Note_on_c,70,76,1,3,1,81.0,False
12368,7068, Note_on_c,75,76,1,3,1,87.0,False
12369,7069, Note_on_c,73,76,1,3,1,85.0,False
12370,7069, Note_on_c,77,76,1,3,1,90.0,True
12371,7070, Note_on_c,65,76,1,3,1,76.0,True
12372,7071, Note_on_c,70,76,1,3,1,81.0,False
12373,7071, Note_on_c,75,76,1,3,1,87.0,False
12374,7072, Note_on_c,72,76,1,3,1,84.0,True
12375,7072, Note_on_c,77,76,1,3,1,90.0,True
12376,7073, Note_on_c,65,76,1,3,1,76.0,True
12377,7074, Note_on_c,70,76,1,3,1,81.0,False
12378,7074, Note_on_c,75,76,1,3,1,87.0,False
12379,7075, Note_on_c,72,76,1,3,1,84.0,True
12380,7075, Note_on_c,77,76,1,3,1,90.0,True
12381,7076, Note_on_c,70,76,1,3,1,81.0,False
12382,7076, Note_on_c,75,76,1,3,1,87.0,False
12383,7077, Note_on_c,73,76,1,3,1,85.0,False
12384,7077, Note_on_c,77,76,1,3,1,90.0,True
12385,7078, Note_on_c,65,76,1,3,1,76.0,True
12386,7079, Note_on_c,70,76,1,3,1,81.0,False
12387,7079, Note_on_c,75,76,1,3,1,87.0,False
12388,7080, Note_on_c,72,76,1,3,1,84.0,True
12389,7080, Note_on_c,77,76,1,3,1,90.0,True
12390,7081, Note_on_c,65,76,1,3,1,76.0,True
12391,7082, Note_on_c,70,76,1,3,1,81.0,False
12392,7082, Note_on_c,75,76,1,3,1,87.0,False
12393,7083, Note_on_c,72,76,1,3,1,84.0,True
12394,7083, Note_on_c,77,76,1,3,1,90.0,True
12395,7084, Note_on_c,70,76,1,3,1,81.0,False
12396,7084, Note_on_c,75,76,1,3,1,87.0,False
12397,7085, Note_on_c,73,76,1,3,1,85.0,False
12398,7085, Note_on_c,77,76,1,3,1,90.0,True
12399,7086, Note_on_c,65,76,1,3,1,76.0,True
12400,7087, Note_on_c,70,76,1,3,1,81.0,False
12401,7087, Note_on_c,75,76,1,3,1,87.0,False
12402,7088, Note_on_c,72,76,1,3,1,84.0,True
12403,7088, Note_on_c,77,76,1,3,1,90.0,True
12404,7089, Note_on_c,65,76,1,3,1,76.0,True
12405,7090, Note_on_c,70,76,1,3,1,81.0,False
12406,7090, Note_on_c,75,76,1,3,1,87.0,False
12407,7091, Note_on_c,72,76,1,3,1,84.0,True
12408,7091, Note_on_c,77,76,1,3,1,90.0,True
12409,7092, Note_on_c,70,76,1,3,1,81.0,False
12410,7092, Note_on_c,75,76,1,3,1,87.0,False
12411,7093, Note_on_c,73,76,1,3,1,85.0,False
12412,7093, Note_on_c,77,76,1,3,1,90.0,True
12413,7094, Note_on_c,65,76,1,3,1,76.0,True
12414,7095, Note_on_c,70,76,1,3,1,81.0,False
12415,7095, Note_on_c,75,76,1,3,1,87.0,False
12416,7096, Note_on_c,72,76,1,3,1,84.0,True
12417,7096, Note_on_c,77,76,1,3,1,90.0,True
12418,7097, Note_on_c,65,76,1,3,1,76.0,True
12419,7098, Note_on_c,70,76,1,3,1,81.0,False
12420,7098, Note_on_c,75,76,1,3,1,87.0,False
12421,7099, Note_on_c,72,76,1,3,1,84.0,True
12422,7099, Note_on_c,77,76,1,3,1,90.0,True
12423,7100, Note_on_c,70,76,1,3,1,81.0,False
12424,7100, Note_on_c,75,76,1,3,1,87.0,False
12425,7101, Note_on_c,73,76,1,3,1,85.0,False
12426,7101, Note_on_c,77,76,1,3,1,90.0,True
12427,7102, Note_on_c,65,76,1,3,1,76.0,True
12428,7103, Note_on_c,70,76,1,3,1,81.0,False
12429,7103, Note_on_c,75,76,1,3,1,87.0,False
12430,7104, Note_on_c,72,76,1,3,1,84.0,True
12431,7104, Note_on_c,77,76,1,3,1,90.0,True
12432,7105, Note_on_c,65,76,1,3,1,76.0,True
12433,7106, Note_on_c,70,76,1,3,1,81.0,False
12434,7106, Note_on_c,75,76,1,3,1,87.0,False
12435,7107, Note_on_c,72,76,1,3,1,84.0,True
12436,7107, Note_on_c,77,76,1,3,1,90.0,True
12437,7108, Note_on_c,70,76,1,3,1,81.0,False
12438,7108, Note_on_c,75,76,1,3,1,87.0,False
12439,7109, Note_on_c,73,76,1,3,1,85.0,False
12440,7109, Note_on_c,77,76,1,3,1,90.0,True
12441,7110, Note_on_c,65,76,1,3,1,76.0,True
12442,7111, Note_on_c,70,76,1,3,1,81.0,False
12443,7111, Note_on_c,75,76,1,3,1,87.0,False
12444,7112, Note_on_c,72,76,1,3,1,84.0,True
12445,7112, Note_on_c,77,76,1,3,1,90.0,True
12446,7113, Note_on_c,65,76,1,3,1,76.0,True
12447,7114, Note_on_c,70,76,1,3,1,81.0,False
12448,7114, Note_on_c,75,76,1,3,1,87.0,False
12449,7115, Note_on_c,72,76,1,3,1,84.0,True
12450,7115, Note_on_c,77,76,1,3,1,90.0,True
12451,7116, Note_on_c,70,76,1,3,1,81.0,False
12452,7116, Note_on_c,75,76,1,3,1,87.0,False
12453,7117, Note_on_c,73,76,1,3,1,85.0,False
12454,7117, Note_on_c,77,76,1,3,1,90.0,True
12455,7118, Note_on_c,65,76,1,3,1,76.0,True
12456,7119, Note_on_c,70,76,1,3,1,81.0,False
12457,7119, Note_on_c,75,76,1,3,1,87.0,False
12458,7120, Note_on_c,72,76,1,3,1,84.0,True
12459,7120, Note_on_c,77,76,1,3,1,90.0,True
12460,7121, Note_on_c,65,76,1,3,1,76.0,True
12461,7122, Note_on_c,70,76,1,3,1,81.0,False
12462,7122, Note_on_c,75,76,1,3,1,87.0,False
12463,7123, Note_on_c,72,76,1,3,1,84.0,True
12464,7123, Note_on_c,77,76,1,3,1,90.0,True
12465,7124, Note_on_c,70,76,1,3,1,81.0,False
12466,7124, Note_on_c,75,76,1,3,1,87.0,False
12467,7125, Note_on_c,73,76,1,3,1,85.0,False
12468,7125, Note_on_c,77,76,1,3,1,90.0,True
12469,7126, Note_on_c,65,76,1,3,1,76.0,True
12470,7127, Note_on_c,70,76,1,3,1,81.0,False
12471,7127, Note_on_c,75,76,1,3,1,87.0,False
12472,7128, Note_on_c,72,76,1,3,1,84.0,True
12473,7128, Note_on_c,77,76,1,3,1,90.0,True
12474,7129, Note_on_c,65,76,1,3,1,76.0,True
12475,7130, Note_on_c,70,76,1,3,1,81.0,False
12476,7130, Note_on_c,75,76,1,3,1,87.0,False
12477,7131, Note_on_c,72,76,1,3,1,84.0,True
12478,7131, Note_on_c,77,76,1,3,1,90.0,True
12479,7132, Note_on_c,70,76,1,3,1,81.0,False
12480,7132, Note_on_c,75,76,1,3,1,87.0,False
12481,7133, Note_on_c,73,76,1,3,1,85.0,False
12482,7133, Note_on_c,77,76,1,3,1,90.0,True
12483,7134, Note_on_c,65,76,1,3,1,76.0,True
12484,7135, Note_on_c,70,76,1,3,1,81.0,False
12485,7135, Note_on_c,75,76,1,3,1,87.0,False
12486,7136, Note_on_c,72,76,1,3,1,84.0,True
12487,7136, Note_on_c,77,76,1,3,1,90.0,True
12488,7137, Note_on_c,65,76,1,3,1,76.0,True
12489,7138, Note_on_c,70,76,1,3,1,81.0,False
12490,7138, Note_on_c,75,76,1,3,1,87.0,False
12491,7139, Note_on_c,72,76,1,3,1,84.0,True
12492,7139, Note_on_c,77,76,1,3,1,90.0,True
12493,7140, Note_on_c,70,76,1,3,1,81.0,False
12494,7140, Note_on_c,75,76,1,3,1,87.0,False
12495,7141, Note_on_c,73,76,1,3,1,85.0,False
12496,7141, Note_on_c,77,76,1,3,1,90.0,True
12497,7142, Note_on_c,65,76,1,3,1,76.0,True
12498,7143, Note_on_c,70,76,1,3,1,81.0,False
12499,7143, Note_on_c,75,76,1,3,1,87.0,False
12500,7144, Note_on_c,72,76,1,3,1,84.0,True
12501,7144, Note_on_c,77,76,1,3,1,90.0,True
12502,7145, Note_on_c,65,76,1,3,1,76.0,True
12503,7146, Note_on_c,70,76,1,3,1,81.0,False
12504,7146, Note_on_c,75,76,1,3,1,87.0,False
12505,7147, Note_on_c,72,76,1,3,1,84.0,True
12506,7147, Note_on_c,77,76,1,3,1,90.0,True
12507,7148, Note_on_c,70,76,1,3,1,81.0,False
12508,7148, Note_on_c,75,76,1,3,1,87.0,False
12509,7149, Note_on_c,73,76,1,3,1,85.0,False
12510,7149, Note_on_c,77,76,1,3,1,90.0,True
12511,7150, Note_on_c,65,76,1,3,1,76.0,True
12512,7151, Note_on_c,70,76,1,3,1,81.0,False
12513,7151, Note_on_c,75,76,1,3,1,87.0,False
12514,7152, Note_on_c,72,76,1,3,1,84.0,True
12515,7152, Note_on_c,77,76,1,3,1,90.0,True
12516,7153, Note_on_c,65,76,1,3,1,76.0,True
12517,7154, Note_on_c,70,76,1,3,1,81.0,False
12518,7154, Note_on_c,75,76,1,3,1,87.0,False
12519,7155, Note_on_c,72,76,1,3,1,84.0,True
12520,7155, Note_on_c,77,76,1,3,1,90.0,True
12521,7156, Note_on_c,70,76,1,3,1,81.0,False
12522,7156, Note_on_c,75,76,1,3,1,87.0,False
12523,7157, Note_on_c,73,76,1,3,1,85.0,False
12524,7157, Note_on_c,77,76,1,3,1,90.0,True
12525,7158, Note_on_c,65,76,1,3,1,76.0,True
12526,7159, Note_on_c,70,76,1,3,1,81.0,False
12527,7159, Note_on_c,75,76,1,3,1,87.0,False
12528,7160, Note_on_c,72,76,1,3,1,84.0,True
12529,7160, Note_on_c,77,76,1,3,1,90.0,True
12530,7161, Note_on_c,65,76,1,3,1,76.0,True
12531,7162, Note_on_c,70,76,1,3,1,81.0,False
12532,7162, Note_on_c,75,76,1,3,1,87.0,False
12533,7163, Note_on_c,72,76,1,3,1,84.0,True
12534,7163, Note_on_c,77,76,1,3,1,90.0,True
12535,7164, Note_on_c,70,76,1,3,1,81.0,False
12536,7164, Note_on_c,75,76,1,3,1,87.0,False
12537,7165, Note_on_c,73,76,1,3,1,85.0,False
12538,7165, Note_on_c,77,76,1,3,1,90.0,True
12539,7166, Note_on_c,65,76,1,3,1,76.0,True
12540,7167, Note_on_c,70,76,1,3,1,81.0,False
12541,7167, Note_on_c,75,76,1,3,1,87.0,False
12542,7168, Note_on_c,72,76,1,3,1,84.0,True
12543,7168, Note_on_c,77,76,1,3,1,90.0,True
12544,7169, Note_on_c,65,76,1,3,1,76.0,True
12545,7170, Note_on_c,70,76,1,3,1,81.0,False
12546,7170, Note_on_c,75,76,1,3,1,87.0,False
12547,7171, Note_on_c,72,76,1,3,1,84.0,True
12548,7171, Note_on_c,77,76,1,3,1,90.0,True
12549,7172, Note_on_c,70,76,1,3,1,81.0,False
12550,7172, Note_on_c,75,76,1,3,1,87.0,False
12551,7173, Note_on_c,73,76,1,3,1,85.0,False
12552,7173, Note_on_c,77,76,1,3,1,90.0,True
12553,7174, Note_on_c,65,76,1,3,1,76.0,True
12554,7175, Note_on_c,70,76,1,3,1,81.0,False
12555,7175, Note_on_c,75,76,1,3,1,87.0,False
12556,7176, Note_on_c,72,76,1,3,1,84.0,True
12557,7176, Note_on_c,77,76,1,3,1,90.0,True
12558,7177, Note_on_c,65,76,1,3,1,76.0,True
12559,7178, Note_on_c,70,76,1,3,1,81.0,False
12560,7178, Note_on_c,75,76,1,3,1,87.0,False
12561,7179, Note_on_c,72,76,1,3,1,84.0,True
12562,7179, Note_on_c,77,76,1,3,1,90.0,True
12563,7180, Note_on_c,70,76,1,3,1,81.0,False
12564,7180, Note_on_c,75,76,1,3,1,87.0,False
12565,7181, Note_on_c,73,76,1,3,1,85.0,False
12566,7181, Note_on_c,77,76,1,3,1,90.0,True
12567,7182, Note_on_c,65,76,1,3,1,76.0,True
12568,7183, Note_on_c,70,76,1,3,1,81.0,False
12569,7183, Note_on_c,75,76,1,3,1,87.0,False
12570,7184, Note_on_c,72,76,1,3,1,84.0,True
12571,7184, Note_on_c,77,76,1,3,1,90.0,True
12572,7185, Note_on_c,65,76,1,3,1,76.0,True
12573,7186, Note_on_c,70,76,1,3,1,81.0,False
12574,7186, Note_on_c,75,76,1,3,1,87.0,False
12575,7187, Note_on_c,72,76,1,3,1,84.0,True
12576,7187, Note_on_c,77,76,1,3,1,90.0,True
12577,7188, Note_on_c,70,76,1,3,1,81.0,False
12578,7188, Note_on_c,75,76,1,3,1,87.0,False
12579,7189, Note_on_c,73,76,1,3,1,85.0,False
12580,7189, Note_on_c,77,76,1,3,1,90.0,True
12581,7190, Note_on_c,65,76,1,3,1,76.0,True
12582,7191, Note_on_c,70,76,1,3,1,81.0,False
12583,7191, Note_on_c,75,76,1,3,1,87.0,False
12584,7192, Note_on_c,72,76,1,3,1,84.0,True
12585,7192, Note_on_c,77,76,1,3,1,90.0,True
12586,7193, Note_on_c,65,76,1,3,1,76.0,True
12587,7194, Note_on_c,70,76,1,3,1,81.0,False
12588,7194, Note_on_c,75,76,1,3,1,87.0,False
12589,7195, Note_on_c,72,76,1,3,1,84.0,True
12590,7195, Note_on_c,77,76,1,3,1,90.0,True
12591,7196, Note_on_c,70,76,1,3,1,81.0,False
12592,7196, Note_on_c,75,76,1,3,1,87.0,False
12593,7197, Note_on_c,73,76,1,3,1,85.0,False
12594,7197, Note_on_c,77,76,1,3,1,90.0,True
12595,7198, Note_on_c,65,76,1,3,1,76.0,True
12596,7199, Note_on_c,70,76,1,3,1,81.0,False
12597,7199, Note_on_c,75,76,1,3,1,87.0,False
12598,7200, Note_on_c,72,76,1,3,1,84.0,True
12599,7200, Note_on_c,77,76,1,3,1,90.0,True
12600,7201, Note_on_c,65,76,1,3,1,76.0,True
12601,7202, Note_on_c,70,76,1,3,1,81.0,False
12602,7202, Note_on_c,75,76,1,3,1,87.0,False
12603,7203, Note_on_c,72,76,1,3,1,84.0,True
12604,7203, Note_on_c,77,76,1,3,1,90.0,True
12605,7204, Note_on_c,70,76,1,3,1,81.0,False
12606,7204, Note_on_c,75,76,1,3,1,87.0,False
12607,7205, Note_on_c,73,76,1,3,1,85.0,False
12608,7205, Note_on_c,77,76,1,3,1,90.0,True
12609,7206, Note_on_c,65,76,1,3,1,76.0,True
12610,7207, Note_on_c,70,76,1,3,1,81.0,False
12611,7207, Note_on_c,75,76,1,3,1,87.0,False
12612,7208, Note_on_c,72,76,1,3,1,84.0,True
12613,7208, Note_on_c,77,76,1,3,1,90.0,True
12614,7209, Note_on_c,65,76,1,3,1,76.0,True
12615,7210, Note_on_c,70,76,1,3,1,81.0,False
12616,7210, Note_on_c,75,76,1,3,1,87.0,False
12617,7211, Note_on_c,72,76,1,3,1,84.0,True
12618,7211, Note_on_c,77,76,1,3,1,90.0,True
12619,7212, Note_on_c,70,76,1,3,1,81.0,False
12620,7212, Note_on_c,75,76,1,3,1,87.0,False
12621,7213, Note_on_c,73,76,1,3,1,85.0,False
12622,7213, Note_on_c,77,76,1,3,1,90.0,True
12623,7214, Note_on_c,65,76,1,3,1,76.0,True
12624,7215, Note_on_c,70,76,1,3,1,81.0,False
12625,7215, Note_on_c,75,76,1,3,1,87.0,False
12626,7216, Note_on_c,72,76,1,3,1,84.0,True
12627,7216, Note_on_c,77,76,1,3,1,90.0,True
12628,7217, Note_on_c,65,76,1,3,1,76.0,True
12629,7218, Note_on_c,70,76,1,3,1,81.0,False
12630,7218, Note_on_c,75,76,1,3,1,87.0,False
12631,7219, Note_on_c,72,76,1,3,1,84.0,True
12632,7219, Note_on_c,77,76,1,3,1,90.0,True
12633,7220, Note_on_c,70,76,1,3,1,81.0,False
12634,7220, Note_on_c,75,76,1,3,1,87.0,False
12635,7221, Note_on_c,73,76,1,3,1,85.0,False
12636,7221, Note_on_c,77,76,1,3,1,90.0,True
12637,7222, Note_on_c,65,76,1,3,1,76.0,True
12638,7223, Note_on_c,70,76,1,3,1,81.0,False
12639,7223, Note_on_c,75,76,1,3,1,87.0,False
12640,7224, Note_on_c,72,76,1,3,1,84.0,True
12641,7224, Note_on_c,77,76,1,3,1,90.0,True
12642,7225, Note_on_c,65,76,1,3,1,76.0,True
12643,7226, Note_on_c,70,76,1,3,1,81.0,False
12644,7226, Note_on_c,75,76,1,3,1,87.0,False
12645,7227, Note_on_c,72,76,1,3,1,84.0,True
12646,7227, Note_on_c,77,76,1,3,1,90.0,True
12647,7228, Note_on_c,70,76,1,3,1,81.0,False
12648,7228, Note_on_c,75,76,1,3,1,87.0,False
12649,7229, Note_on_c,73,76,1,3,1,85.0,False
12650,7229, Note_on_c,77,76,1,3,1,90.0,True
12651,7230, Note_on_c,65,76,1,3,1,76.0,True
12652,7231, Note_on_c,70,76,1,3,1,81.0,False
12653,7231, Note_on_c,75,76,1,3,1,87.0,False
12654,7232, Note_on_c,72,76,1,3,1,84.0,True
12655,7232, Note_on_c,77,76,1,3,1,90.0,True
12656,7233, Note_on_c,65,76,1,3,1,76.0,True
12657,7234, Note_on_c,70,76,1,3,1,81.0,False
12658,7234, Note_on_c,75,76,1,3,1,87.0,False
12659,7235, Note_on_c,72,76,1,3,1,84.0,True
12660,7235, Note_on_c,77,76,1,3,1,90.0,True
12661,7236, Note_on_c,70,76,1,3,1,81.0,False
12662,7236, Note_on_c,75,76,1,3,1,87.0,False
12663,7237, Note_on_c,73,76,1,3,1,85.0,False
12664,7237, Note_on_c,77,76,1,3,1,90.0,True
12665,7238, Note_on_c,65,76,1,3,1,76.0,True
12666,7239, Note_on_c,70,76,1,3,1,81.0,False
12667,7239, Note_on_c,75,76,1,3,1,87.0,False
12668,7240, Note_on_c,72,76,1,3,1,84.0,True
12669,7240, Note_on_c,77,76,1,3,1,90.0,True
12670,7241, Note_on_c,65,76,1,3,1,76.0,True
12671,7242, Note_on_c,70,76,1,3,1,81.0,False
12672,7242, Note_on_c,75,76,1,3,1,87.0,False
12673,7243, Note_on_c,72,76,1,3,1,84.0,True
12674,7243, Note_on_c,77,76,1,3,1,90.0,True
12675,7244, Note_on_c,70,76,1,3,1,81.0,False
12676,7244, Note_on_c,75,76,1,3,1,87.0,False
12677,7245, Note_on_c,73,76,1,3,1,85.0,False
12678,7245, Note_on_c,77,76,1,3,1,90.0,True
12679,7246, Note_on_c,65,76,1,3,1,76.0,True
12680,7247, Note_on_c,70,76,1,3,1,81.0,False
12681,7247, Note_on_c,75,76,1,3,1,87.0,False
12682,7248, Note_on_c,72,76,1,3,1,84.0,True
12683,7248, Note_on_c,77,76,1,3,1,90.0,True
12684,7249, Note_on_c,65,76,1,3,1,76.0,True
12685,7250, Note_on_c,70,76,1,3,1,81.0,False
12686,7250, Note_on_c,75,76,1,3,1,87.0,False
12687,7251, Note_on_c,72,76,1,3,1,84.0,True
12688,7251, Note_on_c,77,76,1,3,1,90.0,True
12689,7252, Note_on_c,70,76,1,3,1,81.0,False
12690,7252, Note_on_c,75,76,1,3,1,87.0,False
12691,7253, Note_on_c,73,76,1,3,1,85.0,False
12692,7253, Note_on_c,77,76,1,3,1,90.0,True
12693,7254, Note_on_c,65,76,1,3,1,76.0,True
12694,7255, Note_on_c,70,76,1,3,1,81.0,False
12695,7255, Note_on_c,75,76,1,3,1,87.0,False
12696,7256, Note_on_c,72,76,1,3,1,84.0,True
12697,7256, Note_on_c,77,76,1,3,1,90.0,True
12698,7257, Note_on_c,65,76,1,3,1,76.0,True
12699,7258, Note_on_c,70,76,1,3,1,81.0,False
12700,7258, Note_on_c,75,76,1,3,1,87.0,False
12701,7259, Note_on_c,72,76,1,3,1,84.0,True
12702,7259, Note_on_c,77,76,1,3,1,90.0,True
12703,7260, Note_on_c,70,76,1,3,1,81.0,False
12704,7260, Note_on_c,75,76,1,3,1,87.0,False
12705,7261, Note_on_c,73,76,1,3,1,85.0,False
12706,7261, Note_on_c,77,76,1,3,1,90.0,True
12707,7262, Note_on_c,65,76,1,3,1,76.0,True
12708,7263, Note_on_c,70,76,1,3,1,81.0,False
12709,7263, Note_on_c,75,76,1,3,1,87.0,False
12710,7264, Note_on_c,72,76,1,3,1,84.0,True
12711,7264, Note_on_c,77,76,1,3,1,90.0,True
12712,7265, Note_on_c,65,77,1,3,1,76.0,True
12713,7266, Note_on_c,70,78,1,3,1,81.0,False
12714,7266, Note_on_c,75,78,1,3,1,87.0,False
12715,7267, Note_on_c,72,78,1,3,1,84.0,True
12716,7267, Note_on_c,77,78,1,3,1,90.0,True
12717,7268, Note_on_c,70,79,1,3,1,81.0,False
12718,7268, Note_on_c,75,79,1,3,1,87.0,False
12719,7269, Note_on_c,73,80,1,3,1,85.0,False
12720,7269, Note_on_c,77,80,1,3,1,90.0,True
12721,7270, Note_on_c,65,80,1,3,1,76.0,True
12722,7271, Note_on_c,70,81,1,3,1,81.0,False
12723,7271, Note_on_c,75,81,1,3,1,87.0,False
12724,7272, Note_on_c,72,82,1,3,1,84.0,True
12725,7272, Note_on_c,77,82,1,3,1,90.0,True
12726,7273, Note_on_c,65,82,1,3,1,76.0,True
12727,7274, Note_on_c,70,83,1,3,1,81.0,False
12728,7274, Note_on_c,75,83,1,3,1,87.0,False
12729,7275, Note_on_c,72,84,1,3,1,84.0,True
12730,7275, Note_on_c,77,84,1,3,1,90.0,True
12731,7276, Note_on_c,70,84,1,3,1,81.0,False
12732,7276, Note_on_c,75,84,1,3,1,87.0,False
12733,7277, Note_on_c,73,85,1,3,1,85.0,False
12734,7277, Note_on_c,77,85,1,3,1,90.0,True
12735,7278, Note_on_c,65,85,1,3,1,76.0,True
12736,7279, Note_on_c,70,86,1,3,1,81.0,False
12737,7279, Note_on_c,75,86,1,3,1,87.0,False
12738,7280, Note_on_c,72,87,1,3,1,84.0,True
12739,7280, Note_on_c,77,87,1,3,1,90.0,True
12740,7281, Note_on_c,65,87,1,3,1,76.0,True
12741,7282, Note_on_c,70,88,1,3,1,81.0,False
12742,7282, Note_on_c,75,88,1,3,1,87.0,False
12743,7283, Note_on_c,72,89,1,3,1,84.0,True
12744,7283, Note_on_c,77,89,1,3,1,90.0,True
12745,7284, Note_on_c,70,89,1,3,1,81.0,False
12746,7284, Note_on_c,75,89,1,3,1,87.0,False
12747,7285, Note_on_c,73,90,1,3,1,85.0,False
12748,7285, Note_on_c,77,90,1,3,1,90.0,True
12749,7286, Note_on_c,65,90,1,3,1,76.0,True
12750,7287, Note_on_c,70,91,1,3,1,81.0,False
12751,7287, Note_on_c,75,91,1,3,1,87.0,False
12752,7288, Note_on_c,72,92,1,3,1,84.0,True
12753,7288, Note_on_c,77,92,1,3,1,90.0,True
12754,7289, Note_on_c,65,92,1,3,1,76.0,True
12755,7290, Note_on_c,70,93,1,3,1,81.0,False
12756,7290, Note_on_c,75,93,1,3,1,87.0,False
12757,7291, Note_on_c,72,94,1,3,1,84.0,True
12758,7291, Note_on_c,77,94,1,3,1,90.0,True
12759,7292, Note_on_c,70,94,1,3,1,81.0,False
12760,7292, Note_on_c,75,94,1,3,1,87.0,False
12761,7293, Note_on_c,73,95,1,3,1,85.0,False
12762,7293, Note_on_c,77,95,1,3,1,90.0,True
12763,7294, Note_on_c,65,96,1,3,1,76.0,True
12764,7295, Note_on_c,70,96,1,3,1,81.0,False
12765,7295, Note_on_c,75,96,1,3,1,87.0,False
12766,7296, Note_on_c,72,97,1,3,1,84.0,True
12767,7296, Note_on_c,77,97,1,3,1,90.0,True
12768,7297, Note_on_c,65,97,1,3,1,76.0,True
12769,7298, Note_on_c,70,98,1,3,1,81.0,False
12770,7298, Note_on_c,75,98,1,3,1,87.0,False
12771,7299, Note_on_c,72,99,1,3,1,84.0,True
12772,7299, Note_on_c,77,99,1,3,1,90.0,True
12773,7300, Note_on_c,70,99,1,3,1,81.0,False
12774,7300, Note_on_c,75,99,1,3,1,87.0,False
12775,7301, Note_on_c,73,100,1,3,1,85.0,False
12776,7301, Note_on_c,77,100,1,3,1,90.0,True
12777,7302, Note_on_c,65,101,1,3,1,76.0,True
12778,7303, Note_on_c,70,101,1,3,1,81.0,False
12779,7303, Note_on_c,75,101,1,3,1,87.0,False
12780,7304, Note_on_c,72,102,1,3,1,84.0,True
12781,7304, Note_on_c,77,102,1,3,1,90.0,True
12782,7305, Note_on_c,65,102,1,3,1,76.0,True
12783,7306, Note_on_c,70,103,1,3,1,81.0,False
12784,7306, Note_on_c,75,103,1,3,1,87.0,False
12785,7307, Note_on_c,72,104,1,3,1,84.0,True
12786,7307, Note_on_c,77,104,1,3,1,90.0,True
12787,7308, Note_on_c,70,104,1,3,1,81.0,False
12788,7308, Note_on_c,75,104,1,3,1,87.0,False
12789,7309, Note_on_c,73,105,1,3,1,85.0,False
12790,7309, Note_on_c,77,105,1,3,1,90.0,True
12791,7310, Note_on_c,65,106,1,3,1,76.0,True
12792,7311, Note_on_c,70,106,1,3,1,81.0,False
12793,7311, Note_on_c,75,106,1,3,1,87.0,False
12794,7312, Note_on_c,72,107,1,3,1,84.0,True
12795,7312, Note_on_c,77,107,1,3,1,90.0,True
12796,7313, End_track,,,1,3,-1,,False
12797,1, End_of_file,,,1,1,-1,,False
12798,1, Header,1,480,2,1,-1,1.0,False
12799,1, Start_track,,,2,1,-1,,False
12800,1, Channel_prefix,,,2,1,-1,,False
12801,1, Title_t,,,2,1,-1,,False
12802,1, Instrument_name_t,,,2,1,-1,,False
12803,1, Time_signature,2,24,2,1,-1,2.0,True
12804,1, Key_signature,,,2,1,-1,,False
12805,1, SMPTE_offset,0,0,2,1,-1,0.0,True
12806,1, Tempo,,,2,1,-1,,False
12807,1, Note_on_c,58,76,2,1,1,67.0,False
12808,2, Note_on_c,63,76,2,1,1,73.0,False
12809,2, Note_on_c,66,76,2,1,1,77.0,False
12810,3, Note_on_c,65,76,2,1,1,76.0,True
12811,3, Note_on_c,68,76,2,1,1,79.0,False
12812,4, Note_on_c,63,76,2,1,1,73.0,False
12813,4, Note_on_c,66,76,2,1,1,77.0,False
12814,5, Note_on_c,65,76,2,1,1,76.0,True
12815,5, Note_on_c,70,76,2,1,1,81.0,False
12816,6, Note_on_c,58,76,2,1,1,67.0,False
12817,7, Note_on_c,63,76,2,1,1,73.0,False
12818,7, Note_on_c,66,76,2,1,1,77.0,False
12819,8, Note_on_c,65,76,2,1,1,76.0,True
12820,8, Note_on_c,68,76,2,1,1,79.0,False
12821,9, Note_on_c,58,76,2,1,1,67.0,False
12822,10, Note_on_c,63,76,2,1,1,73.0,False
12823,10, Note_on_c,66,76,2,1,1,77.0,False
12824,11, Note_on_c,65,76,2,1,1,76.0,True
12825,11, Note_on_c,68,76,2,1,1,79.0,False
12826,12, Note_on_c,63,76,2,1,1,73.0,False
12827,12, Note_on_c,66,76,2,1,1,77.0,False
12828,13, Note_on_c,65,76,2,1,1,76.0,True
12829,13, Note_on_c,70,76,2,1,1,81.0,False
12830,14, Note_on_c,58,76,2,1,1,67.0,False
12831,15, Note_on_c,63,76,2,1,1,73.0,False
12832,15, Note_on_c,66,76,2,1,1,77.0,False
12833,16, Note_on_c,65,76,2,1,1,76.0,True
12834,16, Note_on_c,68,76,2,1,1,79.0,False
12835,17, Note_on_c,58,76,2,1,1,67.0,False
12836,18, Note_on_c,63,76,2,1,1,73.0,False
12837,18, Note_on_c,66,76,2,1,1,77.0,False
12838,19, Note_on_c,65,76,2,1,1,76.0,True
12839,19, Note_on_c,68,76,2,1,1,79.0,False
12840,20, Note_on_c,63,76,2,1,1,73.0,False
12841,20, Note_on_c,66,76,2,1,1,77.0,False
12842,21, Note_on_c,65,76,2,1,1,76.0,True
12843,21, Note_on_c,70,76,2,1,1,81.0,False
12844,22, Note_on_c,58,76,2,1,1,67.0,False
12845,23, Note_on_c,63,76,2,1,1,73.0,False
12846,23, Note_on_c,66,76,2,1,1,77.0,False
12847,24, Note_on_c,65,76,2,1,1,76.0,True
12848,24, Note_on_c,68,76,2,1,1,79.0,False
12849,25, Note_on_c,58,76,2,1,1,67.0,False
12850,26, Note_on_c,63,76,2,1,1,73.0,False
12851,26, Note_on_c,66,76,2,1,1,77.0,False
12852,27, Note_on_c,65,76,2,1,1,76.0,True
12853,27, Note_on_c,68,76,2,1,1,79.0,False
12854,28, Note_on_c,63,76,2,1,1,73.0,False
12855,28, Note_on_c,66,76,2,1,1,77.0,False
12856,29, Note_on_c,65,76,2,1,1,76.0,True
12857,29, Note_on_c,70,76,2,1,1,81.0,False
12858,30, Note_on_c,58,76,2,1,1,67.0,False
12859,31, Note_on_c,63,76,2,1,1,73.0,False
12860,31, Note_on_c,66,76,2,1,1,77.0,False
12861,32, Note_on_c,65,76,2,1,1,76.0,True
12862,32, Note_on_c,68,76,2,1,1,79.0,False
12863,33, Note_on_c,58,76,2,1,1,67.0,False
12864,34, Note_on_c,63,76,2,1,1,73.0,False
12865,34, Note_on_c,66,76,2,1,1,77.0,False
12866,35, Note_on_c,65,76,2,1,1,76.0,True
12867,35, Note_on_c,68,76,2,1,1,79.0,False
12868,36, Note_on_c,63,76,2,1,1,73.0,False
12869,36, Note_on_c,66,76,2,1,1,77.0,False
12870,37, Note_on_c,65,76,2,1,1,76.0,True
12871,37, Note_on_c,70,76,2,1,1,81.0,False
12872,38, Note_on_c,58,76,2,1,1,67.0,False
12873,39, Note_on_c,63,76,2,1,1,73.0,False
12874,39, Note_on_c,66,76,2,1,1,77.0,False
12875,40, Note_on_c,65,76,2,1,1,76.0,True
12876,40, Note_on_c,68,76,2,1,1,79.0,False
12877,41, Note_on_c,58,76,2,1,1,67.0,False
12878,42, Note_on_c,63,76,2,1,1,73.0,False
12879,42, Note_on_c,66,76,2,1,1,77.0,False
12880,43, Note_on_c,65,76,2,1,1,76.0,True
12881,43, Note_on_c,68,76,2,1,1,79.0,False
12882,44, Note_on_c,63,76,2,1,1,73.0,False
12883,44, Note_on_c,66,76,2,1,1,77.0,False
12884,45, Note_on_c,65,76,2,1,1,76.0,True
12885,45, Note_on_c,70,76,2,1,1,81.0,False
12886,46, Note_on_c,58,76,2,1,1,67.0,False
12887,47, Note_on_c,63,76,2,1,1,73.0,False
12888,47, Note_on_c,66,76,2,1,1,77.0,False
12889,48, Note_on_c,65,76,2,1,1,76.0,True
12890,48, Note_on_c,68,76,2,1,1,79.0,False
12891,49, Note_on_c,58,76,2,1,1,67.0,False
12892,50, Note_on_c,63,76,2,1,1,73.0,False
12893,50, Note_on_c,66,76,2,1,1,77.0,False
12894,51, Note_on_c,65,76,2,1,1,76.0,True
12895,51, Note_on_c,68,76,2,1,1,79.0,False
12896,52, Note_on_c,63,76,2,1,1,73.0,False
12897,52, Note_on_c,66,76,2,1,1,77.0,False
12898,53, Note_on_c,65,76,2,1,1,76.0,True
12899,53, Note_on_c,70,76,2,1,1,81.0,False
12900,54, Note_on_c,58,76,2,1,1,67.0,False
12901,55, Note_on_c,63,76,2,1,1,73.0,False
12902,55, Note_on_c,66,76,2,1,1,77.0,False
12903,56, Note_on_c,65,76,2,1,1,76.0,True
12904,56, Note_on_c,68,76,2,1,1,79.0,False
12905,57, Note_on_c,58,76,2,1,1,67.0,False
12906,58, Note_on_c,63,76,2,1,1,73.0,False
12907,58, Note_on_c,66,76,2,1,1,77.0,False
12908,59, Note_on_c,65,76,2,1,1,76.0,True
12909,59, Note_on_c,68,76,2,1,1,79.0,False
12910,60, Note_on_c,63,76,2,1,1,73.0,False
12911,60, Note_on_c,66,76,2,1,1,77.0,False
12912,61, Note_on_c,65,76,2,1,1,76.0,True
12913,61, Note_on_c,70,76,2,1,1,81.0,False
12914,62, Note_on_c,58,76,2,1,1,67.0,False
12915,63, Note_on_c,63,76,2,1,1,73.0,False
12916,63, Note_on_c,66,76,2,1,1,77.0,False
12917,64, Note_on_c,65,76,2,1,1,76.0,True
12918,64, Note_on_c,68,76,2,1,1,79.0,False
12919,65, Note_on_c,58,76,2,1,1,67.0,False
12920,66, Note_on_c,63,76,2,1,1,73.0,False
12921,66, Note_on_c,66,76,2,1,1,77.0,False
12922,67, Note_on_c,65,76,2,1,1,76.0,True
12923,67, Note_on_c,68,76,2,1,1,79.0,False
12924,68, Note_on_c,63,76,2,1,1,73.0,False
12925,68, Note_on_c,66,76,2,1,1,77.0,False
12926,69, Note_on_c,65,76,2,1,1,76.0,True
12927,69, Note_on_c,70,76,2,1,1,81.0,False
12928,70, Note_on_c,58,76,2,1,1,67.0,False
12929,71, Note_on_c,63,76,2,1,1,73.0,False
12930,71, Note_on_c,66,76,2,1,1,77.0,False
12931,72, Note_on_c,65,76,2,1,1,76.0,True
12932,72, Note_on_c,68,76,2,1,1,79.0,False
12933,73, Note_on_c,58,76,2,1,1,67.0,False
12934,74, Note_on_c,63,76,2,1,1,73.0,False
12935,74, Note_on_c,66,76,2,1,1,77.0,False
12936,75, Note_on_c,65,76,2,1,1,76.0,True
12937,75, Note_on_c,68,76,2,1,1,79.0,False
12938,76, Note_on_c,63,76,2,1,1,73.0,False
12939,76, Note_on_c,66,76,2,1,1,77.0,False
12940,77, Note_on_c,65,76,2,1,1,76.0,True
12941,77, Note_on_c,70,76,2,1,1,81.0,False
12942,78, Note_on_c,58,76,2,1,1,67.0,False
12943,79, Note_on_c,63,76,2,1,1,73.0,False
12944,79, Note_on_c,66,76,2,1,1,77.0,False
12945,80, Note_on_c,65,76,2,1,1,76.0,True
12946,80, Note_on_c,68,76,2,1,1,79.0,False
12947,81, Note_on_c,58,76,2,1,1,67.0,False
12948,82, Note_on_c,63,76,2,1,1,73.0,False
12949,82, Note_on_c,66,76,2,1,1,77.0,False
12950,83, Note_on_c,65,76,2,1,1,76.0,True
12951,83, Note_on_c,68,76,2,1,1,79.0,False
12952,84, Note_on_c,63,76,2,1,1,73.0,False
12953,84, Note_on_c,66,76,2,1,1,77.0,False
12954,85, Note_on_c,65,76,2,1,1,76.0,True
12955,85, Note_on_c,70,76,2,1,1,81.0,False
12956,86, Note_on_c,58,76,2,1,1,67.0,False
12957,87, Note_on_c,63,76,2,1,1,73.0,False
12958,87, Note_on_c,66,76,2,1,1,77.0,False
12959,88, Note_on_c,65,76,2,1,1,76.0,True
12960,88, Note_on_c,68,76,2,1,1,79.0,False
12961,89, Note_on_c,58,76,2,1,1,67.0,False
12962,90, Note_on_c,63,76,2,1,1,73.0,False
12963,90, Note_on_c,66,76,2,1,1,77.0,False
12964,91, Note_on_c,65,76,2,1,1,76.0,True
12965,91, Note_on_c,68,76,2,1,1,79.0,False
12966,92, Note_on_c,63,76,2,1,1,73.0,False
12967,92, Note_on_c,66,76,2,1,1,77.0,False
12968,93, Note_on_c,65,76,2,1,1,76.0,True
12969,93, Note_on_c,70,76,2,1,1,81.0,False
12970,94, Note_on_c,58,76,2,1,1,67.0,False
12971,95, Note_on_c,63,76,2,1,1,73.0,False
12972,95, Note_on_c,66,76,2,1,1,77.0,False
12973,96, Note_on_c,65,76,2,1,1,76.0,True
12974,96, Note_on_c,68,76,2,1,1,79.0,False
12975,97, Note_on_c,58,76,2,1,1,67.0,False
12976,98, Note_on_c,63,76,2,1,1,73.0,False
12977,98, Note_on_c,66,76,2,1,1,77.0,False
12978,99, Note_on_c,65,76,2,1,1,76.0,True
12979,99, Note_on_c,68,76,2,1,1,79.0,False
12980,100, Note_on_c,63,76,2,1,1,73.0,False
12981,100, Note_on_c,66,76,2,1,1,77.0,False
12982,101, Note_on_c,65,76,2,1,1,76.0,True
12983,101, Note_on_c,70,76,2,1,1,81.0,False
12984,102, Note_on_c,58,76,2,1,1,67.0,False
12985,103, Note_on_c,63,76,2,1,1,73.0,False
12986,103, Note_on_c,66,76,2,1,1,77.0,False
12987,104, Note_on_c,65,76,2,1,1,76.0,True
12988,104, Note_on_c,68,76,2,1,1,79.0,False
12989,105, Note_on_c,58,76,2,1,1,67.0,False
12990,106, Note_on_c,63,76,2,1,1,73.0,False
12991,106, Note_on_c,66,76,2,1,1,77.0,False
12992,107, Note_on_c,65,76,2,1,1,76.0,True
12993,107, Note_on_c,68,76,2,1,1,79.0,False
12994,108, Note_on_c,63,76,2,1,1,73.0,False
12995,108, Note_on_c,66,76,2,1,1,77.0,False
12996,109, Note_on_c,65,76,2,1,1,76.0,True
12997,109, Note_on_c,70,76,2,1,1,81.0,False
12998,110, Note_on_c,58,76,2,1,1,67.0,False
12999,111, Note_on_c,63,76,2,1,1,73.0,False
13000,111, Note_on_c,66,76,2,1,1,77.0,False
13001,112, Note_on_c,65,76,2,1,1,76.0,True
13002,112, Note_on_c,68,76,2,1,1,79.0,False
13003,113, Note_on_c,58,76,2,1,1,67.0,False
13004,114, Note_on_c,63,76,2,1,1,73.0,False
13005,114, Note_on_c,66,76,2,1,1,77.0,False
13006,115, Note_on_c,65,76,2,1,1,76.0,True
13007,115, Note_on_c,68,76,2,1,1,79.0,False
13008,116, Note_on_c,63,76,2,1,1,73.0,False
13009,116, Note_on_c,66,76,2,1,1,77.0,False
13010,117, Note_on_c,65,76,2,1,1,76.0,True
13011,117, Note_on_c,70,76,2,1,1,81.0,False
13012,118, Note_on_c,58,76,2,1,1,67.0,False
13013,119, Note_on_c,63,76,2,1,1,73.0,False
13014,119, Note_on_c,66,76,2,1,1,77.0,False
13015,120, Note_on_c,65,76,2,1,1,76.0,True
13016,120, Note_on_c,68,76,2,1,1,79.0,False
13017,121, Note_on_c,58,76,2,1,1,67.0,False
13018,122, Note_on_c,63,76,2,1,1,73.0,False
13019,122, Note_on_c,66,76,2,1,1,77.0,False
13020,123, Note_on_c,65,76,2,1,1,76.0,True
13021,123, Note_on_c,68,76,2,1,1,79.0,False
13022,124, Note_on_c,63,76,2,1,1,73.0,False
13023,124, Note_on_c,66,76,2,1,1,77.0,False
13024,125, Note_on_c,65,76,2,1,1,76.0,True
13025,125, Note_on_c,70,76,2,1,1,81.0,False
13026,126, Note_on_c,58,76,2,1,1,67.0,False
13027,127, Note_on_c,63,76,2,1,1,73.0,False
13028,127, Note_on_c,66,76,2,1,1,77.0,False
13029,128, Note_on_c,65,76,2,1,1,76.0,True
13030,128, Note_on_c,68,76,2,1,1,79.0,False
13031,129, Note_on_c,58,76,2,1,1,67.0,False
13032,130, Note_on_c,63,76,2,1,1,73.0,False
13033,130, Note_on_c,66,76,2,1,1,77.0,False
13034,131, Note_on_c,65,76,2,1,1,76.0,True
13035,131, Note_on_c,68,76,2,1,1,79.0,False
13036,132, Note_on_c,63,76,2,1,1,73.0,False
13037,132, Note_on_c,66,76,2,1,1,77.0,False
13038,133, Note_on_c,65,76,2,1,1,76.0,True
13039,133, Note_on_c,70,76,2,1,1,81.0,False
13040,134, Note_on_c,58,76,2,1,1,67.0,False
13041,135, Note_on_c,63,76,2,1,1,73.0,False
13042,135, Note_on_c,66,76,2,1,1,77.0,False
13043,136, Note_on_c,65,76,2,1,1,76.0,True
13044,136, Note_on_c,68,76,2,1,1,79.0,False
13045,137, Note_on_c,58,76,2,1,1,67.0,False
13046,138, Note_on_c,63,76,2,1,1,73.0,False
13047,138, Note_on_c,66,76,2,1,1,77.0,False
13048,139, Note_on_c,65,76,2,1,1,76.0,True
13049,139, Note_on_c,68,76,2,1,1,79.0,False
13050,140, Note_on_c,63,76,2,1,1,73.0,False
13051,140, Note_on_c,66,76,2,1,1,77.0,False
13052,141, Note_on_c,65,76,2,1,1,76.0,True
13053,141, Note_on_c,70,76,2,1,1,81.0,False
13054,142, Note_on_c,58,76,2,1,1,67.0,False
13055,143, Note_on_c,63,76,2,1,1,73.0,False
13056,143, Note_on_c,66,76,2,1,1,77.0,False
13057,144, Note_on_c,65,76,2,1,1,76.0,True
13058,144, Note_on_c,68,76,2,1,1,79.0,False
13059,145, Note_on_c,58,76,2,1,1,67.0,False
13060,146, Note_on_c,63,76,2,1,1,73.0,False
13061,146, Note_on_c,66,76,2,1,1,77.0,False
13062,147, Note_on_c,65,76,2,1,1,76.0,True
13063,147, Note_on_c,68,76,2,1,1,79.0,False
13064,148, Note_on_c,63,76,2,1,1,73.0,False
13065,148, Note_on_c,66,76,2,1,1,77.0,False
13066,149, Note_on_c,65,76,2,1,1,76.0,True
13067,149, Note_on_c,70,76,2,1,1,81.0,False
13068,150, Note_on_c,58,76,2,1,1,67.0,False
13069,151, Note_on_c,63,76,2,1,1,73.0,False
13070,151, Note_on_c,66,76,2,1,1,77.0,False
13071,152, Note_on_c,65,76,2,1,1,76.0,True
13072,152, Note_on_c,68,76,2,1,1,79.0,False
13073,153, Note_on_c,58,76,2,1,1,67.0,False
13074,154, Note_on_c,63,76,2,1,1,73.0,False
13075,154, Note_on_c,66,76,2,1,1,77.0,False
13076,155, Note_on_c,65,76,2,1,1,76.0,True
13077,155, Note_on_c,68,76,2,1,1,79.0,False
13078,156, Note_on_c,63,76,2,1,1,73.0,False
13079,156, Note_on_c,66,76,2,1,1,77.0,False
13080,157, Note_on_c,65,76,2,1,1,76.0,True
13081,157, Note_on_c,70,76,2,1,1,81.0,False
13082,158, Note_on_c,58,76,2,1,1,67.0,False
13083,159, Note_on_c,63,76,2,1,1,73.0,False
13084,159, Note_on_c,66,76,2,1,1,77.0,False
13085,160, Note_on_c,65,76,2,1,1,76.0,True
13086,160, Note_on_c,68,76,2,1,1,79.0,False
13087,161, Note_on_c,58,76,2,1,1,67.0,False
13088,162, Note_on_c,63,76,2,1,1,73.0,False
13089,162, Note_on_c,66,76,2,1,1,77.0,False
13090,163, Note_on_c,65,76,2,1,1,76.0,True
13091,163, Note_on_c,68,76,2,1,1,79.0,False
13092,164, Note_on_c,63,76,2,1,1,73.0,False
13093,164, Note_on_c,66,76,2,1,1,77.0,False
13094,165, Note_on_c,65,76,2,1,1,76.0,True
13095,165, Note_on_c,70,76,2,1,1,81.0,False
13096,166, Note_on_c,58,76,2,1,1,67.0,False
13097,167, Note_on_c,63,76,2,1,1,73.0,False
13098,167, Note_on_c,66,76,2,1,1,77.0,False
13099,168, Note_on_c,65,76,2,1,1,76.0,True
13100,168, Note_on_c,68,76,2,1,1,79.0,False
13101,169, Note_on_c,58,76,2,1,1,67.0,False
13102,170, Note_on_c,63,76,2,1,1,73.0,False
13103,170, Note_on_c,66,76,2,1,1,77.0,False
13104,171, Note_on_c,65,76,2,1,1,76.0,True
13105,171, Note_on_c,68,76,2,1,1,79.0,False
13106,172, Note_on_c,63,76,2,1,1,73.0,False
13107,172, Note_on_c,66,76,2,1,1,77.0,False
13108,173, Note_on_c,65,76,2,1,1,76.0,True
13109,173, Note_on_c,70,76,2,1,1,81.0,False
13110,174, Note_on_c,58,76,2,1,1,67.0,False
13111,175, Note_on_c,63,76,2,1,1,73.0,False
13112,175, Note_on_c,66,76,2,1,1,77.0,False
13113,176, Note_on_c,65,76,2,1,1,76.0,True
13114,176, Note_on_c,68,76,2,1,1,79.0,False
13115,177, Note_on_c,58,76,2,1,1,67.0,False
13116,178, Note_on_c,63,76,2,1,1,73.0,False
13117,178, Note_on_c,66,76,2,1,1,77.0,False
13118,179, Note_on_c,65,76,2,1,1,76.0,True
13119,179, Note_on_c,68,76,2,1,1,79.0,False
13120,180, Note_on_c,63,76,2,1,1,73.0,False
13121,180, Note_on_c,66,76,2,1,1,77.0,False
13122,181, Note_on_c,65,76,2,1,1,76.0,True
13123,181, Note_on_c,70,76,2,1,1,81.0,False
13124,182, Note_on_c,58,76,2,1,1,67.0,False
13125,183, Note_on_c,63,76,2,1,1,73.0,False
13126,183, Note_on_c,66,76,2,1,1,77.0,False
13127,184, Note_on_c,65,76,2,1,1,76.0,True
13128,184, Note_on_c,68,76,2,1,1,79.0,False
13129,185, Note_on_c,58,76,2,1,1,67.0,False
13130,186, Note_on_c,63,76,2,1,1,73.0,False
13131,186, Note_on_c,66,76,2,1,1,77.0,False
13132,187, Note_on_c,65,76,2,1,1,76.0,True
13133,187, Note_on_c,68,76,2,1,1,79.0,False
13134,188, Note_on_c,63,76,2,1,1,73.0,False
13135,188, Note_on_c,66,76,2,1,1,77.0,False
13136,189, Note_on_c,65,76,2,1,1,76.0,True
13137,189, Note_on_c,70,76,2,1,1,81.0,False
13138,190, Note_on_c,58,76,2,1,1,67.0,False
13139,191, Note_on_c,63,76,2,1,1,73.0,False
13140,191, Note_on_c,66,76,2,1,1,77.0,False
13141,192, Note_on_c,65,76,2,1,1,76.0,True
13142,192, Note_on_c,68,76,2,1,1,79.0,False
13143,193, Note_on_c,58,76,2,1,1,67.0,False
13144,194, Note_on_c,63,76,2,1,1,73.0,False
13145,194, Note_on_c,66,76,2,1,1,77.0,False
13146,195, Note_on_c,65,76,2,1,1,76.0,True
13147,195, Note_on_c,68,76,2,1,1,79.0,False
13148,196, Note_on_c,63,76,2,1,1,73.0,False
13149,196, Note_on_c,66,76,2,1,1,77.0,False
13150,197, Note_on_c,65,76,2,1,1,76.0,True
13151,197, Note_on_c,70,76,2,1,1,81.0,False
13152,198, Note_on_c,58,76,2,1,1,67.0,False
13153,199, Note_on_c,63,76,2,1,1,73.0,False
13154,199, Note_on_c,66,76,2,1,1,77.0,False
13155,200, Note_on_c,65,76,2,1,1,76.0,True
13156,200, Note_on_c,68,76,2,1,1,79.0,False
13157,201, Note_on_c,58,76,2,1,1,67.0,False
13158,202, Note_on_c,63,76,2,1,1,73.0,False
13159,202, Note_on_c,66,76,2,1,1,77.0,False
13160,203, Note_on_c,65,76,2,1,1,76.0,True
13161,203, Note_on_c,68,76,2,1,1,79.0,False
13162,204, Note_on_c,63,76,2,1,1,73.0,False
13163,204, Note_on_c,66,76,2,1,1,77.0,False
13164,205, Note_on_c,65,76,2,1,1,76.0,True
13165,205, Note_on_c,70,76,2,1,1,81.0,False
13166,206, Note_on_c,58,76,2,1,1,67.0,False
13167,207, Note_on_c,63,76,2,1,1,73.0,False
13168,207, Note_on_c,66,76,2,1,1,77.0,False
13169,208, Note_on_c,65,76,2,1,1,76.0,True
13170,208, Note_on_c,68,76,2,1,1,79.0,False
13171,209, Note_on_c,58,76,2,1,1,67.0,False
13172,210, Note_on_c,63,76,2,1,1,73.0,False
13173,210, Note_on_c,66,76,2,1,1,77.0,False
13174,211, Note_on_c,65,76,2,1,1,76.0,True
13175,211, Note_on_c,68,76,2,1,1,79.0,False
13176,212, Note_on_c,63,76,2,1,1,73.0,False
13177,212, Note_on_c,66,76,2,1,1,77.0,False
13178,213, Note_on_c,65,76,2,1,1,76.0,True
13179,213, Note_on_c,70,76,2,1,1,81.0,False
13180,214, Note_on_c,58,76,2,1,1,67.0,False
13181,215, Note_on_c,63,76,2,1,1,73.0,False
13182,215, Note_on_c,66,76,2,1,1,77.0,False
13183,216, Note_on_c,65,76,2,1,1,76.0,True
13184,216, Note_on_c,68,76,2,1,1,79.0,False
13185,217, Note_on_c,58,76,2,1,1,67.0,False
13186,218, Note_on_c,63,76,2,1,1,73.0,False
13187,218, Note_on_c,66,76,2,1,1,77.0,False
13188,219, Note_on_c,65,76,2,1,1,76.0,True
13189,219, Note_on_c,68,76,2,1,1,79.0,False
13190,220, Note_on_c,63,76,2,1,1,73.0,False
13191,220, Note_on_c,66,76,2,1,1,77.0,False
13192,221, Note_on_c,65,76,2,1,1,76.0,True
13193,221, Note_on_c,70,76,2,1,1,81.0,False
13194,222, Note_on_c,58,76,2,1,1,67.0,False
13195,223, Note_on_c,63,76,2,1,1,73.0,False
13196,223, Note_on_c,66,76,2,1,1,77.0,False
13197,224, Note_on_c,65,76,2,1,1,76.0,True
13198,224, Note_on_c,68,76,2,1,1,79.0,False
13199,225, Note_on_c,58,76,2,1,1,67.0,False
13200,226, Note_on_c,63,76,2,1,1,73.0,False
13201,226, Note_on_c,66,76,2,1,1,77.0,False
13202,227, Note_on_c,65,76,2,1,1,76.0,True
13203,227, Note_on_c,68,76,2,1,1,79.0,False
13204,228, Note_on_c,63,76,2,1,1,73.0,False
13205,228, Note_on_c,66,76,2,1,1,77.0,False
13206,229, Note_on_c,65,76,2,1,1,76.0,True
13207,229, Note_on_c,70,76,2,1,1,81.0,False
13208,230, Note_on_c,58,76,2,1,1,67.0,False
13209,231, Note_on_c,63,76,2,1,1,73.0,False
13210,231, Note_on_c,66,76,2,1,1,77.0,False
13211,232, Note_on_c,65,76,2,1,1,76.0,True
13212,232, Note_on_c,68,76,2,1,1,79.0,False
13213,233, Note_on_c,58,76,2,1,1,67.0,False
13214,234, Note_on_c,63,76,2,1,1,73.0,False
13215,234, Note_on_c,66,76,2,1,1,77.0,False
13216,235, Note_on_c,65,76,2,1,1,76.0,True
13217,235, Note_on_c,68,76,2,1,1,79.0,False
13218,236, Note_on_c,63,76,2,1,1,73.0,False
13219,236, Note_on_c,66,76,2,1,1,77.0,False
13220,237, Note_on_c,65,76,2,1,1,76.0,True
13221,237, Note_on_c,70,76,2,1,1,81.0,False
13222,238, Note_on_c,58,76,2,1,1,67.0,False
13223,239, Note_on_c,63,76,2,1,1,73.0,False
13224,239, Note_on_c,66,76,2,1,1,77.0,False
13225,240, Note_on_c,65,76,2,1,1,76.0,True
13226,240, Note_on_c,68,76,2,1,1,79.0,False
13227,241, Note_on_c,58,76,2,1,1,67.0,False
13228,242, Note_on_c,63,76,2,1,1,73.0,False
13229,242, Note_on_c,66,76,2,1,1,77.0,False
13230,243, Note_on_c,65,76,2,1,1,76.0,True
13231,243, Note_on_c,68,76,2,1,1,79.0,False
13232,244, Note_on_c,63,76,2,1,1,73.0,False
13233,244, Note_on_c,66,76,2,1,1,77.0,False
13234,245, Note_on_c,65,76,2,1,1,76.0,True
13235,245, Note_on_c,70,76,2,1,1,81.0,False
13236,246, Note_on_c,58,76,2,1,1,67.0,False
13237,247, Note_on_c,63,76,2,1,1,73.0,False
13238,247, Note_on_c,66,76,2,1,1,77.0,False
13239,248, Note_on_c,65,76,2,1,1,76.0,True
13240,248, Note_on_c,68,76,2,1,1,79.0,False
13241,249, Note_on_c,58,76,2,1,1,67.0,False
13242,250, Note_on_c,63,76,2,1,1,73.0,False
13243,250, Note_on_c,66,76,2,1,1,77.0,False
13244,251, Note_on_c,65,76,2,1,1,76.0,True
13245,251, Note_on_c,68,76,2,1,1,79.0,False
13246,252, Note_on_c,63,76,2,1,1,73.0,False
13247,252, Note_on_c,66,76,2,1,1,77.0,False
13248,253, Note_on_c,65,76,2,1,1,76.0,True
13249,253, Note_on_c,70,76,2,1,1,81.0,False
13250,254, Note_on_c,58,76,2,1,1,67.0,False
13251,255, Note_on_c,63,76,2,1,1,73.0,False
13252,255, Note_on_c,66,76,2,1,1,77.0,False
13253,256, Note_on_c,65,76,2,1,1,76.0,True
13254,256, Note_on_c,68,76,2,1,1,79.0,False
13255,257, Note_on_c,58,76,2,1,1,67.0,False
13256,258, Note_on_c,63,76,2,1,1,73.0,False
13257,258, Note_on_c,66,76,2,1,1,77.0,False
13258,259, Note_on_c,65,76,2,1,1,76.0,True
13259,259, Note_on_c,68,76,2,1,1,79.0,False
13260,260, Note_on_c,63,76,2,1,1,73.0,False
13261,260, Note_on_c,66,76,2,1,1,77.0,False
13262,261, Note_on_c,65,76,2,1,1,76.0,True
13263,261, Note_on_c,70,76,2,1,1,81.0,False
13264,262, Note_on_c,58,76,2,1,1,67.0,False
13265,263, Note_on_c,63,76,2,1,1,73.0,False
13266,263, Note_on_c,66,76,2,1,1,77.0,False
13267,264, Note_on_c,65,76,2,1,1,76.0,True
13268,264, Note_on_c,68,76,2,1,1,79.0,False
13269,265, Note_on_c,58,76,2,1,1,67.0,False
13270,266, Note_on_c,63,76,2,1,1,73.0,False
13271,266, Note_on_c,66,76,2,1,1,77.0,False
13272,267, Note_on_c,65,76,2,1,1,76.0,True
13273,267, Note_on_c,68,76,2,1,1,79.0,False
13274,268, Note_on_c,63,76,2,1,1,73.0,False
13275,268, Note_on_c,66,76,2,1,1,77.0,False
13276,269, Note_on_c,65,76,2,1,1,76.0,True
13277,269, Note_on_c,70,76,2,1,1,81.0,False
13278,270, Note_on_c,58,76,2,1,1,67.0,False
13279,271, Note_on_c,63,76,2,1,1,73.0,False
13280,271, Note_on_c,66,76,2,1,1,77.0,False
13281,272, Note_on_c,65,76,2,1,1,76.0,True
13282,272, Note_on_c,68,76,2,1,1,79.0,False
13283,273, Note_on_c,58,76,2,1,1,67.0,False
13284,274, Note_on_c,63,76,2,1,1,73.0,False
13285,274, Note_on_c,66,76,2,1,1,77.0,False
13286,275, Note_on_c,65,76,2,1,1,76.0,True
13287,275, Note_on_c,68,76,2,1,1,79.0,False
13288,276, Note_on_c,63,76,2,1,1,73.0,False
13289,276, Note_on_c,66,76,2,1,1,77.0,False
13290,277, Note_on_c,65,76,2,1,1,76.0,True
13291,277, Note_on_c,70,76,2,1,1,81.0,False
13292,278, Note_on_c,58,76,2,1,1,67.0,False
13293,279, Note_on_c,63,76,2,1,1,73.0,False
13294,279, Note_on_c,66,76,2,1,1,77.0,False
13295,280, Note_on_c,65,76,2,1,1,76.0,True
13296,280, Note_on_c,68,76,2,1,1,79.0,False
13297,281, Note_on_c,58,76,2,1,1,67.0,False
13298,282, Note_on_c,63,76,2,1,1,73.0,False
13299,282, Note_on_c,66,76,2,1,1,77.0,False
13300,283, Note_on_c,65,76,2,1,1,76.0,True
13301,283, Note_on_c,68,76,2,1,1,79.0,False
13302,284, Note_on_c,63,76,2,1,1,73.0,False
13303,284, Note_on_c,66,76,2,1,1,77.0,False
13304,285, Note_on_c,65,76,2,1,1,76.0,True
13305,285, Note_on_c,70,76,2,1,1,81.0,False
13306,286, Note_on_c,58,76,2,1,1,67.0,False
13307,287, Note_on_c,63,76,2,1,1,73.0,False
13308,287, Note_on_c,66,76,2,1,1,77.0,False
13309,288, Note_on_c,65,76,2,1,1,76.0,True
13310,288, Note_on_c,68,76,2,1,1,79.0,False
13311,289, Note_on_c,58,76,2,1,1,67.0,False
13312,290, Note_on_c,63,76,2,1,1,73.0,False
13313,290, Note_on_c,66,76,2,1,1,77.0,False
13314,291, Note_on_c,65,76,2,1,1,76.0,True
13315,291, Note_on_c,68,76,2,1,1,79.0,False
13316,292, Note_on_c,63,76,2,1,1,73.0,False
13317,292, Note_on_c,66,76,2,1,1,77.0,False
13318,293, Note_on_c,65,76,2,1,1,76.0,True
13319,293, Note_on_c,70,76,2,1,1,81.0,False
13320,294, Note_on_c,58,76,2,1,1,67.0,False
13321,295, Note_on_c,63,76,2,1,1,73.0,False
13322,295, Note_on_c,66,76,2,1,1,77.0,False
13323,296, Note_on_c,65,76,2,1,1,76.0,True
13324,296, Note_on_c,68,76,2,1,1,79.0,False
13325,297, Note_on_c,58,76,2,1,1,67.0,False
13326,298, Note_on_c,63,76,2,1,1,73.0,False
13327,298, Note_on_c,66,76,2,1,1,77.0,False
13328,299, Note_on_c,65,76,2,1,1,76.0,True
13329,299, Note_on_c,68,76,2,1,1,79.0,False
13330,300, Note_on_c,63,76,2,1,1,73.0,False
13331,300, Note_on_c,66,76,2,1,1,77.0,False
13332,301, Note_on_c,65,76,2,1,1,76.0,True
13333,301, Note_on_c,70,76,2,1,1,81.0,False
13334,302, Note_on_c,58,76,2,1,1,67.0,False
13335,303, Note_on_c,63,76,2,1,1,73.0,False
13336,303, Note_on_c,66,76,2,1,1,77.0,False
13337,304, Note_on_c,65,76,2,1,1,76.0,True
13338,304, Note_on_c,68,76,2,1,1,79.0,False
13339,305, Note_on_c,58,76,2,1,1,67.0,False
13340,306, Note_on_c,63,76,2,1,1,73.0,False
13341,306, Note_on_c,66,76,2,1,1,77.0,False
13342,307, Note_on_c,65,76,2,1,1,76.0,True
13343,307, Note_on_c,68,76,2,1,1,79.0,False
13344,308, Note_on_c,63,76,2,1,1,73.0,False
13345,308, Note_on_c,66,76,2,1,1,77.0,False
13346,309, Note_on_c,65,76,2,1,1,76.0,True
13347,309, Note_on_c,70,76,2,1,1,81.0,False
13348,310, Note_on_c,58,76,2,1,1,67.0,False
13349,311, Note_on_c,63,76,2,1,1,73.0,False
13350,311, Note_on_c,66,76,2,1,1,77.0,False
13351,312, Note_on_c,65,76,2,1,1,76.0,True
13352,312, Note_on_c,68,76,2,1,1,79.0,False
13353,313, Note_on_c,58,76,2,1,1,67.0,False
13354,314, Note_on_c,63,76,2,1,1,73.0,False
13355,314, Note_on_c,66,76,2,1,1,77.0,False
13356,315, Note_on_c,65,76,2,1,1,76.0,True
13357,315, Note_on_c,68,76,2,1,1,79.0,False
13358,316, Note_on_c,63,76,2,1,1,73.0,False
13359,316, Note_on_c,66,76,2,1,1,77.0,False
13360,317, Note_on_c,65,76,2,1,1,76.0,True
13361,317, Note_on_c,70,76,2,1,1,81.0,False
13362,318, Note_on_c,58,76,2,1,1,67.0,False
13363,319, Note_on_c,63,76,2,1,1,73.0,False
13364,319, Note_on_c,66,76,2,1,1,77.0,False
13365,320, Note_on_c,65,76,2,1,1,76.0,True
13366,320, Note_on_c,68,76,2,1,1,79.0,False
13367,321, Note_on_c,58,76,2,1,1,67.0,False
13368,322, Note_on_c,63,76,2,1,1,73.0,False
13369,322, Note_on_c,66,76,2,1,1,77.0,False
13370,323, Note_on_c,65,76,2,1,1,76.0,True
13371,323, Note_on_c,68,76,2,1,1,79.0,False
13372,324, Note_on_c,63,76,2,1,1,73.0,False
13373,324, Note_on_c,66,76,2,1,1,77.0,False
13374,325, Note_on_c,65,76,2,1,1,76.0,True
13375,325, Note_on_c,70,76,2,1,1,81.0,False
13376,326, Note_on_c,58,76,2,1,1,67.0,False
13377,327, Note_on_c,63,76,2,1,1,73.0,False
13378,327, Note_on_c,66,76,2,1,1,77.0,False
13379,328, Note_on_c,65,76,2,1,1,76.0,True
13380,328, Note_on_c,68,76,2,1,1,79.0,False
13381,329, Note_on_c,58,76,2,1,1,67.0,False
13382,330, Note_on_c,63,76,2,1,1,73.0,False
13383,330, Note_on_c,66,76,2,1,1,77.0,False
13384,331, Note_on_c,65,76,2,1,1,76.0,True
13385,331, Note_on_c,68,76,2,1,1,79.0,False
13386,332, Note_on_c,63,76,2,1,1,73.0,False
13387,332, Note_on_c,66,76,2,1,1,77.0,False
13388,333, Note_on_c,65,76,2,1,1,76.0,True
13389,333, Note_on_c,70,76,2,1,1,81.0,False
13390,334, Note_on_c,58,76,2,1,1,67.0,False
13391,335, Note_on_c,63,76,2,1,1,73.0,False
13392,335, Note_on_c,66,76,2,1,1,77.0,False
13393,336, Note_on_c,65,76,2,1,1,76.0,True
13394,336, Note_on_c,68,76,2,1,1,79.0,False
13395,337, Note_on_c,58,76,2,1,1,67.0,False
13396,338, Note_on_c,63,76,2,1,1,73.0,False
13397,338, Note_on_c,66,76,2,1,1,77.0,False
13398,339, Note_on_c,65,76,2,1,1,76.0,True
13399,339, Note_on_c,68,76,2,1,1,79.0,False
13400,340, Note_on_c,63,76,2,1,1,73.0,False
13401,340, Note_on_c,66,76,2,1,1,77.0,False
13402,341, Note_on_c,65,76,2,1,1,76.0,True
13403,341, Note_on_c,70,76,2,1,1,81.0,False
13404,342, Note_on_c,58,76,2,1,1,67.0,False
13405,343, Note_on_c,63,76,2,1,1,73.0,False
13406,343, Note_on_c,66,76,2,1,1,77.0,False
13407,344, Note_on_c,65,76,2,1,1,76.0,True
13408,344, Note_on_c,68,76,2,1,1,79.0,False
13409,345, Note_on_c,58,76,2,1,1,67.0,False
13410,346, Note_on_c,63,76,2,1,1,73.0,False
13411,346, Note_on_c,66,76,2,1,1,77.0,False
13412,347, Note_on_c,65,76,2,1,1,76.0,True
13413,347, Note_on_c,68,76,2,1,1,79.0,False
13414,348, Note_on_c,63,76,2,1,1,73.0,False
13415,348, Note_on_c,66,76,2,1,1,77.0,False
13416,349, Note_on_c,65,76,2,1,1,76.0,True
13417,349, Note_on_c,70,76,2,1,1,81.0,False
13418,350, Note_on_c,58,76,2,1,1,67.0,False
13419,351, Note_on_c,63,76,2,1,1,73.0,False
13420,351, Note_on_c,66,76,2,1,1,77.0,False
13421,352, Note_on_c,65,76,2,1,1,76.0,True
13422,352, Note_on_c,68,76,2,1,1,79.0,False
13423,353, Note_on_c,58,76,2,1,1,67.0,False
13424,354, Note_on_c,63,76,2,1,1,73.0,False
13425,354, Note_on_c,66,76,2,1,1,77.0,False
13426,355, Note_on_c,65,76,2,1,1,76.0,True
13427,355, Note_on_c,68,76,2,1,1,79.0,False
13428,356, Note_on_c,63,76,2,1,1,73.0,False
13429,356, Note_on_c,66,76,2,1,1,77.0,False
13430,357, Note_on_c,65,76,2,1,1,76.0,True
13431,357, Note_on_c,70,76,2,1,1,81.0,False
13432,358, Note_on_c,58,76,2,1,1,67.0,False
13433,359, Note_on_c,63,76,2,1,1,73.0,False
13434,359, Note_on_c,66,76,2,1,1,77.0,False
13435,360, Note_on_c,65,76,2,1,1,76.0,True
13436,360, Note_on_c,68,76,2,1,1,79.0,False
13437,361, Note_on_c,58,76,2,1,1,67.0,False
13438,362, Note_on_c,63,76,2,1,1,73.0,False
13439,362, Note_on_c,66,76,2,1,1,77.0,False
13440,363, Note_on_c,65,76,2,1,1,76.0,True
13441,363, Note_on_c,68,76,2,1,1,79.0,False
13442,364, Note_on_c,63,76,2,1,1,73.0,False
13443,364, Note_on_c,66,76,2,1,1,77.0,False
13444,365, Note_on_c,65,76,2,1,1,76.0,True
13445,365, Note_on_c,70,76,2,1,1,81.0,False
13446,366, Note_on_c,58,76,2,1,1,67.0,False
13447,367, Note_on_c,63,76,2,1,1,73.0,False
13448,367, Note_on_c,66,76,2,1,1,77.0,False
13449,368, Note_on_c,65,76,2,1,1,76.0,True
13450,368, Note_on_c,68,76,2,1,1,79.0,False
13451,369, Note_on_c,58,76,2,1,1,67.0,False
13452,370, Note_on_c,63,76,2,1,1,73.0,False
13453,370, Note_on_c,66,76,2,1,1,77.0,False
13454,371, Note_on_c,65,76,2,1,1,76.0,True
13455,371, Note_on_c,68,76,2,1,1,79.0,False
13456,372, Note_on_c,63,76,2,1,1,73.0,False
13457,372, Note_on_c,66,76,2,1,1,77.0,False
13458,373, Note_on_c,65,76,2,1,1,76.0,True
13459,373, Note_on_c,70,76,2,1,1,81.0,False
13460,374, Note_on_c,58,76,2,1,1,67.0,False
13461,375, Note_on_c,63,76,2,1,1,73.0,False
13462,375, Note_on_c,66,76,2,1,1,77.0,False
13463,376, Note_on_c,65,76,2,1,1,76.0,True
13464,376, Note_on_c,68,76,2,1,1,79.0,False
13465,377, Note_on_c,58,76,2,1,1,67.0,False
13466,378, Note_on_c,63,76,2,1,1,73.0,False
13467,378, Note_on_c,66,76,2,1,1,77.0,False
13468,379, Note_on_c,65,76,2,1,1,76.0,True
13469,379, Note_on_c,68,76,2,1,1,79.0,False
13470,380, Note_on_c,63,76,2,1,1,73.0,False
13471,380, Note_on_c,66,76,2,1,1,77.0,False
13472,381, Note_on_c,65,76,2,1,1,76.0,True
13473,381, Note_on_c,70,76,2,1,1,81.0,False
13474,382, Note_on_c,58,76,2,1,1,67.0,False
13475,383, Note_on_c,63,76,2,1,1,73.0,False
13476,383, Note_on_c,66,76,2,1,1,77.0,False
13477,384, Note_on_c,65,76,2,1,1,76.0,True
13478,384, Note_on_c,68,76,2,1,1,79.0,False
13479,385, Note_on_c,58,76,2,1,1,67.0,False
13480,386, Note_on_c,63,76,2,1,1,73.0,False
13481,386, Note_on_c,66,76,2,1,1,77.0,False
13482,387, Note_on_c,65,76,2,1,1,76.0,True
13483,387, Note_on_c,68,76,2,1,1,79.0,False
13484,388, Note_on_c,63,76,2,1,1,73.0,False
13485,388, Note_on_c,66,76,2,1,1,77.0,False
13486,389, Note_on_c,65,76,2,1,1,76.0,True
13487,389, Note_on_c,70,76,2,1,1,81.0,False
13488,390, Note_on_c,58,76,2,1,1,67.0,False
13489,391, Note_on_c,63,76,2,1,1,73.0,False
13490,391, Note_on_c,66,76,2,1,1,77.0,False
13491,392, Note_on_c,65,76,2,1,1,76.0,True
13492,392, Note_on_c,68,76,2,1,1,79.0,False
13493,393, Note_on_c,58,76,2,1,1,67.0,False
13494,394, Note_on_c,63,76,2,1,1,73.0,False
13495,394, Note_on_c,66,76,2,1,1,77.0,False
13496,395, Note_on_c,65,76,2,1,1,76.0,True
13497,395, Note_on_c,68,76,2,1,1,79.0,False
13498,396, Note_on_c,63,76,2,1,1,73.0,False
13499,396, Note_on_c,66,76,2,1,1,77.0,False
13500,397, Note_on_c,65,76,2,1,1,76.0,True
13501,397, Note_on_c,70,76,2,1,1,81.0,False
13502,398, Note_on_c,58,76,2,1,1,67.0,False
13503,399, Note_on_c,63,76,2,1,1,73.0,False
13504,399, Note_on_c,66,76,2,1,1,77.0,False
13505,400, Note_on_c,65,76,2,1,1,76.0,True
13506,400, Note_on_c,68,76,2,1,1,79.0,False
13507,401, Note_on_c,58,76,2,1,1,67.0,False
13508,402, Note_on_c,63,76,2,1,1,73.0,False
13509,402, Note_on_c,66,76,2,1,1,77.0,False
13510,403, Note_on_c,65,76,2,1,1,76.0,True
13511,403, Note_on_c,68,76,2,1,1,79.0,False
13512,404, Note_on_c,63,76,2,1,1,73.0,False
13513,404, Note_on_c,66,76,2,1,1,77.0,False
13514,405, Note_on_c,65,76,2,1,1,76.0,True
13515,405, Note_on_c,70,76,2,1,1,81.0,False
13516,406, Note_on_c,58,76,2,1,1,67.0,False
13517,407, Note_on_c,63,76,2,1,1,73.0,False
13518,407, Note_on_c,66,76,2,1,1,77.0,False
13519,408, Note_on_c,65,76,2,1,1,76.0,True
13520,408, Note_on_c,68,76,2,1,1,79.0,False
13521,409, Note_on_c,58,76,2,1,1,67.0,False
13522,410, Note_on_c,63,76,2,1,1,73.0,False
13523,410, Note_on_c,66,76,2,1,1,77.0,False
13524,411, Note_on_c,65,76,2,1,1,76.0,True
13525,411, Note_on_c,68,76,2,1,1,79.0,False
13526,412, Note_on_c,63,76,2,1,1,73.0,False
13527,412, Note_on_c,66,76,2,1,1,77.0,False
13528,413, Note_on_c,65,76,2,1,1,76.0,True
13529,413, Note_on_c,70,76,2,1,1,81.0,False
13530,414, Note_on_c,58,76,2,1,1,67.0,False
13531,415, Note_on_c,63,76,2,1,1,73.0,False
13532,415, Note_on_c,66,76,2,1,1,77.0,False
13533,416, Note_on_c,65,76,2,1,1,76.0,True
13534,416, Note_on_c,68,76,2,1,1,79.0,False
13535,417, Note_on_c,58,76,2,1,1,67.0,False
13536,418, Note_on_c,63,76,2,1,1,73.0,False
13537,418, Note_on_c,66,76,2,1,1,77.0,False
13538,419, Note_on_c,65,76,2,1,1,76.0,True
13539,419, Note_on_c,68,76,2,1,1,79.0,False
13540,420, Note_on_c,63,76,2,1,1,73.0,False
13541,420, Note_on_c,66,76,2,1,1,77.0,False
13542,421, Note_on_c,65,76,2,1,1,76.0,True
13543,421, Note_on_c,70,76,2,1,1,81.0,False
13544,422, Note_on_c,58,76,2,1,1,67.0,False
13545,423, Note_on_c,63,76,2,1,1,73.0,False
13546,423, Note_on_c,66,76,2,1,1,77.0,False
13547,424, Note_on_c,65,76,2,1,1,76.0,True
13548,424, Note_on_c,68,76,2,1,1,79.0,False
13549,425, Note_on_c,58,76,2,1,1,67.0,False
13550,426, Note_on_c,63,76,2,1,1,73.0,False
13551,426, Note_on_c,66,76,2,1,1,77.0,False
13552,427, Note_on_c,65,76,2,1,1,76.0,True
13553,427, Note_on_c,68,76,2,1,1,79.0,False
13554,428, Note_on_c,63,76,2,1,1,73.0,False
13555,428, Note_on_c,66,76,2,1,1,77.0,False
13556,429, Note_on_c,65,76,2,1,1,76.0,True
13557,429, Note_on_c,70,76,2,1,1,81.0,False
13558,430, Note_on_c,58,76,2,1,1,67.0,False
13559,431, Note_on_c,63,76,2,1,1,73.0,False
13560,431, Note_on_c,66,76,2,1,1,77.0,False
13561,432, Note_on_c,65,76,2,1,1,76.0,True
13562,432, Note_on_c,68,76,2,1,1,79.0,False
13563,433, Note_on_c,58,76,2,1,1,67.0,False
13564,434, Note_on_c,63,76,2,1,1,73.0,False
13565,434, Note_on_c,66,76,2,1,1,77.0,False
13566,435, Note_on_c,65,76,2,1,1,76.0,True
13567,435, Note_on_c,68,76,2,1,1,79.0,False
13568,436, Note_on_c,63,76,2,1,1,73.0,False
13569,436, Note_on_c,66,76,2,1,1,77.0,False
13570,437, Note_on_c,65,76,2,1,1,76.0,True
13571,437, Note_on_c,70,76,2,1,1,81.0,False
13572,438, Note_on_c,58,76,2,1,1,67.0,False
13573,439, Note_on_c,63,76,2,1,1,73.0,False
13574,439, Note_on_c,66,76,2,1,1,77.0,False
13575,440, Note_on_c,65,76,2,1,1,76.0,True
13576,440, Note_on_c,68,76,2,1,1,79.0,False
13577,441, Note_on_c,58,76,2,1,1,67.0,False
13578,442, Note_on_c,63,76,2,1,1,73.0,False
13579,442, Note_on_c,66,76,2,1,1,77.0,False
13580,443, Note_on_c,65,76,2,1,1,76.0,True
13581,443, Note_on_c,68,76,2,1,1,79.0,False
13582,444, Note_on_c,63,76,2,1,1,73.0,False
13583,444, Note_on_c,66,76,2,1,1,77.0,False
13584,445, Note_on_c,65,76,2,1,1,76.0,True
13585,445, Note_on_c,70,76,2,1,1,81.0,False
13586,446, Note_on_c,58,76,2,1,1,67.0,False
13587,447, Note_on_c,63,76,2,1,1,73.0,False
13588,447, Note_on_c,66,76,2,1,1,77.0,False
13589,448, Note_on_c,65,76,2,1,1,76.0,True
13590,448, Note_on_c,68,76,2,1,1,79.0,False
13591,449, Note_on_c,58,76,2,1,1,67.0,False
13592,450, Note_on_c,63,76,2,1,1,73.0,False
13593,450, Note_on_c,66,76,2,1,1,77.0,False
13594,451, Note_on_c,65,76,2,1,1,76.0,True
13595,451, Note_on_c,68,76,2,1,1,79.0,False
13596,452, Note_on_c,63,76,2,1,1,73.0,False
13597,452, Note_on_c,66,76,2,1,1,77.0,False
13598,453, Note_on_c,65,76,2,1,1,76.0,True
13599,453, Note_on_c,70,76,2,1,1,81.0,False
13600,454, Note_on_c,58,76,2,1,1,67.0,False
13601,455, Note_on_c,63,76,2,1,1,73.0,False
13602,455, Note_on_c,66,76,2,1,1,77.0,False
13603,456, Note_on_c,65,76,2,1,1,76.0,True
13604,456, Note_on_c,68,76,2,1,1,79.0,False
13605,457, Note_on_c,58,76,2,1,1,67.0,False
13606,458, Note_on_c,63,76,2,1,1,73.0,False
13607,458, Note_on_c,66,76,2,1,1,77.0,False
13608,459, Note_on_c,65,76,2,1,1,76.0,True
13609,459, Note_on_c,68,76,2,1,1,79.0,False
13610,460, Note_on_c,63,76,2,1,1,73.0,False
13611,460, Note_on_c,66,76,2,1,1,77.0,False
13612,461, Note_on_c,65,76,2,1,1,76.0,True
13613,461, Note_on_c,70,76,2,1,1,81.0,False
13614,462, Note_on_c,58,76,2,1,1,67.0,False
13615,463, Note_on_c,63,76,2,1,1,73.0,False
13616,463, Note_on_c,66,76,2,1,1,77.0,False
13617,464, Note_on_c,65,76,2,1,1,76.0,True
13618,464, Note_on_c,68,76,2,1,1,79.0,False
13619,465, Note_on_c,58,76,2,1,1,67.0,False
13620,466, Note_on_c,63,76,2,1,1,73.0,False
13621,466, Note_on_c,66,76,2,1,1,77.0,False
13622,467, Note_on_c,65,76,2,1,1,76.0,True
13623,467, Note_on_c,68,76,2,1,1,79.0,False
13624,468, Note_on_c,63,76,2,1,1,73.0,False
13625,468, Note_on_c,66,76,2,1,1,77.0,False
13626,469, Note_on_c,65,76,2,1,1,76.0,True
13627,469, Note_on_c,70,76,2,1,1,81.0,False
13628,470, Note_on_c,58,76,2,1,1,67.0,False
13629,471, Note_on_c,63,76,2,1,1,73.0,False
13630,471, Note_on_c,66,76,2,1,1,77.0,False
13631,472, Note_on_c,65,76,2,1,1,76.0,True
13632,472, Note_on_c,68,76,2,1,1,79.0,False
13633,473, Note_on_c,58,76,2,1,1,67.0,False
13634,474, Note_on_c,63,76,2,1,1,73.0,False
13635,474, Note_on_c,66,76,2,1,1,77.0,False
13636,475, Note_on_c,65,76,2,1,1,76.0,True
13637,475, Note_on_c,68,76,2,1,1,79.0,False
13638,476, Note_on_c,63,76,2,1,1,73.0,False
13639,476, Note_on_c,66,76,2,1,1,77.0,False
13640,477, Note_on_c,65,76,2,1,1,76.0,True
13641,477, Note_on_c,70,76,2,1,1,81.0,False
13642,478, Note_on_c,58,76,2,1,1,67.0,False
13643,479, Note_on_c,63,76,2,1,1,73.0,False
13644,479, Note_on_c,66,76,2,1,1,77.0,False
13645,480, Note_on_c,65,76,2,1,1,76.0,True
13646,480, Note_on_c,68,76,2,1,1,79.0,False
13647,481, Note_on_c,58,76,2,1,1,67.0,False
13648,482, Note_on_c,63,76,2,1,1,73.0,False
13649,482, Note_on_c,66,76,2,1,1,77.0,False
13650,483, Note_on_c,65,76,2,1,1,76.0,True
13651,483, Note_on_c,68,76,2,1,1,79.0,False
13652,484, Note_on_c,63,76,2,1,1,73.0,False
13653,484, Note_on_c,66,76,2,1,1,77.0,False
13654,485, Note_on_c,65,76,2,1,1,76.0,True
13655,485, Note_on_c,70,76,2,1,1,81.0,False
13656,486, Note_on_c,58,76,2,1,1,67.0,False
13657,487, Note_on_c,63,76,2,1,1,73.0,False
13658,487, Note_on_c,66,76,2,1,1,77.0,False
13659,488, Note_on_c,65,76,2,1,1,76.0,True
13660,488, Note_on_c,68,76,2,1,1,79.0,False
13661,489, Note_on_c,58,76,2,1,1,67.0,False
13662,490, Note_on_c,63,76,2,1,1,73.0,False
13663,490, Note_on_c,66,76,2,1,1,77.0,False
13664,491, Note_on_c,65,76,2,1,1,76.0,True
13665,491, Note_on_c,68,76,2,1,1,79.0,False
13666,492, Note_on_c,63,76,2,1,1,73.0,False
13667,492, Note_on_c,66,76,2,1,1,77.0,False
13668,493, Note_on_c,65,76,2,1,1,76.0,True
13669,493, Note_on_c,70,76,2,1,1,81.0,False
13670,494, Note_on_c,58,76,2,1,1,67.0,False
13671,495, Note_on_c,63,76,2,1,1,73.0,False
13672,495, Note_on_c,66,76,2,1,1,77.0,False
13673,496, Note_on_c,65,76,2,1,1,76.0,True
13674,496, Note_on_c,68,76,2,1,1,79.0,False
13675,497, Note_on_c,58,76,2,1,1,67.0,False
13676,498, Note_on_c,63,76,2,1,1,73.0,False
13677,498, Note_on_c,66,76,2,1,1,77.0,False
13678,499, Note_on_c,65,76,2,1,1,76.0,True
13679,499, Note_on_c,68,76,2,1,1,79.0,False
13680,500, Note_on_c,63,76,2,1,1,73.0,False
13681,500, Note_on_c,66,76,2,1,1,77.0,False
13682,501, Note_on_c,65,76,2,1,1,76.0,True
13683,501, Note_on_c,70,76,2,1,1,81.0,False
13684,502, Note_on_c,58,76,2,1,1,67.0,False
13685,503, Note_on_c,63,76,2,1,1,73.0,False
13686,503, Note_on_c,66,76,2,1,1,77.0,False
13687,504, Note_on_c,65,76,2,1,1,76.0,True
13688,504, Note_on_c,68,76,2,1,1,79.0,False
13689,505, Note_on_c,58,76,2,1,1,67.0,False
13690,506, Note_on_c,63,76,2,1,1,73.0,False
13691,506, Note_on_c,66,76,2,1,1,77.0,False
13692,507, Note_on_c,65,76,2,1,1,76.0,True
13693,507, Note_on_c,68,76,2,1,1,79.0,False
13694,508, Note_on_c,63,76,2,1,1,73.0,False
13695,508, Note_on_c,66,76,2,1,1,77.0,False
13696,509, Note_on_c,65,76,2,1,1,76.0,True
13697,509, Note_on_c,70,76,2,1,1,81.0,False
13698,510, Note_on_c,58,76,2,1,1,67.0,False
13699,511, Note_on_c,63,76,2,1,1,73.0,False
13700,511, Note_on_c,66,76,2,1,1,77.0,False
13701,512, Note_on_c,65,76,2,1,1,76.0,True
13702,512, Note_on_c,68,76,2,1,1,79.0,False
13703,513, Note_on_c,58,76,2,1,1,67.0,False
13704,514, Note_on_c,63,76,2,1,1,73.0,False
13705,514, Note_on_c,66,76,2,1,1,77.0,False
13706,515, Note_on_c,65,76,2,1,1,76.0,True
13707,515, Note_on_c,68,76,2,1,1,79.0,False
13708,516, Note_on_c,63,76,2,1,1,73.0,False
13709,516, Note_on_c,66,76,2,1,1,77.0,False
13710,517, Note_on_c,65,76,2,1,1,76.0,True
13711,517, Note_on_c,70,76,2,1,1,81.0,False
13712,518, Note_on_c,58,76,2,1,1,67.0,False
13713,519, Note_on_c,63,76,2,1,1,73.0,False
13714,519, Note_on_c,66,76,2,1,1,77.0,False
13715,520, Note_on_c,65,76,2,1,1,76.0,True
13716,520, Note_on_c,68,76,2,1,1,79.0,False
13717,521, Note_on_c,58,76,2,1,1,67.0,False
13718,522, Note_on_c,63,76,2,1,1,73.0,False
13719,522, Note_on_c,66,76,2,1,1,77.0,False
13720,523, Note_on_c,65,76,2,1,1,76.0,True
13721,523, Note_on_c,68,76,2,1,1,79.0,False
13722,524, Note_on_c,63,76,2,1,1,73.0,False
13723,524, Note_on_c,66,76,2,1,1,77.0,False
13724,525, Note_on_c,65,76,2,1,1,76.0,True
13725,525, Note_on_c,70,76,2,1,1,81.0,False
13726,526, Note_on_c,58,76,2,1,1,67.0,False
13727,527, Note_on_c,63,76,2,1,1,73.0,False
13728,527, Note_on_c,66,76,2,1,1,77.0,False
13729,528, Note_on_c,65,76,2,1,1,76.0,True
13730,528, Note_on_c,68,76,2,1,1,79.0,False
13731,529, Note_on_c,58,76,2,1,1,67.0,False
13732,530, Note_on_c,63,76,2,1,1,73.0,False
13733,530, Note_on_c,66,76,2,1,1,77.0,False
13734,531, Note_on_c,65,76,2,1,1,76.0,True
13735,531, Note_on_c,68,76,2,1,1,79.0,False
13736,532, Note_on_c,63,76,2,1,1,73.0,False
13737,532, Note_on_c,66,76,2,1,1,77.0,False
13738,533, Note_on_c,65,76,2,1,1,76.0,True
13739,533, Note_on_c,70,76,2,1,1,81.0,False
13740,534, Note_on_c,58,76,2,1,1,67.0,False
13741,535, Note_on_c,63,76,2,1,1,73.0,False
13742,535, Note_on_c,66,76,2,1,1,77.0,False
13743,536, Note_on_c,65,76,2,1,1,76.0,True
13744,536, Note_on_c,68,76,2,1,1,79.0,False
13745,537, Note_on_c,58,76,2,1,1,67.0,False
13746,538, Note_on_c,63,76,2,1,1,73.0,False
13747,538, Note_on_c,66,76,2,1,1,77.0,False
13748,539, Note_on_c,65,76,2,1,1,76.0,True
13749,539, Note_on_c,68,76,2,1,1,79.0,False
13750,540, Note_on_c,63,76,2,1,1,73.0,False
13751,540, Note_on_c,66,76,2,1,1,77.0,False
13752,541, Note_on_c,65,76,2,1,1,76.0,True
13753,541, Note_on_c,70,76,2,1,1,81.0,False
13754,542, Note_on_c,58,76,2,1,1,67.0,False
13755,543, Note_on_c,63,76,2,1,1,73.0,False
13756,543, Note_on_c,66,76,2,1,1,77.0,False
13757,544, Note_on_c,65,76,2,1,1,76.0,True
13758,544, Note_on_c,68,76,2,1,1,79.0,False
13759,545, Note_on_c,58,76,2,1,1,67.0,False
13760,546, Note_on_c,63,76,2,1,1,73.0,False
13761,546, Note_on_c,66,76,2,1,1,77.0,False
13762,547, Note_on_c,65,76,2,1,1,76.0,True
13763,547, Note_on_c,68,76,2,1,1,79.0,False
13764,548, Note_on_c,63,76,2,1,1,73.0,False
13765,548, Note_on_c,66,76,2,1,1,77.0,False
13766,549, Note_on_c,65,76,2,1,1,76.0,True
13767,549, Note_on_c,70,76,2,1,1,81.0,False
13768,550, Note_on_c,58,76,2,1,1,67.0,False
13769,551, Note_on_c,63,76,2,1,1,73.0,False
13770,551, Note_on_c,66,76,2,1,1,77.0,False
13771,552, Note_on_c,65,76,2,1,1,76.0,True
13772,552, Note_on_c,68,76,2,1,1,79.0,False
13773,553, Note_on_c,58,76,2,1,1,67.0,False
13774,554, Note_on_c,63,76,2,1,1,73.0,False
13775,554, Note_on_c,66,76,2,1,1,77.0,False
13776,555, Note_on_c,65,76,2,1,1,76.0,True
13777,555, Note_on_c,68,76,2,1,1,79.0,False
13778,556, Note_on_c,63,76,2,1,1,73.0,False
13779,556, Note_on_c,66,76,2,1,1,77.0,False
13780,557, Note_on_c,65,76,2,1,1,76.0,True
13781,557, Note_on_c,70,76,2,1,1,81.0,False
13782,558, Note_on_c,58,76,2,1,1,67.0,False
13783,559, Note_on_c,63,76,2,1,1,73.0,False
13784,559, Note_on_c,66,76,2,1,1,77.0,False
13785,560, Note_on_c,65,76,2,1,1,76.0,True
13786,560, Note_on_c,68,76,2,1,1,79.0,False
13787,561, Note_on_c,58,76,2,1,1,67.0,False
13788,562, Note_on_c,63,76,2,1,1,73.0,False
13789,562, Note_on_c,66,76,2,1,1,77.0,False
13790,563, Note_on_c,65,76,2,1,1,76.0,True
13791,563, Note_on_c,68,76,2,1,1,79.0,False
13792,564, Note_on_c,63,76,2,1,1,73.0,False
13793,564, Note_on_c,66,76,2,1,1,77.0,False
13794,565, Note_on_c,65,76,2,1,1,76.0,True
13795,565, Note_on_c,70,76,2,1,1,81.0,False
13796,566, Note_on_c,58,76,2,1,1,67.0,False
13797,567, Note_on_c,63,76,2,1,1,73.0,False
13798,567, Note_on_c,66,76,2,1,1,77.0,False
13799,568, Note_on_c,65,76,2,1,1,76.0,True
13800,568, Note_on_c,68,76,2,1,1,79.0,False
13801,569, Note_on_c,58,76,2,1,1,67.0,False
13802,570, Note_on_c,63,76,2,1,1,73.0,False
13803,570, Note_on_c,66,76,2,1,1,77.0,False
13804,571, Note_on_c,65,76,2,1,1,76.0,True
13805,571, Note_on_c,68,76,2,1,1,79.0,False
13806,572, Note_on_c,63,76,2,1,1,73.0,False
13807,572, Note_on_c,66,76,2,1,1,77.0,False
13808,573, Note_on_c,65,76,2,1,1,76.0,True
13809,573, Note_on_c,70,76,2,1,1,81.0,False
13810,574, Note_on_c,58,76,2,1,1,67.0,False
13811,575, Note_on_c,63,76,2,1,1,73.0,False
13812,575, Note_on_c,66,76,2,1,1,77.0,False
13813,576, Note_on_c,65,76,2,1,1,76.0,True
13814,576, Note_on_c,68,76,2,1,1,79.0,False
13815,577, Note_on_c,58,76,2,1,1,67.0,False
13816,578, Note_on_c,63,76,2,1,1,73.0,False
13817,578, Note_on_c,66,76,2,1,1,77.0,False
13818,579, Note_on_c,65,76,2,1,1,76.0,True
13819,579, Note_on_c,68,76,2,1,1,79.0,False
13820,580, Note_on_c,63,76,2,1,1,73.0,False
13821,580, Note_on_c,66,76,2,1,1,77.0,False
13822,581, Note_on_c,65,76,2,1,1,76.0,True
13823,581, Note_on_c,70,76,2,1,1,81.0,False
13824,582, Note_on_c,58,76,2,1,1,67.0,False
13825,583, Note_on_c,63,76,2,1,1,73.0,False
13826,583, Note_on_c,66,76,2,1,1,77.0,False
13827,584, Note_on_c,65,76,2,1,1,76.0,True
13828,584, Note_on_c,68,76,2,1,1,79.0,False
13829,585, Note_on_c,58,76,2,1,1,67.0,False
13830,586, Note_on_c,63,76,2,1,1,73.0,False
13831,586, Note_on_c,66,76,2,1,1,77.0,False
13832,587, Note_on_c,65,76,2,1,1,76.0,True
13833,587, Note_on_c,68,76,2,1,1,79.0,False
13834,588, Note_on_c,63,76,2,1,1,73.0,False
13835,588, Note_on_c,66,76,2,1,1,77.0,False
13836,589, Note_on_c,65,76,2,1,1,76.0,True
13837,589, Note_on_c,70,76,2,1,1,81.0,False
13838,590, Note_on_c,58,76,2,1,1,67.0,False
13839,591, Note_on_c,63,76,2,1,1,73.0,False
13840,591, Note_on_c,66,76,2,1,1,77.0,False
13841,592, Note_on_c,65,76,2,1,1,76.0,True
13842,592, Note_on_c,68,76,2,1,1,79.0,False
13843,593, Note_on_c,58,76,2,1,1,67.0,False
13844,594, Note_on_c,63,76,2,1,1,73.0,False
13845,594, Note_on_c,66,76,2,1,1,77.0,False
13846,595, Note_on_c,65,76,2,1,1,76.0,True
13847,595, Note_on_c,68,76,2,1,1,79.0,False
13848,596, Note_on_c,63,76,2,1,1,73.0,False
13849,596, Note_on_c,66,76,2,1,1,77.0,False
13850,597, Note_on_c,65,76,2,1,1,76.0,True
13851,597, Note_on_c,70,76,2,1,1,81.0,False
13852,598, Note_on_c,58,76,2,1,1,67.0,False
13853,599, Note_on_c,63,76,2,1,1,73.0,False
13854,599, Note_on_c,66,76,2,1,1,77.0,False
13855,600, Note_on_c,65,76,2,1,1,76.0,True
13856,600, Note_on_c,68,76,2,1,1,79.0,False
13857,601, Note_on_c,58,76,2,1,1,67.0,False
13858,602, Note_on_c,63,76,2,1,1,73.0,False
13859,602, Note_on_c,66,76,2,1,1,77.0,False
13860,603, Note_on_c,65,76,2,1,1,76.0,True
13861,603, Note_on_c,68,76,2,1,1,79.0,False
13862,604, Note_on_c,63,76,2,1,1,73.0,False
13863,604, Note_on_c,66,76,2,1,1,77.0,False
13864,605, Note_on_c,65,76,2,1,1,76.0,True
13865,605, Note_on_c,70,76,2,1,1,81.0,False
13866,606, Note_on_c,58,76,2,1,1,67.0,False
13867,607, Note_on_c,63,76,2,1,1,73.0,False
13868,607, Note_on_c,66,76,2,1,1,77.0,False
13869,608, Note_on_c,65,76,2,1,1,76.0,True
13870,608, Note_on_c,68,76,2,1,1,79.0,False
13871,609, Note_on_c,58,76,2,1,1,67.0,False
13872,610, Note_on_c,63,76,2,1,1,73.0,False
13873,610, Note_on_c,66,76,2,1,1,77.0,False
13874,611, Note_on_c,65,76,2,1,1,76.0,True
13875,611, Note_on_c,68,76,2,1,1,79.0,False
13876,612, Note_on_c,63,76,2,1,1,73.0,False
13877,612, Note_on_c,66,76,2,1,1,77.0,False
13878,613, Note_on_c,65,76,2,1,1,76.0,True
13879,613, Note_on_c,70,76,2,1,1,81.0,False
13880,614, Note_on_c,58,76,2,1,1,67.0,False
13881,615, Note_on_c,63,76,2,1,1,73.0,False
13882,615, Note_on_c,66,76,2,1,1,77.0,False
13883,616, Note_on_c,65,76,2,1,1,76.0,True
13884,616, Note_on_c,68,76,2,1,1,79.0,False
13885,617, Note_on_c,58,76,2,1,1,67.0,False
13886,618, Note_on_c,63,76,2,1,1,73.0,False
13887,618, Note_on_c,66,76,2,1,1,77.0,False
13888,619, Note_on_c,65,76,2,1,1,76.0,True
13889,619, Note_on_c,68,76,2,1,1,79.0,False
13890,620, Note_on_c,63,76,2,1,1,73.0,False
13891,620, Note_on_c,66,76,2,1,1,77.0,False
13892,621, Note_on_c,65,76,2,1,1,76.0,True
13893,621, Note_on_c,70,76,2,1,1,81.0,False
13894,622, Note_on_c,58,76,2,1,1,67.0,False
13895,623, Note_on_c,63,76,2,1,1,73.0,False
13896,623, Note_on_c,66,76,2,1,1,77.0,False
13897,624, Note_on_c,65,76,2,1,1,76.0,True
13898,624, Note_on_c,68,76,2,1,1,79.0,False
13899,625, Note_on_c,58,76,2,1,1,67.0,False
13900,626, Note_on_c,63,76,2,1,1,73.0,False
13901,626, Note_on_c,66,76,2,1,1,77.0,False
13902,627, Note_on_c,65,76,2,1,1,76.0,True
13903,627, Note_on_c,68,76,2,1,1,79.0,False
13904,628, Note_on_c,63,76,2,1,1,73.0,False
13905,628, Note_on_c,66,76,2,1,1,77.0,False
13906,629, Note_on_c,65,76,2,1,1,76.0,True
13907,629, Note_on_c,70,76,2,1,1,81.0,False
13908,630, Note_on_c,58,76,2,1,1,67.0,False
13909,631, Note_on_c,63,76,2,1,1,73.0,False
13910,631, Note_on_c,66,76,2,1,1,77.0,False
13911,632, Note_on_c,65,76,2,1,1,76.0,True
13912,632, Note_on_c,68,76,2,1,1,79.0,False
13913,633, Note_on_c,58,76,2,1,1,67.0,False
13914,634, Note_on_c,63,76,2,1,1,73.0,False
13915,634, Note_on_c,66,76,2,1,1,77.0,False
13916,635, Note_on_c,65,76,2,1,1,76.0,True
13917,635, Note_on_c,68,76,2,1,1,79.0,False
13918,636, Note_on_c,63,76,2,1,1,73.0,False
13919,636, Note_on_c,66,76,2,1,1,77.0,False
13920,637, Note_on_c,65,76,2,1,1,76.0,True
13921,637, Note_on_c,70,76,2,1,1,81.0,False
13922,638, Note_on_c,58,76,2,1,1,67.0,False
13923,639, Note_on_c,63,76,2,1,1,73.0,False
13924,639, Note_on_c,66,76,2,1,1,77.0,False
13925,640, Note_on_c,65,76,2,1,1,76.0,True
13926,640, Note_on_c,68,76,2,1,1,79.0,False
13927,641, Note_on_c,58,76,2,1,1,67.0,False
13928,642, Note_on_c,63,76,2,1,1,73.0,False
13929,642, Note_on_c,66,76,2,1,1,77.0,False
13930,643, Note_on_c,65,76,2,1,1,76.0,True
13931,643, Note_on_c,68,76,2,1,1,79.0,False
13932,644, Note_on_c,63,76,2,1,1,73.0,False
13933,644, Note_on_c,66,76,2,1,1,77.0,False
13934,645, Note_on_c,65,76,2,1,1,76.0,True
13935,645, Note_on_c,70,76,2,1,1,81.0,False
13936,646, Note_on_c,58,76,2,1,1,67.0,False
13937,647, Note_on_c,63,76,2,1,1,73.0,False
13938,647, Note_on_c,66,76,2,1,1,77.0,False
13939,648, Note_on_c,65,76,2,1,1,76.0,True
13940,648, Note_on_c,68,76,2,1,1,79.0,False
13941,649, Note_on_c,58,76,2,1,1,67.0,False
13942,650, Note_on_c,63,76,2,1,1,73.0,False
13943,650, Note_on_c,66,76,2,1,1,77.0,False
13944,651, Note_on_c,65,76,2,1,1,76.0,True
13945,651, Note_on_c,68,76,2,1,1,79.0,False
13946,652, Note_on_c,63,76,2,1,1,73.0,False
13947,652, Note_on_c,66,76,2,1,1,77.0,False
13948,653, Note_on_c,65,76,2,1,1,76.0,True
13949,653, Note_on_c,70,76,2,1,1,81.0,False
13950,654, Note_on_c,58,76,2,1,1,67.0,False
13951,655, Note_on_c,63,76,2,1,1,73.0,False
13952,655, Note_on_c,66,76,2,1,1,77.0,False
13953,656, Note_on_c,65,76,2,1,1,76.0,True
13954,656, Note_on_c,68,76,2,1,1,79.0,False
13955,657, Note_on_c,58,76,2,1,1,67.0,False
13956,658, Note_on_c,63,76,2,1,1,73.0,False
13957,658, Note_on_c,66,76,2,1,1,77.0,False
13958,659, Note_on_c,65,76,2,1,1,76.0,True
13959,659, Note_on_c,68,76,2,1,1,79.0,False
13960,660, Note_on_c,63,76,2,1,1,73.0,False
13961,660, Note_on_c,66,76,2,1,1,77.0,False
13962,661, Note_on_c,65,76,2,1,1,76.0,True
13963,661, Note_on_c,70,76,2,1,1,81.0,False
13964,662, Note_on_c,58,76,2,1,1,67.0,False
13965,663, Note_on_c,63,76,2,1,1,73.0,False
13966,663, Note_on_c,66,76,2,1,1,77.0,False
13967,664, Note_on_c,65,76,2,1,1,76.0,True
13968,664, Note_on_c,68,76,2,1,1,79.0,False
13969,665, Note_on_c,58,76,2,1,1,67.0,False
13970,666, Note_on_c,63,76,2,1,1,73.0,False
13971,666, Note_on_c,66,76,2,1,1,77.0,False
13972,667, Note_on_c,65,76,2,1,1,76.0,True
13973,667, Note_on_c,68,76,2,1,1,79.0,False
13974,668, Note_on_c,63,76,2,1,1,73.0,False
13975,668, Note_on_c,66,76,2,1,1,77.0,False
13976,669, Note_on_c,65,76,2,1,1,76.0,True
13977,669, Note_on_c,70,76,2,1,1,81.0,False
13978,670, Note_on_c,58,76,2,1,1,67.0,False
13979,671, Note_on_c,63,76,2,1,1,73.0,False
13980,671, Note_on_c,66,76,2,1,1,77.0,False
13981,672, Note_on_c,65,76,2,1,1,76.0,True
13982,672, Note_on_c,68,76,2,1,1,79.0,False
13983,673, Note_on_c,58,76,2,1,1,67.0,False
13984,674, Note_on_c,63,76,2,1,1,73.0,False
13985,674, Note_on_c,66,76,2,1,1,77.0,False
13986,675, Note_on_c,65,76,2,1,1,76.0,True
13987,675, Note_on_c,68,76,2,1,1,79.0,False
13988,676, Note_on_c,63,76,2,1,1,73.0,False
13989,676, Note_on_c,66,76,2,1,1,77.0,False
13990,677, Note_on_c,65,76,2,1,1,76.0,True
13991,677, Note_on_c,70,76,2,1,1,81.0,False
13992,678, Note_on_c,58,76,2,1,1,67.0,False
13993,679, Note_on_c,63,76,2,1,1,73.0,False
13994,679, Note_on_c,66,76,2,1,1,77.0,False
13995,680, Note_on_c,65,76,2,1,1,76.0,True
13996,680, Note_on_c,68,76,2,1,1,79.0,False
13997,681, Note_on_c,58,76,2,1,1,67.0,False
13998,682, Note_on_c,63,76,2,1,1,73.0,False
13999,682, Note_on_c,66,76,2,1,1,77.0,False
14000,683, Note_on_c,65,76,2,1,1,76.0,True
14001,683, Note_on_c,68,76,2,1,1,79.0,False
14002,684, Note_on_c,63,76,2,1,1,73.0,False
14003,684, Note_on_c,66,76,2,1,1,77.0,False
14004,685, Note_on_c,65,76,2,1,1,76.0,True
14005,685, Note_on_c,70,76,2,1,1,81.0,False
14006,686, Note_on_c,58,76,2,1,1,67.0,False
14007,687, Note_on_c,63,76,2,1,1,73.0,False
14008,687, Note_on_c,66,76,2,1,1,77.0,False
14009,688, Note_on_c,65,76,2,1,1,76.0,True
14010,688, Note_on_c,68,76,2,1,1,79.0,False
14011,689, Note_on_c,58,76,2,1,1,67.0,False
14012,690, Note_on_c,63,76,2,1,1,73.0,False
14013,690, Note_on_c,66,76,2,1,1,77.0,False
14014,691, Note_on_c,65,76,2,1,1,76.0,True
14015,691, Note_on_c,68,76,2,1,1,79.0,False
14016,692, Note_on_c,63,76,2,1,1,73.0,False
14017,692, Note_on_c,66,76,2,1,1,77.0,False
14018,693, Note_on_c,65,76,2,1,1,76.0,True
14019,693, Note_on_c,70,76,2,1,1,81.0,False
14020,694, Note_on_c,58,76,2,1,1,67.0,False
14021,695, Note_on_c,63,76,2,1,1,73.0,False
14022,695, Note_on_c,66,76,2,1,1,77.0,False
14023,696, Note_on_c,65,76,2,1,1,76.0,True
14024,696, Note_on_c,68,76,2,1,1,79.0,False
14025,697, Note_on_c,58,76,2,1,1,67.0,False
14026,698, Note_on_c,63,76,2,1,1,73.0,False
14027,698, Note_on_c,66,76,2,1,1,77.0,False
14028,699, Note_on_c,65,76,2,1,1,76.0,True
14029,699, Note_on_c,68,76,2,1,1,79.0,False
14030,700, Note_on_c,63,76,2,1,1,73.0,False
14031,700, Note_on_c,66,76,2,1,1,77.0,False
14032,701, Note_on_c,65,76,2,1,1,76.0,True
14033,701, Note_on_c,70,76,2,1,1,81.0,False
14034,702, Note_on_c,58,76,2,1,1,67.0,False
14035,703, Note_on_c,63,76,2,1,1,73.0,False
14036,703, Note_on_c,66,76,2,1,1,77.0,False
14037,704, Note_on_c,65,76,2,1,1,76.0,True
14038,704, Note_on_c,68,76,2,1,1,79.0,False
14039,705, Note_on_c,58,76,2,1,1,67.0,False
14040,706, Note_on_c,63,76,2,1,1,73.0,False
14041,706, Note_on_c,66,76,2,1,1,77.0,False
14042,707, Note_on_c,65,76,2,1,1,76.0,True
14043,707, Note_on_c,68,76,2,1,1,79.0,False
14044,708, Note_on_c,63,76,2,1,1,73.0,False
14045,708, Note_on_c,66,76,2,1,1,77.0,False
14046,709, Note_on_c,65,76,2,1,1,76.0,True
14047,709, Note_on_c,70,76,2,1,1,81.0,False
14048,710, Note_on_c,58,76,2,1,1,67.0,False
14049,711, Note_on_c,63,76,2,1,1,73.0,False
14050,711, Note_on_c,66,76,2,1,1,77.0,False
14051,712, Note_on_c,65,76,2,1,1,76.0,True
14052,712, Note_on_c,68,76,2,1,1,79.0,False
14053,713, Note_on_c,58,76,2,1,1,67.0,False
14054,714, Note_on_c,63,76,2,1,1,73.0,False
14055,714, Note_on_c,66,76,2,1,1,77.0,False
14056,715, Note_on_c,65,76,2,1,1,76.0,True
14057,715, Note_on_c,68,76,2,1,1,79.0,False
14058,716, Note_on_c,63,76,2,1,1,73.0,False
14059,716, Note_on_c,66,76,2,1,1,77.0,False
14060,717, Note_on_c,65,76,2,1,1,76.0,True
14061,717, Note_on_c,70,76,2,1,1,81.0,False
14062,718, Note_on_c,58,76,2,1,1,67.0,False
14063,719, Note_on_c,63,76,2,1,1,73.0,False
14064,719, Note_on_c,66,76,2,1,1,77.0,False
14065,720, Note_on_c,65,76,2,1,1,76.0,True
14066,720, Note_on_c,68,76,2,1,1,79.0,False
14067,721, Note_on_c,58,76,2,1,1,67.0,False
14068,722, Note_on_c,63,76,2,1,1,73.0,False
14069,722, Note_on_c,66,76,2,1,1,77.0,False
14070,723, Note_on_c,65,76,2,1,1,76.0,True
14071,723, Note_on_c,68,76,2,1,1,79.0,False
14072,724, Note_on_c,63,76,2,1,1,73.0,False
14073,724, Note_on_c,66,76,2,1,1,77.0,False
14074,725, Note_on_c,65,76,2,1,1,76.0,True
14075,725, Note_on_c,70,76,2,1,1,81.0,False
14076,726, Note_on_c,58,76,2,1,1,67.0,False
14077,727, Note_on_c,63,76,2,1,1,73.0,False
14078,727, Note_on_c,66,76,2,1,1,77.0,False
14079,728, Note_on_c,65,76,2,1,1,76.0,True
14080,728, Note_on_c,68,76,2,1,1,79.0,False
14081,729, Note_on_c,58,76,2,1,1,67.0,False
14082,730, Note_on_c,63,76,2,1,1,73.0,False
14083,730, Note_on_c,66,76,2,1,1,77.0,False
14084,731, Note_on_c,65,76,2,1,1,76.0,True
14085,731, Note_on_c,68,76,2,1,1,79.0,False
14086,732, Note_on_c,63,76,2,1,1,73.0,False
14087,732, Note_on_c,66,76,2,1,1,77.0,False
14088,733, Note_on_c,65,76,2,1,1,76.0,True
14089,733, Note_on_c,70,76,2,1,1,81.0,False
14090,734, Note_on_c,58,76,2,1,1,67.0,False
14091,735, Note_on_c,63,76,2,1,1,73.0,False
14092,735, Note_on_c,66,76,2,1,1,77.0,False
14093,736, Note_on_c,65,76,2,1,1,76.0,True
14094,736, Note_on_c,68,76,2,1,1,79.0,False
14095,737, Note_on_c,58,76,2,1,1,67.0,False
14096,738, Note_on_c,63,76,2,1,1,73.0,False
14097,738, Note_on_c,66,76,2,1,1,77.0,False
14098,739, Note_on_c,65,76,2,1,1,76.0,True
14099,739, Note_on_c,68,76,2,1,1,79.0,False
14100,740, Note_on_c,63,76,2,1,1,73.0,False
14101,740, Note_on_c,66,76,2,1,1,77.0,False
14102,741, Note_on_c,65,76,2,1,1,76.0,True
14103,741, Note_on_c,70,76,2,1,1,81.0,False
14104,742, Note_on_c,58,76,2,1,1,67.0,False
14105,743, Note_on_c,63,76,2,1,1,73.0,False
14106,743, Note_on_c,66,76,2,1,1,77.0,False
14107,744, Note_on_c,65,76,2,1,1,76.0,True
14108,744, Note_on_c,68,76,2,1,1,79.0,False
14109,745, Note_on_c,58,76,2,1,1,67.0,False
14110,746, Note_on_c,63,76,2,1,1,73.0,False
14111,746, Note_on_c,66,76,2,1,1,77.0,False
14112,747, Note_on_c,65,76,2,1,1,76.0,True
14113,747, Note_on_c,68,76,2,1,1,79.0,False
14114,748, Note_on_c,63,76,2,1,1,73.0,False
14115,748, Note_on_c,66,76,2,1,1,77.0,False
14116,749, Note_on_c,65,76,2,1,1,76.0,True
14117,749, Note_on_c,70,76,2,1,1,81.0,False
14118,750, Note_on_c,58,76,2,1,1,67.0,False
14119,751, Note_on_c,63,76,2,1,1,73.0,False
14120,751, Note_on_c,66,76,2,1,1,77.0,False
14121,752, Note_on_c,65,76,2,1,1,76.0,True
14122,752, Note_on_c,68,76,2,1,1,79.0,False
14123,753, Note_on_c,58,76,2,1,1,67.0,False
14124,754, Note_on_c,63,76,2,1,1,73.0,False
14125,754, Note_on_c,66,76,2,1,1,77.0,False
14126,755, Note_on_c,65,76,2,1,1,76.0,True
14127,755, Note_on_c,68,76,2,1,1,79.0,False
14128,756, Note_on_c,63,76,2,1,1,73.0,False
14129,756, Note_on_c,66,76,2,1,1,77.0,False
14130,757, Note_on_c,65,76,2,1,1,76.0,True
14131,757, Note_on_c,70,76,2,1,1,81.0,False
14132,758, Note_on_c,58,76,2,1,1,67.0,False
14133,759, Note_on_c,63,76,2,1,1,73.0,False
14134,759, Note_on_c,66,76,2,1,1,77.0,False
14135,760, Note_on_c,65,76,2,1,1,76.0,True
14136,760, Note_on_c,68,76,2,1,1,79.0,False
14137,761, Note_on_c,58,76,2,1,1,67.0,False
14138,762, Note_on_c,63,76,2,1,1,73.0,False
14139,762, Note_on_c,66,76,2,1,1,77.0,False
14140,763, Note_on_c,65,76,2,1,1,76.0,True
14141,763, Note_on_c,68,76,2,1,1,79.0,False
14142,764, Note_on_c,63,76,2,1,1,73.0,False
14143,764, Note_on_c,66,76,2,1,1,77.0,False
14144,765, Note_on_c,65,76,2,1,1,76.0,True
14145,765, Note_on_c,70,76,2,1,1,81.0,False
14146,766, Note_on_c,58,76,2,1,1,67.0,False
14147,767, Note_on_c,63,76,2,1,1,73.0,False
14148,767, Note_on_c,66,76,2,1,1,77.0,False
14149,768, Note_on_c,65,76,2,1,1,76.0,True
14150,768, Note_on_c,68,76,2,1,1,79.0,False
14151,769, Note_on_c,58,76,2,1,1,67.0,False
14152,770, Note_on_c,63,76,2,1,1,73.0,False
14153,770, Note_on_c,66,76,2,1,1,77.0,False
14154,771, Note_on_c,65,76,2,1,1,76.0,True
14155,771, Note_on_c,68,76,2,1,1,79.0,False
14156,772, Note_on_c,63,76,2,1,1,73.0,False
14157,772, Note_on_c,66,76,2,1,1,77.0,False
14158,773, Note_on_c,65,76,2,1,1,76.0,True
14159,773, Note_on_c,70,76,2,1,1,81.0,False
14160,774, Note_on_c,58,76,2,1,1,67.0,False
14161,775, Note_on_c,63,76,2,1,1,73.0,False
14162,775, Note_on_c,66,76,2,1,1,77.0,False
14163,776, Note_on_c,65,76,2,1,1,76.0,True
14164,776, Note_on_c,68,76,2,1,1,79.0,False
14165,777, Note_on_c,58,76,2,1,1,67.0,False
14166,778, Note_on_c,63,76,2,1,1,73.0,False
14167,778, Note_on_c,66,76,2,1,1,77.0,False
14168,779, Note_on_c,65,76,2,1,1,76.0,True
14169,779, Note_on_c,68,76,2,1,1,79.0,False
14170,780, Note_on_c,63,76,2,1,1,73.0,False
14171,780, Note_on_c,66,76,2,1,1,77.0,False
14172,781, Note_on_c,65,76,2,1,1,76.0,True
14173,781, Note_on_c,70,76,2,1,1,81.0,False
14174,782, Note_on_c,58,76,2,1,1,67.0,False
14175,783, Note_on_c,63,76,2,1,1,73.0,False
14176,783, Note_on_c,66,76,2,1,1,77.0,False
14177,784, Note_on_c,65,76,2,1,1,76.0,True
14178,784, Note_on_c,68,76,2,1,1,79.0,False
14179,785, Note_on_c,58,76,2,1,1,67.0,False
14180,786, Note_on_c,63,76,2,1,1,73.0,False
14181,786, Note_on_c,66,76,2,1,1,77.0,False
14182,787, Note_on_c,65,76,2,1,1,76.0,True
14183,787, Note_on_c,68,76,2,1,1,79.0,False
14184,788, Note_on_c,63,76,2,1,1,73.0,False
14185,788, Note_on_c,66,76,2,1,1,77.0,False
14186,789, Note_on_c,65,76,2,1,1,76.0,True
14187,789, Note_on_c,70,76,2,1,1,81.0,False
14188,790, Note_on_c,58,76,2,1,1,67.0,False
14189,791, Note_on_c,63,76,2,1,1,73.0,False
14190,791, Note_on_c,66,76,2,1,1,77.0,False
14191,792, Note_on_c,65,76,2,1,1,76.0,True
14192,792, Note_on_c,68,76,2,1,1,79.0,False
14193,793, Note_on_c,58,76,2,1,1,67.0,False
14194,794, Note_on_c,63,76,2,1,1,73.0,False
14195,794, Note_on_c,66,76,2,1,1,77.0,False
14196,795, Note_on_c,65,76,2,1,1,76.0,True
14197,795, Note_on_c,68,76,2,1,1,79.0,False
14198,796, Note_on_c,63,76,2,1,1,73.0,False
14199,796, Note_on_c,66,76,2,1,1,77.0,False
14200,797, Note_on_c,65,76,2,1,1,76.0,True
14201,797, Note_on_c,70,76,2,1,1,81.0,False
14202,798, Note_on_c,58,76,2,1,1,67.0,False
14203,799, Note_on_c,63,76,2,1,1,73.0,False
14204,799, Note_on_c,66,76,2,1,1,77.0,False
14205,800, Note_on_c,65,76,2,1,1,76.0,True
14206,800, Note_on_c,68,76,2,1,1,79.0,False
14207,801, Note_on_c,58,76,2,1,1,67.0,False
14208,802, Note_on_c,63,76,2,1,1,73.0,False
14209,802, Note_on_c,66,76,2,1,1,77.0,False
14210,803, Note_on_c,65,76,2,1,1,76.0,True
14211,803, Note_on_c,68,76,2,1,1,79.0,False
14212,804, Note_on_c,63,76,2,1,1,73.0,False
14213,804, Note_on_c,66,76,2,1,1,77.0,False
14214,805, Note_on_c,65,76,2,1,1,76.0,True
14215,805, Note_on_c,70,76,2,1,1,81.0,False
14216,806, Note_on_c,58,76,2,1,1,67.0,False
14217,807, Note_on_c,63,76,2,1,1,73.0,False
14218,807, Note_on_c,66,76,2,1,1,77.0,False
14219,808, Note_on_c,65,76,2,1,1,76.0,True
14220,808, Note_on_c,68,76,2,1,1,79.0,False
14221,809, Note_on_c,58,76,2,1,1,67.0,False
14222,810, Note_on_c,63,76,2,1,1,73.0,False
14223,810, Note_on_c,66,76,2,1,1,77.0,False
14224,811, Note_on_c,65,76,2,1,1,76.0,True
14225,811, Note_on_c,68,76,2,1,1,79.0,False
14226,812, Note_on_c,63,76,2,1,1,73.0,False
14227,812, Note_on_c,66,76,2,1,1,77.0,False
14228,813, Note_on_c,65,76,2,1,1,76.0,True
14229,813, Note_on_c,70,76,2,1,1,81.0,False
14230,814, Note_on_c,58,76,2,1,1,67.0,False
14231,815, Note_on_c,63,76,2,1,1,73.0,False
14232,815, Note_on_c,66,76,2,1,1,77.0,False
14233,816, Note_on_c,65,76,2,1,1,76.0,True
14234,816, Note_on_c,68,76,2,1,1,79.0,False
14235,817, Note_on_c,58,76,2,1,1,67.0,False
14236,818, Note_on_c,63,76,2,1,1,73.0,False
14237,818, Note_on_c,66,76,2,1,1,77.0,False
14238,819, Note_on_c,65,76,2,1,1,76.0,True
14239,819, Note_on_c,68,76,2,1,1,79.0,False
14240,820, Note_on_c,63,76,2,1,1,73.0,False
14241,820, Note_on_c,66,76,2,1,1,77.0,False
14242,821, Note_on_c,65,76,2,1,1,76.0,True
14243,821, Note_on_c,70,76,2,1,1,81.0,False
14244,822, Note_on_c,58,76,2,1,1,67.0,False
14245,823, Note_on_c,63,76,2,1,1,73.0,False
14246,823, Note_on_c,66,76,2,1,1,77.0,False
14247,824, Note_on_c,65,76,2,1,1,76.0,True
14248,824, Note_on_c,68,76,2,1,1,79.0,False
14249,825, Note_on_c,58,76,2,1,1,67.0,False
14250,826, Note_on_c,63,76,2,1,1,73.0,False
14251,826, Note_on_c,66,76,2,1,1,77.0,False
14252,827, Note_on_c,65,76,2,1,1,76.0,True
14253,827, Note_on_c,68,76,2,1,1,79.0,False
14254,828, Note_on_c,63,76,2,1,1,73.0,False
14255,828, Note_on_c,66,76,2,1,1,77.0,False
14256,829, Note_on_c,65,76,2,1,1,76.0,True
14257,829, Note_on_c,70,76,2,1,1,81.0,False
14258,830, Note_on_c,58,76,2,1,1,67.0,False
14259,831, Note_on_c,63,76,2,1,1,73.0,False
14260,831, Note_on_c,66,76,2,1,1,77.0,False
14261,832, Note_on_c,65,76,2,1,1,76.0,True
14262,832, Note_on_c,68,76,2,1,1,79.0,False
14263,833, Note_on_c,58,76,2,1,1,67.0,False
14264,834, Note_on_c,63,76,2,1,1,73.0,False
14265,834, Note_on_c,66,76,2,1,1,77.0,False
14266,835, Note_on_c,65,76,2,1,1,76.0,True
14267,835, Note_on_c,68,76,2,1,1,79.0,False
14268,836, Note_on_c,63,76,2,1,1,73.0,False
14269,836, Note_on_c,66,76,2,1,1,77.0,False
14270,837, Note_on_c,65,76,2,1,1,76.0,True
14271,837, Note_on_c,70,76,2,1,1,81.0,False
14272,838, Note_on_c,58,76,2,1,1,67.0,False
14273,839, Note_on_c,63,76,2,1,1,73.0,False
14274,839, Note_on_c,66,76,2,1,1,77.0,False
14275,840, Note_on_c,65,76,2,1,1,76.0,True
14276,840, Note_on_c,68,76,2,1,1,79.0,False
14277,841, Note_on_c,58,76,2,1,1,67.0,False
14278,842, Note_on_c,63,76,2,1,1,73.0,False
14279,842, Note_on_c,66,76,2,1,1,77.0,False
14280,843, Note_on_c,65,76,2,1,1,76.0,True
14281,843, Note_on_c,68,76,2,1,1,79.0,False
14282,844, Note_on_c,63,76,2,1,1,73.0,False
14283,844, Note_on_c,66,76,2,1,1,77.0,False
14284,845, Note_on_c,65,76,2,1,1,76.0,True
14285,845, Note_on_c,70,76,2,1,1,81.0,False
14286,846, Note_on_c,58,76,2,1,1,67.0,False
14287,847, Note_on_c,63,76,2,1,1,73.0,False
14288,847, Note_on_c,66,76,2,1,1,77.0,False
14289,848, Note_on_c,65,76,2,1,1,76.0,True
14290,848, Note_on_c,68,76,2,1,1,79.0,False
14291,849, Note_on_c,58,76,2,1,1,67.0,False
14292,850, Note_on_c,63,76,2,1,1,73.0,False
14293,850, Note_on_c,66,76,2,1,1,77.0,False
14294,851, Note_on_c,65,76,2,1,1,76.0,True
14295,851, Note_on_c,68,76,2,1,1,79.0,False
14296,852, Note_on_c,63,76,2,1,1,73.0,False
14297,852, Note_on_c,66,76,2,1,1,77.0,False
14298,853, Note_on_c,65,76,2,1,1,76.0,True
14299,853, Note_on_c,70,76,2,1,1,81.0,False
14300,854, Note_on_c,58,76,2,1,1,67.0,False
14301,855, Note_on_c,63,76,2,1,1,73.0,False
14302,855, Note_on_c,66,76,2,1,1,77.0,False
14303,856, Note_on_c,65,76,2,1,1,76.0,True
14304,856, Note_on_c,68,76,2,1,1,79.0,False
14305,857, Note_on_c,58,76,2,1,1,67.0,False
14306,858, Note_on_c,63,76,2,1,1,73.0,False
14307,858, Note_on_c,66,76,2,1,1,77.0,False
14308,859, Note_on_c,65,76,2,1,1,76.0,True
14309,859, Note_on_c,68,76,2,1,1,79.0,False
14310,860, Note_on_c,63,76,2,1,1,73.0,False
14311,860, Note_on_c,66,76,2,1,1,77.0,False
14312,861, Note_on_c,65,76,2,1,1,76.0,True
14313,861, Note_on_c,70,76,2,1,1,81.0,False
14314,862, Note_on_c,58,76,2,1,1,67.0,False
14315,863, Note_on_c,63,76,2,1,1,73.0,False
14316,863, Note_on_c,66,76,2,1,1,77.0,False
14317,864, Note_on_c,65,76,2,1,1,76.0,True
14318,864, Note_on_c,68,76,2,1,1,79.0,False
14319,865, Note_on_c,58,76,2,1,1,67.0,False
14320,866, Note_on_c,63,76,2,1,1,73.0,False
14321,866, Note_on_c,66,76,2,1,1,77.0,False
14322,867, Note_on_c,65,76,2,1,1,76.0,True
14323,867, Note_on_c,68,76,2,1,1,79.0,False
14324,868, Note_on_c,63,76,2,1,1,73.0,False
14325,868, Note_on_c,66,76,2,1,1,77.0,False
14326,869, Note_on_c,65,76,2,1,1,76.0,True
14327,869, Note_on_c,70,76,2,1,1,81.0,False
14328,870, Note_on_c,58,76,2,1,1,67.0,False
14329,871, Note_on_c,63,76,2,1,1,73.0,False
14330,871, Note_on_c,66,76,2,1,1,77.0,False
14331,872, Note_on_c,65,76,2,1,1,76.0,True
14332,872, Note_on_c,68,76,2,1,1,79.0,False
14333,873, Note_on_c,58,76,2,1,1,67.0,False
14334,874, Note_on_c,63,76,2,1,1,73.0,False
14335,874, Note_on_c,66,76,2,1,1,77.0,False
14336,875, Note_on_c,65,76,2,1,1,76.0,True
14337,875, Note_on_c,68,76,2,1,1,79.0,False
14338,876, Note_on_c,63,76,2,1,1,73.0,False
14339,876, Note_on_c,66,76,2,1,1,77.0,False
14340,877, Note_on_c,65,76,2,1,1,76.0,True
14341,877, Note_on_c,70,76,2,1,1,81.0,False
14342,878, Note_on_c,58,76,2,1,1,67.0,False
14343,879, Note_on_c,63,76,2,1,1,73.0,False
14344,879, Note_on_c,66,76,2,1,1,77.0,False
14345,880, Note_on_c,65,76,2,1,1,76.0,True
14346,880, Note_on_c,68,76,2,1,1,79.0,False
14347,881, Note_on_c,58,76,2,1,1,67.0,False
14348,882, Note_on_c,63,76,2,1,1,73.0,False
14349,882, Note_on_c,66,76,2,1,1,77.0,False
14350,883, Note_on_c,65,76,2,1,1,76.0,True
14351,883, Note_on_c,68,76,2,1,1,79.0,False
14352,884, Note_on_c,63,76,2,1,1,73.0,False
14353,884, Note_on_c,66,76,2,1,1,77.0,False
14354,885, Note_on_c,65,76,2,1,1,76.0,True
14355,885, Note_on_c,70,76,2,1,1,81.0,False
14356,886, Note_on_c,58,76,2,1,1,67.0,False
14357,887, Note_on_c,63,76,2,1,1,73.0,False
14358,887, Note_on_c,66,76,2,1,1,77.0,False
14359,888, Note_on_c,65,76,2,1,1,76.0,True
14360,888, Note_on_c,68,76,2,1,1,79.0,False
14361,889, Note_on_c,58,76,2,1,1,67.0,False
14362,890, Note_on_c,63,76,2,1,1,73.0,False
14363,890, Note_on_c,66,76,2,1,1,77.0,False
14364,891, Note_on_c,65,76,2,1,1,76.0,True
14365,891, Note_on_c,68,76,2,1,1,79.0,False
14366,892, Note_on_c,63,76,2,1,1,73.0,False
14367,892, Note_on_c,66,76,2,1,1,77.0,False
14368,893, Note_on_c,65,76,2,1,1,76.0,True
14369,893, Note_on_c,70,76,2,1,1,81.0,False
14370,894, Note_on_c,58,76,2,1,1,67.0,False
14371,895, Note_on_c,63,76,2,1,1,73.0,False
14372,895, Note_on_c,66,76,2,1,1,77.0,False
14373,896, Note_on_c,65,76,2,1,1,76.0,True
14374,896, Note_on_c,68,76,2,1,1,79.0,False
14375,897, Note_on_c,58,76,2,1,1,67.0,False
14376,898, Note_on_c,63,76,2,1,1,73.0,False
14377,898, Note_on_c,66,76,2,1,1,77.0,False
14378,899, Note_on_c,65,76,2,1,1,76.0,True
14379,899, Note_on_c,68,76,2,1,1,79.0,False
14380,900, Note_on_c,63,76,2,1,1,73.0,False
14381,900, Note_on_c,66,76,2,1,1,77.0,False
14382,901, Note_on_c,65,76,2,1,1,76.0,True
14383,901, Note_on_c,70,76,2,1,1,81.0,False
14384,902, Note_on_c,58,76,2,1,1,67.0,False
14385,903, Note_on_c,63,76,2,1,1,73.0,False
14386,903, Note_on_c,66,76,2,1,1,77.0,False
14387,904, Note_on_c,65,76,2,1,1,76.0,True
14388,904, Note_on_c,68,76,2,1,1,79.0,False
14389,905, Note_on_c,58,76,2,1,1,67.0,False
14390,906, Note_on_c,63,76,2,1,1,73.0,False
14391,906, Note_on_c,66,76,2,1,1,77.0,False
14392,907, Note_on_c,65,76,2,1,1,76.0,True
14393,907, Note_on_c,68,76,2,1,1,79.0,False
14394,908, Note_on_c,63,76,2,1,1,73.0,False
14395,908, Note_on_c,66,76,2,1,1,77.0,False
14396,909, Note_on_c,65,76,2,1,1,76.0,True
14397,909, Note_on_c,70,76,2,1,1,81.0,False
14398,910, Note_on_c,58,76,2,1,1,67.0,False
14399,911, Note_on_c,63,76,2,1,1,73.0,False
14400,911, Note_on_c,66,76,2,1,1,77.0,False
14401,912, Note_on_c,65,76,2,1,1,76.0,True
14402,912, Note_on_c,68,76,2,1,1,79.0,False
14403,913, Note_on_c,58,76,2,1,1,67.0,False
14404,914, Note_on_c,63,76,2,1,1,73.0,False
14405,914, Note_on_c,66,76,2,1,1,77.0,False
14406,915, Note_on_c,65,76,2,1,1,76.0,True
14407,915, Note_on_c,68,76,2,1,1,79.0,False
14408,916, Note_on_c,63,76,2,1,1,73.0,False
14409,916, Note_on_c,66,76,2,1,1,77.0,False
14410,917, Note_on_c,65,76,2,1,1,76.0,True
14411,917, Note_on_c,70,76,2,1,1,81.0,False
14412,918, Note_on_c,58,76,2,1,1,67.0,False
14413,919, Note_on_c,63,76,2,1,1,73.0,False
14414,919, Note_on_c,66,76,2,1,1,77.0,False
14415,920, Note_on_c,65,76,2,1,1,76.0,True
14416,920, Note_on_c,68,76,2,1,1,79.0,False
14417,921, Note_on_c,58,76,2,1,1,67.0,False
14418,922, Note_on_c,63,76,2,1,1,73.0,False
14419,922, Note_on_c,66,76,2,1,1,77.0,False
14420,923, Note_on_c,65,76,2,1,1,76.0,True
14421,923, Note_on_c,68,76,2,1,1,79.0,False
14422,924, Note_on_c,63,76,2,1,1,73.0,False
14423,924, Note_on_c,66,76,2,1,1,77.0,False
14424,925, Note_on_c,65,76,2,1,1,76.0,True
14425,925, Note_on_c,70,76,2,1,1,81.0,False
14426,926, Note_on_c,58,76,2,1,1,67.0,False
14427,927, Note_on_c,63,76,2,1,1,73.0,False
14428,927, Note_on_c,66,76,2,1,1,77.0,False
14429,928, Note_on_c,65,76,2,1,1,76.0,True
14430,928, Note_on_c,68,76,2,1,1,79.0,False
14431,929, Note_on_c,58,76,2,1,1,67.0,False
14432,930, Note_on_c,63,76,2,1,1,73.0,False
14433,930, Note_on_c,66,76,2,1,1,77.0,False
14434,931, Note_on_c,65,76,2,1,1,76.0,True
14435,931, Note_on_c,68,76,2,1,1,79.0,False
14436,932, Note_on_c,63,76,2,1,1,73.0,False
14437,932, Note_on_c,66,76,2,1,1,77.0,False
14438,933, Note_on_c,65,76,2,1,1,76.0,True
14439,933, Note_on_c,70,76,2,1,1,81.0,False
14440,934, Note_on_c,58,76,2,1,1,67.0,False
14441,935, Note_on_c,63,76,2,1,1,73.0,False
14442,935, Note_on_c,66,76,2,1,1,77.0,False
14443,936, Note_on_c,65,76,2,1,1,76.0,True
14444,936, Note_on_c,68,76,2,1,1,79.0,False
14445,937, Note_on_c,58,76,2,1,1,67.0,False
14446,938, Note_on_c,63,76,2,1,1,73.0,False
14447,938, Note_on_c,66,76,2,1,1,77.0,False
14448,939, Note_on_c,65,76,2,1,1,76.0,True
14449,939, Note_on_c,68,76,2,1,1,79.0,False
14450,940, Note_on_c,63,76,2,1,1,73.0,False
14451,940, Note_on_c,66,76,2,1,1,77.0,False
14452,941, Note_on_c,65,76,2,1,1,76.0,True
14453,941, Note_on_c,70,76,2,1,1,81.0,False
14454,942, Note_on_c,58,76,2,1,1,67.0,False
14455,943, Note_on_c,63,76,2,1,1,73.0,False
14456,943, Note_on_c,66,76,2,1,1,77.0,False
14457,944, Note_on_c,65,76,2,1,1,76.0,True
14458,944, Note_on_c,68,76,2,1,1,79.0,False
14459,945, Note_on_c,58,76,2,1,1,67.0,False
14460,946, Note_on_c,63,76,2,1,1,73.0,False
14461,946, Note_on_c,66,76,2,1,1,77.0,False
14462,947, Note_on_c,65,76,2,1,1,76.0,True
14463,947, Note_on_c,68,76,2,1,1,79.0,False
14464,948, Note_on_c,63,76,2,1,1,73.0,False
14465,948, Note_on_c,66,76,2,1,1,77.0,False
14466,949, Note_on_c,65,76,2,1,1,76.0,True
14467,949, Note_on_c,70,76,2,1,1,81.0,False
14468,950, Note_on_c,58,76,2,1,1,67.0,False
14469,951, Note_on_c,63,76,2,1,1,73.0,False
14470,951, Note_on_c,66,76,2,1,1,77.0,False
14471,952, Note_on_c,65,76,2,1,1,76.0,True
14472,952, Note_on_c,68,76,2,1,1,79.0,False
14473,953, Note_on_c,58,76,2,1,1,67.0,False
14474,954, Note_on_c,63,76,2,1,1,73.0,False
14475,954, Note_on_c,66,76,2,1,1,77.0,False
14476,955, Note_on_c,65,76,2,1,1,76.0,True
14477,955, Note_on_c,68,76,2,1,1,79.0,False
14478,956, Note_on_c,63,76,2,1,1,73.0,False
14479,956, Note_on_c,66,76,2,1,1,77.0,False
14480,957, Note_on_c,65,76,2,1,1,76.0,True
14481,957, Note_on_c,70,76,2,1,1,81.0,False
14482,958, Note_on_c,58,76,2,1,1,67.0,False
14483,959, Note_on_c,63,76,2,1,1,73.0,False
14484,959, Note_on_c,66,76,2,1,1,77.0,False
14485,960, Note_on_c,65,76,2,1,1,76.0,True
14486,960, Note_on_c,68,76,2,1,1,79.0,False
14487,961, Note_on_c,58,76,2,1,1,67.0,False
14488,962, Note_on_c,63,76,2,1,1,73.0,False
14489,962, Note_on_c,66,76,2,1,1,77.0,False
14490,963, Note_on_c,65,76,2,1,1,76.0,True
14491,963, Note_on_c,68,76,2,1,1,79.0,False
14492,964, Note_on_c,63,76,2,1,1,73.0,False
14493,964, Note_on_c,66,76,2,1,1,77.0,False
14494,965, Note_on_c,65,76,2,1,1,76.0,True
14495,965, Note_on_c,70,76,2,1,1,81.0,False
14496,966, Note_on_c,58,76,2,1,1,67.0,False
14497,967, Note_on_c,63,76,2,1,1,73.0,False
14498,967, Note_on_c,66,76,2,1,1,77.0,False
14499,968, Note_on_c,65,76,2,1,1,76.0,True
14500,968, Note_on_c,68,76,2,1,1,79.0,False
14501,969, Note_on_c,58,76,2,1,1,67.0,False
14502,970, Note_on_c,63,76,2,1,1,73.0,False
14503,970, Note_on_c,66,76,2,1,1,77.0,False
14504,971, Note_on_c,65,76,2,1,1,76.0,True
14505,971, Note_on_c,68,76,2,1,1,79.0,False
14506,972, Note_on_c,63,76,2,1,1,73.0,False
14507,972, Note_on_c,66,76,2,1,1,77.0,False
14508,973, Note_on_c,65,76,2,1,1,76.0,True
14509,973, Note_on_c,70,76,2,1,1,81.0,False
14510,974, Note_on_c,58,76,2,1,1,67.0,False
14511,975, Note_on_c,63,76,2,1,1,73.0,False
14512,975, Note_on_c,66,76,2,1,1,77.0,False
14513,976, Note_on_c,65,76,2,1,1,76.0,True
14514,976, Note_on_c,68,76,2,1,1,79.0,False
14515,977, Note_on_c,58,76,2,1,1,67.0,False
14516,978, Note_on_c,63,76,2,1,1,73.0,False
14517,978, Note_on_c,66,76,2,1,1,77.0,False
14518,979, Note_on_c,65,76,2,1,1,76.0,True
14519,979, Note_on_c,68,76,2,1,1,79.0,False
14520,980, Note_on_c,63,76,2,1,1,73.0,False
14521,980, Note_on_c,66,76,2,1,1,77.0,False
14522,981, Note_on_c,65,76,2,1,1,76.0,True
14523,981, Note_on_c,70,76,2,1,1,81.0,False
14524,982, Note_on_c,58,76,2,1,1,67.0,False
14525,983, Note_on_c,63,76,2,1,1,73.0,False
14526,983, Note_on_c,66,76,2,1,1,77.0,False
14527,984, Note_on_c,65,76,2,1,1,76.0,True
14528,984, Note_on_c,68,76,2,1,1,79.0,False
14529,985, Note_on_c,58,76,2,1,1,67.0,False
14530,986, Note_on_c,63,76,2,1,1,73.0,False
14531,986, Note_on_c,66,76,2,1,1,77.0,False
14532,987, Note_on_c,65,76,2,1,1,76.0,True
14533,987, Note_on_c,68,76,2,1,1,79.0,False
14534,988, Note_on_c,63,76,2,1,1,73.0,False
14535,988, Note_on_c,66,76,2,1,1,77.0,False
14536,989, Note_on_c,65,76,2,1,1,76.0,True
14537,989, Note_on_c,70,76,2,1,1,81.0,False
14538,990, Note_on_c,58,76,2,1,1,67.0,False
14539,991, Note_on_c,63,76,2,1,1,73.0,False
14540,991, Note_on_c,66,76,2,1,1,77.0,False
14541,992, Note_on_c,65,76,2,1,1,76.0,True
14542,992, Note_on_c,68,76,2,1,1,79.0,False
14543,993, Note_on_c,58,76,2,1,1,67.0,False
14544,994, Note_on_c,63,76,2,1,1,73.0,False
14545,994, Note_on_c,66,76,2,1,1,77.0,False
14546,995, Note_on_c,65,76,2,1,1,76.0,True
14547,995, Note_on_c,68,76,2,1,1,79.0,False
14548,996, Note_on_c,63,76,2,1,1,73.0,False
14549,996, Note_on_c,66,76,2,1,1,77.0,False
14550,997, Note_on_c,65,76,2,1,1,76.0,True
14551,997, Note_on_c,70,76,2,1,1,81.0,False
14552,998, Note_on_c,58,76,2,1,1,67.0,False
14553,999, Note_on_c,63,76,2,1,1,73.0,False
14554,999, Note_on_c,66,76,2,1,1,77.0,False
14555,1000, Note_on_c,65,76,2,1,1,76.0,True
14556,1000, Note_on_c,68,76,2,1,1,79.0,False
14557,1001, Note_on_c,58,76,2,1,1,67.0,False
14558,1002, Note_on_c,63,76,2,1,1,73.0,False
14559,1002, Note_on_c,66,76,2,1,1,77.0,False
14560,1003, Note_on_c,65,76,2,1,1,76.0,True
14561,1003, Note_on_c,68,76,2,1,1,79.0,False
14562,1004, Note_on_c,63,76,2,1,1,73.0,False
14563,1004, Note_on_c,66,76,2,1,1,77.0,False
14564,1005, Note_on_c,65,76,2,1,1,76.0,True
14565,1005, Note_on_c,70,76,2,1,1,81.0,False
14566,1006, Note_on_c,58,76,2,1,1,67.0,False
14567,1007, Note_on_c,63,76,2,1,1,73.0,False
14568,1007, Note_on_c,66,76,2,1,1,77.0,False
14569,1008, Note_on_c,65,76,2,1,1,76.0,True
14570,1008, Note_on_c,68,76,2,1,1,79.0,False
14571,1009, Note_on_c,58,76,2,1,1,67.0,False
14572,1010, Note_on_c,63,76,2,1,1,73.0,False
14573,1010, Note_on_c,66,76,2,1,1,77.0,False
14574,1011, Note_on_c,65,76,2,1,1,76.0,True
14575,1011, Note_on_c,68,76,2,1,1,79.0,False
14576,1012, Note_on_c,63,76,2,1,1,73.0,False
14577,1012, Note_on_c,66,76,2,1,1,77.0,False
14578,1013, Note_on_c,65,76,2,1,1,76.0,True
14579,1013, Note_on_c,70,76,2,1,1,81.0,False
14580,1014, Note_on_c,58,76,2,1,1,67.0,False
14581,1015, Note_on_c,63,76,2,1,1,73.0,False
14582,1015, Note_on_c,66,76,2,1,1,77.0,False
14583,1016, Note_on_c,65,76,2,1,1,76.0,True
14584,1016, Note_on_c,68,76,2,1,1,79.0,False
14585,1017, Note_on_c,58,76,2,1,1,67.0,False
14586,1018, Note_on_c,63,76,2,1,1,73.0,False
14587,1018, Note_on_c,66,76,2,1,1,77.0,False
14588,1019, Note_on_c,65,76,2,1,1,76.0,True
14589,1019, Note_on_c,68,76,2,1,1,79.0,False
14590,1020, Note_on_c,63,76,2,1,1,73.0,False
14591,1020, Note_on_c,66,76,2,1,1,77.0,False
14592,1021, Note_on_c,65,76,2,1,1,76.0,True
14593,1021, Note_on_c,70,76,2,1,1,81.0,False
14594,1022, Note_on_c,58,76,2,1,1,67.0,False
14595,1023, Note_on_c,63,76,2,1,1,73.0,False
14596,1023, Note_on_c,66,76,2,1,1,77.0,False
14597,1024, Note_on_c,65,76,2,1,1,76.0,True
14598,1024, Note_on_c,68,76,2,1,1,79.0,False
14599,1025, Note_on_c,58,76,2,1,1,67.0,False
14600,1026, Note_on_c,63,76,2,1,1,73.0,False
14601,1026, Note_on_c,66,76,2,1,1,77.0,False
14602,1027, Note_on_c,65,76,2,1,1,76.0,True
14603,1027, Note_on_c,68,76,2,1,1,79.0,False
14604,1028, Note_on_c,63,76,2,1,1,73.0,False
14605,1028, Note_on_c,66,76,2,1,1,77.0,False
14606,1029, Note_on_c,65,76,2,1,1,76.0,True
14607,1029, Note_on_c,70,76,2,1,1,81.0,False
14608,1030, Note_on_c,58,76,2,1,1,67.0,False
14609,1031, Note_on_c,63,76,2,1,1,73.0,False
14610,1031, Note_on_c,66,76,2,1,1,77.0,False
14611,1032, Note_on_c,65,76,2,1,1,76.0,True
14612,1032, Note_on_c,68,76,2,1,1,79.0,False
14613,1033, Note_on_c,58,76,2,1,1,67.0,False
14614,1034, Note_on_c,63,76,2,1,1,73.0,False
14615,1034, Note_on_c,66,76,2,1,1,77.0,False
14616,1035, Note_on_c,65,76,2,1,1,76.0,True
14617,1035, Note_on_c,68,76,2,1,1,79.0,False
14618,1036, Note_on_c,63,76,2,1,1,73.0,False
14619,1036, Note_on_c,66,76,2,1,1,77.0,False
14620,1037, Note_on_c,65,76,2,1,1,76.0,True
14621,1037, Note_on_c,70,76,2,1,1,81.0,False
14622,1038, Note_on_c,58,76,2,1,1,67.0,False
14623,1039, Note_on_c,63,76,2,1,1,73.0,False
14624,1039, Note_on_c,66,76,2,1,1,77.0,False
14625,1040, Note_on_c,65,76,2,1,1,76.0,True
14626,1040, Note_on_c,68,76,2,1,1,79.0,False
14627,1041, Note_on_c,58,76,2,1,1,67.0,False
14628,1042, Note_on_c,63,76,2,1,1,73.0,False
14629,1042, Note_on_c,66,76,2,1,1,77.0,False
14630,1043, Note_on_c,65,76,2,1,1,76.0,True
14631,1043, Note_on_c,68,76,2,1,1,79.0,False
14632,1044, Note_on_c,63,76,2,1,1,73.0,False
14633,1044, Note_on_c,66,76,2,1,1,77.0,False
14634,1045, Note_on_c,65,76,2,1,1,76.0,True
14635,1045, Note_on_c,70,76,2,1,1,81.0,False
14636,1046, Note_on_c,58,76,2,1,1,67.0,False
14637,1047, Note_on_c,63,76,2,1,1,73.0,False
14638,1047, Note_on_c,66,76,2,1,1,77.0,False
14639,1048, Note_on_c,65,76,2,1,1,76.0,True
14640,1048, Note_on_c,68,76,2,1,1,79.0,False
14641,1049, Note_on_c,58,76,2,1,1,67.0,False
14642,1050, Note_on_c,63,76,2,1,1,73.0,False
14643,1050, Note_on_c,66,76,2,1,1,77.0,False
14644,1051, Note_on_c,65,76,2,1,1,76.0,True
14645,1051, Note_on_c,68,76,2,1,1,79.0,False
14646,1052, Note_on_c,63,76,2,1,1,73.0,False
14647,1052, Note_on_c,66,76,2,1,1,77.0,False
14648,1053, Note_on_c,65,76,2,1,1,76.0,True
14649,1053, Note_on_c,70,76,2,1,1,81.0,False
14650,1054, Note_on_c,58,76,2,1,1,67.0,False
14651,1055, Note_on_c,63,76,2,1,1,73.0,False
14652,1055, Note_on_c,66,76,2,1,1,77.0,False
14653,1056, Note_on_c,65,76,2,1,1,76.0,True
14654,1056, Note_on_c,68,76,2,1,1,79.0,False
14655,1057, Note_on_c,58,76,2,1,1,67.0,False
14656,1058, Note_on_c,63,76,2,1,1,73.0,False
14657,1058, Note_on_c,66,76,2,1,1,77.0,False
14658,1059, Note_on_c,65,76,2,1,1,76.0,True
14659,1059, Note_on_c,68,76,2,1,1,79.0,False
14660,1060, Note_on_c,63,76,2,1,1,73.0,False
14661,1060, Note_on_c,66,76,2,1,1,77.0,False
14662,1061, Note_on_c,65,76,2,1,1,76.0,True
14663,1061, Note_on_c,70,76,2,1,1,81.0,False
14664,1062, Note_on_c,58,76,2,1,1,67.0,False
14665,1063, Note_on_c,63,76,2,1,1,73.0,False
14666,1063, Note_on_c,66,76,2,1,1,77.0,False
14667,1064, Note_on_c,65,76,2,1,1,76.0,True
14668,1064, Note_on_c,68,76,2,1,1,79.0,False
14669,1065, Note_on_c,58,76,2,1,1,67.0,False
14670,1066, Note_on_c,63,76,2,1,1,73.0,False
14671,1066, Note_on_c,66,76,2,1,1,77.0,False
14672,1067, Note_on_c,65,76,2,1,1,76.0,True
14673,1067, Note_on_c,68,76,2,1,1,79.0,False
14674,1068, Note_on_c,63,76,2,1,1,73.0,False
14675,1068, Note_on_c,66,76,2,1,1,77.0,False
14676,1069, Note_on_c,65,76,2,1,1,76.0,True
14677,1069, Note_on_c,70,76,2,1,1,81.0,False
14678,1070, Note_on_c,58,76,2,1,1,67.0,False
14679,1071, Note_on_c,63,76,2,1,1,73.0,False
14680,1071, Note_on_c,66,76,2,1,1,77.0,False
14681,1072, Note_on_c,65,76,2,1,1,76.0,True
14682,1072, Note_on_c,68,76,2,1,1,79.0,False
14683,1073, Note_on_c,58,76,2,1,1,67.0,False
14684,1074, Note_on_c,63,76,2,1,1,73.0,False
14685,1074, Note_on_c,66,76,2,1,1,77.0,False
14686,1075, Note_on_c,65,76,2,1,1,76.0,True
14687,1075, Note_on_c,68,76,2,1,1,79.0,False
14688,1076, Note_on_c,63,76,2,1,1,73.0,False
14689,1076, Note_on_c,66,76,2,1,1,77.0,False
14690,1077, Note_on_c,65,76,2,1,1,76.0,True
14691,1077, Note_on_c,70,76,2,1,1,81.0,False
14692,1078, Note_on_c,58,76,2,1,1,67.0,False
14693,1079, Note_on_c,63,76,2,1,1,73.0,False
14694,1079, Note_on_c,66,76,2,1,1,77.0,False
14695,1080, Note_on_c,65,76,2,1,1,76.0,True
14696,1080, Note_on_c,68,76,2,1,1,79.0,False
14697,1081, Note_on_c,58,76,2,1,1,67.0,False
14698,1082, Note_on_c,63,76,2,1,1,73.0,False
14699,1082, Note_on_c,66,76,2,1,1,77.0,False
14700,1083, Note_on_c,65,76,2,1,1,76.0,True
14701,1083, Note_on_c,68,76,2,1,1,79.0,False
14702,1084, Note_on_c,63,76,2,1,1,73.0,False
14703,1084, Note_on_c,66,76,2,1,1,77.0,False
14704,1085, Note_on_c,65,76,2,1,1,76.0,True
14705,1085, Note_on_c,70,76,2,1,1,81.0,False
14706,1086, Note_on_c,58,76,2,1,1,67.0,False
14707,1087, Note_on_c,63,76,2,1,1,73.0,False
14708,1087, Note_on_c,66,76,2,1,1,77.0,False
14709,1088, Note_on_c,65,76,2,1,1,76.0,True
14710,1088, Note_on_c,68,76,2,1,1,79.0,False
14711,1089, Note_on_c,58,76,2,1,1,67.0,False
14712,1090, Note_on_c,63,76,2,1,1,73.0,False
14713,1090, Note_on_c,66,76,2,1,1,77.0,False
14714,1091, Note_on_c,65,76,2,1,1,76.0,True
14715,1091, Note_on_c,68,76,2,1,1,79.0,False
14716,1092, Note_on_c,63,76,2,1,1,73.0,False
14717,1092, Note_on_c,66,76,2,1,1,77.0,False
14718,1093, Note_on_c,65,76,2,1,1,76.0,True
14719,1093, Note_on_c,70,76,2,1,1,81.0,False
14720,1094, Note_on_c,58,76,2,1,1,67.0,False
14721,1095, Note_on_c,63,76,2,1,1,73.0,False
14722,1095, Note_on_c,66,76,2,1,1,77.0,False
14723,1096, Note_on_c,65,76,2,1,1,76.0,True
14724,1096, Note_on_c,68,76,2,1,1,79.0,False
14725,1097, Note_on_c,58,76,2,1,1,67.0,False
14726,1098, Note_on_c,63,76,2,1,1,73.0,False
14727,1098, Note_on_c,66,76,2,1,1,77.0,False
14728,1099, Note_on_c,65,76,2,1,1,76.0,True
14729,1099, Note_on_c,68,76,2,1,1,79.0,False
14730,1100, Note_on_c,63,76,2,1,1,73.0,False
14731,1100, Note_on_c,66,76,2,1,1,77.0,False
14732,1101, Note_on_c,65,76,2,1,1,76.0,True
14733,1101, Note_on_c,70,76,2,1,1,81.0,False
14734,1102, Note_on_c,58,76,2,1,1,67.0,False
14735,1103, Note_on_c,63,76,2,1,1,73.0,False
14736,1103, Note_on_c,66,76,2,1,1,77.0,False
14737,1104, Note_on_c,65,76,2,1,1,76.0,True
14738,1104, Note_on_c,68,76,2,1,1,79.0,False
14739,1105, Note_on_c,58,76,2,1,1,67.0,False
14740,1106, Note_on_c,63,76,2,1,1,73.0,False
14741,1106, Note_on_c,66,76,2,1,1,77.0,False
14742,1107, Note_on_c,65,76,2,1,1,76.0,True
14743,1107, Note_on_c,68,76,2,1,1,79.0,False
14744,1108, Note_on_c,63,76,2,1,1,73.0,False
14745,1108, Note_on_c,66,76,2,1,1,77.0,False
14746,1109, Note_on_c,65,76,2,1,1,76.0,True
14747,1109, Note_on_c,70,76,2,1,1,81.0,False
14748,1110, Note_on_c,58,76,2,1,1,67.0,False
14749,1111, Note_on_c,63,76,2,1,1,73.0,False
14750,1111, Note_on_c,66,76,2,1,1,77.0,False
14751,1112, Note_on_c,65,76,2,1,1,76.0,True
14752,1112, Note_on_c,68,76,2,1,1,79.0,False
14753,1113, Note_on_c,58,76,2,1,1,67.0,False
14754,1114, Note_on_c,63,76,2,1,1,73.0,False
14755,1114, Note_on_c,66,76,2,1,1,77.0,False
14756,1115, Note_on_c,65,76,2,1,1,76.0,True
14757,1115, Note_on_c,68,76,2,1,1,79.0,False
14758,1116, Note_on_c,63,76,2,1,1,73.0,False
14759,1116, Note_on_c,66,76,2,1,1,77.0,False
14760,1117, Note_on_c,65,76,2,1,1,76.0,True
14761,1117, Note_on_c,70,76,2,1,1,81.0,False
14762,1118, Note_on_c,58,76,2,1,1,67.0,False
14763,1119, Note_on_c,63,76,2,1,1,73.0,False
14764,1119, Note_on_c,66,76,2,1,1,77.0,False
14765,1120, Note_on_c,65,76,2,1,1,76.0,True
14766,1120, Note_on_c,68,76,2,1,1,79.0,False
14767,1121, Note_on_c,58,76,2,1,1,67.0,False
14768,1122, Note_on_c,63,76,2,1,1,73.0,False
14769,1122, Note_on_c,66,76,2,1,1,77.0,False
14770,1123, Note_on_c,65,76,2,1,1,76.0,True
14771,1123, Note_on_c,68,76,2,1,1,79.0,False
14772,1124, Note_on_c,63,76,2,1,1,73.0,False
14773,1124, Note_on_c,66,76,2,1,1,77.0,False
14774,1125, Note_on_c,65,76,2,1,1,76.0,True
14775,1125, Note_on_c,70,76,2,1,1,81.0,False
14776,1126, Note_on_c,58,76,2,1,1,67.0,False
14777,1127, Note_on_c,63,76,2,1,1,73.0,False
14778,1127, Note_on_c,66,76,2,1,1,77.0,False
14779,1128, Note_on_c,65,76,2,1,1,76.0,True
14780,1128, Note_on_c,68,76,2,1,1,79.0,False
14781,1129, Note_on_c,58,76,2,1,1,67.0,False
14782,1130, Note_on_c,63,76,2,1,1,73.0,False
14783,1130, Note_on_c,66,76,2,1,1,77.0,False
14784,1131, Note_on_c,65,76,2,1,1,76.0,True
14785,1131, Note_on_c,68,76,2,1,1,79.0,False
14786,1132, Note_on_c,63,76,2,1,1,73.0,False
14787,1132, Note_on_c,66,76,2,1,1,77.0,False
14788,1133, Note_on_c,65,76,2,1,1,76.0,True
14789,1133, Note_on_c,70,76,2,1,1,81.0,False
14790,1134, Note_on_c,58,76,2,1,1,67.0,False
14791,1135, Note_on_c,63,76,2,1,1,73.0,False
14792,1135, Note_on_c,66,76,2,1,1,77.0,False
14793,1136, Note_on_c,65,76,2,1,1,76.0,True
14794,1136, Note_on_c,68,76,2,1,1,79.0,False
14795,1137, Note_on_c,58,76,2,1,1,67.0,False
14796,1138, Note_on_c,63,76,2,1,1,73.0,False
14797,1138, Note_on_c,66,76,2,1,1,77.0,False
14798,1139, Note_on_c,65,76,2,1,1,76.0,True
14799,1139, Note_on_c,68,76,2,1,1,79.0,False
14800,1140, Note_on_c,63,76,2,1,1,73.0,False
14801,1140, Note_on_c,66,76,2,1,1,77.0,False
14802,1141, Note_on_c,65,76,2,1,1,76.0,True
14803,1141, Note_on_c,70,76,2,1,1,81.0,False
14804,1142, Note_on_c,58,76,2,1,1,67.0,False
14805,1143, Note_on_c,63,76,2,1,1,73.0,False
14806,1143, Note_on_c,66,76,2,1,1,77.0,False
14807,1144, Note_on_c,65,76,2,1,1,76.0,True
14808,1144, Note_on_c,68,76,2,1,1,79.0,False
14809,1145, Note_on_c,58,76,2,1,1,67.0,False
14810,1146, Note_on_c,63,76,2,1,1,73.0,False
14811,1146, Note_on_c,66,76,2,1,1,77.0,False
14812,1147, Note_on_c,65,76,2,1,1,76.0,True
14813,1147, Note_on_c,68,76,2,1,1,79.0,False
14814,1148, Note_on_c,63,76,2,1,1,73.0,False
14815,1148, Note_on_c,66,76,2,1,1,77.0,False
14816,1149, Note_on_c,65,76,2,1,1,76.0,True
14817,1149, Note_on_c,70,76,2,1,1,81.0,False
14818,1150, Note_on_c,58,76,2,1,1,67.0,False
14819,1151, Note_on_c,63,76,2,1,1,73.0,False
14820,1151, Note_on_c,66,76,2,1,1,77.0,False
14821,1152, Note_on_c,65,76,2,1,1,76.0,True
14822,1152, Note_on_c,68,76,2,1,1,79.0,False
14823,1153, Note_on_c,58,76,2,1,1,67.0,False
14824,1154, Note_on_c,63,76,2,1,1,73.0,False
14825,1154, Note_on_c,66,76,2,1,1,77.0,False
14826,1155, Note_on_c,65,76,2,1,1,76.0,True
14827,1155, Note_on_c,68,76,2,1,1,79.0,False
14828,1156, Note_on_c,63,76,2,1,1,73.0,False
14829,1156, Note_on_c,66,76,2,1,1,77.0,False
14830,1157, Note_on_c,65,76,2,1,1,76.0,True
14831,1157, Note_on_c,70,76,2,1,1,81.0,False
14832,1158, Note_on_c,58,76,2,1,1,67.0,False
14833,1159, Note_on_c,63,76,2,1,1,73.0,False
14834,1159, Note_on_c,66,76,2,1,1,77.0,False
14835,1160, Note_on_c,65,76,2,1,1,76.0,True
14836,1160, Note_on_c,68,76,2,1,1,79.0,False
14837,1161, Note_on_c,58,76,2,1,1,67.0,False
14838,1162, Note_on_c,63,76,2,1,1,73.0,False
14839,1162, Note_on_c,66,76,2,1,1,77.0,False
14840,1163, Note_on_c,65,76,2,1,1,76.0,True
14841,1163, Note_on_c,68,76,2,1,1,79.0,False
14842,1164, Note_on_c,63,76,2,1,1,73.0,False
14843,1164, Note_on_c,66,76,2,1,1,77.0,False
14844,1165, Note_on_c,65,76,2,1,1,76.0,True
14845,1165, Note_on_c,70,76,2,1,1,81.0,False
14846,1166, Note_on_c,58,76,2,1,1,67.0,False
14847,1167, Note_on_c,63,76,2,1,1,73.0,False
14848,1167, Note_on_c,66,76,2,1,1,77.0,False
14849,1168, Note_on_c,65,76,2,1,1,76.0,True
14850,1168, Note_on_c,68,76,2,1,1,79.0,False
14851,1169, Note_on_c,58,76,2,1,1,67.0,False
14852,1170, Note_on_c,63,76,2,1,1,73.0,False
14853,1170, Note_on_c,66,76,2,1,1,77.0,False
14854,1171, Note_on_c,65,76,2,1,1,76.0,True
14855,1171, Note_on_c,68,76,2,1,1,79.0,False
14856,1172, Note_on_c,63,76,2,1,1,73.0,False
14857,1172, Note_on_c,66,76,2,1,1,77.0,False
14858,1173, Note_on_c,65,76,2,1,1,76.0,True
14859,1173, Note_on_c,70,76,2,1,1,81.0,False
14860,1174, Note_on_c,58,76,2,1,1,67.0,False
14861,1175, Note_on_c,63,76,2,1,1,73.0,False
14862,1175, Note_on_c,66,76,2,1,1,77.0,False
14863,1176, Note_on_c,65,76,2,1,1,76.0,True
14864,1176, Note_on_c,68,76,2,1,1,79.0,False
14865,1177, Note_on_c,58,76,2,1,1,67.0,False
14866,1178, Note_on_c,63,76,2,1,1,73.0,False
14867,1178, Note_on_c,66,76,2,1,1,77.0,False
14868,1179, Note_on_c,65,76,2,1,1,76.0,True
14869,1179, Note_on_c,68,76,2,1,1,79.0,False
14870,1180, Note_on_c,63,76,2,1,1,73.0,False
14871,1180, Note_on_c,66,76,2,1,1,77.0,False
14872,1181, Note_on_c,65,76,2,1,1,76.0,True
14873,1181, Note_on_c,70,76,2,1,1,81.0,False
14874,1182, Note_on_c,58,76,2,1,1,67.0,False
14875,1183, Note_on_c,63,76,2,1,1,73.0,False
14876,1183, Note_on_c,66,76,2,1,1,77.0,False
14877,1184, Note_on_c,65,76,2,1,1,76.0,True
14878,1184, Note_on_c,68,76,2,1,1,79.0,False
14879,1185, Note_on_c,58,76,2,1,1,67.0,False
14880,1186, Note_on_c,63,76,2,1,1,73.0,False
14881,1186, Note_on_c,66,76,2,1,1,77.0,False
14882,1187, Note_on_c,65,76,2,1,1,76.0,True
14883,1187, Note_on_c,68,76,2,1,1,79.0,False
14884,1188, Note_on_c,63,76,2,1,1,73.0,False
14885,1188, Note_on_c,66,76,2,1,1,77.0,False
14886,1189, Note_on_c,65,76,2,1,1,76.0,True
14887,1189, Note_on_c,70,76,2,1,1,81.0,False
14888,1190, Note_on_c,58,76,2,1,1,67.0,False
14889,1191, Note_on_c,63,76,2,1,1,73.0,False
14890,1191, Note_on_c,66,76,2,1,1,77.0,False
14891,1192, Note_on_c,65,76,2,1,1,76.0,True
14892,1192, Note_on_c,68,76,2,1,1,79.0,False
14893,1193, Note_on_c,58,76,2,1,1,67.0,False
14894,1194, Note_on_c,63,76,2,1,1,73.0,False
14895,1194, Note_on_c,66,76,2,1,1,77.0,False
14896,1195, Note_on_c,65,76,2,1,1,76.0,True
14897,1195, Note_on_c,68,76,2,1,1,79.0,False
14898,1196, Note_on_c,63,76,2,1,1,73.0,False
14899,1196, Note_on_c,66,76,2,1,1,77.0,False
14900,1197, Note_on_c,65,76,2,1,1,76.0,True
14901,1197, Note_on_c,70,76,2,1,1,81.0,False
14902,1198, Note_on_c,58,76,2,1,1,67.0,False
14903,1199, Note_on_c,63,76,2,1,1,73.0,False
14904,1199, Note_on_c,66,76,2,1,1,77.0,False
14905,1200, Note_on_c,65,76,2,1,1,76.0,True
14906,1200, Note_on_c,68,76,2,1,1,79.0,False
14907,1201, Note_on_c,58,76,2,1,1,67.0,False
14908,1202, Note_on_c,63,76,2,1,1,73.0,False
14909,1202, Note_on_c,66,76,2,1,1,77.0,False
14910,1203, Note_on_c,65,76,2,1,1,76.0,True
14911,1203, Note_on_c,68,76,2,1,1,79.0,False
14912,1204, Note_on_c,63,76,2,1,1,73.0,False
14913,1204, Note_on_c,66,76,2,1,1,77.0,False
14914,1205, Note_on_c,65,76,2,1,1,76.0,True
14915,1205, Note_on_c,70,76,2,1,1,81.0,False
14916,1206, Note_on_c,58,76,2,1,1,67.0,False
14917,1207, Note_on_c,63,76,2,1,1,73.0,False
14918,1207, Note_on_c,66,76,2,1,1,77.0,False
14919,1208, Note_on_c,65,76,2,1,1,76.0,True
14920,1208, Note_on_c,68,76,2,1,1,79.0,False
14921,1209, Note_on_c,58,76,2,1,1,67.0,False
14922,1210, Note_on_c,63,76,2,1,1,73.0,False
14923,1210, Note_on_c,66,76,2,1,1,77.0,False
14924,1211, Note_on_c,65,76,2,1,1,76.0,True
14925,1211, Note_on_c,68,76,2,1,1,79.0,False
14926,1212, Note_on_c,63,76,2,1,1,73.0,False
14927,1212, Note_on_c,66,76,2,1,1,77.0,False
14928,1213, Note_on_c,65,76,2,1,1,76.0,True
14929,1213, Note_on_c,70,76,2,1,1,81.0,False
14930,1214, Note_on_c,58,76,2,1,1,67.0,False
14931,1215, Note_on_c,63,76,2,1,1,73.0,False
14932,1215, Note_on_c,66,76,2,1,1,77.0,False
14933,1216, Note_on_c,65,76,2,1,1,76.0,True
14934,1216, Note_on_c,68,76,2,1,1,79.0,False
14935,1217, Note_on_c,58,76,2,1,1,67.0,False
14936,1218, Note_on_c,63,76,2,1,1,73.0,False
14937,1218, Note_on_c,66,76,2,1,1,77.0,False
14938,1219, Note_on_c,65,76,2,1,1,76.0,True
14939,1219, Note_on_c,68,76,2,1,1,79.0,False
14940,1220, Note_on_c,63,76,2,1,1,73.0,False
14941,1220, Note_on_c,66,76,2,1,1,77.0,False
14942,1221, Note_on_c,65,76,2,1,1,76.0,True
14943,1221, Note_on_c,70,76,2,1,1,81.0,False
14944,1222, Note_on_c,58,76,2,1,1,67.0,False
14945,1223, Note_on_c,63,76,2,1,1,73.0,False
14946,1223, Note_on_c,66,76,2,1,1,77.0,False
14947,1224, Note_on_c,65,76,2,1,1,76.0,True
14948,1224, Note_on_c,68,76,2,1,1,79.0,False
14949,1225, Note_on_c,58,76,2,1,1,67.0,False
14950,1226, Note_on_c,63,76,2,1,1,73.0,False
14951,1226, Note_on_c,66,76,2,1,1,77.0,False
14952,1227, Note_on_c,65,76,2,1,1,76.0,True
14953,1227, Note_on_c,68,76,2,1,1,79.0,False
14954,1228, Note_on_c,63,76,2,1,1,73.0,False
14955,1228, Note_on_c,66,76,2,1,1,77.0,False
14956,1229, Note_on_c,65,76,2,1,1,76.0,True
14957,1229, Note_on_c,70,76,2,1,1,81.0,False
14958,1230, Note_on_c,58,76,2,1,1,67.0,False
14959,1231, Note_on_c,63,76,2,1,1,73.0,False
14960,1231, Note_on_c,66,76,2,1,1,77.0,False
14961,1232, Note_on_c,65,76,2,1,1,76.0,True
14962,1232, Note_on_c,68,76,2,1,1,79.0,False
14963,1233, Note_on_c,58,76,2,1,1,67.0,False
14964,1234, Note_on_c,63,76,2,1,1,73.0,False
14965,1234, Note_on_c,66,76,2,1,1,77.0,False
14966,1235, Note_on_c,65,76,2,1,1,76.0,True
14967,1235, Note_on_c,68,76,2,1,1,79.0,False
14968,1236, Note_on_c,63,76,2,1,1,73.0,False
14969,1236, Note_on_c,66,76,2,1,1,77.0,False
14970,1237, Note_on_c,65,76,2,1,1,76.0,True
14971,1237, Note_on_c,70,76,2,1,1,81.0,False
14972,1238, Note_on_c,58,76,2,1,1,67.0,False
14973,1239, Note_on_c,63,76,2,1,1,73.0,False
14974,1239, Note_on_c,66,76,2,1,1,77.0,False
14975,1240, Note_on_c,65,76,2,1,1,76.0,True
14976,1240, Note_on_c,68,76,2,1,1,79.0,False
14977,1241, Note_on_c,58,76,2,1,1,67.0,False
14978,1242, Note_on_c,63,76,2,1,1,73.0,False
14979,1242, Note_on_c,66,76,2,1,1,77.0,False
14980,1243, Note_on_c,65,76,2,1,1,76.0,True
14981,1243, Note_on_c,68,76,2,1,1,79.0,False
14982,1244, Note_on_c,63,76,2,1,1,73.0,False
14983,1244, Note_on_c,66,76,2,1,1,77.0,False
14984,1245, Note_on_c,65,76,2,1,1,76.0,True
14985,1245, Note_on_c,70,76,2,1,1,81.0,False
14986,1246, Note_on_c,58,76,2,1,1,67.0,False
14987,1247, Note_on_c,63,76,2,1,1,73.0,False
14988,1247, Note_on_c,66,76,2,1,1,77.0,False
14989,1248, Note_on_c,65,76,2,1,1,76.0,True
14990,1248, Note_on_c,68,76,2,1,1,79.0,False
14991,1249, Note_on_c,58,76,2,1,1,67.0,False
14992,1250, Note_on_c,63,76,2,1,1,73.0,False
14993,1250, Note_on_c,66,76,2,1,1,77.0,False
14994,1251, Note_on_c,65,76,2,1,1,76.0,True
14995,1251, Note_on_c,68,76,2,1,1,79.0,False
14996,1252, Note_on_c,63,76,2,1,1,73.0,False
14997,1252, Note_on_c,66,76,2,1,1,77.0,False
14998,1253, Note_on_c,65,76,2,1,1,76.0,True
14999,1253, Note_on_c,70,76,2,1,1,81.0,False
15000,1254, Note_on_c,58,76,2,1,1,67.0,False
15001,1255, Note_on_c,63,76,2,1,1,73.0,False
15002,1255, Note_on_c,66,76,2,1,1,77.0,False
15003,1256, Note_on_c,65,76,2,1,1,76.0,True
15004,1256, Note_on_c,68,76,2,1,1,79.0,False
15005,1257, Note_on_c,58,76,2,1,1,67.0,False
15006,1258, Note_on_c,63,76,2,1,1,73.0,False
15007,1258, Note_on_c,66,76,2,1,1,77.0,False
15008,1259, Note_on_c,65,76,2,1,1,76.0,True
15009,1259, Note_on_c,68,76,2,1,1,79.0,False
15010,1260, Note_on_c,63,76,2,1,1,73.0,False
15011,1260, Note_on_c,66,76,2,1,1,77.0,False
15012,1261, Note_on_c,65,76,2,1,1,76.0,True
15013,1261, Note_on_c,70,76,2,1,1,81.0,False
15014,1262, Note_on_c,58,76,2,1,1,67.0,False
15015,1263, Note_on_c,63,76,2,1,1,73.0,False
15016,1263, Note_on_c,66,76,2,1,1,77.0,False
15017,1264, Note_on_c,65,76,2,1,1,76.0,True
15018,1264, Note_on_c,68,76,2,1,1,79.0,False
15019,1265, Note_on_c,58,76,2,1,1,67.0,False
15020,1266, Note_on_c,63,76,2,1,1,73.0,False
15021,1266, Note_on_c,66,76,2,1,1,77.0,False
15022,1267, Note_on_c,65,76,2,1,1,76.0,True
15023,1267, Note_on_c,68,76,2,1,1,79.0,False
15024,1268, Note_on_c,63,76,2,1,1,73.0,False
15025,1268, Note_on_c,66,76,2,1,1,77.0,False
15026,1269, Note_on_c,65,76,2,1,1,76.0,True
15027,1269, Note_on_c,70,76,2,1,1,81.0,False
15028,1270, Note_on_c,58,76,2,1,1,67.0,False
15029,1271, Note_on_c,63,76,2,1,1,73.0,False
15030,1271, Note_on_c,66,76,2,1,1,77.0,False
15031,1272, Note_on_c,65,76,2,1,1,76.0,True
15032,1272, Note_on_c,68,76,2,1,1,79.0,False
15033,1273, Note_on_c,58,76,2,1,1,67.0,False
15034,1274, Note_on_c,63,76,2,1,1,73.0,False
15035,1274, Note_on_c,66,76,2,1,1,77.0,False
15036,1275, Note_on_c,65,76,2,1,1,76.0,True
15037,1275, Note_on_c,68,76,2,1,1,79.0,False
15038,1276, Note_on_c,63,76,2,1,1,73.0,False
15039,1276, Note_on_c,66,76,2,1,1,77.0,False
15040,1277, Note_on_c,65,76,2,1,1,76.0,True
15041,1277, Note_on_c,70,76,2,1,1,81.0,False
15042,1278, Note_on_c,58,76,2,1,1,67.0,False
15043,1279, Note_on_c,63,76,2,1,1,73.0,False
15044,1279, Note_on_c,66,76,2,1,1,77.0,False
15045,1280, Note_on_c,65,76,2,1,1,76.0,True
15046,1280, Note_on_c,68,76,2,1,1,79.0,False
15047,1281, Note_on_c,58,76,2,1,1,67.0,False
15048,1282, Note_on_c,63,76,2,1,1,73.0,False
15049,1282, Note_on_c,66,76,2,1,1,77.0,False
15050,1283, Note_on_c,65,76,2,1,1,76.0,True
15051,1283, Note_on_c,68,76,2,1,1,79.0,False
15052,1284, Note_on_c,63,76,2,1,1,73.0,False
15053,1284, Note_on_c,66,76,2,1,1,77.0,False
15054,1285, Note_on_c,65,76,2,1,1,76.0,True
15055,1285, Note_on_c,70,76,2,1,1,81.0,False
15056,1286, Note_on_c,58,76,2,1,1,67.0,False
15057,1287, Note_on_c,63,76,2,1,1,73.0,False
15058,1287, Note_on_c,66,76,2,1,1,77.0,False
15059,1288, Note_on_c,65,76,2,1,1,76.0,True
15060,1288, Note_on_c,68,76,2,1,1,79.0,False
15061,1289, Note_on_c,58,76,2,1,1,67.0,False
15062,1290, Note_on_c,63,76,2,1,1,73.0,False
15063,1290, Note_on_c,66,76,2,1,1,77.0,False
15064,1291, Note_on_c,65,76,2,1,1,76.0,True
15065,1291, Note_on_c,68,76,2,1,1,79.0,False
15066,1292, Note_on_c,63,76,2,1,1,73.0,False
15067,1292, Note_on_c,66,76,2,1,1,77.0,False
15068,1293, Note_on_c,65,76,2,1,1,76.0,True
15069,1293, Note_on_c,70,76,2,1,1,81.0,False
15070,1294, Note_on_c,58,76,2,1,1,67.0,False
15071,1295, Note_on_c,63,76,2,1,1,73.0,False
15072,1295, Note_on_c,66,76,2,1,1,77.0,False
15073,1296, Note_on_c,65,76,2,1,1,76.0,True
15074,1296, Note_on_c,68,76,2,1,1,79.0,False
15075,1297, Note_on_c,58,76,2,1,1,67.0,False
15076,1298, Note_on_c,63,76,2,1,1,73.0,False
15077,1298, Note_on_c,66,76,2,1,1,77.0,False
15078,1299, Note_on_c,65,76,2,1,1,76.0,True
15079,1299, Note_on_c,68,76,2,1,1,79.0,False
15080,1300, Note_on_c,63,76,2,1,1,73.0,False
15081,1300, Note_on_c,66,76,2,1,1,77.0,False
15082,1301, Note_on_c,65,76,2,1,1,76.0,True
15083,1301, Note_on_c,70,76,2,1,1,81.0,False
15084,1302, Note_on_c,58,76,2,1,1,67.0,False
15085,1303, Note_on_c,63,76,2,1,1,73.0,False
15086,1303, Note_on_c,66,76,2,1,1,77.0,False
15087,1304, Note_on_c,65,76,2,1,1,76.0,True
15088,1304, Note_on_c,68,76,2,1,1,79.0,False
15089,1305, Note_on_c,58,76,2,1,1,67.0,False
15090,1306, Note_on_c,63,76,2,1,1,73.0,False
15091,1306, Note_on_c,66,76,2,1,1,77.0,False
15092,1307, Note_on_c,65,76,2,1,1,76.0,True
15093,1307, Note_on_c,68,76,2,1,1,79.0,False
15094,1308, Note_on_c,63,76,2,1,1,73.0,False
15095,1308, Note_on_c,66,76,2,1,1,77.0,False
15096,1309, Note_on_c,65,76,2,1,1,76.0,True
15097,1309, Note_on_c,70,76,2,1,1,81.0,False
15098,1310, Note_on_c,58,76,2,1,1,67.0,False
15099,1311, Note_on_c,63,76,2,1,1,73.0,False
15100,1311, Note_on_c,66,76,2,1,1,77.0,False
15101,1312, Note_on_c,65,76,2,1,1,76.0,True
15102,1312, Note_on_c,68,76,2,1,1,79.0,False
15103,1313, Note_on_c,58,76,2,1,1,67.0,False
15104,1314, Note_on_c,63,76,2,1,1,73.0,False
15105,1314, Note_on_c,66,76,2,1,1,77.0,False
15106,1315, Note_on_c,65,76,2,1,1,76.0,True
15107,1315, Note_on_c,68,76,2,1,1,79.0,False
15108,1316, Note_on_c,63,76,2,1,1,73.0,False
15109,1316, Note_on_c,66,76,2,1,1,77.0,False
15110,1317, Note_on_c,65,76,2,1,1,76.0,True
15111,1317, Note_on_c,70,76,2,1,1,81.0,False
15112,1318, Note_on_c,58,76,2,1,1,67.0,False
15113,1319, Note_on_c,63,76,2,1,1,73.0,False
15114,1319, Note_on_c,66,76,2,1,1,77.0,False
15115,1320, Note_on_c,65,76,2,1,1,76.0,True
15116,1320, Note_on_c,68,76,2,1,1,79.0,False
15117,1321, Note_on_c,58,76,2,1,1,67.0,False
15118,1322, Note_on_c,63,76,2,1,1,73.0,False
15119,1322, Note_on_c,66,76,2,1,1,77.0,False
15120,1323, Note_on_c,65,76,2,1,1,76.0,True
15121,1323, Note_on_c,68,76,2,1,1,79.0,False
15122,1324, Note_on_c,63,76,2,1,1,73.0,False
15123,1324, Note_on_c,66,76,2,1,1,77.0,False
15124,1325, Note_on_c,65,76,2,1,1,76.0,True
15125,1325, Note_on_c,70,76,2,1,1,81.0,False
15126,1326, Note_on_c,58,76,2,1,1,67.0,False
15127,1327, Note_on_c,63,76,2,1,1,73.0,False
15128,1327, Note_on_c,66,76,2,1,1,77.0,False
15129,1328, Note_on_c,65,76,2,1,1,76.0,True
15130,1328, Note_on_c,68,76,2,1,1,79.0,False
15131,1329, Note_on_c,58,76,2,1,1,67.0,False
15132,1330, Note_on_c,63,76,2,1,1,73.0,False
15133,1330, Note_on_c,66,76,2,1,1,77.0,False
15134,1331, Note_on_c,65,76,2,1,1,76.0,True
15135,1331, Note_on_c,68,76,2,1,1,79.0,False
15136,1332, Note_on_c,63,76,2,1,1,73.0,False
15137,1332, Note_on_c,66,76,2,1,1,77.0,False
15138,1333, Note_on_c,65,76,2,1,1,76.0,True
15139,1333, Note_on_c,70,76,2,1,1,81.0,False
15140,1334, Note_on_c,58,76,2,1,1,67.0,False
15141,1335, Note_on_c,63,76,2,1,1,73.0,False
15142,1335, Note_on_c,66,76,2,1,1,77.0,False
15143,1336, Note_on_c,65,76,2,1,1,76.0,True
15144,1336, Note_on_c,68,76,2,1,1,79.0,False
15145,1337, Note_on_c,58,76,2,1,1,67.0,False
15146,1338, Note_on_c,63,76,2,1,1,73.0,False
15147,1338, Note_on_c,66,76,2,1,1,77.0,False
15148,1339, Note_on_c,65,76,2,1,1,76.0,True
15149,1339, Note_on_c,68,76,2,1,1,79.0,False
15150,1340, Note_on_c,63,76,2,1,1,73.0,False
15151,1340, Note_on_c,66,76,2,1,1,77.0,False
15152,1341, Note_on_c,65,76,2,1,1,76.0,True
15153,1341, Note_on_c,70,76,2,1,1,81.0,False
15154,1342, Note_on_c,58,76,2,1,1,67.0,False
15155,1343, Note_on_c,63,76,2,1,1,73.0,False
15156,1343, Note_on_c,66,76,2,1,1,77.0,False
15157,1344, Note_on_c,65,76,2,1,1,76.0,True
15158,1344, Note_on_c,68,76,2,1,1,79.0,False
15159,1345, Note_on_c,58,76,2,1,1,67.0,False
15160,1346, Note_on_c,63,76,2,1,1,73.0,False
15161,1346, Note_on_c,66,76,2,1,1,77.0,False
15162,1347, Note_on_c,65,76,2,1,1,76.0,True
15163,1347, Note_on_c,68,76,2,1,1,79.0,False
15164,1348, Note_on_c,63,76,2,1,1,73.0,False
15165,1348, Note_on_c,66,76,2,1,1,77.0,False
15166,1349, Note_on_c,65,76,2,1,1,76.0,True
15167,1349, Note_on_c,70,76,2,1,1,81.0,False
15168,1350, Note_on_c,58,76,2,1,1,67.0,False
15169,1351, Note_on_c,63,76,2,1,1,73.0,False
15170,1351, Note_on_c,66,76,2,1,1,77.0,False
15171,1352, Note_on_c,65,76,2,1,1,76.0,True
15172,1352, Note_on_c,68,76,2,1,1,79.0,False
15173,1353, Note_on_c,58,76,2,1,1,67.0,False
15174,1354, Note_on_c,63,76,2,1,1,73.0,False
15175,1354, Note_on_c,66,76,2,1,1,77.0,False
15176,1355, Note_on_c,65,76,2,1,1,76.0,True
15177,1355, Note_on_c,68,76,2,1,1,79.0,False
15178,1356, Note_on_c,63,76,2,1,1,73.0,False
15179,1356, Note_on_c,66,76,2,1,1,77.0,False
15180,1357, Note_on_c,65,76,2,1,1,76.0,True
15181,1357, Note_on_c,70,76,2,1,1,81.0,False
15182,1358, Note_on_c,58,76,2,1,1,67.0,False
15183,1359, Note_on_c,63,76,2,1,1,73.0,False
15184,1359, Note_on_c,66,76,2,1,1,77.0,False
15185,1360, Note_on_c,65,76,2,1,1,76.0,True
15186,1360, Note_on_c,68,76,2,1,1,79.0,False
15187,1361, Note_on_c,58,76,2,1,1,67.0,False
15188,1362, Note_on_c,63,76,2,1,1,73.0,False
15189,1362, Note_on_c,66,76,2,1,1,77.0,False
15190,1363, Note_on_c,65,76,2,1,1,76.0,True
15191,1363, Note_on_c,68,76,2,1,1,79.0,False
15192,1364, Note_on_c,63,76,2,1,1,73.0,False
15193,1364, Note_on_c,66,76,2,1,1,77.0,False
15194,1365, Note_on_c,65,76,2,1,1,76.0,True
15195,1365, Note_on_c,70,76,2,1,1,81.0,False
15196,1366, Note_on_c,58,76,2,1,1,67.0,False
15197,1367, Note_on_c,63,76,2,1,1,73.0,False
15198,1367, Note_on_c,66,76,2,1,1,77.0,False
15199,1368, Note_on_c,65,76,2,1,1,76.0,True
15200,1368, Note_on_c,68,76,2,1,1,79.0,False
15201,1369, Note_on_c,58,76,2,1,1,67.0,False
15202,1370, Note_on_c,63,76,2,1,1,73.0,False
15203,1370, Note_on_c,66,76,2,1,1,77.0,False
15204,1371, Note_on_c,65,76,2,1,1,76.0,True
15205,1371, Note_on_c,68,76,2,1,1,79.0,False
15206,1372, Note_on_c,63,76,2,1,1,73.0,False
15207,1372, Note_on_c,66,76,2,1,1,77.0,False
15208,1373, Note_on_c,65,76,2,1,1,76.0,True
15209,1373, Note_on_c,70,76,2,1,1,81.0,False
15210,1374, Note_on_c,58,76,2,1,1,67.0,False
15211,1375, Note_on_c,63,76,2,1,1,73.0,False
15212,1375, Note_on_c,66,76,2,1,1,77.0,False
15213,1376, Note_on_c,65,76,2,1,1,76.0,True
15214,1376, Note_on_c,68,76,2,1,1,79.0,False
15215,1377, Note_on_c,58,76,2,1,1,67.0,False
15216,1378, Note_on_c,63,76,2,1,1,73.0,False
15217,1378, Note_on_c,66,76,2,1,1,77.0,False
15218,1379, Note_on_c,65,76,2,1,1,76.0,True
15219,1379, Note_on_c,68,76,2,1,1,79.0,False
15220,1380, Note_on_c,63,76,2,1,1,73.0,False
15221,1380, Note_on_c,66,76,2,1,1,77.0,False
15222,1381, Note_on_c,65,76,2,1,1,76.0,True
15223,1381, Note_on_c,70,76,2,1,1,81.0,False
15224,1382, Note_on_c,58,76,2,1,1,67.0,False
15225,1383, Note_on_c,63,76,2,1,1,73.0,False
15226,1383, Note_on_c,66,76,2,1,1,77.0,False
15227,1384, Note_on_c,65,76,2,1,1,76.0,True
15228,1384, Note_on_c,68,76,2,1,1,79.0,False
15229,1385, Note_on_c,58,76,2,1,1,67.0,False
15230,1386, Note_on_c,63,76,2,1,1,73.0,False
15231,1386, Note_on_c,66,76,2,1,1,77.0,False
15232,1387, Note_on_c,65,76,2,1,1,76.0,True
15233,1387, Note_on_c,68,76,2,1,1,79.0,False
15234,1388, Note_on_c,63,76,2,1,1,73.0,False
15235,1388, Note_on_c,66,76,2,1,1,77.0,False
15236,1389, Note_on_c,65,76,2,1,1,76.0,True
15237,1389, Note_on_c,70,76,2,1,1,81.0,False
15238,1390, Note_on_c,58,76,2,1,1,67.0,False
15239,1391, Note_on_c,63,76,2,1,1,73.0,False
15240,1391, Note_on_c,66,76,2,1,1,77.0,False
15241,1392, Note_on_c,65,76,2,1,1,76.0,True
15242,1392, Note_on_c,68,76,2,1,1,79.0,False
15243,1393, Note_on_c,58,76,2,1,1,67.0,False
15244,1394, Note_on_c,63,76,2,1,1,73.0,False
15245,1394, Note_on_c,66,76,2,1,1,77.0,False
15246,1395, Note_on_c,65,76,2,1,1,76.0,True
15247,1395, Note_on_c,68,76,2,1,1,79.0,False
15248,1396, Note_on_c,63,76,2,1,1,73.0,False
15249,1396, Note_on_c,66,76,2,1,1,77.0,False
15250,1397, Note_on_c,65,76,2,1,1,76.0,True
15251,1397, Note_on_c,70,76,2,1,1,81.0,False
15252,1398, Note_on_c,58,76,2,1,1,67.0,False
15253,1399, Note_on_c,63,76,2,1,1,73.0,False
15254,1399, Note_on_c,66,76,2,1,1,77.0,False
15255,1400, Note_on_c,65,76,2,1,1,76.0,True
15256,1400, Note_on_c,68,76,2,1,1,79.0,False
15257,1401, Note_on_c,58,76,2,1,1,67.0,False
15258,1402, Note_on_c,63,76,2,1,1,73.0,False
15259,1402, Note_on_c,66,76,2,1,1,77.0,False
15260,1403, Note_on_c,65,76,2,1,1,76.0,True
15261,1403, Note_on_c,68,76,2,1,1,79.0,False
15262,1404, Note_on_c,63,76,2,1,1,73.0,False
15263,1404, Note_on_c,66,76,2,1,1,77.0,False
15264,1405, Note_on_c,65,76,2,1,1,76.0,True
15265,1405, Note_on_c,70,76,2,1,1,81.0,False
15266,1406, Note_on_c,58,76,2,1,1,67.0,False
15267,1407, Note_on_c,63,76,2,1,1,73.0,False
15268,1407, Note_on_c,66,76,2,1,1,77.0,False
15269,1408, Note_on_c,65,76,2,1,1,76.0,True
15270,1408, Note_on_c,68,76,2,1,1,79.0,False
15271,1409, Note_on_c,58,76,2,1,1,67.0,False
15272,1410, Note_on_c,63,76,2,1,1,73.0,False
15273,1410, Note_on_c,66,76,2,1,1,77.0,False
15274,1411, Note_on_c,65,76,2,1,1,76.0,True
15275,1411, Note_on_c,68,76,2,1,1,79.0,False
15276,1412, Note_on_c,63,76,2,1,1,73.0,False
15277,1412, Note_on_c,66,76,2,1,1,77.0,False
15278,1413, Note_on_c,65,76,2,1,1,76.0,True
15279,1413, Note_on_c,70,76,2,1,1,81.0,False
15280,1414, Note_on_c,58,76,2,1,1,67.0,False
15281,1415, Note_on_c,63,76,2,1,1,73.0,False
15282,1415, Note_on_c,66,76,2,1,1,77.0,False
15283,1416, Note_on_c,65,76,2,1,1,76.0,True
15284,1416, Note_on_c,68,76,2,1,1,79.0,False
15285,1417, Note_on_c,58,76,2,1,1,67.0,False
15286,1418, Note_on_c,63,76,2,1,1,73.0,False
15287,1418, Note_on_c,66,76,2,1,1,77.0,False
15288,1419, Note_on_c,65,76,2,1,1,76.0,True
15289,1419, Note_on_c,68,76,2,1,1,79.0,False
15290,1420, Note_on_c,63,76,2,1,1,73.0,False
15291,1420, Note_on_c,66,76,2,1,1,77.0,False
15292,1421, Note_on_c,65,76,2,1,1,76.0,True
15293,1421, Note_on_c,70,76,2,1,1,81.0,False
15294,1422, Note_on_c,58,76,2,1,1,67.0,False
15295,1423, Note_on_c,63,76,2,1,1,73.0,False
15296,1423, Note_on_c,66,76,2,1,1,77.0,False
15297,1424, Note_on_c,65,76,2,1,1,76.0,True
15298,1424, Note_on_c,68,76,2,1,1,79.0,False
15299,1425, Note_on_c,58,76,2,1,1,67.0,False
15300,1426, Note_on_c,63,76,2,1,1,73.0,False
15301,1426, Note_on_c,66,76,2,1,1,77.0,False
15302,1427, Note_on_c,65,76,2,1,1,76.0,True
15303,1427, Note_on_c,68,76,2,1,1,79.0,False
15304,1428, Note_on_c,63,76,2,1,1,73.0,False
15305,1428, Note_on_c,66,76,2,1,1,77.0,False
15306,1429, Note_on_c,65,76,2,1,1,76.0,True
15307,1429, Note_on_c,70,76,2,1,1,81.0,False
15308,1430, Note_on_c,58,76,2,1,1,67.0,False
15309,1431, Note_on_c,63,76,2,1,1,73.0,False
15310,1431, Note_on_c,66,76,2,1,1,77.0,False
15311,1432, Note_on_c,65,76,2,1,1,76.0,True
15312,1432, Note_on_c,68,76,2,1,1,79.0,False
15313,1433, Note_on_c,58,76,2,1,1,67.0,False
15314,1434, Note_on_c,63,76,2,1,1,73.0,False
15315,1434, Note_on_c,66,76,2,1,1,77.0,False
15316,1435, Note_on_c,65,76,2,1,1,76.0,True
15317,1435, Note_on_c,68,76,2,1,1,79.0,False
15318,1436, Note_on_c,63,76,2,1,1,73.0,False
15319,1436, Note_on_c,66,76,2,1,1,77.0,False
15320,1437, Note_on_c,65,76,2,1,1,76.0,True
15321,1437, Note_on_c,70,76,2,1,1,81.0,False
15322,1438, Note_on_c,58,76,2,1,1,67.0,False
15323,1439, Note_on_c,63,76,2,1,1,73.0,False
15324,1439, Note_on_c,66,76,2,1,1,77.0,False
15325,1440, Note_on_c,65,76,2,1,1,76.0,True
15326,1440, Note_on_c,68,76,2,1,1,79.0,False
15327,1441, Note_on_c,58,76,2,1,1,67.0,False
15328,1442, Note_on_c,63,76,2,1,1,73.0,False
15329,1442, Note_on_c,66,76,2,1,1,77.0,False
15330,1443, Note_on_c,65,76,2,1,1,76.0,True
15331,1443, Note_on_c,68,76,2,1,1,79.0,False
15332,1444, Note_on_c,63,76,2,1,1,73.0,False
15333,1444, Note_on_c,66,76,2,1,1,77.0,False
15334,1445, Note_on_c,65,76,2,1,1,76.0,True
15335,1445, Note_on_c,70,76,2,1,1,81.0,False
15336,1446, Note_on_c,58,76,2,1,1,67.0,False
15337,1447, Note_on_c,63,76,2,1,1,73.0,False
15338,1447, Note_on_c,66,76,2,1,1,77.0,False
15339,1448, Note_on_c,65,76,2,1,1,76.0,True
15340,1448, Note_on_c,68,76,2,1,1,79.0,False
15341,1449, Note_on_c,58,76,2,1,1,67.0,False
15342,1450, Note_on_c,63,76,2,1,1,73.0,False
15343,1450, Note_on_c,66,76,2,1,1,77.0,False
15344,1451, Note_on_c,65,76,2,1,1,76.0,True
15345,1451, Note_on_c,68,76,2,1,1,79.0,False
15346,1452, Note_on_c,63,76,2,1,1,73.0,False
15347,1452, Note_on_c,66,76,2,1,1,77.0,False
15348,1453, Note_on_c,65,76,2,1,1,76.0,True
15349,1453, Note_on_c,70,76,2,1,1,81.0,False
15350,1454, Note_on_c,58,76,2,1,1,67.0,False
15351,1455, Note_on_c,63,76,2,1,1,73.0,False
15352,1455, Note_on_c,66,76,2,1,1,77.0,False
15353,1456, Note_on_c,65,76,2,1,1,76.0,True
15354,1456, Note_on_c,68,76,2,1,1,79.0,False
15355,1457, Note_on_c,58,76,2,1,1,67.0,False
15356,1458, Note_on_c,63,76,2,1,1,73.0,False
15357,1458, Note_on_c,66,76,2,1,1,77.0,False
15358,1459, Note_on_c,65,76,2,1,1,76.0,True
15359,1459, Note_on_c,68,76,2,1,1,79.0,False
15360,1460, Note_on_c,63,76,2,1,1,73.0,False
15361,1460, Note_on_c,66,76,2,1,1,77.0,False
15362,1461, Note_on_c,65,76,2,1,1,76.0,True
15363,1461, Note_on_c,70,76,2,1,1,81.0,False
15364,1462, Note_on_c,58,76,2,1,1,67.0,False
15365,1463, Note_on_c,63,76,2,1,1,73.0,False
15366,1463, Note_on_c,66,76,2,1,1,77.0,False
15367,1464, Note_on_c,65,76,2,1,1,76.0,True
15368,1464, Note_on_c,68,76,2,1,1,79.0,False
15369,1465, Note_on_c,58,76,2,1,1,67.0,False
15370,1466, Note_on_c,63,76,2,1,1,73.0,False
15371,1466, Note_on_c,66,76,2,1,1,77.0,False
15372,1467, Note_on_c,65,76,2,1,1,76.0,True
15373,1467, Note_on_c,68,76,2,1,1,79.0,False
15374,1468, Note_on_c,63,76,2,1,1,73.0,False
15375,1468, Note_on_c,66,76,2,1,1,77.0,False
15376,1469, Note_on_c,65,76,2,1,1,76.0,True
15377,1469, Note_on_c,70,76,2,1,1,81.0,False
15378,1470, Note_on_c,58,76,2,1,1,67.0,False
15379,1471, Note_on_c,63,76,2,1,1,73.0,False
15380,1471, Note_on_c,66,76,2,1,1,77.0,False
15381,1472, Note_on_c,65,76,2,1,1,76.0,True
15382,1472, Note_on_c,68,76,2,1,1,79.0,False
15383,1473, Note_on_c,58,76,2,1,1,67.0,False
15384,1474, Note_on_c,63,76,2,1,1,73.0,False
15385,1474, Note_on_c,66,76,2,1,1,77.0,False
15386,1475, Note_on_c,65,76,2,1,1,76.0,True
15387,1475, Note_on_c,68,76,2,1,1,79.0,False
15388,1476, Note_on_c,63,76,2,1,1,73.0,False
15389,1476, Note_on_c,66,76,2,1,1,77.0,False
15390,1477, Note_on_c,65,76,2,1,1,76.0,True
15391,1477, Note_on_c,70,76,2,1,1,81.0,False
15392,1478, Note_on_c,58,76,2,1,1,67.0,False
15393,1479, Note_on_c,63,76,2,1,1,73.0,False
15394,1479, Note_on_c,66,76,2,1,1,77.0,False
15395,1480, Note_on_c,65,76,2,1,1,76.0,True
15396,1480, Note_on_c,68,76,2,1,1,79.0,False
15397,1481, Note_on_c,58,76,2,1,1,67.0,False
15398,1482, Note_on_c,63,76,2,1,1,73.0,False
15399,1482, Note_on_c,66,76,2,1,1,77.0,False
15400,1483, Note_on_c,65,76,2,1,1,76.0,True
15401,1483, Note_on_c,68,76,2,1,1,79.0,False
15402,1484, Note_on_c,63,76,2,1,1,73.0,False
15403,1484, Note_on_c,66,76,2,1,1,77.0,False
15404,1485, Note_on_c,65,76,2,1,1,76.0,True
15405,1485, Note_on_c,70,76,2,1,1,81.0,False
15406,1486, Note_on_c,58,76,2,1,1,67.0,False
15407,1487, Note_on_c,63,76,2,1,1,73.0,False
15408,1487, Note_on_c,66,76,2,1,1,77.0,False
15409,1488, Note_on_c,65,76,2,1,1,76.0,True
15410,1488, Note_on_c,68,76,2,1,1,79.0,False
15411,1489, Note_on_c,58,76,2,1,1,67.0,False
15412,1490, Note_on_c,63,76,2,1,1,73.0,False
15413,1490, Note_on_c,66,76,2,1,1,77.0,False
15414,1491, Note_on_c,65,76,2,1,1,76.0,True
15415,1491, Note_on_c,68,76,2,1,1,79.0,False
15416,1492, Note_on_c,63,76,2,1,1,73.0,False
15417,1492, Note_on_c,66,76,2,1,1,77.0,False
15418,1493, Note_on_c,65,76,2,1,1,76.0,True
15419,1493, Note_on_c,70,76,2,1,1,81.0,False
15420,1494, Note_on_c,58,76,2,1,1,67.0,False
15421,1495, Note_on_c,63,76,2,1,1,73.0,False
15422,1495, Note_on_c,66,76,2,1,1,77.0,False
15423,1496, Note_on_c,65,76,2,1,1,76.0,True
15424,1496, Note_on_c,68,76,2,1,1,79.0,False
15425,1497, Note_on_c,58,76,2,1,1,67.0,False
15426,1498, Note_on_c,63,76,2,1,1,73.0,False
15427,1498, Note_on_c,66,76,2,1,1,77.0,False
15428,1499, Note_on_c,65,76,2,1,1,76.0,True
15429,1499, Note_on_c,68,76,2,1,1,79.0,False
15430,1500, Note_on_c,63,76,2,1,1,73.0,False
15431,1500, Note_on_c,66,76,2,1,1,77.0,False
15432,1501, Note_on_c,65,76,2,1,1,76.0,True
15433,1501, Note_on_c,70,76,2,1,1,81.0,False
15434,1502, Note_on_c,58,76,2,1,1,67.0,False
15435,1503, Note_on_c,63,76,2,1,1,73.0,False
15436,1503, Note_on_c,66,76,2,1,1,77.0,False
15437,1504, Note_on_c,65,76,2,1,1,76.0,True
15438,1504, Note_on_c,68,76,2,1,1,79.0,False
15439,1505, Note_on_c,58,76,2,1,1,67.0,False
15440,1506, Note_on_c,63,76,2,1,1,73.0,False
15441,1506, Note_on_c,66,76,2,1,1,77.0,False
15442,1507, Note_on_c,65,76,2,1,1,76.0,True
15443,1507, Note_on_c,68,76,2,1,1,79.0,False
15444,1508, Note_on_c,63,76,2,1,1,73.0,False
15445,1508, Note_on_c,66,76,2,1,1,77.0,False
15446,1509, Note_on_c,65,76,2,1,1,76.0,True
15447,1509, Note_on_c,70,76,2,1,1,81.0,False
15448,1510, Note_on_c,58,76,2,1,1,67.0,False
15449,1511, Note_on_c,63,76,2,1,1,73.0,False
15450,1511, Note_on_c,66,76,2,1,1,77.0,False
15451,1512, Note_on_c,65,76,2,1,1,76.0,True
15452,1512, Note_on_c,68,76,2,1,1,79.0,False
15453,1513, Note_on_c,58,76,2,1,1,67.0,False
15454,1514, Note_on_c,63,76,2,1,1,73.0,False
15455,1514, Note_on_c,66,76,2,1,1,77.0,False
15456,1515, Note_on_c,65,76,2,1,1,76.0,True
15457,1515, Note_on_c,68,76,2,1,1,79.0,False
15458,1516, Note_on_c,63,76,2,1,1,73.0,False
15459,1516, Note_on_c,66,76,2,1,1,77.0,False
15460,1517, Note_on_c,65,76,2,1,1,76.0,True
15461,1517, Note_on_c,70,76,2,1,1,81.0,False
15462,1518, Note_on_c,58,76,2,1,1,67.0,False
15463,1519, Note_on_c,63,76,2,1,1,73.0,False
15464,1519, Note_on_c,66,76,2,1,1,77.0,False
15465,1520, Note_on_c,65,76,2,1,1,76.0,True
15466,1520, Note_on_c,68,76,2,1,1,79.0,False
15467,1521, Note_on_c,58,76,2,1,1,67.0,False
15468,1522, Note_on_c,63,76,2,1,1,73.0,False
15469,1522, Note_on_c,66,76,2,1,1,77.0,False
15470,1523, Note_on_c,65,76,2,1,1,76.0,True
15471,1523, Note_on_c,68,76,2,1,1,79.0,False
15472,1524, Note_on_c,63,76,2,1,1,73.0,False
15473,1524, Note_on_c,66,76,2,1,1,77.0,False
15474,1525, Note_on_c,65,76,2,1,1,76.0,True
15475,1525, Note_on_c,70,76,2,1,1,81.0,False
15476,1526, Note_on_c,58,76,2,1,1,67.0,False
15477,1527, Note_on_c,63,76,2,1,1,73.0,False
15478,1527, Note_on_c,66,76,2,1,1,77.0,False
15479,1528, Note_on_c,65,76,2,1,1,76.0,True
15480,1528, Note_on_c,68,76,2,1,1,79.0,False
15481,1529, Note_on_c,58,76,2,1,1,67.0,False
15482,1530, Note_on_c,63,76,2,1,1,73.0,False
15483,1530, Note_on_c,66,76,2,1,1,77.0,False
15484,1531, Note_on_c,65,76,2,1,1,76.0,True
15485,1531, Note_on_c,68,76,2,1,1,79.0,False
15486,1532, Note_on_c,63,76,2,1,1,73.0,False
15487,1532, Note_on_c,66,76,2,1,1,77.0,False
15488,1533, Note_on_c,65,76,2,1,1,76.0,True
15489,1533, Note_on_c,70,76,2,1,1,81.0,False
15490,1534, Note_on_c,58,76,2,1,1,67.0,False
15491,1535, Note_on_c,63,76,2,1,1,73.0,False
15492,1535, Note_on_c,66,76,2,1,1,77.0,False
15493,1536, Note_on_c,65,76,2,1,1,76.0,True
15494,1536, Note_on_c,68,76,2,1,1,79.0,False
15495,1537, Note_on_c,58,76,2,1,1,67.0,False
15496,1538, Note_on_c,63,76,2,1,1,73.0,False
15497,1538, Note_on_c,66,76,2,1,1,77.0,False
15498,1539, Note_on_c,65,76,2,1,1,76.0,True
15499,1539, Note_on_c,68,76,2,1,1,79.0,False
15500,1540, Note_on_c,63,76,2,1,1,73.0,False
15501,1540, Note_on_c,66,76,2,1,1,77.0,False
15502,1541, Note_on_c,65,76,2,1,1,76.0,True
15503,1541, Note_on_c,70,76,2,1,1,81.0,False
15504,1542, Note_on_c,58,76,2,1,1,67.0,False
15505,1543, Note_on_c,63,76,2,1,1,73.0,False
15506,1543, Note_on_c,66,76,2,1,1,77.0,False
15507,1544, Note_on_c,65,76,2,1,1,76.0,True
15508,1544, Note_on_c,68,76,2,1,1,79.0,False
15509,1545, Note_on_c,58,76,2,1,1,67.0,False
15510,1546, Note_on_c,63,76,2,1,1,73.0,False
15511,1546, Note_on_c,66,76,2,1,1,77.0,False
15512,1547, Note_on_c,65,76,2,1,1,76.0,True
15513,1547, Note_on_c,68,76,2,1,1,79.0,False
15514,1548, Note_on_c,63,76,2,1,1,73.0,False
15515,1548, Note_on_c,66,76,2,1,1,77.0,False
15516,1549, Note_on_c,65,76,2,1,1,76.0,True
15517,1549, Note_on_c,70,76,2,1,1,81.0,False
15518,1550, Note_on_c,58,76,2,1,1,67.0,False
15519,1551, Note_on_c,63,76,2,1,1,73.0,False
15520,1551, Note_on_c,66,76,2,1,1,77.0,False
15521,1552, Note_on_c,65,76,2,1,1,76.0,True
15522,1552, Note_on_c,68,76,2,1,1,79.0,False
15523,1553, Note_on_c,58,76,2,1,1,67.0,False
15524,1554, Note_on_c,63,76,2,1,1,73.0,False
15525,1554, Note_on_c,66,76,2,1,1,77.0,False
15526,1555, Note_on_c,65,76,2,1,1,76.0,True
15527,1555, Note_on_c,68,76,2,1,1,79.0,False
15528,1556, Note_on_c,63,76,2,1,1,73.0,False
15529,1556, Note_on_c,66,76,2,1,1,77.0,False
15530,1557, Note_on_c,65,76,2,1,1,76.0,True
15531,1557, Note_on_c,70,76,2,1,1,81.0,False
15532,1558, Note_on_c,58,76,2,1,1,67.0,False
15533,1559, Note_on_c,63,76,2,1,1,73.0,False
15534,1559, Note_on_c,66,76,2,1,1,77.0,False
15535,1560, Note_on_c,65,76,2,1,1,76.0,True
15536,1560, Note_on_c,68,76,2,1,1,79.0,False
15537,1561, Note_on_c,58,76,2,1,1,67.0,False
15538,1562, Note_on_c,63,76,2,1,1,73.0,False
15539,1562, Note_on_c,66,76,2,1,1,77.0,False
15540,1563, Note_on_c,65,76,2,1,1,76.0,True
15541,1563, Note_on_c,68,76,2,1,1,79.0,False
15542,1564, Note_on_c,63,76,2,1,1,73.0,False
15543,1564, Note_on_c,66,76,2,1,1,77.0,False
15544,1565, Note_on_c,65,76,2,1,1,76.0,True
15545,1565, Note_on_c,70,76,2,1,1,81.0,False
15546,1566, Note_on_c,58,76,2,1,1,67.0,False
15547,1567, Note_on_c,63,76,2,1,1,73.0,False
15548,1567, Note_on_c,66,76,2,1,1,77.0,False
15549,1568, Note_on_c,65,76,2,1,1,76.0,True
15550,1568, Note_on_c,68,76,2,1,1,79.0,False
15551,1569, Note_on_c,58,76,2,1,1,67.0,False
15552,1570, Note_on_c,63,76,2,1,1,73.0,False
15553,1570, Note_on_c,66,76,2,1,1,77.0,False
15554,1571, Note_on_c,65,76,2,1,1,76.0,True
15555,1571, Note_on_c,68,76,2,1,1,79.0,False
15556,1572, Note_on_c,63,76,2,1,1,73.0,False
15557,1572, Note_on_c,66,76,2,1,1,77.0,False
15558,1573, Note_on_c,65,76,2,1,1,76.0,True
15559,1573, Note_on_c,70,76,2,1,1,81.0,False
15560,1574, Note_on_c,58,76,2,1,1,67.0,False
15561,1575, Note_on_c,63,76,2,1,1,73.0,False
15562,1575, Note_on_c,66,76,2,1,1,77.0,False
15563,1576, Note_on_c,65,76,2,1,1,76.0,True
15564,1576, Note_on_c,68,76,2,1,1,79.0,False
15565,1577, Note_on_c,58,76,2,1,1,67.0,False
15566,1578, Note_on_c,63,76,2,1,1,73.0,False
15567,1578, Note_on_c,66,76,2,1,1,77.0,False
15568,1579, Note_on_c,65,76,2,1,1,76.0,True
15569,1579, Note_on_c,68,76,2,1,1,79.0,False
15570,1580, Note_on_c,63,76,2,1,1,73.0,False
15571,1580, Note_on_c,66,76,2,1,1,77.0,False
15572,1581, Note_on_c,65,76,2,1,1,76.0,True
15573,1581, Note_on_c,70,76,2,1,1,81.0,False
15574,1582, Note_on_c,58,76,2,1,1,67.0,False
15575,1583, Note_on_c,63,76,2,1,1,73.0,False
15576,1583, Note_on_c,66,76,2,1,1,77.0,False
15577,1584, Note_on_c,65,76,2,1,1,76.0,True
15578,1584, Note_on_c,68,76,2,1,1,79.0,False
15579,1585, Note_on_c,58,76,2,1,1,67.0,False
15580,1586, Note_on_c,63,76,2,1,1,73.0,False
15581,1586, Note_on_c,66,76,2,1,1,77.0,False
15582,1587, Note_on_c,65,76,2,1,1,76.0,True
15583,1587, Note_on_c,68,76,2,1,1,79.0,False
15584,1588, Note_on_c,63,76,2,1,1,73.0,False
15585,1588, Note_on_c,66,76,2,1,1,77.0,False
15586,1589, Note_on_c,65,76,2,1,1,76.0,True
15587,1589, Note_on_c,70,76,2,1,1,81.0,False
15588,1590, Note_on_c,58,76,2,1,1,67.0,False
15589,1591, Note_on_c,63,76,2,1,1,73.0,False
15590,1591, Note_on_c,66,76,2,1,1,77.0,False
15591,1592, Note_on_c,65,76,2,1,1,76.0,True
15592,1592, Note_on_c,68,76,2,1,1,79.0,False
15593,1593, Note_on_c,58,76,2,1,1,67.0,False
15594,1594, Note_on_c,63,76,2,1,1,73.0,False
15595,1594, Note_on_c,66,76,2,1,1,77.0,False
15596,1595, Note_on_c,65,76,2,1,1,76.0,True
15597,1595, Note_on_c,68,76,2,1,1,79.0,False
15598,1596, Note_on_c,63,76,2,1,1,73.0,False
15599,1596, Note_on_c,66,76,2,1,1,77.0,False
15600,1597, Note_on_c,65,76,2,1,1,76.0,True
15601,1597, Note_on_c,70,76,2,1,1,81.0,False
15602,1598, Note_on_c,58,76,2,1,1,67.0,False
15603,1599, Note_on_c,63,76,2,1,1,73.0,False
15604,1599, Note_on_c,66,76,2,1,1,77.0,False
15605,1600, Note_on_c,65,76,2,1,1,76.0,True
15606,1600, Note_on_c,68,76,2,1,1,79.0,False
15607,1601, Note_on_c,58,76,2,1,1,67.0,False
15608,1602, Note_on_c,63,76,2,1,1,73.0,False
15609,1602, Note_on_c,66,76,2,1,1,77.0,False
15610,1603, Note_on_c,65,76,2,1,1,76.0,True
15611,1603, Note_on_c,68,76,2,1,1,79.0,False
15612,1604, Note_on_c,63,76,2,1,1,73.0,False
15613,1604, Note_on_c,66,76,2,1,1,77.0,False
15614,1605, Note_on_c,65,76,2,1,1,76.0,True
15615,1605, Note_on_c,70,76,2,1,1,81.0,False
15616,1606, Note_on_c,58,76,2,1,1,67.0,False
15617,1607, Note_on_c,63,76,2,1,1,73.0,False
15618,1607, Note_on_c,66,76,2,1,1,77.0,False
15619,1608, Note_on_c,65,76,2,1,1,76.0,True
15620,1608, Note_on_c,68,76,2,1,1,79.0,False
15621,1609, Note_on_c,58,76,2,1,1,67.0,False
15622,1610, Note_on_c,63,76,2,1,1,73.0,False
15623,1610, Note_on_c,66,76,2,1,1,77.0,False
15624,1611, Note_on_c,65,76,2,1,1,76.0,True
15625,1611, Note_on_c,68,76,2,1,1,79.0,False
15626,1612, Note_on_c,63,76,2,1,1,73.0,False
15627,1612, Note_on_c,66,76,2,1,1,77.0,False
15628,1613, Note_on_c,65,76,2,1,1,76.0,True
15629,1613, Note_on_c,70,76,2,1,1,81.0,False
15630,1614, Note_on_c,58,76,2,1,1,67.0,False
15631,1615, Note_on_c,63,76,2,1,1,73.0,False
15632,1615, Note_on_c,66,76,2,1,1,77.0,False
15633,1616, Note_on_c,65,76,2,1,1,76.0,True
15634,1616, Note_on_c,68,76,2,1,1,79.0,False
15635,1617, Note_on_c,58,76,2,1,1,67.0,False
15636,1618, Note_on_c,63,76,2,1,1,73.0,False
15637,1618, Note_on_c,66,76,2,1,1,77.0,False
15638,1619, Note_on_c,65,76,2,1,1,76.0,True
15639,1619, Note_on_c,68,76,2,1,1,79.0,False
15640,1620, Note_on_c,63,76,2,1,1,73.0,False
15641,1620, Note_on_c,66,76,2,1,1,77.0,False
15642,1621, Note_on_c,65,76,2,1,1,76.0,True
15643,1621, Note_on_c,70,76,2,1,1,81.0,False
15644,1622, Note_on_c,58,76,2,1,1,67.0,False
15645,1623, Note_on_c,63,76,2,1,1,73.0,False
15646,1623, Note_on_c,66,76,2,1,1,77.0,False
15647,1624, Note_on_c,65,76,2,1,1,76.0,True
15648,1624, Note_on_c,68,76,2,1,1,79.0,False
15649,1625, Note_on_c,58,76,2,1,1,67.0,False
15650,1626, Note_on_c,63,76,2,1,1,73.0,False
15651,1626, Note_on_c,66,76,2,1,1,77.0,False
15652,1627, Note_on_c,65,76,2,1,1,76.0,True
15653,1627, Note_on_c,68,76,2,1,1,79.0,False
15654,1628, Note_on_c,63,76,2,1,1,73.0,False
15655,1628, Note_on_c,66,76,2,1,1,77.0,False
15656,1629, Note_on_c,65,76,2,1,1,76.0,True
15657,1629, Note_on_c,70,76,2,1,1,81.0,False
15658,1630, Note_on_c,58,76,2,1,1,67.0,False
15659,1631, Note_on_c,63,76,2,1,1,73.0,False
15660,1631, Note_on_c,66,76,2,1,1,77.0,False
15661,1632, Note_on_c,65,76,2,1,1,76.0,True
15662,1632, Note_on_c,68,76,2,1,1,79.0,False
15663,1633, Note_on_c,58,76,2,1,1,67.0,False
15664,1634, Note_on_c,63,76,2,1,1,73.0,False
15665,1634, Note_on_c,66,76,2,1,1,77.0,False
15666,1635, Note_on_c,65,76,2,1,1,76.0,True
15667,1635, Note_on_c,68,76,2,1,1,79.0,False
15668,1636, Note_on_c,63,76,2,1,1,73.0,False
15669,1636, Note_on_c,66,76,2,1,1,77.0,False
15670,1637, Note_on_c,65,76,2,1,1,76.0,True
15671,1637, Note_on_c,70,76,2,1,1,81.0,False
15672,1638, Note_on_c,58,76,2,1,1,67.0,False
15673,1639, Note_on_c,63,76,2,1,1,73.0,False
15674,1639, Note_on_c,66,76,2,1,1,77.0,False
15675,1640, Note_on_c,65,76,2,1,1,76.0,True
15676,1640, Note_on_c,68,76,2,1,1,79.0,False
15677,1641, Note_on_c,58,76,2,1,1,67.0,False
15678,1642, Note_on_c,63,76,2,1,1,73.0,False
15679,1642, Note_on_c,66,76,2,1,1,77.0,False
15680,1643, Note_on_c,65,76,2,1,1,76.0,True
15681,1643, Note_on_c,68,76,2,1,1,79.0,False
15682,1644, Note_on_c,63,76,2,1,1,73.0,False
15683,1644, Note_on_c,66,76,2,1,1,77.0,False
15684,1645, Note_on_c,65,76,2,1,1,76.0,True
15685,1645, Note_on_c,70,76,2,1,1,81.0,False
15686,1646, Note_on_c,58,76,2,1,1,67.0,False
15687,1647, Note_on_c,63,76,2,1,1,73.0,False
15688,1647, Note_on_c,66,76,2,1,1,77.0,False
15689,1648, Note_on_c,65,76,2,1,1,76.0,True
15690,1648, Note_on_c,68,76,2,1,1,79.0,False
15691,1649, Note_on_c,58,76,2,1,1,67.0,False
15692,1650, Note_on_c,63,76,2,1,1,73.0,False
15693,1650, Note_on_c,66,76,2,1,1,77.0,False
15694,1651, Note_on_c,65,76,2,1,1,76.0,True
15695,1651, Note_on_c,68,76,2,1,1,79.0,False
15696,1652, Note_on_c,63,76,2,1,1,73.0,False
15697,1652, Note_on_c,66,76,2,1,1,77.0,False
15698,1653, Note_on_c,65,76,2,1,1,76.0,True
15699,1653, Note_on_c,70,76,2,1,1,81.0,False
15700,1654, Note_on_c,58,76,2,1,1,67.0,False
15701,1655, Note_on_c,63,76,2,1,1,73.0,False
15702,1655, Note_on_c,66,76,2,1,1,77.0,False
15703,1656, Note_on_c,65,76,2,1,1,76.0,True
15704,1656, Note_on_c,68,76,2,1,1,79.0,False
15705,1657, Note_on_c,58,76,2,1,1,67.0,False
15706,1658, Note_on_c,63,76,2,1,1,73.0,False
15707,1658, Note_on_c,66,76,2,1,1,77.0,False
15708,1659, Note_on_c,65,76,2,1,1,76.0,True
15709,1659, Note_on_c,68,76,2,1,1,79.0,False
15710,1660, Note_on_c,63,76,2,1,1,73.0,False
15711,1660, Note_on_c,66,76,2,1,1,77.0,False
15712,1661, Note_on_c,65,76,2,1,1,76.0,True
15713,1661, Note_on_c,70,76,2,1,1,81.0,False
15714,1662, Note_on_c,58,76,2,1,1,67.0,False
15715,1663, Note_on_c,63,76,2,1,1,73.0,False
15716,1663, Note_on_c,66,76,2,1,1,77.0,False
15717,1664, Note_on_c,65,76,2,1,1,76.0,True
15718,1664, Note_on_c,68,76,2,1,1,79.0,False
15719,1665, Note_on_c,58,76,2,1,1,67.0,False
15720,1666, Note_on_c,63,76,2,1,1,73.0,False
15721,1666, Note_on_c,66,76,2,1,1,77.0,False
15722,1667, Note_on_c,65,76,2,1,1,76.0,True
15723,1667, Note_on_c,68,76,2,1,1,79.0,False
15724,1668, Note_on_c,63,76,2,1,1,73.0,False
15725,1668, Note_on_c,66,76,2,1,1,77.0,False
15726,1669, Note_on_c,65,76,2,1,1,76.0,True
15727,1669, Note_on_c,70,76,2,1,1,81.0,False
15728,1670, Note_on_c,58,76,2,1,1,67.0,False
15729,1671, Note_on_c,63,76,2,1,1,73.0,False
15730,1671, Note_on_c,66,76,2,1,1,77.0,False
15731,1672, Note_on_c,65,76,2,1,1,76.0,True
15732,1672, Note_on_c,68,76,2,1,1,79.0,False
15733,1673, Note_on_c,58,76,2,1,1,67.0,False
15734,1674, Note_on_c,63,76,2,1,1,73.0,False
15735,1674, Note_on_c,66,76,2,1,1,77.0,False
15736,1675, Note_on_c,65,76,2,1,1,76.0,True
15737,1675, Note_on_c,68,76,2,1,1,79.0,False
15738,1676, Note_on_c,63,76,2,1,1,73.0,False
15739,1676, Note_on_c,66,76,2,1,1,77.0,False
15740,1677, Note_on_c,65,76,2,1,1,76.0,True
15741,1677, Note_on_c,70,76,2,1,1,81.0,False
15742,1678, Note_on_c,58,76,2,1,1,67.0,False
15743,1679, Note_on_c,63,76,2,1,1,73.0,False
15744,1679, Note_on_c,66,76,2,1,1,77.0,False
15745,1680, Note_on_c,65,76,2,1,1,76.0,True
15746,1680, Note_on_c,68,76,2,1,1,79.0,False
15747,1681, Note_on_c,58,76,2,1,1,67.0,False
15748,1682, Note_on_c,63,76,2,1,1,73.0,False
15749,1682, Note_on_c,66,76,2,1,1,77.0,False
15750,1683, Note_on_c,65,76,2,1,1,76.0,True
15751,1683, Note_on_c,68,76,2,1,1,79.0,False
15752,1684, Note_on_c,63,76,2,1,1,73.0,False
15753,1684, Note_on_c,66,76,2,1,1,77.0,False
15754,1685, Note_on_c,65,76,2,1,1,76.0,True
15755,1685, Note_on_c,70,76,2,1,1,81.0,False
15756,1686, Note_on_c,58,76,2,1,1,67.0,False
15757,1687, Note_on_c,63,76,2,1,1,73.0,False
15758,1687, Note_on_c,66,76,2,1,1,77.0,False
15759,1688, Note_on_c,65,76,2,1,1,76.0,True
15760,1688, Note_on_c,68,76,2,1,1,79.0,False
15761,1689, Note_on_c,58,76,2,1,1,67.0,False
15762,1690, Note_on_c,63,76,2,1,1,73.0,False
15763,1690, Note_on_c,66,76,2,1,1,77.0,False
15764,1691, Note_on_c,65,76,2,1,1,76.0,True
15765,1691, Note_on_c,68,76,2,1,1,79.0,False
15766,1692, Note_on_c,63,76,2,1,1,73.0,False
15767,1692, Note_on_c,66,76,2,1,1,77.0,False
15768,1693, Note_on_c,65,76,2,1,1,76.0,True
15769,1693, Note_on_c,70,76,2,1,1,81.0,False
15770,1694, Note_on_c,58,76,2,1,1,67.0,False
15771,1695, Note_on_c,63,76,2,1,1,73.0,False
15772,1695, Note_on_c,66,76,2,1,1,77.0,False
15773,1696, Note_on_c,65,76,2,1,1,76.0,True
15774,1696, Note_on_c,68,76,2,1,1,79.0,False
15775,1697, Note_on_c,58,76,2,1,1,67.0,False
15776,1698, Note_on_c,63,76,2,1,1,73.0,False
15777,1698, Note_on_c,66,76,2,1,1,77.0,False
15778,1699, Note_on_c,65,76,2,1,1,76.0,True
15779,1699, Note_on_c,68,76,2,1,1,79.0,False
15780,1700, Note_on_c,63,76,2,1,1,73.0,False
15781,1700, Note_on_c,66,76,2,1,1,77.0,False
15782,1701, Note_on_c,65,76,2,1,1,76.0,True
15783,1701, Note_on_c,70,76,2,1,1,81.0,False
15784,1702, Note_on_c,58,76,2,1,1,67.0,False
15785,1703, Note_on_c,63,76,2,1,1,73.0,False
15786,1703, Note_on_c,66,76,2,1,1,77.0,False
15787,1704, Note_on_c,65,76,2,1,1,76.0,True
15788,1704, Note_on_c,68,76,2,1,1,79.0,False
15789,1705, Note_on_c,58,76,2,1,1,67.0,False
15790,1706, Note_on_c,63,76,2,1,1,73.0,False
15791,1706, Note_on_c,66,76,2,1,1,77.0,False
15792,1707, Note_on_c,65,76,2,1,1,76.0,True
15793,1707, Note_on_c,68,76,2,1,1,79.0,False
15794,1708, Note_on_c,63,76,2,1,1,73.0,False
15795,1708, Note_on_c,66,76,2,1,1,77.0,False
15796,1709, Note_on_c,65,76,2,1,1,76.0,True
15797,1709, Note_on_c,70,76,2,1,1,81.0,False
15798,1710, Note_on_c,58,76,2,1,1,67.0,False
15799,1711, Note_on_c,63,76,2,1,1,73.0,False
15800,1711, Note_on_c,66,76,2,1,1,77.0,False
15801,1712, Note_on_c,65,76,2,1,1,76.0,True
15802,1712, Note_on_c,68,76,2,1,1,79.0,False
15803,1713, Note_on_c,58,76,2,1,1,67.0,False
15804,1714, Note_on_c,63,76,2,1,1,73.0,False
15805,1714, Note_on_c,66,76,2,1,1,77.0,False
15806,1715, Note_on_c,65,76,2,1,1,76.0,True
15807,1715, Note_on_c,68,76,2,1,1,79.0,False
15808,1716, Note_on_c,63,76,2,1,1,73.0,False
15809,1716, Note_on_c,66,76,2,1,1,77.0,False
15810,1717, Note_on_c,65,76,2,1,1,76.0,True
15811,1717, Note_on_c,70,76,2,1,1,81.0,False
15812,1718, Note_on_c,58,76,2,1,1,67.0,False
15813,1719, Note_on_c,63,76,2,1,1,73.0,False
15814,1719, Note_on_c,66,76,2,1,1,77.0,False
15815,1720, Note_on_c,65,76,2,1,1,76.0,True
15816,1720, Note_on_c,68,76,2,1,1,79.0,False
15817,1721, Note_on_c,58,76,2,1,1,67.0,False
15818,1722, Note_on_c,63,76,2,1,1,73.0,False
15819,1722, Note_on_c,66,76,2,1,1,77.0,False
15820,1723, Note_on_c,65,76,2,1,1,76.0,True
15821,1723, Note_on_c,68,76,2,1,1,79.0,False
15822,1724, Note_on_c,63,76,2,1,1,73.0,False
15823,1724, Note_on_c,66,76,2,1,1,77.0,False
15824,1725, Note_on_c,65,76,2,1,1,76.0,True
15825,1725, Note_on_c,70,76,2,1,1,81.0,False
15826,1726, Note_on_c,58,76,2,1,1,67.0,False
15827,1727, Note_on_c,63,76,2,1,1,73.0,False
15828,1727, Note_on_c,66,76,2,1,1,77.0,False
15829,1728, Note_on_c,65,76,2,1,1,76.0,True
15830,1728, Note_on_c,68,76,2,1,1,79.0,False
15831,1729, Note_on_c,58,76,2,1,1,67.0,False
15832,1730, Note_on_c,63,76,2,1,1,73.0,False
15833,1730, Note_on_c,66,76,2,1,1,77.0,False
15834,1731, Note_on_c,65,76,2,1,1,76.0,True
15835,1731, Note_on_c,68,76,2,1,1,79.0,False
15836,1732, Note_on_c,63,76,2,1,1,73.0,False
15837,1732, Note_on_c,66,76,2,1,1,77.0,False
15838,1733, Note_on_c,65,76,2,1,1,76.0,True
15839,1733, Note_on_c,70,76,2,1,1,81.0,False
15840,1734, Note_on_c,58,76,2,1,1,67.0,False
15841,1735, Note_on_c,63,76,2,1,1,73.0,False
15842,1735, Note_on_c,66,76,2,1,1,77.0,False
15843,1736, Note_on_c,65,76,2,1,1,76.0,True
15844,1736, Note_on_c,68,76,2,1,1,79.0,False
15845,1737, Note_on_c,58,76,2,1,1,67.0,False
15846,1738, Note_on_c,63,76,2,1,1,73.0,False
15847,1738, Note_on_c,66,76,2,1,1,77.0,False
15848,1739, Note_on_c,65,76,2,1,1,76.0,True
15849,1739, Note_on_c,68,76,2,1,1,79.0,False
15850,1740, Note_on_c,63,76,2,1,1,73.0,False
15851,1740, Note_on_c,66,76,2,1,1,77.0,False
15852,1741, Note_on_c,65,76,2,1,1,76.0,True
15853,1741, Note_on_c,70,76,2,1,1,81.0,False
15854,1742, Note_on_c,58,76,2,1,1,67.0,False
15855,1743, Note_on_c,63,76,2,1,1,73.0,False
15856,1743, Note_on_c,66,76,2,1,1,77.0,False
15857,1744, Note_on_c,65,76,2,1,1,76.0,True
15858,1744, Note_on_c,68,76,2,1,1,79.0,False
15859,1745, Note_on_c,58,76,2,1,1,67.0,False
15860,1746, Note_on_c,63,76,2,1,1,73.0,False
15861,1746, Note_on_c,66,76,2,1,1,77.0,False
15862,1747, Note_on_c,65,76,2,1,1,76.0,True
15863,1747, Note_on_c,68,76,2,1,1,79.0,False
15864,1748, Note_on_c,63,76,2,1,1,73.0,False
15865,1748, Note_on_c,66,76,2,1,1,77.0,False
15866,1749, Note_on_c,65,76,2,1,1,76.0,True
15867,1749, Note_on_c,70,76,2,1,1,81.0,False
15868,1750, Note_on_c,58,76,2,1,1,67.0,False
15869,1751, Note_on_c,63,76,2,1,1,73.0,False
15870,1751, Note_on_c,66,76,2,1,1,77.0,False
15871,1752, Note_on_c,65,76,2,1,1,76.0,True
15872,1752, Note_on_c,68,76,2,1,1,79.0,False
15873,1753, Note_on_c,58,76,2,1,1,67.0,False
15874,1754, Note_on_c,63,76,2,1,1,73.0,False
15875,1754, Note_on_c,66,76,2,1,1,77.0,False
15876,1755, Note_on_c,65,76,2,1,1,76.0,True
15877,1755, Note_on_c,68,76,2,1,1,79.0,False
15878,1756, Note_on_c,63,76,2,1,1,73.0,False
15879,1756, Note_on_c,66,76,2,1,1,77.0,False
15880,1757, Note_on_c,65,76,2,1,1,76.0,True
15881,1757, Note_on_c,70,76,2,1,1,81.0,False
15882,1758, Note_on_c,58,76,2,1,1,67.0,False
15883,1759, Note_on_c,63,76,2,1,1,73.0,False
15884,1759, Note_on_c,66,76,2,1,1,77.0,False
15885,1760, Note_on_c,65,76,2,1,1,76.0,True
15886,1760, Note_on_c,68,76,2,1,1,79.0,False
15887,1761, Note_on_c,58,76,2,1,1,67.0,False
15888,1762, Note_on_c,63,76,2,1,1,73.0,False
15889,1762, Note_on_c,66,76,2,1,1,77.0,False
15890,1763, Note_on_c,65,76,2,1,1,76.0,True
15891,1763, Note_on_c,68,76,2,1,1,79.0,False
15892,1764, Note_on_c,63,76,2,1,1,73.0,False
15893,1764, Note_on_c,66,76,2,1,1,77.0,False
15894,1765, Note_on_c,65,76,2,1,1,76.0,True
15895,1765, Note_on_c,70,76,2,1,1,81.0,False
15896,1766, Note_on_c,58,76,2,1,1,67.0,False
15897,1767, Note_on_c,63,76,2,1,1,73.0,False
15898,1767, Note_on_c,66,76,2,1,1,77.0,False
15899,1768, Note_on_c,65,76,2,1,1,76.0,True
15900,1768, Note_on_c,68,76,2,1,1,79.0,False
15901,1769, Note_on_c,58,76,2,1,1,67.0,False
15902,1770, Note_on_c,63,76,2,1,1,73.0,False
15903,1770, Note_on_c,66,76,2,1,1,77.0,False
15904,1771, Note_on_c,65,76,2,1,1,76.0,True
15905,1771, Note_on_c,68,76,2,1,1,79.0,False
15906,1772, Note_on_c,63,76,2,1,1,73.0,False
15907,1772, Note_on_c,66,76,2,1,1,77.0,False
15908,1773, Note_on_c,65,76,2,1,1,76.0,True
15909,1773, Note_on_c,70,76,2,1,1,81.0,False
15910,1774, Note_on_c,58,76,2,1,1,67.0,False
15911,1775, Note_on_c,63,76,2,1,1,73.0,False
15912,1775, Note_on_c,66,76,2,1,1,77.0,False
15913,1776, Note_on_c,65,76,2,1,1,76.0,True
15914,1776, Note_on_c,68,76,2,1,1,79.0,False
15915,1777, Note_on_c,58,76,2,1,1,67.0,False
15916,1778, Note_on_c,63,76,2,1,1,73.0,False
15917,1778, Note_on_c,66,76,2,1,1,77.0,False
15918,1779, Note_on_c,65,76,2,1,1,76.0,True
15919,1779, Note_on_c,68,76,2,1,1,79.0,False
15920,1780, Note_on_c,63,76,2,1,1,73.0,False
15921,1780, Note_on_c,66,76,2,1,1,77.0,False
15922,1781, Note_on_c,65,76,2,1,1,76.0,True
15923,1781, Note_on_c,70,76,2,1,1,81.0,False
15924,1782, Note_on_c,58,76,2,1,1,67.0,False
15925,1783, Note_on_c,63,76,2,1,1,73.0,False
15926,1783, Note_on_c,66,76,2,1,1,77.0,False
15927,1784, Note_on_c,65,76,2,1,1,76.0,True
15928,1784, Note_on_c,68,76,2,1,1,79.0,False
15929,1785, Note_on_c,58,76,2,1,1,67.0,False
15930,1786, Note_on_c,63,76,2,1,1,73.0,False
15931,1786, Note_on_c,66,76,2,1,1,77.0,False
15932,1787, Note_on_c,65,76,2,1,1,76.0,True
15933,1787, Note_on_c,68,76,2,1,1,79.0,False
15934,1788, Note_on_c,63,76,2,1,1,73.0,False
15935,1788, Note_on_c,66,76,2,1,1,77.0,False
15936,1789, Note_on_c,65,76,2,1,1,76.0,True
15937,1789, Note_on_c,70,76,2,1,1,81.0,False
15938,1790, Note_on_c,58,76,2,1,1,67.0,False
15939,1791, Note_on_c,63,76,2,1,1,73.0,False
15940,1791, Note_on_c,66,76,2,1,1,77.0,False
15941,1792, Note_on_c,65,76,2,1,1,76.0,True
15942,1792, Note_on_c,68,76,2,1,1,79.0,False
15943,1793, Note_on_c,58,76,2,1,1,67.0,False
15944,1794, Note_on_c,63,76,2,1,1,73.0,False
15945,1794, Note_on_c,66,76,2,1,1,77.0,False
15946,1795, Note_on_c,65,76,2,1,1,76.0,True
15947,1795, Note_on_c,68,76,2,1,1,79.0,False
15948,1796, Note_on_c,63,76,2,1,1,73.0,False
15949,1796, Note_on_c,66,76,2,1,1,77.0,False
15950,1797, Note_on_c,65,76,2,1,1,76.0,True
15951,1797, Note_on_c,70,76,2,1,1,81.0,False
15952,1798, Note_on_c,58,76,2,1,1,67.0,False
15953,1799, Note_on_c,63,76,2,1,1,73.0,False
15954,1799, Note_on_c,66,76,2,1,1,77.0,False
15955,1800, Note_on_c,65,76,2,1,1,76.0,True
15956,1800, Note_on_c,68,76,2,1,1,79.0,False
15957,1801, Note_on_c,58,76,2,1,1,67.0,False
15958,1802, Note_on_c,63,76,2,1,1,73.0,False
15959,1802, Note_on_c,66,76,2,1,1,77.0,False
15960,1803, Note_on_c,65,76,2,1,1,76.0,True
15961,1803, Note_on_c,68,76,2,1,1,79.0,False
15962,1804, Note_on_c,63,76,2,1,1,73.0,False
15963,1804, Note_on_c,66,76,2,1,1,77.0,False
15964,1805, Note_on_c,65,76,2,1,1,76.0,True
15965,1805, Note_on_c,70,76,2,1,1,81.0,False
15966,1806, Note_on_c,58,76,2,1,1,67.0,False
15967,1807, Note_on_c,63,76,2,1,1,73.0,False
15968,1807, Note_on_c,66,76,2,1,1,77.0,False
15969,1808, Note_on_c,65,76,2,1,1,76.0,True
15970,1808, Note_on_c,68,76,2,1,1,79.0,False
15971,1809, Note_on_c,58,76,2,1,1,67.0,False
15972,1810, Note_on_c,63,76,2,1,1,73.0,False
15973,1810, Note_on_c,66,76,2,1,1,77.0,False
15974,1811, Note_on_c,65,76,2,1,1,76.0,True
15975,1811, Note_on_c,68,76,2,1,1,79.0,False
15976,1812, Note_on_c,63,76,2,1,1,73.0,False
15977,1812, Note_on_c,66,76,2,1,1,77.0,False
15978,1813, Note_on_c,65,76,2,1,1,76.0,True
15979,1813, Note_on_c,70,76,2,1,1,81.0,False
15980,1814, Note_on_c,58,76,2,1,1,67.0,False
15981,1815, Note_on_c,63,76,2,1,1,73.0,False
15982,1815, Note_on_c,66,76,2,1,1,77.0,False
15983,1816, Note_on_c,65,76,2,1,1,76.0,True
15984,1816, Note_on_c,68,76,2,1,1,79.0,False
15985,1817, Note_on_c,58,76,2,1,1,67.0,False
15986,1818, Note_on_c,63,76,2,1,1,73.0,False
15987,1818, Note_on_c,66,76,2,1,1,77.0,False
15988,1819, Note_on_c,65,76,2,1,1,76.0,True
15989,1819, Note_on_c,68,76,2,1,1,79.0,False
15990,1820, Note_on_c,63,76,2,1,1,73.0,False
15991,1820, Note_on_c,66,76,2,1,1,77.0,False
15992,1821, Note_on_c,65,76,2,1,1,76.0,True
15993,1821, Note_on_c,70,76,2,1,1,81.0,False
15994,1822, Note_on_c,58,76,2,1,1,67.0,False
15995,1823, Note_on_c,63,76,2,1,1,73.0,False
15996,1823, Note_on_c,66,76,2,1,1,77.0,False
15997,1824, Note_on_c,65,76,2,1,1,76.0,True
15998,1824, Note_on_c,68,76,2,1,1,79.0,False
15999,1825, Note_on_c,58,76,2,1,1,67.0,False
16000,1826, Note_on_c,63,76,2,1,1,73.0,False
16001,1826, Note_on_c,66,76,2,1,1,77.0,False
16002,1827, Note_on_c,65,76,2,1,1,76.0,True
16003,1827, Note_on_c,68,76,2,1,1,79.0,False
16004,1828, Note_on_c,63,76,2,1,1,73.0,False
16005,1828, Note_on_c,66,76,2,1,1,77.0,False
16006,1829, Note_on_c,65,76,2,1,1,76.0,True
16007,1829, Note_on_c,70,76,2,1,1,81.0,False
16008,1830, Note_on_c,58,76,2,1,1,67.0,False
16009,1831, Note_on_c,63,76,2,1,1,73.0,False
16010,1831, Note_on_c,66,76,2,1,1,77.0,False
16011,1832, Note_on_c,65,76,2,1,1,76.0,True
16012,1832, Note_on_c,68,76,2,1,1,79.0,False
16013,1833, Note_on_c,58,76,2,1,1,67.0,False
16014,1834, Note_on_c,63,76,2,1,1,73.0,False
16015,1834, Note_on_c,66,76,2,1,1,77.0,False
16016,1835, Note_on_c,65,76,2,1,1,76.0,True
16017,1835, Note_on_c,68,76,2,1,1,79.0,False
16018,1836, Note_on_c,63,76,2,1,1,73.0,False
16019,1836, Note_on_c,66,76,2,1,1,77.0,False
16020,1837, Note_on_c,65,76,2,1,1,76.0,True
16021,1837, Note_on_c,70,76,2,1,1,81.0,False
16022,1838, Note_on_c,58,76,2,1,1,67.0,False
16023,1839, Note_on_c,63,76,2,1,1,73.0,False
16024,1839, Note_on_c,66,76,2,1,1,77.0,False
16025,1840, Note_on_c,65,76,2,1,1,76.0,True
16026,1840, Note_on_c,68,76,2,1,1,79.0,False
16027,1841, Note_on_c,58,76,2,1,1,67.0,False
16028,1842, Note_on_c,63,76,2,1,1,73.0,False
16029,1842, Note_on_c,66,76,2,1,1,77.0,False
16030,1843, Note_on_c,65,76,2,1,1,76.0,True
16031,1843, Note_on_c,68,76,2,1,1,79.0,False
16032,1844, Note_on_c,63,76,2,1,1,73.0,False
16033,1844, Note_on_c,66,76,2,1,1,77.0,False
16034,1845, Note_on_c,65,76,2,1,1,76.0,True
16035,1845, Note_on_c,70,76,2,1,1,81.0,False
16036,1846, Note_on_c,58,76,2,1,1,67.0,False
16037,1847, Note_on_c,63,76,2,1,1,73.0,False
16038,1847, Note_on_c,66,76,2,1,1,77.0,False
16039,1848, Note_on_c,65,76,2,1,1,76.0,True
16040,1848, Note_on_c,68,76,2,1,1,79.0,False
16041,1849, Note_on_c,58,76,2,1,1,67.0,False
16042,1850, Note_on_c,63,76,2,1,1,73.0,False
16043,1850, Note_on_c,66,76,2,1,1,77.0,False
16044,1851, Note_on_c,65,76,2,1,1,76.0,True
16045,1851, Note_on_c,68,76,2,1,1,79.0,False
16046,1852, Note_on_c,63,76,2,1,1,73.0,False
16047,1852, Note_on_c,66,76,2,1,1,77.0,False
16048,1853, Note_on_c,65,76,2,1,1,76.0,True
16049,1853, Note_on_c,70,76,2,1,1,81.0,False
16050,1854, Note_on_c,58,76,2,1,1,67.0,False
16051,1855, Note_on_c,63,76,2,1,1,73.0,False
16052,1855, Note_on_c,66,76,2,1,1,77.0,False
16053,1856, Note_on_c,65,76,2,1,1,76.0,True
16054,1856, Note_on_c,68,76,2,1,1,79.0,False
16055,1857, Note_on_c,58,76,2,1,1,67.0,False
16056,1858, Note_on_c,63,76,2,1,1,73.0,False
16057,1858, Note_on_c,66,76,2,1,1,77.0,False
16058,1859, Note_on_c,65,76,2,1,1,76.0,True
16059,1859, Note_on_c,68,76,2,1,1,79.0,False
16060,1860, Note_on_c,63,76,2,1,1,73.0,False
16061,1860, Note_on_c,66,76,2,1,1,77.0,False
16062,1861, Note_on_c,65,76,2,1,1,76.0,True
16063,1861, Note_on_c,70,76,2,1,1,81.0,False
16064,1862, Note_on_c,58,76,2,1,1,67.0,False
16065,1863, Note_on_c,63,76,2,1,1,73.0,False
16066,1863, Note_on_c,66,76,2,1,1,77.0,False
16067,1864, Note_on_c,65,76,2,1,1,76.0,True
16068,1864, Note_on_c,68,76,2,1,1,79.0,False
16069,1865, Note_on_c,58,76,2,1,1,67.0,False
16070,1866, Note_on_c,63,76,2,1,1,73.0,False
16071,1866, Note_on_c,66,76,2,1,1,77.0,False
16072,1867, Note_on_c,65,76,2,1,1,76.0,True
16073,1867, Note_on_c,68,76,2,1,1,79.0,False
16074,1868, Note_on_c,63,76,2,1,1,73.0,False
16075,1868, Note_on_c,66,76,2,1,1,77.0,False
16076,1869, Note_on_c,65,76,2,1,1,76.0,True
16077,1869, Note_on_c,70,76,2,1,1,81.0,False
16078,1870, Note_on_c,58,76,2,1,1,67.0,False
16079,1871, Note_on_c,63,76,2,1,1,73.0,False
16080,1871, Note_on_c,66,76,2,1,1,77.0,False
16081,1872, Note_on_c,65,76,2,1,1,76.0,True
16082,1872, Note_on_c,68,76,2,1,1,79.0,False
16083,1873, Note_on_c,58,76,2,1,1,67.0,False
16084,1874, Note_on_c,63,76,2,1,1,73.0,False
16085,1874, Note_on_c,66,76,2,1,1,77.0,False
16086,1875, Note_on_c,65,76,2,1,1,76.0,True
16087,1875, Note_on_c,68,76,2,1,1,79.0,False
16088,1876, Note_on_c,63,76,2,1,1,73.0,False
16089,1876, Note_on_c,66,76,2,1,1,77.0,False
16090,1877, Note_on_c,65,76,2,1,1,76.0,True
16091,1877, Note_on_c,70,76,2,1,1,81.0,False
16092,1878, Note_on_c,58,76,2,1,1,67.0,False
16093,1879, Note_on_c,63,76,2,1,1,73.0,False
16094,1879, Note_on_c,66,76,2,1,1,77.0,False
16095,1880, Note_on_c,65,76,2,1,1,76.0,True
16096,1880, Note_on_c,68,76,2,1,1,79.0,False
16097,1881, Note_on_c,58,76,2,1,1,67.0,False
16098,1882, Note_on_c,63,76,2,1,1,73.0,False
16099,1882, Note_on_c,66,76,2,1,1,77.0,False
16100,1883, Note_on_c,65,76,2,1,1,76.0,True
16101,1883, Note_on_c,68,76,2,1,1,79.0,False
16102,1884, Note_on_c,63,76,2,1,1,73.0,False
16103,1884, Note_on_c,66,76,2,1,1,77.0,False
16104,1885, Note_on_c,65,76,2,1,1,76.0,True
16105,1885, Note_on_c,70,76,2,1,1,81.0,False
16106,1886, Note_on_c,58,76,2,1,1,67.0,False
16107,1887, Note_on_c,63,76,2,1,1,73.0,False
16108,1887, Note_on_c,66,76,2,1,1,77.0,False
16109,1888, Note_on_c,65,76,2,1,1,76.0,True
16110,1888, Note_on_c,68,76,2,1,1,79.0,False
16111,1889, Note_on_c,58,76,2,1,1,67.0,False
16112,1890, Note_on_c,63,76,2,1,1,73.0,False
16113,1890, Note_on_c,66,76,2,1,1,77.0,False
16114,1891, Note_on_c,65,76,2,1,1,76.0,True
16115,1891, Note_on_c,68,76,2,1,1,79.0,False
16116,1892, Note_on_c,63,76,2,1,1,73.0,False
16117,1892, Note_on_c,66,76,2,1,1,77.0,False
16118,1893, Note_on_c,65,76,2,1,1,76.0,True
16119,1893, Note_on_c,70,76,2,1,1,81.0,False
16120,1894, Note_on_c,58,76,2,1,1,67.0,False
16121,1895, Note_on_c,63,76,2,1,1,73.0,False
16122,1895, Note_on_c,66,76,2,1,1,77.0,False
16123,1896, Note_on_c,65,76,2,1,1,76.0,True
16124,1896, Note_on_c,68,76,2,1,1,79.0,False
16125,1897, Note_on_c,58,76,2,1,1,67.0,False
16126,1898, Note_on_c,63,76,2,1,1,73.0,False
16127,1898, Note_on_c,66,76,2,1,1,77.0,False
16128,1899, Note_on_c,65,76,2,1,1,76.0,True
16129,1899, Note_on_c,68,76,2,1,1,79.0,False
16130,1900, Note_on_c,63,76,2,1,1,73.0,False
16131,1900, Note_on_c,66,76,2,1,1,77.0,False
16132,1901, Note_on_c,65,76,2,1,1,76.0,True
16133,1901, Note_on_c,70,76,2,1,1,81.0,False
16134,1902, Note_on_c,58,76,2,1,1,67.0,False
16135,1903, Note_on_c,63,76,2,1,1,73.0,False
16136,1903, Note_on_c,66,76,2,1,1,77.0,False
16137,1904, Note_on_c,65,76,2,1,1,76.0,True
16138,1904, Note_on_c,68,76,2,1,1,79.0,False
16139,1905, Note_on_c,58,76,2,1,1,67.0,False
16140,1906, Note_on_c,63,76,2,1,1,73.0,False
16141,1906, Note_on_c,66,76,2,1,1,77.0,False
16142,1907, Note_on_c,65,76,2,1,1,76.0,True
16143,1907, Note_on_c,68,76,2,1,1,79.0,False
16144,1908, Note_on_c,63,76,2,1,1,73.0,False
16145,1908, Note_on_c,66,76,2,1,1,77.0,False
16146,1909, Note_on_c,65,76,2,1,1,76.0,True
16147,1909, Note_on_c,70,76,2,1,1,81.0,False
16148,1910, Note_on_c,58,76,2,1,1,67.0,False
16149,1911, Note_on_c,63,76,2,1,1,73.0,False
16150,1911, Note_on_c,66,76,2,1,1,77.0,False
16151,1912, Note_on_c,65,76,2,1,1,76.0,True
16152,1912, Note_on_c,68,76,2,1,1,79.0,False
16153,1913, Note_on_c,58,76,2,1,1,67.0,False
16154,1914, Note_on_c,63,76,2,1,1,73.0,False
16155,1914, Note_on_c,66,76,2,1,1,77.0,False
16156,1915, Note_on_c,65,76,2,1,1,76.0,True
16157,1915, Note_on_c,68,76,2,1,1,79.0,False
16158,1916, Note_on_c,63,76,2,1,1,73.0,False
16159,1916, Note_on_c,66,76,2,1,1,77.0,False
16160,1917, Note_on_c,65,76,2,1,1,76.0,True
16161,1917, Note_on_c,70,76,2,1,1,81.0,False
16162,1918, Note_on_c,58,76,2,1,1,67.0,False
16163,1919, Note_on_c,63,76,2,1,1,73.0,False
16164,1919, Note_on_c,66,76,2,1,1,77.0,False
16165,1920, Note_on_c,65,76,2,1,1,76.0,True
16166,1920, Note_on_c,68,76,2,1,1,79.0,False
16167,1921, Note_on_c,58,76,2,1,1,67.0,False
16168,1922, Note_on_c,63,76,2,1,1,73.0,False
16169,1922, Note_on_c,66,76,2,1,1,77.0,False
16170,1923, Note_on_c,65,76,2,1,1,76.0,True
16171,1923, Note_on_c,68,76,2,1,1,79.0,False
16172,1924, Note_on_c,63,76,2,1,1,73.0,False
16173,1924, Note_on_c,66,76,2,1,1,77.0,False
16174,1925, Note_on_c,65,76,2,1,1,76.0,True
16175,1925, Note_on_c,70,76,2,1,1,81.0,False
16176,1926, Note_on_c,58,76,2,1,1,67.0,False
16177,1927, Note_on_c,63,76,2,1,1,73.0,False
16178,1927, Note_on_c,66,76,2,1,1,77.0,False
16179,1928, Note_on_c,65,76,2,1,1,76.0,True
16180,1928, Note_on_c,68,76,2,1,1,79.0,False
16181,1929, Note_on_c,58,76,2,1,1,67.0,False
16182,1930, Note_on_c,63,76,2,1,1,73.0,False
16183,1930, Note_on_c,66,76,2,1,1,77.0,False
16184,1931, Note_on_c,65,76,2,1,1,76.0,True
16185,1931, Note_on_c,68,76,2,1,1,79.0,False
16186,1932, Note_on_c,63,76,2,1,1,73.0,False
16187,1932, Note_on_c,66,76,2,1,1,77.0,False
16188,1933, Note_on_c,65,76,2,1,1,76.0,True
16189,1933, Note_on_c,70,76,2,1,1,81.0,False
16190,1934, Note_on_c,58,76,2,1,1,67.0,False
16191,1935, Note_on_c,63,76,2,1,1,73.0,False
16192,1935, Note_on_c,66,76,2,1,1,77.0,False
16193,1936, Note_on_c,65,76,2,1,1,76.0,True
16194,1936, Note_on_c,68,76,2,1,1,79.0,False
16195,1937, Note_on_c,58,76,2,1,1,67.0,False
16196,1938, Note_on_c,63,76,2,1,1,73.0,False
16197,1938, Note_on_c,66,76,2,1,1,77.0,False
16198,1939, Note_on_c,65,76,2,1,1,76.0,True
16199,1939, Note_on_c,68,76,2,1,1,79.0,False
16200,1940, Note_on_c,63,76,2,1,1,73.0,False
16201,1940, Note_on_c,66,76,2,1,1,77.0,False
16202,1941, Note_on_c,65,76,2,1,1,76.0,True
16203,1941, Note_on_c,70,76,2,1,1,81.0,False
16204,1942, Note_on_c,58,76,2,1,1,67.0,False
16205,1943, Note_on_c,63,76,2,1,1,73.0,False
16206,1943, Note_on_c,66,76,2,1,1,77.0,False
16207,1944, Note_on_c,65,76,2,1,1,76.0,True
16208,1944, Note_on_c,68,76,2,1,1,79.0,False
16209,1945, Note_on_c,58,76,2,1,1,67.0,False
16210,1946, Note_on_c,63,76,2,1,1,73.0,False
16211,1946, Note_on_c,66,76,2,1,1,77.0,False
16212,1947, Note_on_c,65,76,2,1,1,76.0,True
16213,1947, Note_on_c,68,76,2,1,1,79.0,False
16214,1948, Note_on_c,63,76,2,1,1,73.0,False
16215,1948, Note_on_c,66,76,2,1,1,77.0,False
16216,1949, Note_on_c,65,76,2,1,1,76.0,True
16217,1949, Note_on_c,70,76,2,1,1,81.0,False
16218,1950, Note_on_c,58,76,2,1,1,67.0,False
16219,1951, Note_on_c,63,76,2,1,1,73.0,False
16220,1951, Note_on_c,66,76,2,1,1,77.0,False
16221,1952, Note_on_c,65,76,2,1,1,76.0,True
16222,1952, Note_on_c,68,76,2,1,1,79.0,False
16223,1953, Note_on_c,58,76,2,1,1,67.0,False
16224,1954, Note_on_c,63,76,2,1,1,73.0,False
16225,1954, Note_on_c,66,76,2,1,1,77.0,False
16226,1955, Note_on_c,65,76,2,1,1,76.0,True
16227,1955, Note_on_c,68,76,2,1,1,79.0,False
16228,1956, Note_on_c,63,76,2,1,1,73.0,False
16229,1956, Note_on_c,66,76,2,1,1,77.0,False
16230,1957, Note_on_c,65,76,2,1,1,76.0,True
16231,1957, Note_on_c,70,76,2,1,1,81.0,False
16232,1958, Note_on_c,58,76,2,1,1,67.0,False
16233,1959, Note_on_c,63,76,2,1,1,73.0,False
16234,1959, Note_on_c,66,76,2,1,1,77.0,False
16235,1960, Note_on_c,65,76,2,1,1,76.0,True
16236,1960, Note_on_c,68,76,2,1,1,79.0,False
16237,1961, Note_on_c,58,76,2,1,1,67.0,False
16238,1962, Note_on_c,63,76,2,1,1,73.0,False
16239,1962, Note_on_c,66,76,2,1,1,77.0,False
16240,1963, Note_on_c,65,76,2,1,1,76.0,True
16241,1963, Note_on_c,68,76,2,1,1,79.0,False
16242,1964, Note_on_c,63,76,2,1,1,73.0,False
16243,1964, Note_on_c,66,76,2,1,1,77.0,False
16244,1965, Note_on_c,65,76,2,1,1,76.0,True
16245,1965, Note_on_c,70,76,2,1,1,81.0,False
16246,1966, Note_on_c,58,76,2,1,1,67.0,False
16247,1967, Note_on_c,63,76,2,1,1,73.0,False
16248,1967, Note_on_c,66,76,2,1,1,77.0,False
16249,1968, Note_on_c,65,76,2,1,1,76.0,True
16250,1968, Note_on_c,68,76,2,1,1,79.0,False
16251,1969, Note_on_c,58,76,2,1,1,67.0,False
16252,1970, Note_on_c,63,76,2,1,1,73.0,False
16253,1970, Note_on_c,66,76,2,1,1,77.0,False
16254,1971, Note_on_c,65,76,2,1,1,76.0,True
16255,1971, Note_on_c,68,76,2,1,1,79.0,False
16256,1972, Note_on_c,63,76,2,1,1,73.0,False
16257,1972, Note_on_c,66,76,2,1,1,77.0,False
16258,1973, Note_on_c,65,76,2,1,1,76.0,True
16259,1973, Note_on_c,70,76,2,1,1,81.0,False
16260,1974, Note_on_c,58,76,2,1,1,67.0,False
16261,1975, Note_on_c,63,76,2,1,1,73.0,False
16262,1975, Note_on_c,66,76,2,1,1,77.0,False
16263,1976, Note_on_c,65,76,2,1,1,76.0,True
16264,1976, Note_on_c,68,76,2,1,1,79.0,False
16265,1977, Note_on_c,58,76,2,1,1,67.0,False
16266,1978, Note_on_c,63,76,2,1,1,73.0,False
16267,1978, Note_on_c,66,76,2,1,1,77.0,False
16268,1979, Note_on_c,65,76,2,1,1,76.0,True
16269,1979, Note_on_c,68,76,2,1,1,79.0,False
16270,1980, Note_on_c,63,76,2,1,1,73.0,False
16271,1980, Note_on_c,66,76,2,1,1,77.0,False
16272,1981, Note_on_c,65,76,2,1,1,76.0,True
16273,1981, Note_on_c,70,76,2,1,1,81.0,False
16274,1982, Note_on_c,58,76,2,1,1,67.0,False
16275,1983, Note_on_c,63,76,2,1,1,73.0,False
16276,1983, Note_on_c,66,76,2,1,1,77.0,False
16277,1984, Note_on_c,65,76,2,1,1,76.0,True
16278,1984, Note_on_c,68,76,2,1,1,79.0,False
16279,1985, Note_on_c,58,76,2,1,1,67.0,False
16280,1986, Note_on_c,63,76,2,1,1,73.0,False
16281,1986, Note_on_c,66,76,2,1,1,77.0,False
16282,1987, Note_on_c,65,76,2,1,1,76.0,True
16283,1987, Note_on_c,68,76,2,1,1,79.0,False
16284,1988, Note_on_c,63,76,2,1,1,73.0,False
16285,1988, Note_on_c,66,76,2,1,1,77.0,False
16286,1989, Note_on_c,65,76,2,1,1,76.0,True
16287,1989, Note_on_c,70,76,2,1,1,81.0,False
16288,1990, Note_on_c,58,76,2,1,1,67.0,False
16289,1991, Note_on_c,63,76,2,1,1,73.0,False
16290,1991, Note_on_c,66,76,2,1,1,77.0,False
16291,1992, Note_on_c,65,76,2,1,1,76.0,True
16292,1992, Note_on_c,68,76,2,1,1,79.0,False
16293,1993, Note_on_c,58,76,2,1,1,67.0,False
16294,1994, Note_on_c,63,76,2,1,1,73.0,False
16295,1994, Note_on_c,66,76,2,1,1,77.0,False
16296,1995, Note_on_c,65,76,2,1,1,76.0,True
16297,1995, Note_on_c,68,76,2,1,1,79.0,False
16298,1996, Note_on_c,63,76,2,1,1,73.0,False
16299,1996, Note_on_c,66,76,2,1,1,77.0,False
16300,1997, Note_on_c,65,76,2,1,1,76.0,True
16301,1997, Note_on_c,70,76,2,1,1,81.0,False
16302,1998, Note_on_c,58,76,2,1,1,67.0,False
16303,1999, Note_on_c,63,76,2,1,1,73.0,False
16304,1999, Note_on_c,66,76,2,1,1,77.0,False
16305,2000, Note_on_c,65,76,2,1,1,76.0,True
16306,2000, Note_on_c,68,76,2,1,1,79.0,False
16307,2001, Note_on_c,58,76,2,1,1,67.0,False
16308,2002, Note_on_c,63,76,2,1,1,73.0,False
16309,2002, Note_on_c,66,76,2,1,1,77.0,False
16310,2003, Note_on_c,65,76,2,1,1,76.0,True
16311,2003, Note_on_c,68,76,2,1,1,79.0,False
16312,2004, Note_on_c,63,76,2,1,1,73.0,False
16313,2004, Note_on_c,66,76,2,1,1,77.0,False
16314,2005, Note_on_c,65,76,2,1,1,76.0,True
16315,2005, Note_on_c,70,76,2,1,1,81.0,False
16316,2006, Note_on_c,58,76,2,1,1,67.0,False
16317,2007, Note_on_c,63,76,2,1,1,73.0,False
16318,2007, Note_on_c,66,76,2,1,1,77.0,False
16319,2008, Note_on_c,65,76,2,1,1,76.0,True
16320,2008, Note_on_c,68,76,2,1,1,79.0,False
16321,2009, Note_on_c,58,76,2,1,1,67.0,False
16322,2010, Note_on_c,63,76,2,1,1,73.0,False
16323,2010, Note_on_c,66,76,2,1,1,77.0,False
16324,2011, Note_on_c,65,76,2,1,1,76.0,True
16325,2011, Note_on_c,68,76,2,1,1,79.0,False
16326,2012, Note_on_c,63,76,2,1,1,73.0,False
16327,2012, Note_on_c,66,76,2,1,1,77.0,False
16328,2013, Note_on_c,65,76,2,1,1,76.0,True
16329,2013, Note_on_c,70,76,2,1,1,81.0,False
16330,2014, Note_on_c,58,76,2,1,1,67.0,False
16331,2015, Note_on_c,63,76,2,1,1,73.0,False
16332,2015, Note_on_c,66,76,2,1,1,77.0,False
16333,2016, Note_on_c,65,76,2,1,1,76.0,True
16334,2016, Note_on_c,68,76,2,1,1,79.0,False
16335,2017, Note_on_c,58,76,2,1,1,67.0,False
16336,2018, Note_on_c,63,76,2,1,1,73.0,False
16337,2018, Note_on_c,66,76,2,1,1,77.0,False
16338,2019, Note_on_c,65,76,2,1,1,76.0,True
16339,2019, Note_on_c,68,76,2,1,1,79.0,False
16340,2020, Note_on_c,63,76,2,1,1,73.0,False
16341,2020, Note_on_c,66,76,2,1,1,77.0,False
16342,2021, Note_on_c,65,76,2,1,1,76.0,True
16343,2021, Note_on_c,70,76,2,1,1,81.0,False
16344,2022, Note_on_c,58,76,2,1,1,67.0,False
16345,2023, Note_on_c,63,76,2,1,1,73.0,False
16346,2023, Note_on_c,66,76,2,1,1,77.0,False
16347,2024, Note_on_c,65,76,2,1,1,76.0,True
16348,2024, Note_on_c,68,76,2,1,1,79.0,False
16349,2025, Note_on_c,58,76,2,1,1,67.0,False
16350,2026, Note_on_c,63,76,2,1,1,73.0,False
16351,2026, Note_on_c,66,76,2,1,1,77.0,False
16352,2027, Note_on_c,65,76,2,1,1,76.0,True
16353,2027, Note_on_c,68,76,2,1,1,79.0,False
16354,2028, Note_on_c,63,76,2,1,1,73.0,False
16355,2028, Note_on_c,66,76,2,1,1,77.0,False
16356,2029, Note_on_c,65,76,2,1,1,76.0,True
16357,2029, Note_on_c,70,76,2,1,1,81.0,False
16358,2030, Note_on_c,58,76,2,1,1,67.0,False
16359,2031, Note_on_c,63,76,2,1,1,73.0,False
16360,2031, Note_on_c,66,76,2,1,1,77.0,False
16361,2032, Note_on_c,65,76,2,1,1,76.0,True
16362,2032, Note_on_c,68,76,2,1,1,79.0,False
16363,2033, Note_on_c,58,76,2,1,1,67.0,False
16364,2034, Note_on_c,63,76,2,1,1,73.0,False
16365,2034, Note_on_c,66,76,2,1,1,77.0,False
16366,2035, Note_on_c,65,76,2,1,1,76.0,True
16367,2035, Note_on_c,68,76,2,1,1,79.0,False
16368,2036, Note_on_c,63,76,2,1,1,73.0,False
16369,2036, Note_on_c,66,76,2,1,1,77.0,False
16370,2037, Note_on_c,65,76,2,1,1,76.0,True
16371,2037, Note_on_c,70,76,2,1,1,81.0,False
16372,2038, Note_on_c,58,76,2,1,1,67.0,False
16373,2039, Note_on_c,63,76,2,1,1,73.0,False
16374,2039, Note_on_c,66,76,2,1,1,77.0,False
16375,2040, Note_on_c,65,76,2,1,1,76.0,True
16376,2040, Note_on_c,68,76,2,1,1,79.0,False
16377,2041, Note_on_c,58,76,2,1,1,67.0,False
16378,2042, Note_on_c,63,76,2,1,1,73.0,False
16379,2042, Note_on_c,66,76,2,1,1,77.0,False
16380,2043, Note_on_c,65,76,2,1,1,76.0,True
16381,2043, Note_on_c,68,76,2,1,1,79.0,False
16382,2044, Note_on_c,63,76,2,1,1,73.0,False
16383,2044, Note_on_c,66,76,2,1,1,77.0,False
16384,2045, Note_on_c,65,76,2,1,1,76.0,True
16385,2045, Note_on_c,70,76,2,1,1,81.0,False
16386,2046, Note_on_c,58,76,2,1,1,67.0,False
16387,2047, Note_on_c,63,76,2,1,1,73.0,False
16388,2047, Note_on_c,66,76,2,1,1,77.0,False
16389,2048, Note_on_c,65,76,2,1,1,76.0,True
16390,2048, Note_on_c,68,76,2,1,1,79.0,False
16391,2049, Note_on_c,58,76,2,1,1,67.0,False
16392,2050, Note_on_c,63,76,2,1,1,73.0,False
16393,2050, Note_on_c,66,76,2,1,1,77.0,False
16394,2051, Note_on_c,65,76,2,1,1,76.0,True
16395,2051, Note_on_c,68,76,2,1,1,79.0,False
16396,2052, Note_on_c,63,76,2,1,1,73.0,False
16397,2052, Note_on_c,66,76,2,1,1,77.0,False
16398,2053, Note_on_c,65,76,2,1,1,76.0,True
16399,2053, Note_on_c,70,76,2,1,1,81.0,False
16400,2054, Note_on_c,58,76,2,1,1,67.0,False
16401,2055, Note_on_c,63,76,2,1,1,73.0,False
16402,2055, Note_on_c,66,76,2,1,1,77.0,False
16403,2056, Note_on_c,65,76,2,1,1,76.0,True
16404,2056, Note_on_c,68,76,2,1,1,79.0,False
16405,2057, Note_on_c,58,76,2,1,1,67.0,False
16406,2058, Note_on_c,63,76,2,1,1,73.0,False
16407,2058, Note_on_c,66,76,2,1,1,77.0,False
16408,2059, Note_on_c,65,76,2,1,1,76.0,True
16409,2059, Note_on_c,68,76,2,1,1,79.0,False
16410,2060, Note_on_c,63,76,2,1,1,73.0,False
16411,2060, Note_on_c,66,76,2,1,1,77.0,False
16412,2061, Note_on_c,65,76,2,1,1,76.0,True
16413,2061, Note_on_c,70,76,2,1,1,81.0,False
16414,2062, Note_on_c,58,76,2,1,1,67.0,False
16415,2063, Note_on_c,63,76,2,1,1,73.0,False
16416,2063, Note_on_c,66,76,2,1,1,77.0,False
16417,2064, Note_on_c,65,76,2,1,1,76.0,True
16418,2064, Note_on_c,68,76,2,1,1,79.0,False
16419,2065, Note_on_c,58,76,2,1,1,67.0,False
16420,2066, Note_on_c,63,76,2,1,1,73.0,False
16421,2066, Note_on_c,66,76,2,1,1,77.0,False
16422,2067, Note_on_c,65,76,2,1,1,76.0,True
16423,2067, Note_on_c,68,76,2,1,1,79.0,False
16424,2068, Note_on_c,63,76,2,1,1,73.0,False
16425,2068, Note_on_c,66,76,2,1,1,77.0,False
16426,2069, Note_on_c,65,76,2,1,1,76.0,True
16427,2069, Note_on_c,70,76,2,1,1,81.0,False
16428,2070, Note_on_c,58,76,2,1,1,67.0,False
16429,2071, Note_on_c,63,76,2,1,1,73.0,False
16430,2071, Note_on_c,66,76,2,1,1,77.0,False
16431,2072, Note_on_c,65,76,2,1,1,76.0,True
16432,2072, Note_on_c,68,76,2,1,1,79.0,False
16433,2073, Note_on_c,58,76,2,1,1,67.0,False
16434,2074, Note_on_c,63,76,2,1,1,73.0,False
16435,2074, Note_on_c,66,76,2,1,1,77.0,False
16436,2075, Note_on_c,65,76,2,1,1,76.0,True
16437,2075, Note_on_c,68,76,2,1,1,79.0,False
16438,2076, Note_on_c,63,76,2,1,1,73.0,False
16439,2076, Note_on_c,66,76,2,1,1,77.0,False
16440,2077, Note_on_c,65,76,2,1,1,76.0,True
16441,2077, Note_on_c,70,76,2,1,1,81.0,False
16442,2078, Note_on_c,58,76,2,1,1,67.0,False
16443,2079, Note_on_c,63,76,2,1,1,73.0,False
16444,2079, Note_on_c,66,76,2,1,1,77.0,False
16445,2080, Note_on_c,65,76,2,1,1,76.0,True
16446,2080, Note_on_c,68,76,2,1,1,79.0,False
16447,2081, Note_on_c,58,76,2,1,1,67.0,False
16448,2082, Note_on_c,63,76,2,1,1,73.0,False
16449,2082, Note_on_c,66,76,2,1,1,77.0,False
16450,2083, Note_on_c,65,76,2,1,1,76.0,True
16451,2083, Note_on_c,68,76,2,1,1,79.0,False
16452,2084, Note_on_c,63,76,2,1,1,73.0,False
16453,2084, Note_on_c,66,76,2,1,1,77.0,False
16454,2085, Note_on_c,65,76,2,1,1,76.0,True
16455,2085, Note_on_c,70,76,2,1,1,81.0,False
16456,2086, Note_on_c,58,76,2,1,1,67.0,False
16457,2087, Note_on_c,63,76,2,1,1,73.0,False
16458,2087, Note_on_c,66,76,2,1,1,77.0,False
16459,2088, Note_on_c,65,76,2,1,1,76.0,True
16460,2088, Note_on_c,68,76,2,1,1,79.0,False
16461,2089, Note_on_c,58,76,2,1,1,67.0,False
16462,2090, Note_on_c,63,76,2,1,1,73.0,False
16463,2090, Note_on_c,66,76,2,1,1,77.0,False
16464,2091, Note_on_c,65,76,2,1,1,76.0,True
16465,2091, Note_on_c,68,76,2,1,1,79.0,False
16466,2092, Note_on_c,63,76,2,1,1,73.0,False
16467,2092, Note_on_c,66,76,2,1,1,77.0,False
16468,2093, Note_on_c,65,76,2,1,1,76.0,True
16469,2093, Note_on_c,70,76,2,1,1,81.0,False
16470,2094, Note_on_c,58,76,2,1,1,67.0,False
16471,2095, Note_on_c,63,76,2,1,1,73.0,False
16472,2095, Note_on_c,66,76,2,1,1,77.0,False
16473,2096, Note_on_c,65,76,2,1,1,76.0,True
16474,2096, Note_on_c,68,76,2,1,1,79.0,False
16475,2097, Note_on_c,58,76,2,1,1,67.0,False
16476,2098, Note_on_c,63,76,2,1,1,73.0,False
16477,2098, Note_on_c,66,76,2,1,1,77.0,False
16478,2099, Note_on_c,65,76,2,1,1,76.0,True
16479,2099, Note_on_c,68,76,2,1,1,79.0,False
16480,2100, Note_on_c,63,76,2,1,1,73.0,False
16481,2100, Note_on_c,66,76,2,1,1,77.0,False
16482,2101, Note_on_c,65,76,2,1,1,76.0,True
16483,2101, Note_on_c,70,76,2,1,1,81.0,False
16484,2102, Note_on_c,58,76,2,1,1,67.0,False
16485,2103, Note_on_c,63,76,2,1,1,73.0,False
16486,2103, Note_on_c,66,76,2,1,1,77.0,False
16487,2104, Note_on_c,65,76,2,1,1,76.0,True
16488,2104, Note_on_c,68,76,2,1,1,79.0,False
16489,2105, Note_on_c,58,76,2,1,1,67.0,False
16490,2106, Note_on_c,63,76,2,1,1,73.0,False
16491,2106, Note_on_c,66,76,2,1,1,77.0,False
16492,2107, Note_on_c,65,76,2,1,1,76.0,True
16493,2107, Note_on_c,68,76,2,1,1,79.0,False
16494,2108, Note_on_c,63,76,2,1,1,73.0,False
16495,2108, Note_on_c,66,76,2,1,1,77.0,False
16496,2109, Note_on_c,65,76,2,1,1,76.0,True
16497,2109, Note_on_c,70,76,2,1,1,81.0,False
16498,2110, Note_on_c,58,76,2,1,1,67.0,False
16499,2111, Note_on_c,63,76,2,1,1,73.0,False
16500,2111, Note_on_c,66,76,2,1,1,77.0,False
16501,2112, Note_on_c,65,76,2,1,1,76.0,True
16502,2112, Note_on_c,68,76,2,1,1,79.0,False
16503,2113, Note_on_c,58,76,2,1,1,67.0,False
16504,2114, Note_on_c,63,76,2,1,1,73.0,False
16505,2114, Note_on_c,66,76,2,1,1,77.0,False
16506,2115, Note_on_c,65,76,2,1,1,76.0,True
16507,2115, Note_on_c,68,76,2,1,1,79.0,False
16508,2116, Note_on_c,63,76,2,1,1,73.0,False
16509,2116, Note_on_c,66,76,2,1,1,77.0,False
16510,2117, Note_on_c,65,76,2,1,1,76.0,True
16511,2117, Note_on_c,70,76,2,1,1,81.0,False
16512,2118, Note_on_c,58,76,2,1,1,67.0,False
16513,2119, Note_on_c,63,76,2,1,1,73.0,False
16514,2119, Note_on_c,66,76,2,1,1,77.0,False
16515,2120, Note_on_c,65,76,2,1,1,76.0,True
16516,2120, Note_on_c,68,76,2,1,1,79.0,False
16517,2121, Note_on_c,58,76,2,1,1,67.0,False
16518,2122, Note_on_c,63,76,2,1,1,73.0,False
16519,2122, Note_on_c,66,76,2,1,1,77.0,False
16520,2123, Note_on_c,65,76,2,1,1,76.0,True
16521,2123, Note_on_c,68,76,2,1,1,79.0,False
16522,2124, Note_on_c,63,76,2,1,1,73.0,False
16523,2124, Note_on_c,66,76,2,1,1,77.0,False
16524,2125, Note_on_c,65,76,2,1,1,76.0,True
16525,2125, Note_on_c,70,76,2,1,1,81.0,False
16526,2126, Note_on_c,58,76,2,1,1,67.0,False
16527,2127, Note_on_c,63,76,2,1,1,73.0,False
16528,2127, Note_on_c,66,76,2,1,1,77.0,False
16529,2128, Note_on_c,65,76,2,1,1,76.0,True
16530,2128, Note_on_c,68,76,2,1,1,79.0,False
16531,2129, Note_on_c,58,76,2,1,1,67.0,False
16532,2130, Note_on_c,63,76,2,1,1,73.0,False
16533,2130, Note_on_c,66,76,2,1,1,77.0,False
16534,2131, Note_on_c,65,76,2,1,1,76.0,True
16535,2131, Note_on_c,68,76,2,1,1,79.0,False
16536,2132, Note_on_c,63,76,2,1,1,73.0,False
16537,2132, Note_on_c,66,76,2,1,1,77.0,False
16538,2133, Note_on_c,65,76,2,1,1,76.0,True
16539,2133, Note_on_c,70,76,2,1,1,81.0,False
16540,2134, Note_on_c,58,76,2,1,1,67.0,False
16541,2135, Note_on_c,63,76,2,1,1,73.0,False
16542,2135, Note_on_c,66,76,2,1,1,77.0,False
16543,2136, Note_on_c,65,76,2,1,1,76.0,True
16544,2136, Note_on_c,68,76,2,1,1,79.0,False
16545,2137, Note_on_c,58,76,2,1,1,67.0,False
16546,2138, Note_on_c,63,76,2,1,1,73.0,False
16547,2138, Note_on_c,66,76,2,1,1,77.0,False
16548,2139, Note_on_c,65,76,2,1,1,76.0,True
16549,2139, Note_on_c,68,76,2,1,1,79.0,False
16550,2140, Note_on_c,63,76,2,1,1,73.0,False
16551,2140, Note_on_c,66,76,2,1,1,77.0,False
16552,2141, Note_on_c,65,76,2,1,1,76.0,True
16553,2141, Note_on_c,70,76,2,1,1,81.0,False
16554,2142, Note_on_c,58,76,2,1,1,67.0,False
16555,2143, Note_on_c,63,76,2,1,1,73.0,False
16556,2143, Note_on_c,66,76,2,1,1,77.0,False
16557,2144, Note_on_c,65,76,2,1,1,76.0,True
16558,2144, Note_on_c,68,76,2,1,1,79.0,False
16559,2145, Note_on_c,58,76,2,1,1,67.0,False
16560,2146, Note_on_c,63,76,2,1,1,73.0,False
16561,2146, Note_on_c,66,76,2,1,1,77.0,False
16562,2147, Note_on_c,65,76,2,1,1,76.0,True
16563,2147, Note_on_c,68,76,2,1,1,79.0,False
16564,2148, Note_on_c,63,76,2,1,1,73.0,False
16565,2148, Note_on_c,66,76,2,1,1,77.0,False
16566,2149, Note_on_c,65,76,2,1,1,76.0,True
16567,2149, Note_on_c,70,76,2,1,1,81.0,False
16568,2150, Note_on_c,58,76,2,1,1,67.0,False
16569,2151, Note_on_c,63,76,2,1,1,73.0,False
16570,2151, Note_on_c,66,76,2,1,1,77.0,False
16571,2152, Note_on_c,65,76,2,1,1,76.0,True
16572,2152, Note_on_c,68,76,2,1,1,79.0,False
16573,2153, Note_on_c,58,76,2,1,1,67.0,False
16574,2154, Note_on_c,63,76,2,1,1,73.0,False
16575,2154, Note_on_c,66,76,2,1,1,77.0,False
16576,2155, Note_on_c,65,76,2,1,1,76.0,True
16577,2155, Note_on_c,68,76,2,1,1,79.0,False
16578,2156, Note_on_c,63,76,2,1,1,73.0,False
16579,2156, Note_on_c,66,76,2,1,1,77.0,False
16580,2157, Note_on_c,65,76,2,1,1,76.0,True
16581,2157, Note_on_c,70,76,2,1,1,81.0,False
16582,2158, Note_on_c,58,76,2,1,1,67.0,False
16583,2159, Note_on_c,63,76,2,1,1,73.0,False
16584,2159, Note_on_c,66,76,2,1,1,77.0,False
16585,2160, Note_on_c,65,76,2,1,1,76.0,True
16586,2160, Note_on_c,68,76,2,1,1,79.0,False
16587,2161, Note_on_c,58,76,2,1,1,67.0,False
16588,2162, Note_on_c,63,76,2,1,1,73.0,False
16589,2162, Note_on_c,66,76,2,1,1,77.0,False
16590,2163, Note_on_c,65,76,2,1,1,76.0,True
16591,2163, Note_on_c,68,76,2,1,1,79.0,False
16592,2164, Note_on_c,63,76,2,1,1,73.0,False
16593,2164, Note_on_c,66,76,2,1,1,77.0,False
16594,2165, Note_on_c,65,76,2,1,1,76.0,True
16595,2165, Note_on_c,70,76,2,1,1,81.0,False
16596,2166, Note_on_c,58,76,2,1,1,67.0,False
16597,2167, Note_on_c,63,76,2,1,1,73.0,False
16598,2167, Note_on_c,66,76,2,1,1,77.0,False
16599,2168, Note_on_c,65,76,2,1,1,76.0,True
16600,2168, Note_on_c,68,76,2,1,1,79.0,False
16601,2169, Note_on_c,58,76,2,1,1,67.0,False
16602,2170, Note_on_c,63,76,2,1,1,73.0,False
16603,2170, Note_on_c,66,76,2,1,1,77.0,False
16604,2171, Note_on_c,65,76,2,1,1,76.0,True
16605,2171, Note_on_c,68,76,2,1,1,79.0,False
16606,2172, Note_on_c,63,76,2,1,1,73.0,False
16607,2172, Note_on_c,66,76,2,1,1,77.0,False
16608,2173, Note_on_c,65,76,2,1,1,76.0,True
16609,2173, Note_on_c,70,76,2,1,1,81.0,False
16610,2174, Note_on_c,58,76,2,1,1,67.0,False
16611,2175, Note_on_c,63,76,2,1,1,73.0,False
16612,2175, Note_on_c,66,76,2,1,1,77.0,False
16613,2176, Note_on_c,65,76,2,1,1,76.0,True
16614,2176, Note_on_c,68,76,2,1,1,79.0,False
16615,2177, Note_on_c,58,76,2,1,1,67.0,False
16616,2178, Note_on_c,63,76,2,1,1,73.0,False
16617,2178, Note_on_c,66,76,2,1,1,77.0,False
16618,2179, Note_on_c,65,76,2,1,1,76.0,True
16619,2179, Note_on_c,68,76,2,1,1,79.0,False
16620,2180, Note_on_c,63,76,2,1,1,73.0,False
16621,2180, Note_on_c,66,76,2,1,1,77.0,False
16622,2181, Note_on_c,65,76,2,1,1,76.0,True
16623,2181, Note_on_c,70,76,2,1,1,81.0,False
16624,2182, Note_on_c,58,76,2,1,1,67.0,False
16625,2183, Note_on_c,63,76,2,1,1,73.0,False
16626,2183, Note_on_c,66,76,2,1,1,77.0,False
16627,2184, Note_on_c,65,76,2,1,1,76.0,True
16628,2184, Note_on_c,68,76,2,1,1,79.0,False
16629,2185, Note_on_c,58,76,2,1,1,67.0,False
16630,2186, Note_on_c,63,76,2,1,1,73.0,False
16631,2186, Note_on_c,66,76,2,1,1,77.0,False
16632,2187, Note_on_c,65,76,2,1,1,76.0,True
16633,2187, Note_on_c,68,76,2,1,1,79.0,False
16634,2188, Note_on_c,63,76,2,1,1,73.0,False
16635,2188, Note_on_c,66,76,2,1,1,77.0,False
16636,2189, Note_on_c,65,76,2,1,1,76.0,True
16637,2189, Note_on_c,70,76,2,1,1,81.0,False
16638,2190, Note_on_c,58,76,2,1,1,67.0,False
16639,2191, Note_on_c,63,76,2,1,1,73.0,False
16640,2191, Note_on_c,66,76,2,1,1,77.0,False
16641,2192, Note_on_c,65,76,2,1,1,76.0,True
16642,2192, Note_on_c,68,76,2,1,1,79.0,False
16643,2193, Note_on_c,58,76,2,1,1,67.0,False
16644,2194, Note_on_c,63,76,2,1,1,73.0,False
16645,2194, Note_on_c,66,76,2,1,1,77.0,False
16646,2195, Note_on_c,65,76,2,1,1,76.0,True
16647,2195, Note_on_c,68,76,2,1,1,79.0,False
16648,2196, Note_on_c,63,76,2,1,1,73.0,False
16649,2196, Note_on_c,66,76,2,1,1,77.0,False
16650,2197, Note_on_c,65,76,2,1,1,76.0,True
16651,2197, Note_on_c,70,76,2,1,1,81.0,False
16652,2198, Note_on_c,58,76,2,1,1,67.0,False
16653,2199, Note_on_c,63,76,2,1,1,73.0,False
16654,2199, Note_on_c,66,76,2,1,1,77.0,False
16655,2200, Note_on_c,65,76,2,1,1,76.0,True
16656,2200, Note_on_c,68,76,2,1,1,79.0,False
16657,2201, Note_on_c,58,76,2,1,1,67.0,False
16658,2202, Note_on_c,63,76,2,1,1,73.0,False
16659,2202, Note_on_c,66,76,2,1,1,77.0,False
16660,2203, Note_on_c,65,76,2,1,1,76.0,True
16661,2203, Note_on_c,68,76,2,1,1,79.0,False
16662,2204, Note_on_c,63,76,2,1,1,73.0,False
16663,2204, Note_on_c,66,76,2,1,1,77.0,False
16664,2205, Note_on_c,65,76,2,1,1,76.0,True
16665,2205, Note_on_c,70,76,2,1,1,81.0,False
16666,2206, Note_on_c,58,76,2,1,1,67.0,False
16667,2207, Note_on_c,63,76,2,1,1,73.0,False
16668,2207, Note_on_c,66,76,2,1,1,77.0,False
16669,2208, Note_on_c,65,76,2,1,1,76.0,True
16670,2208, Note_on_c,68,76,2,1,1,79.0,False
16671,2209, Note_on_c,58,76,2,1,1,67.0,False
16672,2210, Note_on_c,63,76,2,1,1,73.0,False
16673,2210, Note_on_c,66,76,2,1,1,77.0,False
16674,2211, Note_on_c,65,76,2,1,1,76.0,True
16675,2211, Note_on_c,68,76,2,1,1,79.0,False
16676,2212, Note_on_c,63,76,2,1,1,73.0,False
16677,2212, Note_on_c,66,76,2,1,1,77.0,False
16678,2213, Note_on_c,65,76,2,1,1,76.0,True
16679,2213, Note_on_c,70,76,2,1,1,81.0,False
16680,2214, Note_on_c,58,76,2,1,1,67.0,False
16681,2215, Note_on_c,63,76,2,1,1,73.0,False
16682,2215, Note_on_c,66,76,2,1,1,77.0,False
16683,2216, Note_on_c,65,76,2,1,1,76.0,True
16684,2216, Note_on_c,68,76,2,1,1,79.0,False
16685,2217, Note_on_c,58,76,2,1,1,67.0,False
16686,2218, Note_on_c,63,76,2,1,1,73.0,False
16687,2218, Note_on_c,66,76,2,1,1,77.0,False
16688,2219, Note_on_c,65,76,2,1,1,76.0,True
16689,2219, Note_on_c,68,76,2,1,1,79.0,False
16690,2220, Note_on_c,63,76,2,1,1,73.0,False
16691,2220, Note_on_c,66,76,2,1,1,77.0,False
16692,2221, Note_on_c,65,76,2,1,1,76.0,True
16693,2221, Note_on_c,70,76,2,1,1,81.0,False
16694,2222, Note_on_c,58,76,2,1,1,67.0,False
16695,2223, Note_on_c,63,76,2,1,1,73.0,False
16696,2223, Note_on_c,66,76,2,1,1,77.0,False
16697,2224, Note_on_c,65,76,2,1,1,76.0,True
16698,2224, Note_on_c,68,76,2,1,1,79.0,False
16699,2225, Note_on_c,58,76,2,1,1,67.0,False
16700,2226, Note_on_c,63,76,2,1,1,73.0,False
16701,2226, Note_on_c,66,76,2,1,1,77.0,False
16702,2227, Note_on_c,65,76,2,1,1,76.0,True
16703,2227, Note_on_c,68,76,2,1,1,79.0,False
16704,2228, Note_on_c,63,76,2,1,1,73.0,False
16705,2228, Note_on_c,66,76,2,1,1,77.0,False
16706,2229, Note_on_c,65,76,2,1,1,76.0,True
16707,2229, Note_on_c,70,76,2,1,1,81.0,False
16708,2230, Note_on_c,58,76,2,1,1,67.0,False
16709,2231, Note_on_c,63,76,2,1,1,73.0,False
16710,2231, Note_on_c,66,76,2,1,1,77.0,False
16711,2232, Note_on_c,65,76,2,1,1,76.0,True
16712,2232, Note_on_c,68,76,2,1,1,79.0,False
16713,2233, Note_on_c,58,76,2,1,1,67.0,False
16714,2234, Note_on_c,63,76,2,1,1,73.0,False
16715,2234, Note_on_c,66,76,2,1,1,77.0,False
16716,2235, Note_on_c,65,76,2,1,1,76.0,True
16717,2235, Note_on_c,68,76,2,1,1,79.0,False
16718,2236, Note_on_c,63,76,2,1,1,73.0,False
16719,2236, Note_on_c,66,76,2,1,1,77.0,False
16720,2237, Note_on_c,65,76,2,1,1,76.0,True
16721,2237, Note_on_c,70,76,2,1,1,81.0,False
16722,2238, Note_on_c,58,76,2,1,1,67.0,False
16723,2239, Note_on_c,63,76,2,1,1,73.0,False
16724,2239, Note_on_c,66,76,2,1,1,77.0,False
16725,2240, Note_on_c,65,76,2,1,1,76.0,True
16726,2240, Note_on_c,68,76,2,1,1,79.0,False
16727,2241, Note_on_c,58,76,2,1,1,67.0,False
16728,2242, Note_on_c,63,76,2,1,1,73.0,False
16729,2242, Note_on_c,66,76,2,1,1,77.0,False
16730,2243, Note_on_c,65,76,2,1,1,76.0,True
16731,2243, Note_on_c,68,76,2,1,1,79.0,False
16732,2244, Note_on_c,63,76,2,1,1,73.0,False
16733,2244, Note_on_c,66,76,2,1,1,77.0,False
16734,2245, Note_on_c,65,76,2,1,1,76.0,True
16735,2245, Note_on_c,70,76,2,1,1,81.0,False
16736,2246, Note_on_c,58,76,2,1,1,67.0,False
16737,2247, Note_on_c,63,76,2,1,1,73.0,False
16738,2247, Note_on_c,66,76,2,1,1,77.0,False
16739,2248, Note_on_c,65,76,2,1,1,76.0,True
16740,2248, Note_on_c,68,76,2,1,1,79.0,False
16741,2249, Note_on_c,58,76,2,1,1,67.0,False
16742,2250, Note_on_c,63,76,2,1,1,73.0,False
16743,2250, Note_on_c,66,76,2,1,1,77.0,False
16744,2251, Note_on_c,65,76,2,1,1,76.0,True
16745,2251, Note_on_c,68,76,2,1,1,79.0,False
16746,2252, Note_on_c,63,76,2,1,1,73.0,False
16747,2252, Note_on_c,66,76,2,1,1,77.0,False
16748,2253, Note_on_c,65,76,2,1,1,76.0,True
16749,2253, Note_on_c,70,76,2,1,1,81.0,False
16750,2254, Note_on_c,58,76,2,1,1,67.0,False
16751,2255, Note_on_c,63,76,2,1,1,73.0,False
16752,2255, Note_on_c,66,76,2,1,1,77.0,False
16753,2256, Note_on_c,65,76,2,1,1,76.0,True
16754,2256, Note_on_c,68,76,2,1,1,79.0,False
16755,2257, Note_on_c,58,76,2,1,1,67.0,False
16756,2258, Note_on_c,63,76,2,1,1,73.0,False
16757,2258, Note_on_c,66,76,2,1,1,77.0,False
16758,2259, Note_on_c,65,76,2,1,1,76.0,True
16759,2259, Note_on_c,68,76,2,1,1,79.0,False
16760,2260, Note_on_c,63,76,2,1,1,73.0,False
16761,2260, Note_on_c,66,76,2,1,1,77.0,False
16762,2261, Note_on_c,65,76,2,1,1,76.0,True
16763,2261, Note_on_c,70,76,2,1,1,81.0,False
16764,2262, Note_on_c,58,76,2,1,1,67.0,False
16765,2263, Note_on_c,63,76,2,1,1,73.0,False
16766,2263, Note_on_c,66,76,2,1,1,77.0,False
16767,2264, Note_on_c,65,76,2,1,1,76.0,True
16768,2264, Note_on_c,68,76,2,1,1,79.0,False
16769,2265, Note_on_c,58,76,2,1,1,67.0,False
16770,2266, Note_on_c,63,76,2,1,1,73.0,False
16771,2266, Note_on_c,66,76,2,1,1,77.0,False
16772,2267, Note_on_c,65,76,2,1,1,76.0,True
16773,2267, Note_on_c,68,76,2,1,1,79.0,False
16774,2268, Note_on_c,63,76,2,1,1,73.0,False
16775,2268, Note_on_c,66,76,2,1,1,77.0,False
16776,2269, Note_on_c,65,76,2,1,1,76.0,True
16777,2269, Note_on_c,70,76,2,1,1,81.0,False
16778,2270, Note_on_c,58,76,2,1,1,67.0,False
16779,2271, Note_on_c,63,76,2,1,1,73.0,False
16780,2271, Note_on_c,66,76,2,1,1,77.0,False
16781,2272, Note_on_c,65,76,2,1,1,76.0,True
16782,2272, Note_on_c,68,76,2,1,1,79.0,False
16783,2273, Note_on_c,58,76,2,1,1,67.0,False
16784,2274, Note_on_c,63,76,2,1,1,73.0,False
16785,2274, Note_on_c,66,76,2,1,1,77.0,False
16786,2275, Note_on_c,65,76,2,1,1,76.0,True
16787,2275, Note_on_c,68,76,2,1,1,79.0,False
16788,2276, Note_on_c,63,76,2,1,1,73.0,False
16789,2276, Note_on_c,66,76,2,1,1,77.0,False
16790,2277, Note_on_c,65,76,2,1,1,76.0,True
16791,2277, Note_on_c,70,76,2,1,1,81.0,False
16792,2278, Note_on_c,58,76,2,1,1,67.0,False
16793,2279, Note_on_c,63,76,2,1,1,73.0,False
16794,2279, Note_on_c,66,76,2,1,1,77.0,False
16795,2280, Note_on_c,65,76,2,1,1,76.0,True
16796,2280, Note_on_c,68,76,2,1,1,79.0,False
16797,2281, Note_on_c,58,76,2,1,1,67.0,False
16798,2282, Note_on_c,63,76,2,1,1,73.0,False
16799,2282, Note_on_c,66,76,2,1,1,77.0,False
16800,2283, Note_on_c,65,76,2,1,1,76.0,True
16801,2283, Note_on_c,68,76,2,1,1,79.0,False
16802,2284, Note_on_c,63,76,2,1,1,73.0,False
16803,2284, Note_on_c,66,76,2,1,1,77.0,False
16804,2285, Note_on_c,65,76,2,1,1,76.0,True
16805,2285, Note_on_c,70,76,2,1,1,81.0,False
16806,2286, Note_on_c,58,76,2,1,1,67.0,False
16807,2287, Note_on_c,63,76,2,1,1,73.0,False
16808,2287, Note_on_c,66,76,2,1,1,77.0,False
16809,2288, Note_on_c,65,76,2,1,1,76.0,True
16810,2288, Note_on_c,68,76,2,1,1,79.0,False
16811,2289, Note_on_c,58,76,2,1,1,67.0,False
16812,2290, Note_on_c,63,76,2,1,1,73.0,False
16813,2290, Note_on_c,66,76,2,1,1,77.0,False
16814,2291, Note_on_c,65,76,2,1,1,76.0,True
16815,2291, Note_on_c,68,76,2,1,1,79.0,False
16816,2292, Note_on_c,63,76,2,1,1,73.0,False
16817,2292, Note_on_c,66,76,2,1,1,77.0,False
16818,2293, Note_on_c,65,76,2,1,1,76.0,True
16819,2293, Note_on_c,70,76,2,1,1,81.0,False
16820,2294, Note_on_c,58,76,2,1,1,67.0,False
16821,2295, Note_on_c,63,76,2,1,1,73.0,False
16822,2295, Note_on_c,66,76,2,1,1,77.0,False
16823,2296, Note_on_c,65,76,2,1,1,76.0,True
16824,2296, Note_on_c,68,76,2,1,1,79.0,False
16825,2297, Note_on_c,58,76,2,1,1,67.0,False
16826,2298, Note_on_c,63,76,2,1,1,73.0,False
16827,2298, Note_on_c,66,76,2,1,1,77.0,False
16828,2299, Note_on_c,65,76,2,1,1,76.0,True
16829,2299, Note_on_c,68,76,2,1,1,79.0,False
16830,2300, Note_on_c,63,76,2,1,1,73.0,False
16831,2300, Note_on_c,66,76,2,1,1,77.0,False
16832,2301, Note_on_c,65,76,2,1,1,76.0,True
16833,2301, Note_on_c,70,76,2,1,1,81.0,False
16834,2302, Note_on_c,58,76,2,1,1,67.0,False
16835,2303, Note_on_c,63,76,2,1,1,73.0,False
16836,2303, Note_on_c,66,76,2,1,1,77.0,False
16837,2304, Note_on_c,65,76,2,1,1,76.0,True
16838,2304, Note_on_c,68,76,2,1,1,79.0,False
16839,2305, Note_on_c,58,76,2,1,1,67.0,False
16840,2306, Note_on_c,63,76,2,1,1,73.0,False
16841,2306, Note_on_c,66,76,2,1,1,77.0,False
16842,2307, Note_on_c,65,76,2,1,1,76.0,True
16843,2307, Note_on_c,68,76,2,1,1,79.0,False
16844,2308, Note_on_c,63,76,2,1,1,73.0,False
16845,2308, Note_on_c,66,76,2,1,1,77.0,False
16846,2309, Note_on_c,65,76,2,1,1,76.0,True
16847,2309, Note_on_c,70,76,2,1,1,81.0,False
16848,2310, Note_on_c,58,76,2,1,1,67.0,False
16849,2311, Note_on_c,63,76,2,1,1,73.0,False
16850,2311, Note_on_c,66,76,2,1,1,77.0,False
16851,2312, Note_on_c,65,76,2,1,1,76.0,True
16852,2312, Note_on_c,68,76,2,1,1,79.0,False
16853,2313, Note_on_c,58,76,2,1,1,67.0,False
16854,2314, Note_on_c,63,76,2,1,1,73.0,False
16855,2314, Note_on_c,66,76,2,1,1,77.0,False
16856,2315, Note_on_c,65,76,2,1,1,76.0,True
16857,2315, Note_on_c,68,76,2,1,1,79.0,False
16858,2316, Note_on_c,63,76,2,1,1,73.0,False
16859,2316, Note_on_c,66,76,2,1,1,77.0,False
16860,2317, Note_on_c,65,76,2,1,1,76.0,True
16861,2317, Note_on_c,70,76,2,1,1,81.0,False
16862,2318, Note_on_c,58,76,2,1,1,67.0,False
16863,2319, Note_on_c,63,76,2,1,1,73.0,False
16864,2319, Note_on_c,66,76,2,1,1,77.0,False
16865,2320, Note_on_c,65,76,2,1,1,76.0,True
16866,2320, Note_on_c,68,76,2,1,1,79.0,False
16867,2321, Note_on_c,58,76,2,1,1,67.0,False
16868,2322, Note_on_c,63,76,2,1,1,73.0,False
16869,2322, Note_on_c,66,76,2,1,1,77.0,False
16870,2323, Note_on_c,65,76,2,1,1,76.0,True
16871,2323, Note_on_c,68,76,2,1,1,79.0,False
16872,2324, Note_on_c,63,76,2,1,1,73.0,False
16873,2324, Note_on_c,66,76,2,1,1,77.0,False
16874,2325, Note_on_c,65,76,2,1,1,76.0,True
16875,2325, Note_on_c,70,76,2,1,1,81.0,False
16876,2326, Note_on_c,58,76,2,1,1,67.0,False
16877,2327, Note_on_c,63,76,2,1,1,73.0,False
16878,2327, Note_on_c,66,76,2,1,1,77.0,False
16879,2328, Note_on_c,65,76,2,1,1,76.0,True
16880,2328, Note_on_c,68,76,2,1,1,79.0,False
16881,2329, Note_on_c,58,76,2,1,1,67.0,False
16882,2330, Note_on_c,63,76,2,1,1,73.0,False
16883,2330, Note_on_c,66,76,2,1,1,77.0,False
16884,2331, Note_on_c,65,76,2,1,1,76.0,True
16885,2331, Note_on_c,68,76,2,1,1,79.0,False
16886,2332, Note_on_c,63,76,2,1,1,73.0,False
16887,2332, Note_on_c,66,76,2,1,1,77.0,False
16888,2333, Note_on_c,65,76,2,1,1,76.0,True
16889,2333, Note_on_c,70,76,2,1,1,81.0,False
16890,2334, Note_on_c,58,76,2,1,1,67.0,False
16891,2335, Note_on_c,63,76,2,1,1,73.0,False
16892,2335, Note_on_c,66,76,2,1,1,77.0,False
16893,2336, Note_on_c,65,76,2,1,1,76.0,True
16894,2336, Note_on_c,68,76,2,1,1,79.0,False
16895,2337, Note_on_c,58,76,2,1,1,67.0,False
16896,2338, Note_on_c,63,76,2,1,1,73.0,False
16897,2338, Note_on_c,66,76,2,1,1,77.0,False
16898,2339, Note_on_c,65,76,2,1,1,76.0,True
16899,2339, Note_on_c,68,76,2,1,1,79.0,False
16900,2340, Note_on_c,63,76,2,1,1,73.0,False
16901,2340, Note_on_c,66,76,2,1,1,77.0,False
16902,2341, Note_on_c,65,76,2,1,1,76.0,True
16903,2341, Note_on_c,70,76,2,1,1,81.0,False
16904,2342, Note_on_c,58,76,2,1,1,67.0,False
16905,2343, Note_on_c,63,76,2,1,1,73.0,False
16906,2343, Note_on_c,66,76,2,1,1,77.0,False
16907,2344, Note_on_c,65,76,2,1,1,76.0,True
16908,2344, Note_on_c,68,76,2,1,1,79.0,False
16909,2345, Note_on_c,58,76,2,1,1,67.0,False
16910,2346, Note_on_c,63,76,2,1,1,73.0,False
16911,2346, Note_on_c,66,76,2,1,1,77.0,False
16912,2347, Note_on_c,65,76,2,1,1,76.0,True
16913,2347, Note_on_c,68,76,2,1,1,79.0,False
16914,2348, Note_on_c,63,76,2,1,1,73.0,False
16915,2348, Note_on_c,66,76,2,1,1,77.0,False
16916,2349, Note_on_c,65,76,2,1,1,76.0,True
16917,2349, Note_on_c,70,76,2,1,1,81.0,False
16918,2350, Note_on_c,58,76,2,1,1,67.0,False
16919,2351, Note_on_c,63,76,2,1,1,73.0,False
16920,2351, Note_on_c,66,76,2,1,1,77.0,False
16921,2352, Note_on_c,65,76,2,1,1,76.0,True
16922,2352, Note_on_c,68,76,2,1,1,79.0,False
16923,2353, Note_on_c,58,76,2,1,1,67.0,False
16924,2354, Note_on_c,63,76,2,1,1,73.0,False
16925,2354, Note_on_c,66,76,2,1,1,77.0,False
16926,2355, Note_on_c,65,76,2,1,1,76.0,True
16927,2355, Note_on_c,68,76,2,1,1,79.0,False
16928,2356, Note_on_c,63,76,2,1,1,73.0,False
16929,2356, Note_on_c,66,76,2,1,1,77.0,False
16930,2357, Note_on_c,65,76,2,1,1,76.0,True
16931,2357, Note_on_c,70,76,2,1,1,81.0,False
16932,2358, Note_on_c,58,76,2,1,1,67.0,False
16933,2359, Note_on_c,63,76,2,1,1,73.0,False
16934,2359, Note_on_c,66,76,2,1,1,77.0,False
16935,2360, Note_on_c,65,76,2,1,1,76.0,True
16936,2360, Note_on_c,68,76,2,1,1,79.0,False
16937,2361, Note_on_c,58,76,2,1,1,67.0,False
16938,2362, Note_on_c,63,76,2,1,1,73.0,False
16939,2362, Note_on_c,66,76,2,1,1,77.0,False
16940,2363, Note_on_c,65,76,2,1,1,76.0,True
16941,2363, Note_on_c,68,76,2,1,1,79.0,False
16942,2364, Note_on_c,63,76,2,1,1,73.0,False
16943,2364, Note_on_c,66,76,2,1,1,77.0,False
16944,2365, Note_on_c,65,76,2,1,1,76.0,True
16945,2365, Note_on_c,70,76,2,1,1,81.0,False
16946,2366, Note_on_c,58,76,2,1,1,67.0,False
16947,2367, Note_on_c,63,76,2,1,1,73.0,False
16948,2367, Note_on_c,66,76,2,1,1,77.0,False
16949,2368, Note_on_c,65,76,2,1,1,76.0,True
16950,2368, Note_on_c,68,76,2,1,1,79.0,False
16951,2369, Note_on_c,58,76,2,1,1,67.0,False
16952,2370, Note_on_c,63,76,2,1,1,73.0,False
16953,2370, Note_on_c,66,76,2,1,1,77.0,False
16954,2371, Note_on_c,65,76,2,1,1,76.0,True
16955,2371, Note_on_c,68,76,2,1,1,79.0,False
16956,2372, Note_on_c,63,76,2,1,1,73.0,False
16957,2372, Note_on_c,66,76,2,1,1,77.0,False
16958,2373, Note_on_c,65,76,2,1,1,76.0,True
16959,2373, Note_on_c,70,76,2,1,1,81.0,False
16960,2374, Note_on_c,58,76,2,1,1,67.0,False
16961,2375, Note_on_c,63,76,2,1,1,73.0,False
16962,2375, Note_on_c,66,76,2,1,1,77.0,False
16963,2376, Note_on_c,65,76,2,1,1,76.0,True
16964,2376, Note_on_c,68,76,2,1,1,79.0,False
16965,2377, Note_on_c,58,76,2,1,1,67.0,False
16966,2378, Note_on_c,63,76,2,1,1,73.0,False
16967,2378, Note_on_c,66,76,2,1,1,77.0,False
16968,2379, Note_on_c,65,76,2,1,1,76.0,True
16969,2379, Note_on_c,68,76,2,1,1,79.0,False
16970,2380, Note_on_c,63,76,2,1,1,73.0,False
16971,2380, Note_on_c,66,76,2,1,1,77.0,False
16972,2381, Note_on_c,65,76,2,1,1,76.0,True
16973,2381, Note_on_c,70,76,2,1,1,81.0,False
16974,2382, Note_on_c,58,76,2,1,1,67.0,False
16975,2383, Note_on_c,63,76,2,1,1,73.0,False
16976,2383, Note_on_c,66,76,2,1,1,77.0,False
16977,2384, Note_on_c,65,76,2,1,1,76.0,True
16978,2384, Note_on_c,68,76,2,1,1,79.0,False
16979,2385, Note_on_c,58,76,2,1,1,67.0,False
16980,2386, Note_on_c,63,76,2,1,1,73.0,False
16981,2386, Note_on_c,66,76,2,1,1,77.0,False
16982,2387, Note_on_c,65,76,2,1,1,76.0,True
16983,2387, Note_on_c,68,76,2,1,1,79.0,False
16984,2388, Note_on_c,63,76,2,1,1,73.0,False
16985,2388, Note_on_c,66,76,2,1,1,77.0,False
16986,2389, Note_on_c,65,76,2,1,1,76.0,True
16987,2389, Note_on_c,70,76,2,1,1,81.0,False
16988,2390, Note_on_c,58,76,2,1,1,67.0,False
16989,2391, Note_on_c,63,76,2,1,1,73.0,False
16990,2391, Note_on_c,66,76,2,1,1,77.0,False
16991,2392, Note_on_c,65,76,2,1,1,76.0,True
16992,2392, Note_on_c,68,76,2,1,1,79.0,False
16993,2393, Note_on_c,58,76,2,1,1,67.0,False
16994,2394, Note_on_c,63,76,2,1,1,73.0,False
16995,2394, Note_on_c,66,76,2,1,1,77.0,False
16996,2395, Note_on_c,65,76,2,1,1,76.0,True
16997,2395, Note_on_c,68,76,2,1,1,79.0,False
16998,2396, Note_on_c,63,76,2,1,1,73.0,False
16999,2396, Note_on_c,66,76,2,1,1,77.0,False
17000,2397, Note_on_c,65,76,2,1,1,76.0,True
17001,2397, Note_on_c,70,76,2,1,1,81.0,False
17002,2398, Note_on_c,58,76,2,1,1,67.0,False
17003,2399, Note_on_c,63,76,2,1,1,73.0,False
17004,2399, Note_on_c,66,76,2,1,1,77.0,False
17005,2400, Note_on_c,65,76,2,1,1,76.0,True
17006,2400, Note_on_c,68,76,2,1,1,79.0,False
17007,2401, Note_on_c,58,76,2,1,1,67.0,False
17008,2402, Note_on_c,63,76,2,1,1,73.0,False
17009,2402, Note_on_c,66,76,2,1,1,77.0,False
17010,2403, Note_on_c,65,76,2,1,1,76.0,True
17011,2403, Note_on_c,68,76,2,1,1,79.0,False
17012,2404, Note_on_c,63,76,2,1,1,73.0,False
17013,2404, Note_on_c,66,76,2,1,1,77.0,False
17014,2405, Note_on_c,65,76,2,1,1,76.0,True
17015,2405, Note_on_c,70,76,2,1,1,81.0,False
17016,2406, Note_on_c,58,76,2,1,1,67.0,False
17017,2407, Note_on_c,63,76,2,1,1,73.0,False
17018,2407, Note_on_c,66,76,2,1,1,77.0,False
17019,2408, Note_on_c,65,76,2,1,1,76.0,True
17020,2408, Note_on_c,68,76,2,1,1,79.0,False
17021,2409, Note_on_c,58,76,2,1,1,67.0,False
17022,2410, Note_on_c,63,76,2,1,1,73.0,False
17023,2410, Note_on_c,66,76,2,1,1,77.0,False
17024,2411, Note_on_c,65,76,2,1,1,76.0,True
17025,2411, Note_on_c,68,76,2,1,1,79.0,False
17026,2412, Note_on_c,63,76,2,1,1,73.0,False
17027,2412, Note_on_c,66,76,2,1,1,77.0,False
17028,2413, Note_on_c,65,76,2,1,1,76.0,True
17029,2413, Note_on_c,70,76,2,1,1,81.0,False
17030,2414, Note_on_c,58,76,2,1,1,67.0,False
17031,2415, Note_on_c,63,76,2,1,1,73.0,False
17032,2415, Note_on_c,66,76,2,1,1,77.0,False
17033,2416, Note_on_c,65,76,2,1,1,76.0,True
17034,2416, Note_on_c,68,76,2,1,1,79.0,False
17035,2417, Note_on_c,58,76,2,1,1,67.0,False
17036,2418, Note_on_c,63,76,2,1,1,73.0,False
17037,2418, Note_on_c,66,76,2,1,1,77.0,False
17038,2419, Note_on_c,65,76,2,1,1,76.0,True
17039,2419, Note_on_c,68,76,2,1,1,79.0,False
17040,2420, Note_on_c,63,76,2,1,1,73.0,False
17041,2420, Note_on_c,66,76,2,1,1,77.0,False
17042,2421, Note_on_c,65,76,2,1,1,76.0,True
17043,2421, Note_on_c,70,76,2,1,1,81.0,False
17044,2422, Note_on_c,58,76,2,1,1,67.0,False
17045,2423, Note_on_c,63,76,2,1,1,73.0,False
17046,2423, Note_on_c,66,76,2,1,1,77.0,False
17047,2424, Note_on_c,65,76,2,1,1,76.0,True
17048,2424, Note_on_c,68,76,2,1,1,79.0,False
17049,2425, Note_on_c,58,76,2,1,1,67.0,False
17050,2426, Note_on_c,63,76,2,1,1,73.0,False
17051,2426, Note_on_c,66,76,2,1,1,77.0,False
17052,2427, Note_on_c,65,76,2,1,1,76.0,True
17053,2427, Note_on_c,68,76,2,1,1,79.0,False
17054,2428, Note_on_c,63,76,2,1,1,73.0,False
17055,2428, Note_on_c,66,76,2,1,1,77.0,False
17056,2429, Note_on_c,65,76,2,1,1,76.0,True
17057,2429, Note_on_c,70,76,2,1,1,81.0,False
17058,2430, Note_on_c,58,76,2,1,1,67.0,False
17059,2431, Note_on_c,63,76,2,1,1,73.0,False
17060,2431, Note_on_c,66,76,2,1,1,77.0,False
17061,2432, Note_on_c,65,76,2,1,1,76.0,True
17062,2432, Note_on_c,68,76,2,1,1,79.0,False
17063,2433, Note_on_c,58,76,2,1,1,67.0,False
17064,2434, Note_on_c,63,76,2,1,1,73.0,False
17065,2434, Note_on_c,66,76,2,1,1,77.0,False
17066,2435, Note_on_c,65,76,2,1,1,76.0,True
17067,2435, Note_on_c,68,76,2,1,1,79.0,False
17068,2436, Note_on_c,63,76,2,1,1,73.0,False
17069,2436, Note_on_c,66,76,2,1,1,77.0,False
17070,2437, Note_on_c,65,76,2,1,1,76.0,True
17071,2437, Note_on_c,70,76,2,1,1,81.0,False
17072,2438, Note_on_c,58,76,2,1,1,67.0,False
17073,2439, Note_on_c,63,76,2,1,1,73.0,False
17074,2439, Note_on_c,66,76,2,1,1,77.0,False
17075,2440, Note_on_c,65,76,2,1,1,76.0,True
17076,2440, Note_on_c,68,76,2,1,1,79.0,False
17077,2441, Note_on_c,58,76,2,1,1,67.0,False
17078,2442, Note_on_c,63,76,2,1,1,73.0,False
17079,2442, Note_on_c,66,76,2,1,1,77.0,False
17080,2443, Note_on_c,65,76,2,1,1,76.0,True
17081,2443, Note_on_c,68,76,2,1,1,79.0,False
17082,2444, Note_on_c,63,76,2,1,1,73.0,False
17083,2444, Note_on_c,66,76,2,1,1,77.0,False
17084,2445, Note_on_c,65,76,2,1,1,76.0,True
17085,2445, Note_on_c,70,76,2,1,1,81.0,False
17086,2446, Note_on_c,58,76,2,1,1,67.0,False
17087,2447, Note_on_c,63,76,2,1,1,73.0,False
17088,2447, Note_on_c,66,76,2,1,1,77.0,False
17089,2448, Note_on_c,65,76,2,1,1,76.0,True
17090,2448, Note_on_c,68,76,2,1,1,79.0,False
17091,2449, Note_on_c,58,76,2,1,1,67.0,False
17092,2450, Note_on_c,63,76,2,1,1,73.0,False
17093,2450, Note_on_c,66,76,2,1,1,77.0,False
17094,2451, Note_on_c,65,76,2,1,1,76.0,True
17095,2451, Note_on_c,68,76,2,1,1,79.0,False
17096,2452, Note_on_c,63,76,2,1,1,73.0,False
17097,2452, Note_on_c,66,76,2,1,1,77.0,False
17098,2453, Note_on_c,65,76,2,1,1,76.0,True
17099,2453, Note_on_c,70,76,2,1,1,81.0,False
17100,2454, Note_on_c,58,76,2,1,1,67.0,False
17101,2455, Note_on_c,63,76,2,1,1,73.0,False
17102,2455, Note_on_c,66,76,2,1,1,77.0,False
17103,2456, Note_on_c,65,76,2,1,1,76.0,True
17104,2456, Note_on_c,68,76,2,1,1,79.0,False
17105,2457, Note_on_c,58,76,2,1,1,67.0,False
17106,2458, Note_on_c,63,76,2,1,1,73.0,False
17107,2458, Note_on_c,66,76,2,1,1,77.0,False
17108,2459, Note_on_c,65,76,2,1,1,76.0,True
17109,2459, Note_on_c,68,76,2,1,1,79.0,False
17110,2460, Note_on_c,63,76,2,1,1,73.0,False
17111,2460, Note_on_c,66,76,2,1,1,77.0,False
17112,2461, Note_on_c,65,76,2,1,1,76.0,True
17113,2461, Note_on_c,70,76,2,1,1,81.0,False
17114,2462, Note_on_c,58,76,2,1,1,67.0,False
17115,2463, Note_on_c,63,76,2,1,1,73.0,False
17116,2463, Note_on_c,66,76,2,1,1,77.0,False
17117,2464, Note_on_c,65,76,2,1,1,76.0,True
17118,2464, Note_on_c,68,76,2,1,1,79.0,False
17119,2465, Note_on_c,58,76,2,1,1,67.0,False
17120,2466, Note_on_c,63,76,2,1,1,73.0,False
17121,2466, Note_on_c,66,76,2,1,1,77.0,False
17122,2467, Note_on_c,65,76,2,1,1,76.0,True
17123,2467, Note_on_c,68,76,2,1,1,79.0,False
17124,2468, Note_on_c,63,76,2,1,1,73.0,False
17125,2468, Note_on_c,66,76,2,1,1,77.0,False
17126,2469, Note_on_c,65,76,2,1,1,76.0,True
17127,2469, Note_on_c,70,76,2,1,1,81.0,False
17128,2470, Note_on_c,58,76,2,1,1,67.0,False
17129,2471, Note_on_c,63,76,2,1,1,73.0,False
17130,2471, Note_on_c,66,76,2,1,1,77.0,False
17131,2472, Note_on_c,65,76,2,1,1,76.0,True
17132,2472, Note_on_c,68,76,2,1,1,79.0,False
17133,2473, Note_on_c,58,76,2,1,1,67.0,False
17134,2474, Note_on_c,63,76,2,1,1,73.0,False
17135,2474, Note_on_c,66,76,2,1,1,77.0,False
17136,2475, Note_on_c,65,76,2,1,1,76.0,True
17137,2475, Note_on_c,68,76,2,1,1,79.0,False
17138,2476, Note_on_c,63,76,2,1,1,73.0,False
17139,2476, Note_on_c,66,76,2,1,1,77.0,False
17140,2477, Note_on_c,65,76,2,1,1,76.0,True
17141,2477, Note_on_c,70,76,2,1,1,81.0,False
17142,2478, Note_on_c,58,76,2,1,1,67.0,False
17143,2479, Note_on_c,63,76,2,1,1,73.0,False
17144,2479, Note_on_c,66,76,2,1,1,77.0,False
17145,2480, Note_on_c,65,76,2,1,1,76.0,True
17146,2480, Note_on_c,68,76,2,1,1,79.0,False
17147,2481, Note_on_c,58,76,2,1,1,67.0,False
17148,2482, Note_on_c,63,76,2,1,1,73.0,False
17149,2482, Note_on_c,66,76,2,1,1,77.0,False
17150,2483, Note_on_c,65,76,2,1,1,76.0,True
17151,2483, Note_on_c,68,76,2,1,1,79.0,False
17152,2484, Note_on_c,63,76,2,1,1,73.0,False
17153,2484, Note_on_c,66,76,2,1,1,77.0,False
17154,2485, Note_on_c,65,76,2,1,1,76.0,True
17155,2485, Note_on_c,70,76,2,1,1,81.0,False
17156,2486, Note_on_c,58,76,2,1,1,67.0,False
17157,2487, Note_on_c,63,76,2,1,1,73.0,False
17158,2487, Note_on_c,66,76,2,1,1,77.0,False
17159,2488, Note_on_c,65,76,2,1,1,76.0,True
17160,2488, Note_on_c,68,76,2,1,1,79.0,False
17161,2489, Note_on_c,58,76,2,1,1,67.0,False
17162,2490, Note_on_c,63,76,2,1,1,73.0,False
17163,2490, Note_on_c,66,76,2,1,1,77.0,False
17164,2491, Note_on_c,65,76,2,1,1,76.0,True
17165,2491, Note_on_c,68,76,2,1,1,79.0,False
17166,2492, Note_on_c,63,76,2,1,1,73.0,False
17167,2492, Note_on_c,66,76,2,1,1,77.0,False
17168,2493, Note_on_c,65,76,2,1,1,76.0,True
17169,2493, Note_on_c,70,76,2,1,1,81.0,False
17170,2494, Note_on_c,58,76,2,1,1,67.0,False
17171,2495, Note_on_c,63,76,2,1,1,73.0,False
17172,2495, Note_on_c,66,76,2,1,1,77.0,False
17173,2496, Note_on_c,65,76,2,1,1,76.0,True
17174,2496, Note_on_c,68,76,2,1,1,79.0,False
17175,2497, Note_on_c,58,76,2,1,1,67.0,False
17176,2498, Note_on_c,63,76,2,1,1,73.0,False
17177,2498, Note_on_c,66,76,2,1,1,77.0,False
17178,2499, Note_on_c,65,76,2,1,1,76.0,True
17179,2499, Note_on_c,68,76,2,1,1,79.0,False
17180,2500, Note_on_c,63,76,2,1,1,73.0,False
17181,2500, Note_on_c,66,76,2,1,1,77.0,False
17182,2501, Note_on_c,65,76,2,1,1,76.0,True
17183,2501, Note_on_c,70,76,2,1,1,81.0,False
17184,2502, Note_on_c,58,76,2,1,1,67.0,False
17185,2503, Note_on_c,63,76,2,1,1,73.0,False
17186,2503, Note_on_c,66,76,2,1,1,77.0,False
17187,2504, Note_on_c,65,76,2,1,1,76.0,True
17188,2504, Note_on_c,68,76,2,1,1,79.0,False
17189,2505, Note_on_c,58,76,2,1,1,67.0,False
17190,2506, Note_on_c,63,76,2,1,1,73.0,False
17191,2506, Note_on_c,66,76,2,1,1,77.0,False
17192,2507, Note_on_c,65,76,2,1,1,76.0,True
17193,2507, Note_on_c,68,76,2,1,1,79.0,False
17194,2508, Note_on_c,63,76,2,1,1,73.0,False
17195,2508, Note_on_c,66,76,2,1,1,77.0,False
17196,2509, Note_on_c,65,76,2,1,1,76.0,True
17197,2509, Note_on_c,70,76,2,1,1,81.0,False
17198,2510, Note_on_c,58,76,2,1,1,67.0,False
17199,2511, Note_on_c,63,76,2,1,1,73.0,False
17200,2511, Note_on_c,66,76,2,1,1,77.0,False
17201,2512, Note_on_c,65,76,2,1,1,76.0,True
17202,2512, Note_on_c,68,76,2,1,1,79.0,False
17203,2513, Note_on_c,58,76,2,1,1,67.0,False
17204,2514, Note_on_c,63,76,2,1,1,73.0,False
17205,2514, Note_on_c,66,76,2,1,1,77.0,False
17206,2515, Note_on_c,65,76,2,1,1,76.0,True
17207,2515, Note_on_c,68,76,2,1,1,79.0,False
17208,2516, Note_on_c,63,76,2,1,1,73.0,False
17209,2516, Note_on_c,66,76,2,1,1,77.0,False
17210,2517, Note_on_c,65,76,2,1,1,76.0,True
17211,2517, Note_on_c,70,76,2,1,1,81.0,False
17212,2518, Note_on_c,58,76,2,1,1,67.0,False
17213,2519, Note_on_c,63,76,2,1,1,73.0,False
17214,2519, Note_on_c,66,76,2,1,1,77.0,False
17215,2520, Note_on_c,65,76,2,1,1,76.0,True
17216,2520, Note_on_c,68,76,2,1,1,79.0,False
17217,2521, Note_on_c,58,76,2,1,1,67.0,False
17218,2522, Note_on_c,63,76,2,1,1,73.0,False
17219,2522, Note_on_c,66,76,2,1,1,77.0,False
17220,2523, Note_on_c,65,76,2,1,1,76.0,True
17221,2523, Note_on_c,68,76,2,1,1,79.0,False
17222,2524, Note_on_c,63,76,2,1,1,73.0,False
17223,2524, Note_on_c,66,76,2,1,1,77.0,False
17224,2525, Note_on_c,65,76,2,1,1,76.0,True
17225,2525, Note_on_c,70,76,2,1,1,81.0,False
17226,2526, Note_on_c,58,76,2,1,1,67.0,False
17227,2527, Note_on_c,63,76,2,1,1,73.0,False
17228,2527, Note_on_c,66,76,2,1,1,77.0,False
17229,2528, Note_on_c,65,76,2,1,1,76.0,True
17230,2528, Note_on_c,68,76,2,1,1,79.0,False
17231,2529, Note_on_c,58,76,2,1,1,67.0,False
17232,2530, Note_on_c,63,76,2,1,1,73.0,False
17233,2530, Note_on_c,66,76,2,1,1,77.0,False
17234,2531, Note_on_c,65,76,2,1,1,76.0,True
17235,2531, Note_on_c,68,76,2,1,1,79.0,False
17236,2532, Note_on_c,63,76,2,1,1,73.0,False
17237,2532, Note_on_c,66,76,2,1,1,77.0,False
17238,2533, Note_on_c,65,76,2,1,1,76.0,True
17239,2533, Note_on_c,70,76,2,1,1,81.0,False
17240,2534, Note_on_c,58,76,2,1,1,67.0,False
17241,2535, Note_on_c,63,76,2,1,1,73.0,False
17242,2535, Note_on_c,66,76,2,1,1,77.0,False
17243,2536, Note_on_c,65,76,2,1,1,76.0,True
17244,2536, Note_on_c,68,76,2,1,1,79.0,False
17245,2537, Note_on_c,58,76,2,1,1,67.0,False
17246,2538, Note_on_c,63,76,2,1,1,73.0,False
17247,2538, Note_on_c,66,76,2,1,1,77.0,False
17248,2539, Note_on_c,65,76,2,1,1,76.0,True
17249,2539, Note_on_c,68,76,2,1,1,79.0,False
17250,2540, Note_on_c,63,76,2,1,1,73.0,False
17251,2540, Note_on_c,66,76,2,1,1,77.0,False
17252,2541, Note_on_c,65,76,2,1,1,76.0,True
17253,2541, Note_on_c,70,76,2,1,1,81.0,False
17254,2542, Note_on_c,58,76,2,1,1,67.0,False
17255,2543, Note_on_c,63,76,2,1,1,73.0,False
17256,2543, Note_on_c,66,76,2,1,1,77.0,False
17257,2544, Note_on_c,65,76,2,1,1,76.0,True
17258,2544, Note_on_c,68,76,2,1,1,79.0,False
17259,2545, Note_on_c,58,76,2,1,1,67.0,False
17260,2546, Note_on_c,63,76,2,1,1,73.0,False
17261,2546, Note_on_c,66,76,2,1,1,77.0,False
17262,2547, Note_on_c,65,76,2,1,1,76.0,True
17263,2547, Note_on_c,68,76,2,1,1,79.0,False
17264,2548, Note_on_c,63,76,2,1,1,73.0,False
17265,2548, Note_on_c,66,76,2,1,1,77.0,False
17266,2549, Note_on_c,65,76,2,1,1,76.0,True
17267,2549, Note_on_c,70,76,2,1,1,81.0,False
17268,2550, Note_on_c,58,76,2,1,1,67.0,False
17269,2551, Note_on_c,63,76,2,1,1,73.0,False
17270,2551, Note_on_c,66,76,2,1,1,77.0,False
17271,2552, Note_on_c,65,76,2,1,1,76.0,True
17272,2552, Note_on_c,68,76,2,1,1,79.0,False
17273,2553, Note_on_c,58,76,2,1,1,67.0,False
17274,2554, Note_on_c,63,76,2,1,1,73.0,False
17275,2554, Note_on_c,66,76,2,1,1,77.0,False
17276,2555, Note_on_c,65,76,2,1,1,76.0,True
17277,2555, Note_on_c,68,76,2,1,1,79.0,False
17278,2556, Note_on_c,63,76,2,1,1,73.0,False
17279,2556, Note_on_c,66,76,2,1,1,77.0,False
17280,2557, Note_on_c,65,76,2,1,1,76.0,True
17281,2557, Note_on_c,70,76,2,1,1,81.0,False
17282,2558, Note_on_c,58,76,2,1,1,67.0,False
17283,2559, Note_on_c,63,76,2,1,1,73.0,False
17284,2559, Note_on_c,66,76,2,1,1,77.0,False
17285,2560, Note_on_c,65,76,2,1,1,76.0,True
17286,2560, Note_on_c,68,76,2,1,1,79.0,False
17287,2561, Note_on_c,58,76,2,1,1,67.0,False
17288,2562, Note_on_c,63,76,2,1,1,73.0,False
17289,2562, Note_on_c,66,76,2,1,1,77.0,False
17290,2563, Note_on_c,65,76,2,1,1,76.0,True
17291,2563, Note_on_c,68,76,2,1,1,79.0,False
17292,2564, Note_on_c,63,76,2,1,1,73.0,False
17293,2564, Note_on_c,66,76,2,1,1,77.0,False
17294,2565, Note_on_c,65,76,2,1,1,76.0,True
17295,2565, Note_on_c,70,76,2,1,1,81.0,False
17296,2566, Note_on_c,58,76,2,1,1,67.0,False
17297,2567, Note_on_c,63,76,2,1,1,73.0,False
17298,2567, Note_on_c,66,76,2,1,1,77.0,False
17299,2568, Note_on_c,65,76,2,1,1,76.0,True
17300,2568, Note_on_c,68,76,2,1,1,79.0,False
17301,2569, Note_on_c,58,76,2,1,1,67.0,False
17302,2570, Note_on_c,63,76,2,1,1,73.0,False
17303,2570, Note_on_c,66,76,2,1,1,77.0,False
17304,2571, Note_on_c,65,76,2,1,1,76.0,True
17305,2571, Note_on_c,68,76,2,1,1,79.0,False
17306,2572, Note_on_c,63,76,2,1,1,73.0,False
17307,2572, Note_on_c,66,76,2,1,1,77.0,False
17308,2573, Note_on_c,65,76,2,1,1,76.0,True
17309,2573, Note_on_c,70,76,2,1,1,81.0,False
17310,2574, Note_on_c,58,76,2,1,1,67.0,False
17311,2575, Note_on_c,63,76,2,1,1,73.0,False
17312,2575, Note_on_c,66,76,2,1,1,77.0,False
17313,2576, Note_on_c,65,76,2,1,1,76.0,True
17314,2576, Note_on_c,68,76,2,1,1,79.0,False
17315,2577, Note_on_c,58,76,2,1,1,67.0,False
17316,2578, Note_on_c,63,76,2,1,1,73.0,False
17317,2578, Note_on_c,66,76,2,1,1,77.0,False
17318,2579, Note_on_c,65,76,2,1,1,76.0,True
17319,2579, Note_on_c,68,76,2,1,1,79.0,False
17320,2580, Note_on_c,63,76,2,1,1,73.0,False
17321,2580, Note_on_c,66,76,2,1,1,77.0,False
17322,2581, Note_on_c,65,76,2,1,1,76.0,True
17323,2581, Note_on_c,70,76,2,1,1,81.0,False
17324,2582, Note_on_c,58,76,2,1,1,67.0,False
17325,2583, Note_on_c,63,76,2,1,1,73.0,False
17326,2583, Note_on_c,66,76,2,1,1,77.0,False
17327,2584, Note_on_c,65,76,2,1,1,76.0,True
17328,2584, Note_on_c,68,76,2,1,1,79.0,False
17329,2585, Note_on_c,58,76,2,1,1,67.0,False
17330,2586, Note_on_c,63,76,2,1,1,73.0,False
17331,2586, Note_on_c,66,76,2,1,1,77.0,False
17332,2587, Note_on_c,65,76,2,1,1,76.0,True
17333,2587, Note_on_c,68,76,2,1,1,79.0,False
17334,2588, Note_on_c,63,76,2,1,1,73.0,False
17335,2588, Note_on_c,66,76,2,1,1,77.0,False
17336,2589, Note_on_c,65,76,2,1,1,76.0,True
17337,2589, Note_on_c,70,76,2,1,1,81.0,False
17338,2590, Note_on_c,58,76,2,1,1,67.0,False
17339,2591, Note_on_c,63,76,2,1,1,73.0,False
17340,2591, Note_on_c,66,76,2,1,1,77.0,False
17341,2592, Note_on_c,65,76,2,1,1,76.0,True
17342,2592, Note_on_c,68,76,2,1,1,79.0,False
17343,2593, Note_on_c,58,76,2,1,1,67.0,False
17344,2594, Note_on_c,63,76,2,1,1,73.0,False
17345,2594, Note_on_c,66,76,2,1,1,77.0,False
17346,2595, Note_on_c,65,76,2,1,1,76.0,True
17347,2595, Note_on_c,68,76,2,1,1,79.0,False
17348,2596, Note_on_c,63,76,2,1,1,73.0,False
17349,2596, Note_on_c,66,76,2,1,1,77.0,False
17350,2597, Note_on_c,65,76,2,1,1,76.0,True
17351,2597, Note_on_c,70,76,2,1,1,81.0,False
17352,2598, Note_on_c,58,76,2,1,1,67.0,False
17353,2599, Note_on_c,63,76,2,1,1,73.0,False
17354,2599, Note_on_c,66,76,2,1,1,77.0,False
17355,2600, Note_on_c,65,76,2,1,1,76.0,True
17356,2600, Note_on_c,68,76,2,1,1,79.0,False
17357,2601, Note_on_c,58,76,2,1,1,67.0,False
17358,2602, Note_on_c,63,76,2,1,1,73.0,False
17359,2602, Note_on_c,66,76,2,1,1,77.0,False
17360,2603, Note_on_c,65,76,2,1,1,76.0,True
17361,2603, Note_on_c,68,76,2,1,1,79.0,False
17362,2604, Note_on_c,63,76,2,1,1,73.0,False
17363,2604, Note_on_c,66,76,2,1,1,77.0,False
17364,2605, Note_on_c,65,76,2,1,1,76.0,True
17365,2605, Note_on_c,70,76,2,1,1,81.0,False
17366,2606, Note_on_c,58,76,2,1,1,67.0,False
17367,2607, Note_on_c,63,76,2,1,1,73.0,False
17368,2607, Note_on_c,66,76,2,1,1,77.0,False
17369,2608, Note_on_c,65,76,2,1,1,76.0,True
17370,2608, Note_on_c,68,76,2,1,1,79.0,False
17371,2609, Note_on_c,58,76,2,1,1,67.0,False
17372,2610, Note_on_c,63,76,2,1,1,73.0,False
17373,2610, Note_on_c,66,76,2,1,1,77.0,False
17374,2611, Note_on_c,65,76,2,1,1,76.0,True
17375,2611, Note_on_c,68,76,2,1,1,79.0,False
17376,2612, Note_on_c,63,76,2,1,1,73.0,False
17377,2612, Note_on_c,66,76,2,1,1,77.0,False
17378,2613, Note_on_c,65,76,2,1,1,76.0,True
17379,2613, Note_on_c,70,76,2,1,1,81.0,False
17380,2614, Note_on_c,58,76,2,1,1,67.0,False
17381,2615, Note_on_c,63,76,2,1,1,73.0,False
17382,2615, Note_on_c,66,76,2,1,1,77.0,False
17383,2616, Note_on_c,65,76,2,1,1,76.0,True
17384,2616, Note_on_c,68,76,2,1,1,79.0,False
17385,2617, Note_on_c,58,76,2,1,1,67.0,False
17386,2618, Note_on_c,63,76,2,1,1,73.0,False
17387,2618, Note_on_c,66,76,2,1,1,77.0,False
17388,2619, Note_on_c,65,76,2,1,1,76.0,True
17389,2619, Note_on_c,68,76,2,1,1,79.0,False
17390,2620, Note_on_c,63,76,2,1,1,73.0,False
17391,2620, Note_on_c,66,76,2,1,1,77.0,False
17392,2621, Note_on_c,65,76,2,1,1,76.0,True
17393,2621, Note_on_c,70,76,2,1,1,81.0,False
17394,2622, Note_on_c,58,76,2,1,1,67.0,False
17395,2623, Note_on_c,63,76,2,1,1,73.0,False
17396,2623, Note_on_c,66,76,2,1,1,77.0,False
17397,2624, Note_on_c,65,76,2,1,1,76.0,True
17398,2624, Note_on_c,68,76,2,1,1,79.0,False
17399,2625, Note_on_c,58,76,2,2,1,67.0,False
17400,2626, Note_on_c,63,76,2,2,1,73.0,False
17401,2626, Note_on_c,66,76,2,2,1,77.0,False
17402,2627, Note_on_c,65,76,2,2,1,76.0,True
17403,2627, Note_on_c,68,76,2,2,1,79.0,False
17404,2628, Note_on_c,63,76,2,2,1,73.0,False
17405,2628, Note_on_c,66,76,2,2,1,77.0,False
17406,2629, Note_on_c,65,76,2,2,1,76.0,True
17407,2629, Note_on_c,70,76,2,2,1,81.0,False
17408,2630, Note_on_c,58,76,2,2,1,67.0,False
17409,2631, Note_on_c,63,76,2,2,1,73.0,False
17410,2631, Note_on_c,66,76,2,2,1,77.0,False
17411,2632, Note_on_c,65,76,2,2,1,76.0,True
17412,2632, Note_on_c,68,76,2,2,1,79.0,False
17413,2633, Note_on_c,58,76,2,2,1,67.0,False
17414,2634, Note_on_c,63,76,2,2,1,73.0,False
17415,2634, Note_on_c,66,76,2,2,1,77.0,False
17416,2635, Note_on_c,65,76,2,2,1,76.0,True
17417,2635, Note_on_c,68,76,2,2,1,79.0,False
17418,2636, Note_on_c,63,76,2,2,1,73.0,False
17419,2636, Note_on_c,66,76,2,2,1,77.0,False
17420,2637, Note_on_c,65,76,2,2,1,76.0,True
17421,2637, Note_on_c,70,76,2,2,1,81.0,False
17422,2638, Note_on_c,58,76,2,2,1,67.0,False
17423,2639, Note_on_c,63,76,2,2,1,73.0,False
17424,2639, Note_on_c,66,76,2,2,1,77.0,False
17425,2640, Note_on_c,65,76,2,2,1,76.0,True
17426,2640, Note_on_c,68,76,2,2,1,79.0,False
17427,2641, Note_on_c,58,76,2,2,1,67.0,False
17428,2642, Note_on_c,63,76,2,2,1,73.0,False
17429,2642, Note_on_c,66,76,2,2,1,77.0,False
17430,2643, Note_on_c,65,76,2,2,1,76.0,True
17431,2643, Note_on_c,68,76,2,2,1,79.0,False
17432,2644, Note_on_c,63,76,2,2,1,73.0,False
17433,2644, Note_on_c,66,76,2,2,1,77.0,False
17434,2645, Note_on_c,65,76,2,2,1,76.0,True
17435,2645, Note_on_c,70,76,2,2,1,81.0,False
17436,2646, Note_on_c,58,76,2,2,1,67.0,False
17437,2647, Note_on_c,63,76,2,2,1,73.0,False
17438,2647, Note_on_c,66,76,2,2,1,77.0,False
17439,2648, Note_on_c,65,76,2,2,1,76.0,True
17440,2648, Note_on_c,68,76,2,2,1,79.0,False
17441,2649, Note_on_c,58,76,2,2,1,67.0,False
17442,2650, Note_on_c,63,76,2,2,1,73.0,False
17443,2650, Note_on_c,66,76,2,2,1,77.0,False
17444,2651, Note_on_c,65,76,2,2,1,76.0,True
17445,2651, Note_on_c,68,76,2,2,1,79.0,False
17446,2652, Note_on_c,63,76,2,2,1,73.0,False
17447,2652, Note_on_c,66,76,2,2,1,77.0,False
17448,2653, Note_on_c,65,76,2,2,1,76.0,True
17449,2653, Note_on_c,70,76,2,2,1,81.0,False
17450,2654, Note_on_c,58,76,2,2,1,67.0,False
17451,2655, Note_on_c,63,76,2,2,1,73.0,False
17452,2655, Note_on_c,66,76,2,2,1,77.0,False
17453,2656, Note_on_c,65,76,2,2,1,76.0,True
17454,2656, Note_on_c,68,76,2,2,1,79.0,False
17455,2657, Note_on_c,58,76,2,2,1,67.0,False
17456,2658, Note_on_c,63,76,2,2,1,73.0,False
17457,2658, Note_on_c,66,76,2,2,1,77.0,False
17458,2659, Note_on_c,65,76,2,2,1,76.0,True
17459,2659, Note_on_c,68,76,2,2,1,79.0,False
17460,2660, Note_on_c,63,76,2,2,1,73.0,False
17461,2660, Note_on_c,66,76,2,2,1,77.0,False
17462,2661, Note_on_c,65,76,2,2,1,76.0,True
17463,2661, Note_on_c,70,76,2,2,1,81.0,False
17464,2662, Note_on_c,58,76,2,2,1,67.0,False
17465,2663, Note_on_c,63,76,2,2,1,73.0,False
17466,2663, Note_on_c,66,76,2,2,1,77.0,False
17467,2664, Note_on_c,65,76,2,2,1,76.0,True
17468,2664, Note_on_c,68,76,2,2,1,79.0,False
17469,2665, Note_on_c,58,76,2,2,1,67.0,False
17470,2666, Note_on_c,63,76,2,2,1,73.0,False
17471,2666, Note_on_c,66,76,2,2,1,77.0,False
17472,2667, Note_on_c,65,76,2,2,1,76.0,True
17473,2667, Note_on_c,68,76,2,2,1,79.0,False
17474,2668, Note_on_c,63,76,2,2,1,73.0,False
17475,2668, Note_on_c,66,76,2,2,1,77.0,False
17476,2669, Note_on_c,65,76,2,2,1,76.0,True
17477,2669, Note_on_c,70,76,2,2,1,81.0,False
17478,2670, Note_on_c,58,76,2,2,1,67.0,False
17479,2671, Note_on_c,63,76,2,2,1,73.0,False
17480,2671, Note_on_c,66,76,2,2,1,77.0,False
17481,2672, Note_on_c,65,76,2,2,1,76.0,True
17482,2672, Note_on_c,68,76,2,2,1,79.0,False
17483,2673, Note_on_c,58,76,2,2,1,67.0,False
17484,2674, Note_on_c,63,76,2,2,1,73.0,False
17485,2674, Note_on_c,66,76,2,2,1,77.0,False
17486,2675, Note_on_c,65,76,2,2,1,76.0,True
17487,2675, Note_on_c,68,76,2,2,1,79.0,False
17488,2676, Note_on_c,63,76,2,2,1,73.0,False
17489,2676, Note_on_c,66,76,2,2,1,77.0,False
17490,2677, Note_on_c,65,76,2,2,1,76.0,True
17491,2677, Note_on_c,70,76,2,2,1,81.0,False
17492,2678, Note_on_c,58,76,2,2,1,67.0,False
17493,2679, Note_on_c,63,76,2,2,1,73.0,False
17494,2679, Note_on_c,66,76,2,2,1,77.0,False
17495,2680, Note_on_c,65,76,2,2,1,76.0,True
17496,2680, Note_on_c,68,76,2,2,1,79.0,False
17497,2681, Note_on_c,58,76,2,2,1,67.0,False
17498,2682, Note_on_c,63,76,2,2,1,73.0,False
17499,2682, Note_on_c,66,76,2,2,1,77.0,False
17500,2683, Note_on_c,65,76,2,2,1,76.0,True
17501,2683, Note_on_c,68,76,2,2,1,79.0,False
17502,2684, Note_on_c,63,76,2,2,1,73.0,False
17503,2684, Note_on_c,66,76,2,2,1,77.0,False
17504,2685, Note_on_c,65,76,2,2,1,76.0,True
17505,2685, Note_on_c,70,76,2,2,1,81.0,False
17506,2686, Note_on_c,58,76,2,2,1,67.0,False
17507,2687, Note_on_c,63,76,2,2,1,73.0,False
17508,2687, Note_on_c,66,76,2,2,1,77.0,False
17509,2688, Note_on_c,65,76,2,2,1,76.0,True
17510,2688, Note_on_c,68,76,2,2,1,79.0,False
17511,2689, Note_on_c,58,76,2,2,1,67.0,False
17512,2690, Note_on_c,63,76,2,2,1,73.0,False
17513,2690, Note_on_c,66,76,2,2,1,77.0,False
17514,2691, Note_on_c,65,76,2,2,1,76.0,True
17515,2691, Note_on_c,68,76,2,2,1,79.0,False
17516,2692, Note_on_c,63,76,2,2,1,73.0,False
17517,2692, Note_on_c,66,76,2,2,1,77.0,False
17518,2693, Note_on_c,65,76,2,2,1,76.0,True
17519,2693, Note_on_c,70,76,2,2,1,81.0,False
17520,2694, Note_on_c,58,76,2,2,1,67.0,False
17521,2695, Note_on_c,63,76,2,2,1,73.0,False
17522,2695, Note_on_c,66,76,2,2,1,77.0,False
17523,2696, Note_on_c,65,76,2,2,1,76.0,True
17524,2696, Note_on_c,68,76,2,2,1,79.0,False
17525,2697, Note_on_c,58,76,2,2,1,67.0,False
17526,2698, Note_on_c,63,76,2,2,1,73.0,False
17527,2698, Note_on_c,66,76,2,2,1,77.0,False
17528,2699, Note_on_c,65,76,2,2,1,76.0,True
17529,2699, Note_on_c,68,76,2,2,1,79.0,False
17530,2700, Note_on_c,63,76,2,2,1,73.0,False
17531,2700, Note_on_c,66,76,2,2,1,77.0,False
17532,2701, Note_on_c,65,76,2,2,1,76.0,True
17533,2701, Note_on_c,70,76,2,2,1,81.0,False
17534,2702, Note_on_c,58,76,2,2,1,67.0,False
17535,2703, Note_on_c,63,76,2,2,1,73.0,False
17536,2703, Note_on_c,66,76,2,2,1,77.0,False
17537,2704, Note_on_c,65,76,2,2,1,76.0,True
17538,2704, Note_on_c,68,76,2,2,1,79.0,False
17539,2705, Note_on_c,58,76,2,2,1,67.0,False
17540,2706, Note_on_c,63,76,2,2,1,73.0,False
17541,2706, Note_on_c,66,76,2,2,1,77.0,False
17542,2707, Note_on_c,65,76,2,2,1,76.0,True
17543,2707, Note_on_c,68,76,2,2,1,79.0,False
17544,2708, Note_on_c,63,76,2,2,1,73.0,False
17545,2708, Note_on_c,66,76,2,2,1,77.0,False
17546,2709, Note_on_c,65,76,2,2,1,76.0,True
17547,2709, Note_on_c,70,76,2,2,1,81.0,False
17548,2710, Note_on_c,58,76,2,2,1,67.0,False
17549,2711, Note_on_c,63,76,2,2,1,73.0,False
17550,2711, Note_on_c,66,76,2,2,1,77.0,False
17551,2712, Note_on_c,65,76,2,2,1,76.0,True
17552,2712, Note_on_c,68,76,2,2,1,79.0,False
17553,2713, Note_on_c,58,76,2,2,1,67.0,False
17554,2714, Note_on_c,63,76,2,2,1,73.0,False
17555,2714, Note_on_c,66,76,2,2,1,77.0,False
17556,2715, Note_on_c,65,76,2,2,1,76.0,True
17557,2715, Note_on_c,68,76,2,2,1,79.0,False
17558,2716, Note_on_c,63,76,2,2,1,73.0,False
17559,2716, Note_on_c,66,76,2,2,1,77.0,False
17560,2717, Note_on_c,65,76,2,2,1,76.0,True
17561,2717, Note_on_c,70,76,2,2,1,81.0,False
17562,2718, Note_on_c,58,76,2,2,1,67.0,False
17563,2719, Note_on_c,63,76,2,2,1,73.0,False
17564,2719, Note_on_c,66,76,2,2,1,77.0,False
17565,2720, Note_on_c,65,76,2,2,1,76.0,True
17566,2720, Note_on_c,68,76,2,2,1,79.0,False
17567,2721, Note_on_c,58,76,2,2,1,67.0,False
17568,2722, Note_on_c,63,76,2,2,1,73.0,False
17569,2722, Note_on_c,66,76,2,2,1,77.0,False
17570,2723, Note_on_c,65,76,2,2,1,76.0,True
17571,2723, Note_on_c,68,76,2,2,1,79.0,False
17572,2724, Note_on_c,63,76,2,2,1,73.0,False
17573,2724, Note_on_c,66,76,2,2,1,77.0,False
17574,2725, Note_on_c,65,76,2,2,1,76.0,True
17575,2725, Note_on_c,70,76,2,2,1,81.0,False
17576,2726, Note_on_c,58,76,2,2,1,67.0,False
17577,2727, Note_on_c,63,76,2,2,1,73.0,False
17578,2727, Note_on_c,66,76,2,2,1,77.0,False
17579,2728, Note_on_c,65,76,2,2,1,76.0,True
17580,2728, Note_on_c,68,76,2,2,1,79.0,False
17581,2729, Note_on_c,58,76,2,2,1,67.0,False
17582,2730, Note_on_c,63,76,2,2,1,73.0,False
17583,2730, Note_on_c,66,76,2,2,1,77.0,False
17584,2731, Note_on_c,65,76,2,2,1,76.0,True
17585,2731, Note_on_c,68,76,2,2,1,79.0,False
17586,2732, Note_on_c,63,76,2,2,1,73.0,False
17587,2732, Note_on_c,66,76,2,2,1,77.0,False
17588,2733, Note_on_c,65,76,2,2,1,76.0,True
17589,2733, Note_on_c,70,76,2,2,1,81.0,False
17590,2734, Note_on_c,58,76,2,2,1,67.0,False
17591,2735, Note_on_c,63,76,2,2,1,73.0,False
17592,2735, Note_on_c,66,76,2,2,1,77.0,False
17593,2736, Note_on_c,65,76,2,2,1,76.0,True
17594,2736, Note_on_c,68,76,2,2,1,79.0,False
17595,2737, Note_on_c,58,76,2,2,1,67.0,False
17596,2738, Note_on_c,63,76,2,2,1,73.0,False
17597,2738, Note_on_c,66,76,2,2,1,77.0,False
17598,2739, Note_on_c,65,76,2,2,1,76.0,True
17599,2739, Note_on_c,68,76,2,2,1,79.0,False
17600,2740, Note_on_c,63,76,2,2,1,73.0,False
17601,2740, Note_on_c,66,76,2,2,1,77.0,False
17602,2741, Note_on_c,65,76,2,2,1,76.0,True
17603,2741, Note_on_c,70,76,2,2,1,81.0,False
17604,2742, Note_on_c,58,76,2,2,1,67.0,False
17605,2743, Note_on_c,63,76,2,2,1,73.0,False
17606,2743, Note_on_c,66,76,2,2,1,77.0,False
17607,2744, Note_on_c,65,76,2,2,1,76.0,True
17608,2744, Note_on_c,68,76,2,2,1,79.0,False
17609,2745, Note_on_c,58,76,2,2,1,67.0,False
17610,2746, Note_on_c,63,76,2,2,1,73.0,False
17611,2746, Note_on_c,66,76,2,2,1,77.0,False
17612,2747, Note_on_c,65,76,2,2,1,76.0,True
17613,2747, Note_on_c,68,76,2,2,1,79.0,False
17614,2748, Note_on_c,63,76,2,2,1,73.0,False
17615,2748, Note_on_c,66,76,2,2,1,77.0,False
17616,2749, Note_on_c,65,76,2,2,1,76.0,True
17617,2749, Note_on_c,70,76,2,2,1,81.0,False
17618,2750, Note_on_c,58,76,2,2,1,67.0,False
17619,2751, Note_on_c,63,76,2,2,1,73.0,False
17620,2751, Note_on_c,66,76,2,2,1,77.0,False
17621,2752, Note_on_c,65,76,2,2,1,76.0,True
17622,2752, Note_on_c,68,76,2,2,1,79.0,False
17623,2753, Note_on_c,58,76,2,2,1,67.0,False
17624,2754, Note_on_c,63,76,2,2,1,73.0,False
17625,2754, Note_on_c,66,76,2,2,1,77.0,False
17626,2755, Note_on_c,65,76,2,2,1,76.0,True
17627,2755, Note_on_c,68,76,2,2,1,79.0,False
17628,2756, Note_on_c,63,76,2,2,1,73.0,False
17629,2756, Note_on_c,66,76,2,2,1,77.0,False
17630,2757, Note_on_c,65,76,2,2,1,76.0,True
17631,2757, Note_on_c,70,76,2,2,1,81.0,False
17632,2758, Note_on_c,58,76,2,2,1,67.0,False
17633,2759, Note_on_c,63,76,2,2,1,73.0,False
17634,2759, Note_on_c,66,76,2,2,1,77.0,False
17635,2760, Note_on_c,65,76,2,2,1,76.0,True
17636,2760, Note_on_c,68,76,2,2,1,79.0,False
17637,2761, Note_on_c,58,76,2,2,1,67.0,False
17638,2762, Note_on_c,63,76,2,2,1,73.0,False
17639,2762, Note_on_c,66,76,2,2,1,77.0,False
17640,2763, Note_on_c,65,76,2,2,1,76.0,True
17641,2763, Note_on_c,68,76,2,2,1,79.0,False
17642,2764, Note_on_c,63,76,2,2,1,73.0,False
17643,2764, Note_on_c,66,76,2,2,1,77.0,False
17644,2765, Note_on_c,65,76,2,2,1,76.0,True
17645,2765, Note_on_c,70,76,2,2,1,81.0,False
17646,2766, Note_on_c,58,76,2,2,1,67.0,False
17647,2767, Note_on_c,63,76,2,2,1,73.0,False
17648,2767, Note_on_c,66,76,2,2,1,77.0,False
17649,2768, Note_on_c,65,76,2,2,1,76.0,True
17650,2768, Note_on_c,68,76,2,2,1,79.0,False
17651,2769, Note_on_c,58,76,2,2,1,67.0,False
17652,2770, Note_on_c,63,76,2,2,1,73.0,False
17653,2770, Note_on_c,66,76,2,2,1,77.0,False
17654,2771, Note_on_c,65,76,2,2,1,76.0,True
17655,2771, Note_on_c,68,76,2,2,1,79.0,False
17656,2772, Note_on_c,63,76,2,2,1,73.0,False
17657,2772, Note_on_c,66,76,2,2,1,77.0,False
17658,2773, Note_on_c,65,76,2,2,1,76.0,True
17659,2773, Note_on_c,70,76,2,2,1,81.0,False
17660,2774, Note_on_c,58,76,2,2,1,67.0,False
17661,2775, Note_on_c,63,76,2,2,1,73.0,False
17662,2775, Note_on_c,66,76,2,2,1,77.0,False
17663,2776, Note_on_c,65,76,2,2,1,76.0,True
17664,2776, Note_on_c,68,76,2,2,1,79.0,False
17665,2777, Note_on_c,58,76,2,2,1,67.0,False
17666,2778, Note_on_c,63,76,2,2,1,73.0,False
17667,2778, Note_on_c,66,76,2,2,1,77.0,False
17668,2779, Note_on_c,65,76,2,2,1,76.0,True
17669,2779, Note_on_c,68,76,2,2,1,79.0,False
17670,2780, Note_on_c,63,76,2,2,1,73.0,False
17671,2780, Note_on_c,66,76,2,2,1,77.0,False
17672,2781, Note_on_c,65,76,2,2,1,76.0,True
17673,2781, Note_on_c,70,76,2,2,1,81.0,False
17674,2782, Note_on_c,58,76,2,2,1,67.0,False
17675,2783, Note_on_c,63,76,2,2,1,73.0,False
17676,2783, Note_on_c,66,76,2,2,1,77.0,False
17677,2784, Note_on_c,65,76,2,2,1,76.0,True
17678,2784, Note_on_c,68,76,2,2,1,79.0,False
17679,2785, Note_on_c,58,76,2,2,1,67.0,False
17680,2786, Note_on_c,63,76,2,2,1,73.0,False
17681,2786, Note_on_c,66,76,2,2,1,77.0,False
17682,2787, Note_on_c,65,76,2,2,1,76.0,True
17683,2787, Note_on_c,68,76,2,2,1,79.0,False
17684,2788, Note_on_c,63,76,2,2,1,73.0,False
17685,2788, Note_on_c,66,76,2,2,1,77.0,False
17686,2789, Note_on_c,65,76,2,2,1,76.0,True
17687,2789, Note_on_c,70,76,2,2,1,81.0,False
17688,2790, Note_on_c,58,76,2,2,1,67.0,False
17689,2791, Note_on_c,63,76,2,2,1,73.0,False
17690,2791, Note_on_c,66,76,2,2,1,77.0,False
17691,2792, Note_on_c,65,76,2,2,1,76.0,True
17692,2792, Note_on_c,68,76,2,2,1,79.0,False
17693,2793, Note_on_c,58,76,2,2,1,67.0,False
17694,2794, Note_on_c,63,76,2,2,1,73.0,False
17695,2794, Note_on_c,66,76,2,2,1,77.0,False
17696,2795, Note_on_c,65,76,2,2,1,76.0,True
17697,2795, Note_on_c,68,76,2,2,1,79.0,False
17698,2796, Note_on_c,63,76,2,2,1,73.0,False
17699,2796, Note_on_c,66,76,2,2,1,77.0,False
17700,2797, Note_on_c,65,76,2,2,1,76.0,True
17701,2797, Note_on_c,70,76,2,2,1,81.0,False
17702,2798, Note_on_c,58,76,2,2,1,67.0,False
17703,2799, Note_on_c,63,76,2,2,1,73.0,False
17704,2799, Note_on_c,66,76,2,2,1,77.0,False
17705,2800, Note_on_c,65,76,2,2,1,76.0,True
17706,2800, Note_on_c,68,76,2,2,1,79.0,False
17707,2801, Note_on_c,58,76,2,2,1,67.0,False
17708,2802, Note_on_c,63,76,2,2,1,73.0,False
17709,2802, Note_on_c,66,76,2,2,1,77.0,False
17710,2803, Note_on_c,65,76,2,2,1,76.0,True
17711,2803, Note_on_c,68,76,2,2,1,79.0,False
17712,2804, Note_on_c,63,76,2,2,1,73.0,False
17713,2804, Note_on_c,66,76,2,2,1,77.0,False
17714,2805, Note_on_c,65,76,2,2,1,76.0,True
17715,2805, Note_on_c,70,76,2,2,1,81.0,False
17716,2806, Note_on_c,58,76,2,2,1,67.0,False
17717,2807, Note_on_c,63,76,2,2,1,73.0,False
17718,2807, Note_on_c,66,76,2,2,1,77.0,False
17719,2808, Note_on_c,65,76,2,2,1,76.0,True
17720,2808, Note_on_c,68,76,2,2,1,79.0,False
17721,2809, Note_on_c,58,76,2,2,1,67.0,False
17722,2810, Note_on_c,63,76,2,2,1,73.0,False
17723,2810, Note_on_c,66,76,2,2,1,77.0,False
17724,2811, Note_on_c,65,76,2,2,1,76.0,True
17725,2811, Note_on_c,68,76,2,2,1,79.0,False
17726,2812, Note_on_c,63,76,2,2,1,73.0,False
17727,2812, Note_on_c,66,76,2,2,1,77.0,False
17728,2813, Note_on_c,65,76,2,2,1,76.0,True
17729,2813, Note_on_c,70,76,2,2,1,81.0,False
17730,2814, Note_on_c,58,76,2,2,1,67.0,False
17731,2815, Note_on_c,63,76,2,2,1,73.0,False
17732,2815, Note_on_c,66,76,2,2,1,77.0,False
17733,2816, Note_on_c,65,76,2,2,1,76.0,True
17734,2816, Note_on_c,68,76,2,2,1,79.0,False
17735,2817, Note_on_c,58,76,2,2,1,67.0,False
17736,2818, Note_on_c,63,76,2,2,1,73.0,False
17737,2818, Note_on_c,66,76,2,2,1,77.0,False
17738,2819, Note_on_c,65,76,2,2,1,76.0,True
17739,2819, Note_on_c,68,76,2,2,1,79.0,False
17740,2820, Note_on_c,63,76,2,2,1,73.0,False
17741,2820, Note_on_c,66,76,2,2,1,77.0,False
17742,2821, Note_on_c,65,76,2,2,1,76.0,True
17743,2821, Note_on_c,70,76,2,2,1,81.0,False
17744,2822, Note_on_c,58,76,2,2,1,67.0,False
17745,2823, Note_on_c,63,76,2,2,1,73.0,False
17746,2823, Note_on_c,66,76,2,2,1,77.0,False
17747,2824, Note_on_c,65,76,2,2,1,76.0,True
17748,2824, Note_on_c,68,76,2,2,1,79.0,False
17749,2825, Note_on_c,58,76,2,2,1,67.0,False
17750,2826, Note_on_c,63,76,2,2,1,73.0,False
17751,2826, Note_on_c,66,76,2,2,1,77.0,False
17752,2827, Note_on_c,65,76,2,2,1,76.0,True
17753,2827, Note_on_c,68,76,2,2,1,79.0,False
17754,2828, Note_on_c,63,76,2,2,1,73.0,False
17755,2828, Note_on_c,66,76,2,2,1,77.0,False
17756,2829, Note_on_c,65,76,2,2,1,76.0,True
17757,2829, Note_on_c,70,76,2,2,1,81.0,False
17758,2830, Note_on_c,58,76,2,2,1,67.0,False
17759,2831, Note_on_c,63,76,2,2,1,73.0,False
17760,2831, Note_on_c,66,76,2,2,1,77.0,False
17761,2832, Note_on_c,65,76,2,2,1,76.0,True
17762,2832, Note_on_c,68,76,2,2,1,79.0,False
17763,2833, Note_on_c,58,76,2,2,1,67.0,False
17764,2834, Note_on_c,63,76,2,2,1,73.0,False
17765,2834, Note_on_c,66,76,2,2,1,77.0,False
17766,2835, Note_on_c,65,76,2,2,1,76.0,True
17767,2835, Note_on_c,68,76,2,2,1,79.0,False
17768,2836, Note_on_c,63,76,2,2,1,73.0,False
17769,2836, Note_on_c,66,76,2,2,1,77.0,False
17770,2837, Note_on_c,65,76,2,2,1,76.0,True
17771,2837, Note_on_c,70,76,2,2,1,81.0,False
17772,2838, Note_on_c,58,76,2,2,1,67.0,False
17773,2839, Note_on_c,63,76,2,2,1,73.0,False
17774,2839, Note_on_c,66,76,2,2,1,77.0,False
17775,2840, Note_on_c,65,76,2,2,1,76.0,True
17776,2840, Note_on_c,68,76,2,2,1,79.0,False
17777,2841, Note_on_c,58,76,2,2,1,67.0,False
17778,2842, Note_on_c,63,76,2,2,1,73.0,False
17779,2842, Note_on_c,66,76,2,2,1,77.0,False
17780,2843, Note_on_c,65,76,2,2,1,76.0,True
17781,2843, Note_on_c,68,76,2,2,1,79.0,False
17782,2844, Note_on_c,63,76,2,2,1,73.0,False
17783,2844, Note_on_c,66,76,2,2,1,77.0,False
17784,2845, Note_on_c,65,76,2,2,1,76.0,True
17785,2845, Note_on_c,70,76,2,2,1,81.0,False
17786,2846, Note_on_c,58,76,2,2,1,67.0,False
17787,2847, Note_on_c,63,76,2,2,1,73.0,False
17788,2847, Note_on_c,66,76,2,2,1,77.0,False
17789,2848, Note_on_c,65,76,2,2,1,76.0,True
17790,2848, Note_on_c,68,76,2,2,1,79.0,False
17791,2849, Note_on_c,58,76,2,2,1,67.0,False
17792,2850, Note_on_c,63,76,2,2,1,73.0,False
17793,2850, Note_on_c,66,76,2,2,1,77.0,False
17794,2851, Note_on_c,65,76,2,2,1,76.0,True
17795,2851, Note_on_c,68,76,2,2,1,79.0,False
17796,2852, Note_on_c,63,76,2,2,1,73.0,False
17797,2852, Note_on_c,66,76,2,2,1,77.0,False
17798,2853, Note_on_c,65,76,2,2,1,76.0,True
17799,2853, Note_on_c,70,76,2,2,1,81.0,False
17800,2854, Note_on_c,58,76,2,2,1,67.0,False
17801,2855, Note_on_c,63,76,2,2,1,73.0,False
17802,2855, Note_on_c,66,76,2,2,1,77.0,False
17803,2856, Note_on_c,65,76,2,2,1,76.0,True
17804,2856, Note_on_c,68,76,2,2,1,79.0,False
17805,2857, Note_on_c,58,76,2,2,1,67.0,False
17806,2858, Note_on_c,63,76,2,2,1,73.0,False
17807,2858, Note_on_c,66,76,2,2,1,77.0,False
17808,2859, Note_on_c,65,76,2,2,1,76.0,True
17809,2859, Note_on_c,68,76,2,2,1,79.0,False
17810,2860, Note_on_c,63,76,2,2,1,73.0,False
17811,2860, Note_on_c,66,76,2,2,1,77.0,False
17812,2861, Note_on_c,65,76,2,2,1,76.0,True
17813,2861, Note_on_c,70,76,2,2,1,81.0,False
17814,2862, Note_on_c,58,76,2,2,1,67.0,False
17815,2863, Note_on_c,63,76,2,2,1,73.0,False
17816,2863, Note_on_c,66,76,2,2,1,77.0,False
17817,2864, Note_on_c,65,76,2,2,1,76.0,True
17818,2864, Note_on_c,68,76,2,2,1,79.0,False
17819,2865, Note_on_c,58,76,2,2,1,67.0,False
17820,2866, Note_on_c,63,76,2,2,1,73.0,False
17821,2866, Note_on_c,66,76,2,2,1,77.0,False
17822,2867, Note_on_c,65,76,2,2,1,76.0,True
17823,2867, Note_on_c,68,76,2,2,1,79.0,False
17824,2868, Note_on_c,63,76,2,2,1,73.0,False
17825,2868, Note_on_c,66,76,2,2,1,77.0,False
17826,2869, Note_on_c,65,76,2,2,1,76.0,True
17827,2869, Note_on_c,70,76,2,2,1,81.0,False
17828,2870, Note_on_c,58,76,2,2,1,67.0,False
17829,2871, Note_on_c,63,76,2,2,1,73.0,False
17830,2871, Note_on_c,66,76,2,2,1,77.0,False
17831,2872, Note_on_c,65,76,2,2,1,76.0,True
17832,2872, Note_on_c,68,76,2,2,1,79.0,False
17833,2873, Note_on_c,58,76,2,2,1,67.0,False
17834,2874, Note_on_c,63,76,2,2,1,73.0,False
17835,2874, Note_on_c,66,76,2,2,1,77.0,False
17836,2875, Note_on_c,65,76,2,2,1,76.0,True
17837,2875, Note_on_c,68,76,2,2,1,79.0,False
17838,2876, Note_on_c,63,76,2,2,1,73.0,False
17839,2876, Note_on_c,66,76,2,2,1,77.0,False
17840,2877, Note_on_c,65,76,2,2,1,76.0,True
17841,2877, Note_on_c,70,76,2,2,1,81.0,False
17842,2878, Note_on_c,58,76,2,2,1,67.0,False
17843,2879, Note_on_c,63,76,2,2,1,73.0,False
17844,2879, Note_on_c,66,76,2,2,1,77.0,False
17845,2880, Note_on_c,65,76,2,2,1,76.0,True
17846,2880, Note_on_c,68,76,2,2,1,79.0,False
17847,2881, Note_on_c,58,76,2,2,1,67.0,False
17848,2882, Note_on_c,63,76,2,2,1,73.0,False
17849,2882, Note_on_c,66,76,2,2,1,77.0,False
17850,2883, Note_on_c,65,76,2,2,1,76.0,True
17851,2883, Note_on_c,68,76,2,2,1,79.0,False
17852,2884, Note_on_c,63,76,2,2,1,73.0,False
17853,2884, Note_on_c,66,76,2,2,1,77.0,False
17854,2885, Note_on_c,65,76,2,2,1,76.0,True
17855,2885, Note_on_c,70,76,2,2,1,81.0,False
17856,2886, Note_on_c,58,76,2,2,1,67.0,False
17857,2887, Note_on_c,63,76,2,2,1,73.0,False
17858,2887, Note_on_c,66,76,2,2,1,77.0,False
17859,2888, Note_on_c,65,76,2,2,1,76.0,True
17860,2888, Note_on_c,68,76,2,2,1,79.0,False
17861,2889, Note_on_c,58,76,2,2,1,67.0,False
17862,2890, Note_on_c,63,76,2,2,1,73.0,False
17863,2890, Note_on_c,66,76,2,2,1,77.0,False
17864,2891, Note_on_c,65,76,2,2,1,76.0,True
17865,2891, Note_on_c,68,76,2,2,1,79.0,False
17866,2892, Note_on_c,63,76,2,2,1,73.0,False
17867,2892, Note_on_c,66,76,2,2,1,77.0,False
17868,2893, Note_on_c,65,76,2,2,1,76.0,True
17869,2893, Note_on_c,70,76,2,2,1,81.0,False
17870,2894, Note_on_c,58,76,2,2,1,67.0,False
17871,2895, Note_on_c,63,76,2,2,1,73.0,False
17872,2895, Note_on_c,66,76,2,2,1,77.0,False
17873,2896, Note_on_c,65,76,2,2,1,76.0,True
17874,2896, Note_on_c,68,76,2,2,1,79.0,False
17875,2897, Note_on_c,58,76,2,2,1,67.0,False
17876,2898, Note_on_c,63,76,2,2,1,73.0,False
17877,2898, Note_on_c,66,76,2,2,1,77.0,False
17878,2899, Note_on_c,65,76,2,2,1,76.0,True
17879,2899, Note_on_c,68,76,2,2,1,79.0,False
17880,2900, Note_on_c,63,76,2,2,1,73.0,False
17881,2900, Note_on_c,66,76,2,2,1,77.0,False
17882,2901, Note_on_c,65,76,2,2,1,76.0,True
17883,2901, Note_on_c,70,76,2,2,1,81.0,False
17884,2902, Note_on_c,58,76,2,2,1,67.0,False
17885,2903, Note_on_c,63,76,2,2,1,73.0,False
17886,2903, Note_on_c,66,76,2,2,1,77.0,False
17887,2904, Note_on_c,65,76,2,2,1,76.0,True
17888,2904, Note_on_c,68,76,2,2,1,79.0,False
17889,2905, Note_on_c,58,76,2,2,1,67.0,False
17890,2906, Note_on_c,63,76,2,2,1,73.0,False
17891,2906, Note_on_c,66,76,2,2,1,77.0,False
17892,2907, Note_on_c,65,76,2,2,1,76.0,True
17893,2907, Note_on_c,68,76,2,2,1,79.0,False
17894,2908, Note_on_c,63,76,2,2,1,73.0,False
17895,2908, Note_on_c,66,76,2,2,1,77.0,False
17896,2909, Note_on_c,65,76,2,2,1,76.0,True
17897,2909, Note_on_c,70,76,2,2,1,81.0,False
17898,2910, Note_on_c,58,76,2,2,1,67.0,False
17899,2911, Note_on_c,63,76,2,2,1,73.0,False
17900,2911, Note_on_c,66,76,2,2,1,77.0,False
17901,2912, Note_on_c,65,76,2,2,1,76.0,True
17902,2912, Note_on_c,68,76,2,2,1,79.0,False
17903,2913, Note_on_c,58,76,2,2,1,67.0,False
17904,2914, Note_on_c,63,76,2,2,1,73.0,False
17905,2914, Note_on_c,66,76,2,2,1,77.0,False
17906,2915, Note_on_c,65,76,2,2,1,76.0,True
17907,2915, Note_on_c,68,76,2,2,1,79.0,False
17908,2916, Note_on_c,63,76,2,2,1,73.0,False
17909,2916, Note_on_c,66,76,2,2,1,77.0,False
17910,2917, Note_on_c,65,76,2,2,1,76.0,True
17911,2917, Note_on_c,70,76,2,2,1,81.0,False
17912,2918, Note_on_c,58,76,2,2,1,67.0,False
17913,2919, Note_on_c,63,76,2,2,1,73.0,False
17914,2919, Note_on_c,66,76,2,2,1,77.0,False
17915,2920, Note_on_c,65,76,2,2,1,76.0,True
17916,2920, Note_on_c,68,76,2,2,1,79.0,False
17917,2921, Note_on_c,58,76,2,2,1,67.0,False
17918,2922, Note_on_c,63,76,2,2,1,73.0,False
17919,2922, Note_on_c,66,76,2,2,1,77.0,False
17920,2923, Note_on_c,65,76,2,2,1,76.0,True
17921,2923, Note_on_c,68,76,2,2,1,79.0,False
17922,2924, Note_on_c,63,76,2,2,1,73.0,False
17923,2924, Note_on_c,66,76,2,2,1,77.0,False
17924,2925, Note_on_c,65,76,2,2,1,76.0,True
17925,2925, Note_on_c,70,76,2,2,1,81.0,False
17926,2926, Note_on_c,58,76,2,2,1,67.0,False
17927,2927, Note_on_c,63,76,2,2,1,73.0,False
17928,2927, Note_on_c,66,76,2,2,1,77.0,False
17929,2928, Note_on_c,65,76,2,2,1,76.0,True
17930,2928, Note_on_c,68,76,2,2,1,79.0,False
17931,2929, Note_on_c,58,76,2,2,1,67.0,False
17932,2930, Note_on_c,63,76,2,2,1,73.0,False
17933,2930, Note_on_c,66,76,2,2,1,77.0,False
17934,2931, Note_on_c,65,76,2,2,1,76.0,True
17935,2931, Note_on_c,68,76,2,2,1,79.0,False
17936,2932, Note_on_c,63,76,2,2,1,73.0,False
17937,2932, Note_on_c,66,76,2,2,1,77.0,False
17938,2933, Note_on_c,65,76,2,2,1,76.0,True
17939,2933, Note_on_c,70,76,2,2,1,81.0,False
17940,2934, Note_on_c,58,76,2,2,1,67.0,False
17941,2935, Note_on_c,63,76,2,2,1,73.0,False
17942,2935, Note_on_c,66,76,2,2,1,77.0,False
17943,2936, Note_on_c,65,76,2,2,1,76.0,True
17944,2936, Note_on_c,68,76,2,2,1,79.0,False
17945,2937, Note_on_c,58,76,2,2,1,67.0,False
17946,2938, Note_on_c,63,76,2,2,1,73.0,False
17947,2938, Note_on_c,66,76,2,2,1,77.0,False
17948,2939, Note_on_c,65,76,2,2,1,76.0,True
17949,2939, Note_on_c,68,76,2,2,1,79.0,False
17950,2940, Note_on_c,63,76,2,2,1,73.0,False
17951,2940, Note_on_c,66,76,2,2,1,77.0,False
17952,2941, Note_on_c,65,76,2,2,1,76.0,True
17953,2941, Note_on_c,70,76,2,2,1,81.0,False
17954,2942, Note_on_c,58,76,2,2,1,67.0,False
17955,2943, Note_on_c,63,76,2,2,1,73.0,False
17956,2943, Note_on_c,66,76,2,2,1,77.0,False
17957,2944, Note_on_c,65,76,2,2,1,76.0,True
17958,2944, Note_on_c,68,76,2,2,1,79.0,False
17959,2945, Note_on_c,58,76,2,2,1,67.0,False
17960,2946, Note_on_c,63,76,2,2,1,73.0,False
17961,2946, Note_on_c,66,76,2,2,1,77.0,False
17962,2947, Note_on_c,65,76,2,2,1,76.0,True
17963,2947, Note_on_c,68,76,2,2,1,79.0,False
17964,2948, Note_on_c,63,76,2,2,1,73.0,False
17965,2948, Note_on_c,66,76,2,2,1,77.0,False
17966,2949, Note_on_c,65,76,2,2,1,76.0,True
17967,2949, Note_on_c,70,76,2,2,1,81.0,False
17968,2950, Note_on_c,58,76,2,2,1,67.0,False
17969,2951, Note_on_c,63,76,2,2,1,73.0,False
17970,2951, Note_on_c,66,76,2,2,1,77.0,False
17971,2952, Note_on_c,65,76,2,2,1,76.0,True
17972,2952, Note_on_c,68,76,2,2,1,79.0,False
17973,2953, Note_on_c,58,76,2,2,1,67.0,False
17974,2954, Note_on_c,63,76,2,2,1,73.0,False
17975,2954, Note_on_c,66,76,2,2,1,77.0,False
17976,2955, Note_on_c,65,76,2,2,1,76.0,True
17977,2955, Note_on_c,68,76,2,2,1,79.0,False
17978,2956, Note_on_c,63,76,2,2,1,73.0,False
17979,2956, Note_on_c,66,76,2,2,1,77.0,False
17980,2957, Note_on_c,65,76,2,2,1,76.0,True
17981,2957, Note_on_c,70,76,2,2,1,81.0,False
17982,2958, Note_on_c,58,76,2,2,1,67.0,False
17983,2959, Note_on_c,63,76,2,2,1,73.0,False
17984,2959, Note_on_c,66,76,2,2,1,77.0,False
17985,2960, Note_on_c,65,76,2,2,1,76.0,True
17986,2960, Note_on_c,68,76,2,2,1,79.0,False
17987,2961, Note_on_c,58,76,2,2,1,67.0,False
17988,2962, Note_on_c,63,76,2,2,1,73.0,False
17989,2962, Note_on_c,66,76,2,2,1,77.0,False
17990,2963, Note_on_c,65,76,2,2,1,76.0,True
17991,2963, Note_on_c,68,76,2,2,1,79.0,False
17992,2964, Note_on_c,63,76,2,2,1,73.0,False
17993,2964, Note_on_c,66,76,2,2,1,77.0,False
17994,2965, Note_on_c,65,76,2,2,1,76.0,True
17995,2965, Note_on_c,70,76,2,2,1,81.0,False
17996,2966, Note_on_c,58,76,2,2,1,67.0,False
17997,2967, Note_on_c,63,76,2,2,1,73.0,False
17998,2967, Note_on_c,66,76,2,2,1,77.0,False
17999,2968, Note_on_c,65,76,2,2,1,76.0,True
18000,2968, Note_on_c,68,76,2,2,1,79.0,False
18001,2969, Note_on_c,58,76,2,2,1,67.0,False
18002,2970, Note_on_c,63,76,2,2,1,73.0,False
18003,2970, Note_on_c,66,76,2,2,1,77.0,False
18004,2971, Note_on_c,65,76,2,2,1,76.0,True
18005,2971, Note_on_c,68,76,2,2,1,79.0,False
18006,2972, Note_on_c,63,76,2,2,1,73.0,False
18007,2972, Note_on_c,66,76,2,2,1,77.0,False
18008,2973, Note_on_c,65,76,2,2,1,76.0,True
18009,2973, Note_on_c,70,76,2,2,1,81.0,False
18010,2974, Note_on_c,58,76,2,2,1,67.0,False
18011,2975, Note_on_c,63,76,2,2,1,73.0,False
18012,2975, Note_on_c,66,76,2,2,1,77.0,False
18013,2976, Note_on_c,65,76,2,2,1,76.0,True
18014,2976, Note_on_c,68,76,2,2,1,79.0,False
18015,2977, Note_on_c,58,76,2,2,1,67.0,False
18016,2978, Note_on_c,63,76,2,2,1,73.0,False
18017,2978, Note_on_c,66,76,2,2,1,77.0,False
18018,2979, Note_on_c,65,76,2,2,1,76.0,True
18019,2979, Note_on_c,68,76,2,2,1,79.0,False
18020,2980, Note_on_c,63,76,2,2,1,73.0,False
18021,2980, Note_on_c,66,76,2,2,1,77.0,False
18022,2981, Note_on_c,65,76,2,2,1,76.0,True
18023,2981, Note_on_c,70,76,2,2,1,81.0,False
18024,2982, Note_on_c,58,76,2,2,1,67.0,False
18025,2983, Note_on_c,63,76,2,2,1,73.0,False
18026,2983, Note_on_c,66,76,2,2,1,77.0,False
18027,2984, Note_on_c,65,76,2,2,1,76.0,True
18028,2984, Note_on_c,68,76,2,2,1,79.0,False
18029,2985, Note_on_c,58,76,2,2,1,67.0,False
18030,2986, Note_on_c,63,76,2,2,1,73.0,False
18031,2986, Note_on_c,66,76,2,2,1,77.0,False
18032,2987, Note_on_c,65,76,2,2,1,76.0,True
18033,2987, Note_on_c,68,76,2,2,1,79.0,False
18034,2988, Note_on_c,63,76,2,2,1,73.0,False
18035,2988, Note_on_c,66,76,2,2,1,77.0,False
18036,2989, Note_on_c,65,76,2,2,1,76.0,True
18037,2989, Note_on_c,70,76,2,2,1,81.0,False
18038,2990, Note_on_c,58,76,2,2,1,67.0,False
18039,2991, Note_on_c,63,76,2,2,1,73.0,False
18040,2991, Note_on_c,66,76,2,2,1,77.0,False
18041,2992, Note_on_c,65,76,2,2,1,76.0,True
18042,2992, Note_on_c,68,76,2,2,1,79.0,False
18043,2993, Note_on_c,58,76,2,2,1,67.0,False
18044,2994, Note_on_c,63,76,2,2,1,73.0,False
18045,2994, Note_on_c,66,76,2,2,1,77.0,False
18046,2995, Note_on_c,65,76,2,2,1,76.0,True
18047,2995, Note_on_c,68,76,2,2,1,79.0,False
18048,2996, Note_on_c,63,76,2,2,1,73.0,False
18049,2996, Note_on_c,66,76,2,2,1,77.0,False
18050,2997, Note_on_c,65,76,2,2,1,76.0,True
18051,2997, Note_on_c,70,76,2,2,1,81.0,False
18052,2998, Note_on_c,58,76,2,2,1,67.0,False
18053,2999, Note_on_c,63,76,2,2,1,73.0,False
18054,2999, Note_on_c,66,76,2,2,1,77.0,False
18055,3000, Note_on_c,65,76,2,2,1,76.0,True
18056,3000, Note_on_c,68,76,2,2,1,79.0,False
18057,3001, Note_on_c,58,76,2,2,1,67.0,False
18058,3002, Note_on_c,63,76,2,2,1,73.0,False
18059,3002, Note_on_c,66,76,2,2,1,77.0,False
18060,3003, Note_on_c,65,76,2,2,1,76.0,True
18061,3003, Note_on_c,68,76,2,2,1,79.0,False
18062,3004, Note_on_c,63,76,2,2,1,73.0,False
18063,3004, Note_on_c,66,76,2,2,1,77.0,False
18064,3005, Note_on_c,65,76,2,2,1,76.0,True
18065,3005, Note_on_c,70,76,2,2,1,81.0,False
18066,3006, Note_on_c,58,76,2,2,1,67.0,False
18067,3007, Note_on_c,63,76,2,2,1,73.0,False
18068,3007, Note_on_c,66,76,2,2,1,77.0,False
18069,3008, Note_on_c,65,76,2,2,1,76.0,True
18070,3008, Note_on_c,68,76,2,2,1,79.0,False
18071,3009, Note_on_c,58,76,2,2,1,67.0,False
18072,3010, Note_on_c,63,76,2,2,1,73.0,False
18073,3010, Note_on_c,66,76,2,2,1,77.0,False
18074,3011, Note_on_c,65,76,2,2,1,76.0,True
18075,3011, Note_on_c,68,76,2,2,1,79.0,False
18076,3012, Note_on_c,63,76,2,2,1,73.0,False
18077,3012, Note_on_c,66,76,2,2,1,77.0,False
18078,3013, Note_on_c,65,76,2,2,1,76.0,True
18079,3013, Note_on_c,70,76,2,2,1,81.0,False
18080,3014, Note_on_c,58,76,2,2,1,67.0,False
18081,3015, Note_on_c,63,76,2,2,1,73.0,False
18082,3015, Note_on_c,66,76,2,2,1,77.0,False
18083,3016, Note_on_c,65,76,2,2,1,76.0,True
18084,3016, Note_on_c,68,76,2,2,1,79.0,False
18085,3017, Note_on_c,58,76,2,2,1,67.0,False
18086,3018, Note_on_c,63,76,2,2,1,73.0,False
18087,3018, Note_on_c,66,76,2,2,1,77.0,False
18088,3019, Note_on_c,65,76,2,2,1,76.0,True
18089,3019, Note_on_c,68,76,2,2,1,79.0,False
18090,3020, Note_on_c,63,76,2,2,1,73.0,False
18091,3020, Note_on_c,66,76,2,2,1,77.0,False
18092,3021, Note_on_c,65,76,2,2,1,76.0,True
18093,3021, Note_on_c,70,76,2,2,1,81.0,False
18094,3022, Note_on_c,58,76,2,2,1,67.0,False
18095,3023, Note_on_c,63,76,2,2,1,73.0,False
18096,3023, Note_on_c,66,76,2,2,1,77.0,False
18097,3024, Note_on_c,65,76,2,2,1,76.0,True
18098,3024, Note_on_c,68,76,2,2,1,79.0,False
18099,3025, Note_on_c,58,76,2,2,1,67.0,False
18100,3026, Note_on_c,63,76,2,2,1,73.0,False
18101,3026, Note_on_c,66,76,2,2,1,77.0,False
18102,3027, Note_on_c,65,76,2,2,1,76.0,True
18103,3027, Note_on_c,68,76,2,2,1,79.0,False
18104,3028, Note_on_c,63,76,2,2,1,73.0,False
18105,3028, Note_on_c,66,76,2,2,1,77.0,False
18106,3029, Note_on_c,65,76,2,2,1,76.0,True
18107,3029, Note_on_c,70,76,2,2,1,81.0,False
18108,3030, Note_on_c,58,76,2,2,1,67.0,False
18109,3031, Note_on_c,63,76,2,2,1,73.0,False
18110,3031, Note_on_c,66,76,2,2,1,77.0,False
18111,3032, Note_on_c,65,76,2,2,1,76.0,True
18112,3032, Note_on_c,68,76,2,2,1,79.0,False
18113,3033, Note_on_c,58,76,2,2,1,67.0,False
18114,3034, Note_on_c,63,76,2,2,1,73.0,False
18115,3034, Note_on_c,66,76,2,2,1,77.0,False
18116,3035, Note_on_c,65,76,2,2,1,76.0,True
18117,3035, Note_on_c,68,76,2,2,1,79.0,False
18118,3036, Note_on_c,63,76,2,2,1,73.0,False
18119,3036, Note_on_c,66,76,2,2,1,77.0,False
18120,3037, Note_on_c,65,76,2,2,1,76.0,True
18121,3037, Note_on_c,70,76,2,2,1,81.0,False
18122,3038, Note_on_c,58,76,2,2,1,67.0,False
18123,3039, Note_on_c,63,76,2,2,1,73.0,False
18124,3039, Note_on_c,66,76,2,2,1,77.0,False
18125,3040, Note_on_c,65,76,2,2,1,76.0,True
18126,3040, Note_on_c,68,76,2,2,1,79.0,False
18127,3041, Note_on_c,58,76,2,2,1,67.0,False
18128,3042, Note_on_c,63,76,2,2,1,73.0,False
18129,3042, Note_on_c,66,76,2,2,1,77.0,False
18130,3043, Note_on_c,65,76,2,2,1,76.0,True
18131,3043, Note_on_c,68,76,2,2,1,79.0,False
18132,3044, Note_on_c,63,76,2,2,1,73.0,False
18133,3044, Note_on_c,66,76,2,2,1,77.0,False
18134,3045, Note_on_c,65,76,2,2,1,76.0,True
18135,3045, Note_on_c,70,76,2,2,1,81.0,False
18136,3046, Note_on_c,58,76,2,2,1,67.0,False
18137,3047, Note_on_c,63,76,2,2,1,73.0,False
18138,3047, Note_on_c,66,76,2,2,1,77.0,False
18139,3048, Note_on_c,65,76,2,2,1,76.0,True
18140,3048, Note_on_c,68,76,2,2,1,79.0,False
18141,3049, Note_on_c,58,76,2,2,1,67.0,False
18142,3050, Note_on_c,63,76,2,2,1,73.0,False
18143,3050, Note_on_c,66,76,2,2,1,77.0,False
18144,3051, Note_on_c,65,76,2,2,1,76.0,True
18145,3051, Note_on_c,68,76,2,2,1,79.0,False
18146,3052, Note_on_c,63,76,2,2,1,73.0,False
18147,3052, Note_on_c,66,76,2,2,1,77.0,False
18148,3053, Note_on_c,65,76,2,2,1,76.0,True
18149,3053, Note_on_c,70,76,2,2,1,81.0,False
18150,3054, Note_on_c,58,76,2,2,1,67.0,False
18151,3055, Note_on_c,63,76,2,2,1,73.0,False
18152,3055, Note_on_c,66,76,2,2,1,77.0,False
18153,3056, Note_on_c,65,76,2,2,1,76.0,True
18154,3056, Note_on_c,68,76,2,2,1,79.0,False
18155,3057, Note_on_c,58,76,2,2,1,67.0,False
18156,3058, Note_on_c,63,76,2,2,1,73.0,False
18157,3058, Note_on_c,66,76,2,2,1,77.0,False
18158,3059, Note_on_c,65,76,2,2,1,76.0,True
18159,3059, Note_on_c,68,76,2,2,1,79.0,False
18160,3060, Note_on_c,63,76,2,2,1,73.0,False
18161,3060, Note_on_c,66,76,2,2,1,77.0,False
18162,3061, Note_on_c,65,76,2,2,1,76.0,True
18163,3061, Note_on_c,70,76,2,2,1,81.0,False
18164,3062, Note_on_c,58,76,2,2,1,67.0,False
18165,3063, Note_on_c,63,76,2,2,1,73.0,False
18166,3063, Note_on_c,66,76,2,2,1,77.0,False
18167,3064, Note_on_c,65,76,2,2,1,76.0,True
18168,3064, Note_on_c,68,76,2,2,1,79.0,False
18169,3065, Note_on_c,58,76,2,2,1,67.0,False
18170,3066, Note_on_c,63,76,2,2,1,73.0,False
18171,3066, Note_on_c,66,76,2,2,1,77.0,False
18172,3067, Note_on_c,65,76,2,2,1,76.0,True
18173,3067, Note_on_c,68,76,2,2,1,79.0,False
18174,3068, Note_on_c,63,76,2,2,1,73.0,False
18175,3068, Note_on_c,66,76,2,2,1,77.0,False
18176,3069, Note_on_c,65,76,2,2,1,76.0,True
18177,3069, Note_on_c,70,76,2,2,1,81.0,False
18178,3070, Note_on_c,58,76,2,2,1,67.0,False
18179,3071, Note_on_c,63,76,2,2,1,73.0,False
18180,3071, Note_on_c,66,76,2,2,1,77.0,False
18181,3072, Note_on_c,65,76,2,2,1,76.0,True
18182,3072, Note_on_c,68,76,2,2,1,79.0,False
18183,3073, Note_on_c,58,76,2,2,1,67.0,False
18184,3074, Note_on_c,63,76,2,2,1,73.0,False
18185,3074, Note_on_c,66,76,2,2,1,77.0,False
18186,3075, Note_on_c,65,76,2,2,1,76.0,True
18187,3075, Note_on_c,68,76,2,2,1,79.0,False
18188,3076, Note_on_c,63,76,2,2,1,73.0,False
18189,3076, Note_on_c,66,76,2,2,1,77.0,False
18190,3077, Note_on_c,65,76,2,2,1,76.0,True
18191,3077, Note_on_c,70,76,2,2,1,81.0,False
18192,3078, Note_on_c,58,76,2,2,1,67.0,False
18193,3079, Note_on_c,63,76,2,2,1,73.0,False
18194,3079, Note_on_c,66,76,2,2,1,77.0,False
18195,3080, Note_on_c,65,76,2,2,1,76.0,True
18196,3080, Note_on_c,68,76,2,2,1,79.0,False
18197,3081, Note_on_c,58,76,2,2,1,67.0,False
18198,3082, Note_on_c,63,76,2,2,1,73.0,False
18199,3082, Note_on_c,66,76,2,2,1,77.0,False
18200,3083, Note_on_c,65,76,2,2,1,76.0,True
18201,3083, Note_on_c,68,76,2,2,1,79.0,False
18202,3084, Note_on_c,63,76,2,2,1,73.0,False
18203,3084, Note_on_c,66,76,2,2,1,77.0,False
18204,3085, Note_on_c,65,76,2,2,1,76.0,True
18205,3085, Note_on_c,70,76,2,2,1,81.0,False
18206,3086, Note_on_c,58,76,2,2,1,67.0,False
18207,3087, Note_on_c,63,76,2,2,1,73.0,False
18208,3087, Note_on_c,66,76,2,2,1,77.0,False
18209,3088, Note_on_c,65,76,2,2,1,76.0,True
18210,3088, Note_on_c,68,76,2,2,1,79.0,False
18211,3089, Note_on_c,58,76,2,2,1,67.0,False
18212,3090, Note_on_c,63,76,2,2,1,73.0,False
18213,3090, Note_on_c,66,76,2,2,1,77.0,False
18214,3091, Note_on_c,65,76,2,2,1,76.0,True
18215,3091, Note_on_c,68,76,2,2,1,79.0,False
18216,3092, Note_on_c,63,76,2,2,1,73.0,False
18217,3092, Note_on_c,66,76,2,2,1,77.0,False
18218,3093, Note_on_c,65,76,2,2,1,76.0,True
18219,3093, Note_on_c,70,76,2,2,1,81.0,False
18220,3094, Note_on_c,58,76,2,2,1,67.0,False
18221,3095, Note_on_c,63,76,2,2,1,73.0,False
18222,3095, Note_on_c,66,76,2,2,1,77.0,False
18223,3096, Note_on_c,65,76,2,2,1,76.0,True
18224,3096, Note_on_c,68,76,2,2,1,79.0,False
18225,3097, Note_on_c,58,76,2,2,1,67.0,False
18226,3098, Note_on_c,63,76,2,2,1,73.0,False
18227,3098, Note_on_c,66,76,2,2,1,77.0,False
18228,3099, Note_on_c,65,76,2,2,1,76.0,True
18229,3099, Note_on_c,68,76,2,2,1,79.0,False
18230,3100, Note_on_c,63,76,2,2,1,73.0,False
18231,3100, Note_on_c,66,76,2,2,1,77.0,False
18232,3101, Note_on_c,65,76,2,2,1,76.0,True
18233,3101, Note_on_c,70,76,2,2,1,81.0,False
18234,3102, Note_on_c,58,76,2,2,1,67.0,False
18235,3103, Note_on_c,63,76,2,2,1,73.0,False
18236,3103, Note_on_c,66,76,2,2,1,77.0,False
18237,3104, Note_on_c,65,76,2,2,1,76.0,True
18238,3104, Note_on_c,68,76,2,2,1,79.0,False
18239,3105, Note_on_c,58,76,2,2,1,67.0,False
18240,3106, Note_on_c,63,76,2,2,1,73.0,False
18241,3106, Note_on_c,66,76,2,2,1,77.0,False
18242,3107, Note_on_c,65,76,2,2,1,76.0,True
18243,3107, Note_on_c,68,76,2,2,1,79.0,False
18244,3108, Note_on_c,63,76,2,2,1,73.0,False
18245,3108, Note_on_c,66,76,2,2,1,77.0,False
18246,3109, Note_on_c,65,76,2,2,1,76.0,True
18247,3109, Note_on_c,70,76,2,2,1,81.0,False
18248,3110, Note_on_c,58,76,2,2,1,67.0,False
18249,3111, Note_on_c,63,76,2,2,1,73.0,False
18250,3111, Note_on_c,66,76,2,2,1,77.0,False
18251,3112, Note_on_c,65,76,2,2,1,76.0,True
18252,3112, Note_on_c,68,76,2,2,1,79.0,False
18253,3113, Note_on_c,58,76,2,2,1,67.0,False
18254,3114, Note_on_c,63,76,2,2,1,73.0,False
18255,3114, Note_on_c,66,76,2,2,1,77.0,False
18256,3115, Note_on_c,65,76,2,2,1,76.0,True
18257,3115, Note_on_c,68,76,2,2,1,79.0,False
18258,3116, Note_on_c,63,76,2,2,1,73.0,False
18259,3116, Note_on_c,66,76,2,2,1,77.0,False
18260,3117, Note_on_c,65,76,2,2,1,76.0,True
18261,3117, Note_on_c,70,76,2,2,1,81.0,False
18262,3118, Note_on_c,58,76,2,2,1,67.0,False
18263,3119, Note_on_c,63,76,2,2,1,73.0,False
18264,3119, Note_on_c,66,76,2,2,1,77.0,False
18265,3120, Note_on_c,65,76,2,2,1,76.0,True
18266,3120, Note_on_c,68,76,2,2,1,79.0,False
18267,3121, Note_on_c,58,76,2,2,1,67.0,False
18268,3122, Note_on_c,63,76,2,2,1,73.0,False
18269,3122, Note_on_c,66,76,2,2,1,77.0,False
18270,3123, Note_on_c,65,76,2,2,1,76.0,True
18271,3123, Note_on_c,68,76,2,2,1,79.0,False
18272,3124, Note_on_c,63,76,2,2,1,73.0,False
18273,3124, Note_on_c,66,76,2,2,1,77.0,False
18274,3125, Note_on_c,65,76,2,2,1,76.0,True
18275,3125, Note_on_c,70,76,2,2,1,81.0,False
18276,3126, Note_on_c,58,76,2,2,1,67.0,False
18277,3127, Note_on_c,63,76,2,2,1,73.0,False
18278,3127, Note_on_c,66,76,2,2,1,77.0,False
18279,3128, Note_on_c,65,76,2,2,1,76.0,True
18280,3128, Note_on_c,68,76,2,2,1,79.0,False
18281,3129, Note_on_c,58,76,2,2,1,67.0,False
18282,3130, Note_on_c,63,76,2,2,1,73.0,False
18283,3130, Note_on_c,66,76,2,2,1,77.0,False
18284,3131, Note_on_c,65,76,2,2,1,76.0,True
18285,3131, Note_on_c,68,76,2,2,1,79.0,False
18286,3132, Note_on_c,63,76,2,2,1,73.0,False
18287,3132, Note_on_c,66,76,2,2,1,77.0,False
18288,3133, Note_on_c,65,76,2,2,1,76.0,True
18289,3133, Note_on_c,70,76,2,2,1,81.0,False
18290,3134, Note_on_c,58,76,2,2,1,67.0,False
18291,3135, Note_on_c,63,76,2,2,1,73.0,False
18292,3135, Note_on_c,66,76,2,2,1,77.0,False
18293,3136, Note_on_c,65,76,2,2,1,76.0,True
18294,3136, Note_on_c,68,76,2,2,1,79.0,False
18295,3137, Note_on_c,58,76,2,2,1,67.0,False
18296,3138, Note_on_c,63,76,2,2,1,73.0,False
18297,3138, Note_on_c,66,76,2,2,1,77.0,False
18298,3139, Note_on_c,65,76,2,2,1,76.0,True
18299,3139, Note_on_c,68,76,2,2,1,79.0,False
18300,3140, Note_on_c,63,76,2,2,1,73.0,False
18301,3140, Note_on_c,66,76,2,2,1,77.0,False
18302,3141, Note_on_c,65,76,2,2,1,76.0,True
18303,3141, Note_on_c,70,76,2,2,1,81.0,False
18304,3142, Note_on_c,58,76,2,2,1,67.0,False
18305,3143, Note_on_c,63,76,2,2,1,73.0,False
18306,3143, Note_on_c,66,76,2,2,1,77.0,False
18307,3144, Note_on_c,65,76,2,2,1,76.0,True
18308,3144, Note_on_c,68,76,2,2,1,79.0,False
18309,3145, Note_on_c,58,76,2,2,1,67.0,False
18310,3146, Note_on_c,63,76,2,2,1,73.0,False
18311,3146, Note_on_c,66,76,2,2,1,77.0,False
18312,3147, Note_on_c,65,76,2,2,1,76.0,True
18313,3147, Note_on_c,68,76,2,2,1,79.0,False
18314,3148, Note_on_c,63,76,2,2,1,73.0,False
18315,3148, Note_on_c,66,76,2,2,1,77.0,False
18316,3149, Note_on_c,65,76,2,2,1,76.0,True
18317,3149, Note_on_c,70,76,2,2,1,81.0,False
18318,3150, Note_on_c,58,76,2,2,1,67.0,False
18319,3151, Note_on_c,63,76,2,2,1,73.0,False
18320,3151, Note_on_c,66,76,2,2,1,77.0,False
18321,3152, Note_on_c,65,76,2,2,1,76.0,True
18322,3152, Note_on_c,68,76,2,2,1,79.0,False
18323,3153, Note_on_c,58,76,2,2,1,67.0,False
18324,3154, Note_on_c,63,76,2,2,1,73.0,False
18325,3154, Note_on_c,66,76,2,2,1,77.0,False
18326,3155, Note_on_c,65,76,2,2,1,76.0,True
18327,3155, Note_on_c,68,76,2,2,1,79.0,False
18328,3156, Note_on_c,63,76,2,2,1,73.0,False
18329,3156, Note_on_c,66,76,2,2,1,77.0,False
18330,3157, Note_on_c,65,76,2,2,1,76.0,True
18331,3157, Note_on_c,70,76,2,2,1,81.0,False
18332,3158, Note_on_c,58,76,2,2,1,67.0,False
18333,3159, Note_on_c,63,76,2,2,1,73.0,False
18334,3159, Note_on_c,66,76,2,2,1,77.0,False
18335,3160, Note_on_c,65,76,2,2,1,76.0,True
18336,3160, Note_on_c,68,76,2,2,1,79.0,False
18337,3161, Note_on_c,58,76,2,2,1,67.0,False
18338,3162, Note_on_c,63,76,2,2,1,73.0,False
18339,3162, Note_on_c,66,76,2,2,1,77.0,False
18340,3163, Note_on_c,65,76,2,2,1,76.0,True
18341,3163, Note_on_c,68,76,2,2,1,79.0,False
18342,3164, Note_on_c,63,76,2,2,1,73.0,False
18343,3164, Note_on_c,66,76,2,2,1,77.0,False
18344,3165, Note_on_c,65,76,2,2,1,76.0,True
18345,3165, Note_on_c,70,76,2,2,1,81.0,False
18346,3166, Note_on_c,58,76,2,2,1,67.0,False
18347,3167, Note_on_c,63,76,2,2,1,73.0,False
18348,3167, Note_on_c,66,76,2,2,1,77.0,False
18349,3168, Note_on_c,65,76,2,2,1,76.0,True
18350,3168, Note_on_c,68,76,2,2,1,79.0,False
18351,3169, Note_on_c,58,76,2,2,1,67.0,False
18352,3170, Note_on_c,63,76,2,2,1,73.0,False
18353,3170, Note_on_c,66,76,2,2,1,77.0,False
18354,3171, Note_on_c,65,76,2,2,1,76.0,True
18355,3171, Note_on_c,68,76,2,2,1,79.0,False
18356,3172, Note_on_c,63,76,2,2,1,73.0,False
18357,3172, Note_on_c,66,76,2,2,1,77.0,False
18358,3173, Note_on_c,65,76,2,2,1,76.0,True
18359,3173, Note_on_c,70,76,2,2,1,81.0,False
18360,3174, Note_on_c,58,76,2,2,1,67.0,False
18361,3175, Note_on_c,63,76,2,2,1,73.0,False
18362,3175, Note_on_c,66,76,2,2,1,77.0,False
18363,3176, Note_on_c,65,76,2,2,1,76.0,True
18364,3176, Note_on_c,68,76,2,2,1,79.0,False
18365,3177, Note_on_c,58,76,2,2,1,67.0,False
18366,3178, Note_on_c,63,76,2,2,1,73.0,False
18367,3178, Note_on_c,66,76,2,2,1,77.0,False
18368,3179, Note_on_c,65,76,2,2,1,76.0,True
18369,3179, Note_on_c,68,76,2,2,1,79.0,False
18370,3180, Note_on_c,63,76,2,2,1,73.0,False
18371,3180, Note_on_c,66,76,2,2,1,77.0,False
18372,3181, Note_on_c,65,76,2,2,1,76.0,True
18373,3181, Note_on_c,70,76,2,2,1,81.0,False
18374,3182, Note_on_c,58,76,2,2,1,67.0,False
18375,3183, Note_on_c,63,76,2,2,1,73.0,False
18376,3183, Note_on_c,66,76,2,2,1,77.0,False
18377,3184, Note_on_c,65,76,2,2,1,76.0,True
18378,3184, Note_on_c,68,76,2,2,1,79.0,False
18379,3185, Note_on_c,58,76,2,2,1,67.0,False
18380,3186, Note_on_c,63,76,2,2,1,73.0,False
18381,3186, Note_on_c,66,76,2,2,1,77.0,False
18382,3187, Note_on_c,65,76,2,2,1,76.0,True
18383,3187, Note_on_c,68,76,2,2,1,79.0,False
18384,3188, Note_on_c,63,76,2,2,1,73.0,False
18385,3188, Note_on_c,66,76,2,2,1,77.0,False
18386,3189, Note_on_c,65,76,2,2,1,76.0,True
18387,3189, Note_on_c,70,76,2,2,1,81.0,False
18388,3190, Note_on_c,58,76,2,2,1,67.0,False
18389,3191, Note_on_c,63,76,2,2,1,73.0,False
18390,3191, Note_on_c,66,76,2,2,1,77.0,False
18391,3192, Note_on_c,65,76,2,2,1,76.0,True
18392,3192, Note_on_c,68,76,2,2,1,79.0,False
18393,3193, Note_on_c,58,76,2,2,1,67.0,False
18394,3194, Note_on_c,63,76,2,2,1,73.0,False
18395,3194, Note_on_c,66,76,2,2,1,77.0,False
18396,3195, Note_on_c,65,76,2,2,1,76.0,True
18397,3195, Note_on_c,68,76,2,2,1,79.0,False
18398,3196, Note_on_c,63,76,2,2,1,73.0,False
18399,3196, Note_on_c,66,76,2,2,1,77.0,False
18400,3197, Note_on_c,65,76,2,2,1,76.0,True
18401,3197, Note_on_c,70,76,2,2,1,81.0,False
18402,3198, Note_on_c,58,76,2,2,1,67.0,False
18403,3199, Note_on_c,63,76,2,2,1,73.0,False
18404,3199, Note_on_c,66,76,2,2,1,77.0,False
18405,3200, Note_on_c,65,76,2,2,1,76.0,True
18406,3200, Note_on_c,68,76,2,2,1,79.0,False
18407,3201, Note_on_c,58,76,2,2,1,67.0,False
18408,3202, Note_on_c,63,76,2,2,1,73.0,False
18409,3202, Note_on_c,66,76,2,2,1,77.0,False
18410,3203, Note_on_c,65,76,2,2,1,76.0,True
18411,3203, Note_on_c,68,76,2,2,1,79.0,False
18412,3204, Note_on_c,63,76,2,2,1,73.0,False
18413,3204, Note_on_c,66,76,2,2,1,77.0,False
18414,3205, Note_on_c,65,76,2,2,1,76.0,True
18415,3205, Note_on_c,70,76,2,2,1,81.0,False
18416,3206, Note_on_c,58,76,2,2,1,67.0,False
18417,3207, Note_on_c,63,76,2,2,1,73.0,False
18418,3207, Note_on_c,66,76,2,2,1,77.0,False
18419,3208, Note_on_c,65,76,2,2,1,76.0,True
18420,3208, Note_on_c,68,76,2,2,1,79.0,False
18421,3209, Note_on_c,58,76,2,2,1,67.0,False
18422,3210, Note_on_c,63,76,2,2,1,73.0,False
18423,3210, Note_on_c,66,76,2,2,1,77.0,False
18424,3211, Note_on_c,65,76,2,2,1,76.0,True
18425,3211, Note_on_c,68,76,2,2,1,79.0,False
18426,3212, Note_on_c,63,76,2,2,1,73.0,False
18427,3212, Note_on_c,66,76,2,2,1,77.0,False
18428,3213, Note_on_c,65,76,2,2,1,76.0,True
18429,3213, Note_on_c,70,76,2,2,1,81.0,False
18430,3214, Note_on_c,58,76,2,2,1,67.0,False
18431,3215, Note_on_c,63,76,2,2,1,73.0,False
18432,3215, Note_on_c,66,76,2,2,1,77.0,False
18433,3216, Note_on_c,65,76,2,2,1,76.0,True
18434,3216, Note_on_c,68,76,2,2,1,79.0,False
18435,3217, Note_on_c,58,76,2,2,1,67.0,False
18436,3218, Note_on_c,63,76,2,2,1,73.0,False
18437,3218, Note_on_c,66,76,2,2,1,77.0,False
18438,3219, Note_on_c,65,76,2,2,1,76.0,True
18439,3219, Note_on_c,68,76,2,2,1,79.0,False
18440,3220, Note_on_c,63,76,2,2,1,73.0,False
18441,3220, Note_on_c,66,76,2,2,1,77.0,False
18442,3221, Note_on_c,65,76,2,2,1,76.0,True
18443,3221, Note_on_c,70,76,2,2,1,81.0,False
18444,3222, Note_on_c,58,76,2,2,1,67.0,False
18445,3223, Note_on_c,63,76,2,2,1,73.0,False
18446,3223, Note_on_c,66,76,2,2,1,77.0,False
18447,3224, Note_on_c,65,76,2,2,1,76.0,True
18448,3224, Note_on_c,68,76,2,2,1,79.0,False
18449,3225, Note_on_c,58,76,2,2,1,67.0,False
18450,3226, Note_on_c,63,76,2,2,1,73.0,False
18451,3226, Note_on_c,66,76,2,2,1,77.0,False
18452,3227, Note_on_c,65,76,2,2,1,76.0,True
18453,3227, Note_on_c,68,76,2,2,1,79.0,False
18454,3228, Note_on_c,63,76,2,2,1,73.0,False
18455,3228, Note_on_c,66,76,2,2,1,77.0,False
18456,3229, Note_on_c,65,76,2,2,1,76.0,True
18457,3229, Note_on_c,70,76,2,2,1,81.0,False
18458,3230, Note_on_c,58,76,2,2,1,67.0,False
18459,3231, Note_on_c,63,76,2,2,1,73.0,False
18460,3231, Note_on_c,66,76,2,2,1,77.0,False
18461,3232, Note_on_c,65,76,2,2,1,76.0,True
18462,3232, Note_on_c,68,76,2,2,1,79.0,False
18463,3233, Note_on_c,58,76,2,2,1,67.0,False
18464,3234, Note_on_c,63,76,2,2,1,73.0,False
18465,3234, Note_on_c,66,76,2,2,1,77.0,False
18466,3235, Note_on_c,65,76,2,2,1,76.0,True
18467,3235, Note_on_c,68,76,2,2,1,79.0,False
18468,3236, Note_on_c,63,76,2,2,1,73.0,False
18469,3236, Note_on_c,66,76,2,2,1,77.0,False
18470,3237, Note_on_c,65,76,2,2,1,76.0,True
18471,3237, Note_on_c,70,76,2,2,1,81.0,False
18472,3238, Note_on_c,58,76,2,2,1,67.0,False
18473,3239, Note_on_c,63,76,2,2,1,73.0,False
18474,3239, Note_on_c,66,76,2,2,1,77.0,False
18475,3240, Note_on_c,65,76,2,2,1,76.0,True
18476,3240, Note_on_c,68,76,2,2,1,79.0,False
18477,3241, Note_on_c,58,76,2,2,1,67.0,False
18478,3242, Note_on_c,63,76,2,2,1,73.0,False
18479,3242, Note_on_c,66,76,2,2,1,77.0,False
18480,3243, Note_on_c,65,76,2,2,1,76.0,True
18481,3243, Note_on_c,68,76,2,2,1,79.0,False
18482,3244, Note_on_c,63,76,2,2,1,73.0,False
18483,3244, Note_on_c,66,76,2,2,1,77.0,False
18484,3245, Note_on_c,65,76,2,2,1,76.0,True
18485,3245, Note_on_c,70,76,2,2,1,81.0,False
18486,3246, Note_on_c,58,76,2,2,1,67.0,False
18487,3247, Note_on_c,63,76,2,2,1,73.0,False
18488,3247, Note_on_c,66,76,2,2,1,77.0,False
18489,3248, Note_on_c,65,76,2,2,1,76.0,True
18490,3248, Note_on_c,68,76,2,2,1,79.0,False
18491,3249, Note_on_c,58,76,2,2,1,67.0,False
18492,3250, Note_on_c,63,76,2,2,1,73.0,False
18493,3250, Note_on_c,66,76,2,2,1,77.0,False
18494,3251, Note_on_c,65,76,2,2,1,76.0,True
18495,3251, Note_on_c,68,76,2,2,1,79.0,False
18496,3252, Note_on_c,63,76,2,2,1,73.0,False
18497,3252, Note_on_c,66,76,2,2,1,77.0,False
18498,3253, Note_on_c,65,76,2,2,1,76.0,True
18499,3253, Note_on_c,70,76,2,2,1,81.0,False
18500,3254, Note_on_c,58,76,2,2,1,67.0,False
18501,3255, Note_on_c,63,76,2,2,1,73.0,False
18502,3255, Note_on_c,66,76,2,2,1,77.0,False
18503,3256, Note_on_c,65,76,2,2,1,76.0,True
18504,3256, Note_on_c,68,76,2,2,1,79.0,False
18505,3257, Note_on_c,58,76,2,2,1,67.0,False
18506,3258, Note_on_c,63,76,2,2,1,73.0,False
18507,3258, Note_on_c,66,76,2,2,1,77.0,False
18508,3259, Note_on_c,65,76,2,2,1,76.0,True
18509,3259, Note_on_c,68,76,2,2,1,79.0,False
18510,3260, Note_on_c,63,76,2,2,1,73.0,False
18511,3260, Note_on_c,66,76,2,2,1,77.0,False
18512,3261, Note_on_c,65,76,2,2,1,76.0,True
18513,3261, Note_on_c,70,76,2,2,1,81.0,False
18514,3262, Note_on_c,58,76,2,2,1,67.0,False
18515,3263, Note_on_c,63,76,2,2,1,73.0,False
18516,3263, Note_on_c,66,76,2,2,1,77.0,False
18517,3264, Note_on_c,65,76,2,2,1,76.0,True
18518,3264, Note_on_c,68,76,2,2,1,79.0,False
18519,3265, Note_on_c,58,76,2,2,1,67.0,False
18520,3266, Note_on_c,63,76,2,2,1,73.0,False
18521,3266, Note_on_c,66,76,2,2,1,77.0,False
18522,3267, Note_on_c,65,76,2,2,1,76.0,True
18523,3267, Note_on_c,68,76,2,2,1,79.0,False
18524,3268, Note_on_c,63,76,2,2,1,73.0,False
18525,3268, Note_on_c,66,76,2,2,1,77.0,False
18526,3269, Note_on_c,65,76,2,2,1,76.0,True
18527,3269, Note_on_c,70,76,2,2,1,81.0,False
18528,3270, Note_on_c,58,76,2,2,1,67.0,False
18529,3271, Note_on_c,63,76,2,2,1,73.0,False
18530,3271, Note_on_c,66,76,2,2,1,77.0,False
18531,3272, Note_on_c,65,76,2,2,1,76.0,True
18532,3272, Note_on_c,68,76,2,2,1,79.0,False
18533,3273, Note_on_c,58,76,2,2,1,67.0,False
18534,3274, Note_on_c,63,76,2,2,1,73.0,False
18535,3274, Note_on_c,66,76,2,2,1,77.0,False
18536,3275, Note_on_c,65,76,2,2,1,76.0,True
18537,3275, Note_on_c,68,76,2,2,1,79.0,False
18538,3276, Note_on_c,63,76,2,2,1,73.0,False
18539,3276, Note_on_c,66,76,2,2,1,77.0,False
18540,3277, Note_on_c,65,76,2,2,1,76.0,True
18541,3277, Note_on_c,70,76,2,2,1,81.0,False
18542,3278, Note_on_c,58,76,2,2,1,67.0,False
18543,3279, Note_on_c,63,76,2,2,1,73.0,False
18544,3279, Note_on_c,66,76,2,2,1,77.0,False
18545,3280, Note_on_c,65,76,2,2,1,76.0,True
18546,3280, Note_on_c,68,76,2,2,1,79.0,False
18547,3281, Note_on_c,58,76,2,2,1,67.0,False
18548,3282, Note_on_c,63,76,2,2,1,73.0,False
18549,3282, Note_on_c,66,76,2,2,1,77.0,False
18550,3283, Note_on_c,65,76,2,2,1,76.0,True
18551,3283, Note_on_c,68,76,2,2,1,79.0,False
18552,3284, Note_on_c,63,76,2,2,1,73.0,False
18553,3284, Note_on_c,66,76,2,2,1,77.0,False
18554,3285, Note_on_c,65,76,2,2,1,76.0,True
18555,3285, Note_on_c,70,76,2,2,1,81.0,False
18556,3286, Note_on_c,58,76,2,2,1,67.0,False
18557,3287, Note_on_c,63,76,2,2,1,73.0,False
18558,3287, Note_on_c,66,76,2,2,1,77.0,False
18559,3288, Note_on_c,65,76,2,2,1,76.0,True
18560,3288, Note_on_c,68,76,2,2,1,79.0,False
18561,3289, Note_on_c,58,76,2,2,1,67.0,False
18562,3290, Note_on_c,63,76,2,2,1,73.0,False
18563,3290, Note_on_c,66,76,2,2,1,77.0,False
18564,3291, Note_on_c,65,76,2,2,1,76.0,True
18565,3291, Note_on_c,68,76,2,2,1,79.0,False
18566,3292, Note_on_c,63,76,2,2,1,73.0,False
18567,3292, Note_on_c,66,76,2,2,1,77.0,False
18568,3293, Note_on_c,65,76,2,2,1,76.0,True
18569,3293, Note_on_c,70,76,2,2,1,81.0,False
18570,3294, Note_on_c,58,76,2,2,1,67.0,False
18571,3295, Note_on_c,63,76,2,2,1,73.0,False
18572,3295, Note_on_c,66,76,2,2,1,77.0,False
18573,3296, Note_on_c,65,76,2,2,1,76.0,True
18574,3296, Note_on_c,68,76,2,2,1,79.0,False
18575,3297, Note_on_c,58,76,2,2,1,67.0,False
18576,3298, Note_on_c,63,76,2,2,1,73.0,False
18577,3298, Note_on_c,66,76,2,2,1,77.0,False
18578,3299, Note_on_c,65,76,2,2,1,76.0,True
18579,3299, Note_on_c,68,76,2,2,1,79.0,False
18580,3300, Note_on_c,63,76,2,2,1,73.0,False
18581,3300, Note_on_c,66,76,2,2,1,77.0,False
18582,3301, Note_on_c,65,76,2,2,1,76.0,True
18583,3301, Note_on_c,70,76,2,2,1,81.0,False
18584,3302, Note_on_c,58,76,2,2,1,67.0,False
18585,3303, Note_on_c,63,76,2,2,1,73.0,False
18586,3303, Note_on_c,66,76,2,2,1,77.0,False
18587,3304, Note_on_c,65,76,2,2,1,76.0,True
18588,3304, Note_on_c,68,76,2,2,1,79.0,False
18589,3305, Note_on_c,58,76,2,2,1,67.0,False
18590,3306, Note_on_c,63,76,2,2,1,73.0,False
18591,3306, Note_on_c,66,76,2,2,1,77.0,False
18592,3307, Note_on_c,65,76,2,2,1,76.0,True
18593,3307, Note_on_c,68,76,2,2,1,79.0,False
18594,3308, Note_on_c,63,76,2,2,1,73.0,False
18595,3308, Note_on_c,66,76,2,2,1,77.0,False
18596,3309, Note_on_c,65,76,2,2,1,76.0,True
18597,3309, Note_on_c,70,76,2,2,1,81.0,False
18598,3310, Note_on_c,58,76,2,2,1,67.0,False
18599,3311, Note_on_c,63,76,2,2,1,73.0,False
18600,3311, Note_on_c,66,76,2,2,1,77.0,False
18601,3312, Note_on_c,65,76,2,2,1,76.0,True
18602,3312, Note_on_c,68,76,2,2,1,79.0,False
18603,3313, Note_on_c,58,76,2,2,1,67.0,False
18604,3314, Note_on_c,63,76,2,2,1,73.0,False
18605,3314, Note_on_c,66,76,2,2,1,77.0,False
18606,3315, Note_on_c,65,76,2,2,1,76.0,True
18607,3315, Note_on_c,68,76,2,2,1,79.0,False
18608,3316, Note_on_c,63,76,2,2,1,73.0,False
18609,3316, Note_on_c,66,76,2,2,1,77.0,False
18610,3317, Note_on_c,65,76,2,2,1,76.0,True
18611,3317, Note_on_c,70,76,2,2,1,81.0,False
18612,3318, Note_on_c,58,76,2,2,1,67.0,False
18613,3319, Note_on_c,63,76,2,2,1,73.0,False
18614,3319, Note_on_c,66,76,2,2,1,77.0,False
18615,3320, Note_on_c,65,76,2,2,1,76.0,True
18616,3320, Note_on_c,68,76,2,2,1,79.0,False
18617,3321, Note_on_c,58,76,2,2,1,67.0,False
18618,3322, Note_on_c,63,76,2,2,1,73.0,False
18619,3322, Note_on_c,66,76,2,2,1,77.0,False
18620,3323, Note_on_c,65,76,2,2,1,76.0,True
18621,3323, Note_on_c,68,76,2,2,1,79.0,False
18622,3324, Note_on_c,63,76,2,2,1,73.0,False
18623,3324, Note_on_c,66,76,2,2,1,77.0,False
18624,3325, Note_on_c,65,76,2,2,1,76.0,True
18625,3325, Note_on_c,70,76,2,2,1,81.0,False
18626,3326, Note_on_c,58,76,2,2,1,67.0,False
18627,3327, Note_on_c,63,76,2,2,1,73.0,False
18628,3327, Note_on_c,66,76,2,2,1,77.0,False
18629,3328, Note_on_c,65,76,2,2,1,76.0,True
18630,3328, Note_on_c,68,76,2,2,1,79.0,False
18631,3329, Note_on_c,58,76,2,2,1,67.0,False
18632,3330, Note_on_c,63,76,2,2,1,73.0,False
18633,3330, Note_on_c,66,76,2,2,1,77.0,False
18634,3331, Note_on_c,65,76,2,2,1,76.0,True
18635,3331, Note_on_c,68,76,2,2,1,79.0,False
18636,3332, Note_on_c,63,76,2,2,1,73.0,False
18637,3332, Note_on_c,66,76,2,2,1,77.0,False
18638,3333, Note_on_c,65,76,2,2,1,76.0,True
18639,3333, Note_on_c,70,76,2,2,1,81.0,False
18640,3334, Note_on_c,58,76,2,2,1,67.0,False
18641,3335, Note_on_c,63,76,2,2,1,73.0,False
18642,3335, Note_on_c,66,76,2,2,1,77.0,False
18643,3336, Note_on_c,65,76,2,2,1,76.0,True
18644,3336, Note_on_c,68,76,2,2,1,79.0,False
18645,3337, Note_on_c,58,76,2,2,1,67.0,False
18646,3338, Note_on_c,63,76,2,2,1,73.0,False
18647,3338, Note_on_c,66,76,2,2,1,77.0,False
18648,3339, Note_on_c,65,76,2,2,1,76.0,True
18649,3339, Note_on_c,68,76,2,2,1,79.0,False
18650,3340, Note_on_c,63,76,2,2,1,73.0,False
18651,3340, Note_on_c,66,76,2,2,1,77.0,False
18652,3341, Note_on_c,65,76,2,2,1,76.0,True
18653,3341, Note_on_c,70,76,2,2,1,81.0,False
18654,3342, Note_on_c,58,76,2,2,1,67.0,False
18655,3343, Note_on_c,63,76,2,2,1,73.0,False
18656,3343, Note_on_c,66,76,2,2,1,77.0,False
18657,3344, Note_on_c,65,76,2,2,1,76.0,True
18658,3344, Note_on_c,68,76,2,2,1,79.0,False
18659,3345, Note_on_c,58,76,2,2,1,67.0,False
18660,3346, Note_on_c,63,76,2,2,1,73.0,False
18661,3346, Note_on_c,66,76,2,2,1,77.0,False
18662,3347, Note_on_c,65,76,2,2,1,76.0,True
18663,3347, Note_on_c,68,76,2,2,1,79.0,False
18664,3348, Note_on_c,63,76,2,2,1,73.0,False
18665,3348, Note_on_c,66,76,2,2,1,77.0,False
18666,3349, Note_on_c,65,76,2,2,1,76.0,True
18667,3349, Note_on_c,70,76,2,2,1,81.0,False
18668,3350, Note_on_c,58,76,2,2,1,67.0,False
18669,3351, Note_on_c,63,76,2,2,1,73.0,False
18670,3351, Note_on_c,66,76,2,2,1,77.0,False
18671,3352, Note_on_c,65,76,2,2,1,76.0,True
18672,3352, Note_on_c,68,76,2,2,1,79.0,False
18673,3353, Note_on_c,58,76,2,2,1,67.0,False
18674,3354, Note_on_c,63,76,2,2,1,73.0,False
18675,3354, Note_on_c,66,76,2,2,1,77.0,False
18676,3355, Note_on_c,65,76,2,2,1,76.0,True
18677,3355, Note_on_c,68,76,2,2,1,79.0,False
18678,3356, Note_on_c,63,76,2,2,1,73.0,False
18679,3356, Note_on_c,66,76,2,2,1,77.0,False
18680,3357, Note_on_c,65,76,2,2,1,76.0,True
18681,3357, Note_on_c,70,76,2,2,1,81.0,False
18682,3358, Note_on_c,58,76,2,2,1,67.0,False
18683,3359, Note_on_c,63,76,2,2,1,73.0,False
18684,3359, Note_on_c,66,76,2,2,1,77.0,False
18685,3360, Note_on_c,65,76,2,2,1,76.0,True
18686,3360, Note_on_c,68,76,2,2,1,79.0,False
18687,3361, Note_on_c,58,76,2,2,1,67.0,False
18688,3362, Note_on_c,63,76,2,2,1,73.0,False
18689,3362, Note_on_c,66,76,2,2,1,77.0,False
18690,3363, Note_on_c,65,76,2,2,1,76.0,True
18691,3363, Note_on_c,68,76,2,2,1,79.0,False
18692,3364, Note_on_c,63,76,2,2,1,73.0,False
18693,3364, Note_on_c,66,76,2,2,1,77.0,False
18694,3365, Note_on_c,65,76,2,2,1,76.0,True
18695,3365, Note_on_c,70,76,2,2,1,81.0,False
18696,3366, Note_on_c,58,76,2,2,1,67.0,False
18697,3367, Note_on_c,63,76,2,2,1,73.0,False
18698,3367, Note_on_c,66,76,2,2,1,77.0,False
18699,3368, Note_on_c,65,76,2,2,1,76.0,True
18700,3368, Note_on_c,68,76,2,2,1,79.0,False
18701,3369, Note_on_c,58,76,2,2,1,67.0,False
18702,3370, Note_on_c,63,76,2,2,1,73.0,False
18703,3370, Note_on_c,66,76,2,2,1,77.0,False
18704,3371, Note_on_c,65,76,2,2,1,76.0,True
18705,3371, Note_on_c,68,76,2,2,1,79.0,False
18706,3372, Note_on_c,63,76,2,2,1,73.0,False
18707,3372, Note_on_c,66,76,2,2,1,77.0,False
18708,3373, Note_on_c,65,76,2,2,1,76.0,True
18709,3373, Note_on_c,70,76,2,2,1,81.0,False
18710,3374, Note_on_c,58,76,2,2,1,67.0,False
18711,3375, Note_on_c,63,76,2,2,1,73.0,False
18712,3375, Note_on_c,66,76,2,2,1,77.0,False
18713,3376, Note_on_c,65,76,2,2,1,76.0,True
18714,3376, Note_on_c,68,76,2,2,1,79.0,False
18715,3377, Note_on_c,58,76,2,2,1,67.0,False
18716,3378, Note_on_c,63,76,2,2,1,73.0,False
18717,3378, Note_on_c,66,76,2,2,1,77.0,False
18718,3379, Note_on_c,65,76,2,2,1,76.0,True
18719,3379, Note_on_c,68,76,2,2,1,79.0,False
18720,3380, Note_on_c,63,76,2,2,1,73.0,False
18721,3380, Note_on_c,66,76,2,2,1,77.0,False
18722,3381, Note_on_c,65,76,2,2,1,76.0,True
18723,3381, Note_on_c,70,76,2,2,1,81.0,False
18724,3382, Note_on_c,58,76,2,2,1,67.0,False
18725,3383, Note_on_c,63,76,2,2,1,73.0,False
18726,3383, Note_on_c,66,76,2,2,1,77.0,False
18727,3384, Note_on_c,65,76,2,2,1,76.0,True
18728,3384, Note_on_c,68,76,2,2,1,79.0,False
18729,3385, Note_on_c,58,76,2,2,1,67.0,False
18730,3386, Note_on_c,63,76,2,2,1,73.0,False
18731,3386, Note_on_c,66,76,2,2,1,77.0,False
18732,3387, Note_on_c,65,76,2,2,1,76.0,True
18733,3387, Note_on_c,68,76,2,2,1,79.0,False
18734,3388, Note_on_c,63,76,2,2,1,73.0,False
18735,3388, Note_on_c,66,76,2,2,1,77.0,False
18736,3389, Note_on_c,65,76,2,2,1,76.0,True
18737,3389, Note_on_c,70,76,2,2,1,81.0,False
18738,3390, Note_on_c,58,76,2,2,1,67.0,False
18739,3391, Note_on_c,63,76,2,2,1,73.0,False
18740,3391, Note_on_c,66,76,2,2,1,77.0,False
18741,3392, Note_on_c,65,76,2,2,1,76.0,True
18742,3392, Note_on_c,68,76,2,2,1,79.0,False
18743,3393, Note_on_c,58,76,2,2,1,67.0,False
18744,3394, Note_on_c,63,76,2,2,1,73.0,False
18745,3394, Note_on_c,66,76,2,2,1,77.0,False
18746,3395, Note_on_c,65,76,2,2,1,76.0,True
18747,3395, Note_on_c,68,76,2,2,1,79.0,False
18748,3396, Note_on_c,63,76,2,2,1,73.0,False
18749,3396, Note_on_c,66,76,2,2,1,77.0,False
18750,3397, Note_on_c,65,76,2,2,1,76.0,True
18751,3397, Note_on_c,70,76,2,2,1,81.0,False
18752,3398, Note_on_c,58,76,2,2,1,67.0,False
18753,3399, Note_on_c,63,76,2,2,1,73.0,False
18754,3399, Note_on_c,66,76,2,2,1,77.0,False
18755,3400, Note_on_c,65,76,2,2,1,76.0,True
18756,3400, Note_on_c,68,76,2,2,1,79.0,False
18757,3401, Note_on_c,58,76,2,2,1,67.0,False
18758,3402, Note_on_c,63,76,2,2,1,73.0,False
18759,3402, Note_on_c,66,76,2,2,1,77.0,False
18760,3403, Note_on_c,65,76,2,2,1,76.0,True
18761,3403, Note_on_c,68,76,2,2,1,79.0,False
18762,3404, Note_on_c,63,76,2,2,1,73.0,False
18763,3404, Note_on_c,66,76,2,2,1,77.0,False
18764,3405, Note_on_c,65,76,2,2,1,76.0,True
18765,3405, Note_on_c,70,76,2,2,1,81.0,False
18766,3406, Note_on_c,58,76,2,2,1,67.0,False
18767,3407, Note_on_c,63,76,2,2,1,73.0,False
18768,3407, Note_on_c,66,76,2,2,1,77.0,False
18769,3408, Note_on_c,65,76,2,2,1,76.0,True
18770,3408, Note_on_c,68,76,2,2,1,79.0,False
18771,3409, Note_on_c,58,76,2,2,1,67.0,False
18772,3410, Note_on_c,63,76,2,2,1,73.0,False
18773,3410, Note_on_c,66,76,2,2,1,77.0,False
18774,3411, Note_on_c,65,76,2,2,1,76.0,True
18775,3411, Note_on_c,68,76,2,2,1,79.0,False
18776,3412, Note_on_c,63,76,2,2,1,73.0,False
18777,3412, Note_on_c,66,76,2,2,1,77.0,False
18778,3413, Note_on_c,65,76,2,2,1,76.0,True
18779,3413, Note_on_c,70,76,2,2,1,81.0,False
18780,3414, Note_on_c,58,76,2,2,1,67.0,False
18781,3415, Note_on_c,63,76,2,2,1,73.0,False
18782,3415, Note_on_c,66,76,2,2,1,77.0,False
18783,3416, Note_on_c,65,76,2,2,1,76.0,True
18784,3416, Note_on_c,68,76,2,2,1,79.0,False
18785,3417, Note_on_c,58,76,2,2,1,67.0,False
18786,3418, Note_on_c,63,76,2,2,1,73.0,False
18787,3418, Note_on_c,66,76,2,2,1,77.0,False
18788,3419, Note_on_c,65,76,2,2,1,76.0,True
18789,3419, Note_on_c,68,76,2,2,1,79.0,False
18790,3420, Note_on_c,63,76,2,2,1,73.0,False
18791,3420, Note_on_c,66,76,2,2,1,77.0,False
18792,3421, Note_on_c,65,76,2,2,1,76.0,True
18793,3421, Note_on_c,70,76,2,2,1,81.0,False
18794,3422, Note_on_c,58,76,2,2,1,67.0,False
18795,3423, Note_on_c,63,76,2,2,1,73.0,False
18796,3423, Note_on_c,66,76,2,2,1,77.0,False
18797,3424, Note_on_c,65,76,2,2,1,76.0,True
18798,3424, Note_on_c,68,76,2,2,1,79.0,False
18799,3425, Note_on_c,58,76,2,2,1,67.0,False
18800,3426, Note_on_c,63,76,2,2,1,73.0,False
18801,3426, Note_on_c,66,76,2,2,1,77.0,False
18802,3427, Note_on_c,65,76,2,2,1,76.0,True
18803,3427, Note_on_c,68,76,2,2,1,79.0,False
18804,3428, Note_on_c,63,76,2,2,1,73.0,False
18805,3428, Note_on_c,66,76,2,2,1,77.0,False
18806,3429, Note_on_c,65,76,2,2,1,76.0,True
18807,3429, Note_on_c,70,76,2,2,1,81.0,False
18808,3430, Note_on_c,58,76,2,2,1,67.0,False
18809,3431, Note_on_c,63,76,2,2,1,73.0,False
18810,3431, Note_on_c,66,76,2,2,1,77.0,False
18811,3432, Note_on_c,65,76,2,2,1,76.0,True
18812,3432, Note_on_c,68,76,2,2,1,79.0,False
18813,3433, Note_on_c,58,76,2,2,1,67.0,False
18814,3434, Note_on_c,63,76,2,2,1,73.0,False
18815,3434, Note_on_c,66,76,2,2,1,77.0,False
18816,3435, Note_on_c,65,76,2,2,1,76.0,True
18817,3435, Note_on_c,68,76,2,2,1,79.0,False
18818,3436, Note_on_c,63,76,2,2,1,73.0,False
18819,3436, Note_on_c,66,76,2,2,1,77.0,False
18820,3437, Note_on_c,65,76,2,2,1,76.0,True
18821,3437, Note_on_c,70,76,2,2,1,81.0,False
18822,3438, Note_on_c,58,76,2,2,1,67.0,False
18823,3439, Note_on_c,63,76,2,2,1,73.0,False
18824,3439, Note_on_c,66,76,2,2,1,77.0,False
18825,3440, Note_on_c,65,76,2,2,1,76.0,True
18826,3440, Note_on_c,68,76,2,2,1,79.0,False
18827,3441, Note_on_c,58,76,2,2,1,67.0,False
18828,3442, Note_on_c,63,76,2,2,1,73.0,False
18829,3442, Note_on_c,66,76,2,2,1,77.0,False
18830,3443, Note_on_c,65,76,2,2,1,76.0,True
18831,3443, Note_on_c,68,76,2,2,1,79.0,False
18832,3444, Note_on_c,63,76,2,2,1,73.0,False
18833,3444, Note_on_c,66,76,2,2,1,77.0,False
18834,3445, Note_on_c,65,76,2,2,1,76.0,True
18835,3445, Note_on_c,70,76,2,2,1,81.0,False
18836,3446, Note_on_c,58,76,2,2,1,67.0,False
18837,3447, Note_on_c,63,76,2,2,1,73.0,False
18838,3447, Note_on_c,66,76,2,2,1,77.0,False
18839,3448, Note_on_c,65,76,2,2,1,76.0,True
18840,3448, Note_on_c,68,76,2,2,1,79.0,False
18841,3449, Note_on_c,58,76,2,2,1,67.0,False
18842,3450, Note_on_c,63,76,2,2,1,73.0,False
18843,3450, Note_on_c,66,76,2,2,1,77.0,False
18844,3451, Note_on_c,65,76,2,2,1,76.0,True
18845,3451, Note_on_c,68,76,2,2,1,79.0,False
18846,3452, Note_on_c,63,76,2,2,1,73.0,False
18847,3452, Note_on_c,66,76,2,2,1,77.0,False
18848,3453, Note_on_c,65,76,2,2,1,76.0,True
18849,3453, Note_on_c,70,76,2,2,1,81.0,False
18850,3454, Note_on_c,58,76,2,2,1,67.0,False
18851,3455, Note_on_c,63,76,2,2,1,73.0,False
18852,3455, Note_on_c,66,76,2,2,1,77.0,False
18853,3456, Note_on_c,65,76,2,2,1,76.0,True
18854,3456, Note_on_c,68,76,2,2,1,79.0,False
18855,3457, Note_on_c,58,76,2,2,1,67.0,False
18856,3458, Note_on_c,63,76,2,2,1,73.0,False
18857,3458, Note_on_c,66,76,2,2,1,77.0,False
18858,3459, Note_on_c,65,76,2,2,1,76.0,True
18859,3459, Note_on_c,68,76,2,2,1,79.0,False
18860,3460, Note_on_c,63,76,2,2,1,73.0,False
18861,3460, Note_on_c,66,76,2,2,1,77.0,False
18862,3461, Note_on_c,65,76,2,2,1,76.0,True
18863,3461, Note_on_c,70,76,2,2,1,81.0,False
18864,3462, Note_on_c,58,76,2,2,1,67.0,False
18865,3463, Note_on_c,63,76,2,2,1,73.0,False
18866,3463, Note_on_c,66,76,2,2,1,77.0,False
18867,3464, Note_on_c,65,76,2,2,1,76.0,True
18868,3464, Note_on_c,68,76,2,2,1,79.0,False
18869,3465, Note_on_c,58,76,2,2,1,67.0,False
18870,3466, Note_on_c,63,76,2,2,1,73.0,False
18871,3466, Note_on_c,66,76,2,2,1,77.0,False
18872,3467, Note_on_c,65,76,2,2,1,76.0,True
18873,3467, Note_on_c,68,76,2,2,1,79.0,False
18874,3468, Note_on_c,63,76,2,2,1,73.0,False
18875,3468, Note_on_c,66,76,2,2,1,77.0,False
18876,3469, Note_on_c,65,76,2,2,1,76.0,True
18877,3469, Note_on_c,70,76,2,2,1,81.0,False
18878,3470, Note_on_c,58,76,2,2,1,67.0,False
18879,3471, Note_on_c,63,76,2,2,1,73.0,False
18880,3471, Note_on_c,66,76,2,2,1,77.0,False
18881,3472, Note_on_c,65,76,2,2,1,76.0,True
18882,3472, Note_on_c,68,76,2,2,1,79.0,False
18883,3473, Note_on_c,58,76,2,2,1,67.0,False
18884,3474, Note_on_c,63,76,2,2,1,73.0,False
18885,3474, Note_on_c,66,76,2,2,1,77.0,False
18886,3475, Note_on_c,65,76,2,2,1,76.0,True
18887,3475, Note_on_c,68,76,2,2,1,79.0,False
18888,3476, Note_on_c,63,76,2,2,1,73.0,False
18889,3476, Note_on_c,66,76,2,2,1,77.0,False
18890,3477, Note_on_c,65,76,2,2,1,76.0,True
18891,3477, Note_on_c,70,76,2,2,1,81.0,False
18892,3478, Note_on_c,58,76,2,2,1,67.0,False
18893,3479, Note_on_c,63,76,2,2,1,73.0,False
18894,3479, Note_on_c,66,76,2,2,1,77.0,False
18895,3480, Note_on_c,65,76,2,2,1,76.0,True
18896,3480, Note_on_c,68,76,2,2,1,79.0,False
18897,3481, Note_on_c,58,76,2,2,1,67.0,False
18898,3482, Note_on_c,63,76,2,2,1,73.0,False
18899,3482, Note_on_c,66,76,2,2,1,77.0,False
18900,3483, Note_on_c,65,76,2,2,1,76.0,True
18901,3483, Note_on_c,68,76,2,2,1,79.0,False
18902,3484, Note_on_c,63,76,2,2,1,73.0,False
18903,3484, Note_on_c,66,76,2,2,1,77.0,False
18904,3485, Note_on_c,65,76,2,2,1,76.0,True
18905,3485, Note_on_c,70,76,2,2,1,81.0,False
18906,3486, Note_on_c,58,76,2,2,1,67.0,False
18907,3487, Note_on_c,63,76,2,2,1,73.0,False
18908,3487, Note_on_c,66,76,2,2,1,77.0,False
18909,3488, Note_on_c,65,76,2,2,1,76.0,True
18910,3488, Note_on_c,68,76,2,2,1,79.0,False
18911,3489, Note_on_c,58,76,2,2,1,67.0,False
18912,3490, Note_on_c,63,76,2,2,1,73.0,False
18913,3490, Note_on_c,66,76,2,2,1,77.0,False
18914,3491, Note_on_c,65,76,2,2,1,76.0,True
18915,3491, Note_on_c,68,76,2,2,1,79.0,False
18916,3492, Note_on_c,63,76,2,2,1,73.0,False
18917,3492, Note_on_c,66,76,2,2,1,77.0,False
18918,3493, Note_on_c,65,76,2,2,1,76.0,True
18919,3493, Note_on_c,70,76,2,2,1,81.0,False
18920,3494, Note_on_c,58,76,2,2,1,67.0,False
18921,3495, Note_on_c,63,76,2,2,1,73.0,False
18922,3495, Note_on_c,66,76,2,2,1,77.0,False
18923,3496, Note_on_c,65,76,2,2,1,76.0,True
18924,3496, Note_on_c,68,76,2,2,1,79.0,False
18925,3497, Note_on_c,58,76,2,2,1,67.0,False
18926,3498, Note_on_c,63,76,2,2,1,73.0,False
18927,3498, Note_on_c,66,76,2,2,1,77.0,False
18928,3499, Note_on_c,65,76,2,2,1,76.0,True
18929,3499, Note_on_c,68,76,2,2,1,79.0,False
18930,3500, Note_on_c,63,76,2,2,1,73.0,False
18931,3500, Note_on_c,66,76,2,2,1,77.0,False
18932,3501, Note_on_c,65,76,2,2,1,76.0,True
18933,3501, Note_on_c,70,76,2,2,1,81.0,False
18934,3502, Note_on_c,58,76,2,2,1,67.0,False
18935,3503, Note_on_c,63,76,2,2,1,73.0,False
18936,3503, Note_on_c,66,76,2,2,1,77.0,False
18937,3504, Note_on_c,65,76,2,2,1,76.0,True
18938,3504, Note_on_c,68,76,2,2,1,79.0,False
18939,3505, Note_on_c,58,76,2,2,1,67.0,False
18940,3506, Note_on_c,63,76,2,2,1,73.0,False
18941,3506, Note_on_c,66,76,2,2,1,77.0,False
18942,3507, Note_on_c,65,76,2,2,1,76.0,True
18943,3507, Note_on_c,68,76,2,2,1,79.0,False
18944,3508, Note_on_c,63,76,2,2,1,73.0,False
18945,3508, Note_on_c,66,76,2,2,1,77.0,False
18946,3509, Note_on_c,65,76,2,2,1,76.0,True
18947,3509, Note_on_c,70,76,2,2,1,81.0,False
18948,3510, Note_on_c,58,76,2,2,1,67.0,False
18949,3511, Note_on_c,63,76,2,2,1,73.0,False
18950,3511, Note_on_c,66,76,2,2,1,77.0,False
18951,3512, Note_on_c,65,76,2,2,1,76.0,True
18952,3512, Note_on_c,68,76,2,2,1,79.0,False
18953,3513, Note_on_c,58,76,2,2,1,67.0,False
18954,3514, Note_on_c,63,76,2,2,1,73.0,False
18955,3514, Note_on_c,66,76,2,2,1,77.0,False
18956,3515, Note_on_c,65,76,2,2,1,76.0,True
18957,3515, Note_on_c,68,76,2,2,1,79.0,False
18958,3516, Note_on_c,63,76,2,2,1,73.0,False
18959,3516, Note_on_c,66,76,2,2,1,77.0,False
18960,3517, Note_on_c,65,76,2,2,1,76.0,True
18961,3517, Note_on_c,70,76,2,2,1,81.0,False
18962,3518, Note_on_c,58,76,2,2,1,67.0,False
18963,3519, Note_on_c,63,76,2,2,1,73.0,False
18964,3519, Note_on_c,66,76,2,2,1,77.0,False
18965,3520, Note_on_c,65,76,2,2,1,76.0,True
18966,3520, Note_on_c,68,76,2,2,1,79.0,False
18967,3521, Note_on_c,58,76,2,2,1,67.0,False
18968,3522, Note_on_c,63,76,2,2,1,73.0,False
18969,3522, Note_on_c,66,76,2,2,1,77.0,False
18970,3523, Note_on_c,65,76,2,2,1,76.0,True
18971,3523, Note_on_c,68,76,2,2,1,79.0,False
18972,3524, Note_on_c,63,76,2,2,1,73.0,False
18973,3524, Note_on_c,66,76,2,2,1,77.0,False
18974,3525, Note_on_c,65,76,2,2,1,76.0,True
18975,3525, Note_on_c,70,76,2,2,1,81.0,False
18976,3526, Note_on_c,58,76,2,2,1,67.0,False
18977,3527, Note_on_c,63,76,2,2,1,73.0,False
18978,3527, Note_on_c,66,76,2,2,1,77.0,False
18979,3528, Note_on_c,65,76,2,2,1,76.0,True
18980,3528, Note_on_c,68,76,2,2,1,79.0,False
18981,3529, Note_on_c,58,76,2,2,1,67.0,False
18982,3530, Note_on_c,63,76,2,2,1,73.0,False
18983,3530, Note_on_c,66,76,2,2,1,77.0,False
18984,3531, Note_on_c,65,76,2,2,1,76.0,True
18985,3531, Note_on_c,68,76,2,2,1,79.0,False
18986,3532, Note_on_c,63,76,2,2,1,73.0,False
18987,3532, Note_on_c,66,76,2,2,1,77.0,False
18988,3533, Note_on_c,65,76,2,2,1,76.0,True
18989,3533, Note_on_c,70,76,2,2,1,81.0,False
18990,3534, Note_on_c,58,76,2,2,1,67.0,False
18991,3535, Note_on_c,63,76,2,2,1,73.0,False
18992,3535, Note_on_c,66,76,2,2,1,77.0,False
18993,3536, Note_on_c,65,76,2,2,1,76.0,True
18994,3536, Note_on_c,68,76,2,2,1,79.0,False
18995,3537, Note_on_c,58,76,2,2,1,67.0,False
18996,3538, Note_on_c,63,76,2,2,1,73.0,False
18997,3538, Note_on_c,66,76,2,2,1,77.0,False
18998,3539, Note_on_c,65,76,2,2,1,76.0,True
18999,3539, Note_on_c,68,76,2,2,1,79.0,False
19000,3540, Note_on_c,63,76,2,2,1,73.0,False
19001,3540, Note_on_c,66,76,2,2,1,77.0,False
19002,3541, Note_on_c,65,76,2,2,1,76.0,True
19003,3541, Note_on_c,70,76,2,2,1,81.0,False
19004,3542, Note_on_c,58,76,2,2,1,67.0,False
19005,3543, Note_on_c,63,76,2,2,1,73.0,False
19006,3543, Note_on_c,66,76,2,2,1,77.0,False
19007,3544, Note_on_c,65,76,2,2,1,76.0,True
19008,3544, Note_on_c,68,76,2,2,1,79.0,False
19009,3545, Note_on_c,58,76,2,2,1,67.0,False
19010,3546, Note_on_c,63,76,2,2,1,73.0,False
19011,3546, Note_on_c,66,76,2,2,1,77.0,False
19012,3547, Note_on_c,65,76,2,2,1,76.0,True
19013,3547, Note_on_c,68,76,2,2,1,79.0,False
19014,3548, Note_on_c,63,76,2,2,1,73.0,False
19015,3548, Note_on_c,66,76,2,2,1,77.0,False
19016,3549, Note_on_c,65,76,2,2,1,76.0,True
19017,3549, Note_on_c,70,76,2,2,1,81.0,False
19018,3550, Note_on_c,58,76,2,2,1,67.0,False
19019,3551, Note_on_c,63,76,2,2,1,73.0,False
19020,3551, Note_on_c,66,76,2,2,1,77.0,False
19021,3552, Note_on_c,65,76,2,2,1,76.0,True
19022,3552, Note_on_c,68,76,2,2,1,79.0,False
19023,3553, Note_on_c,58,76,2,2,1,67.0,False
19024,3554, Note_on_c,63,76,2,2,1,73.0,False
19025,3554, Note_on_c,66,76,2,2,1,77.0,False
19026,3555, Note_on_c,65,76,2,2,1,76.0,True
19027,3555, Note_on_c,68,76,2,2,1,79.0,False
19028,3556, Note_on_c,63,76,2,2,1,73.0,False
19029,3556, Note_on_c,66,76,2,2,1,77.0,False
19030,3557, Note_on_c,65,76,2,2,1,76.0,True
19031,3557, Note_on_c,70,76,2,2,1,81.0,False
19032,3558, Note_on_c,58,76,2,2,1,67.0,False
19033,3559, Note_on_c,63,76,2,2,1,73.0,False
19034,3559, Note_on_c,66,76,2,2,1,77.0,False
19035,3560, Note_on_c,65,76,2,2,1,76.0,True
19036,3560, Note_on_c,68,76,2,2,1,79.0,False
19037,3561, Note_on_c,58,76,2,2,1,67.0,False
19038,3562, Note_on_c,63,76,2,2,1,73.0,False
19039,3562, Note_on_c,66,76,2,2,1,77.0,False
19040,3563, Note_on_c,65,76,2,2,1,76.0,True
19041,3563, Note_on_c,68,76,2,2,1,79.0,False
19042,3564, Note_on_c,63,76,2,2,1,73.0,False
19043,3564, Note_on_c,66,76,2,2,1,77.0,False
19044,3565, Note_on_c,65,76,2,2,1,76.0,True
19045,3565, Note_on_c,70,76,2,2,1,81.0,False
19046,3566, Note_on_c,58,76,2,2,1,67.0,False
19047,3567, Note_on_c,63,76,2,2,1,73.0,False
19048,3567, Note_on_c,66,76,2,2,1,77.0,False
19049,3568, Note_on_c,65,76,2,2,1,76.0,True
19050,3568, Note_on_c,68,76,2,2,1,79.0,False
19051,3569, Note_on_c,58,76,2,2,1,67.0,False
19052,3570, Note_on_c,63,76,2,2,1,73.0,False
19053,3570, Note_on_c,66,76,2,2,1,77.0,False
19054,3571, Note_on_c,65,76,2,2,1,76.0,True
19055,3571, Note_on_c,68,76,2,2,1,79.0,False
19056,3572, Note_on_c,63,76,2,2,1,73.0,False
19057,3572, Note_on_c,66,76,2,2,1,77.0,False
19058,3573, Note_on_c,65,76,2,2,1,76.0,True
19059,3573, Note_on_c,70,76,2,2,1,81.0,False
19060,3574, Note_on_c,58,76,2,2,1,67.0,False
19061,3575, Note_on_c,63,76,2,2,1,73.0,False
19062,3575, Note_on_c,66,76,2,2,1,77.0,False
19063,3576, Note_on_c,65,76,2,2,1,76.0,True
19064,3576, Note_on_c,68,76,2,2,1,79.0,False
19065,3577, Note_on_c,58,76,2,2,1,67.0,False
19066,3578, Note_on_c,63,76,2,2,1,73.0,False
19067,3578, Note_on_c,66,76,2,2,1,77.0,False
19068,3579, Note_on_c,65,76,2,2,1,76.0,True
19069,3579, Note_on_c,68,76,2,2,1,79.0,False
19070,3580, Note_on_c,63,76,2,2,1,73.0,False
19071,3580, Note_on_c,66,76,2,2,1,77.0,False
19072,3581, Note_on_c,65,76,2,2,1,76.0,True
19073,3581, Note_on_c,70,76,2,2,1,81.0,False
19074,3582, Note_on_c,58,76,2,2,1,67.0,False
19075,3583, Note_on_c,63,76,2,2,1,73.0,False
19076,3583, Note_on_c,66,76,2,2,1,77.0,False
19077,3584, Note_on_c,65,76,2,2,1,76.0,True
19078,3584, Note_on_c,68,76,2,2,1,79.0,False
19079,3585, Note_on_c,58,76,2,2,1,67.0,False
19080,3586, Note_on_c,63,76,2,2,1,73.0,False
19081,3586, Note_on_c,66,76,2,2,1,77.0,False
19082,3587, Note_on_c,65,76,2,2,1,76.0,True
19083,3587, Note_on_c,68,76,2,2,1,79.0,False
19084,3588, Note_on_c,63,76,2,2,1,73.0,False
19085,3588, Note_on_c,66,76,2,2,1,77.0,False
19086,3589, Note_on_c,65,76,2,2,1,76.0,True
19087,3589, Note_on_c,70,76,2,2,1,81.0,False
19088,3590, Note_on_c,58,76,2,2,1,67.0,False
19089,3591, Note_on_c,63,76,2,2,1,73.0,False
19090,3591, Note_on_c,66,76,2,2,1,77.0,False
19091,3592, Note_on_c,65,76,2,2,1,76.0,True
19092,3592, Note_on_c,68,76,2,2,1,79.0,False
19093,3593, Note_on_c,58,76,2,2,1,67.0,False
19094,3594, Note_on_c,63,76,2,2,1,73.0,False
19095,3594, Note_on_c,66,76,2,2,1,77.0,False
19096,3595, Note_on_c,65,76,2,2,1,76.0,True
19097,3595, Note_on_c,68,76,2,2,1,79.0,False
19098,3596, Note_on_c,63,76,2,2,1,73.0,False
19099,3596, Note_on_c,66,76,2,2,1,77.0,False
19100,3597, Note_on_c,65,76,2,2,1,76.0,True
19101,3597, Note_on_c,70,76,2,2,1,81.0,False
19102,3598, Note_on_c,58,76,2,2,1,67.0,False
19103,3599, Note_on_c,63,76,2,2,1,73.0,False
19104,3599, Note_on_c,66,76,2,2,1,77.0,False
19105,3600, Note_on_c,65,76,2,2,1,76.0,True
19106,3600, Note_on_c,68,76,2,2,1,79.0,False
19107,3601, Note_on_c,58,76,2,2,1,67.0,False
19108,3602, Note_on_c,63,76,2,2,1,73.0,False
19109,3602, Note_on_c,66,76,2,2,1,77.0,False
19110,3603, Note_on_c,65,76,2,2,1,76.0,True
19111,3603, Note_on_c,68,76,2,2,1,79.0,False
19112,3604, Note_on_c,63,76,2,2,1,73.0,False
19113,3604, Note_on_c,66,76,2,2,1,77.0,False
19114,3605, Note_on_c,65,76,2,2,1,76.0,True
19115,3605, Note_on_c,70,76,2,2,1,81.0,False
19116,3606, Note_on_c,58,76,2,2,1,67.0,False
19117,3607, Note_on_c,63,76,2,2,1,73.0,False
19118,3607, Note_on_c,66,76,2,2,1,77.0,False
19119,3608, Note_on_c,65,76,2,2,1,76.0,True
19120,3608, Note_on_c,68,76,2,2,1,79.0,False
19121,3609, Note_on_c,58,76,2,2,1,67.0,False
19122,3610, Note_on_c,63,76,2,2,1,73.0,False
19123,3610, Note_on_c,66,76,2,2,1,77.0,False
19124,3611, Note_on_c,65,76,2,2,1,76.0,True
19125,3611, Note_on_c,68,76,2,2,1,79.0,False
19126,3612, Note_on_c,63,76,2,2,1,73.0,False
19127,3612, Note_on_c,66,76,2,2,1,77.0,False
19128,3613, Note_on_c,65,76,2,2,1,76.0,True
19129,3613, Note_on_c,70,76,2,2,1,81.0,False
19130,3614, Note_on_c,58,76,2,2,1,67.0,False
19131,3615, Note_on_c,63,76,2,2,1,73.0,False
19132,3615, Note_on_c,66,76,2,2,1,77.0,False
19133,3616, Note_on_c,65,76,2,2,1,76.0,True
19134,3616, Note_on_c,68,76,2,2,1,79.0,False
19135,3617, Note_on_c,58,76,2,2,1,67.0,False
19136,3618, Note_on_c,63,76,2,2,1,73.0,False
19137,3618, Note_on_c,66,76,2,2,1,77.0,False
19138,3619, Note_on_c,65,76,2,2,1,76.0,True
19139,3619, Note_on_c,68,76,2,2,1,79.0,False
19140,3620, Note_on_c,63,76,2,2,1,73.0,False
19141,3620, Note_on_c,66,76,2,2,1,77.0,False
19142,3621, Note_on_c,65,76,2,2,1,76.0,True
19143,3621, Note_on_c,70,76,2,2,1,81.0,False
19144,3622, Note_on_c,58,76,2,2,1,67.0,False
19145,3623, Note_on_c,63,76,2,2,1,73.0,False
19146,3623, Note_on_c,66,76,2,2,1,77.0,False
19147,3624, Note_on_c,65,76,2,2,1,76.0,True
19148,3624, Note_on_c,68,76,2,2,1,79.0,False
19149,3625, Note_on_c,58,76,2,2,1,67.0,False
19150,3626, Note_on_c,63,76,2,2,1,73.0,False
19151,3626, Note_on_c,66,76,2,2,1,77.0,False
19152,3627, Note_on_c,65,76,2,2,1,76.0,True
19153,3627, Note_on_c,68,76,2,2,1,79.0,False
19154,3628, Note_on_c,63,76,2,2,1,73.0,False
19155,3628, Note_on_c,66,76,2,2,1,77.0,False
19156,3629, Note_on_c,65,76,2,2,1,76.0,True
19157,3629, Note_on_c,70,76,2,2,1,81.0,False
19158,3630, Note_on_c,58,76,2,2,1,67.0,False
19159,3631, Note_on_c,63,76,2,2,1,73.0,False
19160,3631, Note_on_c,66,76,2,2,1,77.0,False
19161,3632, Note_on_c,65,76,2,2,1,76.0,True
19162,3632, Note_on_c,68,76,2,2,1,79.0,False
19163,3633, Note_on_c,58,76,2,2,1,67.0,False
19164,3634, Note_on_c,63,76,2,2,1,73.0,False
19165,3634, Note_on_c,66,76,2,2,1,77.0,False
19166,3635, Note_on_c,65,76,2,2,1,76.0,True
19167,3635, Note_on_c,68,76,2,2,1,79.0,False
19168,3636, Note_on_c,63,76,2,2,1,73.0,False
19169,3636, Note_on_c,66,76,2,2,1,77.0,False
19170,3637, Note_on_c,65,76,2,2,1,76.0,True
19171,3637, Note_on_c,70,76,2,2,1,81.0,False
19172,3638, Note_on_c,58,76,2,2,1,67.0,False
19173,3639, Note_on_c,63,76,2,2,1,73.0,False
19174,3639, Note_on_c,66,76,2,2,1,77.0,False
19175,3640, Note_on_c,65,76,2,2,1,76.0,True
19176,3640, Note_on_c,68,76,2,2,1,79.0,False
19177,3641, Note_on_c,58,76,2,2,1,67.0,False
19178,3642, Note_on_c,63,76,2,2,1,73.0,False
19179,3642, Note_on_c,66,76,2,2,1,77.0,False
19180,3643, Note_on_c,65,76,2,2,1,76.0,True
19181,3643, Note_on_c,68,76,2,2,1,79.0,False
19182,3644, Note_on_c,63,76,2,2,1,73.0,False
19183,3644, Note_on_c,66,76,2,2,1,77.0,False
19184,3645, Note_on_c,65,76,2,2,1,76.0,True
19185,3645, Note_on_c,70,76,2,2,1,81.0,False
19186,3646, Note_on_c,58,76,2,2,1,67.0,False
19187,3647, Note_on_c,63,76,2,2,1,73.0,False
19188,3647, Note_on_c,66,76,2,2,1,77.0,False
19189,3648, Note_on_c,65,76,2,2,1,76.0,True
19190,3648, Note_on_c,68,76,2,2,1,79.0,False
19191,3649, Note_on_c,58,76,2,2,1,67.0,False
19192,3650, Note_on_c,63,76,2,2,1,73.0,False
19193,3650, Note_on_c,66,76,2,2,1,77.0,False
19194,3651, Note_on_c,65,76,2,2,1,76.0,True
19195,3651, Note_on_c,68,76,2,2,1,79.0,False
19196,3652, Note_on_c,63,76,2,2,1,73.0,False
19197,3652, Note_on_c,66,76,2,2,1,77.0,False
19198,3653, Note_on_c,65,76,2,2,1,76.0,True
19199,3653, Note_on_c,70,76,2,2,1,81.0,False
19200,3654, Note_on_c,58,76,2,2,1,67.0,False
19201,3655, Note_on_c,63,76,2,2,1,73.0,False
19202,3655, Note_on_c,66,76,2,2,1,77.0,False
19203,3656, Note_on_c,65,76,2,2,1,76.0,True
19204,3656, Note_on_c,68,76,2,2,1,79.0,False
19205,3657, Note_on_c,58,76,2,2,1,67.0,False
19206,3658, Note_on_c,63,76,2,2,1,73.0,False
19207,3658, Note_on_c,66,76,2,2,1,77.0,False
19208,3659, Note_on_c,65,76,2,2,1,76.0,True
19209,3659, Note_on_c,68,76,2,2,1,79.0,False
19210,3660, Note_on_c,63,76,2,2,1,73.0,False
19211,3660, Note_on_c,66,76,2,2,1,77.0,False
19212,3661, Note_on_c,65,76,2,2,1,76.0,True
19213,3661, Note_on_c,70,76,2,2,1,81.0,False
19214,3662, Note_on_c,58,76,2,2,1,67.0,False
19215,3663, Note_on_c,63,76,2,2,1,73.0,False
19216,3663, Note_on_c,66,76,2,2,1,77.0,False
19217,3664, Note_on_c,65,76,2,2,1,76.0,True
19218,3664, Note_on_c,68,76,2,2,1,79.0,False
19219,3665, Note_on_c,58,76,2,2,1,67.0,False
19220,3666, Note_on_c,63,76,2,2,1,73.0,False
19221,3666, Note_on_c,66,76,2,2,1,77.0,False
19222,3667, Note_on_c,65,76,2,2,1,76.0,True
19223,3667, Note_on_c,68,76,2,2,1,79.0,False
19224,3668, Note_on_c,63,76,2,2,1,73.0,False
19225,3668, Note_on_c,66,76,2,2,1,77.0,False
19226,3669, Note_on_c,65,76,2,2,1,76.0,True
19227,3669, Note_on_c,70,76,2,2,1,81.0,False
19228,3670, Note_on_c,58,76,2,2,1,67.0,False
19229,3671, Note_on_c,63,76,2,2,1,73.0,False
19230,3671, Note_on_c,66,76,2,2,1,77.0,False
19231,3672, Note_on_c,65,76,2,2,1,76.0,True
19232,3672, Note_on_c,68,76,2,2,1,79.0,False
19233,3673, Note_on_c,58,76,2,2,1,67.0,False
19234,3674, Note_on_c,63,76,2,2,1,73.0,False
19235,3674, Note_on_c,66,76,2,2,1,77.0,False
19236,3675, Note_on_c,65,76,2,2,1,76.0,True
19237,3675, Note_on_c,68,76,2,2,1,79.0,False
19238,3676, Note_on_c,63,76,2,2,1,73.0,False
19239,3676, Note_on_c,66,76,2,2,1,77.0,False
19240,3677, Note_on_c,65,76,2,2,1,76.0,True
19241,3677, Note_on_c,70,76,2,2,1,81.0,False
19242,3678, Note_on_c,58,76,2,2,1,67.0,False
19243,3679, Note_on_c,63,76,2,2,1,73.0,False
19244,3679, Note_on_c,66,76,2,2,1,77.0,False
19245,3680, Note_on_c,65,76,2,2,1,76.0,True
19246,3680, Note_on_c,68,76,2,2,1,79.0,False
19247,3681, Note_on_c,58,76,2,2,1,67.0,False
19248,3682, Note_on_c,63,76,2,2,1,73.0,False
19249,3682, Note_on_c,66,76,2,2,1,77.0,False
19250,3683, Note_on_c,65,76,2,2,1,76.0,True
19251,3683, Note_on_c,68,76,2,2,1,79.0,False
19252,3684, Note_on_c,63,76,2,2,1,73.0,False
19253,3684, Note_on_c,66,76,2,2,1,77.0,False
19254,3685, Note_on_c,65,76,2,2,1,76.0,True
19255,3685, Note_on_c,70,76,2,2,1,81.0,False
19256,3686, Note_on_c,58,76,2,2,1,67.0,False
19257,3687, Note_on_c,63,76,2,2,1,73.0,False
19258,3687, Note_on_c,66,76,2,2,1,77.0,False
19259,3688, Note_on_c,65,76,2,2,1,76.0,True
19260,3688, Note_on_c,68,76,2,2,1,79.0,False
19261,3689, Note_on_c,58,76,2,2,1,67.0,False
19262,3690, Note_on_c,63,76,2,2,1,73.0,False
19263,3690, Note_on_c,66,76,2,2,1,77.0,False
19264,3691, Note_on_c,65,76,2,2,1,76.0,True
19265,3691, Note_on_c,68,76,2,2,1,79.0,False
19266,3692, Note_on_c,63,76,2,2,1,73.0,False
19267,3692, Note_on_c,66,76,2,2,1,77.0,False
19268,3693, Note_on_c,65,76,2,2,1,76.0,True
19269,3693, Note_on_c,70,76,2,2,1,81.0,False
19270,3694, Note_on_c,58,76,2,2,1,67.0,False
19271,3695, Note_on_c,63,76,2,2,1,73.0,False
19272,3695, Note_on_c,66,76,2,2,1,77.0,False
19273,3696, Note_on_c,65,76,2,2,1,76.0,True
19274,3696, Note_on_c,68,76,2,2,1,79.0,False
19275,3697, Note_on_c,58,76,2,2,1,67.0,False
19276,3698, Note_on_c,63,76,2,2,1,73.0,False
19277,3698, Note_on_c,66,76,2,2,1,77.0,False
19278,3699, Note_on_c,65,76,2,2,1,76.0,True
19279,3699, Note_on_c,68,76,2,2,1,79.0,False
19280,3700, Note_on_c,63,76,2,2,1,73.0,False
19281,3700, Note_on_c,66,76,2,2,1,77.0,False
19282,3701, Note_on_c,65,76,2,2,1,76.0,True
19283,3701, Note_on_c,70,76,2,2,1,81.0,False
19284,3702, Note_on_c,58,76,2,2,1,67.0,False
19285,3703, Note_on_c,63,76,2,2,1,73.0,False
19286,3703, Note_on_c,66,76,2,2,1,77.0,False
19287,3704, Note_on_c,65,76,2,2,1,76.0,True
19288,3704, Note_on_c,68,76,2,2,1,79.0,False
19289,3705, Note_on_c,58,76,2,2,1,67.0,False
19290,3706, Note_on_c,63,76,2,2,1,73.0,False
19291,3706, Note_on_c,66,76,2,2,1,77.0,False
19292,3707, Note_on_c,65,76,2,2,1,76.0,True
19293,3707, Note_on_c,68,76,2,2,1,79.0,False
19294,3708, Note_on_c,63,76,2,2,1,73.0,False
19295,3708, Note_on_c,66,76,2,2,1,77.0,False
19296,3709, Note_on_c,65,76,2,2,1,76.0,True
19297,3709, Note_on_c,70,76,2,2,1,81.0,False
19298,3710, Note_on_c,58,76,2,2,1,67.0,False
19299,3711, Note_on_c,63,76,2,2,1,73.0,False
19300,3711, Note_on_c,66,76,2,2,1,77.0,False
19301,3712, Note_on_c,65,76,2,2,1,76.0,True
19302,3712, Note_on_c,68,76,2,2,1,79.0,False
19303,3713, Note_on_c,58,76,2,2,1,67.0,False
19304,3714, Note_on_c,63,76,2,2,1,73.0,False
19305,3714, Note_on_c,66,76,2,2,1,77.0,False
19306,3715, Note_on_c,65,76,2,2,1,76.0,True
19307,3715, Note_on_c,68,76,2,2,1,79.0,False
19308,3716, Note_on_c,63,76,2,2,1,73.0,False
19309,3716, Note_on_c,66,76,2,2,1,77.0,False
19310,3717, Note_on_c,65,76,2,2,1,76.0,True
19311,3717, Note_on_c,70,76,2,2,1,81.0,False
19312,3718, Note_on_c,58,76,2,2,1,67.0,False
19313,3719, Note_on_c,63,76,2,2,1,73.0,False
19314,3719, Note_on_c,66,76,2,2,1,77.0,False
19315,3720, Note_on_c,65,76,2,2,1,76.0,True
19316,3720, Note_on_c,68,76,2,2,1,79.0,False
19317,3721, Note_on_c,58,76,2,2,1,67.0,False
19318,3722, Note_on_c,63,76,2,2,1,73.0,False
19319,3722, Note_on_c,66,76,2,2,1,77.0,False
19320,3723, Note_on_c,65,76,2,2,1,76.0,True
19321,3723, Note_on_c,68,76,2,2,1,79.0,False
19322,3724, Note_on_c,63,76,2,2,1,73.0,False
19323,3724, Note_on_c,66,76,2,2,1,77.0,False
19324,3725, Note_on_c,65,76,2,2,1,76.0,True
19325,3725, Note_on_c,70,76,2,2,1,81.0,False
19326,3726, Note_on_c,58,76,2,2,1,67.0,False
19327,3727, Note_on_c,63,76,2,2,1,73.0,False
19328,3727, Note_on_c,66,76,2,2,1,77.0,False
19329,3728, Note_on_c,65,76,2,2,1,76.0,True
19330,3728, Note_on_c,68,76,2,2,1,79.0,False
19331,3729, Note_on_c,58,76,2,2,1,67.0,False
19332,3730, Note_on_c,63,76,2,2,1,73.0,False
19333,3730, Note_on_c,66,76,2,2,1,77.0,False
19334,3731, Note_on_c,65,76,2,2,1,76.0,True
19335,3731, Note_on_c,68,76,2,2,1,79.0,False
19336,3732, Note_on_c,63,76,2,2,1,73.0,False
19337,3732, Note_on_c,66,76,2,2,1,77.0,False
19338,3733, Note_on_c,65,76,2,2,1,76.0,True
19339,3733, Note_on_c,70,76,2,2,1,81.0,False
19340,3734, Note_on_c,58,76,2,2,1,67.0,False
19341,3735, Note_on_c,63,76,2,2,1,73.0,False
19342,3735, Note_on_c,66,76,2,2,1,77.0,False
19343,3736, Note_on_c,65,76,2,2,1,76.0,True
19344,3736, Note_on_c,68,76,2,2,1,79.0,False
19345,3737, Note_on_c,58,76,2,2,1,67.0,False
19346,3738, Note_on_c,63,76,2,2,1,73.0,False
19347,3738, Note_on_c,66,76,2,2,1,77.0,False
19348,3739, Note_on_c,65,76,2,2,1,76.0,True
19349,3739, Note_on_c,68,76,2,2,1,79.0,False
19350,3740, Note_on_c,63,76,2,2,1,73.0,False
19351,3740, Note_on_c,66,76,2,2,1,77.0,False
19352,3741, Note_on_c,65,76,2,2,1,76.0,True
19353,3741, Note_on_c,70,76,2,2,1,81.0,False
19354,3742, Note_on_c,58,76,2,2,1,67.0,False
19355,3743, Note_on_c,63,76,2,2,1,73.0,False
19356,3743, Note_on_c,66,76,2,2,1,77.0,False
19357,3744, Note_on_c,65,76,2,2,1,76.0,True
19358,3744, Note_on_c,68,76,2,2,1,79.0,False
19359,3745, Note_on_c,58,76,2,2,1,67.0,False
19360,3746, Note_on_c,63,76,2,2,1,73.0,False
19361,3746, Note_on_c,66,76,2,2,1,77.0,False
19362,3747, Note_on_c,65,76,2,2,1,76.0,True
19363,3747, Note_on_c,68,76,2,2,1,79.0,False
19364,3748, Note_on_c,63,76,2,2,1,73.0,False
19365,3748, Note_on_c,66,76,2,2,1,77.0,False
19366,3749, Note_on_c,65,76,2,2,1,76.0,True
19367,3749, Note_on_c,70,76,2,2,1,81.0,False
19368,3750, Note_on_c,58,76,2,2,1,67.0,False
19369,3751, Note_on_c,63,76,2,2,1,73.0,False
19370,3751, Note_on_c,66,76,2,2,1,77.0,False
19371,3752, Note_on_c,65,76,2,2,1,76.0,True
19372,3752, Note_on_c,68,76,2,2,1,79.0,False
19373,3753, Note_on_c,58,76,2,2,1,67.0,False
19374,3754, Note_on_c,63,76,2,2,1,73.0,False
19375,3754, Note_on_c,66,76,2,2,1,77.0,False
19376,3755, Note_on_c,65,76,2,2,1,76.0,True
19377,3755, Note_on_c,68,76,2,2,1,79.0,False
19378,3756, Note_on_c,63,76,2,2,1,73.0,False
19379,3756, Note_on_c,66,76,2,2,1,77.0,False
19380,3757, Note_on_c,65,76,2,2,1,76.0,True
19381,3757, Note_on_c,70,76,2,2,1,81.0,False
19382,3758, Note_on_c,58,76,2,2,1,67.0,False
19383,3759, Note_on_c,63,76,2,2,1,73.0,False
19384,3759, Note_on_c,66,76,2,2,1,77.0,False
19385,3760, Note_on_c,65,76,2,2,1,76.0,True
19386,3760, Note_on_c,68,76,2,2,1,79.0,False
19387,3761, Note_on_c,58,76,2,2,1,67.0,False
19388,3762, Note_on_c,63,76,2,2,1,73.0,False
19389,3762, Note_on_c,66,76,2,2,1,77.0,False
19390,3763, Note_on_c,65,76,2,2,1,76.0,True
19391,3763, Note_on_c,68,76,2,2,1,79.0,False
19392,3764, Note_on_c,63,76,2,2,1,73.0,False
19393,3764, Note_on_c,66,76,2,2,1,77.0,False
19394,3765, Note_on_c,65,76,2,2,1,76.0,True
19395,3765, Note_on_c,70,76,2,2,1,81.0,False
19396,3766, Note_on_c,58,76,2,2,1,67.0,False
19397,3767, Note_on_c,63,76,2,2,1,73.0,False
19398,3767, Note_on_c,66,76,2,2,1,77.0,False
19399,3768, Note_on_c,65,76,2,2,1,76.0,True
19400,3768, Note_on_c,68,76,2,2,1,79.0,False
19401,3769, Note_on_c,58,76,2,2,1,67.0,False
19402,3770, Note_on_c,63,76,2,2,1,73.0,False
19403,3770, Note_on_c,66,76,2,2,1,77.0,False
19404,3771, Note_on_c,65,76,2,2,1,76.0,True
19405,3771, Note_on_c,68,76,2,2,1,79.0,False
19406,3772, Note_on_c,63,76,2,2,1,73.0,False
19407,3772, Note_on_c,66,76,2,2,1,77.0,False
19408,3773, Note_on_c,65,76,2,2,1,76.0,True
19409,3773, Note_on_c,70,76,2,2,1,81.0,False
19410,3774, Note_on_c,58,76,2,2,1,67.0,False
19411,3775, Note_on_c,63,76,2,2,1,73.0,False
19412,3775, Note_on_c,66,76,2,2,1,77.0,False
19413,3776, Note_on_c,65,76,2,2,1,76.0,True
19414,3776, Note_on_c,68,76,2,2,1,79.0,False
19415,3777, Note_on_c,58,76,2,2,1,67.0,False
19416,3778, Note_on_c,63,76,2,2,1,73.0,False
19417,3778, Note_on_c,66,76,2,2,1,77.0,False
19418,3779, Note_on_c,65,76,2,2,1,76.0,True
19419,3779, Note_on_c,68,76,2,2,1,79.0,False
19420,3780, Note_on_c,63,76,2,2,1,73.0,False
19421,3780, Note_on_c,66,76,2,2,1,77.0,False
19422,3781, Note_on_c,65,76,2,2,1,76.0,True
19423,3781, Note_on_c,70,76,2,2,1,81.0,False
19424,3782, Note_on_c,58,76,2,2,1,67.0,False
19425,3783, Note_on_c,63,76,2,2,1,73.0,False
19426,3783, Note_on_c,66,76,2,2,1,77.0,False
19427,3784, Note_on_c,65,76,2,2,1,76.0,True
19428,3784, Note_on_c,68,76,2,2,1,79.0,False
19429,3785, Note_on_c,58,76,2,2,1,67.0,False
19430,3786, Note_on_c,63,76,2,2,1,73.0,False
19431,3786, Note_on_c,66,76,2,2,1,77.0,False
19432,3787, Note_on_c,65,76,2,2,1,76.0,True
19433,3787, Note_on_c,68,76,2,2,1,79.0,False
19434,3788, Note_on_c,63,76,2,2,1,73.0,False
19435,3788, Note_on_c,66,76,2,2,1,77.0,False
19436,3789, Note_on_c,65,76,2,2,1,76.0,True
19437,3789, Note_on_c,70,76,2,2,1,81.0,False
19438,3790, Note_on_c,58,76,2,2,1,67.0,False
19439,3791, Note_on_c,63,76,2,2,1,73.0,False
19440,3791, Note_on_c,66,76,2,2,1,77.0,False
19441,3792, Note_on_c,65,76,2,2,1,76.0,True
19442,3792, Note_on_c,68,76,2,2,1,79.0,False
19443,3793, Note_on_c,58,76,2,2,1,67.0,False
19444,3794, Note_on_c,63,76,2,2,1,73.0,False
19445,3794, Note_on_c,66,76,2,2,1,77.0,False
19446,3795, Note_on_c,65,76,2,2,1,76.0,True
19447,3795, Note_on_c,68,76,2,2,1,79.0,False
19448,3796, Note_on_c,63,76,2,2,1,73.0,False
19449,3796, Note_on_c,66,76,2,2,1,77.0,False
19450,3797, Note_on_c,65,76,2,2,1,76.0,True
19451,3797, Note_on_c,70,76,2,2,1,81.0,False
19452,3798, Note_on_c,58,76,2,2,1,67.0,False
19453,3799, Note_on_c,63,76,2,2,1,73.0,False
19454,3799, Note_on_c,66,76,2,2,1,77.0,False
19455,3800, Note_on_c,65,76,2,2,1,76.0,True
19456,3800, Note_on_c,68,76,2,2,1,79.0,False
19457,3801, Note_on_c,58,76,2,2,1,67.0,False
19458,3802, Note_on_c,63,76,2,2,1,73.0,False
19459,3802, Note_on_c,66,76,2,2,1,77.0,False
19460,3803, Note_on_c,65,76,2,2,1,76.0,True
19461,3803, Note_on_c,68,76,2,2,1,79.0,False
19462,3804, Note_on_c,63,76,2,2,1,73.0,False
19463,3804, Note_on_c,66,76,2,2,1,77.0,False
19464,3805, Note_on_c,65,76,2,2,1,76.0,True
19465,3805, Note_on_c,70,76,2,2,1,81.0,False
19466,3806, Note_on_c,58,76,2,2,1,67.0,False
19467,3807, Note_on_c,63,76,2,2,1,73.0,False
19468,3807, Note_on_c,66,76,2,2,1,77.0,False
19469,3808, Note_on_c,65,76,2,2,1,76.0,True
19470,3808, Note_on_c,68,76,2,2,1,79.0,False
19471,3809, Note_on_c,58,76,2,2,1,67.0,False
19472,3810, Note_on_c,63,76,2,2,1,73.0,False
19473,3810, Note_on_c,66,76,2,2,1,77.0,False
19474,3811, Note_on_c,65,76,2,2,1,76.0,True
19475,3811, Note_on_c,68,76,2,2,1,79.0,False
19476,3812, Note_on_c,63,76,2,2,1,73.0,False
19477,3812, Note_on_c,66,76,2,2,1,77.0,False
19478,3813, Note_on_c,65,76,2,2,1,76.0,True
19479,3813, Note_on_c,70,76,2,2,1,81.0,False
19480,3814, Note_on_c,58,76,2,2,1,67.0,False
19481,3815, Note_on_c,63,76,2,2,1,73.0,False
19482,3815, Note_on_c,66,76,2,2,1,77.0,False
19483,3816, Note_on_c,65,76,2,2,1,76.0,True
19484,3816, Note_on_c,68,76,2,2,1,79.0,False
19485,3817, Note_on_c,58,76,2,2,1,67.0,False
19486,3818, Note_on_c,63,76,2,2,1,73.0,False
19487,3818, Note_on_c,66,76,2,2,1,77.0,False
19488,3819, Note_on_c,65,76,2,2,1,76.0,True
19489,3819, Note_on_c,68,76,2,2,1,79.0,False
19490,3820, Note_on_c,63,76,2,2,1,73.0,False
19491,3820, Note_on_c,66,76,2,2,1,77.0,False
19492,3821, Note_on_c,65,76,2,2,1,76.0,True
19493,3821, Note_on_c,70,76,2,2,1,81.0,False
19494,3822, Note_on_c,58,76,2,2,1,67.0,False
19495,3823, Note_on_c,63,76,2,2,1,73.0,False
19496,3823, Note_on_c,66,76,2,2,1,77.0,False
19497,3824, Note_on_c,65,76,2,2,1,76.0,True
19498,3824, Note_on_c,68,76,2,2,1,79.0,False
19499,3825, Note_on_c,58,76,2,2,1,67.0,False
19500,3826, Note_on_c,63,76,2,2,1,73.0,False
19501,3826, Note_on_c,66,76,2,2,1,77.0,False
19502,3827, Note_on_c,65,76,2,2,1,76.0,True
19503,3827, Note_on_c,68,76,2,2,1,79.0,False
19504,3828, Note_on_c,63,76,2,2,1,73.0,False
19505,3828, Note_on_c,66,76,2,2,1,77.0,False
19506,3829, Note_on_c,65,76,2,2,1,76.0,True
19507,3829, Note_on_c,70,76,2,2,1,81.0,False
19508,3830, Note_on_c,58,76,2,2,1,67.0,False
19509,3831, Note_on_c,63,76,2,2,1,73.0,False
19510,3831, Note_on_c,66,76,2,2,1,77.0,False
19511,3832, Note_on_c,65,76,2,2,1,76.0,True
19512,3832, Note_on_c,68,76,2,2,1,79.0,False
19513,3833, Note_on_c,58,76,2,2,1,67.0,False
19514,3834, Note_on_c,63,76,2,2,1,73.0,False
19515,3834, Note_on_c,66,76,2,2,1,77.0,False
19516,3835, Note_on_c,65,76,2,2,1,76.0,True
19517,3835, Note_on_c,68,76,2,2,1,79.0,False
19518,3836, Note_on_c,63,76,2,2,1,73.0,False
19519,3836, Note_on_c,66,76,2,2,1,77.0,False
19520,3837, Note_on_c,65,76,2,2,1,76.0,True
19521,3837, Note_on_c,70,76,2,2,1,81.0,False
19522,3838, Note_on_c,58,76,2,2,1,67.0,False
19523,3839, Note_on_c,63,76,2,2,1,73.0,False
19524,3839, Note_on_c,66,76,2,2,1,77.0,False
19525,3840, Note_on_c,65,76,2,2,1,76.0,True
19526,3840, Note_on_c,68,76,2,2,1,79.0,False
19527,3841, Note_on_c,58,76,2,2,1,67.0,False
19528,3842, Note_on_c,63,76,2,2,1,73.0,False
19529,3842, Note_on_c,66,76,2,2,1,77.0,False
19530,3843, Note_on_c,65,76,2,2,1,76.0,True
19531,3843, Note_on_c,68,76,2,2,1,79.0,False
19532,3844, Note_on_c,63,76,2,2,1,73.0,False
19533,3844, Note_on_c,66,76,2,2,1,77.0,False
19534,3845, Note_on_c,65,76,2,2,1,76.0,True
19535,3845, Note_on_c,70,76,2,2,1,81.0,False
19536,3846, Note_on_c,58,76,2,2,1,67.0,False
19537,3847, Note_on_c,63,76,2,2,1,73.0,False
19538,3847, Note_on_c,66,76,2,2,1,77.0,False
19539,3848, Note_on_c,65,76,2,2,1,76.0,True
19540,3848, Note_on_c,68,76,2,2,1,79.0,False
19541,3849, Note_on_c,58,76,2,2,1,67.0,False
19542,3850, Note_on_c,63,76,2,2,1,73.0,False
19543,3850, Note_on_c,66,76,2,2,1,77.0,False
19544,3851, Note_on_c,65,76,2,2,1,76.0,True
19545,3851, Note_on_c,68,76,2,2,1,79.0,False
19546,3852, Note_on_c,63,76,2,2,1,73.0,False
19547,3852, Note_on_c,66,76,2,2,1,77.0,False
19548,3853, Note_on_c,65,76,2,2,1,76.0,True
19549,3853, Note_on_c,70,76,2,2,1,81.0,False
19550,3854, Note_on_c,58,76,2,2,1,67.0,False
19551,3855, Note_on_c,63,76,2,2,1,73.0,False
19552,3855, Note_on_c,66,76,2,2,1,77.0,False
19553,3856, Note_on_c,65,76,2,2,1,76.0,True
19554,3856, Note_on_c,68,76,2,2,1,79.0,False
19555,3857, Note_on_c,58,76,2,2,1,67.0,False
19556,3858, Note_on_c,63,76,2,2,1,73.0,False
19557,3858, Note_on_c,66,76,2,2,1,77.0,False
19558,3859, Note_on_c,65,76,2,2,1,76.0,True
19559,3859, Note_on_c,68,76,2,2,1,79.0,False
19560,3860, Note_on_c,63,76,2,2,1,73.0,False
19561,3860, Note_on_c,66,76,2,2,1,77.0,False
19562,3861, Note_on_c,65,76,2,2,1,76.0,True
19563,3861, Note_on_c,70,76,2,2,1,81.0,False
19564,3862, Note_on_c,58,76,2,2,1,67.0,False
19565,3863, Note_on_c,63,76,2,2,1,73.0,False
19566,3863, Note_on_c,66,76,2,2,1,77.0,False
19567,3864, Note_on_c,65,76,2,2,1,76.0,True
19568,3864, Note_on_c,68,76,2,2,1,79.0,False
19569,3865, Note_on_c,58,76,2,2,1,67.0,False
19570,3866, Note_on_c,63,76,2,2,1,73.0,False
19571,3866, Note_on_c,66,76,2,2,1,77.0,False
19572,3867, Note_on_c,65,76,2,2,1,76.0,True
19573,3867, Note_on_c,68,76,2,2,1,79.0,False
19574,3868, Note_on_c,63,76,2,2,1,73.0,False
19575,3868, Note_on_c,66,76,2,2,1,77.0,False
19576,3869, Note_on_c,65,76,2,2,1,76.0,True
19577,3869, Note_on_c,70,76,2,2,1,81.0,False
19578,3870, Note_on_c,58,76,2,2,1,67.0,False
19579,3871, Note_on_c,63,76,2,2,1,73.0,False
19580,3871, Note_on_c,66,76,2,2,1,77.0,False
19581,3872, Note_on_c,65,76,2,2,1,76.0,True
19582,3872, Note_on_c,68,76,2,2,1,79.0,False
19583,3873, Note_on_c,58,76,2,2,1,67.0,False
19584,3874, Note_on_c,63,76,2,2,1,73.0,False
19585,3874, Note_on_c,66,76,2,2,1,77.0,False
19586,3875, Note_on_c,65,76,2,2,1,76.0,True
19587,3875, Note_on_c,68,76,2,2,1,79.0,False
19588,3876, Note_on_c,63,76,2,2,1,73.0,False
19589,3876, Note_on_c,66,76,2,2,1,77.0,False
19590,3877, Note_on_c,65,76,2,2,1,76.0,True
19591,3877, Note_on_c,70,76,2,2,1,81.0,False
19592,3878, Note_on_c,58,76,2,2,1,67.0,False
19593,3879, Note_on_c,63,76,2,2,1,73.0,False
19594,3879, Note_on_c,66,76,2,2,1,77.0,False
19595,3880, Note_on_c,65,76,2,2,1,76.0,True
19596,3880, Note_on_c,68,76,2,2,1,79.0,False
19597,3881, Note_on_c,58,76,2,2,1,67.0,False
19598,3882, Note_on_c,63,76,2,2,1,73.0,False
19599,3882, Note_on_c,66,76,2,2,1,77.0,False
19600,3883, Note_on_c,65,76,2,2,1,76.0,True
19601,3883, Note_on_c,68,76,2,2,1,79.0,False
19602,3884, Note_on_c,63,76,2,2,1,73.0,False
19603,3884, Note_on_c,66,76,2,2,1,77.0,False
19604,3885, Note_on_c,65,76,2,2,1,76.0,True
19605,3885, Note_on_c,70,76,2,2,1,81.0,False
19606,3886, Note_on_c,58,76,2,2,1,67.0,False
19607,3887, Note_on_c,63,76,2,2,1,73.0,False
19608,3887, Note_on_c,66,76,2,2,1,77.0,False
19609,3888, Note_on_c,65,76,2,2,1,76.0,True
19610,3888, Note_on_c,68,76,2,2,1,79.0,False
19611,3889, Note_on_c,58,76,2,2,1,67.0,False
19612,3890, Note_on_c,63,76,2,2,1,73.0,False
19613,3890, Note_on_c,66,76,2,2,1,77.0,False
19614,3891, Note_on_c,65,76,2,2,1,76.0,True
19615,3891, Note_on_c,68,76,2,2,1,79.0,False
19616,3892, Note_on_c,63,76,2,2,1,73.0,False
19617,3892, Note_on_c,66,76,2,2,1,77.0,False
19618,3893, Note_on_c,65,76,2,2,1,76.0,True
19619,3893, Note_on_c,70,76,2,2,1,81.0,False
19620,3894, Note_on_c,58,76,2,2,1,67.0,False
19621,3895, Note_on_c,63,76,2,2,1,73.0,False
19622,3895, Note_on_c,66,76,2,2,1,77.0,False
19623,3896, Note_on_c,65,76,2,2,1,76.0,True
19624,3896, Note_on_c,68,76,2,2,1,79.0,False
19625,3897, Note_on_c,58,76,2,2,1,67.0,False
19626,3898, Note_on_c,63,76,2,2,1,73.0,False
19627,3898, Note_on_c,66,76,2,2,1,77.0,False
19628,3899, Note_on_c,65,76,2,2,1,76.0,True
19629,3899, Note_on_c,68,76,2,2,1,79.0,False
19630,3900, Note_on_c,63,76,2,2,1,73.0,False
19631,3900, Note_on_c,66,76,2,2,1,77.0,False
19632,3901, Note_on_c,65,76,2,2,1,76.0,True
19633,3901, Note_on_c,70,76,2,2,1,81.0,False
19634,3902, Note_on_c,58,76,2,2,1,67.0,False
19635,3903, Note_on_c,63,76,2,2,1,73.0,False
19636,3903, Note_on_c,66,76,2,2,1,77.0,False
19637,3904, Note_on_c,65,76,2,2,1,76.0,True
19638,3904, Note_on_c,68,76,2,2,1,79.0,False
19639,3905, Note_on_c,58,76,2,2,1,67.0,False
19640,3906, Note_on_c,63,76,2,2,1,73.0,False
19641,3906, Note_on_c,66,76,2,2,1,77.0,False
19642,3907, Note_on_c,65,76,2,2,1,76.0,True
19643,3907, Note_on_c,68,76,2,2,1,79.0,False
19644,3908, Note_on_c,63,76,2,2,1,73.0,False
19645,3908, Note_on_c,66,76,2,2,1,77.0,False
19646,3909, Note_on_c,65,76,2,2,1,76.0,True
19647,3909, Note_on_c,70,76,2,2,1,81.0,False
19648,3910, Note_on_c,58,76,2,2,1,67.0,False
19649,3911, Note_on_c,63,76,2,2,1,73.0,False
19650,3911, Note_on_c,66,76,2,2,1,77.0,False
19651,3912, Note_on_c,65,76,2,2,1,76.0,True
19652,3912, Note_on_c,68,76,2,2,1,79.0,False
19653,3913, Note_on_c,58,76,2,2,1,67.0,False
19654,3914, Note_on_c,63,76,2,2,1,73.0,False
19655,3914, Note_on_c,66,76,2,2,1,77.0,False
19656,3915, Note_on_c,65,76,2,2,1,76.0,True
19657,3915, Note_on_c,68,76,2,2,1,79.0,False
19658,3916, Note_on_c,63,76,2,2,1,73.0,False
19659,3916, Note_on_c,66,76,2,2,1,77.0,False
19660,3917, Note_on_c,65,76,2,2,1,76.0,True
19661,3917, Note_on_c,70,76,2,2,1,81.0,False
19662,3918, Note_on_c,58,76,2,2,1,67.0,False
19663,3919, Note_on_c,63,76,2,2,1,73.0,False
19664,3919, Note_on_c,66,76,2,2,1,77.0,False
19665,3920, Note_on_c,65,76,2,2,1,76.0,True
19666,3920, Note_on_c,68,76,2,2,1,79.0,False
19667,3921, Note_on_c,58,76,2,2,1,67.0,False
19668,3922, Note_on_c,63,76,2,2,1,73.0,False
19669,3922, Note_on_c,66,76,2,2,1,77.0,False
19670,3923, Note_on_c,65,76,2,2,1,76.0,True
19671,3923, Note_on_c,68,76,2,2,1,79.0,False
19672,3924, Note_on_c,63,76,2,2,1,73.0,False
19673,3924, Note_on_c,66,76,2,2,1,77.0,False
19674,3925, Note_on_c,65,76,2,2,1,76.0,True
19675,3925, Note_on_c,70,76,2,2,1,81.0,False
19676,3926, Note_on_c,58,76,2,2,1,67.0,False
19677,3927, Note_on_c,63,76,2,2,1,73.0,False
19678,3927, Note_on_c,66,76,2,2,1,77.0,False
19679,3928, Note_on_c,65,76,2,2,1,76.0,True
19680,3928, Note_on_c,68,76,2,2,1,79.0,False
19681,3929, Note_on_c,58,76,2,2,1,67.0,False
19682,3930, Note_on_c,63,76,2,2,1,73.0,False
19683,3930, Note_on_c,66,76,2,2,1,77.0,False
19684,3931, Note_on_c,65,76,2,2,1,76.0,True
19685,3931, Note_on_c,68,76,2,2,1,79.0,False
19686,3932, Note_on_c,63,76,2,2,1,73.0,False
19687,3932, Note_on_c,66,76,2,2,1,77.0,False
19688,3933, Note_on_c,65,76,2,2,1,76.0,True
19689,3933, Note_on_c,70,76,2,2,1,81.0,False
19690,3934, Note_on_c,58,76,2,2,1,67.0,False
19691,3935, Note_on_c,63,76,2,2,1,73.0,False
19692,3935, Note_on_c,66,76,2,2,1,77.0,False
19693,3936, Note_on_c,65,76,2,2,1,76.0,True
19694,3936, Note_on_c,68,76,2,2,1,79.0,False
19695,3937, Note_on_c,58,76,2,2,1,67.0,False
19696,3938, Note_on_c,63,76,2,2,1,73.0,False
19697,3938, Note_on_c,66,76,2,2,1,77.0,False
19698,3939, Note_on_c,65,76,2,2,1,76.0,True
19699,3939, Note_on_c,68,76,2,2,1,79.0,False
19700,3940, Note_on_c,63,76,2,2,1,73.0,False
19701,3940, Note_on_c,66,76,2,2,1,77.0,False
19702,3941, Note_on_c,65,76,2,2,1,76.0,True
19703,3941, Note_on_c,70,76,2,2,1,81.0,False
19704,3942, Note_on_c,58,76,2,2,1,67.0,False
19705,3943, Note_on_c,63,76,2,2,1,73.0,False
19706,3943, Note_on_c,66,76,2,2,1,77.0,False
19707,3944, Note_on_c,65,76,2,2,1,76.0,True
19708,3944, Note_on_c,68,76,2,2,1,79.0,False
19709,3945, Note_on_c,58,76,2,2,1,67.0,False
19710,3946, Note_on_c,63,76,2,2,1,73.0,False
19711,3946, Note_on_c,66,76,2,2,1,77.0,False
19712,3947, Note_on_c,65,76,2,2,1,76.0,True
19713,3947, Note_on_c,68,76,2,2,1,79.0,False
19714,3948, Note_on_c,63,76,2,2,1,73.0,False
19715,3948, Note_on_c,66,76,2,2,1,77.0,False
19716,3949, Note_on_c,65,76,2,2,1,76.0,True
19717,3949, Note_on_c,70,76,2,2,1,81.0,False
19718,3950, Note_on_c,58,76,2,2,1,67.0,False
19719,3951, Note_on_c,63,76,2,2,1,73.0,False
19720,3951, Note_on_c,66,76,2,2,1,77.0,False
19721,3952, Note_on_c,65,76,2,2,1,76.0,True
19722,3952, Note_on_c,68,76,2,2,1,79.0,False
19723,3953, Note_on_c,58,76,2,2,1,67.0,False
19724,3954, Note_on_c,63,76,2,2,1,73.0,False
19725,3954, Note_on_c,66,76,2,2,1,77.0,False
19726,3955, Note_on_c,65,76,2,2,1,76.0,True
19727,3955, Note_on_c,68,76,2,2,1,79.0,False
19728,3956, Note_on_c,63,76,2,2,1,73.0,False
19729,3956, Note_on_c,66,76,2,2,1,77.0,False
19730,3957, Note_on_c,65,76,2,2,1,76.0,True
19731,3957, Note_on_c,70,76,2,2,1,81.0,False
19732,3958, Note_on_c,58,76,2,2,1,67.0,False
19733,3959, Note_on_c,63,76,2,2,1,73.0,False
19734,3959, Note_on_c,66,76,2,2,1,77.0,False
19735,3960, Note_on_c,65,76,2,2,1,76.0,True
19736,3960, Note_on_c,68,76,2,2,1,79.0,False
19737,3961, Note_on_c,58,76,2,2,1,67.0,False
19738,3962, Note_on_c,63,76,2,2,1,73.0,False
19739,3962, Note_on_c,66,76,2,2,1,77.0,False
19740,3963, Note_on_c,65,76,2,2,1,76.0,True
19741,3963, Note_on_c,68,76,2,2,1,79.0,False
19742,3964, Note_on_c,63,76,2,2,1,73.0,False
19743,3964, Note_on_c,66,76,2,2,1,77.0,False
19744,3965, Note_on_c,65,76,2,2,1,76.0,True
19745,3965, Note_on_c,70,76,2,2,1,81.0,False
19746,3966, Note_on_c,58,76,2,2,1,67.0,False
19747,3967, Note_on_c,63,76,2,2,1,73.0,False
19748,3967, Note_on_c,66,76,2,2,1,77.0,False
19749,3968, Note_on_c,65,76,2,2,1,76.0,True
19750,3968, Note_on_c,68,76,2,2,1,79.0,False
19751,3969, Note_on_c,58,76,2,2,1,67.0,False
19752,3970, Note_on_c,63,76,2,2,1,73.0,False
19753,3970, Note_on_c,66,76,2,2,1,77.0,False
19754,3971, Note_on_c,65,76,2,2,1,76.0,True
19755,3971, Note_on_c,68,76,2,2,1,79.0,False
19756,3972, Note_on_c,63,76,2,2,1,73.0,False
19757,3972, Note_on_c,66,76,2,2,1,77.0,False
19758,3973, Note_on_c,65,76,2,2,1,76.0,True
19759,3973, Note_on_c,70,76,2,2,1,81.0,False
19760,3974, Note_on_c,58,76,2,2,1,67.0,False
19761,3975, Note_on_c,63,76,2,2,1,73.0,False
19762,3975, Note_on_c,66,76,2,2,1,77.0,False
19763,3976, Note_on_c,65,76,2,2,1,76.0,True
19764,3976, Note_on_c,68,76,2,2,1,79.0,False
19765,3977, Note_on_c,58,76,2,2,1,67.0,False
19766,3978, Note_on_c,63,76,2,2,1,73.0,False
19767,3978, Note_on_c,66,76,2,2,1,77.0,False
19768,3979, Note_on_c,65,76,2,2,1,76.0,True
19769,3979, Note_on_c,68,76,2,2,1,79.0,False
19770,3980, Note_on_c,63,76,2,2,1,73.0,False
19771,3980, Note_on_c,66,76,2,2,1,77.0,False
19772,3981, Note_on_c,65,76,2,2,1,76.0,True
19773,3981, Note_on_c,70,76,2,2,1,81.0,False
19774,3982, Note_on_c,58,76,2,2,1,67.0,False
19775,3983, Note_on_c,63,76,2,2,1,73.0,False
19776,3983, Note_on_c,66,76,2,2,1,77.0,False
19777,3984, Note_on_c,65,76,2,2,1,76.0,True
19778,3984, Note_on_c,68,76,2,2,1,79.0,False
19779,3985, Note_on_c,58,76,2,2,1,67.0,False
19780,3986, Note_on_c,63,76,2,2,1,73.0,False
19781,3986, Note_on_c,66,76,2,2,1,77.0,False
19782,3987, Note_on_c,65,76,2,2,1,76.0,True
19783,3987, Note_on_c,68,76,2,2,1,79.0,False
19784,3988, Note_on_c,63,76,2,2,1,73.0,False
19785,3988, Note_on_c,66,76,2,2,1,77.0,False
19786,3989, Note_on_c,65,76,2,2,1,76.0,True
19787,3989, Note_on_c,70,76,2,2,1,81.0,False
19788,3990, Note_on_c,58,76,2,2,1,67.0,False
19789,3991, Note_on_c,63,76,2,2,1,73.0,False
19790,3991, Note_on_c,66,76,2,2,1,77.0,False
19791,3992, Note_on_c,65,76,2,2,1,76.0,True
19792,3992, Note_on_c,68,76,2,2,1,79.0,False
19793,3993, Note_on_c,58,76,2,2,1,67.0,False
19794,3994, Note_on_c,63,76,2,2,1,73.0,False
19795,3994, Note_on_c,66,76,2,2,1,77.0,False
19796,3995, Note_on_c,65,76,2,2,1,76.0,True
19797,3995, Note_on_c,68,76,2,2,1,79.0,False
19798,3996, Note_on_c,63,76,2,2,1,73.0,False
19799,3996, Note_on_c,66,76,2,2,1,77.0,False
19800,3997, Note_on_c,65,76,2,2,1,76.0,True
19801,3997, Note_on_c,70,76,2,2,1,81.0,False
19802,3998, Note_on_c,58,76,2,2,1,67.0,False
19803,3999, Note_on_c,63,76,2,2,1,73.0,False
19804,3999, Note_on_c,66,76,2,2,1,77.0,False
19805,4000, Note_on_c,65,76,2,2,1,76.0,True
19806,4000, Note_on_c,68,76,2,2,1,79.0,False
19807,4001, Note_on_c,58,76,2,2,1,67.0,False
19808,4002, Note_on_c,63,76,2,2,1,73.0,False
19809,4002, Note_on_c,66,76,2,2,1,77.0,False
19810,4003, Note_on_c,65,76,2,2,1,76.0,True
19811,4003, Note_on_c,68,76,2,2,1,79.0,False
19812,4004, Note_on_c,63,76,2,2,1,73.0,False
19813,4004, Note_on_c,66,76,2,2,1,77.0,False
19814,4005, Note_on_c,65,76,2,2,1,76.0,True
19815,4005, Note_on_c,70,76,2,2,1,81.0,False
19816,4006, Note_on_c,58,76,2,2,1,67.0,False
19817,4007, Note_on_c,63,76,2,2,1,73.0,False
19818,4007, Note_on_c,66,76,2,2,1,77.0,False
19819,4008, Note_on_c,65,76,2,2,1,76.0,True
19820,4008, Note_on_c,68,76,2,2,1,79.0,False
19821,4009, Note_on_c,58,76,2,2,1,67.0,False
19822,4010, Note_on_c,63,76,2,2,1,73.0,False
19823,4010, Note_on_c,66,76,2,2,1,77.0,False
19824,4011, Note_on_c,65,76,2,2,1,76.0,True
19825,4011, Note_on_c,68,76,2,2,1,79.0,False
19826,4012, Note_on_c,63,76,2,2,1,73.0,False
19827,4012, Note_on_c,66,76,2,2,1,77.0,False
19828,4013, Note_on_c,65,76,2,2,1,76.0,True
19829,4013, Note_on_c,70,76,2,2,1,81.0,False
19830,4014, Note_on_c,58,76,2,2,1,67.0,False
19831,4015, Note_on_c,63,76,2,2,1,73.0,False
19832,4015, Note_on_c,66,76,2,2,1,77.0,False
19833,4016, Note_on_c,65,76,2,2,1,76.0,True
19834,4016, Note_on_c,68,76,2,2,1,79.0,False
19835,4017, Note_on_c,58,76,2,2,1,67.0,False
19836,4018, Note_on_c,63,76,2,2,1,73.0,False
19837,4018, Note_on_c,66,76,2,2,1,77.0,False
19838,4019, Note_on_c,65,76,2,2,1,76.0,True
19839,4019, Note_on_c,68,76,2,2,1,79.0,False
19840,4020, Note_on_c,63,76,2,2,1,73.0,False
19841,4020, Note_on_c,66,76,2,2,1,77.0,False
19842,4021, Note_on_c,65,76,2,2,1,76.0,True
19843,4021, Note_on_c,70,76,2,2,1,81.0,False
19844,4022, Note_on_c,58,76,2,2,1,67.0,False
19845,4023, Note_on_c,63,76,2,2,1,73.0,False
19846,4023, Note_on_c,66,76,2,2,1,77.0,False
19847,4024, Note_on_c,65,76,2,2,1,76.0,True
19848,4024, Note_on_c,68,76,2,2,1,79.0,False
19849,4025, Note_on_c,58,76,2,2,1,67.0,False
19850,4026, Note_on_c,63,76,2,2,1,73.0,False
19851,4026, Note_on_c,66,76,2,2,1,77.0,False
19852,4027, Note_on_c,65,76,2,2,1,76.0,True
19853,4027, Note_on_c,68,76,2,2,1,79.0,False
19854,4028, Note_on_c,63,76,2,2,1,73.0,False
19855,4028, Note_on_c,66,76,2,2,1,77.0,False
19856,4029, Note_on_c,65,76,2,2,1,76.0,True
19857,4029, Note_on_c,70,76,2,2,1,81.0,False
19858,4030, Note_on_c,58,76,2,2,1,67.0,False
19859,4031, Note_on_c,63,76,2,2,1,73.0,False
19860,4031, Note_on_c,66,76,2,2,1,77.0,False
19861,4032, Note_on_c,65,76,2,2,1,76.0,True
19862,4032, Note_on_c,68,76,2,2,1,79.0,False
19863,4033, Note_on_c,58,76,2,2,1,67.0,False
19864,4034, Note_on_c,63,76,2,2,1,73.0,False
19865,4034, Note_on_c,66,76,2,2,1,77.0,False
19866,4035, Note_on_c,65,76,2,2,1,76.0,True
19867,4035, Note_on_c,68,76,2,2,1,79.0,False
19868,4036, Note_on_c,63,76,2,2,1,73.0,False
19869,4036, Note_on_c,66,76,2,2,1,77.0,False
19870,4037, Note_on_c,65,76,2,2,1,76.0,True
19871,4037, Note_on_c,70,76,2,2,1,81.0,False
19872,4038, Note_on_c,58,76,2,2,1,67.0,False
19873,4039, Note_on_c,63,76,2,2,1,73.0,False
19874,4039, Note_on_c,66,76,2,2,1,77.0,False
19875,4040, Note_on_c,65,76,2,2,1,76.0,True
19876,4040, Note_on_c,68,76,2,2,1,79.0,False
19877,4041, Note_on_c,58,76,2,2,1,67.0,False
19878,4042, Note_on_c,63,76,2,2,1,73.0,False
19879,4042, Note_on_c,66,76,2,2,1,77.0,False
19880,4043, Note_on_c,65,76,2,2,1,76.0,True
19881,4043, Note_on_c,68,76,2,2,1,79.0,False
19882,4044, Note_on_c,63,76,2,2,1,73.0,False
19883,4044, Note_on_c,66,76,2,2,1,77.0,False
19884,4045, Note_on_c,65,76,2,2,1,76.0,True
19885,4045, Note_on_c,70,76,2,2,1,81.0,False
19886,4046, Note_on_c,58,76,2,2,1,67.0,False
19887,4047, Note_on_c,63,76,2,2,1,73.0,False
19888,4047, Note_on_c,66,76,2,2,1,77.0,False
19889,4048, Note_on_c,65,76,2,2,1,76.0,True
19890,4048, Note_on_c,68,76,2,2,1,79.0,False
19891,4049, Note_on_c,58,76,2,2,1,67.0,False
19892,4050, Note_on_c,63,76,2,2,1,73.0,False
19893,4050, Note_on_c,66,76,2,2,1,77.0,False
19894,4051, Note_on_c,65,76,2,2,1,76.0,True
19895,4051, Note_on_c,68,76,2,2,1,79.0,False
19896,4052, Note_on_c,63,76,2,2,1,73.0,False
19897,4052, Note_on_c,66,76,2,2,1,77.0,False
19898,4053, Note_on_c,65,76,2,2,1,76.0,True
19899,4053, Note_on_c,70,76,2,2,1,81.0,False
19900,4054, Note_on_c,58,76,2,2,1,67.0,False
19901,4055, Note_on_c,63,76,2,2,1,73.0,False
19902,4055, Note_on_c,66,76,2,2,1,77.0,False
19903,4056, Note_on_c,65,76,2,2,1,76.0,True
19904,4056, Note_on_c,68,76,2,2,1,79.0,False
19905,4057, Note_on_c,58,76,2,2,1,67.0,False
19906,4058, Note_on_c,63,76,2,2,1,73.0,False
19907,4058, Note_on_c,66,76,2,2,1,77.0,False
19908,4059, Note_on_c,65,76,2,2,1,76.0,True
19909,4059, Note_on_c,68,76,2,2,1,79.0,False
19910,4060, Note_on_c,63,76,2,2,1,73.0,False
19911,4060, Note_on_c,66,76,2,2,1,77.0,False
19912,4061, Note_on_c,65,76,2,2,1,76.0,True
19913,4061, Note_on_c,70,76,2,2,1,81.0,False
19914,4062, Note_on_c,58,76,2,2,1,67.0,False
19915,4063, Note_on_c,63,76,2,2,1,73.0,False
19916,4063, Note_on_c,66,76,2,2,1,77.0,False
19917,4064, Note_on_c,65,76,2,2,1,76.0,True
19918,4064, Note_on_c,68,76,2,2,1,79.0,False
19919,4065, Note_on_c,58,76,2,2,1,67.0,False
19920,4066, Note_on_c,63,76,2,2,1,73.0,False
19921,4066, Note_on_c,66,76,2,2,1,77.0,False
19922,4067, Note_on_c,65,76,2,2,1,76.0,True
19923,4067, Note_on_c,68,76,2,2,1,79.0,False
19924,4068, Note_on_c,63,76,2,2,1,73.0,False
19925,4068, Note_on_c,66,76,2,2,1,77.0,False
19926,4069, Note_on_c,65,76,2,2,1,76.0,True
19927,4069, Note_on_c,70,76,2,2,1,81.0,False
19928,4070, Note_on_c,58,76,2,2,1,67.0,False
19929,4071, Note_on_c,63,76,2,2,1,73.0,False
19930,4071, Note_on_c,66,76,2,2,1,77.0,False
19931,4072, Note_on_c,65,76,2,2,1,76.0,True
19932,4072, Note_on_c,68,76,2,2,1,79.0,False
19933,4073, Note_on_c,58,76,2,2,1,67.0,False
19934,4074, Note_on_c,63,76,2,2,1,73.0,False
19935,4074, Note_on_c,66,76,2,2,1,77.0,False
19936,4075, Note_on_c,65,76,2,2,1,76.0,True
19937,4075, Note_on_c,68,76,2,2,1,79.0,False
19938,4076, Note_on_c,63,76,2,2,1,73.0,False
19939,4076, Note_on_c,66,76,2,2,1,77.0,False
19940,4077, Note_on_c,65,76,2,2,1,76.0,True
19941,4077, Note_on_c,70,76,2,2,1,81.0,False
19942,4078, Note_on_c,58,76,2,2,1,67.0,False
19943,4079, Note_on_c,63,76,2,2,1,73.0,False
19944,4079, Note_on_c,66,76,2,2,1,77.0,False
19945,4080, Note_on_c,65,76,2,2,1,76.0,True
19946,4080, Note_on_c,68,76,2,2,1,79.0,False
19947,4081, Note_on_c,58,76,2,2,1,67.0,False
19948,4082, Note_on_c,63,76,2,2,1,73.0,False
19949,4082, Note_on_c,66,76,2,2,1,77.0,False
19950,4083, Note_on_c,65,76,2,2,1,76.0,True
19951,4083, Note_on_c,68,76,2,2,1,79.0,False
19952,4084, Note_on_c,63,76,2,2,1,73.0,False
19953,4084, Note_on_c,66,76,2,2,1,77.0,False
19954,4085, Note_on_c,65,76,2,2,1,76.0,True
19955,4085, Note_on_c,70,76,2,2,1,81.0,False
19956,4086, Note_on_c,58,76,2,2,1,67.0,False
19957,4087, Note_on_c,63,76,2,2,1,73.0,False
19958,4087, Note_on_c,66,76,2,2,1,77.0,False
19959,4088, Note_on_c,65,76,2,2,1,76.0,True
19960,4088, Note_on_c,68,76,2,2,1,79.0,False
19961,4089, Note_on_c,58,76,2,2,1,67.0,False
19962,4090, Note_on_c,63,76,2,2,1,73.0,False
19963,4090, Note_on_c,66,76,2,2,1,77.0,False
19964,4091, Note_on_c,65,76,2,2,1,76.0,True
19965,4091, Note_on_c,68,76,2,2,1,79.0,False
19966,4092, Note_on_c,63,76,2,2,1,73.0,False
19967,4092, Note_on_c,66,76,2,2,1,77.0,False
19968,4093, Note_on_c,65,76,2,2,1,76.0,True
19969,4093, Note_on_c,70,76,2,2,1,81.0,False
19970,4094, Note_on_c,58,76,2,2,1,67.0,False
19971,4095, Note_on_c,63,76,2,2,1,73.0,False
19972,4095, Note_on_c,66,76,2,2,1,77.0,False
19973,4096, Note_on_c,65,76,2,2,1,76.0,True
19974,4096, Note_on_c,68,76,2,2,1,79.0,False
19975,4097, Note_on_c,58,76,2,2,1,67.0,False
19976,4098, Note_on_c,63,76,2,2,1,73.0,False
19977,4098, Note_on_c,66,76,2,2,1,77.0,False
19978,4099, Note_on_c,65,76,2,2,1,76.0,True
19979,4099, Note_on_c,68,76,2,2,1,79.0,False
19980,4100, Note_on_c,63,76,2,2,1,73.0,False
19981,4100, Note_on_c,66,76,2,2,1,77.0,False
19982,4101, Note_on_c,65,76,2,2,1,76.0,True
19983,4101, Note_on_c,70,76,2,2,1,81.0,False
19984,4102, Note_on_c,58,76,2,2,1,67.0,False
19985,4103, Note_on_c,63,76,2,2,1,73.0,False
19986,4103, Note_on_c,66,76,2,2,1,77.0,False
19987,4104, Note_on_c,65,76,2,2,1,76.0,True
19988,4104, Note_on_c,68,76,2,2,1,79.0,False
19989,4105, Note_on_c,58,76,2,2,1,67.0,False
19990,4106, Note_on_c,63,76,2,2,1,73.0,False
19991,4106, Note_on_c,66,76,2,2,1,77.0,False
19992,4107, Note_on_c,65,76,2,2,1,76.0,True
19993,4107, Note_on_c,68,76,2,2,1,79.0,False
19994,4108, Note_on_c,63,76,2,2,1,73.0,False
19995,4108, Note_on_c,66,76,2,2,1,77.0,False
19996,4109, Note_on_c,65,76,2,2,1,76.0,True
19997,4109, Note_on_c,70,76,2,2,1,81.0,False
19998,4110, Note_on_c,58,76,2,2,1,67.0,False
19999,4111, Note_on_c,63,76,2,2,1,73.0,False
20000,4111, Note_on_c,66,76,2,2,1,77.0,False
20001,4112, Note_on_c,65,76,2,2,1,76.0,True
20002,4112, Note_on_c,68,76,2,2,1,79.0,False
20003,4113, Note_on_c,58,76,2,2,1,67.0,False
20004,4114, Note_on_c,63,76,2,2,1,73.0,False
20005,4114, Note_on_c,66,76,2,2,1,77.0,False
20006,4115, Note_on_c,65,76,2,2,1,76.0,True
20007,4115, Note_on_c,68,76,2,2,1,79.0,False
20008,4116, Note_on_c,63,76,2,2,1,73.0,False
20009,4116, Note_on_c,66,76,2,2,1,77.0,False
20010,4117, Note_on_c,65,76,2,2,1,76.0,True
20011,4117, Note_on_c,70,76,2,2,1,81.0,False
20012,4118, Note_on_c,58,76,2,2,1,67.0,False
20013,4119, Note_on_c,63,76,2,2,1,73.0,False
20014,4119, Note_on_c,66,76,2,2,1,77.0,False
20015,4120, Note_on_c,65,76,2,2,1,76.0,True
20016,4120, Note_on_c,68,76,2,2,1,79.0,False
20017,4121, Note_on_c,58,76,2,2,1,67.0,False
20018,4122, Note_on_c,63,76,2,2,1,73.0,False
20019,4122, Note_on_c,66,76,2,2,1,77.0,False
20020,4123, Note_on_c,65,76,2,2,1,76.0,True
20021,4123, Note_on_c,68,76,2,2,1,79.0,False
20022,4124, Note_on_c,63,76,2,2,1,73.0,False
20023,4124, Note_on_c,66,76,2,2,1,77.0,False
20024,4125, Note_on_c,65,76,2,2,1,76.0,True
20025,4125, Note_on_c,70,76,2,2,1,81.0,False
20026,4126, Note_on_c,58,76,2,2,1,67.0,False
20027,4127, Note_on_c,63,76,2,2,1,73.0,False
20028,4127, Note_on_c,66,76,2,2,1,77.0,False
20029,4128, Note_on_c,65,76,2,2,1,76.0,True
20030,4128, Note_on_c,68,76,2,2,1,79.0,False
20031,4129, Note_on_c,58,76,2,2,1,67.0,False
20032,4130, Note_on_c,63,76,2,2,1,73.0,False
20033,4130, Note_on_c,66,76,2,2,1,77.0,False
20034,4131, Note_on_c,65,76,2,2,1,76.0,True
20035,4131, Note_on_c,68,76,2,2,1,79.0,False
20036,4132, Note_on_c,63,76,2,2,1,73.0,False
20037,4132, Note_on_c,66,76,2,2,1,77.0,False
20038,4133, Note_on_c,65,76,2,2,1,76.0,True
20039,4133, Note_on_c,70,76,2,2,1,81.0,False
20040,4134, Note_on_c,58,76,2,2,1,67.0,False
20041,4135, Note_on_c,63,76,2,2,1,73.0,False
20042,4135, Note_on_c,66,76,2,2,1,77.0,False
20043,4136, Note_on_c,65,76,2,2,1,76.0,True
20044,4136, Note_on_c,68,76,2,2,1,79.0,False
20045,4137, Note_on_c,58,76,2,2,1,67.0,False
20046,4138, Note_on_c,63,76,2,2,1,73.0,False
20047,4138, Note_on_c,66,76,2,2,1,77.0,False
20048,4139, Note_on_c,65,76,2,2,1,76.0,True
20049,4139, Note_on_c,68,76,2,2,1,79.0,False
20050,4140, Note_on_c,63,76,2,2,1,73.0,False
20051,4140, Note_on_c,66,76,2,2,1,77.0,False
20052,4141, Note_on_c,65,76,2,2,1,76.0,True
20053,4141, Note_on_c,70,76,2,2,1,81.0,False
20054,4142, Note_on_c,58,76,2,2,1,67.0,False
20055,4143, Note_on_c,63,76,2,2,1,73.0,False
20056,4143, Note_on_c,66,76,2,2,1,77.0,False
20057,4144, Note_on_c,65,76,2,2,1,76.0,True
20058,4144, Note_on_c,68,76,2,2,1,79.0,False
20059,4145, Note_on_c,58,76,2,2,1,67.0,False
20060,4146, Note_on_c,63,76,2,2,1,73.0,False
20061,4146, Note_on_c,66,76,2,2,1,77.0,False
20062,4147, Note_on_c,65,76,2,2,1,76.0,True
20063,4147, Note_on_c,68,76,2,2,1,79.0,False
20064,4148, Note_on_c,63,76,2,2,1,73.0,False
20065,4148, Note_on_c,66,76,2,2,1,77.0,False
20066,4149, Note_on_c,65,76,2,2,1,76.0,True
20067,4149, Note_on_c,70,76,2,2,1,81.0,False
20068,4150, Note_on_c,58,76,2,2,1,67.0,False
20069,4151, Note_on_c,63,76,2,2,1,73.0,False
20070,4151, Note_on_c,66,76,2,2,1,77.0,False
20071,4152, Note_on_c,65,76,2,2,1,76.0,True
20072,4152, Note_on_c,68,76,2,2,1,79.0,False
20073,4153, Note_on_c,58,76,2,2,1,67.0,False
20074,4154, Note_on_c,63,76,2,2,1,73.0,False
20075,4154, Note_on_c,66,76,2,2,1,77.0,False
20076,4155, Note_on_c,65,76,2,2,1,76.0,True
20077,4155, Note_on_c,68,76,2,2,1,79.0,False
20078,4156, Note_on_c,63,76,2,2,1,73.0,False
20079,4156, Note_on_c,66,76,2,2,1,77.0,False
20080,4157, Note_on_c,65,76,2,2,1,76.0,True
20081,4157, Note_on_c,70,76,2,2,1,81.0,False
20082,4158, Note_on_c,58,76,2,2,1,67.0,False
20083,4159, Note_on_c,63,76,2,2,1,73.0,False
20084,4159, Note_on_c,66,76,2,2,1,77.0,False
20085,4160, Note_on_c,65,76,2,2,1,76.0,True
20086,4160, Note_on_c,68,76,2,2,1,79.0,False
20087,4161, Note_on_c,58,76,2,2,1,67.0,False
20088,4162, Note_on_c,63,76,2,2,1,73.0,False
20089,4162, Note_on_c,66,76,2,2,1,77.0,False
20090,4163, Note_on_c,65,76,2,2,1,76.0,True
20091,4163, Note_on_c,68,76,2,2,1,79.0,False
20092,4164, Note_on_c,63,76,2,2,1,73.0,False
20093,4164, Note_on_c,66,76,2,2,1,77.0,False
20094,4165, Note_on_c,65,76,2,2,1,76.0,True
20095,4165, Note_on_c,70,76,2,2,1,81.0,False
20096,4166, Note_on_c,58,76,2,2,1,67.0,False
20097,4167, Note_on_c,63,76,2,2,1,73.0,False
20098,4167, Note_on_c,66,76,2,2,1,77.0,False
20099,4168, Note_on_c,65,76,2,2,1,76.0,True
20100,4168, Note_on_c,68,76,2,2,1,79.0,False
20101,4169, Note_on_c,58,76,2,2,1,67.0,False
20102,4170, Note_on_c,63,76,2,2,1,73.0,False
20103,4170, Note_on_c,66,76,2,2,1,77.0,False
20104,4171, Note_on_c,65,76,2,2,1,76.0,True
20105,4171, Note_on_c,68,76,2,2,1,79.0,False
20106,4172, Note_on_c,63,76,2,2,1,73.0,False
20107,4172, Note_on_c,66,76,2,2,1,77.0,False
20108,4173, Note_on_c,65,76,2,2,1,76.0,True
20109,4173, Note_on_c,70,76,2,2,1,81.0,False
20110,4174, Note_on_c,58,76,2,2,1,67.0,False
20111,4175, Note_on_c,63,76,2,2,1,73.0,False
20112,4175, Note_on_c,66,76,2,2,1,77.0,False
20113,4176, Note_on_c,65,76,2,2,1,76.0,True
20114,4176, Note_on_c,68,76,2,2,1,79.0,False
20115,4177, Note_on_c,58,76,2,2,1,67.0,False
20116,4178, Note_on_c,63,76,2,2,1,73.0,False
20117,4178, Note_on_c,66,76,2,2,1,77.0,False
20118,4179, Note_on_c,65,76,2,2,1,76.0,True
20119,4179, Note_on_c,68,76,2,2,1,79.0,False
20120,4180, Note_on_c,63,76,2,2,1,73.0,False
20121,4180, Note_on_c,66,76,2,2,1,77.0,False
20122,4181, Note_on_c,65,76,2,2,1,76.0,True
20123,4181, Note_on_c,70,76,2,2,1,81.0,False
20124,4182, Note_on_c,58,76,2,2,1,67.0,False
20125,4183, Note_on_c,63,76,2,2,1,73.0,False
20126,4183, Note_on_c,66,76,2,2,1,77.0,False
20127,4184, Note_on_c,65,76,2,2,1,76.0,True
20128,4184, Note_on_c,68,76,2,2,1,79.0,False
20129,4185, Note_on_c,58,76,2,2,1,67.0,False
20130,4186, Note_on_c,63,76,2,2,1,73.0,False
20131,4186, Note_on_c,66,76,2,2,1,77.0,False
20132,4187, Note_on_c,65,76,2,2,1,76.0,True
20133,4187, Note_on_c,68,76,2,2,1,79.0,False
20134,4188, Note_on_c,63,76,2,2,1,73.0,False
20135,4188, Note_on_c,66,76,2,2,1,77.0,False
20136,4189, Note_on_c,65,76,2,2,1,76.0,True
20137,4189, Note_on_c,70,76,2,2,1,81.0,False
20138,4190, Note_on_c,58,76,2,2,1,67.0,False
20139,4191, Note_on_c,63,76,2,2,1,73.0,False
20140,4191, Note_on_c,66,76,2,2,1,77.0,False
20141,4192, Note_on_c,65,76,2,2,1,76.0,True
20142,4192, Note_on_c,68,76,2,2,1,79.0,False
20143,4193, Note_on_c,58,76,2,2,1,67.0,False
20144,4194, Note_on_c,63,76,2,2,1,73.0,False
20145,4194, Note_on_c,66,76,2,2,1,77.0,False
20146,4195, Note_on_c,65,76,2,2,1,76.0,True
20147,4195, Note_on_c,68,76,2,2,1,79.0,False
20148,4196, Note_on_c,63,76,2,2,1,73.0,False
20149,4196, Note_on_c,66,76,2,2,1,77.0,False
20150,4197, Note_on_c,65,76,2,2,1,76.0,True
20151,4197, Note_on_c,70,76,2,2,1,81.0,False
20152,4198, Note_on_c,58,76,2,2,1,67.0,False
20153,4199, Note_on_c,63,76,2,2,1,73.0,False
20154,4199, Note_on_c,66,76,2,2,1,77.0,False
20155,4200, Note_on_c,65,76,2,2,1,76.0,True
20156,4200, Note_on_c,68,76,2,2,1,79.0,False
20157,4201, Note_on_c,58,76,2,2,1,67.0,False
20158,4202, Note_on_c,63,76,2,2,1,73.0,False
20159,4202, Note_on_c,66,76,2,2,1,77.0,False
20160,4203, Note_on_c,65,76,2,2,1,76.0,True
20161,4203, Note_on_c,68,76,2,2,1,79.0,False
20162,4204, Note_on_c,63,76,2,2,1,73.0,False
20163,4204, Note_on_c,66,76,2,2,1,77.0,False
20164,4205, Note_on_c,65,76,2,2,1,76.0,True
20165,4205, Note_on_c,70,76,2,2,1,81.0,False
20166,4206, Note_on_c,58,76,2,2,1,67.0,False
20167,4207, Note_on_c,63,76,2,2,1,73.0,False
20168,4207, Note_on_c,66,76,2,2,1,77.0,False
20169,4208, Note_on_c,65,76,2,2,1,76.0,True
20170,4208, Note_on_c,68,76,2,2,1,79.0,False
20171,4209, Note_on_c,58,76,2,2,1,67.0,False
20172,4210, Note_on_c,63,76,2,2,1,73.0,False
20173,4210, Note_on_c,66,76,2,2,1,77.0,False
20174,4211, Note_on_c,65,76,2,2,1,76.0,True
20175,4211, Note_on_c,68,76,2,2,1,79.0,False
20176,4212, Note_on_c,63,76,2,2,1,73.0,False
20177,4212, Note_on_c,66,76,2,2,1,77.0,False
20178,4213, Note_on_c,65,76,2,2,1,76.0,True
20179,4213, Note_on_c,70,76,2,2,1,81.0,False
20180,4214, Note_on_c,58,76,2,2,1,67.0,False
20181,4215, Note_on_c,63,76,2,2,1,73.0,False
20182,4215, Note_on_c,66,76,2,2,1,77.0,False
20183,4216, Note_on_c,65,76,2,2,1,76.0,True
20184,4216, Note_on_c,68,76,2,2,1,79.0,False
20185,4217, Note_on_c,58,76,2,2,1,67.0,False
20186,4218, Note_on_c,63,76,2,2,1,73.0,False
20187,4218, Note_on_c,66,76,2,2,1,77.0,False
20188,4219, Note_on_c,65,76,2,2,1,76.0,True
20189,4219, Note_on_c,68,76,2,2,1,79.0,False
20190,4220, Note_on_c,63,76,2,2,1,73.0,False
20191,4220, Note_on_c,66,76,2,2,1,77.0,False
20192,4221, Note_on_c,65,76,2,2,1,76.0,True
20193,4221, Note_on_c,70,76,2,2,1,81.0,False
20194,4222, Note_on_c,58,76,2,2,1,67.0,False
20195,4223, Note_on_c,63,76,2,2,1,73.0,False
20196,4223, Note_on_c,66,76,2,2,1,77.0,False
20197,4224, Note_on_c,65,76,2,2,1,76.0,True
20198,4224, Note_on_c,68,76,2,2,1,79.0,False
20199,4225, Note_on_c,58,76,2,2,1,67.0,False
20200,4226, Note_on_c,63,76,2,2,1,73.0,False
20201,4226, Note_on_c,66,76,2,2,1,77.0,False
20202,4227, Note_on_c,65,76,2,2,1,76.0,True
20203,4227, Note_on_c,68,76,2,2,1,79.0,False
20204,4228, Note_on_c,63,76,2,2,1,73.0,False
20205,4228, Note_on_c,66,76,2,2,1,77.0,False
20206,4229, Note_on_c,65,76,2,2,1,76.0,True
20207,4229, Note_on_c,70,76,2,2,1,81.0,False
20208,4230, Note_on_c,58,76,2,2,1,67.0,False
20209,4231, Note_on_c,63,76,2,2,1,73.0,False
20210,4231, Note_on_c,66,76,2,2,1,77.0,False
20211,4232, Note_on_c,65,76,2,2,1,76.0,True
20212,4232, Note_on_c,68,76,2,2,1,79.0,False
20213,4233, Note_on_c,58,76,2,2,1,67.0,False
20214,4234, Note_on_c,63,76,2,2,1,73.0,False
20215,4234, Note_on_c,66,76,2,2,1,77.0,False
20216,4235, Note_on_c,65,76,2,2,1,76.0,True
20217,4235, Note_on_c,68,76,2,2,1,79.0,False
20218,4236, Note_on_c,63,76,2,2,1,73.0,False
20219,4236, Note_on_c,66,76,2,2,1,77.0,False
20220,4237, Note_on_c,65,76,2,2,1,76.0,True
20221,4237, Note_on_c,70,76,2,2,1,81.0,False
20222,4238, Note_on_c,58,76,2,2,1,67.0,False
20223,4239, Note_on_c,63,76,2,2,1,73.0,False
20224,4239, Note_on_c,66,76,2,2,1,77.0,False
20225,4240, Note_on_c,65,76,2,2,1,76.0,True
20226,4240, Note_on_c,68,76,2,2,1,79.0,False
20227,4241, Note_on_c,58,76,2,2,1,67.0,False
20228,4242, Note_on_c,63,76,2,2,1,73.0,False
20229,4242, Note_on_c,66,76,2,2,1,77.0,False
20230,4243, Note_on_c,65,76,2,2,1,76.0,True
20231,4243, Note_on_c,68,76,2,2,1,79.0,False
20232,4244, Note_on_c,63,76,2,2,1,73.0,False
20233,4244, Note_on_c,66,76,2,2,1,77.0,False
20234,4245, Note_on_c,65,76,2,2,1,76.0,True
20235,4245, Note_on_c,70,76,2,2,1,81.0,False
20236,4246, Note_on_c,58,76,2,2,1,67.0,False
20237,4247, Note_on_c,63,76,2,2,1,73.0,False
20238,4247, Note_on_c,66,76,2,2,1,77.0,False
20239,4248, Note_on_c,65,76,2,2,1,76.0,True
20240,4248, Note_on_c,68,76,2,2,1,79.0,False
20241,4249, Note_on_c,58,76,2,2,1,67.0,False
20242,4250, Note_on_c,63,76,2,2,1,73.0,False
20243,4250, Note_on_c,66,76,2,2,1,77.0,False
20244,4251, Note_on_c,65,76,2,2,1,76.0,True
20245,4251, Note_on_c,68,76,2,2,1,79.0,False
20246,4252, Note_on_c,63,76,2,2,1,73.0,False
20247,4252, Note_on_c,66,76,2,2,1,77.0,False
20248,4253, Note_on_c,65,76,2,2,1,76.0,True
20249,4253, Note_on_c,70,76,2,2,1,81.0,False
20250,4254, Note_on_c,58,76,2,2,1,67.0,False
20251,4255, Note_on_c,63,76,2,2,1,73.0,False
20252,4255, Note_on_c,66,76,2,2,1,77.0,False
20253,4256, Note_on_c,65,76,2,2,1,76.0,True
20254,4256, Note_on_c,68,76,2,2,1,79.0,False
20255,4257, Note_on_c,58,76,2,2,1,67.0,False
20256,4258, Note_on_c,63,76,2,2,1,73.0,False
20257,4258, Note_on_c,66,76,2,2,1,77.0,False
20258,4259, Note_on_c,65,76,2,2,1,76.0,True
20259,4259, Note_on_c,68,76,2,2,1,79.0,False
20260,4260, Note_on_c,63,76,2,2,1,73.0,False
20261,4260, Note_on_c,66,76,2,2,1,77.0,False
20262,4261, Note_on_c,65,76,2,2,1,76.0,True
20263,4261, Note_on_c,70,76,2,2,1,81.0,False
20264,4262, Note_on_c,58,76,2,2,1,67.0,False
20265,4263, Note_on_c,63,76,2,2,1,73.0,False
20266,4263, Note_on_c,66,76,2,2,1,77.0,False
20267,4264, Note_on_c,65,76,2,2,1,76.0,True
20268,4264, Note_on_c,68,76,2,2,1,79.0,False
20269,4265, Note_on_c,58,76,2,2,1,67.0,False
20270,4266, Note_on_c,63,76,2,2,1,73.0,False
20271,4266, Note_on_c,66,76,2,2,1,77.0,False
20272,4267, Note_on_c,65,76,2,2,1,76.0,True
20273,4267, Note_on_c,68,76,2,2,1,79.0,False
20274,4268, Note_on_c,63,76,2,2,1,73.0,False
20275,4268, Note_on_c,66,76,2,2,1,77.0,False
20276,4269, Note_on_c,65,76,2,2,1,76.0,True
20277,4269, Note_on_c,70,76,2,2,1,81.0,False
20278,4270, Note_on_c,58,76,2,2,1,67.0,False
20279,4271, Note_on_c,63,76,2,2,1,73.0,False
20280,4271, Note_on_c,66,76,2,2,1,77.0,False
20281,4272, Note_on_c,65,76,2,2,1,76.0,True
20282,4272, Note_on_c,68,76,2,2,1,79.0,False
20283,4273, Note_on_c,58,76,2,2,1,67.0,False
20284,4274, Note_on_c,63,76,2,2,1,73.0,False
20285,4274, Note_on_c,66,76,2,2,1,77.0,False
20286,4275, Note_on_c,65,76,2,2,1,76.0,True
20287,4275, Note_on_c,68,76,2,2,1,79.0,False
20288,4276, Note_on_c,63,76,2,2,1,73.0,False
20289,4276, Note_on_c,66,76,2,2,1,77.0,False
20290,4277, Note_on_c,65,76,2,2,1,76.0,True
20291,4277, Note_on_c,70,76,2,2,1,81.0,False
20292,4278, Note_on_c,58,76,2,2,1,67.0,False
20293,4279, Note_on_c,63,76,2,2,1,73.0,False
20294,4279, Note_on_c,66,76,2,2,1,77.0,False
20295,4280, Note_on_c,65,76,2,2,1,76.0,True
20296,4280, Note_on_c,68,76,2,2,1,79.0,False
20297,4281, Note_on_c,58,76,2,2,1,67.0,False
20298,4282, Note_on_c,63,76,2,2,1,73.0,False
20299,4282, Note_on_c,66,76,2,2,1,77.0,False
20300,4283, Note_on_c,65,76,2,2,1,76.0,True
20301,4283, Note_on_c,68,76,2,2,1,79.0,False
20302,4284, Note_on_c,63,76,2,2,1,73.0,False
20303,4284, Note_on_c,66,76,2,2,1,77.0,False
20304,4285, Note_on_c,65,76,2,2,1,76.0,True
20305,4285, Note_on_c,70,76,2,2,1,81.0,False
20306,4286, Note_on_c,58,76,2,2,1,67.0,False
20307,4287, Note_on_c,63,76,2,2,1,73.0,False
20308,4287, Note_on_c,66,76,2,2,1,77.0,False
20309,4288, Note_on_c,65,76,2,2,1,76.0,True
20310,4288, Note_on_c,68,76,2,2,1,79.0,False
20311,4289, Note_on_c,58,76,2,2,1,67.0,False
20312,4290, Note_on_c,63,76,2,2,1,73.0,False
20313,4290, Note_on_c,66,76,2,2,1,77.0,False
20314,4291, Note_on_c,65,76,2,2,1,76.0,True
20315,4291, Note_on_c,68,76,2,2,1,79.0,False
20316,4292, Note_on_c,63,76,2,2,1,73.0,False
20317,4292, Note_on_c,66,76,2,2,1,77.0,False
20318,4293, Note_on_c,65,76,2,2,1,76.0,True
20319,4293, Note_on_c,70,76,2,2,1,81.0,False
20320,4294, Note_on_c,58,76,2,2,1,67.0,False
20321,4295, Note_on_c,63,76,2,2,1,73.0,False
20322,4295, Note_on_c,66,76,2,2,1,77.0,False
20323,4296, Note_on_c,65,76,2,2,1,76.0,True
20324,4296, Note_on_c,68,76,2,2,1,79.0,False
20325,4297, Note_on_c,58,76,2,2,1,67.0,False
20326,4298, Note_on_c,63,76,2,2,1,73.0,False
20327,4298, Note_on_c,66,76,2,2,1,77.0,False
20328,4299, Note_on_c,65,76,2,2,1,76.0,True
20329,4299, Note_on_c,68,76,2,2,1,79.0,False
20330,4300, Note_on_c,63,76,2,2,1,73.0,False
20331,4300, Note_on_c,66,76,2,2,1,77.0,False
20332,4301, Note_on_c,65,76,2,2,1,76.0,True
20333,4301, Note_on_c,70,76,2,2,1,81.0,False
20334,4302, Note_on_c,58,76,2,2,1,67.0,False
20335,4303, Note_on_c,63,76,2,2,1,73.0,False
20336,4303, Note_on_c,66,76,2,2,1,77.0,False
20337,4304, Note_on_c,65,76,2,2,1,76.0,True
20338,4304, Note_on_c,68,76,2,2,1,79.0,False
20339,4305, Note_on_c,58,76,2,2,1,67.0,False
20340,4306, Note_on_c,63,76,2,2,1,73.0,False
20341,4306, Note_on_c,66,76,2,2,1,77.0,False
20342,4307, Note_on_c,65,76,2,2,1,76.0,True
20343,4307, Note_on_c,68,76,2,2,1,79.0,False
20344,4308, Note_on_c,63,76,2,2,1,73.0,False
20345,4308, Note_on_c,66,76,2,2,1,77.0,False
20346,4309, Note_on_c,65,76,2,2,1,76.0,True
20347,4309, Note_on_c,70,76,2,2,1,81.0,False
20348,4310, Note_on_c,58,76,2,2,1,67.0,False
20349,4311, Note_on_c,63,76,2,2,1,73.0,False
20350,4311, Note_on_c,66,76,2,2,1,77.0,False
20351,4312, Note_on_c,65,76,2,2,1,76.0,True
20352,4312, Note_on_c,68,76,2,2,1,79.0,False
20353,4313, Note_on_c,58,76,2,2,1,67.0,False
20354,4314, Note_on_c,63,76,2,2,1,73.0,False
20355,4314, Note_on_c,66,76,2,2,1,77.0,False
20356,4315, Note_on_c,65,76,2,2,1,76.0,True
20357,4315, Note_on_c,68,76,2,2,1,79.0,False
20358,4316, Note_on_c,63,76,2,2,1,73.0,False
20359,4316, Note_on_c,66,76,2,2,1,77.0,False
20360,4317, Note_on_c,65,76,2,2,1,76.0,True
20361,4317, Note_on_c,70,76,2,2,1,81.0,False
20362,4318, Note_on_c,58,76,2,2,1,67.0,False
20363,4319, Note_on_c,63,76,2,2,1,73.0,False
20364,4319, Note_on_c,66,76,2,2,1,77.0,False
20365,4320, Note_on_c,65,76,2,2,1,76.0,True
20366,4320, Note_on_c,68,76,2,2,1,79.0,False
20367,4321, Note_on_c,58,76,2,2,1,67.0,False
20368,4322, Note_on_c,63,76,2,2,1,73.0,False
20369,4322, Note_on_c,66,76,2,2,1,77.0,False
20370,4323, Note_on_c,65,76,2,2,1,76.0,True
20371,4323, Note_on_c,68,76,2,2,1,79.0,False
20372,4324, Note_on_c,63,76,2,2,1,73.0,False
20373,4324, Note_on_c,66,76,2,2,1,77.0,False
20374,4325, Note_on_c,65,76,2,2,1,76.0,True
20375,4325, Note_on_c,70,76,2,2,1,81.0,False
20376,4326, Note_on_c,58,76,2,2,1,67.0,False
20377,4327, Note_on_c,63,76,2,2,1,73.0,False
20378,4327, Note_on_c,66,76,2,2,1,77.0,False
20379,4328, Note_on_c,65,76,2,2,1,76.0,True
20380,4328, Note_on_c,68,76,2,2,1,79.0,False
20381,4329, Note_on_c,58,76,2,2,1,67.0,False
20382,4330, Note_on_c,63,76,2,2,1,73.0,False
20383,4330, Note_on_c,66,76,2,2,1,77.0,False
20384,4331, Note_on_c,65,76,2,2,1,76.0,True
20385,4331, Note_on_c,68,76,2,2,1,79.0,False
20386,4332, Note_on_c,63,76,2,2,1,73.0,False
20387,4332, Note_on_c,66,76,2,2,1,77.0,False
20388,4333, Note_on_c,65,76,2,2,1,76.0,True
20389,4333, Note_on_c,70,76,2,2,1,81.0,False
20390,4334, Note_on_c,58,76,2,2,1,67.0,False
20391,4335, Note_on_c,63,76,2,2,1,73.0,False
20392,4335, Note_on_c,66,76,2,2,1,77.0,False
20393,4336, Note_on_c,65,76,2,2,1,76.0,True
20394,4336, Note_on_c,68,76,2,2,1,79.0,False
20395,4337, Note_on_c,58,76,2,2,1,67.0,False
20396,4338, Note_on_c,63,76,2,2,1,73.0,False
20397,4338, Note_on_c,66,76,2,2,1,77.0,False
20398,4339, Note_on_c,65,76,2,2,1,76.0,True
20399,4339, Note_on_c,68,76,2,2,1,79.0,False
20400,4340, Note_on_c,63,76,2,2,1,73.0,False
20401,4340, Note_on_c,66,76,2,2,1,77.0,False
20402,4341, Note_on_c,65,76,2,2,1,76.0,True
20403,4341, Note_on_c,70,76,2,2,1,81.0,False
20404,4342, Note_on_c,58,76,2,2,1,67.0,False
20405,4343, Note_on_c,63,76,2,2,1,73.0,False
20406,4343, Note_on_c,66,76,2,2,1,77.0,False
20407,4344, Note_on_c,65,76,2,2,1,76.0,True
20408,4344, Note_on_c,68,76,2,2,1,79.0,False
20409,4345, Note_on_c,58,76,2,2,1,67.0,False
20410,4346, Note_on_c,63,76,2,2,1,73.0,False
20411,4346, Note_on_c,66,76,2,2,1,77.0,False
20412,4347, Note_on_c,65,76,2,2,1,76.0,True
20413,4347, Note_on_c,68,76,2,2,1,79.0,False
20414,4348, Note_on_c,63,76,2,2,1,73.0,False
20415,4348, Note_on_c,66,76,2,2,1,77.0,False
20416,4349, Note_on_c,65,76,2,2,1,76.0,True
20417,4349, Note_on_c,70,76,2,2,1,81.0,False
20418,4350, Note_on_c,58,76,2,2,1,67.0,False
20419,4351, Note_on_c,63,76,2,2,1,73.0,False
20420,4351, Note_on_c,66,76,2,2,1,77.0,False
20421,4352, Note_on_c,65,76,2,2,1,76.0,True
20422,4352, Note_on_c,68,76,2,2,1,79.0,False
20423,4353, Note_on_c,58,76,2,2,1,67.0,False
20424,4354, Note_on_c,63,76,2,2,1,73.0,False
20425,4354, Note_on_c,66,76,2,2,1,77.0,False
20426,4355, Note_on_c,65,76,2,2,1,76.0,True
20427,4355, Note_on_c,68,76,2,2,1,79.0,False
20428,4356, Note_on_c,63,76,2,2,1,73.0,False
20429,4356, Note_on_c,66,76,2,2,1,77.0,False
20430,4357, Note_on_c,65,76,2,2,1,76.0,True
20431,4357, Note_on_c,70,76,2,2,1,81.0,False
20432,4358, Note_on_c,58,76,2,2,1,67.0,False
20433,4359, Note_on_c,63,76,2,2,1,73.0,False
20434,4359, Note_on_c,66,76,2,2,1,77.0,False
20435,4360, Note_on_c,65,76,2,2,1,76.0,True
20436,4360, Note_on_c,68,76,2,2,1,79.0,False
20437,4361, Note_on_c,58,76,2,2,1,67.0,False
20438,4362, Note_on_c,63,76,2,2,1,73.0,False
20439,4362, Note_on_c,66,76,2,2,1,77.0,False
20440,4363, Note_on_c,65,76,2,2,1,76.0,True
20441,4363, Note_on_c,68,76,2,2,1,79.0,False
20442,4364, Note_on_c,63,76,2,2,1,73.0,False
20443,4364, Note_on_c,66,76,2,2,1,77.0,False
20444,4365, Note_on_c,65,76,2,2,1,76.0,True
20445,4365, Note_on_c,70,76,2,2,1,81.0,False
20446,4366, Note_on_c,58,76,2,2,1,67.0,False
20447,4367, Note_on_c,63,76,2,2,1,73.0,False
20448,4367, Note_on_c,66,76,2,2,1,77.0,False
20449,4368, Note_on_c,65,76,2,2,1,76.0,True
20450,4368, Note_on_c,68,76,2,2,1,79.0,False
20451,4369, Note_on_c,58,76,2,2,1,67.0,False
20452,4370, Note_on_c,63,76,2,2,1,73.0,False
20453,4370, Note_on_c,66,76,2,2,1,77.0,False
20454,4371, Note_on_c,65,76,2,2,1,76.0,True
20455,4371, Note_on_c,68,76,2,2,1,79.0,False
20456,4372, Note_on_c,63,76,2,2,1,73.0,False
20457,4372, Note_on_c,66,76,2,2,1,77.0,False
20458,4373, Note_on_c,65,76,2,2,1,76.0,True
20459,4373, Note_on_c,70,76,2,2,1,81.0,False
20460,4374, Note_on_c,58,76,2,2,1,67.0,False
20461,4375, Note_on_c,63,76,2,2,1,73.0,False
20462,4375, Note_on_c,66,76,2,2,1,77.0,False
20463,4376, Note_on_c,65,76,2,2,1,76.0,True
20464,4376, Note_on_c,68,76,2,2,1,79.0,False
20465,4377, Note_on_c,58,76,2,2,1,67.0,False
20466,4378, Note_on_c,63,76,2,2,1,73.0,False
20467,4378, Note_on_c,66,76,2,2,1,77.0,False
20468,4379, Note_on_c,65,76,2,2,1,76.0,True
20469,4379, Note_on_c,68,76,2,2,1,79.0,False
20470,4380, Note_on_c,63,76,2,2,1,73.0,False
20471,4380, Note_on_c,66,76,2,2,1,77.0,False
20472,4381, Note_on_c,65,76,2,2,1,76.0,True
20473,4381, Note_on_c,70,76,2,2,1,81.0,False
20474,4382, Note_on_c,58,76,2,2,1,67.0,False
20475,4383, Note_on_c,63,76,2,2,1,73.0,False
20476,4383, Note_on_c,66,76,2,2,1,77.0,False
20477,4384, Note_on_c,65,76,2,2,1,76.0,True
20478,4384, Note_on_c,68,76,2,2,1,79.0,False
20479,4385, Note_on_c,58,76,2,2,1,67.0,False
20480,4386, Note_on_c,63,76,2,2,1,73.0,False
20481,4386, Note_on_c,66,76,2,2,1,77.0,False
20482,4387, Note_on_c,65,76,2,2,1,76.0,True
20483,4387, Note_on_c,68,76,2,2,1,79.0,False
20484,4388, Note_on_c,63,76,2,2,1,73.0,False
20485,4388, Note_on_c,66,76,2,2,1,77.0,False
20486,4389, Note_on_c,65,76,2,2,1,76.0,True
20487,4389, Note_on_c,70,76,2,2,1,81.0,False
20488,4390, Note_on_c,58,76,2,2,1,67.0,False
20489,4391, Note_on_c,63,76,2,2,1,73.0,False
20490,4391, Note_on_c,66,76,2,2,1,77.0,False
20491,4392, Note_on_c,65,76,2,2,1,76.0,True
20492,4392, Note_on_c,68,76,2,2,1,79.0,False
20493,4393, Note_on_c,58,76,2,2,1,67.0,False
20494,4394, Note_on_c,63,76,2,2,1,73.0,False
20495,4394, Note_on_c,66,76,2,2,1,77.0,False
20496,4395, Note_on_c,65,76,2,2,1,76.0,True
20497,4395, Note_on_c,68,76,2,2,1,79.0,False
20498,4396, Note_on_c,63,76,2,2,1,73.0,False
20499,4396, Note_on_c,66,76,2,2,1,77.0,False
20500,4397, Note_on_c,65,76,2,2,1,76.0,True
20501,4397, Note_on_c,70,76,2,2,1,81.0,False
20502,4398, Note_on_c,58,76,2,2,1,67.0,False
20503,4399, Note_on_c,63,76,2,2,1,73.0,False
20504,4399, Note_on_c,66,76,2,2,1,77.0,False
20505,4400, Note_on_c,65,76,2,2,1,76.0,True
20506,4400, Note_on_c,68,76,2,2,1,79.0,False
20507,4401, Note_on_c,58,76,2,2,1,67.0,False
20508,4402, Note_on_c,63,76,2,2,1,73.0,False
20509,4402, Note_on_c,66,76,2,2,1,77.0,False
20510,4403, Note_on_c,65,76,2,2,1,76.0,True
20511,4403, Note_on_c,68,76,2,2,1,79.0,False
20512,4404, Note_on_c,63,76,2,2,1,73.0,False
20513,4404, Note_on_c,66,76,2,2,1,77.0,False
20514,4405, Note_on_c,65,76,2,2,1,76.0,True
20515,4405, Note_on_c,70,76,2,2,1,81.0,False
20516,4406, Note_on_c,58,76,2,2,1,67.0,False
20517,4407, Note_on_c,63,76,2,2,1,73.0,False
20518,4407, Note_on_c,66,76,2,2,1,77.0,False
20519,4408, Note_on_c,65,76,2,2,1,76.0,True
20520,4408, Note_on_c,68,76,2,2,1,79.0,False
20521,4409, Note_on_c,58,76,2,2,1,67.0,False
20522,4410, Note_on_c,63,76,2,2,1,73.0,False
20523,4410, Note_on_c,66,76,2,2,1,77.0,False
20524,4411, Note_on_c,65,76,2,2,1,76.0,True
20525,4411, Note_on_c,68,76,2,2,1,79.0,False
20526,4412, Note_on_c,63,76,2,2,1,73.0,False
20527,4412, Note_on_c,66,76,2,2,1,77.0,False
20528,4413, Note_on_c,65,76,2,2,1,76.0,True
20529,4413, Note_on_c,70,76,2,2,1,81.0,False
20530,4414, Note_on_c,58,76,2,2,1,67.0,False
20531,4415, Note_on_c,63,76,2,2,1,73.0,False
20532,4415, Note_on_c,66,76,2,2,1,77.0,False
20533,4416, Note_on_c,65,76,2,2,1,76.0,True
20534,4416, Note_on_c,68,76,2,2,1,79.0,False
20535,4417, Note_on_c,58,76,2,2,1,67.0,False
20536,4418, Note_on_c,63,76,2,2,1,73.0,False
20537,4418, Note_on_c,66,76,2,2,1,77.0,False
20538,4419, Note_on_c,65,76,2,2,1,76.0,True
20539,4419, Note_on_c,68,76,2,2,1,79.0,False
20540,4420, Note_on_c,63,76,2,2,1,73.0,False
20541,4420, Note_on_c,66,76,2,2,1,77.0,False
20542,4421, Note_on_c,65,76,2,2,1,76.0,True
20543,4421, Note_on_c,70,76,2,2,1,81.0,False
20544,4422, Note_on_c,58,76,2,2,1,67.0,False
20545,4423, Note_on_c,63,76,2,2,1,73.0,False
20546,4423, Note_on_c,66,76,2,2,1,77.0,False
20547,4424, Note_on_c,65,76,2,2,1,76.0,True
20548,4424, Note_on_c,68,76,2,2,1,79.0,False
20549,4425, Note_on_c,58,76,2,2,1,67.0,False
20550,4426, Note_on_c,63,76,2,2,1,73.0,False
20551,4426, Note_on_c,66,76,2,2,1,77.0,False
20552,4427, Note_on_c,65,76,2,2,1,76.0,True
20553,4427, Note_on_c,68,76,2,2,1,79.0,False
20554,4428, Note_on_c,63,76,2,2,1,73.0,False
20555,4428, Note_on_c,66,76,2,2,1,77.0,False
20556,4429, Note_on_c,65,76,2,2,1,76.0,True
20557,4429, Note_on_c,70,76,2,2,1,81.0,False
20558,4430, Note_on_c,58,76,2,2,1,67.0,False
20559,4431, Note_on_c,63,76,2,2,1,73.0,False
20560,4431, Note_on_c,66,76,2,2,1,77.0,False
20561,4432, Note_on_c,65,76,2,2,1,76.0,True
20562,4432, Note_on_c,68,76,2,2,1,79.0,False
20563,4433, Note_on_c,58,76,2,2,1,67.0,False
20564,4434, Note_on_c,63,76,2,2,1,73.0,False
20565,4434, Note_on_c,66,76,2,2,1,77.0,False
20566,4435, Note_on_c,65,76,2,2,1,76.0,True
20567,4435, Note_on_c,68,76,2,2,1,79.0,False
20568,4436, Note_on_c,63,76,2,2,1,73.0,False
20569,4436, Note_on_c,66,76,2,2,1,77.0,False
20570,4437, Note_on_c,65,76,2,2,1,76.0,True
20571,4437, Note_on_c,70,76,2,2,1,81.0,False
20572,4438, Note_on_c,58,76,2,2,1,67.0,False
20573,4439, Note_on_c,63,76,2,2,1,73.0,False
20574,4439, Note_on_c,66,76,2,2,1,77.0,False
20575,4440, Note_on_c,65,76,2,2,1,76.0,True
20576,4440, Note_on_c,68,76,2,2,1,79.0,False
20577,4441, Note_on_c,58,76,2,2,1,67.0,False
20578,4442, Note_on_c,63,76,2,2,1,73.0,False
20579,4442, Note_on_c,66,76,2,2,1,77.0,False
20580,4443, Note_on_c,65,76,2,2,1,76.0,True
20581,4443, Note_on_c,68,76,2,2,1,79.0,False
20582,4444, Note_on_c,63,76,2,2,1,73.0,False
20583,4444, Note_on_c,66,76,2,2,1,77.0,False
20584,4445, Note_on_c,65,76,2,2,1,76.0,True
20585,4445, Note_on_c,70,76,2,2,1,81.0,False
20586,4446, Note_on_c,58,76,2,2,1,67.0,False
20587,4447, Note_on_c,63,76,2,2,1,73.0,False
20588,4447, Note_on_c,66,76,2,2,1,77.0,False
20589,4448, Note_on_c,65,76,2,2,1,76.0,True
20590,4448, Note_on_c,68,76,2,2,1,79.0,False
20591,4449, Note_on_c,58,76,2,2,1,67.0,False
20592,4450, Note_on_c,63,76,2,2,1,73.0,False
20593,4450, Note_on_c,66,76,2,2,1,77.0,False
20594,4451, Note_on_c,65,76,2,2,1,76.0,True
20595,4451, Note_on_c,68,76,2,2,1,79.0,False
20596,4452, Note_on_c,63,76,2,2,1,73.0,False
20597,4452, Note_on_c,66,76,2,2,1,77.0,False
20598,4453, Note_on_c,65,76,2,2,1,76.0,True
20599,4453, Note_on_c,70,76,2,2,1,81.0,False
20600,4454, Note_on_c,58,76,2,2,1,67.0,False
20601,4455, Note_on_c,63,76,2,2,1,73.0,False
20602,4455, Note_on_c,66,76,2,2,1,77.0,False
20603,4456, Note_on_c,65,76,2,2,1,76.0,True
20604,4456, Note_on_c,68,76,2,2,1,79.0,False
20605,4457, Note_on_c,58,76,2,2,1,67.0,False
20606,4458, Note_on_c,63,76,2,2,1,73.0,False
20607,4458, Note_on_c,66,76,2,2,1,77.0,False
20608,4459, Note_on_c,65,76,2,2,1,76.0,True
20609,4459, Note_on_c,68,76,2,2,1,79.0,False
20610,4460, Note_on_c,63,76,2,2,1,73.0,False
20611,4460, Note_on_c,66,76,2,2,1,77.0,False
20612,4461, Note_on_c,65,76,2,2,1,76.0,True
20613,4461, Note_on_c,70,76,2,2,1,81.0,False
20614,4462, Note_on_c,58,76,2,2,1,67.0,False
20615,4463, Note_on_c,63,76,2,2,1,73.0,False
20616,4463, Note_on_c,66,76,2,2,1,77.0,False
20617,4464, Note_on_c,65,76,2,2,1,76.0,True
20618,4464, Note_on_c,68,76,2,2,1,79.0,False
20619,4465, Note_on_c,58,76,2,2,1,67.0,False
20620,4466, Note_on_c,63,76,2,2,1,73.0,False
20621,4466, Note_on_c,66,76,2,2,1,77.0,False
20622,4467, Note_on_c,65,76,2,2,1,76.0,True
20623,4467, Note_on_c,68,76,2,2,1,79.0,False
20624,4468, Note_on_c,63,76,2,2,1,73.0,False
20625,4468, Note_on_c,66,76,2,2,1,77.0,False
20626,4469, Note_on_c,65,76,2,2,1,76.0,True
20627,4469, Note_on_c,70,76,2,2,1,81.0,False
20628,4470, Note_on_c,58,76,2,2,1,67.0,False
20629,4471, Note_on_c,63,76,2,2,1,73.0,False
20630,4471, Note_on_c,66,76,2,2,1,77.0,False
20631,4472, Note_on_c,65,76,2,2,1,76.0,True
20632,4472, Note_on_c,68,76,2,2,1,79.0,False
20633,4473, Note_on_c,58,76,2,2,1,67.0,False
20634,4474, Note_on_c,63,76,2,2,1,73.0,False
20635,4474, Note_on_c,66,76,2,2,1,77.0,False
20636,4475, Note_on_c,65,76,2,2,1,76.0,True
20637,4475, Note_on_c,68,76,2,2,1,79.0,False
20638,4476, Note_on_c,63,76,2,2,1,73.0,False
20639,4476, Note_on_c,66,76,2,2,1,77.0,False
20640,4477, Note_on_c,65,76,2,2,1,76.0,True
20641,4477, Note_on_c,70,76,2,2,1,81.0,False
20642,4478, Note_on_c,58,76,2,2,1,67.0,False
20643,4479, Note_on_c,63,76,2,2,1,73.0,False
20644,4479, Note_on_c,66,76,2,2,1,77.0,False
20645,4480, Note_on_c,65,76,2,2,1,76.0,True
20646,4480, Note_on_c,68,76,2,2,1,79.0,False
20647,4481, Note_on_c,58,76,2,2,1,67.0,False
20648,4482, Note_on_c,63,76,2,2,1,73.0,False
20649,4482, Note_on_c,66,76,2,2,1,77.0,False
20650,4483, Note_on_c,65,76,2,2,1,76.0,True
20651,4483, Note_on_c,68,76,2,2,1,79.0,False
20652,4484, Note_on_c,63,76,2,2,1,73.0,False
20653,4484, Note_on_c,66,76,2,2,1,77.0,False
20654,4485, Note_on_c,65,76,2,2,1,76.0,True
20655,4485, Note_on_c,70,76,2,2,1,81.0,False
20656,4486, Note_on_c,58,76,2,2,1,67.0,False
20657,4487, Note_on_c,63,76,2,2,1,73.0,False
20658,4487, Note_on_c,66,76,2,2,1,77.0,False
20659,4488, Note_on_c,65,76,2,2,1,76.0,True
20660,4488, Note_on_c,68,76,2,2,1,79.0,False
20661,4489, Note_on_c,58,76,2,2,1,67.0,False
20662,4490, Note_on_c,63,76,2,2,1,73.0,False
20663,4490, Note_on_c,66,76,2,2,1,77.0,False
20664,4491, Note_on_c,65,76,2,2,1,76.0,True
20665,4491, Note_on_c,68,76,2,2,1,79.0,False
20666,4492, Note_on_c,63,76,2,2,1,73.0,False
20667,4492, Note_on_c,66,76,2,2,1,77.0,False
20668,4493, Note_on_c,65,76,2,2,1,76.0,True
20669,4493, Note_on_c,70,76,2,2,1,81.0,False
20670,4494, Note_on_c,58,76,2,2,1,67.0,False
20671,4495, Note_on_c,63,76,2,2,1,73.0,False
20672,4495, Note_on_c,66,76,2,2,1,77.0,False
20673,4496, Note_on_c,65,76,2,2,1,76.0,True
20674,4496, Note_on_c,68,76,2,2,1,79.0,False
20675,4497, Note_on_c,58,76,2,2,1,67.0,False
20676,4498, Note_on_c,63,76,2,2,1,73.0,False
20677,4498, Note_on_c,66,76,2,2,1,77.0,False
20678,4499, Note_on_c,65,76,2,2,1,76.0,True
20679,4499, Note_on_c,68,76,2,2,1,79.0,False
20680,4500, Note_on_c,63,76,2,2,1,73.0,False
20681,4500, Note_on_c,66,76,2,2,1,77.0,False
20682,4501, Note_on_c,65,76,2,2,1,76.0,True
20683,4501, Note_on_c,70,76,2,2,1,81.0,False
20684,4502, Note_on_c,58,76,2,2,1,67.0,False
20685,4503, Note_on_c,63,76,2,2,1,73.0,False
20686,4503, Note_on_c,66,76,2,2,1,77.0,False
20687,4504, Note_on_c,65,76,2,2,1,76.0,True
20688,4504, Note_on_c,68,76,2,2,1,79.0,False
20689,4505, Note_on_c,58,76,2,2,1,67.0,False
20690,4506, Note_on_c,63,76,2,2,1,73.0,False
20691,4506, Note_on_c,66,76,2,2,1,77.0,False
20692,4507, Note_on_c,65,76,2,2,1,76.0,True
20693,4507, Note_on_c,68,76,2,2,1,79.0,False
20694,4508, Note_on_c,63,76,2,2,1,73.0,False
20695,4508, Note_on_c,66,76,2,2,1,77.0,False
20696,4509, Note_on_c,65,76,2,2,1,76.0,True
20697,4509, Note_on_c,70,76,2,2,1,81.0,False
20698,4510, Note_on_c,58,76,2,2,1,67.0,False
20699,4511, Note_on_c,63,76,2,2,1,73.0,False
20700,4511, Note_on_c,66,76,2,2,1,77.0,False
20701,4512, Note_on_c,65,76,2,2,1,76.0,True
20702,4512, Note_on_c,68,76,2,2,1,79.0,False
20703,4513, Note_on_c,58,76,2,2,1,67.0,False
20704,4514, Note_on_c,63,76,2,2,1,73.0,False
20705,4514, Note_on_c,66,76,2,2,1,77.0,False
20706,4515, Note_on_c,65,76,2,2,1,76.0,True
20707,4515, Note_on_c,68,76,2,2,1,79.0,False
20708,4516, Note_on_c,63,76,2,2,1,73.0,False
20709,4516, Note_on_c,66,76,2,2,1,77.0,False
20710,4517, Note_on_c,65,76,2,2,1,76.0,True
20711,4517, Note_on_c,70,76,2,2,1,81.0,False
20712,4518, Note_on_c,58,76,2,2,1,67.0,False
20713,4519, Note_on_c,63,76,2,2,1,73.0,False
20714,4519, Note_on_c,66,76,2,2,1,77.0,False
20715,4520, Note_on_c,65,76,2,2,1,76.0,True
20716,4520, Note_on_c,68,76,2,2,1,79.0,False
20717,4521, Note_on_c,58,76,2,2,1,67.0,False
20718,4522, Note_on_c,63,76,2,2,1,73.0,False
20719,4522, Note_on_c,66,76,2,2,1,77.0,False
20720,4523, Note_on_c,65,76,2,2,1,76.0,True
20721,4523, Note_on_c,68,76,2,2,1,79.0,False
20722,4524, Note_on_c,63,76,2,2,1,73.0,False
20723,4524, Note_on_c,66,76,2,2,1,77.0,False
20724,4525, Note_on_c,65,76,2,2,1,76.0,True
20725,4525, Note_on_c,70,76,2,2,1,81.0,False
20726,4526, Note_on_c,58,76,2,2,1,67.0,False
20727,4527, Note_on_c,63,76,2,2,1,73.0,False
20728,4527, Note_on_c,66,76,2,2,1,77.0,False
20729,4528, Note_on_c,65,76,2,2,1,76.0,True
20730,4528, Note_on_c,68,76,2,2,1,79.0,False
20731,4529, Note_on_c,58,76,2,2,1,67.0,False
20732,4530, Note_on_c,63,76,2,2,1,73.0,False
20733,4530, Note_on_c,66,76,2,2,1,77.0,False
20734,4531, Note_on_c,65,76,2,2,1,76.0,True
20735,4531, Note_on_c,68,76,2,2,1,79.0,False
20736,4532, Note_on_c,63,76,2,2,1,73.0,False
20737,4532, Note_on_c,66,76,2,2,1,77.0,False
20738,4533, Note_on_c,65,76,2,2,1,76.0,True
20739,4533, Note_on_c,70,76,2,2,1,81.0,False
20740,4534, Note_on_c,58,76,2,2,1,67.0,False
20741,4535, Note_on_c,63,76,2,2,1,73.0,False
20742,4535, Note_on_c,66,76,2,2,1,77.0,False
20743,4536, Note_on_c,65,76,2,2,1,76.0,True
20744,4536, Note_on_c,68,76,2,2,1,79.0,False
20745,4537, Note_on_c,58,76,2,2,1,67.0,False
20746,4538, Note_on_c,63,76,2,2,1,73.0,False
20747,4538, Note_on_c,66,76,2,2,1,77.0,False
20748,4539, Note_on_c,65,76,2,2,1,76.0,True
20749,4539, Note_on_c,68,76,2,2,1,79.0,False
20750,4540, Note_on_c,63,76,2,2,1,73.0,False
20751,4540, Note_on_c,66,76,2,2,1,77.0,False
20752,4541, Note_on_c,65,76,2,2,1,76.0,True
20753,4541, Note_on_c,70,76,2,2,1,81.0,False
20754,4542, Note_on_c,58,76,2,2,1,67.0,False
20755,4543, Note_on_c,63,76,2,2,1,73.0,False
20756,4543, Note_on_c,66,76,2,2,1,77.0,False
20757,4544, Note_on_c,65,76,2,2,1,76.0,True
20758,4544, Note_on_c,68,76,2,2,1,79.0,False
20759,4545, Note_on_c,58,76,2,2,1,67.0,False
20760,4546, Note_on_c,63,76,2,2,1,73.0,False
20761,4546, Note_on_c,66,76,2,2,1,77.0,False
20762,4547, Note_on_c,65,76,2,2,1,76.0,True
20763,4547, Note_on_c,68,76,2,2,1,79.0,False
20764,4548, Note_on_c,63,76,2,2,1,73.0,False
20765,4548, Note_on_c,66,76,2,2,1,77.0,False
20766,4549, Note_on_c,65,76,2,2,1,76.0,True
20767,4549, Note_on_c,70,76,2,2,1,81.0,False
20768,4550, Note_on_c,58,76,2,2,1,67.0,False
20769,4551, Note_on_c,63,76,2,2,1,73.0,False
20770,4551, Note_on_c,66,76,2,2,1,77.0,False
20771,4552, Note_on_c,65,76,2,2,1,76.0,True
20772,4552, Note_on_c,68,76,2,2,1,79.0,False
20773,4553, Note_on_c,58,76,2,2,1,67.0,False
20774,4554, Note_on_c,63,76,2,2,1,73.0,False
20775,4554, Note_on_c,66,76,2,2,1,77.0,False
20776,4555, Note_on_c,65,76,2,2,1,76.0,True
20777,4555, Note_on_c,68,76,2,2,1,79.0,False
20778,4556, Note_on_c,63,76,2,2,1,73.0,False
20779,4556, Note_on_c,66,76,2,2,1,77.0,False
20780,4557, Note_on_c,65,76,2,2,1,76.0,True
20781,4557, Note_on_c,70,76,2,2,1,81.0,False
20782,4558, Note_on_c,58,76,2,2,1,67.0,False
20783,4559, Note_on_c,63,76,2,2,1,73.0,False
20784,4559, Note_on_c,66,76,2,2,1,77.0,False
20785,4560, Note_on_c,65,76,2,2,1,76.0,True
20786,4560, Note_on_c,68,76,2,2,1,79.0,False
20787,4561, Note_on_c,58,76,2,2,1,67.0,False
20788,4562, Note_on_c,63,76,2,2,1,73.0,False
20789,4562, Note_on_c,66,76,2,2,1,77.0,False
20790,4563, Note_on_c,65,76,2,2,1,76.0,True
20791,4563, Note_on_c,68,76,2,2,1,79.0,False
20792,4564, Note_on_c,63,76,2,2,1,73.0,False
20793,4564, Note_on_c,66,76,2,2,1,77.0,False
20794,4565, Note_on_c,65,76,2,2,1,76.0,True
20795,4565, Note_on_c,70,76,2,2,1,81.0,False
20796,4566, Note_on_c,58,76,2,2,1,67.0,False
20797,4567, Note_on_c,63,76,2,2,1,73.0,False
20798,4567, Note_on_c,66,76,2,2,1,77.0,False
20799,4568, Note_on_c,65,76,2,2,1,76.0,True
20800,4568, Note_on_c,68,76,2,2,1,79.0,False
20801,4569, Note_on_c,58,76,2,2,1,67.0,False
20802,4570, Note_on_c,63,76,2,2,1,73.0,False
20803,4570, Note_on_c,66,76,2,2,1,77.0,False
20804,4571, Note_on_c,65,76,2,2,1,76.0,True
20805,4571, Note_on_c,68,76,2,2,1,79.0,False
20806,4572, Note_on_c,63,76,2,2,1,73.0,False
20807,4572, Note_on_c,66,76,2,2,1,77.0,False
20808,4573, Note_on_c,65,76,2,2,1,76.0,True
20809,4573, Note_on_c,70,76,2,2,1,81.0,False
20810,4574, Note_on_c,58,76,2,2,1,67.0,False
20811,4575, Note_on_c,63,76,2,2,1,73.0,False
20812,4575, Note_on_c,66,76,2,2,1,77.0,False
20813,4576, Note_on_c,65,76,2,2,1,76.0,True
20814,4576, Note_on_c,68,76,2,2,1,79.0,False
20815,4577, Note_on_c,58,76,2,2,1,67.0,False
20816,4578, Note_on_c,63,76,2,2,1,73.0,False
20817,4578, Note_on_c,66,76,2,2,1,77.0,False
20818,4579, Note_on_c,65,76,2,2,1,76.0,True
20819,4579, Note_on_c,68,76,2,2,1,79.0,False
20820,4580, Note_on_c,63,76,2,2,1,73.0,False
20821,4580, Note_on_c,66,76,2,2,1,77.0,False
20822,4581, Note_on_c,65,76,2,2,1,76.0,True
20823,4581, Note_on_c,70,76,2,2,1,81.0,False
20824,4582, Note_on_c,58,76,2,2,1,67.0,False
20825,4583, Note_on_c,63,76,2,2,1,73.0,False
20826,4583, Note_on_c,66,76,2,2,1,77.0,False
20827,4584, Note_on_c,65,76,2,2,1,76.0,True
20828,4584, Note_on_c,68,76,2,2,1,79.0,False
20829,4585, Note_on_c,58,76,2,2,1,67.0,False
20830,4586, Note_on_c,63,76,2,2,1,73.0,False
20831,4586, Note_on_c,66,76,2,2,1,77.0,False
20832,4587, Note_on_c,65,76,2,2,1,76.0,True
20833,4587, Note_on_c,68,76,2,2,1,79.0,False
20834,4588, Note_on_c,63,76,2,2,1,73.0,False
20835,4588, Note_on_c,66,76,2,2,1,77.0,False
20836,4589, Note_on_c,65,76,2,2,1,76.0,True
20837,4589, Note_on_c,70,76,2,2,1,81.0,False
20838,4590, Note_on_c,58,76,2,2,1,67.0,False
20839,4591, Note_on_c,63,76,2,2,1,73.0,False
20840,4591, Note_on_c,66,76,2,2,1,77.0,False
20841,4592, Note_on_c,65,76,2,2,1,76.0,True
20842,4592, Note_on_c,68,76,2,2,1,79.0,False
20843,4593, Note_on_c,58,76,2,2,1,67.0,False
20844,4594, Note_on_c,63,76,2,2,1,73.0,False
20845,4594, Note_on_c,66,76,2,2,1,77.0,False
20846,4595, Note_on_c,65,76,2,2,1,76.0,True
20847,4595, Note_on_c,68,76,2,2,1,79.0,False
20848,4596, Note_on_c,63,76,2,2,1,73.0,False
20849,4596, Note_on_c,66,76,2,2,1,77.0,False
20850,4597, Note_on_c,65,76,2,2,1,76.0,True
20851,4597, Note_on_c,70,76,2,2,1,81.0,False
20852,4598, Note_on_c,58,76,2,2,1,67.0,False
20853,4599, Note_on_c,63,76,2,2,1,73.0,False
20854,4599, Note_on_c,66,76,2,2,1,77.0,False
20855,4600, Note_on_c,65,76,2,2,1,76.0,True
20856,4600, Note_on_c,68,76,2,2,1,79.0,False
20857,4601, Note_on_c,58,76,2,2,1,67.0,False
20858,4602, Note_on_c,63,76,2,2,1,73.0,False
20859,4602, Note_on_c,66,76,2,2,1,77.0,False
20860,4603, Note_on_c,65,76,2,2,1,76.0,True
20861,4603, Note_on_c,68,76,2,2,1,79.0,False
20862,4604, Note_on_c,63,76,2,2,1,73.0,False
20863,4604, Note_on_c,66,76,2,2,1,77.0,False
20864,4605, Note_on_c,65,76,2,2,1,76.0,True
20865,4605, Note_on_c,70,76,2,2,1,81.0,False
20866,4606, Note_on_c,58,76,2,2,1,67.0,False
20867,4607, Note_on_c,63,76,2,2,1,73.0,False
20868,4607, Note_on_c,66,76,2,2,1,77.0,False
20869,4608, Note_on_c,65,76,2,2,1,76.0,True
20870,4608, Note_on_c,68,76,2,2,1,79.0,False
20871,4609, Note_on_c,58,76,2,2,1,67.0,False
20872,4610, Note_on_c,63,76,2,2,1,73.0,False
20873,4610, Note_on_c,66,76,2,2,1,77.0,False
20874,4611, Note_on_c,65,76,2,2,1,76.0,True
20875,4611, Note_on_c,68,76,2,2,1,79.0,False
20876,4612, Note_on_c,63,76,2,2,1,73.0,False
20877,4612, Note_on_c,66,76,2,2,1,77.0,False
20878,4613, Note_on_c,65,76,2,2,1,76.0,True
20879,4613, Note_on_c,70,76,2,2,1,81.0,False
20880,4614, Note_on_c,58,76,2,2,1,67.0,False
20881,4615, Note_on_c,63,76,2,2,1,73.0,False
20882,4615, Note_on_c,66,76,2,2,1,77.0,False
20883,4616, Note_on_c,65,76,2,2,1,76.0,True
20884,4616, Note_on_c,68,76,2,2,1,79.0,False
20885,4617, Note_on_c,58,76,2,2,1,67.0,False
20886,4618, Note_on_c,63,76,2,2,1,73.0,False
20887,4618, Note_on_c,66,76,2,2,1,77.0,False
20888,4619, Note_on_c,65,76,2,2,1,76.0,True
20889,4619, Note_on_c,68,76,2,2,1,79.0,False
20890,4620, Note_on_c,63,76,2,2,1,73.0,False
20891,4620, Note_on_c,66,76,2,2,1,77.0,False
20892,4621, Note_on_c,65,76,2,2,1,76.0,True
20893,4621, Note_on_c,70,76,2,2,1,81.0,False
20894,4622, Note_on_c,58,76,2,2,1,67.0,False
20895,4623, Note_on_c,63,76,2,2,1,73.0,False
20896,4623, Note_on_c,66,76,2,2,1,77.0,False
20897,4624, Note_on_c,65,76,2,2,1,76.0,True
20898,4624, Note_on_c,68,76,2,2,1,79.0,False
20899,4625, Note_on_c,58,76,2,2,1,67.0,False
20900,4626, Note_on_c,63,76,2,2,1,73.0,False
20901,4626, Note_on_c,66,76,2,2,1,77.0,False
20902,4627, Note_on_c,65,76,2,2,1,76.0,True
20903,4627, Note_on_c,68,76,2,2,1,79.0,False
20904,4628, Note_on_c,63,76,2,2,1,73.0,False
20905,4628, Note_on_c,66,76,2,2,1,77.0,False
20906,4629, Note_on_c,65,76,2,2,1,76.0,True
20907,4629, Note_on_c,70,76,2,2,1,81.0,False
20908,4630, Note_on_c,58,76,2,2,1,67.0,False
20909,4631, Note_on_c,63,76,2,2,1,73.0,False
20910,4631, Note_on_c,66,76,2,2,1,77.0,False
20911,4632, Note_on_c,65,76,2,2,1,76.0,True
20912,4632, Note_on_c,68,76,2,2,1,79.0,False
20913,4633, Note_on_c,58,76,2,2,1,67.0,False
20914,4634, Note_on_c,63,76,2,2,1,73.0,False
20915,4634, Note_on_c,66,76,2,2,1,77.0,False
20916,4635, Note_on_c,65,76,2,2,1,76.0,True
20917,4635, Note_on_c,68,76,2,2,1,79.0,False
20918,4636, Note_on_c,63,76,2,2,1,73.0,False
20919,4636, Note_on_c,66,76,2,2,1,77.0,False
20920,4637, Note_on_c,65,76,2,2,1,76.0,True
20921,4637, Note_on_c,70,76,2,2,1,81.0,False
20922,4638, Note_on_c,58,76,2,2,1,67.0,False
20923,4639, Note_on_c,63,76,2,2,1,73.0,False
20924,4639, Note_on_c,66,76,2,2,1,77.0,False
20925,4640, Note_on_c,65,76,2,2,1,76.0,True
20926,4640, Note_on_c,68,76,2,2,1,79.0,False
20927,4641, Note_on_c,58,76,2,2,1,67.0,False
20928,4642, Note_on_c,63,76,2,2,1,73.0,False
20929,4642, Note_on_c,66,76,2,2,1,77.0,False
20930,4643, Note_on_c,65,76,2,2,1,76.0,True
20931,4643, Note_on_c,68,76,2,2,1,79.0,False
20932,4644, Note_on_c,63,76,2,2,1,73.0,False
20933,4644, Note_on_c,66,76,2,2,1,77.0,False
20934,4645, Note_on_c,65,76,2,2,1,76.0,True
20935,4645, Note_on_c,70,76,2,2,1,81.0,False
20936,4646, Note_on_c,58,76,2,2,1,67.0,False
20937,4647, Note_on_c,63,76,2,2,1,73.0,False
20938,4647, Note_on_c,66,76,2,2,1,77.0,False
20939,4648, Note_on_c,65,76,2,2,1,76.0,True
20940,4648, Note_on_c,68,76,2,2,1,79.0,False
20941,4649, Note_on_c,58,76,2,2,1,67.0,False
20942,4650, Note_on_c,63,76,2,2,1,73.0,False
20943,4650, Note_on_c,66,76,2,2,1,77.0,False
20944,4651, Note_on_c,65,76,2,2,1,76.0,True
20945,4651, Note_on_c,68,76,2,2,1,79.0,False
20946,4652, Note_on_c,63,76,2,2,1,73.0,False
20947,4652, Note_on_c,66,76,2,2,1,77.0,False
20948,4653, Note_on_c,65,76,2,2,1,76.0,True
20949,4653, Note_on_c,70,76,2,2,1,81.0,False
20950,4654, Note_on_c,58,76,2,2,1,67.0,False
20951,4655, Note_on_c,63,76,2,2,1,73.0,False
20952,4655, Note_on_c,66,76,2,2,1,77.0,False
20953,4656, Note_on_c,65,76,2,2,1,76.0,True
20954,4656, Note_on_c,68,76,2,2,1,79.0,False
20955,4657, Note_on_c,58,76,2,2,1,67.0,False
20956,4658, Note_on_c,63,76,2,2,1,73.0,False
20957,4658, Note_on_c,66,76,2,2,1,77.0,False
20958,4659, Note_on_c,65,76,2,2,1,76.0,True
20959,4659, Note_on_c,68,76,2,2,1,79.0,False
20960,4660, Note_on_c,63,76,2,2,1,73.0,False
20961,4660, Note_on_c,66,76,2,2,1,77.0,False
20962,4661, Note_on_c,65,76,2,2,1,76.0,True
20963,4661, Note_on_c,70,76,2,2,1,81.0,False
20964,4662, Note_on_c,58,76,2,2,1,67.0,False
20965,4663, Note_on_c,63,76,2,2,1,73.0,False
20966,4663, Note_on_c,66,76,2,2,1,77.0,False
20967,4664, Note_on_c,65,76,2,2,1,76.0,True
20968,4664, Note_on_c,68,76,2,2,1,79.0,False
20969,4665, Note_on_c,58,76,2,2,1,67.0,False
20970,4666, Note_on_c,63,76,2,2,1,73.0,False
20971,4666, Note_on_c,66,76,2,2,1,77.0,False
20972,4667, Note_on_c,65,76,2,2,1,76.0,True
20973,4667, Note_on_c,68,76,2,2,1,79.0,False
20974,4668, Note_on_c,63,76,2,2,1,73.0,False
20975,4668, Note_on_c,66,76,2,2,1,77.0,False
20976,4669, Note_on_c,65,76,2,2,1,76.0,True
20977,4669, Note_on_c,70,76,2,2,1,81.0,False
20978,4670, Note_on_c,58,76,2,2,1,67.0,False
20979,4671, Note_on_c,63,76,2,2,1,73.0,False
20980,4671, Note_on_c,66,76,2,2,1,77.0,False
20981,4672, Note_on_c,65,76,2,2,1,76.0,True
20982,4672, Note_on_c,68,76,2,2,1,79.0,False
20983,4673, Note_on_c,58,76,2,2,1,67.0,False
20984,4674, Note_on_c,63,76,2,2,1,73.0,False
20985,4674, Note_on_c,66,76,2,2,1,77.0,False
20986,4675, Note_on_c,65,76,2,2,1,76.0,True
20987,4675, Note_on_c,68,76,2,2,1,79.0,False
20988,4676, Note_on_c,63,76,2,2,1,73.0,False
20989,4676, Note_on_c,66,76,2,2,1,77.0,False
20990,4677, Note_on_c,65,76,2,2,1,76.0,True
20991,4677, Note_on_c,70,76,2,2,1,81.0,False
20992,4678, Note_on_c,58,76,2,2,1,67.0,False
20993,4679, Note_on_c,63,76,2,2,1,73.0,False
20994,4679, Note_on_c,66,76,2,2,1,77.0,False
20995,4680, Note_on_c,65,76,2,2,1,76.0,True
20996,4680, Note_on_c,68,76,2,2,1,79.0,False
20997,4681, Note_on_c,58,76,2,2,1,67.0,False
20998,4682, Note_on_c,63,76,2,2,1,73.0,False
20999,4682, Note_on_c,66,76,2,2,1,77.0,False
21000,4683, Note_on_c,65,76,2,2,1,76.0,True
21001,4683, Note_on_c,68,76,2,2,1,79.0,False
21002,4684, Note_on_c,63,76,2,2,1,73.0,False
21003,4684, Note_on_c,66,76,2,2,1,77.0,False
21004,4685, Note_on_c,65,76,2,2,1,76.0,True
21005,4685, Note_on_c,70,76,2,2,1,81.0,False
21006,4686, Note_on_c,58,76,2,2,1,67.0,False
21007,4687, Note_on_c,63,76,2,2,1,73.0,False
21008,4687, Note_on_c,66,76,2,2,1,77.0,False
21009,4688, Note_on_c,65,76,2,2,1,76.0,True
21010,4688, Note_on_c,68,76,2,2,1,79.0,False
21011,4689, Note_on_c,58,76,2,2,1,67.0,False
21012,4690, Note_on_c,63,76,2,2,1,73.0,False
21013,4690, Note_on_c,66,76,2,2,1,77.0,False
21014,4691, Note_on_c,65,76,2,2,1,76.0,True
21015,4691, Note_on_c,68,76,2,2,1,79.0,False
21016,4692, Note_on_c,63,76,2,2,1,73.0,False
21017,4692, Note_on_c,66,76,2,2,1,77.0,False
21018,4693, Note_on_c,65,76,2,2,1,76.0,True
21019,4693, Note_on_c,70,76,2,2,1,81.0,False
21020,4694, Note_on_c,58,76,2,2,1,67.0,False
21021,4695, Note_on_c,63,76,2,2,1,73.0,False
21022,4695, Note_on_c,66,76,2,2,1,77.0,False
21023,4696, Note_on_c,65,76,2,2,1,76.0,True
21024,4696, Note_on_c,68,76,2,2,1,79.0,False
21025,4697, Note_on_c,58,76,2,2,1,67.0,False
21026,4698, Note_on_c,63,76,2,2,1,73.0,False
21027,4698, Note_on_c,66,76,2,2,1,77.0,False
21028,4699, Note_on_c,65,76,2,2,1,76.0,True
21029,4699, Note_on_c,68,76,2,2,1,79.0,False
21030,4700, Note_on_c,63,76,2,2,1,73.0,False
21031,4700, Note_on_c,66,76,2,2,1,77.0,False
21032,4701, Note_on_c,65,76,2,2,1,76.0,True
21033,4701, Note_on_c,70,76,2,2,1,81.0,False
21034,4702, Note_on_c,58,76,2,2,1,67.0,False
21035,4703, Note_on_c,63,76,2,2,1,73.0,False
21036,4703, Note_on_c,66,76,2,2,1,77.0,False
21037,4704, Note_on_c,65,76,2,2,1,76.0,True
21038,4704, Note_on_c,68,76,2,2,1,79.0,False
21039,4705, Note_on_c,58,76,2,2,1,67.0,False
21040,4706, Note_on_c,63,76,2,2,1,73.0,False
21041,4706, Note_on_c,66,76,2,2,1,77.0,False
21042,4707, Note_on_c,65,76,2,2,1,76.0,True
21043,4707, Note_on_c,68,76,2,2,1,79.0,False
21044,4708, Note_on_c,63,76,2,2,1,73.0,False
21045,4708, Note_on_c,66,76,2,2,1,77.0,False
21046,4709, Note_on_c,65,76,2,2,1,76.0,True
21047,4709, Note_on_c,70,76,2,2,1,81.0,False
21048,4710, Note_on_c,58,76,2,2,1,67.0,False
21049,4711, Note_on_c,63,76,2,2,1,73.0,False
21050,4711, Note_on_c,66,76,2,2,1,77.0,False
21051,4712, Note_on_c,65,76,2,2,1,76.0,True
21052,4712, Note_on_c,68,76,2,2,1,79.0,False
21053,4713, Note_on_c,58,76,2,2,1,67.0,False
21054,4714, Note_on_c,63,76,2,2,1,73.0,False
21055,4714, Note_on_c,66,76,2,2,1,77.0,False
21056,4715, Note_on_c,65,76,2,2,1,76.0,True
21057,4715, Note_on_c,68,76,2,2,1,79.0,False
21058,4716, Note_on_c,63,76,2,2,1,73.0,False
21059,4716, Note_on_c,66,76,2,2,1,77.0,False
21060,4717, Note_on_c,65,76,2,2,1,76.0,True
21061,4717, Note_on_c,70,76,2,2,1,81.0,False
21062,4718, Note_on_c,58,76,2,2,1,67.0,False
21063,4719, Note_on_c,63,76,2,2,1,73.0,False
21064,4719, Note_on_c,66,76,2,2,1,77.0,False
21065,4720, Note_on_c,65,76,2,2,1,76.0,True
21066,4720, Note_on_c,68,76,2,2,1,79.0,False
21067,4721, Note_on_c,58,76,2,2,1,67.0,False
21068,4722, Note_on_c,63,76,2,2,1,73.0,False
21069,4722, Note_on_c,66,76,2,2,1,77.0,False
21070,4723, Note_on_c,65,76,2,2,1,76.0,True
21071,4723, Note_on_c,68,76,2,2,1,79.0,False
21072,4724, Note_on_c,63,76,2,2,1,73.0,False
21073,4724, Note_on_c,66,76,2,2,1,77.0,False
21074,4725, Note_on_c,65,76,2,2,1,76.0,True
21075,4725, Note_on_c,70,76,2,2,1,81.0,False
21076,4726, Note_on_c,58,76,2,2,1,67.0,False
21077,4727, Note_on_c,63,76,2,2,1,73.0,False
21078,4727, Note_on_c,66,76,2,2,1,77.0,False
21079,4728, Note_on_c,65,76,2,2,1,76.0,True
21080,4728, Note_on_c,68,76,2,2,1,79.0,False
21081,4729, Note_on_c,58,76,2,2,1,67.0,False
21082,4730, Note_on_c,63,76,2,2,1,73.0,False
21083,4730, Note_on_c,66,76,2,2,1,77.0,False
21084,4731, Note_on_c,65,76,2,2,1,76.0,True
21085,4731, Note_on_c,68,76,2,2,1,79.0,False
21086,4732, Note_on_c,63,76,2,2,1,73.0,False
21087,4732, Note_on_c,66,76,2,2,1,77.0,False
21088,4733, Note_on_c,65,76,2,2,1,76.0,True
21089,4733, Note_on_c,70,76,2,2,1,81.0,False
21090,4734, Note_on_c,58,76,2,2,1,67.0,False
21091,4735, Note_on_c,63,76,2,2,1,73.0,False
21092,4735, Note_on_c,66,76,2,2,1,77.0,False
21093,4736, Note_on_c,65,76,2,2,1,76.0,True
21094,4736, Note_on_c,68,76,2,2,1,79.0,False
21095,4737, Note_on_c,58,76,2,2,1,67.0,False
21096,4738, Note_on_c,63,76,2,2,1,73.0,False
21097,4738, Note_on_c,66,76,2,2,1,77.0,False
21098,4739, Note_on_c,65,76,2,2,1,76.0,True
21099,4739, Note_on_c,68,76,2,2,1,79.0,False
21100,4740, Note_on_c,63,76,2,2,1,73.0,False
21101,4740, Note_on_c,66,76,2,2,1,77.0,False
21102,4741, Note_on_c,65,76,2,2,1,76.0,True
21103,4741, Note_on_c,70,76,2,2,1,81.0,False
21104,4742, Note_on_c,58,76,2,2,1,67.0,False
21105,4743, Note_on_c,63,76,2,2,1,73.0,False
21106,4743, Note_on_c,66,76,2,2,1,77.0,False
21107,4744, Note_on_c,65,76,2,2,1,76.0,True
21108,4744, Note_on_c,68,76,2,2,1,79.0,False
21109,4745, Note_on_c,58,76,2,2,1,67.0,False
21110,4746, Note_on_c,63,76,2,2,1,73.0,False
21111,4746, Note_on_c,66,76,2,2,1,77.0,False
21112,4747, Note_on_c,65,76,2,2,1,76.0,True
21113,4747, Note_on_c,68,76,2,2,1,79.0,False
21114,4748, Note_on_c,63,76,2,2,1,73.0,False
21115,4748, Note_on_c,66,76,2,2,1,77.0,False
21116,4749, Note_on_c,65,76,2,2,1,76.0,True
21117,4749, Note_on_c,70,76,2,2,1,81.0,False
21118,4750, Note_on_c,58,76,2,2,1,67.0,False
21119,4751, Note_on_c,63,76,2,2,1,73.0,False
21120,4751, Note_on_c,66,76,2,2,1,77.0,False
21121,4752, Note_on_c,65,76,2,2,1,76.0,True
21122,4752, Note_on_c,68,76,2,2,1,79.0,False
21123,4753, Note_on_c,58,76,2,2,1,67.0,False
21124,4754, Note_on_c,63,76,2,2,1,73.0,False
21125,4754, Note_on_c,66,76,2,2,1,77.0,False
21126,4755, Note_on_c,65,76,2,2,1,76.0,True
21127,4755, Note_on_c,68,76,2,2,1,79.0,False
21128,4756, Note_on_c,63,76,2,2,1,73.0,False
21129,4756, Note_on_c,66,76,2,2,1,77.0,False
21130,4757, Note_on_c,65,76,2,2,1,76.0,True
21131,4757, Note_on_c,70,76,2,2,1,81.0,False
21132,4758, Note_on_c,58,76,2,2,1,67.0,False
21133,4759, Note_on_c,63,76,2,2,1,73.0,False
21134,4759, Note_on_c,66,76,2,2,1,77.0,False
21135,4760, Note_on_c,65,76,2,2,1,76.0,True
21136,4760, Note_on_c,68,76,2,2,1,79.0,False
21137,4761, Note_on_c,58,76,2,2,1,67.0,False
21138,4762, Note_on_c,63,76,2,2,1,73.0,False
21139,4762, Note_on_c,66,76,2,2,1,77.0,False
21140,4763, Note_on_c,65,76,2,2,1,76.0,True
21141,4763, Note_on_c,68,76,2,2,1,79.0,False
21142,4764, Note_on_c,63,76,2,2,1,73.0,False
21143,4764, Note_on_c,66,76,2,2,1,77.0,False
21144,4765, Note_on_c,65,76,2,2,1,76.0,True
21145,4765, Note_on_c,70,76,2,2,1,81.0,False
21146,4766, Note_on_c,58,76,2,2,1,67.0,False
21147,4767, Note_on_c,63,76,2,2,1,73.0,False
21148,4767, Note_on_c,66,76,2,2,1,77.0,False
21149,4768, Note_on_c,65,76,2,2,1,76.0,True
21150,4768, Note_on_c,68,76,2,2,1,79.0,False
21151,4769, Note_on_c,58,76,2,2,1,67.0,False
21152,4770, Note_on_c,63,76,2,2,1,73.0,False
21153,4770, Note_on_c,66,76,2,2,1,77.0,False
21154,4771, Note_on_c,65,76,2,2,1,76.0,True
21155,4771, Note_on_c,68,76,2,2,1,79.0,False
21156,4772, Note_on_c,63,76,2,2,1,73.0,False
21157,4772, Note_on_c,66,76,2,2,1,77.0,False
21158,4773, Note_on_c,65,76,2,2,1,76.0,True
21159,4773, Note_on_c,70,76,2,2,1,81.0,False
21160,4774, Note_on_c,58,76,2,2,1,67.0,False
21161,4775, Note_on_c,63,76,2,2,1,73.0,False
21162,4775, Note_on_c,66,76,2,2,1,77.0,False
21163,4776, Note_on_c,65,76,2,2,1,76.0,True
21164,4776, Note_on_c,68,76,2,2,1,79.0,False
21165,4777, Note_on_c,58,76,2,2,1,67.0,False
21166,4778, Note_on_c,63,76,2,2,1,73.0,False
21167,4778, Note_on_c,66,76,2,2,1,77.0,False
21168,4779, Note_on_c,65,76,2,2,1,76.0,True
21169,4779, Note_on_c,68,76,2,2,1,79.0,False
21170,4780, Note_on_c,63,76,2,2,1,73.0,False
21171,4780, Note_on_c,66,76,2,2,1,77.0,False
21172,4781, Note_on_c,65,76,2,2,1,76.0,True
21173,4781, Note_on_c,70,76,2,2,1,81.0,False
21174,4782, Note_on_c,58,76,2,2,1,67.0,False
21175,4783, Note_on_c,63,76,2,2,1,73.0,False
21176,4783, Note_on_c,66,76,2,2,1,77.0,False
21177,4784, Note_on_c,65,76,2,2,1,76.0,True
21178,4784, Note_on_c,68,76,2,2,1,79.0,False
21179,4785, Note_on_c,58,76,2,2,1,67.0,False
21180,4786, Note_on_c,63,76,2,2,1,73.0,False
21181,4786, Note_on_c,66,76,2,2,1,77.0,False
21182,4787, Note_on_c,65,76,2,2,1,76.0,True
21183,4787, Note_on_c,68,76,2,2,1,79.0,False
21184,4788, Note_on_c,63,76,2,2,1,73.0,False
21185,4788, Note_on_c,66,76,2,2,1,77.0,False
21186,4789, Note_on_c,65,76,2,2,1,76.0,True
21187,4789, Note_on_c,70,76,2,2,1,81.0,False
21188,4790, Note_on_c,58,76,2,2,1,67.0,False
21189,4791, Note_on_c,63,76,2,2,1,73.0,False
21190,4791, Note_on_c,66,76,2,2,1,77.0,False
21191,4792, Note_on_c,65,76,2,2,1,76.0,True
21192,4792, Note_on_c,68,76,2,2,1,79.0,False
21193,4793, Note_on_c,58,76,2,2,1,67.0,False
21194,4794, Note_on_c,63,76,2,2,1,73.0,False
21195,4794, Note_on_c,66,76,2,2,1,77.0,False
21196,4795, Note_on_c,65,76,2,2,1,76.0,True
21197,4795, Note_on_c,68,76,2,2,1,79.0,False
21198,4796, Note_on_c,63,76,2,2,1,73.0,False
21199,4796, Note_on_c,66,76,2,2,1,77.0,False
21200,4797, Note_on_c,65,76,2,2,1,76.0,True
21201,4797, Note_on_c,70,76,2,2,1,81.0,False
21202,4798, Note_on_c,58,76,2,2,1,67.0,False
21203,4799, Note_on_c,63,76,2,2,1,73.0,False
21204,4799, Note_on_c,66,76,2,2,1,77.0,False
21205,4800, Note_on_c,65,76,2,2,1,76.0,True
21206,4800, Note_on_c,68,76,2,2,1,79.0,False
21207,4801, Note_on_c,58,76,2,2,1,67.0,False
21208,4802, Note_on_c,63,76,2,2,1,73.0,False
21209,4802, Note_on_c,66,76,2,2,1,77.0,False
21210,4803, Note_on_c,65,76,2,2,1,76.0,True
21211,4803, Note_on_c,68,76,2,2,1,79.0,False
21212,4804, Note_on_c,63,76,2,2,1,73.0,False
21213,4804, Note_on_c,66,76,2,2,1,77.0,False
21214,4805, Note_on_c,65,76,2,2,1,76.0,True
21215,4805, Note_on_c,70,76,2,2,1,81.0,False
21216,4806, Note_on_c,58,76,2,2,1,67.0,False
21217,4807, Note_on_c,63,76,2,2,1,73.0,False
21218,4807, Note_on_c,66,76,2,2,1,77.0,False
21219,4808, Note_on_c,65,76,2,2,1,76.0,True
21220,4808, Note_on_c,68,76,2,2,1,79.0,False
21221,4809, Note_on_c,58,76,2,2,1,67.0,False
21222,4810, Note_on_c,63,76,2,2,1,73.0,False
21223,4810, Note_on_c,66,76,2,2,1,77.0,False
21224,4811, Note_on_c,65,76,2,2,1,76.0,True
21225,4811, Note_on_c,68,76,2,2,1,79.0,False
21226,4812, Note_on_c,63,76,2,2,1,73.0,False
21227,4812, Note_on_c,66,76,2,2,1,77.0,False
21228,4813, Note_on_c,65,76,2,2,1,76.0,True
21229,4813, Note_on_c,70,76,2,2,1,81.0,False
21230,4814, Note_on_c,58,76,2,2,1,67.0,False
21231,4815, Note_on_c,63,76,2,2,1,73.0,False
21232,4815, Note_on_c,66,76,2,2,1,77.0,False
21233,4816, Note_on_c,65,76,2,2,1,76.0,True
21234,4816, Note_on_c,68,76,2,2,1,79.0,False
21235,4817, Note_on_c,58,76,2,2,1,67.0,False
21236,4818, Note_on_c,63,76,2,2,1,73.0,False
21237,4818, Note_on_c,66,76,2,2,1,77.0,False
21238,4819, Note_on_c,65,76,2,2,1,76.0,True
21239,4819, Note_on_c,68,76,2,2,1,79.0,False
21240,4820, Note_on_c,63,76,2,2,1,73.0,False
21241,4820, Note_on_c,66,76,2,2,1,77.0,False
21242,4821, Note_on_c,65,76,2,2,1,76.0,True
21243,4821, Note_on_c,70,76,2,2,1,81.0,False
21244,4822, Note_on_c,58,76,2,2,1,67.0,False
21245,4823, Note_on_c,63,76,2,2,1,73.0,False
21246,4823, Note_on_c,66,76,2,2,1,77.0,False
21247,4824, Note_on_c,65,76,2,2,1,76.0,True
21248,4824, Note_on_c,68,76,2,2,1,79.0,False
21249,4825, Note_on_c,58,76,2,2,1,67.0,False
21250,4826, Note_on_c,63,76,2,2,1,73.0,False
21251,4826, Note_on_c,66,76,2,2,1,77.0,False
21252,4827, Note_on_c,65,76,2,2,1,76.0,True
21253,4827, Note_on_c,68,76,2,2,1,79.0,False
21254,4828, Note_on_c,63,76,2,2,1,73.0,False
21255,4828, Note_on_c,66,76,2,2,1,77.0,False
21256,4829, Note_on_c,65,76,2,2,1,76.0,True
21257,4829, Note_on_c,70,76,2,2,1,81.0,False
21258,4830, Note_on_c,58,76,2,2,1,67.0,False
21259,4831, Note_on_c,63,76,2,2,1,73.0,False
21260,4831, Note_on_c,66,76,2,2,1,77.0,False
21261,4832, Note_on_c,65,76,2,2,1,76.0,True
21262,4832, Note_on_c,68,76,2,2,1,79.0,False
21263,4833, Note_on_c,58,76,2,2,1,67.0,False
21264,4834, Note_on_c,63,76,2,2,1,73.0,False
21265,4834, Note_on_c,66,76,2,2,1,77.0,False
21266,4835, Note_on_c,65,76,2,2,1,76.0,True
21267,4835, Note_on_c,68,76,2,2,1,79.0,False
21268,4836, Note_on_c,63,76,2,2,1,73.0,False
21269,4836, Note_on_c,66,76,2,2,1,77.0,False
21270,4837, Note_on_c,65,76,2,2,1,76.0,True
21271,4837, Note_on_c,70,76,2,2,1,81.0,False
21272,4838, Note_on_c,58,76,2,2,1,67.0,False
21273,4839, Note_on_c,63,76,2,2,1,73.0,False
21274,4839, Note_on_c,66,76,2,2,1,77.0,False
21275,4840, Note_on_c,65,76,2,2,1,76.0,True
21276,4840, Note_on_c,68,76,2,2,1,79.0,False
21277,4841, Note_on_c,58,76,2,2,1,67.0,False
21278,4842, Note_on_c,63,76,2,2,1,73.0,False
21279,4842, Note_on_c,66,76,2,2,1,77.0,False
21280,4843, Note_on_c,65,76,2,2,1,76.0,True
21281,4843, Note_on_c,68,76,2,2,1,79.0,False
21282,4844, Note_on_c,63,76,2,2,1,73.0,False
21283,4844, Note_on_c,66,76,2,2,1,77.0,False
21284,4845, Note_on_c,65,76,2,2,1,76.0,True
21285,4845, Note_on_c,70,76,2,2,1,81.0,False
21286,4846, Note_on_c,58,76,2,2,1,67.0,False
21287,4847, Note_on_c,63,76,2,2,1,73.0,False
21288,4847, Note_on_c,66,76,2,2,1,77.0,False
21289,4848, Note_on_c,65,76,2,2,1,76.0,True
21290,4848, Note_on_c,68,76,2,2,1,79.0,False
21291,4849, Note_on_c,58,76,2,2,1,67.0,False
21292,4850, Note_on_c,63,76,2,2,1,73.0,False
21293,4850, Note_on_c,66,76,2,2,1,77.0,False
21294,4851, Note_on_c,65,76,2,2,1,76.0,True
21295,4851, Note_on_c,68,76,2,2,1,79.0,False
21296,4852, Note_on_c,63,76,2,2,1,73.0,False
21297,4852, Note_on_c,66,76,2,2,1,77.0,False
21298,4853, Note_on_c,65,76,2,2,1,76.0,True
21299,4853, Note_on_c,70,76,2,2,1,81.0,False
21300,4854, Note_on_c,58,76,2,2,1,67.0,False
21301,4855, Note_on_c,63,76,2,2,1,73.0,False
21302,4855, Note_on_c,66,76,2,2,1,77.0,False
21303,4856, Note_on_c,65,76,2,2,1,76.0,True
21304,4856, Note_on_c,68,76,2,2,1,79.0,False
21305,4857, Note_on_c,58,76,2,2,1,67.0,False
21306,4858, Note_on_c,63,76,2,2,1,73.0,False
21307,4858, Note_on_c,66,76,2,2,1,77.0,False
21308,4859, Note_on_c,65,76,2,2,1,76.0,True
21309,4859, Note_on_c,68,76,2,2,1,79.0,False
21310,4860, Note_on_c,63,76,2,2,1,73.0,False
21311,4860, Note_on_c,66,76,2,2,1,77.0,False
21312,4861, Note_on_c,65,76,2,2,1,76.0,True
21313,4861, Note_on_c,70,76,2,2,1,81.0,False
21314,4862, Note_on_c,58,76,2,2,1,67.0,False
21315,4863, Note_on_c,63,76,2,2,1,73.0,False
21316,4863, Note_on_c,66,76,2,2,1,77.0,False
21317,4864, Note_on_c,65,76,2,2,1,76.0,True
21318,4864, Note_on_c,68,76,2,2,1,79.0,False
21319,4865, Note_on_c,58,76,2,2,1,67.0,False
21320,4866, Note_on_c,63,76,2,2,1,73.0,False
21321,4866, Note_on_c,66,76,2,2,1,77.0,False
21322,4867, Note_on_c,65,76,2,2,1,76.0,True
21323,4867, Note_on_c,68,76,2,2,1,79.0,False
21324,4868, Note_on_c,63,76,2,2,1,73.0,False
21325,4868, Note_on_c,66,76,2,2,1,77.0,False
21326,4869, Note_on_c,65,76,2,2,1,76.0,True
21327,4869, Note_on_c,70,76,2,2,1,81.0,False
21328,4870, Note_on_c,58,76,2,2,1,67.0,False
21329,4871, Note_on_c,63,76,2,2,1,73.0,False
21330,4871, Note_on_c,66,76,2,2,1,77.0,False
21331,4872, Note_on_c,65,76,2,2,1,76.0,True
21332,4872, Note_on_c,68,76,2,2,1,79.0,False
21333,4873, Note_on_c,58,76,2,2,1,67.0,False
21334,4874, Note_on_c,63,76,2,2,1,73.0,False
21335,4874, Note_on_c,66,76,2,2,1,77.0,False
21336,4875, Note_on_c,65,76,2,2,1,76.0,True
21337,4875, Note_on_c,68,76,2,2,1,79.0,False
21338,4876, Note_on_c,63,76,2,2,1,73.0,False
21339,4876, Note_on_c,66,76,2,2,1,77.0,False
21340,4877, Note_on_c,65,76,2,2,1,76.0,True
21341,4877, Note_on_c,70,76,2,2,1,81.0,False
21342,4878, Note_on_c,58,76,2,2,1,67.0,False
21343,4879, Note_on_c,63,76,2,2,1,73.0,False
21344,4879, Note_on_c,66,76,2,2,1,77.0,False
21345,4880, Note_on_c,65,76,2,2,1,76.0,True
21346,4880, Note_on_c,68,76,2,2,1,79.0,False
21347,4881, Note_on_c,58,76,2,2,1,67.0,False
21348,4882, Note_on_c,63,76,2,2,1,73.0,False
21349,4882, Note_on_c,66,76,2,2,1,77.0,False
21350,4883, Note_on_c,65,76,2,2,1,76.0,True
21351,4883, Note_on_c,68,76,2,2,1,79.0,False
21352,4884, Note_on_c,63,76,2,2,1,73.0,False
21353,4884, Note_on_c,66,76,2,2,1,77.0,False
21354,4885, Note_on_c,65,76,2,2,1,76.0,True
21355,4885, Note_on_c,70,76,2,2,1,81.0,False
21356,4886, Note_on_c,58,76,2,2,1,67.0,False
21357,4887, Note_on_c,63,76,2,2,1,73.0,False
21358,4887, Note_on_c,66,76,2,2,1,77.0,False
21359,4888, Note_on_c,65,76,2,2,1,76.0,True
21360,4888, Note_on_c,68,76,2,2,1,79.0,False
21361,4889, Note_on_c,58,76,2,2,1,67.0,False
21362,4890, Note_on_c,63,76,2,2,1,73.0,False
21363,4890, Note_on_c,66,76,2,2,1,77.0,False
21364,4891, Note_on_c,65,76,2,2,1,76.0,True
21365,4891, Note_on_c,68,76,2,2,1,79.0,False
21366,4892, Note_on_c,63,76,2,2,1,73.0,False
21367,4892, Note_on_c,66,76,2,2,1,77.0,False
21368,4893, Note_on_c,65,76,2,2,1,76.0,True
21369,4893, Note_on_c,70,76,2,2,1,81.0,False
21370,4894, Note_on_c,58,76,2,2,1,67.0,False
21371,4895, Note_on_c,63,76,2,2,1,73.0,False
21372,4895, Note_on_c,66,76,2,2,1,77.0,False
21373,4896, Note_on_c,65,76,2,2,1,76.0,True
21374,4896, Note_on_c,68,76,2,2,1,79.0,False
21375,4897, Note_on_c,58,76,2,2,1,67.0,False
21376,4898, Note_on_c,63,76,2,2,1,73.0,False
21377,4898, Note_on_c,66,76,2,2,1,77.0,False
21378,4899, Note_on_c,65,76,2,2,1,76.0,True
21379,4899, Note_on_c,68,76,2,2,1,79.0,False
21380,4900, Note_on_c,63,76,2,2,1,73.0,False
21381,4900, Note_on_c,66,76,2,2,1,77.0,False
21382,4901, Note_on_c,65,76,2,2,1,76.0,True
21383,4901, Note_on_c,70,76,2,2,1,81.0,False
21384,4902, Note_on_c,58,76,2,2,1,67.0,False
21385,4903, Note_on_c,63,76,2,2,1,73.0,False
21386,4903, Note_on_c,66,76,2,2,1,77.0,False
21387,4904, Note_on_c,65,76,2,2,1,76.0,True
21388,4904, Note_on_c,68,76,2,2,1,79.0,False
21389,4905, Note_on_c,58,76,2,2,1,67.0,False
21390,4906, Note_on_c,63,76,2,2,1,73.0,False
21391,4906, Note_on_c,66,76,2,2,1,77.0,False
21392,4907, Note_on_c,65,76,2,2,1,76.0,True
21393,4907, Note_on_c,68,76,2,2,1,79.0,False
21394,4908, Note_on_c,63,76,2,2,1,73.0,False
21395,4908, Note_on_c,66,76,2,2,1,77.0,False
21396,4909, Note_on_c,65,76,2,2,1,76.0,True
21397,4909, Note_on_c,70,76,2,2,1,81.0,False
21398,4910, Note_on_c,58,76,2,2,1,67.0,False
21399,4911, Note_on_c,63,76,2,2,1,73.0,False
21400,4911, Note_on_c,66,76,2,2,1,77.0,False
21401,4912, Note_on_c,65,76,2,2,1,76.0,True
21402,4912, Note_on_c,68,76,2,2,1,79.0,False
21403,4913, Note_on_c,58,76,2,2,1,67.0,False
21404,4914, Note_on_c,63,76,2,2,1,73.0,False
21405,4914, Note_on_c,66,76,2,2,1,77.0,False
21406,4915, Note_on_c,65,76,2,2,1,76.0,True
21407,4915, Note_on_c,68,76,2,2,1,79.0,False
21408,4916, Note_on_c,63,76,2,2,1,73.0,False
21409,4916, Note_on_c,66,76,2,2,1,77.0,False
21410,4917, Note_on_c,65,76,2,2,1,76.0,True
21411,4917, Note_on_c,70,76,2,2,1,81.0,False
21412,4918, Note_on_c,58,76,2,2,1,67.0,False
21413,4919, Note_on_c,63,76,2,2,1,73.0,False
21414,4919, Note_on_c,66,76,2,2,1,77.0,False
21415,4920, Note_on_c,65,76,2,2,1,76.0,True
21416,4920, Note_on_c,68,76,2,2,1,79.0,False
21417,4921, Note_on_c,58,76,2,2,1,67.0,False
21418,4922, Note_on_c,63,76,2,2,1,73.0,False
21419,4922, Note_on_c,66,76,2,2,1,77.0,False
21420,4923, Note_on_c,65,76,2,2,1,76.0,True
21421,4923, Note_on_c,68,76,2,2,1,79.0,False
21422,4924, Note_on_c,63,76,2,2,1,73.0,False
21423,4924, Note_on_c,66,76,2,2,1,77.0,False
21424,4925, Note_on_c,65,76,2,2,1,76.0,True
21425,4925, Note_on_c,70,76,2,2,1,81.0,False
21426,4926, Note_on_c,58,76,2,2,1,67.0,False
21427,4927, Note_on_c,63,76,2,2,1,73.0,False
21428,4927, Note_on_c,66,76,2,2,1,77.0,False
21429,4928, Note_on_c,65,76,2,2,1,76.0,True
21430,4928, Note_on_c,68,76,2,2,1,79.0,False
21431,4929, Note_on_c,58,76,2,2,1,67.0,False
21432,4930, Note_on_c,63,76,2,2,1,73.0,False
21433,4930, Note_on_c,66,76,2,2,1,77.0,False
21434,4931, Note_on_c,65,76,2,2,1,76.0,True
21435,4931, Note_on_c,68,76,2,2,1,79.0,False
21436,4932, Note_on_c,63,76,2,2,1,73.0,False
21437,4932, Note_on_c,66,76,2,2,1,77.0,False
21438,4933, Note_on_c,65,76,2,2,1,76.0,True
21439,4933, Note_on_c,70,76,2,2,1,81.0,False
21440,4934, Note_on_c,58,76,2,2,1,67.0,False
21441,4935, Note_on_c,63,76,2,2,1,73.0,False
21442,4935, Note_on_c,66,76,2,2,1,77.0,False
21443,4936, Note_on_c,65,76,2,2,1,76.0,True
21444,4936, Note_on_c,68,76,2,2,1,79.0,False
21445,4937, Note_on_c,58,76,2,2,1,67.0,False
21446,4938, Note_on_c,63,76,2,2,1,73.0,False
21447,4938, Note_on_c,66,76,2,2,1,77.0,False
21448,4939, Note_on_c,65,76,2,2,1,76.0,True
21449,4939, Note_on_c,68,76,2,2,1,79.0,False
21450,4940, Note_on_c,63,76,2,2,1,73.0,False
21451,4940, Note_on_c,66,76,2,2,1,77.0,False
21452,4941, Note_on_c,65,76,2,2,1,76.0,True
21453,4941, Note_on_c,70,76,2,2,1,81.0,False
21454,4942, Note_on_c,58,76,2,2,1,67.0,False
21455,4943, Note_on_c,63,76,2,2,1,73.0,False
21456,4943, Note_on_c,66,76,2,2,1,77.0,False
21457,4944, Note_on_c,65,76,2,2,1,76.0,True
21458,4944, Note_on_c,68,76,2,2,1,79.0,False
21459,4945, Note_on_c,58,76,2,2,1,67.0,False
21460,4946, Note_on_c,63,76,2,2,1,73.0,False
21461,4946, Note_on_c,66,76,2,2,1,77.0,False
21462,4947, Note_on_c,65,76,2,2,1,76.0,True
21463,4947, Note_on_c,68,76,2,2,1,79.0,False
21464,4948, Note_on_c,63,76,2,2,1,73.0,False
21465,4948, Note_on_c,66,76,2,2,1,77.0,False
21466,4949, Note_on_c,65,76,2,2,1,76.0,True
21467,4949, Note_on_c,70,76,2,2,1,81.0,False
21468,4950, Note_on_c,58,76,2,2,1,67.0,False
21469,4951, Note_on_c,63,76,2,2,1,73.0,False
21470,4951, Note_on_c,66,76,2,2,1,77.0,False
21471,4952, Note_on_c,65,76,2,2,1,76.0,True
21472,4952, Note_on_c,68,76,2,2,1,79.0,False
21473,4953, Note_on_c,58,76,2,2,1,67.0,False
21474,4954, Note_on_c,63,76,2,2,1,73.0,False
21475,4954, Note_on_c,66,76,2,2,1,77.0,False
21476,4955, Note_on_c,65,76,2,2,1,76.0,True
21477,4955, Note_on_c,68,76,2,2,1,79.0,False
21478,4956, Note_on_c,63,76,2,2,1,73.0,False
21479,4956, Note_on_c,66,76,2,2,1,77.0,False
21480,4957, Note_on_c,65,76,2,2,1,76.0,True
21481,4957, Note_on_c,70,76,2,2,1,81.0,False
21482,4958, Note_on_c,58,76,2,2,1,67.0,False
21483,4959, Note_on_c,63,76,2,2,1,73.0,False
21484,4959, Note_on_c,66,76,2,2,1,77.0,False
21485,4960, Note_on_c,65,76,2,2,1,76.0,True
21486,4960, Note_on_c,68,76,2,2,1,79.0,False
21487,4961, Note_on_c,58,76,2,2,1,67.0,False
21488,4962, Note_on_c,63,76,2,2,1,73.0,False
21489,4962, Note_on_c,66,76,2,2,1,77.0,False
21490,4963, Note_on_c,65,76,2,2,1,76.0,True
21491,4963, Note_on_c,68,76,2,2,1,79.0,False
21492,4964, Note_on_c,63,76,2,2,1,73.0,False
21493,4964, Note_on_c,66,76,2,2,1,77.0,False
21494,4965, Note_on_c,65,76,2,2,1,76.0,True
21495,4965, Note_on_c,70,76,2,2,1,81.0,False
21496,4966, Note_on_c,58,76,2,2,1,67.0,False
21497,4967, Note_on_c,63,76,2,2,1,73.0,False
21498,4967, Note_on_c,66,76,2,2,1,77.0,False
21499,4968, Note_on_c,65,76,2,2,1,76.0,True
21500,4968, Note_on_c,68,76,2,2,1,79.0,False
21501,4969, Note_on_c,58,76,2,2,1,67.0,False
21502,4970, Note_on_c,63,76,2,2,1,73.0,False
21503,4970, Note_on_c,66,76,2,2,1,77.0,False
21504,4971, Note_on_c,65,76,2,2,1,76.0,True
21505,4971, Note_on_c,68,76,2,2,1,79.0,False
21506,4972, Note_on_c,63,76,2,2,1,73.0,False
21507,4972, Note_on_c,66,76,2,2,1,77.0,False
21508,4973, Note_on_c,65,76,2,2,1,76.0,True
21509,4973, Note_on_c,70,76,2,2,1,81.0,False
21510,4974, Note_on_c,58,76,2,2,1,67.0,False
21511,4975, Note_on_c,63,76,2,2,1,73.0,False
21512,4975, Note_on_c,66,76,2,2,1,77.0,False
21513,4976, Note_on_c,65,76,2,2,1,76.0,True
21514,4976, Note_on_c,68,76,2,2,1,79.0,False
21515,4977, Note_on_c,58,76,2,2,1,67.0,False
21516,4978, Note_on_c,63,76,2,2,1,73.0,False
21517,4978, Note_on_c,66,76,2,2,1,77.0,False
21518,4979, Note_on_c,65,76,2,2,1,76.0,True
21519,4979, Note_on_c,68,76,2,2,1,79.0,False
21520,4980, Note_on_c,63,76,2,2,1,73.0,False
21521,4980, Note_on_c,66,76,2,2,1,77.0,False
21522,4981, Note_on_c,65,76,2,2,1,76.0,True
21523,4981, Note_on_c,70,76,2,2,1,81.0,False
21524,4982, Note_on_c,58,76,2,2,1,67.0,False
21525,4983, Note_on_c,63,76,2,2,1,73.0,False
21526,4983, Note_on_c,66,76,2,2,1,77.0,False
21527,4984, Note_on_c,65,76,2,2,1,76.0,True
21528,4984, Note_on_c,68,76,2,2,1,79.0,False
21529,4985, Note_on_c,58,76,2,2,1,67.0,False
21530,4986, Note_on_c,63,76,2,2,1,73.0,False
21531,4986, Note_on_c,66,76,2,2,1,77.0,False
21532,4987, Note_on_c,65,76,2,2,1,76.0,True
21533,4987, Note_on_c,68,76,2,2,1,79.0,False
21534,4988, Note_on_c,63,76,2,2,1,73.0,False
21535,4988, Note_on_c,66,76,2,2,1,77.0,False
21536,4989, Note_on_c,65,76,2,2,1,76.0,True
21537,4989, Note_on_c,70,76,2,2,1,81.0,False
21538,4990, Note_on_c,58,76,2,2,1,67.0,False
21539,4991, Note_on_c,63,76,2,2,1,73.0,False
21540,4991, Note_on_c,66,76,2,2,1,77.0,False
21541,4992, Note_on_c,65,76,2,2,1,76.0,True
21542,4992, Note_on_c,68,76,2,2,1,79.0,False
21543,4993, Note_on_c,58,76,2,2,1,67.0,False
21544,4994, Note_on_c,63,76,2,2,1,73.0,False
21545,4994, Note_on_c,66,76,2,2,1,77.0,False
21546,4995, Note_on_c,65,76,2,2,1,76.0,True
21547,4995, Note_on_c,68,76,2,2,1,79.0,False
21548,4996, Note_on_c,63,76,2,2,1,73.0,False
21549,4996, Note_on_c,66,76,2,2,1,77.0,False
21550,4997, Note_on_c,65,76,2,2,1,76.0,True
21551,4997, Note_on_c,70,76,2,2,1,81.0,False
21552,4998, Note_on_c,58,76,2,2,1,67.0,False
21553,4999, Note_on_c,63,76,2,2,1,73.0,False
21554,4999, Note_on_c,66,76,2,2,1,77.0,False
21555,5000, Note_on_c,65,76,2,2,1,76.0,True
21556,5000, Note_on_c,68,76,2,2,1,79.0,False
21557,5001, Note_on_c,58,76,2,2,1,67.0,False
21558,5002, Note_on_c,63,76,2,2,1,73.0,False
21559,5002, Note_on_c,66,76,2,2,1,77.0,False
21560,5003, Note_on_c,65,76,2,2,1,76.0,True
21561,5003, Note_on_c,68,76,2,2,1,79.0,False
21562,5004, Note_on_c,63,76,2,2,1,73.0,False
21563,5004, Note_on_c,66,76,2,2,1,77.0,False
21564,5005, Note_on_c,65,76,2,2,1,76.0,True
21565,5005, Note_on_c,70,76,2,2,1,81.0,False
21566,5006, Note_on_c,58,76,2,2,1,67.0,False
21567,5007, Note_on_c,63,76,2,2,1,73.0,False
21568,5007, Note_on_c,66,76,2,2,1,77.0,False
21569,5008, Note_on_c,65,76,2,2,1,76.0,True
21570,5008, Note_on_c,68,76,2,2,1,79.0,False
21571,5009, Note_on_c,58,76,2,2,1,67.0,False
21572,5010, Note_on_c,63,76,2,2,1,73.0,False
21573,5010, Note_on_c,66,76,2,2,1,77.0,False
21574,5011, Note_on_c,65,76,2,2,1,76.0,True
21575,5011, Note_on_c,68,76,2,2,1,79.0,False
21576,5012, Note_on_c,63,76,2,2,1,73.0,False
21577,5012, Note_on_c,66,76,2,2,1,77.0,False
21578,5013, Note_on_c,65,76,2,2,1,76.0,True
21579,5013, Note_on_c,70,76,2,2,1,81.0,False
21580,5014, Note_on_c,58,76,2,2,1,67.0,False
21581,5015, Note_on_c,63,76,2,2,1,73.0,False
21582,5015, Note_on_c,66,76,2,2,1,77.0,False
21583,5016, Note_on_c,65,76,2,2,1,76.0,True
21584,5016, Note_on_c,68,76,2,2,1,79.0,False
21585,5017, Note_on_c,58,76,2,2,1,67.0,False
21586,5018, Note_on_c,63,76,2,2,1,73.0,False
21587,5018, Note_on_c,66,76,2,2,1,77.0,False
21588,5019, Note_on_c,65,76,2,2,1,76.0,True
21589,5019, Note_on_c,68,76,2,2,1,79.0,False
21590,5020, Note_on_c,63,76,2,2,1,73.0,False
21591,5020, Note_on_c,66,76,2,2,1,77.0,False
21592,5021, Note_on_c,65,76,2,2,1,76.0,True
21593,5021, Note_on_c,70,76,2,2,1,81.0,False
21594,5022, Note_on_c,58,76,2,2,1,67.0,False
21595,5023, Note_on_c,63,76,2,2,1,73.0,False
21596,5023, Note_on_c,66,76,2,2,1,77.0,False
21597,5024, Note_on_c,65,76,2,2,1,76.0,True
21598,5024, Note_on_c,68,76,2,2,1,79.0,False
21599,5025, Note_on_c,58,76,2,2,1,67.0,False
21600,5026, Note_on_c,63,76,2,2,1,73.0,False
21601,5026, Note_on_c,66,76,2,2,1,77.0,False
21602,5027, Note_on_c,65,76,2,2,1,76.0,True
21603,5027, Note_on_c,68,76,2,2,1,79.0,False
21604,5028, Note_on_c,63,76,2,2,1,73.0,False
21605,5028, Note_on_c,66,76,2,2,1,77.0,False
21606,5029, Note_on_c,65,76,2,2,1,76.0,True
21607,5029, Note_on_c,70,76,2,2,1,81.0,False
21608,5030, Note_on_c,58,76,2,2,1,67.0,False
21609,5031, Note_on_c,63,76,2,2,1,73.0,False
21610,5031, Note_on_c,66,76,2,2,1,77.0,False
21611,5032, Note_on_c,65,76,2,2,1,76.0,True
21612,5032, Note_on_c,68,76,2,2,1,79.0,False
21613,5033, Note_on_c,58,76,2,2,1,67.0,False
21614,5034, Note_on_c,63,76,2,2,1,73.0,False
21615,5034, Note_on_c,66,76,2,2,1,77.0,False
21616,5035, Note_on_c,65,76,2,2,1,76.0,True
21617,5035, Note_on_c,68,76,2,2,1,79.0,False
21618,5036, Note_on_c,63,76,2,2,1,73.0,False
21619,5036, Note_on_c,66,76,2,2,1,77.0,False
21620,5037, Note_on_c,65,76,2,2,1,76.0,True
21621,5037, Note_on_c,70,76,2,2,1,81.0,False
21622,5038, Note_on_c,58,76,2,2,1,67.0,False
21623,5039, Note_on_c,63,76,2,2,1,73.0,False
21624,5039, Note_on_c,66,76,2,2,1,77.0,False
21625,5040, Note_on_c,65,76,2,2,1,76.0,True
21626,5040, Note_on_c,68,76,2,2,1,79.0,False
21627,5041, Note_on_c,58,76,2,2,1,67.0,False
21628,5042, Note_on_c,63,76,2,2,1,73.0,False
21629,5042, Note_on_c,66,76,2,2,1,77.0,False
21630,5043, Note_on_c,65,76,2,2,1,76.0,True
21631,5043, Note_on_c,68,76,2,2,1,79.0,False
21632,5044, Note_on_c,63,76,2,2,1,73.0,False
21633,5044, Note_on_c,66,76,2,2,1,77.0,False
21634,5045, Note_on_c,65,76,2,2,1,76.0,True
21635,5045, Note_on_c,70,76,2,2,1,81.0,False
21636,5046, Note_on_c,58,76,2,2,1,67.0,False
21637,5047, Note_on_c,63,76,2,2,1,73.0,False
21638,5047, Note_on_c,66,76,2,2,1,77.0,False
21639,5048, Note_on_c,65,76,2,2,1,76.0,True
21640,5048, Note_on_c,68,76,2,2,1,79.0,False
21641,5049, Note_on_c,58,76,2,2,1,67.0,False
21642,5050, Note_on_c,63,76,2,2,1,73.0,False
21643,5050, Note_on_c,66,76,2,2,1,77.0,False
21644,5051, Note_on_c,65,76,2,2,1,76.0,True
21645,5051, Note_on_c,68,76,2,2,1,79.0,False
21646,5052, Note_on_c,63,76,2,2,1,73.0,False
21647,5052, Note_on_c,66,76,2,2,1,77.0,False
21648,5053, Note_on_c,65,76,2,2,1,76.0,True
21649,5053, Note_on_c,70,76,2,2,1,81.0,False
21650,5054, Note_on_c,58,76,2,2,1,67.0,False
21651,5055, Note_on_c,63,76,2,2,1,73.0,False
21652,5055, Note_on_c,66,76,2,2,1,77.0,False
21653,5056, Note_on_c,65,76,2,2,1,76.0,True
21654,5056, Note_on_c,68,76,2,2,1,79.0,False
21655,5057, Note_on_c,58,76,2,2,1,67.0,False
21656,5058, Note_on_c,63,76,2,2,1,73.0,False
21657,5058, Note_on_c,66,76,2,2,1,77.0,False
21658,5059, Note_on_c,65,76,2,2,1,76.0,True
21659,5059, Note_on_c,68,76,2,2,1,79.0,False
21660,5060, Note_on_c,63,76,2,2,1,73.0,False
21661,5060, Note_on_c,66,76,2,2,1,77.0,False
21662,5061, Note_on_c,65,76,2,2,1,76.0,True
21663,5061, Note_on_c,70,76,2,2,1,81.0,False
21664,5062, Note_on_c,58,76,2,2,1,67.0,False
21665,5063, Note_on_c,63,76,2,2,1,73.0,False
21666,5063, Note_on_c,66,76,2,2,1,77.0,False
21667,5064, Note_on_c,65,76,2,2,1,76.0,True
21668,5064, Note_on_c,68,76,2,2,1,79.0,False
21669,5065, Note_on_c,58,76,2,2,1,67.0,False
21670,5066, Note_on_c,63,76,2,2,1,73.0,False
21671,5066, Note_on_c,66,76,2,2,1,77.0,False
21672,5067, Note_on_c,65,76,2,2,1,76.0,True
21673,5067, Note_on_c,68,76,2,2,1,79.0,False
21674,5068, Note_on_c,63,76,2,2,1,73.0,False
21675,5068, Note_on_c,66,76,2,2,1,77.0,False
21676,5069, Note_on_c,65,76,2,2,1,76.0,True
21677,5069, Note_on_c,70,76,2,2,1,81.0,False
21678,5070, Note_on_c,58,76,2,2,1,67.0,False
21679,5071, Note_on_c,63,76,2,2,1,73.0,False
21680,5071, Note_on_c,66,76,2,2,1,77.0,False
21681,5072, Note_on_c,65,76,2,2,1,76.0,True
21682,5072, Note_on_c,68,76,2,2,1,79.0,False
21683,5073, Note_on_c,58,76,2,2,1,67.0,False
21684,5074, Note_on_c,63,76,2,2,1,73.0,False
21685,5074, Note_on_c,66,76,2,2,1,77.0,False
21686,5075, Note_on_c,65,76,2,2,1,76.0,True
21687,5075, Note_on_c,68,76,2,2,1,79.0,False
21688,5076, Note_on_c,63,76,2,2,1,73.0,False
21689,5076, Note_on_c,66,76,2,2,1,77.0,False
21690,5077, Note_on_c,65,76,2,2,1,76.0,True
21691,5077, Note_on_c,70,76,2,2,1,81.0,False
21692,5078, Note_on_c,58,76,2,2,1,67.0,False
21693,5079, Note_on_c,63,76,2,2,1,73.0,False
21694,5079, Note_on_c,66,76,2,2,1,77.0,False
21695,5080, Note_on_c,65,76,2,2,1,76.0,True
21696,5080, Note_on_c,68,76,2,2,1,79.0,False
21697,5081, Note_on_c,58,76,2,2,1,67.0,False
21698,5082, Note_on_c,63,76,2,2,1,73.0,False
21699,5082, Note_on_c,66,76,2,2,1,77.0,False
21700,5083, Note_on_c,65,76,2,2,1,76.0,True
21701,5083, Note_on_c,68,76,2,2,1,79.0,False
21702,5084, Note_on_c,63,76,2,2,1,73.0,False
21703,5084, Note_on_c,66,76,2,2,1,77.0,False
21704,5085, Note_on_c,65,76,2,2,1,76.0,True
21705,5085, Note_on_c,70,76,2,2,1,81.0,False
21706,5086, Note_on_c,58,76,2,2,1,67.0,False
21707,5087, Note_on_c,63,76,2,2,1,73.0,False
21708,5087, Note_on_c,66,76,2,2,1,77.0,False
21709,5088, Note_on_c,65,76,2,2,1,76.0,True
21710,5088, Note_on_c,68,76,2,2,1,79.0,False
21711,5089, Note_on_c,58,76,2,2,1,67.0,False
21712,5090, Note_on_c,63,76,2,2,1,73.0,False
21713,5090, Note_on_c,66,76,2,2,1,77.0,False
21714,5091, Note_on_c,65,76,2,2,1,76.0,True
21715,5091, Note_on_c,68,76,2,2,1,79.0,False
21716,5092, Note_on_c,63,76,2,2,1,73.0,False
21717,5092, Note_on_c,66,76,2,2,1,77.0,False
21718,5093, Note_on_c,65,76,2,2,1,76.0,True
21719,5093, Note_on_c,70,76,2,2,1,81.0,False
21720,5094, Note_on_c,58,76,2,2,1,67.0,False
21721,5095, Note_on_c,63,76,2,2,1,73.0,False
21722,5095, Note_on_c,66,76,2,2,1,77.0,False
21723,5096, Note_on_c,65,76,2,2,1,76.0,True
21724,5096, Note_on_c,68,76,2,2,1,79.0,False
21725,5097, Note_on_c,58,76,2,2,1,67.0,False
21726,5098, Note_on_c,63,76,2,2,1,73.0,False
21727,5098, Note_on_c,66,76,2,2,1,77.0,False
21728,5099, Note_on_c,65,76,2,2,1,76.0,True
21729,5099, Note_on_c,68,76,2,2,1,79.0,False
21730,5100, Note_on_c,63,76,2,2,1,73.0,False
21731,5100, Note_on_c,66,76,2,2,1,77.0,False
21732,5101, Note_on_c,65,76,2,2,1,76.0,True
21733,5101, Note_on_c,70,76,2,2,1,81.0,False
21734,5102, Note_on_c,58,76,2,2,1,67.0,False
21735,5103, Note_on_c,63,76,2,2,1,73.0,False
21736,5103, Note_on_c,66,76,2,2,1,77.0,False
21737,5104, Note_on_c,65,76,2,2,1,76.0,True
21738,5104, Note_on_c,68,76,2,2,1,79.0,False
21739,5105, Note_on_c,58,76,2,2,1,67.0,False
21740,5106, Note_on_c,63,76,2,2,1,73.0,False
21741,5106, Note_on_c,66,76,2,2,1,77.0,False
21742,5107, Note_on_c,65,76,2,2,1,76.0,True
21743,5107, Note_on_c,68,76,2,2,1,79.0,False
21744,5108, Note_on_c,63,76,2,2,1,73.0,False
21745,5108, Note_on_c,66,76,2,2,1,77.0,False
21746,5109, Note_on_c,65,76,2,2,1,76.0,True
21747,5109, Note_on_c,70,76,2,2,1,81.0,False
21748,5110, Note_on_c,58,76,2,2,1,67.0,False
21749,5111, Note_on_c,63,76,2,2,1,73.0,False
21750,5111, Note_on_c,66,76,2,2,1,77.0,False
21751,5112, Note_on_c,65,76,2,2,1,76.0,True
21752,5112, Note_on_c,68,76,2,2,1,79.0,False
21753,5113, Note_on_c,58,76,2,2,1,67.0,False
21754,5114, Note_on_c,63,76,2,2,1,73.0,False
21755,5114, Note_on_c,66,76,2,2,1,77.0,False
21756,5115, Note_on_c,65,76,2,2,1,76.0,True
21757,5115, Note_on_c,68,76,2,2,1,79.0,False
21758,5116, Note_on_c,63,76,2,2,1,73.0,False
21759,5116, Note_on_c,66,76,2,2,1,77.0,False
21760,5117, Note_on_c,65,76,2,2,1,76.0,True
21761,5117, Note_on_c,70,76,2,2,1,81.0,False
21762,5118, Note_on_c,58,76,2,2,1,67.0,False
21763,5119, Note_on_c,63,76,2,2,1,73.0,False
21764,5119, Note_on_c,66,76,2,2,1,77.0,False
21765,5120, Note_on_c,65,76,2,2,1,76.0,True
21766,5120, Note_on_c,68,76,2,2,1,79.0,False
21767,5121, Note_on_c,58,76,2,2,1,67.0,False
21768,5122, Note_on_c,63,76,2,2,1,73.0,False
21769,5122, Note_on_c,66,76,2,2,1,77.0,False
21770,5123, Note_on_c,65,76,2,2,1,76.0,True
21771,5123, Note_on_c,68,76,2,2,1,79.0,False
21772,5124, Note_on_c,63,76,2,2,1,73.0,False
21773,5124, Note_on_c,66,76,2,2,1,77.0,False
21774,5125, Note_on_c,65,76,2,2,1,76.0,True
21775,5125, Note_on_c,70,76,2,2,1,81.0,False
21776,5126, Note_on_c,58,76,2,2,1,67.0,False
21777,5127, Note_on_c,63,76,2,2,1,73.0,False
21778,5127, Note_on_c,66,76,2,2,1,77.0,False
21779,5128, Note_on_c,65,76,2,2,1,76.0,True
21780,5128, Note_on_c,68,76,2,2,1,79.0,False
21781,5129, Note_on_c,58,76,2,2,1,67.0,False
21782,5130, Note_on_c,63,76,2,2,1,73.0,False
21783,5130, Note_on_c,66,76,2,2,1,77.0,False
21784,5131, Note_on_c,65,76,2,2,1,76.0,True
21785,5131, Note_on_c,68,76,2,2,1,79.0,False
21786,5132, Note_on_c,63,76,2,2,1,73.0,False
21787,5132, Note_on_c,66,76,2,2,1,77.0,False
21788,5133, Note_on_c,65,76,2,2,1,76.0,True
21789,5133, Note_on_c,70,76,2,2,1,81.0,False
21790,5134, Note_on_c,58,76,2,2,1,67.0,False
21791,5135, Note_on_c,63,76,2,2,1,73.0,False
21792,5135, Note_on_c,66,76,2,2,1,77.0,False
21793,5136, Note_on_c,65,76,2,2,1,76.0,True
21794,5136, Note_on_c,68,76,2,2,1,79.0,False
21795,5137, Note_on_c,58,76,2,2,1,67.0,False
21796,5138, Note_on_c,63,76,2,2,1,73.0,False
21797,5138, Note_on_c,66,76,2,2,1,77.0,False
21798,5139, Note_on_c,65,76,2,2,1,76.0,True
21799,5139, Note_on_c,68,76,2,2,1,79.0,False
21800,5140, Note_on_c,63,76,2,2,1,73.0,False
21801,5140, Note_on_c,66,76,2,2,1,77.0,False
21802,5141, Note_on_c,65,76,2,2,1,76.0,True
21803,5141, Note_on_c,70,76,2,2,1,81.0,False
21804,5142, Note_on_c,58,76,2,2,1,67.0,False
21805,5143, Note_on_c,63,76,2,2,1,73.0,False
21806,5143, Note_on_c,66,76,2,2,1,77.0,False
21807,5144, Note_on_c,65,76,2,2,1,76.0,True
21808,5144, Note_on_c,68,76,2,2,1,79.0,False
21809,5145, Note_on_c,58,76,2,2,1,67.0,False
21810,5146, Note_on_c,63,76,2,2,1,73.0,False
21811,5146, Note_on_c,66,76,2,2,1,77.0,False
21812,5147, Note_on_c,65,76,2,2,1,76.0,True
21813,5147, Note_on_c,68,76,2,2,1,79.0,False
21814,5148, Note_on_c,63,76,2,2,1,73.0,False
21815,5148, Note_on_c,66,76,2,2,1,77.0,False
21816,5149, Note_on_c,65,76,2,2,1,76.0,True
21817,5149, Note_on_c,70,76,2,2,1,81.0,False
21818,5150, Note_on_c,58,76,2,2,1,67.0,False
21819,5151, Note_on_c,63,76,2,2,1,73.0,False
21820,5151, Note_on_c,66,76,2,2,1,77.0,False
21821,5152, Note_on_c,65,76,2,2,1,76.0,True
21822,5152, Note_on_c,68,76,2,2,1,79.0,False
21823,5153, Note_on_c,58,76,2,2,1,67.0,False
21824,5154, Note_on_c,63,76,2,2,1,73.0,False
21825,5154, Note_on_c,66,76,2,2,1,77.0,False
21826,5155, Note_on_c,65,76,2,2,1,76.0,True
21827,5155, Note_on_c,68,76,2,2,1,79.0,False
21828,5156, Note_on_c,63,76,2,2,1,73.0,False
21829,5156, Note_on_c,66,76,2,2,1,77.0,False
21830,5157, Note_on_c,65,76,2,2,1,76.0,True
21831,5157, Note_on_c,70,76,2,2,1,81.0,False
21832,5158, Note_on_c,58,76,2,2,1,67.0,False
21833,5159, Note_on_c,63,76,2,2,1,73.0,False
21834,5159, Note_on_c,66,76,2,2,1,77.0,False
21835,5160, Note_on_c,65,76,2,2,1,76.0,True
21836,5160, Note_on_c,68,76,2,2,1,79.0,False
21837,5161, Note_on_c,58,76,2,2,1,67.0,False
21838,5162, Note_on_c,63,76,2,2,1,73.0,False
21839,5162, Note_on_c,66,76,2,2,1,77.0,False
21840,5163, Note_on_c,65,76,2,2,1,76.0,True
21841,5163, Note_on_c,68,76,2,2,1,79.0,False
21842,5164, Note_on_c,63,76,2,2,1,73.0,False
21843,5164, Note_on_c,66,76,2,2,1,77.0,False
21844,5165, Note_on_c,65,76,2,2,1,76.0,True
21845,5165, Note_on_c,70,76,2,2,1,81.0,False
21846,5166, Note_on_c,58,76,2,2,1,67.0,False
21847,5167, Note_on_c,63,76,2,2,1,73.0,False
21848,5167, Note_on_c,66,76,2,2,1,77.0,False
21849,5168, Note_on_c,65,76,2,2,1,76.0,True
21850,5168, Note_on_c,68,76,2,2,1,79.0,False
21851,5169, Note_on_c,58,76,2,2,1,67.0,False
21852,5170, Note_on_c,63,76,2,2,1,73.0,False
21853,5170, Note_on_c,66,76,2,2,1,77.0,False
21854,5171, Note_on_c,65,76,2,2,1,76.0,True
21855,5171, Note_on_c,68,76,2,2,1,79.0,False
21856,5172, Note_on_c,63,76,2,2,1,73.0,False
21857,5172, Note_on_c,66,76,2,2,1,77.0,False
21858,5173, Note_on_c,65,76,2,2,1,76.0,True
21859,5173, Note_on_c,70,76,2,2,1,81.0,False
21860,5174, Note_on_c,58,76,2,2,1,67.0,False
21861,5175, Note_on_c,63,76,2,2,1,73.0,False
21862,5175, Note_on_c,66,76,2,2,1,77.0,False
21863,5176, Note_on_c,65,76,2,2,1,76.0,True
21864,5176, Note_on_c,68,76,2,2,1,79.0,False
21865,5177, Note_on_c,58,76,2,2,1,67.0,False
21866,5178, Note_on_c,63,76,2,2,1,73.0,False
21867,5178, Note_on_c,66,76,2,2,1,77.0,False
21868,5179, Note_on_c,65,76,2,2,1,76.0,True
21869,5179, Note_on_c,68,76,2,2,1,79.0,False
21870,5180, Note_on_c,63,76,2,2,1,73.0,False
21871,5180, Note_on_c,66,76,2,2,1,77.0,False
21872,5181, Note_on_c,65,76,2,2,1,76.0,True
21873,5181, Note_on_c,70,76,2,2,1,81.0,False
21874,5182, Note_on_c,58,76,2,2,1,67.0,False
21875,5183, Note_on_c,63,76,2,2,1,73.0,False
21876,5183, Note_on_c,66,76,2,2,1,77.0,False
21877,5184, Note_on_c,65,76,2,2,1,76.0,True
21878,5184, Note_on_c,68,76,2,2,1,79.0,False
21879,5185, Note_on_c,58,76,2,2,1,67.0,False
21880,5186, Note_on_c,63,76,2,2,1,73.0,False
21881,5186, Note_on_c,66,76,2,2,1,77.0,False
21882,5187, Note_on_c,65,76,2,2,1,76.0,True
21883,5187, Note_on_c,68,76,2,2,1,79.0,False
21884,5188, Note_on_c,63,76,2,2,1,73.0,False
21885,5188, Note_on_c,66,76,2,2,1,77.0,False
21886,5189, Note_on_c,65,76,2,2,1,76.0,True
21887,5189, Note_on_c,70,76,2,2,1,81.0,False
21888,5190, Note_on_c,58,76,2,2,1,67.0,False
21889,5191, Note_on_c,63,76,2,2,1,73.0,False
21890,5191, Note_on_c,66,76,2,2,1,77.0,False
21891,5192, Note_on_c,65,76,2,2,1,76.0,True
21892,5192, Note_on_c,68,76,2,2,1,79.0,False
21893,5193, Note_on_c,58,76,2,2,1,67.0,False
21894,5194, Note_on_c,63,76,2,2,1,73.0,False
21895,5194, Note_on_c,66,76,2,2,1,77.0,False
21896,5195, Note_on_c,65,76,2,2,1,76.0,True
21897,5195, Note_on_c,68,76,2,2,1,79.0,False
21898,5196, Note_on_c,63,76,2,2,1,73.0,False
21899,5196, Note_on_c,66,76,2,2,1,77.0,False
21900,5197, Note_on_c,65,76,2,2,1,76.0,True
21901,5197, Note_on_c,70,76,2,2,1,81.0,False
21902,5198, Note_on_c,58,76,2,2,1,67.0,False
21903,5199, Note_on_c,63,76,2,2,1,73.0,False
21904,5199, Note_on_c,66,76,2,2,1,77.0,False
21905,5200, Note_on_c,65,76,2,2,1,76.0,True
21906,5200, Note_on_c,68,76,2,2,1,79.0,False
21907,5201, Note_on_c,58,76,2,2,1,67.0,False
21908,5202, Note_on_c,63,76,2,2,1,73.0,False
21909,5202, Note_on_c,66,76,2,2,1,77.0,False
21910,5203, Note_on_c,65,76,2,2,1,76.0,True
21911,5203, Note_on_c,68,76,2,2,1,79.0,False
21912,5204, Note_on_c,63,76,2,2,1,73.0,False
21913,5204, Note_on_c,66,76,2,2,1,77.0,False
21914,5205, Note_on_c,65,76,2,2,1,76.0,True
21915,5205, Note_on_c,70,76,2,2,1,81.0,False
21916,5206, Note_on_c,58,76,2,2,1,67.0,False
21917,5207, Note_on_c,63,76,2,2,1,73.0,False
21918,5207, Note_on_c,66,76,2,2,1,77.0,False
21919,5208, Note_on_c,65,76,2,2,1,76.0,True
21920,5208, Note_on_c,68,76,2,2,1,79.0,False
21921,5209, Note_on_c,58,76,2,2,1,67.0,False
21922,5210, Note_on_c,63,76,2,2,1,73.0,False
21923,5210, Note_on_c,66,76,2,2,1,77.0,False
21924,5211, Note_on_c,65,76,2,2,1,76.0,True
21925,5211, Note_on_c,68,76,2,2,1,79.0,False
21926,5212, Note_on_c,63,76,2,2,1,73.0,False
21927,5212, Note_on_c,66,76,2,2,1,77.0,False
21928,5213, Note_on_c,65,76,2,2,1,76.0,True
21929,5213, Note_on_c,70,76,2,2,1,81.0,False
21930,5214, Note_on_c,58,76,2,2,1,67.0,False
21931,5215, Note_on_c,63,76,2,2,1,73.0,False
21932,5215, Note_on_c,66,76,2,2,1,77.0,False
21933,5216, Note_on_c,65,76,2,2,1,76.0,True
21934,5216, Note_on_c,68,76,2,2,1,79.0,False
21935,5217, Note_on_c,58,76,2,2,1,67.0,False
21936,5218, Note_on_c,63,76,2,2,1,73.0,False
21937,5218, Note_on_c,66,76,2,2,1,77.0,False
21938,5219, Note_on_c,65,76,2,2,1,76.0,True
21939,5219, Note_on_c,68,76,2,2,1,79.0,False
21940,5220, Note_on_c,63,76,2,2,1,73.0,False
21941,5220, Note_on_c,66,76,2,2,1,77.0,False
21942,5221, Note_on_c,65,76,2,2,1,76.0,True
21943,5221, Note_on_c,70,76,2,2,1,81.0,False
21944,5222, Note_on_c,58,76,2,2,1,67.0,False
21945,5223, Note_on_c,63,76,2,2,1,73.0,False
21946,5223, Note_on_c,66,76,2,2,1,77.0,False
21947,5224, Note_on_c,65,76,2,2,1,76.0,True
21948,5224, Note_on_c,68,76,2,2,1,79.0,False
21949,5225, Note_on_c,58,76,2,2,1,67.0,False
21950,5226, Note_on_c,63,76,2,2,1,73.0,False
21951,5226, Note_on_c,66,76,2,2,1,77.0,False
21952,5227, Note_on_c,65,76,2,2,1,76.0,True
21953,5227, Note_on_c,68,76,2,2,1,79.0,False
21954,5228, Note_on_c,63,76,2,2,1,73.0,False
21955,5228, Note_on_c,66,76,2,2,1,77.0,False
21956,5229, Note_on_c,65,76,2,2,1,76.0,True
21957,5229, Note_on_c,70,76,2,2,1,81.0,False
21958,5230, Note_on_c,58,76,2,2,1,67.0,False
21959,5231, Note_on_c,63,76,2,2,1,73.0,False
21960,5231, Note_on_c,66,76,2,2,1,77.0,False
21961,5232, Note_on_c,65,76,2,2,1,76.0,True
21962,5232, Note_on_c,68,76,2,2,1,79.0,False
21963,5233, Note_on_c,58,76,2,2,1,67.0,False
21964,5234, Note_on_c,63,76,2,2,1,73.0,False
21965,5234, Note_on_c,66,76,2,2,1,77.0,False
21966,5235, Note_on_c,65,76,2,2,1,76.0,True
21967,5235, Note_on_c,68,76,2,2,1,79.0,False
21968,5236, Note_on_c,63,76,2,2,1,73.0,False
21969,5236, Note_on_c,66,76,2,2,1,77.0,False
21970,5237, Note_on_c,65,76,2,2,1,76.0,True
21971,5237, Note_on_c,70,76,2,2,1,81.0,False
21972,5238, Note_on_c,58,76,2,2,1,67.0,False
21973,5239, Note_on_c,63,76,2,2,1,73.0,False
21974,5239, Note_on_c,66,76,2,2,1,77.0,False
21975,5240, Note_on_c,65,76,2,2,1,76.0,True
21976,5240, Note_on_c,68,76,2,2,1,79.0,False
21977,5241, Note_on_c,58,76,2,2,1,67.0,False
21978,5242, Note_on_c,63,76,2,2,1,73.0,False
21979,5242, Note_on_c,66,76,2,2,1,77.0,False
21980,5243, Note_on_c,65,76,2,2,1,76.0,True
21981,5243, Note_on_c,68,76,2,2,1,79.0,False
21982,5244, Note_on_c,63,76,2,2,1,73.0,False
21983,5244, Note_on_c,66,76,2,2,1,77.0,False
21984,5245, Note_on_c,65,76,2,2,1,76.0,True
21985,5245, Note_on_c,70,76,2,2,1,81.0,False
21986,5246, Note_on_c,58,76,2,2,1,67.0,False
21987,5247, Note_on_c,63,76,2,2,1,73.0,False
21988,5247, Note_on_c,66,76,2,2,1,77.0,False
21989,5248, Note_on_c,65,76,2,2,1,76.0,True
21990,5248, Note_on_c,68,76,2,2,1,79.0,False
21991,5249, Note_on_c,58,76,2,2,1,67.0,False
21992,5250, Note_on_c,63,76,2,2,1,73.0,False
21993,5250, Note_on_c,66,76,2,2,1,77.0,False
21994,5251, Note_on_c,65,76,2,2,1,76.0,True
21995,5251, Note_on_c,68,76,2,2,1,79.0,False
21996,5252, Note_on_c,63,76,2,2,1,73.0,False
21997,5252, Note_on_c,66,76,2,2,1,77.0,False
21998,5253, Note_on_c,65,76,2,2,1,76.0,True
21999,5253, Note_on_c,70,76,2,2,1,81.0,False
22000,5254, Note_on_c,58,76,2,2,1,67.0,False
22001,5255, Note_on_c,63,76,2,2,1,73.0,False
22002,5255, Note_on_c,66,76,2,2,1,77.0,False
22003,5256, Note_on_c,65,76,2,2,1,76.0,True
22004,5256, Note_on_c,68,76,2,2,1,79.0,False
22005,5257, Note_on_c,58,76,2,2,1,67.0,False
22006,5258, Note_on_c,63,76,2,2,1,73.0,False
22007,5258, Note_on_c,66,76,2,2,1,77.0,False
22008,5259, Note_on_c,65,76,2,2,1,76.0,True
22009,5259, Note_on_c,68,76,2,2,1,79.0,False
22010,5260, Note_on_c,63,76,2,2,1,73.0,False
22011,5260, Note_on_c,66,76,2,2,1,77.0,False
22012,5261, Note_on_c,65,76,2,2,1,76.0,True
22013,5261, Note_on_c,70,76,2,2,1,81.0,False
22014,5262, Note_on_c,58,76,2,2,1,67.0,False
22015,5263, Note_on_c,63,76,2,2,1,73.0,False
22016,5263, Note_on_c,66,76,2,2,1,77.0,False
22017,5264, Note_on_c,65,76,2,2,1,76.0,True
22018,5264, Note_on_c,68,76,2,2,1,79.0,False
22019,5265, Note_on_c,58,76,2,2,1,67.0,False
22020,5266, Note_on_c,63,76,2,2,1,73.0,False
22021,5266, Note_on_c,66,76,2,2,1,77.0,False
22022,5267, Note_on_c,65,76,2,2,1,76.0,True
22023,5267, Note_on_c,68,76,2,2,1,79.0,False
22024,5268, Note_on_c,63,76,2,2,1,73.0,False
22025,5268, Note_on_c,66,76,2,2,1,77.0,False
22026,5269, Note_on_c,65,76,2,2,1,76.0,True
22027,5269, Note_on_c,70,76,2,2,1,81.0,False
22028,5270, Note_on_c,58,76,2,2,1,67.0,False
22029,5271, Note_on_c,63,76,2,2,1,73.0,False
22030,5271, Note_on_c,66,76,2,2,1,77.0,False
22031,5272, Note_on_c,65,76,2,2,1,76.0,True
22032,5272, Note_on_c,68,76,2,2,1,79.0,False
22033,5273, Note_on_c,58,76,2,2,1,67.0,False
22034,5274, Note_on_c,63,76,2,2,1,73.0,False
22035,5274, Note_on_c,66,76,2,2,1,77.0,False
22036,5275, Note_on_c,65,76,2,2,1,76.0,True
22037,5275, Note_on_c,68,76,2,2,1,79.0,False
22038,5276, Note_on_c,63,76,2,2,1,73.0,False
22039,5276, Note_on_c,66,76,2,2,1,77.0,False
22040,5277, Note_on_c,65,76,2,2,1,76.0,True
22041,5277, Note_on_c,70,76,2,2,1,81.0,False
22042,5278, Note_on_c,58,76,2,2,1,67.0,False
22043,5279, Note_on_c,63,76,2,2,1,73.0,False
22044,5279, Note_on_c,66,76,2,2,1,77.0,False
22045,5280, Note_on_c,65,76,2,2,1,76.0,True
22046,5280, Note_on_c,68,76,2,2,1,79.0,False
22047,5281, Note_on_c,58,76,2,2,1,67.0,False
22048,5282, Note_on_c,63,76,2,2,1,73.0,False
22049,5282, Note_on_c,66,76,2,2,1,77.0,False
22050,5283, Note_on_c,65,76,2,2,1,76.0,True
22051,5283, Note_on_c,68,76,2,2,1,79.0,False
22052,5284, Note_on_c,63,76,2,2,1,73.0,False
22053,5284, Note_on_c,66,76,2,2,1,77.0,False
22054,5285, Note_on_c,65,76,2,2,1,76.0,True
22055,5285, Note_on_c,70,76,2,2,1,81.0,False
22056,5286, Note_on_c,58,76,2,2,1,67.0,False
22057,5287, Note_on_c,63,76,2,2,1,73.0,False
22058,5287, Note_on_c,66,76,2,2,1,77.0,False
22059,5288, Note_on_c,65,76,2,2,1,76.0,True
22060,5288, Note_on_c,68,76,2,2,1,79.0,False
22061,5289, Note_on_c,58,76,2,2,1,67.0,False
22062,5290, Note_on_c,63,76,2,2,1,73.0,False
22063,5290, Note_on_c,66,76,2,2,1,77.0,False
22064,5291, Note_on_c,65,76,2,2,1,76.0,True
22065,5291, Note_on_c,68,76,2,2,1,79.0,False
22066,5292, Note_on_c,63,76,2,2,1,73.0,False
22067,5292, Note_on_c,66,76,2,2,1,77.0,False
22068,5293, Note_on_c,65,76,2,2,1,76.0,True
22069,5293, Note_on_c,70,76,2,2,1,81.0,False
22070,5294, Note_on_c,58,76,2,2,1,67.0,False
22071,5295, Note_on_c,63,76,2,2,1,73.0,False
22072,5295, Note_on_c,66,76,2,2,1,77.0,False
22073,5296, Note_on_c,65,76,2,2,1,76.0,True
22074,5296, Note_on_c,68,76,2,2,1,79.0,False
22075,5297, Note_on_c,58,76,2,2,1,67.0,False
22076,5298, Note_on_c,63,76,2,2,1,73.0,False
22077,5298, Note_on_c,66,76,2,2,1,77.0,False
22078,5299, Note_on_c,65,76,2,2,1,76.0,True
22079,5299, Note_on_c,68,76,2,2,1,79.0,False
22080,5300, Note_on_c,63,76,2,2,1,73.0,False
22081,5300, Note_on_c,66,76,2,2,1,77.0,False
22082,5301, Note_on_c,65,76,2,2,1,76.0,True
22083,5301, Note_on_c,70,76,2,2,1,81.0,False
22084,5302, Note_on_c,58,76,2,2,1,67.0,False
22085,5303, Note_on_c,63,76,2,2,1,73.0,False
22086,5303, Note_on_c,66,76,2,2,1,77.0,False
22087,5304, Note_on_c,65,76,2,2,1,76.0,True
22088,5304, Note_on_c,68,76,2,2,1,79.0,False
22089,5305, Note_on_c,58,76,2,2,1,67.0,False
22090,5306, Note_on_c,63,76,2,2,1,73.0,False
22091,5306, Note_on_c,66,76,2,2,1,77.0,False
22092,5307, Note_on_c,65,76,2,2,1,76.0,True
22093,5307, Note_on_c,68,76,2,2,1,79.0,False
22094,5308, Note_on_c,63,76,2,2,1,73.0,False
22095,5308, Note_on_c,66,76,2,2,1,77.0,False
22096,5309, Note_on_c,65,76,2,2,1,76.0,True
22097,5309, Note_on_c,70,76,2,2,1,81.0,False
22098,5310, Note_on_c,58,76,2,2,1,67.0,False
22099,5311, Note_on_c,63,76,2,2,1,73.0,False
22100,5311, Note_on_c,66,76,2,2,1,77.0,False
22101,5312, Note_on_c,65,76,2,2,1,76.0,True
22102,5312, Note_on_c,68,76,2,2,1,79.0,False
22103,5313, Note_on_c,58,76,2,2,1,67.0,False
22104,5314, Note_on_c,63,76,2,2,1,73.0,False
22105,5314, Note_on_c,66,76,2,2,1,77.0,False
22106,5315, Note_on_c,65,76,2,2,1,76.0,True
22107,5315, Note_on_c,68,76,2,2,1,79.0,False
22108,5316, Note_on_c,63,76,2,2,1,73.0,False
22109,5316, Note_on_c,66,76,2,2,1,77.0,False
22110,5317, Note_on_c,65,76,2,2,1,76.0,True
22111,5317, Note_on_c,70,76,2,2,1,81.0,False
22112,5318, Note_on_c,58,76,2,2,1,67.0,False
22113,5319, Note_on_c,63,76,2,2,1,73.0,False
22114,5319, Note_on_c,66,76,2,2,1,77.0,False
22115,5320, Note_on_c,65,76,2,2,1,76.0,True
22116,5320, Note_on_c,68,76,2,2,1,79.0,False
22117,5321, Note_on_c,58,76,2,2,1,67.0,False
22118,5322, Note_on_c,63,76,2,2,1,73.0,False
22119,5322, Note_on_c,66,76,2,2,1,77.0,False
22120,5323, Note_on_c,65,76,2,2,1,76.0,True
22121,5323, Note_on_c,68,76,2,2,1,79.0,False
22122,5324, Note_on_c,63,76,2,2,1,73.0,False
22123,5324, Note_on_c,66,76,2,2,1,77.0,False
22124,5325, Note_on_c,65,76,2,2,1,76.0,True
22125,5325, Note_on_c,70,76,2,2,1,81.0,False
22126,5326, Note_on_c,58,76,2,2,1,67.0,False
22127,5327, Note_on_c,63,76,2,2,1,73.0,False
22128,5327, Note_on_c,66,76,2,2,1,77.0,False
22129,5328, Note_on_c,65,76,2,2,1,76.0,True
22130,5328, Note_on_c,68,76,2,2,1,79.0,False
22131,5329, Note_on_c,58,76,2,2,1,67.0,False
22132,5330, Note_on_c,63,76,2,2,1,73.0,False
22133,5330, Note_on_c,66,76,2,2,1,77.0,False
22134,5331, Note_on_c,65,76,2,2,1,76.0,True
22135,5331, Note_on_c,68,76,2,2,1,79.0,False
22136,5332, Note_on_c,63,76,2,2,1,73.0,False
22137,5332, Note_on_c,66,76,2,2,1,77.0,False
22138,5333, Note_on_c,65,76,2,2,1,76.0,True
22139,5333, Note_on_c,70,76,2,2,1,81.0,False
22140,5334, Note_on_c,58,76,2,2,1,67.0,False
22141,5335, Note_on_c,63,76,2,2,1,73.0,False
22142,5335, Note_on_c,66,76,2,2,1,77.0,False
22143,5336, Note_on_c,65,76,2,2,1,76.0,True
22144,5336, Note_on_c,68,76,2,2,1,79.0,False
22145,5337, Note_on_c,58,76,2,2,1,67.0,False
22146,5338, Note_on_c,63,76,2,2,1,73.0,False
22147,5338, Note_on_c,66,76,2,2,1,77.0,False
22148,5339, Note_on_c,65,76,2,2,1,76.0,True
22149,5339, Note_on_c,68,76,2,2,1,79.0,False
22150,5340, Note_on_c,63,76,2,2,1,73.0,False
22151,5340, Note_on_c,66,76,2,2,1,77.0,False
22152,5341, Note_on_c,65,76,2,2,1,76.0,True
22153,5341, Note_on_c,70,76,2,2,1,81.0,False
22154,5342, Note_on_c,58,76,2,2,1,67.0,False
22155,5343, Note_on_c,63,76,2,2,1,73.0,False
22156,5343, Note_on_c,66,76,2,2,1,77.0,False
22157,5344, Note_on_c,65,76,2,2,1,76.0,True
22158,5344, Note_on_c,68,76,2,2,1,79.0,False
22159,5345, Note_on_c,58,76,2,2,1,67.0,False
22160,5346, Note_on_c,63,76,2,2,1,73.0,False
22161,5346, Note_on_c,66,76,2,2,1,77.0,False
22162,5347, Note_on_c,65,76,2,2,1,76.0,True
22163,5347, Note_on_c,68,76,2,2,1,79.0,False
22164,5348, Note_on_c,63,76,2,2,1,73.0,False
22165,5348, Note_on_c,66,76,2,2,1,77.0,False
22166,5349, Note_on_c,65,76,2,2,1,76.0,True
22167,5349, Note_on_c,70,76,2,2,1,81.0,False
22168,5350, Note_on_c,58,76,2,2,1,67.0,False
22169,5351, Note_on_c,63,76,2,2,1,73.0,False
22170,5351, Note_on_c,66,76,2,2,1,77.0,False
22171,5352, Note_on_c,65,76,2,2,1,76.0,True
22172,5352, Note_on_c,68,76,2,2,1,79.0,False
22173,5353, Note_on_c,58,76,2,2,1,67.0,False
22174,5354, Note_on_c,63,76,2,2,1,73.0,False
22175,5354, Note_on_c,66,76,2,2,1,77.0,False
22176,5355, Note_on_c,65,76,2,2,1,76.0,True
22177,5355, Note_on_c,68,76,2,2,1,79.0,False
22178,5356, Note_on_c,63,76,2,2,1,73.0,False
22179,5356, Note_on_c,66,76,2,2,1,77.0,False
22180,5357, Note_on_c,65,76,2,2,1,76.0,True
22181,5357, Note_on_c,70,76,2,2,1,81.0,False
22182,5358, Note_on_c,58,76,2,2,1,67.0,False
22183,5359, Note_on_c,63,76,2,2,1,73.0,False
22184,5359, Note_on_c,66,76,2,2,1,77.0,False
22185,5360, Note_on_c,65,76,2,2,1,76.0,True
22186,5360, Note_on_c,68,76,2,2,1,79.0,False
22187,5361, Note_on_c,58,76,2,2,1,67.0,False
22188,5362, Note_on_c,63,76,2,2,1,73.0,False
22189,5362, Note_on_c,66,76,2,2,1,77.0,False
22190,5363, Note_on_c,65,76,2,2,1,76.0,True
22191,5363, Note_on_c,68,76,2,2,1,79.0,False
22192,5364, Note_on_c,63,76,2,2,1,73.0,False
22193,5364, Note_on_c,66,76,2,2,1,77.0,False
22194,5365, Note_on_c,65,76,2,2,1,76.0,True
22195,5365, Note_on_c,70,76,2,2,1,81.0,False
22196,5366, Note_on_c,58,76,2,2,1,67.0,False
22197,5367, Note_on_c,63,76,2,2,1,73.0,False
22198,5367, Note_on_c,66,76,2,2,1,77.0,False
22199,5368, Note_on_c,65,76,2,2,1,76.0,True
22200,5368, Note_on_c,68,76,2,2,1,79.0,False
22201,5369, Note_on_c,58,76,2,2,1,67.0,False
22202,5370, Note_on_c,63,76,2,2,1,73.0,False
22203,5370, Note_on_c,66,76,2,2,1,77.0,False
22204,5371, Note_on_c,65,76,2,2,1,76.0,True
22205,5371, Note_on_c,68,76,2,2,1,79.0,False
22206,5372, Note_on_c,63,76,2,2,1,73.0,False
22207,5372, Note_on_c,66,76,2,2,1,77.0,False
22208,5373, Note_on_c,65,76,2,2,1,76.0,True
22209,5373, Note_on_c,70,76,2,2,1,81.0,False
22210,5374, Note_on_c,58,76,2,2,1,67.0,False
22211,5375, Note_on_c,63,76,2,2,1,73.0,False
22212,5375, Note_on_c,66,76,2,2,1,77.0,False
22213,5376, Note_on_c,65,76,2,2,1,76.0,True
22214,5376, Note_on_c,68,76,2,2,1,79.0,False
22215,5377, Note_on_c,58,76,2,2,1,67.0,False
22216,5378, Note_on_c,63,76,2,2,1,73.0,False
22217,5378, Note_on_c,66,76,2,2,1,77.0,False
22218,5379, Note_on_c,65,76,2,2,1,76.0,True
22219,5379, Note_on_c,68,76,2,2,1,79.0,False
22220,5380, Note_on_c,63,76,2,2,1,73.0,False
22221,5380, Note_on_c,66,76,2,2,1,77.0,False
22222,5381, Note_on_c,65,76,2,2,1,76.0,True
22223,5381, Note_on_c,70,76,2,2,1,81.0,False
22224,5382, Note_on_c,58,76,2,2,1,67.0,False
22225,5383, Note_on_c,63,76,2,2,1,73.0,False
22226,5383, Note_on_c,66,76,2,2,1,77.0,False
22227,5384, Note_on_c,65,76,2,2,1,76.0,True
22228,5384, Note_on_c,68,76,2,2,1,79.0,False
22229,5385, Note_on_c,58,76,2,2,1,67.0,False
22230,5386, Note_on_c,63,76,2,2,1,73.0,False
22231,5386, Note_on_c,66,76,2,2,1,77.0,False
22232,5387, Note_on_c,65,76,2,2,1,76.0,True
22233,5387, Note_on_c,68,76,2,2,1,79.0,False
22234,5388, Note_on_c,63,76,2,2,1,73.0,False
22235,5388, Note_on_c,66,76,2,2,1,77.0,False
22236,5389, Note_on_c,65,76,2,2,1,76.0,True
22237,5389, Note_on_c,70,76,2,2,1,81.0,False
22238,5390, Note_on_c,58,76,2,2,1,67.0,False
22239,5391, Note_on_c,63,76,2,2,1,73.0,False
22240,5391, Note_on_c,66,76,2,2,1,77.0,False
22241,5392, Note_on_c,65,76,2,2,1,76.0,True
22242,5392, Note_on_c,68,76,2,2,1,79.0,False
22243,5393, Note_on_c,58,76,2,2,1,67.0,False
22244,5394, Note_on_c,63,76,2,2,1,73.0,False
22245,5394, Note_on_c,66,76,2,2,1,77.0,False
22246,5395, Note_on_c,65,76,2,2,1,76.0,True
22247,5395, Note_on_c,68,76,2,2,1,79.0,False
22248,5396, Note_on_c,63,76,2,2,1,73.0,False
22249,5396, Note_on_c,66,76,2,2,1,77.0,False
22250,5397, Note_on_c,65,76,2,2,1,76.0,True
22251,5397, Note_on_c,70,76,2,2,1,81.0,False
22252,5398, Note_on_c,58,76,2,2,1,67.0,False
22253,5399, Note_on_c,63,76,2,2,1,73.0,False
22254,5399, Note_on_c,66,76,2,2,1,77.0,False
22255,5400, Note_on_c,65,76,2,2,1,76.0,True
22256,5400, Note_on_c,68,76,2,2,1,79.0,False
22257,5401, Note_on_c,58,76,2,3,1,67.0,False
22258,5402, Note_on_c,63,76,2,3,1,73.0,False
22259,5402, Note_on_c,68,76,2,3,1,79.0,False
22260,5403, Note_on_c,65,76,2,3,1,76.0,True
22261,5403, Note_on_c,70,76,2,3,1,81.0,False
22262,5404, Note_on_c,63,76,2,3,1,73.0,False
22263,5404, Note_on_c,68,76,2,3,1,79.0,False
22264,5405, Note_on_c,66,76,2,3,1,77.0,False
22265,5405, Note_on_c,70,76,2,3,1,81.0,False
22266,5406, Note_on_c,58,76,2,3,1,67.0,False
22267,5407, Note_on_c,63,76,2,3,1,73.0,False
22268,5407, Note_on_c,68,76,2,3,1,79.0,False
22269,5408, Note_on_c,65,76,2,3,1,76.0,True
22270,5408, Note_on_c,70,76,2,3,1,81.0,False
22271,5409, Note_on_c,58,76,2,3,1,67.0,False
22272,5410, Note_on_c,63,76,2,3,1,73.0,False
22273,5410, Note_on_c,68,76,2,3,1,79.0,False
22274,5411, Note_on_c,65,76,2,3,1,76.0,True
22275,5411, Note_on_c,70,76,2,3,1,81.0,False
22276,5412, Note_on_c,63,76,2,3,1,73.0,False
22277,5412, Note_on_c,68,76,2,3,1,79.0,False
22278,5413, Note_on_c,66,76,2,3,1,77.0,False
22279,5413, Note_on_c,70,76,2,3,1,81.0,False
22280,5414, Note_on_c,58,76,2,3,1,67.0,False
22281,5415, Note_on_c,63,76,2,3,1,73.0,False
22282,5415, Note_on_c,68,76,2,3,1,79.0,False
22283,5416, Note_on_c,65,76,2,3,1,76.0,True
22284,5416, Note_on_c,70,76,2,3,1,81.0,False
22285,5417, Note_on_c,58,76,2,3,1,67.0,False
22286,5418, Note_on_c,63,76,2,3,1,73.0,False
22287,5418, Note_on_c,68,76,2,3,1,79.0,False
22288,5419, Note_on_c,65,76,2,3,1,76.0,True
22289,5419, Note_on_c,70,76,2,3,1,81.0,False
22290,5420, Note_on_c,63,76,2,3,1,73.0,False
22291,5420, Note_on_c,68,76,2,3,1,79.0,False
22292,5421, Note_on_c,66,76,2,3,1,77.0,False
22293,5421, Note_on_c,70,76,2,3,1,81.0,False
22294,5422, Note_on_c,58,76,2,3,1,67.0,False
22295,5423, Note_on_c,63,76,2,3,1,73.0,False
22296,5423, Note_on_c,68,76,2,3,1,79.0,False
22297,5424, Note_on_c,65,76,2,3,1,76.0,True
22298,5424, Note_on_c,70,76,2,3,1,81.0,False
22299,5425, Note_on_c,58,76,2,3,1,67.0,False
22300,5426, Note_on_c,63,76,2,3,1,73.0,False
22301,5426, Note_on_c,68,76,2,3,1,79.0,False
22302,5427, Note_on_c,65,76,2,3,1,76.0,True
22303,5427, Note_on_c,70,76,2,3,1,81.0,False
22304,5428, Note_on_c,63,76,2,3,1,73.0,False
22305,5428, Note_on_c,68,76,2,3,1,79.0,False
22306,5429, Note_on_c,66,76,2,3,1,77.0,False
22307,5429, Note_on_c,70,76,2,3,1,81.0,False
22308,5430, Note_on_c,58,76,2,3,1,67.0,False
22309,5431, Note_on_c,63,76,2,3,1,73.0,False
22310,5431, Note_on_c,68,76,2,3,1,79.0,False
22311,5432, Note_on_c,65,76,2,3,1,76.0,True
22312,5432, Note_on_c,70,76,2,3,1,81.0,False
22313,5433, Note_on_c,58,76,2,3,1,67.0,False
22314,5434, Note_on_c,63,76,2,3,1,73.0,False
22315,5434, Note_on_c,68,76,2,3,1,79.0,False
22316,5435, Note_on_c,65,76,2,3,1,76.0,True
22317,5435, Note_on_c,70,76,2,3,1,81.0,False
22318,5436, Note_on_c,63,76,2,3,1,73.0,False
22319,5436, Note_on_c,68,76,2,3,1,79.0,False
22320,5437, Note_on_c,66,76,2,3,1,77.0,False
22321,5437, Note_on_c,70,76,2,3,1,81.0,False
22322,5438, Note_on_c,58,76,2,3,1,67.0,False
22323,5439, Note_on_c,63,76,2,3,1,73.0,False
22324,5439, Note_on_c,68,76,2,3,1,79.0,False
22325,5440, Note_on_c,65,76,2,3,1,76.0,True
22326,5440, Note_on_c,70,76,2,3,1,81.0,False
22327,5441, Note_on_c,58,76,2,3,1,67.0,False
22328,5442, Note_on_c,63,76,2,3,1,73.0,False
22329,5442, Note_on_c,68,76,2,3,1,79.0,False
22330,5443, Note_on_c,65,76,2,3,1,76.0,True
22331,5443, Note_on_c,70,76,2,3,1,81.0,False
22332,5444, Note_on_c,63,76,2,3,1,73.0,False
22333,5444, Note_on_c,68,76,2,3,1,79.0,False
22334,5445, Note_on_c,66,76,2,3,1,77.0,False
22335,5445, Note_on_c,70,76,2,3,1,81.0,False
22336,5446, Note_on_c,58,76,2,3,1,67.0,False
22337,5447, Note_on_c,63,76,2,3,1,73.0,False
22338,5447, Note_on_c,68,76,2,3,1,79.0,False
22339,5448, Note_on_c,65,76,2,3,1,76.0,True
22340,5448, Note_on_c,70,76,2,3,1,81.0,False
22341,5449, Note_on_c,58,76,2,3,1,67.0,False
22342,5450, Note_on_c,63,76,2,3,1,73.0,False
22343,5450, Note_on_c,68,76,2,3,1,79.0,False
22344,5451, Note_on_c,65,76,2,3,1,76.0,True
22345,5451, Note_on_c,70,76,2,3,1,81.0,False
22346,5452, Note_on_c,63,76,2,3,1,73.0,False
22347,5452, Note_on_c,68,76,2,3,1,79.0,False
22348,5453, Note_on_c,66,76,2,3,1,77.0,False
22349,5453, Note_on_c,70,76,2,3,1,81.0,False
22350,5454, Note_on_c,58,76,2,3,1,67.0,False
22351,5455, Note_on_c,63,76,2,3,1,73.0,False
22352,5455, Note_on_c,68,76,2,3,1,79.0,False
22353,5456, Note_on_c,65,76,2,3,1,76.0,True
22354,5456, Note_on_c,70,76,2,3,1,81.0,False
22355,5457, Note_on_c,58,76,2,3,1,67.0,False
22356,5458, Note_on_c,63,76,2,3,1,73.0,False
22357,5458, Note_on_c,68,76,2,3,1,79.0,False
22358,5459, Note_on_c,65,76,2,3,1,76.0,True
22359,5459, Note_on_c,70,76,2,3,1,81.0,False
22360,5460, Note_on_c,63,76,2,3,1,73.0,False
22361,5460, Note_on_c,68,76,2,3,1,79.0,False
22362,5461, Note_on_c,66,76,2,3,1,77.0,False
22363,5461, Note_on_c,70,76,2,3,1,81.0,False
22364,5462, Note_on_c,58,76,2,3,1,67.0,False
22365,5463, Note_on_c,63,76,2,3,1,73.0,False
22366,5463, Note_on_c,68,76,2,3,1,79.0,False
22367,5464, Note_on_c,65,76,2,3,1,76.0,True
22368,5464, Note_on_c,70,76,2,3,1,81.0,False
22369,5465, Note_on_c,58,76,2,3,1,67.0,False
22370,5466, Note_on_c,63,76,2,3,1,73.0,False
22371,5466, Note_on_c,68,76,2,3,1,79.0,False
22372,5467, Note_on_c,65,76,2,3,1,76.0,True
22373,5467, Note_on_c,70,76,2,3,1,81.0,False
22374,5468, Note_on_c,63,76,2,3,1,73.0,False
22375,5468, Note_on_c,68,76,2,3,1,79.0,False
22376,5469, Note_on_c,66,76,2,3,1,77.0,False
22377,5469, Note_on_c,70,76,2,3,1,81.0,False
22378,5470, Note_on_c,58,76,2,3,1,67.0,False
22379,5471, Note_on_c,63,76,2,3,1,73.0,False
22380,5471, Note_on_c,68,76,2,3,1,79.0,False
22381,5472, Note_on_c,65,76,2,3,1,76.0,True
22382,5472, Note_on_c,70,76,2,3,1,81.0,False
22383,5473, Note_on_c,58,76,2,3,1,67.0,False
22384,5474, Note_on_c,63,76,2,3,1,73.0,False
22385,5474, Note_on_c,68,76,2,3,1,79.0,False
22386,5475, Note_on_c,65,76,2,3,1,76.0,True
22387,5475, Note_on_c,70,76,2,3,1,81.0,False
22388,5476, Note_on_c,63,76,2,3,1,73.0,False
22389,5476, Note_on_c,68,76,2,3,1,79.0,False
22390,5477, Note_on_c,66,76,2,3,1,77.0,False
22391,5477, Note_on_c,70,76,2,3,1,81.0,False
22392,5478, Note_on_c,58,76,2,3,1,67.0,False
22393,5479, Note_on_c,63,76,2,3,1,73.0,False
22394,5479, Note_on_c,68,76,2,3,1,79.0,False
22395,5480, Note_on_c,65,76,2,3,1,76.0,True
22396,5480, Note_on_c,70,76,2,3,1,81.0,False
22397,5481, Note_on_c,58,76,2,3,1,67.0,False
22398,5482, Note_on_c,63,76,2,3,1,73.0,False
22399,5482, Note_on_c,68,76,2,3,1,79.0,False
22400,5483, Note_on_c,65,76,2,3,1,76.0,True
22401,5483, Note_on_c,70,76,2,3,1,81.0,False
22402,5484, Note_on_c,63,76,2,3,1,73.0,False
22403,5484, Note_on_c,68,76,2,3,1,79.0,False
22404,5485, Note_on_c,66,76,2,3,1,77.0,False
22405,5485, Note_on_c,70,76,2,3,1,81.0,False
22406,5486, Note_on_c,58,76,2,3,1,67.0,False
22407,5487, Note_on_c,63,76,2,3,1,73.0,False
22408,5487, Note_on_c,68,76,2,3,1,79.0,False
22409,5488, Note_on_c,65,76,2,3,1,76.0,True
22410,5488, Note_on_c,70,76,2,3,1,81.0,False
22411,5489, Note_on_c,58,76,2,3,1,67.0,False
22412,5490, Note_on_c,63,76,2,3,1,73.0,False
22413,5490, Note_on_c,68,76,2,3,1,79.0,False
22414,5491, Note_on_c,65,76,2,3,1,76.0,True
22415,5491, Note_on_c,70,76,2,3,1,81.0,False
22416,5492, Note_on_c,63,76,2,3,1,73.0,False
22417,5492, Note_on_c,68,76,2,3,1,79.0,False
22418,5493, Note_on_c,66,76,2,3,1,77.0,False
22419,5493, Note_on_c,70,76,2,3,1,81.0,False
22420,5494, Note_on_c,58,76,2,3,1,67.0,False
22421,5495, Note_on_c,63,76,2,3,1,73.0,False
22422,5495, Note_on_c,68,76,2,3,1,79.0,False
22423,5496, Note_on_c,65,76,2,3,1,76.0,True
22424,5496, Note_on_c,70,76,2,3,1,81.0,False
22425,5497, Note_on_c,58,76,2,3,1,67.0,False
22426,5498, Note_on_c,63,76,2,3,1,73.0,False
22427,5498, Note_on_c,68,76,2,3,1,79.0,False
22428,5499, Note_on_c,65,76,2,3,1,76.0,True
22429,5499, Note_on_c,70,76,2,3,1,81.0,False
22430,5500, Note_on_c,63,76,2,3,1,73.0,False
22431,5500, Note_on_c,68,76,2,3,1,79.0,False
22432,5501, Note_on_c,66,76,2,3,1,77.0,False
22433,5501, Note_on_c,70,76,2,3,1,81.0,False
22434,5502, Note_on_c,58,76,2,3,1,67.0,False
22435,5503, Note_on_c,63,76,2,3,1,73.0,False
22436,5503, Note_on_c,68,76,2,3,1,79.0,False
22437,5504, Note_on_c,65,76,2,3,1,76.0,True
22438,5504, Note_on_c,70,76,2,3,1,81.0,False
22439,5505, Note_on_c,58,76,2,3,1,67.0,False
22440,5506, Note_on_c,63,76,2,3,1,73.0,False
22441,5506, Note_on_c,68,76,2,3,1,79.0,False
22442,5507, Note_on_c,65,76,2,3,1,76.0,True
22443,5507, Note_on_c,70,76,2,3,1,81.0,False
22444,5508, Note_on_c,63,76,2,3,1,73.0,False
22445,5508, Note_on_c,68,76,2,3,1,79.0,False
22446,5509, Note_on_c,66,76,2,3,1,77.0,False
22447,5509, Note_on_c,70,76,2,3,1,81.0,False
22448,5510, Note_on_c,58,76,2,3,1,67.0,False
22449,5511, Note_on_c,63,76,2,3,1,73.0,False
22450,5511, Note_on_c,68,76,2,3,1,79.0,False
22451,5512, Note_on_c,65,76,2,3,1,76.0,True
22452,5512, Note_on_c,70,76,2,3,1,81.0,False
22453,5513, Note_on_c,58,76,2,3,1,67.0,False
22454,5514, Note_on_c,63,76,2,3,1,73.0,False
22455,5514, Note_on_c,68,76,2,3,1,79.0,False
22456,5515, Note_on_c,65,76,2,3,1,76.0,True
22457,5515, Note_on_c,70,76,2,3,1,81.0,False
22458,5516, Note_on_c,63,76,2,3,1,73.0,False
22459,5516, Note_on_c,68,76,2,3,1,79.0,False
22460,5517, Note_on_c,66,76,2,3,1,77.0,False
22461,5517, Note_on_c,70,76,2,3,1,81.0,False
22462,5518, Note_on_c,58,76,2,3,1,67.0,False
22463,5519, Note_on_c,63,76,2,3,1,73.0,False
22464,5519, Note_on_c,68,76,2,3,1,79.0,False
22465,5520, Note_on_c,65,76,2,3,1,76.0,True
22466,5520, Note_on_c,70,76,2,3,1,81.0,False
22467,5521, Note_on_c,58,76,2,3,1,67.0,False
22468,5522, Note_on_c,63,76,2,3,1,73.0,False
22469,5522, Note_on_c,68,76,2,3,1,79.0,False
22470,5523, Note_on_c,65,76,2,3,1,76.0,True
22471,5523, Note_on_c,70,76,2,3,1,81.0,False
22472,5524, Note_on_c,63,76,2,3,1,73.0,False
22473,5524, Note_on_c,68,76,2,3,1,79.0,False
22474,5525, Note_on_c,66,76,2,3,1,77.0,False
22475,5525, Note_on_c,70,76,2,3,1,81.0,False
22476,5526, Note_on_c,58,76,2,3,1,67.0,False
22477,5527, Note_on_c,63,76,2,3,1,73.0,False
22478,5527, Note_on_c,68,76,2,3,1,79.0,False
22479,5528, Note_on_c,65,76,2,3,1,76.0,True
22480,5528, Note_on_c,70,76,2,3,1,81.0,False
22481,5529, Note_on_c,58,76,2,3,1,67.0,False
22482,5530, Note_on_c,63,76,2,3,1,73.0,False
22483,5530, Note_on_c,68,76,2,3,1,79.0,False
22484,5531, Note_on_c,65,76,2,3,1,76.0,True
22485,5531, Note_on_c,70,76,2,3,1,81.0,False
22486,5532, Note_on_c,63,76,2,3,1,73.0,False
22487,5532, Note_on_c,68,76,2,3,1,79.0,False
22488,5533, Note_on_c,66,76,2,3,1,77.0,False
22489,5533, Note_on_c,70,76,2,3,1,81.0,False
22490,5534, Note_on_c,58,76,2,3,1,67.0,False
22491,5535, Note_on_c,63,76,2,3,1,73.0,False
22492,5535, Note_on_c,68,76,2,3,1,79.0,False
22493,5536, Note_on_c,65,76,2,3,1,76.0,True
22494,5536, Note_on_c,70,76,2,3,1,81.0,False
22495,5537, Note_on_c,58,76,2,3,1,67.0,False
22496,5538, Note_on_c,63,76,2,3,1,73.0,False
22497,5538, Note_on_c,68,76,2,3,1,79.0,False
22498,5539, Note_on_c,65,76,2,3,1,76.0,True
22499,5539, Note_on_c,70,76,2,3,1,81.0,False
22500,5540, Note_on_c,63,76,2,3,1,73.0,False
22501,5540, Note_on_c,68,76,2,3,1,79.0,False
22502,5541, Note_on_c,66,76,2,3,1,77.0,False
22503,5541, Note_on_c,70,76,2,3,1,81.0,False
22504,5542, Note_on_c,58,76,2,3,1,67.0,False
22505,5543, Note_on_c,63,76,2,3,1,73.0,False
22506,5543, Note_on_c,68,76,2,3,1,79.0,False
22507,5544, Note_on_c,65,76,2,3,1,76.0,True
22508,5544, Note_on_c,70,76,2,3,1,81.0,False
22509,5545, Note_on_c,58,76,2,3,1,67.0,False
22510,5546, Note_on_c,63,76,2,3,1,73.0,False
22511,5546, Note_on_c,68,76,2,3,1,79.0,False
22512,5547, Note_on_c,65,76,2,3,1,76.0,True
22513,5547, Note_on_c,70,76,2,3,1,81.0,False
22514,5548, Note_on_c,63,76,2,3,1,73.0,False
22515,5548, Note_on_c,68,76,2,3,1,79.0,False
22516,5549, Note_on_c,66,76,2,3,1,77.0,False
22517,5549, Note_on_c,70,76,2,3,1,81.0,False
22518,5550, Note_on_c,58,76,2,3,1,67.0,False
22519,5551, Note_on_c,63,76,2,3,1,73.0,False
22520,5551, Note_on_c,68,76,2,3,1,79.0,False
22521,5552, Note_on_c,65,76,2,3,1,76.0,True
22522,5552, Note_on_c,70,76,2,3,1,81.0,False
22523,5553, Note_on_c,58,76,2,3,1,67.0,False
22524,5554, Note_on_c,63,76,2,3,1,73.0,False
22525,5554, Note_on_c,68,76,2,3,1,79.0,False
22526,5555, Note_on_c,65,76,2,3,1,76.0,True
22527,5555, Note_on_c,70,76,2,3,1,81.0,False
22528,5556, Note_on_c,63,76,2,3,1,73.0,False
22529,5556, Note_on_c,68,76,2,3,1,79.0,False
22530,5557, Note_on_c,66,76,2,3,1,77.0,False
22531,5557, Note_on_c,70,76,2,3,1,81.0,False
22532,5558, Note_on_c,58,76,2,3,1,67.0,False
22533,5559, Note_on_c,63,76,2,3,1,73.0,False
22534,5559, Note_on_c,68,76,2,3,1,79.0,False
22535,5560, Note_on_c,65,76,2,3,1,76.0,True
22536,5560, Note_on_c,70,76,2,3,1,81.0,False
22537,5561, Note_on_c,58,76,2,3,1,67.0,False
22538,5562, Note_on_c,63,76,2,3,1,73.0,False
22539,5562, Note_on_c,68,76,2,3,1,79.0,False
22540,5563, Note_on_c,65,76,2,3,1,76.0,True
22541,5563, Note_on_c,70,76,2,3,1,81.0,False
22542,5564, Note_on_c,63,76,2,3,1,73.0,False
22543,5564, Note_on_c,68,76,2,3,1,79.0,False
22544,5565, Note_on_c,66,76,2,3,1,77.0,False
22545,5565, Note_on_c,70,76,2,3,1,81.0,False
22546,5566, Note_on_c,58,76,2,3,1,67.0,False
22547,5567, Note_on_c,63,76,2,3,1,73.0,False
22548,5567, Note_on_c,68,76,2,3,1,79.0,False
22549,5568, Note_on_c,65,76,2,3,1,76.0,True
22550,5568, Note_on_c,70,76,2,3,1,81.0,False
22551,5569, Note_on_c,58,76,2,3,1,67.0,False
22552,5570, Note_on_c,63,76,2,3,1,73.0,False
22553,5570, Note_on_c,68,76,2,3,1,79.0,False
22554,5571, Note_on_c,65,76,2,3,1,76.0,True
22555,5571, Note_on_c,70,76,2,3,1,81.0,False
22556,5572, Note_on_c,63,76,2,3,1,73.0,False
22557,5572, Note_on_c,68,76,2,3,1,79.0,False
22558,5573, Note_on_c,66,76,2,3,1,77.0,False
22559,5573, Note_on_c,70,76,2,3,1,81.0,False
22560,5574, Note_on_c,58,76,2,3,1,67.0,False
22561,5575, Note_on_c,63,76,2,3,1,73.0,False
22562,5575, Note_on_c,68,76,2,3,1,79.0,False
22563,5576, Note_on_c,65,76,2,3,1,76.0,True
22564,5576, Note_on_c,70,76,2,3,1,81.0,False
22565,5577, Note_on_c,58,76,2,3,1,67.0,False
22566,5578, Note_on_c,63,76,2,3,1,73.0,False
22567,5578, Note_on_c,68,76,2,3,1,79.0,False
22568,5579, Note_on_c,65,76,2,3,1,76.0,True
22569,5579, Note_on_c,70,76,2,3,1,81.0,False
22570,5580, Note_on_c,63,76,2,3,1,73.0,False
22571,5580, Note_on_c,68,76,2,3,1,79.0,False
22572,5581, Note_on_c,66,76,2,3,1,77.0,False
22573,5581, Note_on_c,70,76,2,3,1,81.0,False
22574,5582, Note_on_c,58,76,2,3,1,67.0,False
22575,5583, Note_on_c,63,76,2,3,1,73.0,False
22576,5583, Note_on_c,68,76,2,3,1,79.0,False
22577,5584, Note_on_c,65,76,2,3,1,76.0,True
22578,5584, Note_on_c,70,76,2,3,1,81.0,False
22579,5585, Note_on_c,58,76,2,3,1,67.0,False
22580,5586, Note_on_c,63,76,2,3,1,73.0,False
22581,5586, Note_on_c,68,76,2,3,1,79.0,False
22582,5587, Note_on_c,65,76,2,3,1,76.0,True
22583,5587, Note_on_c,70,76,2,3,1,81.0,False
22584,5588, Note_on_c,63,76,2,3,1,73.0,False
22585,5588, Note_on_c,68,76,2,3,1,79.0,False
22586,5589, Note_on_c,66,76,2,3,1,77.0,False
22587,5589, Note_on_c,70,76,2,3,1,81.0,False
22588,5590, Note_on_c,58,76,2,3,1,67.0,False
22589,5591, Note_on_c,63,76,2,3,1,73.0,False
22590,5591, Note_on_c,68,76,2,3,1,79.0,False
22591,5592, Note_on_c,65,76,2,3,1,76.0,True
22592,5592, Note_on_c,70,76,2,3,1,81.0,False
22593,5593, Note_on_c,58,76,2,3,1,67.0,False
22594,5594, Note_on_c,63,76,2,3,1,73.0,False
22595,5594, Note_on_c,68,76,2,3,1,79.0,False
22596,5595, Note_on_c,65,76,2,3,1,76.0,True
22597,5595, Note_on_c,70,76,2,3,1,81.0,False
22598,5596, Note_on_c,63,76,2,3,1,73.0,False
22599,5596, Note_on_c,68,76,2,3,1,79.0,False
22600,5597, Note_on_c,66,76,2,3,1,77.0,False
22601,5597, Note_on_c,70,76,2,3,1,81.0,False
22602,5598, Note_on_c,58,76,2,3,1,67.0,False
22603,5599, Note_on_c,63,76,2,3,1,73.0,False
22604,5599, Note_on_c,68,76,2,3,1,79.0,False
22605,5600, Note_on_c,65,76,2,3,1,76.0,True
22606,5600, Note_on_c,70,76,2,3,1,81.0,False
22607,5601, Note_on_c,58,76,2,3,1,67.0,False
22608,5602, Note_on_c,63,76,2,3,1,73.0,False
22609,5602, Note_on_c,68,76,2,3,1,79.0,False
22610,5603, Note_on_c,65,76,2,3,1,76.0,True
22611,5603, Note_on_c,70,76,2,3,1,81.0,False
22612,5604, Note_on_c,63,76,2,3,1,73.0,False
22613,5604, Note_on_c,68,76,2,3,1,79.0,False
22614,5605, Note_on_c,66,76,2,3,1,77.0,False
22615,5605, Note_on_c,70,76,2,3,1,81.0,False
22616,5606, Note_on_c,58,76,2,3,1,67.0,False
22617,5607, Note_on_c,63,76,2,3,1,73.0,False
22618,5607, Note_on_c,68,76,2,3,1,79.0,False
22619,5608, Note_on_c,65,76,2,3,1,76.0,True
22620,5608, Note_on_c,70,76,2,3,1,81.0,False
22621,5609, Note_on_c,58,76,2,3,1,67.0,False
22622,5610, Note_on_c,63,76,2,3,1,73.0,False
22623,5610, Note_on_c,68,76,2,3,1,79.0,False
22624,5611, Note_on_c,65,76,2,3,1,76.0,True
22625,5611, Note_on_c,70,76,2,3,1,81.0,False
22626,5612, Note_on_c,63,76,2,3,1,73.0,False
22627,5612, Note_on_c,68,76,2,3,1,79.0,False
22628,5613, Note_on_c,66,76,2,3,1,77.0,False
22629,5613, Note_on_c,70,76,2,3,1,81.0,False
22630,5614, Note_on_c,58,76,2,3,1,67.0,False
22631,5615, Note_on_c,63,76,2,3,1,73.0,False
22632,5615, Note_on_c,68,76,2,3,1,79.0,False
22633,5616, Note_on_c,65,76,2,3,1,76.0,True
22634,5616, Note_on_c,70,76,2,3,1,81.0,False
22635,5617, Note_on_c,58,76,2,3,1,67.0,False
22636,5618, Note_on_c,63,76,2,3,1,73.0,False
22637,5618, Note_on_c,68,76,2,3,1,79.0,False
22638,5619, Note_on_c,65,76,2,3,1,76.0,True
22639,5619, Note_on_c,70,76,2,3,1,81.0,False
22640,5620, Note_on_c,63,76,2,3,1,73.0,False
22641,5620, Note_on_c,68,76,2,3,1,79.0,False
22642,5621, Note_on_c,66,76,2,3,1,77.0,False
22643,5621, Note_on_c,70,76,2,3,1,81.0,False
22644,5622, Note_on_c,58,76,2,3,1,67.0,False
22645,5623, Note_on_c,63,76,2,3,1,73.0,False
22646,5623, Note_on_c,68,76,2,3,1,79.0,False
22647,5624, Note_on_c,65,76,2,3,1,76.0,True
22648,5624, Note_on_c,70,76,2,3,1,81.0,False
22649,5625, Note_on_c,58,76,2,3,1,67.0,False
22650,5626, Note_on_c,63,76,2,3,1,73.0,False
22651,5626, Note_on_c,68,76,2,3,1,79.0,False
22652,5627, Note_on_c,65,76,2,3,1,76.0,True
22653,5627, Note_on_c,70,76,2,3,1,81.0,False
22654,5628, Note_on_c,63,76,2,3,1,73.0,False
22655,5628, Note_on_c,68,76,2,3,1,79.0,False
22656,5629, Note_on_c,66,76,2,3,1,77.0,False
22657,5629, Note_on_c,70,76,2,3,1,81.0,False
22658,5630, Note_on_c,58,76,2,3,1,67.0,False
22659,5631, Note_on_c,63,76,2,3,1,73.0,False
22660,5631, Note_on_c,68,76,2,3,1,79.0,False
22661,5632, Note_on_c,65,76,2,3,1,76.0,True
22662,5632, Note_on_c,70,76,2,3,1,81.0,False
22663,5633, Note_on_c,58,76,2,3,1,67.0,False
22664,5634, Note_on_c,63,76,2,3,1,73.0,False
22665,5634, Note_on_c,68,76,2,3,1,79.0,False
22666,5635, Note_on_c,65,76,2,3,1,76.0,True
22667,5635, Note_on_c,70,76,2,3,1,81.0,False
22668,5636, Note_on_c,63,76,2,3,1,73.0,False
22669,5636, Note_on_c,68,76,2,3,1,79.0,False
22670,5637, Note_on_c,66,76,2,3,1,77.0,False
22671,5637, Note_on_c,70,76,2,3,1,81.0,False
22672,5638, Note_on_c,58,76,2,3,1,67.0,False
22673,5639, Note_on_c,63,76,2,3,1,73.0,False
22674,5639, Note_on_c,68,76,2,3,1,79.0,False
22675,5640, Note_on_c,65,76,2,3,1,76.0,True
22676,5640, Note_on_c,70,76,2,3,1,81.0,False
22677,5641, Note_on_c,58,76,2,3,1,67.0,False
22678,5642, Note_on_c,63,76,2,3,1,73.0,False
22679,5642, Note_on_c,68,76,2,3,1,79.0,False
22680,5643, Note_on_c,65,76,2,3,1,76.0,True
22681,5643, Note_on_c,70,76,2,3,1,81.0,False
22682,5644, Note_on_c,63,76,2,3,1,73.0,False
22683,5644, Note_on_c,68,76,2,3,1,79.0,False
22684,5645, Note_on_c,66,76,2,3,1,77.0,False
22685,5645, Note_on_c,70,76,2,3,1,81.0,False
22686,5646, Note_on_c,58,76,2,3,1,67.0,False
22687,5647, Note_on_c,63,76,2,3,1,73.0,False
22688,5647, Note_on_c,68,76,2,3,1,79.0,False
22689,5648, Note_on_c,65,76,2,3,1,76.0,True
22690,5648, Note_on_c,70,76,2,3,1,81.0,False
22691,5649, Note_on_c,58,76,2,3,1,67.0,False
22692,5650, Note_on_c,63,76,2,3,1,73.0,False
22693,5650, Note_on_c,68,76,2,3,1,79.0,False
22694,5651, Note_on_c,65,76,2,3,1,76.0,True
22695,5651, Note_on_c,70,76,2,3,1,81.0,False
22696,5652, Note_on_c,63,76,2,3,1,73.0,False
22697,5652, Note_on_c,68,76,2,3,1,79.0,False
22698,5653, Note_on_c,66,76,2,3,1,77.0,False
22699,5653, Note_on_c,70,76,2,3,1,81.0,False
22700,5654, Note_on_c,58,76,2,3,1,67.0,False
22701,5655, Note_on_c,63,76,2,3,1,73.0,False
22702,5655, Note_on_c,68,76,2,3,1,79.0,False
22703,5656, Note_on_c,65,76,2,3,1,76.0,True
22704,5656, Note_on_c,70,76,2,3,1,81.0,False
22705,5657, Note_on_c,58,76,2,3,1,67.0,False
22706,5658, Note_on_c,63,76,2,3,1,73.0,False
22707,5658, Note_on_c,68,76,2,3,1,79.0,False
22708,5659, Note_on_c,65,76,2,3,1,76.0,True
22709,5659, Note_on_c,70,76,2,3,1,81.0,False
22710,5660, Note_on_c,63,76,2,3,1,73.0,False
22711,5660, Note_on_c,68,76,2,3,1,79.0,False
22712,5661, Note_on_c,66,76,2,3,1,77.0,False
22713,5661, Note_on_c,70,76,2,3,1,81.0,False
22714,5662, Note_on_c,58,76,2,3,1,67.0,False
22715,5663, Note_on_c,63,76,2,3,1,73.0,False
22716,5663, Note_on_c,68,76,2,3,1,79.0,False
22717,5664, Note_on_c,65,76,2,3,1,76.0,True
22718,5664, Note_on_c,70,76,2,3,1,81.0,False
22719,5665, Note_on_c,58,76,2,3,1,67.0,False
22720,5666, Note_on_c,63,76,2,3,1,73.0,False
22721,5666, Note_on_c,68,76,2,3,1,79.0,False
22722,5667, Note_on_c,65,76,2,3,1,76.0,True
22723,5667, Note_on_c,70,76,2,3,1,81.0,False
22724,5668, Note_on_c,63,76,2,3,1,73.0,False
22725,5668, Note_on_c,68,76,2,3,1,79.0,False
22726,5669, Note_on_c,66,76,2,3,1,77.0,False
22727,5669, Note_on_c,70,76,2,3,1,81.0,False
22728,5670, Note_on_c,58,76,2,3,1,67.0,False
22729,5671, Note_on_c,63,76,2,3,1,73.0,False
22730,5671, Note_on_c,68,76,2,3,1,79.0,False
22731,5672, Note_on_c,65,76,2,3,1,76.0,True
22732,5672, Note_on_c,70,76,2,3,1,81.0,False
22733,5673, Note_on_c,58,76,2,3,1,67.0,False
22734,5674, Note_on_c,63,76,2,3,1,73.0,False
22735,5674, Note_on_c,68,76,2,3,1,79.0,False
22736,5675, Note_on_c,65,76,2,3,1,76.0,True
22737,5675, Note_on_c,70,76,2,3,1,81.0,False
22738,5676, Note_on_c,63,76,2,3,1,73.0,False
22739,5676, Note_on_c,68,76,2,3,1,79.0,False
22740,5677, Note_on_c,66,76,2,3,1,77.0,False
22741,5677, Note_on_c,70,76,2,3,1,81.0,False
22742,5678, Note_on_c,58,76,2,3,1,67.0,False
22743,5679, Note_on_c,63,76,2,3,1,73.0,False
22744,5679, Note_on_c,68,76,2,3,1,79.0,False
22745,5680, Note_on_c,65,76,2,3,1,76.0,True
22746,5680, Note_on_c,70,76,2,3,1,81.0,False
22747,5681, Note_on_c,58,76,2,3,1,67.0,False
22748,5682, Note_on_c,63,76,2,3,1,73.0,False
22749,5682, Note_on_c,68,76,2,3,1,79.0,False
22750,5683, Note_on_c,65,76,2,3,1,76.0,True
22751,5683, Note_on_c,70,76,2,3,1,81.0,False
22752,5684, Note_on_c,63,76,2,3,1,73.0,False
22753,5684, Note_on_c,68,76,2,3,1,79.0,False
22754,5685, Note_on_c,66,76,2,3,1,77.0,False
22755,5685, Note_on_c,70,76,2,3,1,81.0,False
22756,5686, Note_on_c,58,76,2,3,1,67.0,False
22757,5687, Note_on_c,63,76,2,3,1,73.0,False
22758,5687, Note_on_c,68,76,2,3,1,79.0,False
22759,5688, Note_on_c,65,76,2,3,1,76.0,True
22760,5688, Note_on_c,70,76,2,3,1,81.0,False
22761,5689, Note_on_c,58,76,2,3,1,67.0,False
22762,5690, Note_on_c,63,76,2,3,1,73.0,False
22763,5690, Note_on_c,68,76,2,3,1,79.0,False
22764,5691, Note_on_c,65,76,2,3,1,76.0,True
22765,5691, Note_on_c,70,76,2,3,1,81.0,False
22766,5692, Note_on_c,63,76,2,3,1,73.0,False
22767,5692, Note_on_c,68,76,2,3,1,79.0,False
22768,5693, Note_on_c,66,76,2,3,1,77.0,False
22769,5693, Note_on_c,70,76,2,3,1,81.0,False
22770,5694, Note_on_c,58,76,2,3,1,67.0,False
22771,5695, Note_on_c,63,76,2,3,1,73.0,False
22772,5695, Note_on_c,68,76,2,3,1,79.0,False
22773,5696, Note_on_c,65,76,2,3,1,76.0,True
22774,5696, Note_on_c,70,76,2,3,1,81.0,False
22775,5697, Note_on_c,58,76,2,3,1,67.0,False
22776,5698, Note_on_c,63,76,2,3,1,73.0,False
22777,5698, Note_on_c,68,76,2,3,1,79.0,False
22778,5699, Note_on_c,65,76,2,3,1,76.0,True
22779,5699, Note_on_c,70,76,2,3,1,81.0,False
22780,5700, Note_on_c,63,76,2,3,1,73.0,False
22781,5700, Note_on_c,68,76,2,3,1,79.0,False
22782,5701, Note_on_c,66,76,2,3,1,77.0,False
22783,5701, Note_on_c,70,76,2,3,1,81.0,False
22784,5702, Note_on_c,58,76,2,3,1,67.0,False
22785,5703, Note_on_c,63,76,2,3,1,73.0,False
22786,5703, Note_on_c,68,76,2,3,1,79.0,False
22787,5704, Note_on_c,65,76,2,3,1,76.0,True
22788,5704, Note_on_c,70,76,2,3,1,81.0,False
22789,5705, Note_on_c,58,76,2,3,1,67.0,False
22790,5706, Note_on_c,63,76,2,3,1,73.0,False
22791,5706, Note_on_c,68,76,2,3,1,79.0,False
22792,5707, Note_on_c,65,76,2,3,1,76.0,True
22793,5707, Note_on_c,70,76,2,3,1,81.0,False
22794,5708, Note_on_c,63,76,2,3,1,73.0,False
22795,5708, Note_on_c,68,76,2,3,1,79.0,False
22796,5709, Note_on_c,66,76,2,3,1,77.0,False
22797,5709, Note_on_c,70,76,2,3,1,81.0,False
22798,5710, Note_on_c,58,76,2,3,1,67.0,False
22799,5711, Note_on_c,63,76,2,3,1,73.0,False
22800,5711, Note_on_c,68,76,2,3,1,79.0,False
22801,5712, Note_on_c,65,76,2,3,1,76.0,True
22802,5712, Note_on_c,70,76,2,3,1,81.0,False
22803,5713, Note_on_c,58,76,2,3,1,67.0,False
22804,5714, Note_on_c,63,76,2,3,1,73.0,False
22805,5714, Note_on_c,68,76,2,3,1,79.0,False
22806,5715, Note_on_c,65,76,2,3,1,76.0,True
22807,5715, Note_on_c,70,76,2,3,1,81.0,False
22808,5716, Note_on_c,63,76,2,3,1,73.0,False
22809,5716, Note_on_c,68,76,2,3,1,79.0,False
22810,5717, Note_on_c,66,76,2,3,1,77.0,False
22811,5717, Note_on_c,70,76,2,3,1,81.0,False
22812,5718, Note_on_c,58,76,2,3,1,67.0,False
22813,5719, Note_on_c,63,76,2,3,1,73.0,False
22814,5719, Note_on_c,68,76,2,3,1,79.0,False
22815,5720, Note_on_c,65,76,2,3,1,76.0,True
22816,5720, Note_on_c,70,76,2,3,1,81.0,False
22817,5721, Note_on_c,58,76,2,3,1,67.0,False
22818,5722, Note_on_c,63,76,2,3,1,73.0,False
22819,5722, Note_on_c,68,76,2,3,1,79.0,False
22820,5723, Note_on_c,65,76,2,3,1,76.0,True
22821,5723, Note_on_c,70,76,2,3,1,81.0,False
22822,5724, Note_on_c,63,76,2,3,1,73.0,False
22823,5724, Note_on_c,68,76,2,3,1,79.0,False
22824,5725, Note_on_c,66,76,2,3,1,77.0,False
22825,5725, Note_on_c,70,76,2,3,1,81.0,False
22826,5726, Note_on_c,58,76,2,3,1,67.0,False
22827,5727, Note_on_c,63,76,2,3,1,73.0,False
22828,5727, Note_on_c,68,76,2,3,1,79.0,False
22829,5728, Note_on_c,65,76,2,3,1,76.0,True
22830,5728, Note_on_c,70,76,2,3,1,81.0,False
22831,5729, Note_on_c,58,76,2,3,1,67.0,False
22832,5730, Note_on_c,63,76,2,3,1,73.0,False
22833,5730, Note_on_c,68,76,2,3,1,79.0,False
22834,5731, Note_on_c,65,76,2,3,1,76.0,True
22835,5731, Note_on_c,70,76,2,3,1,81.0,False
22836,5732, Note_on_c,63,76,2,3,1,73.0,False
22837,5732, Note_on_c,68,76,2,3,1,79.0,False
22838,5733, Note_on_c,66,76,2,3,1,77.0,False
22839,5733, Note_on_c,70,76,2,3,1,81.0,False
22840,5734, Note_on_c,58,76,2,3,1,67.0,False
22841,5735, Note_on_c,63,76,2,3,1,73.0,False
22842,5735, Note_on_c,68,76,2,3,1,79.0,False
22843,5736, Note_on_c,65,76,2,3,1,76.0,True
22844,5736, Note_on_c,70,76,2,3,1,81.0,False
22845,5737, Note_on_c,58,76,2,3,1,67.0,False
22846,5738, Note_on_c,63,76,2,3,1,73.0,False
22847,5738, Note_on_c,68,76,2,3,1,79.0,False
22848,5739, Note_on_c,65,76,2,3,1,76.0,True
22849,5739, Note_on_c,70,76,2,3,1,81.0,False
22850,5740, Note_on_c,63,76,2,3,1,73.0,False
22851,5740, Note_on_c,68,76,2,3,1,79.0,False
22852,5741, Note_on_c,66,76,2,3,1,77.0,False
22853,5741, Note_on_c,70,76,2,3,1,81.0,False
22854,5742, Note_on_c,58,76,2,3,1,67.0,False
22855,5743, Note_on_c,63,76,2,3,1,73.0,False
22856,5743, Note_on_c,68,76,2,3,1,79.0,False
22857,5744, Note_on_c,65,76,2,3,1,76.0,True
22858,5744, Note_on_c,70,76,2,3,1,81.0,False
22859,5745, Note_on_c,58,76,2,3,1,67.0,False
22860,5746, Note_on_c,63,76,2,3,1,73.0,False
22861,5746, Note_on_c,68,76,2,3,1,79.0,False
22862,5747, Note_on_c,65,76,2,3,1,76.0,True
22863,5747, Note_on_c,70,76,2,3,1,81.0,False
22864,5748, Note_on_c,63,76,2,3,1,73.0,False
22865,5748, Note_on_c,68,76,2,3,1,79.0,False
22866,5749, Note_on_c,66,76,2,3,1,77.0,False
22867,5749, Note_on_c,70,76,2,3,1,81.0,False
22868,5750, Note_on_c,58,76,2,3,1,67.0,False
22869,5751, Note_on_c,63,76,2,3,1,73.0,False
22870,5751, Note_on_c,68,76,2,3,1,79.0,False
22871,5752, Note_on_c,65,76,2,3,1,76.0,True
22872,5752, Note_on_c,70,76,2,3,1,81.0,False
22873,5753, Note_on_c,58,76,2,3,1,67.0,False
22874,5754, Note_on_c,63,76,2,3,1,73.0,False
22875,5754, Note_on_c,68,76,2,3,1,79.0,False
22876,5755, Note_on_c,65,76,2,3,1,76.0,True
22877,5755, Note_on_c,70,76,2,3,1,81.0,False
22878,5756, Note_on_c,63,76,2,3,1,73.0,False
22879,5756, Note_on_c,68,76,2,3,1,79.0,False
22880,5757, Note_on_c,66,76,2,3,1,77.0,False
22881,5757, Note_on_c,70,76,2,3,1,81.0,False
22882,5758, Note_on_c,58,76,2,3,1,67.0,False
22883,5759, Note_on_c,63,76,2,3,1,73.0,False
22884,5759, Note_on_c,68,76,2,3,1,79.0,False
22885,5760, Note_on_c,65,76,2,3,1,76.0,True
22886,5760, Note_on_c,70,76,2,3,1,81.0,False
22887,5761, Note_on_c,58,76,2,3,1,67.0,False
22888,5762, Note_on_c,63,76,2,3,1,73.0,False
22889,5762, Note_on_c,68,76,2,3,1,79.0,False
22890,5763, Note_on_c,65,76,2,3,1,76.0,True
22891,5763, Note_on_c,70,76,2,3,1,81.0,False
22892,5764, Note_on_c,63,76,2,3,1,73.0,False
22893,5764, Note_on_c,68,76,2,3,1,79.0,False
22894,5765, Note_on_c,66,76,2,3,1,77.0,False
22895,5765, Note_on_c,70,76,2,3,1,81.0,False
22896,5766, Note_on_c,58,76,2,3,1,67.0,False
22897,5767, Note_on_c,63,76,2,3,1,73.0,False
22898,5767, Note_on_c,68,76,2,3,1,79.0,False
22899,5768, Note_on_c,65,76,2,3,1,76.0,True
22900,5768, Note_on_c,70,76,2,3,1,81.0,False
22901,5769, Note_on_c,58,76,2,3,1,67.0,False
22902,5770, Note_on_c,63,76,2,3,1,73.0,False
22903,5770, Note_on_c,68,76,2,3,1,79.0,False
22904,5771, Note_on_c,65,76,2,3,1,76.0,True
22905,5771, Note_on_c,70,76,2,3,1,81.0,False
22906,5772, Note_on_c,63,76,2,3,1,73.0,False
22907,5772, Note_on_c,68,76,2,3,1,79.0,False
22908,5773, Note_on_c,66,76,2,3,1,77.0,False
22909,5773, Note_on_c,70,76,2,3,1,81.0,False
22910,5774, Note_on_c,58,76,2,3,1,67.0,False
22911,5775, Note_on_c,63,76,2,3,1,73.0,False
22912,5775, Note_on_c,68,76,2,3,1,79.0,False
22913,5776, Note_on_c,65,76,2,3,1,76.0,True
22914,5776, Note_on_c,70,76,2,3,1,81.0,False
22915,5777, Note_on_c,58,76,2,3,1,67.0,False
22916,5778, Note_on_c,63,76,2,3,1,73.0,False
22917,5778, Note_on_c,68,76,2,3,1,79.0,False
22918,5779, Note_on_c,65,76,2,3,1,76.0,True
22919,5779, Note_on_c,70,76,2,3,1,81.0,False
22920,5780, Note_on_c,63,76,2,3,1,73.0,False
22921,5780, Note_on_c,68,76,2,3,1,79.0,False
22922,5781, Note_on_c,66,76,2,3,1,77.0,False
22923,5781, Note_on_c,70,76,2,3,1,81.0,False
22924,5782, Note_on_c,58,76,2,3,1,67.0,False
22925,5783, Note_on_c,63,76,2,3,1,73.0,False
22926,5783, Note_on_c,68,76,2,3,1,79.0,False
22927,5784, Note_on_c,65,76,2,3,1,76.0,True
22928,5784, Note_on_c,70,76,2,3,1,81.0,False
22929,5785, Note_on_c,58,76,2,3,1,67.0,False
22930,5786, Note_on_c,63,76,2,3,1,73.0,False
22931,5786, Note_on_c,68,76,2,3,1,79.0,False
22932,5787, Note_on_c,65,76,2,3,1,76.0,True
22933,5787, Note_on_c,70,76,2,3,1,81.0,False
22934,5788, Note_on_c,63,76,2,3,1,73.0,False
22935,5788, Note_on_c,68,76,2,3,1,79.0,False
22936,5789, Note_on_c,66,76,2,3,1,77.0,False
22937,5789, Note_on_c,70,76,2,3,1,81.0,False
22938,5790, Note_on_c,58,76,2,3,1,67.0,False
22939,5791, Note_on_c,63,76,2,3,1,73.0,False
22940,5791, Note_on_c,68,76,2,3,1,79.0,False
22941,5792, Note_on_c,65,76,2,3,1,76.0,True
22942,5792, Note_on_c,70,76,2,3,1,81.0,False
22943,5793, Note_on_c,58,76,2,3,1,67.0,False
22944,5794, Note_on_c,63,76,2,3,1,73.0,False
22945,5794, Note_on_c,68,76,2,3,1,79.0,False
22946,5795, Note_on_c,65,76,2,3,1,76.0,True
22947,5795, Note_on_c,70,76,2,3,1,81.0,False
22948,5796, Note_on_c,63,76,2,3,1,73.0,False
22949,5796, Note_on_c,68,76,2,3,1,79.0,False
22950,5797, Note_on_c,66,76,2,3,1,77.0,False
22951,5797, Note_on_c,70,76,2,3,1,81.0,False
22952,5798, Note_on_c,58,76,2,3,1,67.0,False
22953,5799, Note_on_c,63,76,2,3,1,73.0,False
22954,5799, Note_on_c,68,76,2,3,1,79.0,False
22955,5800, Note_on_c,65,76,2,3,1,76.0,True
22956,5800, Note_on_c,70,76,2,3,1,81.0,False
22957,5801, Note_on_c,58,76,2,3,1,67.0,False
22958,5802, Note_on_c,63,76,2,3,1,73.0,False
22959,5802, Note_on_c,68,76,2,3,1,79.0,False
22960,5803, Note_on_c,65,76,2,3,1,76.0,True
22961,5803, Note_on_c,70,76,2,3,1,81.0,False
22962,5804, Note_on_c,63,76,2,3,1,73.0,False
22963,5804, Note_on_c,68,76,2,3,1,79.0,False
22964,5805, Note_on_c,66,76,2,3,1,77.0,False
22965,5805, Note_on_c,70,76,2,3,1,81.0,False
22966,5806, Note_on_c,58,76,2,3,1,67.0,False
22967,5807, Note_on_c,63,76,2,3,1,73.0,False
22968,5807, Note_on_c,68,76,2,3,1,79.0,False
22969,5808, Note_on_c,65,76,2,3,1,76.0,True
22970,5808, Note_on_c,70,76,2,3,1,81.0,False
22971,5809, Note_on_c,58,76,2,3,1,67.0,False
22972,5810, Note_on_c,63,76,2,3,1,73.0,False
22973,5810, Note_on_c,68,76,2,3,1,79.0,False
22974,5811, Note_on_c,65,76,2,3,1,76.0,True
22975,5811, Note_on_c,70,76,2,3,1,81.0,False
22976,5812, Note_on_c,63,76,2,3,1,73.0,False
22977,5812, Note_on_c,68,76,2,3,1,79.0,False
22978,5813, Note_on_c,66,76,2,3,1,77.0,False
22979,5813, Note_on_c,70,76,2,3,1,81.0,False
22980,5814, Note_on_c,58,76,2,3,1,67.0,False
22981,5815, Note_on_c,63,76,2,3,1,73.0,False
22982,5815, Note_on_c,68,76,2,3,1,79.0,False
22983,5816, Note_on_c,65,76,2,3,1,76.0,True
22984,5816, Note_on_c,70,76,2,3,1,81.0,False
22985,5817, Note_on_c,58,76,2,3,1,67.0,False
22986,5818, Note_on_c,63,76,2,3,1,73.0,False
22987,5818, Note_on_c,68,76,2,3,1,79.0,False
22988,5819, Note_on_c,65,76,2,3,1,76.0,True
22989,5819, Note_on_c,70,76,2,3,1,81.0,False
22990,5820, Note_on_c,63,76,2,3,1,73.0,False
22991,5820, Note_on_c,68,76,2,3,1,79.0,False
22992,5821, Note_on_c,66,76,2,3,1,77.0,False
22993,5821, Note_on_c,70,76,2,3,1,81.0,False
22994,5822, Note_on_c,58,76,2,3,1,67.0,False
22995,5823, Note_on_c,63,76,2,3,1,73.0,False
22996,5823, Note_on_c,68,76,2,3,1,79.0,False
22997,5824, Note_on_c,65,76,2,3,1,76.0,True
22998,5824, Note_on_c,70,76,2,3,1,81.0,False
22999,5825, Note_on_c,58,76,2,3,1,67.0,False
23000,5826, Note_on_c,63,76,2,3,1,73.0,False
23001,5826, Note_on_c,68,76,2,3,1,79.0,False
23002,5827, Note_on_c,65,76,2,3,1,76.0,True
23003,5827, Note_on_c,70,76,2,3,1,81.0,False
23004,5828, Note_on_c,63,76,2,3,1,73.0,False
23005,5828, Note_on_c,68,76,2,3,1,79.0,False
23006,5829, Note_on_c,66,76,2,3,1,77.0,False
23007,5829, Note_on_c,70,76,2,3,1,81.0,False
23008,5830, Note_on_c,58,76,2,3,1,67.0,False
23009,5831, Note_on_c,63,76,2,3,1,73.0,False
23010,5831, Note_on_c,68,76,2,3,1,79.0,False
23011,5832, Note_on_c,65,76,2,3,1,76.0,True
23012,5832, Note_on_c,70,76,2,3,1,81.0,False
23013,5833, Note_on_c,58,76,2,3,1,67.0,False
23014,5834, Note_on_c,63,76,2,3,1,73.0,False
23015,5834, Note_on_c,68,76,2,3,1,79.0,False
23016,5835, Note_on_c,65,76,2,3,1,76.0,True
23017,5835, Note_on_c,70,76,2,3,1,81.0,False
23018,5836, Note_on_c,63,76,2,3,1,73.0,False
23019,5836, Note_on_c,68,76,2,3,1,79.0,False
23020,5837, Note_on_c,66,76,2,3,1,77.0,False
23021,5837, Note_on_c,70,76,2,3,1,81.0,False
23022,5838, Note_on_c,58,76,2,3,1,67.0,False
23023,5839, Note_on_c,63,76,2,3,1,73.0,False
23024,5839, Note_on_c,68,76,2,3,1,79.0,False
23025,5840, Note_on_c,65,76,2,3,1,76.0,True
23026,5840, Note_on_c,70,76,2,3,1,81.0,False
23027,5841, Note_on_c,58,76,2,3,1,67.0,False
23028,5842, Note_on_c,63,76,2,3,1,73.0,False
23029,5842, Note_on_c,68,76,2,3,1,79.0,False
23030,5843, Note_on_c,65,76,2,3,1,76.0,True
23031,5843, Note_on_c,70,76,2,3,1,81.0,False
23032,5844, Note_on_c,63,76,2,3,1,73.0,False
23033,5844, Note_on_c,68,76,2,3,1,79.0,False
23034,5845, Note_on_c,66,76,2,3,1,77.0,False
23035,5845, Note_on_c,70,76,2,3,1,81.0,False
23036,5846, Note_on_c,58,76,2,3,1,67.0,False
23037,5847, Note_on_c,63,76,2,3,1,73.0,False
23038,5847, Note_on_c,68,76,2,3,1,79.0,False
23039,5848, Note_on_c,65,76,2,3,1,76.0,True
23040,5848, Note_on_c,70,76,2,3,1,81.0,False
23041,5849, Note_on_c,58,76,2,3,1,67.0,False
23042,5850, Note_on_c,63,76,2,3,1,73.0,False
23043,5850, Note_on_c,68,76,2,3,1,79.0,False
23044,5851, Note_on_c,65,76,2,3,1,76.0,True
23045,5851, Note_on_c,70,76,2,3,1,81.0,False
23046,5852, Note_on_c,63,76,2,3,1,73.0,False
23047,5852, Note_on_c,68,76,2,3,1,79.0,False
23048,5853, Note_on_c,66,76,2,3,1,77.0,False
23049,5853, Note_on_c,70,76,2,3,1,81.0,False
23050,5854, Note_on_c,58,76,2,3,1,67.0,False
23051,5855, Note_on_c,63,76,2,3,1,73.0,False
23052,5855, Note_on_c,68,76,2,3,1,79.0,False
23053,5856, Note_on_c,65,76,2,3,1,76.0,True
23054,5856, Note_on_c,70,76,2,3,1,81.0,False
23055,5857, Note_on_c,58,76,2,3,1,67.0,False
23056,5858, Note_on_c,63,76,2,3,1,73.0,False
23057,5858, Note_on_c,68,76,2,3,1,79.0,False
23058,5859, Note_on_c,65,76,2,3,1,76.0,True
23059,5859, Note_on_c,70,76,2,3,1,81.0,False
23060,5860, Note_on_c,63,76,2,3,1,73.0,False
23061,5860, Note_on_c,68,76,2,3,1,79.0,False
23062,5861, Note_on_c,66,76,2,3,1,77.0,False
23063,5861, Note_on_c,70,76,2,3,1,81.0,False
23064,5862, Note_on_c,58,76,2,3,1,67.0,False
23065,5863, Note_on_c,63,76,2,3,1,73.0,False
23066,5863, Note_on_c,68,76,2,3,1,79.0,False
23067,5864, Note_on_c,65,76,2,3,1,76.0,True
23068,5864, Note_on_c,70,76,2,3,1,81.0,False
23069,5865, Note_on_c,58,76,2,3,1,67.0,False
23070,5866, Note_on_c,63,76,2,3,1,73.0,False
23071,5866, Note_on_c,68,76,2,3,1,79.0,False
23072,5867, Note_on_c,65,76,2,3,1,76.0,True
23073,5867, Note_on_c,70,76,2,3,1,81.0,False
23074,5868, Note_on_c,63,76,2,3,1,73.0,False
23075,5868, Note_on_c,68,76,2,3,1,79.0,False
23076,5869, Note_on_c,66,76,2,3,1,77.0,False
23077,5869, Note_on_c,70,76,2,3,1,81.0,False
23078,5870, Note_on_c,58,76,2,3,1,67.0,False
23079,5871, Note_on_c,63,76,2,3,1,73.0,False
23080,5871, Note_on_c,68,76,2,3,1,79.0,False
23081,5872, Note_on_c,65,76,2,3,1,76.0,True
23082,5872, Note_on_c,70,76,2,3,1,81.0,False
23083,5873, Note_on_c,58,76,2,3,1,67.0,False
23084,5874, Note_on_c,63,76,2,3,1,73.0,False
23085,5874, Note_on_c,68,76,2,3,1,79.0,False
23086,5875, Note_on_c,65,76,2,3,1,76.0,True
23087,5875, Note_on_c,70,76,2,3,1,81.0,False
23088,5876, Note_on_c,63,76,2,3,1,73.0,False
23089,5876, Note_on_c,68,76,2,3,1,79.0,False
23090,5877, Note_on_c,66,76,2,3,1,77.0,False
23091,5877, Note_on_c,70,76,2,3,1,81.0,False
23092,5878, Note_on_c,58,76,2,3,1,67.0,False
23093,5879, Note_on_c,63,76,2,3,1,73.0,False
23094,5879, Note_on_c,68,76,2,3,1,79.0,False
23095,5880, Note_on_c,65,76,2,3,1,76.0,True
23096,5880, Note_on_c,70,76,2,3,1,81.0,False
23097,5881, Note_on_c,58,76,2,3,1,67.0,False
23098,5882, Note_on_c,63,76,2,3,1,73.0,False
23099,5882, Note_on_c,68,76,2,3,1,79.0,False
23100,5883, Note_on_c,65,76,2,3,1,76.0,True
23101,5883, Note_on_c,70,76,2,3,1,81.0,False
23102,5884, Note_on_c,63,76,2,3,1,73.0,False
23103,5884, Note_on_c,68,76,2,3,1,79.0,False
23104,5885, Note_on_c,66,76,2,3,1,77.0,False
23105,5885, Note_on_c,70,76,2,3,1,81.0,False
23106,5886, Note_on_c,58,76,2,3,1,67.0,False
23107,5887, Note_on_c,63,76,2,3,1,73.0,False
23108,5887, Note_on_c,68,76,2,3,1,79.0,False
23109,5888, Note_on_c,65,76,2,3,1,76.0,True
23110,5888, Note_on_c,70,76,2,3,1,81.0,False
23111,5889, Note_on_c,58,76,2,3,1,67.0,False
23112,5890, Note_on_c,63,76,2,3,1,73.0,False
23113,5890, Note_on_c,68,76,2,3,1,79.0,False
23114,5891, Note_on_c,65,76,2,3,1,76.0,True
23115,5891, Note_on_c,70,76,2,3,1,81.0,False
23116,5892, Note_on_c,63,76,2,3,1,73.0,False
23117,5892, Note_on_c,68,76,2,3,1,79.0,False
23118,5893, Note_on_c,66,76,2,3,1,77.0,False
23119,5893, Note_on_c,70,76,2,3,1,81.0,False
23120,5894, Note_on_c,58,76,2,3,1,67.0,False
23121,5895, Note_on_c,63,76,2,3,1,73.0,False
23122,5895, Note_on_c,68,76,2,3,1,79.0,False
23123,5896, Note_on_c,65,76,2,3,1,76.0,True
23124,5896, Note_on_c,70,76,2,3,1,81.0,False
23125,5897, Note_on_c,58,76,2,3,1,67.0,False
23126,5898, Note_on_c,63,76,2,3,1,73.0,False
23127,5898, Note_on_c,68,76,2,3,1,79.0,False
23128,5899, Note_on_c,65,76,2,3,1,76.0,True
23129,5899, Note_on_c,70,76,2,3,1,81.0,False
23130,5900, Note_on_c,63,76,2,3,1,73.0,False
23131,5900, Note_on_c,68,76,2,3,1,79.0,False
23132,5901, Note_on_c,66,76,2,3,1,77.0,False
23133,5901, Note_on_c,70,76,2,3,1,81.0,False
23134,5902, Note_on_c,58,76,2,3,1,67.0,False
23135,5903, Note_on_c,63,76,2,3,1,73.0,False
23136,5903, Note_on_c,68,76,2,3,1,79.0,False
23137,5904, Note_on_c,65,76,2,3,1,76.0,True
23138,5904, Note_on_c,70,76,2,3,1,81.0,False
23139,5905, Note_on_c,58,76,2,3,1,67.0,False
23140,5906, Note_on_c,63,76,2,3,1,73.0,False
23141,5906, Note_on_c,68,76,2,3,1,79.0,False
23142,5907, Note_on_c,65,76,2,3,1,76.0,True
23143,5907, Note_on_c,70,76,2,3,1,81.0,False
23144,5908, Note_on_c,63,76,2,3,1,73.0,False
23145,5908, Note_on_c,68,76,2,3,1,79.0,False
23146,5909, Note_on_c,66,76,2,3,1,77.0,False
23147,5909, Note_on_c,70,76,2,3,1,81.0,False
23148,5910, Note_on_c,58,76,2,3,1,67.0,False
23149,5911, Note_on_c,63,76,2,3,1,73.0,False
23150,5911, Note_on_c,68,76,2,3,1,79.0,False
23151,5912, Note_on_c,65,76,2,3,1,76.0,True
23152,5912, Note_on_c,70,76,2,3,1,81.0,False
23153,5913, Note_on_c,58,76,2,3,1,67.0,False
23154,5914, Note_on_c,63,76,2,3,1,73.0,False
23155,5914, Note_on_c,68,76,2,3,1,79.0,False
23156,5915, Note_on_c,65,76,2,3,1,76.0,True
23157,5915, Note_on_c,70,76,2,3,1,81.0,False
23158,5916, Note_on_c,63,76,2,3,1,73.0,False
23159,5916, Note_on_c,68,76,2,3,1,79.0,False
23160,5917, Note_on_c,66,76,2,3,1,77.0,False
23161,5917, Note_on_c,70,76,2,3,1,81.0,False
23162,5918, Note_on_c,58,76,2,3,1,67.0,False
23163,5919, Note_on_c,63,76,2,3,1,73.0,False
23164,5919, Note_on_c,68,76,2,3,1,79.0,False
23165,5920, Note_on_c,65,76,2,3,1,76.0,True
23166,5920, Note_on_c,70,76,2,3,1,81.0,False
23167,5921, Note_on_c,58,76,2,3,1,67.0,False
23168,5922, Note_on_c,63,76,2,3,1,73.0,False
23169,5922, Note_on_c,68,76,2,3,1,79.0,False
23170,5923, Note_on_c,65,76,2,3,1,76.0,True
23171,5923, Note_on_c,70,76,2,3,1,81.0,False
23172,5924, Note_on_c,63,76,2,3,1,73.0,False
23173,5924, Note_on_c,68,76,2,3,1,79.0,False
23174,5925, Note_on_c,66,76,2,3,1,77.0,False
23175,5925, Note_on_c,70,76,2,3,1,81.0,False
23176,5926, Note_on_c,58,76,2,3,1,67.0,False
23177,5927, Note_on_c,63,76,2,3,1,73.0,False
23178,5927, Note_on_c,68,76,2,3,1,79.0,False
23179,5928, Note_on_c,65,76,2,3,1,76.0,True
23180,5928, Note_on_c,70,76,2,3,1,81.0,False
23181,5929, Note_on_c,58,76,2,3,1,67.0,False
23182,5930, Note_on_c,63,76,2,3,1,73.0,False
23183,5930, Note_on_c,68,76,2,3,1,79.0,False
23184,5931, Note_on_c,65,76,2,3,1,76.0,True
23185,5931, Note_on_c,70,76,2,3,1,81.0,False
23186,5932, Note_on_c,63,76,2,3,1,73.0,False
23187,5932, Note_on_c,68,76,2,3,1,79.0,False
23188,5933, Note_on_c,66,76,2,3,1,77.0,False
23189,5933, Note_on_c,70,76,2,3,1,81.0,False
23190,5934, Note_on_c,58,76,2,3,1,67.0,False
23191,5935, Note_on_c,63,76,2,3,1,73.0,False
23192,5935, Note_on_c,68,76,2,3,1,79.0,False
23193,5936, Note_on_c,65,76,2,3,1,76.0,True
23194,5936, Note_on_c,70,76,2,3,1,81.0,False
23195,5937, Note_on_c,58,76,2,3,1,67.0,False
23196,5938, Note_on_c,63,76,2,3,1,73.0,False
23197,5938, Note_on_c,68,76,2,3,1,79.0,False
23198,5939, Note_on_c,65,76,2,3,1,76.0,True
23199,5939, Note_on_c,70,76,2,3,1,81.0,False
23200,5940, Note_on_c,63,76,2,3,1,73.0,False
23201,5940, Note_on_c,68,76,2,3,1,79.0,False
23202,5941, Note_on_c,66,76,2,3,1,77.0,False
23203,5941, Note_on_c,70,76,2,3,1,81.0,False
23204,5942, Note_on_c,58,76,2,3,1,67.0,False
23205,5943, Note_on_c,63,76,2,3,1,73.0,False
23206,5943, Note_on_c,68,76,2,3,1,79.0,False
23207,5944, Note_on_c,65,76,2,3,1,76.0,True
23208,5944, Note_on_c,70,76,2,3,1,81.0,False
23209,5945, Note_on_c,58,76,2,3,1,67.0,False
23210,5946, Note_on_c,63,76,2,3,1,73.0,False
23211,5946, Note_on_c,68,76,2,3,1,79.0,False
23212,5947, Note_on_c,65,76,2,3,1,76.0,True
23213,5947, Note_on_c,70,76,2,3,1,81.0,False
23214,5948, Note_on_c,63,76,2,3,1,73.0,False
23215,5948, Note_on_c,68,76,2,3,1,79.0,False
23216,5949, Note_on_c,66,76,2,3,1,77.0,False
23217,5949, Note_on_c,70,76,2,3,1,81.0,False
23218,5950, Note_on_c,58,76,2,3,1,67.0,False
23219,5951, Note_on_c,63,76,2,3,1,73.0,False
23220,5951, Note_on_c,68,76,2,3,1,79.0,False
23221,5952, Note_on_c,65,76,2,3,1,76.0,True
23222,5952, Note_on_c,70,76,2,3,1,81.0,False
23223,5953, Note_on_c,58,76,2,3,1,67.0,False
23224,5954, Note_on_c,63,76,2,3,1,73.0,False
23225,5954, Note_on_c,68,76,2,3,1,79.0,False
23226,5955, Note_on_c,65,76,2,3,1,76.0,True
23227,5955, Note_on_c,70,76,2,3,1,81.0,False
23228,5956, Note_on_c,63,76,2,3,1,73.0,False
23229,5956, Note_on_c,68,76,2,3,1,79.0,False
23230,5957, Note_on_c,66,76,2,3,1,77.0,False
23231,5957, Note_on_c,70,76,2,3,1,81.0,False
23232,5958, Note_on_c,58,76,2,3,1,67.0,False
23233,5959, Note_on_c,63,76,2,3,1,73.0,False
23234,5959, Note_on_c,68,76,2,3,1,79.0,False
23235,5960, Note_on_c,65,76,2,3,1,76.0,True
23236,5960, Note_on_c,70,76,2,3,1,81.0,False
23237,5961, Note_on_c,58,76,2,3,1,67.0,False
23238,5962, Note_on_c,63,76,2,3,1,73.0,False
23239,5962, Note_on_c,68,76,2,3,1,79.0,False
23240,5963, Note_on_c,65,76,2,3,1,76.0,True
23241,5963, Note_on_c,70,76,2,3,1,81.0,False
23242,5964, Note_on_c,63,76,2,3,1,73.0,False
23243,5964, Note_on_c,68,76,2,3,1,79.0,False
23244,5965, Note_on_c,66,76,2,3,1,77.0,False
23245,5965, Note_on_c,70,76,2,3,1,81.0,False
23246,5966, Note_on_c,58,76,2,3,1,67.0,False
23247,5967, Note_on_c,63,76,2,3,1,73.0,False
23248,5967, Note_on_c,68,76,2,3,1,79.0,False
23249,5968, Note_on_c,65,76,2,3,1,76.0,True
23250,5968, Note_on_c,70,76,2,3,1,81.0,False
23251,5969, Note_on_c,58,76,2,3,1,67.0,False
23252,5970, Note_on_c,63,76,2,3,1,73.0,False
23253,5970, Note_on_c,68,76,2,3,1,79.0,False
23254,5971, Note_on_c,65,76,2,3,1,76.0,True
23255,5971, Note_on_c,70,76,2,3,1,81.0,False
23256,5972, Note_on_c,63,76,2,3,1,73.0,False
23257,5972, Note_on_c,68,76,2,3,1,79.0,False
23258,5973, Note_on_c,66,76,2,3,1,77.0,False
23259,5973, Note_on_c,70,76,2,3,1,81.0,False
23260,5974, Note_on_c,58,76,2,3,1,67.0,False
23261,5975, Note_on_c,63,76,2,3,1,73.0,False
23262,5975, Note_on_c,68,76,2,3,1,79.0,False
23263,5976, Note_on_c,65,76,2,3,1,76.0,True
23264,5976, Note_on_c,70,76,2,3,1,81.0,False
23265,5977, Note_on_c,58,76,2,3,1,67.0,False
23266,5978, Note_on_c,63,76,2,3,1,73.0,False
23267,5978, Note_on_c,68,76,2,3,1,79.0,False
23268,5979, Note_on_c,65,76,2,3,1,76.0,True
23269,5979, Note_on_c,70,76,2,3,1,81.0,False
23270,5980, Note_on_c,63,76,2,3,1,73.0,False
23271,5980, Note_on_c,68,76,2,3,1,79.0,False
23272,5981, Note_on_c,66,76,2,3,1,77.0,False
23273,5981, Note_on_c,70,76,2,3,1,81.0,False
23274,5982, Note_on_c,58,76,2,3,1,67.0,False
23275,5983, Note_on_c,63,76,2,3,1,73.0,False
23276,5983, Note_on_c,68,76,2,3,1,79.0,False
23277,5984, Note_on_c,65,76,2,3,1,76.0,True
23278,5984, Note_on_c,70,76,2,3,1,81.0,False
23279,5985, Note_on_c,58,76,2,3,1,67.0,False
23280,5986, Note_on_c,63,76,2,3,1,73.0,False
23281,5986, Note_on_c,68,76,2,3,1,79.0,False
23282,5987, Note_on_c,65,76,2,3,1,76.0,True
23283,5987, Note_on_c,70,76,2,3,1,81.0,False
23284,5988, Note_on_c,63,76,2,3,1,73.0,False
23285,5988, Note_on_c,68,76,2,3,1,79.0,False
23286,5989, Note_on_c,66,76,2,3,1,77.0,False
23287,5989, Note_on_c,70,76,2,3,1,81.0,False
23288,5990, Note_on_c,58,76,2,3,1,67.0,False
23289,5991, Note_on_c,63,76,2,3,1,73.0,False
23290,5991, Note_on_c,68,76,2,3,1,79.0,False
23291,5992, Note_on_c,65,76,2,3,1,76.0,True
23292,5992, Note_on_c,70,76,2,3,1,81.0,False
23293,5993, Note_on_c,58,76,2,3,1,67.0,False
23294,5994, Note_on_c,63,76,2,3,1,73.0,False
23295,5994, Note_on_c,68,76,2,3,1,79.0,False
23296,5995, Note_on_c,65,76,2,3,1,76.0,True
23297,5995, Note_on_c,70,76,2,3,1,81.0,False
23298,5996, Note_on_c,63,76,2,3,1,73.0,False
23299,5996, Note_on_c,68,76,2,3,1,79.0,False
23300,5997, Note_on_c,66,76,2,3,1,77.0,False
23301,5997, Note_on_c,70,76,2,3,1,81.0,False
23302,5998, Note_on_c,58,76,2,3,1,67.0,False
23303,5999, Note_on_c,63,76,2,3,1,73.0,False
23304,5999, Note_on_c,68,76,2,3,1,79.0,False
23305,6000, Note_on_c,65,76,2,3,1,76.0,True
23306,6000, Note_on_c,70,76,2,3,1,81.0,False
23307,6001, Note_on_c,58,76,2,3,1,67.0,False
23308,6002, Note_on_c,63,76,2,3,1,73.0,False
23309,6002, Note_on_c,68,76,2,3,1,79.0,False
23310,6003, Note_on_c,65,76,2,3,1,76.0,True
23311,6003, Note_on_c,70,76,2,3,1,81.0,False
23312,6004, Note_on_c,63,76,2,3,1,73.0,False
23313,6004, Note_on_c,68,76,2,3,1,79.0,False
23314,6005, Note_on_c,66,76,2,3,1,77.0,False
23315,6005, Note_on_c,70,76,2,3,1,81.0,False
23316,6006, Note_on_c,58,76,2,3,1,67.0,False
23317,6007, Note_on_c,63,76,2,3,1,73.0,False
23318,6007, Note_on_c,68,76,2,3,1,79.0,False
23319,6008, Note_on_c,65,76,2,3,1,76.0,True
23320,6008, Note_on_c,70,76,2,3,1,81.0,False
23321,6009, Note_on_c,58,76,2,3,1,67.0,False
23322,6010, Note_on_c,63,76,2,3,1,73.0,False
23323,6010, Note_on_c,68,76,2,3,1,79.0,False
23324,6011, Note_on_c,65,76,2,3,1,76.0,True
23325,6011, Note_on_c,70,76,2,3,1,81.0,False
23326,6012, Note_on_c,63,76,2,3,1,73.0,False
23327,6012, Note_on_c,68,76,2,3,1,79.0,False
23328,6013, Note_on_c,66,76,2,3,1,77.0,False
23329,6013, Note_on_c,70,76,2,3,1,81.0,False
23330,6014, Note_on_c,58,76,2,3,1,67.0,False
23331,6015, Note_on_c,63,76,2,3,1,73.0,False
23332,6015, Note_on_c,68,76,2,3,1,79.0,False
23333,6016, Note_on_c,65,76,2,3,1,76.0,True
23334,6016, Note_on_c,70,76,2,3,1,81.0,False
23335,6017, Note_on_c,58,76,2,3,1,67.0,False
23336,6018, Note_on_c,63,76,2,3,1,73.0,False
23337,6018, Note_on_c,68,76,2,3,1,79.0,False
23338,6019, Note_on_c,65,76,2,3,1,76.0,True
23339,6019, Note_on_c,70,76,2,3,1,81.0,False
23340,6020, Note_on_c,63,76,2,3,1,73.0,False
23341,6020, Note_on_c,68,76,2,3,1,79.0,False
23342,6021, Note_on_c,66,76,2,3,1,77.0,False
23343,6021, Note_on_c,70,76,2,3,1,81.0,False
23344,6022, Note_on_c,58,76,2,3,1,67.0,False
23345,6023, Note_on_c,63,76,2,3,1,73.0,False
23346,6023, Note_on_c,68,76,2,3,1,79.0,False
23347,6024, Note_on_c,65,76,2,3,1,76.0,True
23348,6024, Note_on_c,70,76,2,3,1,81.0,False
23349,6025, Note_on_c,58,76,2,3,1,67.0,False
23350,6026, Note_on_c,63,76,2,3,1,73.0,False
23351,6026, Note_on_c,68,76,2,3,1,79.0,False
23352,6027, Note_on_c,65,76,2,3,1,76.0,True
23353,6027, Note_on_c,70,76,2,3,1,81.0,False
23354,6028, Note_on_c,63,76,2,3,1,73.0,False
23355,6028, Note_on_c,68,76,2,3,1,79.0,False
23356,6029, Note_on_c,66,76,2,3,1,77.0,False
23357,6029, Note_on_c,70,76,2,3,1,81.0,False
23358,6030, Note_on_c,58,76,2,3,1,67.0,False
23359,6031, Note_on_c,63,76,2,3,1,73.0,False
23360,6031, Note_on_c,68,76,2,3,1,79.0,False
23361,6032, Note_on_c,65,76,2,3,1,76.0,True
23362,6032, Note_on_c,70,76,2,3,1,81.0,False
23363,6033, Note_on_c,58,76,2,3,1,67.0,False
23364,6034, Note_on_c,63,76,2,3,1,73.0,False
23365,6034, Note_on_c,68,76,2,3,1,79.0,False
23366,6035, Note_on_c,65,76,2,3,1,76.0,True
23367,6035, Note_on_c,70,76,2,3,1,81.0,False
23368,6036, Note_on_c,63,76,2,3,1,73.0,False
23369,6036, Note_on_c,68,76,2,3,1,79.0,False
23370,6037, Note_on_c,66,76,2,3,1,77.0,False
23371,6037, Note_on_c,70,76,2,3,1,81.0,False
23372,6038, Note_on_c,58,76,2,3,1,67.0,False
23373,6039, Note_on_c,63,76,2,3,1,73.0,False
23374,6039, Note_on_c,68,76,2,3,1,79.0,False
23375,6040, Note_on_c,65,76,2,3,1,76.0,True
23376,6040, Note_on_c,70,76,2,3,1,81.0,False
23377,6041, Note_on_c,58,76,2,3,1,67.0,False
23378,6042, Note_on_c,63,76,2,3,1,73.0,False
23379,6042, Note_on_c,68,76,2,3,1,79.0,False
23380,6043, Note_on_c,65,76,2,3,1,76.0,True
23381,6043, Note_on_c,70,76,2,3,1,81.0,False
23382,6044, Note_on_c,63,76,2,3,1,73.0,False
23383,6044, Note_on_c,68,76,2,3,1,79.0,False
23384,6045, Note_on_c,66,76,2,3,1,77.0,False
23385,6045, Note_on_c,70,76,2,3,1,81.0,False
23386,6046, Note_on_c,58,76,2,3,1,67.0,False
23387,6047, Note_on_c,63,76,2,3,1,73.0,False
23388,6047, Note_on_c,68,76,2,3,1,79.0,False
23389,6048, Note_on_c,65,76,2,3,1,76.0,True
23390,6048, Note_on_c,70,76,2,3,1,81.0,False
23391,6049, Note_on_c,58,76,2,3,1,67.0,False
23392,6050, Note_on_c,63,76,2,3,1,73.0,False
23393,6050, Note_on_c,68,76,2,3,1,79.0,False
23394,6051, Note_on_c,65,76,2,3,1,76.0,True
23395,6051, Note_on_c,70,76,2,3,1,81.0,False
23396,6052, Note_on_c,63,76,2,3,1,73.0,False
23397,6052, Note_on_c,68,76,2,3,1,79.0,False
23398,6053, Note_on_c,66,76,2,3,1,77.0,False
23399,6053, Note_on_c,70,76,2,3,1,81.0,False
23400,6054, Note_on_c,58,76,2,3,1,67.0,False
23401,6055, Note_on_c,63,76,2,3,1,73.0,False
23402,6055, Note_on_c,68,76,2,3,1,79.0,False
23403,6056, Note_on_c,65,76,2,3,1,76.0,True
23404,6056, Note_on_c,70,76,2,3,1,81.0,False
23405,6057, Note_on_c,58,76,2,3,1,67.0,False
23406,6058, Note_on_c,63,76,2,3,1,73.0,False
23407,6058, Note_on_c,68,76,2,3,1,79.0,False
23408,6059, Note_on_c,65,76,2,3,1,76.0,True
23409,6059, Note_on_c,70,76,2,3,1,81.0,False
23410,6060, Note_on_c,63,76,2,3,1,73.0,False
23411,6060, Note_on_c,68,76,2,3,1,79.0,False
23412,6061, Note_on_c,66,76,2,3,1,77.0,False
23413,6061, Note_on_c,70,76,2,3,1,81.0,False
23414,6062, Note_on_c,58,76,2,3,1,67.0,False
23415,6063, Note_on_c,63,76,2,3,1,73.0,False
23416,6063, Note_on_c,68,76,2,3,1,79.0,False
23417,6064, Note_on_c,65,76,2,3,1,76.0,True
23418,6064, Note_on_c,70,76,2,3,1,81.0,False
23419,6065, Note_on_c,58,76,2,3,1,67.0,False
23420,6066, Note_on_c,63,76,2,3,1,73.0,False
23421,6066, Note_on_c,68,76,2,3,1,79.0,False
23422,6067, Note_on_c,65,76,2,3,1,76.0,True
23423,6067, Note_on_c,70,76,2,3,1,81.0,False
23424,6068, Note_on_c,63,76,2,3,1,73.0,False
23425,6068, Note_on_c,68,76,2,3,1,79.0,False
23426,6069, Note_on_c,66,76,2,3,1,77.0,False
23427,6069, Note_on_c,70,76,2,3,1,81.0,False
23428,6070, Note_on_c,58,76,2,3,1,67.0,False
23429,6071, Note_on_c,63,76,2,3,1,73.0,False
23430,6071, Note_on_c,68,76,2,3,1,79.0,False
23431,6072, Note_on_c,65,76,2,3,1,76.0,True
23432,6072, Note_on_c,70,76,2,3,1,81.0,False
23433,6073, Note_on_c,58,76,2,3,1,67.0,False
23434,6074, Note_on_c,63,76,2,3,1,73.0,False
23435,6074, Note_on_c,68,76,2,3,1,79.0,False
23436,6075, Note_on_c,65,76,2,3,1,76.0,True
23437,6075, Note_on_c,70,76,2,3,1,81.0,False
23438,6076, Note_on_c,63,76,2,3,1,73.0,False
23439,6076, Note_on_c,68,76,2,3,1,79.0,False
23440,6077, Note_on_c,66,76,2,3,1,77.0,False
23441,6077, Note_on_c,70,76,2,3,1,81.0,False
23442,6078, Note_on_c,58,76,2,3,1,67.0,False
23443,6079, Note_on_c,63,76,2,3,1,73.0,False
23444,6079, Note_on_c,68,76,2,3,1,79.0,False
23445,6080, Note_on_c,65,76,2,3,1,76.0,True
23446,6080, Note_on_c,70,76,2,3,1,81.0,False
23447,6081, Note_on_c,58,76,2,3,1,67.0,False
23448,6082, Note_on_c,63,76,2,3,1,73.0,False
23449,6082, Note_on_c,68,76,2,3,1,79.0,False
23450,6083, Note_on_c,65,76,2,3,1,76.0,True
23451,6083, Note_on_c,70,76,2,3,1,81.0,False
23452,6084, Note_on_c,63,76,2,3,1,73.0,False
23453,6084, Note_on_c,68,76,2,3,1,79.0,False
23454,6085, Note_on_c,66,76,2,3,1,77.0,False
23455,6085, Note_on_c,70,76,2,3,1,81.0,False
23456,6086, Note_on_c,58,76,2,3,1,67.0,False
23457,6087, Note_on_c,63,76,2,3,1,73.0,False
23458,6087, Note_on_c,68,76,2,3,1,79.0,False
23459,6088, Note_on_c,65,76,2,3,1,76.0,True
23460,6088, Note_on_c,70,76,2,3,1,81.0,False
23461,6089, Note_on_c,58,76,2,3,1,67.0,False
23462,6090, Note_on_c,63,76,2,3,1,73.0,False
23463,6090, Note_on_c,68,76,2,3,1,79.0,False
23464,6091, Note_on_c,65,76,2,3,1,76.0,True
23465,6091, Note_on_c,70,76,2,3,1,81.0,False
23466,6092, Note_on_c,63,76,2,3,1,73.0,False
23467,6092, Note_on_c,68,76,2,3,1,79.0,False
23468,6093, Note_on_c,66,76,2,3,1,77.0,False
23469,6093, Note_on_c,70,76,2,3,1,81.0,False
23470,6094, Note_on_c,58,76,2,3,1,67.0,False
23471,6095, Note_on_c,63,76,2,3,1,73.0,False
23472,6095, Note_on_c,68,76,2,3,1,79.0,False
23473,6096, Note_on_c,65,76,2,3,1,76.0,True
23474,6096, Note_on_c,70,76,2,3,1,81.0,False
23475,6097, Note_on_c,58,76,2,3,1,67.0,False
23476,6098, Note_on_c,63,76,2,3,1,73.0,False
23477,6098, Note_on_c,68,76,2,3,1,79.0,False
23478,6099, Note_on_c,65,76,2,3,1,76.0,True
23479,6099, Note_on_c,70,76,2,3,1,81.0,False
23480,6100, Note_on_c,63,76,2,3,1,73.0,False
23481,6100, Note_on_c,68,76,2,3,1,79.0,False
23482,6101, Note_on_c,66,76,2,3,1,77.0,False
23483,6101, Note_on_c,70,76,2,3,1,81.0,False
23484,6102, Note_on_c,58,76,2,3,1,67.0,False
23485,6103, Note_on_c,63,76,2,3,1,73.0,False
23486,6103, Note_on_c,68,76,2,3,1,79.0,False
23487,6104, Note_on_c,65,76,2,3,1,76.0,True
23488,6104, Note_on_c,70,76,2,3,1,81.0,False
23489,6105, Note_on_c,58,76,2,3,1,67.0,False
23490,6106, Note_on_c,63,76,2,3,1,73.0,False
23491,6106, Note_on_c,68,76,2,3,1,79.0,False
23492,6107, Note_on_c,65,76,2,3,1,76.0,True
23493,6107, Note_on_c,70,76,2,3,1,81.0,False
23494,6108, Note_on_c,63,76,2,3,1,73.0,False
23495,6108, Note_on_c,68,76,2,3,1,79.0,False
23496,6109, Note_on_c,66,76,2,3,1,77.0,False
23497,6109, Note_on_c,70,76,2,3,1,81.0,False
23498,6110, Note_on_c,58,76,2,3,1,67.0,False
23499,6111, Note_on_c,63,76,2,3,1,73.0,False
23500,6111, Note_on_c,68,76,2,3,1,79.0,False
23501,6112, Note_on_c,65,76,2,3,1,76.0,True
23502,6112, Note_on_c,70,76,2,3,1,81.0,False
23503,6113, Note_on_c,58,76,2,3,1,67.0,False
23504,6114, Note_on_c,63,76,2,3,1,73.0,False
23505,6114, Note_on_c,68,76,2,3,1,79.0,False
23506,6115, Note_on_c,65,76,2,3,1,76.0,True
23507,6115, Note_on_c,70,76,2,3,1,81.0,False
23508,6116, Note_on_c,63,76,2,3,1,73.0,False
23509,6116, Note_on_c,68,76,2,3,1,79.0,False
23510,6117, Note_on_c,66,76,2,3,1,77.0,False
23511,6117, Note_on_c,70,76,2,3,1,81.0,False
23512,6118, Note_on_c,58,76,2,3,1,67.0,False
23513,6119, Note_on_c,63,76,2,3,1,73.0,False
23514,6119, Note_on_c,68,76,2,3,1,79.0,False
23515,6120, Note_on_c,65,76,2,3,1,76.0,True
23516,6120, Note_on_c,70,76,2,3,1,81.0,False
23517,6121, Note_on_c,58,76,2,3,1,67.0,False
23518,6122, Note_on_c,63,76,2,3,1,73.0,False
23519,6122, Note_on_c,68,76,2,3,1,79.0,False
23520,6123, Note_on_c,65,76,2,3,1,76.0,True
23521,6123, Note_on_c,70,76,2,3,1,81.0,False
23522,6124, Note_on_c,63,76,2,3,1,73.0,False
23523,6124, Note_on_c,68,76,2,3,1,79.0,False
23524,6125, Note_on_c,66,76,2,3,1,77.0,False
23525,6125, Note_on_c,70,76,2,3,1,81.0,False
23526,6126, Note_on_c,58,76,2,3,1,67.0,False
23527,6127, Note_on_c,63,76,2,3,1,73.0,False
23528,6127, Note_on_c,68,76,2,3,1,79.0,False
23529,6128, Note_on_c,65,76,2,3,1,76.0,True
23530,6128, Note_on_c,70,76,2,3,1,81.0,False
23531,6129, Note_on_c,58,76,2,3,1,67.0,False
23532,6130, Note_on_c,63,76,2,3,1,73.0,False
23533,6130, Note_on_c,68,76,2,3,1,79.0,False
23534,6131, Note_on_c,65,76,2,3,1,76.0,True
23535,6131, Note_on_c,70,76,2,3,1,81.0,False
23536,6132, Note_on_c,63,76,2,3,1,73.0,False
23537,6132, Note_on_c,68,76,2,3,1,79.0,False
23538,6133, Note_on_c,66,76,2,3,1,77.0,False
23539,6133, Note_on_c,70,76,2,3,1,81.0,False
23540,6134, Note_on_c,58,76,2,3,1,67.0,False
23541,6135, Note_on_c,63,76,2,3,1,73.0,False
23542,6135, Note_on_c,68,76,2,3,1,79.0,False
23543,6136, Note_on_c,65,76,2,3,1,76.0,True
23544,6136, Note_on_c,70,76,2,3,1,81.0,False
23545,6137, Note_on_c,58,76,2,3,1,67.0,False
23546,6138, Note_on_c,63,76,2,3,1,73.0,False
23547,6138, Note_on_c,68,76,2,3,1,79.0,False
23548,6139, Note_on_c,65,76,2,3,1,76.0,True
23549,6139, Note_on_c,70,76,2,3,1,81.0,False
23550,6140, Note_on_c,63,76,2,3,1,73.0,False
23551,6140, Note_on_c,68,76,2,3,1,79.0,False
23552,6141, Note_on_c,66,76,2,3,1,77.0,False
23553,6141, Note_on_c,70,76,2,3,1,81.0,False
23554,6142, Note_on_c,58,76,2,3,1,67.0,False
23555,6143, Note_on_c,63,76,2,3,1,73.0,False
23556,6143, Note_on_c,68,76,2,3,1,79.0,False
23557,6144, Note_on_c,65,76,2,3,1,76.0,True
23558,6144, Note_on_c,70,76,2,3,1,81.0,False
23559,6145, Note_on_c,58,76,2,3,1,67.0,False
23560,6146, Note_on_c,63,76,2,3,1,73.0,False
23561,6146, Note_on_c,68,76,2,3,1,79.0,False
23562,6147, Note_on_c,65,76,2,3,1,76.0,True
23563,6147, Note_on_c,70,76,2,3,1,81.0,False
23564,6148, Note_on_c,63,76,2,3,1,73.0,False
23565,6148, Note_on_c,68,76,2,3,1,79.0,False
23566,6149, Note_on_c,66,76,2,3,1,77.0,False
23567,6149, Note_on_c,70,76,2,3,1,81.0,False
23568,6150, Note_on_c,58,76,2,3,1,67.0,False
23569,6151, Note_on_c,63,76,2,3,1,73.0,False
23570,6151, Note_on_c,68,76,2,3,1,79.0,False
23571,6152, Note_on_c,65,76,2,3,1,76.0,True
23572,6152, Note_on_c,70,76,2,3,1,81.0,False
23573,6153, Note_on_c,58,76,2,3,1,67.0,False
23574,6154, Note_on_c,63,76,2,3,1,73.0,False
23575,6154, Note_on_c,68,76,2,3,1,79.0,False
23576,6155, Note_on_c,65,76,2,3,1,76.0,True
23577,6155, Note_on_c,70,76,2,3,1,81.0,False
23578,6156, Note_on_c,63,76,2,3,1,73.0,False
23579,6156, Note_on_c,68,76,2,3,1,79.0,False
23580,6157, Note_on_c,66,76,2,3,1,77.0,False
23581,6157, Note_on_c,70,76,2,3,1,81.0,False
23582,6158, Note_on_c,58,76,2,3,1,67.0,False
23583,6159, Note_on_c,63,76,2,3,1,73.0,False
23584,6159, Note_on_c,68,76,2,3,1,79.0,False
23585,6160, Note_on_c,65,76,2,3,1,76.0,True
23586,6160, Note_on_c,70,76,2,3,1,81.0,False
23587,6161, Note_on_c,58,76,2,3,1,67.0,False
23588,6162, Note_on_c,63,76,2,3,1,73.0,False
23589,6162, Note_on_c,68,76,2,3,1,79.0,False
23590,6163, Note_on_c,65,76,2,3,1,76.0,True
23591,6163, Note_on_c,70,76,2,3,1,81.0,False
23592,6164, Note_on_c,63,76,2,3,1,73.0,False
23593,6164, Note_on_c,68,76,2,3,1,79.0,False
23594,6165, Note_on_c,66,76,2,3,1,77.0,False
23595,6165, Note_on_c,70,76,2,3,1,81.0,False
23596,6166, Note_on_c,58,76,2,3,1,67.0,False
23597,6167, Note_on_c,63,76,2,3,1,73.0,False
23598,6167, Note_on_c,68,76,2,3,1,79.0,False
23599,6168, Note_on_c,65,76,2,3,1,76.0,True
23600,6168, Note_on_c,70,76,2,3,1,81.0,False
23601,6169, Note_on_c,58,76,2,3,1,67.0,False
23602,6170, Note_on_c,63,76,2,3,1,73.0,False
23603,6170, Note_on_c,68,76,2,3,1,79.0,False
23604,6171, Note_on_c,65,76,2,3,1,76.0,True
23605,6171, Note_on_c,70,76,2,3,1,81.0,False
23606,6172, Note_on_c,63,76,2,3,1,73.0,False
23607,6172, Note_on_c,68,76,2,3,1,79.0,False
23608,6173, Note_on_c,66,76,2,3,1,77.0,False
23609,6173, Note_on_c,70,76,2,3,1,81.0,False
23610,6174, Note_on_c,58,76,2,3,1,67.0,False
23611,6175, Note_on_c,63,76,2,3,1,73.0,False
23612,6175, Note_on_c,68,76,2,3,1,79.0,False
23613,6176, Note_on_c,65,76,2,3,1,76.0,True
23614,6176, Note_on_c,70,76,2,3,1,81.0,False
23615,6177, Note_on_c,58,76,2,3,1,67.0,False
23616,6178, Note_on_c,63,76,2,3,1,73.0,False
23617,6178, Note_on_c,68,76,2,3,1,79.0,False
23618,6179, Note_on_c,65,76,2,3,1,76.0,True
23619,6179, Note_on_c,70,76,2,3,1,81.0,False
23620,6180, Note_on_c,63,76,2,3,1,73.0,False
23621,6180, Note_on_c,68,76,2,3,1,79.0,False
23622,6181, Note_on_c,66,76,2,3,1,77.0,False
23623,6181, Note_on_c,70,76,2,3,1,81.0,False
23624,6182, Note_on_c,58,76,2,3,1,67.0,False
23625,6183, Note_on_c,63,76,2,3,1,73.0,False
23626,6183, Note_on_c,68,76,2,3,1,79.0,False
23627,6184, Note_on_c,65,76,2,3,1,76.0,True
23628,6184, Note_on_c,70,76,2,3,1,81.0,False
23629,6185, Note_on_c,58,76,2,3,1,67.0,False
23630,6186, Note_on_c,63,76,2,3,1,73.0,False
23631,6186, Note_on_c,68,76,2,3,1,79.0,False
23632,6187, Note_on_c,65,76,2,3,1,76.0,True
23633,6187, Note_on_c,70,76,2,3,1,81.0,False
23634,6188, Note_on_c,63,76,2,3,1,73.0,False
23635,6188, Note_on_c,68,76,2,3,1,79.0,False
23636,6189, Note_on_c,66,76,2,3,1,77.0,False
23637,6189, Note_on_c,70,76,2,3,1,81.0,False
23638,6190, Note_on_c,58,76,2,3,1,67.0,False
23639,6191, Note_on_c,63,76,2,3,1,73.0,False
23640,6191, Note_on_c,68,76,2,3,1,79.0,False
23641,6192, Note_on_c,65,76,2,3,1,76.0,True
23642,6192, Note_on_c,70,76,2,3,1,81.0,False
23643,6193, Note_on_c,58,76,2,3,1,67.0,False
23644,6194, Note_on_c,63,76,2,3,1,73.0,False
23645,6194, Note_on_c,68,76,2,3,1,79.0,False
23646,6195, Note_on_c,65,76,2,3,1,76.0,True
23647,6195, Note_on_c,70,76,2,3,1,81.0,False
23648,6196, Note_on_c,63,76,2,3,1,73.0,False
23649,6196, Note_on_c,68,76,2,3,1,79.0,False
23650,6197, Note_on_c,66,76,2,3,1,77.0,False
23651,6197, Note_on_c,70,76,2,3,1,81.0,False
23652,6198, Note_on_c,58,76,2,3,1,67.0,False
23653,6199, Note_on_c,63,76,2,3,1,73.0,False
23654,6199, Note_on_c,68,76,2,3,1,79.0,False
23655,6200, Note_on_c,65,76,2,3,1,76.0,True
23656,6200, Note_on_c,70,76,2,3,1,81.0,False
23657,6201, Note_on_c,58,76,2,3,1,67.0,False
23658,6202, Note_on_c,63,76,2,3,1,73.0,False
23659,6202, Note_on_c,68,76,2,3,1,79.0,False
23660,6203, Note_on_c,65,76,2,3,1,76.0,True
23661,6203, Note_on_c,70,76,2,3,1,81.0,False
23662,6204, Note_on_c,63,76,2,3,1,73.0,False
23663,6204, Note_on_c,68,76,2,3,1,79.0,False
23664,6205, Note_on_c,66,76,2,3,1,77.0,False
23665,6205, Note_on_c,70,76,2,3,1,81.0,False
23666,6206, Note_on_c,58,76,2,3,1,67.0,False
23667,6207, Note_on_c,63,76,2,3,1,73.0,False
23668,6207, Note_on_c,68,76,2,3,1,79.0,False
23669,6208, Note_on_c,65,76,2,3,1,76.0,True
23670,6208, Note_on_c,70,76,2,3,1,81.0,False
23671,6209, Note_on_c,58,76,2,3,1,67.0,False
23672,6210, Note_on_c,63,76,2,3,1,73.0,False
23673,6210, Note_on_c,68,76,2,3,1,79.0,False
23674,6211, Note_on_c,65,76,2,3,1,76.0,True
23675,6211, Note_on_c,70,76,2,3,1,81.0,False
23676,6212, Note_on_c,63,76,2,3,1,73.0,False
23677,6212, Note_on_c,68,76,2,3,1,79.0,False
23678,6213, Note_on_c,66,76,2,3,1,77.0,False
23679,6213, Note_on_c,70,76,2,3,1,81.0,False
23680,6214, Note_on_c,58,76,2,3,1,67.0,False
23681,6215, Note_on_c,63,76,2,3,1,73.0,False
23682,6215, Note_on_c,68,76,2,3,1,79.0,False
23683,6216, Note_on_c,65,76,2,3,1,76.0,True
23684,6216, Note_on_c,70,76,2,3,1,81.0,False
23685,6217, Note_on_c,58,76,2,3,1,67.0,False
23686,6218, Note_on_c,63,76,2,3,1,73.0,False
23687,6218, Note_on_c,68,76,2,3,1,79.0,False
23688,6219, Note_on_c,65,76,2,3,1,76.0,True
23689,6219, Note_on_c,70,76,2,3,1,81.0,False
23690,6220, Note_on_c,63,76,2,3,1,73.0,False
23691,6220, Note_on_c,68,76,2,3,1,79.0,False
23692,6221, Note_on_c,66,76,2,3,1,77.0,False
23693,6221, Note_on_c,70,76,2,3,1,81.0,False
23694,6222, Note_on_c,58,76,2,3,1,67.0,False
23695,6223, Note_on_c,63,76,2,3,1,73.0,False
23696,6223, Note_on_c,68,76,2,3,1,79.0,False
23697,6224, Note_on_c,65,76,2,3,1,76.0,True
23698,6224, Note_on_c,70,76,2,3,1,81.0,False
23699,6225, Note_on_c,58,76,2,3,1,67.0,False
23700,6226, Note_on_c,63,76,2,3,1,73.0,False
23701,6226, Note_on_c,68,76,2,3,1,79.0,False
23702,6227, Note_on_c,65,76,2,3,1,76.0,True
23703,6227, Note_on_c,70,76,2,3,1,81.0,False
23704,6228, Note_on_c,63,76,2,3,1,73.0,False
23705,6228, Note_on_c,68,76,2,3,1,79.0,False
23706,6229, Note_on_c,66,76,2,3,1,77.0,False
23707,6229, Note_on_c,70,76,2,3,1,81.0,False
23708,6230, Note_on_c,58,76,2,3,1,67.0,False
23709,6231, Note_on_c,63,76,2,3,1,73.0,False
23710,6231, Note_on_c,68,76,2,3,1,79.0,False
23711,6232, Note_on_c,65,76,2,3,1,76.0,True
23712,6232, Note_on_c,70,76,2,3,1,81.0,False
23713,6233, Note_on_c,58,76,2,3,1,67.0,False
23714,6234, Note_on_c,63,76,2,3,1,73.0,False
23715,6234, Note_on_c,68,76,2,3,1,79.0,False
23716,6235, Note_on_c,65,76,2,3,1,76.0,True
23717,6235, Note_on_c,70,76,2,3,1,81.0,False
23718,6236, Note_on_c,63,76,2,3,1,73.0,False
23719,6236, Note_on_c,68,76,2,3,1,79.0,False
23720,6237, Note_on_c,66,76,2,3,1,77.0,False
23721,6237, Note_on_c,70,76,2,3,1,81.0,False
23722,6238, Note_on_c,58,76,2,3,1,67.0,False
23723,6239, Note_on_c,63,76,2,3,1,73.0,False
23724,6239, Note_on_c,68,76,2,3,1,79.0,False
23725,6240, Note_on_c,65,76,2,3,1,76.0,True
23726,6240, Note_on_c,70,76,2,3,1,81.0,False
23727,6241, Note_on_c,58,76,2,3,1,67.0,False
23728,6242, Note_on_c,63,76,2,3,1,73.0,False
23729,6242, Note_on_c,68,76,2,3,1,79.0,False
23730,6243, Note_on_c,65,76,2,3,1,76.0,True
23731,6243, Note_on_c,70,76,2,3,1,81.0,False
23732,6244, Note_on_c,63,76,2,3,1,73.0,False
23733,6244, Note_on_c,68,76,2,3,1,79.0,False
23734,6245, Note_on_c,66,76,2,3,1,77.0,False
23735,6245, Note_on_c,70,76,2,3,1,81.0,False
23736,6246, Note_on_c,58,76,2,3,1,67.0,False
23737,6247, Note_on_c,63,76,2,3,1,73.0,False
23738,6247, Note_on_c,68,76,2,3,1,79.0,False
23739,6248, Note_on_c,65,76,2,3,1,76.0,True
23740,6248, Note_on_c,70,76,2,3,1,81.0,False
23741,6249, Note_on_c,58,76,2,3,1,67.0,False
23742,6250, Note_on_c,63,76,2,3,1,73.0,False
23743,6250, Note_on_c,68,76,2,3,1,79.0,False
23744,6251, Note_on_c,65,76,2,3,1,76.0,True
23745,6251, Note_on_c,70,76,2,3,1,81.0,False
23746,6252, Note_on_c,63,76,2,3,1,73.0,False
23747,6252, Note_on_c,68,76,2,3,1,79.0,False
23748,6253, Note_on_c,66,76,2,3,1,77.0,False
23749,6253, Note_on_c,70,76,2,3,1,81.0,False
23750,6254, Note_on_c,58,76,2,3,1,67.0,False
23751,6255, Note_on_c,63,76,2,3,1,73.0,False
23752,6255, Note_on_c,68,76,2,3,1,79.0,False
23753,6256, Note_on_c,65,76,2,3,1,76.0,True
23754,6256, Note_on_c,70,76,2,3,1,81.0,False
23755,6257, Note_on_c,58,76,2,3,1,67.0,False
23756,6258, Note_on_c,63,76,2,3,1,73.0,False
23757,6258, Note_on_c,68,76,2,3,1,79.0,False
23758,6259, Note_on_c,65,76,2,3,1,76.0,True
23759,6259, Note_on_c,70,76,2,3,1,81.0,False
23760,6260, Note_on_c,63,76,2,3,1,73.0,False
23761,6260, Note_on_c,68,76,2,3,1,79.0,False
23762,6261, Note_on_c,66,76,2,3,1,77.0,False
23763,6261, Note_on_c,70,76,2,3,1,81.0,False
23764,6262, Note_on_c,58,76,2,3,1,67.0,False
23765,6263, Note_on_c,63,76,2,3,1,73.0,False
23766,6263, Note_on_c,68,76,2,3,1,79.0,False
23767,6264, Note_on_c,65,76,2,3,1,76.0,True
23768,6264, Note_on_c,70,76,2,3,1,81.0,False
23769,6265, Note_on_c,58,76,2,3,1,67.0,False
23770,6266, Note_on_c,63,76,2,3,1,73.0,False
23771,6266, Note_on_c,68,76,2,3,1,79.0,False
23772,6267, Note_on_c,65,76,2,3,1,76.0,True
23773,6267, Note_on_c,70,76,2,3,1,81.0,False
23774,6268, Note_on_c,63,76,2,3,1,73.0,False
23775,6268, Note_on_c,68,76,2,3,1,79.0,False
23776,6269, Note_on_c,66,76,2,3,1,77.0,False
23777,6269, Note_on_c,70,76,2,3,1,81.0,False
23778,6270, Note_on_c,58,76,2,3,1,67.0,False
23779,6271, Note_on_c,63,76,2,3,1,73.0,False
23780,6271, Note_on_c,68,76,2,3,1,79.0,False
23781,6272, Note_on_c,65,76,2,3,1,76.0,True
23782,6272, Note_on_c,70,76,2,3,1,81.0,False
23783,6273, Note_on_c,58,76,2,3,1,67.0,False
23784,6274, Note_on_c,63,76,2,3,1,73.0,False
23785,6274, Note_on_c,68,76,2,3,1,79.0,False
23786,6275, Note_on_c,65,76,2,3,1,76.0,True
23787,6275, Note_on_c,70,76,2,3,1,81.0,False
23788,6276, Note_on_c,63,76,2,3,1,73.0,False
23789,6276, Note_on_c,68,76,2,3,1,79.0,False
23790,6277, Note_on_c,66,76,2,3,1,77.0,False
23791,6277, Note_on_c,70,76,2,3,1,81.0,False
23792,6278, Note_on_c,58,76,2,3,1,67.0,False
23793,6279, Note_on_c,63,76,2,3,1,73.0,False
23794,6279, Note_on_c,68,76,2,3,1,79.0,False
23795,6280, Note_on_c,65,76,2,3,1,76.0,True
23796,6280, Note_on_c,70,76,2,3,1,81.0,False
23797,6281, Note_on_c,58,76,2,3,1,67.0,False
23798,6282, Note_on_c,63,76,2,3,1,73.0,False
23799,6282, Note_on_c,68,76,2,3,1,79.0,False
23800,6283, Note_on_c,65,76,2,3,1,76.0,True
23801,6283, Note_on_c,70,76,2,3,1,81.0,False
23802,6284, Note_on_c,63,76,2,3,1,73.0,False
23803,6284, Note_on_c,68,76,2,3,1,79.0,False
23804,6285, Note_on_c,66,76,2,3,1,77.0,False
23805,6285, Note_on_c,70,76,2,3,1,81.0,False
23806,6286, Note_on_c,58,76,2,3,1,67.0,False
23807,6287, Note_on_c,63,76,2,3,1,73.0,False
23808,6287, Note_on_c,68,76,2,3,1,79.0,False
23809,6288, Note_on_c,65,76,2,3,1,76.0,True
23810,6288, Note_on_c,70,76,2,3,1,81.0,False
23811,6289, Note_on_c,58,76,2,3,1,67.0,False
23812,6290, Note_on_c,63,76,2,3,1,73.0,False
23813,6290, Note_on_c,68,76,2,3,1,79.0,False
23814,6291, Note_on_c,65,76,2,3,1,76.0,True
23815,6291, Note_on_c,70,76,2,3,1,81.0,False
23816,6292, Note_on_c,63,76,2,3,1,73.0,False
23817,6292, Note_on_c,68,76,2,3,1,79.0,False
23818,6293, Note_on_c,66,76,2,3,1,77.0,False
23819,6293, Note_on_c,70,76,2,3,1,81.0,False
23820,6294, Note_on_c,58,76,2,3,1,67.0,False
23821,6295, Note_on_c,63,76,2,3,1,73.0,False
23822,6295, Note_on_c,68,76,2,3,1,79.0,False
23823,6296, Note_on_c,65,76,2,3,1,76.0,True
23824,6296, Note_on_c,70,76,2,3,1,81.0,False
23825,6297, Note_on_c,58,76,2,3,1,67.0,False
23826,6298, Note_on_c,63,76,2,3,1,73.0,False
23827,6298, Note_on_c,68,76,2,3,1,79.0,False
23828,6299, Note_on_c,65,76,2,3,1,76.0,True
23829,6299, Note_on_c,70,76,2,3,1,81.0,False
23830,6300, Note_on_c,63,76,2,3,1,73.0,False
23831,6300, Note_on_c,68,76,2,3,1,79.0,False
23832,6301, Note_on_c,66,76,2,3,1,77.0,False
23833,6301, Note_on_c,70,76,2,3,1,81.0,False
23834,6302, Note_on_c,58,76,2,3,1,67.0,False
23835,6303, Note_on_c,63,76,2,3,1,73.0,False
23836,6303, Note_on_c,68,76,2,3,1,79.0,False
23837,6304, Note_on_c,65,76,2,3,1,76.0,True
23838,6304, Note_on_c,70,76,2,3,1,81.0,False
23839,6305, Note_on_c,58,76,2,3,1,67.0,False
23840,6306, Note_on_c,63,76,2,3,1,73.0,False
23841,6306, Note_on_c,68,76,2,3,1,79.0,False
23842,6307, Note_on_c,65,76,2,3,1,76.0,True
23843,6307, Note_on_c,70,76,2,3,1,81.0,False
23844,6308, Note_on_c,63,76,2,3,1,73.0,False
23845,6308, Note_on_c,68,76,2,3,1,79.0,False
23846,6309, Note_on_c,66,76,2,3,1,77.0,False
23847,6309, Note_on_c,70,76,2,3,1,81.0,False
23848,6310, Note_on_c,58,76,2,3,1,67.0,False
23849,6311, Note_on_c,63,76,2,3,1,73.0,False
23850,6311, Note_on_c,68,76,2,3,1,79.0,False
23851,6312, Note_on_c,65,76,2,3,1,76.0,True
23852,6312, Note_on_c,70,76,2,3,1,81.0,False
23853,6313, Note_on_c,58,76,2,3,1,67.0,False
23854,6314, Note_on_c,63,76,2,3,1,73.0,False
23855,6314, Note_on_c,68,76,2,3,1,79.0,False
23856,6315, Note_on_c,65,76,2,3,1,76.0,True
23857,6315, Note_on_c,70,76,2,3,1,81.0,False
23858,6316, Note_on_c,63,76,2,3,1,73.0,False
23859,6316, Note_on_c,68,76,2,3,1,79.0,False
23860,6317, Note_on_c,66,76,2,3,1,77.0,False
23861,6317, Note_on_c,70,76,2,3,1,81.0,False
23862,6318, Note_on_c,58,76,2,3,1,67.0,False
23863,6319, Note_on_c,63,76,2,3,1,73.0,False
23864,6319, Note_on_c,68,76,2,3,1,79.0,False
23865,6320, Note_on_c,65,76,2,3,1,76.0,True
23866,6320, Note_on_c,70,76,2,3,1,81.0,False
23867,6321, Note_on_c,58,76,2,3,1,67.0,False
23868,6322, Note_on_c,63,76,2,3,1,73.0,False
23869,6322, Note_on_c,68,76,2,3,1,79.0,False
23870,6323, Note_on_c,65,76,2,3,1,76.0,True
23871,6323, Note_on_c,70,76,2,3,1,81.0,False
23872,6324, Note_on_c,63,76,2,3,1,73.0,False
23873,6324, Note_on_c,68,76,2,3,1,79.0,False
23874,6325, Note_on_c,66,76,2,3,1,77.0,False
23875,6325, Note_on_c,70,76,2,3,1,81.0,False
23876,6326, Note_on_c,58,76,2,3,1,67.0,False
23877,6327, Note_on_c,63,76,2,3,1,73.0,False
23878,6327, Note_on_c,68,76,2,3,1,79.0,False
23879,6328, Note_on_c,65,76,2,3,1,76.0,True
23880,6328, Note_on_c,70,76,2,3,1,81.0,False
23881,6329, Note_on_c,58,76,2,3,1,67.0,False
23882,6330, Note_on_c,63,76,2,3,1,73.0,False
23883,6330, Note_on_c,68,76,2,3,1,79.0,False
23884,6331, Note_on_c,65,76,2,3,1,76.0,True
23885,6331, Note_on_c,70,76,2,3,1,81.0,False
23886,6332, Note_on_c,63,76,2,3,1,73.0,False
23887,6332, Note_on_c,68,76,2,3,1,79.0,False
23888,6333, Note_on_c,66,76,2,3,1,77.0,False
23889,6333, Note_on_c,70,76,2,3,1,81.0,False
23890,6334, Note_on_c,58,76,2,3,1,67.0,False
23891,6335, Note_on_c,63,76,2,3,1,73.0,False
23892,6335, Note_on_c,68,76,2,3,1,79.0,False
23893,6336, Note_on_c,65,76,2,3,1,76.0,True
23894,6336, Note_on_c,70,76,2,3,1,81.0,False
23895,6337, Note_on_c,58,76,2,3,1,67.0,False
23896,6338, Note_on_c,63,76,2,3,1,73.0,False
23897,6338, Note_on_c,68,76,2,3,1,79.0,False
23898,6339, Note_on_c,65,76,2,3,1,76.0,True
23899,6339, Note_on_c,70,76,2,3,1,81.0,False
23900,6340, Note_on_c,63,76,2,3,1,73.0,False
23901,6340, Note_on_c,68,76,2,3,1,79.0,False
23902,6341, Note_on_c,66,76,2,3,1,77.0,False
23903,6341, Note_on_c,70,76,2,3,1,81.0,False
23904,6342, Note_on_c,58,76,2,3,1,67.0,False
23905,6343, Note_on_c,63,76,2,3,1,73.0,False
23906,6343, Note_on_c,68,76,2,3,1,79.0,False
23907,6344, Note_on_c,65,76,2,3,1,76.0,True
23908,6344, Note_on_c,70,76,2,3,1,81.0,False
23909,6345, Note_on_c,58,76,2,3,1,67.0,False
23910,6346, Note_on_c,63,76,2,3,1,73.0,False
23911,6346, Note_on_c,68,76,2,3,1,79.0,False
23912,6347, Note_on_c,65,76,2,3,1,76.0,True
23913,6347, Note_on_c,70,76,2,3,1,81.0,False
23914,6348, Note_on_c,63,76,2,3,1,73.0,False
23915,6348, Note_on_c,68,76,2,3,1,79.0,False
23916,6349, Note_on_c,66,76,2,3,1,77.0,False
23917,6349, Note_on_c,70,76,2,3,1,81.0,False
23918,6350, Note_on_c,58,76,2,3,1,67.0,False
23919,6351, Note_on_c,63,76,2,3,1,73.0,False
23920,6351, Note_on_c,68,76,2,3,1,79.0,False
23921,6352, Note_on_c,65,76,2,3,1,76.0,True
23922,6352, Note_on_c,70,76,2,3,1,81.0,False
23923,6353, Note_on_c,58,76,2,3,1,67.0,False
23924,6354, Note_on_c,63,76,2,3,1,73.0,False
23925,6354, Note_on_c,68,76,2,3,1,79.0,False
23926,6355, Note_on_c,65,76,2,3,1,76.0,True
23927,6355, Note_on_c,70,76,2,3,1,81.0,False
23928,6356, Note_on_c,63,76,2,3,1,73.0,False
23929,6356, Note_on_c,68,76,2,3,1,79.0,False
23930,6357, Note_on_c,66,76,2,3,1,77.0,False
23931,6357, Note_on_c,70,76,2,3,1,81.0,False
23932,6358, Note_on_c,58,76,2,3,1,67.0,False
23933,6359, Note_on_c,63,76,2,3,1,73.0,False
23934,6359, Note_on_c,68,76,2,3,1,79.0,False
23935,6360, Note_on_c,65,76,2,3,1,76.0,True
23936,6360, Note_on_c,70,76,2,3,1,81.0,False
23937,6361, Note_on_c,58,76,2,3,1,67.0,False
23938,6362, Note_on_c,63,76,2,3,1,73.0,False
23939,6362, Note_on_c,68,76,2,3,1,79.0,False
23940,6363, Note_on_c,65,76,2,3,1,76.0,True
23941,6363, Note_on_c,70,76,2,3,1,81.0,False
23942,6364, Note_on_c,63,76,2,3,1,73.0,False
23943,6364, Note_on_c,68,76,2,3,1,79.0,False
23944,6365, Note_on_c,66,76,2,3,1,77.0,False
23945,6365, Note_on_c,70,76,2,3,1,81.0,False
23946,6366, Note_on_c,58,76,2,3,1,67.0,False
23947,6367, Note_on_c,63,76,2,3,1,73.0,False
23948,6367, Note_on_c,68,76,2,3,1,79.0,False
23949,6368, Note_on_c,65,76,2,3,1,76.0,True
23950,6368, Note_on_c,70,76,2,3,1,81.0,False
23951,6369, Note_on_c,58,76,2,3,1,67.0,False
23952,6370, Note_on_c,63,76,2,3,1,73.0,False
23953,6370, Note_on_c,68,76,2,3,1,79.0,False
23954,6371, Note_on_c,65,76,2,3,1,76.0,True
23955,6371, Note_on_c,70,76,2,3,1,81.0,False
23956,6372, Note_on_c,63,76,2,3,1,73.0,False
23957,6372, Note_on_c,68,76,2,3,1,79.0,False
23958,6373, Note_on_c,66,76,2,3,1,77.0,False
23959,6373, Note_on_c,70,76,2,3,1,81.0,False
23960,6374, Note_on_c,58,76,2,3,1,67.0,False
23961,6375, Note_on_c,63,76,2,3,1,73.0,False
23962,6375, Note_on_c,68,76,2,3,1,79.0,False
23963,6376, Note_on_c,65,76,2,3,1,76.0,True
23964,6376, Note_on_c,70,76,2,3,1,81.0,False
23965,6377, Note_on_c,58,76,2,3,1,67.0,False
23966,6378, Note_on_c,63,76,2,3,1,73.0,False
23967,6378, Note_on_c,68,76,2,3,1,79.0,False
23968,6379, Note_on_c,65,76,2,3,1,76.0,True
23969,6379, Note_on_c,70,76,2,3,1,81.0,False
23970,6380, Note_on_c,63,76,2,3,1,73.0,False
23971,6380, Note_on_c,68,76,2,3,1,79.0,False
23972,6381, Note_on_c,66,76,2,3,1,77.0,False
23973,6381, Note_on_c,70,76,2,3,1,81.0,False
23974,6382, Note_on_c,58,76,2,3,1,67.0,False
23975,6383, Note_on_c,63,76,2,3,1,73.0,False
23976,6383, Note_on_c,68,76,2,3,1,79.0,False
23977,6384, Note_on_c,65,76,2,3,1,76.0,True
23978,6384, Note_on_c,70,76,2,3,1,81.0,False
23979,6385, Note_on_c,58,76,2,3,1,67.0,False
23980,6386, Note_on_c,63,76,2,3,1,73.0,False
23981,6386, Note_on_c,68,76,2,3,1,79.0,False
23982,6387, Note_on_c,65,76,2,3,1,76.0,True
23983,6387, Note_on_c,70,76,2,3,1,81.0,False
23984,6388, Note_on_c,63,76,2,3,1,73.0,False
23985,6388, Note_on_c,68,76,2,3,1,79.0,False
23986,6389, Note_on_c,66,76,2,3,1,77.0,False
23987,6389, Note_on_c,70,76,2,3,1,81.0,False
23988,6390, Note_on_c,58,76,2,3,1,67.0,False
23989,6391, Note_on_c,63,76,2,3,1,73.0,False
23990,6391, Note_on_c,68,76,2,3,1,79.0,False
23991,6392, Note_on_c,65,76,2,3,1,76.0,True
23992,6392, Note_on_c,70,76,2,3,1,81.0,False
23993,6393, Note_on_c,58,76,2,3,1,67.0,False
23994,6394, Note_on_c,63,76,2,3,1,73.0,False
23995,6394, Note_on_c,68,76,2,3,1,79.0,False
23996,6395, Note_on_c,65,76,2,3,1,76.0,True
23997,6395, Note_on_c,70,76,2,3,1,81.0,False
23998,6396, Note_on_c,63,76,2,3,1,73.0,False
23999,6396, Note_on_c,68,76,2,3,1,79.0,False
24000,6397, Note_on_c,66,76,2,3,1,77.0,False
24001,6397, Note_on_c,70,76,2,3,1,81.0,False
24002,6398, Note_on_c,58,76,2,3,1,67.0,False
24003,6399, Note_on_c,63,76,2,3,1,73.0,False
24004,6399, Note_on_c,68,76,2,3,1,79.0,False
24005,6400, Note_on_c,65,76,2,3,1,76.0,True
24006,6400, Note_on_c,70,76,2,3,1,81.0,False
24007,6401, Note_on_c,58,76,2,3,1,67.0,False
24008,6402, Note_on_c,63,76,2,3,1,73.0,False
24009,6402, Note_on_c,68,76,2,3,1,79.0,False
24010,6403, Note_on_c,65,76,2,3,1,76.0,True
24011,6403, Note_on_c,70,76,2,3,1,81.0,False
24012,6404, Note_on_c,63,76,2,3,1,73.0,False
24013,6404, Note_on_c,68,76,2,3,1,79.0,False
24014,6405, Note_on_c,66,76,2,3,1,77.0,False
24015,6405, Note_on_c,70,76,2,3,1,81.0,False
24016,6406, Note_on_c,58,76,2,3,1,67.0,False
24017,6407, Note_on_c,63,76,2,3,1,73.0,False
24018,6407, Note_on_c,68,76,2,3,1,79.0,False
24019,6408, Note_on_c,65,76,2,3,1,76.0,True
24020,6408, Note_on_c,70,76,2,3,1,81.0,False
24021,6409, Note_on_c,58,76,2,3,1,67.0,False
24022,6410, Note_on_c,63,76,2,3,1,73.0,False
24023,6410, Note_on_c,68,76,2,3,1,79.0,False
24024,6411, Note_on_c,65,76,2,3,1,76.0,True
24025,6411, Note_on_c,70,76,2,3,1,81.0,False
24026,6412, Note_on_c,63,76,2,3,1,73.0,False
24027,6412, Note_on_c,68,76,2,3,1,79.0,False
24028,6413, Note_on_c,66,76,2,3,1,77.0,False
24029,6413, Note_on_c,70,76,2,3,1,81.0,False
24030,6414, Note_on_c,58,76,2,3,1,67.0,False
24031,6415, Note_on_c,63,76,2,3,1,73.0,False
24032,6415, Note_on_c,68,76,2,3,1,79.0,False
24033,6416, Note_on_c,65,76,2,3,1,76.0,True
24034,6416, Note_on_c,70,76,2,3,1,81.0,False
24035,6417, Note_on_c,58,76,2,3,1,67.0,False
24036,6418, Note_on_c,63,76,2,3,1,73.0,False
24037,6418, Note_on_c,68,76,2,3,1,79.0,False
24038,6419, Note_on_c,65,76,2,3,1,76.0,True
24039,6419, Note_on_c,70,76,2,3,1,81.0,False
24040,6420, Note_on_c,63,76,2,3,1,73.0,False
24041,6420, Note_on_c,68,76,2,3,1,79.0,False
24042,6421, Note_on_c,66,76,2,3,1,77.0,False
24043,6421, Note_on_c,70,76,2,3,1,81.0,False
24044,6422, Note_on_c,58,76,2,3,1,67.0,False
24045,6423, Note_on_c,63,76,2,3,1,73.0,False
24046,6423, Note_on_c,68,76,2,3,1,79.0,False
24047,6424, Note_on_c,65,76,2,3,1,76.0,True
24048,6424, Note_on_c,70,76,2,3,1,81.0,False
24049,6425, Note_on_c,58,76,2,3,1,67.0,False
24050,6426, Note_on_c,63,76,2,3,1,73.0,False
24051,6426, Note_on_c,68,76,2,3,1,79.0,False
24052,6427, Note_on_c,65,76,2,3,1,76.0,True
24053,6427, Note_on_c,70,76,2,3,1,81.0,False
24054,6428, Note_on_c,63,76,2,3,1,73.0,False
24055,6428, Note_on_c,68,76,2,3,1,79.0,False
24056,6429, Note_on_c,66,76,2,3,1,77.0,False
24057,6429, Note_on_c,70,76,2,3,1,81.0,False
24058,6430, Note_on_c,58,76,2,3,1,67.0,False
24059,6431, Note_on_c,63,76,2,3,1,73.0,False
24060,6431, Note_on_c,68,76,2,3,1,79.0,False
24061,6432, Note_on_c,65,76,2,3,1,76.0,True
24062,6432, Note_on_c,70,76,2,3,1,81.0,False
24063,6433, Note_on_c,58,76,2,3,1,67.0,False
24064,6434, Note_on_c,63,76,2,3,1,73.0,False
24065,6434, Note_on_c,68,76,2,3,1,79.0,False
24066,6435, Note_on_c,65,76,2,3,1,76.0,True
24067,6435, Note_on_c,70,76,2,3,1,81.0,False
24068,6436, Note_on_c,63,76,2,3,1,73.0,False
24069,6436, Note_on_c,68,76,2,3,1,79.0,False
24070,6437, Note_on_c,66,76,2,3,1,77.0,False
24071,6437, Note_on_c,70,76,2,3,1,81.0,False
24072,6438, Note_on_c,58,76,2,3,1,67.0,False
24073,6439, Note_on_c,63,76,2,3,1,73.0,False
24074,6439, Note_on_c,68,76,2,3,1,79.0,False
24075,6440, Note_on_c,65,76,2,3,1,76.0,True
24076,6440, Note_on_c,70,76,2,3,1,81.0,False
24077,6441, Note_on_c,58,76,2,3,1,67.0,False
24078,6442, Note_on_c,63,76,2,3,1,73.0,False
24079,6442, Note_on_c,68,76,2,3,1,79.0,False
24080,6443, Note_on_c,65,76,2,3,1,76.0,True
24081,6443, Note_on_c,70,76,2,3,1,81.0,False
24082,6444, Note_on_c,63,76,2,3,1,73.0,False
24083,6444, Note_on_c,68,76,2,3,1,79.0,False
24084,6445, Note_on_c,66,76,2,3,1,77.0,False
24085,6445, Note_on_c,70,76,2,3,1,81.0,False
24086,6446, Note_on_c,58,76,2,3,1,67.0,False
24087,6447, Note_on_c,63,76,2,3,1,73.0,False
24088,6447, Note_on_c,68,76,2,3,1,79.0,False
24089,6448, Note_on_c,65,76,2,3,1,76.0,True
24090,6448, Note_on_c,70,76,2,3,1,81.0,False
24091,6449, Note_on_c,58,76,2,3,1,67.0,False
24092,6450, Note_on_c,63,76,2,3,1,73.0,False
24093,6450, Note_on_c,68,76,2,3,1,79.0,False
24094,6451, Note_on_c,65,76,2,3,1,76.0,True
24095,6451, Note_on_c,70,76,2,3,1,81.0,False
24096,6452, Note_on_c,63,76,2,3,1,73.0,False
24097,6452, Note_on_c,68,76,2,3,1,79.0,False
24098,6453, Note_on_c,66,76,2,3,1,77.0,False
24099,6453, Note_on_c,70,76,2,3,1,81.0,False
24100,6454, Note_on_c,58,76,2,3,1,67.0,False
24101,6455, Note_on_c,63,76,2,3,1,73.0,False
24102,6455, Note_on_c,68,76,2,3,1,79.0,False
24103,6456, Note_on_c,65,76,2,3,1,76.0,True
24104,6456, Note_on_c,70,76,2,3,1,81.0,False
24105,6457, Note_on_c,58,76,2,3,1,67.0,False
24106,6458, Note_on_c,63,76,2,3,1,73.0,False
24107,6458, Note_on_c,68,76,2,3,1,79.0,False
24108,6459, Note_on_c,65,76,2,3,1,76.0,True
24109,6459, Note_on_c,70,76,2,3,1,81.0,False
24110,6460, Note_on_c,63,76,2,3,1,73.0,False
24111,6460, Note_on_c,68,76,2,3,1,79.0,False
24112,6461, Note_on_c,66,76,2,3,1,77.0,False
24113,6461, Note_on_c,70,76,2,3,1,81.0,False
24114,6462, Note_on_c,58,76,2,3,1,67.0,False
24115,6463, Note_on_c,63,76,2,3,1,73.0,False
24116,6463, Note_on_c,68,76,2,3,1,79.0,False
24117,6464, Note_on_c,65,76,2,3,1,76.0,True
24118,6464, Note_on_c,70,76,2,3,1,81.0,False
24119,6465, Note_on_c,58,76,2,3,1,67.0,False
24120,6466, Note_on_c,63,76,2,3,1,73.0,False
24121,6466, Note_on_c,68,76,2,3,1,79.0,False
24122,6467, Note_on_c,65,76,2,3,1,76.0,True
24123,6467, Note_on_c,70,76,2,3,1,81.0,False
24124,6468, Note_on_c,63,76,2,3,1,73.0,False
24125,6468, Note_on_c,68,76,2,3,1,79.0,False
24126,6469, Note_on_c,66,76,2,3,1,77.0,False
24127,6469, Note_on_c,70,76,2,3,1,81.0,False
24128,6470, Note_on_c,58,76,2,3,1,67.0,False
24129,6471, Note_on_c,63,76,2,3,1,73.0,False
24130,6471, Note_on_c,68,76,2,3,1,79.0,False
24131,6472, Note_on_c,65,76,2,3,1,76.0,True
24132,6472, Note_on_c,70,76,2,3,1,81.0,False
24133,6473, Note_on_c,58,76,2,3,1,67.0,False
24134,6474, Note_on_c,63,76,2,3,1,73.0,False
24135,6474, Note_on_c,68,76,2,3,1,79.0,False
24136,6475, Note_on_c,65,76,2,3,1,76.0,True
24137,6475, Note_on_c,70,76,2,3,1,81.0,False
24138,6476, Note_on_c,63,76,2,3,1,73.0,False
24139,6476, Note_on_c,68,76,2,3,1,79.0,False
24140,6477, Note_on_c,66,76,2,3,1,77.0,False
24141,6477, Note_on_c,70,76,2,3,1,81.0,False
24142,6478, Note_on_c,58,76,2,3,1,67.0,False
24143,6479, Note_on_c,63,76,2,3,1,73.0,False
24144,6479, Note_on_c,68,76,2,3,1,79.0,False
24145,6480, Note_on_c,65,76,2,3,1,76.0,True
24146,6480, Note_on_c,70,76,2,3,1,81.0,False
24147,6481, Note_on_c,58,76,2,3,1,67.0,False
24148,6482, Note_on_c,63,76,2,3,1,73.0,False
24149,6482, Note_on_c,68,76,2,3,1,79.0,False
24150,6483, Note_on_c,65,76,2,3,1,76.0,True
24151,6483, Note_on_c,70,76,2,3,1,81.0,False
24152,6484, Note_on_c,63,76,2,3,1,73.0,False
24153,6484, Note_on_c,68,76,2,3,1,79.0,False
24154,6485, Note_on_c,66,76,2,3,1,77.0,False
24155,6485, Note_on_c,70,76,2,3,1,81.0,False
24156,6486, Note_on_c,58,76,2,3,1,67.0,False
24157,6487, Note_on_c,63,76,2,3,1,73.0,False
24158,6487, Note_on_c,68,76,2,3,1,79.0,False
24159,6488, Note_on_c,65,76,2,3,1,76.0,True
24160,6488, Note_on_c,70,76,2,3,1,81.0,False
24161,6489, Note_on_c,58,76,2,3,1,67.0,False
24162,6490, Note_on_c,63,76,2,3,1,73.0,False
24163,6490, Note_on_c,68,76,2,3,1,79.0,False
24164,6491, Note_on_c,65,76,2,3,1,76.0,True
24165,6491, Note_on_c,70,76,2,3,1,81.0,False
24166,6492, Note_on_c,63,76,2,3,1,73.0,False
24167,6492, Note_on_c,68,76,2,3,1,79.0,False
24168,6493, Note_on_c,66,76,2,3,1,77.0,False
24169,6493, Note_on_c,70,76,2,3,1,81.0,False
24170,6494, Note_on_c,58,76,2,3,1,67.0,False
24171,6495, Note_on_c,63,76,2,3,1,73.0,False
24172,6495, Note_on_c,68,76,2,3,1,79.0,False
24173,6496, Note_on_c,65,76,2,3,1,76.0,True
24174,6496, Note_on_c,70,76,2,3,1,81.0,False
24175,6497, Note_on_c,58,76,2,3,1,67.0,False
24176,6498, Note_on_c,63,76,2,3,1,73.0,False
24177,6498, Note_on_c,68,76,2,3,1,79.0,False
24178,6499, Note_on_c,65,76,2,3,1,76.0,True
24179,6499, Note_on_c,70,76,2,3,1,81.0,False
24180,6500, Note_on_c,63,76,2,3,1,73.0,False
24181,6500, Note_on_c,68,76,2,3,1,79.0,False
24182,6501, Note_on_c,66,76,2,3,1,77.0,False
24183,6501, Note_on_c,70,76,2,3,1,81.0,False
24184,6502, Note_on_c,58,76,2,3,1,67.0,False
24185,6503, Note_on_c,63,76,2,3,1,73.0,False
24186,6503, Note_on_c,68,76,2,3,1,79.0,False
24187,6504, Note_on_c,65,76,2,3,1,76.0,True
24188,6504, Note_on_c,70,76,2,3,1,81.0,False
24189,6505, Note_on_c,58,76,2,3,1,67.0,False
24190,6506, Note_on_c,63,76,2,3,1,73.0,False
24191,6506, Note_on_c,68,76,2,3,1,79.0,False
24192,6507, Note_on_c,65,76,2,3,1,76.0,True
24193,6507, Note_on_c,70,76,2,3,1,81.0,False
24194,6508, Note_on_c,63,76,2,3,1,73.0,False
24195,6508, Note_on_c,68,76,2,3,1,79.0,False
24196,6509, Note_on_c,66,76,2,3,1,77.0,False
24197,6509, Note_on_c,70,76,2,3,1,81.0,False
24198,6510, Note_on_c,58,76,2,3,1,67.0,False
24199,6511, Note_on_c,63,76,2,3,1,73.0,False
24200,6511, Note_on_c,68,76,2,3,1,79.0,False
24201,6512, Note_on_c,65,76,2,3,1,76.0,True
24202,6512, Note_on_c,70,76,2,3,1,81.0,False
24203,6513, Note_on_c,58,76,2,3,1,67.0,False
24204,6514, Note_on_c,63,76,2,3,1,73.0,False
24205,6514, Note_on_c,68,76,2,3,1,79.0,False
24206,6515, Note_on_c,65,76,2,3,1,76.0,True
24207,6515, Note_on_c,70,76,2,3,1,81.0,False
24208,6516, Note_on_c,63,76,2,3,1,73.0,False
24209,6516, Note_on_c,68,76,2,3,1,79.0,False
24210,6517, Note_on_c,66,76,2,3,1,77.0,False
24211,6517, Note_on_c,70,76,2,3,1,81.0,False
24212,6518, Note_on_c,58,76,2,3,1,67.0,False
24213,6519, Note_on_c,63,76,2,3,1,73.0,False
24214,6519, Note_on_c,68,76,2,3,1,79.0,False
24215,6520, Note_on_c,65,76,2,3,1,76.0,True
24216,6520, Note_on_c,70,76,2,3,1,81.0,False
24217,6521, Note_on_c,58,76,2,3,1,67.0,False
24218,6522, Note_on_c,63,76,2,3,1,73.0,False
24219,6522, Note_on_c,68,76,2,3,1,79.0,False
24220,6523, Note_on_c,65,76,2,3,1,76.0,True
24221,6523, Note_on_c,70,76,2,3,1,81.0,False
24222,6524, Note_on_c,63,76,2,3,1,73.0,False
24223,6524, Note_on_c,68,76,2,3,1,79.0,False
24224,6525, Note_on_c,66,76,2,3,1,77.0,False
24225,6525, Note_on_c,70,76,2,3,1,81.0,False
24226,6526, Note_on_c,58,76,2,3,1,67.0,False
24227,6527, Note_on_c,63,76,2,3,1,73.0,False
24228,6527, Note_on_c,68,76,2,3,1,79.0,False
24229,6528, Note_on_c,65,76,2,3,1,76.0,True
24230,6528, Note_on_c,70,76,2,3,1,81.0,False
24231,6529, Note_on_c,58,76,2,3,1,67.0,False
24232,6530, Note_on_c,63,76,2,3,1,73.0,False
24233,6530, Note_on_c,68,76,2,3,1,79.0,False
24234,6531, Note_on_c,65,76,2,3,1,76.0,True
24235,6531, Note_on_c,70,76,2,3,1,81.0,False
24236,6532, Note_on_c,63,76,2,3,1,73.0,False
24237,6532, Note_on_c,68,76,2,3,1,79.0,False
24238,6533, Note_on_c,66,76,2,3,1,77.0,False
24239,6533, Note_on_c,70,76,2,3,1,81.0,False
24240,6534, Note_on_c,58,76,2,3,1,67.0,False
24241,6535, Note_on_c,63,76,2,3,1,73.0,False
24242,6535, Note_on_c,68,76,2,3,1,79.0,False
24243,6536, Note_on_c,65,76,2,3,1,76.0,True
24244,6536, Note_on_c,70,76,2,3,1,81.0,False
24245,6537, Note_on_c,58,76,2,3,1,67.0,False
24246,6538, Note_on_c,63,76,2,3,1,73.0,False
24247,6538, Note_on_c,68,76,2,3,1,79.0,False
24248,6539, Note_on_c,65,76,2,3,1,76.0,True
24249,6539, Note_on_c,70,76,2,3,1,81.0,False
24250,6540, Note_on_c,63,76,2,3,1,73.0,False
24251,6540, Note_on_c,68,76,2,3,1,79.0,False
24252,6541, Note_on_c,66,76,2,3,1,77.0,False
24253,6541, Note_on_c,70,76,2,3,1,81.0,False
24254,6542, Note_on_c,58,76,2,3,1,67.0,False
24255,6543, Note_on_c,63,76,2,3,1,73.0,False
24256,6543, Note_on_c,68,76,2,3,1,79.0,False
24257,6544, Note_on_c,65,76,2,3,1,76.0,True
24258,6544, Note_on_c,70,76,2,3,1,81.0,False
24259,6545, Note_on_c,58,76,2,3,1,67.0,False
24260,6546, Note_on_c,63,76,2,3,1,73.0,False
24261,6546, Note_on_c,68,76,2,3,1,79.0,False
24262,6547, Note_on_c,65,76,2,3,1,76.0,True
24263,6547, Note_on_c,70,76,2,3,1,81.0,False
24264,6548, Note_on_c,63,76,2,3,1,73.0,False
24265,6548, Note_on_c,68,76,2,3,1,79.0,False
24266,6549, Note_on_c,66,76,2,3,1,77.0,False
24267,6549, Note_on_c,70,76,2,3,1,81.0,False
24268,6550, Note_on_c,58,76,2,3,1,67.0,False
24269,6551, Note_on_c,63,76,2,3,1,73.0,False
24270,6551, Note_on_c,68,76,2,3,1,79.0,False
24271,6552, Note_on_c,65,76,2,3,1,76.0,True
24272,6552, Note_on_c,70,76,2,3,1,81.0,False
24273,6553, Note_on_c,58,76,2,3,1,67.0,False
24274,6554, Note_on_c,63,76,2,3,1,73.0,False
24275,6554, Note_on_c,68,76,2,3,1,79.0,False
24276,6555, Note_on_c,65,76,2,3,1,76.0,True
24277,6555, Note_on_c,70,76,2,3,1,81.0,False
24278,6556, Note_on_c,63,76,2,3,1,73.0,False
24279,6556, Note_on_c,68,76,2,3,1,79.0,False
24280,6557, Note_on_c,66,76,2,3,1,77.0,False
24281,6557, Note_on_c,70,76,2,3,1,81.0,False
24282,6558, Note_on_c,58,76,2,3,1,67.0,False
24283,6559, Note_on_c,63,76,2,3,1,73.0,False
24284,6559, Note_on_c,68,76,2,3,1,79.0,False
24285,6560, Note_on_c,65,76,2,3,1,76.0,True
24286,6560, Note_on_c,70,76,2,3,1,81.0,False
24287,6561, Note_on_c,58,76,2,3,1,67.0,False
24288,6562, Note_on_c,63,76,2,3,1,73.0,False
24289,6562, Note_on_c,68,76,2,3,1,79.0,False
24290,6563, Note_on_c,65,76,2,3,1,76.0,True
24291,6563, Note_on_c,70,76,2,3,1,81.0,False
24292,6564, Note_on_c,63,76,2,3,1,73.0,False
24293,6564, Note_on_c,68,76,2,3,1,79.0,False
24294,6565, Note_on_c,66,76,2,3,1,77.0,False
24295,6565, Note_on_c,70,76,2,3,1,81.0,False
24296,6566, Note_on_c,58,76,2,3,1,67.0,False
24297,6567, Note_on_c,63,76,2,3,1,73.0,False
24298,6567, Note_on_c,68,76,2,3,1,79.0,False
24299,6568, Note_on_c,65,76,2,3,1,76.0,True
24300,6568, Note_on_c,70,76,2,3,1,81.0,False
24301,6569, Note_on_c,58,76,2,3,1,67.0,False
24302,6570, Note_on_c,63,76,2,3,1,73.0,False
24303,6570, Note_on_c,68,76,2,3,1,79.0,False
24304,6571, Note_on_c,65,76,2,3,1,76.0,True
24305,6571, Note_on_c,70,76,2,3,1,81.0,False
24306,6572, Note_on_c,63,76,2,3,1,73.0,False
24307,6572, Note_on_c,68,76,2,3,1,79.0,False
24308,6573, Note_on_c,66,76,2,3,1,77.0,False
24309,6573, Note_on_c,70,76,2,3,1,81.0,False
24310,6574, Note_on_c,58,76,2,3,1,67.0,False
24311,6575, Note_on_c,63,76,2,3,1,73.0,False
24312,6575, Note_on_c,68,76,2,3,1,79.0,False
24313,6576, Note_on_c,65,76,2,3,1,76.0,True
24314,6576, Note_on_c,70,76,2,3,1,81.0,False
24315,6577, Note_on_c,58,76,2,3,1,67.0,False
24316,6578, Note_on_c,63,76,2,3,1,73.0,False
24317,6578, Note_on_c,68,76,2,3,1,79.0,False
24318,6579, Note_on_c,65,76,2,3,1,76.0,True
24319,6579, Note_on_c,70,76,2,3,1,81.0,False
24320,6580, Note_on_c,63,76,2,3,1,73.0,False
24321,6580, Note_on_c,68,76,2,3,1,79.0,False
24322,6581, Note_on_c,66,76,2,3,1,77.0,False
24323,6581, Note_on_c,70,76,2,3,1,81.0,False
24324,6582, Note_on_c,58,76,2,3,1,67.0,False
24325,6583, Note_on_c,63,76,2,3,1,73.0,False
24326,6583, Note_on_c,68,76,2,3,1,79.0,False
24327,6584, Note_on_c,65,76,2,3,1,76.0,True
24328,6584, Note_on_c,70,76,2,3,1,81.0,False
24329,6585, Note_on_c,58,76,2,3,1,67.0,False
24330,6586, Note_on_c,63,76,2,3,1,73.0,False
24331,6586, Note_on_c,68,76,2,3,1,79.0,False
24332,6587, Note_on_c,65,76,2,3,1,76.0,True
24333,6587, Note_on_c,70,76,2,3,1,81.0,False
24334,6588, Note_on_c,63,76,2,3,1,73.0,False
24335,6588, Note_on_c,68,76,2,3,1,79.0,False
24336,6589, Note_on_c,66,76,2,3,1,77.0,False
24337,6589, Note_on_c,70,76,2,3,1,81.0,False
24338,6590, Note_on_c,58,76,2,3,1,67.0,False
24339,6591, Note_on_c,63,76,2,3,1,73.0,False
24340,6591, Note_on_c,68,76,2,3,1,79.0,False
24341,6592, Note_on_c,65,76,2,3,1,76.0,True
24342,6592, Note_on_c,70,76,2,3,1,81.0,False
24343,6593, Note_on_c,58,76,2,3,1,67.0,False
24344,6594, Note_on_c,63,76,2,3,1,73.0,False
24345,6594, Note_on_c,68,76,2,3,1,79.0,False
24346,6595, Note_on_c,65,76,2,3,1,76.0,True
24347,6595, Note_on_c,70,76,2,3,1,81.0,False
24348,6596, Note_on_c,63,76,2,3,1,73.0,False
24349,6596, Note_on_c,68,76,2,3,1,79.0,False
24350,6597, Note_on_c,66,76,2,3,1,77.0,False
24351,6597, Note_on_c,70,76,2,3,1,81.0,False
24352,6598, Note_on_c,58,76,2,3,1,67.0,False
24353,6599, Note_on_c,63,76,2,3,1,73.0,False
24354,6599, Note_on_c,68,76,2,3,1,79.0,False
24355,6600, Note_on_c,65,76,2,3,1,76.0,True
24356,6600, Note_on_c,70,76,2,3,1,81.0,False
24357,6601, Note_on_c,58,76,2,3,1,67.0,False
24358,6602, Note_on_c,63,76,2,3,1,73.0,False
24359,6602, Note_on_c,68,76,2,3,1,79.0,False
24360,6603, Note_on_c,65,76,2,3,1,76.0,True
24361,6603, Note_on_c,70,76,2,3,1,81.0,False
24362,6604, Note_on_c,63,76,2,3,1,73.0,False
24363,6604, Note_on_c,68,76,2,3,1,79.0,False
24364,6605, Note_on_c,66,76,2,3,1,77.0,False
24365,6605, Note_on_c,70,76,2,3,1,81.0,False
24366,6606, Note_on_c,58,76,2,3,1,67.0,False
24367,6607, Note_on_c,63,76,2,3,1,73.0,False
24368,6607, Note_on_c,68,76,2,3,1,79.0,False
24369,6608, Note_on_c,65,76,2,3,1,76.0,True
24370,6608, Note_on_c,70,76,2,3,1,81.0,False
24371,6609, Note_on_c,58,76,2,3,1,67.0,False
24372,6610, Note_on_c,63,76,2,3,1,73.0,False
24373,6610, Note_on_c,68,76,2,3,1,79.0,False
24374,6611, Note_on_c,65,76,2,3,1,76.0,True
24375,6611, Note_on_c,70,76,2,3,1,81.0,False
24376,6612, Note_on_c,63,76,2,3,1,73.0,False
24377,6612, Note_on_c,68,76,2,3,1,79.0,False
24378,6613, Note_on_c,66,76,2,3,1,77.0,False
24379,6613, Note_on_c,70,76,2,3,1,81.0,False
24380,6614, Note_on_c,58,76,2,3,1,67.0,False
24381,6615, Note_on_c,63,76,2,3,1,73.0,False
24382,6615, Note_on_c,68,76,2,3,1,79.0,False
24383,6616, Note_on_c,65,76,2,3,1,76.0,True
24384,6616, Note_on_c,70,76,2,3,1,81.0,False
24385,6617, Note_on_c,58,76,2,3,1,67.0,False
24386,6618, Note_on_c,63,76,2,3,1,73.0,False
24387,6618, Note_on_c,68,76,2,3,1,79.0,False
24388,6619, Note_on_c,65,76,2,3,1,76.0,True
24389,6619, Note_on_c,70,76,2,3,1,81.0,False
24390,6620, Note_on_c,63,76,2,3,1,73.0,False
24391,6620, Note_on_c,68,76,2,3,1,79.0,False
24392,6621, Note_on_c,66,76,2,3,1,77.0,False
24393,6621, Note_on_c,70,76,2,3,1,81.0,False
24394,6622, Note_on_c,58,76,2,3,1,67.0,False
24395,6623, Note_on_c,63,76,2,3,1,73.0,False
24396,6623, Note_on_c,68,76,2,3,1,79.0,False
24397,6624, Note_on_c,65,76,2,3,1,76.0,True
24398,6624, Note_on_c,70,76,2,3,1,81.0,False
24399,6625, Note_on_c,58,76,2,3,1,67.0,False
24400,6626, Note_on_c,63,76,2,3,1,73.0,False
24401,6626, Note_on_c,68,76,2,3,1,79.0,False
24402,6627, Note_on_c,65,76,2,3,1,76.0,True
24403,6627, Note_on_c,70,76,2,3,1,81.0,False
24404,6628, Note_on_c,63,76,2,3,1,73.0,False
24405,6628, Note_on_c,68,76,2,3,1,79.0,False
24406,6629, Note_on_c,66,76,2,3,1,77.0,False
24407,6629, Note_on_c,70,76,2,3,1,81.0,False
24408,6630, Note_on_c,58,76,2,3,1,67.0,False
24409,6631, Note_on_c,63,76,2,3,1,73.0,False
24410,6631, Note_on_c,68,76,2,3,1,79.0,False
24411,6632, Note_on_c,65,76,2,3,1,76.0,True
24412,6632, Note_on_c,70,76,2,3,1,81.0,False
24413,6633, Note_on_c,58,76,2,3,1,67.0,False
24414,6634, Note_on_c,63,76,2,3,1,73.0,False
24415,6634, Note_on_c,68,76,2,3,1,79.0,False
24416,6635, Note_on_c,65,76,2,3,1,76.0,True
24417,6635, Note_on_c,70,76,2,3,1,81.0,False
24418,6636, Note_on_c,63,76,2,3,1,73.0,False
24419,6636, Note_on_c,68,76,2,3,1,79.0,False
24420,6637, Note_on_c,66,76,2,3,1,77.0,False
24421,6637, Note_on_c,70,76,2,3,1,81.0,False
24422,6638, Note_on_c,58,76,2,3,1,67.0,False
24423,6639, Note_on_c,63,76,2,3,1,73.0,False
24424,6639, Note_on_c,68,76,2,3,1,79.0,False
24425,6640, Note_on_c,65,76,2,3,1,76.0,True
24426,6640, Note_on_c,70,76,2,3,1,81.0,False
24427,6641, Note_on_c,58,76,2,3,1,67.0,False
24428,6642, Note_on_c,63,76,2,3,1,73.0,False
24429,6642, Note_on_c,68,76,2,3,1,79.0,False
24430,6643, Note_on_c,65,76,2,3,1,76.0,True
24431,6643, Note_on_c,70,76,2,3,1,81.0,False
24432,6644, Note_on_c,63,76,2,3,1,73.0,False
24433,6644, Note_on_c,68,76,2,3,1,79.0,False
24434,6645, Note_on_c,66,76,2,3,1,77.0,False
24435,6645, Note_on_c,70,76,2,3,1,81.0,False
24436,6646, Note_on_c,58,76,2,3,1,67.0,False
24437,6647, Note_on_c,63,76,2,3,1,73.0,False
24438,6647, Note_on_c,68,76,2,3,1,79.0,False
24439,6648, Note_on_c,65,76,2,3,1,76.0,True
24440,6648, Note_on_c,70,76,2,3,1,81.0,False
24441,6649, Note_on_c,58,76,2,3,1,67.0,False
24442,6650, Note_on_c,63,76,2,3,1,73.0,False
24443,6650, Note_on_c,68,76,2,3,1,79.0,False
24444,6651, Note_on_c,65,76,2,3,1,76.0,True
24445,6651, Note_on_c,70,76,2,3,1,81.0,False
24446,6652, Note_on_c,63,76,2,3,1,73.0,False
24447,6652, Note_on_c,68,76,2,3,1,79.0,False
24448,6653, Note_on_c,66,76,2,3,1,77.0,False
24449,6653, Note_on_c,70,76,2,3,1,81.0,False
24450,6654, Note_on_c,58,76,2,3,1,67.0,False
24451,6655, Note_on_c,63,76,2,3,1,73.0,False
24452,6655, Note_on_c,68,76,2,3,1,79.0,False
24453,6656, Note_on_c,65,76,2,3,1,76.0,True
24454,6656, Note_on_c,70,76,2,3,1,81.0,False
24455,6657, Note_on_c,58,76,2,3,1,67.0,False
24456,6658, Note_on_c,63,76,2,3,1,73.0,False
24457,6658, Note_on_c,68,76,2,3,1,79.0,False
24458,6659, Note_on_c,65,76,2,3,1,76.0,True
24459,6659, Note_on_c,70,76,2,3,1,81.0,False
24460,6660, Note_on_c,63,76,2,3,1,73.0,False
24461,6660, Note_on_c,68,76,2,3,1,79.0,False
24462,6661, Note_on_c,66,76,2,3,1,77.0,False
24463,6661, Note_on_c,70,76,2,3,1,81.0,False
24464,6662, Note_on_c,58,76,2,3,1,67.0,False
24465,6663, Note_on_c,63,76,2,3,1,73.0,False
24466,6663, Note_on_c,68,76,2,3,1,79.0,False
24467,6664, Note_on_c,65,76,2,3,1,76.0,True
24468,6664, Note_on_c,70,76,2,3,1,81.0,False
24469,6665, Note_on_c,58,76,2,3,1,67.0,False
24470,6666, Note_on_c,63,76,2,3,1,73.0,False
24471,6666, Note_on_c,68,76,2,3,1,79.0,False
24472,6667, Note_on_c,65,76,2,3,1,76.0,True
24473,6667, Note_on_c,70,76,2,3,1,81.0,False
24474,6668, Note_on_c,63,76,2,3,1,73.0,False
24475,6668, Note_on_c,68,76,2,3,1,79.0,False
24476,6669, Note_on_c,66,76,2,3,1,77.0,False
24477,6669, Note_on_c,70,76,2,3,1,81.0,False
24478,6670, Note_on_c,58,76,2,3,1,67.0,False
24479,6671, Note_on_c,63,76,2,3,1,73.0,False
24480,6671, Note_on_c,68,76,2,3,1,79.0,False
24481,6672, Note_on_c,65,76,2,3,1,76.0,True
24482,6672, Note_on_c,70,76,2,3,1,81.0,False
24483,6673, Note_on_c,58,76,2,3,1,67.0,False
24484,6674, Note_on_c,63,76,2,3,1,73.0,False
24485,6674, Note_on_c,68,76,2,3,1,79.0,False
24486,6675, Note_on_c,65,76,2,3,1,76.0,True
24487,6675, Note_on_c,70,76,2,3,1,81.0,False
24488,6676, Note_on_c,63,76,2,3,1,73.0,False
24489,6676, Note_on_c,68,76,2,3,1,79.0,False
24490,6677, Note_on_c,66,76,2,3,1,77.0,False
24491,6677, Note_on_c,70,76,2,3,1,81.0,False
24492,6678, Note_on_c,58,76,2,3,1,67.0,False
24493,6679, Note_on_c,63,76,2,3,1,73.0,False
24494,6679, Note_on_c,68,76,2,3,1,79.0,False
24495,6680, Note_on_c,65,76,2,3,1,76.0,True
24496,6680, Note_on_c,70,76,2,3,1,81.0,False
24497,6681, Note_on_c,58,76,2,3,1,67.0,False
24498,6682, Note_on_c,63,76,2,3,1,73.0,False
24499,6682, Note_on_c,68,76,2,3,1,79.0,False
24500,6683, Note_on_c,65,76,2,3,1,76.0,True
24501,6683, Note_on_c,70,76,2,3,1,81.0,False
24502,6684, Note_on_c,63,76,2,3,1,73.0,False
24503,6684, Note_on_c,68,76,2,3,1,79.0,False
24504,6685, Note_on_c,66,76,2,3,1,77.0,False
24505,6685, Note_on_c,70,76,2,3,1,81.0,False
24506,6686, Note_on_c,58,76,2,3,1,67.0,False
24507,6687, Note_on_c,63,76,2,3,1,73.0,False
24508,6687, Note_on_c,68,76,2,3,1,79.0,False
24509,6688, Note_on_c,65,76,2,3,1,76.0,True
24510,6688, Note_on_c,70,76,2,3,1,81.0,False
24511,6689, Note_on_c,58,76,2,3,1,67.0,False
24512,6690, Note_on_c,63,76,2,3,1,73.0,False
24513,6690, Note_on_c,68,76,2,3,1,79.0,False
24514,6691, Note_on_c,65,76,2,3,1,76.0,True
24515,6691, Note_on_c,70,76,2,3,1,81.0,False
24516,6692, Note_on_c,63,76,2,3,1,73.0,False
24517,6692, Note_on_c,68,76,2,3,1,79.0,False
24518,6693, Note_on_c,66,76,2,3,1,77.0,False
24519,6693, Note_on_c,70,76,2,3,1,81.0,False
24520,6694, Note_on_c,58,76,2,3,1,67.0,False
24521,6695, Note_on_c,63,76,2,3,1,73.0,False
24522,6695, Note_on_c,68,76,2,3,1,79.0,False
24523,6696, Note_on_c,65,76,2,3,1,76.0,True
24524,6696, Note_on_c,70,76,2,3,1,81.0,False
24525,6697, Note_on_c,58,76,2,3,1,67.0,False
24526,6698, Note_on_c,63,76,2,3,1,73.0,False
24527,6698, Note_on_c,68,76,2,3,1,79.0,False
24528,6699, Note_on_c,65,76,2,3,1,76.0,True
24529,6699, Note_on_c,70,76,2,3,1,81.0,False
24530,6700, Note_on_c,63,76,2,3,1,73.0,False
24531,6700, Note_on_c,68,76,2,3,1,79.0,False
24532,6701, Note_on_c,66,76,2,3,1,77.0,False
24533,6701, Note_on_c,70,76,2,3,1,81.0,False
24534,6702, Note_on_c,58,76,2,3,1,67.0,False
24535,6703, Note_on_c,63,76,2,3,1,73.0,False
24536,6703, Note_on_c,68,76,2,3,1,79.0,False
24537,6704, Note_on_c,65,76,2,3,1,76.0,True
24538,6704, Note_on_c,70,76,2,3,1,81.0,False
24539,6705, Note_on_c,58,76,2,3,1,67.0,False
24540,6706, Note_on_c,63,76,2,3,1,73.0,False
24541,6706, Note_on_c,68,76,2,3,1,79.0,False
24542,6707, Note_on_c,65,76,2,3,1,76.0,True
24543,6707, Note_on_c,70,76,2,3,1,81.0,False
24544,6708, Note_on_c,63,76,2,3,1,73.0,False
24545,6708, Note_on_c,68,76,2,3,1,79.0,False
24546,6709, Note_on_c,66,76,2,3,1,77.0,False
24547,6709, Note_on_c,70,76,2,3,1,81.0,False
24548,6710, Note_on_c,58,76,2,3,1,67.0,False
24549,6711, Note_on_c,63,76,2,3,1,73.0,False
24550,6711, Note_on_c,68,76,2,3,1,79.0,False
24551,6712, Note_on_c,65,76,2,3,1,76.0,True
24552,6712, Note_on_c,70,76,2,3,1,81.0,False
24553,6713, Note_on_c,58,76,2,3,1,67.0,False
24554,6714, Note_on_c,63,76,2,3,1,73.0,False
24555,6714, Note_on_c,68,76,2,3,1,79.0,False
24556,6715, Note_on_c,65,76,2,3,1,76.0,True
24557,6715, Note_on_c,70,76,2,3,1,81.0,False
24558,6716, Note_on_c,63,76,2,3,1,73.0,False
24559,6716, Note_on_c,68,76,2,3,1,79.0,False
24560,6717, Note_on_c,66,76,2,3,1,77.0,False
24561,6717, Note_on_c,70,76,2,3,1,81.0,False
24562,6718, Note_on_c,58,76,2,3,1,67.0,False
24563,6719, Note_on_c,63,76,2,3,1,73.0,False
24564,6719, Note_on_c,68,76,2,3,1,79.0,False
24565,6720, Note_on_c,65,76,2,3,1,76.0,True
24566,6720, Note_on_c,70,76,2,3,1,81.0,False
24567,6721, Note_on_c,58,76,2,3,1,67.0,False
24568,6722, Note_on_c,63,76,2,3,1,73.0,False
24569,6722, Note_on_c,68,76,2,3,1,79.0,False
24570,6723, Note_on_c,65,76,2,3,1,76.0,True
24571,6723, Note_on_c,70,76,2,3,1,81.0,False
24572,6724, Note_on_c,63,76,2,3,1,73.0,False
24573,6724, Note_on_c,68,76,2,3,1,79.0,False
24574,6725, Note_on_c,66,76,2,3,1,77.0,False
24575,6725, Note_on_c,70,76,2,3,1,81.0,False
24576,6726, Note_on_c,58,76,2,3,1,67.0,False
24577,6727, Note_on_c,63,76,2,3,1,73.0,False
24578,6727, Note_on_c,68,76,2,3,1,79.0,False
24579,6728, Note_on_c,65,76,2,3,1,76.0,True
24580,6728, Note_on_c,70,76,2,3,1,81.0,False
24581,6729, Note_on_c,58,76,2,3,1,67.0,False
24582,6730, Note_on_c,63,76,2,3,1,73.0,False
24583,6730, Note_on_c,68,76,2,3,1,79.0,False
24584,6731, Note_on_c,65,76,2,3,1,76.0,True
24585,6731, Note_on_c,70,76,2,3,1,81.0,False
24586,6732, Note_on_c,63,76,2,3,1,73.0,False
24587,6732, Note_on_c,68,76,2,3,1,79.0,False
24588,6733, Note_on_c,66,76,2,3,1,77.0,False
24589,6733, Note_on_c,70,76,2,3,1,81.0,False
24590,6734, Note_on_c,58,76,2,3,1,67.0,False
24591,6735, Note_on_c,63,76,2,3,1,73.0,False
24592,6735, Note_on_c,68,76,2,3,1,79.0,False
24593,6736, Note_on_c,65,76,2,3,1,76.0,True
24594,6736, Note_on_c,70,76,2,3,1,81.0,False
24595,6737, Note_on_c,58,76,2,3,1,67.0,False
24596,6738, Note_on_c,63,76,2,3,1,73.0,False
24597,6738, Note_on_c,68,76,2,3,1,79.0,False
24598,6739, Note_on_c,65,76,2,3,1,76.0,True
24599,6739, Note_on_c,70,76,2,3,1,81.0,False
24600,6740, Note_on_c,63,76,2,3,1,73.0,False
24601,6740, Note_on_c,68,76,2,3,1,79.0,False
24602,6741, Note_on_c,66,76,2,3,1,77.0,False
24603,6741, Note_on_c,70,76,2,3,1,81.0,False
24604,6742, Note_on_c,58,76,2,3,1,67.0,False
24605,6743, Note_on_c,63,76,2,3,1,73.0,False
24606,6743, Note_on_c,68,76,2,3,1,79.0,False
24607,6744, Note_on_c,65,76,2,3,1,76.0,True
24608,6744, Note_on_c,70,76,2,3,1,81.0,False
24609,6745, Note_on_c,58,76,2,3,1,67.0,False
24610,6746, Note_on_c,63,76,2,3,1,73.0,False
24611,6746, Note_on_c,68,76,2,3,1,79.0,False
24612,6747, Note_on_c,65,76,2,3,1,76.0,True
24613,6747, Note_on_c,70,76,2,3,1,81.0,False
24614,6748, Note_on_c,63,76,2,3,1,73.0,False
24615,6748, Note_on_c,68,76,2,3,1,79.0,False
24616,6749, Note_on_c,66,76,2,3,1,77.0,False
24617,6749, Note_on_c,70,76,2,3,1,81.0,False
24618,6750, Note_on_c,58,76,2,3,1,67.0,False
24619,6751, Note_on_c,63,76,2,3,1,73.0,False
24620,6751, Note_on_c,68,76,2,3,1,79.0,False
24621,6752, Note_on_c,65,76,2,3,1,76.0,True
24622,6752, Note_on_c,70,76,2,3,1,81.0,False
24623,6753, Note_on_c,58,76,2,3,1,67.0,False
24624,6754, Note_on_c,63,76,2,3,1,73.0,False
24625,6754, Note_on_c,68,76,2,3,1,79.0,False
24626,6755, Note_on_c,65,76,2,3,1,76.0,True
24627,6755, Note_on_c,70,76,2,3,1,81.0,False
24628,6756, Note_on_c,63,76,2,3,1,73.0,False
24629,6756, Note_on_c,68,76,2,3,1,79.0,False
24630,6757, Note_on_c,66,76,2,3,1,77.0,False
24631,6757, Note_on_c,70,76,2,3,1,81.0,False
24632,6758, Note_on_c,58,76,2,3,1,67.0,False
24633,6759, Note_on_c,63,76,2,3,1,73.0,False
24634,6759, Note_on_c,68,76,2,3,1,79.0,False
24635,6760, Note_on_c,65,76,2,3,1,76.0,True
24636,6760, Note_on_c,70,76,2,3,1,81.0,False
24637,6761, Note_on_c,58,76,2,3,1,67.0,False
24638,6762, Note_on_c,63,76,2,3,1,73.0,False
24639,6762, Note_on_c,68,76,2,3,1,79.0,False
24640,6763, Note_on_c,65,76,2,3,1,76.0,True
24641,6763, Note_on_c,70,76,2,3,1,81.0,False
24642,6764, Note_on_c,63,76,2,3,1,73.0,False
24643,6764, Note_on_c,68,76,2,3,1,79.0,False
24644,6765, Note_on_c,66,76,2,3,1,77.0,False
24645,6765, Note_on_c,70,76,2,3,1,81.0,False
24646,6766, Note_on_c,58,76,2,3,1,67.0,False
24647,6767, Note_on_c,63,76,2,3,1,73.0,False
24648,6767, Note_on_c,68,76,2,3,1,79.0,False
24649,6768, Note_on_c,65,76,2,3,1,76.0,True
24650,6768, Note_on_c,70,76,2,3,1,81.0,False
24651,6769, Note_on_c,58,76,2,3,1,67.0,False
24652,6770, Note_on_c,63,76,2,3,1,73.0,False
24653,6770, Note_on_c,68,76,2,3,1,79.0,False
24654,6771, Note_on_c,65,76,2,3,1,76.0,True
24655,6771, Note_on_c,70,76,2,3,1,81.0,False
24656,6772, Note_on_c,63,76,2,3,1,73.0,False
24657,6772, Note_on_c,68,76,2,3,1,79.0,False
24658,6773, Note_on_c,66,76,2,3,1,77.0,False
24659,6773, Note_on_c,70,76,2,3,1,81.0,False
24660,6774, Note_on_c,58,76,2,3,1,67.0,False
24661,6775, Note_on_c,63,76,2,3,1,73.0,False
24662,6775, Note_on_c,68,76,2,3,1,79.0,False
24663,6776, Note_on_c,65,76,2,3,1,76.0,True
24664,6776, Note_on_c,70,76,2,3,1,81.0,False
24665,6777, Note_on_c,58,76,2,3,1,67.0,False
24666,6778, Note_on_c,63,76,2,3,1,73.0,False
24667,6778, Note_on_c,68,76,2,3,1,79.0,False
24668,6779, Note_on_c,65,76,2,3,1,76.0,True
24669,6779, Note_on_c,70,76,2,3,1,81.0,False
24670,6780, Note_on_c,63,76,2,3,1,73.0,False
24671,6780, Note_on_c,68,76,2,3,1,79.0,False
24672,6781, Note_on_c,66,76,2,3,1,77.0,False
24673,6781, Note_on_c,70,76,2,3,1,81.0,False
24674,6782, Note_on_c,58,76,2,3,1,67.0,False
24675,6783, Note_on_c,63,76,2,3,1,73.0,False
24676,6783, Note_on_c,68,76,2,3,1,79.0,False
24677,6784, Note_on_c,65,76,2,3,1,76.0,True
24678,6784, Note_on_c,70,76,2,3,1,81.0,False
24679,6785, Note_on_c,58,76,2,3,1,67.0,False
24680,6786, Note_on_c,63,76,2,3,1,73.0,False
24681,6786, Note_on_c,68,76,2,3,1,79.0,False
24682,6787, Note_on_c,65,76,2,3,1,76.0,True
24683,6787, Note_on_c,70,76,2,3,1,81.0,False
24684,6788, Note_on_c,63,76,2,3,1,73.0,False
24685,6788, Note_on_c,68,76,2,3,1,79.0,False
24686,6789, Note_on_c,66,76,2,3,1,77.0,False
24687,6789, Note_on_c,70,76,2,3,1,81.0,False
24688,6790, Note_on_c,58,76,2,3,1,67.0,False
24689,6791, Note_on_c,63,76,2,3,1,73.0,False
24690,6791, Note_on_c,68,76,2,3,1,79.0,False
24691,6792, Note_on_c,65,76,2,3,1,76.0,True
24692,6792, Note_on_c,70,76,2,3,1,81.0,False
24693,6793, Note_on_c,58,76,2,3,1,67.0,False
24694,6794, Note_on_c,63,76,2,3,1,73.0,False
24695,6794, Note_on_c,68,76,2,3,1,79.0,False
24696,6795, Note_on_c,65,76,2,3,1,76.0,True
24697,6795, Note_on_c,70,76,2,3,1,81.0,False
24698,6796, Note_on_c,63,76,2,3,1,73.0,False
24699,6796, Note_on_c,68,76,2,3,1,79.0,False
24700,6797, Note_on_c,66,76,2,3,1,77.0,False
24701,6797, Note_on_c,70,76,2,3,1,81.0,False
24702,6798, Note_on_c,58,76,2,3,1,67.0,False
24703,6799, Note_on_c,63,76,2,3,1,73.0,False
24704,6799, Note_on_c,68,76,2,3,1,79.0,False
24705,6800, Note_on_c,65,76,2,3,1,76.0,True
24706,6800, Note_on_c,70,76,2,3,1,81.0,False
24707,6801, Note_on_c,58,76,2,3,1,67.0,False
24708,6802, Note_on_c,63,76,2,3,1,73.0,False
24709,6802, Note_on_c,68,76,2,3,1,79.0,False
24710,6803, Note_on_c,65,76,2,3,1,76.0,True
24711,6803, Note_on_c,70,76,2,3,1,81.0,False
24712,6804, Note_on_c,63,76,2,3,1,73.0,False
24713,6804, Note_on_c,68,76,2,3,1,79.0,False
24714,6805, Note_on_c,66,76,2,3,1,77.0,False
24715,6805, Note_on_c,70,76,2,3,1,81.0,False
24716,6806, Note_on_c,58,76,2,3,1,67.0,False
24717,6807, Note_on_c,63,76,2,3,1,73.0,False
24718,6807, Note_on_c,68,76,2,3,1,79.0,False
24719,6808, Note_on_c,65,76,2,3,1,76.0,True
24720,6808, Note_on_c,70,76,2,3,1,81.0,False
24721,6809, Note_on_c,58,76,2,3,1,67.0,False
24722,6810, Note_on_c,63,76,2,3,1,73.0,False
24723,6810, Note_on_c,68,76,2,3,1,79.0,False
24724,6811, Note_on_c,65,76,2,3,1,76.0,True
24725,6811, Note_on_c,70,76,2,3,1,81.0,False
24726,6812, Note_on_c,63,76,2,3,1,73.0,False
24727,6812, Note_on_c,68,76,2,3,1,79.0,False
24728,6813, Note_on_c,66,76,2,3,1,77.0,False
24729,6813, Note_on_c,70,76,2,3,1,81.0,False
24730,6814, Note_on_c,58,76,2,3,1,67.0,False
24731,6815, Note_on_c,63,76,2,3,1,73.0,False
24732,6815, Note_on_c,68,76,2,3,1,79.0,False
24733,6816, Note_on_c,65,76,2,3,1,76.0,True
24734,6816, Note_on_c,70,76,2,3,1,81.0,False
24735,6817, Note_on_c,58,76,2,3,1,67.0,False
24736,6818, Note_on_c,63,76,2,3,1,73.0,False
24737,6818, Note_on_c,68,76,2,3,1,79.0,False
24738,6819, Note_on_c,65,76,2,3,1,76.0,True
24739,6819, Note_on_c,70,76,2,3,1,81.0,False
24740,6820, Note_on_c,63,76,2,3,1,73.0,False
24741,6820, Note_on_c,68,76,2,3,1,79.0,False
24742,6821, Note_on_c,66,76,2,3,1,77.0,False
24743,6821, Note_on_c,70,76,2,3,1,81.0,False
24744,6822, Note_on_c,58,76,2,3,1,67.0,False
24745,6823, Note_on_c,63,76,2,3,1,73.0,False
24746,6823, Note_on_c,68,76,2,3,1,79.0,False
24747,6824, Note_on_c,65,76,2,3,1,76.0,True
24748,6824, Note_on_c,70,76,2,3,1,81.0,False
24749,6825, Note_on_c,58,76,2,3,1,67.0,False
24750,6826, Note_on_c,63,76,2,3,1,73.0,False
24751,6826, Note_on_c,68,76,2,3,1,79.0,False
24752,6827, Note_on_c,65,76,2,3,1,76.0,True
24753,6827, Note_on_c,70,76,2,3,1,81.0,False
24754,6828, Note_on_c,63,76,2,3,1,73.0,False
24755,6828, Note_on_c,68,76,2,3,1,79.0,False
24756,6829, Note_on_c,66,76,2,3,1,77.0,False
24757,6829, Note_on_c,70,76,2,3,1,81.0,False
24758,6830, Note_on_c,58,76,2,3,1,67.0,False
24759,6831, Note_on_c,63,76,2,3,1,73.0,False
24760,6831, Note_on_c,68,76,2,3,1,79.0,False
24761,6832, Note_on_c,65,76,2,3,1,76.0,True
24762,6832, Note_on_c,70,76,2,3,1,81.0,False
24763,6833, Note_on_c,58,76,2,3,1,67.0,False
24764,6834, Note_on_c,63,76,2,3,1,73.0,False
24765,6834, Note_on_c,68,76,2,3,1,79.0,False
24766,6835, Note_on_c,65,76,2,3,1,76.0,True
24767,6835, Note_on_c,70,76,2,3,1,81.0,False
24768,6836, Note_on_c,63,76,2,3,1,73.0,False
24769,6836, Note_on_c,68,76,2,3,1,79.0,False
24770,6837, Note_on_c,66,76,2,3,1,77.0,False
24771,6837, Note_on_c,70,76,2,3,1,81.0,False
24772,6838, Note_on_c,58,76,2,3,1,67.0,False
24773,6839, Note_on_c,63,76,2,3,1,73.0,False
24774,6839, Note_on_c,68,76,2,3,1,79.0,False
24775,6840, Note_on_c,65,76,2,3,1,76.0,True
24776,6840, Note_on_c,70,76,2,3,1,81.0,False
24777,6841, Note_on_c,58,76,2,3,1,67.0,False
24778,6842, Note_on_c,63,76,2,3,1,73.0,False
24779,6842, Note_on_c,68,76,2,3,1,79.0,False
24780,6843, Note_on_c,65,76,2,3,1,76.0,True
24781,6843, Note_on_c,70,76,2,3,1,81.0,False
24782,6844, Note_on_c,63,76,2,3,1,73.0,False
24783,6844, Note_on_c,68,76,2,3,1,79.0,False
24784,6845, Note_on_c,66,76,2,3,1,77.0,False
24785,6845, Note_on_c,70,76,2,3,1,81.0,False
24786,6846, Note_on_c,58,76,2,3,1,67.0,False
24787,6847, Note_on_c,63,76,2,3,1,73.0,False
24788,6847, Note_on_c,68,76,2,3,1,79.0,False
24789,6848, Note_on_c,65,76,2,3,1,76.0,True
24790,6848, Note_on_c,70,76,2,3,1,81.0,False
24791,6849, Note_on_c,58,76,2,3,1,67.0,False
24792,6850, Note_on_c,63,76,2,3,1,73.0,False
24793,6850, Note_on_c,68,76,2,3,1,79.0,False
24794,6851, Note_on_c,65,76,2,3,1,76.0,True
24795,6851, Note_on_c,70,76,2,3,1,81.0,False
24796,6852, Note_on_c,63,76,2,3,1,73.0,False
24797,6852, Note_on_c,68,76,2,3,1,79.0,False
24798,6853, Note_on_c,66,76,2,3,1,77.0,False
24799,6853, Note_on_c,70,76,2,3,1,81.0,False
24800,6854, Note_on_c,58,76,2,3,1,67.0,False
24801,6855, Note_on_c,63,76,2,3,1,73.0,False
24802,6855, Note_on_c,68,76,2,3,1,79.0,False
24803,6856, Note_on_c,65,76,2,3,1,76.0,True
24804,6856, Note_on_c,70,76,2,3,1,81.0,False
24805,6857, Note_on_c,58,76,2,3,1,67.0,False
24806,6858, Note_on_c,63,76,2,3,1,73.0,False
24807,6858, Note_on_c,68,76,2,3,1,79.0,False
24808,6859, Note_on_c,65,76,2,3,1,76.0,True
24809,6859, Note_on_c,70,76,2,3,1,81.0,False
24810,6860, Note_on_c,63,76,2,3,1,73.0,False
24811,6860, Note_on_c,68,76,2,3,1,79.0,False
24812,6861, Note_on_c,66,76,2,3,1,77.0,False
24813,6861, Note_on_c,70,76,2,3,1,81.0,False
24814,6862, Note_on_c,58,76,2,3,1,67.0,False
24815,6863, Note_on_c,63,76,2,3,1,73.0,False
24816,6863, Note_on_c,68,76,2,3,1,79.0,False
24817,6864, Note_on_c,65,76,2,3,1,76.0,True
24818,6864, Note_on_c,70,76,2,3,1,81.0,False
24819,6865, Note_on_c,58,76,2,3,1,67.0,False
24820,6866, Note_on_c,63,76,2,3,1,73.0,False
24821,6866, Note_on_c,68,76,2,3,1,79.0,False
24822,6867, Note_on_c,65,76,2,3,1,76.0,True
24823,6867, Note_on_c,70,76,2,3,1,81.0,False
24824,6868, Note_on_c,63,76,2,3,1,73.0,False
24825,6868, Note_on_c,68,76,2,3,1,79.0,False
24826,6869, Note_on_c,66,76,2,3,1,77.0,False
24827,6869, Note_on_c,70,76,2,3,1,81.0,False
24828,6870, Note_on_c,58,76,2,3,1,67.0,False
24829,6871, Note_on_c,63,76,2,3,1,73.0,False
24830,6871, Note_on_c,68,76,2,3,1,79.0,False
24831,6872, Note_on_c,65,76,2,3,1,76.0,True
24832,6872, Note_on_c,70,76,2,3,1,81.0,False
24833,6873, Note_on_c,58,76,2,3,1,67.0,False
24834,6874, Note_on_c,63,76,2,3,1,73.0,False
24835,6874, Note_on_c,68,76,2,3,1,79.0,False
24836,6875, Note_on_c,65,76,2,3,1,76.0,True
24837,6875, Note_on_c,70,76,2,3,1,81.0,False
24838,6876, Note_on_c,63,76,2,3,1,73.0,False
24839,6876, Note_on_c,68,76,2,3,1,79.0,False
24840,6877, Note_on_c,66,76,2,3,1,77.0,False
24841,6877, Note_on_c,70,76,2,3,1,81.0,False
24842,6878, Note_on_c,58,76,2,3,1,67.0,False
24843,6879, Note_on_c,63,76,2,3,1,73.0,False
24844,6879, Note_on_c,68,76,2,3,1,79.0,False
24845,6880, Note_on_c,65,76,2,3,1,76.0,True
24846,6880, Note_on_c,70,76,2,3,1,81.0,False
24847,6881, Note_on_c,58,76,2,3,1,67.0,False
24848,6882, Note_on_c,63,76,2,3,1,73.0,False
24849,6882, Note_on_c,68,76,2,3,1,79.0,False
24850,6883, Note_on_c,65,76,2,3,1,76.0,True
24851,6883, Note_on_c,70,76,2,3,1,81.0,False
24852,6884, Note_on_c,63,76,2,3,1,73.0,False
24853,6884, Note_on_c,68,76,2,3,1,79.0,False
24854,6885, Note_on_c,66,76,2,3,1,77.0,False
24855,6885, Note_on_c,70,76,2,3,1,81.0,False
24856,6886, Note_on_c,58,76,2,3,1,67.0,False
24857,6887, Note_on_c,63,76,2,3,1,73.0,False
24858,6887, Note_on_c,68,76,2,3,1,79.0,False
24859,6888, Note_on_c,65,76,2,3,1,76.0,True
24860,6888, Note_on_c,70,76,2,3,1,81.0,False
24861,6889, Note_on_c,58,76,2,3,1,67.0,False
24862,6890, Note_on_c,63,76,2,3,1,73.0,False
24863,6890, Note_on_c,68,76,2,3,1,79.0,False
24864,6891, Note_on_c,65,76,2,3,1,76.0,True
24865,6891, Note_on_c,70,76,2,3,1,81.0,False
24866,6892, Note_on_c,63,76,2,3,1,73.0,False
24867,6892, Note_on_c,68,76,2,3,1,79.0,False
24868,6893, Note_on_c,66,76,2,3,1,77.0,False
24869,6893, Note_on_c,70,76,2,3,1,81.0,False
24870,6894, Note_on_c,58,76,2,3,1,67.0,False
24871,6895, Note_on_c,63,76,2,3,1,73.0,False
24872,6895, Note_on_c,68,76,2,3,1,79.0,False
24873,6896, Note_on_c,65,76,2,3,1,76.0,True
24874,6896, Note_on_c,70,76,2,3,1,81.0,False
24875,6897, Note_on_c,58,76,2,3,1,67.0,False
24876,6898, Note_on_c,63,76,2,3,1,73.0,False
24877,6898, Note_on_c,68,76,2,3,1,79.0,False
24878,6899, Note_on_c,65,76,2,3,1,76.0,True
24879,6899, Note_on_c,70,76,2,3,1,81.0,False
24880,6900, Note_on_c,63,76,2,3,1,73.0,False
24881,6900, Note_on_c,68,76,2,3,1,79.0,False
24882,6901, Note_on_c,66,76,2,3,1,77.0,False
24883,6901, Note_on_c,70,76,2,3,1,81.0,False
24884,6902, Note_on_c,58,76,2,3,1,67.0,False
24885,6903, Note_on_c,63,76,2,3,1,73.0,False
24886,6903, Note_on_c,68,76,2,3,1,79.0,False
24887,6904, Note_on_c,65,76,2,3,1,76.0,True
24888,6904, Note_on_c,70,76,2,3,1,81.0,False
24889,6905, Note_on_c,58,76,2,3,1,67.0,False
24890,6906, Note_on_c,63,76,2,3,1,73.0,False
24891,6906, Note_on_c,68,76,2,3,1,79.0,False
24892,6907, Note_on_c,65,76,2,3,1,76.0,True
24893,6907, Note_on_c,70,76,2,3,1,81.0,False
24894,6908, Note_on_c,63,76,2,3,1,73.0,False
24895,6908, Note_on_c,68,76,2,3,1,79.0,False
24896,6909, Note_on_c,66,76,2,3,1,77.0,False
24897,6909, Note_on_c,70,76,2,3,1,81.0,False
24898,6910, Note_on_c,58,76,2,3,1,67.0,False
24899,6911, Note_on_c,63,76,2,3,1,73.0,False
24900,6911, Note_on_c,68,76,2,3,1,79.0,False
24901,6912, Note_on_c,65,76,2,3,1,76.0,True
24902,6912, Note_on_c,70,76,2,3,1,81.0,False
24903,6913, Note_on_c,58,76,2,3,1,67.0,False
24904,6914, Note_on_c,63,76,2,3,1,73.0,False
24905,6914, Note_on_c,68,76,2,3,1,79.0,False
24906,6915, Note_on_c,65,76,2,3,1,76.0,True
24907,6915, Note_on_c,70,76,2,3,1,81.0,False
24908,6916, Note_on_c,63,76,2,3,1,73.0,False
24909,6916, Note_on_c,68,76,2,3,1,79.0,False
24910,6917, Note_on_c,66,76,2,3,1,77.0,False
24911,6917, Note_on_c,70,76,2,3,1,81.0,False
24912,6918, Note_on_c,58,76,2,3,1,67.0,False
24913,6919, Note_on_c,63,76,2,3,1,73.0,False
24914,6919, Note_on_c,68,76,2,3,1,79.0,False
24915,6920, Note_on_c,65,76,2,3,1,76.0,True
24916,6920, Note_on_c,70,76,2,3,1,81.0,False
24917,6921, Note_on_c,58,76,2,3,1,67.0,False
24918,6922, Note_on_c,63,76,2,3,1,73.0,False
24919,6922, Note_on_c,68,76,2,3,1,79.0,False
24920,6923, Note_on_c,65,76,2,3,1,76.0,True
24921,6923, Note_on_c,70,76,2,3,1,81.0,False
24922,6924, Note_on_c,63,76,2,3,1,73.0,False
24923,6924, Note_on_c,68,76,2,3,1,79.0,False
24924,6925, Note_on_c,66,76,2,3,1,77.0,False
24925,6925, Note_on_c,70,76,2,3,1,81.0,False
24926,6926, Note_on_c,58,76,2,3,1,67.0,False
24927,6927, Note_on_c,63,76,2,3,1,73.0,False
24928,6927, Note_on_c,68,76,2,3,1,79.0,False
24929,6928, Note_on_c,65,76,2,3,1,76.0,True
24930,6928, Note_on_c,70,76,2,3,1,81.0,False
24931,6929, Note_on_c,58,76,2,3,1,67.0,False
24932,6930, Note_on_c,63,76,2,3,1,73.0,False
24933,6930, Note_on_c,68,76,2,3,1,79.0,False
24934,6931, Note_on_c,65,76,2,3,1,76.0,True
24935,6931, Note_on_c,70,76,2,3,1,81.0,False
24936,6932, Note_on_c,63,76,2,3,1,73.0,False
24937,6932, Note_on_c,68,76,2,3,1,79.0,False
24938,6933, Note_on_c,66,76,2,3,1,77.0,False
24939,6933, Note_on_c,70,76,2,3,1,81.0,False
24940,6934, Note_on_c,58,76,2,3,1,67.0,False
24941,6935, Note_on_c,63,76,2,3,1,73.0,False
24942,6935, Note_on_c,68,76,2,3,1,79.0,False
24943,6936, Note_on_c,65,76,2,3,1,76.0,True
24944,6936, Note_on_c,70,76,2,3,1,81.0,False
24945,6937, Note_on_c,58,76,2,3,1,67.0,False
24946,6938, Note_on_c,63,76,2,3,1,73.0,False
24947,6938, Note_on_c,68,76,2,3,1,79.0,False
24948,6939, Note_on_c,65,76,2,3,1,76.0,True
24949,6939, Note_on_c,70,76,2,3,1,81.0,False
24950,6940, Note_on_c,63,76,2,3,1,73.0,False
24951,6940, Note_on_c,68,76,2,3,1,79.0,False
24952,6941, Note_on_c,66,76,2,3,1,77.0,False
24953,6941, Note_on_c,70,76,2,3,1,81.0,False
24954,6942, Note_on_c,58,76,2,3,1,67.0,False
24955,6943, Note_on_c,63,76,2,3,1,73.0,False
24956,6943, Note_on_c,68,76,2,3,1,79.0,False
24957,6944, Note_on_c,65,76,2,3,1,76.0,True
24958,6944, Note_on_c,70,76,2,3,1,81.0,False
24959,6945, Note_on_c,58,76,2,3,1,67.0,False
24960,6946, Note_on_c,63,76,2,3,1,73.0,False
24961,6946, Note_on_c,68,76,2,3,1,79.0,False
24962,6947, Note_on_c,65,76,2,3,1,76.0,True
24963,6947, Note_on_c,70,76,2,3,1,81.0,False
24964,6948, Note_on_c,63,76,2,3,1,73.0,False
24965,6948, Note_on_c,68,76,2,3,1,79.0,False
24966,6949, Note_on_c,66,76,2,3,1,77.0,False
24967,6949, Note_on_c,70,76,2,3,1,81.0,False
24968,6950, Note_on_c,58,76,2,3,1,67.0,False
24969,6951, Note_on_c,63,76,2,3,1,73.0,False
24970,6951, Note_on_c,68,76,2,3,1,79.0,False
24971,6952, Note_on_c,65,76,2,3,1,76.0,True
24972,6952, Note_on_c,70,76,2,3,1,81.0,False
24973,6953, Note_on_c,58,76,2,3,1,67.0,False
24974,6954, Note_on_c,63,76,2,3,1,73.0,False
24975,6954, Note_on_c,68,76,2,3,1,79.0,False
24976,6955, Note_on_c,65,76,2,3,1,76.0,True
24977,6955, Note_on_c,70,76,2,3,1,81.0,False
24978,6956, Note_on_c,63,76,2,3,1,73.0,False
24979,6956, Note_on_c,68,76,2,3,1,79.0,False
24980,6957, Note_on_c,66,76,2,3,1,77.0,False
24981,6957, Note_on_c,70,76,2,3,1,81.0,False
24982,6958, Note_on_c,58,76,2,3,1,67.0,False
24983,6959, Note_on_c,63,76,2,3,1,73.0,False
24984,6959, Note_on_c,68,76,2,3,1,79.0,False
24985,6960, Note_on_c,65,76,2,3,1,76.0,True
24986,6960, Note_on_c,70,76,2,3,1,81.0,False
24987,6961, Note_on_c,58,76,2,3,1,67.0,False
24988,6962, Note_on_c,63,76,2,3,1,73.0,False
24989,6962, Note_on_c,68,76,2,3,1,79.0,False
24990,6963, Note_on_c,65,76,2,3,1,76.0,True
24991,6963, Note_on_c,70,76,2,3,1,81.0,False
24992,6964, Note_on_c,63,76,2,3,1,73.0,False
24993,6964, Note_on_c,68,76,2,3,1,79.0,False
24994,6965, Note_on_c,66,76,2,3,1,77.0,False
24995,6965, Note_on_c,70,76,2,3,1,81.0,False
24996,6966, Note_on_c,58,76,2,3,1,67.0,False
24997,6967, Note_on_c,63,76,2,3,1,73.0,False
24998,6967, Note_on_c,68,76,2,3,1,79.0,False
24999,6968, Note_on_c,65,76,2,3,1,76.0,True
25000,6968, Note_on_c,70,76,2,3,1,81.0,False
25001,6969, Note_on_c,58,76,2,3,1,67.0,False
25002,6970, Note_on_c,63,76,2,3,1,73.0,False
25003,6970, Note_on_c,68,76,2,3,1,79.0,False
25004,6971, Note_on_c,65,76,2,3,1,76.0,True
25005,6971, Note_on_c,70,76,2,3,1,81.0,False
25006,6972, Note_on_c,63,76,2,3,1,73.0,False
25007,6972, Note_on_c,68,76,2,3,1,79.0,False
25008,6973, Note_on_c,66,76,2,3,1,77.0,False
25009,6973, Note_on_c,70,76,2,3,1,81.0,False
25010,6974, Note_on_c,58,76,2,3,1,67.0,False
25011,6975, Note_on_c,63,76,2,3,1,73.0,False
25012,6975, Note_on_c,68,76,2,3,1,79.0,False
25013,6976, Note_on_c,65,76,2,3,1,76.0,True
25014,6976, Note_on_c,70,76,2,3,1,81.0,False
25015,6977, Note_on_c,58,76,2,3,1,67.0,False
25016,6978, Note_on_c,63,76,2,3,1,73.0,False
25017,6978, Note_on_c,68,76,2,3,1,79.0,False
25018,6979, Note_on_c,65,76,2,3,1,76.0,True
25019,6979, Note_on_c,70,76,2,3,1,81.0,False
25020,6980, Note_on_c,63,76,2,3,1,73.0,False
25021,6980, Note_on_c,68,76,2,3,1,79.0,False
25022,6981, Note_on_c,66,76,2,3,1,77.0,False
25023,6981, Note_on_c,70,76,2,3,1,81.0,False
25024,6982, Note_on_c,58,76,2,3,1,67.0,False
25025,6983, Note_on_c,63,76,2,3,1,73.0,False
25026,6983, Note_on_c,68,76,2,3,1,79.0,False
25027,6984, Note_on_c,65,76,2,3,1,76.0,True
25028,6984, Note_on_c,70,76,2,3,1,81.0,False
25029,6985, Note_on_c,58,76,2,3,1,67.0,False
25030,6986, Note_on_c,63,76,2,3,1,73.0,False
25031,6986, Note_on_c,68,76,2,3,1,79.0,False
25032,6987, Note_on_c,65,76,2,3,1,76.0,True
25033,6987, Note_on_c,70,76,2,3,1,81.0,False
25034,6988, Note_on_c,63,76,2,3,1,73.0,False
25035,6988, Note_on_c,68,76,2,3,1,79.0,False
25036,6989, Note_on_c,66,76,2,3,1,77.0,False
25037,6989, Note_on_c,70,76,2,3,1,81.0,False
25038,6990, Note_on_c,58,76,2,3,1,67.0,False
25039,6991, Note_on_c,63,76,2,3,1,73.0,False
25040,6991, Note_on_c,68,76,2,3,1,79.0,False
25041,6992, Note_on_c,65,76,2,3,1,76.0,True
25042,6992, Note_on_c,70,76,2,3,1,81.0,False
25043,6993, Note_on_c,58,76,2,3,1,67.0,False
25044,6994, Note_on_c,63,76,2,3,1,73.0,False
25045,6994, Note_on_c,68,76,2,3,1,79.0,False
25046,6995, Note_on_c,65,76,2,3,1,76.0,True
25047,6995, Note_on_c,70,76,2,3,1,81.0,False
25048,6996, Note_on_c,63,76,2,3,1,73.0,False
25049,6996, Note_on_c,68,76,2,3,1,79.0,False
25050,6997, Note_on_c,66,76,2,3,1,77.0,False
25051,6997, Note_on_c,70,76,2,3,1,81.0,False
25052,6998, Note_on_c,58,76,2,3,1,67.0,False
25053,6999, Note_on_c,63,76,2,3,1,73.0,False
25054,6999, Note_on_c,68,76,2,3,1,79.0,False
25055,7000, Note_on_c,65,76,2,3,1,76.0,True
25056,7000, Note_on_c,70,76,2,3,1,81.0,False
25057,7001, Note_on_c,58,76,2,3,1,67.0,False
25058,7002, Note_on_c,63,76,2,3,1,73.0,False
25059,7002, Note_on_c,68,76,2,3,1,79.0,False
25060,7003, Note_on_c,65,76,2,3,1,76.0,True
25061,7003, Note_on_c,70,76,2,3,1,81.0,False
25062,7004, Note_on_c,63,76,2,3,1,73.0,False
25063,7004, Note_on_c,68,76,2,3,1,79.0,False
25064,7005, Note_on_c,66,76,2,3,1,77.0,False
25065,7005, Note_on_c,70,76,2,3,1,81.0,False
25066,7006, Note_on_c,58,76,2,3,1,67.0,False
25067,7007, Note_on_c,63,76,2,3,1,73.0,False
25068,7007, Note_on_c,68,76,2,3,1,79.0,False
25069,7008, Note_on_c,65,76,2,3,1,76.0,True
25070,7008, Note_on_c,70,76,2,3,1,81.0,False
25071,7009, Note_on_c,58,76,2,3,1,67.0,False
25072,7010, Note_on_c,63,76,2,3,1,73.0,False
25073,7010, Note_on_c,68,76,2,3,1,79.0,False
25074,7011, Note_on_c,65,76,2,3,1,76.0,True
25075,7011, Note_on_c,70,76,2,3,1,81.0,False
25076,7012, Note_on_c,63,76,2,3,1,73.0,False
25077,7012, Note_on_c,68,76,2,3,1,79.0,False
25078,7013, Note_on_c,66,76,2,3,1,77.0,False
25079,7013, Note_on_c,70,76,2,3,1,81.0,False
25080,7014, Note_on_c,58,76,2,3,1,67.0,False
25081,7015, Note_on_c,63,76,2,3,1,73.0,False
25082,7015, Note_on_c,68,76,2,3,1,79.0,False
25083,7016, Note_on_c,65,76,2,3,1,76.0,True
25084,7016, Note_on_c,70,76,2,3,1,81.0,False
25085,7017, Note_on_c,58,76,2,3,1,67.0,False
25086,7018, Note_on_c,63,76,2,3,1,73.0,False
25087,7018, Note_on_c,68,76,2,3,1,79.0,False
25088,7019, Note_on_c,65,76,2,3,1,76.0,True
25089,7019, Note_on_c,70,76,2,3,1,81.0,False
25090,7020, Note_on_c,63,76,2,3,1,73.0,False
25091,7020, Note_on_c,68,76,2,3,1,79.0,False
25092,7021, Note_on_c,66,76,2,3,1,77.0,False
25093,7021, Note_on_c,70,76,2,3,1,81.0,False
25094,7022, Note_on_c,58,76,2,3,1,67.0,False
25095,7023, Note_on_c,63,76,2,3,1,73.0,False
25096,7023, Note_on_c,68,76,2,3,1,79.0,False
25097,7024, Note_on_c,65,76,2,3,1,76.0,True
25098,7024, Note_on_c,70,76,2,3,1,81.0,False
25099,7025, Note_on_c,58,76,2,3,1,67.0,False
25100,7026, Note_on_c,63,76,2,3,1,73.0,False
25101,7026, Note_on_c,68,76,2,3,1,79.0,False
25102,7027, Note_on_c,65,76,2,3,1,76.0,True
25103,7027, Note_on_c,70,76,2,3,1,81.0,False
25104,7028, Note_on_c,63,76,2,3,1,73.0,False
25105,7028, Note_on_c,68,76,2,3,1,79.0,False
25106,7029, Note_on_c,66,76,2,3,1,77.0,False
25107,7029, Note_on_c,70,76,2,3,1,81.0,False
25108,7030, Note_on_c,58,76,2,3,1,67.0,False
25109,7031, Note_on_c,63,76,2,3,1,73.0,False
25110,7031, Note_on_c,68,76,2,3,1,79.0,False
25111,7032, Note_on_c,65,76,2,3,1,76.0,True
25112,7032, Note_on_c,70,76,2,3,1,81.0,False
25113,7033, Note_on_c,58,76,2,3,1,67.0,False
25114,7034, Note_on_c,63,76,2,3,1,73.0,False
25115,7034, Note_on_c,68,76,2,3,1,79.0,False
25116,7035, Note_on_c,65,76,2,3,1,76.0,True
25117,7035, Note_on_c,70,76,2,3,1,81.0,False
25118,7036, Note_on_c,63,76,2,3,1,73.0,False
25119,7036, Note_on_c,68,76,2,3,1,79.0,False
25120,7037, Note_on_c,66,76,2,3,1,77.0,False
25121,7037, Note_on_c,70,76,2,3,1,81.0,False
25122,7038, Note_on_c,58,76,2,3,1,67.0,False
25123,7039, Note_on_c,63,76,2,3,1,73.0,False
25124,7039, Note_on_c,68,76,2,3,1,79.0,False
25125,7040, Note_on_c,65,76,2,3,1,76.0,True
25126,7040, Note_on_c,70,76,2,3,1,81.0,False
25127,7041, Note_on_c,58,76,2,3,1,67.0,False
25128,7042, Note_on_c,63,76,2,3,1,73.0,False
25129,7042, Note_on_c,68,76,2,3,1,79.0,False
25130,7043, Note_on_c,65,76,2,3,1,76.0,True
25131,7043, Note_on_c,70,76,2,3,1,81.0,False
25132,7044, Note_on_c,63,76,2,3,1,73.0,False
25133,7044, Note_on_c,68,76,2,3,1,79.0,False
25134,7045, Note_on_c,66,76,2,3,1,77.0,False
25135,7045, Note_on_c,70,76,2,3,1,81.0,False
25136,7046, Note_on_c,58,76,2,3,1,67.0,False
25137,7047, Note_on_c,63,76,2,3,1,73.0,False
25138,7047, Note_on_c,68,76,2,3,1,79.0,False
25139,7048, Note_on_c,65,76,2,3,1,76.0,True
25140,7048, Note_on_c,70,76,2,3,1,81.0,False
25141,7049, Note_on_c,58,76,2,3,1,67.0,False
25142,7050, Note_on_c,63,76,2,3,1,73.0,False
25143,7050, Note_on_c,68,76,2,3,1,79.0,False
25144,7051, Note_on_c,65,76,2,3,1,76.0,True
25145,7051, Note_on_c,70,76,2,3,1,81.0,False
25146,7052, Note_on_c,63,76,2,3,1,73.0,False
25147,7052, Note_on_c,68,76,2,3,1,79.0,False
25148,7053, Note_on_c,66,76,2,3,1,77.0,False
25149,7053, Note_on_c,70,76,2,3,1,81.0,False
25150,7054, Note_on_c,58,76,2,3,1,67.0,False
25151,7055, Note_on_c,63,76,2,3,1,73.0,False
25152,7055, Note_on_c,68,76,2,3,1,79.0,False
25153,7056, Note_on_c,65,76,2,3,1,76.0,True
25154,7056, Note_on_c,70,76,2,3,1,81.0,False
25155,7057, Note_on_c,58,76,2,3,1,67.0,False
25156,7058, Note_on_c,63,76,2,3,1,73.0,False
25157,7058, Note_on_c,68,76,2,3,1,79.0,False
25158,7059, Note_on_c,65,76,2,3,1,76.0,True
25159,7059, Note_on_c,70,76,2,3,1,81.0,False
25160,7060, Note_on_c,63,76,2,3,1,73.0,False
25161,7060, Note_on_c,68,76,2,3,1,79.0,False
25162,7061, Note_on_c,66,76,2,3,1,77.0,False
25163,7061, Note_on_c,70,76,2,3,1,81.0,False
25164,7062, Note_on_c,58,76,2,3,1,67.0,False
25165,7063, Note_on_c,63,76,2,3,1,73.0,False
25166,7063, Note_on_c,68,76,2,3,1,79.0,False
25167,7064, Note_on_c,65,76,2,3,1,76.0,True
25168,7064, Note_on_c,70,76,2,3,1,81.0,False
25169,7065, Note_on_c,58,76,2,3,1,67.0,False
25170,7066, Note_on_c,63,76,2,3,1,73.0,False
25171,7066, Note_on_c,68,76,2,3,1,79.0,False
25172,7067, Note_on_c,65,76,2,3,1,76.0,True
25173,7067, Note_on_c,70,76,2,3,1,81.0,False
25174,7068, Note_on_c,63,76,2,3,1,73.0,False
25175,7068, Note_on_c,68,76,2,3,1,79.0,False
25176,7069, Note_on_c,66,76,2,3,1,77.0,False
25177,7069, Note_on_c,70,76,2,3,1,81.0,False
25178,7070, Note_on_c,58,76,2,3,1,67.0,False
25179,7071, Note_on_c,63,76,2,3,1,73.0,False
25180,7071, Note_on_c,68,76,2,3,1,79.0,False
25181,7072, Note_on_c,65,76,2,3,1,76.0,True
25182,7072, Note_on_c,70,76,2,3,1,81.0,False
25183,7073, Note_on_c,58,76,2,3,1,67.0,False
25184,7074, Note_on_c,63,76,2,3,1,73.0,False
25185,7074, Note_on_c,68,76,2,3,1,79.0,False
25186,7075, Note_on_c,65,76,2,3,1,76.0,True
25187,7075, Note_on_c,70,76,2,3,1,81.0,False
25188,7076, Note_on_c,63,76,2,3,1,73.0,False
25189,7076, Note_on_c,68,76,2,3,1,79.0,False
25190,7077, Note_on_c,66,76,2,3,1,77.0,False
25191,7077, Note_on_c,70,76,2,3,1,81.0,False
25192,7078, Note_on_c,58,76,2,3,1,67.0,False
25193,7079, Note_on_c,63,76,2,3,1,73.0,False
25194,7079, Note_on_c,68,76,2,3,1,79.0,False
25195,7080, Note_on_c,65,76,2,3,1,76.0,True
25196,7080, Note_on_c,70,76,2,3,1,81.0,False
25197,7081, Note_on_c,58,76,2,3,1,67.0,False
25198,7082, Note_on_c,63,76,2,3,1,73.0,False
25199,7082, Note_on_c,68,76,2,3,1,79.0,False
25200,7083, Note_on_c,65,76,2,3,1,76.0,True
25201,7083, Note_on_c,70,76,2,3,1,81.0,False
25202,7084, Note_on_c,63,76,2,3,1,73.0,False
25203,7084, Note_on_c,68,76,2,3,1,79.0,False
25204,7085, Note_on_c,66,76,2,3,1,77.0,False
25205,7085, Note_on_c,70,76,2,3,1,81.0,False
25206,7086, Note_on_c,58,76,2,3,1,67.0,False
25207,7087, Note_on_c,63,76,2,3,1,73.0,False
25208,7087, Note_on_c,68,76,2,3,1,79.0,False
25209,7088, Note_on_c,65,76,2,3,1,76.0,True
25210,7088, Note_on_c,70,76,2,3,1,81.0,False
25211,7089, Note_on_c,58,76,2,3,1,67.0,False
25212,7090, Note_on_c,63,76,2,3,1,73.0,False
25213,7090, Note_on_c,68,76,2,3,1,79.0,False
25214,7091, Note_on_c,65,76,2,3,1,76.0,True
25215,7091, Note_on_c,70,76,2,3,1,81.0,False
25216,7092, Note_on_c,63,76,2,3,1,73.0,False
25217,7092, Note_on_c,68,76,2,3,1,79.0,False
25218,7093, Note_on_c,66,76,2,3,1,77.0,False
25219,7093, Note_on_c,70,76,2,3,1,81.0,False
25220,7094, Note_on_c,58,76,2,3,1,67.0,False
25221,7095, Note_on_c,63,76,2,3,1,73.0,False
25222,7095, Note_on_c,68,76,2,3,1,79.0,False
25223,7096, Note_on_c,65,76,2,3,1,76.0,True
25224,7096, Note_on_c,70,76,2,3,1,81.0,False
25225,7097, Note_on_c,58,76,2,3,1,67.0,False
25226,7098, Note_on_c,63,76,2,3,1,73.0,False
25227,7098, Note_on_c,68,76,2,3,1,79.0,False
25228,7099, Note_on_c,65,76,2,3,1,76.0,True
25229,7099, Note_on_c,70,76,2,3,1,81.0,False
25230,7100, Note_on_c,63,76,2,3,1,73.0,False
25231,7100, Note_on_c,68,76,2,3,1,79.0,False
25232,7101, Note_on_c,66,76,2,3,1,77.0,False
25233,7101, Note_on_c,70,76,2,3,1,81.0,False
25234,7102, Note_on_c,58,76,2,3,1,67.0,False
25235,7103, Note_on_c,63,76,2,3,1,73.0,False
25236,7103, Note_on_c,68,76,2,3,1,79.0,False
25237,7104, Note_on_c,65,76,2,3,1,76.0,True
25238,7104, Note_on_c,70,76,2,3,1,81.0,False
25239,7105, Note_on_c,58,76,2,3,1,67.0,False
25240,7106, Note_on_c,63,76,2,3,1,73.0,False
25241,7106, Note_on_c,68,76,2,3,1,79.0,False
25242,7107, Note_on_c,65,76,2,3,1,76.0,True
25243,7107, Note_on_c,70,76,2,3,1,81.0,False
25244,7108, Note_on_c,63,76,2,3,1,73.0,False
25245,7108, Note_on_c,68,76,2,3,1,79.0,False
25246,7109, Note_on_c,66,76,2,3,1,77.0,False
25247,7109, Note_on_c,70,76,2,3,1,81.0,False
25248,7110, Note_on_c,58,76,2,3,1,67.0,False
25249,7111, Note_on_c,63,76,2,3,1,73.0,False
25250,7111, Note_on_c,68,76,2,3,1,79.0,False
25251,7112, Note_on_c,65,76,2,3,1,76.0,True
25252,7112, Note_on_c,70,76,2,3,1,81.0,False
25253,7113, Note_on_c,58,76,2,3,1,67.0,False
25254,7114, Note_on_c,63,76,2,3,1,73.0,False
25255,7114, Note_on_c,68,76,2,3,1,79.0,False
25256,7115, Note_on_c,65,76,2,3,1,76.0,True
25257,7115, Note_on_c,70,76,2,3,1,81.0,False
25258,7116, Note_on_c,63,76,2,3,1,73.0,False
25259,7116, Note_on_c,68,76,2,3,1,79.0,False
25260,7117, Note_on_c,66,76,2,3,1,77.0,False
25261,7117, Note_on_c,70,76,2,3,1,81.0,False
25262,7118, Note_on_c,58,76,2,3,1,67.0,False
25263,7119, Note_on_c,63,76,2,3,1,73.0,False
25264,7119, Note_on_c,68,76,2,3,1,79.0,False
25265,7120, Note_on_c,65,76,2,3,1,76.0,True
25266,7120, Note_on_c,70,76,2,3,1,81.0,False
25267,7121, Note_on_c,58,76,2,3,1,67.0,False
25268,7122, Note_on_c,63,76,2,3,1,73.0,False
25269,7122, Note_on_c,68,76,2,3,1,79.0,False
25270,7123, Note_on_c,65,76,2,3,1,76.0,True
25271,7123, Note_on_c,70,76,2,3,1,81.0,False
25272,7124, Note_on_c,63,76,2,3,1,73.0,False
25273,7124, Note_on_c,68,76,2,3,1,79.0,False
25274,7125, Note_on_c,66,76,2,3,1,77.0,False
25275,7125, Note_on_c,70,76,2,3,1,81.0,False
25276,7126, Note_on_c,58,76,2,3,1,67.0,False
25277,7127, Note_on_c,63,76,2,3,1,73.0,False
25278,7127, Note_on_c,68,76,2,3,1,79.0,False
25279,7128, Note_on_c,65,76,2,3,1,76.0,True
25280,7128, Note_on_c,70,76,2,3,1,81.0,False
25281,7129, Note_on_c,58,76,2,3,1,67.0,False
25282,7130, Note_on_c,63,76,2,3,1,73.0,False
25283,7130, Note_on_c,68,76,2,3,1,79.0,False
25284,7131, Note_on_c,65,76,2,3,1,76.0,True
25285,7131, Note_on_c,70,76,2,3,1,81.0,False
25286,7132, Note_on_c,63,76,2,3,1,73.0,False
25287,7132, Note_on_c,68,76,2,3,1,79.0,False
25288,7133, Note_on_c,66,76,2,3,1,77.0,False
25289,7133, Note_on_c,70,76,2,3,1,81.0,False
25290,7134, Note_on_c,58,76,2,3,1,67.0,False
25291,7135, Note_on_c,63,76,2,3,1,73.0,False
25292,7135, Note_on_c,68,76,2,3,1,79.0,False
25293,7136, Note_on_c,65,76,2,3,1,76.0,True
25294,7136, Note_on_c,70,76,2,3,1,81.0,False
25295,7137, Note_on_c,58,76,2,3,1,67.0,False
25296,7138, Note_on_c,63,76,2,3,1,73.0,False
25297,7138, Note_on_c,68,76,2,3,1,79.0,False
25298,7139, Note_on_c,65,76,2,3,1,76.0,True
25299,7139, Note_on_c,70,76,2,3,1,81.0,False
25300,7140, Note_on_c,63,76,2,3,1,73.0,False
25301,7140, Note_on_c,68,76,2,3,1,79.0,False
25302,7141, Note_on_c,66,76,2,3,1,77.0,False
25303,7141, Note_on_c,70,76,2,3,1,81.0,False
25304,7142, Note_on_c,58,76,2,3,1,67.0,False
25305,7143, Note_on_c,63,76,2,3,1,73.0,False
25306,7143, Note_on_c,68,76,2,3,1,79.0,False
25307,7144, Note_on_c,65,76,2,3,1,76.0,True
25308,7144, Note_on_c,70,76,2,3,1,81.0,False
25309,7145, Note_on_c,58,76,2,3,1,67.0,False
25310,7146, Note_on_c,63,76,2,3,1,73.0,False
25311,7146, Note_on_c,68,76,2,3,1,79.0,False
25312,7147, Note_on_c,65,76,2,3,1,76.0,True
25313,7147, Note_on_c,70,76,2,3,1,81.0,False
25314,7148, Note_on_c,63,76,2,3,1,73.0,False
25315,7148, Note_on_c,68,76,2,3,1,79.0,False
25316,7149, Note_on_c,66,76,2,3,1,77.0,False
25317,7149, Note_on_c,70,76,2,3,1,81.0,False
25318,7150, Note_on_c,58,76,2,3,1,67.0,False
25319,7151, Note_on_c,63,76,2,3,1,73.0,False
25320,7151, Note_on_c,68,76,2,3,1,79.0,False
25321,7152, Note_on_c,65,76,2,3,1,76.0,True
25322,7152, Note_on_c,70,76,2,3,1,81.0,False
25323,7153, Note_on_c,58,76,2,3,1,67.0,False
25324,7154, Note_on_c,63,76,2,3,1,73.0,False
25325,7154, Note_on_c,68,76,2,3,1,79.0,False
25326,7155, Note_on_c,65,76,2,3,1,76.0,True
25327,7155, Note_on_c,70,76,2,3,1,81.0,False
25328,7156, Note_on_c,63,76,2,3,1,73.0,False
25329,7156, Note_on_c,68,76,2,3,1,79.0,False
25330,7157, Note_on_c,66,76,2,3,1,77.0,False
25331,7157, Note_on_c,70,76,2,3,1,81.0,False
25332,7158, Note_on_c,58,76,2,3,1,67.0,False
25333,7159, Note_on_c,63,76,2,3,1,73.0,False
25334,7159, Note_on_c,68,76,2,3,1,79.0,False
25335,7160, Note_on_c,65,76,2,3,1,76.0,True
25336,7160, Note_on_c,70,76,2,3,1,81.0,False
25337,7161, Note_on_c,58,76,2,3,1,67.0,False
25338,7162, Note_on_c,63,76,2,3,1,73.0,False
25339,7162, Note_on_c,68,76,2,3,1,79.0,False
25340,7163, Note_on_c,65,76,2,3,1,76.0,True
25341,7163, Note_on_c,70,76,2,3,1,81.0,False
25342,7164, Note_on_c,63,76,2,3,1,73.0,False
25343,7164, Note_on_c,68,76,2,3,1,79.0,False
25344,7165, Note_on_c,66,76,2,3,1,77.0,False
25345,7165, Note_on_c,70,76,2,3,1,81.0,False
25346,7166, Note_on_c,58,76,2,3,1,67.0,False
25347,7167, Note_on_c,63,76,2,3,1,73.0,False
25348,7167, Note_on_c,68,76,2,3,1,79.0,False
25349,7168, Note_on_c,65,76,2,3,1,76.0,True
25350,7168, Note_on_c,70,76,2,3,1,81.0,False
25351,7169, Note_on_c,58,76,2,3,1,67.0,False
25352,7170, Note_on_c,63,76,2,3,1,73.0,False
25353,7170, Note_on_c,68,76,2,3,1,79.0,False
25354,7171, Note_on_c,65,76,2,3,1,76.0,True
25355,7171, Note_on_c,70,76,2,3,1,81.0,False
25356,7172, Note_on_c,63,76,2,3,1,73.0,False
25357,7172, Note_on_c,68,76,2,3,1,79.0,False
25358,7173, Note_on_c,66,76,2,3,1,77.0,False
25359,7173, Note_on_c,70,76,2,3,1,81.0,False
25360,7174, Note_on_c,58,76,2,3,1,67.0,False
25361,7175, Note_on_c,63,76,2,3,1,73.0,False
25362,7175, Note_on_c,68,76,2,3,1,79.0,False
25363,7176, Note_on_c,65,76,2,3,1,76.0,True
25364,7176, Note_on_c,70,76,2,3,1,81.0,False
25365,7177, Note_on_c,58,76,2,3,1,67.0,False
25366,7178, Note_on_c,63,76,2,3,1,73.0,False
25367,7178, Note_on_c,68,76,2,3,1,79.0,False
25368,7179, Note_on_c,65,76,2,3,1,76.0,True
25369,7179, Note_on_c,70,76,2,3,1,81.0,False
25370,7180, Note_on_c,63,76,2,3,1,73.0,False
25371,7180, Note_on_c,68,76,2,3,1,79.0,False
25372,7181, Note_on_c,66,76,2,3,1,77.0,False
25373,7181, Note_on_c,70,76,2,3,1,81.0,False
25374,7182, Note_on_c,58,76,2,3,1,67.0,False
25375,7183, Note_on_c,63,76,2,3,1,73.0,False
25376,7183, Note_on_c,68,76,2,3,1,79.0,False
25377,7184, Note_on_c,65,76,2,3,1,76.0,True
25378,7184, Note_on_c,70,76,2,3,1,81.0,False
25379,7185, Note_on_c,58,76,2,3,1,67.0,False
25380,7186, Note_on_c,63,76,2,3,1,73.0,False
25381,7186, Note_on_c,68,76,2,3,1,79.0,False
25382,7187, Note_on_c,65,76,2,3,1,76.0,True
25383,7187, Note_on_c,70,76,2,3,1,81.0,False
25384,7188, Note_on_c,63,76,2,3,1,73.0,False
25385,7188, Note_on_c,68,76,2,3,1,79.0,False
25386,7189, Note_on_c,66,76,2,3,1,77.0,False
25387,7189, Note_on_c,70,76,2,3,1,81.0,False
25388,7190, Note_on_c,58,76,2,3,1,67.0,False
25389,7191, Note_on_c,63,76,2,3,1,73.0,False
25390,7191, Note_on_c,68,76,2,3,1,79.0,False
25391,7192, Note_on_c,65,76,2,3,1,76.0,True
25392,7192, Note_on_c,70,76,2,3,1,81.0,False
25393,7193, Note_on_c,58,76,2,3,1,67.0,False
25394,7194, Note_on_c,63,76,2,3,1,73.0,False
25395,7194, Note_on_c,68,76,2,3,1,79.0,False
25396,7195, Note_on_c,65,76,2,3,1,76.0,True
25397,7195, Note_on_c,70,76,2,3,1,81.0,False
25398,7196, Note_on_c,63,76,2,3,1,73.0,False
25399,7196, Note_on_c,68,76,2,3,1,79.0,False
25400,7197, Note_on_c,66,76,2,3,1,77.0,False
25401,7197, Note_on_c,70,76,2,3,1,81.0,False
25402,7198, Note_on_c,58,76,2,3,1,67.0,False
25403,7199, Note_on_c,63,76,2,3,1,73.0,False
25404,7199, Note_on_c,68,76,2,3,1,79.0,False
25405,7200, Note_on_c,65,76,2,3,1,76.0,True
25406,7200, Note_on_c,70,76,2,3,1,81.0,False
25407,7201, Note_on_c,58,76,2,3,1,67.0,False
25408,7202, Note_on_c,63,76,2,3,1,73.0,False
25409,7202, Note_on_c,68,76,2,3,1,79.0,False
25410,7203, Note_on_c,65,76,2,3,1,76.0,True
25411,7203, Note_on_c,70,76,2,3,1,81.0,False
25412,7204, Note_on_c,63,76,2,3,1,73.0,False
25413,7204, Note_on_c,68,76,2,3,1,79.0,False
25414,7205, Note_on_c,66,76,2,3,1,77.0,False
25415,7205, Note_on_c,70,76,2,3,1,81.0,False
25416,7206, Note_on_c,58,76,2,3,1,67.0,False
25417,7207, Note_on_c,63,76,2,3,1,73.0,False
25418,7207, Note_on_c,68,76,2,3,1,79.0,False
25419,7208, Note_on_c,65,76,2,3,1,76.0,True
25420,7208, Note_on_c,70,76,2,3,1,81.0,False
25421,7209, Note_on_c,58,76,2,3,1,67.0,False
25422,7210, Note_on_c,63,76,2,3,1,73.0,False
25423,7210, Note_on_c,68,76,2,3,1,79.0,False
25424,7211, Note_on_c,65,76,2,3,1,76.0,True
25425,7211, Note_on_c,70,76,2,3,1,81.0,False
25426,7212, Note_on_c,63,76,2,3,1,73.0,False
25427,7212, Note_on_c,68,76,2,3,1,79.0,False
25428,7213, Note_on_c,66,76,2,3,1,77.0,False
25429,7213, Note_on_c,70,76,2,3,1,81.0,False
25430,7214, Note_on_c,58,76,2,3,1,67.0,False
25431,7215, Note_on_c,63,76,2,3,1,73.0,False
25432,7215, Note_on_c,68,76,2,3,1,79.0,False
25433,7216, Note_on_c,65,76,2,3,1,76.0,True
25434,7216, Note_on_c,70,76,2,3,1,81.0,False
25435,7217, Note_on_c,58,76,2,3,1,67.0,False
25436,7218, Note_on_c,63,76,2,3,1,73.0,False
25437,7218, Note_on_c,68,76,2,3,1,79.0,False
25438,7219, Note_on_c,65,76,2,3,1,76.0,True
25439,7219, Note_on_c,70,76,2,3,1,81.0,False
25440,7220, Note_on_c,63,76,2,3,1,73.0,False
25441,7220, Note_on_c,68,76,2,3,1,79.0,False
25442,7221, Note_on_c,66,76,2,3,1,77.0,False
25443,7221, Note_on_c,70,76,2,3,1,81.0,False
25444,7222, Note_on_c,58,76,2,3,1,67.0,False
25445,7223, Note_on_c,63,76,2,3,1,73.0,False
25446,7223, Note_on_c,68,76,2,3,1,79.0,False
25447,7224, Note_on_c,65,76,2,3,1,76.0,True
25448,7224, Note_on_c,70,76,2,3,1,81.0,False
25449,7225, Note_on_c,58,76,2,3,1,67.0,False
25450,7226, Note_on_c,63,76,2,3,1,73.0,False
25451,7226, Note_on_c,68,76,2,3,1,79.0,False
25452,7227, Note_on_c,65,76,2,3,1,76.0,True
25453,7227, Note_on_c,70,76,2,3,1,81.0,False
25454,7228, Note_on_c,63,76,2,3,1,73.0,False
25455,7228, Note_on_c,68,76,2,3,1,79.0,False
25456,7229, Note_on_c,66,76,2,3,1,77.0,False
25457,7229, Note_on_c,70,76,2,3,1,81.0,False
25458,7230, Note_on_c,58,76,2,3,1,67.0,False
25459,7231, Note_on_c,63,76,2,3,1,73.0,False
25460,7231, Note_on_c,68,76,2,3,1,79.0,False
25461,7232, Note_on_c,65,76,2,3,1,76.0,True
25462,7232, Note_on_c,70,76,2,3,1,81.0,False
25463,7233, Note_on_c,58,76,2,3,1,67.0,False
25464,7234, Note_on_c,63,76,2,3,1,73.0,False
25465,7234, Note_on_c,68,76,2,3,1,79.0,False
25466,7235, Note_on_c,65,76,2,3,1,76.0,True
25467,7235, Note_on_c,70,76,2,3,1,81.0,False
25468,7236, Note_on_c,63,76,2,3,1,73.0,False
25469,7236, Note_on_c,68,76,2,3,1,79.0,False
25470,7237, Note_on_c,66,76,2,3,1,77.0,False
25471,7237, Note_on_c,70,76,2,3,1,81.0,False
25472,7238, Note_on_c,58,76,2,3,1,67.0,False
25473,7239, Note_on_c,63,76,2,3,1,73.0,False
25474,7239, Note_on_c,68,76,2,3,1,79.0,False
25475,7240, Note_on_c,65,76,2,3,1,76.0,True
25476,7240, Note_on_c,70,76,2,3,1,81.0,False
25477,7241, Note_on_c,58,76,2,3,1,67.0,False
25478,7242, Note_on_c,63,76,2,3,1,73.0,False
25479,7242, Note_on_c,68,76,2,3,1,79.0,False
25480,7243, Note_on_c,65,76,2,3,1,76.0,True
25481,7243, Note_on_c,70,76,2,3,1,81.0,False
25482,7244, Note_on_c,63,76,2,3,1,73.0,False
25483,7244, Note_on_c,68,76,2,3,1,79.0,False
25484,7245, Note_on_c,66,76,2,3,1,77.0,False
25485,7245, Note_on_c,70,76,2,3,1,81.0,False
25486,7246, Note_on_c,58,76,2,3,1,67.0,False
25487,7247, Note_on_c,63,76,2,3,1,73.0,False
25488,7247, Note_on_c,68,76,2,3,1,79.0,False
25489,7248, Note_on_c,65,76,2,3,1,76.0,True
25490,7248, Note_on_c,70,76,2,3,1,81.0,False
25491,7249, Note_on_c,58,76,2,3,1,67.0,False
25492,7250, Note_on_c,63,76,2,3,1,73.0,False
25493,7250, Note_on_c,68,76,2,3,1,79.0,False
25494,7251, Note_on_c,65,76,2,3,1,76.0,True
25495,7251, Note_on_c,70,76,2,3,1,81.0,False
25496,7252, Note_on_c,63,76,2,3,1,73.0,False
25497,7252, Note_on_c,68,76,2,3,1,79.0,False
25498,7253, Note_on_c,66,76,2,3,1,77.0,False
25499,7253, Note_on_c,70,76,2,3,1,81.0,False
25500,7254, Note_on_c,58,76,2,3,1,67.0,False
25501,7255, Note_on_c,63,76,2,3,1,73.0,False
25502,7255, Note_on_c,68,76,2,3,1,79.0,False
25503,7256, Note_on_c,65,76,2,3,1,76.0,True
25504,7256, Note_on_c,70,76,2,3,1,81.0,False
25505,7257, Note_on_c,58,76,2,3,1,67.0,False
25506,7258, Note_on_c,63,76,2,3,1,73.0,False
25507,7258, Note_on_c,68,76,2,3,1,79.0,False
25508,7259, Note_on_c,65,76,2,3,1,76.0,True
25509,7259, Note_on_c,70,76,2,3,1,81.0,False
25510,7260, Note_on_c,63,76,2,3,1,73.0,False
25511,7260, Note_on_c,68,76,2,3,1,79.0,False
25512,7261, Note_on_c,66,76,2,3,1,77.0,False
25513,7261, Note_on_c,70,76,2,3,1,81.0,False
25514,7262, Note_on_c,58,76,2,3,1,67.0,False
25515,7263, Note_on_c,63,76,2,3,1,73.0,False
25516,7263, Note_on_c,68,76,2,3,1,79.0,False
25517,7264, Note_on_c,65,76,2,3,1,76.0,True
25518,7264, Note_on_c,70,76,2,3,1,81.0,False
25519,7265, Note_on_c,58,75,2,3,1,67.0,False
25520,7266, Note_on_c,63,76,2,3,1,73.0,False
25521,7266, Note_on_c,68,76,2,3,1,79.0,False
25522,7267, Note_on_c,65,76,2,3,1,76.0,True
25523,7267, Note_on_c,70,76,2,3,1,81.0,False
25524,7268, Note_on_c,63,77,2,3,1,73.0,False
25525,7268, Note_on_c,68,77,2,3,1,79.0,False
25526,7269, Note_on_c,66,78,2,3,1,77.0,False
25527,7269, Note_on_c,70,78,2,3,1,81.0,False
25528,7270, Note_on_c,58,78,2,3,1,67.0,False
25529,7271, Note_on_c,63,79,2,3,1,73.0,False
25530,7271, Note_on_c,68,79,2,3,1,79.0,False
25531,7272, Note_on_c,65,80,2,3,1,76.0,True
25532,7272, Note_on_c,70,80,2,3,1,81.0,False
25533,7273, Note_on_c,58,80,2,3,1,67.0,False
25534,7274, Note_on_c,63,81,2,3,1,73.0,False
25535,7274, Note_on_c,68,81,2,3,1,79.0,False
25536,7275, Note_on_c,65,82,2,3,1,76.0,True
25537,7275, Note_on_c,70,82,2,3,1,81.0,False
25538,7276, Note_on_c,63,82,2,3,1,73.0,False
25539,7276, Note_on_c,68,82,2,3,1,79.0,False
25540,7277, Note_on_c,66,83,2,3,1,77.0,False
25541,7277, Note_on_c,70,83,2,3,1,81.0,False
25542,7278, Note_on_c,58,84,2,3,1,67.0,False
25543,7279, Note_on_c,63,84,2,3,1,73.0,False
25544,7279, Note_on_c,68,84,2,3,1,79.0,False
25545,7280, Note_on_c,65,85,2,3,1,76.0,True
25546,7280, Note_on_c,70,85,2,3,1,81.0,False
25547,7281, Note_on_c,58,86,2,3,1,67.0,False
25548,7282, Note_on_c,63,86,2,3,1,73.0,False
25549,7282, Note_on_c,68,86,2,3,1,79.0,False
25550,7283, Note_on_c,65,87,2,3,1,76.0,True
25551,7283, Note_on_c,70,87,2,3,1,81.0,False
25552,7284, Note_on_c,63,88,2,3,1,73.0,False
25553,7284, Note_on_c,68,88,2,3,1,79.0,False
25554,7285, Note_on_c,66,88,2,3,1,77.0,False
25555,7285, Note_on_c,70,88,2,3,1,81.0,False
25556,7286, Note_on_c,58,89,2,3,1,67.0,False
25557,7287, Note_on_c,63,90,2,3,1,73.0,False
25558,7287, Note_on_c,68,90,2,3,1,79.0,False
25559,7288, Note_on_c,65,91,2,3,1,76.0,True
25560,7288, Note_on_c,70,91,2,3,1,81.0,False
25561,7289, Note_on_c,58,91,2,3,1,67.0,False
25562,7290, Note_on_c,63,92,2,3,1,73.0,False
25563,7290, Note_on_c,68,92,2,3,1,79.0,False
25564,7291, Note_on_c,65,93,2,3,1,76.0,True
25565,7291, Note_on_c,70,93,2,3,1,81.0,False
25566,7292, Note_on_c,63,93,2,3,1,73.0,False
25567,7292, Note_on_c,68,93,2,3,1,79.0,False
25568,7293, Note_on_c,66,94,2,3,1,77.0,False
25569,7293, Note_on_c,70,94,2,3,1,81.0,False
25570,7294, Note_on_c,58,95,2,3,1,67.0,False
25571,7295, Note_on_c,63,95,2,3,1,73.0,False
25572,7295, Note_on_c,68,95,2,3,1,79.0,False
25573,7296, Note_on_c,65,96,2,3,1,76.0,True
25574,7296, Note_on_c,70,96,2,3,1,81.0,False
25575,7297, Note_on_c,58,97,2,3,1,67.0,False
25576,7298, Note_on_c,63,97,2,3,1,73.0,False
25577,7298, Note_on_c,68,97,2,3,1,79.0,False
25578,7299, Note_on_c,65,98,2,3,1,76.0,True
25579,7299, Note_on_c,70,98,2,3,1,81.0,False
25580,7300, Note_on_c,63,99,2,3,1,73.0,False
25581,7300, Note_on_c,68,99,2,3,1,79.0,False
25582,7301, Note_on_c,66,99,2,3,1,77.0,False
25583,7301, Note_on_c,70,99,2,3,1,81.0,False
25584,7302, Note_on_c,58,100,2,3,1,67.0,False
25585,7303, Note_on_c,63,101,2,3,1,73.0,False
25586,7303, Note_on_c,68,101,2,3,1,79.0,False
25587,7304, Note_on_c,65,101,2,3,1,76.0,True
25588,7304, Note_on_c,70,101,2,3,1,81.0,False
25589,7305, Note_on_c,58,102,2,3,1,67.0,False
25590,7306, Note_on_c,63,103,2,3,1,73.0,False
25591,7306, Note_on_c,68,103,2,3,1,79.0,False
25592,7307, Note_on_c,65,103,2,3,1,76.0,True
25593,7307, Note_on_c,70,103,2,3,1,81.0,False
25594,7308, Note_on_c,63,104,2,3,1,73.0,False
25595,7308, Note_on_c,68,104,2,3,1,79.0,False
25596,7309, Note_on_c,66,105,2,3,1,77.0,False
25597,7309, Note_on_c,70,105,2,3,1,81.0,False
25598,7310, Note_on_c,58,105,2,3,1,67.0,False
25599,7311, Note_on_c,63,106,2,3,1,73.0,False
25600,7311, Note_on_c,68,106,2,3,1,79.0,False
25601,7312, Note_on_c,65,107,2,3,1,76.0,True
25602,7312, Note_on_c,70,107,2,3,1,81.0,False
25603,7313, End_track,,,2,3,-1,,False
25604,1, End_of_file,,,2,1,-1,,False
25605,1, Header,1,480,3,1,-1,1.0,False
25606,1, Start_track,,,3,1,-1,,False
25607,1, Channel_prefix,,,3,1,-1,,False
25608,1, Title_t,,,3,1,-1,,False
25609,1, Instrument_name_t,,,3,1,-1,,False
25610,1, Time_signature,2,24,3,1,-1,2.0,True
25611,1, Key_signature,,,3,1,-1,,False
25612,1, SMPTE_offset,0,0,3,1,-1,0.0,True
25613,1, Tempo,,,3,1,-1,,False
25614,1, Note_on_c,49,54,3,1,1,57.0,False
25615,2, Note_on_c,56,54,3,1,1,65.0,False
25616,2, Note_on_c,61,54,3,1,1,71.0,False
25617,3, Note_on_c,60,54,3,1,1,70.0,True
25618,3, Note_on_c,63,54,3,1,1,73.0,False
25619,4, Note_on_c,56,54,3,1,1,65.0,False
25620,4, Note_on_c,61,54,3,1,1,71.0,False
25621,5, Note_on_c,60,54,3,1,1,70.0,True
25622,5, Note_on_c,65,54,3,1,1,76.0,True
25623,6, Note_on_c,49,54,3,1,1,57.0,False
25624,7, Note_on_c,56,54,3,1,1,65.0,False
25625,7, Note_on_c,61,54,3,1,1,71.0,False
25626,8, Note_on_c,60,54,3,1,1,70.0,True
25627,8, Note_on_c,63,54,3,1,1,73.0,False
25628,9, Note_on_c,49,54,3,1,1,57.0,False
25629,10, Note_on_c,56,54,3,1,1,65.0,False
25630,10, Note_on_c,61,54,3,1,1,71.0,False
25631,11, Note_on_c,60,54,3,1,1,70.0,True
25632,11, Note_on_c,63,54,3,1,1,73.0,False
25633,12, Note_on_c,56,54,3,1,1,65.0,False
25634,12, Note_on_c,61,54,3,1,1,71.0,False
25635,13, Note_on_c,60,54,3,1,1,70.0,True
25636,13, Note_on_c,65,54,3,1,1,76.0,True
25637,14, Note_on_c,49,54,3,1,1,57.0,False
25638,15, Note_on_c,56,54,3,1,1,65.0,False
25639,15, Note_on_c,61,54,3,1,1,71.0,False
25640,16, Note_on_c,60,54,3,1,1,70.0,True
25641,16, Note_on_c,63,54,3,1,1,73.0,False
25642,17, Note_on_c,49,54,3,1,1,57.0,False
25643,18, Note_on_c,56,54,3,1,1,65.0,False
25644,18, Note_on_c,61,54,3,1,1,71.0,False
25645,19, Note_on_c,60,54,3,1,1,70.0,True
25646,19, Note_on_c,63,54,3,1,1,73.0,False
25647,20, Note_on_c,56,54,3,1,1,65.0,False
25648,20, Note_on_c,61,54,3,1,1,71.0,False
25649,21, Note_on_c,60,54,3,1,1,70.0,True
25650,21, Note_on_c,65,54,3,1,1,76.0,True
25651,22, Note_on_c,49,54,3,1,1,57.0,False
25652,23, Note_on_c,56,54,3,1,1,65.0,False
25653,23, Note_on_c,61,54,3,1,1,71.0,False
25654,24, Note_on_c,60,54,3,1,1,70.0,True
25655,24, Note_on_c,63,54,3,1,1,73.0,False
25656,25, Note_on_c,49,54,3,1,1,57.0,False
25657,26, Note_on_c,56,54,3,1,1,65.0,False
25658,26, Note_on_c,61,54,3,1,1,71.0,False
25659,27, Note_on_c,60,54,3,1,1,70.0,True
25660,27, Note_on_c,63,54,3,1,1,73.0,False
25661,28, Note_on_c,56,54,3,1,1,65.0,False
25662,28, Note_on_c,61,54,3,1,1,71.0,False
25663,29, Note_on_c,60,54,3,1,1,70.0,True
25664,29, Note_on_c,65,54,3,1,1,76.0,True
25665,30, Note_on_c,49,54,3,1,1,57.0,False
25666,31, Note_on_c,56,54,3,1,1,65.0,False
25667,31, Note_on_c,61,54,3,1,1,71.0,False
25668,32, Note_on_c,60,54,3,1,1,70.0,True
25669,32, Note_on_c,63,54,3,1,1,73.0,False
25670,33, Note_on_c,49,54,3,1,1,57.0,False
25671,34, Note_on_c,56,54,3,1,1,65.0,False
25672,34, Note_on_c,61,54,3,1,1,71.0,False
25673,35, Note_on_c,60,54,3,1,1,70.0,True
25674,35, Note_on_c,63,54,3,1,1,73.0,False
25675,36, Note_on_c,56,54,3,1,1,65.0,False
25676,36, Note_on_c,61,54,3,1,1,71.0,False
25677,37, Note_on_c,60,54,3,1,1,70.0,True
25678,37, Note_on_c,65,54,3,1,1,76.0,True
25679,38, Note_on_c,49,54,3,1,1,57.0,False
25680,39, Note_on_c,56,54,3,1,1,65.0,False
25681,39, Note_on_c,61,54,3,1,1,71.0,False
25682,40, Note_on_c,60,54,3,1,1,70.0,True
25683,40, Note_on_c,63,54,3,1,1,73.0,False
25684,41, Note_on_c,49,54,3,1,1,57.0,False
25685,42, Note_on_c,56,54,3,1,1,65.0,False
25686,42, Note_on_c,61,54,3,1,1,71.0,False
25687,43, Note_on_c,60,54,3,1,1,70.0,True
25688,43, Note_on_c,63,54,3,1,1,73.0,False
25689,44, Note_on_c,56,54,3,1,1,65.0,False
25690,44, Note_on_c,61,54,3,1,1,71.0,False
25691,45, Note_on_c,60,54,3,1,1,70.0,True
25692,45, Note_on_c,65,54,3,1,1,76.0,True
25693,46, Note_on_c,49,54,3,1,1,57.0,False
25694,47, Note_on_c,56,54,3,1,1,65.0,False
25695,47, Note_on_c,61,54,3,1,1,71.0,False
25696,48, Note_on_c,60,54,3,1,1,70.0,True
25697,48, Note_on_c,63,54,3,1,1,73.0,False
25698,49, Note_on_c,49,54,3,1,1,57.0,False
25699,50, Note_on_c,56,54,3,1,1,65.0,False
25700,50, Note_on_c,61,54,3,1,1,71.0,False
25701,51, Note_on_c,60,54,3,1,1,70.0,True
25702,51, Note_on_c,63,54,3,1,1,73.0,False
25703,52, Note_on_c,56,54,3,1,1,65.0,False
25704,52, Note_on_c,61,54,3,1,1,71.0,False
25705,53, Note_on_c,60,54,3,1,1,70.0,True
25706,53, Note_on_c,65,54,3,1,1,76.0,True
25707,54, Note_on_c,49,54,3,1,1,57.0,False
25708,55, Note_on_c,56,54,3,1,1,65.0,False
25709,55, Note_on_c,61,54,3,1,1,71.0,False
25710,56, Note_on_c,60,54,3,1,1,70.0,True
25711,56, Note_on_c,63,54,3,1,1,73.0,False
25712,57, Note_on_c,49,54,3,1,1,57.0,False
25713,58, Note_on_c,56,54,3,1,1,65.0,False
25714,58, Note_on_c,61,54,3,1,1,71.0,False
25715,59, Note_on_c,60,54,3,1,1,70.0,True
25716,59, Note_on_c,63,54,3,1,1,73.0,False
25717,60, Note_on_c,56,54,3,1,1,65.0,False
25718,60, Note_on_c,61,54,3,1,1,71.0,False
25719,61, Note_on_c,60,54,3,1,1,70.0,True
25720,61, Note_on_c,65,54,3,1,1,76.0,True
25721,62, Note_on_c,49,54,3,1,1,57.0,False
25722,63, Note_on_c,56,54,3,1,1,65.0,False
25723,63, Note_on_c,61,54,3,1,1,71.0,False
25724,64, Note_on_c,60,54,3,1,1,70.0,True
25725,64, Note_on_c,63,54,3,1,1,73.0,False
25726,65, Note_on_c,49,54,3,1,1,57.0,False
25727,66, Note_on_c,56,54,3,1,1,65.0,False
25728,66, Note_on_c,61,54,3,1,1,71.0,False
25729,67, Note_on_c,60,54,3,1,1,70.0,True
25730,67, Note_on_c,63,54,3,1,1,73.0,False
25731,68, Note_on_c,56,54,3,1,1,65.0,False
25732,68, Note_on_c,61,54,3,1,1,71.0,False
25733,69, Note_on_c,60,54,3,1,1,70.0,True
25734,69, Note_on_c,65,54,3,1,1,76.0,True
25735,70, Note_on_c,49,54,3,1,1,57.0,False
25736,71, Note_on_c,56,54,3,1,1,65.0,False
25737,71, Note_on_c,61,54,3,1,1,71.0,False
25738,72, Note_on_c,60,54,3,1,1,70.0,True
25739,72, Note_on_c,63,54,3,1,1,73.0,False
25740,73, Note_on_c,49,54,3,1,1,57.0,False
25741,74, Note_on_c,56,54,3,1,1,65.0,False
25742,74, Note_on_c,61,54,3,1,1,71.0,False
25743,75, Note_on_c,60,54,3,1,1,70.0,True
25744,75, Note_on_c,63,54,3,1,1,73.0,False
25745,76, Note_on_c,56,54,3,1,1,65.0,False
25746,76, Note_on_c,61,54,3,1,1,71.0,False
25747,77, Note_on_c,60,54,3,1,1,70.0,True
25748,77, Note_on_c,65,54,3,1,1,76.0,True
25749,78, Note_on_c,49,54,3,1,1,57.0,False
25750,79, Note_on_c,56,54,3,1,1,65.0,False
25751,79, Note_on_c,61,54,3,1,1,71.0,False
25752,80, Note_on_c,60,54,3,1,1,70.0,True
25753,80, Note_on_c,63,54,3,1,1,73.0,False
25754,81, Note_on_c,49,54,3,1,1,57.0,False
25755,82, Note_on_c,56,54,3,1,1,65.0,False
25756,82, Note_on_c,61,54,3,1,1,71.0,False
25757,83, Note_on_c,60,54,3,1,1,70.0,True
25758,83, Note_on_c,63,54,3,1,1,73.0,False
25759,84, Note_on_c,56,54,3,1,1,65.0,False
25760,84, Note_on_c,61,54,3,1,1,71.0,False
25761,85, Note_on_c,60,54,3,1,1,70.0,True
25762,85, Note_on_c,65,54,3,1,1,76.0,True
25763,86, Note_on_c,49,54,3,1,1,57.0,False
25764,87, Note_on_c,56,54,3,1,1,65.0,False
25765,87, Note_on_c,61,54,3,1,1,71.0,False
25766,88, Note_on_c,60,54,3,1,1,70.0,True
25767,88, Note_on_c,63,54,3,1,1,73.0,False
25768,89, Note_on_c,49,54,3,1,1,57.0,False
25769,90, Note_on_c,56,54,3,1,1,65.0,False
25770,90, Note_on_c,61,54,3,1,1,71.0,False
25771,91, Note_on_c,60,54,3,1,1,70.0,True
25772,91, Note_on_c,63,54,3,1,1,73.0,False
25773,92, Note_on_c,56,54,3,1,1,65.0,False
25774,92, Note_on_c,61,54,3,1,1,71.0,False
25775,93, Note_on_c,60,54,3,1,1,70.0,True
25776,93, Note_on_c,65,54,3,1,1,76.0,True
25777,94, Note_on_c,49,54,3,1,1,57.0,False
25778,95, Note_on_c,56,54,3,1,1,65.0,False
25779,95, Note_on_c,61,54,3,1,1,71.0,False
25780,96, Note_on_c,60,54,3,1,1,70.0,True
25781,96, Note_on_c,63,54,3,1,1,73.0,False
25782,97, Note_on_c,49,54,3,1,1,57.0,False
25783,98, Note_on_c,56,54,3,1,1,65.0,False
25784,98, Note_on_c,61,54,3,1,1,71.0,False
25785,99, Note_on_c,60,54,3,1,1,70.0,True
25786,99, Note_on_c,63,54,3,1,1,73.0,False
25787,100, Note_on_c,56,54,3,1,1,65.0,False
25788,100, Note_on_c,61,54,3,1,1,71.0,False
25789,101, Note_on_c,60,54,3,1,1,70.0,True
25790,101, Note_on_c,65,54,3,1,1,76.0,True
25791,102, Note_on_c,49,54,3,1,1,57.0,False
25792,103, Note_on_c,56,54,3,1,1,65.0,False
25793,103, Note_on_c,61,54,3,1,1,71.0,False
25794,104, Note_on_c,60,54,3,1,1,70.0,True
25795,104, Note_on_c,63,54,3,1,1,73.0,False
25796,105, Note_on_c,49,54,3,1,1,57.0,False
25797,106, Note_on_c,56,54,3,1,1,65.0,False
25798,106, Note_on_c,61,54,3,1,1,71.0,False
25799,107, Note_on_c,60,54,3,1,1,70.0,True
25800,107, Note_on_c,63,54,3,1,1,73.0,False
25801,108, Note_on_c,56,54,3,1,1,65.0,False
25802,108, Note_on_c,61,54,3,1,1,71.0,False
25803,109, Note_on_c,60,54,3,1,1,70.0,True
25804,109, Note_on_c,65,54,3,1,1,76.0,True
25805,110, Note_on_c,49,54,3,1,1,57.0,False
25806,111, Note_on_c,56,54,3,1,1,65.0,False
25807,111, Note_on_c,61,54,3,1,1,71.0,False
25808,112, Note_on_c,60,54,3,1,1,70.0,True
25809,112, Note_on_c,63,54,3,1,1,73.0,False
25810,113, Note_on_c,49,54,3,1,1,57.0,False
25811,114, Note_on_c,56,54,3,1,1,65.0,False
25812,114, Note_on_c,61,54,3,1,1,71.0,False
25813,115, Note_on_c,60,54,3,1,1,70.0,True
25814,115, Note_on_c,63,54,3,1,1,73.0,False
25815,116, Note_on_c,56,54,3,1,1,65.0,False
25816,116, Note_on_c,61,54,3,1,1,71.0,False
25817,117, Note_on_c,60,54,3,1,1,70.0,True
25818,117, Note_on_c,65,54,3,1,1,76.0,True
25819,118, Note_on_c,49,54,3,1,1,57.0,False
25820,119, Note_on_c,56,54,3,1,1,65.0,False
25821,119, Note_on_c,61,54,3,1,1,71.0,False
25822,120, Note_on_c,60,54,3,1,1,70.0,True
25823,120, Note_on_c,63,54,3,1,1,73.0,False
25824,121, Note_on_c,49,54,3,1,1,57.0,False
25825,122, Note_on_c,56,54,3,1,1,65.0,False
25826,122, Note_on_c,61,54,3,1,1,71.0,False
25827,123, Note_on_c,60,54,3,1,1,70.0,True
25828,123, Note_on_c,63,54,3,1,1,73.0,False
25829,124, Note_on_c,56,54,3,1,1,65.0,False
25830,124, Note_on_c,61,54,3,1,1,71.0,False
25831,125, Note_on_c,60,54,3,1,1,70.0,True
25832,125, Note_on_c,65,54,3,1,1,76.0,True
25833,126, Note_on_c,49,54,3,1,1,57.0,False
25834,127, Note_on_c,56,54,3,1,1,65.0,False
25835,127, Note_on_c,61,54,3,1,1,71.0,False
25836,128, Note_on_c,60,54,3,1,1,70.0,True
25837,128, Note_on_c,63,54,3,1,1,73.0,False
25838,129, Note_on_c,49,54,3,1,1,57.0,False
25839,130, Note_on_c,56,54,3,1,1,65.0,False
25840,130, Note_on_c,61,54,3,1,1,71.0,False
25841,131, Note_on_c,60,54,3,1,1,70.0,True
25842,131, Note_on_c,63,54,3,1,1,73.0,False
25843,132, Note_on_c,56,54,3,1,1,65.0,False
25844,132, Note_on_c,61,54,3,1,1,71.0,False
25845,133, Note_on_c,60,54,3,1,1,70.0,True
25846,133, Note_on_c,65,54,3,1,1,76.0,True
25847,134, Note_on_c,49,54,3,1,1,57.0,False
25848,135, Note_on_c,56,54,3,1,1,65.0,False
25849,135, Note_on_c,61,54,3,1,1,71.0,False
25850,136, Note_on_c,60,54,3,1,1,70.0,True
25851,136, Note_on_c,63,54,3,1,1,73.0,False
25852,137, Note_on_c,49,54,3,1,1,57.0,False
25853,138, Note_on_c,56,54,3,1,1,65.0,False
25854,138, Note_on_c,61,54,3,1,1,71.0,False
25855,139, Note_on_c,60,54,3,1,1,70.0,True
25856,139, Note_on_c,63,54,3,1,1,73.0,False
25857,140, Note_on_c,56,54,3,1,1,65.0,False
25858,140, Note_on_c,61,54,3,1,1,71.0,False
25859,141, Note_on_c,60,54,3,1,1,70.0,True
25860,141, Note_on_c,65,54,3,1,1,76.0,True
25861,142, Note_on_c,49,54,3,1,1,57.0,False
25862,143, Note_on_c,56,54,3,1,1,65.0,False
25863,143, Note_on_c,61,54,3,1,1,71.0,False
25864,144, Note_on_c,60,54,3,1,1,70.0,True
25865,144, Note_on_c,63,54,3,1,1,73.0,False
25866,145, Note_on_c,49,54,3,1,1,57.0,False
25867,146, Note_on_c,56,54,3,1,1,65.0,False
25868,146, Note_on_c,61,54,3,1,1,71.0,False
25869,147, Note_on_c,60,54,3,1,1,70.0,True
25870,147, Note_on_c,63,54,3,1,1,73.0,False
25871,148, Note_on_c,56,54,3,1,1,65.0,False
25872,148, Note_on_c,61,54,3,1,1,71.0,False
25873,149, Note_on_c,60,54,3,1,1,70.0,True
25874,149, Note_on_c,65,54,3,1,1,76.0,True
25875,150, Note_on_c,49,54,3,1,1,57.0,False
25876,151, Note_on_c,56,54,3,1,1,65.0,False
25877,151, Note_on_c,61,54,3,1,1,71.0,False
25878,152, Note_on_c,60,54,3,1,1,70.0,True
25879,152, Note_on_c,63,54,3,1,1,73.0,False
25880,153, Note_on_c,49,54,3,1,1,57.0,False
25881,154, Note_on_c,56,54,3,1,1,65.0,False
25882,154, Note_on_c,61,54,3,1,1,71.0,False
25883,155, Note_on_c,60,54,3,1,1,70.0,True
25884,155, Note_on_c,63,54,3,1,1,73.0,False
25885,156, Note_on_c,56,54,3,1,1,65.0,False
25886,156, Note_on_c,61,54,3,1,1,71.0,False
25887,157, Note_on_c,60,54,3,1,1,70.0,True
25888,157, Note_on_c,65,54,3,1,1,76.0,True
25889,158, Note_on_c,49,54,3,1,1,57.0,False
25890,159, Note_on_c,56,54,3,1,1,65.0,False
25891,159, Note_on_c,61,54,3,1,1,71.0,False
25892,160, Note_on_c,60,54,3,1,1,70.0,True
25893,160, Note_on_c,63,54,3,1,1,73.0,False
25894,161, Note_on_c,49,54,3,1,1,57.0,False
25895,162, Note_on_c,56,54,3,1,1,65.0,False
25896,162, Note_on_c,61,54,3,1,1,71.0,False
25897,163, Note_on_c,60,54,3,1,1,70.0,True
25898,163, Note_on_c,63,54,3,1,1,73.0,False
25899,164, Note_on_c,56,54,3,1,1,65.0,False
25900,164, Note_on_c,61,54,3,1,1,71.0,False
25901,165, Note_on_c,60,54,3,1,1,70.0,True
25902,165, Note_on_c,65,54,3,1,1,76.0,True
25903,166, Note_on_c,49,54,3,1,1,57.0,False
25904,167, Note_on_c,56,54,3,1,1,65.0,False
25905,167, Note_on_c,61,54,3,1,1,71.0,False
25906,168, Note_on_c,60,54,3,1,1,70.0,True
25907,168, Note_on_c,63,54,3,1,1,73.0,False
25908,169, Note_on_c,49,54,3,1,1,57.0,False
25909,170, Note_on_c,56,54,3,1,1,65.0,False
25910,170, Note_on_c,61,54,3,1,1,71.0,False
25911,171, Note_on_c,60,54,3,1,1,70.0,True
25912,171, Note_on_c,63,54,3,1,1,73.0,False
25913,172, Note_on_c,56,54,3,1,1,65.0,False
25914,172, Note_on_c,61,54,3,1,1,71.0,False
25915,173, Note_on_c,60,54,3,1,1,70.0,True
25916,173, Note_on_c,65,54,3,1,1,76.0,True
25917,174, Note_on_c,49,54,3,1,1,57.0,False
25918,175, Note_on_c,56,54,3,1,1,65.0,False
25919,175, Note_on_c,61,54,3,1,1,71.0,False
25920,176, Note_on_c,60,54,3,1,1,70.0,True
25921,176, Note_on_c,63,54,3,1,1,73.0,False
25922,177, Note_on_c,49,54,3,1,1,57.0,False
25923,178, Note_on_c,56,54,3,1,1,65.0,False
25924,178, Note_on_c,61,54,3,1,1,71.0,False
25925,179, Note_on_c,60,54,3,1,1,70.0,True
25926,179, Note_on_c,63,54,3,1,1,73.0,False
25927,180, Note_on_c,56,54,3,1,1,65.0,False
25928,180, Note_on_c,61,54,3,1,1,71.0,False
25929,181, Note_on_c,60,54,3,1,1,70.0,True
25930,181, Note_on_c,65,54,3,1,1,76.0,True
25931,182, Note_on_c,49,54,3,1,1,57.0,False
25932,183, Note_on_c,56,54,3,1,1,65.0,False
25933,183, Note_on_c,61,54,3,1,1,71.0,False
25934,184, Note_on_c,60,54,3,1,1,70.0,True
25935,184, Note_on_c,63,54,3,1,1,73.0,False
25936,185, Note_on_c,49,54,3,1,1,57.0,False
25937,186, Note_on_c,56,54,3,1,1,65.0,False
25938,186, Note_on_c,61,54,3,1,1,71.0,False
25939,187, Note_on_c,60,54,3,1,1,70.0,True
25940,187, Note_on_c,63,54,3,1,1,73.0,False
25941,188, Note_on_c,56,54,3,1,1,65.0,False
25942,188, Note_on_c,61,54,3,1,1,71.0,False
25943,189, Note_on_c,60,54,3,1,1,70.0,True
25944,189, Note_on_c,65,54,3,1,1,76.0,True
25945,190, Note_on_c,49,54,3,1,1,57.0,False
25946,191, Note_on_c,56,54,3,1,1,65.0,False
25947,191, Note_on_c,61,54,3,1,1,71.0,False
25948,192, Note_on_c,60,54,3,1,1,70.0,True
25949,192, Note_on_c,63,54,3,1,1,73.0,False
25950,193, Note_on_c,49,54,3,1,1,57.0,False
25951,194, Note_on_c,56,54,3,1,1,65.0,False
25952,194, Note_on_c,61,54,3,1,1,71.0,False
25953,195, Note_on_c,60,54,3,1,1,70.0,True
25954,195, Note_on_c,63,54,3,1,1,73.0,False
25955,196, Note_on_c,56,54,3,1,1,65.0,False
25956,196, Note_on_c,61,54,3,1,1,71.0,False
25957,197, Note_on_c,60,54,3,1,1,70.0,True
25958,197, Note_on_c,65,54,3,1,1,76.0,True
25959,198, Note_on_c,49,54,3,1,1,57.0,False
25960,199, Note_on_c,56,54,3,1,1,65.0,False
25961,199, Note_on_c,61,54,3,1,1,71.0,False
25962,200, Note_on_c,60,54,3,1,1,70.0,True
25963,200, Note_on_c,63,54,3,1,1,73.0,False
25964,201, Note_on_c,49,54,3,1,1,57.0,False
25965,202, Note_on_c,56,54,3,1,1,65.0,False
25966,202, Note_on_c,61,54,3,1,1,71.0,False
25967,203, Note_on_c,60,54,3,1,1,70.0,True
25968,203, Note_on_c,63,54,3,1,1,73.0,False
25969,204, Note_on_c,56,54,3,1,1,65.0,False
25970,204, Note_on_c,61,54,3,1,1,71.0,False
25971,205, Note_on_c,60,54,3,1,1,70.0,True
25972,205, Note_on_c,65,54,3,1,1,76.0,True
25973,206, Note_on_c,49,54,3,1,1,57.0,False
25974,207, Note_on_c,56,54,3,1,1,65.0,False
25975,207, Note_on_c,61,54,3,1,1,71.0,False
25976,208, Note_on_c,60,54,3,1,1,70.0,True
25977,208, Note_on_c,63,54,3,1,1,73.0,False
25978,209, Note_on_c,49,54,3,1,1,57.0,False
25979,210, Note_on_c,56,54,3,1,1,65.0,False
25980,210, Note_on_c,61,54,3,1,1,71.0,False
25981,211, Note_on_c,60,54,3,1,1,70.0,True
25982,211, Note_on_c,63,54,3,1,1,73.0,False
25983,212, Note_on_c,56,54,3,1,1,65.0,False
25984,212, Note_on_c,61,54,3,1,1,71.0,False
25985,213, Note_on_c,60,54,3,1,1,70.0,True
25986,213, Note_on_c,65,54,3,1,1,76.0,True
25987,214, Note_on_c,49,54,3,1,1,57.0,False
25988,215, Note_on_c,56,54,3,1,1,65.0,False
25989,215, Note_on_c,61,54,3,1,1,71.0,False
25990,216, Note_on_c,60,54,3,1,1,70.0,True
25991,216, Note_on_c,63,54,3,1,1,73.0,False
25992,217, Note_on_c,49,54,3,1,1,57.0,False
25993,218, Note_on_c,56,54,3,1,1,65.0,False
25994,218, Note_on_c,61,54,3,1,1,71.0,False
25995,219, Note_on_c,60,54,3,1,1,70.0,True
25996,219, Note_on_c,63,54,3,1,1,73.0,False
25997,220, Note_on_c,56,54,3,1,1,65.0,False
25998,220, Note_on_c,61,54,3,1,1,71.0,False
25999,221, Note_on_c,60,54,3,1,1,70.0,True
26000,221, Note_on_c,65,54,3,1,1,76.0,True
26001,222, Note_on_c,49,54,3,1,1,57.0,False
26002,223, Note_on_c,56,54,3,1,1,65.0,False
26003,223, Note_on_c,61,54,3,1,1,71.0,False
26004,224, Note_on_c,60,54,3,1,1,70.0,True
26005,224, Note_on_c,63,54,3,1,1,73.0,False
26006,225, Note_on_c,49,54,3,1,1,57.0,False
26007,226, Note_on_c,56,54,3,1,1,65.0,False
26008,226, Note_on_c,61,54,3,1,1,71.0,False
26009,227, Note_on_c,60,54,3,1,1,70.0,True
26010,227, Note_on_c,63,54,3,1,1,73.0,False
26011,228, Note_on_c,56,54,3,1,1,65.0,False
26012,228, Note_on_c,61,54,3,1,1,71.0,False
26013,229, Note_on_c,60,54,3,1,1,70.0,True
26014,229, Note_on_c,65,54,3,1,1,76.0,True
26015,230, Note_on_c,49,54,3,1,1,57.0,False
26016,231, Note_on_c,56,54,3,1,1,65.0,False
26017,231, Note_on_c,61,54,3,1,1,71.0,False
26018,232, Note_on_c,60,54,3,1,1,70.0,True
26019,232, Note_on_c,63,54,3,1,1,73.0,False
26020,233, Note_on_c,49,54,3,1,1,57.0,False
26021,234, Note_on_c,56,54,3,1,1,65.0,False
26022,234, Note_on_c,61,54,3,1,1,71.0,False
26023,235, Note_on_c,60,54,3,1,1,70.0,True
26024,235, Note_on_c,63,54,3,1,1,73.0,False
26025,236, Note_on_c,56,54,3,1,1,65.0,False
26026,236, Note_on_c,61,54,3,1,1,71.0,False
26027,237, Note_on_c,60,54,3,1,1,70.0,True
26028,237, Note_on_c,65,54,3,1,1,76.0,True
26029,238, Note_on_c,49,54,3,1,1,57.0,False
26030,239, Note_on_c,56,54,3,1,1,65.0,False
26031,239, Note_on_c,61,54,3,1,1,71.0,False
26032,240, Note_on_c,60,54,3,1,1,70.0,True
26033,240, Note_on_c,63,54,3,1,1,73.0,False
26034,241, Note_on_c,49,54,3,1,1,57.0,False
26035,242, Note_on_c,56,54,3,1,1,65.0,False
26036,242, Note_on_c,61,54,3,1,1,71.0,False
26037,243, Note_on_c,60,54,3,1,1,70.0,True
26038,243, Note_on_c,63,54,3,1,1,73.0,False
26039,244, Note_on_c,56,54,3,1,1,65.0,False
26040,244, Note_on_c,61,54,3,1,1,71.0,False
26041,245, Note_on_c,60,54,3,1,1,70.0,True
26042,245, Note_on_c,65,54,3,1,1,76.0,True
26043,246, Note_on_c,49,54,3,1,1,57.0,False
26044,247, Note_on_c,56,54,3,1,1,65.0,False
26045,247, Note_on_c,61,54,3,1,1,71.0,False
26046,248, Note_on_c,60,54,3,1,1,70.0,True
26047,248, Note_on_c,63,54,3,1,1,73.0,False
26048,249, Note_on_c,49,54,3,1,1,57.0,False
26049,250, Note_on_c,56,54,3,1,1,65.0,False
26050,250, Note_on_c,61,54,3,1,1,71.0,False
26051,251, Note_on_c,60,54,3,1,1,70.0,True
26052,251, Note_on_c,63,54,3,1,1,73.0,False
26053,252, Note_on_c,56,54,3,1,1,65.0,False
26054,252, Note_on_c,61,54,3,1,1,71.0,False
26055,253, Note_on_c,60,54,3,1,1,70.0,True
26056,253, Note_on_c,65,54,3,1,1,76.0,True
26057,254, Note_on_c,49,54,3,1,1,57.0,False
26058,255, Note_on_c,56,54,3,1,1,65.0,False
26059,255, Note_on_c,61,54,3,1,1,71.0,False
26060,256, Note_on_c,60,54,3,1,1,70.0,True
26061,256, Note_on_c,63,54,3,1,1,73.0,False
26062,257, Note_on_c,49,54,3,1,1,57.0,False
26063,258, Note_on_c,56,54,3,1,1,65.0,False
26064,258, Note_on_c,61,54,3,1,1,71.0,False
26065,259, Note_on_c,60,54,3,1,1,70.0,True
26066,259, Note_on_c,63,54,3,1,1,73.0,False
26067,260, Note_on_c,56,54,3,1,1,65.0,False
26068,260, Note_on_c,61,54,3,1,1,71.0,False
26069,261, Note_on_c,60,54,3,1,1,70.0,True
26070,261, Note_on_c,65,54,3,1,1,76.0,True
26071,262, Note_on_c,49,54,3,1,1,57.0,False
26072,263, Note_on_c,56,54,3,1,1,65.0,False
26073,263, Note_on_c,61,54,3,1,1,71.0,False
26074,264, Note_on_c,60,54,3,1,1,70.0,True
26075,264, Note_on_c,63,54,3,1,1,73.0,False
26076,265, Note_on_c,49,54,3,1,1,57.0,False
26077,266, Note_on_c,56,54,3,1,1,65.0,False
26078,266, Note_on_c,61,54,3,1,1,71.0,False
26079,267, Note_on_c,60,54,3,1,1,70.0,True
26080,267, Note_on_c,63,54,3,1,1,73.0,False
26081,268, Note_on_c,56,54,3,1,1,65.0,False
26082,268, Note_on_c,61,54,3,1,1,71.0,False
26083,269, Note_on_c,60,54,3,1,1,70.0,True
26084,269, Note_on_c,65,54,3,1,1,76.0,True
26085,270, Note_on_c,49,54,3,1,1,57.0,False
26086,271, Note_on_c,56,54,3,1,1,65.0,False
26087,271, Note_on_c,61,54,3,1,1,71.0,False
26088,272, Note_on_c,60,54,3,1,1,70.0,True
26089,272, Note_on_c,63,54,3,1,1,73.0,False
26090,273, Note_on_c,49,54,3,1,1,57.0,False
26091,274, Note_on_c,56,54,3,1,1,65.0,False
26092,274, Note_on_c,61,54,3,1,1,71.0,False
26093,275, Note_on_c,60,54,3,1,1,70.0,True
26094,275, Note_on_c,63,54,3,1,1,73.0,False
26095,276, Note_on_c,56,54,3,1,1,65.0,False
26096,276, Note_on_c,61,54,3,1,1,71.0,False
26097,277, Note_on_c,60,54,3,1,1,70.0,True
26098,277, Note_on_c,65,54,3,1,1,76.0,True
26099,278, Note_on_c,49,54,3,1,1,57.0,False
26100,279, Note_on_c,56,54,3,1,1,65.0,False
26101,279, Note_on_c,61,54,3,1,1,71.0,False
26102,280, Note_on_c,60,54,3,1,1,70.0,True
26103,280, Note_on_c,63,54,3,1,1,73.0,False
26104,281, Note_on_c,49,54,3,1,1,57.0,False
26105,282, Note_on_c,56,54,3,1,1,65.0,False
26106,282, Note_on_c,61,54,3,1,1,71.0,False
26107,283, Note_on_c,60,54,3,1,1,70.0,True
26108,283, Note_on_c,63,54,3,1,1,73.0,False
26109,284, Note_on_c,56,54,3,1,1,65.0,False
26110,284, Note_on_c,61,54,3,1,1,71.0,False
26111,285, Note_on_c,60,54,3,1,1,70.0,True
26112,285, Note_on_c,65,54,3,1,1,76.0,True
26113,286, Note_on_c,49,54,3,1,1,57.0,False
26114,287, Note_on_c,56,54,3,1,1,65.0,False
26115,287, Note_on_c,61,54,3,1,1,71.0,False
26116,288, Note_on_c,60,54,3,1,1,70.0,True
26117,288, Note_on_c,63,54,3,1,1,73.0,False
26118,289, Note_on_c,49,54,3,1,1,57.0,False
26119,290, Note_on_c,56,54,3,1,1,65.0,False
26120,290, Note_on_c,61,54,3,1,1,71.0,False
26121,291, Note_on_c,60,54,3,1,1,70.0,True
26122,291, Note_on_c,63,54,3,1,1,73.0,False
26123,292, Note_on_c,56,54,3,1,1,65.0,False
26124,292, Note_on_c,61,54,3,1,1,71.0,False
26125,293, Note_on_c,60,54,3,1,1,70.0,True
26126,293, Note_on_c,65,54,3,1,1,76.0,True
26127,294, Note_on_c,49,54,3,1,1,57.0,False
26128,295, Note_on_c,56,54,3,1,1,65.0,False
26129,295, Note_on_c,61,54,3,1,1,71.0,False
26130,296, Note_on_c,60,54,3,1,1,70.0,True
26131,296, Note_on_c,63,54,3,1,1,73.0,False
26132,297, Note_on_c,49,54,3,1,1,57.0,False
26133,298, Note_on_c,56,54,3,1,1,65.0,False
26134,298, Note_on_c,61,54,3,1,1,71.0,False
26135,299, Note_on_c,60,54,3,1,1,70.0,True
26136,299, Note_on_c,63,54,3,1,1,73.0,False
26137,300, Note_on_c,56,54,3,1,1,65.0,False
26138,300, Note_on_c,61,54,3,1,1,71.0,False
26139,301, Note_on_c,60,54,3,1,1,70.0,True
26140,301, Note_on_c,65,54,3,1,1,76.0,True
26141,302, Note_on_c,49,54,3,1,1,57.0,False
26142,303, Note_on_c,56,54,3,1,1,65.0,False
26143,303, Note_on_c,61,54,3,1,1,71.0,False
26144,304, Note_on_c,60,54,3,1,1,70.0,True
26145,304, Note_on_c,63,54,3,1,1,73.0,False
26146,305, Note_on_c,49,54,3,1,1,57.0,False
26147,306, Note_on_c,56,54,3,1,1,65.0,False
26148,306, Note_on_c,61,54,3,1,1,71.0,False
26149,307, Note_on_c,60,54,3,1,1,70.0,True
26150,307, Note_on_c,63,54,3,1,1,73.0,False
26151,308, Note_on_c,56,54,3,1,1,65.0,False
26152,308, Note_on_c,61,54,3,1,1,71.0,False
26153,309, Note_on_c,60,54,3,1,1,70.0,True
26154,309, Note_on_c,65,54,3,1,1,76.0,True
26155,310, Note_on_c,49,54,3,1,1,57.0,False
26156,311, Note_on_c,56,54,3,1,1,65.0,False
26157,311, Note_on_c,61,54,3,1,1,71.0,False
26158,312, Note_on_c,60,54,3,1,1,70.0,True
26159,312, Note_on_c,63,54,3,1,1,73.0,False
26160,313, Note_on_c,49,54,3,1,1,57.0,False
26161,314, Note_on_c,56,54,3,1,1,65.0,False
26162,314, Note_on_c,61,54,3,1,1,71.0,False
26163,315, Note_on_c,60,54,3,1,1,70.0,True
26164,315, Note_on_c,63,54,3,1,1,73.0,False
26165,316, Note_on_c,56,54,3,1,1,65.0,False
26166,316, Note_on_c,61,54,3,1,1,71.0,False
26167,317, Note_on_c,60,54,3,1,1,70.0,True
26168,317, Note_on_c,65,54,3,1,1,76.0,True
26169,318, Note_on_c,49,54,3,1,1,57.0,False
26170,319, Note_on_c,56,54,3,1,1,65.0,False
26171,319, Note_on_c,61,54,3,1,1,71.0,False
26172,320, Note_on_c,60,54,3,1,1,70.0,True
26173,320, Note_on_c,63,54,3,1,1,73.0,False
26174,321, Note_on_c,49,54,3,1,1,57.0,False
26175,322, Note_on_c,56,54,3,1,1,65.0,False
26176,322, Note_on_c,61,54,3,1,1,71.0,False
26177,323, Note_on_c,60,54,3,1,1,70.0,True
26178,323, Note_on_c,63,54,3,1,1,73.0,False
26179,324, Note_on_c,56,54,3,1,1,65.0,False
26180,324, Note_on_c,61,54,3,1,1,71.0,False
26181,325, Note_on_c,60,54,3,1,1,70.0,True
26182,325, Note_on_c,65,54,3,1,1,76.0,True
26183,326, Note_on_c,49,54,3,1,1,57.0,False
26184,327, Note_on_c,56,54,3,1,1,65.0,False
26185,327, Note_on_c,61,54,3,1,1,71.0,False
26186,328, Note_on_c,60,54,3,1,1,70.0,True
26187,328, Note_on_c,63,54,3,1,1,73.0,False
26188,329, Note_on_c,49,54,3,1,1,57.0,False
26189,330, Note_on_c,56,54,3,1,1,65.0,False
26190,330, Note_on_c,61,54,3,1,1,71.0,False
26191,331, Note_on_c,60,54,3,1,1,70.0,True
26192,331, Note_on_c,63,54,3,1,1,73.0,False
26193,332, Note_on_c,56,54,3,1,1,65.0,False
26194,332, Note_on_c,61,54,3,1,1,71.0,False
26195,333, Note_on_c,60,54,3,1,1,70.0,True
26196,333, Note_on_c,65,54,3,1,1,76.0,True
26197,334, Note_on_c,49,54,3,1,1,57.0,False
26198,335, Note_on_c,56,54,3,1,1,65.0,False
26199,335, Note_on_c,61,54,3,1,1,71.0,False
26200,336, Note_on_c,60,54,3,1,1,70.0,True
26201,336, Note_on_c,63,54,3,1,1,73.0,False
26202,337, Note_on_c,49,54,3,1,1,57.0,False
26203,338, Note_on_c,56,54,3,1,1,65.0,False
26204,338, Note_on_c,61,54,3,1,1,71.0,False
26205,339, Note_on_c,60,54,3,1,1,70.0,True
26206,339, Note_on_c,63,54,3,1,1,73.0,False
26207,340, Note_on_c,56,54,3,1,1,65.0,False
26208,340, Note_on_c,61,54,3,1,1,71.0,False
26209,341, Note_on_c,60,54,3,1,1,70.0,True
26210,341, Note_on_c,65,54,3,1,1,76.0,True
26211,342, Note_on_c,49,54,3,1,1,57.0,False
26212,343, Note_on_c,56,54,3,1,1,65.0,False
26213,343, Note_on_c,61,54,3,1,1,71.0,False
26214,344, Note_on_c,60,54,3,1,1,70.0,True
26215,344, Note_on_c,63,54,3,1,1,73.0,False
26216,345, Note_on_c,49,54,3,1,1,57.0,False
26217,346, Note_on_c,56,54,3,1,1,65.0,False
26218,346, Note_on_c,61,54,3,1,1,71.0,False
26219,347, Note_on_c,60,54,3,1,1,70.0,True
26220,347, Note_on_c,63,54,3,1,1,73.0,False
26221,348, Note_on_c,56,54,3,1,1,65.0,False
26222,348, Note_on_c,61,54,3,1,1,71.0,False
26223,349, Note_on_c,60,54,3,1,1,70.0,True
26224,349, Note_on_c,65,54,3,1,1,76.0,True
26225,350, Note_on_c,49,54,3,1,1,57.0,False
26226,351, Note_on_c,56,54,3,1,1,65.0,False
26227,351, Note_on_c,61,54,3,1,1,71.0,False
26228,352, Note_on_c,60,54,3,1,1,70.0,True
26229,352, Note_on_c,63,54,3,1,1,73.0,False
26230,353, Note_on_c,49,54,3,1,1,57.0,False
26231,354, Note_on_c,56,54,3,1,1,65.0,False
26232,354, Note_on_c,61,54,3,1,1,71.0,False
26233,355, Note_on_c,60,54,3,1,1,70.0,True
26234,355, Note_on_c,63,54,3,1,1,73.0,False
26235,356, Note_on_c,56,54,3,1,1,65.0,False
26236,356, Note_on_c,61,54,3,1,1,71.0,False
26237,357, Note_on_c,60,54,3,1,1,70.0,True
26238,357, Note_on_c,65,54,3,1,1,76.0,True
26239,358, Note_on_c,49,54,3,1,1,57.0,False
26240,359, Note_on_c,56,54,3,1,1,65.0,False
26241,359, Note_on_c,61,54,3,1,1,71.0,False
26242,360, Note_on_c,60,54,3,1,1,70.0,True
26243,360, Note_on_c,63,54,3,1,1,73.0,False
26244,361, Note_on_c,49,54,3,1,1,57.0,False
26245,362, Note_on_c,56,54,3,1,1,65.0,False
26246,362, Note_on_c,61,54,3,1,1,71.0,False
26247,363, Note_on_c,60,54,3,1,1,70.0,True
26248,363, Note_on_c,63,54,3,1,1,73.0,False
26249,364, Note_on_c,56,54,3,1,1,65.0,False
26250,364, Note_on_c,61,54,3,1,1,71.0,False
26251,365, Note_on_c,60,54,3,1,1,70.0,True
26252,365, Note_on_c,65,54,3,1,1,76.0,True
26253,366, Note_on_c,49,54,3,1,1,57.0,False
26254,367, Note_on_c,56,54,3,1,1,65.0,False
26255,367, Note_on_c,61,54,3,1,1,71.0,False
26256,368, Note_on_c,60,54,3,1,1,70.0,True
26257,368, Note_on_c,63,54,3,1,1,73.0,False
26258,369, Note_on_c,49,54,3,1,1,57.0,False
26259,370, Note_on_c,56,54,3,1,1,65.0,False
26260,370, Note_on_c,61,54,3,1,1,71.0,False
26261,371, Note_on_c,60,54,3,1,1,70.0,True
26262,371, Note_on_c,63,54,3,1,1,73.0,False
26263,372, Note_on_c,56,54,3,1,1,65.0,False
26264,372, Note_on_c,61,54,3,1,1,71.0,False
26265,373, Note_on_c,60,54,3,1,1,70.0,True
26266,373, Note_on_c,65,54,3,1,1,76.0,True
26267,374, Note_on_c,49,54,3,1,1,57.0,False
26268,375, Note_on_c,56,54,3,1,1,65.0,False
26269,375, Note_on_c,61,54,3,1,1,71.0,False
26270,376, Note_on_c,60,54,3,1,1,70.0,True
26271,376, Note_on_c,63,54,3,1,1,73.0,False
26272,377, Note_on_c,49,54,3,1,1,57.0,False
26273,378, Note_on_c,56,54,3,1,1,65.0,False
26274,378, Note_on_c,61,54,3,1,1,71.0,False
26275,379, Note_on_c,60,54,3,1,1,70.0,True
26276,379, Note_on_c,63,54,3,1,1,73.0,False
26277,380, Note_on_c,56,54,3,1,1,65.0,False
26278,380, Note_on_c,61,54,3,1,1,71.0,False
26279,381, Note_on_c,60,54,3,1,1,70.0,True
26280,381, Note_on_c,65,54,3,1,1,76.0,True
26281,382, Note_on_c,49,54,3,1,1,57.0,False
26282,383, Note_on_c,56,54,3,1,1,65.0,False
26283,383, Note_on_c,61,54,3,1,1,71.0,False
26284,384, Note_on_c,60,54,3,1,1,70.0,True
26285,384, Note_on_c,63,54,3,1,1,73.0,False
26286,385, Note_on_c,49,54,3,1,1,57.0,False
26287,386, Note_on_c,56,54,3,1,1,65.0,False
26288,386, Note_on_c,61,54,3,1,1,71.0,False
26289,387, Note_on_c,60,54,3,1,1,70.0,True
26290,387, Note_on_c,63,54,3,1,1,73.0,False
26291,388, Note_on_c,56,54,3,1,1,65.0,False
26292,388, Note_on_c,61,54,3,1,1,71.0,False
26293,389, Note_on_c,60,54,3,1,1,70.0,True
26294,389, Note_on_c,65,54,3,1,1,76.0,True
26295,390, Note_on_c,49,54,3,1,1,57.0,False
26296,391, Note_on_c,56,54,3,1,1,65.0,False
26297,391, Note_on_c,61,54,3,1,1,71.0,False
26298,392, Note_on_c,60,54,3,1,1,70.0,True
26299,392, Note_on_c,63,54,3,1,1,73.0,False
26300,393, Note_on_c,49,54,3,1,1,57.0,False
26301,394, Note_on_c,56,54,3,1,1,65.0,False
26302,394, Note_on_c,61,54,3,1,1,71.0,False
26303,395, Note_on_c,60,54,3,1,1,70.0,True
26304,395, Note_on_c,63,54,3,1,1,73.0,False
26305,396, Note_on_c,56,54,3,1,1,65.0,False
26306,396, Note_on_c,61,54,3,1,1,71.0,False
26307,397, Note_on_c,60,54,3,1,1,70.0,True
26308,397, Note_on_c,65,54,3,1,1,76.0,True
26309,398, Note_on_c,49,54,3,1,1,57.0,False
26310,399, Note_on_c,56,54,3,1,1,65.0,False
26311,399, Note_on_c,61,54,3,1,1,71.0,False
26312,400, Note_on_c,60,54,3,1,1,70.0,True
26313,400, Note_on_c,63,54,3,1,1,73.0,False
26314,401, Note_on_c,49,54,3,1,1,57.0,False
26315,402, Note_on_c,56,54,3,1,1,65.0,False
26316,402, Note_on_c,61,54,3,1,1,71.0,False
26317,403, Note_on_c,60,54,3,1,1,70.0,True
26318,403, Note_on_c,63,54,3,1,1,73.0,False
26319,404, Note_on_c,56,54,3,1,1,65.0,False
26320,404, Note_on_c,61,54,3,1,1,71.0,False
26321,405, Note_on_c,60,54,3,1,1,70.0,True
26322,405, Note_on_c,65,54,3,1,1,76.0,True
26323,406, Note_on_c,49,54,3,1,1,57.0,False
26324,407, Note_on_c,56,54,3,1,1,65.0,False
26325,407, Note_on_c,61,54,3,1,1,71.0,False
26326,408, Note_on_c,60,54,3,1,1,70.0,True
26327,408, Note_on_c,63,54,3,1,1,73.0,False
26328,409, Note_on_c,49,54,3,1,1,57.0,False
26329,410, Note_on_c,56,54,3,1,1,65.0,False
26330,410, Note_on_c,61,54,3,1,1,71.0,False
26331,411, Note_on_c,60,54,3,1,1,70.0,True
26332,411, Note_on_c,63,54,3,1,1,73.0,False
26333,412, Note_on_c,56,54,3,1,1,65.0,False
26334,412, Note_on_c,61,54,3,1,1,71.0,False
26335,413, Note_on_c,60,54,3,1,1,70.0,True
26336,413, Note_on_c,65,54,3,1,1,76.0,True
26337,414, Note_on_c,49,54,3,1,1,57.0,False
26338,415, Note_on_c,56,54,3,1,1,65.0,False
26339,415, Note_on_c,61,54,3,1,1,71.0,False
26340,416, Note_on_c,60,54,3,1,1,70.0,True
26341,416, Note_on_c,63,54,3,1,1,73.0,False
26342,417, Note_on_c,49,54,3,1,1,57.0,False
26343,418, Note_on_c,56,54,3,1,1,65.0,False
26344,418, Note_on_c,61,54,3,1,1,71.0,False
26345,419, Note_on_c,60,54,3,1,1,70.0,True
26346,419, Note_on_c,63,54,3,1,1,73.0,False
26347,420, Note_on_c,56,54,3,1,1,65.0,False
26348,420, Note_on_c,61,54,3,1,1,71.0,False
26349,421, Note_on_c,60,54,3,1,1,70.0,True
26350,421, Note_on_c,65,54,3,1,1,76.0,True
26351,422, Note_on_c,49,54,3,1,1,57.0,False
26352,423, Note_on_c,56,54,3,1,1,65.0,False
26353,423, Note_on_c,61,54,3,1,1,71.0,False
26354,424, Note_on_c,60,54,3,1,1,70.0,True
26355,424, Note_on_c,63,54,3,1,1,73.0,False
26356,425, Note_on_c,49,54,3,1,1,57.0,False
26357,426, Note_on_c,56,54,3,1,1,65.0,False
26358,426, Note_on_c,61,54,3,1,1,71.0,False
26359,427, Note_on_c,60,54,3,1,1,70.0,True
26360,427, Note_on_c,63,54,3,1,1,73.0,False
26361,428, Note_on_c,56,54,3,1,1,65.0,False
26362,428, Note_on_c,61,54,3,1,1,71.0,False
26363,429, Note_on_c,60,54,3,1,1,70.0,True
26364,429, Note_on_c,65,54,3,1,1,76.0,True
26365,430, Note_on_c,49,54,3,1,1,57.0,False
26366,431, Note_on_c,56,54,3,1,1,65.0,False
26367,431, Note_on_c,61,54,3,1,1,71.0,False
26368,432, Note_on_c,60,54,3,1,1,70.0,True
26369,432, Note_on_c,63,54,3,1,1,73.0,False
26370,433, Note_on_c,49,54,3,1,1,57.0,False
26371,434, Note_on_c,56,54,3,1,1,65.0,False
26372,434, Note_on_c,61,54,3,1,1,71.0,False
26373,435, Note_on_c,60,54,3,1,1,70.0,True
26374,435, Note_on_c,63,54,3,1,1,73.0,False
26375,436, Note_on_c,56,54,3,1,1,65.0,False
26376,436, Note_on_c,61,54,3,1,1,71.0,False
26377,437, Note_on_c,60,54,3,1,1,70.0,True
26378,437, Note_on_c,65,54,3,1,1,76.0,True
26379,438, Note_on_c,49,54,3,1,1,57.0,False
26380,439, Note_on_c,56,54,3,1,1,65.0,False
26381,439, Note_on_c,61,54,3,1,1,71.0,False
26382,440, Note_on_c,60,54,3,1,1,70.0,True
26383,440, Note_on_c,63,54,3,1,1,73.0,False
26384,441, Note_on_c,49,54,3,1,1,57.0,False
26385,442, Note_on_c,56,54,3,1,1,65.0,False
26386,442, Note_on_c,61,54,3,1,1,71.0,False
26387,443, Note_on_c,60,54,3,1,1,70.0,True
26388,443, Note_on_c,63,54,3,1,1,73.0,False
26389,444, Note_on_c,56,54,3,1,1,65.0,False
26390,444, Note_on_c,61,54,3,1,1,71.0,False
26391,445, Note_on_c,60,54,3,1,1,70.0,True
26392,445, Note_on_c,65,54,3,1,1,76.0,True
26393,446, Note_on_c,49,54,3,1,1,57.0,False
26394,447, Note_on_c,56,54,3,1,1,65.0,False
26395,447, Note_on_c,61,54,3,1,1,71.0,False
26396,448, Note_on_c,60,54,3,1,1,70.0,True
26397,448, Note_on_c,63,54,3,1,1,73.0,False
26398,449, Note_on_c,49,54,3,1,1,57.0,False
26399,450, Note_on_c,56,54,3,1,1,65.0,False
26400,450, Note_on_c,61,54,3,1,1,71.0,False
26401,451, Note_on_c,60,54,3,1,1,70.0,True
26402,451, Note_on_c,63,54,3,1,1,73.0,False
26403,452, Note_on_c,56,54,3,1,1,65.0,False
26404,452, Note_on_c,61,54,3,1,1,71.0,False
26405,453, Note_on_c,60,54,3,1,1,70.0,True
26406,453, Note_on_c,65,54,3,1,1,76.0,True
26407,454, Note_on_c,49,54,3,1,1,57.0,False
26408,455, Note_on_c,56,54,3,1,1,65.0,False
26409,455, Note_on_c,61,54,3,1,1,71.0,False
26410,456, Note_on_c,60,54,3,1,1,70.0,True
26411,456, Note_on_c,63,54,3,1,1,73.0,False
26412,457, Note_on_c,49,54,3,1,1,57.0,False
26413,458, Note_on_c,56,54,3,1,1,65.0,False
26414,458, Note_on_c,61,54,3,1,1,71.0,False
26415,459, Note_on_c,60,54,3,1,1,70.0,True
26416,459, Note_on_c,63,54,3,1,1,73.0,False
26417,460, Note_on_c,56,54,3,1,1,65.0,False
26418,460, Note_on_c,61,54,3,1,1,71.0,False
26419,461, Note_on_c,60,54,3,1,1,70.0,True
26420,461, Note_on_c,65,54,3,1,1,76.0,True
26421,462, Note_on_c,49,54,3,1,1,57.0,False
26422,463, Note_on_c,56,54,3,1,1,65.0,False
26423,463, Note_on_c,61,54,3,1,1,71.0,False
26424,464, Note_on_c,60,54,3,1,1,70.0,True
26425,464, Note_on_c,63,54,3,1,1,73.0,False
26426,465, Note_on_c,49,54,3,1,1,57.0,False
26427,466, Note_on_c,56,54,3,1,1,65.0,False
26428,466, Note_on_c,61,54,3,1,1,71.0,False
26429,467, Note_on_c,60,54,3,1,1,70.0,True
26430,467, Note_on_c,63,54,3,1,1,73.0,False
26431,468, Note_on_c,56,54,3,1,1,65.0,False
26432,468, Note_on_c,61,54,3,1,1,71.0,False
26433,469, Note_on_c,60,54,3,1,1,70.0,True
26434,469, Note_on_c,65,54,3,1,1,76.0,True
26435,470, Note_on_c,49,54,3,1,1,57.0,False
26436,471, Note_on_c,56,54,3,1,1,65.0,False
26437,471, Note_on_c,61,54,3,1,1,71.0,False
26438,472, Note_on_c,60,54,3,1,1,70.0,True
26439,472, Note_on_c,63,54,3,1,1,73.0,False
26440,473, Note_on_c,49,54,3,1,1,57.0,False
26441,474, Note_on_c,56,54,3,1,1,65.0,False
26442,474, Note_on_c,61,54,3,1,1,71.0,False
26443,475, Note_on_c,60,54,3,1,1,70.0,True
26444,475, Note_on_c,63,54,3,1,1,73.0,False
26445,476, Note_on_c,56,54,3,1,1,65.0,False
26446,476, Note_on_c,61,54,3,1,1,71.0,False
26447,477, Note_on_c,60,54,3,1,1,70.0,True
26448,477, Note_on_c,65,54,3,1,1,76.0,True
26449,478, Note_on_c,49,54,3,1,1,57.0,False
26450,479, Note_on_c,56,54,3,1,1,65.0,False
26451,479, Note_on_c,61,54,3,1,1,71.0,False
26452,480, Note_on_c,60,54,3,1,1,70.0,True
26453,480, Note_on_c,63,54,3,1,1,73.0,False
26454,481, Note_on_c,49,54,3,1,1,57.0,False
26455,482, Note_on_c,56,54,3,1,1,65.0,False
26456,482, Note_on_c,61,54,3,1,1,71.0,False
26457,483, Note_on_c,60,54,3,1,1,70.0,True
26458,483, Note_on_c,63,54,3,1,1,73.0,False
26459,484, Note_on_c,56,54,3,1,1,65.0,False
26460,484, Note_on_c,61,54,3,1,1,71.0,False
26461,485, Note_on_c,60,54,3,1,1,70.0,True
26462,485, Note_on_c,65,54,3,1,1,76.0,True
26463,486, Note_on_c,49,54,3,1,1,57.0,False
26464,487, Note_on_c,56,54,3,1,1,65.0,False
26465,487, Note_on_c,61,54,3,1,1,71.0,False
26466,488, Note_on_c,60,54,3,1,1,70.0,True
26467,488, Note_on_c,63,54,3,1,1,73.0,False
26468,489, Note_on_c,49,54,3,1,1,57.0,False
26469,490, Note_on_c,56,54,3,1,1,65.0,False
26470,490, Note_on_c,61,54,3,1,1,71.0,False
26471,491, Note_on_c,60,54,3,1,1,70.0,True
26472,491, Note_on_c,63,54,3,1,1,73.0,False
26473,492, Note_on_c,56,54,3,1,1,65.0,False
26474,492, Note_on_c,61,54,3,1,1,71.0,False
26475,493, Note_on_c,60,54,3,1,1,70.0,True
26476,493, Note_on_c,65,54,3,1,1,76.0,True
26477,494, Note_on_c,49,54,3,1,1,57.0,False
26478,495, Note_on_c,56,54,3,1,1,65.0,False
26479,495, Note_on_c,61,54,3,1,1,71.0,False
26480,496, Note_on_c,60,54,3,1,1,70.0,True
26481,496, Note_on_c,63,54,3,1,1,73.0,False
26482,497, Note_on_c,49,54,3,1,1,57.0,False
26483,498, Note_on_c,56,54,3,1,1,65.0,False
26484,498, Note_on_c,61,54,3,1,1,71.0,False
26485,499, Note_on_c,60,54,3,1,1,70.0,True
26486,499, Note_on_c,63,54,3,1,1,73.0,False
26487,500, Note_on_c,56,54,3,1,1,65.0,False
26488,500, Note_on_c,61,54,3,1,1,71.0,False
26489,501, Note_on_c,60,54,3,1,1,70.0,True
26490,501, Note_on_c,65,54,3,1,1,76.0,True
26491,502, Note_on_c,49,54,3,1,1,57.0,False
26492,503, Note_on_c,56,54,3,1,1,65.0,False
26493,503, Note_on_c,61,54,3,1,1,71.0,False
26494,504, Note_on_c,60,54,3,1,1,70.0,True
26495,504, Note_on_c,63,54,3,1,1,73.0,False
26496,505, Note_on_c,49,54,3,1,1,57.0,False
26497,506, Note_on_c,56,54,3,1,1,65.0,False
26498,506, Note_on_c,61,54,3,1,1,71.0,False
26499,507, Note_on_c,60,54,3,1,1,70.0,True
26500,507, Note_on_c,63,54,3,1,1,73.0,False
26501,508, Note_on_c,56,54,3,1,1,65.0,False
26502,508, Note_on_c,61,54,3,1,1,71.0,False
26503,509, Note_on_c,60,54,3,1,1,70.0,True
26504,509, Note_on_c,65,54,3,1,1,76.0,True
26505,510, Note_on_c,49,54,3,1,1,57.0,False
26506,511, Note_on_c,56,54,3,1,1,65.0,False
26507,511, Note_on_c,61,54,3,1,1,71.0,False
26508,512, Note_on_c,60,54,3,1,1,70.0,True
26509,512, Note_on_c,63,54,3,1,1,73.0,False
26510,513, Note_on_c,49,54,3,1,1,57.0,False
26511,514, Note_on_c,56,54,3,1,1,65.0,False
26512,514, Note_on_c,61,54,3,1,1,71.0,False
26513,515, Note_on_c,60,54,3,1,1,70.0,True
26514,515, Note_on_c,63,54,3,1,1,73.0,False
26515,516, Note_on_c,56,54,3,1,1,65.0,False
26516,516, Note_on_c,61,54,3,1,1,71.0,False
26517,517, Note_on_c,60,54,3,1,1,70.0,True
26518,517, Note_on_c,65,54,3,1,1,76.0,True
26519,518, Note_on_c,49,54,3,1,1,57.0,False
26520,519, Note_on_c,56,54,3,1,1,65.0,False
26521,519, Note_on_c,61,54,3,1,1,71.0,False
26522,520, Note_on_c,60,54,3,1,1,70.0,True
26523,520, Note_on_c,63,54,3,1,1,73.0,False
26524,521, Note_on_c,49,54,3,1,1,57.0,False
26525,522, Note_on_c,56,54,3,1,1,65.0,False
26526,522, Note_on_c,61,54,3,1,1,71.0,False
26527,523, Note_on_c,60,54,3,1,1,70.0,True
26528,523, Note_on_c,63,54,3,1,1,73.0,False
26529,524, Note_on_c,56,54,3,1,1,65.0,False
26530,524, Note_on_c,61,54,3,1,1,71.0,False
26531,525, Note_on_c,60,54,3,1,1,70.0,True
26532,525, Note_on_c,65,54,3,1,1,76.0,True
26533,526, Note_on_c,49,54,3,1,1,57.0,False
26534,527, Note_on_c,56,54,3,1,1,65.0,False
26535,527, Note_on_c,61,54,3,1,1,71.0,False
26536,528, Note_on_c,60,54,3,1,1,70.0,True
26537,528, Note_on_c,63,54,3,1,1,73.0,False
26538,529, Note_on_c,49,54,3,1,1,57.0,False
26539,530, Note_on_c,56,54,3,1,1,65.0,False
26540,530, Note_on_c,61,54,3,1,1,71.0,False
26541,531, Note_on_c,60,54,3,1,1,70.0,True
26542,531, Note_on_c,63,54,3,1,1,73.0,False
26543,532, Note_on_c,56,54,3,1,1,65.0,False
26544,532, Note_on_c,61,54,3,1,1,71.0,False
26545,533, Note_on_c,60,54,3,1,1,70.0,True
26546,533, Note_on_c,65,54,3,1,1,76.0,True
26547,534, Note_on_c,49,54,3,1,1,57.0,False
26548,535, Note_on_c,56,54,3,1,1,65.0,False
26549,535, Note_on_c,61,54,3,1,1,71.0,False
26550,536, Note_on_c,60,54,3,1,1,70.0,True
26551,536, Note_on_c,63,54,3,1,1,73.0,False
26552,537, Note_on_c,49,54,3,1,1,57.0,False
26553,538, Note_on_c,56,54,3,1,1,65.0,False
26554,538, Note_on_c,61,54,3,1,1,71.0,False
26555,539, Note_on_c,60,54,3,1,1,70.0,True
26556,539, Note_on_c,63,54,3,1,1,73.0,False
26557,540, Note_on_c,56,54,3,1,1,65.0,False
26558,540, Note_on_c,61,54,3,1,1,71.0,False
26559,541, Note_on_c,60,54,3,1,1,70.0,True
26560,541, Note_on_c,65,54,3,1,1,76.0,True
26561,542, Note_on_c,49,54,3,1,1,57.0,False
26562,543, Note_on_c,56,54,3,1,1,65.0,False
26563,543, Note_on_c,61,54,3,1,1,71.0,False
26564,544, Note_on_c,60,54,3,1,1,70.0,True
26565,544, Note_on_c,63,54,3,1,1,73.0,False
26566,545, Note_on_c,49,54,3,1,1,57.0,False
26567,546, Note_on_c,56,54,3,1,1,65.0,False
26568,546, Note_on_c,61,54,3,1,1,71.0,False
26569,547, Note_on_c,60,54,3,1,1,70.0,True
26570,547, Note_on_c,63,54,3,1,1,73.0,False
26571,548, Note_on_c,56,54,3,1,1,65.0,False
26572,548, Note_on_c,61,54,3,1,1,71.0,False
26573,549, Note_on_c,60,54,3,1,1,70.0,True
26574,549, Note_on_c,65,54,3,1,1,76.0,True
26575,550, Note_on_c,49,54,3,1,1,57.0,False
26576,551, Note_on_c,56,54,3,1,1,65.0,False
26577,551, Note_on_c,61,54,3,1,1,71.0,False
26578,552, Note_on_c,60,54,3,1,1,70.0,True
26579,552, Note_on_c,63,54,3,1,1,73.0,False
26580,553, Note_on_c,49,54,3,1,1,57.0,False
26581,554, Note_on_c,56,54,3,1,1,65.0,False
26582,554, Note_on_c,61,54,3,1,1,71.0,False
26583,555, Note_on_c,60,54,3,1,1,70.0,True
26584,555, Note_on_c,63,54,3,1,1,73.0,False
26585,556, Note_on_c,56,54,3,1,1,65.0,False
26586,556, Note_on_c,61,54,3,1,1,71.0,False
26587,557, Note_on_c,60,54,3,1,1,70.0,True
26588,557, Note_on_c,65,54,3,1,1,76.0,True
26589,558, Note_on_c,49,54,3,1,1,57.0,False
26590,559, Note_on_c,56,54,3,1,1,65.0,False
26591,559, Note_on_c,61,54,3,1,1,71.0,False
26592,560, Note_on_c,60,54,3,1,1,70.0,True
26593,560, Note_on_c,63,54,3,1,1,73.0,False
26594,561, Note_on_c,49,54,3,1,1,57.0,False
26595,562, Note_on_c,56,54,3,1,1,65.0,False
26596,562, Note_on_c,61,54,3,1,1,71.0,False
26597,563, Note_on_c,60,54,3,1,1,70.0,True
26598,563, Note_on_c,63,54,3,1,1,73.0,False
26599,564, Note_on_c,56,54,3,1,1,65.0,False
26600,564, Note_on_c,61,54,3,1,1,71.0,False
26601,565, Note_on_c,60,54,3,1,1,70.0,True
26602,565, Note_on_c,65,54,3,1,1,76.0,True
26603,566, Note_on_c,49,54,3,1,1,57.0,False
26604,567, Note_on_c,56,54,3,1,1,65.0,False
26605,567, Note_on_c,61,54,3,1,1,71.0,False
26606,568, Note_on_c,60,54,3,1,1,70.0,True
26607,568, Note_on_c,63,54,3,1,1,73.0,False
26608,569, Note_on_c,49,54,3,1,1,57.0,False
26609,570, Note_on_c,56,54,3,1,1,65.0,False
26610,570, Note_on_c,61,54,3,1,1,71.0,False
26611,571, Note_on_c,60,54,3,1,1,70.0,True
26612,571, Note_on_c,63,54,3,1,1,73.0,False
26613,572, Note_on_c,56,54,3,1,1,65.0,False
26614,572, Note_on_c,61,54,3,1,1,71.0,False
26615,573, Note_on_c,60,54,3,1,1,70.0,True
26616,573, Note_on_c,65,54,3,1,1,76.0,True
26617,574, Note_on_c,49,54,3,1,1,57.0,False
26618,575, Note_on_c,56,54,3,1,1,65.0,False
26619,575, Note_on_c,61,54,3,1,1,71.0,False
26620,576, Note_on_c,60,54,3,1,1,70.0,True
26621,576, Note_on_c,63,54,3,1,1,73.0,False
26622,577, Note_on_c,49,54,3,1,1,57.0,False
26623,578, Note_on_c,56,54,3,1,1,65.0,False
26624,578, Note_on_c,61,54,3,1,1,71.0,False
26625,579, Note_on_c,60,54,3,1,1,70.0,True
26626,579, Note_on_c,63,54,3,1,1,73.0,False
26627,580, Note_on_c,56,54,3,1,1,65.0,False
26628,580, Note_on_c,61,54,3,1,1,71.0,False
26629,581, Note_on_c,60,54,3,1,1,70.0,True
26630,581, Note_on_c,65,54,3,1,1,76.0,True
26631,582, Note_on_c,49,54,3,1,1,57.0,False
26632,583, Note_on_c,56,54,3,1,1,65.0,False
26633,583, Note_on_c,61,54,3,1,1,71.0,False
26634,584, Note_on_c,60,54,3,1,1,70.0,True
26635,584, Note_on_c,63,54,3,1,1,73.0,False
26636,585, Note_on_c,49,54,3,1,1,57.0,False
26637,586, Note_on_c,56,54,3,1,1,65.0,False
26638,586, Note_on_c,61,54,3,1,1,71.0,False
26639,587, Note_on_c,60,54,3,1,1,70.0,True
26640,587, Note_on_c,63,54,3,1,1,73.0,False
26641,588, Note_on_c,56,54,3,1,1,65.0,False
26642,588, Note_on_c,61,54,3,1,1,71.0,False
26643,589, Note_on_c,60,54,3,1,1,70.0,True
26644,589, Note_on_c,65,54,3,1,1,76.0,True
26645,590, Note_on_c,49,54,3,1,1,57.0,False
26646,591, Note_on_c,56,54,3,1,1,65.0,False
26647,591, Note_on_c,61,54,3,1,1,71.0,False
26648,592, Note_on_c,60,54,3,1,1,70.0,True
26649,592, Note_on_c,63,54,3,1,1,73.0,False
26650,593, Note_on_c,49,54,3,1,1,57.0,False
26651,594, Note_on_c,56,54,3,1,1,65.0,False
26652,594, Note_on_c,61,54,3,1,1,71.0,False
26653,595, Note_on_c,60,54,3,1,1,70.0,True
26654,595, Note_on_c,63,54,3,1,1,73.0,False
26655,596, Note_on_c,56,54,3,1,1,65.0,False
26656,596, Note_on_c,61,54,3,1,1,71.0,False
26657,597, Note_on_c,60,54,3,1,1,70.0,True
26658,597, Note_on_c,65,54,3,1,1,76.0,True
26659,598, Note_on_c,49,54,3,1,1,57.0,False
26660,599, Note_on_c,56,54,3,1,1,65.0,False
26661,599, Note_on_c,61,54,3,1,1,71.0,False
26662,600, Note_on_c,60,54,3,1,1,70.0,True
26663,600, Note_on_c,63,54,3,1,1,73.0,False
26664,601, Note_on_c,49,54,3,1,1,57.0,False
26665,602, Note_on_c,56,54,3,1,1,65.0,False
26666,602, Note_on_c,61,54,3,1,1,71.0,False
26667,603, Note_on_c,60,54,3,1,1,70.0,True
26668,603, Note_on_c,63,54,3,1,1,73.0,False
26669,604, Note_on_c,56,54,3,1,1,65.0,False
26670,604, Note_on_c,61,54,3,1,1,71.0,False
26671,605, Note_on_c,60,54,3,1,1,70.0,True
26672,605, Note_on_c,65,54,3,1,1,76.0,True
26673,606, Note_on_c,49,54,3,1,1,57.0,False
26674,607, Note_on_c,56,54,3,1,1,65.0,False
26675,607, Note_on_c,61,54,3,1,1,71.0,False
26676,608, Note_on_c,60,54,3,1,1,70.0,True
26677,608, Note_on_c,63,54,3,1,1,73.0,False
26678,609, Note_on_c,49,54,3,1,1,57.0,False
26679,610, Note_on_c,56,54,3,1,1,65.0,False
26680,610, Note_on_c,61,54,3,1,1,71.0,False
26681,611, Note_on_c,60,54,3,1,1,70.0,True
26682,611, Note_on_c,63,54,3,1,1,73.0,False
26683,612, Note_on_c,56,54,3,1,1,65.0,False
26684,612, Note_on_c,61,54,3,1,1,71.0,False
26685,613, Note_on_c,60,54,3,1,1,70.0,True
26686,613, Note_on_c,65,54,3,1,1,76.0,True
26687,614, Note_on_c,49,54,3,1,1,57.0,False
26688,615, Note_on_c,56,54,3,1,1,65.0,False
26689,615, Note_on_c,61,54,3,1,1,71.0,False
26690,616, Note_on_c,60,54,3,1,1,70.0,True
26691,616, Note_on_c,63,54,3,1,1,73.0,False
26692,617, Note_on_c,49,54,3,1,1,57.0,False
26693,618, Note_on_c,56,54,3,1,1,65.0,False
26694,618, Note_on_c,61,54,3,1,1,71.0,False
26695,619, Note_on_c,60,54,3,1,1,70.0,True
26696,619, Note_on_c,63,54,3,1,1,73.0,False
26697,620, Note_on_c,56,54,3,1,1,65.0,False
26698,620, Note_on_c,61,54,3,1,1,71.0,False
26699,621, Note_on_c,60,54,3,1,1,70.0,True
26700,621, Note_on_c,65,54,3,1,1,76.0,True
26701,622, Note_on_c,49,54,3,1,1,57.0,False
26702,623, Note_on_c,56,54,3,1,1,65.0,False
26703,623, Note_on_c,61,54,3,1,1,71.0,False
26704,624, Note_on_c,60,54,3,1,1,70.0,True
26705,624, Note_on_c,63,54,3,1,1,73.0,False
26706,625, Note_on_c,49,54,3,1,1,57.0,False
26707,626, Note_on_c,56,54,3,1,1,65.0,False
26708,626, Note_on_c,61,54,3,1,1,71.0,False
26709,627, Note_on_c,60,54,3,1,1,70.0,True
26710,627, Note_on_c,63,54,3,1,1,73.0,False
26711,628, Note_on_c,56,54,3,1,1,65.0,False
26712,628, Note_on_c,61,54,3,1,1,71.0,False
26713,629, Note_on_c,60,54,3,1,1,70.0,True
26714,629, Note_on_c,65,54,3,1,1,76.0,True
26715,630, Note_on_c,49,54,3,1,1,57.0,False
26716,631, Note_on_c,56,54,3,1,1,65.0,False
26717,631, Note_on_c,61,54,3,1,1,71.0,False
26718,632, Note_on_c,60,54,3,1,1,70.0,True
26719,632, Note_on_c,63,54,3,1,1,73.0,False
26720,633, Note_on_c,49,54,3,1,1,57.0,False
26721,634, Note_on_c,56,54,3,1,1,65.0,False
26722,634, Note_on_c,61,54,3,1,1,71.0,False
26723,635, Note_on_c,60,54,3,1,1,70.0,True
26724,635, Note_on_c,63,54,3,1,1,73.0,False
26725,636, Note_on_c,56,54,3,1,1,65.0,False
26726,636, Note_on_c,61,54,3,1,1,71.0,False
26727,637, Note_on_c,60,54,3,1,1,70.0,True
26728,637, Note_on_c,65,54,3,1,1,76.0,True
26729,638, Note_on_c,49,54,3,1,1,57.0,False
26730,639, Note_on_c,56,54,3,1,1,65.0,False
26731,639, Note_on_c,61,54,3,1,1,71.0,False
26732,640, Note_on_c,60,54,3,1,1,70.0,True
26733,640, Note_on_c,63,54,3,1,1,73.0,False
26734,641, Note_on_c,49,54,3,1,1,57.0,False
26735,642, Note_on_c,56,54,3,1,1,65.0,False
26736,642, Note_on_c,61,54,3,1,1,71.0,False
26737,643, Note_on_c,60,54,3,1,1,70.0,True
26738,643, Note_on_c,63,54,3,1,1,73.0,False
26739,644, Note_on_c,56,54,3,1,1,65.0,False
26740,644, Note_on_c,61,54,3,1,1,71.0,False
26741,645, Note_on_c,60,54,3,1,1,70.0,True
26742,645, Note_on_c,65,54,3,1,1,76.0,True
26743,646, Note_on_c,49,54,3,1,1,57.0,False
26744,647, Note_on_c,56,54,3,1,1,65.0,False
26745,647, Note_on_c,61,54,3,1,1,71.0,False
26746,648, Note_on_c,60,54,3,1,1,70.0,True
26747,648, Note_on_c,63,54,3,1,1,73.0,False
26748,649, Note_on_c,49,54,3,1,1,57.0,False
26749,650, Note_on_c,56,54,3,1,1,65.0,False
26750,650, Note_on_c,61,54,3,1,1,71.0,False
26751,651, Note_on_c,60,54,3,1,1,70.0,True
26752,651, Note_on_c,63,54,3,1,1,73.0,False
26753,652, Note_on_c,56,54,3,1,1,65.0,False
26754,652, Note_on_c,61,54,3,1,1,71.0,False
26755,653, Note_on_c,60,54,3,1,1,70.0,True
26756,653, Note_on_c,65,54,3,1,1,76.0,True
26757,654, Note_on_c,49,54,3,1,1,57.0,False
26758,655, Note_on_c,56,54,3,1,1,65.0,False
26759,655, Note_on_c,61,54,3,1,1,71.0,False
26760,656, Note_on_c,60,54,3,1,1,70.0,True
26761,656, Note_on_c,63,54,3,1,1,73.0,False
26762,657, Note_on_c,49,54,3,1,1,57.0,False
26763,658, Note_on_c,56,54,3,1,1,65.0,False
26764,658, Note_on_c,61,54,3,1,1,71.0,False
26765,659, Note_on_c,60,54,3,1,1,70.0,True
26766,659, Note_on_c,63,54,3,1,1,73.0,False
26767,660, Note_on_c,56,54,3,1,1,65.0,False
26768,660, Note_on_c,61,54,3,1,1,71.0,False
26769,661, Note_on_c,60,54,3,1,1,70.0,True
26770,661, Note_on_c,65,54,3,1,1,76.0,True
26771,662, Note_on_c,49,54,3,1,1,57.0,False
26772,663, Note_on_c,56,54,3,1,1,65.0,False
26773,663, Note_on_c,61,54,3,1,1,71.0,False
26774,664, Note_on_c,60,54,3,1,1,70.0,True
26775,664, Note_on_c,63,54,3,1,1,73.0,False
26776,665, Note_on_c,49,54,3,1,1,57.0,False
26777,666, Note_on_c,56,54,3,1,1,65.0,False
26778,666, Note_on_c,61,54,3,1,1,71.0,False
26779,667, Note_on_c,60,54,3,1,1,70.0,True
26780,667, Note_on_c,63,54,3,1,1,73.0,False
26781,668, Note_on_c,56,54,3,1,1,65.0,False
26782,668, Note_on_c,61,54,3,1,1,71.0,False
26783,669, Note_on_c,60,54,3,1,1,70.0,True
26784,669, Note_on_c,65,54,3,1,1,76.0,True
26785,670, Note_on_c,49,54,3,1,1,57.0,False
26786,671, Note_on_c,56,54,3,1,1,65.0,False
26787,671, Note_on_c,61,54,3,1,1,71.0,False
26788,672, Note_on_c,60,54,3,1,1,70.0,True
26789,672, Note_on_c,63,54,3,1,1,73.0,False
26790,673, Note_on_c,49,54,3,1,1,57.0,False
26791,674, Note_on_c,56,54,3,1,1,65.0,False
26792,674, Note_on_c,61,54,3,1,1,71.0,False
26793,675, Note_on_c,60,54,3,1,1,70.0,True
26794,675, Note_on_c,63,54,3,1,1,73.0,False
26795,676, Note_on_c,56,54,3,1,1,65.0,False
26796,676, Note_on_c,61,54,3,1,1,71.0,False
26797,677, Note_on_c,60,54,3,1,1,70.0,True
26798,677, Note_on_c,65,54,3,1,1,76.0,True
26799,678, Note_on_c,49,54,3,1,1,57.0,False
26800,679, Note_on_c,56,54,3,1,1,65.0,False
26801,679, Note_on_c,61,54,3,1,1,71.0,False
26802,680, Note_on_c,60,54,3,1,1,70.0,True
26803,680, Note_on_c,63,54,3,1,1,73.0,False
26804,681, Note_on_c,49,54,3,1,1,57.0,False
26805,682, Note_on_c,56,54,3,1,1,65.0,False
26806,682, Note_on_c,61,54,3,1,1,71.0,False
26807,683, Note_on_c,60,54,3,1,1,70.0,True
26808,683, Note_on_c,63,54,3,1,1,73.0,False
26809,684, Note_on_c,56,54,3,1,1,65.0,False
26810,684, Note_on_c,61,54,3,1,1,71.0,False
26811,685, Note_on_c,60,54,3,1,1,70.0,True
26812,685, Note_on_c,65,54,3,1,1,76.0,True
26813,686, Note_on_c,49,54,3,1,1,57.0,False
26814,687, Note_on_c,56,54,3,1,1,65.0,False
26815,687, Note_on_c,61,54,3,1,1,71.0,False
26816,688, Note_on_c,60,54,3,1,1,70.0,True
26817,688, Note_on_c,63,54,3,1,1,73.0,False
26818,689, Note_on_c,49,54,3,1,1,57.0,False
26819,690, Note_on_c,56,54,3,1,1,65.0,False
26820,690, Note_on_c,61,54,3,1,1,71.0,False
26821,691, Note_on_c,60,54,3,1,1,70.0,True
26822,691, Note_on_c,63,54,3,1,1,73.0,False
26823,692, Note_on_c,56,54,3,1,1,65.0,False
26824,692, Note_on_c,61,54,3,1,1,71.0,False
26825,693, Note_on_c,60,54,3,1,1,70.0,True
26826,693, Note_on_c,65,54,3,1,1,76.0,True
26827,694, Note_on_c,49,54,3,1,1,57.0,False
26828,695, Note_on_c,56,54,3,1,1,65.0,False
26829,695, Note_on_c,61,54,3,1,1,71.0,False
26830,696, Note_on_c,60,54,3,1,1,70.0,True
26831,696, Note_on_c,63,54,3,1,1,73.0,False
26832,697, Note_on_c,49,54,3,1,1,57.0,False
26833,698, Note_on_c,56,54,3,1,1,65.0,False
26834,698, Note_on_c,61,54,3,1,1,71.0,False
26835,699, Note_on_c,60,54,3,1,1,70.0,True
26836,699, Note_on_c,63,54,3,1,1,73.0,False
26837,700, Note_on_c,56,54,3,1,1,65.0,False
26838,700, Note_on_c,61,54,3,1,1,71.0,False
26839,701, Note_on_c,60,54,3,1,1,70.0,True
26840,701, Note_on_c,65,54,3,1,1,76.0,True
26841,702, Note_on_c,49,54,3,1,1,57.0,False
26842,703, Note_on_c,56,54,3,1,1,65.0,False
26843,703, Note_on_c,61,54,3,1,1,71.0,False
26844,704, Note_on_c,60,54,3,1,1,70.0,True
26845,704, Note_on_c,63,54,3,1,1,73.0,False
26846,705, Note_on_c,49,54,3,1,1,57.0,False
26847,706, Note_on_c,56,54,3,1,1,65.0,False
26848,706, Note_on_c,61,54,3,1,1,71.0,False
26849,707, Note_on_c,60,54,3,1,1,70.0,True
26850,707, Note_on_c,63,54,3,1,1,73.0,False
26851,708, Note_on_c,56,54,3,1,1,65.0,False
26852,708, Note_on_c,61,54,3,1,1,71.0,False
26853,709, Note_on_c,60,54,3,1,1,70.0,True
26854,709, Note_on_c,65,54,3,1,1,76.0,True
26855,710, Note_on_c,49,54,3,1,1,57.0,False
26856,711, Note_on_c,56,54,3,1,1,65.0,False
26857,711, Note_on_c,61,54,3,1,1,71.0,False
26858,712, Note_on_c,60,54,3,1,1,70.0,True
26859,712, Note_on_c,63,54,3,1,1,73.0,False
26860,713, Note_on_c,49,54,3,1,1,57.0,False
26861,714, Note_on_c,56,54,3,1,1,65.0,False
26862,714, Note_on_c,61,54,3,1,1,71.0,False
26863,715, Note_on_c,60,54,3,1,1,70.0,True
26864,715, Note_on_c,63,54,3,1,1,73.0,False
26865,716, Note_on_c,56,54,3,1,1,65.0,False
26866,716, Note_on_c,61,54,3,1,1,71.0,False
26867,717, Note_on_c,60,54,3,1,1,70.0,True
26868,717, Note_on_c,65,54,3,1,1,76.0,True
26869,718, Note_on_c,49,54,3,1,1,57.0,False
26870,719, Note_on_c,56,54,3,1,1,65.0,False
26871,719, Note_on_c,61,54,3,1,1,71.0,False
26872,720, Note_on_c,60,54,3,1,1,70.0,True
26873,720, Note_on_c,63,54,3,1,1,73.0,False
26874,721, Note_on_c,49,54,3,1,1,57.0,False
26875,722, Note_on_c,56,54,3,1,1,65.0,False
26876,722, Note_on_c,61,54,3,1,1,71.0,False
26877,723, Note_on_c,60,54,3,1,1,70.0,True
26878,723, Note_on_c,63,54,3,1,1,73.0,False
26879,724, Note_on_c,56,54,3,1,1,65.0,False
26880,724, Note_on_c,61,54,3,1,1,71.0,False
26881,725, Note_on_c,60,54,3,1,1,70.0,True
26882,725, Note_on_c,65,54,3,1,1,76.0,True
26883,726, Note_on_c,49,54,3,1,1,57.0,False
26884,727, Note_on_c,56,54,3,1,1,65.0,False
26885,727, Note_on_c,61,54,3,1,1,71.0,False
26886,728, Note_on_c,60,54,3,1,1,70.0,True
26887,728, Note_on_c,63,54,3,1,1,73.0,False
26888,729, Note_on_c,49,54,3,1,1,57.0,False
26889,730, Note_on_c,56,54,3,1,1,65.0,False
26890,730, Note_on_c,61,54,3,1,1,71.0,False
26891,731, Note_on_c,60,54,3,1,1,70.0,True
26892,731, Note_on_c,63,54,3,1,1,73.0,False
26893,732, Note_on_c,56,54,3,1,1,65.0,False
26894,732, Note_on_c,61,54,3,1,1,71.0,False
26895,733, Note_on_c,60,54,3,1,1,70.0,True
26896,733, Note_on_c,65,54,3,1,1,76.0,True
26897,734, Note_on_c,49,54,3,1,1,57.0,False
26898,735, Note_on_c,56,54,3,1,1,65.0,False
26899,735, Note_on_c,61,54,3,1,1,71.0,False
26900,736, Note_on_c,60,54,3,1,1,70.0,True
26901,736, Note_on_c,63,54,3,1,1,73.0,False
26902,737, Note_on_c,49,54,3,1,1,57.0,False
26903,738, Note_on_c,56,54,3,1,1,65.0,False
26904,738, Note_on_c,61,54,3,1,1,71.0,False
26905,739, Note_on_c,60,54,3,1,1,70.0,True
26906,739, Note_on_c,63,54,3,1,1,73.0,False
26907,740, Note_on_c,56,54,3,1,1,65.0,False
26908,740, Note_on_c,61,54,3,1,1,71.0,False
26909,741, Note_on_c,60,54,3,1,1,70.0,True
26910,741, Note_on_c,65,54,3,1,1,76.0,True
26911,742, Note_on_c,49,54,3,1,1,57.0,False
26912,743, Note_on_c,56,54,3,1,1,65.0,False
26913,743, Note_on_c,61,54,3,1,1,71.0,False
26914,744, Note_on_c,60,54,3,1,1,70.0,True
26915,744, Note_on_c,63,54,3,1,1,73.0,False
26916,745, Note_on_c,49,54,3,1,1,57.0,False
26917,746, Note_on_c,56,54,3,1,1,65.0,False
26918,746, Note_on_c,61,54,3,1,1,71.0,False
26919,747, Note_on_c,60,54,3,1,1,70.0,True
26920,747, Note_on_c,63,54,3,1,1,73.0,False
26921,748, Note_on_c,56,54,3,1,1,65.0,False
26922,748, Note_on_c,61,54,3,1,1,71.0,False
26923,749, Note_on_c,60,54,3,1,1,70.0,True
26924,749, Note_on_c,65,54,3,1,1,76.0,True
26925,750, Note_on_c,49,54,3,1,1,57.0,False
26926,751, Note_on_c,56,54,3,1,1,65.0,False
26927,751, Note_on_c,61,54,3,1,1,71.0,False
26928,752, Note_on_c,60,54,3,1,1,70.0,True
26929,752, Note_on_c,63,54,3,1,1,73.0,False
26930,753, Note_on_c,49,54,3,1,1,57.0,False
26931,754, Note_on_c,56,54,3,1,1,65.0,False
26932,754, Note_on_c,61,54,3,1,1,71.0,False
26933,755, Note_on_c,60,54,3,1,1,70.0,True
26934,755, Note_on_c,63,54,3,1,1,73.0,False
26935,756, Note_on_c,56,54,3,1,1,65.0,False
26936,756, Note_on_c,61,54,3,1,1,71.0,False
26937,757, Note_on_c,60,54,3,1,1,70.0,True
26938,757, Note_on_c,65,54,3,1,1,76.0,True
26939,758, Note_on_c,49,54,3,1,1,57.0,False
26940,759, Note_on_c,56,54,3,1,1,65.0,False
26941,759, Note_on_c,61,54,3,1,1,71.0,False
26942,760, Note_on_c,60,54,3,1,1,70.0,True
26943,760, Note_on_c,63,54,3,1,1,73.0,False
26944,761, Note_on_c,49,54,3,1,1,57.0,False
26945,762, Note_on_c,56,54,3,1,1,65.0,False
26946,762, Note_on_c,61,54,3,1,1,71.0,False
26947,763, Note_on_c,60,54,3,1,1,70.0,True
26948,763, Note_on_c,63,54,3,1,1,73.0,False
26949,764, Note_on_c,56,54,3,1,1,65.0,False
26950,764, Note_on_c,61,54,3,1,1,71.0,False
26951,765, Note_on_c,60,54,3,1,1,70.0,True
26952,765, Note_on_c,65,54,3,1,1,76.0,True
26953,766, Note_on_c,49,54,3,1,1,57.0,False
26954,767, Note_on_c,56,54,3,1,1,65.0,False
26955,767, Note_on_c,61,54,3,1,1,71.0,False
26956,768, Note_on_c,60,54,3,1,1,70.0,True
26957,768, Note_on_c,63,54,3,1,1,73.0,False
26958,769, Note_on_c,49,54,3,1,1,57.0,False
26959,770, Note_on_c,56,54,3,1,1,65.0,False
26960,770, Note_on_c,61,54,3,1,1,71.0,False
26961,771, Note_on_c,60,54,3,1,1,70.0,True
26962,771, Note_on_c,63,54,3,1,1,73.0,False
26963,772, Note_on_c,56,54,3,1,1,65.0,False
26964,772, Note_on_c,61,54,3,1,1,71.0,False
26965,773, Note_on_c,60,54,3,1,1,70.0,True
26966,773, Note_on_c,65,54,3,1,1,76.0,True
26967,774, Note_on_c,49,54,3,1,1,57.0,False
26968,775, Note_on_c,56,54,3,1,1,65.0,False
26969,775, Note_on_c,61,54,3,1,1,71.0,False
26970,776, Note_on_c,60,54,3,1,1,70.0,True
26971,776, Note_on_c,63,54,3,1,1,73.0,False
26972,777, Note_on_c,49,54,3,1,1,57.0,False
26973,778, Note_on_c,56,54,3,1,1,65.0,False
26974,778, Note_on_c,61,54,3,1,1,71.0,False
26975,779, Note_on_c,60,54,3,1,1,70.0,True
26976,779, Note_on_c,63,54,3,1,1,73.0,False
26977,780, Note_on_c,56,54,3,1,1,65.0,False
26978,780, Note_on_c,61,54,3,1,1,71.0,False
26979,781, Note_on_c,60,54,3,1,1,70.0,True
26980,781, Note_on_c,65,54,3,1,1,76.0,True
26981,782, Note_on_c,49,54,3,1,1,57.0,False
26982,783, Note_on_c,56,54,3,1,1,65.0,False
26983,783, Note_on_c,61,54,3,1,1,71.0,False
26984,784, Note_on_c,60,54,3,1,1,70.0,True
26985,784, Note_on_c,63,54,3,1,1,73.0,False
26986,785, Note_on_c,49,54,3,1,1,57.0,False
26987,786, Note_on_c,56,54,3,1,1,65.0,False
26988,786, Note_on_c,61,54,3,1,1,71.0,False
26989,787, Note_on_c,60,54,3,1,1,70.0,True
26990,787, Note_on_c,63,54,3,1,1,73.0,False
26991,788, Note_on_c,56,54,3,1,1,65.0,False
26992,788, Note_on_c,61,54,3,1,1,71.0,False
26993,789, Note_on_c,60,54,3,1,1,70.0,True
26994,789, Note_on_c,65,54,3,1,1,76.0,True
26995,790, Note_on_c,49,54,3,1,1,57.0,False
26996,791, Note_on_c,56,54,3,1,1,65.0,False
26997,791, Note_on_c,61,54,3,1,1,71.0,False
26998,792, Note_on_c,60,54,3,1,1,70.0,True
26999,792, Note_on_c,63,54,3,1,1,73.0,False
27000,793, Note_on_c,49,54,3,1,1,57.0,False
27001,794, Note_on_c,56,54,3,1,1,65.0,False
27002,794, Note_on_c,61,54,3,1,1,71.0,False
27003,795, Note_on_c,60,54,3,1,1,70.0,True
27004,795, Note_on_c,63,54,3,1,1,73.0,False
27005,796, Note_on_c,56,54,3,1,1,65.0,False
27006,796, Note_on_c,61,54,3,1,1,71.0,False
27007,797, Note_on_c,60,54,3,1,1,70.0,True
27008,797, Note_on_c,65,54,3,1,1,76.0,True
27009,798, Note_on_c,49,54,3,1,1,57.0,False
27010,799, Note_on_c,56,54,3,1,1,65.0,False
27011,799, Note_on_c,61,54,3,1,1,71.0,False
27012,800, Note_on_c,60,54,3,1,1,70.0,True
27013,800, Note_on_c,63,54,3,1,1,73.0,False
27014,801, Note_on_c,49,54,3,1,1,57.0,False
27015,802, Note_on_c,56,54,3,1,1,65.0,False
27016,802, Note_on_c,61,54,3,1,1,71.0,False
27017,803, Note_on_c,60,54,3,1,1,70.0,True
27018,803, Note_on_c,63,54,3,1,1,73.0,False
27019,804, Note_on_c,56,54,3,1,1,65.0,False
27020,804, Note_on_c,61,54,3,1,1,71.0,False
27021,805, Note_on_c,60,54,3,1,1,70.0,True
27022,805, Note_on_c,65,54,3,1,1,76.0,True
27023,806, Note_on_c,49,54,3,1,1,57.0,False
27024,807, Note_on_c,56,54,3,1,1,65.0,False
27025,807, Note_on_c,61,54,3,1,1,71.0,False
27026,808, Note_on_c,60,54,3,1,1,70.0,True
27027,808, Note_on_c,63,54,3,1,1,73.0,False
27028,809, Note_on_c,49,54,3,1,1,57.0,False
27029,810, Note_on_c,56,54,3,1,1,65.0,False
27030,810, Note_on_c,61,54,3,1,1,71.0,False
27031,811, Note_on_c,60,54,3,1,1,70.0,True
27032,811, Note_on_c,63,54,3,1,1,73.0,False
27033,812, Note_on_c,56,54,3,1,1,65.0,False
27034,812, Note_on_c,61,54,3,1,1,71.0,False
27035,813, Note_on_c,60,54,3,1,1,70.0,True
27036,813, Note_on_c,65,54,3,1,1,76.0,True
27037,814, Note_on_c,49,54,3,1,1,57.0,False
27038,815, Note_on_c,56,54,3,1,1,65.0,False
27039,815, Note_on_c,61,54,3,1,1,71.0,False
27040,816, Note_on_c,60,54,3,1,1,70.0,True
27041,816, Note_on_c,63,54,3,1,1,73.0,False
27042,817, Note_on_c,49,54,3,1,1,57.0,False
27043,818, Note_on_c,56,54,3,1,1,65.0,False
27044,818, Note_on_c,61,54,3,1,1,71.0,False
27045,819, Note_on_c,60,54,3,1,1,70.0,True
27046,819, Note_on_c,63,54,3,1,1,73.0,False
27047,820, Note_on_c,56,54,3,1,1,65.0,False
27048,820, Note_on_c,61,54,3,1,1,71.0,False
27049,821, Note_on_c,60,54,3,1,1,70.0,True
27050,821, Note_on_c,65,54,3,1,1,76.0,True
27051,822, Note_on_c,49,54,3,1,1,57.0,False
27052,823, Note_on_c,56,54,3,1,1,65.0,False
27053,823, Note_on_c,61,54,3,1,1,71.0,False
27054,824, Note_on_c,60,54,3,1,1,70.0,True
27055,824, Note_on_c,63,54,3,1,1,73.0,False
27056,825, Note_on_c,49,54,3,1,1,57.0,False
27057,826, Note_on_c,56,54,3,1,1,65.0,False
27058,826, Note_on_c,61,54,3,1,1,71.0,False
27059,827, Note_on_c,60,54,3,1,1,70.0,True
27060,827, Note_on_c,63,54,3,1,1,73.0,False
27061,828, Note_on_c,56,54,3,1,1,65.0,False
27062,828, Note_on_c,61,54,3,1,1,71.0,False
27063,829, Note_on_c,60,54,3,1,1,70.0,True
27064,829, Note_on_c,65,54,3,1,1,76.0,True
27065,830, Note_on_c,49,54,3,1,1,57.0,False
27066,831, Note_on_c,56,54,3,1,1,65.0,False
27067,831, Note_on_c,61,54,3,1,1,71.0,False
27068,832, Note_on_c,60,54,3,1,1,70.0,True
27069,832, Note_on_c,63,54,3,1,1,73.0,False
27070,833, Note_on_c,49,54,3,1,1,57.0,False
27071,834, Note_on_c,56,54,3,1,1,65.0,False
27072,834, Note_on_c,61,54,3,1,1,71.0,False
27073,835, Note_on_c,60,54,3,1,1,70.0,True
27074,835, Note_on_c,63,54,3,1,1,73.0,False
27075,836, Note_on_c,56,54,3,1,1,65.0,False
27076,836, Note_on_c,61,54,3,1,1,71.0,False
27077,837, Note_on_c,60,54,3,1,1,70.0,True
27078,837, Note_on_c,65,54,3,1,1,76.0,True
27079,838, Note_on_c,49,54,3,1,1,57.0,False
27080,839, Note_on_c,56,54,3,1,1,65.0,False
27081,839, Note_on_c,61,54,3,1,1,71.0,False
27082,840, Note_on_c,60,54,3,1,1,70.0,True
27083,840, Note_on_c,63,54,3,1,1,73.0,False
27084,841, Note_on_c,49,54,3,1,1,57.0,False
27085,842, Note_on_c,56,54,3,1,1,65.0,False
27086,842, Note_on_c,61,54,3,1,1,71.0,False
27087,843, Note_on_c,60,54,3,1,1,70.0,True
27088,843, Note_on_c,63,54,3,1,1,73.0,False
27089,844, Note_on_c,56,54,3,1,1,65.0,False
27090,844, Note_on_c,61,54,3,1,1,71.0,False
27091,845, Note_on_c,60,54,3,1,1,70.0,True
27092,845, Note_on_c,65,54,3,1,1,76.0,True
27093,846, Note_on_c,49,54,3,1,1,57.0,False
27094,847, Note_on_c,56,54,3,1,1,65.0,False
27095,847, Note_on_c,61,54,3,1,1,71.0,False
27096,848, Note_on_c,60,54,3,1,1,70.0,True
27097,848, Note_on_c,63,54,3,1,1,73.0,False
27098,849, Note_on_c,49,54,3,1,1,57.0,False
27099,850, Note_on_c,56,54,3,1,1,65.0,False
27100,850, Note_on_c,61,54,3,1,1,71.0,False
27101,851, Note_on_c,60,54,3,1,1,70.0,True
27102,851, Note_on_c,63,54,3,1,1,73.0,False
27103,852, Note_on_c,56,54,3,1,1,65.0,False
27104,852, Note_on_c,61,54,3,1,1,71.0,False
27105,853, Note_on_c,60,54,3,1,1,70.0,True
27106,853, Note_on_c,65,54,3,1,1,76.0,True
27107,854, Note_on_c,49,54,3,1,1,57.0,False
27108,855, Note_on_c,56,54,3,1,1,65.0,False
27109,855, Note_on_c,61,54,3,1,1,71.0,False
27110,856, Note_on_c,60,54,3,1,1,70.0,True
27111,856, Note_on_c,63,54,3,1,1,73.0,False
27112,857, Note_on_c,49,54,3,1,1,57.0,False
27113,858, Note_on_c,56,54,3,1,1,65.0,False
27114,858, Note_on_c,61,54,3,1,1,71.0,False
27115,859, Note_on_c,60,54,3,1,1,70.0,True
27116,859, Note_on_c,63,54,3,1,1,73.0,False
27117,860, Note_on_c,56,54,3,1,1,65.0,False
27118,860, Note_on_c,61,54,3,1,1,71.0,False
27119,861, Note_on_c,60,54,3,1,1,70.0,True
27120,861, Note_on_c,65,54,3,1,1,76.0,True
27121,862, Note_on_c,49,54,3,1,1,57.0,False
27122,863, Note_on_c,56,54,3,1,1,65.0,False
27123,863, Note_on_c,61,54,3,1,1,71.0,False
27124,864, Note_on_c,60,54,3,1,1,70.0,True
27125,864, Note_on_c,63,54,3,1,1,73.0,False
27126,865, Note_on_c,49,54,3,1,1,57.0,False
27127,866, Note_on_c,56,54,3,1,1,65.0,False
27128,866, Note_on_c,61,54,3,1,1,71.0,False
27129,867, Note_on_c,60,54,3,1,1,70.0,True
27130,867, Note_on_c,63,54,3,1,1,73.0,False
27131,868, Note_on_c,56,54,3,1,1,65.0,False
27132,868, Note_on_c,61,54,3,1,1,71.0,False
27133,869, Note_on_c,60,54,3,1,1,70.0,True
27134,869, Note_on_c,65,54,3,1,1,76.0,True
27135,870, Note_on_c,49,54,3,1,1,57.0,False
27136,871, Note_on_c,56,54,3,1,1,65.0,False
27137,871, Note_on_c,61,54,3,1,1,71.0,False
27138,872, Note_on_c,60,54,3,1,1,70.0,True
27139,872, Note_on_c,63,54,3,1,1,73.0,False
27140,873, Note_on_c,49,54,3,1,1,57.0,False
27141,874, Note_on_c,56,54,3,1,1,65.0,False
27142,874, Note_on_c,61,54,3,1,1,71.0,False
27143,875, Note_on_c,60,54,3,1,1,70.0,True
27144,875, Note_on_c,63,54,3,1,1,73.0,False
27145,876, Note_on_c,56,54,3,1,1,65.0,False
27146,876, Note_on_c,61,54,3,1,1,71.0,False
27147,877, Note_on_c,60,54,3,1,1,70.0,True
27148,877, Note_on_c,65,54,3,1,1,76.0,True
27149,878, Note_on_c,49,54,3,1,1,57.0,False
27150,879, Note_on_c,56,54,3,1,1,65.0,False
27151,879, Note_on_c,61,54,3,1,1,71.0,False
27152,880, Note_on_c,60,54,3,1,1,70.0,True
27153,880, Note_on_c,63,54,3,1,1,73.0,False
27154,881, Note_on_c,49,54,3,1,1,57.0,False
27155,882, Note_on_c,56,54,3,1,1,65.0,False
27156,882, Note_on_c,61,54,3,1,1,71.0,False
27157,883, Note_on_c,60,54,3,1,1,70.0,True
27158,883, Note_on_c,63,54,3,1,1,73.0,False
27159,884, Note_on_c,56,54,3,1,1,65.0,False
27160,884, Note_on_c,61,54,3,1,1,71.0,False
27161,885, Note_on_c,60,54,3,1,1,70.0,True
27162,885, Note_on_c,65,54,3,1,1,76.0,True
27163,886, Note_on_c,49,54,3,1,1,57.0,False
27164,887, Note_on_c,56,54,3,1,1,65.0,False
27165,887, Note_on_c,61,54,3,1,1,71.0,False
27166,888, Note_on_c,60,54,3,1,1,70.0,True
27167,888, Note_on_c,63,54,3,1,1,73.0,False
27168,889, Note_on_c,49,54,3,1,1,57.0,False
27169,890, Note_on_c,56,54,3,1,1,65.0,False
27170,890, Note_on_c,61,54,3,1,1,71.0,False
27171,891, Note_on_c,60,54,3,1,1,70.0,True
27172,891, Note_on_c,63,54,3,1,1,73.0,False
27173,892, Note_on_c,56,54,3,1,1,65.0,False
27174,892, Note_on_c,61,54,3,1,1,71.0,False
27175,893, Note_on_c,60,54,3,1,1,70.0,True
27176,893, Note_on_c,65,54,3,1,1,76.0,True
27177,894, Note_on_c,49,54,3,1,1,57.0,False
27178,895, Note_on_c,56,54,3,1,1,65.0,False
27179,895, Note_on_c,61,54,3,1,1,71.0,False
27180,896, Note_on_c,60,54,3,1,1,70.0,True
27181,896, Note_on_c,63,54,3,1,1,73.0,False
27182,897, Note_on_c,49,54,3,1,1,57.0,False
27183,898, Note_on_c,56,54,3,1,1,65.0,False
27184,898, Note_on_c,61,54,3,1,1,71.0,False
27185,899, Note_on_c,60,54,3,1,1,70.0,True
27186,899, Note_on_c,63,54,3,1,1,73.0,False
27187,900, Note_on_c,56,54,3,1,1,65.0,False
27188,900, Note_on_c,61,54,3,1,1,71.0,False
27189,901, Note_on_c,60,54,3,1,1,70.0,True
27190,901, Note_on_c,65,54,3,1,1,76.0,True
27191,902, Note_on_c,49,54,3,1,1,57.0,False
27192,903, Note_on_c,56,54,3,1,1,65.0,False
27193,903, Note_on_c,61,54,3,1,1,71.0,False
27194,904, Note_on_c,60,54,3,1,1,70.0,True
27195,904, Note_on_c,63,54,3,1,1,73.0,False
27196,905, Note_on_c,49,54,3,1,1,57.0,False
27197,906, Note_on_c,56,54,3,1,1,65.0,False
27198,906, Note_on_c,61,54,3,1,1,71.0,False
27199,907, Note_on_c,60,54,3,1,1,70.0,True
27200,907, Note_on_c,63,54,3,1,1,73.0,False
27201,908, Note_on_c,56,54,3,1,1,65.0,False
27202,908, Note_on_c,61,54,3,1,1,71.0,False
27203,909, Note_on_c,60,54,3,1,1,70.0,True
27204,909, Note_on_c,65,54,3,1,1,76.0,True
27205,910, Note_on_c,49,54,3,1,1,57.0,False
27206,911, Note_on_c,56,54,3,1,1,65.0,False
27207,911, Note_on_c,61,54,3,1,1,71.0,False
27208,912, Note_on_c,60,54,3,1,1,70.0,True
27209,912, Note_on_c,63,54,3,1,1,73.0,False
27210,913, Note_on_c,49,54,3,1,1,57.0,False
27211,914, Note_on_c,56,54,3,1,1,65.0,False
27212,914, Note_on_c,61,54,3,1,1,71.0,False
27213,915, Note_on_c,60,54,3,1,1,70.0,True
27214,915, Note_on_c,63,54,3,1,1,73.0,False
27215,916, Note_on_c,56,54,3,1,1,65.0,False
27216,916, Note_on_c,61,54,3,1,1,71.0,False
27217,917, Note_on_c,60,54,3,1,1,70.0,True
27218,917, Note_on_c,65,54,3,1,1,76.0,True
27219,918, Note_on_c,49,54,3,1,1,57.0,False
27220,919, Note_on_c,56,54,3,1,1,65.0,False
27221,919, Note_on_c,61,54,3,1,1,71.0,False
27222,920, Note_on_c,60,54,3,1,1,70.0,True
27223,920, Note_on_c,63,54,3,1,1,73.0,False
27224,921, Note_on_c,49,54,3,1,1,57.0,False
27225,922, Note_on_c,56,54,3,1,1,65.0,False
27226,922, Note_on_c,61,54,3,1,1,71.0,False
27227,923, Note_on_c,60,54,3,1,1,70.0,True
27228,923, Note_on_c,63,54,3,1,1,73.0,False
27229,924, Note_on_c,56,54,3,1,1,65.0,False
27230,924, Note_on_c,61,54,3,1,1,71.0,False
27231,925, Note_on_c,60,54,3,1,1,70.0,True
27232,925, Note_on_c,65,54,3,1,1,76.0,True
27233,926, Note_on_c,49,54,3,1,1,57.0,False
27234,927, Note_on_c,56,54,3,1,1,65.0,False
27235,927, Note_on_c,61,54,3,1,1,71.0,False
27236,928, Note_on_c,60,54,3,1,1,70.0,True
27237,928, Note_on_c,63,54,3,1,1,73.0,False
27238,929, Note_on_c,49,54,3,1,1,57.0,False
27239,930, Note_on_c,56,54,3,1,1,65.0,False
27240,930, Note_on_c,61,54,3,1,1,71.0,False
27241,931, Note_on_c,60,54,3,1,1,70.0,True
27242,931, Note_on_c,63,54,3,1,1,73.0,False
27243,932, Note_on_c,56,54,3,1,1,65.0,False
27244,932, Note_on_c,61,54,3,1,1,71.0,False
27245,933, Note_on_c,60,54,3,1,1,70.0,True
27246,933, Note_on_c,65,54,3,1,1,76.0,True
27247,934, Note_on_c,49,54,3,1,1,57.0,False
27248,935, Note_on_c,56,54,3,1,1,65.0,False
27249,935, Note_on_c,61,54,3,1,1,71.0,False
27250,936, Note_on_c,60,54,3,1,1,70.0,True
27251,936, Note_on_c,63,54,3,1,1,73.0,False
27252,937, Note_on_c,49,54,3,1,1,57.0,False
27253,938, Note_on_c,56,54,3,1,1,65.0,False
27254,938, Note_on_c,61,54,3,1,1,71.0,False
27255,939, Note_on_c,60,54,3,1,1,70.0,True
27256,939, Note_on_c,63,54,3,1,1,73.0,False
27257,940, Note_on_c,56,54,3,1,1,65.0,False
27258,940, Note_on_c,61,54,3,1,1,71.0,False
27259,941, Note_on_c,60,54,3,1,1,70.0,True
27260,941, Note_on_c,65,54,3,1,1,76.0,True
27261,942, Note_on_c,49,54,3,1,1,57.0,False
27262,943, Note_on_c,56,54,3,1,1,65.0,False
27263,943, Note_on_c,61,54,3,1,1,71.0,False
27264,944, Note_on_c,60,54,3,1,1,70.0,True
27265,944, Note_on_c,63,54,3,1,1,73.0,False
27266,945, Note_on_c,49,54,3,1,1,57.0,False
27267,946, Note_on_c,56,54,3,1,1,65.0,False
27268,946, Note_on_c,61,54,3,1,1,71.0,False
27269,947, Note_on_c,60,54,3,1,1,70.0,True
27270,947, Note_on_c,63,54,3,1,1,73.0,False
27271,948, Note_on_c,56,54,3,1,1,65.0,False
27272,948, Note_on_c,61,54,3,1,1,71.0,False
27273,949, Note_on_c,60,54,3,1,1,70.0,True
27274,949, Note_on_c,65,54,3,1,1,76.0,True
27275,950, Note_on_c,49,54,3,1,1,57.0,False
27276,951, Note_on_c,56,54,3,1,1,65.0,False
27277,951, Note_on_c,61,54,3,1,1,71.0,False
27278,952, Note_on_c,60,54,3,1,1,70.0,True
27279,952, Note_on_c,63,54,3,1,1,73.0,False
27280,953, Note_on_c,49,54,3,1,1,57.0,False
27281,954, Note_on_c,56,54,3,1,1,65.0,False
27282,954, Note_on_c,61,54,3,1,1,71.0,False
27283,955, Note_on_c,60,54,3,1,1,70.0,True
27284,955, Note_on_c,63,54,3,1,1,73.0,False
27285,956, Note_on_c,56,54,3,1,1,65.0,False
27286,956, Note_on_c,61,54,3,1,1,71.0,False
27287,957, Note_on_c,60,54,3,1,1,70.0,True
27288,957, Note_on_c,65,54,3,1,1,76.0,True
27289,958, Note_on_c,49,54,3,1,1,57.0,False
27290,959, Note_on_c,56,54,3,1,1,65.0,False
27291,959, Note_on_c,61,54,3,1,1,71.0,False
27292,960, Note_on_c,60,54,3,1,1,70.0,True
27293,960, Note_on_c,63,54,3,1,1,73.0,False
27294,961, Note_on_c,49,54,3,1,1,57.0,False
27295,962, Note_on_c,56,54,3,1,1,65.0,False
27296,962, Note_on_c,61,54,3,1,1,71.0,False
27297,963, Note_on_c,60,54,3,1,1,70.0,True
27298,963, Note_on_c,63,54,3,1,1,73.0,False
27299,964, Note_on_c,56,54,3,1,1,65.0,False
27300,964, Note_on_c,61,54,3,1,1,71.0,False
27301,965, Note_on_c,60,54,3,1,1,70.0,True
27302,965, Note_on_c,65,54,3,1,1,76.0,True
27303,966, Note_on_c,49,54,3,1,1,57.0,False
27304,967, Note_on_c,56,54,3,1,1,65.0,False
27305,967, Note_on_c,61,54,3,1,1,71.0,False
27306,968, Note_on_c,60,54,3,1,1,70.0,True
27307,968, Note_on_c,63,54,3,1,1,73.0,False
27308,969, Note_on_c,49,54,3,1,1,57.0,False
27309,970, Note_on_c,56,54,3,1,1,65.0,False
27310,970, Note_on_c,61,54,3,1,1,71.0,False
27311,971, Note_on_c,60,54,3,1,1,70.0,True
27312,971, Note_on_c,63,54,3,1,1,73.0,False
27313,972, Note_on_c,56,54,3,1,1,65.0,False
27314,972, Note_on_c,61,54,3,1,1,71.0,False
27315,973, Note_on_c,60,54,3,1,1,70.0,True
27316,973, Note_on_c,65,54,3,1,1,76.0,True
27317,974, Note_on_c,49,54,3,1,1,57.0,False
27318,975, Note_on_c,56,54,3,1,1,65.0,False
27319,975, Note_on_c,61,54,3,1,1,71.0,False
27320,976, Note_on_c,60,54,3,1,1,70.0,True
27321,976, Note_on_c,63,54,3,1,1,73.0,False
27322,977, Note_on_c,49,54,3,1,1,57.0,False
27323,978, Note_on_c,56,54,3,1,1,65.0,False
27324,978, Note_on_c,61,54,3,1,1,71.0,False
27325,979, Note_on_c,60,54,3,1,1,70.0,True
27326,979, Note_on_c,63,54,3,1,1,73.0,False
27327,980, Note_on_c,56,54,3,1,1,65.0,False
27328,980, Note_on_c,61,54,3,1,1,71.0,False
27329,981, Note_on_c,60,54,3,1,1,70.0,True
27330,981, Note_on_c,65,54,3,1,1,76.0,True
27331,982, Note_on_c,49,54,3,1,1,57.0,False
27332,983, Note_on_c,56,54,3,1,1,65.0,False
27333,983, Note_on_c,61,54,3,1,1,71.0,False
27334,984, Note_on_c,60,54,3,1,1,70.0,True
27335,984, Note_on_c,63,54,3,1,1,73.0,False
27336,985, Note_on_c,49,54,3,1,1,57.0,False
27337,986, Note_on_c,56,54,3,1,1,65.0,False
27338,986, Note_on_c,61,54,3,1,1,71.0,False
27339,987, Note_on_c,60,54,3,1,1,70.0,True
27340,987, Note_on_c,63,54,3,1,1,73.0,False
27341,988, Note_on_c,56,54,3,1,1,65.0,False
27342,988, Note_on_c,61,54,3,1,1,71.0,False
27343,989, Note_on_c,60,54,3,1,1,70.0,True
27344,989, Note_on_c,65,54,3,1,1,76.0,True
27345,990, Note_on_c,49,54,3,1,1,57.0,False
27346,991, Note_on_c,56,54,3,1,1,65.0,False
27347,991, Note_on_c,61,54,3,1,1,71.0,False
27348,992, Note_on_c,60,54,3,1,1,70.0,True
27349,992, Note_on_c,63,54,3,1,1,73.0,False
27350,993, Note_on_c,49,54,3,1,1,57.0,False
27351,994, Note_on_c,56,54,3,1,1,65.0,False
27352,994, Note_on_c,61,54,3,1,1,71.0,False
27353,995, Note_on_c,60,54,3,1,1,70.0,True
27354,995, Note_on_c,63,54,3,1,1,73.0,False
27355,996, Note_on_c,56,54,3,1,1,65.0,False
27356,996, Note_on_c,61,54,3,1,1,71.0,False
27357,997, Note_on_c,60,54,3,1,1,70.0,True
27358,997, Note_on_c,65,54,3,1,1,76.0,True
27359,998, Note_on_c,49,54,3,1,1,57.0,False
27360,999, Note_on_c,56,54,3,1,1,65.0,False
27361,999, Note_on_c,61,54,3,1,1,71.0,False
27362,1000, Note_on_c,60,54,3,1,1,70.0,True
27363,1000, Note_on_c,63,54,3,1,1,73.0,False
27364,1001, Note_on_c,49,54,3,1,1,57.0,False
27365,1002, Note_on_c,56,54,3,1,1,65.0,False
27366,1002, Note_on_c,61,54,3,1,1,71.0,False
27367,1003, Note_on_c,60,54,3,1,1,70.0,True
27368,1003, Note_on_c,63,54,3,1,1,73.0,False
27369,1004, Note_on_c,56,54,3,1,1,65.0,False
27370,1004, Note_on_c,61,54,3,1,1,71.0,False
27371,1005, Note_on_c,60,54,3,1,1,70.0,True
27372,1005, Note_on_c,65,54,3,1,1,76.0,True
27373,1006, Note_on_c,49,54,3,1,1,57.0,False
27374,1007, Note_on_c,56,54,3,1,1,65.0,False
27375,1007, Note_on_c,61,54,3,1,1,71.0,False
27376,1008, Note_on_c,60,54,3,1,1,70.0,True
27377,1008, Note_on_c,63,54,3,1,1,73.0,False
27378,1009, Note_on_c,49,54,3,1,1,57.0,False
27379,1010, Note_on_c,56,54,3,1,1,65.0,False
27380,1010, Note_on_c,61,54,3,1,1,71.0,False
27381,1011, Note_on_c,60,54,3,1,1,70.0,True
27382,1011, Note_on_c,63,54,3,1,1,73.0,False
27383,1012, Note_on_c,56,54,3,1,1,65.0,False
27384,1012, Note_on_c,61,54,3,1,1,71.0,False
27385,1013, Note_on_c,60,54,3,1,1,70.0,True
27386,1013, Note_on_c,65,54,3,1,1,76.0,True
27387,1014, Note_on_c,49,54,3,1,1,57.0,False
27388,1015, Note_on_c,56,54,3,1,1,65.0,False
27389,1015, Note_on_c,61,54,3,1,1,71.0,False
27390,1016, Note_on_c,60,54,3,1,1,70.0,True
27391,1016, Note_on_c,63,54,3,1,1,73.0,False
27392,1017, Note_on_c,49,54,3,1,1,57.0,False
27393,1018, Note_on_c,56,54,3,1,1,65.0,False
27394,1018, Note_on_c,61,54,3,1,1,71.0,False
27395,1019, Note_on_c,60,54,3,1,1,70.0,True
27396,1019, Note_on_c,63,54,3,1,1,73.0,False
27397,1020, Note_on_c,56,54,3,1,1,65.0,False
27398,1020, Note_on_c,61,54,3,1,1,71.0,False
27399,1021, Note_on_c,60,54,3,1,1,70.0,True
27400,1021, Note_on_c,65,54,3,1,1,76.0,True
27401,1022, Note_on_c,49,54,3,1,1,57.0,False
27402,1023, Note_on_c,56,54,3,1,1,65.0,False
27403,1023, Note_on_c,61,54,3,1,1,71.0,False
27404,1024, Note_on_c,60,54,3,1,1,70.0,True
27405,1024, Note_on_c,63,54,3,1,1,73.0,False
27406,1025, Note_on_c,49,54,3,1,1,57.0,False
27407,1026, Note_on_c,56,54,3,1,1,65.0,False
27408,1026, Note_on_c,61,54,3,1,1,71.0,False
27409,1027, Note_on_c,60,54,3,1,1,70.0,True
27410,1027, Note_on_c,63,54,3,1,1,73.0,False
27411,1028, Note_on_c,56,54,3,1,1,65.0,False
27412,1028, Note_on_c,61,54,3,1,1,71.0,False
27413,1029, Note_on_c,60,54,3,1,1,70.0,True
27414,1029, Note_on_c,65,54,3,1,1,76.0,True
27415,1030, Note_on_c,49,54,3,1,1,57.0,False
27416,1031, Note_on_c,56,54,3,1,1,65.0,False
27417,1031, Note_on_c,61,54,3,1,1,71.0,False
27418,1032, Note_on_c,60,54,3,1,1,70.0,True
27419,1032, Note_on_c,63,54,3,1,1,73.0,False
27420,1033, Note_on_c,49,54,3,1,1,57.0,False
27421,1034, Note_on_c,56,54,3,1,1,65.0,False
27422,1034, Note_on_c,61,54,3,1,1,71.0,False
27423,1035, Note_on_c,60,54,3,1,1,70.0,True
27424,1035, Note_on_c,63,54,3,1,1,73.0,False
27425,1036, Note_on_c,56,54,3,1,1,65.0,False
27426,1036, Note_on_c,61,54,3,1,1,71.0,False
27427,1037, Note_on_c,60,54,3,1,1,70.0,True
27428,1037, Note_on_c,65,54,3,1,1,76.0,True
27429,1038, Note_on_c,49,54,3,1,1,57.0,False
27430,1039, Note_on_c,56,54,3,1,1,65.0,False
27431,1039, Note_on_c,61,54,3,1,1,71.0,False
27432,1040, Note_on_c,60,54,3,1,1,70.0,True
27433,1040, Note_on_c,63,54,3,1,1,73.0,False
27434,1041, Note_on_c,49,54,3,1,1,57.0,False
27435,1042, Note_on_c,56,54,3,1,1,65.0,False
27436,1042, Note_on_c,61,54,3,1,1,71.0,False
27437,1043, Note_on_c,60,54,3,1,1,70.0,True
27438,1043, Note_on_c,63,54,3,1,1,73.0,False
27439,1044, Note_on_c,56,54,3,1,1,65.0,False
27440,1044, Note_on_c,61,54,3,1,1,71.0,False
27441,1045, Note_on_c,60,54,3,1,1,70.0,True
27442,1045, Note_on_c,65,54,3,1,1,76.0,True
27443,1046, Note_on_c,49,54,3,1,1,57.0,False
27444,1047, Note_on_c,56,54,3,1,1,65.0,False
27445,1047, Note_on_c,61,54,3,1,1,71.0,False
27446,1048, Note_on_c,60,54,3,1,1,70.0,True
27447,1048, Note_on_c,63,54,3,1,1,73.0,False
27448,1049, Note_on_c,49,54,3,1,1,57.0,False
27449,1050, Note_on_c,56,54,3,1,1,65.0,False
27450,1050, Note_on_c,61,54,3,1,1,71.0,False
27451,1051, Note_on_c,60,54,3,1,1,70.0,True
27452,1051, Note_on_c,63,54,3,1,1,73.0,False
27453,1052, Note_on_c,56,54,3,1,1,65.0,False
27454,1052, Note_on_c,61,54,3,1,1,71.0,False
27455,1053, Note_on_c,60,54,3,1,1,70.0,True
27456,1053, Note_on_c,65,54,3,1,1,76.0,True
27457,1054, Note_on_c,49,54,3,1,1,57.0,False
27458,1055, Note_on_c,56,54,3,1,1,65.0,False
27459,1055, Note_on_c,61,54,3,1,1,71.0,False
27460,1056, Note_on_c,60,54,3,1,1,70.0,True
27461,1056, Note_on_c,63,54,3,1,1,73.0,False
27462,1057, Note_on_c,49,54,3,1,1,57.0,False
27463,1058, Note_on_c,56,54,3,1,1,65.0,False
27464,1058, Note_on_c,61,54,3,1,1,71.0,False
27465,1059, Note_on_c,60,54,3,1,1,70.0,True
27466,1059, Note_on_c,63,54,3,1,1,73.0,False
27467,1060, Note_on_c,56,54,3,1,1,65.0,False
27468,1060, Note_on_c,61,54,3,1,1,71.0,False
27469,1061, Note_on_c,60,54,3,1,1,70.0,True
27470,1061, Note_on_c,65,54,3,1,1,76.0,True
27471,1062, Note_on_c,49,54,3,1,1,57.0,False
27472,1063, Note_on_c,56,54,3,1,1,65.0,False
27473,1063, Note_on_c,61,54,3,1,1,71.0,False
27474,1064, Note_on_c,60,54,3,1,1,70.0,True
27475,1064, Note_on_c,63,54,3,1,1,73.0,False
27476,1065, Note_on_c,49,54,3,1,1,57.0,False
27477,1066, Note_on_c,56,54,3,1,1,65.0,False
27478,1066, Note_on_c,61,54,3,1,1,71.0,False
27479,1067, Note_on_c,60,54,3,1,1,70.0,True
27480,1067, Note_on_c,63,54,3,1,1,73.0,False
27481,1068, Note_on_c,56,54,3,1,1,65.0,False
27482,1068, Note_on_c,61,54,3,1,1,71.0,False
27483,1069, Note_on_c,60,54,3,1,1,70.0,True
27484,1069, Note_on_c,65,54,3,1,1,76.0,True
27485,1070, Note_on_c,49,54,3,1,1,57.0,False
27486,1071, Note_on_c,56,54,3,1,1,65.0,False
27487,1071, Note_on_c,61,54,3,1,1,71.0,False
27488,1072, Note_on_c,60,54,3,1,1,70.0,True
27489,1072, Note_on_c,63,54,3,1,1,73.0,False
27490,1073, Note_on_c,49,54,3,1,1,57.0,False
27491,1074, Note_on_c,56,54,3,1,1,65.0,False
27492,1074, Note_on_c,61,54,3,1,1,71.0,False
27493,1075, Note_on_c,60,54,3,1,1,70.0,True
27494,1075, Note_on_c,63,54,3,1,1,73.0,False
27495,1076, Note_on_c,56,54,3,1,1,65.0,False
27496,1076, Note_on_c,61,54,3,1,1,71.0,False
27497,1077, Note_on_c,60,54,3,1,1,70.0,True
27498,1077, Note_on_c,65,54,3,1,1,76.0,True
27499,1078, Note_on_c,49,54,3,1,1,57.0,False
27500,1079, Note_on_c,56,54,3,1,1,65.0,False
27501,1079, Note_on_c,61,54,3,1,1,71.0,False
27502,1080, Note_on_c,60,54,3,1,1,70.0,True
27503,1080, Note_on_c,63,54,3,1,1,73.0,False
27504,1081, Note_on_c,49,54,3,1,1,57.0,False
27505,1082, Note_on_c,56,54,3,1,1,65.0,False
27506,1082, Note_on_c,61,54,3,1,1,71.0,False
27507,1083, Note_on_c,60,54,3,1,1,70.0,True
27508,1083, Note_on_c,63,54,3,1,1,73.0,False
27509,1084, Note_on_c,56,54,3,1,1,65.0,False
27510,1084, Note_on_c,61,54,3,1,1,71.0,False
27511,1085, Note_on_c,60,54,3,1,1,70.0,True
27512,1085, Note_on_c,65,54,3,1,1,76.0,True
27513,1086, Note_on_c,49,54,3,1,1,57.0,False
27514,1087, Note_on_c,56,54,3,1,1,65.0,False
27515,1087, Note_on_c,61,54,3,1,1,71.0,False
27516,1088, Note_on_c,60,54,3,1,1,70.0,True
27517,1088, Note_on_c,63,54,3,1,1,73.0,False
27518,1089, Note_on_c,49,54,3,1,1,57.0,False
27519,1090, Note_on_c,56,54,3,1,1,65.0,False
27520,1090, Note_on_c,61,54,3,1,1,71.0,False
27521,1091, Note_on_c,60,54,3,1,1,70.0,True
27522,1091, Note_on_c,63,54,3,1,1,73.0,False
27523,1092, Note_on_c,56,54,3,1,1,65.0,False
27524,1092, Note_on_c,61,54,3,1,1,71.0,False
27525,1093, Note_on_c,60,54,3,1,1,70.0,True
27526,1093, Note_on_c,65,54,3,1,1,76.0,True
27527,1094, Note_on_c,49,54,3,1,1,57.0,False
27528,1095, Note_on_c,56,54,3,1,1,65.0,False
27529,1095, Note_on_c,61,54,3,1,1,71.0,False
27530,1096, Note_on_c,60,54,3,1,1,70.0,True
27531,1096, Note_on_c,63,54,3,1,1,73.0,False
27532,1097, Note_on_c,49,54,3,1,1,57.0,False
27533,1098, Note_on_c,56,54,3,1,1,65.0,False
27534,1098, Note_on_c,61,54,3,1,1,71.0,False
27535,1099, Note_on_c,60,54,3,1,1,70.0,True
27536,1099, Note_on_c,63,54,3,1,1,73.0,False
27537,1100, Note_on_c,56,54,3,1,1,65.0,False
27538,1100, Note_on_c,61,54,3,1,1,71.0,False
27539,1101, Note_on_c,60,54,3,1,1,70.0,True
27540,1101, Note_on_c,65,54,3,1,1,76.0,True
27541,1102, Note_on_c,49,54,3,1,1,57.0,False
27542,1103, Note_on_c,56,54,3,1,1,65.0,False
27543,1103, Note_on_c,61,54,3,1,1,71.0,False
27544,1104, Note_on_c,60,54,3,1,1,70.0,True
27545,1104, Note_on_c,63,54,3,1,1,73.0,False
27546,1105, Note_on_c,49,54,3,1,1,57.0,False
27547,1106, Note_on_c,56,54,3,1,1,65.0,False
27548,1106, Note_on_c,61,54,3,1,1,71.0,False
27549,1107, Note_on_c,60,54,3,1,1,70.0,True
27550,1107, Note_on_c,63,54,3,1,1,73.0,False
27551,1108, Note_on_c,56,54,3,1,1,65.0,False
27552,1108, Note_on_c,61,54,3,1,1,71.0,False
27553,1109, Note_on_c,60,54,3,1,1,70.0,True
27554,1109, Note_on_c,65,54,3,1,1,76.0,True
27555,1110, Note_on_c,49,54,3,1,1,57.0,False
27556,1111, Note_on_c,56,54,3,1,1,65.0,False
27557,1111, Note_on_c,61,54,3,1,1,71.0,False
27558,1112, Note_on_c,60,54,3,1,1,70.0,True
27559,1112, Note_on_c,63,54,3,1,1,73.0,False
27560,1113, Note_on_c,49,54,3,1,1,57.0,False
27561,1114, Note_on_c,56,54,3,1,1,65.0,False
27562,1114, Note_on_c,61,54,3,1,1,71.0,False
27563,1115, Note_on_c,60,54,3,1,1,70.0,True
27564,1115, Note_on_c,63,54,3,1,1,73.0,False
27565,1116, Note_on_c,56,54,3,1,1,65.0,False
27566,1116, Note_on_c,61,54,3,1,1,71.0,False
27567,1117, Note_on_c,60,54,3,1,1,70.0,True
27568,1117, Note_on_c,65,54,3,1,1,76.0,True
27569,1118, Note_on_c,49,54,3,1,1,57.0,False
27570,1119, Note_on_c,56,54,3,1,1,65.0,False
27571,1119, Note_on_c,61,54,3,1,1,71.0,False
27572,1120, Note_on_c,60,54,3,1,1,70.0,True
27573,1120, Note_on_c,63,54,3,1,1,73.0,False
27574,1121, Note_on_c,49,54,3,1,1,57.0,False
27575,1122, Note_on_c,56,54,3,1,1,65.0,False
27576,1122, Note_on_c,61,54,3,1,1,71.0,False
27577,1123, Note_on_c,60,54,3,1,1,70.0,True
27578,1123, Note_on_c,63,54,3,1,1,73.0,False
27579,1124, Note_on_c,56,54,3,1,1,65.0,False
27580,1124, Note_on_c,61,54,3,1,1,71.0,False
27581,1125, Note_on_c,60,54,3,1,1,70.0,True
27582,1125, Note_on_c,65,54,3,1,1,76.0,True
27583,1126, Note_on_c,49,54,3,1,1,57.0,False
27584,1127, Note_on_c,56,54,3,1,1,65.0,False
27585,1127, Note_on_c,61,54,3,1,1,71.0,False
27586,1128, Note_on_c,60,54,3,1,1,70.0,True
27587,1128, Note_on_c,63,54,3,1,1,73.0,False
27588,1129, Note_on_c,49,54,3,1,1,57.0,False
27589,1130, Note_on_c,56,54,3,1,1,65.0,False
27590,1130, Note_on_c,61,54,3,1,1,71.0,False
27591,1131, Note_on_c,60,54,3,1,1,70.0,True
27592,1131, Note_on_c,63,54,3,1,1,73.0,False
27593,1132, Note_on_c,56,54,3,1,1,65.0,False
27594,1132, Note_on_c,61,54,3,1,1,71.0,False
27595,1133, Note_on_c,60,54,3,1,1,70.0,True
27596,1133, Note_on_c,65,54,3,1,1,76.0,True
27597,1134, Note_on_c,49,54,3,1,1,57.0,False
27598,1135, Note_on_c,56,54,3,1,1,65.0,False
27599,1135, Note_on_c,61,54,3,1,1,71.0,False
27600,1136, Note_on_c,60,54,3,1,1,70.0,True
27601,1136, Note_on_c,63,54,3,1,1,73.0,False
27602,1137, Note_on_c,49,54,3,1,1,57.0,False
27603,1138, Note_on_c,56,54,3,1,1,65.0,False
27604,1138, Note_on_c,61,54,3,1,1,71.0,False
27605,1139, Note_on_c,60,54,3,1,1,70.0,True
27606,1139, Note_on_c,63,54,3,1,1,73.0,False
27607,1140, Note_on_c,56,54,3,1,1,65.0,False
27608,1140, Note_on_c,61,54,3,1,1,71.0,False
27609,1141, Note_on_c,60,54,3,1,1,70.0,True
27610,1141, Note_on_c,65,54,3,1,1,76.0,True
27611,1142, Note_on_c,49,54,3,1,1,57.0,False
27612,1143, Note_on_c,56,54,3,1,1,65.0,False
27613,1143, Note_on_c,61,54,3,1,1,71.0,False
27614,1144, Note_on_c,60,54,3,1,1,70.0,True
27615,1144, Note_on_c,63,54,3,1,1,73.0,False
27616,1145, Note_on_c,49,54,3,1,1,57.0,False
27617,1146, Note_on_c,56,54,3,1,1,65.0,False
27618,1146, Note_on_c,61,54,3,1,1,71.0,False
27619,1147, Note_on_c,60,54,3,1,1,70.0,True
27620,1147, Note_on_c,63,54,3,1,1,73.0,False
27621,1148, Note_on_c,56,54,3,1,1,65.0,False
27622,1148, Note_on_c,61,54,3,1,1,71.0,False
27623,1149, Note_on_c,60,54,3,1,1,70.0,True
27624,1149, Note_on_c,65,54,3,1,1,76.0,True
27625,1150, Note_on_c,49,54,3,1,1,57.0,False
27626,1151, Note_on_c,56,54,3,1,1,65.0,False
27627,1151, Note_on_c,61,54,3,1,1,71.0,False
27628,1152, Note_on_c,60,54,3,1,1,70.0,True
27629,1152, Note_on_c,63,54,3,1,1,73.0,False
27630,1153, Note_on_c,49,54,3,1,1,57.0,False
27631,1154, Note_on_c,56,54,3,1,1,65.0,False
27632,1154, Note_on_c,61,54,3,1,1,71.0,False
27633,1155, Note_on_c,60,54,3,1,1,70.0,True
27634,1155, Note_on_c,63,54,3,1,1,73.0,False
27635,1156, Note_on_c,56,54,3,1,1,65.0,False
27636,1156, Note_on_c,61,54,3,1,1,71.0,False
27637,1157, Note_on_c,60,54,3,1,1,70.0,True
27638,1157, Note_on_c,65,54,3,1,1,76.0,True
27639,1158, Note_on_c,49,54,3,1,1,57.0,False
27640,1159, Note_on_c,56,54,3,1,1,65.0,False
27641,1159, Note_on_c,61,54,3,1,1,71.0,False
27642,1160, Note_on_c,60,54,3,1,1,70.0,True
27643,1160, Note_on_c,63,54,3,1,1,73.0,False
27644,1161, Note_on_c,49,54,3,1,1,57.0,False
27645,1162, Note_on_c,56,54,3,1,1,65.0,False
27646,1162, Note_on_c,61,54,3,1,1,71.0,False
27647,1163, Note_on_c,60,54,3,1,1,70.0,True
27648,1163, Note_on_c,63,54,3,1,1,73.0,False
27649,1164, Note_on_c,56,54,3,1,1,65.0,False
27650,1164, Note_on_c,61,54,3,1,1,71.0,False
27651,1165, Note_on_c,60,54,3,1,1,70.0,True
27652,1165, Note_on_c,65,54,3,1,1,76.0,True
27653,1166, Note_on_c,49,54,3,1,1,57.0,False
27654,1167, Note_on_c,56,54,3,1,1,65.0,False
27655,1167, Note_on_c,61,54,3,1,1,71.0,False
27656,1168, Note_on_c,60,54,3,1,1,70.0,True
27657,1168, Note_on_c,63,54,3,1,1,73.0,False
27658,1169, Note_on_c,49,54,3,1,1,57.0,False
27659,1170, Note_on_c,56,54,3,1,1,65.0,False
27660,1170, Note_on_c,61,54,3,1,1,71.0,False
27661,1171, Note_on_c,60,54,3,1,1,70.0,True
27662,1171, Note_on_c,63,54,3,1,1,73.0,False
27663,1172, Note_on_c,56,54,3,1,1,65.0,False
27664,1172, Note_on_c,61,54,3,1,1,71.0,False
27665,1173, Note_on_c,60,54,3,1,1,70.0,True
27666,1173, Note_on_c,65,54,3,1,1,76.0,True
27667,1174, Note_on_c,49,54,3,1,1,57.0,False
27668,1175, Note_on_c,56,54,3,1,1,65.0,False
27669,1175, Note_on_c,61,54,3,1,1,71.0,False
27670,1176, Note_on_c,60,54,3,1,1,70.0,True
27671,1176, Note_on_c,63,54,3,1,1,73.0,False
27672,1177, Note_on_c,49,54,3,1,1,57.0,False
27673,1178, Note_on_c,56,54,3,1,1,65.0,False
27674,1178, Note_on_c,61,54,3,1,1,71.0,False
27675,1179, Note_on_c,60,54,3,1,1,70.0,True
27676,1179, Note_on_c,63,54,3,1,1,73.0,False
27677,1180, Note_on_c,56,54,3,1,1,65.0,False
27678,1180, Note_on_c,61,54,3,1,1,71.0,False
27679,1181, Note_on_c,60,54,3,1,1,70.0,True
27680,1181, Note_on_c,65,54,3,1,1,76.0,True
27681,1182, Note_on_c,49,54,3,1,1,57.0,False
27682,1183, Note_on_c,56,54,3,1,1,65.0,False
27683,1183, Note_on_c,61,54,3,1,1,71.0,False
27684,1184, Note_on_c,60,54,3,1,1,70.0,True
27685,1184, Note_on_c,63,54,3,1,1,73.0,False
27686,1185, Note_on_c,49,54,3,1,1,57.0,False
27687,1186, Note_on_c,56,54,3,1,1,65.0,False
27688,1186, Note_on_c,61,54,3,1,1,71.0,False
27689,1187, Note_on_c,60,54,3,1,1,70.0,True
27690,1187, Note_on_c,63,54,3,1,1,73.0,False
27691,1188, Note_on_c,56,54,3,1,1,65.0,False
27692,1188, Note_on_c,61,54,3,1,1,71.0,False
27693,1189, Note_on_c,60,54,3,1,1,70.0,True
27694,1189, Note_on_c,65,54,3,1,1,76.0,True
27695,1190, Note_on_c,49,54,3,1,1,57.0,False
27696,1191, Note_on_c,56,54,3,1,1,65.0,False
27697,1191, Note_on_c,61,54,3,1,1,71.0,False
27698,1192, Note_on_c,60,54,3,1,1,70.0,True
27699,1192, Note_on_c,63,54,3,1,1,73.0,False
27700,1193, Note_on_c,49,54,3,1,1,57.0,False
27701,1194, Note_on_c,56,54,3,1,1,65.0,False
27702,1194, Note_on_c,61,54,3,1,1,71.0,False
27703,1195, Note_on_c,60,54,3,1,1,70.0,True
27704,1195, Note_on_c,63,54,3,1,1,73.0,False
27705,1196, Note_on_c,56,54,3,1,1,65.0,False
27706,1196, Note_on_c,61,54,3,1,1,71.0,False
27707,1197, Note_on_c,60,54,3,1,1,70.0,True
27708,1197, Note_on_c,65,54,3,1,1,76.0,True
27709,1198, Note_on_c,49,54,3,1,1,57.0,False
27710,1199, Note_on_c,56,54,3,1,1,65.0,False
27711,1199, Note_on_c,61,54,3,1,1,71.0,False
27712,1200, Note_on_c,60,54,3,1,1,70.0,True
27713,1200, Note_on_c,63,54,3,1,1,73.0,False
27714,1201, Note_on_c,49,54,3,1,1,57.0,False
27715,1202, Note_on_c,56,54,3,1,1,65.0,False
27716,1202, Note_on_c,61,54,3,1,1,71.0,False
27717,1203, Note_on_c,60,54,3,1,1,70.0,True
27718,1203, Note_on_c,63,54,3,1,1,73.0,False
27719,1204, Note_on_c,56,54,3,1,1,65.0,False
27720,1204, Note_on_c,61,54,3,1,1,71.0,False
27721,1205, Note_on_c,60,54,3,1,1,70.0,True
27722,1205, Note_on_c,65,54,3,1,1,76.0,True
27723,1206, Note_on_c,49,54,3,1,1,57.0,False
27724,1207, Note_on_c,56,54,3,1,1,65.0,False
27725,1207, Note_on_c,61,54,3,1,1,71.0,False
27726,1208, Note_on_c,60,54,3,1,1,70.0,True
27727,1208, Note_on_c,63,54,3,1,1,73.0,False
27728,1209, Note_on_c,49,54,3,1,1,57.0,False
27729,1210, Note_on_c,56,54,3,1,1,65.0,False
27730,1210, Note_on_c,61,54,3,1,1,71.0,False
27731,1211, Note_on_c,60,54,3,1,1,70.0,True
27732,1211, Note_on_c,63,54,3,1,1,73.0,False
27733,1212, Note_on_c,56,54,3,1,1,65.0,False
27734,1212, Note_on_c,61,54,3,1,1,71.0,False
27735,1213, Note_on_c,60,54,3,1,1,70.0,True
27736,1213, Note_on_c,65,54,3,1,1,76.0,True
27737,1214, Note_on_c,49,54,3,1,1,57.0,False
27738,1215, Note_on_c,56,54,3,1,1,65.0,False
27739,1215, Note_on_c,61,54,3,1,1,71.0,False
27740,1216, Note_on_c,60,54,3,1,1,70.0,True
27741,1216, Note_on_c,63,54,3,1,1,73.0,False
27742,1217, Note_on_c,49,54,3,1,1,57.0,False
27743,1218, Note_on_c,56,54,3,1,1,65.0,False
27744,1218, Note_on_c,61,54,3,1,1,71.0,False
27745,1219, Note_on_c,60,54,3,1,1,70.0,True
27746,1219, Note_on_c,63,54,3,1,1,73.0,False
27747,1220, Note_on_c,56,54,3,1,1,65.0,False
27748,1220, Note_on_c,61,54,3,1,1,71.0,False
27749,1221, Note_on_c,60,54,3,1,1,70.0,True
27750,1221, Note_on_c,65,54,3,1,1,76.0,True
27751,1222, Note_on_c,49,54,3,1,1,57.0,False
27752,1223, Note_on_c,56,54,3,1,1,65.0,False
27753,1223, Note_on_c,61,54,3,1,1,71.0,False
27754,1224, Note_on_c,60,54,3,1,1,70.0,True
27755,1224, Note_on_c,63,54,3,1,1,73.0,False
27756,1225, Note_on_c,49,54,3,1,1,57.0,False
27757,1226, Note_on_c,56,54,3,1,1,65.0,False
27758,1226, Note_on_c,61,54,3,1,1,71.0,False
27759,1227, Note_on_c,60,54,3,1,1,70.0,True
27760,1227, Note_on_c,63,54,3,1,1,73.0,False
27761,1228, Note_on_c,56,54,3,1,1,65.0,False
27762,1228, Note_on_c,61,54,3,1,1,71.0,False
27763,1229, Note_on_c,60,54,3,1,1,70.0,True
27764,1229, Note_on_c,65,54,3,1,1,76.0,True
27765,1230, Note_on_c,49,54,3,1,1,57.0,False
27766,1231, Note_on_c,56,54,3,1,1,65.0,False
27767,1231, Note_on_c,61,54,3,1,1,71.0,False
27768,1232, Note_on_c,60,54,3,1,1,70.0,True
27769,1232, Note_on_c,63,54,3,1,1,73.0,False
27770,1233, Note_on_c,49,54,3,1,1,57.0,False
27771,1234, Note_on_c,56,54,3,1,1,65.0,False
27772,1234, Note_on_c,61,54,3,1,1,71.0,False
27773,1235, Note_on_c,60,54,3,1,1,70.0,True
27774,1235, Note_on_c,63,54,3,1,1,73.0,False
27775,1236, Note_on_c,56,54,3,1,1,65.0,False
27776,1236, Note_on_c,61,54,3,1,1,71.0,False
27777,1237, Note_on_c,60,54,3,1,1,70.0,True
27778,1237, Note_on_c,65,54,3,1,1,76.0,True
27779,1238, Note_on_c,49,54,3,1,1,57.0,False
27780,1239, Note_on_c,56,54,3,1,1,65.0,False
27781,1239, Note_on_c,61,54,3,1,1,71.0,False
27782,1240, Note_on_c,60,54,3,1,1,70.0,True
27783,1240, Note_on_c,63,54,3,1,1,73.0,False
27784,1241, Note_on_c,49,54,3,1,1,57.0,False
27785,1242, Note_on_c,56,54,3,1,1,65.0,False
27786,1242, Note_on_c,61,54,3,1,1,71.0,False
27787,1243, Note_on_c,60,54,3,1,1,70.0,True
27788,1243, Note_on_c,63,54,3,1,1,73.0,False
27789,1244, Note_on_c,56,54,3,1,1,65.0,False
27790,1244, Note_on_c,61,54,3,1,1,71.0,False
27791,1245, Note_on_c,60,54,3,1,1,70.0,True
27792,1245, Note_on_c,65,54,3,1,1,76.0,True
27793,1246, Note_on_c,49,54,3,1,1,57.0,False
27794,1247, Note_on_c,56,54,3,1,1,65.0,False
27795,1247, Note_on_c,61,54,3,1,1,71.0,False
27796,1248, Note_on_c,60,54,3,1,1,70.0,True
27797,1248, Note_on_c,63,54,3,1,1,73.0,False
27798,1249, Note_on_c,49,54,3,1,1,57.0,False
27799,1250, Note_on_c,56,54,3,1,1,65.0,False
27800,1250, Note_on_c,61,54,3,1,1,71.0,False
27801,1251, Note_on_c,60,54,3,1,1,70.0,True
27802,1251, Note_on_c,63,54,3,1,1,73.0,False
27803,1252, Note_on_c,56,54,3,1,1,65.0,False
27804,1252, Note_on_c,61,54,3,1,1,71.0,False
27805,1253, Note_on_c,60,54,3,1,1,70.0,True
27806,1253, Note_on_c,65,54,3,1,1,76.0,True
27807,1254, Note_on_c,49,54,3,1,1,57.0,False
27808,1255, Note_on_c,56,54,3,1,1,65.0,False
27809,1255, Note_on_c,61,54,3,1,1,71.0,False
27810,1256, Note_on_c,60,54,3,1,1,70.0,True
27811,1256, Note_on_c,63,54,3,1,1,73.0,False
27812,1257, Note_on_c,49,54,3,1,1,57.0,False
27813,1258, Note_on_c,56,54,3,1,1,65.0,False
27814,1258, Note_on_c,61,54,3,1,1,71.0,False
27815,1259, Note_on_c,60,54,3,1,1,70.0,True
27816,1259, Note_on_c,63,54,3,1,1,73.0,False
27817,1260, Note_on_c,56,54,3,1,1,65.0,False
27818,1260, Note_on_c,61,54,3,1,1,71.0,False
27819,1261, Note_on_c,60,54,3,1,1,70.0,True
27820,1261, Note_on_c,65,54,3,1,1,76.0,True
27821,1262, Note_on_c,49,54,3,1,1,57.0,False
27822,1263, Note_on_c,56,54,3,1,1,65.0,False
27823,1263, Note_on_c,61,54,3,1,1,71.0,False
27824,1264, Note_on_c,60,54,3,1,1,70.0,True
27825,1264, Note_on_c,63,54,3,1,1,73.0,False
27826,1265, Note_on_c,49,54,3,1,1,57.0,False
27827,1266, Note_on_c,56,54,3,1,1,65.0,False
27828,1266, Note_on_c,61,54,3,1,1,71.0,False
27829,1267, Note_on_c,60,54,3,1,1,70.0,True
27830,1267, Note_on_c,63,54,3,1,1,73.0,False
27831,1268, Note_on_c,56,54,3,1,1,65.0,False
27832,1268, Note_on_c,61,54,3,1,1,71.0,False
27833,1269, Note_on_c,60,54,3,1,1,70.0,True
27834,1269, Note_on_c,65,54,3,1,1,76.0,True
27835,1270, Note_on_c,49,54,3,1,1,57.0,False
27836,1271, Note_on_c,56,54,3,1,1,65.0,False
27837,1271, Note_on_c,61,54,3,1,1,71.0,False
27838,1272, Note_on_c,60,54,3,1,1,70.0,True
27839,1272, Note_on_c,63,54,3,1,1,73.0,False
27840,1273, Note_on_c,49,54,3,1,1,57.0,False
27841,1274, Note_on_c,56,54,3,1,1,65.0,False
27842,1274, Note_on_c,61,54,3,1,1,71.0,False
27843,1275, Note_on_c,60,54,3,1,1,70.0,True
27844,1275, Note_on_c,63,54,3,1,1,73.0,False
27845,1276, Note_on_c,56,54,3,1,1,65.0,False
27846,1276, Note_on_c,61,54,3,1,1,71.0,False
27847,1277, Note_on_c,60,54,3,1,1,70.0,True
27848,1277, Note_on_c,65,54,3,1,1,76.0,True
27849,1278, Note_on_c,49,54,3,1,1,57.0,False
27850,1279, Note_on_c,56,54,3,1,1,65.0,False
27851,1279, Note_on_c,61,54,3,1,1,71.0,False
27852,1280, Note_on_c,60,54,3,1,1,70.0,True
27853,1280, Note_on_c,63,54,3,1,1,73.0,False
27854,1281, Note_on_c,49,54,3,1,1,57.0,False
27855,1282, Note_on_c,56,54,3,1,1,65.0,False
27856,1282, Note_on_c,61,54,3,1,1,71.0,False
27857,1283, Note_on_c,60,54,3,1,1,70.0,True
27858,1283, Note_on_c,63,54,3,1,1,73.0,False
27859,1284, Note_on_c,56,54,3,1,1,65.0,False
27860,1284, Note_on_c,61,54,3,1,1,71.0,False
27861,1285, Note_on_c,60,54,3,1,1,70.0,True
27862,1285, Note_on_c,65,54,3,1,1,76.0,True
27863,1286, Note_on_c,49,54,3,1,1,57.0,False
27864,1287, Note_on_c,56,54,3,1,1,65.0,False
27865,1287, Note_on_c,61,54,3,1,1,71.0,False
27866,1288, Note_on_c,60,54,3,1,1,70.0,True
27867,1288, Note_on_c,63,54,3,1,1,73.0,False
27868,1289, Note_on_c,49,54,3,1,1,57.0,False
27869,1290, Note_on_c,56,54,3,1,1,65.0,False
27870,1290, Note_on_c,61,54,3,1,1,71.0,False
27871,1291, Note_on_c,60,54,3,1,1,70.0,True
27872,1291, Note_on_c,63,54,3,1,1,73.0,False
27873,1292, Note_on_c,56,54,3,1,1,65.0,False
27874,1292, Note_on_c,61,54,3,1,1,71.0,False
27875,1293, Note_on_c,60,54,3,1,1,70.0,True
27876,1293, Note_on_c,65,54,3,1,1,76.0,True
27877,1294, Note_on_c,49,54,3,1,1,57.0,False
27878,1295, Note_on_c,56,54,3,1,1,65.0,False
27879,1295, Note_on_c,61,54,3,1,1,71.0,False
27880,1296, Note_on_c,60,54,3,1,1,70.0,True
27881,1296, Note_on_c,63,54,3,1,1,73.0,False
27882,1297, Note_on_c,49,54,3,1,1,57.0,False
27883,1298, Note_on_c,56,54,3,1,1,65.0,False
27884,1298, Note_on_c,61,54,3,1,1,71.0,False
27885,1299, Note_on_c,60,54,3,1,1,70.0,True
27886,1299, Note_on_c,63,54,3,1,1,73.0,False
27887,1300, Note_on_c,56,54,3,1,1,65.0,False
27888,1300, Note_on_c,61,54,3,1,1,71.0,False
27889,1301, Note_on_c,60,54,3,1,1,70.0,True
27890,1301, Note_on_c,65,54,3,1,1,76.0,True
27891,1302, Note_on_c,49,54,3,1,1,57.0,False
27892,1303, Note_on_c,56,54,3,1,1,65.0,False
27893,1303, Note_on_c,61,54,3,1,1,71.0,False
27894,1304, Note_on_c,60,54,3,1,1,70.0,True
27895,1304, Note_on_c,63,54,3,1,1,73.0,False
27896,1305, Note_on_c,49,54,3,1,1,57.0,False
27897,1306, Note_on_c,56,54,3,1,1,65.0,False
27898,1306, Note_on_c,61,54,3,1,1,71.0,False
27899,1307, Note_on_c,60,54,3,1,1,70.0,True
27900,1307, Note_on_c,63,54,3,1,1,73.0,False
27901,1308, Note_on_c,56,54,3,1,1,65.0,False
27902,1308, Note_on_c,61,54,3,1,1,71.0,False
27903,1309, Note_on_c,60,54,3,1,1,70.0,True
27904,1309, Note_on_c,65,54,3,1,1,76.0,True
27905,1310, Note_on_c,49,54,3,1,1,57.0,False
27906,1311, Note_on_c,56,54,3,1,1,65.0,False
27907,1311, Note_on_c,61,54,3,1,1,71.0,False
27908,1312, Note_on_c,60,54,3,1,1,70.0,True
27909,1312, Note_on_c,63,54,3,1,1,73.0,False
27910,1313, Note_on_c,49,54,3,1,1,57.0,False
27911,1314, Note_on_c,56,54,3,1,1,65.0,False
27912,1314, Note_on_c,61,54,3,1,1,71.0,False
27913,1315, Note_on_c,60,54,3,1,1,70.0,True
27914,1315, Note_on_c,63,54,3,1,1,73.0,False
27915,1316, Note_on_c,56,54,3,1,1,65.0,False
27916,1316, Note_on_c,61,54,3,1,1,71.0,False
27917,1317, Note_on_c,60,54,3,1,1,70.0,True
27918,1317, Note_on_c,65,54,3,1,1,76.0,True
27919,1318, Note_on_c,49,54,3,1,1,57.0,False
27920,1319, Note_on_c,56,54,3,1,1,65.0,False
27921,1319, Note_on_c,61,54,3,1,1,71.0,False
27922,1320, Note_on_c,60,54,3,1,1,70.0,True
27923,1320, Note_on_c,63,54,3,1,1,73.0,False
27924,1321, Note_on_c,49,54,3,1,1,57.0,False
27925,1322, Note_on_c,56,54,3,1,1,65.0,False
27926,1322, Note_on_c,61,54,3,1,1,71.0,False
27927,1323, Note_on_c,60,54,3,1,1,70.0,True
27928,1323, Note_on_c,63,54,3,1,1,73.0,False
27929,1324, Note_on_c,56,54,3,1,1,65.0,False
27930,1324, Note_on_c,61,54,3,1,1,71.0,False
27931,1325, Note_on_c,60,54,3,1,1,70.0,True
27932,1325, Note_on_c,65,54,3,1,1,76.0,True
27933,1326, Note_on_c,49,54,3,1,1,57.0,False
27934,1327, Note_on_c,56,54,3,1,1,65.0,False
27935,1327, Note_on_c,61,54,3,1,1,71.0,False
27936,1328, Note_on_c,60,54,3,1,1,70.0,True
27937,1328, Note_on_c,63,54,3,1,1,73.0,False
27938,1329, Note_on_c,49,54,3,1,1,57.0,False
27939,1330, Note_on_c,56,54,3,1,1,65.0,False
27940,1330, Note_on_c,61,54,3,1,1,71.0,False
27941,1331, Note_on_c,60,54,3,1,1,70.0,True
27942,1331, Note_on_c,63,54,3,1,1,73.0,False
27943,1332, Note_on_c,56,54,3,1,1,65.0,False
27944,1332, Note_on_c,61,54,3,1,1,71.0,False
27945,1333, Note_on_c,60,54,3,1,1,70.0,True
27946,1333, Note_on_c,65,54,3,1,1,76.0,True
27947,1334, Note_on_c,49,54,3,1,1,57.0,False
27948,1335, Note_on_c,56,54,3,1,1,65.0,False
27949,1335, Note_on_c,61,54,3,1,1,71.0,False
27950,1336, Note_on_c,60,54,3,1,1,70.0,True
27951,1336, Note_on_c,63,54,3,1,1,73.0,False
27952,1337, Note_on_c,49,54,3,1,1,57.0,False
27953,1338, Note_on_c,56,54,3,1,1,65.0,False
27954,1338, Note_on_c,61,54,3,1,1,71.0,False
27955,1339, Note_on_c,60,54,3,1,1,70.0,True
27956,1339, Note_on_c,63,54,3,1,1,73.0,False
27957,1340, Note_on_c,56,54,3,1,1,65.0,False
27958,1340, Note_on_c,61,54,3,1,1,71.0,False
27959,1341, Note_on_c,60,54,3,1,1,70.0,True
27960,1341, Note_on_c,65,54,3,1,1,76.0,True
27961,1342, Note_on_c,49,54,3,1,1,57.0,False
27962,1343, Note_on_c,56,54,3,1,1,65.0,False
27963,1343, Note_on_c,61,54,3,1,1,71.0,False
27964,1344, Note_on_c,60,54,3,1,1,70.0,True
27965,1344, Note_on_c,63,54,3,1,1,73.0,False
27966,1345, Note_on_c,49,54,3,1,1,57.0,False
27967,1346, Note_on_c,56,54,3,1,1,65.0,False
27968,1346, Note_on_c,61,54,3,1,1,71.0,False
27969,1347, Note_on_c,60,54,3,1,1,70.0,True
27970,1347, Note_on_c,63,54,3,1,1,73.0,False
27971,1348, Note_on_c,56,54,3,1,1,65.0,False
27972,1348, Note_on_c,61,54,3,1,1,71.0,False
27973,1349, Note_on_c,60,54,3,1,1,70.0,True
27974,1349, Note_on_c,65,54,3,1,1,76.0,True
27975,1350, Note_on_c,49,54,3,1,1,57.0,False
27976,1351, Note_on_c,56,54,3,1,1,65.0,False
27977,1351, Note_on_c,61,54,3,1,1,71.0,False
27978,1352, Note_on_c,60,54,3,1,1,70.0,True
27979,1352, Note_on_c,63,54,3,1,1,73.0,False
27980,1353, Note_on_c,49,54,3,1,1,57.0,False
27981,1354, Note_on_c,56,54,3,1,1,65.0,False
27982,1354, Note_on_c,61,54,3,1,1,71.0,False
27983,1355, Note_on_c,60,54,3,1,1,70.0,True
27984,1355, Note_on_c,63,54,3,1,1,73.0,False
27985,1356, Note_on_c,56,54,3,1,1,65.0,False
27986,1356, Note_on_c,61,54,3,1,1,71.0,False
27987,1357, Note_on_c,60,54,3,1,1,70.0,True
27988,1357, Note_on_c,65,54,3,1,1,76.0,True
27989,1358, Note_on_c,49,54,3,1,1,57.0,False
27990,1359, Note_on_c,56,54,3,1,1,65.0,False
27991,1359, Note_on_c,61,54,3,1,1,71.0,False
27992,1360, Note_on_c,60,54,3,1,1,70.0,True
27993,1360, Note_on_c,63,54,3,1,1,73.0,False
27994,1361, Note_on_c,49,54,3,1,1,57.0,False
27995,1362, Note_on_c,56,54,3,1,1,65.0,False
27996,1362, Note_on_c,61,54,3,1,1,71.0,False
27997,1363, Note_on_c,60,54,3,1,1,70.0,True
27998,1363, Note_on_c,63,54,3,1,1,73.0,False
27999,1364, Note_on_c,56,54,3,1,1,65.0,False
28000,1364, Note_on_c,61,54,3,1,1,71.0,False
28001,1365, Note_on_c,60,54,3,1,1,70.0,True
28002,1365, Note_on_c,65,54,3,1,1,76.0,True
28003,1366, Note_on_c,49,54,3,1,1,57.0,False
28004,1367, Note_on_c,56,54,3,1,1,65.0,False
28005,1367, Note_on_c,61,54,3,1,1,71.0,False
28006,1368, Note_on_c,60,54,3,1,1,70.0,True
28007,1368, Note_on_c,63,54,3,1,1,73.0,False
28008,1369, Note_on_c,49,54,3,1,1,57.0,False
28009,1370, Note_on_c,56,54,3,1,1,65.0,False
28010,1370, Note_on_c,61,54,3,1,1,71.0,False
28011,1371, Note_on_c,60,54,3,1,1,70.0,True
28012,1371, Note_on_c,63,54,3,1,1,73.0,False
28013,1372, Note_on_c,56,54,3,1,1,65.0,False
28014,1372, Note_on_c,61,54,3,1,1,71.0,False
28015,1373, Note_on_c,60,54,3,1,1,70.0,True
28016,1373, Note_on_c,65,54,3,1,1,76.0,True
28017,1374, Note_on_c,49,54,3,1,1,57.0,False
28018,1375, Note_on_c,56,54,3,1,1,65.0,False
28019,1375, Note_on_c,61,54,3,1,1,71.0,False
28020,1376, Note_on_c,60,54,3,1,1,70.0,True
28021,1376, Note_on_c,63,54,3,1,1,73.0,False
28022,1377, Note_on_c,49,54,3,1,1,57.0,False
28023,1378, Note_on_c,56,54,3,1,1,65.0,False
28024,1378, Note_on_c,61,54,3,1,1,71.0,False
28025,1379, Note_on_c,60,54,3,1,1,70.0,True
28026,1379, Note_on_c,63,54,3,1,1,73.0,False
28027,1380, Note_on_c,56,54,3,1,1,65.0,False
28028,1380, Note_on_c,61,54,3,1,1,71.0,False
28029,1381, Note_on_c,60,54,3,1,1,70.0,True
28030,1381, Note_on_c,65,54,3,1,1,76.0,True
28031,1382, Note_on_c,49,54,3,1,1,57.0,False
28032,1383, Note_on_c,56,54,3,1,1,65.0,False
28033,1383, Note_on_c,61,54,3,1,1,71.0,False
28034,1384, Note_on_c,60,54,3,1,1,70.0,True
28035,1384, Note_on_c,63,54,3,1,1,73.0,False
28036,1385, Note_on_c,49,54,3,1,1,57.0,False
28037,1386, Note_on_c,56,54,3,1,1,65.0,False
28038,1386, Note_on_c,61,54,3,1,1,71.0,False
28039,1387, Note_on_c,60,54,3,1,1,70.0,True
28040,1387, Note_on_c,63,54,3,1,1,73.0,False
28041,1388, Note_on_c,56,54,3,1,1,65.0,False
28042,1388, Note_on_c,61,54,3,1,1,71.0,False
28043,1389, Note_on_c,60,54,3,1,1,70.0,True
28044,1389, Note_on_c,65,54,3,1,1,76.0,True
28045,1390, Note_on_c,49,54,3,1,1,57.0,False
28046,1391, Note_on_c,56,54,3,1,1,65.0,False
28047,1391, Note_on_c,61,54,3,1,1,71.0,False
28048,1392, Note_on_c,60,54,3,1,1,70.0,True
28049,1392, Note_on_c,63,54,3,1,1,73.0,False
28050,1393, Note_on_c,49,54,3,1,1,57.0,False
28051,1394, Note_on_c,56,54,3,1,1,65.0,False
28052,1394, Note_on_c,61,54,3,1,1,71.0,False
28053,1395, Note_on_c,60,54,3,1,1,70.0,True
28054,1395, Note_on_c,63,54,3,1,1,73.0,False
28055,1396, Note_on_c,56,54,3,1,1,65.0,False
28056,1396, Note_on_c,61,54,3,1,1,71.0,False
28057,1397, Note_on_c,60,54,3,1,1,70.0,True
28058,1397, Note_on_c,65,54,3,1,1,76.0,True
28059,1398, Note_on_c,49,54,3,1,1,57.0,False
28060,1399, Note_on_c,56,54,3,1,1,65.0,False
28061,1399, Note_on_c,61,54,3,1,1,71.0,False
28062,1400, Note_on_c,60,54,3,1,1,70.0,True
28063,1400, Note_on_c,63,54,3,1,1,73.0,False
28064,1401, Note_on_c,49,54,3,1,1,57.0,False
28065,1402, Note_on_c,56,54,3,1,1,65.0,False
28066,1402, Note_on_c,61,54,3,1,1,71.0,False
28067,1403, Note_on_c,60,54,3,1,1,70.0,True
28068,1403, Note_on_c,63,54,3,1,1,73.0,False
28069,1404, Note_on_c,56,54,3,1,1,65.0,False
28070,1404, Note_on_c,61,54,3,1,1,71.0,False
28071,1405, Note_on_c,60,54,3,1,1,70.0,True
28072,1405, Note_on_c,65,54,3,1,1,76.0,True
28073,1406, Note_on_c,49,54,3,1,1,57.0,False
28074,1407, Note_on_c,56,54,3,1,1,65.0,False
28075,1407, Note_on_c,61,54,3,1,1,71.0,False
28076,1408, Note_on_c,60,54,3,1,1,70.0,True
28077,1408, Note_on_c,63,54,3,1,1,73.0,False
28078,1409, Note_on_c,49,54,3,1,1,57.0,False
28079,1410, Note_on_c,56,54,3,1,1,65.0,False
28080,1410, Note_on_c,61,54,3,1,1,71.0,False
28081,1411, Note_on_c,60,54,3,1,1,70.0,True
28082,1411, Note_on_c,63,54,3,1,1,73.0,False
28083,1412, Note_on_c,56,54,3,1,1,65.0,False
28084,1412, Note_on_c,61,54,3,1,1,71.0,False
28085,1413, Note_on_c,60,54,3,1,1,70.0,True
28086,1413, Note_on_c,65,54,3,1,1,76.0,True
28087,1414, Note_on_c,49,54,3,1,1,57.0,False
28088,1415, Note_on_c,56,54,3,1,1,65.0,False
28089,1415, Note_on_c,61,54,3,1,1,71.0,False
28090,1416, Note_on_c,60,54,3,1,1,70.0,True
28091,1416, Note_on_c,63,54,3,1,1,73.0,False
28092,1417, Note_on_c,49,54,3,1,1,57.0,False
28093,1418, Note_on_c,56,54,3,1,1,65.0,False
28094,1418, Note_on_c,61,54,3,1,1,71.0,False
28095,1419, Note_on_c,60,54,3,1,1,70.0,True
28096,1419, Note_on_c,63,54,3,1,1,73.0,False
28097,1420, Note_on_c,56,54,3,1,1,65.0,False
28098,1420, Note_on_c,61,54,3,1,1,71.0,False
28099,1421, Note_on_c,60,54,3,1,1,70.0,True
28100,1421, Note_on_c,65,54,3,1,1,76.0,True
28101,1422, Note_on_c,49,54,3,1,1,57.0,False
28102,1423, Note_on_c,56,54,3,1,1,65.0,False
28103,1423, Note_on_c,61,54,3,1,1,71.0,False
28104,1424, Note_on_c,60,54,3,1,1,70.0,True
28105,1424, Note_on_c,63,54,3,1,1,73.0,False
28106,1425, Note_on_c,49,54,3,1,1,57.0,False
28107,1426, Note_on_c,56,54,3,1,1,65.0,False
28108,1426, Note_on_c,61,54,3,1,1,71.0,False
28109,1427, Note_on_c,60,54,3,1,1,70.0,True
28110,1427, Note_on_c,63,54,3,1,1,73.0,False
28111,1428, Note_on_c,56,54,3,1,1,65.0,False
28112,1428, Note_on_c,61,54,3,1,1,71.0,False
28113,1429, Note_on_c,60,54,3,1,1,70.0,True
28114,1429, Note_on_c,65,54,3,1,1,76.0,True
28115,1430, Note_on_c,49,54,3,1,1,57.0,False
28116,1431, Note_on_c,56,54,3,1,1,65.0,False
28117,1431, Note_on_c,61,54,3,1,1,71.0,False
28118,1432, Note_on_c,60,54,3,1,1,70.0,True
28119,1432, Note_on_c,63,54,3,1,1,73.0,False
28120,1433, Note_on_c,49,54,3,1,1,57.0,False
28121,1434, Note_on_c,56,54,3,1,1,65.0,False
28122,1434, Note_on_c,61,54,3,1,1,71.0,False
28123,1435, Note_on_c,60,54,3,1,1,70.0,True
28124,1435, Note_on_c,63,54,3,1,1,73.0,False
28125,1436, Note_on_c,56,54,3,1,1,65.0,False
28126,1436, Note_on_c,61,54,3,1,1,71.0,False
28127,1437, Note_on_c,60,54,3,1,1,70.0,True
28128,1437, Note_on_c,65,54,3,1,1,76.0,True
28129,1438, Note_on_c,49,54,3,1,1,57.0,False
28130,1439, Note_on_c,56,54,3,1,1,65.0,False
28131,1439, Note_on_c,61,54,3,1,1,71.0,False
28132,1440, Note_on_c,60,54,3,1,1,70.0,True
28133,1440, Note_on_c,63,54,3,1,1,73.0,False
28134,1441, Note_on_c,49,54,3,1,1,57.0,False
28135,1442, Note_on_c,56,54,3,1,1,65.0,False
28136,1442, Note_on_c,61,54,3,1,1,71.0,False
28137,1443, Note_on_c,60,54,3,1,1,70.0,True
28138,1443, Note_on_c,63,54,3,1,1,73.0,False
28139,1444, Note_on_c,56,54,3,1,1,65.0,False
28140,1444, Note_on_c,61,54,3,1,1,71.0,False
28141,1445, Note_on_c,60,54,3,1,1,70.0,True
28142,1445, Note_on_c,65,54,3,1,1,76.0,True
28143,1446, Note_on_c,49,54,3,1,1,57.0,False
28144,1447, Note_on_c,56,54,3,1,1,65.0,False
28145,1447, Note_on_c,61,54,3,1,1,71.0,False
28146,1448, Note_on_c,60,54,3,1,1,70.0,True
28147,1448, Note_on_c,63,54,3,1,1,73.0,False
28148,1449, Note_on_c,49,54,3,1,1,57.0,False
28149,1450, Note_on_c,56,54,3,1,1,65.0,False
28150,1450, Note_on_c,61,54,3,1,1,71.0,False
28151,1451, Note_on_c,60,54,3,1,1,70.0,True
28152,1451, Note_on_c,63,54,3,1,1,73.0,False
28153,1452, Note_on_c,56,54,3,1,1,65.0,False
28154,1452, Note_on_c,61,54,3,1,1,71.0,False
28155,1453, Note_on_c,60,54,3,1,1,70.0,True
28156,1453, Note_on_c,65,54,3,1,1,76.0,True
28157,1454, Note_on_c,49,54,3,1,1,57.0,False
28158,1455, Note_on_c,56,54,3,1,1,65.0,False
28159,1455, Note_on_c,61,54,3,1,1,71.0,False
28160,1456, Note_on_c,60,54,3,1,1,70.0,True
28161,1456, Note_on_c,63,54,3,1,1,73.0,False
28162,1457, Note_on_c,49,54,3,1,1,57.0,False
28163,1458, Note_on_c,56,54,3,1,1,65.0,False
28164,1458, Note_on_c,61,54,3,1,1,71.0,False
28165,1459, Note_on_c,60,54,3,1,1,70.0,True
28166,1459, Note_on_c,63,54,3,1,1,73.0,False
28167,1460, Note_on_c,56,54,3,1,1,65.0,False
28168,1460, Note_on_c,61,54,3,1,1,71.0,False
28169,1461, Note_on_c,60,54,3,1,1,70.0,True
28170,1461, Note_on_c,65,54,3,1,1,76.0,True
28171,1462, Note_on_c,49,54,3,1,1,57.0,False
28172,1463, Note_on_c,56,54,3,1,1,65.0,False
28173,1463, Note_on_c,61,54,3,1,1,71.0,False
28174,1464, Note_on_c,60,54,3,1,1,70.0,True
28175,1464, Note_on_c,63,54,3,1,1,73.0,False
28176,1465, Note_on_c,49,54,3,1,1,57.0,False
28177,1466, Note_on_c,56,54,3,1,1,65.0,False
28178,1466, Note_on_c,61,54,3,1,1,71.0,False
28179,1467, Note_on_c,60,54,3,1,1,70.0,True
28180,1467, Note_on_c,63,54,3,1,1,73.0,False
28181,1468, Note_on_c,56,54,3,1,1,65.0,False
28182,1468, Note_on_c,61,54,3,1,1,71.0,False
28183,1469, Note_on_c,60,54,3,1,1,70.0,True
28184,1469, Note_on_c,65,54,3,1,1,76.0,True
28185,1470, Note_on_c,49,54,3,1,1,57.0,False
28186,1471, Note_on_c,56,54,3,1,1,65.0,False
28187,1471, Note_on_c,61,54,3,1,1,71.0,False
28188,1472, Note_on_c,60,54,3,1,1,70.0,True
28189,1472, Note_on_c,63,54,3,1,1,73.0,False
28190,1473, Note_on_c,49,54,3,1,1,57.0,False
28191,1474, Note_on_c,56,54,3,1,1,65.0,False
28192,1474, Note_on_c,61,54,3,1,1,71.0,False
28193,1475, Note_on_c,60,54,3,1,1,70.0,True
28194,1475, Note_on_c,63,54,3,1,1,73.0,False
28195,1476, Note_on_c,56,54,3,1,1,65.0,False
28196,1476, Note_on_c,61,54,3,1,1,71.0,False
28197,1477, Note_on_c,60,54,3,1,1,70.0,True
28198,1477, Note_on_c,65,54,3,1,1,76.0,True
28199,1478, Note_on_c,49,54,3,1,1,57.0,False
28200,1479, Note_on_c,56,54,3,1,1,65.0,False
28201,1479, Note_on_c,61,54,3,1,1,71.0,False
28202,1480, Note_on_c,60,54,3,1,1,70.0,True
28203,1480, Note_on_c,63,54,3,1,1,73.0,False
28204,1481, Note_on_c,49,54,3,1,1,57.0,False
28205,1482, Note_on_c,56,54,3,1,1,65.0,False
28206,1482, Note_on_c,61,54,3,1,1,71.0,False
28207,1483, Note_on_c,60,54,3,1,1,70.0,True
28208,1483, Note_on_c,63,54,3,1,1,73.0,False
28209,1484, Note_on_c,56,54,3,1,1,65.0,False
28210,1484, Note_on_c,61,54,3,1,1,71.0,False
28211,1485, Note_on_c,60,54,3,1,1,70.0,True
28212,1485, Note_on_c,65,54,3,1,1,76.0,True
28213,1486, Note_on_c,49,54,3,1,1,57.0,False
28214,1487, Note_on_c,56,54,3,1,1,65.0,False
28215,1487, Note_on_c,61,54,3,1,1,71.0,False
28216,1488, Note_on_c,60,54,3,1,1,70.0,True
28217,1488, Note_on_c,63,54,3,1,1,73.0,False
28218,1489, Note_on_c,49,54,3,1,1,57.0,False
28219,1490, Note_on_c,56,54,3,1,1,65.0,False
28220,1490, Note_on_c,61,54,3,1,1,71.0,False
28221,1491, Note_on_c,60,54,3,1,1,70.0,True
28222,1491, Note_on_c,63,54,3,1,1,73.0,False
28223,1492, Note_on_c,56,54,3,1,1,65.0,False
28224,1492, Note_on_c,61,54,3,1,1,71.0,False
28225,1493, Note_on_c,60,54,3,1,1,70.0,True
28226,1493, Note_on_c,65,54,3,1,1,76.0,True
28227,1494, Note_on_c,49,54,3,1,1,57.0,False
28228,1495, Note_on_c,56,54,3,1,1,65.0,False
28229,1495, Note_on_c,61,54,3,1,1,71.0,False
28230,1496, Note_on_c,60,54,3,1,1,70.0,True
28231,1496, Note_on_c,63,54,3,1,1,73.0,False
28232,1497, Note_on_c,49,54,3,1,1,57.0,False
28233,1498, Note_on_c,56,54,3,1,1,65.0,False
28234,1498, Note_on_c,61,54,3,1,1,71.0,False
28235,1499, Note_on_c,60,54,3,1,1,70.0,True
28236,1499, Note_on_c,63,54,3,1,1,73.0,False
28237,1500, Note_on_c,56,54,3,1,1,65.0,False
28238,1500, Note_on_c,61,54,3,1,1,71.0,False
28239,1501, Note_on_c,60,54,3,1,1,70.0,True
28240,1501, Note_on_c,65,54,3,1,1,76.0,True
28241,1502, Note_on_c,49,54,3,1,1,57.0,False
28242,1503, Note_on_c,56,54,3,1,1,65.0,False
28243,1503, Note_on_c,61,54,3,1,1,71.0,False
28244,1504, Note_on_c,60,54,3,1,1,70.0,True
28245,1504, Note_on_c,63,54,3,1,1,73.0,False
28246,1505, Note_on_c,49,54,3,1,1,57.0,False
28247,1506, Note_on_c,56,54,3,1,1,65.0,False
28248,1506, Note_on_c,61,54,3,1,1,71.0,False
28249,1507, Note_on_c,60,54,3,1,1,70.0,True
28250,1507, Note_on_c,63,54,3,1,1,73.0,False
28251,1508, Note_on_c,56,54,3,1,1,65.0,False
28252,1508, Note_on_c,61,54,3,1,1,71.0,False
28253,1509, Note_on_c,60,54,3,1,1,70.0,True
28254,1509, Note_on_c,65,54,3,1,1,76.0,True
28255,1510, Note_on_c,49,54,3,1,1,57.0,False
28256,1511, Note_on_c,56,54,3,1,1,65.0,False
28257,1511, Note_on_c,61,54,3,1,1,71.0,False
28258,1512, Note_on_c,60,54,3,1,1,70.0,True
28259,1512, Note_on_c,63,54,3,1,1,73.0,False
28260,1513, Note_on_c,49,54,3,1,1,57.0,False
28261,1514, Note_on_c,56,54,3,1,1,65.0,False
28262,1514, Note_on_c,61,54,3,1,1,71.0,False
28263,1515, Note_on_c,60,54,3,1,1,70.0,True
28264,1515, Note_on_c,63,54,3,1,1,73.0,False
28265,1516, Note_on_c,56,54,3,1,1,65.0,False
28266,1516, Note_on_c,61,54,3,1,1,71.0,False
28267,1517, Note_on_c,60,54,3,1,1,70.0,True
28268,1517, Note_on_c,65,54,3,1,1,76.0,True
28269,1518, Note_on_c,49,54,3,1,1,57.0,False
28270,1519, Note_on_c,56,54,3,1,1,65.0,False
28271,1519, Note_on_c,61,54,3,1,1,71.0,False
28272,1520, Note_on_c,60,54,3,1,1,70.0,True
28273,1520, Note_on_c,63,54,3,1,1,73.0,False
28274,1521, Note_on_c,49,54,3,1,1,57.0,False
28275,1522, Note_on_c,56,54,3,1,1,65.0,False
28276,1522, Note_on_c,61,54,3,1,1,71.0,False
28277,1523, Note_on_c,60,54,3,1,1,70.0,True
28278,1523, Note_on_c,63,54,3,1,1,73.0,False
28279,1524, Note_on_c,56,54,3,1,1,65.0,False
28280,1524, Note_on_c,61,54,3,1,1,71.0,False
28281,1525, Note_on_c,60,54,3,1,1,70.0,True
28282,1525, Note_on_c,65,54,3,1,1,76.0,True
28283,1526, Note_on_c,49,54,3,1,1,57.0,False
28284,1527, Note_on_c,56,54,3,1,1,65.0,False
28285,1527, Note_on_c,61,54,3,1,1,71.0,False
28286,1528, Note_on_c,60,54,3,1,1,70.0,True
28287,1528, Note_on_c,63,54,3,1,1,73.0,False
28288,1529, Note_on_c,49,54,3,1,1,57.0,False
28289,1530, Note_on_c,56,54,3,1,1,65.0,False
28290,1530, Note_on_c,61,54,3,1,1,71.0,False
28291,1531, Note_on_c,60,54,3,1,1,70.0,True
28292,1531, Note_on_c,63,54,3,1,1,73.0,False
28293,1532, Note_on_c,56,54,3,1,1,65.0,False
28294,1532, Note_on_c,61,54,3,1,1,71.0,False
28295,1533, Note_on_c,60,54,3,1,1,70.0,True
28296,1533, Note_on_c,65,54,3,1,1,76.0,True
28297,1534, Note_on_c,49,54,3,1,1,57.0,False
28298,1535, Note_on_c,56,54,3,1,1,65.0,False
28299,1535, Note_on_c,61,54,3,1,1,71.0,False
28300,1536, Note_on_c,60,54,3,1,1,70.0,True
28301,1536, Note_on_c,63,54,3,1,1,73.0,False
28302,1537, Note_on_c,49,54,3,1,1,57.0,False
28303,1538, Note_on_c,56,54,3,1,1,65.0,False
28304,1538, Note_on_c,61,54,3,1,1,71.0,False
28305,1539, Note_on_c,60,54,3,1,1,70.0,True
28306,1539, Note_on_c,63,54,3,1,1,73.0,False
28307,1540, Note_on_c,56,54,3,1,1,65.0,False
28308,1540, Note_on_c,61,54,3,1,1,71.0,False
28309,1541, Note_on_c,60,54,3,1,1,70.0,True
28310,1541, Note_on_c,65,54,3,1,1,76.0,True
28311,1542, Note_on_c,49,54,3,1,1,57.0,False
28312,1543, Note_on_c,56,54,3,1,1,65.0,False
28313,1543, Note_on_c,61,54,3,1,1,71.0,False
28314,1544, Note_on_c,60,54,3,1,1,70.0,True
28315,1544, Note_on_c,63,54,3,1,1,73.0,False
28316,1545, Note_on_c,49,54,3,1,1,57.0,False
28317,1546, Note_on_c,56,54,3,1,1,65.0,False
28318,1546, Note_on_c,61,54,3,1,1,71.0,False
28319,1547, Note_on_c,60,54,3,1,1,70.0,True
28320,1547, Note_on_c,63,54,3,1,1,73.0,False
28321,1548, Note_on_c,56,54,3,1,1,65.0,False
28322,1548, Note_on_c,61,54,3,1,1,71.0,False
28323,1549, Note_on_c,60,54,3,1,1,70.0,True
28324,1549, Note_on_c,65,54,3,1,1,76.0,True
28325,1550, Note_on_c,49,54,3,1,1,57.0,False
28326,1551, Note_on_c,56,54,3,1,1,65.0,False
28327,1551, Note_on_c,61,54,3,1,1,71.0,False
28328,1552, Note_on_c,60,54,3,1,1,70.0,True
28329,1552, Note_on_c,63,54,3,1,1,73.0,False
28330,1553, Note_on_c,49,54,3,1,1,57.0,False
28331,1554, Note_on_c,56,54,3,1,1,65.0,False
28332,1554, Note_on_c,61,54,3,1,1,71.0,False
28333,1555, Note_on_c,60,54,3,1,1,70.0,True
28334,1555, Note_on_c,63,54,3,1,1,73.0,False
28335,1556, Note_on_c,56,54,3,1,1,65.0,False
28336,1556, Note_on_c,61,54,3,1,1,71.0,False
28337,1557, Note_on_c,60,54,3,1,1,70.0,True
28338,1557, Note_on_c,65,54,3,1,1,76.0,True
28339,1558, Note_on_c,49,54,3,1,1,57.0,False
28340,1559, Note_on_c,56,54,3,1,1,65.0,False
28341,1559, Note_on_c,61,54,3,1,1,71.0,False
28342,1560, Note_on_c,60,54,3,1,1,70.0,True
28343,1560, Note_on_c,63,54,3,1,1,73.0,False
28344,1561, Note_on_c,49,54,3,1,1,57.0,False
28345,1562, Note_on_c,56,54,3,1,1,65.0,False
28346,1562, Note_on_c,61,54,3,1,1,71.0,False
28347,1563, Note_on_c,60,54,3,1,1,70.0,True
28348,1563, Note_on_c,63,54,3,1,1,73.0,False
28349,1564, Note_on_c,56,54,3,1,1,65.0,False
28350,1564, Note_on_c,61,54,3,1,1,71.0,False
28351,1565, Note_on_c,60,54,3,1,1,70.0,True
28352,1565, Note_on_c,65,54,3,1,1,76.0,True
28353,1566, Note_on_c,49,54,3,1,1,57.0,False
28354,1567, Note_on_c,56,54,3,1,1,65.0,False
28355,1567, Note_on_c,61,54,3,1,1,71.0,False
28356,1568, Note_on_c,60,54,3,1,1,70.0,True
28357,1568, Note_on_c,63,54,3,1,1,73.0,False
28358,1569, Note_on_c,49,54,3,1,1,57.0,False
28359,1570, Note_on_c,56,54,3,1,1,65.0,False
28360,1570, Note_on_c,61,54,3,1,1,71.0,False
28361,1571, Note_on_c,60,54,3,1,1,70.0,True
28362,1571, Note_on_c,63,54,3,1,1,73.0,False
28363,1572, Note_on_c,56,54,3,1,1,65.0,False
28364,1572, Note_on_c,61,54,3,1,1,71.0,False
28365,1573, Note_on_c,60,54,3,1,1,70.0,True
28366,1573, Note_on_c,65,54,3,1,1,76.0,True
28367,1574, Note_on_c,49,54,3,1,1,57.0,False
28368,1575, Note_on_c,56,54,3,1,1,65.0,False
28369,1575, Note_on_c,61,54,3,1,1,71.0,False
28370,1576, Note_on_c,60,54,3,1,1,70.0,True
28371,1576, Note_on_c,63,54,3,1,1,73.0,False
28372,1577, Note_on_c,49,54,3,1,1,57.0,False
28373,1578, Note_on_c,56,54,3,1,1,65.0,False
28374,1578, Note_on_c,61,54,3,1,1,71.0,False
28375,1579, Note_on_c,60,54,3,1,1,70.0,True
28376,1579, Note_on_c,63,54,3,1,1,73.0,False
28377,1580, Note_on_c,56,54,3,1,1,65.0,False
28378,1580, Note_on_c,61,54,3,1,1,71.0,False
28379,1581, Note_on_c,60,54,3,1,1,70.0,True
28380,1581, Note_on_c,65,54,3,1,1,76.0,True
28381,1582, Note_on_c,49,54,3,1,1,57.0,False
28382,1583, Note_on_c,56,54,3,1,1,65.0,False
28383,1583, Note_on_c,61,54,3,1,1,71.0,False
28384,1584, Note_on_c,60,54,3,1,1,70.0,True
28385,1584, Note_on_c,63,54,3,1,1,73.0,False
28386,1585, Note_on_c,49,54,3,1,1,57.0,False
28387,1586, Note_on_c,56,54,3,1,1,65.0,False
28388,1586, Note_on_c,61,54,3,1,1,71.0,False
28389,1587, Note_on_c,60,54,3,1,1,70.0,True
28390,1587, Note_on_c,63,54,3,1,1,73.0,False
28391,1588, Note_on_c,56,54,3,1,1,65.0,False
28392,1588, Note_on_c,61,54,3,1,1,71.0,False
28393,1589, Note_on_c,60,54,3,1,1,70.0,True
28394,1589, Note_on_c,65,54,3,1,1,76.0,True
28395,1590, Note_on_c,49,54,3,1,1,57.0,False
28396,1591, Note_on_c,56,54,3,1,1,65.0,False
28397,1591, Note_on_c,61,54,3,1,1,71.0,False
28398,1592, Note_on_c,60,54,3,1,1,70.0,True
28399,1592, Note_on_c,63,54,3,1,1,73.0,False
28400,1593, Note_on_c,49,54,3,1,1,57.0,False
28401,1594, Note_on_c,56,54,3,1,1,65.0,False
28402,1594, Note_on_c,61,54,3,1,1,71.0,False
28403,1595, Note_on_c,60,54,3,1,1,70.0,True
28404,1595, Note_on_c,63,54,3,1,1,73.0,False
28405,1596, Note_on_c,56,54,3,1,1,65.0,False
28406,1596, Note_on_c,61,54,3,1,1,71.0,False
28407,1597, Note_on_c,60,54,3,1,1,70.0,True
28408,1597, Note_on_c,65,54,3,1,1,76.0,True
28409,1598, Note_on_c,49,54,3,1,1,57.0,False
28410,1599, Note_on_c,56,54,3,1,1,65.0,False
28411,1599, Note_on_c,61,54,3,1,1,71.0,False
28412,1600, Note_on_c,60,54,3,1,1,70.0,True
28413,1600, Note_on_c,63,54,3,1,1,73.0,False
28414,1601, Note_on_c,49,54,3,1,1,57.0,False
28415,1602, Note_on_c,56,54,3,1,1,65.0,False
28416,1602, Note_on_c,61,54,3,1,1,71.0,False
28417,1603, Note_on_c,60,54,3,1,1,70.0,True
28418,1603, Note_on_c,63,54,3,1,1,73.0,False
28419,1604, Note_on_c,56,54,3,1,1,65.0,False
28420,1604, Note_on_c,61,54,3,1,1,71.0,False
28421,1605, Note_on_c,60,54,3,1,1,70.0,True
28422,1605, Note_on_c,65,54,3,1,1,76.0,True
28423,1606, Note_on_c,49,54,3,1,1,57.0,False
28424,1607, Note_on_c,56,54,3,1,1,65.0,False
28425,1607, Note_on_c,61,54,3,1,1,71.0,False
28426,1608, Note_on_c,60,54,3,1,1,70.0,True
28427,1608, Note_on_c,63,54,3,1,1,73.0,False
28428,1609, Note_on_c,49,54,3,1,1,57.0,False
28429,1610, Note_on_c,56,54,3,1,1,65.0,False
28430,1610, Note_on_c,61,54,3,1,1,71.0,False
28431,1611, Note_on_c,60,54,3,1,1,70.0,True
28432,1611, Note_on_c,63,54,3,1,1,73.0,False
28433,1612, Note_on_c,56,54,3,1,1,65.0,False
28434,1612, Note_on_c,61,54,3,1,1,71.0,False
28435,1613, Note_on_c,60,54,3,1,1,70.0,True
28436,1613, Note_on_c,65,54,3,1,1,76.0,True
28437,1614, Note_on_c,49,54,3,1,1,57.0,False
28438,1615, Note_on_c,56,54,3,1,1,65.0,False
28439,1615, Note_on_c,61,54,3,1,1,71.0,False
28440,1616, Note_on_c,60,54,3,1,1,70.0,True
28441,1616, Note_on_c,63,54,3,1,1,73.0,False
28442,1617, Note_on_c,49,54,3,1,1,57.0,False
28443,1618, Note_on_c,56,54,3,1,1,65.0,False
28444,1618, Note_on_c,61,54,3,1,1,71.0,False
28445,1619, Note_on_c,60,54,3,1,1,70.0,True
28446,1619, Note_on_c,63,54,3,1,1,73.0,False
28447,1620, Note_on_c,56,54,3,1,1,65.0,False
28448,1620, Note_on_c,61,54,3,1,1,71.0,False
28449,1621, Note_on_c,60,54,3,1,1,70.0,True
28450,1621, Note_on_c,65,54,3,1,1,76.0,True
28451,1622, Note_on_c,49,54,3,1,1,57.0,False
28452,1623, Note_on_c,56,54,3,1,1,65.0,False
28453,1623, Note_on_c,61,54,3,1,1,71.0,False
28454,1624, Note_on_c,60,54,3,1,1,70.0,True
28455,1624, Note_on_c,63,54,3,1,1,73.0,False
28456,1625, Note_on_c,49,54,3,1,1,57.0,False
28457,1626, Note_on_c,56,54,3,1,1,65.0,False
28458,1626, Note_on_c,61,54,3,1,1,71.0,False
28459,1627, Note_on_c,60,54,3,1,1,70.0,True
28460,1627, Note_on_c,63,54,3,1,1,73.0,False
28461,1628, Note_on_c,56,54,3,1,1,65.0,False
28462,1628, Note_on_c,61,54,3,1,1,71.0,False
28463,1629, Note_on_c,60,54,3,1,1,70.0,True
28464,1629, Note_on_c,65,54,3,1,1,76.0,True
28465,1630, Note_on_c,49,54,3,1,1,57.0,False
28466,1631, Note_on_c,56,54,3,1,1,65.0,False
28467,1631, Note_on_c,61,54,3,1,1,71.0,False
28468,1632, Note_on_c,60,54,3,1,1,70.0,True
28469,1632, Note_on_c,63,54,3,1,1,73.0,False
28470,1633, Note_on_c,49,54,3,1,1,57.0,False
28471,1634, Note_on_c,56,54,3,1,1,65.0,False
28472,1634, Note_on_c,61,54,3,1,1,71.0,False
28473,1635, Note_on_c,60,54,3,1,1,70.0,True
28474,1635, Note_on_c,63,54,3,1,1,73.0,False
28475,1636, Note_on_c,56,54,3,1,1,65.0,False
28476,1636, Note_on_c,61,54,3,1,1,71.0,False
28477,1637, Note_on_c,60,54,3,1,1,70.0,True
28478,1637, Note_on_c,65,54,3,1,1,76.0,True
28479,1638, Note_on_c,49,54,3,1,1,57.0,False
28480,1639, Note_on_c,56,54,3,1,1,65.0,False
28481,1639, Note_on_c,61,54,3,1,1,71.0,False
28482,1640, Note_on_c,60,54,3,1,1,70.0,True
28483,1640, Note_on_c,63,54,3,1,1,73.0,False
28484,1641, Note_on_c,49,54,3,1,1,57.0,False
28485,1642, Note_on_c,56,54,3,1,1,65.0,False
28486,1642, Note_on_c,61,54,3,1,1,71.0,False
28487,1643, Note_on_c,60,54,3,1,1,70.0,True
28488,1643, Note_on_c,63,54,3,1,1,73.0,False
28489,1644, Note_on_c,56,54,3,1,1,65.0,False
28490,1644, Note_on_c,61,54,3,1,1,71.0,False
28491,1645, Note_on_c,60,54,3,1,1,70.0,True
28492,1645, Note_on_c,65,54,3,1,1,76.0,True
28493,1646, Note_on_c,49,54,3,1,1,57.0,False
28494,1647, Note_on_c,56,54,3,1,1,65.0,False
28495,1647, Note_on_c,61,54,3,1,1,71.0,False
28496,1648, Note_on_c,60,54,3,1,1,70.0,True
28497,1648, Note_on_c,63,54,3,1,1,73.0,False
28498,1649, Note_on_c,49,54,3,1,1,57.0,False
28499,1650, Note_on_c,56,54,3,1,1,65.0,False
28500,1650, Note_on_c,61,54,3,1,1,71.0,False
28501,1651, Note_on_c,60,54,3,1,1,70.0,True
28502,1651, Note_on_c,63,54,3,1,1,73.0,False
28503,1652, Note_on_c,56,54,3,1,1,65.0,False
28504,1652, Note_on_c,61,54,3,1,1,71.0,False
28505,1653, Note_on_c,60,54,3,1,1,70.0,True
28506,1653, Note_on_c,65,54,3,1,1,76.0,True
28507,1654, Note_on_c,49,54,3,1,1,57.0,False
28508,1655, Note_on_c,56,54,3,1,1,65.0,False
28509,1655, Note_on_c,61,54,3,1,1,71.0,False
28510,1656, Note_on_c,60,54,3,1,1,70.0,True
28511,1656, Note_on_c,63,54,3,1,1,73.0,False
28512,1657, Note_on_c,49,54,3,1,1,57.0,False
28513,1658, Note_on_c,56,54,3,1,1,65.0,False
28514,1658, Note_on_c,61,54,3,1,1,71.0,False
28515,1659, Note_on_c,60,54,3,1,1,70.0,True
28516,1659, Note_on_c,63,54,3,1,1,73.0,False
28517,1660, Note_on_c,56,54,3,1,1,65.0,False
28518,1660, Note_on_c,61,54,3,1,1,71.0,False
28519,1661, Note_on_c,60,54,3,1,1,70.0,True
28520,1661, Note_on_c,65,54,3,1,1,76.0,True
28521,1662, Note_on_c,49,54,3,1,1,57.0,False
28522,1663, Note_on_c,56,54,3,1,1,65.0,False
28523,1663, Note_on_c,61,54,3,1,1,71.0,False
28524,1664, Note_on_c,60,54,3,1,1,70.0,True
28525,1664, Note_on_c,63,54,3,1,1,73.0,False
28526,1665, Note_on_c,49,54,3,1,1,57.0,False
28527,1666, Note_on_c,56,54,3,1,1,65.0,False
28528,1666, Note_on_c,61,54,3,1,1,71.0,False
28529,1667, Note_on_c,60,54,3,1,1,70.0,True
28530,1667, Note_on_c,63,54,3,1,1,73.0,False
28531,1668, Note_on_c,56,54,3,1,1,65.0,False
28532,1668, Note_on_c,61,54,3,1,1,71.0,False
28533,1669, Note_on_c,60,54,3,1,1,70.0,True
28534,1669, Note_on_c,65,54,3,1,1,76.0,True
28535,1670, Note_on_c,49,54,3,1,1,57.0,False
28536,1671, Note_on_c,56,54,3,1,1,65.0,False
28537,1671, Note_on_c,61,54,3,1,1,71.0,False
28538,1672, Note_on_c,60,54,3,1,1,70.0,True
28539,1672, Note_on_c,63,54,3,1,1,73.0,False
28540,1673, Note_on_c,49,54,3,1,1,57.0,False
28541,1674, Note_on_c,56,54,3,1,1,65.0,False
28542,1674, Note_on_c,61,54,3,1,1,71.0,False
28543,1675, Note_on_c,60,54,3,1,1,70.0,True
28544,1675, Note_on_c,63,54,3,1,1,73.0,False
28545,1676, Note_on_c,56,54,3,1,1,65.0,False
28546,1676, Note_on_c,61,54,3,1,1,71.0,False
28547,1677, Note_on_c,60,54,3,1,1,70.0,True
28548,1677, Note_on_c,65,54,3,1,1,76.0,True
28549,1678, Note_on_c,49,54,3,1,1,57.0,False
28550,1679, Note_on_c,56,54,3,1,1,65.0,False
28551,1679, Note_on_c,61,54,3,1,1,71.0,False
28552,1680, Note_on_c,60,54,3,1,1,70.0,True
28553,1680, Note_on_c,63,54,3,1,1,73.0,False
28554,1681, Note_on_c,49,54,3,1,1,57.0,False
28555,1682, Note_on_c,56,54,3,1,1,65.0,False
28556,1682, Note_on_c,61,54,3,1,1,71.0,False
28557,1683, Note_on_c,60,54,3,1,1,70.0,True
28558,1683, Note_on_c,63,54,3,1,1,73.0,False
28559,1684, Note_on_c,56,54,3,1,1,65.0,False
28560,1684, Note_on_c,61,54,3,1,1,71.0,False
28561,1685, Note_on_c,60,54,3,1,1,70.0,True
28562,1685, Note_on_c,65,54,3,1,1,76.0,True
28563,1686, Note_on_c,49,54,3,1,1,57.0,False
28564,1687, Note_on_c,56,54,3,1,1,65.0,False
28565,1687, Note_on_c,61,54,3,1,1,71.0,False
28566,1688, Note_on_c,60,54,3,1,1,70.0,True
28567,1688, Note_on_c,63,54,3,1,1,73.0,False
28568,1689, Note_on_c,49,54,3,1,1,57.0,False
28569,1690, Note_on_c,56,54,3,1,1,65.0,False
28570,1690, Note_on_c,61,54,3,1,1,71.0,False
28571,1691, Note_on_c,60,54,3,1,1,70.0,True
28572,1691, Note_on_c,63,54,3,1,1,73.0,False
28573,1692, Note_on_c,56,54,3,1,1,65.0,False
28574,1692, Note_on_c,61,54,3,1,1,71.0,False
28575,1693, Note_on_c,60,54,3,1,1,70.0,True
28576,1693, Note_on_c,65,54,3,1,1,76.0,True
28577,1694, Note_on_c,49,54,3,1,1,57.0,False
28578,1695, Note_on_c,56,54,3,1,1,65.0,False
28579,1695, Note_on_c,61,54,3,1,1,71.0,False
28580,1696, Note_on_c,60,54,3,1,1,70.0,True
28581,1696, Note_on_c,63,54,3,1,1,73.0,False
28582,1697, Note_on_c,49,54,3,1,1,57.0,False
28583,1698, Note_on_c,56,54,3,1,1,65.0,False
28584,1698, Note_on_c,61,54,3,1,1,71.0,False
28585,1699, Note_on_c,60,54,3,1,1,70.0,True
28586,1699, Note_on_c,63,54,3,1,1,73.0,False
28587,1700, Note_on_c,56,54,3,1,1,65.0,False
28588,1700, Note_on_c,61,54,3,1,1,71.0,False
28589,1701, Note_on_c,60,54,3,1,1,70.0,True
28590,1701, Note_on_c,65,54,3,1,1,76.0,True
28591,1702, Note_on_c,49,54,3,1,1,57.0,False
28592,1703, Note_on_c,56,54,3,1,1,65.0,False
28593,1703, Note_on_c,61,54,3,1,1,71.0,False
28594,1704, Note_on_c,60,54,3,1,1,70.0,True
28595,1704, Note_on_c,63,54,3,1,1,73.0,False
28596,1705, Note_on_c,49,54,3,1,1,57.0,False
28597,1706, Note_on_c,56,54,3,1,1,65.0,False
28598,1706, Note_on_c,61,54,3,1,1,71.0,False
28599,1707, Note_on_c,60,54,3,1,1,70.0,True
28600,1707, Note_on_c,63,54,3,1,1,73.0,False
28601,1708, Note_on_c,56,54,3,1,1,65.0,False
28602,1708, Note_on_c,61,54,3,1,1,71.0,False
28603,1709, Note_on_c,60,54,3,1,1,70.0,True
28604,1709, Note_on_c,65,54,3,1,1,76.0,True
28605,1710, Note_on_c,49,54,3,1,1,57.0,False
28606,1711, Note_on_c,56,54,3,1,1,65.0,False
28607,1711, Note_on_c,61,54,3,1,1,71.0,False
28608,1712, Note_on_c,60,54,3,1,1,70.0,True
28609,1712, Note_on_c,63,54,3,1,1,73.0,False
28610,1713, Note_on_c,49,54,3,1,1,57.0,False
28611,1714, Note_on_c,56,54,3,1,1,65.0,False
28612,1714, Note_on_c,61,54,3,1,1,71.0,False
28613,1715, Note_on_c,60,54,3,1,1,70.0,True
28614,1715, Note_on_c,63,54,3,1,1,73.0,False
28615,1716, Note_on_c,56,54,3,1,1,65.0,False
28616,1716, Note_on_c,61,54,3,1,1,71.0,False
28617,1717, Note_on_c,60,54,3,1,1,70.0,True
28618,1717, Note_on_c,65,54,3,1,1,76.0,True
28619,1718, Note_on_c,49,54,3,1,1,57.0,False
28620,1719, Note_on_c,56,54,3,1,1,65.0,False
28621,1719, Note_on_c,61,54,3,1,1,71.0,False
28622,1720, Note_on_c,60,54,3,1,1,70.0,True
28623,1720, Note_on_c,63,54,3,1,1,73.0,False
28624,1721, Note_on_c,49,54,3,1,1,57.0,False
28625,1722, Note_on_c,56,54,3,1,1,65.0,False
28626,1722, Note_on_c,61,54,3,1,1,71.0,False
28627,1723, Note_on_c,60,54,3,1,1,70.0,True
28628,1723, Note_on_c,63,54,3,1,1,73.0,False
28629,1724, Note_on_c,56,54,3,1,1,65.0,False
28630,1724, Note_on_c,61,54,3,1,1,71.0,False
28631,1725, Note_on_c,60,54,3,1,1,70.0,True
28632,1725, Note_on_c,65,54,3,1,1,76.0,True
28633,1726, Note_on_c,49,54,3,1,1,57.0,False
28634,1727, Note_on_c,56,54,3,1,1,65.0,False
28635,1727, Note_on_c,61,54,3,1,1,71.0,False
28636,1728, Note_on_c,60,54,3,1,1,70.0,True
28637,1728, Note_on_c,63,54,3,1,1,73.0,False
28638,1729, Note_on_c,49,54,3,1,1,57.0,False
28639,1730, Note_on_c,56,54,3,1,1,65.0,False
28640,1730, Note_on_c,61,54,3,1,1,71.0,False
28641,1731, Note_on_c,60,54,3,1,1,70.0,True
28642,1731, Note_on_c,63,54,3,1,1,73.0,False
28643,1732, Note_on_c,56,54,3,1,1,65.0,False
28644,1732, Note_on_c,61,54,3,1,1,71.0,False
28645,1733, Note_on_c,60,54,3,1,1,70.0,True
28646,1733, Note_on_c,65,54,3,1,1,76.0,True
28647,1734, Note_on_c,49,54,3,1,1,57.0,False
28648,1735, Note_on_c,56,54,3,1,1,65.0,False
28649,1735, Note_on_c,61,54,3,1,1,71.0,False
28650,1736, Note_on_c,60,54,3,1,1,70.0,True
28651,1736, Note_on_c,63,54,3,1,1,73.0,False
28652,1737, Note_on_c,49,54,3,1,1,57.0,False
28653,1738, Note_on_c,56,54,3,1,1,65.0,False
28654,1738, Note_on_c,61,54,3,1,1,71.0,False
28655,1739, Note_on_c,60,54,3,1,1,70.0,True
28656,1739, Note_on_c,63,54,3,1,1,73.0,False
28657,1740, Note_on_c,56,54,3,1,1,65.0,False
28658,1740, Note_on_c,61,54,3,1,1,71.0,False
28659,1741, Note_on_c,60,54,3,1,1,70.0,True
28660,1741, Note_on_c,65,54,3,1,1,76.0,True
28661,1742, Note_on_c,49,54,3,1,1,57.0,False
28662,1743, Note_on_c,56,54,3,1,1,65.0,False
28663,1743, Note_on_c,61,54,3,1,1,71.0,False
28664,1744, Note_on_c,60,54,3,1,1,70.0,True
28665,1744, Note_on_c,63,54,3,1,1,73.0,False
28666,1745, Note_on_c,49,54,3,1,1,57.0,False
28667,1746, Note_on_c,56,54,3,1,1,65.0,False
28668,1746, Note_on_c,61,54,3,1,1,71.0,False
28669,1747, Note_on_c,60,54,3,1,1,70.0,True
28670,1747, Note_on_c,63,54,3,1,1,73.0,False
28671,1748, Note_on_c,56,54,3,1,1,65.0,False
28672,1748, Note_on_c,61,54,3,1,1,71.0,False
28673,1749, Note_on_c,60,54,3,1,1,70.0,True
28674,1749, Note_on_c,65,54,3,1,1,76.0,True
28675,1750, Note_on_c,49,54,3,1,1,57.0,False
28676,1751, Note_on_c,56,54,3,1,1,65.0,False
28677,1751, Note_on_c,61,54,3,1,1,71.0,False
28678,1752, Note_on_c,60,54,3,1,1,70.0,True
28679,1752, Note_on_c,63,54,3,1,1,73.0,False
28680,1753, Note_on_c,49,54,3,1,1,57.0,False
28681,1754, Note_on_c,56,54,3,1,1,65.0,False
28682,1754, Note_on_c,61,54,3,1,1,71.0,False
28683,1755, Note_on_c,60,54,3,1,1,70.0,True
28684,1755, Note_on_c,63,54,3,1,1,73.0,False
28685,1756, Note_on_c,56,54,3,1,1,65.0,False
28686,1756, Note_on_c,61,54,3,1,1,71.0,False
28687,1757, Note_on_c,60,54,3,1,1,70.0,True
28688,1757, Note_on_c,65,54,3,1,1,76.0,True
28689,1758, Note_on_c,49,54,3,1,1,57.0,False
28690,1759, Note_on_c,56,54,3,1,1,65.0,False
28691,1759, Note_on_c,61,54,3,1,1,71.0,False
28692,1760, Note_on_c,60,54,3,1,1,70.0,True
28693,1760, Note_on_c,63,54,3,1,1,73.0,False
28694,1761, Note_on_c,49,54,3,1,1,57.0,False
28695,1762, Note_on_c,56,54,3,1,1,65.0,False
28696,1762, Note_on_c,61,54,3,1,1,71.0,False
28697,1763, Note_on_c,60,54,3,1,1,70.0,True
28698,1763, Note_on_c,63,54,3,1,1,73.0,False
28699,1764, Note_on_c,56,54,3,1,1,65.0,False
28700,1764, Note_on_c,61,54,3,1,1,71.0,False
28701,1765, Note_on_c,60,54,3,1,1,70.0,True
28702,1765, Note_on_c,65,54,3,1,1,76.0,True
28703,1766, Note_on_c,49,54,3,1,1,57.0,False
28704,1767, Note_on_c,56,54,3,1,1,65.0,False
28705,1767, Note_on_c,61,54,3,1,1,71.0,False
28706,1768, Note_on_c,60,54,3,1,1,70.0,True
28707,1768, Note_on_c,63,54,3,1,1,73.0,False
28708,1769, Note_on_c,49,54,3,1,1,57.0,False
28709,1770, Note_on_c,56,54,3,1,1,65.0,False
28710,1770, Note_on_c,61,54,3,1,1,71.0,False
28711,1771, Note_on_c,60,54,3,1,1,70.0,True
28712,1771, Note_on_c,63,54,3,1,1,73.0,False
28713,1772, Note_on_c,56,54,3,1,1,65.0,False
28714,1772, Note_on_c,61,54,3,1,1,71.0,False
28715,1773, Note_on_c,60,54,3,1,1,70.0,True
28716,1773, Note_on_c,65,54,3,1,1,76.0,True
28717,1774, Note_on_c,49,54,3,1,1,57.0,False
28718,1775, Note_on_c,56,54,3,1,1,65.0,False
28719,1775, Note_on_c,61,54,3,1,1,71.0,False
28720,1776, Note_on_c,60,54,3,1,1,70.0,True
28721,1776, Note_on_c,63,54,3,1,1,73.0,False
28722,1777, Note_on_c,49,54,3,1,1,57.0,False
28723,1778, Note_on_c,56,54,3,1,1,65.0,False
28724,1778, Note_on_c,61,54,3,1,1,71.0,False
28725,1779, Note_on_c,60,54,3,1,1,70.0,True
28726,1779, Note_on_c,63,54,3,1,1,73.0,False
28727,1780, Note_on_c,56,54,3,1,1,65.0,False
28728,1780, Note_on_c,61,54,3,1,1,71.0,False
28729,1781, Note_on_c,60,54,3,1,1,70.0,True
28730,1781, Note_on_c,65,54,3,1,1,76.0,True
28731,1782, Note_on_c,49,54,3,1,1,57.0,False
28732,1783, Note_on_c,56,54,3,1,1,65.0,False
28733,1783, Note_on_c,61,54,3,1,1,71.0,False
28734,1784, Note_on_c,60,54,3,1,1,70.0,True
28735,1784, Note_on_c,63,54,3,1,1,73.0,False
28736,1785, Note_on_c,49,54,3,1,1,57.0,False
28737,1786, Note_on_c,56,54,3,1,1,65.0,False
28738,1786, Note_on_c,61,54,3,1,1,71.0,False
28739,1787, Note_on_c,60,54,3,1,1,70.0,True
28740,1787, Note_on_c,63,54,3,1,1,73.0,False
28741,1788, Note_on_c,56,54,3,1,1,65.0,False
28742,1788, Note_on_c,61,54,3,1,1,71.0,False
28743,1789, Note_on_c,60,54,3,1,1,70.0,True
28744,1789, Note_on_c,65,54,3,1,1,76.0,True
28745,1790, Note_on_c,49,54,3,1,1,57.0,False
28746,1791, Note_on_c,56,54,3,1,1,65.0,False
28747,1791, Note_on_c,61,54,3,1,1,71.0,False
28748,1792, Note_on_c,60,54,3,1,1,70.0,True
28749,1792, Note_on_c,63,54,3,1,1,73.0,False
28750,1793, Note_on_c,49,54,3,1,1,57.0,False
28751,1794, Note_on_c,56,54,3,1,1,65.0,False
28752,1794, Note_on_c,61,54,3,1,1,71.0,False
28753,1795, Note_on_c,60,54,3,1,1,70.0,True
28754,1795, Note_on_c,63,54,3,1,1,73.0,False
28755,1796, Note_on_c,56,54,3,1,1,65.0,False
28756,1796, Note_on_c,61,54,3,1,1,71.0,False
28757,1797, Note_on_c,60,54,3,1,1,70.0,True
28758,1797, Note_on_c,65,54,3,1,1,76.0,True
28759,1798, Note_on_c,49,54,3,1,1,57.0,False
28760,1799, Note_on_c,56,54,3,1,1,65.0,False
28761,1799, Note_on_c,61,54,3,1,1,71.0,False
28762,1800, Note_on_c,60,54,3,1,1,70.0,True
28763,1800, Note_on_c,63,54,3,1,1,73.0,False
28764,1801, Note_on_c,49,54,3,1,1,57.0,False
28765,1802, Note_on_c,56,54,3,1,1,65.0,False
28766,1802, Note_on_c,61,54,3,1,1,71.0,False
28767,1803, Note_on_c,60,54,3,1,1,70.0,True
28768,1803, Note_on_c,63,54,3,1,1,73.0,False
28769,1804, Note_on_c,56,54,3,1,1,65.0,False
28770,1804, Note_on_c,61,54,3,1,1,71.0,False
28771,1805, Note_on_c,60,54,3,1,1,70.0,True
28772,1805, Note_on_c,65,54,3,1,1,76.0,True
28773,1806, Note_on_c,49,54,3,1,1,57.0,False
28774,1807, Note_on_c,56,54,3,1,1,65.0,False
28775,1807, Note_on_c,61,54,3,1,1,71.0,False
28776,1808, Note_on_c,60,54,3,1,1,70.0,True
28777,1808, Note_on_c,63,54,3,1,1,73.0,False
28778,1809, Note_on_c,49,54,3,1,1,57.0,False
28779,1810, Note_on_c,56,54,3,1,1,65.0,False
28780,1810, Note_on_c,61,54,3,1,1,71.0,False
28781,1811, Note_on_c,60,54,3,1,1,70.0,True
28782,1811, Note_on_c,63,54,3,1,1,73.0,False
28783,1812, Note_on_c,56,54,3,1,1,65.0,False
28784,1812, Note_on_c,61,54,3,1,1,71.0,False
28785,1813, Note_on_c,60,54,3,1,1,70.0,True
28786,1813, Note_on_c,65,54,3,1,1,76.0,True
28787,1814, Note_on_c,49,54,3,1,1,57.0,False
28788,1815, Note_on_c,56,54,3,1,1,65.0,False
28789,1815, Note_on_c,61,54,3,1,1,71.0,False
28790,1816, Note_on_c,60,54,3,1,1,70.0,True
28791,1816, Note_on_c,63,54,3,1,1,73.0,False
28792,1817, Note_on_c,49,54,3,1,1,57.0,False
28793,1818, Note_on_c,56,54,3,1,1,65.0,False
28794,1818, Note_on_c,61,54,3,1,1,71.0,False
28795,1819, Note_on_c,60,54,3,1,1,70.0,True
28796,1819, Note_on_c,63,54,3,1,1,73.0,False
28797,1820, Note_on_c,56,54,3,1,1,65.0,False
28798,1820, Note_on_c,61,54,3,1,1,71.0,False
28799,1821, Note_on_c,60,54,3,1,1,70.0,True
28800,1821, Note_on_c,65,54,3,1,1,76.0,True
28801,1822, Note_on_c,49,54,3,1,1,57.0,False
28802,1823, Note_on_c,56,54,3,1,1,65.0,False
28803,1823, Note_on_c,61,54,3,1,1,71.0,False
28804,1824, Note_on_c,60,54,3,1,1,70.0,True
28805,1824, Note_on_c,63,54,3,1,1,73.0,False
28806,1825, Note_on_c,49,54,3,1,1,57.0,False
28807,1826, Note_on_c,56,54,3,1,1,65.0,False
28808,1826, Note_on_c,61,54,3,1,1,71.0,False
28809,1827, Note_on_c,60,54,3,1,1,70.0,True
28810,1827, Note_on_c,63,54,3,1,1,73.0,False
28811,1828, Note_on_c,56,54,3,1,1,65.0,False
28812,1828, Note_on_c,61,54,3,1,1,71.0,False
28813,1829, Note_on_c,60,54,3,1,1,70.0,True
28814,1829, Note_on_c,65,54,3,1,1,76.0,True
28815,1830, Note_on_c,49,54,3,1,1,57.0,False
28816,1831, Note_on_c,56,54,3,1,1,65.0,False
28817,1831, Note_on_c,61,54,3,1,1,71.0,False
28818,1832, Note_on_c,60,54,3,1,1,70.0,True
28819,1832, Note_on_c,63,54,3,1,1,73.0,False
28820,1833, Note_on_c,49,54,3,1,1,57.0,False
28821,1834, Note_on_c,56,54,3,1,1,65.0,False
28822,1834, Note_on_c,61,54,3,1,1,71.0,False
28823,1835, Note_on_c,60,54,3,1,1,70.0,True
28824,1835, Note_on_c,63,54,3,1,1,73.0,False
28825,1836, Note_on_c,56,54,3,1,1,65.0,False
28826,1836, Note_on_c,61,54,3,1,1,71.0,False
28827,1837, Note_on_c,60,54,3,1,1,70.0,True
28828,1837, Note_on_c,65,54,3,1,1,76.0,True
28829,1838, Note_on_c,49,54,3,1,1,57.0,False
28830,1839, Note_on_c,56,54,3,1,1,65.0,False
28831,1839, Note_on_c,61,54,3,1,1,71.0,False
28832,1840, Note_on_c,60,54,3,1,1,70.0,True
28833,1840, Note_on_c,63,54,3,1,1,73.0,False
28834,1841, Note_on_c,49,54,3,1,1,57.0,False
28835,1842, Note_on_c,56,54,3,1,1,65.0,False
28836,1842, Note_on_c,61,54,3,1,1,71.0,False
28837,1843, Note_on_c,60,54,3,1,1,70.0,True
28838,1843, Note_on_c,63,54,3,1,1,73.0,False
28839,1844, Note_on_c,56,54,3,1,1,65.0,False
28840,1844, Note_on_c,61,54,3,1,1,71.0,False
28841,1845, Note_on_c,60,54,3,1,1,70.0,True
28842,1845, Note_on_c,65,54,3,1,1,76.0,True
28843,1846, Note_on_c,49,54,3,1,1,57.0,False
28844,1847, Note_on_c,56,54,3,1,1,65.0,False
28845,1847, Note_on_c,61,54,3,1,1,71.0,False
28846,1848, Note_on_c,60,54,3,1,1,70.0,True
28847,1848, Note_on_c,63,54,3,1,1,73.0,False
28848,1849, Note_on_c,49,54,3,1,1,57.0,False
28849,1850, Note_on_c,56,54,3,1,1,65.0,False
28850,1850, Note_on_c,61,54,3,1,1,71.0,False
28851,1851, Note_on_c,60,54,3,1,1,70.0,True
28852,1851, Note_on_c,63,54,3,1,1,73.0,False
28853,1852, Note_on_c,56,54,3,1,1,65.0,False
28854,1852, Note_on_c,61,54,3,1,1,71.0,False
28855,1853, Note_on_c,60,54,3,1,1,70.0,True
28856,1853, Note_on_c,65,54,3,1,1,76.0,True
28857,1854, Note_on_c,49,54,3,1,1,57.0,False
28858,1855, Note_on_c,56,54,3,1,1,65.0,False
28859,1855, Note_on_c,61,54,3,1,1,71.0,False
28860,1856, Note_on_c,60,54,3,1,1,70.0,True
28861,1856, Note_on_c,63,54,3,1,1,73.0,False
28862,1857, Note_on_c,49,54,3,1,1,57.0,False
28863,1858, Note_on_c,56,54,3,1,1,65.0,False
28864,1858, Note_on_c,61,54,3,1,1,71.0,False
28865,1859, Note_on_c,60,54,3,1,1,70.0,True
28866,1859, Note_on_c,63,54,3,1,1,73.0,False
28867,1860, Note_on_c,56,54,3,1,1,65.0,False
28868,1860, Note_on_c,61,54,3,1,1,71.0,False
28869,1861, Note_on_c,60,54,3,1,1,70.0,True
28870,1861, Note_on_c,65,54,3,1,1,76.0,True
28871,1862, Note_on_c,49,54,3,1,1,57.0,False
28872,1863, Note_on_c,56,54,3,1,1,65.0,False
28873,1863, Note_on_c,61,54,3,1,1,71.0,False
28874,1864, Note_on_c,60,54,3,1,1,70.0,True
28875,1864, Note_on_c,63,54,3,1,1,73.0,False
28876,1865, Note_on_c,49,54,3,1,1,57.0,False
28877,1866, Note_on_c,56,54,3,1,1,65.0,False
28878,1866, Note_on_c,61,54,3,1,1,71.0,False
28879,1867, Note_on_c,60,54,3,1,1,70.0,True
28880,1867, Note_on_c,63,54,3,1,1,73.0,False
28881,1868, Note_on_c,56,54,3,1,1,65.0,False
28882,1868, Note_on_c,61,54,3,1,1,71.0,False
28883,1869, Note_on_c,60,54,3,1,1,70.0,True
28884,1869, Note_on_c,65,54,3,1,1,76.0,True
28885,1870, Note_on_c,49,54,3,1,1,57.0,False
28886,1871, Note_on_c,56,54,3,1,1,65.0,False
28887,1871, Note_on_c,61,54,3,1,1,71.0,False
28888,1872, Note_on_c,60,54,3,1,1,70.0,True
28889,1872, Note_on_c,63,54,3,1,1,73.0,False
28890,1873, Note_on_c,49,54,3,1,1,57.0,False
28891,1874, Note_on_c,56,54,3,1,1,65.0,False
28892,1874, Note_on_c,61,54,3,1,1,71.0,False
28893,1875, Note_on_c,60,54,3,1,1,70.0,True
28894,1875, Note_on_c,63,54,3,1,1,73.0,False
28895,1876, Note_on_c,56,54,3,1,1,65.0,False
28896,1876, Note_on_c,61,54,3,1,1,71.0,False
28897,1877, Note_on_c,60,54,3,1,1,70.0,True
28898,1877, Note_on_c,65,54,3,1,1,76.0,True
28899,1878, Note_on_c,49,54,3,1,1,57.0,False
28900,1879, Note_on_c,56,54,3,1,1,65.0,False
28901,1879, Note_on_c,61,54,3,1,1,71.0,False
28902,1880, Note_on_c,60,54,3,1,1,70.0,True
28903,1880, Note_on_c,63,54,3,1,1,73.0,False
28904,1881, Note_on_c,49,54,3,1,1,57.0,False
28905,1882, Note_on_c,56,54,3,1,1,65.0,False
28906,1882, Note_on_c,61,54,3,1,1,71.0,False
28907,1883, Note_on_c,60,54,3,1,1,70.0,True
28908,1883, Note_on_c,63,54,3,1,1,73.0,False
28909,1884, Note_on_c,56,54,3,1,1,65.0,False
28910,1884, Note_on_c,61,54,3,1,1,71.0,False
28911,1885, Note_on_c,60,54,3,1,1,70.0,True
28912,1885, Note_on_c,65,54,3,1,1,76.0,True
28913,1886, Note_on_c,49,54,3,1,1,57.0,False
28914,1887, Note_on_c,56,54,3,1,1,65.0,False
28915,1887, Note_on_c,61,54,3,1,1,71.0,False
28916,1888, Note_on_c,60,54,3,1,1,70.0,True
28917,1888, Note_on_c,63,54,3,1,1,73.0,False
28918,1889, Note_on_c,49,54,3,1,1,57.0,False
28919,1890, Note_on_c,56,54,3,1,1,65.0,False
28920,1890, Note_on_c,61,54,3,1,1,71.0,False
28921,1891, Note_on_c,60,54,3,1,1,70.0,True
28922,1891, Note_on_c,63,54,3,1,1,73.0,False
28923,1892, Note_on_c,56,54,3,1,1,65.0,False
28924,1892, Note_on_c,61,54,3,1,1,71.0,False
28925,1893, Note_on_c,60,54,3,1,1,70.0,True
28926,1893, Note_on_c,65,54,3,1,1,76.0,True
28927,1894, Note_on_c,49,54,3,1,1,57.0,False
28928,1895, Note_on_c,56,54,3,1,1,65.0,False
28929,1895, Note_on_c,61,54,3,1,1,71.0,False
28930,1896, Note_on_c,60,54,3,1,1,70.0,True
28931,1896, Note_on_c,63,54,3,1,1,73.0,False
28932,1897, Note_on_c,49,54,3,1,1,57.0,False
28933,1898, Note_on_c,56,54,3,1,1,65.0,False
28934,1898, Note_on_c,61,54,3,1,1,71.0,False
28935,1899, Note_on_c,60,54,3,1,1,70.0,True
28936,1899, Note_on_c,63,54,3,1,1,73.0,False
28937,1900, Note_on_c,56,54,3,1,1,65.0,False
28938,1900, Note_on_c,61,54,3,1,1,71.0,False
28939,1901, Note_on_c,60,54,3,1,1,70.0,True
28940,1901, Note_on_c,65,54,3,1,1,76.0,True
28941,1902, Note_on_c,49,54,3,1,1,57.0,False
28942,1903, Note_on_c,56,54,3,1,1,65.0,False
28943,1903, Note_on_c,61,54,3,1,1,71.0,False
28944,1904, Note_on_c,60,54,3,1,1,70.0,True
28945,1904, Note_on_c,63,54,3,1,1,73.0,False
28946,1905, Note_on_c,49,54,3,1,1,57.0,False
28947,1906, Note_on_c,56,54,3,1,1,65.0,False
28948,1906, Note_on_c,61,54,3,1,1,71.0,False
28949,1907, Note_on_c,60,54,3,1,1,70.0,True
28950,1907, Note_on_c,63,54,3,1,1,73.0,False
28951,1908, Note_on_c,56,54,3,1,1,65.0,False
28952,1908, Note_on_c,61,54,3,1,1,71.0,False
28953,1909, Note_on_c,60,54,3,1,1,70.0,True
28954,1909, Note_on_c,65,54,3,1,1,76.0,True
28955,1910, Note_on_c,49,54,3,1,1,57.0,False
28956,1911, Note_on_c,56,54,3,1,1,65.0,False
28957,1911, Note_on_c,61,54,3,1,1,71.0,False
28958,1912, Note_on_c,60,54,3,1,1,70.0,True
28959,1912, Note_on_c,63,54,3,1,1,73.0,False
28960,1913, Note_on_c,49,54,3,1,1,57.0,False
28961,1914, Note_on_c,56,54,3,1,1,65.0,False
28962,1914, Note_on_c,61,54,3,1,1,71.0,False
28963,1915, Note_on_c,60,54,3,1,1,70.0,True
28964,1915, Note_on_c,63,54,3,1,1,73.0,False
28965,1916, Note_on_c,56,54,3,1,1,65.0,False
28966,1916, Note_on_c,61,54,3,1,1,71.0,False
28967,1917, Note_on_c,60,54,3,1,1,70.0,True
28968,1917, Note_on_c,65,54,3,1,1,76.0,True
28969,1918, Note_on_c,49,54,3,1,1,57.0,False
28970,1919, Note_on_c,56,54,3,1,1,65.0,False
28971,1919, Note_on_c,61,54,3,1,1,71.0,False
28972,1920, Note_on_c,60,54,3,1,1,70.0,True
28973,1920, Note_on_c,63,54,3,1,1,73.0,False
28974,1921, Note_on_c,49,54,3,1,1,57.0,False
28975,1922, Note_on_c,56,54,3,1,1,65.0,False
28976,1922, Note_on_c,61,54,3,1,1,71.0,False
28977,1923, Note_on_c,60,54,3,1,1,70.0,True
28978,1923, Note_on_c,63,54,3,1,1,73.0,False
28979,1924, Note_on_c,56,54,3,1,1,65.0,False
28980,1924, Note_on_c,61,54,3,1,1,71.0,False
28981,1925, Note_on_c,60,54,3,1,1,70.0,True
28982,1925, Note_on_c,65,54,3,1,1,76.0,True
28983,1926, Note_on_c,49,54,3,1,1,57.0,False
28984,1927, Note_on_c,56,54,3,1,1,65.0,False
28985,1927, Note_on_c,61,54,3,1,1,71.0,False
28986,1928, Note_on_c,60,54,3,1,1,70.0,True
28987,1928, Note_on_c,63,54,3,1,1,73.0,False
28988,1929, Note_on_c,49,54,3,1,1,57.0,False
28989,1930, Note_on_c,56,54,3,1,1,65.0,False
28990,1930, Note_on_c,61,54,3,1,1,71.0,False
28991,1931, Note_on_c,60,54,3,1,1,70.0,True
28992,1931, Note_on_c,63,54,3,1,1,73.0,False
28993,1932, Note_on_c,56,54,3,1,1,65.0,False
28994,1932, Note_on_c,61,54,3,1,1,71.0,False
28995,1933, Note_on_c,60,54,3,1,1,70.0,True
28996,1933, Note_on_c,65,54,3,1,1,76.0,True
28997,1934, Note_on_c,49,54,3,1,1,57.0,False
28998,1935, Note_on_c,56,54,3,1,1,65.0,False
28999,1935, Note_on_c,61,54,3,1,1,71.0,False
29000,1936, Note_on_c,60,54,3,1,1,70.0,True
29001,1936, Note_on_c,63,54,3,1,1,73.0,False
29002,1937, Note_on_c,49,54,3,1,1,57.0,False
29003,1938, Note_on_c,56,54,3,1,1,65.0,False
29004,1938, Note_on_c,61,54,3,1,1,71.0,False
29005,1939, Note_on_c,60,54,3,1,1,70.0,True
29006,1939, Note_on_c,63,54,3,1,1,73.0,False
29007,1940, Note_on_c,56,54,3,1,1,65.0,False
29008,1940, Note_on_c,61,54,3,1,1,71.0,False
29009,1941, Note_on_c,60,54,3,1,1,70.0,True
29010,1941, Note_on_c,65,54,3,1,1,76.0,True
29011,1942, Note_on_c,49,54,3,1,1,57.0,False
29012,1943, Note_on_c,56,54,3,1,1,65.0,False
29013,1943, Note_on_c,61,54,3,1,1,71.0,False
29014,1944, Note_on_c,60,54,3,1,1,70.0,True
29015,1944, Note_on_c,63,54,3,1,1,73.0,False
29016,1945, Note_on_c,49,54,3,1,1,57.0,False
29017,1946, Note_on_c,56,54,3,1,1,65.0,False
29018,1946, Note_on_c,61,54,3,1,1,71.0,False
29019,1947, Note_on_c,60,54,3,1,1,70.0,True
29020,1947, Note_on_c,63,54,3,1,1,73.0,False
29021,1948, Note_on_c,56,54,3,1,1,65.0,False
29022,1948, Note_on_c,61,54,3,1,1,71.0,False
29023,1949, Note_on_c,60,54,3,1,1,70.0,True
29024,1949, Note_on_c,65,54,3,1,1,76.0,True
29025,1950, Note_on_c,49,54,3,1,1,57.0,False
29026,1951, Note_on_c,56,54,3,1,1,65.0,False
29027,1951, Note_on_c,61,54,3,1,1,71.0,False
29028,1952, Note_on_c,60,54,3,1,1,70.0,True
29029,1952, Note_on_c,63,54,3,1,1,73.0,False
29030,1953, Note_on_c,49,54,3,1,1,57.0,False
29031,1954, Note_on_c,56,54,3,1,1,65.0,False
29032,1954, Note_on_c,61,54,3,1,1,71.0,False
29033,1955, Note_on_c,60,54,3,1,1,70.0,True
29034,1955, Note_on_c,63,54,3,1,1,73.0,False
29035,1956, Note_on_c,56,54,3,1,1,65.0,False
29036,1956, Note_on_c,61,54,3,1,1,71.0,False
29037,1957, Note_on_c,60,54,3,1,1,70.0,True
29038,1957, Note_on_c,65,54,3,1,1,76.0,True
29039,1958, Note_on_c,49,54,3,1,1,57.0,False
29040,1959, Note_on_c,56,54,3,1,1,65.0,False
29041,1959, Note_on_c,61,54,3,1,1,71.0,False
29042,1960, Note_on_c,60,54,3,1,1,70.0,True
29043,1960, Note_on_c,63,54,3,1,1,73.0,False
29044,1961, Note_on_c,49,54,3,1,1,57.0,False
29045,1962, Note_on_c,56,54,3,1,1,65.0,False
29046,1962, Note_on_c,61,54,3,1,1,71.0,False
29047,1963, Note_on_c,60,54,3,1,1,70.0,True
29048,1963, Note_on_c,63,54,3,1,1,73.0,False
29049,1964, Note_on_c,56,54,3,1,1,65.0,False
29050,1964, Note_on_c,61,54,3,1,1,71.0,False
29051,1965, Note_on_c,60,54,3,1,1,70.0,True
29052,1965, Note_on_c,65,54,3,1,1,76.0,True
29053,1966, Note_on_c,49,54,3,1,1,57.0,False
29054,1967, Note_on_c,56,54,3,1,1,65.0,False
29055,1967, Note_on_c,61,54,3,1,1,71.0,False
29056,1968, Note_on_c,60,54,3,1,1,70.0,True
29057,1968, Note_on_c,63,54,3,1,1,73.0,False
29058,1969, Note_on_c,49,54,3,1,1,57.0,False
29059,1970, Note_on_c,56,54,3,1,1,65.0,False
29060,1970, Note_on_c,61,54,3,1,1,71.0,False
29061,1971, Note_on_c,60,54,3,1,1,70.0,True
29062,1971, Note_on_c,63,54,3,1,1,73.0,False
29063,1972, Note_on_c,56,54,3,1,1,65.0,False
29064,1972, Note_on_c,61,54,3,1,1,71.0,False
29065,1973, Note_on_c,60,54,3,1,1,70.0,True
29066,1973, Note_on_c,65,54,3,1,1,76.0,True
29067,1974, Note_on_c,49,54,3,1,1,57.0,False
29068,1975, Note_on_c,56,54,3,1,1,65.0,False
29069,1975, Note_on_c,61,54,3,1,1,71.0,False
29070,1976, Note_on_c,60,54,3,1,1,70.0,True
29071,1976, Note_on_c,63,54,3,1,1,73.0,False
29072,1977, Note_on_c,49,54,3,1,1,57.0,False
29073,1978, Note_on_c,56,54,3,1,1,65.0,False
29074,1978, Note_on_c,61,54,3,1,1,71.0,False
29075,1979, Note_on_c,60,54,3,1,1,70.0,True
29076,1979, Note_on_c,63,54,3,1,1,73.0,False
29077,1980, Note_on_c,56,54,3,1,1,65.0,False
29078,1980, Note_on_c,61,54,3,1,1,71.0,False
29079,1981, Note_on_c,60,54,3,1,1,70.0,True
29080,1981, Note_on_c,65,54,3,1,1,76.0,True
29081,1982, Note_on_c,49,54,3,1,1,57.0,False
29082,1983, Note_on_c,56,54,3,1,1,65.0,False
29083,1983, Note_on_c,61,54,3,1,1,71.0,False
29084,1984, Note_on_c,60,54,3,1,1,70.0,True
29085,1984, Note_on_c,63,54,3,1,1,73.0,False
29086,1985, Note_on_c,49,54,3,1,1,57.0,False
29087,1986, Note_on_c,56,54,3,1,1,65.0,False
29088,1986, Note_on_c,61,54,3,1,1,71.0,False
29089,1987, Note_on_c,60,54,3,1,1,70.0,True
29090,1987, Note_on_c,63,54,3,1,1,73.0,False
29091,1988, Note_on_c,56,54,3,1,1,65.0,False
29092,1988, Note_on_c,61,54,3,1,1,71.0,False
29093,1989, Note_on_c,60,54,3,1,1,70.0,True
29094,1989, Note_on_c,65,54,3,1,1,76.0,True
29095,1990, Note_on_c,49,54,3,1,1,57.0,False
29096,1991, Note_on_c,56,54,3,1,1,65.0,False
29097,1991, Note_on_c,61,54,3,1,1,71.0,False
29098,1992, Note_on_c,60,54,3,1,1,70.0,True
29099,1992, Note_on_c,63,54,3,1,1,73.0,False
29100,1993, Note_on_c,49,54,3,1,1,57.0,False
29101,1994, Note_on_c,56,54,3,1,1,65.0,False
29102,1994, Note_on_c,61,54,3,1,1,71.0,False
29103,1995, Note_on_c,60,54,3,1,1,70.0,True
29104,1995, Note_on_c,63,54,3,1,1,73.0,False
29105,1996, Note_on_c,56,54,3,1,1,65.0,False
29106,1996, Note_on_c,61,54,3,1,1,71.0,False
29107,1997, Note_on_c,60,54,3,1,1,70.0,True
29108,1997, Note_on_c,65,54,3,1,1,76.0,True
29109,1998, Note_on_c,49,54,3,1,1,57.0,False
29110,1999, Note_on_c,56,54,3,1,1,65.0,False
29111,1999, Note_on_c,61,54,3,1,1,71.0,False
29112,2000, Note_on_c,60,54,3,1,1,70.0,True
29113,2000, Note_on_c,63,54,3,1,1,73.0,False
29114,2001, Note_on_c,49,54,3,1,1,57.0,False
29115,2002, Note_on_c,56,54,3,1,1,65.0,False
29116,2002, Note_on_c,61,54,3,1,1,71.0,False
29117,2003, Note_on_c,60,54,3,1,1,70.0,True
29118,2003, Note_on_c,63,54,3,1,1,73.0,False
29119,2004, Note_on_c,56,54,3,1,1,65.0,False
29120,2004, Note_on_c,61,54,3,1,1,71.0,False
29121,2005, Note_on_c,60,54,3,1,1,70.0,True
29122,2005, Note_on_c,65,54,3,1,1,76.0,True
29123,2006, Note_on_c,49,54,3,1,1,57.0,False
29124,2007, Note_on_c,56,54,3,1,1,65.0,False
29125,2007, Note_on_c,61,54,3,1,1,71.0,False
29126,2008, Note_on_c,60,54,3,1,1,70.0,True
29127,2008, Note_on_c,63,54,3,1,1,73.0,False
29128,2009, Note_on_c,49,54,3,1,1,57.0,False
29129,2010, Note_on_c,56,54,3,1,1,65.0,False
29130,2010, Note_on_c,61,54,3,1,1,71.0,False
29131,2011, Note_on_c,60,54,3,1,1,70.0,True
29132,2011, Note_on_c,63,54,3,1,1,73.0,False
29133,2012, Note_on_c,56,54,3,1,1,65.0,False
29134,2012, Note_on_c,61,54,3,1,1,71.0,False
29135,2013, Note_on_c,60,54,3,1,1,70.0,True
29136,2013, Note_on_c,65,54,3,1,1,76.0,True
29137,2014, Note_on_c,49,54,3,1,1,57.0,False
29138,2015, Note_on_c,56,54,3,1,1,65.0,False
29139,2015, Note_on_c,61,54,3,1,1,71.0,False
29140,2016, Note_on_c,60,54,3,1,1,70.0,True
29141,2016, Note_on_c,63,54,3,1,1,73.0,False
29142,2017, Note_on_c,49,54,3,1,1,57.0,False
29143,2018, Note_on_c,56,54,3,1,1,65.0,False
29144,2018, Note_on_c,61,54,3,1,1,71.0,False
29145,2019, Note_on_c,60,54,3,1,1,70.0,True
29146,2019, Note_on_c,63,54,3,1,1,73.0,False
29147,2020, Note_on_c,56,54,3,1,1,65.0,False
29148,2020, Note_on_c,61,54,3,1,1,71.0,False
29149,2021, Note_on_c,60,54,3,1,1,70.0,True
29150,2021, Note_on_c,65,54,3,1,1,76.0,True
29151,2022, Note_on_c,49,54,3,1,1,57.0,False
29152,2023, Note_on_c,56,54,3,1,1,65.0,False
29153,2023, Note_on_c,61,54,3,1,1,71.0,False
29154,2024, Note_on_c,60,54,3,1,1,70.0,True
29155,2024, Note_on_c,63,54,3,1,1,73.0,False
29156,2025, Note_on_c,49,54,3,1,1,57.0,False
29157,2026, Note_on_c,56,54,3,1,1,65.0,False
29158,2026, Note_on_c,61,54,3,1,1,71.0,False
29159,2027, Note_on_c,60,54,3,1,1,70.0,True
29160,2027, Note_on_c,63,54,3,1,1,73.0,False
29161,2028, Note_on_c,56,54,3,1,1,65.0,False
29162,2028, Note_on_c,61,54,3,1,1,71.0,False
29163,2029, Note_on_c,60,54,3,1,1,70.0,True
29164,2029, Note_on_c,65,54,3,1,1,76.0,True
29165,2030, Note_on_c,49,54,3,1,1,57.0,False
29166,2031, Note_on_c,56,54,3,1,1,65.0,False
29167,2031, Note_on_c,61,54,3,1,1,71.0,False
29168,2032, Note_on_c,60,54,3,1,1,70.0,True
29169,2032, Note_on_c,63,54,3,1,1,73.0,False
29170,2033, Note_on_c,49,54,3,1,1,57.0,False
29171,2034, Note_on_c,56,54,3,1,1,65.0,False
29172,2034, Note_on_c,61,54,3,1,1,71.0,False
29173,2035, Note_on_c,60,54,3,1,1,70.0,True
29174,2035, Note_on_c,63,54,3,1,1,73.0,False
29175,2036, Note_on_c,56,54,3,1,1,65.0,False
29176,2036, Note_on_c,61,54,3,1,1,71.0,False
29177,2037, Note_on_c,60,54,3,1,1,70.0,True
29178,2037, Note_on_c,65,54,3,1,1,76.0,True
29179,2038, Note_on_c,49,54,3,1,1,57.0,False
29180,2039, Note_on_c,56,54,3,1,1,65.0,False
29181,2039, Note_on_c,61,54,3,1,1,71.0,False
29182,2040, Note_on_c,60,54,3,1,1,70.0,True
29183,2040, Note_on_c,63,54,3,1,1,73.0,False
29184,2041, Note_on_c,49,54,3,1,1,57.0,False
29185,2042, Note_on_c,56,54,3,1,1,65.0,False
29186,2042, Note_on_c,61,54,3,1,1,71.0,False
29187,2043, Note_on_c,60,54,3,1,1,70.0,True
29188,2043, Note_on_c,63,54,3,1,1,73.0,False
29189,2044, Note_on_c,56,54,3,1,1,65.0,False
29190,2044, Note_on_c,61,54,3,1,1,71.0,False
29191,2045, Note_on_c,60,54,3,1,1,70.0,True
29192,2045, Note_on_c,65,54,3,1,1,76.0,True
29193,2046, Note_on_c,49,54,3,1,1,57.0,False
29194,2047, Note_on_c,56,54,3,1,1,65.0,False
29195,2047, Note_on_c,61,54,3,1,1,71.0,False
29196,2048, Note_on_c,60,54,3,1,1,70.0,True
29197,2048, Note_on_c,63,54,3,1,1,73.0,False
29198,2049, Note_on_c,49,54,3,1,1,57.0,False
29199,2050, Note_on_c,56,54,3,1,1,65.0,False
29200,2050, Note_on_c,61,54,3,1,1,71.0,False
29201,2051, Note_on_c,60,54,3,1,1,70.0,True
29202,2051, Note_on_c,63,54,3,1,1,73.0,False
29203,2052, Note_on_c,56,54,3,1,1,65.0,False
29204,2052, Note_on_c,61,54,3,1,1,71.0,False
29205,2053, Note_on_c,60,54,3,1,1,70.0,True
29206,2053, Note_on_c,65,54,3,1,1,76.0,True
29207,2054, Note_on_c,49,54,3,1,1,57.0,False
29208,2055, Note_on_c,56,54,3,1,1,65.0,False
29209,2055, Note_on_c,61,54,3,1,1,71.0,False
29210,2056, Note_on_c,60,54,3,1,1,70.0,True
29211,2056, Note_on_c,63,54,3,1,1,73.0,False
29212,2057, Note_on_c,49,54,3,1,1,57.0,False
29213,2058, Note_on_c,56,54,3,1,1,65.0,False
29214,2058, Note_on_c,61,54,3,1,1,71.0,False
29215,2059, Note_on_c,60,54,3,1,1,70.0,True
29216,2059, Note_on_c,63,54,3,1,1,73.0,False
29217,2060, Note_on_c,56,54,3,1,1,65.0,False
29218,2060, Note_on_c,61,54,3,1,1,71.0,False
29219,2061, Note_on_c,60,54,3,1,1,70.0,True
29220,2061, Note_on_c,65,54,3,1,1,76.0,True
29221,2062, Note_on_c,49,54,3,1,1,57.0,False
29222,2063, Note_on_c,56,54,3,1,1,65.0,False
29223,2063, Note_on_c,61,54,3,1,1,71.0,False
29224,2064, Note_on_c,60,54,3,1,1,70.0,True
29225,2064, Note_on_c,63,54,3,1,1,73.0,False
29226,2065, Note_on_c,49,54,3,1,1,57.0,False
29227,2066, Note_on_c,56,54,3,1,1,65.0,False
29228,2066, Note_on_c,61,54,3,1,1,71.0,False
29229,2067, Note_on_c,60,54,3,1,1,70.0,True
29230,2067, Note_on_c,63,54,3,1,1,73.0,False
29231,2068, Note_on_c,56,54,3,1,1,65.0,False
29232,2068, Note_on_c,61,54,3,1,1,71.0,False
29233,2069, Note_on_c,60,54,3,1,1,70.0,True
29234,2069, Note_on_c,65,54,3,1,1,76.0,True
29235,2070, Note_on_c,49,54,3,1,1,57.0,False
29236,2071, Note_on_c,56,54,3,1,1,65.0,False
29237,2071, Note_on_c,61,54,3,1,1,71.0,False
29238,2072, Note_on_c,60,54,3,1,1,70.0,True
29239,2072, Note_on_c,63,54,3,1,1,73.0,False
29240,2073, Note_on_c,49,54,3,1,1,57.0,False
29241,2074, Note_on_c,56,54,3,1,1,65.0,False
29242,2074, Note_on_c,61,54,3,1,1,71.0,False
29243,2075, Note_on_c,60,54,3,1,1,70.0,True
29244,2075, Note_on_c,63,54,3,1,1,73.0,False
29245,2076, Note_on_c,56,54,3,1,1,65.0,False
29246,2076, Note_on_c,61,54,3,1,1,71.0,False
29247,2077, Note_on_c,60,54,3,1,1,70.0,True
29248,2077, Note_on_c,65,54,3,1,1,76.0,True
29249,2078, Note_on_c,49,54,3,1,1,57.0,False
29250,2079, Note_on_c,56,54,3,1,1,65.0,False
29251,2079, Note_on_c,61,54,3,1,1,71.0,False
29252,2080, Note_on_c,60,54,3,1,1,70.0,True
29253,2080, Note_on_c,63,54,3,1,1,73.0,False
29254,2081, Note_on_c,49,54,3,1,1,57.0,False
29255,2082, Note_on_c,56,54,3,1,1,65.0,False
29256,2082, Note_on_c,61,54,3,1,1,71.0,False
29257,2083, Note_on_c,60,54,3,1,1,70.0,True
29258,2083, Note_on_c,63,54,3,1,1,73.0,False
29259,2084, Note_on_c,56,54,3,1,1,65.0,False
29260,2084, Note_on_c,61,54,3,1,1,71.0,False
29261,2085, Note_on_c,60,54,3,1,1,70.0,True
29262,2085, Note_on_c,65,54,3,1,1,76.0,True
29263,2086, Note_on_c,49,54,3,1,1,57.0,False
29264,2087, Note_on_c,56,54,3,1,1,65.0,False
29265,2087, Note_on_c,61,54,3,1,1,71.0,False
29266,2088, Note_on_c,60,54,3,1,1,70.0,True
29267,2088, Note_on_c,63,54,3,1,1,73.0,False
29268,2089, Note_on_c,49,54,3,1,1,57.0,False
29269,2090, Note_on_c,56,54,3,1,1,65.0,False
29270,2090, Note_on_c,61,54,3,1,1,71.0,False
29271,2091, Note_on_c,60,54,3,1,1,70.0,True
29272,2091, Note_on_c,63,54,3,1,1,73.0,False
29273,2092, Note_on_c,56,54,3,1,1,65.0,False
29274,2092, Note_on_c,61,54,3,1,1,71.0,False
29275,2093, Note_on_c,60,54,3,1,1,70.0,True
29276,2093, Note_on_c,65,54,3,1,1,76.0,True
29277,2094, Note_on_c,49,54,3,1,1,57.0,False
29278,2095, Note_on_c,56,54,3,1,1,65.0,False
29279,2095, Note_on_c,61,54,3,1,1,71.0,False
29280,2096, Note_on_c,60,54,3,1,1,70.0,True
29281,2096, Note_on_c,63,54,3,1,1,73.0,False
29282,2097, Note_on_c,49,54,3,1,1,57.0,False
29283,2098, Note_on_c,56,54,3,1,1,65.0,False
29284,2098, Note_on_c,61,54,3,1,1,71.0,False
29285,2099, Note_on_c,60,54,3,1,1,70.0,True
29286,2099, Note_on_c,63,54,3,1,1,73.0,False
29287,2100, Note_on_c,56,54,3,1,1,65.0,False
29288,2100, Note_on_c,61,54,3,1,1,71.0,False
29289,2101, Note_on_c,60,54,3,1,1,70.0,True
29290,2101, Note_on_c,65,54,3,1,1,76.0,True
29291,2102, Note_on_c,49,54,3,1,1,57.0,False
29292,2103, Note_on_c,56,54,3,1,1,65.0,False
29293,2103, Note_on_c,61,54,3,1,1,71.0,False
29294,2104, Note_on_c,60,54,3,1,1,70.0,True
29295,2104, Note_on_c,63,54,3,1,1,73.0,False
29296,2105, Note_on_c,49,54,3,1,1,57.0,False
29297,2106, Note_on_c,56,54,3,1,1,65.0,False
29298,2106, Note_on_c,61,54,3,1,1,71.0,False
29299,2107, Note_on_c,60,54,3,1,1,70.0,True
29300,2107, Note_on_c,63,54,3,1,1,73.0,False
29301,2108, Note_on_c,56,54,3,1,1,65.0,False
29302,2108, Note_on_c,61,54,3,1,1,71.0,False
29303,2109, Note_on_c,60,54,3,1,1,70.0,True
29304,2109, Note_on_c,65,54,3,1,1,76.0,True
29305,2110, Note_on_c,49,54,3,1,1,57.0,False
29306,2111, Note_on_c,56,54,3,1,1,65.0,False
29307,2111, Note_on_c,61,54,3,1,1,71.0,False
29308,2112, Note_on_c,60,54,3,1,1,70.0,True
29309,2112, Note_on_c,63,54,3,1,1,73.0,False
29310,2113, Note_on_c,49,54,3,1,1,57.0,False
29311,2114, Note_on_c,56,54,3,1,1,65.0,False
29312,2114, Note_on_c,61,54,3,1,1,71.0,False
29313,2115, Note_on_c,60,54,3,1,1,70.0,True
29314,2115, Note_on_c,63,54,3,1,1,73.0,False
29315,2116, Note_on_c,56,54,3,1,1,65.0,False
29316,2116, Note_on_c,61,54,3,1,1,71.0,False
29317,2117, Note_on_c,60,54,3,1,1,70.0,True
29318,2117, Note_on_c,65,54,3,1,1,76.0,True
29319,2118, Note_on_c,49,54,3,1,1,57.0,False
29320,2119, Note_on_c,56,54,3,1,1,65.0,False
29321,2119, Note_on_c,61,54,3,1,1,71.0,False
29322,2120, Note_on_c,60,54,3,1,1,70.0,True
29323,2120, Note_on_c,63,54,3,1,1,73.0,False
29324,2121, Note_on_c,49,54,3,1,1,57.0,False
29325,2122, Note_on_c,56,54,3,1,1,65.0,False
29326,2122, Note_on_c,61,54,3,1,1,71.0,False
29327,2123, Note_on_c,60,54,3,1,1,70.0,True
29328,2123, Note_on_c,63,54,3,1,1,73.0,False
29329,2124, Note_on_c,56,54,3,1,1,65.0,False
29330,2124, Note_on_c,61,54,3,1,1,71.0,False
29331,2125, Note_on_c,60,54,3,1,1,70.0,True
29332,2125, Note_on_c,65,54,3,1,1,76.0,True
29333,2126, Note_on_c,49,54,3,1,1,57.0,False
29334,2127, Note_on_c,56,54,3,1,1,65.0,False
29335,2127, Note_on_c,61,54,3,1,1,71.0,False
29336,2128, Note_on_c,60,54,3,1,1,70.0,True
29337,2128, Note_on_c,63,54,3,1,1,73.0,False
29338,2129, Note_on_c,49,54,3,1,1,57.0,False
29339,2130, Note_on_c,56,54,3,1,1,65.0,False
29340,2130, Note_on_c,61,54,3,1,1,71.0,False
29341,2131, Note_on_c,60,54,3,1,1,70.0,True
29342,2131, Note_on_c,63,54,3,1,1,73.0,False
29343,2132, Note_on_c,56,54,3,1,1,65.0,False
29344,2132, Note_on_c,61,54,3,1,1,71.0,False
29345,2133, Note_on_c,60,54,3,1,1,70.0,True
29346,2133, Note_on_c,65,54,3,1,1,76.0,True
29347,2134, Note_on_c,49,54,3,1,1,57.0,False
29348,2135, Note_on_c,56,54,3,1,1,65.0,False
29349,2135, Note_on_c,61,54,3,1,1,71.0,False
29350,2136, Note_on_c,60,54,3,1,1,70.0,True
29351,2136, Note_on_c,63,54,3,1,1,73.0,False
29352,2137, Note_on_c,49,54,3,1,1,57.0,False
29353,2138, Note_on_c,56,54,3,1,1,65.0,False
29354,2138, Note_on_c,61,54,3,1,1,71.0,False
29355,2139, Note_on_c,60,54,3,1,1,70.0,True
29356,2139, Note_on_c,63,54,3,1,1,73.0,False
29357,2140, Note_on_c,56,54,3,1,1,65.0,False
29358,2140, Note_on_c,61,54,3,1,1,71.0,False
29359,2141, Note_on_c,60,54,3,1,1,70.0,True
29360,2141, Note_on_c,65,54,3,1,1,76.0,True
29361,2142, Note_on_c,49,54,3,1,1,57.0,False
29362,2143, Note_on_c,56,54,3,1,1,65.0,False
29363,2143, Note_on_c,61,54,3,1,1,71.0,False
29364,2144, Note_on_c,60,54,3,1,1,70.0,True
29365,2144, Note_on_c,63,54,3,1,1,73.0,False
29366,2145, Note_on_c,49,54,3,1,1,57.0,False
29367,2146, Note_on_c,56,54,3,1,1,65.0,False
29368,2146, Note_on_c,61,54,3,1,1,71.0,False
29369,2147, Note_on_c,60,54,3,1,1,70.0,True
29370,2147, Note_on_c,63,54,3,1,1,73.0,False
29371,2148, Note_on_c,56,54,3,1,1,65.0,False
29372,2148, Note_on_c,61,54,3,1,1,71.0,False
29373,2149, Note_on_c,60,54,3,1,1,70.0,True
29374,2149, Note_on_c,65,54,3,1,1,76.0,True
29375,2150, Note_on_c,49,54,3,1,1,57.0,False
29376,2151, Note_on_c,56,54,3,1,1,65.0,False
29377,2151, Note_on_c,61,54,3,1,1,71.0,False
29378,2152, Note_on_c,60,54,3,1,1,70.0,True
29379,2152, Note_on_c,63,54,3,1,1,73.0,False
29380,2153, Note_on_c,49,54,3,1,1,57.0,False
29381,2154, Note_on_c,56,54,3,1,1,65.0,False
29382,2154, Note_on_c,61,54,3,1,1,71.0,False
29383,2155, Note_on_c,60,54,3,1,1,70.0,True
29384,2155, Note_on_c,63,54,3,1,1,73.0,False
29385,2156, Note_on_c,56,54,3,1,1,65.0,False
29386,2156, Note_on_c,61,54,3,1,1,71.0,False
29387,2157, Note_on_c,60,54,3,1,1,70.0,True
29388,2157, Note_on_c,65,54,3,1,1,76.0,True
29389,2158, Note_on_c,49,54,3,1,1,57.0,False
29390,2159, Note_on_c,56,54,3,1,1,65.0,False
29391,2159, Note_on_c,61,54,3,1,1,71.0,False
29392,2160, Note_on_c,60,54,3,1,1,70.0,True
29393,2160, Note_on_c,63,54,3,1,1,73.0,False
29394,2161, Note_on_c,49,54,3,1,1,57.0,False
29395,2162, Note_on_c,56,54,3,1,1,65.0,False
29396,2162, Note_on_c,61,54,3,1,1,71.0,False
29397,2163, Note_on_c,60,54,3,1,1,70.0,True
29398,2163, Note_on_c,63,54,3,1,1,73.0,False
29399,2164, Note_on_c,56,54,3,1,1,65.0,False
29400,2164, Note_on_c,61,54,3,1,1,71.0,False
29401,2165, Note_on_c,60,54,3,1,1,70.0,True
29402,2165, Note_on_c,65,54,3,1,1,76.0,True
29403,2166, Note_on_c,49,54,3,1,1,57.0,False
29404,2167, Note_on_c,56,54,3,1,1,65.0,False
29405,2167, Note_on_c,61,54,3,1,1,71.0,False
29406,2168, Note_on_c,60,54,3,1,1,70.0,True
29407,2168, Note_on_c,63,54,3,1,1,73.0,False
29408,2169, Note_on_c,49,54,3,1,1,57.0,False
29409,2170, Note_on_c,56,54,3,1,1,65.0,False
29410,2170, Note_on_c,61,54,3,1,1,71.0,False
29411,2171, Note_on_c,60,54,3,1,1,70.0,True
29412,2171, Note_on_c,63,54,3,1,1,73.0,False
29413,2172, Note_on_c,56,54,3,1,1,65.0,False
29414,2172, Note_on_c,61,54,3,1,1,71.0,False
29415,2173, Note_on_c,60,54,3,1,1,70.0,True
29416,2173, Note_on_c,65,54,3,1,1,76.0,True
29417,2174, Note_on_c,49,54,3,1,1,57.0,False
29418,2175, Note_on_c,56,54,3,1,1,65.0,False
29419,2175, Note_on_c,61,54,3,1,1,71.0,False
29420,2176, Note_on_c,60,54,3,1,1,70.0,True
29421,2176, Note_on_c,63,54,3,1,1,73.0,False
29422,2177, Note_on_c,49,54,3,1,1,57.0,False
29423,2178, Note_on_c,56,54,3,1,1,65.0,False
29424,2178, Note_on_c,61,54,3,1,1,71.0,False
29425,2179, Note_on_c,60,54,3,1,1,70.0,True
29426,2179, Note_on_c,63,54,3,1,1,73.0,False
29427,2180, Note_on_c,56,54,3,1,1,65.0,False
29428,2180, Note_on_c,61,54,3,1,1,71.0,False
29429,2181, Note_on_c,60,54,3,1,1,70.0,True
29430,2181, Note_on_c,65,54,3,1,1,76.0,True
29431,2182, Note_on_c,49,54,3,1,1,57.0,False
29432,2183, Note_on_c,56,54,3,1,1,65.0,False
29433,2183, Note_on_c,61,54,3,1,1,71.0,False
29434,2184, Note_on_c,60,54,3,1,1,70.0,True
29435,2184, Note_on_c,63,54,3,1,1,73.0,False
29436,2185, Note_on_c,49,54,3,1,1,57.0,False
29437,2186, Note_on_c,56,54,3,1,1,65.0,False
29438,2186, Note_on_c,61,54,3,1,1,71.0,False
29439,2187, Note_on_c,60,54,3,1,1,70.0,True
29440,2187, Note_on_c,63,54,3,1,1,73.0,False
29441,2188, Note_on_c,56,54,3,1,1,65.0,False
29442,2188, Note_on_c,61,54,3,1,1,71.0,False
29443,2189, Note_on_c,60,54,3,1,1,70.0,True
29444,2189, Note_on_c,65,54,3,1,1,76.0,True
29445,2190, Note_on_c,49,54,3,1,1,57.0,False
29446,2191, Note_on_c,56,54,3,1,1,65.0,False
29447,2191, Note_on_c,61,54,3,1,1,71.0,False
29448,2192, Note_on_c,60,54,3,1,1,70.0,True
29449,2192, Note_on_c,63,54,3,1,1,73.0,False
29450,2193, Note_on_c,49,54,3,1,1,57.0,False
29451,2194, Note_on_c,56,54,3,1,1,65.0,False
29452,2194, Note_on_c,61,54,3,1,1,71.0,False
29453,2195, Note_on_c,60,54,3,1,1,70.0,True
29454,2195, Note_on_c,63,54,3,1,1,73.0,False
29455,2196, Note_on_c,56,54,3,1,1,65.0,False
29456,2196, Note_on_c,61,54,3,1,1,71.0,False
29457,2197, Note_on_c,60,54,3,1,1,70.0,True
29458,2197, Note_on_c,65,54,3,1,1,76.0,True
29459,2198, Note_on_c,49,54,3,1,1,57.0,False
29460,2199, Note_on_c,56,54,3,1,1,65.0,False
29461,2199, Note_on_c,61,54,3,1,1,71.0,False
29462,2200, Note_on_c,60,54,3,1,1,70.0,True
29463,2200, Note_on_c,63,54,3,1,1,73.0,False
29464,2201, Note_on_c,49,54,3,1,1,57.0,False
29465,2202, Note_on_c,56,54,3,1,1,65.0,False
29466,2202, Note_on_c,61,54,3,1,1,71.0,False
29467,2203, Note_on_c,60,54,3,1,1,70.0,True
29468,2203, Note_on_c,63,54,3,1,1,73.0,False
29469,2204, Note_on_c,56,54,3,1,1,65.0,False
29470,2204, Note_on_c,61,54,3,1,1,71.0,False
29471,2205, Note_on_c,60,54,3,1,1,70.0,True
29472,2205, Note_on_c,65,54,3,1,1,76.0,True
29473,2206, Note_on_c,49,54,3,1,1,57.0,False
29474,2207, Note_on_c,56,54,3,1,1,65.0,False
29475,2207, Note_on_c,61,54,3,1,1,71.0,False
29476,2208, Note_on_c,60,54,3,1,1,70.0,True
29477,2208, Note_on_c,63,54,3,1,1,73.0,False
29478,2209, Note_on_c,49,54,3,1,1,57.0,False
29479,2210, Note_on_c,56,54,3,1,1,65.0,False
29480,2210, Note_on_c,61,54,3,1,1,71.0,False
29481,2211, Note_on_c,60,54,3,1,1,70.0,True
29482,2211, Note_on_c,63,54,3,1,1,73.0,False
29483,2212, Note_on_c,56,54,3,1,1,65.0,False
29484,2212, Note_on_c,61,54,3,1,1,71.0,False
29485,2213, Note_on_c,60,54,3,1,1,70.0,True
29486,2213, Note_on_c,65,54,3,1,1,76.0,True
29487,2214, Note_on_c,49,54,3,1,1,57.0,False
29488,2215, Note_on_c,56,54,3,1,1,65.0,False
29489,2215, Note_on_c,61,54,3,1,1,71.0,False
29490,2216, Note_on_c,60,54,3,1,1,70.0,True
29491,2216, Note_on_c,63,54,3,1,1,73.0,False
29492,2217, Note_on_c,49,54,3,1,1,57.0,False
29493,2218, Note_on_c,56,54,3,1,1,65.0,False
29494,2218, Note_on_c,61,54,3,1,1,71.0,False
29495,2219, Note_on_c,60,54,3,1,1,70.0,True
29496,2219, Note_on_c,63,54,3,1,1,73.0,False
29497,2220, Note_on_c,56,54,3,1,1,65.0,False
29498,2220, Note_on_c,61,54,3,1,1,71.0,False
29499,2221, Note_on_c,60,54,3,1,1,70.0,True
29500,2221, Note_on_c,65,54,3,1,1,76.0,True
29501,2222, Note_on_c,49,54,3,1,1,57.0,False
29502,2223, Note_on_c,56,54,3,1,1,65.0,False
29503,2223, Note_on_c,61,54,3,1,1,71.0,False
29504,2224, Note_on_c,60,54,3,1,1,70.0,True
29505,2224, Note_on_c,63,54,3,1,1,73.0,False
29506,2225, Note_on_c,49,54,3,1,1,57.0,False
29507,2226, Note_on_c,56,54,3,1,1,65.0,False
29508,2226, Note_on_c,61,54,3,1,1,71.0,False
29509,2227, Note_on_c,60,54,3,1,1,70.0,True
29510,2227, Note_on_c,63,54,3,1,1,73.0,False
29511,2228, Note_on_c,56,54,3,1,1,65.0,False
29512,2228, Note_on_c,61,54,3,1,1,71.0,False
29513,2229, Note_on_c,60,54,3,1,1,70.0,True
29514,2229, Note_on_c,65,54,3,1,1,76.0,True
29515,2230, Note_on_c,49,54,3,1,1,57.0,False
29516,2231, Note_on_c,56,54,3,1,1,65.0,False
29517,2231, Note_on_c,61,54,3,1,1,71.0,False
29518,2232, Note_on_c,60,54,3,1,1,70.0,True
29519,2232, Note_on_c,63,54,3,1,1,73.0,False
29520,2233, Note_on_c,49,54,3,1,1,57.0,False
29521,2234, Note_on_c,56,54,3,1,1,65.0,False
29522,2234, Note_on_c,61,54,3,1,1,71.0,False
29523,2235, Note_on_c,60,54,3,1,1,70.0,True
29524,2235, Note_on_c,63,54,3,1,1,73.0,False
29525,2236, Note_on_c,56,54,3,1,1,65.0,False
29526,2236, Note_on_c,61,54,3,1,1,71.0,False
29527,2237, Note_on_c,60,54,3,1,1,70.0,True
29528,2237, Note_on_c,65,54,3,1,1,76.0,True
29529,2238, Note_on_c,49,54,3,1,1,57.0,False
29530,2239, Note_on_c,56,54,3,1,1,65.0,False
29531,2239, Note_on_c,61,54,3,1,1,71.0,False
29532,2240, Note_on_c,60,54,3,1,1,70.0,True
29533,2240, Note_on_c,63,54,3,1,1,73.0,False
29534,2241, Note_on_c,49,54,3,1,1,57.0,False
29535,2242, Note_on_c,56,54,3,1,1,65.0,False
29536,2242, Note_on_c,61,54,3,1,1,71.0,False
29537,2243, Note_on_c,60,54,3,1,1,70.0,True
29538,2243, Note_on_c,63,54,3,1,1,73.0,False
29539,2244, Note_on_c,56,54,3,1,1,65.0,False
29540,2244, Note_on_c,61,54,3,1,1,71.0,False
29541,2245, Note_on_c,60,54,3,1,1,70.0,True
29542,2245, Note_on_c,65,54,3,1,1,76.0,True
29543,2246, Note_on_c,49,54,3,1,1,57.0,False
29544,2247, Note_on_c,56,54,3,1,1,65.0,False
29545,2247, Note_on_c,61,54,3,1,1,71.0,False
29546,2248, Note_on_c,60,54,3,1,1,70.0,True
29547,2248, Note_on_c,63,54,3,1,1,73.0,False
29548,2249, Note_on_c,49,54,3,1,1,57.0,False
29549,2250, Note_on_c,56,54,3,1,1,65.0,False
29550,2250, Note_on_c,61,54,3,1,1,71.0,False
29551,2251, Note_on_c,60,54,3,1,1,70.0,True
29552,2251, Note_on_c,63,54,3,1,1,73.0,False
29553,2252, Note_on_c,56,54,3,1,1,65.0,False
29554,2252, Note_on_c,61,54,3,1,1,71.0,False
29555,2253, Note_on_c,60,54,3,1,1,70.0,True
29556,2253, Note_on_c,65,54,3,1,1,76.0,True
29557,2254, Note_on_c,49,54,3,1,1,57.0,False
29558,2255, Note_on_c,56,54,3,1,1,65.0,False
29559,2255, Note_on_c,61,54,3,1,1,71.0,False
29560,2256, Note_on_c,60,54,3,1,1,70.0,True
29561,2256, Note_on_c,63,54,3,1,1,73.0,False
29562,2257, Note_on_c,49,54,3,1,1,57.0,False
29563,2258, Note_on_c,56,54,3,1,1,65.0,False
29564,2258, Note_on_c,61,54,3,1,1,71.0,False
29565,2259, Note_on_c,60,54,3,1,1,70.0,True
29566,2259, Note_on_c,63,54,3,1,1,73.0,False
29567,2260, Note_on_c,56,54,3,1,1,65.0,False
29568,2260, Note_on_c,61,54,3,1,1,71.0,False
29569,2261, Note_on_c,60,54,3,1,1,70.0,True
29570,2261, Note_on_c,65,54,3,1,1,76.0,True
29571,2262, Note_on_c,49,54,3,1,1,57.0,False
29572,2263, Note_on_c,56,54,3,1,1,65.0,False
29573,2263, Note_on_c,61,54,3,1,1,71.0,False
29574,2264, Note_on_c,60,54,3,1,1,70.0,True
29575,2264, Note_on_c,63,54,3,1,1,73.0,False
29576,2265, Note_on_c,49,54,3,1,1,57.0,False
29577,2266, Note_on_c,56,54,3,1,1,65.0,False
29578,2266, Note_on_c,61,54,3,1,1,71.0,False
29579,2267, Note_on_c,60,54,3,1,1,70.0,True
29580,2267, Note_on_c,63,54,3,1,1,73.0,False
29581,2268, Note_on_c,56,54,3,1,1,65.0,False
29582,2268, Note_on_c,61,54,3,1,1,71.0,False
29583,2269, Note_on_c,60,54,3,1,1,70.0,True
29584,2269, Note_on_c,65,54,3,1,1,76.0,True
29585,2270, Note_on_c,49,54,3,1,1,57.0,False
29586,2271, Note_on_c,56,54,3,1,1,65.0,False
29587,2271, Note_on_c,61,54,3,1,1,71.0,False
29588,2272, Note_on_c,60,54,3,1,1,70.0,True
29589,2272, Note_on_c,63,54,3,1,1,73.0,False
29590,2273, Note_on_c,49,54,3,1,1,57.0,False
29591,2274, Note_on_c,56,54,3,1,1,65.0,False
29592,2274, Note_on_c,61,54,3,1,1,71.0,False
29593,2275, Note_on_c,60,54,3,1,1,70.0,True
29594,2275, Note_on_c,63,54,3,1,1,73.0,False
29595,2276, Note_on_c,56,54,3,1,1,65.0,False
29596,2276, Note_on_c,61,54,3,1,1,71.0,False
29597,2277, Note_on_c,60,54,3,1,1,70.0,True
29598,2277, Note_on_c,65,54,3,1,1,76.0,True
29599,2278, Note_on_c,49,54,3,1,1,57.0,False
29600,2279, Note_on_c,56,54,3,1,1,65.0,False
29601,2279, Note_on_c,61,54,3,1,1,71.0,False
29602,2280, Note_on_c,60,54,3,1,1,70.0,True
29603,2280, Note_on_c,63,54,3,1,1,73.0,False
29604,2281, Note_on_c,49,54,3,1,1,57.0,False
29605,2282, Note_on_c,56,54,3,1,1,65.0,False
29606,2282, Note_on_c,61,54,3,1,1,71.0,False
29607,2283, Note_on_c,60,54,3,1,1,70.0,True
29608,2283, Note_on_c,63,54,3,1,1,73.0,False
29609,2284, Note_on_c,56,54,3,1,1,65.0,False
29610,2284, Note_on_c,61,54,3,1,1,71.0,False
29611,2285, Note_on_c,60,54,3,1,1,70.0,True
29612,2285, Note_on_c,65,54,3,1,1,76.0,True
29613,2286, Note_on_c,49,54,3,1,1,57.0,False
29614,2287, Note_on_c,56,54,3,1,1,65.0,False
29615,2287, Note_on_c,61,54,3,1,1,71.0,False
29616,2288, Note_on_c,60,54,3,1,1,70.0,True
29617,2288, Note_on_c,63,54,3,1,1,73.0,False
29618,2289, Note_on_c,49,54,3,1,1,57.0,False
29619,2290, Note_on_c,56,54,3,1,1,65.0,False
29620,2290, Note_on_c,61,54,3,1,1,71.0,False
29621,2291, Note_on_c,60,54,3,1,1,70.0,True
29622,2291, Note_on_c,63,54,3,1,1,73.0,False
29623,2292, Note_on_c,56,54,3,1,1,65.0,False
29624,2292, Note_on_c,61,54,3,1,1,71.0,False
29625,2293, Note_on_c,60,54,3,1,1,70.0,True
29626,2293, Note_on_c,65,54,3,1,1,76.0,True
29627,2294, Note_on_c,49,54,3,1,1,57.0,False
29628,2295, Note_on_c,56,54,3,1,1,65.0,False
29629,2295, Note_on_c,61,54,3,1,1,71.0,False
29630,2296, Note_on_c,60,54,3,1,1,70.0,True
29631,2296, Note_on_c,63,54,3,1,1,73.0,False
29632,2297, Note_on_c,49,54,3,1,1,57.0,False
29633,2298, Note_on_c,56,54,3,1,1,65.0,False
29634,2298, Note_on_c,61,54,3,1,1,71.0,False
29635,2299, Note_on_c,60,54,3,1,1,70.0,True
29636,2299, Note_on_c,63,54,3,1,1,73.0,False
29637,2300, Note_on_c,56,54,3,1,1,65.0,False
29638,2300, Note_on_c,61,54,3,1,1,71.0,False
29639,2301, Note_on_c,60,54,3,1,1,70.0,True
29640,2301, Note_on_c,65,54,3,1,1,76.0,True
29641,2302, Note_on_c,49,54,3,1,1,57.0,False
29642,2303, Note_on_c,56,54,3,1,1,65.0,False
29643,2303, Note_on_c,61,54,3,1,1,71.0,False
29644,2304, Note_on_c,60,54,3,1,1,70.0,True
29645,2304, Note_on_c,63,54,3,1,1,73.0,False
29646,2305, Note_on_c,49,54,3,1,1,57.0,False
29647,2306, Note_on_c,56,54,3,1,1,65.0,False
29648,2306, Note_on_c,61,54,3,1,1,71.0,False
29649,2307, Note_on_c,60,54,3,1,1,70.0,True
29650,2307, Note_on_c,63,54,3,1,1,73.0,False
29651,2308, Note_on_c,56,54,3,1,1,65.0,False
29652,2308, Note_on_c,61,54,3,1,1,71.0,False
29653,2309, Note_on_c,60,54,3,1,1,70.0,True
29654,2309, Note_on_c,65,54,3,1,1,76.0,True
29655,2310, Note_on_c,49,54,3,1,1,57.0,False
29656,2311, Note_on_c,56,54,3,1,1,65.0,False
29657,2311, Note_on_c,61,54,3,1,1,71.0,False
29658,2312, Note_on_c,60,54,3,1,1,70.0,True
29659,2312, Note_on_c,63,54,3,1,1,73.0,False
29660,2313, Note_on_c,49,54,3,1,1,57.0,False
29661,2314, Note_on_c,56,54,3,1,1,65.0,False
29662,2314, Note_on_c,61,54,3,1,1,71.0,False
29663,2315, Note_on_c,60,54,3,1,1,70.0,True
29664,2315, Note_on_c,63,54,3,1,1,73.0,False
29665,2316, Note_on_c,56,54,3,1,1,65.0,False
29666,2316, Note_on_c,61,54,3,1,1,71.0,False
29667,2317, Note_on_c,60,54,3,1,1,70.0,True
29668,2317, Note_on_c,65,54,3,1,1,76.0,True
29669,2318, Note_on_c,49,54,3,1,1,57.0,False
29670,2319, Note_on_c,56,54,3,1,1,65.0,False
29671,2319, Note_on_c,61,54,3,1,1,71.0,False
29672,2320, Note_on_c,60,54,3,1,1,70.0,True
29673,2320, Note_on_c,63,54,3,1,1,73.0,False
29674,2321, Note_on_c,49,54,3,1,1,57.0,False
29675,2322, Note_on_c,56,54,3,1,1,65.0,False
29676,2322, Note_on_c,61,54,3,1,1,71.0,False
29677,2323, Note_on_c,60,54,3,1,1,70.0,True
29678,2323, Note_on_c,63,54,3,1,1,73.0,False
29679,2324, Note_on_c,56,54,3,1,1,65.0,False
29680,2324, Note_on_c,61,54,3,1,1,71.0,False
29681,2325, Note_on_c,60,54,3,1,1,70.0,True
29682,2325, Note_on_c,65,54,3,1,1,76.0,True
29683,2326, Note_on_c,49,54,3,1,1,57.0,False
29684,2327, Note_on_c,56,54,3,1,1,65.0,False
29685,2327, Note_on_c,61,54,3,1,1,71.0,False
29686,2328, Note_on_c,60,54,3,1,1,70.0,True
29687,2328, Note_on_c,63,54,3,1,1,73.0,False
29688,2329, Note_on_c,49,54,3,1,1,57.0,False
29689,2330, Note_on_c,56,54,3,1,1,65.0,False
29690,2330, Note_on_c,61,54,3,1,1,71.0,False
29691,2331, Note_on_c,60,54,3,1,1,70.0,True
29692,2331, Note_on_c,63,54,3,1,1,73.0,False
29693,2332, Note_on_c,56,54,3,1,1,65.0,False
29694,2332, Note_on_c,61,54,3,1,1,71.0,False
29695,2333, Note_on_c,60,54,3,1,1,70.0,True
29696,2333, Note_on_c,65,54,3,1,1,76.0,True
29697,2334, Note_on_c,49,54,3,1,1,57.0,False
29698,2335, Note_on_c,56,54,3,1,1,65.0,False
29699,2335, Note_on_c,61,54,3,1,1,71.0,False
29700,2336, Note_on_c,60,54,3,1,1,70.0,True
29701,2336, Note_on_c,63,54,3,1,1,73.0,False
29702,2337, Note_on_c,49,54,3,1,1,57.0,False
29703,2338, Note_on_c,56,54,3,1,1,65.0,False
29704,2338, Note_on_c,61,54,3,1,1,71.0,False
29705,2339, Note_on_c,60,54,3,1,1,70.0,True
29706,2339, Note_on_c,63,54,3,1,1,73.0,False
29707,2340, Note_on_c,56,54,3,1,1,65.0,False
29708,2340, Note_on_c,61,54,3,1,1,71.0,False
29709,2341, Note_on_c,60,54,3,1,1,70.0,True
29710,2341, Note_on_c,65,54,3,1,1,76.0,True
29711,2342, Note_on_c,49,54,3,1,1,57.0,False
29712,2343, Note_on_c,56,54,3,1,1,65.0,False
29713,2343, Note_on_c,61,54,3,1,1,71.0,False
29714,2344, Note_on_c,60,54,3,1,1,70.0,True
29715,2344, Note_on_c,63,54,3,1,1,73.0,False
29716,2345, Note_on_c,49,54,3,1,1,57.0,False
29717,2346, Note_on_c,56,54,3,1,1,65.0,False
29718,2346, Note_on_c,61,54,3,1,1,71.0,False
29719,2347, Note_on_c,60,54,3,1,1,70.0,True
29720,2347, Note_on_c,63,54,3,1,1,73.0,False
29721,2348, Note_on_c,56,54,3,1,1,65.0,False
29722,2348, Note_on_c,61,54,3,1,1,71.0,False
29723,2349, Note_on_c,60,54,3,1,1,70.0,True
29724,2349, Note_on_c,65,54,3,1,1,76.0,True
29725,2350, Note_on_c,49,54,3,1,1,57.0,False
29726,2351, Note_on_c,56,54,3,1,1,65.0,False
29727,2351, Note_on_c,61,54,3,1,1,71.0,False
29728,2352, Note_on_c,60,54,3,1,1,70.0,True
29729,2352, Note_on_c,63,54,3,1,1,73.0,False
29730,2353, Note_on_c,49,54,3,1,1,57.0,False
29731,2354, Note_on_c,56,54,3,1,1,65.0,False
29732,2354, Note_on_c,61,54,3,1,1,71.0,False
29733,2355, Note_on_c,60,54,3,1,1,70.0,True
29734,2355, Note_on_c,63,54,3,1,1,73.0,False
29735,2356, Note_on_c,56,54,3,1,1,65.0,False
29736,2356, Note_on_c,61,54,3,1,1,71.0,False
29737,2357, Note_on_c,60,54,3,1,1,70.0,True
29738,2357, Note_on_c,65,54,3,1,1,76.0,True
29739,2358, Note_on_c,49,54,3,1,1,57.0,False
29740,2359, Note_on_c,56,54,3,1,1,65.0,False
29741,2359, Note_on_c,61,54,3,1,1,71.0,False
29742,2360, Note_on_c,60,54,3,1,1,70.0,True
29743,2360, Note_on_c,63,54,3,1,1,73.0,False
29744,2361, Note_on_c,49,54,3,1,1,57.0,False
29745,2362, Note_on_c,56,54,3,1,1,65.0,False
29746,2362, Note_on_c,61,54,3,1,1,71.0,False
29747,2363, Note_on_c,60,54,3,1,1,70.0,True
29748,2363, Note_on_c,63,54,3,1,1,73.0,False
29749,2364, Note_on_c,56,54,3,1,1,65.0,False
29750,2364, Note_on_c,61,54,3,1,1,71.0,False
29751,2365, Note_on_c,60,54,3,1,1,70.0,True
29752,2365, Note_on_c,65,54,3,1,1,76.0,True
29753,2366, Note_on_c,49,54,3,1,1,57.0,False
29754,2367, Note_on_c,56,54,3,1,1,65.0,False
29755,2367, Note_on_c,61,54,3,1,1,71.0,False
29756,2368, Note_on_c,60,54,3,1,1,70.0,True
29757,2368, Note_on_c,63,54,3,1,1,73.0,False
29758,2369, Note_on_c,49,54,3,1,1,57.0,False
29759,2370, Note_on_c,56,54,3,1,1,65.0,False
29760,2370, Note_on_c,61,54,3,1,1,71.0,False
29761,2371, Note_on_c,60,54,3,1,1,70.0,True
29762,2371, Note_on_c,63,54,3,1,1,73.0,False
29763,2372, Note_on_c,56,54,3,1,1,65.0,False
29764,2372, Note_on_c,61,54,3,1,1,71.0,False
29765,2373, Note_on_c,60,54,3,1,1,70.0,True
29766,2373, Note_on_c,65,54,3,1,1,76.0,True
29767,2374, Note_on_c,49,54,3,1,1,57.0,False
29768,2375, Note_on_c,56,54,3,1,1,65.0,False
29769,2375, Note_on_c,61,54,3,1,1,71.0,False
29770,2376, Note_on_c,60,54,3,1,1,70.0,True
29771,2376, Note_on_c,63,54,3,1,1,73.0,False
29772,2377, Note_on_c,49,54,3,1,1,57.0,False
29773,2378, Note_on_c,56,54,3,1,1,65.0,False
29774,2378, Note_on_c,61,54,3,1,1,71.0,False
29775,2379, Note_on_c,60,54,3,1,1,70.0,True
29776,2379, Note_on_c,63,54,3,1,1,73.0,False
29777,2380, Note_on_c,56,54,3,1,1,65.0,False
29778,2380, Note_on_c,61,54,3,1,1,71.0,False
29779,2381, Note_on_c,60,54,3,1,1,70.0,True
29780,2381, Note_on_c,65,54,3,1,1,76.0,True
29781,2382, Note_on_c,49,54,3,1,1,57.0,False
29782,2383, Note_on_c,56,54,3,1,1,65.0,False
29783,2383, Note_on_c,61,54,3,1,1,71.0,False
29784,2384, Note_on_c,60,54,3,1,1,70.0,True
29785,2384, Note_on_c,63,54,3,1,1,73.0,False
29786,2385, Note_on_c,49,54,3,1,1,57.0,False
29787,2386, Note_on_c,56,54,3,1,1,65.0,False
29788,2386, Note_on_c,61,54,3,1,1,71.0,False
29789,2387, Note_on_c,60,54,3,1,1,70.0,True
29790,2387, Note_on_c,63,54,3,1,1,73.0,False
29791,2388, Note_on_c,56,54,3,1,1,65.0,False
29792,2388, Note_on_c,61,54,3,1,1,71.0,False
29793,2389, Note_on_c,60,54,3,1,1,70.0,True
29794,2389, Note_on_c,65,54,3,1,1,76.0,True
29795,2390, Note_on_c,49,54,3,1,1,57.0,False
29796,2391, Note_on_c,56,54,3,1,1,65.0,False
29797,2391, Note_on_c,61,54,3,1,1,71.0,False
29798,2392, Note_on_c,60,54,3,1,1,70.0,True
29799,2392, Note_on_c,63,54,3,1,1,73.0,False
29800,2393, Note_on_c,49,54,3,1,1,57.0,False
29801,2394, Note_on_c,56,54,3,1,1,65.0,False
29802,2394, Note_on_c,61,54,3,1,1,71.0,False
29803,2395, Note_on_c,60,54,3,1,1,70.0,True
29804,2395, Note_on_c,63,54,3,1,1,73.0,False
29805,2396, Note_on_c,56,54,3,1,1,65.0,False
29806,2396, Note_on_c,61,54,3,1,1,71.0,False
29807,2397, Note_on_c,60,54,3,1,1,70.0,True
29808,2397, Note_on_c,65,54,3,1,1,76.0,True
29809,2398, Note_on_c,49,54,3,1,1,57.0,False
29810,2399, Note_on_c,56,54,3,1,1,65.0,False
29811,2399, Note_on_c,61,54,3,1,1,71.0,False
29812,2400, Note_on_c,60,54,3,1,1,70.0,True
29813,2400, Note_on_c,63,54,3,1,1,73.0,False
29814,2401, Note_on_c,49,54,3,1,1,57.0,False
29815,2402, Note_on_c,56,54,3,1,1,65.0,False
29816,2402, Note_on_c,61,54,3,1,1,71.0,False
29817,2403, Note_on_c,60,54,3,1,1,70.0,True
29818,2403, Note_on_c,63,54,3,1,1,73.0,False
29819,2404, Note_on_c,56,54,3,1,1,65.0,False
29820,2404, Note_on_c,61,54,3,1,1,71.0,False
29821,2405, Note_on_c,60,54,3,1,1,70.0,True
29822,2405, Note_on_c,65,54,3,1,1,76.0,True
29823,2406, Note_on_c,49,54,3,1,1,57.0,False
29824,2407, Note_on_c,56,54,3,1,1,65.0,False
29825,2407, Note_on_c,61,54,3,1,1,71.0,False
29826,2408, Note_on_c,60,54,3,1,1,70.0,True
29827,2408, Note_on_c,63,54,3,1,1,73.0,False
29828,2409, Note_on_c,49,54,3,1,1,57.0,False
29829,2410, Note_on_c,56,54,3,1,1,65.0,False
29830,2410, Note_on_c,61,54,3,1,1,71.0,False
29831,2411, Note_on_c,60,54,3,1,1,70.0,True
29832,2411, Note_on_c,63,54,3,1,1,73.0,False
29833,2412, Note_on_c,56,54,3,1,1,65.0,False
29834,2412, Note_on_c,61,54,3,1,1,71.0,False
29835,2413, Note_on_c,60,54,3,1,1,70.0,True
29836,2413, Note_on_c,65,54,3,1,1,76.0,True
29837,2414, Note_on_c,49,54,3,1,1,57.0,False
29838,2415, Note_on_c,56,54,3,1,1,65.0,False
29839,2415, Note_on_c,61,54,3,1,1,71.0,False
29840,2416, Note_on_c,60,54,3,1,1,70.0,True
29841,2416, Note_on_c,63,54,3,1,1,73.0,False
29842,2417, Note_on_c,49,54,3,1,1,57.0,False
29843,2418, Note_on_c,56,54,3,1,1,65.0,False
29844,2418, Note_on_c,61,54,3,1,1,71.0,False
29845,2419, Note_on_c,60,54,3,1,1,70.0,True
29846,2419, Note_on_c,63,54,3,1,1,73.0,False
29847,2420, Note_on_c,56,54,3,1,1,65.0,False
29848,2420, Note_on_c,61,54,3,1,1,71.0,False
29849,2421, Note_on_c,60,54,3,1,1,70.0,True
29850,2421, Note_on_c,65,54,3,1,1,76.0,True
29851,2422, Note_on_c,49,54,3,1,1,57.0,False
29852,2423, Note_on_c,56,54,3,1,1,65.0,False
29853,2423, Note_on_c,61,54,3,1,1,71.0,False
29854,2424, Note_on_c,60,54,3,1,1,70.0,True
29855,2424, Note_on_c,63,54,3,1,1,73.0,False
29856,2425, Note_on_c,49,54,3,1,1,57.0,False
29857,2426, Note_on_c,56,54,3,1,1,65.0,False
29858,2426, Note_on_c,61,54,3,1,1,71.0,False
29859,2427, Note_on_c,60,54,3,1,1,70.0,True
29860,2427, Note_on_c,63,54,3,1,1,73.0,False
29861,2428, Note_on_c,56,54,3,1,1,65.0,False
29862,2428, Note_on_c,61,54,3,1,1,71.0,False
29863,2429, Note_on_c,60,54,3,1,1,70.0,True
29864,2429, Note_on_c,65,54,3,1,1,76.0,True
29865,2430, Note_on_c,49,54,3,1,1,57.0,False
29866,2431, Note_on_c,56,54,3,1,1,65.0,False
29867,2431, Note_on_c,61,54,3,1,1,71.0,False
29868,2432, Note_on_c,60,54,3,1,1,70.0,True
29869,2432, Note_on_c,63,54,3,1,1,73.0,False
29870,2433, Note_on_c,49,54,3,1,1,57.0,False
29871,2434, Note_on_c,56,54,3,1,1,65.0,False
29872,2434, Note_on_c,61,54,3,1,1,71.0,False
29873,2435, Note_on_c,60,54,3,1,1,70.0,True
29874,2435, Note_on_c,63,54,3,1,1,73.0,False
29875,2436, Note_on_c,56,54,3,1,1,65.0,False
29876,2436, Note_on_c,61,54,3,1,1,71.0,False
29877,2437, Note_on_c,60,54,3,1,1,70.0,True
29878,2437, Note_on_c,65,54,3,1,1,76.0,True
29879,2438, Note_on_c,49,54,3,1,1,57.0,False
29880,2439, Note_on_c,56,54,3,1,1,65.0,False
29881,2439, Note_on_c,61,54,3,1,1,71.0,False
29882,2440, Note_on_c,60,54,3,1,1,70.0,True
29883,2440, Note_on_c,63,54,3,1,1,73.0,False
29884,2441, Note_on_c,49,54,3,1,1,57.0,False
29885,2442, Note_on_c,56,54,3,1,1,65.0,False
29886,2442, Note_on_c,61,54,3,1,1,71.0,False
29887,2443, Note_on_c,60,54,3,1,1,70.0,True
29888,2443, Note_on_c,63,54,3,1,1,73.0,False
29889,2444, Note_on_c,56,54,3,1,1,65.0,False
29890,2444, Note_on_c,61,54,3,1,1,71.0,False
29891,2445, Note_on_c,60,54,3,1,1,70.0,True
29892,2445, Note_on_c,65,54,3,1,1,76.0,True
29893,2446, Note_on_c,49,54,3,1,1,57.0,False
29894,2447, Note_on_c,56,54,3,1,1,65.0,False
29895,2447, Note_on_c,61,54,3,1,1,71.0,False
29896,2448, Note_on_c,60,54,3,1,1,70.0,True
29897,2448, Note_on_c,63,54,3,1,1,73.0,False
29898,2449, Note_on_c,49,54,3,1,1,57.0,False
29899,2450, Note_on_c,56,54,3,1,1,65.0,False
29900,2450, Note_on_c,61,54,3,1,1,71.0,False
29901,2451, Note_on_c,60,54,3,1,1,70.0,True
29902,2451, Note_on_c,63,54,3,1,1,73.0,False
29903,2452, Note_on_c,56,54,3,1,1,65.0,False
29904,2452, Note_on_c,61,54,3,1,1,71.0,False
29905,2453, Note_on_c,60,54,3,1,1,70.0,True
29906,2453, Note_on_c,65,54,3,1,1,76.0,True
29907,2454, Note_on_c,49,54,3,1,1,57.0,False
29908,2455, Note_on_c,56,54,3,1,1,65.0,False
29909,2455, Note_on_c,61,54,3,1,1,71.0,False
29910,2456, Note_on_c,60,54,3,1,1,70.0,True
29911,2456, Note_on_c,63,54,3,1,1,73.0,False
29912,2457, Note_on_c,49,54,3,1,1,57.0,False
29913,2458, Note_on_c,56,54,3,1,1,65.0,False
29914,2458, Note_on_c,61,54,3,1,1,71.0,False
29915,2459, Note_on_c,60,54,3,1,1,70.0,True
29916,2459, Note_on_c,63,54,3,1,1,73.0,False
29917,2460, Note_on_c,56,54,3,1,1,65.0,False
29918,2460, Note_on_c,61,54,3,1,1,71.0,False
29919,2461, Note_on_c,60,54,3,1,1,70.0,True
29920,2461, Note_on_c,65,54,3,1,1,76.0,True
29921,2462, Note_on_c,49,54,3,1,1,57.0,False
29922,2463, Note_on_c,56,54,3,1,1,65.0,False
29923,2463, Note_on_c,61,54,3,1,1,71.0,False
29924,2464, Note_on_c,60,54,3,1,1,70.0,True
29925,2464, Note_on_c,63,54,3,1,1,73.0,False
29926,2465, Note_on_c,49,54,3,1,1,57.0,False
29927,2466, Note_on_c,56,54,3,1,1,65.0,False
29928,2466, Note_on_c,61,54,3,1,1,71.0,False
29929,2467, Note_on_c,60,54,3,1,1,70.0,True
29930,2467, Note_on_c,63,54,3,1,1,73.0,False
29931,2468, Note_on_c,56,54,3,1,1,65.0,False
29932,2468, Note_on_c,61,54,3,1,1,71.0,False
29933,2469, Note_on_c,60,54,3,1,1,70.0,True
29934,2469, Note_on_c,65,54,3,1,1,76.0,True
29935,2470, Note_on_c,49,54,3,1,1,57.0,False
29936,2471, Note_on_c,56,54,3,1,1,65.0,False
29937,2471, Note_on_c,61,54,3,1,1,71.0,False
29938,2472, Note_on_c,60,54,3,1,1,70.0,True
29939,2472, Note_on_c,63,54,3,1,1,73.0,False
29940,2473, Note_on_c,49,54,3,1,1,57.0,False
29941,2474, Note_on_c,56,53,3,1,1,65.0,False
29942,2474, Note_on_c,61,53,3,1,1,71.0,False
29943,2475, Note_on_c,60,52,3,1,1,70.0,True
29944,2475, Note_on_c,63,52,3,1,1,73.0,False
29945,2476, Note_on_c,56,50,3,1,1,65.0,False
29946,2476, Note_on_c,61,50,3,1,1,71.0,False
29947,2477, Note_on_c,60,49,3,1,1,70.0,True
29948,2477, Note_on_c,65,49,3,1,1,76.0,True
29949,2478, Note_on_c,49,48,3,1,1,57.0,False
29950,2479, Note_on_c,56,46,3,1,1,65.0,False
29951,2479, Note_on_c,61,46,3,1,1,71.0,False
29952,2480, Note_on_c,60,45,3,1,1,70.0,True
29953,2480, Note_on_c,63,45,3,1,1,73.0,False
29954,2481, Note_on_c,49,44,3,1,1,57.0,False
29955,2482, Note_on_c,56,42,3,1,1,65.0,False
29956,2482, Note_on_c,61,42,3,1,1,71.0,False
29957,2483, Note_on_c,60,41,3,1,1,70.0,True
29958,2483, Note_on_c,63,41,3,1,1,73.0,False
29959,2484, Note_on_c,56,40,3,1,1,65.0,False
29960,2484, Note_on_c,61,40,3,1,1,71.0,False
29961,2485, Note_on_c,60,38,3,1,1,70.0,True
29962,2485, Note_on_c,65,38,3,1,1,76.0,True
29963,2486, Note_on_c,49,37,3,1,1,57.0,False
29964,2487, Note_on_c,56,36,3,1,1,65.0,False
29965,2487, Note_on_c,61,36,3,1,1,71.0,False
29966,2488, Note_on_c,60,35,3,1,1,70.0,True
29967,2488, Note_on_c,63,35,3,1,1,73.0,False
29968,2489, Note_on_c,49,33,3,1,1,57.0,False
29969,2490, Note_on_c,56,32,3,1,1,65.0,False
29970,2490, Note_on_c,61,32,3,1,1,71.0,False
29971,2491, Note_on_c,60,31,3,1,1,70.0,True
29972,2491, Note_on_c,63,31,3,1,1,73.0,False
29973,2492, Note_on_c,56,29,3,1,1,65.0,False
29974,2492, Note_on_c,61,29,3,1,1,71.0,False
29975,2493, Note_on_c,60,28,3,1,1,70.0,True
29976,2493, Note_on_c,65,28,3,1,1,76.0,True
29977,2494, Note_on_c,49,27,3,1,1,57.0,False
29978,2495, Note_on_c,56,25,3,1,1,65.0,False
29979,2495, Note_on_c,61,25,3,1,1,71.0,False
29980,2496, Note_on_c,60,24,3,1,1,70.0,True
29981,2496, Note_on_c,63,24,3,1,1,73.0,False
29982,2497, Note_on_c,49,23,3,1,1,57.0,False
29983,2498, Note_on_c,56,21,3,1,1,65.0,False
29984,2498, Note_on_c,61,21,3,1,1,71.0,False
29985,2499, Note_on_c,60,20,3,1,1,70.0,True
29986,2499, Note_on_c,63,20,3,1,1,73.0,False
29987,2500, Note_on_c,56,19,3,1,1,65.0,False
29988,2500, Note_on_c,61,19,3,1,1,71.0,False
29989,2501, Note_on_c,60,17,3,1,1,70.0,True
29990,2501, Note_on_c,65,17,3,1,1,76.0,True
29991,2502, Note_on_c,49,16,3,1,1,57.0,False
29992,2503, Note_on_c,56,15,3,1,1,65.0,False
29993,2503, Note_on_c,61,15,3,1,1,71.0,False
29994,2504, Note_on_c,60,13,3,1,1,70.0,True
29995,2504, Note_on_c,63,13,3,1,1,73.0,False
29996,2505, Note_on_c,49,12,3,1,1,57.0,False
29997,2506, Note_on_c,56,11,3,1,1,65.0,False
29998,2506, Note_on_c,61,11,3,1,1,71.0,False
29999,2507, Note_on_c,60,9,3,1,1,70.0,True
30000,2507, Note_on_c,63,9,3,1,1,73.0,False
30001,2508, Note_on_c,56,8,3,1,1,65.0,False
30002,2508, Note_on_c,61,8,3,1,1,71.0,False
30003,2509, Note_on_c,60,7,3,1,1,70.0,True
30004,2509, Note_on_c,65,7,3,1,1,76.0,True
30005,2510, Note_on_c,49,5,3,1,1,57.0,False
30006,2511, Note_on_c,56,4,3,1,1,65.0,False
30007,2511, Note_on_c,61,4,3,1,1,71.0,False
30008,2512, Note_on_c,60,3,3,1,1,70.0,True
30009,2512, Note_on_c,63,3,3,1,1,73.0,False
30010,2625, Note_on_c,51,76,3,2,1,59.0,False
30011,2626, Note_on_c,58,76,3,2,1,67.0,False
30012,2626, Note_on_c,63,76,3,2,1,73.0,False
30013,2627, Note_on_c,61,76,3,2,1,71.0,False
30014,2627, Note_on_c,68,76,3,2,1,79.0,False
30015,2628, Note_on_c,58,76,3,2,1,67.0,False
30016,2628, Note_on_c,63,76,3,2,1,73.0,False
30017,2629, Note_on_c,61,76,3,2,1,71.0,False
30018,2629, Note_on_c,66,76,3,2,1,77.0,False
30019,2630, Note_on_c,51,76,3,2,1,59.0,False
30020,2631, Note_on_c,58,76,3,2,1,67.0,False
30021,2631, Note_on_c,63,76,3,2,1,73.0,False
30022,2632, Note_on_c,61,76,3,2,1,71.0,False
30023,2632, Note_on_c,68,76,3,2,1,79.0,False
30024,2633, Note_on_c,51,76,3,2,1,59.0,False
30025,2634, Note_on_c,58,76,3,2,1,67.0,False
30026,2634, Note_on_c,63,76,3,2,1,73.0,False
30027,2635, Note_on_c,61,76,3,2,1,71.0,False
30028,2635, Note_on_c,68,76,3,2,1,79.0,False
30029,2636, Note_on_c,58,76,3,2,1,67.0,False
30030,2636, Note_on_c,63,76,3,2,1,73.0,False
30031,2637, Note_on_c,61,76,3,2,1,71.0,False
30032,2637, Note_on_c,66,76,3,2,1,77.0,False
30033,2638, Note_on_c,51,76,3,2,1,59.0,False
30034,2639, Note_on_c,58,76,3,2,1,67.0,False
30035,2639, Note_on_c,63,76,3,2,1,73.0,False
30036,2640, Note_on_c,61,76,3,2,1,71.0,False
30037,2640, Note_on_c,68,76,3,2,1,79.0,False
30038,2641, Note_on_c,51,76,3,2,1,59.0,False
30039,2642, Note_on_c,58,76,3,2,1,67.0,False
30040,2642, Note_on_c,63,76,3,2,1,73.0,False
30041,2643, Note_on_c,61,76,3,2,1,71.0,False
30042,2643, Note_on_c,68,76,3,2,1,79.0,False
30043,2644, Note_on_c,58,76,3,2,1,67.0,False
30044,2644, Note_on_c,63,76,3,2,1,73.0,False
30045,2645, Note_on_c,61,76,3,2,1,71.0,False
30046,2645, Note_on_c,66,76,3,2,1,77.0,False
30047,2646, Note_on_c,51,76,3,2,1,59.0,False
30048,2647, Note_on_c,58,76,3,2,1,67.0,False
30049,2647, Note_on_c,63,76,3,2,1,73.0,False
30050,2648, Note_on_c,61,76,3,2,1,71.0,False
30051,2648, Note_on_c,68,76,3,2,1,79.0,False
30052,2649, Note_on_c,51,76,3,2,1,59.0,False
30053,2650, Note_on_c,58,76,3,2,1,67.0,False
30054,2650, Note_on_c,63,76,3,2,1,73.0,False
30055,2651, Note_on_c,61,76,3,2,1,71.0,False
30056,2651, Note_on_c,68,76,3,2,1,79.0,False
30057,2652, Note_on_c,58,76,3,2,1,67.0,False
30058,2652, Note_on_c,63,76,3,2,1,73.0,False
30059,2653, Note_on_c,61,76,3,2,1,71.0,False
30060,2653, Note_on_c,66,76,3,2,1,77.0,False
30061,2654, Note_on_c,51,76,3,2,1,59.0,False
30062,2655, Note_on_c,58,76,3,2,1,67.0,False
30063,2655, Note_on_c,63,76,3,2,1,73.0,False
30064,2656, Note_on_c,61,76,3,2,1,71.0,False
30065,2656, Note_on_c,68,76,3,2,1,79.0,False
30066,2657, Note_on_c,51,76,3,2,1,59.0,False
30067,2658, Note_on_c,58,76,3,2,1,67.0,False
30068,2658, Note_on_c,63,76,3,2,1,73.0,False
30069,2659, Note_on_c,61,76,3,2,1,71.0,False
30070,2659, Note_on_c,68,76,3,2,1,79.0,False
30071,2660, Note_on_c,58,76,3,2,1,67.0,False
30072,2660, Note_on_c,63,76,3,2,1,73.0,False
30073,2661, Note_on_c,61,76,3,2,1,71.0,False
30074,2661, Note_on_c,66,76,3,2,1,77.0,False
30075,2662, Note_on_c,51,76,3,2,1,59.0,False
30076,2663, Note_on_c,58,76,3,2,1,67.0,False
30077,2663, Note_on_c,63,76,3,2,1,73.0,False
30078,2664, Note_on_c,61,76,3,2,1,71.0,False
30079,2664, Note_on_c,68,76,3,2,1,79.0,False
30080,2665, Note_on_c,51,76,3,2,1,59.0,False
30081,2666, Note_on_c,58,76,3,2,1,67.0,False
30082,2666, Note_on_c,63,76,3,2,1,73.0,False
30083,2667, Note_on_c,61,76,3,2,1,71.0,False
30084,2667, Note_on_c,68,76,3,2,1,79.0,False
30085,2668, Note_on_c,58,76,3,2,1,67.0,False
30086,2668, Note_on_c,63,76,3,2,1,73.0,False
30087,2669, Note_on_c,61,76,3,2,1,71.0,False
30088,2669, Note_on_c,66,76,3,2,1,77.0,False
30089,2670, Note_on_c,51,76,3,2,1,59.0,False
30090,2671, Note_on_c,58,76,3,2,1,67.0,False
30091,2671, Note_on_c,63,76,3,2,1,73.0,False
30092,2672, Note_on_c,61,76,3,2,1,71.0,False
30093,2672, Note_on_c,68,76,3,2,1,79.0,False
30094,2673, Note_on_c,51,76,3,2,1,59.0,False
30095,2674, Note_on_c,58,76,3,2,1,67.0,False
30096,2674, Note_on_c,63,76,3,2,1,73.0,False
30097,2675, Note_on_c,61,76,3,2,1,71.0,False
30098,2675, Note_on_c,68,76,3,2,1,79.0,False
30099,2676, Note_on_c,58,76,3,2,1,67.0,False
30100,2676, Note_on_c,63,76,3,2,1,73.0,False
30101,2677, Note_on_c,61,76,3,2,1,71.0,False
30102,2677, Note_on_c,66,76,3,2,1,77.0,False
30103,2678, Note_on_c,51,76,3,2,1,59.0,False
30104,2679, Note_on_c,58,76,3,2,1,67.0,False
30105,2679, Note_on_c,63,76,3,2,1,73.0,False
30106,2680, Note_on_c,61,76,3,2,1,71.0,False
30107,2680, Note_on_c,68,76,3,2,1,79.0,False
30108,2681, Note_on_c,51,76,3,2,1,59.0,False
30109,2682, Note_on_c,58,76,3,2,1,67.0,False
30110,2682, Note_on_c,63,76,3,2,1,73.0,False
30111,2683, Note_on_c,61,76,3,2,1,71.0,False
30112,2683, Note_on_c,68,76,3,2,1,79.0,False
30113,2684, Note_on_c,58,76,3,2,1,67.0,False
30114,2684, Note_on_c,63,76,3,2,1,73.0,False
30115,2685, Note_on_c,61,76,3,2,1,71.0,False
30116,2685, Note_on_c,66,76,3,2,1,77.0,False
30117,2686, Note_on_c,51,76,3,2,1,59.0,False
30118,2687, Note_on_c,58,76,3,2,1,67.0,False
30119,2687, Note_on_c,63,76,3,2,1,73.0,False
30120,2688, Note_on_c,61,76,3,2,1,71.0,False
30121,2688, Note_on_c,68,76,3,2,1,79.0,False
30122,2689, Note_on_c,51,76,3,2,1,59.0,False
30123,2690, Note_on_c,58,76,3,2,1,67.0,False
30124,2690, Note_on_c,63,76,3,2,1,73.0,False
30125,2691, Note_on_c,61,76,3,2,1,71.0,False
30126,2691, Note_on_c,68,76,3,2,1,79.0,False
30127,2692, Note_on_c,58,76,3,2,1,67.0,False
30128,2692, Note_on_c,63,76,3,2,1,73.0,False
30129,2693, Note_on_c,61,76,3,2,1,71.0,False
30130,2693, Note_on_c,66,76,3,2,1,77.0,False
30131,2694, Note_on_c,51,76,3,2,1,59.0,False
30132,2695, Note_on_c,58,76,3,2,1,67.0,False
30133,2695, Note_on_c,63,76,3,2,1,73.0,False
30134,2696, Note_on_c,61,76,3,2,1,71.0,False
30135,2696, Note_on_c,68,76,3,2,1,79.0,False
30136,2697, Note_on_c,51,76,3,2,1,59.0,False
30137,2698, Note_on_c,58,76,3,2,1,67.0,False
30138,2698, Note_on_c,63,76,3,2,1,73.0,False
30139,2699, Note_on_c,61,76,3,2,1,71.0,False
30140,2699, Note_on_c,68,76,3,2,1,79.0,False
30141,2700, Note_on_c,58,76,3,2,1,67.0,False
30142,2700, Note_on_c,63,76,3,2,1,73.0,False
30143,2701, Note_on_c,61,76,3,2,1,71.0,False
30144,2701, Note_on_c,66,76,3,2,1,77.0,False
30145,2702, Note_on_c,51,76,3,2,1,59.0,False
30146,2703, Note_on_c,58,76,3,2,1,67.0,False
30147,2703, Note_on_c,63,76,3,2,1,73.0,False
30148,2704, Note_on_c,61,76,3,2,1,71.0,False
30149,2704, Note_on_c,68,76,3,2,1,79.0,False
30150,2705, Note_on_c,51,76,3,2,1,59.0,False
30151,2706, Note_on_c,58,76,3,2,1,67.0,False
30152,2706, Note_on_c,63,76,3,2,1,73.0,False
30153,2707, Note_on_c,61,76,3,2,1,71.0,False
30154,2707, Note_on_c,68,76,3,2,1,79.0,False
30155,2708, Note_on_c,58,76,3,2,1,67.0,False
30156,2708, Note_on_c,63,76,3,2,1,73.0,False
30157,2709, Note_on_c,61,76,3,2,1,71.0,False
30158,2709, Note_on_c,66,76,3,2,1,77.0,False
30159,2710, Note_on_c,51,76,3,2,1,59.0,False
30160,2711, Note_on_c,58,76,3,2,1,67.0,False
30161,2711, Note_on_c,63,76,3,2,1,73.0,False
30162,2712, Note_on_c,61,76,3,2,1,71.0,False
30163,2712, Note_on_c,68,76,3,2,1,79.0,False
30164,2713, Note_on_c,51,76,3,2,1,59.0,False
30165,2714, Note_on_c,58,76,3,2,1,67.0,False
30166,2714, Note_on_c,63,76,3,2,1,73.0,False
30167,2715, Note_on_c,61,76,3,2,1,71.0,False
30168,2715, Note_on_c,68,76,3,2,1,79.0,False
30169,2716, Note_on_c,58,76,3,2,1,67.0,False
30170,2716, Note_on_c,63,76,3,2,1,73.0,False
30171,2717, Note_on_c,61,76,3,2,1,71.0,False
30172,2717, Note_on_c,66,76,3,2,1,77.0,False
30173,2718, Note_on_c,51,76,3,2,1,59.0,False
30174,2719, Note_on_c,58,76,3,2,1,67.0,False
30175,2719, Note_on_c,63,76,3,2,1,73.0,False
30176,2720, Note_on_c,61,76,3,2,1,71.0,False
30177,2720, Note_on_c,68,76,3,2,1,79.0,False
30178,2721, Note_on_c,51,76,3,2,1,59.0,False
30179,2722, Note_on_c,58,76,3,2,1,67.0,False
30180,2722, Note_on_c,63,76,3,2,1,73.0,False
30181,2723, Note_on_c,61,76,3,2,1,71.0,False
30182,2723, Note_on_c,68,76,3,2,1,79.0,False
30183,2724, Note_on_c,58,76,3,2,1,67.0,False
30184,2724, Note_on_c,63,76,3,2,1,73.0,False
30185,2725, Note_on_c,61,76,3,2,1,71.0,False
30186,2725, Note_on_c,66,76,3,2,1,77.0,False
30187,2726, Note_on_c,51,76,3,2,1,59.0,False
30188,2727, Note_on_c,58,76,3,2,1,67.0,False
30189,2727, Note_on_c,63,76,3,2,1,73.0,False
30190,2728, Note_on_c,61,76,3,2,1,71.0,False
30191,2728, Note_on_c,68,76,3,2,1,79.0,False
30192,2729, Note_on_c,51,76,3,2,1,59.0,False
30193,2730, Note_on_c,58,76,3,2,1,67.0,False
30194,2730, Note_on_c,63,76,3,2,1,73.0,False
30195,2731, Note_on_c,61,76,3,2,1,71.0,False
30196,2731, Note_on_c,68,76,3,2,1,79.0,False
30197,2732, Note_on_c,58,76,3,2,1,67.0,False
30198,2732, Note_on_c,63,76,3,2,1,73.0,False
30199,2733, Note_on_c,61,76,3,2,1,71.0,False
30200,2733, Note_on_c,66,76,3,2,1,77.0,False
30201,2734, Note_on_c,51,76,3,2,1,59.0,False
30202,2735, Note_on_c,58,76,3,2,1,67.0,False
30203,2735, Note_on_c,63,76,3,2,1,73.0,False
30204,2736, Note_on_c,61,76,3,2,1,71.0,False
30205,2736, Note_on_c,68,76,3,2,1,79.0,False
30206,2737, Note_on_c,51,76,3,2,1,59.0,False
30207,2738, Note_on_c,58,76,3,2,1,67.0,False
30208,2738, Note_on_c,63,76,3,2,1,73.0,False
30209,2739, Note_on_c,61,76,3,2,1,71.0,False
30210,2739, Note_on_c,68,76,3,2,1,79.0,False
30211,2740, Note_on_c,58,76,3,2,1,67.0,False
30212,2740, Note_on_c,63,76,3,2,1,73.0,False
30213,2741, Note_on_c,61,76,3,2,1,71.0,False
30214,2741, Note_on_c,66,76,3,2,1,77.0,False
30215,2742, Note_on_c,51,76,3,2,1,59.0,False
30216,2743, Note_on_c,58,76,3,2,1,67.0,False
30217,2743, Note_on_c,63,76,3,2,1,73.0,False
30218,2744, Note_on_c,61,76,3,2,1,71.0,False
30219,2744, Note_on_c,68,76,3,2,1,79.0,False
30220,2745, Note_on_c,51,76,3,2,1,59.0,False
30221,2746, Note_on_c,58,76,3,2,1,67.0,False
30222,2746, Note_on_c,63,76,3,2,1,73.0,False
30223,2747, Note_on_c,61,76,3,2,1,71.0,False
30224,2747, Note_on_c,68,76,3,2,1,79.0,False
30225,2748, Note_on_c,58,76,3,2,1,67.0,False
30226,2748, Note_on_c,63,76,3,2,1,73.0,False
30227,2749, Note_on_c,61,76,3,2,1,71.0,False
30228,2749, Note_on_c,66,76,3,2,1,77.0,False
30229,2750, Note_on_c,51,76,3,2,1,59.0,False
30230,2751, Note_on_c,58,76,3,2,1,67.0,False
30231,2751, Note_on_c,63,76,3,2,1,73.0,False
30232,2752, Note_on_c,61,76,3,2,1,71.0,False
30233,2752, Note_on_c,68,76,3,2,1,79.0,False
30234,2753, Note_on_c,51,76,3,2,1,59.0,False
30235,2754, Note_on_c,58,76,3,2,1,67.0,False
30236,2754, Note_on_c,63,76,3,2,1,73.0,False
30237,2755, Note_on_c,61,76,3,2,1,71.0,False
30238,2755, Note_on_c,68,76,3,2,1,79.0,False
30239,2756, Note_on_c,58,76,3,2,1,67.0,False
30240,2756, Note_on_c,63,76,3,2,1,73.0,False
30241,2757, Note_on_c,61,76,3,2,1,71.0,False
30242,2757, Note_on_c,66,76,3,2,1,77.0,False
30243,2758, Note_on_c,51,76,3,2,1,59.0,False
30244,2759, Note_on_c,58,76,3,2,1,67.0,False
30245,2759, Note_on_c,63,76,3,2,1,73.0,False
30246,2760, Note_on_c,61,76,3,2,1,71.0,False
30247,2760, Note_on_c,68,76,3,2,1,79.0,False
30248,2761, Note_on_c,51,76,3,2,1,59.0,False
30249,2762, Note_on_c,58,76,3,2,1,67.0,False
30250,2762, Note_on_c,63,76,3,2,1,73.0,False
30251,2763, Note_on_c,61,76,3,2,1,71.0,False
30252,2763, Note_on_c,68,76,3,2,1,79.0,False
30253,2764, Note_on_c,58,76,3,2,1,67.0,False
30254,2764, Note_on_c,63,76,3,2,1,73.0,False
30255,2765, Note_on_c,61,76,3,2,1,71.0,False
30256,2765, Note_on_c,66,76,3,2,1,77.0,False
30257,2766, Note_on_c,51,76,3,2,1,59.0,False
30258,2767, Note_on_c,58,76,3,2,1,67.0,False
30259,2767, Note_on_c,63,76,3,2,1,73.0,False
30260,2768, Note_on_c,61,76,3,2,1,71.0,False
30261,2768, Note_on_c,68,76,3,2,1,79.0,False
30262,2769, Note_on_c,51,76,3,2,1,59.0,False
30263,2770, Note_on_c,58,76,3,2,1,67.0,False
30264,2770, Note_on_c,63,76,3,2,1,73.0,False
30265,2771, Note_on_c,61,76,3,2,1,71.0,False
30266,2771, Note_on_c,68,76,3,2,1,79.0,False
30267,2772, Note_on_c,58,76,3,2,1,67.0,False
30268,2772, Note_on_c,63,76,3,2,1,73.0,False
30269,2773, Note_on_c,61,76,3,2,1,71.0,False
30270,2773, Note_on_c,66,76,3,2,1,77.0,False
30271,2774, Note_on_c,51,76,3,2,1,59.0,False
30272,2775, Note_on_c,58,76,3,2,1,67.0,False
30273,2775, Note_on_c,63,76,3,2,1,73.0,False
30274,2776, Note_on_c,61,76,3,2,1,71.0,False
30275,2776, Note_on_c,68,76,3,2,1,79.0,False
30276,2777, Note_on_c,51,76,3,2,1,59.0,False
30277,2778, Note_on_c,58,76,3,2,1,67.0,False
30278,2778, Note_on_c,63,76,3,2,1,73.0,False
30279,2779, Note_on_c,61,76,3,2,1,71.0,False
30280,2779, Note_on_c,68,76,3,2,1,79.0,False
30281,2780, Note_on_c,58,76,3,2,1,67.0,False
30282,2780, Note_on_c,63,76,3,2,1,73.0,False
30283,2781, Note_on_c,61,76,3,2,1,71.0,False
30284,2781, Note_on_c,66,76,3,2,1,77.0,False
30285,2782, Note_on_c,51,76,3,2,1,59.0,False
30286,2783, Note_on_c,58,76,3,2,1,67.0,False
30287,2783, Note_on_c,63,76,3,2,1,73.0,False
30288,2784, Note_on_c,61,76,3,2,1,71.0,False
30289,2784, Note_on_c,68,76,3,2,1,79.0,False
30290,2785, Note_on_c,51,76,3,2,1,59.0,False
30291,2786, Note_on_c,58,76,3,2,1,67.0,False
30292,2786, Note_on_c,63,76,3,2,1,73.0,False
30293,2787, Note_on_c,61,76,3,2,1,71.0,False
30294,2787, Note_on_c,68,76,3,2,1,79.0,False
30295,2788, Note_on_c,58,76,3,2,1,67.0,False
30296,2788, Note_on_c,63,76,3,2,1,73.0,False
30297,2789, Note_on_c,61,76,3,2,1,71.0,False
30298,2789, Note_on_c,66,76,3,2,1,77.0,False
30299,2790, Note_on_c,51,76,3,2,1,59.0,False
30300,2791, Note_on_c,58,76,3,2,1,67.0,False
30301,2791, Note_on_c,63,76,3,2,1,73.0,False
30302,2792, Note_on_c,61,76,3,2,1,71.0,False
30303,2792, Note_on_c,68,76,3,2,1,79.0,False
30304,2793, Note_on_c,51,76,3,2,1,59.0,False
30305,2794, Note_on_c,58,76,3,2,1,67.0,False
30306,2794, Note_on_c,63,76,3,2,1,73.0,False
30307,2795, Note_on_c,61,76,3,2,1,71.0,False
30308,2795, Note_on_c,68,76,3,2,1,79.0,False
30309,2796, Note_on_c,58,76,3,2,1,67.0,False
30310,2796, Note_on_c,63,76,3,2,1,73.0,False
30311,2797, Note_on_c,61,76,3,2,1,71.0,False
30312,2797, Note_on_c,66,76,3,2,1,77.0,False
30313,2798, Note_on_c,51,76,3,2,1,59.0,False
30314,2799, Note_on_c,58,76,3,2,1,67.0,False
30315,2799, Note_on_c,63,76,3,2,1,73.0,False
30316,2800, Note_on_c,61,76,3,2,1,71.0,False
30317,2800, Note_on_c,68,76,3,2,1,79.0,False
30318,2801, Note_on_c,51,76,3,2,1,59.0,False
30319,2802, Note_on_c,58,76,3,2,1,67.0,False
30320,2802, Note_on_c,63,76,3,2,1,73.0,False
30321,2803, Note_on_c,61,76,3,2,1,71.0,False
30322,2803, Note_on_c,68,76,3,2,1,79.0,False
30323,2804, Note_on_c,58,76,3,2,1,67.0,False
30324,2804, Note_on_c,63,76,3,2,1,73.0,False
30325,2805, Note_on_c,61,76,3,2,1,71.0,False
30326,2805, Note_on_c,66,76,3,2,1,77.0,False
30327,2806, Note_on_c,51,76,3,2,1,59.0,False
30328,2807, Note_on_c,58,76,3,2,1,67.0,False
30329,2807, Note_on_c,63,76,3,2,1,73.0,False
30330,2808, Note_on_c,61,76,3,2,1,71.0,False
30331,2808, Note_on_c,68,76,3,2,1,79.0,False
30332,2809, Note_on_c,51,76,3,2,1,59.0,False
30333,2810, Note_on_c,58,76,3,2,1,67.0,False
30334,2810, Note_on_c,63,76,3,2,1,73.0,False
30335,2811, Note_on_c,61,76,3,2,1,71.0,False
30336,2811, Note_on_c,68,76,3,2,1,79.0,False
30337,2812, Note_on_c,58,76,3,2,1,67.0,False
30338,2812, Note_on_c,63,76,3,2,1,73.0,False
30339,2813, Note_on_c,61,76,3,2,1,71.0,False
30340,2813, Note_on_c,66,76,3,2,1,77.0,False
30341,2814, Note_on_c,51,76,3,2,1,59.0,False
30342,2815, Note_on_c,58,76,3,2,1,67.0,False
30343,2815, Note_on_c,63,76,3,2,1,73.0,False
30344,2816, Note_on_c,61,76,3,2,1,71.0,False
30345,2816, Note_on_c,68,76,3,2,1,79.0,False
30346,2817, Note_on_c,51,76,3,2,1,59.0,False
30347,2818, Note_on_c,58,76,3,2,1,67.0,False
30348,2818, Note_on_c,63,76,3,2,1,73.0,False
30349,2819, Note_on_c,61,76,3,2,1,71.0,False
30350,2819, Note_on_c,68,76,3,2,1,79.0,False
30351,2820, Note_on_c,58,76,3,2,1,67.0,False
30352,2820, Note_on_c,63,76,3,2,1,73.0,False
30353,2821, Note_on_c,61,76,3,2,1,71.0,False
30354,2821, Note_on_c,66,76,3,2,1,77.0,False
30355,2822, Note_on_c,51,76,3,2,1,59.0,False
30356,2823, Note_on_c,58,76,3,2,1,67.0,False
30357,2823, Note_on_c,63,76,3,2,1,73.0,False
30358,2824, Note_on_c,61,76,3,2,1,71.0,False
30359,2824, Note_on_c,68,76,3,2,1,79.0,False
30360,2825, Note_on_c,51,76,3,2,1,59.0,False
30361,2826, Note_on_c,58,76,3,2,1,67.0,False
30362,2826, Note_on_c,63,76,3,2,1,73.0,False
30363,2827, Note_on_c,61,76,3,2,1,71.0,False
30364,2827, Note_on_c,68,76,3,2,1,79.0,False
30365,2828, Note_on_c,58,76,3,2,1,67.0,False
30366,2828, Note_on_c,63,76,3,2,1,73.0,False
30367,2829, Note_on_c,61,76,3,2,1,71.0,False
30368,2829, Note_on_c,66,76,3,2,1,77.0,False
30369,2830, Note_on_c,51,76,3,2,1,59.0,False
30370,2831, Note_on_c,58,76,3,2,1,67.0,False
30371,2831, Note_on_c,63,76,3,2,1,73.0,False
30372,2832, Note_on_c,61,76,3,2,1,71.0,False
30373,2832, Note_on_c,68,76,3,2,1,79.0,False
30374,2833, Note_on_c,51,76,3,2,1,59.0,False
30375,2834, Note_on_c,58,76,3,2,1,67.0,False
30376,2834, Note_on_c,63,76,3,2,1,73.0,False
30377,2835, Note_on_c,61,76,3,2,1,71.0,False
30378,2835, Note_on_c,68,76,3,2,1,79.0,False
30379,2836, Note_on_c,58,76,3,2,1,67.0,False
30380,2836, Note_on_c,63,76,3,2,1,73.0,False
30381,2837, Note_on_c,61,76,3,2,1,71.0,False
30382,2837, Note_on_c,66,76,3,2,1,77.0,False
30383,2838, Note_on_c,51,76,3,2,1,59.0,False
30384,2839, Note_on_c,58,76,3,2,1,67.0,False
30385,2839, Note_on_c,63,76,3,2,1,73.0,False
30386,2840, Note_on_c,61,76,3,2,1,71.0,False
30387,2840, Note_on_c,68,76,3,2,1,79.0,False
30388,2841, Note_on_c,51,76,3,2,1,59.0,False
30389,2842, Note_on_c,58,76,3,2,1,67.0,False
30390,2842, Note_on_c,63,76,3,2,1,73.0,False
30391,2843, Note_on_c,61,76,3,2,1,71.0,False
30392,2843, Note_on_c,68,76,3,2,1,79.0,False
30393,2844, Note_on_c,58,76,3,2,1,67.0,False
30394,2844, Note_on_c,63,76,3,2,1,73.0,False
30395,2845, Note_on_c,61,76,3,2,1,71.0,False
30396,2845, Note_on_c,66,76,3,2,1,77.0,False
30397,2846, Note_on_c,51,76,3,2,1,59.0,False
30398,2847, Note_on_c,58,76,3,2,1,67.0,False
30399,2847, Note_on_c,63,76,3,2,1,73.0,False
30400,2848, Note_on_c,61,76,3,2,1,71.0,False
30401,2848, Note_on_c,68,76,3,2,1,79.0,False
30402,2849, Note_on_c,51,76,3,2,1,59.0,False
30403,2850, Note_on_c,58,76,3,2,1,67.0,False
30404,2850, Note_on_c,63,76,3,2,1,73.0,False
30405,2851, Note_on_c,61,76,3,2,1,71.0,False
30406,2851, Note_on_c,68,76,3,2,1,79.0,False
30407,2852, Note_on_c,58,76,3,2,1,67.0,False
30408,2852, Note_on_c,63,76,3,2,1,73.0,False
30409,2853, Note_on_c,61,76,3,2,1,71.0,False
30410,2853, Note_on_c,66,76,3,2,1,77.0,False
30411,2854, Note_on_c,51,76,3,2,1,59.0,False
30412,2855, Note_on_c,58,76,3,2,1,67.0,False
30413,2855, Note_on_c,63,76,3,2,1,73.0,False
30414,2856, Note_on_c,61,76,3,2,1,71.0,False
30415,2856, Note_on_c,68,76,3,2,1,79.0,False
30416,2857, Note_on_c,51,76,3,2,1,59.0,False
30417,2858, Note_on_c,58,76,3,2,1,67.0,False
30418,2858, Note_on_c,63,76,3,2,1,73.0,False
30419,2859, Note_on_c,61,76,3,2,1,71.0,False
30420,2859, Note_on_c,68,76,3,2,1,79.0,False
30421,2860, Note_on_c,58,76,3,2,1,67.0,False
30422,2860, Note_on_c,63,76,3,2,1,73.0,False
30423,2861, Note_on_c,61,76,3,2,1,71.0,False
30424,2861, Note_on_c,66,76,3,2,1,77.0,False
30425,2862, Note_on_c,51,76,3,2,1,59.0,False
30426,2863, Note_on_c,58,76,3,2,1,67.0,False
30427,2863, Note_on_c,63,76,3,2,1,73.0,False
30428,2864, Note_on_c,61,76,3,2,1,71.0,False
30429,2864, Note_on_c,68,76,3,2,1,79.0,False
30430,2865, Note_on_c,51,76,3,2,1,59.0,False
30431,2866, Note_on_c,58,76,3,2,1,67.0,False
30432,2866, Note_on_c,63,76,3,2,1,73.0,False
30433,2867, Note_on_c,61,76,3,2,1,71.0,False
30434,2867, Note_on_c,68,76,3,2,1,79.0,False
30435,2868, Note_on_c,58,76,3,2,1,67.0,False
30436,2868, Note_on_c,63,76,3,2,1,73.0,False
30437,2869, Note_on_c,61,76,3,2,1,71.0,False
30438,2869, Note_on_c,66,76,3,2,1,77.0,False
30439,2870, Note_on_c,51,76,3,2,1,59.0,False
30440,2871, Note_on_c,58,76,3,2,1,67.0,False
30441,2871, Note_on_c,63,76,3,2,1,73.0,False
30442,2872, Note_on_c,61,76,3,2,1,71.0,False
30443,2872, Note_on_c,68,76,3,2,1,79.0,False
30444,2873, Note_on_c,51,76,3,2,1,59.0,False
30445,2874, Note_on_c,58,76,3,2,1,67.0,False
30446,2874, Note_on_c,63,76,3,2,1,73.0,False
30447,2875, Note_on_c,61,76,3,2,1,71.0,False
30448,2875, Note_on_c,68,76,3,2,1,79.0,False
30449,2876, Note_on_c,58,76,3,2,1,67.0,False
30450,2876, Note_on_c,63,76,3,2,1,73.0,False
30451,2877, Note_on_c,61,76,3,2,1,71.0,False
30452,2877, Note_on_c,66,76,3,2,1,77.0,False
30453,2878, Note_on_c,51,76,3,2,1,59.0,False
30454,2879, Note_on_c,58,76,3,2,1,67.0,False
30455,2879, Note_on_c,63,76,3,2,1,73.0,False
30456,2880, Note_on_c,61,76,3,2,1,71.0,False
30457,2880, Note_on_c,68,76,3,2,1,79.0,False
30458,2881, Note_on_c,51,76,3,2,1,59.0,False
30459,2882, Note_on_c,58,76,3,2,1,67.0,False
30460,2882, Note_on_c,63,76,3,2,1,73.0,False
30461,2883, Note_on_c,61,76,3,2,1,71.0,False
30462,2883, Note_on_c,68,76,3,2,1,79.0,False
30463,2884, Note_on_c,58,76,3,2,1,67.0,False
30464,2884, Note_on_c,63,76,3,2,1,73.0,False
30465,2885, Note_on_c,61,76,3,2,1,71.0,False
30466,2885, Note_on_c,66,76,3,2,1,77.0,False
30467,2886, Note_on_c,51,76,3,2,1,59.0,False
30468,2887, Note_on_c,58,76,3,2,1,67.0,False
30469,2887, Note_on_c,63,76,3,2,1,73.0,False
30470,2888, Note_on_c,61,76,3,2,1,71.0,False
30471,2888, Note_on_c,68,76,3,2,1,79.0,False
30472,2889, Note_on_c,51,76,3,2,1,59.0,False
30473,2890, Note_on_c,58,76,3,2,1,67.0,False
30474,2890, Note_on_c,63,76,3,2,1,73.0,False
30475,2891, Note_on_c,61,76,3,2,1,71.0,False
30476,2891, Note_on_c,68,76,3,2,1,79.0,False
30477,2892, Note_on_c,58,76,3,2,1,67.0,False
30478,2892, Note_on_c,63,76,3,2,1,73.0,False
30479,2893, Note_on_c,61,76,3,2,1,71.0,False
30480,2893, Note_on_c,66,76,3,2,1,77.0,False
30481,2894, Note_on_c,51,76,3,2,1,59.0,False
30482,2895, Note_on_c,58,76,3,2,1,67.0,False
30483,2895, Note_on_c,63,76,3,2,1,73.0,False
30484,2896, Note_on_c,61,76,3,2,1,71.0,False
30485,2896, Note_on_c,68,76,3,2,1,79.0,False
30486,2897, Note_on_c,51,76,3,2,1,59.0,False
30487,2898, Note_on_c,58,76,3,2,1,67.0,False
30488,2898, Note_on_c,63,76,3,2,1,73.0,False
30489,2899, Note_on_c,61,76,3,2,1,71.0,False
30490,2899, Note_on_c,68,76,3,2,1,79.0,False
30491,2900, Note_on_c,58,76,3,2,1,67.0,False
30492,2900, Note_on_c,63,76,3,2,1,73.0,False
30493,2901, Note_on_c,61,76,3,2,1,71.0,False
30494,2901, Note_on_c,66,76,3,2,1,77.0,False
30495,2902, Note_on_c,51,76,3,2,1,59.0,False
30496,2903, Note_on_c,58,76,3,2,1,67.0,False
30497,2903, Note_on_c,63,76,3,2,1,73.0,False
30498,2904, Note_on_c,61,76,3,2,1,71.0,False
30499,2904, Note_on_c,68,76,3,2,1,79.0,False
30500,2905, Note_on_c,51,76,3,2,1,59.0,False
30501,2906, Note_on_c,58,76,3,2,1,67.0,False
30502,2906, Note_on_c,63,76,3,2,1,73.0,False
30503,2907, Note_on_c,61,76,3,2,1,71.0,False
30504,2907, Note_on_c,68,76,3,2,1,79.0,False
30505,2908, Note_on_c,58,76,3,2,1,67.0,False
30506,2908, Note_on_c,63,76,3,2,1,73.0,False
30507,2909, Note_on_c,61,76,3,2,1,71.0,False
30508,2909, Note_on_c,66,76,3,2,1,77.0,False
30509,2910, Note_on_c,51,76,3,2,1,59.0,False
30510,2911, Note_on_c,58,76,3,2,1,67.0,False
30511,2911, Note_on_c,63,76,3,2,1,73.0,False
30512,2912, Note_on_c,61,76,3,2,1,71.0,False
30513,2912, Note_on_c,68,76,3,2,1,79.0,False
30514,2913, Note_on_c,51,76,3,2,1,59.0,False
30515,2914, Note_on_c,58,76,3,2,1,67.0,False
30516,2914, Note_on_c,63,76,3,2,1,73.0,False
30517,2915, Note_on_c,61,76,3,2,1,71.0,False
30518,2915, Note_on_c,68,76,3,2,1,79.0,False
30519,2916, Note_on_c,58,76,3,2,1,67.0,False
30520,2916, Note_on_c,63,76,3,2,1,73.0,False
30521,2917, Note_on_c,61,76,3,2,1,71.0,False
30522,2917, Note_on_c,66,76,3,2,1,77.0,False
30523,2918, Note_on_c,51,76,3,2,1,59.0,False
30524,2919, Note_on_c,58,76,3,2,1,67.0,False
30525,2919, Note_on_c,63,76,3,2,1,73.0,False
30526,2920, Note_on_c,61,76,3,2,1,71.0,False
30527,2920, Note_on_c,68,76,3,2,1,79.0,False
30528,2921, Note_on_c,51,76,3,2,1,59.0,False
30529,2922, Note_on_c,58,76,3,2,1,67.0,False
30530,2922, Note_on_c,63,76,3,2,1,73.0,False
30531,2923, Note_on_c,61,76,3,2,1,71.0,False
30532,2923, Note_on_c,68,76,3,2,1,79.0,False
30533,2924, Note_on_c,58,76,3,2,1,67.0,False
30534,2924, Note_on_c,63,76,3,2,1,73.0,False
30535,2925, Note_on_c,61,76,3,2,1,71.0,False
30536,2925, Note_on_c,66,76,3,2,1,77.0,False
30537,2926, Note_on_c,51,76,3,2,1,59.0,False
30538,2927, Note_on_c,58,76,3,2,1,67.0,False
30539,2927, Note_on_c,63,76,3,2,1,73.0,False
30540,2928, Note_on_c,61,76,3,2,1,71.0,False
30541,2928, Note_on_c,68,76,3,2,1,79.0,False
30542,2929, Note_on_c,51,76,3,2,1,59.0,False
30543,2930, Note_on_c,58,76,3,2,1,67.0,False
30544,2930, Note_on_c,63,76,3,2,1,73.0,False
30545,2931, Note_on_c,61,76,3,2,1,71.0,False
30546,2931, Note_on_c,68,76,3,2,1,79.0,False
30547,2932, Note_on_c,58,76,3,2,1,67.0,False
30548,2932, Note_on_c,63,76,3,2,1,73.0,False
30549,2933, Note_on_c,61,76,3,2,1,71.0,False
30550,2933, Note_on_c,66,76,3,2,1,77.0,False
30551,2934, Note_on_c,51,76,3,2,1,59.0,False
30552,2935, Note_on_c,58,76,3,2,1,67.0,False
30553,2935, Note_on_c,63,76,3,2,1,73.0,False
30554,2936, Note_on_c,61,76,3,2,1,71.0,False
30555,2936, Note_on_c,68,76,3,2,1,79.0,False
30556,2937, Note_on_c,51,76,3,2,1,59.0,False
30557,2938, Note_on_c,58,76,3,2,1,67.0,False
30558,2938, Note_on_c,63,76,3,2,1,73.0,False
30559,2939, Note_on_c,61,76,3,2,1,71.0,False
30560,2939, Note_on_c,68,76,3,2,1,79.0,False
30561,2940, Note_on_c,58,76,3,2,1,67.0,False
30562,2940, Note_on_c,63,76,3,2,1,73.0,False
30563,2941, Note_on_c,61,76,3,2,1,71.0,False
30564,2941, Note_on_c,66,76,3,2,1,77.0,False
30565,2942, Note_on_c,51,76,3,2,1,59.0,False
30566,2943, Note_on_c,58,76,3,2,1,67.0,False
30567,2943, Note_on_c,63,76,3,2,1,73.0,False
30568,2944, Note_on_c,61,76,3,2,1,71.0,False
30569,2944, Note_on_c,68,76,3,2,1,79.0,False
30570,2945, Note_on_c,51,76,3,2,1,59.0,False
30571,2946, Note_on_c,58,76,3,2,1,67.0,False
30572,2946, Note_on_c,63,76,3,2,1,73.0,False
30573,2947, Note_on_c,61,76,3,2,1,71.0,False
30574,2947, Note_on_c,68,76,3,2,1,79.0,False
30575,2948, Note_on_c,58,76,3,2,1,67.0,False
30576,2948, Note_on_c,63,76,3,2,1,73.0,False
30577,2949, Note_on_c,61,76,3,2,1,71.0,False
30578,2949, Note_on_c,66,76,3,2,1,77.0,False
30579,2950, Note_on_c,51,76,3,2,1,59.0,False
30580,2951, Note_on_c,58,76,3,2,1,67.0,False
30581,2951, Note_on_c,63,76,3,2,1,73.0,False
30582,2952, Note_on_c,61,76,3,2,1,71.0,False
30583,2952, Note_on_c,68,76,3,2,1,79.0,False
30584,2953, Note_on_c,51,76,3,2,1,59.0,False
30585,2954, Note_on_c,58,76,3,2,1,67.0,False
30586,2954, Note_on_c,63,76,3,2,1,73.0,False
30587,2955, Note_on_c,61,76,3,2,1,71.0,False
30588,2955, Note_on_c,68,76,3,2,1,79.0,False
30589,2956, Note_on_c,58,76,3,2,1,67.0,False
30590,2956, Note_on_c,63,76,3,2,1,73.0,False
30591,2957, Note_on_c,61,76,3,2,1,71.0,False
30592,2957, Note_on_c,66,76,3,2,1,77.0,False
30593,2958, Note_on_c,51,76,3,2,1,59.0,False
30594,2959, Note_on_c,58,76,3,2,1,67.0,False
30595,2959, Note_on_c,63,76,3,2,1,73.0,False
30596,2960, Note_on_c,61,76,3,2,1,71.0,False
30597,2960, Note_on_c,68,76,3,2,1,79.0,False
30598,2961, Note_on_c,51,76,3,2,1,59.0,False
30599,2962, Note_on_c,58,76,3,2,1,67.0,False
30600,2962, Note_on_c,63,76,3,2,1,73.0,False
30601,2963, Note_on_c,61,76,3,2,1,71.0,False
30602,2963, Note_on_c,68,76,3,2,1,79.0,False
30603,2964, Note_on_c,58,76,3,2,1,67.0,False
30604,2964, Note_on_c,63,76,3,2,1,73.0,False
30605,2965, Note_on_c,61,76,3,2,1,71.0,False
30606,2965, Note_on_c,66,76,3,2,1,77.0,False
30607,2966, Note_on_c,51,76,3,2,1,59.0,False
30608,2967, Note_on_c,58,76,3,2,1,67.0,False
30609,2967, Note_on_c,63,76,3,2,1,73.0,False
30610,2968, Note_on_c,61,76,3,2,1,71.0,False
30611,2968, Note_on_c,68,76,3,2,1,79.0,False
30612,2969, Note_on_c,51,76,3,2,1,59.0,False
30613,2970, Note_on_c,58,76,3,2,1,67.0,False
30614,2970, Note_on_c,63,76,3,2,1,73.0,False
30615,2971, Note_on_c,61,76,3,2,1,71.0,False
30616,2971, Note_on_c,68,76,3,2,1,79.0,False
30617,2972, Note_on_c,58,76,3,2,1,67.0,False
30618,2972, Note_on_c,63,76,3,2,1,73.0,False
30619,2973, Note_on_c,61,76,3,2,1,71.0,False
30620,2973, Note_on_c,66,76,3,2,1,77.0,False
30621,2974, Note_on_c,51,76,3,2,1,59.0,False
30622,2975, Note_on_c,58,76,3,2,1,67.0,False
30623,2975, Note_on_c,63,76,3,2,1,73.0,False
30624,2976, Note_on_c,61,76,3,2,1,71.0,False
30625,2976, Note_on_c,68,76,3,2,1,79.0,False
30626,2977, Note_on_c,51,76,3,2,1,59.0,False
30627,2978, Note_on_c,58,76,3,2,1,67.0,False
30628,2978, Note_on_c,63,76,3,2,1,73.0,False
30629,2979, Note_on_c,61,76,3,2,1,71.0,False
30630,2979, Note_on_c,68,76,3,2,1,79.0,False
30631,2980, Note_on_c,58,76,3,2,1,67.0,False
30632,2980, Note_on_c,63,76,3,2,1,73.0,False
30633,2981, Note_on_c,61,76,3,2,1,71.0,False
30634,2981, Note_on_c,66,76,3,2,1,77.0,False
30635,2982, Note_on_c,51,76,3,2,1,59.0,False
30636,2983, Note_on_c,58,76,3,2,1,67.0,False
30637,2983, Note_on_c,63,76,3,2,1,73.0,False
30638,2984, Note_on_c,61,76,3,2,1,71.0,False
30639,2984, Note_on_c,68,76,3,2,1,79.0,False
30640,2985, Note_on_c,51,76,3,2,1,59.0,False
30641,2986, Note_on_c,58,76,3,2,1,67.0,False
30642,2986, Note_on_c,63,76,3,2,1,73.0,False
30643,2987, Note_on_c,61,76,3,2,1,71.0,False
30644,2987, Note_on_c,68,76,3,2,1,79.0,False
30645,2988, Note_on_c,58,76,3,2,1,67.0,False
30646,2988, Note_on_c,63,76,3,2,1,73.0,False
30647,2989, Note_on_c,61,76,3,2,1,71.0,False
30648,2989, Note_on_c,66,76,3,2,1,77.0,False
30649,2990, Note_on_c,51,76,3,2,1,59.0,False
30650,2991, Note_on_c,58,76,3,2,1,67.0,False
30651,2991, Note_on_c,63,76,3,2,1,73.0,False
30652,2992, Note_on_c,61,76,3,2,1,71.0,False
30653,2992, Note_on_c,68,76,3,2,1,79.0,False
30654,2993, Note_on_c,51,76,3,2,1,59.0,False
30655,2994, Note_on_c,58,76,3,2,1,67.0,False
30656,2994, Note_on_c,63,76,3,2,1,73.0,False
30657,2995, Note_on_c,61,76,3,2,1,71.0,False
30658,2995, Note_on_c,68,76,3,2,1,79.0,False
30659,2996, Note_on_c,58,76,3,2,1,67.0,False
30660,2996, Note_on_c,63,76,3,2,1,73.0,False
30661,2997, Note_on_c,61,76,3,2,1,71.0,False
30662,2997, Note_on_c,66,76,3,2,1,77.0,False
30663,2998, Note_on_c,51,76,3,2,1,59.0,False
30664,2999, Note_on_c,58,76,3,2,1,67.0,False
30665,2999, Note_on_c,63,76,3,2,1,73.0,False
30666,3000, Note_on_c,61,76,3,2,1,71.0,False
30667,3000, Note_on_c,68,76,3,2,1,79.0,False
30668,3001, Note_on_c,51,76,3,2,1,59.0,False
30669,3002, Note_on_c,58,76,3,2,1,67.0,False
30670,3002, Note_on_c,63,76,3,2,1,73.0,False
30671,3003, Note_on_c,61,76,3,2,1,71.0,False
30672,3003, Note_on_c,68,76,3,2,1,79.0,False
30673,3004, Note_on_c,58,76,3,2,1,67.0,False
30674,3004, Note_on_c,63,76,3,2,1,73.0,False
30675,3005, Note_on_c,61,76,3,2,1,71.0,False
30676,3005, Note_on_c,66,76,3,2,1,77.0,False
30677,3006, Note_on_c,51,76,3,2,1,59.0,False
30678,3007, Note_on_c,58,76,3,2,1,67.0,False
30679,3007, Note_on_c,63,76,3,2,1,73.0,False
30680,3008, Note_on_c,61,76,3,2,1,71.0,False
30681,3008, Note_on_c,68,76,3,2,1,79.0,False
30682,3009, Note_on_c,51,76,3,2,1,59.0,False
30683,3010, Note_on_c,58,76,3,2,1,67.0,False
30684,3010, Note_on_c,63,76,3,2,1,73.0,False
30685,3011, Note_on_c,61,76,3,2,1,71.0,False
30686,3011, Note_on_c,68,76,3,2,1,79.0,False
30687,3012, Note_on_c,58,76,3,2,1,67.0,False
30688,3012, Note_on_c,63,76,3,2,1,73.0,False
30689,3013, Note_on_c,61,76,3,2,1,71.0,False
30690,3013, Note_on_c,66,76,3,2,1,77.0,False
30691,3014, Note_on_c,51,76,3,2,1,59.0,False
30692,3015, Note_on_c,58,76,3,2,1,67.0,False
30693,3015, Note_on_c,63,76,3,2,1,73.0,False
30694,3016, Note_on_c,61,76,3,2,1,71.0,False
30695,3016, Note_on_c,68,76,3,2,1,79.0,False
30696,3017, Note_on_c,51,76,3,2,1,59.0,False
30697,3018, Note_on_c,58,76,3,2,1,67.0,False
30698,3018, Note_on_c,63,76,3,2,1,73.0,False
30699,3019, Note_on_c,61,76,3,2,1,71.0,False
30700,3019, Note_on_c,68,76,3,2,1,79.0,False
30701,3020, Note_on_c,58,76,3,2,1,67.0,False
30702,3020, Note_on_c,63,76,3,2,1,73.0,False
30703,3021, Note_on_c,61,76,3,2,1,71.0,False
30704,3021, Note_on_c,66,76,3,2,1,77.0,False
30705,3022, Note_on_c,51,76,3,2,1,59.0,False
30706,3023, Note_on_c,58,76,3,2,1,67.0,False
30707,3023, Note_on_c,63,76,3,2,1,73.0,False
30708,3024, Note_on_c,61,76,3,2,1,71.0,False
30709,3024, Note_on_c,68,76,3,2,1,79.0,False
30710,3025, Note_on_c,51,76,3,2,1,59.0,False
30711,3026, Note_on_c,58,76,3,2,1,67.0,False
30712,3026, Note_on_c,63,76,3,2,1,73.0,False
30713,3027, Note_on_c,61,76,3,2,1,71.0,False
30714,3027, Note_on_c,68,76,3,2,1,79.0,False
30715,3028, Note_on_c,58,76,3,2,1,67.0,False
30716,3028, Note_on_c,63,76,3,2,1,73.0,False
30717,3029, Note_on_c,61,76,3,2,1,71.0,False
30718,3029, Note_on_c,66,76,3,2,1,77.0,False
30719,3030, Note_on_c,51,76,3,2,1,59.0,False
30720,3031, Note_on_c,58,76,3,2,1,67.0,False
30721,3031, Note_on_c,63,76,3,2,1,73.0,False
30722,3032, Note_on_c,61,76,3,2,1,71.0,False
30723,3032, Note_on_c,68,76,3,2,1,79.0,False
30724,3033, Note_on_c,51,76,3,2,1,59.0,False
30725,3034, Note_on_c,58,76,3,2,1,67.0,False
30726,3034, Note_on_c,63,76,3,2,1,73.0,False
30727,3035, Note_on_c,61,76,3,2,1,71.0,False
30728,3035, Note_on_c,68,76,3,2,1,79.0,False
30729,3036, Note_on_c,58,76,3,2,1,67.0,False
30730,3036, Note_on_c,63,76,3,2,1,73.0,False
30731,3037, Note_on_c,61,76,3,2,1,71.0,False
30732,3037, Note_on_c,66,76,3,2,1,77.0,False
30733,3038, Note_on_c,51,76,3,2,1,59.0,False
30734,3039, Note_on_c,58,76,3,2,1,67.0,False
30735,3039, Note_on_c,63,76,3,2,1,73.0,False
30736,3040, Note_on_c,61,76,3,2,1,71.0,False
30737,3040, Note_on_c,68,76,3,2,1,79.0,False
30738,3041, Note_on_c,51,76,3,2,1,59.0,False
30739,3042, Note_on_c,58,76,3,2,1,67.0,False
30740,3042, Note_on_c,63,76,3,2,1,73.0,False
30741,3043, Note_on_c,61,76,3,2,1,71.0,False
30742,3043, Note_on_c,68,76,3,2,1,79.0,False
30743,3044, Note_on_c,58,76,3,2,1,67.0,False
30744,3044, Note_on_c,63,76,3,2,1,73.0,False
30745,3045, Note_on_c,61,76,3,2,1,71.0,False
30746,3045, Note_on_c,66,76,3,2,1,77.0,False
30747,3046, Note_on_c,51,76,3,2,1,59.0,False
30748,3047, Note_on_c,58,76,3,2,1,67.0,False
30749,3047, Note_on_c,63,76,3,2,1,73.0,False
30750,3048, Note_on_c,61,76,3,2,1,71.0,False
30751,3048, Note_on_c,68,76,3,2,1,79.0,False
30752,3049, Note_on_c,51,76,3,2,1,59.0,False
30753,3050, Note_on_c,58,76,3,2,1,67.0,False
30754,3050, Note_on_c,63,76,3,2,1,73.0,False
30755,3051, Note_on_c,61,76,3,2,1,71.0,False
30756,3051, Note_on_c,68,76,3,2,1,79.0,False
30757,3052, Note_on_c,58,76,3,2,1,67.0,False
30758,3052, Note_on_c,63,76,3,2,1,73.0,False
30759,3053, Note_on_c,61,76,3,2,1,71.0,False
30760,3053, Note_on_c,66,76,3,2,1,77.0,False
30761,3054, Note_on_c,51,76,3,2,1,59.0,False
30762,3055, Note_on_c,58,76,3,2,1,67.0,False
30763,3055, Note_on_c,63,76,3,2,1,73.0,False
30764,3056, Note_on_c,61,76,3,2,1,71.0,False
30765,3056, Note_on_c,68,76,3,2,1,79.0,False
30766,3057, Note_on_c,51,76,3,2,1,59.0,False
30767,3058, Note_on_c,58,76,3,2,1,67.0,False
30768,3058, Note_on_c,63,76,3,2,1,73.0,False
30769,3059, Note_on_c,61,76,3,2,1,71.0,False
30770,3059, Note_on_c,68,76,3,2,1,79.0,False
30771,3060, Note_on_c,58,76,3,2,1,67.0,False
30772,3060, Note_on_c,63,76,3,2,1,73.0,False
30773,3061, Note_on_c,61,76,3,2,1,71.0,False
30774,3061, Note_on_c,66,76,3,2,1,77.0,False
30775,3062, Note_on_c,51,76,3,2,1,59.0,False
30776,3063, Note_on_c,58,76,3,2,1,67.0,False
30777,3063, Note_on_c,63,76,3,2,1,73.0,False
30778,3064, Note_on_c,61,76,3,2,1,71.0,False
30779,3064, Note_on_c,68,76,3,2,1,79.0,False
30780,3065, Note_on_c,51,76,3,2,1,59.0,False
30781,3066, Note_on_c,58,76,3,2,1,67.0,False
30782,3066, Note_on_c,63,76,3,2,1,73.0,False
30783,3067, Note_on_c,61,76,3,2,1,71.0,False
30784,3067, Note_on_c,68,76,3,2,1,79.0,False
30785,3068, Note_on_c,58,76,3,2,1,67.0,False
30786,3068, Note_on_c,63,76,3,2,1,73.0,False
30787,3069, Note_on_c,61,76,3,2,1,71.0,False
30788,3069, Note_on_c,66,76,3,2,1,77.0,False
30789,3070, Note_on_c,51,76,3,2,1,59.0,False
30790,3071, Note_on_c,58,76,3,2,1,67.0,False
30791,3071, Note_on_c,63,76,3,2,1,73.0,False
30792,3072, Note_on_c,61,76,3,2,1,71.0,False
30793,3072, Note_on_c,68,76,3,2,1,79.0,False
30794,3073, Note_on_c,51,76,3,2,1,59.0,False
30795,3074, Note_on_c,58,76,3,2,1,67.0,False
30796,3074, Note_on_c,63,76,3,2,1,73.0,False
30797,3075, Note_on_c,61,76,3,2,1,71.0,False
30798,3075, Note_on_c,68,76,3,2,1,79.0,False
30799,3076, Note_on_c,58,76,3,2,1,67.0,False
30800,3076, Note_on_c,63,76,3,2,1,73.0,False
30801,3077, Note_on_c,61,76,3,2,1,71.0,False
30802,3077, Note_on_c,66,76,3,2,1,77.0,False
30803,3078, Note_on_c,51,76,3,2,1,59.0,False
30804,3079, Note_on_c,58,76,3,2,1,67.0,False
30805,3079, Note_on_c,63,76,3,2,1,73.0,False
30806,3080, Note_on_c,61,76,3,2,1,71.0,False
30807,3080, Note_on_c,68,76,3,2,1,79.0,False
30808,3081, Note_on_c,51,76,3,2,1,59.0,False
30809,3082, Note_on_c,58,76,3,2,1,67.0,False
30810,3082, Note_on_c,63,76,3,2,1,73.0,False
30811,3083, Note_on_c,61,76,3,2,1,71.0,False
30812,3083, Note_on_c,68,76,3,2,1,79.0,False
30813,3084, Note_on_c,58,76,3,2,1,67.0,False
30814,3084, Note_on_c,63,76,3,2,1,73.0,False
30815,3085, Note_on_c,61,76,3,2,1,71.0,False
30816,3085, Note_on_c,66,76,3,2,1,77.0,False
30817,3086, Note_on_c,51,76,3,2,1,59.0,False
30818,3087, Note_on_c,58,76,3,2,1,67.0,False
30819,3087, Note_on_c,63,76,3,2,1,73.0,False
30820,3088, Note_on_c,61,76,3,2,1,71.0,False
30821,3088, Note_on_c,68,76,3,2,1,79.0,False
30822,3089, Note_on_c,51,76,3,2,1,59.0,False
30823,3090, Note_on_c,58,76,3,2,1,67.0,False
30824,3090, Note_on_c,63,76,3,2,1,73.0,False
30825,3091, Note_on_c,61,76,3,2,1,71.0,False
30826,3091, Note_on_c,68,76,3,2,1,79.0,False
30827,3092, Note_on_c,58,76,3,2,1,67.0,False
30828,3092, Note_on_c,63,76,3,2,1,73.0,False
30829,3093, Note_on_c,61,76,3,2,1,71.0,False
30830,3093, Note_on_c,66,76,3,2,1,77.0,False
30831,3094, Note_on_c,51,76,3,2,1,59.0,False
30832,3095, Note_on_c,58,76,3,2,1,67.0,False
30833,3095, Note_on_c,63,76,3,2,1,73.0,False
30834,3096, Note_on_c,61,76,3,2,1,71.0,False
30835,3096, Note_on_c,68,76,3,2,1,79.0,False
30836,3097, Note_on_c,51,76,3,2,1,59.0,False
30837,3098, Note_on_c,58,76,3,2,1,67.0,False
30838,3098, Note_on_c,63,76,3,2,1,73.0,False
30839,3099, Note_on_c,61,76,3,2,1,71.0,False
30840,3099, Note_on_c,68,76,3,2,1,79.0,False
30841,3100, Note_on_c,58,76,3,2,1,67.0,False
30842,3100, Note_on_c,63,76,3,2,1,73.0,False
30843,3101, Note_on_c,61,76,3,2,1,71.0,False
30844,3101, Note_on_c,66,76,3,2,1,77.0,False
30845,3102, Note_on_c,51,76,3,2,1,59.0,False
30846,3103, Note_on_c,58,76,3,2,1,67.0,False
30847,3103, Note_on_c,63,76,3,2,1,73.0,False
30848,3104, Note_on_c,61,76,3,2,1,71.0,False
30849,3104, Note_on_c,68,76,3,2,1,79.0,False
30850,3105, Note_on_c,51,76,3,2,1,59.0,False
30851,3106, Note_on_c,58,76,3,2,1,67.0,False
30852,3106, Note_on_c,63,76,3,2,1,73.0,False
30853,3107, Note_on_c,61,76,3,2,1,71.0,False
30854,3107, Note_on_c,68,76,3,2,1,79.0,False
30855,3108, Note_on_c,58,76,3,2,1,67.0,False
30856,3108, Note_on_c,63,76,3,2,1,73.0,False
30857,3109, Note_on_c,61,76,3,2,1,71.0,False
30858,3109, Note_on_c,66,76,3,2,1,77.0,False
30859,3110, Note_on_c,51,76,3,2,1,59.0,False
30860,3111, Note_on_c,58,76,3,2,1,67.0,False
30861,3111, Note_on_c,63,76,3,2,1,73.0,False
30862,3112, Note_on_c,61,76,3,2,1,71.0,False
30863,3112, Note_on_c,68,76,3,2,1,79.0,False
30864,3113, Note_on_c,51,76,3,2,1,59.0,False
30865,3114, Note_on_c,58,76,3,2,1,67.0,False
30866,3114, Note_on_c,63,76,3,2,1,73.0,False
30867,3115, Note_on_c,61,76,3,2,1,71.0,False
30868,3115, Note_on_c,68,76,3,2,1,79.0,False
30869,3116, Note_on_c,58,76,3,2,1,67.0,False
30870,3116, Note_on_c,63,76,3,2,1,73.0,False
30871,3117, Note_on_c,61,76,3,2,1,71.0,False
30872,3117, Note_on_c,66,76,3,2,1,77.0,False
30873,3118, Note_on_c,51,76,3,2,1,59.0,False
30874,3119, Note_on_c,58,76,3,2,1,67.0,False
30875,3119, Note_on_c,63,76,3,2,1,73.0,False
30876,3120, Note_on_c,61,76,3,2,1,71.0,False
30877,3120, Note_on_c,68,76,3,2,1,79.0,False
30878,3121, Note_on_c,51,76,3,2,1,59.0,False
30879,3122, Note_on_c,58,76,3,2,1,67.0,False
30880,3122, Note_on_c,63,76,3,2,1,73.0,False
30881,3123, Note_on_c,61,76,3,2,1,71.0,False
30882,3123, Note_on_c,68,76,3,2,1,79.0,False
30883,3124, Note_on_c,58,76,3,2,1,67.0,False
30884,3124, Note_on_c,63,76,3,2,1,73.0,False
30885,3125, Note_on_c,61,76,3,2,1,71.0,False
30886,3125, Note_on_c,66,76,3,2,1,77.0,False
30887,3126, Note_on_c,51,76,3,2,1,59.0,False
30888,3127, Note_on_c,58,76,3,2,1,67.0,False
30889,3127, Note_on_c,63,76,3,2,1,73.0,False
30890,3128, Note_on_c,61,76,3,2,1,71.0,False
30891,3128, Note_on_c,68,76,3,2,1,79.0,False
30892,3129, Note_on_c,51,76,3,2,1,59.0,False
30893,3130, Note_on_c,58,76,3,2,1,67.0,False
30894,3130, Note_on_c,63,76,3,2,1,73.0,False
30895,3131, Note_on_c,61,76,3,2,1,71.0,False
30896,3131, Note_on_c,68,76,3,2,1,79.0,False
30897,3132, Note_on_c,58,76,3,2,1,67.0,False
30898,3132, Note_on_c,63,76,3,2,1,73.0,False
30899,3133, Note_on_c,61,76,3,2,1,71.0,False
30900,3133, Note_on_c,66,76,3,2,1,77.0,False
30901,3134, Note_on_c,51,76,3,2,1,59.0,False
30902,3135, Note_on_c,58,76,3,2,1,67.0,False
30903,3135, Note_on_c,63,76,3,2,1,73.0,False
30904,3136, Note_on_c,61,76,3,2,1,71.0,False
30905,3136, Note_on_c,68,76,3,2,1,79.0,False
30906,3137, Note_on_c,51,76,3,2,1,59.0,False
30907,3138, Note_on_c,58,76,3,2,1,67.0,False
30908,3138, Note_on_c,63,76,3,2,1,73.0,False
30909,3139, Note_on_c,61,76,3,2,1,71.0,False
30910,3139, Note_on_c,68,76,3,2,1,79.0,False
30911,3140, Note_on_c,58,76,3,2,1,67.0,False
30912,3140, Note_on_c,63,76,3,2,1,73.0,False
30913,3141, Note_on_c,61,76,3,2,1,71.0,False
30914,3141, Note_on_c,66,76,3,2,1,77.0,False
30915,3142, Note_on_c,51,76,3,2,1,59.0,False
30916,3143, Note_on_c,58,76,3,2,1,67.0,False
30917,3143, Note_on_c,63,76,3,2,1,73.0,False
30918,3144, Note_on_c,61,76,3,2,1,71.0,False
30919,3144, Note_on_c,68,76,3,2,1,79.0,False
30920,3145, Note_on_c,51,76,3,2,1,59.0,False
30921,3146, Note_on_c,58,76,3,2,1,67.0,False
30922,3146, Note_on_c,63,76,3,2,1,73.0,False
30923,3147, Note_on_c,61,76,3,2,1,71.0,False
30924,3147, Note_on_c,68,76,3,2,1,79.0,False
30925,3148, Note_on_c,58,76,3,2,1,67.0,False
30926,3148, Note_on_c,63,76,3,2,1,73.0,False
30927,3149, Note_on_c,61,76,3,2,1,71.0,False
30928,3149, Note_on_c,66,76,3,2,1,77.0,False
30929,3150, Note_on_c,51,76,3,2,1,59.0,False
30930,3151, Note_on_c,58,76,3,2,1,67.0,False
30931,3151, Note_on_c,63,76,3,2,1,73.0,False
30932,3152, Note_on_c,61,76,3,2,1,71.0,False
30933,3152, Note_on_c,68,76,3,2,1,79.0,False
30934,3153, Note_on_c,51,76,3,2,1,59.0,False
30935,3154, Note_on_c,58,76,3,2,1,67.0,False
30936,3154, Note_on_c,63,76,3,2,1,73.0,False
30937,3155, Note_on_c,61,76,3,2,1,71.0,False
30938,3155, Note_on_c,68,76,3,2,1,79.0,False
30939,3156, Note_on_c,58,76,3,2,1,67.0,False
30940,3156, Note_on_c,63,76,3,2,1,73.0,False
30941,3157, Note_on_c,61,76,3,2,1,71.0,False
30942,3157, Note_on_c,66,76,3,2,1,77.0,False
30943,3158, Note_on_c,51,76,3,2,1,59.0,False
30944,3159, Note_on_c,58,76,3,2,1,67.0,False
30945,3159, Note_on_c,63,76,3,2,1,73.0,False
30946,3160, Note_on_c,61,76,3,2,1,71.0,False
30947,3160, Note_on_c,68,76,3,2,1,79.0,False
30948,3161, Note_on_c,51,76,3,2,1,59.0,False
30949,3162, Note_on_c,58,76,3,2,1,67.0,False
30950,3162, Note_on_c,63,76,3,2,1,73.0,False
30951,3163, Note_on_c,61,76,3,2,1,71.0,False
30952,3163, Note_on_c,68,76,3,2,1,79.0,False
30953,3164, Note_on_c,58,76,3,2,1,67.0,False
30954,3164, Note_on_c,63,76,3,2,1,73.0,False
30955,3165, Note_on_c,61,76,3,2,1,71.0,False
30956,3165, Note_on_c,66,76,3,2,1,77.0,False
30957,3166, Note_on_c,51,76,3,2,1,59.0,False
30958,3167, Note_on_c,58,76,3,2,1,67.0,False
30959,3167, Note_on_c,63,76,3,2,1,73.0,False
30960,3168, Note_on_c,61,76,3,2,1,71.0,False
30961,3168, Note_on_c,68,76,3,2,1,79.0,False
30962,3169, Note_on_c,51,76,3,2,1,59.0,False
30963,3170, Note_on_c,58,76,3,2,1,67.0,False
30964,3170, Note_on_c,63,76,3,2,1,73.0,False
30965,3171, Note_on_c,61,76,3,2,1,71.0,False
30966,3171, Note_on_c,68,76,3,2,1,79.0,False
30967,3172, Note_on_c,58,76,3,2,1,67.0,False
30968,3172, Note_on_c,63,76,3,2,1,73.0,False
30969,3173, Note_on_c,61,76,3,2,1,71.0,False
30970,3173, Note_on_c,66,76,3,2,1,77.0,False
30971,3174, Note_on_c,51,76,3,2,1,59.0,False
30972,3175, Note_on_c,58,76,3,2,1,67.0,False
30973,3175, Note_on_c,63,76,3,2,1,73.0,False
30974,3176, Note_on_c,61,76,3,2,1,71.0,False
30975,3176, Note_on_c,68,76,3,2,1,79.0,False
30976,3177, Note_on_c,51,76,3,2,1,59.0,False
30977,3178, Note_on_c,58,76,3,2,1,67.0,False
30978,3178, Note_on_c,63,76,3,2,1,73.0,False
30979,3179, Note_on_c,61,76,3,2,1,71.0,False
30980,3179, Note_on_c,68,76,3,2,1,79.0,False
30981,3180, Note_on_c,58,76,3,2,1,67.0,False
30982,3180, Note_on_c,63,76,3,2,1,73.0,False
30983,3181, Note_on_c,61,76,3,2,1,71.0,False
30984,3181, Note_on_c,66,76,3,2,1,77.0,False
30985,3182, Note_on_c,51,76,3,2,1,59.0,False
30986,3183, Note_on_c,58,76,3,2,1,67.0,False
30987,3183, Note_on_c,63,76,3,2,1,73.0,False
30988,3184, Note_on_c,61,76,3,2,1,71.0,False
30989,3184, Note_on_c,68,76,3,2,1,79.0,False
30990,3185, Note_on_c,51,76,3,2,1,59.0,False
30991,3186, Note_on_c,58,76,3,2,1,67.0,False
30992,3186, Note_on_c,63,76,3,2,1,73.0,False
30993,3187, Note_on_c,61,76,3,2,1,71.0,False
30994,3187, Note_on_c,68,76,3,2,1,79.0,False
30995,3188, Note_on_c,58,76,3,2,1,67.0,False
30996,3188, Note_on_c,63,76,3,2,1,73.0,False
30997,3189, Note_on_c,61,76,3,2,1,71.0,False
30998,3189, Note_on_c,66,76,3,2,1,77.0,False
30999,3190, Note_on_c,51,76,3,2,1,59.0,False
31000,3191, Note_on_c,58,76,3,2,1,67.0,False
31001,3191, Note_on_c,63,76,3,2,1,73.0,False
31002,3192, Note_on_c,61,76,3,2,1,71.0,False
31003,3192, Note_on_c,68,76,3,2,1,79.0,False
31004,3193, Note_on_c,51,76,3,2,1,59.0,False
31005,3194, Note_on_c,58,76,3,2,1,67.0,False
31006,3194, Note_on_c,63,76,3,2,1,73.0,False
31007,3195, Note_on_c,61,76,3,2,1,71.0,False
31008,3195, Note_on_c,68,76,3,2,1,79.0,False
31009,3196, Note_on_c,58,76,3,2,1,67.0,False
31010,3196, Note_on_c,63,76,3,2,1,73.0,False
31011,3197, Note_on_c,61,76,3,2,1,71.0,False
31012,3197, Note_on_c,66,76,3,2,1,77.0,False
31013,3198, Note_on_c,51,76,3,2,1,59.0,False
31014,3199, Note_on_c,58,76,3,2,1,67.0,False
31015,3199, Note_on_c,63,76,3,2,1,73.0,False
31016,3200, Note_on_c,61,76,3,2,1,71.0,False
31017,3200, Note_on_c,68,76,3,2,1,79.0,False
31018,3201, Note_on_c,51,76,3,2,1,59.0,False
31019,3202, Note_on_c,58,76,3,2,1,67.0,False
31020,3202, Note_on_c,63,76,3,2,1,73.0,False
31021,3203, Note_on_c,61,76,3,2,1,71.0,False
31022,3203, Note_on_c,68,76,3,2,1,79.0,False
31023,3204, Note_on_c,58,76,3,2,1,67.0,False
31024,3204, Note_on_c,63,76,3,2,1,73.0,False
31025,3205, Note_on_c,61,76,3,2,1,71.0,False
31026,3205, Note_on_c,66,76,3,2,1,77.0,False
31027,3206, Note_on_c,51,76,3,2,1,59.0,False
31028,3207, Note_on_c,58,76,3,2,1,67.0,False
31029,3207, Note_on_c,63,76,3,2,1,73.0,False
31030,3208, Note_on_c,61,76,3,2,1,71.0,False
31031,3208, Note_on_c,68,76,3,2,1,79.0,False
31032,3209, Note_on_c,51,76,3,2,1,59.0,False
31033,3210, Note_on_c,58,76,3,2,1,67.0,False
31034,3210, Note_on_c,63,76,3,2,1,73.0,False
31035,3211, Note_on_c,61,76,3,2,1,71.0,False
31036,3211, Note_on_c,68,76,3,2,1,79.0,False
31037,3212, Note_on_c,58,76,3,2,1,67.0,False
31038,3212, Note_on_c,63,76,3,2,1,73.0,False
31039,3213, Note_on_c,61,76,3,2,1,71.0,False
31040,3213, Note_on_c,66,76,3,2,1,77.0,False
31041,3214, Note_on_c,51,76,3,2,1,59.0,False
31042,3215, Note_on_c,58,76,3,2,1,67.0,False
31043,3215, Note_on_c,63,76,3,2,1,73.0,False
31044,3216, Note_on_c,61,76,3,2,1,71.0,False
31045,3216, Note_on_c,68,76,3,2,1,79.0,False
31046,3217, Note_on_c,51,76,3,2,1,59.0,False
31047,3218, Note_on_c,58,76,3,2,1,67.0,False
31048,3218, Note_on_c,63,76,3,2,1,73.0,False
31049,3219, Note_on_c,61,76,3,2,1,71.0,False
31050,3219, Note_on_c,68,76,3,2,1,79.0,False
31051,3220, Note_on_c,58,76,3,2,1,67.0,False
31052,3220, Note_on_c,63,76,3,2,1,73.0,False
31053,3221, Note_on_c,61,76,3,2,1,71.0,False
31054,3221, Note_on_c,66,76,3,2,1,77.0,False
31055,3222, Note_on_c,51,76,3,2,1,59.0,False
31056,3223, Note_on_c,58,76,3,2,1,67.0,False
31057,3223, Note_on_c,63,76,3,2,1,73.0,False
31058,3224, Note_on_c,61,76,3,2,1,71.0,False
31059,3224, Note_on_c,68,76,3,2,1,79.0,False
31060,3225, Note_on_c,51,76,3,2,1,59.0,False
31061,3226, Note_on_c,58,76,3,2,1,67.0,False
31062,3226, Note_on_c,63,76,3,2,1,73.0,False
31063,3227, Note_on_c,61,76,3,2,1,71.0,False
31064,3227, Note_on_c,68,76,3,2,1,79.0,False
31065,3228, Note_on_c,58,76,3,2,1,67.0,False
31066,3228, Note_on_c,63,76,3,2,1,73.0,False
31067,3229, Note_on_c,61,76,3,2,1,71.0,False
31068,3229, Note_on_c,66,76,3,2,1,77.0,False
31069,3230, Note_on_c,51,76,3,2,1,59.0,False
31070,3231, Note_on_c,58,76,3,2,1,67.0,False
31071,3231, Note_on_c,63,76,3,2,1,73.0,False
31072,3232, Note_on_c,61,76,3,2,1,71.0,False
31073,3232, Note_on_c,68,76,3,2,1,79.0,False
31074,3233, Note_on_c,51,76,3,2,1,59.0,False
31075,3234, Note_on_c,58,76,3,2,1,67.0,False
31076,3234, Note_on_c,63,76,3,2,1,73.0,False
31077,3235, Note_on_c,61,76,3,2,1,71.0,False
31078,3235, Note_on_c,68,76,3,2,1,79.0,False
31079,3236, Note_on_c,58,76,3,2,1,67.0,False
31080,3236, Note_on_c,63,76,3,2,1,73.0,False
31081,3237, Note_on_c,61,76,3,2,1,71.0,False
31082,3237, Note_on_c,66,76,3,2,1,77.0,False
31083,3238, Note_on_c,51,76,3,2,1,59.0,False
31084,3239, Note_on_c,58,76,3,2,1,67.0,False
31085,3239, Note_on_c,63,76,3,2,1,73.0,False
31086,3240, Note_on_c,61,76,3,2,1,71.0,False
31087,3240, Note_on_c,68,76,3,2,1,79.0,False
31088,3241, Note_on_c,51,76,3,2,1,59.0,False
31089,3242, Note_on_c,58,76,3,2,1,67.0,False
31090,3242, Note_on_c,63,76,3,2,1,73.0,False
31091,3243, Note_on_c,61,76,3,2,1,71.0,False
31092,3243, Note_on_c,68,76,3,2,1,79.0,False
31093,3244, Note_on_c,58,76,3,2,1,67.0,False
31094,3244, Note_on_c,63,76,3,2,1,73.0,False
31095,3245, Note_on_c,61,76,3,2,1,71.0,False
31096,3245, Note_on_c,66,76,3,2,1,77.0,False
31097,3246, Note_on_c,51,76,3,2,1,59.0,False
31098,3247, Note_on_c,58,76,3,2,1,67.0,False
31099,3247, Note_on_c,63,76,3,2,1,73.0,False
31100,3248, Note_on_c,61,76,3,2,1,71.0,False
31101,3248, Note_on_c,68,76,3,2,1,79.0,False
31102,3249, Note_on_c,51,76,3,2,1,59.0,False
31103,3250, Note_on_c,58,76,3,2,1,67.0,False
31104,3250, Note_on_c,63,76,3,2,1,73.0,False
31105,3251, Note_on_c,61,76,3,2,1,71.0,False
31106,3251, Note_on_c,68,76,3,2,1,79.0,False
31107,3252, Note_on_c,58,76,3,2,1,67.0,False
31108,3252, Note_on_c,63,76,3,2,1,73.0,False
31109,3253, Note_on_c,61,76,3,2,1,71.0,False
31110,3253, Note_on_c,66,76,3,2,1,77.0,False
31111,3254, Note_on_c,51,76,3,2,1,59.0,False
31112,3255, Note_on_c,58,76,3,2,1,67.0,False
31113,3255, Note_on_c,63,76,3,2,1,73.0,False
31114,3256, Note_on_c,61,76,3,2,1,71.0,False
31115,3256, Note_on_c,68,76,3,2,1,79.0,False
31116,3257, Note_on_c,51,76,3,2,1,59.0,False
31117,3258, Note_on_c,58,76,3,2,1,67.0,False
31118,3258, Note_on_c,63,76,3,2,1,73.0,False
31119,3259, Note_on_c,61,76,3,2,1,71.0,False
31120,3259, Note_on_c,68,76,3,2,1,79.0,False
31121,3260, Note_on_c,58,76,3,2,1,67.0,False
31122,3260, Note_on_c,63,76,3,2,1,73.0,False
31123,3261, Note_on_c,61,76,3,2,1,71.0,False
31124,3261, Note_on_c,66,76,3,2,1,77.0,False
31125,3262, Note_on_c,51,76,3,2,1,59.0,False
31126,3263, Note_on_c,58,76,3,2,1,67.0,False
31127,3263, Note_on_c,63,76,3,2,1,73.0,False
31128,3264, Note_on_c,61,76,3,2,1,71.0,False
31129,3264, Note_on_c,68,76,3,2,1,79.0,False
31130,3265, Note_on_c,51,76,3,2,1,59.0,False
31131,3266, Note_on_c,58,76,3,2,1,67.0,False
31132,3266, Note_on_c,63,76,3,2,1,73.0,False
31133,3267, Note_on_c,61,76,3,2,1,71.0,False
31134,3267, Note_on_c,68,76,3,2,1,79.0,False
31135,3268, Note_on_c,58,76,3,2,1,67.0,False
31136,3268, Note_on_c,63,76,3,2,1,73.0,False
31137,3269, Note_on_c,61,76,3,2,1,71.0,False
31138,3269, Note_on_c,66,76,3,2,1,77.0,False
31139,3270, Note_on_c,51,76,3,2,1,59.0,False
31140,3271, Note_on_c,58,76,3,2,1,67.0,False
31141,3271, Note_on_c,63,76,3,2,1,73.0,False
31142,3272, Note_on_c,61,76,3,2,1,71.0,False
31143,3272, Note_on_c,68,76,3,2,1,79.0,False
31144,3273, Note_on_c,51,76,3,2,1,59.0,False
31145,3274, Note_on_c,58,76,3,2,1,67.0,False
31146,3274, Note_on_c,63,76,3,2,1,73.0,False
31147,3275, Note_on_c,61,76,3,2,1,71.0,False
31148,3275, Note_on_c,68,76,3,2,1,79.0,False
31149,3276, Note_on_c,58,76,3,2,1,67.0,False
31150,3276, Note_on_c,63,76,3,2,1,73.0,False
31151,3277, Note_on_c,61,76,3,2,1,71.0,False
31152,3277, Note_on_c,66,76,3,2,1,77.0,False
31153,3278, Note_on_c,51,76,3,2,1,59.0,False
31154,3279, Note_on_c,58,76,3,2,1,67.0,False
31155,3279, Note_on_c,63,76,3,2,1,73.0,False
31156,3280, Note_on_c,61,76,3,2,1,71.0,False
31157,3280, Note_on_c,68,76,3,2,1,79.0,False
31158,3281, Note_on_c,51,76,3,2,1,59.0,False
31159,3282, Note_on_c,58,76,3,2,1,67.0,False
31160,3282, Note_on_c,63,76,3,2,1,73.0,False
31161,3283, Note_on_c,61,76,3,2,1,71.0,False
31162,3283, Note_on_c,68,76,3,2,1,79.0,False
31163,3284, Note_on_c,58,76,3,2,1,67.0,False
31164,3284, Note_on_c,63,76,3,2,1,73.0,False
31165,3285, Note_on_c,61,76,3,2,1,71.0,False
31166,3285, Note_on_c,66,76,3,2,1,77.0,False
31167,3286, Note_on_c,51,76,3,2,1,59.0,False
31168,3287, Note_on_c,58,76,3,2,1,67.0,False
31169,3287, Note_on_c,63,76,3,2,1,73.0,False
31170,3288, Note_on_c,61,76,3,2,1,71.0,False
31171,3288, Note_on_c,68,76,3,2,1,79.0,False
31172,3289, Note_on_c,51,76,3,2,1,59.0,False
31173,3290, Note_on_c,58,76,3,2,1,67.0,False
31174,3290, Note_on_c,63,76,3,2,1,73.0,False
31175,3291, Note_on_c,61,76,3,2,1,71.0,False
31176,3291, Note_on_c,68,76,3,2,1,79.0,False
31177,3292, Note_on_c,58,76,3,2,1,67.0,False
31178,3292, Note_on_c,63,76,3,2,1,73.0,False
31179,3293, Note_on_c,61,76,3,2,1,71.0,False
31180,3293, Note_on_c,66,76,3,2,1,77.0,False
31181,3294, Note_on_c,51,76,3,2,1,59.0,False
31182,3295, Note_on_c,58,76,3,2,1,67.0,False
31183,3295, Note_on_c,63,76,3,2,1,73.0,False
31184,3296, Note_on_c,61,76,3,2,1,71.0,False
31185,3296, Note_on_c,68,76,3,2,1,79.0,False
31186,3297, Note_on_c,51,76,3,2,1,59.0,False
31187,3298, Note_on_c,58,76,3,2,1,67.0,False
31188,3298, Note_on_c,63,76,3,2,1,73.0,False
31189,3299, Note_on_c,61,76,3,2,1,71.0,False
31190,3299, Note_on_c,68,76,3,2,1,79.0,False
31191,3300, Note_on_c,58,76,3,2,1,67.0,False
31192,3300, Note_on_c,63,76,3,2,1,73.0,False
31193,3301, Note_on_c,61,76,3,2,1,71.0,False
31194,3301, Note_on_c,66,76,3,2,1,77.0,False
31195,3302, Note_on_c,51,76,3,2,1,59.0,False
31196,3303, Note_on_c,58,76,3,2,1,67.0,False
31197,3303, Note_on_c,63,76,3,2,1,73.0,False
31198,3304, Note_on_c,61,76,3,2,1,71.0,False
31199,3304, Note_on_c,68,76,3,2,1,79.0,False
31200,3305, Note_on_c,51,76,3,2,1,59.0,False
31201,3306, Note_on_c,58,76,3,2,1,67.0,False
31202,3306, Note_on_c,63,76,3,2,1,73.0,False
31203,3307, Note_on_c,61,76,3,2,1,71.0,False
31204,3307, Note_on_c,68,76,3,2,1,79.0,False
31205,3308, Note_on_c,58,76,3,2,1,67.0,False
31206,3308, Note_on_c,63,76,3,2,1,73.0,False
31207,3309, Note_on_c,61,76,3,2,1,71.0,False
31208,3309, Note_on_c,66,76,3,2,1,77.0,False
31209,3310, Note_on_c,51,76,3,2,1,59.0,False
31210,3311, Note_on_c,58,76,3,2,1,67.0,False
31211,3311, Note_on_c,63,76,3,2,1,73.0,False
31212,3312, Note_on_c,61,76,3,2,1,71.0,False
31213,3312, Note_on_c,68,76,3,2,1,79.0,False
31214,3313, Note_on_c,51,76,3,2,1,59.0,False
31215,3314, Note_on_c,58,76,3,2,1,67.0,False
31216,3314, Note_on_c,63,76,3,2,1,73.0,False
31217,3315, Note_on_c,61,76,3,2,1,71.0,False
31218,3315, Note_on_c,68,76,3,2,1,79.0,False
31219,3316, Note_on_c,58,76,3,2,1,67.0,False
31220,3316, Note_on_c,63,76,3,2,1,73.0,False
31221,3317, Note_on_c,61,76,3,2,1,71.0,False
31222,3317, Note_on_c,66,76,3,2,1,77.0,False
31223,3318, Note_on_c,51,76,3,2,1,59.0,False
31224,3319, Note_on_c,58,76,3,2,1,67.0,False
31225,3319, Note_on_c,63,76,3,2,1,73.0,False
31226,3320, Note_on_c,61,76,3,2,1,71.0,False
31227,3320, Note_on_c,68,76,3,2,1,79.0,False
31228,3321, Note_on_c,51,76,3,2,1,59.0,False
31229,3322, Note_on_c,58,76,3,2,1,67.0,False
31230,3322, Note_on_c,63,76,3,2,1,73.0,False
31231,3323, Note_on_c,61,76,3,2,1,71.0,False
31232,3323, Note_on_c,68,76,3,2,1,79.0,False
31233,3324, Note_on_c,58,76,3,2,1,67.0,False
31234,3324, Note_on_c,63,76,3,2,1,73.0,False
31235,3325, Note_on_c,61,76,3,2,1,71.0,False
31236,3325, Note_on_c,66,76,3,2,1,77.0,False
31237,3326, Note_on_c,51,76,3,2,1,59.0,False
31238,3327, Note_on_c,58,76,3,2,1,67.0,False
31239,3327, Note_on_c,63,76,3,2,1,73.0,False
31240,3328, Note_on_c,61,76,3,2,1,71.0,False
31241,3328, Note_on_c,68,76,3,2,1,79.0,False
31242,3329, Note_on_c,51,76,3,2,1,59.0,False
31243,3330, Note_on_c,58,76,3,2,1,67.0,False
31244,3330, Note_on_c,63,76,3,2,1,73.0,False
31245,3331, Note_on_c,61,76,3,2,1,71.0,False
31246,3331, Note_on_c,68,76,3,2,1,79.0,False
31247,3332, Note_on_c,58,76,3,2,1,67.0,False
31248,3332, Note_on_c,63,76,3,2,1,73.0,False
31249,3333, Note_on_c,61,76,3,2,1,71.0,False
31250,3333, Note_on_c,66,76,3,2,1,77.0,False
31251,3334, Note_on_c,51,76,3,2,1,59.0,False
31252,3335, Note_on_c,58,76,3,2,1,67.0,False
31253,3335, Note_on_c,63,76,3,2,1,73.0,False
31254,3336, Note_on_c,61,76,3,2,1,71.0,False
31255,3336, Note_on_c,68,76,3,2,1,79.0,False
31256,3337, Note_on_c,51,76,3,2,1,59.0,False
31257,3338, Note_on_c,58,76,3,2,1,67.0,False
31258,3338, Note_on_c,63,76,3,2,1,73.0,False
31259,3339, Note_on_c,61,76,3,2,1,71.0,False
31260,3339, Note_on_c,68,76,3,2,1,79.0,False
31261,3340, Note_on_c,58,76,3,2,1,67.0,False
31262,3340, Note_on_c,63,76,3,2,1,73.0,False
31263,3341, Note_on_c,61,76,3,2,1,71.0,False
31264,3341, Note_on_c,66,76,3,2,1,77.0,False
31265,3342, Note_on_c,51,76,3,2,1,59.0,False
31266,3343, Note_on_c,58,76,3,2,1,67.0,False
31267,3343, Note_on_c,63,76,3,2,1,73.0,False
31268,3344, Note_on_c,61,76,3,2,1,71.0,False
31269,3344, Note_on_c,68,76,3,2,1,79.0,False
31270,3345, Note_on_c,51,76,3,2,1,59.0,False
31271,3346, Note_on_c,58,76,3,2,1,67.0,False
31272,3346, Note_on_c,63,76,3,2,1,73.0,False
31273,3347, Note_on_c,61,76,3,2,1,71.0,False
31274,3347, Note_on_c,68,76,3,2,1,79.0,False
31275,3348, Note_on_c,58,76,3,2,1,67.0,False
31276,3348, Note_on_c,63,76,3,2,1,73.0,False
31277,3349, Note_on_c,61,76,3,2,1,71.0,False
31278,3349, Note_on_c,66,76,3,2,1,77.0,False
31279,3350, Note_on_c,51,76,3,2,1,59.0,False
31280,3351, Note_on_c,58,76,3,2,1,67.0,False
31281,3351, Note_on_c,63,76,3,2,1,73.0,False
31282,3352, Note_on_c,61,76,3,2,1,71.0,False
31283,3352, Note_on_c,68,76,3,2,1,79.0,False
31284,3353, Note_on_c,51,76,3,2,1,59.0,False
31285,3354, Note_on_c,58,76,3,2,1,67.0,False
31286,3354, Note_on_c,63,76,3,2,1,73.0,False
31287,3355, Note_on_c,61,76,3,2,1,71.0,False
31288,3355, Note_on_c,68,76,3,2,1,79.0,False
31289,3356, Note_on_c,58,76,3,2,1,67.0,False
31290,3356, Note_on_c,63,76,3,2,1,73.0,False
31291,3357, Note_on_c,61,76,3,2,1,71.0,False
31292,3357, Note_on_c,66,76,3,2,1,77.0,False
31293,3358, Note_on_c,51,76,3,2,1,59.0,False
31294,3359, Note_on_c,58,76,3,2,1,67.0,False
31295,3359, Note_on_c,63,76,3,2,1,73.0,False
31296,3360, Note_on_c,61,76,3,2,1,71.0,False
31297,3360, Note_on_c,68,76,3,2,1,79.0,False
31298,3361, Note_on_c,51,76,3,2,1,59.0,False
31299,3362, Note_on_c,58,76,3,2,1,67.0,False
31300,3362, Note_on_c,63,76,3,2,1,73.0,False
31301,3363, Note_on_c,61,76,3,2,1,71.0,False
31302,3363, Note_on_c,68,76,3,2,1,79.0,False
31303,3364, Note_on_c,58,76,3,2,1,67.0,False
31304,3364, Note_on_c,63,76,3,2,1,73.0,False
31305,3365, Note_on_c,61,76,3,2,1,71.0,False
31306,3365, Note_on_c,66,76,3,2,1,77.0,False
31307,3366, Note_on_c,51,76,3,2,1,59.0,False
31308,3367, Note_on_c,58,76,3,2,1,67.0,False
31309,3367, Note_on_c,63,76,3,2,1,73.0,False
31310,3368, Note_on_c,61,76,3,2,1,71.0,False
31311,3368, Note_on_c,68,76,3,2,1,79.0,False
31312,3369, Note_on_c,51,76,3,2,1,59.0,False
31313,3370, Note_on_c,58,76,3,2,1,67.0,False
31314,3370, Note_on_c,63,76,3,2,1,73.0,False
31315,3371, Note_on_c,61,76,3,2,1,71.0,False
31316,3371, Note_on_c,68,76,3,2,1,79.0,False
31317,3372, Note_on_c,58,76,3,2,1,67.0,False
31318,3372, Note_on_c,63,76,3,2,1,73.0,False
31319,3373, Note_on_c,61,76,3,2,1,71.0,False
31320,3373, Note_on_c,66,76,3,2,1,77.0,False
31321,3374, Note_on_c,51,76,3,2,1,59.0,False
31322,3375, Note_on_c,58,76,3,2,1,67.0,False
31323,3375, Note_on_c,63,76,3,2,1,73.0,False
31324,3376, Note_on_c,61,76,3,2,1,71.0,False
31325,3376, Note_on_c,68,76,3,2,1,79.0,False
31326,3377, Note_on_c,51,76,3,2,1,59.0,False
31327,3378, Note_on_c,58,76,3,2,1,67.0,False
31328,3378, Note_on_c,63,76,3,2,1,73.0,False
31329,3379, Note_on_c,61,76,3,2,1,71.0,False
31330,3379, Note_on_c,68,76,3,2,1,79.0,False
31331,3380, Note_on_c,58,76,3,2,1,67.0,False
31332,3380, Note_on_c,63,76,3,2,1,73.0,False
31333,3381, Note_on_c,61,76,3,2,1,71.0,False
31334,3381, Note_on_c,66,76,3,2,1,77.0,False
31335,3382, Note_on_c,51,76,3,2,1,59.0,False
31336,3383, Note_on_c,58,76,3,2,1,67.0,False
31337,3383, Note_on_c,63,76,3,2,1,73.0,False
31338,3384, Note_on_c,61,76,3,2,1,71.0,False
31339,3384, Note_on_c,68,76,3,2,1,79.0,False
31340,3385, Note_on_c,51,76,3,2,1,59.0,False
31341,3386, Note_on_c,58,76,3,2,1,67.0,False
31342,3386, Note_on_c,63,76,3,2,1,73.0,False
31343,3387, Note_on_c,61,76,3,2,1,71.0,False
31344,3387, Note_on_c,68,76,3,2,1,79.0,False
31345,3388, Note_on_c,58,76,3,2,1,67.0,False
31346,3388, Note_on_c,63,76,3,2,1,73.0,False
31347,3389, Note_on_c,61,76,3,2,1,71.0,False
31348,3389, Note_on_c,66,76,3,2,1,77.0,False
31349,3390, Note_on_c,51,76,3,2,1,59.0,False
31350,3391, Note_on_c,58,76,3,2,1,67.0,False
31351,3391, Note_on_c,63,76,3,2,1,73.0,False
31352,3392, Note_on_c,61,76,3,2,1,71.0,False
31353,3392, Note_on_c,68,76,3,2,1,79.0,False
31354,3393, Note_on_c,51,76,3,2,1,59.0,False
31355,3394, Note_on_c,58,76,3,2,1,67.0,False
31356,3394, Note_on_c,63,76,3,2,1,73.0,False
31357,3395, Note_on_c,61,76,3,2,1,71.0,False
31358,3395, Note_on_c,68,76,3,2,1,79.0,False
31359,3396, Note_on_c,58,76,3,2,1,67.0,False
31360,3396, Note_on_c,63,76,3,2,1,73.0,False
31361,3397, Note_on_c,61,76,3,2,1,71.0,False
31362,3397, Note_on_c,66,76,3,2,1,77.0,False
31363,3398, Note_on_c,51,76,3,2,1,59.0,False
31364,3399, Note_on_c,58,76,3,2,1,67.0,False
31365,3399, Note_on_c,63,76,3,2,1,73.0,False
31366,3400, Note_on_c,61,76,3,2,1,71.0,False
31367,3400, Note_on_c,68,76,3,2,1,79.0,False
31368,3401, Note_on_c,51,76,3,2,1,59.0,False
31369,3402, Note_on_c,58,76,3,2,1,67.0,False
31370,3402, Note_on_c,63,76,3,2,1,73.0,False
31371,3403, Note_on_c,61,76,3,2,1,71.0,False
31372,3403, Note_on_c,68,76,3,2,1,79.0,False
31373,3404, Note_on_c,58,76,3,2,1,67.0,False
31374,3404, Note_on_c,63,76,3,2,1,73.0,False
31375,3405, Note_on_c,61,76,3,2,1,71.0,False
31376,3405, Note_on_c,66,76,3,2,1,77.0,False
31377,3406, Note_on_c,51,76,3,2,1,59.0,False
31378,3407, Note_on_c,58,76,3,2,1,67.0,False
31379,3407, Note_on_c,63,76,3,2,1,73.0,False
31380,3408, Note_on_c,61,76,3,2,1,71.0,False
31381,3408, Note_on_c,68,76,3,2,1,79.0,False
31382,3409, Note_on_c,51,76,3,2,1,59.0,False
31383,3410, Note_on_c,58,76,3,2,1,67.0,False
31384,3410, Note_on_c,63,76,3,2,1,73.0,False
31385,3411, Note_on_c,61,76,3,2,1,71.0,False
31386,3411, Note_on_c,68,76,3,2,1,79.0,False
31387,3412, Note_on_c,58,76,3,2,1,67.0,False
31388,3412, Note_on_c,63,76,3,2,1,73.0,False
31389,3413, Note_on_c,61,76,3,2,1,71.0,False
31390,3413, Note_on_c,66,76,3,2,1,77.0,False
31391,3414, Note_on_c,51,76,3,2,1,59.0,False
31392,3415, Note_on_c,58,76,3,2,1,67.0,False
31393,3415, Note_on_c,63,76,3,2,1,73.0,False
31394,3416, Note_on_c,61,76,3,2,1,71.0,False
31395,3416, Note_on_c,68,76,3,2,1,79.0,False
31396,3417, Note_on_c,51,76,3,2,1,59.0,False
31397,3418, Note_on_c,58,76,3,2,1,67.0,False
31398,3418, Note_on_c,63,76,3,2,1,73.0,False
31399,3419, Note_on_c,61,76,3,2,1,71.0,False
31400,3419, Note_on_c,68,76,3,2,1,79.0,False
31401,3420, Note_on_c,58,76,3,2,1,67.0,False
31402,3420, Note_on_c,63,76,3,2,1,73.0,False
31403,3421, Note_on_c,61,76,3,2,1,71.0,False
31404,3421, Note_on_c,66,76,3,2,1,77.0,False
31405,3422, Note_on_c,51,76,3,2,1,59.0,False
31406,3423, Note_on_c,58,76,3,2,1,67.0,False
31407,3423, Note_on_c,63,76,3,2,1,73.0,False
31408,3424, Note_on_c,61,76,3,2,1,71.0,False
31409,3424, Note_on_c,68,76,3,2,1,79.0,False
31410,3425, Note_on_c,51,76,3,2,1,59.0,False
31411,3426, Note_on_c,58,76,3,2,1,67.0,False
31412,3426, Note_on_c,63,76,3,2,1,73.0,False
31413,3427, Note_on_c,61,76,3,2,1,71.0,False
31414,3427, Note_on_c,68,76,3,2,1,79.0,False
31415,3428, Note_on_c,58,76,3,2,1,67.0,False
31416,3428, Note_on_c,63,76,3,2,1,73.0,False
31417,3429, Note_on_c,61,76,3,2,1,71.0,False
31418,3429, Note_on_c,66,76,3,2,1,77.0,False
31419,3430, Note_on_c,51,76,3,2,1,59.0,False
31420,3431, Note_on_c,58,76,3,2,1,67.0,False
31421,3431, Note_on_c,63,76,3,2,1,73.0,False
31422,3432, Note_on_c,61,76,3,2,1,71.0,False
31423,3432, Note_on_c,68,76,3,2,1,79.0,False
31424,3433, Note_on_c,51,76,3,2,1,59.0,False
31425,3434, Note_on_c,58,76,3,2,1,67.0,False
31426,3434, Note_on_c,63,76,3,2,1,73.0,False
31427,3435, Note_on_c,61,76,3,2,1,71.0,False
31428,3435, Note_on_c,68,76,3,2,1,79.0,False
31429,3436, Note_on_c,58,76,3,2,1,67.0,False
31430,3436, Note_on_c,63,76,3,2,1,73.0,False
31431,3437, Note_on_c,61,76,3,2,1,71.0,False
31432,3437, Note_on_c,66,76,3,2,1,77.0,False
31433,3438, Note_on_c,51,76,3,2,1,59.0,False
31434,3439, Note_on_c,58,76,3,2,1,67.0,False
31435,3439, Note_on_c,63,76,3,2,1,73.0,False
31436,3440, Note_on_c,61,76,3,2,1,71.0,False
31437,3440, Note_on_c,68,76,3,2,1,79.0,False
31438,3441, Note_on_c,51,76,3,2,1,59.0,False
31439,3442, Note_on_c,58,76,3,2,1,67.0,False
31440,3442, Note_on_c,63,76,3,2,1,73.0,False
31441,3443, Note_on_c,61,76,3,2,1,71.0,False
31442,3443, Note_on_c,68,76,3,2,1,79.0,False
31443,3444, Note_on_c,58,76,3,2,1,67.0,False
31444,3444, Note_on_c,63,76,3,2,1,73.0,False
31445,3445, Note_on_c,61,76,3,2,1,71.0,False
31446,3445, Note_on_c,66,76,3,2,1,77.0,False
31447,3446, Note_on_c,51,76,3,2,1,59.0,False
31448,3447, Note_on_c,58,76,3,2,1,67.0,False
31449,3447, Note_on_c,63,76,3,2,1,73.0,False
31450,3448, Note_on_c,61,76,3,2,1,71.0,False
31451,3448, Note_on_c,68,76,3,2,1,79.0,False
31452,3449, Note_on_c,51,76,3,2,1,59.0,False
31453,3450, Note_on_c,58,76,3,2,1,67.0,False
31454,3450, Note_on_c,63,76,3,2,1,73.0,False
31455,3451, Note_on_c,61,76,3,2,1,71.0,False
31456,3451, Note_on_c,68,76,3,2,1,79.0,False
31457,3452, Note_on_c,58,76,3,2,1,67.0,False
31458,3452, Note_on_c,63,76,3,2,1,73.0,False
31459,3453, Note_on_c,61,76,3,2,1,71.0,False
31460,3453, Note_on_c,66,76,3,2,1,77.0,False
31461,3454, Note_on_c,51,76,3,2,1,59.0,False
31462,3455, Note_on_c,58,76,3,2,1,67.0,False
31463,3455, Note_on_c,63,76,3,2,1,73.0,False
31464,3456, Note_on_c,61,76,3,2,1,71.0,False
31465,3456, Note_on_c,68,76,3,2,1,79.0,False
31466,3457, Note_on_c,51,76,3,2,1,59.0,False
31467,3458, Note_on_c,58,76,3,2,1,67.0,False
31468,3458, Note_on_c,63,76,3,2,1,73.0,False
31469,3459, Note_on_c,61,76,3,2,1,71.0,False
31470,3459, Note_on_c,68,76,3,2,1,79.0,False
31471,3460, Note_on_c,58,76,3,2,1,67.0,False
31472,3460, Note_on_c,63,76,3,2,1,73.0,False
31473,3461, Note_on_c,61,76,3,2,1,71.0,False
31474,3461, Note_on_c,66,76,3,2,1,77.0,False
31475,3462, Note_on_c,51,76,3,2,1,59.0,False
31476,3463, Note_on_c,58,76,3,2,1,67.0,False
31477,3463, Note_on_c,63,76,3,2,1,73.0,False
31478,3464, Note_on_c,61,76,3,2,1,71.0,False
31479,3464, Note_on_c,68,76,3,2,1,79.0,False
31480,3465, Note_on_c,51,76,3,2,1,59.0,False
31481,3466, Note_on_c,58,76,3,2,1,67.0,False
31482,3466, Note_on_c,63,76,3,2,1,73.0,False
31483,3467, Note_on_c,61,76,3,2,1,71.0,False
31484,3467, Note_on_c,68,76,3,2,1,79.0,False
31485,3468, Note_on_c,58,76,3,2,1,67.0,False
31486,3468, Note_on_c,63,76,3,2,1,73.0,False
31487,3469, Note_on_c,61,76,3,2,1,71.0,False
31488,3469, Note_on_c,66,76,3,2,1,77.0,False
31489,3470, Note_on_c,51,76,3,2,1,59.0,False
31490,3471, Note_on_c,58,76,3,2,1,67.0,False
31491,3471, Note_on_c,63,76,3,2,1,73.0,False
31492,3472, Note_on_c,61,76,3,2,1,71.0,False
31493,3472, Note_on_c,68,76,3,2,1,79.0,False
31494,3473, Note_on_c,51,76,3,2,1,59.0,False
31495,3474, Note_on_c,58,76,3,2,1,67.0,False
31496,3474, Note_on_c,63,76,3,2,1,73.0,False
31497,3475, Note_on_c,61,76,3,2,1,71.0,False
31498,3475, Note_on_c,68,76,3,2,1,79.0,False
31499,3476, Note_on_c,58,76,3,2,1,67.0,False
31500,3476, Note_on_c,63,76,3,2,1,73.0,False
31501,3477, Note_on_c,61,76,3,2,1,71.0,False
31502,3477, Note_on_c,66,76,3,2,1,77.0,False
31503,3478, Note_on_c,51,76,3,2,1,59.0,False
31504,3479, Note_on_c,58,76,3,2,1,67.0,False
31505,3479, Note_on_c,63,76,3,2,1,73.0,False
31506,3480, Note_on_c,61,76,3,2,1,71.0,False
31507,3480, Note_on_c,68,76,3,2,1,79.0,False
31508,3481, Note_on_c,51,76,3,2,1,59.0,False
31509,3482, Note_on_c,58,76,3,2,1,67.0,False
31510,3482, Note_on_c,63,76,3,2,1,73.0,False
31511,3483, Note_on_c,61,76,3,2,1,71.0,False
31512,3483, Note_on_c,68,76,3,2,1,79.0,False
31513,3484, Note_on_c,58,76,3,2,1,67.0,False
31514,3484, Note_on_c,63,76,3,2,1,73.0,False
31515,3485, Note_on_c,61,76,3,2,1,71.0,False
31516,3485, Note_on_c,66,76,3,2,1,77.0,False
31517,3486, Note_on_c,51,76,3,2,1,59.0,False
31518,3487, Note_on_c,58,76,3,2,1,67.0,False
31519,3487, Note_on_c,63,76,3,2,1,73.0,False
31520,3488, Note_on_c,61,76,3,2,1,71.0,False
31521,3488, Note_on_c,68,76,3,2,1,79.0,False
31522,3489, Note_on_c,51,76,3,2,1,59.0,False
31523,3490, Note_on_c,58,76,3,2,1,67.0,False
31524,3490, Note_on_c,63,76,3,2,1,73.0,False
31525,3491, Note_on_c,61,76,3,2,1,71.0,False
31526,3491, Note_on_c,68,76,3,2,1,79.0,False
31527,3492, Note_on_c,58,76,3,2,1,67.0,False
31528,3492, Note_on_c,63,76,3,2,1,73.0,False
31529,3493, Note_on_c,61,76,3,2,1,71.0,False
31530,3493, Note_on_c,66,76,3,2,1,77.0,False
31531,3494, Note_on_c,51,76,3,2,1,59.0,False
31532,3495, Note_on_c,58,76,3,2,1,67.0,False
31533,3495, Note_on_c,63,76,3,2,1,73.0,False
31534,3496, Note_on_c,61,76,3,2,1,71.0,False
31535,3496, Note_on_c,68,76,3,2,1,79.0,False
31536,3497, Note_on_c,51,76,3,2,1,59.0,False
31537,3498, Note_on_c,58,76,3,2,1,67.0,False
31538,3498, Note_on_c,63,76,3,2,1,73.0,False
31539,3499, Note_on_c,61,76,3,2,1,71.0,False
31540,3499, Note_on_c,68,76,3,2,1,79.0,False
31541,3500, Note_on_c,58,76,3,2,1,67.0,False
31542,3500, Note_on_c,63,76,3,2,1,73.0,False
31543,3501, Note_on_c,61,76,3,2,1,71.0,False
31544,3501, Note_on_c,66,76,3,2,1,77.0,False
31545,3502, Note_on_c,51,76,3,2,1,59.0,False
31546,3503, Note_on_c,58,76,3,2,1,67.0,False
31547,3503, Note_on_c,63,76,3,2,1,73.0,False
31548,3504, Note_on_c,61,76,3,2,1,71.0,False
31549,3504, Note_on_c,68,76,3,2,1,79.0,False
31550,3505, Note_on_c,51,76,3,2,1,59.0,False
31551,3506, Note_on_c,58,76,3,2,1,67.0,False
31552,3506, Note_on_c,63,76,3,2,1,73.0,False
31553,3507, Note_on_c,61,76,3,2,1,71.0,False
31554,3507, Note_on_c,68,76,3,2,1,79.0,False
31555,3508, Note_on_c,58,76,3,2,1,67.0,False
31556,3508, Note_on_c,63,76,3,2,1,73.0,False
31557,3509, Note_on_c,61,76,3,2,1,71.0,False
31558,3509, Note_on_c,66,76,3,2,1,77.0,False
31559,3510, Note_on_c,51,76,3,2,1,59.0,False
31560,3511, Note_on_c,58,76,3,2,1,67.0,False
31561,3511, Note_on_c,63,76,3,2,1,73.0,False
31562,3512, Note_on_c,61,76,3,2,1,71.0,False
31563,3512, Note_on_c,68,76,3,2,1,79.0,False
31564,3513, Note_on_c,51,76,3,2,1,59.0,False
31565,3514, Note_on_c,58,76,3,2,1,67.0,False
31566,3514, Note_on_c,63,76,3,2,1,73.0,False
31567,3515, Note_on_c,61,76,3,2,1,71.0,False
31568,3515, Note_on_c,68,76,3,2,1,79.0,False
31569,3516, Note_on_c,58,76,3,2,1,67.0,False
31570,3516, Note_on_c,63,76,3,2,1,73.0,False
31571,3517, Note_on_c,61,76,3,2,1,71.0,False
31572,3517, Note_on_c,66,76,3,2,1,77.0,False
31573,3518, Note_on_c,51,76,3,2,1,59.0,False
31574,3519, Note_on_c,58,76,3,2,1,67.0,False
31575,3519, Note_on_c,63,76,3,2,1,73.0,False
31576,3520, Note_on_c,61,76,3,2,1,71.0,False
31577,3520, Note_on_c,68,76,3,2,1,79.0,False
31578,3521, Note_on_c,51,76,3,2,1,59.0,False
31579,3522, Note_on_c,58,76,3,2,1,67.0,False
31580,3522, Note_on_c,63,76,3,2,1,73.0,False
31581,3523, Note_on_c,61,76,3,2,1,71.0,False
31582,3523, Note_on_c,68,76,3,2,1,79.0,False
31583,3524, Note_on_c,58,76,3,2,1,67.0,False
31584,3524, Note_on_c,63,76,3,2,1,73.0,False
31585,3525, Note_on_c,61,76,3,2,1,71.0,False
31586,3525, Note_on_c,66,76,3,2,1,77.0,False
31587,3526, Note_on_c,51,76,3,2,1,59.0,False
31588,3527, Note_on_c,58,76,3,2,1,67.0,False
31589,3527, Note_on_c,63,76,3,2,1,73.0,False
31590,3528, Note_on_c,61,76,3,2,1,71.0,False
31591,3528, Note_on_c,68,76,3,2,1,79.0,False
31592,3529, Note_on_c,51,76,3,2,1,59.0,False
31593,3530, Note_on_c,58,76,3,2,1,67.0,False
31594,3530, Note_on_c,63,76,3,2,1,73.0,False
31595,3531, Note_on_c,61,76,3,2,1,71.0,False
31596,3531, Note_on_c,68,76,3,2,1,79.0,False
31597,3532, Note_on_c,58,76,3,2,1,67.0,False
31598,3532, Note_on_c,63,76,3,2,1,73.0,False
31599,3533, Note_on_c,61,76,3,2,1,71.0,False
31600,3533, Note_on_c,66,76,3,2,1,77.0,False
31601,3534, Note_on_c,51,76,3,2,1,59.0,False
31602,3535, Note_on_c,58,76,3,2,1,67.0,False
31603,3535, Note_on_c,63,76,3,2,1,73.0,False
31604,3536, Note_on_c,61,76,3,2,1,71.0,False
31605,3536, Note_on_c,68,76,3,2,1,79.0,False
31606,3537, Note_on_c,51,76,3,2,1,59.0,False
31607,3538, Note_on_c,58,76,3,2,1,67.0,False
31608,3538, Note_on_c,63,76,3,2,1,73.0,False
31609,3539, Note_on_c,61,76,3,2,1,71.0,False
31610,3539, Note_on_c,68,76,3,2,1,79.0,False
31611,3540, Note_on_c,58,76,3,2,1,67.0,False
31612,3540, Note_on_c,63,76,3,2,1,73.0,False
31613,3541, Note_on_c,61,76,3,2,1,71.0,False
31614,3541, Note_on_c,66,76,3,2,1,77.0,False
31615,3542, Note_on_c,51,76,3,2,1,59.0,False
31616,3543, Note_on_c,58,76,3,2,1,67.0,False
31617,3543, Note_on_c,63,76,3,2,1,73.0,False
31618,3544, Note_on_c,61,76,3,2,1,71.0,False
31619,3544, Note_on_c,68,76,3,2,1,79.0,False
31620,3545, Note_on_c,51,76,3,2,1,59.0,False
31621,3546, Note_on_c,58,76,3,2,1,67.0,False
31622,3546, Note_on_c,63,76,3,2,1,73.0,False
31623,3547, Note_on_c,61,76,3,2,1,71.0,False
31624,3547, Note_on_c,68,76,3,2,1,79.0,False
31625,3548, Note_on_c,58,76,3,2,1,67.0,False
31626,3548, Note_on_c,63,76,3,2,1,73.0,False
31627,3549, Note_on_c,61,76,3,2,1,71.0,False
31628,3549, Note_on_c,66,76,3,2,1,77.0,False
31629,3550, Note_on_c,51,76,3,2,1,59.0,False
31630,3551, Note_on_c,58,76,3,2,1,67.0,False
31631,3551, Note_on_c,63,76,3,2,1,73.0,False
31632,3552, Note_on_c,61,76,3,2,1,71.0,False
31633,3552, Note_on_c,68,76,3,2,1,79.0,False
31634,3553, Note_on_c,51,76,3,2,1,59.0,False
31635,3554, Note_on_c,58,76,3,2,1,67.0,False
31636,3554, Note_on_c,63,76,3,2,1,73.0,False
31637,3555, Note_on_c,61,76,3,2,1,71.0,False
31638,3555, Note_on_c,68,76,3,2,1,79.0,False
31639,3556, Note_on_c,58,76,3,2,1,67.0,False
31640,3556, Note_on_c,63,76,3,2,1,73.0,False
31641,3557, Note_on_c,61,76,3,2,1,71.0,False
31642,3557, Note_on_c,66,76,3,2,1,77.0,False
31643,3558, Note_on_c,51,76,3,2,1,59.0,False
31644,3559, Note_on_c,58,76,3,2,1,67.0,False
31645,3559, Note_on_c,63,76,3,2,1,73.0,False
31646,3560, Note_on_c,61,76,3,2,1,71.0,False
31647,3560, Note_on_c,68,76,3,2,1,79.0,False
31648,3561, Note_on_c,51,76,3,2,1,59.0,False
31649,3562, Note_on_c,58,76,3,2,1,67.0,False
31650,3562, Note_on_c,63,76,3,2,1,73.0,False
31651,3563, Note_on_c,61,76,3,2,1,71.0,False
31652,3563, Note_on_c,68,76,3,2,1,79.0,False
31653,3564, Note_on_c,58,76,3,2,1,67.0,False
31654,3564, Note_on_c,63,76,3,2,1,73.0,False
31655,3565, Note_on_c,61,76,3,2,1,71.0,False
31656,3565, Note_on_c,66,76,3,2,1,77.0,False
31657,3566, Note_on_c,51,76,3,2,1,59.0,False
31658,3567, Note_on_c,58,76,3,2,1,67.0,False
31659,3567, Note_on_c,63,76,3,2,1,73.0,False
31660,3568, Note_on_c,61,76,3,2,1,71.0,False
31661,3568, Note_on_c,68,76,3,2,1,79.0,False
31662,3569, Note_on_c,51,76,3,2,1,59.0,False
31663,3570, Note_on_c,58,76,3,2,1,67.0,False
31664,3570, Note_on_c,63,76,3,2,1,73.0,False
31665,3571, Note_on_c,61,76,3,2,1,71.0,False
31666,3571, Note_on_c,68,76,3,2,1,79.0,False
31667,3572, Note_on_c,58,76,3,2,1,67.0,False
31668,3572, Note_on_c,63,76,3,2,1,73.0,False
31669,3573, Note_on_c,61,76,3,2,1,71.0,False
31670,3573, Note_on_c,66,76,3,2,1,77.0,False
31671,3574, Note_on_c,51,76,3,2,1,59.0,False
31672,3575, Note_on_c,58,76,3,2,1,67.0,False
31673,3575, Note_on_c,63,76,3,2,1,73.0,False
31674,3576, Note_on_c,61,76,3,2,1,71.0,False
31675,3576, Note_on_c,68,76,3,2,1,79.0,False
31676,3577, Note_on_c,51,76,3,2,1,59.0,False
31677,3578, Note_on_c,58,76,3,2,1,67.0,False
31678,3578, Note_on_c,63,76,3,2,1,73.0,False
31679,3579, Note_on_c,61,76,3,2,1,71.0,False
31680,3579, Note_on_c,68,76,3,2,1,79.0,False
31681,3580, Note_on_c,58,76,3,2,1,67.0,False
31682,3580, Note_on_c,63,76,3,2,1,73.0,False
31683,3581, Note_on_c,61,76,3,2,1,71.0,False
31684,3581, Note_on_c,66,76,3,2,1,77.0,False
31685,3582, Note_on_c,51,76,3,2,1,59.0,False
31686,3583, Note_on_c,58,76,3,2,1,67.0,False
31687,3583, Note_on_c,63,76,3,2,1,73.0,False
31688,3584, Note_on_c,61,76,3,2,1,71.0,False
31689,3584, Note_on_c,68,76,3,2,1,79.0,False
31690,3585, Note_on_c,51,76,3,2,1,59.0,False
31691,3586, Note_on_c,58,76,3,2,1,67.0,False
31692,3586, Note_on_c,63,76,3,2,1,73.0,False
31693,3587, Note_on_c,61,76,3,2,1,71.0,False
31694,3587, Note_on_c,68,76,3,2,1,79.0,False
31695,3588, Note_on_c,58,76,3,2,1,67.0,False
31696,3588, Note_on_c,63,76,3,2,1,73.0,False
31697,3589, Note_on_c,61,76,3,2,1,71.0,False
31698,3589, Note_on_c,66,76,3,2,1,77.0,False
31699,3590, Note_on_c,51,76,3,2,1,59.0,False
31700,3591, Note_on_c,58,76,3,2,1,67.0,False
31701,3591, Note_on_c,63,76,3,2,1,73.0,False
31702,3592, Note_on_c,61,76,3,2,1,71.0,False
31703,3592, Note_on_c,68,76,3,2,1,79.0,False
31704,3593, Note_on_c,51,76,3,2,1,59.0,False
31705,3594, Note_on_c,58,76,3,2,1,67.0,False
31706,3594, Note_on_c,63,76,3,2,1,73.0,False
31707,3595, Note_on_c,61,76,3,2,1,71.0,False
31708,3595, Note_on_c,68,76,3,2,1,79.0,False
31709,3596, Note_on_c,58,76,3,2,1,67.0,False
31710,3596, Note_on_c,63,76,3,2,1,73.0,False
31711,3597, Note_on_c,61,76,3,2,1,71.0,False
31712,3597, Note_on_c,66,76,3,2,1,77.0,False
31713,3598, Note_on_c,51,76,3,2,1,59.0,False
31714,3599, Note_on_c,58,76,3,2,1,67.0,False
31715,3599, Note_on_c,63,76,3,2,1,73.0,False
31716,3600, Note_on_c,61,76,3,2,1,71.0,False
31717,3600, Note_on_c,68,76,3,2,1,79.0,False
31718,3601, Note_on_c,51,76,3,2,1,59.0,False
31719,3602, Note_on_c,58,76,3,2,1,67.0,False
31720,3602, Note_on_c,63,76,3,2,1,73.0,False
31721,3603, Note_on_c,61,76,3,2,1,71.0,False
31722,3603, Note_on_c,68,76,3,2,1,79.0,False
31723,3604, Note_on_c,58,76,3,2,1,67.0,False
31724,3604, Note_on_c,63,76,3,2,1,73.0,False
31725,3605, Note_on_c,61,76,3,2,1,71.0,False
31726,3605, Note_on_c,66,76,3,2,1,77.0,False
31727,3606, Note_on_c,51,76,3,2,1,59.0,False
31728,3607, Note_on_c,58,76,3,2,1,67.0,False
31729,3607, Note_on_c,63,76,3,2,1,73.0,False
31730,3608, Note_on_c,61,76,3,2,1,71.0,False
31731,3608, Note_on_c,68,76,3,2,1,79.0,False
31732,3609, Note_on_c,51,76,3,2,1,59.0,False
31733,3610, Note_on_c,58,76,3,2,1,67.0,False
31734,3610, Note_on_c,63,76,3,2,1,73.0,False
31735,3611, Note_on_c,61,76,3,2,1,71.0,False
31736,3611, Note_on_c,68,76,3,2,1,79.0,False
31737,3612, Note_on_c,58,76,3,2,1,67.0,False
31738,3612, Note_on_c,63,76,3,2,1,73.0,False
31739,3613, Note_on_c,61,76,3,2,1,71.0,False
31740,3613, Note_on_c,66,76,3,2,1,77.0,False
31741,3614, Note_on_c,51,76,3,2,1,59.0,False
31742,3615, Note_on_c,58,76,3,2,1,67.0,False
31743,3615, Note_on_c,63,76,3,2,1,73.0,False
31744,3616, Note_on_c,61,76,3,2,1,71.0,False
31745,3616, Note_on_c,68,76,3,2,1,79.0,False
31746,3617, Note_on_c,51,76,3,2,1,59.0,False
31747,3618, Note_on_c,58,76,3,2,1,67.0,False
31748,3618, Note_on_c,63,76,3,2,1,73.0,False
31749,3619, Note_on_c,61,76,3,2,1,71.0,False
31750,3619, Note_on_c,68,76,3,2,1,79.0,False
31751,3620, Note_on_c,58,76,3,2,1,67.0,False
31752,3620, Note_on_c,63,76,3,2,1,73.0,False
31753,3621, Note_on_c,61,76,3,2,1,71.0,False
31754,3621, Note_on_c,66,76,3,2,1,77.0,False
31755,3622, Note_on_c,51,76,3,2,1,59.0,False
31756,3623, Note_on_c,58,76,3,2,1,67.0,False
31757,3623, Note_on_c,63,76,3,2,1,73.0,False
31758,3624, Note_on_c,61,76,3,2,1,71.0,False
31759,3624, Note_on_c,68,76,3,2,1,79.0,False
31760,3625, Note_on_c,51,76,3,2,1,59.0,False
31761,3626, Note_on_c,58,76,3,2,1,67.0,False
31762,3626, Note_on_c,63,76,3,2,1,73.0,False
31763,3627, Note_on_c,61,76,3,2,1,71.0,False
31764,3627, Note_on_c,68,76,3,2,1,79.0,False
31765,3628, Note_on_c,58,76,3,2,1,67.0,False
31766,3628, Note_on_c,63,76,3,2,1,73.0,False
31767,3629, Note_on_c,61,76,3,2,1,71.0,False
31768,3629, Note_on_c,66,76,3,2,1,77.0,False
31769,3630, Note_on_c,51,76,3,2,1,59.0,False
31770,3631, Note_on_c,58,76,3,2,1,67.0,False
31771,3631, Note_on_c,63,76,3,2,1,73.0,False
31772,3632, Note_on_c,61,76,3,2,1,71.0,False
31773,3632, Note_on_c,68,76,3,2,1,79.0,False
31774,3633, Note_on_c,51,76,3,2,1,59.0,False
31775,3634, Note_on_c,58,76,3,2,1,67.0,False
31776,3634, Note_on_c,63,76,3,2,1,73.0,False
31777,3635, Note_on_c,61,76,3,2,1,71.0,False
31778,3635, Note_on_c,68,76,3,2,1,79.0,False
31779,3636, Note_on_c,58,76,3,2,1,67.0,False
31780,3636, Note_on_c,63,76,3,2,1,73.0,False
31781,3637, Note_on_c,61,76,3,2,1,71.0,False
31782,3637, Note_on_c,66,76,3,2,1,77.0,False
31783,3638, Note_on_c,51,76,3,2,1,59.0,False
31784,3639, Note_on_c,58,76,3,2,1,67.0,False
31785,3639, Note_on_c,63,76,3,2,1,73.0,False
31786,3640, Note_on_c,61,76,3,2,1,71.0,False
31787,3640, Note_on_c,68,76,3,2,1,79.0,False
31788,3641, Note_on_c,51,76,3,2,1,59.0,False
31789,3642, Note_on_c,58,76,3,2,1,67.0,False
31790,3642, Note_on_c,63,76,3,2,1,73.0,False
31791,3643, Note_on_c,61,76,3,2,1,71.0,False
31792,3643, Note_on_c,68,76,3,2,1,79.0,False
31793,3644, Note_on_c,58,76,3,2,1,67.0,False
31794,3644, Note_on_c,63,76,3,2,1,73.0,False
31795,3645, Note_on_c,61,76,3,2,1,71.0,False
31796,3645, Note_on_c,66,76,3,2,1,77.0,False
31797,3646, Note_on_c,51,76,3,2,1,59.0,False
31798,3647, Note_on_c,58,76,3,2,1,67.0,False
31799,3647, Note_on_c,63,76,3,2,1,73.0,False
31800,3648, Note_on_c,61,76,3,2,1,71.0,False
31801,3648, Note_on_c,68,76,3,2,1,79.0,False
31802,3649, Note_on_c,51,76,3,2,1,59.0,False
31803,3650, Note_on_c,58,76,3,2,1,67.0,False
31804,3650, Note_on_c,63,76,3,2,1,73.0,False
31805,3651, Note_on_c,61,76,3,2,1,71.0,False
31806,3651, Note_on_c,68,76,3,2,1,79.0,False
31807,3652, Note_on_c,58,76,3,2,1,67.0,False
31808,3652, Note_on_c,63,76,3,2,1,73.0,False
31809,3653, Note_on_c,61,76,3,2,1,71.0,False
31810,3653, Note_on_c,66,76,3,2,1,77.0,False
31811,3654, Note_on_c,51,76,3,2,1,59.0,False
31812,3655, Note_on_c,58,76,3,2,1,67.0,False
31813,3655, Note_on_c,63,76,3,2,1,73.0,False
31814,3656, Note_on_c,61,76,3,2,1,71.0,False
31815,3656, Note_on_c,68,76,3,2,1,79.0,False
31816,3657, Note_on_c,51,76,3,2,1,59.0,False
31817,3658, Note_on_c,58,76,3,2,1,67.0,False
31818,3658, Note_on_c,63,76,3,2,1,73.0,False
31819,3659, Note_on_c,61,76,3,2,1,71.0,False
31820,3659, Note_on_c,68,76,3,2,1,79.0,False
31821,3660, Note_on_c,58,76,3,2,1,67.0,False
31822,3660, Note_on_c,63,76,3,2,1,73.0,False
31823,3661, Note_on_c,61,76,3,2,1,71.0,False
31824,3661, Note_on_c,66,76,3,2,1,77.0,False
31825,3662, Note_on_c,51,76,3,2,1,59.0,False
31826,3663, Note_on_c,58,76,3,2,1,67.0,False
31827,3663, Note_on_c,63,76,3,2,1,73.0,False
31828,3664, Note_on_c,61,76,3,2,1,71.0,False
31829,3664, Note_on_c,68,76,3,2,1,79.0,False
31830,3665, Note_on_c,51,76,3,2,1,59.0,False
31831,3666, Note_on_c,58,76,3,2,1,67.0,False
31832,3666, Note_on_c,63,76,3,2,1,73.0,False
31833,3667, Note_on_c,61,76,3,2,1,71.0,False
31834,3667, Note_on_c,68,76,3,2,1,79.0,False
31835,3668, Note_on_c,58,76,3,2,1,67.0,False
31836,3668, Note_on_c,63,76,3,2,1,73.0,False
31837,3669, Note_on_c,61,76,3,2,1,71.0,False
31838,3669, Note_on_c,66,76,3,2,1,77.0,False
31839,3670, Note_on_c,51,76,3,2,1,59.0,False
31840,3671, Note_on_c,58,76,3,2,1,67.0,False
31841,3671, Note_on_c,63,76,3,2,1,73.0,False
31842,3672, Note_on_c,61,76,3,2,1,71.0,False
31843,3672, Note_on_c,68,76,3,2,1,79.0,False
31844,3673, Note_on_c,51,76,3,2,1,59.0,False
31845,3674, Note_on_c,58,76,3,2,1,67.0,False
31846,3674, Note_on_c,63,76,3,2,1,73.0,False
31847,3675, Note_on_c,61,76,3,2,1,71.0,False
31848,3675, Note_on_c,68,76,3,2,1,79.0,False
31849,3676, Note_on_c,58,76,3,2,1,67.0,False
31850,3676, Note_on_c,63,76,3,2,1,73.0,False
31851,3677, Note_on_c,61,76,3,2,1,71.0,False
31852,3677, Note_on_c,66,76,3,2,1,77.0,False
31853,3678, Note_on_c,51,76,3,2,1,59.0,False
31854,3679, Note_on_c,58,76,3,2,1,67.0,False
31855,3679, Note_on_c,63,76,3,2,1,73.0,False
31856,3680, Note_on_c,61,76,3,2,1,71.0,False
31857,3680, Note_on_c,68,76,3,2,1,79.0,False
31858,3681, Note_on_c,51,76,3,2,1,59.0,False
31859,3682, Note_on_c,58,76,3,2,1,67.0,False
31860,3682, Note_on_c,63,76,3,2,1,73.0,False
31861,3683, Note_on_c,61,76,3,2,1,71.0,False
31862,3683, Note_on_c,68,76,3,2,1,79.0,False
31863,3684, Note_on_c,58,76,3,2,1,67.0,False
31864,3684, Note_on_c,63,76,3,2,1,73.0,False
31865,3685, Note_on_c,61,76,3,2,1,71.0,False
31866,3685, Note_on_c,66,76,3,2,1,77.0,False
31867,3686, Note_on_c,51,76,3,2,1,59.0,False
31868,3687, Note_on_c,58,76,3,2,1,67.0,False
31869,3687, Note_on_c,63,76,3,2,1,73.0,False
31870,3688, Note_on_c,61,76,3,2,1,71.0,False
31871,3688, Note_on_c,68,76,3,2,1,79.0,False
31872,3689, Note_on_c,51,76,3,2,1,59.0,False
31873,3690, Note_on_c,58,76,3,2,1,67.0,False
31874,3690, Note_on_c,63,76,3,2,1,73.0,False
31875,3691, Note_on_c,61,76,3,2,1,71.0,False
31876,3691, Note_on_c,68,76,3,2,1,79.0,False
31877,3692, Note_on_c,58,76,3,2,1,67.0,False
31878,3692, Note_on_c,63,76,3,2,1,73.0,False
31879,3693, Note_on_c,61,76,3,2,1,71.0,False
31880,3693, Note_on_c,66,76,3,2,1,77.0,False
31881,3694, Note_on_c,51,76,3,2,1,59.0,False
31882,3695, Note_on_c,58,76,3,2,1,67.0,False
31883,3695, Note_on_c,63,76,3,2,1,73.0,False
31884,3696, Note_on_c,61,76,3,2,1,71.0,False
31885,3696, Note_on_c,68,76,3,2,1,79.0,False
31886,3697, Note_on_c,51,76,3,2,1,59.0,False
31887,3698, Note_on_c,58,76,3,2,1,67.0,False
31888,3698, Note_on_c,63,76,3,2,1,73.0,False
31889,3699, Note_on_c,61,76,3,2,1,71.0,False
31890,3699, Note_on_c,68,76,3,2,1,79.0,False
31891,3700, Note_on_c,58,76,3,2,1,67.0,False
31892,3700, Note_on_c,63,76,3,2,1,73.0,False
31893,3701, Note_on_c,61,76,3,2,1,71.0,False
31894,3701, Note_on_c,66,76,3,2,1,77.0,False
31895,3702, Note_on_c,51,76,3,2,1,59.0,False
31896,3703, Note_on_c,58,76,3,2,1,67.0,False
31897,3703, Note_on_c,63,76,3,2,1,73.0,False
31898,3704, Note_on_c,61,76,3,2,1,71.0,False
31899,3704, Note_on_c,68,76,3,2,1,79.0,False
31900,3705, Note_on_c,51,76,3,2,1,59.0,False
31901,3706, Note_on_c,58,76,3,2,1,67.0,False
31902,3706, Note_on_c,63,76,3,2,1,73.0,False
31903,3707, Note_on_c,61,76,3,2,1,71.0,False
31904,3707, Note_on_c,68,76,3,2,1,79.0,False
31905,3708, Note_on_c,58,76,3,2,1,67.0,False
31906,3708, Note_on_c,63,76,3,2,1,73.0,False
31907,3709, Note_on_c,61,76,3,2,1,71.0,False
31908,3709, Note_on_c,66,76,3,2,1,77.0,False
31909,3710, Note_on_c,51,76,3,2,1,59.0,False
31910,3711, Note_on_c,58,76,3,2,1,67.0,False
31911,3711, Note_on_c,63,76,3,2,1,73.0,False
31912,3712, Note_on_c,61,76,3,2,1,71.0,False
31913,3712, Note_on_c,68,76,3,2,1,79.0,False
31914,3713, Note_on_c,51,76,3,2,1,59.0,False
31915,3714, Note_on_c,58,76,3,2,1,67.0,False
31916,3714, Note_on_c,63,76,3,2,1,73.0,False
31917,3715, Note_on_c,61,76,3,2,1,71.0,False
31918,3715, Note_on_c,68,76,3,2,1,79.0,False
31919,3716, Note_on_c,58,76,3,2,1,67.0,False
31920,3716, Note_on_c,63,76,3,2,1,73.0,False
31921,3717, Note_on_c,61,76,3,2,1,71.0,False
31922,3717, Note_on_c,66,76,3,2,1,77.0,False
31923,3718, Note_on_c,51,76,3,2,1,59.0,False
31924,3719, Note_on_c,58,76,3,2,1,67.0,False
31925,3719, Note_on_c,63,76,3,2,1,73.0,False
31926,3720, Note_on_c,61,76,3,2,1,71.0,False
31927,3720, Note_on_c,68,76,3,2,1,79.0,False
31928,3721, Note_on_c,51,76,3,2,1,59.0,False
31929,3722, Note_on_c,58,76,3,2,1,67.0,False
31930,3722, Note_on_c,63,76,3,2,1,73.0,False
31931,3723, Note_on_c,61,76,3,2,1,71.0,False
31932,3723, Note_on_c,68,76,3,2,1,79.0,False
31933,3724, Note_on_c,58,76,3,2,1,67.0,False
31934,3724, Note_on_c,63,76,3,2,1,73.0,False
31935,3725, Note_on_c,61,76,3,2,1,71.0,False
31936,3725, Note_on_c,66,76,3,2,1,77.0,False
31937,3726, Note_on_c,51,76,3,2,1,59.0,False
31938,3727, Note_on_c,58,76,3,2,1,67.0,False
31939,3727, Note_on_c,63,76,3,2,1,73.0,False
31940,3728, Note_on_c,61,76,3,2,1,71.0,False
31941,3728, Note_on_c,68,76,3,2,1,79.0,False
31942,3729, Note_on_c,51,76,3,2,1,59.0,False
31943,3730, Note_on_c,58,76,3,2,1,67.0,False
31944,3730, Note_on_c,63,76,3,2,1,73.0,False
31945,3731, Note_on_c,61,76,3,2,1,71.0,False
31946,3731, Note_on_c,68,76,3,2,1,79.0,False
31947,3732, Note_on_c,58,76,3,2,1,67.0,False
31948,3732, Note_on_c,63,76,3,2,1,73.0,False
31949,3733, Note_on_c,61,76,3,2,1,71.0,False
31950,3733, Note_on_c,66,76,3,2,1,77.0,False
31951,3734, Note_on_c,51,76,3,2,1,59.0,False
31952,3735, Note_on_c,58,76,3,2,1,67.0,False
31953,3735, Note_on_c,63,76,3,2,1,73.0,False
31954,3736, Note_on_c,61,76,3,2,1,71.0,False
31955,3736, Note_on_c,68,76,3,2,1,79.0,False
31956,3737, Note_on_c,51,76,3,2,1,59.0,False
31957,3738, Note_on_c,58,76,3,2,1,67.0,False
31958,3738, Note_on_c,63,76,3,2,1,73.0,False
31959,3739, Note_on_c,61,76,3,2,1,71.0,False
31960,3739, Note_on_c,68,76,3,2,1,79.0,False
31961,3740, Note_on_c,58,76,3,2,1,67.0,False
31962,3740, Note_on_c,63,76,3,2,1,73.0,False
31963,3741, Note_on_c,61,76,3,2,1,71.0,False
31964,3741, Note_on_c,66,76,3,2,1,77.0,False
31965,3742, Note_on_c,51,76,3,2,1,59.0,False
31966,3743, Note_on_c,58,76,3,2,1,67.0,False
31967,3743, Note_on_c,63,76,3,2,1,73.0,False
31968,3744, Note_on_c,61,76,3,2,1,71.0,False
31969,3744, Note_on_c,68,76,3,2,1,79.0,False
31970,3745, Note_on_c,51,76,3,2,1,59.0,False
31971,3746, Note_on_c,58,76,3,2,1,67.0,False
31972,3746, Note_on_c,63,76,3,2,1,73.0,False
31973,3747, Note_on_c,61,76,3,2,1,71.0,False
31974,3747, Note_on_c,68,76,3,2,1,79.0,False
31975,3748, Note_on_c,58,76,3,2,1,67.0,False
31976,3748, Note_on_c,63,76,3,2,1,73.0,False
31977,3749, Note_on_c,61,76,3,2,1,71.0,False
31978,3749, Note_on_c,66,76,3,2,1,77.0,False
31979,3750, Note_on_c,51,76,3,2,1,59.0,False
31980,3751, Note_on_c,58,76,3,2,1,67.0,False
31981,3751, Note_on_c,63,76,3,2,1,73.0,False
31982,3752, Note_on_c,61,76,3,2,1,71.0,False
31983,3752, Note_on_c,68,76,3,2,1,79.0,False
31984,3753, Note_on_c,51,76,3,2,1,59.0,False
31985,3754, Note_on_c,58,76,3,2,1,67.0,False
31986,3754, Note_on_c,63,76,3,2,1,73.0,False
31987,3755, Note_on_c,61,76,3,2,1,71.0,False
31988,3755, Note_on_c,68,76,3,2,1,79.0,False
31989,3756, Note_on_c,58,76,3,2,1,67.0,False
31990,3756, Note_on_c,63,76,3,2,1,73.0,False
31991,3757, Note_on_c,61,76,3,2,1,71.0,False
31992,3757, Note_on_c,66,76,3,2,1,77.0,False
31993,3758, Note_on_c,51,76,3,2,1,59.0,False
31994,3759, Note_on_c,58,76,3,2,1,67.0,False
31995,3759, Note_on_c,63,76,3,2,1,73.0,False
31996,3760, Note_on_c,61,76,3,2,1,71.0,False
31997,3760, Note_on_c,68,76,3,2,1,79.0,False
31998,3761, Note_on_c,51,76,3,2,1,59.0,False
31999,3762, Note_on_c,58,76,3,2,1,67.0,False
32000,3762, Note_on_c,63,76,3,2,1,73.0,False
32001,3763, Note_on_c,61,76,3,2,1,71.0,False
32002,3763, Note_on_c,68,76,3,2,1,79.0,False
32003,3764, Note_on_c,58,76,3,2,1,67.0,False
32004,3764, Note_on_c,63,76,3,2,1,73.0,False
32005,3765, Note_on_c,61,76,3,2,1,71.0,False
32006,3765, Note_on_c,66,76,3,2,1,77.0,False
32007,3766, Note_on_c,51,76,3,2,1,59.0,False
32008,3767, Note_on_c,58,76,3,2,1,67.0,False
32009,3767, Note_on_c,63,76,3,2,1,73.0,False
32010,3768, Note_on_c,61,76,3,2,1,71.0,False
32011,3768, Note_on_c,68,76,3,2,1,79.0,False
32012,3769, Note_on_c,51,76,3,2,1,59.0,False
32013,3770, Note_on_c,58,76,3,2,1,67.0,False
32014,3770, Note_on_c,63,76,3,2,1,73.0,False
32015,3771, Note_on_c,61,76,3,2,1,71.0,False
32016,3771, Note_on_c,68,76,3,2,1,79.0,False
32017,3772, Note_on_c,58,76,3,2,1,67.0,False
32018,3772, Note_on_c,63,76,3,2,1,73.0,False
32019,3773, Note_on_c,61,76,3,2,1,71.0,False
32020,3773, Note_on_c,66,76,3,2,1,77.0,False
32021,3774, Note_on_c,51,76,3,2,1,59.0,False
32022,3775, Note_on_c,58,76,3,2,1,67.0,False
32023,3775, Note_on_c,63,76,3,2,1,73.0,False
32024,3776, Note_on_c,61,76,3,2,1,71.0,False
32025,3776, Note_on_c,68,76,3,2,1,79.0,False
32026,3777, Note_on_c,51,76,3,2,1,59.0,False
32027,3778, Note_on_c,58,76,3,2,1,67.0,False
32028,3778, Note_on_c,63,76,3,2,1,73.0,False
32029,3779, Note_on_c,61,76,3,2,1,71.0,False
32030,3779, Note_on_c,68,76,3,2,1,79.0,False
32031,3780, Note_on_c,58,76,3,2,1,67.0,False
32032,3780, Note_on_c,63,76,3,2,1,73.0,False
32033,3781, Note_on_c,61,76,3,2,1,71.0,False
32034,3781, Note_on_c,66,76,3,2,1,77.0,False
32035,3782, Note_on_c,51,76,3,2,1,59.0,False
32036,3783, Note_on_c,58,76,3,2,1,67.0,False
32037,3783, Note_on_c,63,76,3,2,1,73.0,False
32038,3784, Note_on_c,61,76,3,2,1,71.0,False
32039,3784, Note_on_c,68,76,3,2,1,79.0,False
32040,3785, Note_on_c,51,76,3,2,1,59.0,False
32041,3786, Note_on_c,58,76,3,2,1,67.0,False
32042,3786, Note_on_c,63,76,3,2,1,73.0,False
32043,3787, Note_on_c,61,76,3,2,1,71.0,False
32044,3787, Note_on_c,68,76,3,2,1,79.0,False
32045,3788, Note_on_c,58,76,3,2,1,67.0,False
32046,3788, Note_on_c,63,76,3,2,1,73.0,False
32047,3789, Note_on_c,61,76,3,2,1,71.0,False
32048,3789, Note_on_c,66,76,3,2,1,77.0,False
32049,3790, Note_on_c,51,76,3,2,1,59.0,False
32050,3791, Note_on_c,58,76,3,2,1,67.0,False
32051,3791, Note_on_c,63,76,3,2,1,73.0,False
32052,3792, Note_on_c,61,76,3,2,1,71.0,False
32053,3792, Note_on_c,68,76,3,2,1,79.0,False
32054,3793, Note_on_c,51,76,3,2,1,59.0,False
32055,3794, Note_on_c,58,76,3,2,1,67.0,False
32056,3794, Note_on_c,63,76,3,2,1,73.0,False
32057,3795, Note_on_c,61,76,3,2,1,71.0,False
32058,3795, Note_on_c,68,76,3,2,1,79.0,False
32059,3796, Note_on_c,58,76,3,2,1,67.0,False
32060,3796, Note_on_c,63,76,3,2,1,73.0,False
32061,3797, Note_on_c,61,76,3,2,1,71.0,False
32062,3797, Note_on_c,66,76,3,2,1,77.0,False
32063,3798, Note_on_c,51,76,3,2,1,59.0,False
32064,3799, Note_on_c,58,76,3,2,1,67.0,False
32065,3799, Note_on_c,63,76,3,2,1,73.0,False
32066,3800, Note_on_c,61,76,3,2,1,71.0,False
32067,3800, Note_on_c,68,76,3,2,1,79.0,False
32068,3801, Note_on_c,51,76,3,2,1,59.0,False
32069,3802, Note_on_c,58,76,3,2,1,67.0,False
32070,3802, Note_on_c,63,76,3,2,1,73.0,False
32071,3803, Note_on_c,61,76,3,2,1,71.0,False
32072,3803, Note_on_c,68,76,3,2,1,79.0,False
32073,3804, Note_on_c,58,76,3,2,1,67.0,False
32074,3804, Note_on_c,63,76,3,2,1,73.0,False
32075,3805, Note_on_c,61,76,3,2,1,71.0,False
32076,3805, Note_on_c,66,76,3,2,1,77.0,False
32077,3806, Note_on_c,51,76,3,2,1,59.0,False
32078,3807, Note_on_c,58,76,3,2,1,67.0,False
32079,3807, Note_on_c,63,76,3,2,1,73.0,False
32080,3808, Note_on_c,61,76,3,2,1,71.0,False
32081,3808, Note_on_c,68,76,3,2,1,79.0,False
32082,3809, Note_on_c,51,76,3,2,1,59.0,False
32083,3810, Note_on_c,58,76,3,2,1,67.0,False
32084,3810, Note_on_c,63,76,3,2,1,73.0,False
32085,3811, Note_on_c,61,76,3,2,1,71.0,False
32086,3811, Note_on_c,68,76,3,2,1,79.0,False
32087,3812, Note_on_c,58,76,3,2,1,67.0,False
32088,3812, Note_on_c,63,76,3,2,1,73.0,False
32089,3813, Note_on_c,61,76,3,2,1,71.0,False
32090,3813, Note_on_c,66,76,3,2,1,77.0,False
32091,3814, Note_on_c,51,76,3,2,1,59.0,False
32092,3815, Note_on_c,58,76,3,2,1,67.0,False
32093,3815, Note_on_c,63,76,3,2,1,73.0,False
32094,3816, Note_on_c,61,76,3,2,1,71.0,False
32095,3816, Note_on_c,68,76,3,2,1,79.0,False
32096,3817, Note_on_c,51,76,3,2,1,59.0,False
32097,3818, Note_on_c,58,76,3,2,1,67.0,False
32098,3818, Note_on_c,63,76,3,2,1,73.0,False
32099,3819, Note_on_c,61,76,3,2,1,71.0,False
32100,3819, Note_on_c,68,76,3,2,1,79.0,False
32101,3820, Note_on_c,58,76,3,2,1,67.0,False
32102,3820, Note_on_c,63,76,3,2,1,73.0,False
32103,3821, Note_on_c,61,76,3,2,1,71.0,False
32104,3821, Note_on_c,66,76,3,2,1,77.0,False
32105,3822, Note_on_c,51,76,3,2,1,59.0,False
32106,3823, Note_on_c,58,76,3,2,1,67.0,False
32107,3823, Note_on_c,63,76,3,2,1,73.0,False
32108,3824, Note_on_c,61,76,3,2,1,71.0,False
32109,3824, Note_on_c,68,76,3,2,1,79.0,False
32110,3825, Note_on_c,51,76,3,2,1,59.0,False
32111,3826, Note_on_c,58,76,3,2,1,67.0,False
32112,3826, Note_on_c,63,76,3,2,1,73.0,False
32113,3827, Note_on_c,61,76,3,2,1,71.0,False
32114,3827, Note_on_c,68,76,3,2,1,79.0,False
32115,3828, Note_on_c,58,76,3,2,1,67.0,False
32116,3828, Note_on_c,63,76,3,2,1,73.0,False
32117,3829, Note_on_c,61,76,3,2,1,71.0,False
32118,3829, Note_on_c,66,76,3,2,1,77.0,False
32119,3830, Note_on_c,51,76,3,2,1,59.0,False
32120,3831, Note_on_c,58,76,3,2,1,67.0,False
32121,3831, Note_on_c,63,76,3,2,1,73.0,False
32122,3832, Note_on_c,61,76,3,2,1,71.0,False
32123,3832, Note_on_c,68,76,3,2,1,79.0,False
32124,3833, Note_on_c,51,76,3,2,1,59.0,False
32125,3834, Note_on_c,58,76,3,2,1,67.0,False
32126,3834, Note_on_c,63,76,3,2,1,73.0,False
32127,3835, Note_on_c,61,76,3,2,1,71.0,False
32128,3835, Note_on_c,68,76,3,2,1,79.0,False
32129,3836, Note_on_c,58,76,3,2,1,67.0,False
32130,3836, Note_on_c,63,76,3,2,1,73.0,False
32131,3837, Note_on_c,61,76,3,2,1,71.0,False
32132,3837, Note_on_c,66,76,3,2,1,77.0,False
32133,3838, Note_on_c,51,76,3,2,1,59.0,False
32134,3839, Note_on_c,58,76,3,2,1,67.0,False
32135,3839, Note_on_c,63,76,3,2,1,73.0,False
32136,3840, Note_on_c,61,76,3,2,1,71.0,False
32137,3840, Note_on_c,68,76,3,2,1,79.0,False
32138,3841, Note_on_c,51,76,3,2,1,59.0,False
32139,3842, Note_on_c,58,76,3,2,1,67.0,False
32140,3842, Note_on_c,63,76,3,2,1,73.0,False
32141,3843, Note_on_c,61,76,3,2,1,71.0,False
32142,3843, Note_on_c,68,76,3,2,1,79.0,False
32143,3844, Note_on_c,58,76,3,2,1,67.0,False
32144,3844, Note_on_c,63,76,3,2,1,73.0,False
32145,3845, Note_on_c,61,76,3,2,1,71.0,False
32146,3845, Note_on_c,66,76,3,2,1,77.0,False
32147,3846, Note_on_c,51,76,3,2,1,59.0,False
32148,3847, Note_on_c,58,76,3,2,1,67.0,False
32149,3847, Note_on_c,63,76,3,2,1,73.0,False
32150,3848, Note_on_c,61,76,3,2,1,71.0,False
32151,3848, Note_on_c,68,76,3,2,1,79.0,False
32152,3849, Note_on_c,51,76,3,2,1,59.0,False
32153,3850, Note_on_c,58,76,3,2,1,67.0,False
32154,3850, Note_on_c,63,76,3,2,1,73.0,False
32155,3851, Note_on_c,61,76,3,2,1,71.0,False
32156,3851, Note_on_c,68,76,3,2,1,79.0,False
32157,3852, Note_on_c,58,76,3,2,1,67.0,False
32158,3852, Note_on_c,63,76,3,2,1,73.0,False
32159,3853, Note_on_c,61,76,3,2,1,71.0,False
32160,3853, Note_on_c,66,76,3,2,1,77.0,False
32161,3854, Note_on_c,51,76,3,2,1,59.0,False
32162,3855, Note_on_c,58,76,3,2,1,67.0,False
32163,3855, Note_on_c,63,76,3,2,1,73.0,False
32164,3856, Note_on_c,61,76,3,2,1,71.0,False
32165,3856, Note_on_c,68,76,3,2,1,79.0,False
32166,3857, Note_on_c,51,76,3,2,1,59.0,False
32167,3858, Note_on_c,58,76,3,2,1,67.0,False
32168,3858, Note_on_c,63,76,3,2,1,73.0,False
32169,3859, Note_on_c,61,76,3,2,1,71.0,False
32170,3859, Note_on_c,68,76,3,2,1,79.0,False
32171,3860, Note_on_c,58,76,3,2,1,67.0,False
32172,3860, Note_on_c,63,76,3,2,1,73.0,False
32173,3861, Note_on_c,61,76,3,2,1,71.0,False
32174,3861, Note_on_c,66,76,3,2,1,77.0,False
32175,3862, Note_on_c,51,76,3,2,1,59.0,False
32176,3863, Note_on_c,58,76,3,2,1,67.0,False
32177,3863, Note_on_c,63,76,3,2,1,73.0,False
32178,3864, Note_on_c,61,76,3,2,1,71.0,False
32179,3864, Note_on_c,68,76,3,2,1,79.0,False
32180,3865, Note_on_c,51,76,3,2,1,59.0,False
32181,3866, Note_on_c,58,76,3,2,1,67.0,False
32182,3866, Note_on_c,63,76,3,2,1,73.0,False
32183,3867, Note_on_c,61,76,3,2,1,71.0,False
32184,3867, Note_on_c,68,76,3,2,1,79.0,False
32185,3868, Note_on_c,58,76,3,2,1,67.0,False
32186,3868, Note_on_c,63,76,3,2,1,73.0,False
32187,3869, Note_on_c,61,76,3,2,1,71.0,False
32188,3869, Note_on_c,66,76,3,2,1,77.0,False
32189,3870, Note_on_c,51,76,3,2,1,59.0,False
32190,3871, Note_on_c,58,76,3,2,1,67.0,False
32191,3871, Note_on_c,63,76,3,2,1,73.0,False
32192,3872, Note_on_c,61,76,3,2,1,71.0,False
32193,3872, Note_on_c,68,76,3,2,1,79.0,False
32194,3873, Note_on_c,51,76,3,2,1,59.0,False
32195,3874, Note_on_c,58,76,3,2,1,67.0,False
32196,3874, Note_on_c,63,76,3,2,1,73.0,False
32197,3875, Note_on_c,61,76,3,2,1,71.0,False
32198,3875, Note_on_c,68,76,3,2,1,79.0,False
32199,3876, Note_on_c,58,76,3,2,1,67.0,False
32200,3876, Note_on_c,63,76,3,2,1,73.0,False
32201,3877, Note_on_c,61,76,3,2,1,71.0,False
32202,3877, Note_on_c,66,76,3,2,1,77.0,False
32203,3878, Note_on_c,51,76,3,2,1,59.0,False
32204,3879, Note_on_c,58,76,3,2,1,67.0,False
32205,3879, Note_on_c,63,76,3,2,1,73.0,False
32206,3880, Note_on_c,61,76,3,2,1,71.0,False
32207,3880, Note_on_c,68,76,3,2,1,79.0,False
32208,3881, Note_on_c,51,76,3,2,1,59.0,False
32209,3882, Note_on_c,58,76,3,2,1,67.0,False
32210,3882, Note_on_c,63,76,3,2,1,73.0,False
32211,3883, Note_on_c,61,76,3,2,1,71.0,False
32212,3883, Note_on_c,68,76,3,2,1,79.0,False
32213,3884, Note_on_c,58,76,3,2,1,67.0,False
32214,3884, Note_on_c,63,76,3,2,1,73.0,False
32215,3885, Note_on_c,61,76,3,2,1,71.0,False
32216,3885, Note_on_c,66,76,3,2,1,77.0,False
32217,3886, Note_on_c,51,76,3,2,1,59.0,False
32218,3887, Note_on_c,58,76,3,2,1,67.0,False
32219,3887, Note_on_c,63,76,3,2,1,73.0,False
32220,3888, Note_on_c,61,76,3,2,1,71.0,False
32221,3888, Note_on_c,68,76,3,2,1,79.0,False
32222,3889, Note_on_c,51,76,3,2,1,59.0,False
32223,3890, Note_on_c,58,76,3,2,1,67.0,False
32224,3890, Note_on_c,63,76,3,2,1,73.0,False
32225,3891, Note_on_c,61,76,3,2,1,71.0,False
32226,3891, Note_on_c,68,76,3,2,1,79.0,False
32227,3892, Note_on_c,58,76,3,2,1,67.0,False
32228,3892, Note_on_c,63,76,3,2,1,73.0,False
32229,3893, Note_on_c,61,76,3,2,1,71.0,False
32230,3893, Note_on_c,66,76,3,2,1,77.0,False
32231,3894, Note_on_c,51,76,3,2,1,59.0,False
32232,3895, Note_on_c,58,76,3,2,1,67.0,False
32233,3895, Note_on_c,63,76,3,2,1,73.0,False
32234,3896, Note_on_c,61,76,3,2,1,71.0,False
32235,3896, Note_on_c,68,76,3,2,1,79.0,False
32236,3897, Note_on_c,51,76,3,2,1,59.0,False
32237,3898, Note_on_c,58,76,3,2,1,67.0,False
32238,3898, Note_on_c,63,76,3,2,1,73.0,False
32239,3899, Note_on_c,61,76,3,2,1,71.0,False
32240,3899, Note_on_c,68,76,3,2,1,79.0,False
32241,3900, Note_on_c,58,76,3,2,1,67.0,False
32242,3900, Note_on_c,63,76,3,2,1,73.0,False
32243,3901, Note_on_c,61,76,3,2,1,71.0,False
32244,3901, Note_on_c,66,76,3,2,1,77.0,False
32245,3902, Note_on_c,51,76,3,2,1,59.0,False
32246,3903, Note_on_c,58,76,3,2,1,67.0,False
32247,3903, Note_on_c,63,76,3,2,1,73.0,False
32248,3904, Note_on_c,61,76,3,2,1,71.0,False
32249,3904, Note_on_c,68,76,3,2,1,79.0,False
32250,3905, Note_on_c,51,76,3,2,1,59.0,False
32251,3906, Note_on_c,58,76,3,2,1,67.0,False
32252,3906, Note_on_c,63,76,3,2,1,73.0,False
32253,3907, Note_on_c,61,76,3,2,1,71.0,False
32254,3907, Note_on_c,68,76,3,2,1,79.0,False
32255,3908, Note_on_c,58,76,3,2,1,67.0,False
32256,3908, Note_on_c,63,76,3,2,1,73.0,False
32257,3909, Note_on_c,61,76,3,2,1,71.0,False
32258,3909, Note_on_c,66,76,3,2,1,77.0,False
32259,3910, Note_on_c,51,76,3,2,1,59.0,False
32260,3911, Note_on_c,58,76,3,2,1,67.0,False
32261,3911, Note_on_c,63,76,3,2,1,73.0,False
32262,3912, Note_on_c,61,76,3,2,1,71.0,False
32263,3912, Note_on_c,68,76,3,2,1,79.0,False
32264,3913, Note_on_c,51,76,3,2,1,59.0,False
32265,3914, Note_on_c,58,76,3,2,1,67.0,False
32266,3914, Note_on_c,63,76,3,2,1,73.0,False
32267,3915, Note_on_c,61,76,3,2,1,71.0,False
32268,3915, Note_on_c,68,76,3,2,1,79.0,False
32269,3916, Note_on_c,58,76,3,2,1,67.0,False
32270,3916, Note_on_c,63,76,3,2,1,73.0,False
32271,3917, Note_on_c,61,76,3,2,1,71.0,False
32272,3917, Note_on_c,66,76,3,2,1,77.0,False
32273,3918, Note_on_c,51,76,3,2,1,59.0,False
32274,3919, Note_on_c,58,76,3,2,1,67.0,False
32275,3919, Note_on_c,63,76,3,2,1,73.0,False
32276,3920, Note_on_c,61,76,3,2,1,71.0,False
32277,3920, Note_on_c,68,76,3,2,1,79.0,False
32278,3921, Note_on_c,51,76,3,2,1,59.0,False
32279,3922, Note_on_c,58,76,3,2,1,67.0,False
32280,3922, Note_on_c,63,76,3,2,1,73.0,False
32281,3923, Note_on_c,61,76,3,2,1,71.0,False
32282,3923, Note_on_c,68,76,3,2,1,79.0,False
32283,3924, Note_on_c,58,76,3,2,1,67.0,False
32284,3924, Note_on_c,63,76,3,2,1,73.0,False
32285,3925, Note_on_c,61,76,3,2,1,71.0,False
32286,3925, Note_on_c,66,76,3,2,1,77.0,False
32287,3926, Note_on_c,51,76,3,2,1,59.0,False
32288,3927, Note_on_c,58,76,3,2,1,67.0,False
32289,3927, Note_on_c,63,76,3,2,1,73.0,False
32290,3928, Note_on_c,61,76,3,2,1,71.0,False
32291,3928, Note_on_c,68,76,3,2,1,79.0,False
32292,3929, Note_on_c,51,76,3,2,1,59.0,False
32293,3930, Note_on_c,58,76,3,2,1,67.0,False
32294,3930, Note_on_c,63,76,3,2,1,73.0,False
32295,3931, Note_on_c,61,76,3,2,1,71.0,False
32296,3931, Note_on_c,68,76,3,2,1,79.0,False
32297,3932, Note_on_c,58,76,3,2,1,67.0,False
32298,3932, Note_on_c,63,76,3,2,1,73.0,False
32299,3933, Note_on_c,61,76,3,2,1,71.0,False
32300,3933, Note_on_c,66,76,3,2,1,77.0,False
32301,3934, Note_on_c,51,76,3,2,1,59.0,False
32302,3935, Note_on_c,58,76,3,2,1,67.0,False
32303,3935, Note_on_c,63,76,3,2,1,73.0,False
32304,3936, Note_on_c,61,76,3,2,1,71.0,False
32305,3936, Note_on_c,68,76,3,2,1,79.0,False
32306,3937, Note_on_c,51,76,3,2,1,59.0,False
32307,3938, Note_on_c,58,76,3,2,1,67.0,False
32308,3938, Note_on_c,63,76,3,2,1,73.0,False
32309,3939, Note_on_c,61,76,3,2,1,71.0,False
32310,3939, Note_on_c,68,76,3,2,1,79.0,False
32311,3940, Note_on_c,58,76,3,2,1,67.0,False
32312,3940, Note_on_c,63,76,3,2,1,73.0,False
32313,3941, Note_on_c,61,76,3,2,1,71.0,False
32314,3941, Note_on_c,66,76,3,2,1,77.0,False
32315,3942, Note_on_c,51,76,3,2,1,59.0,False
32316,3943, Note_on_c,58,76,3,2,1,67.0,False
32317,3943, Note_on_c,63,76,3,2,1,73.0,False
32318,3944, Note_on_c,61,76,3,2,1,71.0,False
32319,3944, Note_on_c,68,76,3,2,1,79.0,False
32320,3945, Note_on_c,51,76,3,2,1,59.0,False
32321,3946, Note_on_c,58,76,3,2,1,67.0,False
32322,3946, Note_on_c,63,76,3,2,1,73.0,False
32323,3947, Note_on_c,61,76,3,2,1,71.0,False
32324,3947, Note_on_c,68,76,3,2,1,79.0,False
32325,3948, Note_on_c,58,76,3,2,1,67.0,False
32326,3948, Note_on_c,63,76,3,2,1,73.0,False
32327,3949, Note_on_c,61,76,3,2,1,71.0,False
32328,3949, Note_on_c,66,76,3,2,1,77.0,False
32329,3950, Note_on_c,51,76,3,2,1,59.0,False
32330,3951, Note_on_c,58,76,3,2,1,67.0,False
32331,3951, Note_on_c,63,76,3,2,1,73.0,False
32332,3952, Note_on_c,61,76,3,2,1,71.0,False
32333,3952, Note_on_c,68,76,3,2,1,79.0,False
32334,3953, Note_on_c,51,76,3,2,1,59.0,False
32335,3954, Note_on_c,58,76,3,2,1,67.0,False
32336,3954, Note_on_c,63,76,3,2,1,73.0,False
32337,3955, Note_on_c,61,76,3,2,1,71.0,False
32338,3955, Note_on_c,68,76,3,2,1,79.0,False
32339,3956, Note_on_c,58,76,3,2,1,67.0,False
32340,3956, Note_on_c,63,76,3,2,1,73.0,False
32341,3957, Note_on_c,61,76,3,2,1,71.0,False
32342,3957, Note_on_c,66,76,3,2,1,77.0,False
32343,3958, Note_on_c,51,76,3,2,1,59.0,False
32344,3959, Note_on_c,58,76,3,2,1,67.0,False
32345,3959, Note_on_c,63,76,3,2,1,73.0,False
32346,3960, Note_on_c,61,76,3,2,1,71.0,False
32347,3960, Note_on_c,68,76,3,2,1,79.0,False
32348,3961, Note_on_c,51,76,3,2,1,59.0,False
32349,3962, Note_on_c,58,76,3,2,1,67.0,False
32350,3962, Note_on_c,63,76,3,2,1,73.0,False
32351,3963, Note_on_c,61,76,3,2,1,71.0,False
32352,3963, Note_on_c,68,76,3,2,1,79.0,False
32353,3964, Note_on_c,58,76,3,2,1,67.0,False
32354,3964, Note_on_c,63,76,3,2,1,73.0,False
32355,3965, Note_on_c,61,76,3,2,1,71.0,False
32356,3965, Note_on_c,66,76,3,2,1,77.0,False
32357,3966, Note_on_c,51,76,3,2,1,59.0,False
32358,3967, Note_on_c,58,76,3,2,1,67.0,False
32359,3967, Note_on_c,63,76,3,2,1,73.0,False
32360,3968, Note_on_c,61,76,3,2,1,71.0,False
32361,3968, Note_on_c,68,76,3,2,1,79.0,False
32362,3969, Note_on_c,51,76,3,2,1,59.0,False
32363,3970, Note_on_c,58,76,3,2,1,67.0,False
32364,3970, Note_on_c,63,76,3,2,1,73.0,False
32365,3971, Note_on_c,61,76,3,2,1,71.0,False
32366,3971, Note_on_c,68,76,3,2,1,79.0,False
32367,3972, Note_on_c,58,76,3,2,1,67.0,False
32368,3972, Note_on_c,63,76,3,2,1,73.0,False
32369,3973, Note_on_c,61,76,3,2,1,71.0,False
32370,3973, Note_on_c,66,76,3,2,1,77.0,False
32371,3974, Note_on_c,51,76,3,2,1,59.0,False
32372,3975, Note_on_c,58,76,3,2,1,67.0,False
32373,3975, Note_on_c,63,76,3,2,1,73.0,False
32374,3976, Note_on_c,61,76,3,2,1,71.0,False
32375,3976, Note_on_c,68,76,3,2,1,79.0,False
32376,3977, Note_on_c,51,76,3,2,1,59.0,False
32377,3978, Note_on_c,58,76,3,2,1,67.0,False
32378,3978, Note_on_c,63,76,3,2,1,73.0,False
32379,3979, Note_on_c,61,76,3,2,1,71.0,False
32380,3979, Note_on_c,68,76,3,2,1,79.0,False
32381,3980, Note_on_c,58,76,3,2,1,67.0,False
32382,3980, Note_on_c,63,76,3,2,1,73.0,False
32383,3981, Note_on_c,61,76,3,2,1,71.0,False
32384,3981, Note_on_c,66,76,3,2,1,77.0,False
32385,3982, Note_on_c,51,76,3,2,1,59.0,False
32386,3983, Note_on_c,58,76,3,2,1,67.0,False
32387,3983, Note_on_c,63,76,3,2,1,73.0,False
32388,3984, Note_on_c,61,76,3,2,1,71.0,False
32389,3984, Note_on_c,68,76,3,2,1,79.0,False
32390,3985, Note_on_c,51,76,3,2,1,59.0,False
32391,3986, Note_on_c,58,76,3,2,1,67.0,False
32392,3986, Note_on_c,63,76,3,2,1,73.0,False
32393,3987, Note_on_c,61,76,3,2,1,71.0,False
32394,3987, Note_on_c,68,76,3,2,1,79.0,False
32395,3988, Note_on_c,58,76,3,2,1,67.0,False
32396,3988, Note_on_c,63,76,3,2,1,73.0,False
32397,3989, Note_on_c,61,76,3,2,1,71.0,False
32398,3989, Note_on_c,66,76,3,2,1,77.0,False
32399,3990, Note_on_c,51,76,3,2,1,59.0,False
32400,3991, Note_on_c,58,76,3,2,1,67.0,False
32401,3991, Note_on_c,63,76,3,2,1,73.0,False
32402,3992, Note_on_c,61,76,3,2,1,71.0,False
32403,3992, Note_on_c,68,76,3,2,1,79.0,False
32404,3993, Note_on_c,51,76,3,2,1,59.0,False
32405,3994, Note_on_c,58,76,3,2,1,67.0,False
32406,3994, Note_on_c,63,76,3,2,1,73.0,False
32407,3995, Note_on_c,61,76,3,2,1,71.0,False
32408,3995, Note_on_c,68,76,3,2,1,79.0,False
32409,3996, Note_on_c,58,76,3,2,1,67.0,False
32410,3996, Note_on_c,63,76,3,2,1,73.0,False
32411,3997, Note_on_c,61,76,3,2,1,71.0,False
32412,3997, Note_on_c,66,76,3,2,1,77.0,False
32413,3998, Note_on_c,51,76,3,2,1,59.0,False
32414,3999, Note_on_c,58,76,3,2,1,67.0,False
32415,3999, Note_on_c,63,76,3,2,1,73.0,False
32416,4000, Note_on_c,61,76,3,2,1,71.0,False
32417,4000, Note_on_c,68,76,3,2,1,79.0,False
32418,4001, Note_on_c,51,76,3,2,1,59.0,False
32419,4002, Note_on_c,58,76,3,2,1,67.0,False
32420,4002, Note_on_c,63,76,3,2,1,73.0,False
32421,4003, Note_on_c,61,76,3,2,1,71.0,False
32422,4003, Note_on_c,68,76,3,2,1,79.0,False
32423,4004, Note_on_c,58,76,3,2,1,67.0,False
32424,4004, Note_on_c,63,76,3,2,1,73.0,False
32425,4005, Note_on_c,61,76,3,2,1,71.0,False
32426,4005, Note_on_c,66,76,3,2,1,77.0,False
32427,4006, Note_on_c,51,76,3,2,1,59.0,False
32428,4007, Note_on_c,58,76,3,2,1,67.0,False
32429,4007, Note_on_c,63,76,3,2,1,73.0,False
32430,4008, Note_on_c,61,76,3,2,1,71.0,False
32431,4008, Note_on_c,68,76,3,2,1,79.0,False
32432,4009, Note_on_c,51,76,3,2,1,59.0,False
32433,4010, Note_on_c,58,76,3,2,1,67.0,False
32434,4010, Note_on_c,63,76,3,2,1,73.0,False
32435,4011, Note_on_c,61,76,3,2,1,71.0,False
32436,4011, Note_on_c,68,76,3,2,1,79.0,False
32437,4012, Note_on_c,58,76,3,2,1,67.0,False
32438,4012, Note_on_c,63,76,3,2,1,73.0,False
32439,4013, Note_on_c,61,76,3,2,1,71.0,False
32440,4013, Note_on_c,66,76,3,2,1,77.0,False
32441,4014, Note_on_c,51,76,3,2,1,59.0,False
32442,4015, Note_on_c,58,76,3,2,1,67.0,False
32443,4015, Note_on_c,63,76,3,2,1,73.0,False
32444,4016, Note_on_c,61,76,3,2,1,71.0,False
32445,4016, Note_on_c,68,76,3,2,1,79.0,False
32446,4017, Note_on_c,51,76,3,2,1,59.0,False
32447,4018, Note_on_c,58,76,3,2,1,67.0,False
32448,4018, Note_on_c,63,76,3,2,1,73.0,False
32449,4019, Note_on_c,61,76,3,2,1,71.0,False
32450,4019, Note_on_c,68,76,3,2,1,79.0,False
32451,4020, Note_on_c,58,76,3,2,1,67.0,False
32452,4020, Note_on_c,63,76,3,2,1,73.0,False
32453,4021, Note_on_c,61,76,3,2,1,71.0,False
32454,4021, Note_on_c,66,76,3,2,1,77.0,False
32455,4022, Note_on_c,51,76,3,2,1,59.0,False
32456,4023, Note_on_c,58,76,3,2,1,67.0,False
32457,4023, Note_on_c,63,76,3,2,1,73.0,False
32458,4024, Note_on_c,61,76,3,2,1,71.0,False
32459,4024, Note_on_c,68,76,3,2,1,79.0,False
32460,4025, Note_on_c,51,76,3,2,1,59.0,False
32461,4026, Note_on_c,58,76,3,2,1,67.0,False
32462,4026, Note_on_c,63,76,3,2,1,73.0,False
32463,4027, Note_on_c,61,76,3,2,1,71.0,False
32464,4027, Note_on_c,68,76,3,2,1,79.0,False
32465,4028, Note_on_c,58,76,3,2,1,67.0,False
32466,4028, Note_on_c,63,76,3,2,1,73.0,False
32467,4029, Note_on_c,61,76,3,2,1,71.0,False
32468,4029, Note_on_c,66,76,3,2,1,77.0,False
32469,4030, Note_on_c,51,76,3,2,1,59.0,False
32470,4031, Note_on_c,58,76,3,2,1,67.0,False
32471,4031, Note_on_c,63,76,3,2,1,73.0,False
32472,4032, Note_on_c,61,76,3,2,1,71.0,False
32473,4032, Note_on_c,68,76,3,2,1,79.0,False
32474,4033, Note_on_c,51,76,3,2,1,59.0,False
32475,4034, Note_on_c,58,76,3,2,1,67.0,False
32476,4034, Note_on_c,63,76,3,2,1,73.0,False
32477,4035, Note_on_c,61,76,3,2,1,71.0,False
32478,4035, Note_on_c,68,76,3,2,1,79.0,False
32479,4036, Note_on_c,58,76,3,2,1,67.0,False
32480,4036, Note_on_c,63,76,3,2,1,73.0,False
32481,4037, Note_on_c,61,76,3,2,1,71.0,False
32482,4037, Note_on_c,66,76,3,2,1,77.0,False
32483,4038, Note_on_c,51,76,3,2,1,59.0,False
32484,4039, Note_on_c,58,76,3,2,1,67.0,False
32485,4039, Note_on_c,63,76,3,2,1,73.0,False
32486,4040, Note_on_c,61,76,3,2,1,71.0,False
32487,4040, Note_on_c,68,76,3,2,1,79.0,False
32488,4041, Note_on_c,51,76,3,2,1,59.0,False
32489,4042, Note_on_c,58,76,3,2,1,67.0,False
32490,4042, Note_on_c,63,76,3,2,1,73.0,False
32491,4043, Note_on_c,61,76,3,2,1,71.0,False
32492,4043, Note_on_c,68,76,3,2,1,79.0,False
32493,4044, Note_on_c,58,76,3,2,1,67.0,False
32494,4044, Note_on_c,63,76,3,2,1,73.0,False
32495,4045, Note_on_c,61,76,3,2,1,71.0,False
32496,4045, Note_on_c,66,76,3,2,1,77.0,False
32497,4046, Note_on_c,51,76,3,2,1,59.0,False
32498,4047, Note_on_c,58,76,3,2,1,67.0,False
32499,4047, Note_on_c,63,76,3,2,1,73.0,False
32500,4048, Note_on_c,61,76,3,2,1,71.0,False
32501,4048, Note_on_c,68,76,3,2,1,79.0,False
32502,4049, Note_on_c,51,76,3,2,1,59.0,False
32503,4050, Note_on_c,58,76,3,2,1,67.0,False
32504,4050, Note_on_c,63,76,3,2,1,73.0,False
32505,4051, Note_on_c,61,76,3,2,1,71.0,False
32506,4051, Note_on_c,68,76,3,2,1,79.0,False
32507,4052, Note_on_c,58,76,3,2,1,67.0,False
32508,4052, Note_on_c,63,76,3,2,1,73.0,False
32509,4053, Note_on_c,61,76,3,2,1,71.0,False
32510,4053, Note_on_c,66,76,3,2,1,77.0,False
32511,4054, Note_on_c,51,76,3,2,1,59.0,False
32512,4055, Note_on_c,58,76,3,2,1,67.0,False
32513,4055, Note_on_c,63,76,3,2,1,73.0,False
32514,4056, Note_on_c,61,76,3,2,1,71.0,False
32515,4056, Note_on_c,68,76,3,2,1,79.0,False
32516,4057, Note_on_c,51,76,3,2,1,59.0,False
32517,4058, Note_on_c,58,76,3,2,1,67.0,False
32518,4058, Note_on_c,63,76,3,2,1,73.0,False
32519,4059, Note_on_c,61,76,3,2,1,71.0,False
32520,4059, Note_on_c,68,76,3,2,1,79.0,False
32521,4060, Note_on_c,58,76,3,2,1,67.0,False
32522,4060, Note_on_c,63,76,3,2,1,73.0,False
32523,4061, Note_on_c,61,76,3,2,1,71.0,False
32524,4061, Note_on_c,66,76,3,2,1,77.0,False
32525,4062, Note_on_c,51,76,3,2,1,59.0,False
32526,4063, Note_on_c,58,76,3,2,1,67.0,False
32527,4063, Note_on_c,63,76,3,2,1,73.0,False
32528,4064, Note_on_c,61,76,3,2,1,71.0,False
32529,4064, Note_on_c,68,76,3,2,1,79.0,False
32530,4065, Note_on_c,51,76,3,2,1,59.0,False
32531,4066, Note_on_c,58,76,3,2,1,67.0,False
32532,4066, Note_on_c,63,76,3,2,1,73.0,False
32533,4067, Note_on_c,61,76,3,2,1,71.0,False
32534,4067, Note_on_c,68,76,3,2,1,79.0,False
32535,4068, Note_on_c,58,76,3,2,1,67.0,False
32536,4068, Note_on_c,63,76,3,2,1,73.0,False
32537,4069, Note_on_c,61,76,3,2,1,71.0,False
32538,4069, Note_on_c,66,76,3,2,1,77.0,False
32539,4070, Note_on_c,51,76,3,2,1,59.0,False
32540,4071, Note_on_c,58,76,3,2,1,67.0,False
32541,4071, Note_on_c,63,76,3,2,1,73.0,False
32542,4072, Note_on_c,61,76,3,2,1,71.0,False
32543,4072, Note_on_c,68,76,3,2,1,79.0,False
32544,4073, Note_on_c,51,76,3,2,1,59.0,False
32545,4074, Note_on_c,58,76,3,2,1,67.0,False
32546,4074, Note_on_c,63,76,3,2,1,73.0,False
32547,4075, Note_on_c,61,76,3,2,1,71.0,False
32548,4075, Note_on_c,68,76,3,2,1,79.0,False
32549,4076, Note_on_c,58,76,3,2,1,67.0,False
32550,4076, Note_on_c,63,76,3,2,1,73.0,False
32551,4077, Note_on_c,61,76,3,2,1,71.0,False
32552,4077, Note_on_c,66,76,3,2,1,77.0,False
32553,4078, Note_on_c,51,76,3,2,1,59.0,False
32554,4079, Note_on_c,58,76,3,2,1,67.0,False
32555,4079, Note_on_c,63,76,3,2,1,73.0,False
32556,4080, Note_on_c,61,76,3,2,1,71.0,False
32557,4080, Note_on_c,68,76,3,2,1,79.0,False
32558,4081, Note_on_c,51,76,3,2,1,59.0,False
32559,4082, Note_on_c,58,76,3,2,1,67.0,False
32560,4082, Note_on_c,63,76,3,2,1,73.0,False
32561,4083, Note_on_c,61,76,3,2,1,71.0,False
32562,4083, Note_on_c,68,76,3,2,1,79.0,False
32563,4084, Note_on_c,58,76,3,2,1,67.0,False
32564,4084, Note_on_c,63,76,3,2,1,73.0,False
32565,4085, Note_on_c,61,76,3,2,1,71.0,False
32566,4085, Note_on_c,66,76,3,2,1,77.0,False
32567,4086, Note_on_c,51,76,3,2,1,59.0,False
32568,4087, Note_on_c,58,76,3,2,1,67.0,False
32569,4087, Note_on_c,63,76,3,2,1,73.0,False
32570,4088, Note_on_c,61,76,3,2,1,71.0,False
32571,4088, Note_on_c,68,76,3,2,1,79.0,False
32572,4089, Note_on_c,51,76,3,2,1,59.0,False
32573,4090, Note_on_c,58,76,3,2,1,67.0,False
32574,4090, Note_on_c,63,76,3,2,1,73.0,False
32575,4091, Note_on_c,61,76,3,2,1,71.0,False
32576,4091, Note_on_c,68,76,3,2,1,79.0,False
32577,4092, Note_on_c,58,76,3,2,1,67.0,False
32578,4092, Note_on_c,63,76,3,2,1,73.0,False
32579,4093, Note_on_c,61,76,3,2,1,71.0,False
32580,4093, Note_on_c,66,76,3,2,1,77.0,False
32581,4094, Note_on_c,51,76,3,2,1,59.0,False
32582,4095, Note_on_c,58,76,3,2,1,67.0,False
32583,4095, Note_on_c,63,76,3,2,1,73.0,False
32584,4096, Note_on_c,61,76,3,2,1,71.0,False
32585,4096, Note_on_c,68,76,3,2,1,79.0,False
32586,4097, Note_on_c,51,76,3,2,1,59.0,False
32587,4098, Note_on_c,58,76,3,2,1,67.0,False
32588,4098, Note_on_c,63,76,3,2,1,73.0,False
32589,4099, Note_on_c,61,76,3,2,1,71.0,False
32590,4099, Note_on_c,68,76,3,2,1,79.0,False
32591,4100, Note_on_c,58,76,3,2,1,67.0,False
32592,4100, Note_on_c,63,76,3,2,1,73.0,False
32593,4101, Note_on_c,61,76,3,2,1,71.0,False
32594,4101, Note_on_c,66,76,3,2,1,77.0,False
32595,4102, Note_on_c,51,76,3,2,1,59.0,False
32596,4103, Note_on_c,58,76,3,2,1,67.0,False
32597,4103, Note_on_c,63,76,3,2,1,73.0,False
32598,4104, Note_on_c,61,76,3,2,1,71.0,False
32599,4104, Note_on_c,68,76,3,2,1,79.0,False
32600,4105, Note_on_c,51,76,3,2,1,59.0,False
32601,4106, Note_on_c,58,76,3,2,1,67.0,False
32602,4106, Note_on_c,63,76,3,2,1,73.0,False
32603,4107, Note_on_c,61,76,3,2,1,71.0,False
32604,4107, Note_on_c,68,76,3,2,1,79.0,False
32605,4108, Note_on_c,58,76,3,2,1,67.0,False
32606,4108, Note_on_c,63,76,3,2,1,73.0,False
32607,4109, Note_on_c,61,76,3,2,1,71.0,False
32608,4109, Note_on_c,66,76,3,2,1,77.0,False
32609,4110, Note_on_c,51,76,3,2,1,59.0,False
32610,4111, Note_on_c,58,76,3,2,1,67.0,False
32611,4111, Note_on_c,63,76,3,2,1,73.0,False
32612,4112, Note_on_c,61,76,3,2,1,71.0,False
32613,4112, Note_on_c,68,76,3,2,1,79.0,False
32614,4113, Note_on_c,51,76,3,2,1,59.0,False
32615,4114, Note_on_c,58,76,3,2,1,67.0,False
32616,4114, Note_on_c,63,76,3,2,1,73.0,False
32617,4115, Note_on_c,61,76,3,2,1,71.0,False
32618,4115, Note_on_c,68,76,3,2,1,79.0,False
32619,4116, Note_on_c,58,76,3,2,1,67.0,False
32620,4116, Note_on_c,63,76,3,2,1,73.0,False
32621,4117, Note_on_c,61,76,3,2,1,71.0,False
32622,4117, Note_on_c,66,76,3,2,1,77.0,False
32623,4118, Note_on_c,51,76,3,2,1,59.0,False
32624,4119, Note_on_c,58,76,3,2,1,67.0,False
32625,4119, Note_on_c,63,76,3,2,1,73.0,False
32626,4120, Note_on_c,61,76,3,2,1,71.0,False
32627,4120, Note_on_c,68,76,3,2,1,79.0,False
32628,4121, Note_on_c,51,76,3,2,1,59.0,False
32629,4122, Note_on_c,58,76,3,2,1,67.0,False
32630,4122, Note_on_c,63,76,3,2,1,73.0,False
32631,4123, Note_on_c,61,76,3,2,1,71.0,False
32632,4123, Note_on_c,68,76,3,2,1,79.0,False
32633,4124, Note_on_c,58,76,3,2,1,67.0,False
32634,4124, Note_on_c,63,76,3,2,1,73.0,False
32635,4125, Note_on_c,61,76,3,2,1,71.0,False
32636,4125, Note_on_c,66,76,3,2,1,77.0,False
32637,4126, Note_on_c,51,76,3,2,1,59.0,False
32638,4127, Note_on_c,58,76,3,2,1,67.0,False
32639,4127, Note_on_c,63,76,3,2,1,73.0,False
32640,4128, Note_on_c,61,76,3,2,1,71.0,False
32641,4128, Note_on_c,68,76,3,2,1,79.0,False
32642,4129, Note_on_c,51,76,3,2,1,59.0,False
32643,4130, Note_on_c,58,76,3,2,1,67.0,False
32644,4130, Note_on_c,63,76,3,2,1,73.0,False
32645,4131, Note_on_c,61,76,3,2,1,71.0,False
32646,4131, Note_on_c,68,76,3,2,1,79.0,False
32647,4132, Note_on_c,58,76,3,2,1,67.0,False
32648,4132, Note_on_c,63,76,3,2,1,73.0,False
32649,4133, Note_on_c,61,76,3,2,1,71.0,False
32650,4133, Note_on_c,66,76,3,2,1,77.0,False
32651,4134, Note_on_c,51,76,3,2,1,59.0,False
32652,4135, Note_on_c,58,76,3,2,1,67.0,False
32653,4135, Note_on_c,63,76,3,2,1,73.0,False
32654,4136, Note_on_c,61,76,3,2,1,71.0,False
32655,4136, Note_on_c,68,76,3,2,1,79.0,False
32656,4137, Note_on_c,51,76,3,2,1,59.0,False
32657,4138, Note_on_c,58,76,3,2,1,67.0,False
32658,4138, Note_on_c,63,76,3,2,1,73.0,False
32659,4139, Note_on_c,61,76,3,2,1,71.0,False
32660,4139, Note_on_c,68,76,3,2,1,79.0,False
32661,4140, Note_on_c,58,76,3,2,1,67.0,False
32662,4140, Note_on_c,63,76,3,2,1,73.0,False
32663,4141, Note_on_c,61,76,3,2,1,71.0,False
32664,4141, Note_on_c,66,76,3,2,1,77.0,False
32665,4142, Note_on_c,51,76,3,2,1,59.0,False
32666,4143, Note_on_c,58,76,3,2,1,67.0,False
32667,4143, Note_on_c,63,76,3,2,1,73.0,False
32668,4144, Note_on_c,61,76,3,2,1,71.0,False
32669,4144, Note_on_c,68,76,3,2,1,79.0,False
32670,4145, Note_on_c,51,76,3,2,1,59.0,False
32671,4146, Note_on_c,58,76,3,2,1,67.0,False
32672,4146, Note_on_c,63,76,3,2,1,73.0,False
32673,4147, Note_on_c,61,76,3,2,1,71.0,False
32674,4147, Note_on_c,68,76,3,2,1,79.0,False
32675,4148, Note_on_c,58,76,3,2,1,67.0,False
32676,4148, Note_on_c,63,76,3,2,1,73.0,False
32677,4149, Note_on_c,61,76,3,2,1,71.0,False
32678,4149, Note_on_c,66,76,3,2,1,77.0,False
32679,4150, Note_on_c,51,76,3,2,1,59.0,False
32680,4151, Note_on_c,58,76,3,2,1,67.0,False
32681,4151, Note_on_c,63,76,3,2,1,73.0,False
32682,4152, Note_on_c,61,76,3,2,1,71.0,False
32683,4152, Note_on_c,68,76,3,2,1,79.0,False
32684,4153, Note_on_c,51,76,3,2,1,59.0,False
32685,4154, Note_on_c,58,76,3,2,1,67.0,False
32686,4154, Note_on_c,63,76,3,2,1,73.0,False
32687,4155, Note_on_c,61,76,3,2,1,71.0,False
32688,4155, Note_on_c,68,76,3,2,1,79.0,False
32689,4156, Note_on_c,58,76,3,2,1,67.0,False
32690,4156, Note_on_c,63,76,3,2,1,73.0,False
32691,4157, Note_on_c,61,76,3,2,1,71.0,False
32692,4157, Note_on_c,66,76,3,2,1,77.0,False
32693,4158, Note_on_c,51,76,3,2,1,59.0,False
32694,4159, Note_on_c,58,76,3,2,1,67.0,False
32695,4159, Note_on_c,63,76,3,2,1,73.0,False
32696,4160, Note_on_c,61,76,3,2,1,71.0,False
32697,4160, Note_on_c,68,76,3,2,1,79.0,False
32698,4161, Note_on_c,51,76,3,2,1,59.0,False
32699,4162, Note_on_c,58,76,3,2,1,67.0,False
32700,4162, Note_on_c,63,76,3,2,1,73.0,False
32701,4163, Note_on_c,61,76,3,2,1,71.0,False
32702,4163, Note_on_c,68,76,3,2,1,79.0,False
32703,4164, Note_on_c,58,76,3,2,1,67.0,False
32704,4164, Note_on_c,63,76,3,2,1,73.0,False
32705,4165, Note_on_c,61,76,3,2,1,71.0,False
32706,4165, Note_on_c,66,76,3,2,1,77.0,False
32707,4166, Note_on_c,51,76,3,2,1,59.0,False
32708,4167, Note_on_c,58,76,3,2,1,67.0,False
32709,4167, Note_on_c,63,76,3,2,1,73.0,False
32710,4168, Note_on_c,61,76,3,2,1,71.0,False
32711,4168, Note_on_c,68,76,3,2,1,79.0,False
32712,4169, Note_on_c,51,76,3,2,1,59.0,False
32713,4170, Note_on_c,58,76,3,2,1,67.0,False
32714,4170, Note_on_c,63,76,3,2,1,73.0,False
32715,4171, Note_on_c,61,76,3,2,1,71.0,False
32716,4171, Note_on_c,68,76,3,2,1,79.0,False
32717,4172, Note_on_c,58,76,3,2,1,67.0,False
32718,4172, Note_on_c,63,76,3,2,1,73.0,False
32719,4173, Note_on_c,61,76,3,2,1,71.0,False
32720,4173, Note_on_c,66,76,3,2,1,77.0,False
32721,4174, Note_on_c,51,76,3,2,1,59.0,False
32722,4175, Note_on_c,58,76,3,2,1,67.0,False
32723,4175, Note_on_c,63,76,3,2,1,73.0,False
32724,4176, Note_on_c,61,76,3,2,1,71.0,False
32725,4176, Note_on_c,68,76,3,2,1,79.0,False
32726,4177, Note_on_c,51,76,3,2,1,59.0,False
32727,4178, Note_on_c,58,76,3,2,1,67.0,False
32728,4178, Note_on_c,63,76,3,2,1,73.0,False
32729,4179, Note_on_c,61,76,3,2,1,71.0,False
32730,4179, Note_on_c,68,76,3,2,1,79.0,False
32731,4180, Note_on_c,58,76,3,2,1,67.0,False
32732,4180, Note_on_c,63,76,3,2,1,73.0,False
32733,4181, Note_on_c,61,76,3,2,1,71.0,False
32734,4181, Note_on_c,66,76,3,2,1,77.0,False
32735,4182, Note_on_c,51,76,3,2,1,59.0,False
32736,4183, Note_on_c,58,76,3,2,1,67.0,False
32737,4183, Note_on_c,63,76,3,2,1,73.0,False
32738,4184, Note_on_c,61,76,3,2,1,71.0,False
32739,4184, Note_on_c,68,76,3,2,1,79.0,False
32740,4185, Note_on_c,51,76,3,2,1,59.0,False
32741,4186, Note_on_c,58,76,3,2,1,67.0,False
32742,4186, Note_on_c,63,76,3,2,1,73.0,False
32743,4187, Note_on_c,61,76,3,2,1,71.0,False
32744,4187, Note_on_c,68,76,3,2,1,79.0,False
32745,4188, Note_on_c,58,76,3,2,1,67.0,False
32746,4188, Note_on_c,63,76,3,2,1,73.0,False
32747,4189, Note_on_c,61,76,3,2,1,71.0,False
32748,4189, Note_on_c,66,76,3,2,1,77.0,False
32749,4190, Note_on_c,51,76,3,2,1,59.0,False
32750,4191, Note_on_c,58,76,3,2,1,67.0,False
32751,4191, Note_on_c,63,76,3,2,1,73.0,False
32752,4192, Note_on_c,61,76,3,2,1,71.0,False
32753,4192, Note_on_c,68,76,3,2,1,79.0,False
32754,4193, Note_on_c,51,76,3,2,1,59.0,False
32755,4194, Note_on_c,58,76,3,2,1,67.0,False
32756,4194, Note_on_c,63,76,3,2,1,73.0,False
32757,4195, Note_on_c,61,76,3,2,1,71.0,False
32758,4195, Note_on_c,68,76,3,2,1,79.0,False
32759,4196, Note_on_c,58,76,3,2,1,67.0,False
32760,4196, Note_on_c,63,76,3,2,1,73.0,False
32761,4197, Note_on_c,61,76,3,2,1,71.0,False
32762,4197, Note_on_c,66,76,3,2,1,77.0,False
32763,4198, Note_on_c,51,76,3,2,1,59.0,False
32764,4199, Note_on_c,58,76,3,2,1,67.0,False
32765,4199, Note_on_c,63,76,3,2,1,73.0,False
32766,4200, Note_on_c,61,76,3,2,1,71.0,False
32767,4200, Note_on_c,68,76,3,2,1,79.0,False
32768,4201, Note_on_c,51,76,3,2,1,59.0,False
32769,4202, Note_on_c,58,76,3,2,1,67.0,False
32770,4202, Note_on_c,63,76,3,2,1,73.0,False
32771,4203, Note_on_c,61,76,3,2,1,71.0,False
32772,4203, Note_on_c,68,76,3,2,1,79.0,False
32773,4204, Note_on_c,58,76,3,2,1,67.0,False
32774,4204, Note_on_c,63,76,3,2,1,73.0,False
32775,4205, Note_on_c,61,76,3,2,1,71.0,False
32776,4205, Note_on_c,66,76,3,2,1,77.0,False
32777,4206, Note_on_c,51,76,3,2,1,59.0,False
32778,4207, Note_on_c,58,76,3,2,1,67.0,False
32779,4207, Note_on_c,63,76,3,2,1,73.0,False
32780,4208, Note_on_c,61,76,3,2,1,71.0,False
32781,4208, Note_on_c,68,76,3,2,1,79.0,False
32782,4209, Note_on_c,51,76,3,2,1,59.0,False
32783,4210, Note_on_c,58,76,3,2,1,67.0,False
32784,4210, Note_on_c,63,76,3,2,1,73.0,False
32785,4211, Note_on_c,61,76,3,2,1,71.0,False
32786,4211, Note_on_c,68,76,3,2,1,79.0,False
32787,4212, Note_on_c,58,76,3,2,1,67.0,False
32788,4212, Note_on_c,63,76,3,2,1,73.0,False
32789,4213, Note_on_c,61,76,3,2,1,71.0,False
32790,4213, Note_on_c,66,76,3,2,1,77.0,False
32791,4214, Note_on_c,51,76,3,2,1,59.0,False
32792,4215, Note_on_c,58,76,3,2,1,67.0,False
32793,4215, Note_on_c,63,76,3,2,1,73.0,False
32794,4216, Note_on_c,61,76,3,2,1,71.0,False
32795,4216, Note_on_c,68,76,3,2,1,79.0,False
32796,4217, Note_on_c,51,76,3,2,1,59.0,False
32797,4218, Note_on_c,58,76,3,2,1,67.0,False
32798,4218, Note_on_c,63,76,3,2,1,73.0,False
32799,4219, Note_on_c,61,76,3,2,1,71.0,False
32800,4219, Note_on_c,68,76,3,2,1,79.0,False
32801,4220, Note_on_c,58,76,3,2,1,67.0,False
32802,4220, Note_on_c,63,76,3,2,1,73.0,False
32803,4221, Note_on_c,61,76,3,2,1,71.0,False
32804,4221, Note_on_c,66,76,3,2,1,77.0,False
32805,4222, Note_on_c,51,76,3,2,1,59.0,False
32806,4223, Note_on_c,58,76,3,2,1,67.0,False
32807,4223, Note_on_c,63,76,3,2,1,73.0,False
32808,4224, Note_on_c,61,76,3,2,1,71.0,False
32809,4224, Note_on_c,68,76,3,2,1,79.0,False
32810,4225, Note_on_c,51,76,3,2,1,59.0,False
32811,4226, Note_on_c,58,76,3,2,1,67.0,False
32812,4226, Note_on_c,63,76,3,2,1,73.0,False
32813,4227, Note_on_c,61,76,3,2,1,71.0,False
32814,4227, Note_on_c,68,76,3,2,1,79.0,False
32815,4228, Note_on_c,58,76,3,2,1,67.0,False
32816,4228, Note_on_c,63,76,3,2,1,73.0,False
32817,4229, Note_on_c,61,76,3,2,1,71.0,False
32818,4229, Note_on_c,66,76,3,2,1,77.0,False
32819,4230, Note_on_c,51,76,3,2,1,59.0,False
32820,4231, Note_on_c,58,76,3,2,1,67.0,False
32821,4231, Note_on_c,63,76,3,2,1,73.0,False
32822,4232, Note_on_c,61,76,3,2,1,71.0,False
32823,4232, Note_on_c,68,76,3,2,1,79.0,False
32824,4233, Note_on_c,51,76,3,2,1,59.0,False
32825,4234, Note_on_c,58,76,3,2,1,67.0,False
32826,4234, Note_on_c,63,76,3,2,1,73.0,False
32827,4235, Note_on_c,61,76,3,2,1,71.0,False
32828,4235, Note_on_c,68,76,3,2,1,79.0,False
32829,4236, Note_on_c,58,76,3,2,1,67.0,False
32830,4236, Note_on_c,63,76,3,2,1,73.0,False
32831,4237, Note_on_c,61,76,3,2,1,71.0,False
32832,4237, Note_on_c,66,76,3,2,1,77.0,False
32833,4238, Note_on_c,51,76,3,2,1,59.0,False
32834,4239, Note_on_c,58,76,3,2,1,67.0,False
32835,4239, Note_on_c,63,76,3,2,1,73.0,False
32836,4240, Note_on_c,61,76,3,2,1,71.0,False
32837,4240, Note_on_c,68,76,3,2,1,79.0,False
32838,4241, Note_on_c,51,76,3,2,1,59.0,False
32839,4242, Note_on_c,58,76,3,2,1,67.0,False
32840,4242, Note_on_c,63,76,3,2,1,73.0,False
32841,4243, Note_on_c,61,76,3,2,1,71.0,False
32842,4243, Note_on_c,68,76,3,2,1,79.0,False
32843,4244, Note_on_c,58,76,3,2,1,67.0,False
32844,4244, Note_on_c,63,76,3,2,1,73.0,False
32845,4245, Note_on_c,61,76,3,2,1,71.0,False
32846,4245, Note_on_c,66,76,3,2,1,77.0,False
32847,4246, Note_on_c,51,76,3,2,1,59.0,False
32848,4247, Note_on_c,58,76,3,2,1,67.0,False
32849,4247, Note_on_c,63,76,3,2,1,73.0,False
32850,4248, Note_on_c,61,76,3,2,1,71.0,False
32851,4248, Note_on_c,68,76,3,2,1,79.0,False
32852,4249, Note_on_c,51,76,3,2,1,59.0,False
32853,4250, Note_on_c,58,76,3,2,1,67.0,False
32854,4250, Note_on_c,63,76,3,2,1,73.0,False
32855,4251, Note_on_c,61,76,3,2,1,71.0,False
32856,4251, Note_on_c,68,76,3,2,1,79.0,False
32857,4252, Note_on_c,58,76,3,2,1,67.0,False
32858,4252, Note_on_c,63,76,3,2,1,73.0,False
32859,4253, Note_on_c,61,76,3,2,1,71.0,False
32860,4253, Note_on_c,66,76,3,2,1,77.0,False
32861,4254, Note_on_c,51,76,3,2,1,59.0,False
32862,4255, Note_on_c,58,76,3,2,1,67.0,False
32863,4255, Note_on_c,63,76,3,2,1,73.0,False
32864,4256, Note_on_c,61,76,3,2,1,71.0,False
32865,4256, Note_on_c,68,76,3,2,1,79.0,False
32866,4257, Note_on_c,51,76,3,2,1,59.0,False
32867,4258, Note_on_c,58,76,3,2,1,67.0,False
32868,4258, Note_on_c,63,76,3,2,1,73.0,False
32869,4259, Note_on_c,61,76,3,2,1,71.0,False
32870,4259, Note_on_c,68,76,3,2,1,79.0,False
32871,4260, Note_on_c,58,76,3,2,1,67.0,False
32872,4260, Note_on_c,63,76,3,2,1,73.0,False
32873,4261, Note_on_c,61,76,3,2,1,71.0,False
32874,4261, Note_on_c,66,76,3,2,1,77.0,False
32875,4262, Note_on_c,51,76,3,2,1,59.0,False
32876,4263, Note_on_c,58,76,3,2,1,67.0,False
32877,4263, Note_on_c,63,76,3,2,1,73.0,False
32878,4264, Note_on_c,61,76,3,2,1,71.0,False
32879,4264, Note_on_c,68,76,3,2,1,79.0,False
32880,4265, Note_on_c,51,76,3,2,1,59.0,False
32881,4266, Note_on_c,58,76,3,2,1,67.0,False
32882,4266, Note_on_c,63,76,3,2,1,73.0,False
32883,4267, Note_on_c,61,76,3,2,1,71.0,False
32884,4267, Note_on_c,68,76,3,2,1,79.0,False
32885,4268, Note_on_c,58,76,3,2,1,67.0,False
32886,4268, Note_on_c,63,76,3,2,1,73.0,False
32887,4269, Note_on_c,61,76,3,2,1,71.0,False
32888,4269, Note_on_c,66,76,3,2,1,77.0,False
32889,4270, Note_on_c,51,76,3,2,1,59.0,False
32890,4271, Note_on_c,58,76,3,2,1,67.0,False
32891,4271, Note_on_c,63,76,3,2,1,73.0,False
32892,4272, Note_on_c,61,76,3,2,1,71.0,False
32893,4272, Note_on_c,68,76,3,2,1,79.0,False
32894,4273, Note_on_c,51,76,3,2,1,59.0,False
32895,4274, Note_on_c,58,76,3,2,1,67.0,False
32896,4274, Note_on_c,63,76,3,2,1,73.0,False
32897,4275, Note_on_c,61,76,3,2,1,71.0,False
32898,4275, Note_on_c,68,76,3,2,1,79.0,False
32899,4276, Note_on_c,58,76,3,2,1,67.0,False
32900,4276, Note_on_c,63,76,3,2,1,73.0,False
32901,4277, Note_on_c,61,76,3,2,1,71.0,False
32902,4277, Note_on_c,66,76,3,2,1,77.0,False
32903,4278, Note_on_c,51,76,3,2,1,59.0,False
32904,4279, Note_on_c,58,76,3,2,1,67.0,False
32905,4279, Note_on_c,63,76,3,2,1,73.0,False
32906,4280, Note_on_c,61,76,3,2,1,71.0,False
32907,4280, Note_on_c,68,76,3,2,1,79.0,False
32908,4281, Note_on_c,51,76,3,2,1,59.0,False
32909,4282, Note_on_c,58,76,3,2,1,67.0,False
32910,4282, Note_on_c,63,76,3,2,1,73.0,False
32911,4283, Note_on_c,61,76,3,2,1,71.0,False
32912,4283, Note_on_c,68,76,3,2,1,79.0,False
32913,4284, Note_on_c,58,76,3,2,1,67.0,False
32914,4284, Note_on_c,63,76,3,2,1,73.0,False
32915,4285, Note_on_c,61,76,3,2,1,71.0,False
32916,4285, Note_on_c,66,76,3,2,1,77.0,False
32917,4286, Note_on_c,51,76,3,2,1,59.0,False
32918,4287, Note_on_c,58,76,3,2,1,67.0,False
32919,4287, Note_on_c,63,76,3,2,1,73.0,False
32920,4288, Note_on_c,61,76,3,2,1,71.0,False
32921,4288, Note_on_c,68,76,3,2,1,79.0,False
32922,4289, Note_on_c,51,76,3,2,1,59.0,False
32923,4290, Note_on_c,58,76,3,2,1,67.0,False
32924,4290, Note_on_c,63,76,3,2,1,73.0,False
32925,4291, Note_on_c,61,76,3,2,1,71.0,False
32926,4291, Note_on_c,68,76,3,2,1,79.0,False
32927,4292, Note_on_c,58,76,3,2,1,67.0,False
32928,4292, Note_on_c,63,76,3,2,1,73.0,False
32929,4293, Note_on_c,61,76,3,2,1,71.0,False
32930,4293, Note_on_c,66,76,3,2,1,77.0,False
32931,4294, Note_on_c,51,76,3,2,1,59.0,False
32932,4295, Note_on_c,58,76,3,2,1,67.0,False
32933,4295, Note_on_c,63,76,3,2,1,73.0,False
32934,4296, Note_on_c,61,76,3,2,1,71.0,False
32935,4296, Note_on_c,68,76,3,2,1,79.0,False
32936,4297, Note_on_c,51,76,3,2,1,59.0,False
32937,4298, Note_on_c,58,76,3,2,1,67.0,False
32938,4298, Note_on_c,63,76,3,2,1,73.0,False
32939,4299, Note_on_c,61,76,3,2,1,71.0,False
32940,4299, Note_on_c,68,76,3,2,1,79.0,False
32941,4300, Note_on_c,58,76,3,2,1,67.0,False
32942,4300, Note_on_c,63,76,3,2,1,73.0,False
32943,4301, Note_on_c,61,76,3,2,1,71.0,False
32944,4301, Note_on_c,66,76,3,2,1,77.0,False
32945,4302, Note_on_c,51,76,3,2,1,59.0,False
32946,4303, Note_on_c,58,76,3,2,1,67.0,False
32947,4303, Note_on_c,63,76,3,2,1,73.0,False
32948,4304, Note_on_c,61,76,3,2,1,71.0,False
32949,4304, Note_on_c,68,76,3,2,1,79.0,False
32950,4305, Note_on_c,51,76,3,2,1,59.0,False
32951,4306, Note_on_c,58,76,3,2,1,67.0,False
32952,4306, Note_on_c,63,76,3,2,1,73.0,False
32953,4307, Note_on_c,61,76,3,2,1,71.0,False
32954,4307, Note_on_c,68,76,3,2,1,79.0,False
32955,4308, Note_on_c,58,76,3,2,1,67.0,False
32956,4308, Note_on_c,63,76,3,2,1,73.0,False
32957,4309, Note_on_c,61,76,3,2,1,71.0,False
32958,4309, Note_on_c,66,76,3,2,1,77.0,False
32959,4310, Note_on_c,51,76,3,2,1,59.0,False
32960,4311, Note_on_c,58,76,3,2,1,67.0,False
32961,4311, Note_on_c,63,76,3,2,1,73.0,False
32962,4312, Note_on_c,61,76,3,2,1,71.0,False
32963,4312, Note_on_c,68,76,3,2,1,79.0,False
32964,4313, Note_on_c,51,76,3,2,1,59.0,False
32965,4314, Note_on_c,58,76,3,2,1,67.0,False
32966,4314, Note_on_c,63,76,3,2,1,73.0,False
32967,4315, Note_on_c,61,76,3,2,1,71.0,False
32968,4315, Note_on_c,68,76,3,2,1,79.0,False
32969,4316, Note_on_c,58,76,3,2,1,67.0,False
32970,4316, Note_on_c,63,76,3,2,1,73.0,False
32971,4317, Note_on_c,61,76,3,2,1,71.0,False
32972,4317, Note_on_c,66,76,3,2,1,77.0,False
32973,4318, Note_on_c,51,76,3,2,1,59.0,False
32974,4319, Note_on_c,58,76,3,2,1,67.0,False
32975,4319, Note_on_c,63,76,3,2,1,73.0,False
32976,4320, Note_on_c,61,76,3,2,1,71.0,False
32977,4320, Note_on_c,68,76,3,2,1,79.0,False
32978,4321, Note_on_c,51,76,3,2,1,59.0,False
32979,4322, Note_on_c,58,76,3,2,1,67.0,False
32980,4322, Note_on_c,63,76,3,2,1,73.0,False
32981,4323, Note_on_c,61,76,3,2,1,71.0,False
32982,4323, Note_on_c,68,76,3,2,1,79.0,False
32983,4324, Note_on_c,58,76,3,2,1,67.0,False
32984,4324, Note_on_c,63,76,3,2,1,73.0,False
32985,4325, Note_on_c,61,76,3,2,1,71.0,False
32986,4325, Note_on_c,66,76,3,2,1,77.0,False
32987,4326, Note_on_c,51,76,3,2,1,59.0,False
32988,4327, Note_on_c,58,76,3,2,1,67.0,False
32989,4327, Note_on_c,63,76,3,2,1,73.0,False
32990,4328, Note_on_c,61,76,3,2,1,71.0,False
32991,4328, Note_on_c,68,76,3,2,1,79.0,False
32992,4329, Note_on_c,51,76,3,2,1,59.0,False
32993,4330, Note_on_c,58,76,3,2,1,67.0,False
32994,4330, Note_on_c,63,76,3,2,1,73.0,False
32995,4331, Note_on_c,61,76,3,2,1,71.0,False
32996,4331, Note_on_c,68,76,3,2,1,79.0,False
32997,4332, Note_on_c,58,76,3,2,1,67.0,False
32998,4332, Note_on_c,63,76,3,2,1,73.0,False
32999,4333, Note_on_c,61,76,3,2,1,71.0,False
33000,4333, Note_on_c,66,76,3,2,1,77.0,False
33001,4334, Note_on_c,51,76,3,2,1,59.0,False
33002,4335, Note_on_c,58,76,3,2,1,67.0,False
33003,4335, Note_on_c,63,76,3,2,1,73.0,False
33004,4336, Note_on_c,61,76,3,2,1,71.0,False
33005,4336, Note_on_c,68,76,3,2,1,79.0,False
33006,4337, Note_on_c,51,76,3,2,1,59.0,False
33007,4338, Note_on_c,58,76,3,2,1,67.0,False
33008,4338, Note_on_c,63,76,3,2,1,73.0,False
33009,4339, Note_on_c,61,76,3,2,1,71.0,False
33010,4339, Note_on_c,68,76,3,2,1,79.0,False
33011,4340, Note_on_c,58,76,3,2,1,67.0,False
33012,4340, Note_on_c,63,76,3,2,1,73.0,False
33013,4341, Note_on_c,61,76,3,2,1,71.0,False
33014,4341, Note_on_c,66,76,3,2,1,77.0,False
33015,4342, Note_on_c,51,76,3,2,1,59.0,False
33016,4343, Note_on_c,58,76,3,2,1,67.0,False
33017,4343, Note_on_c,63,76,3,2,1,73.0,False
33018,4344, Note_on_c,61,76,3,2,1,71.0,False
33019,4344, Note_on_c,68,76,3,2,1,79.0,False
33020,4345, Note_on_c,51,76,3,2,1,59.0,False
33021,4346, Note_on_c,58,76,3,2,1,67.0,False
33022,4346, Note_on_c,63,76,3,2,1,73.0,False
33023,4347, Note_on_c,61,76,3,2,1,71.0,False
33024,4347, Note_on_c,68,76,3,2,1,79.0,False
33025,4348, Note_on_c,58,76,3,2,1,67.0,False
33026,4348, Note_on_c,63,76,3,2,1,73.0,False
33027,4349, Note_on_c,61,76,3,2,1,71.0,False
33028,4349, Note_on_c,66,76,3,2,1,77.0,False
33029,4350, Note_on_c,51,76,3,2,1,59.0,False
33030,4351, Note_on_c,58,76,3,2,1,67.0,False
33031,4351, Note_on_c,63,76,3,2,1,73.0,False
33032,4352, Note_on_c,61,76,3,2,1,71.0,False
33033,4352, Note_on_c,68,76,3,2,1,79.0,False
33034,4353, Note_on_c,51,76,3,2,1,59.0,False
33035,4354, Note_on_c,58,76,3,2,1,67.0,False
33036,4354, Note_on_c,63,76,3,2,1,73.0,False
33037,4355, Note_on_c,61,76,3,2,1,71.0,False
33038,4355, Note_on_c,68,76,3,2,1,79.0,False
33039,4356, Note_on_c,58,76,3,2,1,67.0,False
33040,4356, Note_on_c,63,76,3,2,1,73.0,False
33041,4357, Note_on_c,61,76,3,2,1,71.0,False
33042,4357, Note_on_c,66,76,3,2,1,77.0,False
33043,4358, Note_on_c,51,76,3,2,1,59.0,False
33044,4359, Note_on_c,58,76,3,2,1,67.0,False
33045,4359, Note_on_c,63,76,3,2,1,73.0,False
33046,4360, Note_on_c,61,76,3,2,1,71.0,False
33047,4360, Note_on_c,68,76,3,2,1,79.0,False
33048,4361, Note_on_c,51,76,3,2,1,59.0,False
33049,4362, Note_on_c,58,76,3,2,1,67.0,False
33050,4362, Note_on_c,63,76,3,2,1,73.0,False
33051,4363, Note_on_c,61,76,3,2,1,71.0,False
33052,4363, Note_on_c,68,76,3,2,1,79.0,False
33053,4364, Note_on_c,58,76,3,2,1,67.0,False
33054,4364, Note_on_c,63,76,3,2,1,73.0,False
33055,4365, Note_on_c,61,76,3,2,1,71.0,False
33056,4365, Note_on_c,66,76,3,2,1,77.0,False
33057,4366, Note_on_c,51,76,3,2,1,59.0,False
33058,4367, Note_on_c,58,76,3,2,1,67.0,False
33059,4367, Note_on_c,63,76,3,2,1,73.0,False
33060,4368, Note_on_c,61,76,3,2,1,71.0,False
33061,4368, Note_on_c,68,76,3,2,1,79.0,False
33062,4369, Note_on_c,51,76,3,2,1,59.0,False
33063,4370, Note_on_c,58,76,3,2,1,67.0,False
33064,4370, Note_on_c,63,76,3,2,1,73.0,False
33065,4371, Note_on_c,61,76,3,2,1,71.0,False
33066,4371, Note_on_c,68,76,3,2,1,79.0,False
33067,4372, Note_on_c,58,76,3,2,1,67.0,False
33068,4372, Note_on_c,63,76,3,2,1,73.0,False
33069,4373, Note_on_c,61,76,3,2,1,71.0,False
33070,4373, Note_on_c,66,76,3,2,1,77.0,False
33071,4374, Note_on_c,51,76,3,2,1,59.0,False
33072,4375, Note_on_c,58,76,3,2,1,67.0,False
33073,4375, Note_on_c,63,76,3,2,1,73.0,False
33074,4376, Note_on_c,61,76,3,2,1,71.0,False
33075,4376, Note_on_c,68,76,3,2,1,79.0,False
33076,4377, Note_on_c,51,76,3,2,1,59.0,False
33077,4378, Note_on_c,58,76,3,2,1,67.0,False
33078,4378, Note_on_c,63,76,3,2,1,73.0,False
33079,4379, Note_on_c,61,76,3,2,1,71.0,False
33080,4379, Note_on_c,68,76,3,2,1,79.0,False
33081,4380, Note_on_c,58,76,3,2,1,67.0,False
33082,4380, Note_on_c,63,76,3,2,1,73.0,False
33083,4381, Note_on_c,61,76,3,2,1,71.0,False
33084,4381, Note_on_c,66,76,3,2,1,77.0,False
33085,4382, Note_on_c,51,76,3,2,1,59.0,False
33086,4383, Note_on_c,58,76,3,2,1,67.0,False
33087,4383, Note_on_c,63,76,3,2,1,73.0,False
33088,4384, Note_on_c,61,76,3,2,1,71.0,False
33089,4384, Note_on_c,68,76,3,2,1,79.0,False
33090,4385, Note_on_c,51,76,3,2,1,59.0,False
33091,4386, Note_on_c,58,76,3,2,1,67.0,False
33092,4386, Note_on_c,63,76,3,2,1,73.0,False
33093,4387, Note_on_c,61,76,3,2,1,71.0,False
33094,4387, Note_on_c,68,76,3,2,1,79.0,False
33095,4388, Note_on_c,58,76,3,2,1,67.0,False
33096,4388, Note_on_c,63,76,3,2,1,73.0,False
33097,4389, Note_on_c,61,76,3,2,1,71.0,False
33098,4389, Note_on_c,66,76,3,2,1,77.0,False
33099,4390, Note_on_c,51,76,3,2,1,59.0,False
33100,4391, Note_on_c,58,76,3,2,1,67.0,False
33101,4391, Note_on_c,63,76,3,2,1,73.0,False
33102,4392, Note_on_c,61,76,3,2,1,71.0,False
33103,4392, Note_on_c,68,76,3,2,1,79.0,False
33104,4393, Note_on_c,51,76,3,2,1,59.0,False
33105,4394, Note_on_c,58,76,3,2,1,67.0,False
33106,4394, Note_on_c,63,76,3,2,1,73.0,False
33107,4395, Note_on_c,61,76,3,2,1,71.0,False
33108,4395, Note_on_c,68,76,3,2,1,79.0,False
33109,4396, Note_on_c,58,76,3,2,1,67.0,False
33110,4396, Note_on_c,63,76,3,2,1,73.0,False
33111,4397, Note_on_c,61,76,3,2,1,71.0,False
33112,4397, Note_on_c,66,76,3,2,1,77.0,False
33113,4398, Note_on_c,51,76,3,2,1,59.0,False
33114,4399, Note_on_c,58,76,3,2,1,67.0,False
33115,4399, Note_on_c,63,76,3,2,1,73.0,False
33116,4400, Note_on_c,61,76,3,2,1,71.0,False
33117,4400, Note_on_c,68,76,3,2,1,79.0,False
33118,4401, Note_on_c,51,76,3,2,1,59.0,False
33119,4402, Note_on_c,58,76,3,2,1,67.0,False
33120,4402, Note_on_c,63,76,3,2,1,73.0,False
33121,4403, Note_on_c,61,76,3,2,1,71.0,False
33122,4403, Note_on_c,68,76,3,2,1,79.0,False
33123,4404, Note_on_c,58,76,3,2,1,67.0,False
33124,4404, Note_on_c,63,76,3,2,1,73.0,False
33125,4405, Note_on_c,61,76,3,2,1,71.0,False
33126,4405, Note_on_c,66,76,3,2,1,77.0,False
33127,4406, Note_on_c,51,76,3,2,1,59.0,False
33128,4407, Note_on_c,58,76,3,2,1,67.0,False
33129,4407, Note_on_c,63,76,3,2,1,73.0,False
33130,4408, Note_on_c,61,76,3,2,1,71.0,False
33131,4408, Note_on_c,68,76,3,2,1,79.0,False
33132,4409, Note_on_c,51,76,3,2,1,59.0,False
33133,4410, Note_on_c,58,76,3,2,1,67.0,False
33134,4410, Note_on_c,63,76,3,2,1,73.0,False
33135,4411, Note_on_c,61,76,3,2,1,71.0,False
33136,4411, Note_on_c,68,76,3,2,1,79.0,False
33137,4412, Note_on_c,58,76,3,2,1,67.0,False
33138,4412, Note_on_c,63,76,3,2,1,73.0,False
33139,4413, Note_on_c,61,76,3,2,1,71.0,False
33140,4413, Note_on_c,66,76,3,2,1,77.0,False
33141,4414, Note_on_c,51,76,3,2,1,59.0,False
33142,4415, Note_on_c,58,76,3,2,1,67.0,False
33143,4415, Note_on_c,63,76,3,2,1,73.0,False
33144,4416, Note_on_c,61,76,3,2,1,71.0,False
33145,4416, Note_on_c,68,76,3,2,1,79.0,False
33146,4417, Note_on_c,51,76,3,2,1,59.0,False
33147,4418, Note_on_c,58,76,3,2,1,67.0,False
33148,4418, Note_on_c,63,76,3,2,1,73.0,False
33149,4419, Note_on_c,61,76,3,2,1,71.0,False
33150,4419, Note_on_c,68,76,3,2,1,79.0,False
33151,4420, Note_on_c,58,76,3,2,1,67.0,False
33152,4420, Note_on_c,63,76,3,2,1,73.0,False
33153,4421, Note_on_c,61,76,3,2,1,71.0,False
33154,4421, Note_on_c,66,76,3,2,1,77.0,False
33155,4422, Note_on_c,51,76,3,2,1,59.0,False
33156,4423, Note_on_c,58,76,3,2,1,67.0,False
33157,4423, Note_on_c,63,76,3,2,1,73.0,False
33158,4424, Note_on_c,61,76,3,2,1,71.0,False
33159,4424, Note_on_c,68,76,3,2,1,79.0,False
33160,4425, Note_on_c,51,76,3,2,1,59.0,False
33161,4426, Note_on_c,58,76,3,2,1,67.0,False
33162,4426, Note_on_c,63,76,3,2,1,73.0,False
33163,4427, Note_on_c,61,76,3,2,1,71.0,False
33164,4427, Note_on_c,68,76,3,2,1,79.0,False
33165,4428, Note_on_c,58,76,3,2,1,67.0,False
33166,4428, Note_on_c,63,76,3,2,1,73.0,False
33167,4429, Note_on_c,61,76,3,2,1,71.0,False
33168,4429, Note_on_c,66,76,3,2,1,77.0,False
33169,4430, Note_on_c,51,76,3,2,1,59.0,False
33170,4431, Note_on_c,58,76,3,2,1,67.0,False
33171,4431, Note_on_c,63,76,3,2,1,73.0,False
33172,4432, Note_on_c,61,76,3,2,1,71.0,False
33173,4432, Note_on_c,68,76,3,2,1,79.0,False
33174,4433, Note_on_c,51,76,3,2,1,59.0,False
33175,4434, Note_on_c,58,76,3,2,1,67.0,False
33176,4434, Note_on_c,63,76,3,2,1,73.0,False
33177,4435, Note_on_c,61,76,3,2,1,71.0,False
33178,4435, Note_on_c,68,76,3,2,1,79.0,False
33179,4436, Note_on_c,58,76,3,2,1,67.0,False
33180,4436, Note_on_c,63,76,3,2,1,73.0,False
33181,4437, Note_on_c,61,76,3,2,1,71.0,False
33182,4437, Note_on_c,66,76,3,2,1,77.0,False
33183,4438, Note_on_c,51,76,3,2,1,59.0,False
33184,4439, Note_on_c,58,76,3,2,1,67.0,False
33185,4439, Note_on_c,63,76,3,2,1,73.0,False
33186,4440, Note_on_c,61,76,3,2,1,71.0,False
33187,4440, Note_on_c,68,76,3,2,1,79.0,False
33188,4441, Note_on_c,51,76,3,2,1,59.0,False
33189,4442, Note_on_c,58,76,3,2,1,67.0,False
33190,4442, Note_on_c,63,76,3,2,1,73.0,False
33191,4443, Note_on_c,61,76,3,2,1,71.0,False
33192,4443, Note_on_c,68,76,3,2,1,79.0,False
33193,4444, Note_on_c,58,76,3,2,1,67.0,False
33194,4444, Note_on_c,63,76,3,2,1,73.0,False
33195,4445, Note_on_c,61,76,3,2,1,71.0,False
33196,4445, Note_on_c,66,76,3,2,1,77.0,False
33197,4446, Note_on_c,51,76,3,2,1,59.0,False
33198,4447, Note_on_c,58,76,3,2,1,67.0,False
33199,4447, Note_on_c,63,76,3,2,1,73.0,False
33200,4448, Note_on_c,61,76,3,2,1,71.0,False
33201,4448, Note_on_c,68,76,3,2,1,79.0,False
33202,4449, Note_on_c,51,76,3,2,1,59.0,False
33203,4450, Note_on_c,58,76,3,2,1,67.0,False
33204,4450, Note_on_c,63,76,3,2,1,73.0,False
33205,4451, Note_on_c,61,76,3,2,1,71.0,False
33206,4451, Note_on_c,68,76,3,2,1,79.0,False
33207,4452, Note_on_c,58,76,3,2,1,67.0,False
33208,4452, Note_on_c,63,76,3,2,1,73.0,False
33209,4453, Note_on_c,61,76,3,2,1,71.0,False
33210,4453, Note_on_c,66,76,3,2,1,77.0,False
33211,4454, Note_on_c,51,76,3,2,1,59.0,False
33212,4455, Note_on_c,58,76,3,2,1,67.0,False
33213,4455, Note_on_c,63,76,3,2,1,73.0,False
33214,4456, Note_on_c,61,76,3,2,1,71.0,False
33215,4456, Note_on_c,68,76,3,2,1,79.0,False
33216,4457, Note_on_c,51,76,3,2,1,59.0,False
33217,4458, Note_on_c,58,76,3,2,1,67.0,False
33218,4458, Note_on_c,63,76,3,2,1,73.0,False
33219,4459, Note_on_c,61,76,3,2,1,71.0,False
33220,4459, Note_on_c,68,76,3,2,1,79.0,False
33221,4460, Note_on_c,58,76,3,2,1,67.0,False
33222,4460, Note_on_c,63,76,3,2,1,73.0,False
33223,4461, Note_on_c,61,76,3,2,1,71.0,False
33224,4461, Note_on_c,66,76,3,2,1,77.0,False
33225,4462, Note_on_c,51,76,3,2,1,59.0,False
33226,4463, Note_on_c,58,76,3,2,1,67.0,False
33227,4463, Note_on_c,63,76,3,2,1,73.0,False
33228,4464, Note_on_c,61,76,3,2,1,71.0,False
33229,4464, Note_on_c,68,76,3,2,1,79.0,False
33230,4465, Note_on_c,51,76,3,2,1,59.0,False
33231,4466, Note_on_c,58,76,3,2,1,67.0,False
33232,4466, Note_on_c,63,76,3,2,1,73.0,False
33233,4467, Note_on_c,61,76,3,2,1,71.0,False
33234,4467, Note_on_c,68,76,3,2,1,79.0,False
33235,4468, Note_on_c,58,76,3,2,1,67.0,False
33236,4468, Note_on_c,63,76,3,2,1,73.0,False
33237,4469, Note_on_c,61,76,3,2,1,71.0,False
33238,4469, Note_on_c,66,76,3,2,1,77.0,False
33239,4470, Note_on_c,51,76,3,2,1,59.0,False
33240,4471, Note_on_c,58,76,3,2,1,67.0,False
33241,4471, Note_on_c,63,76,3,2,1,73.0,False
33242,4472, Note_on_c,61,76,3,2,1,71.0,False
33243,4472, Note_on_c,68,76,3,2,1,79.0,False
33244,4473, Note_on_c,51,76,3,2,1,59.0,False
33245,4474, Note_on_c,58,76,3,2,1,67.0,False
33246,4474, Note_on_c,63,76,3,2,1,73.0,False
33247,4475, Note_on_c,61,76,3,2,1,71.0,False
33248,4475, Note_on_c,68,76,3,2,1,79.0,False
33249,4476, Note_on_c,58,76,3,2,1,67.0,False
33250,4476, Note_on_c,63,76,3,2,1,73.0,False
33251,4477, Note_on_c,61,76,3,2,1,71.0,False
33252,4477, Note_on_c,66,76,3,2,1,77.0,False
33253,4478, Note_on_c,51,76,3,2,1,59.0,False
33254,4479, Note_on_c,58,76,3,2,1,67.0,False
33255,4479, Note_on_c,63,76,3,2,1,73.0,False
33256,4480, Note_on_c,61,76,3,2,1,71.0,False
33257,4480, Note_on_c,68,76,3,2,1,79.0,False
33258,4481, Note_on_c,51,76,3,2,1,59.0,False
33259,4482, Note_on_c,58,76,3,2,1,67.0,False
33260,4482, Note_on_c,63,76,3,2,1,73.0,False
33261,4483, Note_on_c,61,76,3,2,1,71.0,False
33262,4483, Note_on_c,68,76,3,2,1,79.0,False
33263,4484, Note_on_c,58,76,3,2,1,67.0,False
33264,4484, Note_on_c,63,76,3,2,1,73.0,False
33265,4485, Note_on_c,61,76,3,2,1,71.0,False
33266,4485, Note_on_c,66,76,3,2,1,77.0,False
33267,4486, Note_on_c,51,76,3,2,1,59.0,False
33268,4487, Note_on_c,58,76,3,2,1,67.0,False
33269,4487, Note_on_c,63,76,3,2,1,73.0,False
33270,4488, Note_on_c,61,76,3,2,1,71.0,False
33271,4488, Note_on_c,68,76,3,2,1,79.0,False
33272,4489, Note_on_c,51,76,3,2,1,59.0,False
33273,4490, Note_on_c,58,76,3,2,1,67.0,False
33274,4490, Note_on_c,63,76,3,2,1,73.0,False
33275,4491, Note_on_c,61,76,3,2,1,71.0,False
33276,4491, Note_on_c,68,76,3,2,1,79.0,False
33277,4492, Note_on_c,58,76,3,2,1,67.0,False
33278,4492, Note_on_c,63,76,3,2,1,73.0,False
33279,4493, Note_on_c,61,76,3,2,1,71.0,False
33280,4493, Note_on_c,66,76,3,2,1,77.0,False
33281,4494, Note_on_c,51,76,3,2,1,59.0,False
33282,4495, Note_on_c,58,76,3,2,1,67.0,False
33283,4495, Note_on_c,63,76,3,2,1,73.0,False
33284,4496, Note_on_c,61,76,3,2,1,71.0,False
33285,4496, Note_on_c,68,76,3,2,1,79.0,False
33286,4497, Note_on_c,51,76,3,2,1,59.0,False
33287,4498, Note_on_c,58,76,3,2,1,67.0,False
33288,4498, Note_on_c,63,76,3,2,1,73.0,False
33289,4499, Note_on_c,61,76,3,2,1,71.0,False
33290,4499, Note_on_c,68,76,3,2,1,79.0,False
33291,4500, Note_on_c,58,76,3,2,1,67.0,False
33292,4500, Note_on_c,63,76,3,2,1,73.0,False
33293,4501, Note_on_c,61,76,3,2,1,71.0,False
33294,4501, Note_on_c,66,76,3,2,1,77.0,False
33295,4502, Note_on_c,51,76,3,2,1,59.0,False
33296,4503, Note_on_c,58,76,3,2,1,67.0,False
33297,4503, Note_on_c,63,76,3,2,1,73.0,False
33298,4504, Note_on_c,61,76,3,2,1,71.0,False
33299,4504, Note_on_c,68,76,3,2,1,79.0,False
33300,4505, Note_on_c,51,76,3,2,1,59.0,False
33301,4506, Note_on_c,58,76,3,2,1,67.0,False
33302,4506, Note_on_c,63,76,3,2,1,73.0,False
33303,4507, Note_on_c,61,76,3,2,1,71.0,False
33304,4507, Note_on_c,68,76,3,2,1,79.0,False
33305,4508, Note_on_c,58,76,3,2,1,67.0,False
33306,4508, Note_on_c,63,76,3,2,1,73.0,False
33307,4509, Note_on_c,61,76,3,2,1,71.0,False
33308,4509, Note_on_c,66,76,3,2,1,77.0,False
33309,4510, Note_on_c,51,76,3,2,1,59.0,False
33310,4511, Note_on_c,58,76,3,2,1,67.0,False
33311,4511, Note_on_c,63,76,3,2,1,73.0,False
33312,4512, Note_on_c,61,76,3,2,1,71.0,False
33313,4512, Note_on_c,68,76,3,2,1,79.0,False
33314,4513, Note_on_c,51,76,3,2,1,59.0,False
33315,4514, Note_on_c,58,76,3,2,1,67.0,False
33316,4514, Note_on_c,63,76,3,2,1,73.0,False
33317,4515, Note_on_c,61,76,3,2,1,71.0,False
33318,4515, Note_on_c,68,76,3,2,1,79.0,False
33319,4516, Note_on_c,58,76,3,2,1,67.0,False
33320,4516, Note_on_c,63,76,3,2,1,73.0,False
33321,4517, Note_on_c,61,76,3,2,1,71.0,False
33322,4517, Note_on_c,66,76,3,2,1,77.0,False
33323,4518, Note_on_c,51,76,3,2,1,59.0,False
33324,4519, Note_on_c,58,76,3,2,1,67.0,False
33325,4519, Note_on_c,63,76,3,2,1,73.0,False
33326,4520, Note_on_c,61,76,3,2,1,71.0,False
33327,4520, Note_on_c,68,76,3,2,1,79.0,False
33328,4521, Note_on_c,51,76,3,2,1,59.0,False
33329,4522, Note_on_c,58,76,3,2,1,67.0,False
33330,4522, Note_on_c,63,76,3,2,1,73.0,False
33331,4523, Note_on_c,61,76,3,2,1,71.0,False
33332,4523, Note_on_c,68,76,3,2,1,79.0,False
33333,4524, Note_on_c,58,76,3,2,1,67.0,False
33334,4524, Note_on_c,63,76,3,2,1,73.0,False
33335,4525, Note_on_c,61,76,3,2,1,71.0,False
33336,4525, Note_on_c,66,76,3,2,1,77.0,False
33337,4526, Note_on_c,51,76,3,2,1,59.0,False
33338,4527, Note_on_c,58,76,3,2,1,67.0,False
33339,4527, Note_on_c,63,76,3,2,1,73.0,False
33340,4528, Note_on_c,61,76,3,2,1,71.0,False
33341,4528, Note_on_c,68,76,3,2,1,79.0,False
33342,4529, Note_on_c,51,76,3,2,1,59.0,False
33343,4530, Note_on_c,58,76,3,2,1,67.0,False
33344,4530, Note_on_c,63,76,3,2,1,73.0,False
33345,4531, Note_on_c,61,76,3,2,1,71.0,False
33346,4531, Note_on_c,68,76,3,2,1,79.0,False
33347,4532, Note_on_c,58,76,3,2,1,67.0,False
33348,4532, Note_on_c,63,76,3,2,1,73.0,False
33349,4533, Note_on_c,61,76,3,2,1,71.0,False
33350,4533, Note_on_c,66,76,3,2,1,77.0,False
33351,4534, Note_on_c,51,76,3,2,1,59.0,False
33352,4535, Note_on_c,58,76,3,2,1,67.0,False
33353,4535, Note_on_c,63,76,3,2,1,73.0,False
33354,4536, Note_on_c,61,76,3,2,1,71.0,False
33355,4536, Note_on_c,68,76,3,2,1,79.0,False
33356,4537, Note_on_c,51,76,3,2,1,59.0,False
33357,4538, Note_on_c,58,76,3,2,1,67.0,False
33358,4538, Note_on_c,63,76,3,2,1,73.0,False
33359,4539, Note_on_c,61,76,3,2,1,71.0,False
33360,4539, Note_on_c,68,76,3,2,1,79.0,False
33361,4540, Note_on_c,58,76,3,2,1,67.0,False
33362,4540, Note_on_c,63,76,3,2,1,73.0,False
33363,4541, Note_on_c,61,76,3,2,1,71.0,False
33364,4541, Note_on_c,66,76,3,2,1,77.0,False
33365,4542, Note_on_c,51,76,3,2,1,59.0,False
33366,4543, Note_on_c,58,76,3,2,1,67.0,False
33367,4543, Note_on_c,63,76,3,2,1,73.0,False
33368,4544, Note_on_c,61,76,3,2,1,71.0,False
33369,4544, Note_on_c,68,76,3,2,1,79.0,False
33370,4545, Note_on_c,51,76,3,2,1,59.0,False
33371,4546, Note_on_c,58,76,3,2,1,67.0,False
33372,4546, Note_on_c,63,76,3,2,1,73.0,False
33373,4547, Note_on_c,61,76,3,2,1,71.0,False
33374,4547, Note_on_c,68,76,3,2,1,79.0,False
33375,4548, Note_on_c,58,76,3,2,1,67.0,False
33376,4548, Note_on_c,63,76,3,2,1,73.0,False
33377,4549, Note_on_c,61,76,3,2,1,71.0,False
33378,4549, Note_on_c,66,76,3,2,1,77.0,False
33379,4550, Note_on_c,51,76,3,2,1,59.0,False
33380,4551, Note_on_c,58,76,3,2,1,67.0,False
33381,4551, Note_on_c,63,76,3,2,1,73.0,False
33382,4552, Note_on_c,61,76,3,2,1,71.0,False
33383,4552, Note_on_c,68,76,3,2,1,79.0,False
33384,4553, Note_on_c,51,76,3,2,1,59.0,False
33385,4554, Note_on_c,58,76,3,2,1,67.0,False
33386,4554, Note_on_c,63,76,3,2,1,73.0,False
33387,4555, Note_on_c,61,76,3,2,1,71.0,False
33388,4555, Note_on_c,68,76,3,2,1,79.0,False
33389,4556, Note_on_c,58,76,3,2,1,67.0,False
33390,4556, Note_on_c,63,76,3,2,1,73.0,False
33391,4557, Note_on_c,61,76,3,2,1,71.0,False
33392,4557, Note_on_c,66,76,3,2,1,77.0,False
33393,4558, Note_on_c,51,76,3,2,1,59.0,False
33394,4559, Note_on_c,58,76,3,2,1,67.0,False
33395,4559, Note_on_c,63,76,3,2,1,73.0,False
33396,4560, Note_on_c,61,76,3,2,1,71.0,False
33397,4560, Note_on_c,68,76,3,2,1,79.0,False
33398,4561, Note_on_c,51,76,3,2,1,59.0,False
33399,4562, Note_on_c,58,76,3,2,1,67.0,False
33400,4562, Note_on_c,63,76,3,2,1,73.0,False
33401,4563, Note_on_c,61,76,3,2,1,71.0,False
33402,4563, Note_on_c,68,76,3,2,1,79.0,False
33403,4564, Note_on_c,58,76,3,2,1,67.0,False
33404,4564, Note_on_c,63,76,3,2,1,73.0,False
33405,4565, Note_on_c,61,76,3,2,1,71.0,False
33406,4565, Note_on_c,66,76,3,2,1,77.0,False
33407,4566, Note_on_c,51,76,3,2,1,59.0,False
33408,4567, Note_on_c,58,76,3,2,1,67.0,False
33409,4567, Note_on_c,63,76,3,2,1,73.0,False
33410,4568, Note_on_c,61,76,3,2,1,71.0,False
33411,4568, Note_on_c,68,76,3,2,1,79.0,False
33412,4569, Note_on_c,51,76,3,2,1,59.0,False
33413,4570, Note_on_c,58,76,3,2,1,67.0,False
33414,4570, Note_on_c,63,76,3,2,1,73.0,False
33415,4571, Note_on_c,61,76,3,2,1,71.0,False
33416,4571, Note_on_c,68,76,3,2,1,79.0,False
33417,4572, Note_on_c,58,76,3,2,1,67.0,False
33418,4572, Note_on_c,63,76,3,2,1,73.0,False
33419,4573, Note_on_c,61,76,3,2,1,71.0,False
33420,4573, Note_on_c,66,76,3,2,1,77.0,False
33421,4574, Note_on_c,51,76,3,2,1,59.0,False
33422,4575, Note_on_c,58,76,3,2,1,67.0,False
33423,4575, Note_on_c,63,76,3,2,1,73.0,False
33424,4576, Note_on_c,61,76,3,2,1,71.0,False
33425,4576, Note_on_c,68,76,3,2,1,79.0,False
33426,4577, Note_on_c,51,76,3,2,1,59.0,False
33427,4578, Note_on_c,58,76,3,2,1,67.0,False
33428,4578, Note_on_c,63,76,3,2,1,73.0,False
33429,4579, Note_on_c,61,76,3,2,1,71.0,False
33430,4579, Note_on_c,68,76,3,2,1,79.0,False
33431,4580, Note_on_c,58,76,3,2,1,67.0,False
33432,4580, Note_on_c,63,76,3,2,1,73.0,False
33433,4581, Note_on_c,61,76,3,2,1,71.0,False
33434,4581, Note_on_c,66,76,3,2,1,77.0,False
33435,4582, Note_on_c,51,76,3,2,1,59.0,False
33436,4583, Note_on_c,58,76,3,2,1,67.0,False
33437,4583, Note_on_c,63,76,3,2,1,73.0,False
33438,4584, Note_on_c,61,76,3,2,1,71.0,False
33439,4584, Note_on_c,68,76,3,2,1,79.0,False
33440,4585, Note_on_c,51,76,3,2,1,59.0,False
33441,4586, Note_on_c,58,76,3,2,1,67.0,False
33442,4586, Note_on_c,63,76,3,2,1,73.0,False
33443,4587, Note_on_c,61,76,3,2,1,71.0,False
33444,4587, Note_on_c,68,76,3,2,1,79.0,False
33445,4588, Note_on_c,58,76,3,2,1,67.0,False
33446,4588, Note_on_c,63,76,3,2,1,73.0,False
33447,4589, Note_on_c,61,76,3,2,1,71.0,False
33448,4589, Note_on_c,66,76,3,2,1,77.0,False
33449,4590, Note_on_c,51,76,3,2,1,59.0,False
33450,4591, Note_on_c,58,76,3,2,1,67.0,False
33451,4591, Note_on_c,63,76,3,2,1,73.0,False
33452,4592, Note_on_c,61,76,3,2,1,71.0,False
33453,4592, Note_on_c,68,76,3,2,1,79.0,False
33454,4593, Note_on_c,51,76,3,2,1,59.0,False
33455,4594, Note_on_c,58,76,3,2,1,67.0,False
33456,4594, Note_on_c,63,76,3,2,1,73.0,False
33457,4595, Note_on_c,61,76,3,2,1,71.0,False
33458,4595, Note_on_c,68,76,3,2,1,79.0,False
33459,4596, Note_on_c,58,76,3,2,1,67.0,False
33460,4596, Note_on_c,63,76,3,2,1,73.0,False
33461,4597, Note_on_c,61,76,3,2,1,71.0,False
33462,4597, Note_on_c,66,76,3,2,1,77.0,False
33463,4598, Note_on_c,51,76,3,2,1,59.0,False
33464,4599, Note_on_c,58,76,3,2,1,67.0,False
33465,4599, Note_on_c,63,76,3,2,1,73.0,False
33466,4600, Note_on_c,61,76,3,2,1,71.0,False
33467,4600, Note_on_c,68,76,3,2,1,79.0,False
33468,4601, Note_on_c,51,76,3,2,1,59.0,False
33469,4602, Note_on_c,58,76,3,2,1,67.0,False
33470,4602, Note_on_c,63,76,3,2,1,73.0,False
33471,4603, Note_on_c,61,76,3,2,1,71.0,False
33472,4603, Note_on_c,68,76,3,2,1,79.0,False
33473,4604, Note_on_c,58,76,3,2,1,67.0,False
33474,4604, Note_on_c,63,76,3,2,1,73.0,False
33475,4605, Note_on_c,61,76,3,2,1,71.0,False
33476,4605, Note_on_c,66,76,3,2,1,77.0,False
33477,4606, Note_on_c,51,76,3,2,1,59.0,False
33478,4607, Note_on_c,58,76,3,2,1,67.0,False
33479,4607, Note_on_c,63,76,3,2,1,73.0,False
33480,4608, Note_on_c,61,76,3,2,1,71.0,False
33481,4608, Note_on_c,68,76,3,2,1,79.0,False
33482,4609, Note_on_c,51,76,3,2,1,59.0,False
33483,4610, Note_on_c,58,76,3,2,1,67.0,False
33484,4610, Note_on_c,63,76,3,2,1,73.0,False
33485,4611, Note_on_c,61,76,3,2,1,71.0,False
33486,4611, Note_on_c,68,76,3,2,1,79.0,False
33487,4612, Note_on_c,58,76,3,2,1,67.0,False
33488,4612, Note_on_c,63,76,3,2,1,73.0,False
33489,4613, Note_on_c,61,76,3,2,1,71.0,False
33490,4613, Note_on_c,66,76,3,2,1,77.0,False
33491,4614, Note_on_c,51,76,3,2,1,59.0,False
33492,4615, Note_on_c,58,76,3,2,1,67.0,False
33493,4615, Note_on_c,63,76,3,2,1,73.0,False
33494,4616, Note_on_c,61,76,3,2,1,71.0,False
33495,4616, Note_on_c,68,76,3,2,1,79.0,False
33496,4617, Note_on_c,51,76,3,2,1,59.0,False
33497,4618, Note_on_c,58,76,3,2,1,67.0,False
33498,4618, Note_on_c,63,76,3,2,1,73.0,False
33499,4619, Note_on_c,61,76,3,2,1,71.0,False
33500,4619, Note_on_c,68,76,3,2,1,79.0,False
33501,4620, Note_on_c,58,76,3,2,1,67.0,False
33502,4620, Note_on_c,63,76,3,2,1,73.0,False
33503,4621, Note_on_c,61,76,3,2,1,71.0,False
33504,4621, Note_on_c,66,76,3,2,1,77.0,False
33505,4622, Note_on_c,51,76,3,2,1,59.0,False
33506,4623, Note_on_c,58,76,3,2,1,67.0,False
33507,4623, Note_on_c,63,76,3,2,1,73.0,False
33508,4624, Note_on_c,61,76,3,2,1,71.0,False
33509,4624, Note_on_c,68,76,3,2,1,79.0,False
33510,4625, Note_on_c,51,76,3,2,1,59.0,False
33511,4626, Note_on_c,58,76,3,2,1,67.0,False
33512,4626, Note_on_c,63,76,3,2,1,73.0,False
33513,4627, Note_on_c,61,76,3,2,1,71.0,False
33514,4627, Note_on_c,68,76,3,2,1,79.0,False
33515,4628, Note_on_c,58,76,3,2,1,67.0,False
33516,4628, Note_on_c,63,76,3,2,1,73.0,False
33517,4629, Note_on_c,61,76,3,2,1,71.0,False
33518,4629, Note_on_c,66,76,3,2,1,77.0,False
33519,4630, Note_on_c,51,76,3,2,1,59.0,False
33520,4631, Note_on_c,58,76,3,2,1,67.0,False
33521,4631, Note_on_c,63,76,3,2,1,73.0,False
33522,4632, Note_on_c,61,76,3,2,1,71.0,False
33523,4632, Note_on_c,68,76,3,2,1,79.0,False
33524,4633, Note_on_c,51,76,3,2,1,59.0,False
33525,4634, Note_on_c,58,76,3,2,1,67.0,False
33526,4634, Note_on_c,63,76,3,2,1,73.0,False
33527,4635, Note_on_c,61,76,3,2,1,71.0,False
33528,4635, Note_on_c,68,76,3,2,1,79.0,False
33529,4636, Note_on_c,58,76,3,2,1,67.0,False
33530,4636, Note_on_c,63,76,3,2,1,73.0,False
33531,4637, Note_on_c,61,76,3,2,1,71.0,False
33532,4637, Note_on_c,66,76,3,2,1,77.0,False
33533,4638, Note_on_c,51,76,3,2,1,59.0,False
33534,4639, Note_on_c,58,76,3,2,1,67.0,False
33535,4639, Note_on_c,63,76,3,2,1,73.0,False
33536,4640, Note_on_c,61,76,3,2,1,71.0,False
33537,4640, Note_on_c,68,76,3,2,1,79.0,False
33538,4641, Note_on_c,51,76,3,2,1,59.0,False
33539,4642, Note_on_c,58,76,3,2,1,67.0,False
33540,4642, Note_on_c,63,76,3,2,1,73.0,False
33541,4643, Note_on_c,61,76,3,2,1,71.0,False
33542,4643, Note_on_c,68,76,3,2,1,79.0,False
33543,4644, Note_on_c,58,76,3,2,1,67.0,False
33544,4644, Note_on_c,63,76,3,2,1,73.0,False
33545,4645, Note_on_c,61,76,3,2,1,71.0,False
33546,4645, Note_on_c,66,76,3,2,1,77.0,False
33547,4646, Note_on_c,51,76,3,2,1,59.0,False
33548,4647, Note_on_c,58,76,3,2,1,67.0,False
33549,4647, Note_on_c,63,76,3,2,1,73.0,False
33550,4648, Note_on_c,61,76,3,2,1,71.0,False
33551,4648, Note_on_c,68,76,3,2,1,79.0,False
33552,4649, Note_on_c,51,76,3,2,1,59.0,False
33553,4650, Note_on_c,58,76,3,2,1,67.0,False
33554,4650, Note_on_c,63,76,3,2,1,73.0,False
33555,4651, Note_on_c,61,76,3,2,1,71.0,False
33556,4651, Note_on_c,68,76,3,2,1,79.0,False
33557,4652, Note_on_c,58,76,3,2,1,67.0,False
33558,4652, Note_on_c,63,76,3,2,1,73.0,False
33559,4653, Note_on_c,61,76,3,2,1,71.0,False
33560,4653, Note_on_c,66,76,3,2,1,77.0,False
33561,4654, Note_on_c,51,76,3,2,1,59.0,False
33562,4655, Note_on_c,58,76,3,2,1,67.0,False
33563,4655, Note_on_c,63,76,3,2,1,73.0,False
33564,4656, Note_on_c,61,76,3,2,1,71.0,False
33565,4656, Note_on_c,68,76,3,2,1,79.0,False
33566,4657, Note_on_c,51,76,3,2,1,59.0,False
33567,4658, Note_on_c,58,76,3,2,1,67.0,False
33568,4658, Note_on_c,63,76,3,2,1,73.0,False
33569,4659, Note_on_c,61,76,3,2,1,71.0,False
33570,4659, Note_on_c,68,76,3,2,1,79.0,False
33571,4660, Note_on_c,58,76,3,2,1,67.0,False
33572,4660, Note_on_c,63,76,3,2,1,73.0,False
33573,4661, Note_on_c,61,76,3,2,1,71.0,False
33574,4661, Note_on_c,66,76,3,2,1,77.0,False
33575,4662, Note_on_c,51,76,3,2,1,59.0,False
33576,4663, Note_on_c,58,76,3,2,1,67.0,False
33577,4663, Note_on_c,63,76,3,2,1,73.0,False
33578,4664, Note_on_c,61,76,3,2,1,71.0,False
33579,4664, Note_on_c,68,76,3,2,1,79.0,False
33580,4665, Note_on_c,51,76,3,2,1,59.0,False
33581,4666, Note_on_c,58,76,3,2,1,67.0,False
33582,4666, Note_on_c,63,76,3,2,1,73.0,False
33583,4667, Note_on_c,61,76,3,2,1,71.0,False
33584,4667, Note_on_c,68,76,3,2,1,79.0,False
33585,4668, Note_on_c,58,76,3,2,1,67.0,False
33586,4668, Note_on_c,63,76,3,2,1,73.0,False
33587,4669, Note_on_c,61,76,3,2,1,71.0,False
33588,4669, Note_on_c,66,76,3,2,1,77.0,False
33589,4670, Note_on_c,51,76,3,2,1,59.0,False
33590,4671, Note_on_c,58,76,3,2,1,67.0,False
33591,4671, Note_on_c,63,76,3,2,1,73.0,False
33592,4672, Note_on_c,61,76,3,2,1,71.0,False
33593,4672, Note_on_c,68,76,3,2,1,79.0,False
33594,4673, Note_on_c,51,76,3,2,1,59.0,False
33595,4674, Note_on_c,58,76,3,2,1,67.0,False
33596,4674, Note_on_c,63,76,3,2,1,73.0,False
33597,4675, Note_on_c,61,76,3,2,1,71.0,False
33598,4675, Note_on_c,68,76,3,2,1,79.0,False
33599,4676, Note_on_c,58,76,3,2,1,67.0,False
33600,4676, Note_on_c,63,76,3,2,1,73.0,False
33601,4677, Note_on_c,61,76,3,2,1,71.0,False
33602,4677, Note_on_c,66,76,3,2,1,77.0,False
33603,4678, Note_on_c,51,76,3,2,1,59.0,False
33604,4679, Note_on_c,58,76,3,2,1,67.0,False
33605,4679, Note_on_c,63,76,3,2,1,73.0,False
33606,4680, Note_on_c,61,76,3,2,1,71.0,False
33607,4680, Note_on_c,68,76,3,2,1,79.0,False
33608,4681, Note_on_c,51,76,3,2,1,59.0,False
33609,4682, Note_on_c,58,76,3,2,1,67.0,False
33610,4682, Note_on_c,63,76,3,2,1,73.0,False
33611,4683, Note_on_c,61,76,3,2,1,71.0,False
33612,4683, Note_on_c,68,76,3,2,1,79.0,False
33613,4684, Note_on_c,58,76,3,2,1,67.0,False
33614,4684, Note_on_c,63,76,3,2,1,73.0,False
33615,4685, Note_on_c,61,76,3,2,1,71.0,False
33616,4685, Note_on_c,66,76,3,2,1,77.0,False
33617,4686, Note_on_c,51,76,3,2,1,59.0,False
33618,4687, Note_on_c,58,76,3,2,1,67.0,False
33619,4687, Note_on_c,63,76,3,2,1,73.0,False
33620,4688, Note_on_c,61,76,3,2,1,71.0,False
33621,4688, Note_on_c,68,76,3,2,1,79.0,False
33622,4689, Note_on_c,51,76,3,2,1,59.0,False
33623,4690, Note_on_c,58,76,3,2,1,67.0,False
33624,4690, Note_on_c,63,76,3,2,1,73.0,False
33625,4691, Note_on_c,61,76,3,2,1,71.0,False
33626,4691, Note_on_c,68,76,3,2,1,79.0,False
33627,4692, Note_on_c,58,76,3,2,1,67.0,False
33628,4692, Note_on_c,63,76,3,2,1,73.0,False
33629,4693, Note_on_c,61,76,3,2,1,71.0,False
33630,4693, Note_on_c,66,76,3,2,1,77.0,False
33631,4694, Note_on_c,51,76,3,2,1,59.0,False
33632,4695, Note_on_c,58,76,3,2,1,67.0,False
33633,4695, Note_on_c,63,76,3,2,1,73.0,False
33634,4696, Note_on_c,61,76,3,2,1,71.0,False
33635,4696, Note_on_c,68,76,3,2,1,79.0,False
33636,4697, Note_on_c,51,76,3,2,1,59.0,False
33637,4698, Note_on_c,58,76,3,2,1,67.0,False
33638,4698, Note_on_c,63,76,3,2,1,73.0,False
33639,4699, Note_on_c,61,76,3,2,1,71.0,False
33640,4699, Note_on_c,68,76,3,2,1,79.0,False
33641,4700, Note_on_c,58,76,3,2,1,67.0,False
33642,4700, Note_on_c,63,76,3,2,1,73.0,False
33643,4701, Note_on_c,61,76,3,2,1,71.0,False
33644,4701, Note_on_c,66,76,3,2,1,77.0,False
33645,4702, Note_on_c,51,76,3,2,1,59.0,False
33646,4703, Note_on_c,58,76,3,2,1,67.0,False
33647,4703, Note_on_c,63,76,3,2,1,73.0,False
33648,4704, Note_on_c,61,76,3,2,1,71.0,False
33649,4704, Note_on_c,68,76,3,2,1,79.0,False
33650,4705, Note_on_c,51,76,3,2,1,59.0,False
33651,4706, Note_on_c,58,76,3,2,1,67.0,False
33652,4706, Note_on_c,63,76,3,2,1,73.0,False
33653,4707, Note_on_c,61,76,3,2,1,71.0,False
33654,4707, Note_on_c,68,76,3,2,1,79.0,False
33655,4708, Note_on_c,58,76,3,2,1,67.0,False
33656,4708, Note_on_c,63,76,3,2,1,73.0,False
33657,4709, Note_on_c,61,76,3,2,1,71.0,False
33658,4709, Note_on_c,66,76,3,2,1,77.0,False
33659,4710, Note_on_c,51,76,3,2,1,59.0,False
33660,4711, Note_on_c,58,76,3,2,1,67.0,False
33661,4711, Note_on_c,63,76,3,2,1,73.0,False
33662,4712, Note_on_c,61,76,3,2,1,71.0,False
33663,4712, Note_on_c,68,76,3,2,1,79.0,False
33664,4713, Note_on_c,51,76,3,2,1,59.0,False
33665,4714, Note_on_c,58,76,3,2,1,67.0,False
33666,4714, Note_on_c,63,76,3,2,1,73.0,False
33667,4715, Note_on_c,61,76,3,2,1,71.0,False
33668,4715, Note_on_c,68,76,3,2,1,79.0,False
33669,4716, Note_on_c,58,76,3,2,1,67.0,False
33670,4716, Note_on_c,63,76,3,2,1,73.0,False
33671,4717, Note_on_c,61,76,3,2,1,71.0,False
33672,4717, Note_on_c,66,76,3,2,1,77.0,False
33673,4718, Note_on_c,51,76,3,2,1,59.0,False
33674,4719, Note_on_c,58,76,3,2,1,67.0,False
33675,4719, Note_on_c,63,76,3,2,1,73.0,False
33676,4720, Note_on_c,61,76,3,2,1,71.0,False
33677,4720, Note_on_c,68,76,3,2,1,79.0,False
33678,4721, Note_on_c,51,76,3,2,1,59.0,False
33679,4722, Note_on_c,58,76,3,2,1,67.0,False
33680,4722, Note_on_c,63,76,3,2,1,73.0,False
33681,4723, Note_on_c,61,76,3,2,1,71.0,False
33682,4723, Note_on_c,68,76,3,2,1,79.0,False
33683,4724, Note_on_c,58,76,3,2,1,67.0,False
33684,4724, Note_on_c,63,76,3,2,1,73.0,False
33685,4725, Note_on_c,61,76,3,2,1,71.0,False
33686,4725, Note_on_c,66,76,3,2,1,77.0,False
33687,4726, Note_on_c,51,76,3,2,1,59.0,False
33688,4727, Note_on_c,58,76,3,2,1,67.0,False
33689,4727, Note_on_c,63,76,3,2,1,73.0,False
33690,4728, Note_on_c,61,76,3,2,1,71.0,False
33691,4728, Note_on_c,68,76,3,2,1,79.0,False
33692,4729, Note_on_c,51,76,3,2,1,59.0,False
33693,4730, Note_on_c,58,76,3,2,1,67.0,False
33694,4730, Note_on_c,63,76,3,2,1,73.0,False
33695,4731, Note_on_c,61,76,3,2,1,71.0,False
33696,4731, Note_on_c,68,76,3,2,1,79.0,False
33697,4732, Note_on_c,58,76,3,2,1,67.0,False
33698,4732, Note_on_c,63,76,3,2,1,73.0,False
33699,4733, Note_on_c,61,76,3,2,1,71.0,False
33700,4733, Note_on_c,66,76,3,2,1,77.0,False
33701,4734, Note_on_c,51,76,3,2,1,59.0,False
33702,4735, Note_on_c,58,76,3,2,1,67.0,False
33703,4735, Note_on_c,63,76,3,2,1,73.0,False
33704,4736, Note_on_c,61,76,3,2,1,71.0,False
33705,4736, Note_on_c,68,76,3,2,1,79.0,False
33706,4737, Note_on_c,51,76,3,2,1,59.0,False
33707,4738, Note_on_c,58,76,3,2,1,67.0,False
33708,4738, Note_on_c,63,76,3,2,1,73.0,False
33709,4739, Note_on_c,61,76,3,2,1,71.0,False
33710,4739, Note_on_c,68,76,3,2,1,79.0,False
33711,4740, Note_on_c,58,76,3,2,1,67.0,False
33712,4740, Note_on_c,63,76,3,2,1,73.0,False
33713,4741, Note_on_c,61,76,3,2,1,71.0,False
33714,4741, Note_on_c,66,76,3,2,1,77.0,False
33715,4742, Note_on_c,51,76,3,2,1,59.0,False
33716,4743, Note_on_c,58,76,3,2,1,67.0,False
33717,4743, Note_on_c,63,76,3,2,1,73.0,False
33718,4744, Note_on_c,61,76,3,2,1,71.0,False
33719,4744, Note_on_c,68,76,3,2,1,79.0,False
33720,4745, Note_on_c,51,76,3,2,1,59.0,False
33721,4746, Note_on_c,58,76,3,2,1,67.0,False
33722,4746, Note_on_c,63,76,3,2,1,73.0,False
33723,4747, Note_on_c,61,76,3,2,1,71.0,False
33724,4747, Note_on_c,68,76,3,2,1,79.0,False
33725,4748, Note_on_c,58,76,3,2,1,67.0,False
33726,4748, Note_on_c,63,76,3,2,1,73.0,False
33727,4749, Note_on_c,61,76,3,2,1,71.0,False
33728,4749, Note_on_c,66,76,3,2,1,77.0,False
33729,4750, Note_on_c,51,76,3,2,1,59.0,False
33730,4751, Note_on_c,58,76,3,2,1,67.0,False
33731,4751, Note_on_c,63,76,3,2,1,73.0,False
33732,4752, Note_on_c,61,76,3,2,1,71.0,False
33733,4752, Note_on_c,68,76,3,2,1,79.0,False
33734,4753, Note_on_c,51,76,3,2,1,59.0,False
33735,4754, Note_on_c,58,76,3,2,1,67.0,False
33736,4754, Note_on_c,63,76,3,2,1,73.0,False
33737,4755, Note_on_c,61,76,3,2,1,71.0,False
33738,4755, Note_on_c,68,76,3,2,1,79.0,False
33739,4756, Note_on_c,58,76,3,2,1,67.0,False
33740,4756, Note_on_c,63,76,3,2,1,73.0,False
33741,4757, Note_on_c,61,76,3,2,1,71.0,False
33742,4757, Note_on_c,66,76,3,2,1,77.0,False
33743,4758, Note_on_c,51,76,3,2,1,59.0,False
33744,4759, Note_on_c,58,76,3,2,1,67.0,False
33745,4759, Note_on_c,63,76,3,2,1,73.0,False
33746,4760, Note_on_c,61,76,3,2,1,71.0,False
33747,4760, Note_on_c,68,76,3,2,1,79.0,False
33748,4761, Note_on_c,51,76,3,2,1,59.0,False
33749,4762, Note_on_c,58,76,3,2,1,67.0,False
33750,4762, Note_on_c,63,76,3,2,1,73.0,False
33751,4763, Note_on_c,61,76,3,2,1,71.0,False
33752,4763, Note_on_c,68,76,3,2,1,79.0,False
33753,4764, Note_on_c,58,76,3,2,1,67.0,False
33754,4764, Note_on_c,63,76,3,2,1,73.0,False
33755,4765, Note_on_c,61,76,3,2,1,71.0,False
33756,4765, Note_on_c,66,76,3,2,1,77.0,False
33757,4766, Note_on_c,51,76,3,2,1,59.0,False
33758,4767, Note_on_c,58,76,3,2,1,67.0,False
33759,4767, Note_on_c,63,76,3,2,1,73.0,False
33760,4768, Note_on_c,61,76,3,2,1,71.0,False
33761,4768, Note_on_c,68,76,3,2,1,79.0,False
33762,4769, Note_on_c,51,76,3,2,1,59.0,False
33763,4770, Note_on_c,58,76,3,2,1,67.0,False
33764,4770, Note_on_c,63,76,3,2,1,73.0,False
33765,4771, Note_on_c,61,76,3,2,1,71.0,False
33766,4771, Note_on_c,68,76,3,2,1,79.0,False
33767,4772, Note_on_c,58,76,3,2,1,67.0,False
33768,4772, Note_on_c,63,76,3,2,1,73.0,False
33769,4773, Note_on_c,61,76,3,2,1,71.0,False
33770,4773, Note_on_c,66,76,3,2,1,77.0,False
33771,4774, Note_on_c,51,76,3,2,1,59.0,False
33772,4775, Note_on_c,58,76,3,2,1,67.0,False
33773,4775, Note_on_c,63,76,3,2,1,73.0,False
33774,4776, Note_on_c,61,76,3,2,1,71.0,False
33775,4776, Note_on_c,68,76,3,2,1,79.0,False
33776,4777, Note_on_c,51,76,3,2,1,59.0,False
33777,4778, Note_on_c,58,76,3,2,1,67.0,False
33778,4778, Note_on_c,63,76,3,2,1,73.0,False
33779,4779, Note_on_c,61,76,3,2,1,71.0,False
33780,4779, Note_on_c,68,76,3,2,1,79.0,False
33781,4780, Note_on_c,58,76,3,2,1,67.0,False
33782,4780, Note_on_c,63,76,3,2,1,73.0,False
33783,4781, Note_on_c,61,76,3,2,1,71.0,False
33784,4781, Note_on_c,66,76,3,2,1,77.0,False
33785,4782, Note_on_c,51,76,3,2,1,59.0,False
33786,4783, Note_on_c,58,76,3,2,1,67.0,False
33787,4783, Note_on_c,63,76,3,2,1,73.0,False
33788,4784, Note_on_c,61,76,3,2,1,71.0,False
33789,4784, Note_on_c,68,76,3,2,1,79.0,False
33790,4785, Note_on_c,51,76,3,2,1,59.0,False
33791,4786, Note_on_c,58,76,3,2,1,67.0,False
33792,4786, Note_on_c,63,76,3,2,1,73.0,False
33793,4787, Note_on_c,61,76,3,2,1,71.0,False
33794,4787, Note_on_c,68,76,3,2,1,79.0,False
33795,4788, Note_on_c,58,76,3,2,1,67.0,False
33796,4788, Note_on_c,63,76,3,2,1,73.0,False
33797,4789, Note_on_c,61,76,3,2,1,71.0,False
33798,4789, Note_on_c,66,76,3,2,1,77.0,False
33799,4790, Note_on_c,51,76,3,2,1,59.0,False
33800,4791, Note_on_c,58,76,3,2,1,67.0,False
33801,4791, Note_on_c,63,76,3,2,1,73.0,False
33802,4792, Note_on_c,61,76,3,2,1,71.0,False
33803,4792, Note_on_c,68,76,3,2,1,79.0,False
33804,4793, Note_on_c,51,76,3,2,1,59.0,False
33805,4794, Note_on_c,58,76,3,2,1,67.0,False
33806,4794, Note_on_c,63,76,3,2,1,73.0,False
33807,4795, Note_on_c,61,76,3,2,1,71.0,False
33808,4795, Note_on_c,68,76,3,2,1,79.0,False
33809,4796, Note_on_c,58,76,3,2,1,67.0,False
33810,4796, Note_on_c,63,76,3,2,1,73.0,False
33811,4797, Note_on_c,61,76,3,2,1,71.0,False
33812,4797, Note_on_c,66,76,3,2,1,77.0,False
33813,4798, Note_on_c,51,76,3,2,1,59.0,False
33814,4799, Note_on_c,58,76,3,2,1,67.0,False
33815,4799, Note_on_c,63,76,3,2,1,73.0,False
33816,4800, Note_on_c,61,76,3,2,1,71.0,False
33817,4800, Note_on_c,68,76,3,2,1,79.0,False
33818,4801, Note_on_c,51,76,3,2,1,59.0,False
33819,4802, Note_on_c,58,76,3,2,1,67.0,False
33820,4802, Note_on_c,63,76,3,2,1,73.0,False
33821,4803, Note_on_c,61,76,3,2,1,71.0,False
33822,4803, Note_on_c,68,76,3,2,1,79.0,False
33823,4804, Note_on_c,58,76,3,2,1,67.0,False
33824,4804, Note_on_c,63,76,3,2,1,73.0,False
33825,4805, Note_on_c,61,76,3,2,1,71.0,False
33826,4805, Note_on_c,66,76,3,2,1,77.0,False
33827,4806, Note_on_c,51,76,3,2,1,59.0,False
33828,4807, Note_on_c,58,76,3,2,1,67.0,False
33829,4807, Note_on_c,63,76,3,2,1,73.0,False
33830,4808, Note_on_c,61,76,3,2,1,71.0,False
33831,4808, Note_on_c,68,76,3,2,1,79.0,False
33832,4809, Note_on_c,51,76,3,2,1,59.0,False
33833,4810, Note_on_c,58,76,3,2,1,67.0,False
33834,4810, Note_on_c,63,76,3,2,1,73.0,False
33835,4811, Note_on_c,61,76,3,2,1,71.0,False
33836,4811, Note_on_c,68,76,3,2,1,79.0,False
33837,4812, Note_on_c,58,76,3,2,1,67.0,False
33838,4812, Note_on_c,63,76,3,2,1,73.0,False
33839,4813, Note_on_c,61,76,3,2,1,71.0,False
33840,4813, Note_on_c,66,76,3,2,1,77.0,False
33841,4814, Note_on_c,51,76,3,2,1,59.0,False
33842,4815, Note_on_c,58,76,3,2,1,67.0,False
33843,4815, Note_on_c,63,76,3,2,1,73.0,False
33844,4816, Note_on_c,61,76,3,2,1,71.0,False
33845,4816, Note_on_c,68,76,3,2,1,79.0,False
33846,4817, Note_on_c,51,76,3,2,1,59.0,False
33847,4818, Note_on_c,58,76,3,2,1,67.0,False
33848,4818, Note_on_c,63,76,3,2,1,73.0,False
33849,4819, Note_on_c,61,76,3,2,1,71.0,False
33850,4819, Note_on_c,68,76,3,2,1,79.0,False
33851,4820, Note_on_c,58,76,3,2,1,67.0,False
33852,4820, Note_on_c,63,76,3,2,1,73.0,False
33853,4821, Note_on_c,61,76,3,2,1,71.0,False
33854,4821, Note_on_c,66,76,3,2,1,77.0,False
33855,4822, Note_on_c,51,76,3,2,1,59.0,False
33856,4823, Note_on_c,58,76,3,2,1,67.0,False
33857,4823, Note_on_c,63,76,3,2,1,73.0,False
33858,4824, Note_on_c,61,76,3,2,1,71.0,False
33859,4824, Note_on_c,68,76,3,2,1,79.0,False
33860,4825, Note_on_c,51,76,3,2,1,59.0,False
33861,4826, Note_on_c,58,76,3,2,1,67.0,False
33862,4826, Note_on_c,63,76,3,2,1,73.0,False
33863,4827, Note_on_c,61,76,3,2,1,71.0,False
33864,4827, Note_on_c,68,76,3,2,1,79.0,False
33865,4828, Note_on_c,58,76,3,2,1,67.0,False
33866,4828, Note_on_c,63,76,3,2,1,73.0,False
33867,4829, Note_on_c,61,76,3,2,1,71.0,False
33868,4829, Note_on_c,66,76,3,2,1,77.0,False
33869,4830, Note_on_c,51,76,3,2,1,59.0,False
33870,4831, Note_on_c,58,76,3,2,1,67.0,False
33871,4831, Note_on_c,63,76,3,2,1,73.0,False
33872,4832, Note_on_c,61,76,3,2,1,71.0,False
33873,4832, Note_on_c,68,76,3,2,1,79.0,False
33874,4833, Note_on_c,51,76,3,2,1,59.0,False
33875,4834, Note_on_c,58,76,3,2,1,67.0,False
33876,4834, Note_on_c,63,76,3,2,1,73.0,False
33877,4835, Note_on_c,61,76,3,2,1,71.0,False
33878,4835, Note_on_c,68,76,3,2,1,79.0,False
33879,4836, Note_on_c,58,76,3,2,1,67.0,False
33880,4836, Note_on_c,63,76,3,2,1,73.0,False
33881,4837, Note_on_c,61,76,3,2,1,71.0,False
33882,4837, Note_on_c,66,76,3,2,1,77.0,False
33883,4838, Note_on_c,51,76,3,2,1,59.0,False
33884,4839, Note_on_c,58,76,3,2,1,67.0,False
33885,4839, Note_on_c,63,76,3,2,1,73.0,False
33886,4840, Note_on_c,61,76,3,2,1,71.0,False
33887,4840, Note_on_c,68,76,3,2,1,79.0,False
33888,4841, Note_on_c,51,76,3,2,1,59.0,False
33889,4842, Note_on_c,58,76,3,2,1,67.0,False
33890,4842, Note_on_c,63,76,3,2,1,73.0,False
33891,4843, Note_on_c,61,76,3,2,1,71.0,False
33892,4843, Note_on_c,68,76,3,2,1,79.0,False
33893,4844, Note_on_c,58,76,3,2,1,67.0,False
33894,4844, Note_on_c,63,76,3,2,1,73.0,False
33895,4845, Note_on_c,61,76,3,2,1,71.0,False
33896,4845, Note_on_c,66,76,3,2,1,77.0,False
33897,4846, Note_on_c,51,76,3,2,1,59.0,False
33898,4847, Note_on_c,58,76,3,2,1,67.0,False
33899,4847, Note_on_c,63,76,3,2,1,73.0,False
33900,4848, Note_on_c,61,76,3,2,1,71.0,False
33901,4848, Note_on_c,68,76,3,2,1,79.0,False
33902,4849, Note_on_c,51,76,3,2,1,59.0,False
33903,4850, Note_on_c,58,76,3,2,1,67.0,False
33904,4850, Note_on_c,63,76,3,2,1,73.0,False
33905,4851, Note_on_c,61,76,3,2,1,71.0,False
33906,4851, Note_on_c,68,76,3,2,1,79.0,False
33907,4852, Note_on_c,58,76,3,2,1,67.0,False
33908,4852, Note_on_c,63,76,3,2,1,73.0,False
33909,4853, Note_on_c,61,76,3,2,1,71.0,False
33910,4853, Note_on_c,66,76,3,2,1,77.0,False
33911,4854, Note_on_c,51,76,3,2,1,59.0,False
33912,4855, Note_on_c,58,76,3,2,1,67.0,False
33913,4855, Note_on_c,63,76,3,2,1,73.0,False
33914,4856, Note_on_c,61,76,3,2,1,71.0,False
33915,4856, Note_on_c,68,76,3,2,1,79.0,False
33916,4857, Note_on_c,51,76,3,2,1,59.0,False
33917,4858, Note_on_c,58,76,3,2,1,67.0,False
33918,4858, Note_on_c,63,76,3,2,1,73.0,False
33919,4859, Note_on_c,61,76,3,2,1,71.0,False
33920,4859, Note_on_c,68,76,3,2,1,79.0,False
33921,4860, Note_on_c,58,76,3,2,1,67.0,False
33922,4860, Note_on_c,63,76,3,2,1,73.0,False
33923,4861, Note_on_c,61,76,3,2,1,71.0,False
33924,4861, Note_on_c,66,76,3,2,1,77.0,False
33925,4862, Note_on_c,51,76,3,2,1,59.0,False
33926,4863, Note_on_c,58,76,3,2,1,67.0,False
33927,4863, Note_on_c,63,76,3,2,1,73.0,False
33928,4864, Note_on_c,61,76,3,2,1,71.0,False
33929,4864, Note_on_c,68,76,3,2,1,79.0,False
33930,4865, Note_on_c,51,76,3,2,1,59.0,False
33931,4866, Note_on_c,58,76,3,2,1,67.0,False
33932,4866, Note_on_c,63,76,3,2,1,73.0,False
33933,4867, Note_on_c,61,76,3,2,1,71.0,False
33934,4867, Note_on_c,68,76,3,2,1,79.0,False
33935,4868, Note_on_c,58,76,3,2,1,67.0,False
33936,4868, Note_on_c,63,76,3,2,1,73.0,False
33937,4869, Note_on_c,61,76,3,2,1,71.0,False
33938,4869, Note_on_c,66,76,3,2,1,77.0,False
33939,4870, Note_on_c,51,76,3,2,1,59.0,False
33940,4871, Note_on_c,58,76,3,2,1,67.0,False
33941,4871, Note_on_c,63,76,3,2,1,73.0,False
33942,4872, Note_on_c,61,76,3,2,1,71.0,False
33943,4872, Note_on_c,68,76,3,2,1,79.0,False
33944,4873, Note_on_c,51,76,3,2,1,59.0,False
33945,4874, Note_on_c,58,76,3,2,1,67.0,False
33946,4874, Note_on_c,63,76,3,2,1,73.0,False
33947,4875, Note_on_c,61,76,3,2,1,71.0,False
33948,4875, Note_on_c,68,76,3,2,1,79.0,False
33949,4876, Note_on_c,58,76,3,2,1,67.0,False
33950,4876, Note_on_c,63,76,3,2,1,73.0,False
33951,4877, Note_on_c,61,76,3,2,1,71.0,False
33952,4877, Note_on_c,66,76,3,2,1,77.0,False
33953,4878, Note_on_c,51,76,3,2,1,59.0,False
33954,4879, Note_on_c,58,76,3,2,1,67.0,False
33955,4879, Note_on_c,63,76,3,2,1,73.0,False
33956,4880, Note_on_c,61,76,3,2,1,71.0,False
33957,4880, Note_on_c,68,76,3,2,1,79.0,False
33958,4881, Note_on_c,51,76,3,2,1,59.0,False
33959,4882, Note_on_c,58,76,3,2,1,67.0,False
33960,4882, Note_on_c,63,76,3,2,1,73.0,False
33961,4883, Note_on_c,61,76,3,2,1,71.0,False
33962,4883, Note_on_c,68,76,3,2,1,79.0,False
33963,4884, Note_on_c,58,76,3,2,1,67.0,False
33964,4884, Note_on_c,63,76,3,2,1,73.0,False
33965,4885, Note_on_c,61,76,3,2,1,71.0,False
33966,4885, Note_on_c,66,76,3,2,1,77.0,False
33967,4886, Note_on_c,51,76,3,2,1,59.0,False
33968,4887, Note_on_c,58,76,3,2,1,67.0,False
33969,4887, Note_on_c,63,76,3,2,1,73.0,False
33970,4888, Note_on_c,61,76,3,2,1,71.0,False
33971,4888, Note_on_c,68,76,3,2,1,79.0,False
33972,4889, Note_on_c,51,76,3,2,1,59.0,False
33973,4890, Note_on_c,58,76,3,2,1,67.0,False
33974,4890, Note_on_c,63,76,3,2,1,73.0,False
33975,4891, Note_on_c,61,76,3,2,1,71.0,False
33976,4891, Note_on_c,68,76,3,2,1,79.0,False
33977,4892, Note_on_c,58,76,3,2,1,67.0,False
33978,4892, Note_on_c,63,76,3,2,1,73.0,False
33979,4893, Note_on_c,61,76,3,2,1,71.0,False
33980,4893, Note_on_c,66,76,3,2,1,77.0,False
33981,4894, Note_on_c,51,76,3,2,1,59.0,False
33982,4895, Note_on_c,58,76,3,2,1,67.0,False
33983,4895, Note_on_c,63,76,3,2,1,73.0,False
33984,4896, Note_on_c,61,76,3,2,1,71.0,False
33985,4896, Note_on_c,68,76,3,2,1,79.0,False
33986,4897, Note_on_c,51,76,3,2,1,59.0,False
33987,4898, Note_on_c,58,76,3,2,1,67.0,False
33988,4898, Note_on_c,63,76,3,2,1,73.0,False
33989,4899, Note_on_c,61,76,3,2,1,71.0,False
33990,4899, Note_on_c,68,76,3,2,1,79.0,False
33991,4900, Note_on_c,58,76,3,2,1,67.0,False
33992,4900, Note_on_c,63,76,3,2,1,73.0,False
33993,4901, Note_on_c,61,76,3,2,1,71.0,False
33994,4901, Note_on_c,66,76,3,2,1,77.0,False
33995,4902, Note_on_c,51,76,3,2,1,59.0,False
33996,4903, Note_on_c,58,76,3,2,1,67.0,False
33997,4903, Note_on_c,63,76,3,2,1,73.0,False
33998,4904, Note_on_c,61,76,3,2,1,71.0,False
33999,4904, Note_on_c,68,76,3,2,1,79.0,False
34000,4905, Note_on_c,51,76,3,2,1,59.0,False
34001,4906, Note_on_c,58,76,3,2,1,67.0,False
34002,4906, Note_on_c,63,76,3,2,1,73.0,False
34003,4907, Note_on_c,61,76,3,2,1,71.0,False
34004,4907, Note_on_c,68,76,3,2,1,79.0,False
34005,4908, Note_on_c,58,76,3,2,1,67.0,False
34006,4908, Note_on_c,63,76,3,2,1,73.0,False
34007,4909, Note_on_c,61,76,3,2,1,71.0,False
34008,4909, Note_on_c,66,76,3,2,1,77.0,False
34009,4910, Note_on_c,51,76,3,2,1,59.0,False
34010,4911, Note_on_c,58,76,3,2,1,67.0,False
34011,4911, Note_on_c,63,76,3,2,1,73.0,False
34012,4912, Note_on_c,61,76,3,2,1,71.0,False
34013,4912, Note_on_c,68,76,3,2,1,79.0,False
34014,4913, Note_on_c,51,76,3,2,1,59.0,False
34015,4914, Note_on_c,58,76,3,2,1,67.0,False
34016,4914, Note_on_c,63,76,3,2,1,73.0,False
34017,4915, Note_on_c,61,76,3,2,1,71.0,False
34018,4915, Note_on_c,68,76,3,2,1,79.0,False
34019,4916, Note_on_c,58,76,3,2,1,67.0,False
34020,4916, Note_on_c,63,76,3,2,1,73.0,False
34021,4917, Note_on_c,61,76,3,2,1,71.0,False
34022,4917, Note_on_c,66,76,3,2,1,77.0,False
34023,4918, Note_on_c,51,76,3,2,1,59.0,False
34024,4919, Note_on_c,58,76,3,2,1,67.0,False
34025,4919, Note_on_c,63,76,3,2,1,73.0,False
34026,4920, Note_on_c,61,76,3,2,1,71.0,False
34027,4920, Note_on_c,68,76,3,2,1,79.0,False
34028,4921, Note_on_c,51,76,3,2,1,59.0,False
34029,4922, Note_on_c,58,76,3,2,1,67.0,False
34030,4922, Note_on_c,63,76,3,2,1,73.0,False
34031,4923, Note_on_c,61,76,3,2,1,71.0,False
34032,4923, Note_on_c,68,76,3,2,1,79.0,False
34033,4924, Note_on_c,58,76,3,2,1,67.0,False
34034,4924, Note_on_c,63,76,3,2,1,73.0,False
34035,4925, Note_on_c,61,76,3,2,1,71.0,False
34036,4925, Note_on_c,66,76,3,2,1,77.0,False
34037,4926, Note_on_c,51,76,3,2,1,59.0,False
34038,4927, Note_on_c,58,76,3,2,1,67.0,False
34039,4927, Note_on_c,63,76,3,2,1,73.0,False
34040,4928, Note_on_c,61,76,3,2,1,71.0,False
34041,4928, Note_on_c,68,76,3,2,1,79.0,False
34042,4929, Note_on_c,51,76,3,2,1,59.0,False
34043,4930, Note_on_c,58,76,3,2,1,67.0,False
34044,4930, Note_on_c,63,76,3,2,1,73.0,False
34045,4931, Note_on_c,61,76,3,2,1,71.0,False
34046,4931, Note_on_c,68,76,3,2,1,79.0,False
34047,4932, Note_on_c,58,76,3,2,1,67.0,False
34048,4932, Note_on_c,63,76,3,2,1,73.0,False
34049,4933, Note_on_c,61,76,3,2,1,71.0,False
34050,4933, Note_on_c,66,76,3,2,1,77.0,False
34051,4934, Note_on_c,51,76,3,2,1,59.0,False
34052,4935, Note_on_c,58,76,3,2,1,67.0,False
34053,4935, Note_on_c,63,76,3,2,1,73.0,False
34054,4936, Note_on_c,61,76,3,2,1,71.0,False
34055,4936, Note_on_c,68,76,3,2,1,79.0,False
34056,4937, Note_on_c,51,76,3,2,1,59.0,False
34057,4938, Note_on_c,58,76,3,2,1,67.0,False
34058,4938, Note_on_c,63,76,3,2,1,73.0,False
34059,4939, Note_on_c,61,76,3,2,1,71.0,False
34060,4939, Note_on_c,68,76,3,2,1,79.0,False
34061,4940, Note_on_c,58,76,3,2,1,67.0,False
34062,4940, Note_on_c,63,76,3,2,1,73.0,False
34063,4941, Note_on_c,61,76,3,2,1,71.0,False
34064,4941, Note_on_c,66,76,3,2,1,77.0,False
34065,4942, Note_on_c,51,76,3,2,1,59.0,False
34066,4943, Note_on_c,58,76,3,2,1,67.0,False
34067,4943, Note_on_c,63,76,3,2,1,73.0,False
34068,4944, Note_on_c,61,76,3,2,1,71.0,False
34069,4944, Note_on_c,68,76,3,2,1,79.0,False
34070,4945, Note_on_c,51,76,3,2,1,59.0,False
34071,4946, Note_on_c,58,76,3,2,1,67.0,False
34072,4946, Note_on_c,63,76,3,2,1,73.0,False
34073,4947, Note_on_c,61,76,3,2,1,71.0,False
34074,4947, Note_on_c,68,76,3,2,1,79.0,False
34075,4948, Note_on_c,58,76,3,2,1,67.0,False
34076,4948, Note_on_c,63,76,3,2,1,73.0,False
34077,4949, Note_on_c,61,76,3,2,1,71.0,False
34078,4949, Note_on_c,66,76,3,2,1,77.0,False
34079,4950, Note_on_c,51,76,3,2,1,59.0,False
34080,4951, Note_on_c,58,76,3,2,1,67.0,False
34081,4951, Note_on_c,63,76,3,2,1,73.0,False
34082,4952, Note_on_c,61,76,3,2,1,71.0,False
34083,4952, Note_on_c,68,76,3,2,1,79.0,False
34084,4953, Note_on_c,51,76,3,2,1,59.0,False
34085,4954, Note_on_c,58,76,3,2,1,67.0,False
34086,4954, Note_on_c,63,76,3,2,1,73.0,False
34087,4955, Note_on_c,61,76,3,2,1,71.0,False
34088,4955, Note_on_c,68,76,3,2,1,79.0,False
34089,4956, Note_on_c,58,76,3,2,1,67.0,False
34090,4956, Note_on_c,63,76,3,2,1,73.0,False
34091,4957, Note_on_c,61,76,3,2,1,71.0,False
34092,4957, Note_on_c,66,76,3,2,1,77.0,False
34093,4958, Note_on_c,51,76,3,2,1,59.0,False
34094,4959, Note_on_c,58,76,3,2,1,67.0,False
34095,4959, Note_on_c,63,76,3,2,1,73.0,False
34096,4960, Note_on_c,61,76,3,2,1,71.0,False
34097,4960, Note_on_c,68,76,3,2,1,79.0,False
34098,4961, Note_on_c,51,76,3,2,1,59.0,False
34099,4962, Note_on_c,58,76,3,2,1,67.0,False
34100,4962, Note_on_c,63,76,3,2,1,73.0,False
34101,4963, Note_on_c,61,76,3,2,1,71.0,False
34102,4963, Note_on_c,68,76,3,2,1,79.0,False
34103,4964, Note_on_c,58,76,3,2,1,67.0,False
34104,4964, Note_on_c,63,76,3,2,1,73.0,False
34105,4965, Note_on_c,61,76,3,2,1,71.0,False
34106,4965, Note_on_c,66,76,3,2,1,77.0,False
34107,4966, Note_on_c,51,76,3,2,1,59.0,False
34108,4967, Note_on_c,58,76,3,2,1,67.0,False
34109,4967, Note_on_c,63,76,3,2,1,73.0,False
34110,4968, Note_on_c,61,76,3,2,1,71.0,False
34111,4968, Note_on_c,68,76,3,2,1,79.0,False
34112,4969, Note_on_c,51,76,3,2,1,59.0,False
34113,4970, Note_on_c,58,76,3,2,1,67.0,False
34114,4970, Note_on_c,63,76,3,2,1,73.0,False
34115,4971, Note_on_c,61,76,3,2,1,71.0,False
34116,4971, Note_on_c,68,76,3,2,1,79.0,False
34117,4972, Note_on_c,58,76,3,2,1,67.0,False
34118,4972, Note_on_c,63,76,3,2,1,73.0,False
34119,4973, Note_on_c,61,76,3,2,1,71.0,False
34120,4973, Note_on_c,66,76,3,2,1,77.0,False
34121,4974, Note_on_c,51,76,3,2,1,59.0,False
34122,4975, Note_on_c,58,76,3,2,1,67.0,False
34123,4975, Note_on_c,63,76,3,2,1,73.0,False
34124,4976, Note_on_c,61,76,3,2,1,71.0,False
34125,4976, Note_on_c,68,76,3,2,1,79.0,False
34126,4977, Note_on_c,51,76,3,2,1,59.0,False
34127,4978, Note_on_c,58,76,3,2,1,67.0,False
34128,4978, Note_on_c,63,76,3,2,1,73.0,False
34129,4979, Note_on_c,61,76,3,2,1,71.0,False
34130,4979, Note_on_c,68,76,3,2,1,79.0,False
34131,4980, Note_on_c,58,76,3,2,1,67.0,False
34132,4980, Note_on_c,63,76,3,2,1,73.0,False
34133,4981, Note_on_c,61,76,3,2,1,71.0,False
34134,4981, Note_on_c,66,76,3,2,1,77.0,False
34135,4982, Note_on_c,51,76,3,2,1,59.0,False
34136,4983, Note_on_c,58,76,3,2,1,67.0,False
34137,4983, Note_on_c,63,76,3,2,1,73.0,False
34138,4984, Note_on_c,61,76,3,2,1,71.0,False
34139,4984, Note_on_c,68,76,3,2,1,79.0,False
34140,4985, Note_on_c,51,76,3,2,1,59.0,False
34141,4986, Note_on_c,58,76,3,2,1,67.0,False
34142,4986, Note_on_c,63,76,3,2,1,73.0,False
34143,4987, Note_on_c,61,76,3,2,1,71.0,False
34144,4987, Note_on_c,68,76,3,2,1,79.0,False
34145,4988, Note_on_c,58,76,3,2,1,67.0,False
34146,4988, Note_on_c,63,76,3,2,1,73.0,False
34147,4989, Note_on_c,61,76,3,2,1,71.0,False
34148,4989, Note_on_c,66,76,3,2,1,77.0,False
34149,4990, Note_on_c,51,76,3,2,1,59.0,False
34150,4991, Note_on_c,58,76,3,2,1,67.0,False
34151,4991, Note_on_c,63,76,3,2,1,73.0,False
34152,4992, Note_on_c,61,76,3,2,1,71.0,False
34153,4992, Note_on_c,68,76,3,2,1,79.0,False
34154,4993, Note_on_c,51,76,3,2,1,59.0,False
34155,4994, Note_on_c,58,76,3,2,1,67.0,False
34156,4994, Note_on_c,63,76,3,2,1,73.0,False
34157,4995, Note_on_c,61,76,3,2,1,71.0,False
34158,4995, Note_on_c,68,76,3,2,1,79.0,False
34159,4996, Note_on_c,58,76,3,2,1,67.0,False
34160,4996, Note_on_c,63,76,3,2,1,73.0,False
34161,4997, Note_on_c,61,76,3,2,1,71.0,False
34162,4997, Note_on_c,66,76,3,2,1,77.0,False
34163,4998, Note_on_c,51,76,3,2,1,59.0,False
34164,4999, Note_on_c,58,76,3,2,1,67.0,False
34165,4999, Note_on_c,63,76,3,2,1,73.0,False
34166,5000, Note_on_c,61,76,3,2,1,71.0,False
34167,5000, Note_on_c,68,76,3,2,1,79.0,False
34168,5001, Note_on_c,51,76,3,2,1,59.0,False
34169,5002, Note_on_c,58,76,3,2,1,67.0,False
34170,5002, Note_on_c,63,76,3,2,1,73.0,False
34171,5003, Note_on_c,61,76,3,2,1,71.0,False
34172,5003, Note_on_c,68,76,3,2,1,79.0,False
34173,5004, Note_on_c,58,76,3,2,1,67.0,False
34174,5004, Note_on_c,63,76,3,2,1,73.0,False
34175,5005, Note_on_c,61,76,3,2,1,71.0,False
34176,5005, Note_on_c,66,76,3,2,1,77.0,False
34177,5006, Note_on_c,51,76,3,2,1,59.0,False
34178,5007, Note_on_c,58,76,3,2,1,67.0,False
34179,5007, Note_on_c,63,76,3,2,1,73.0,False
34180,5008, Note_on_c,61,76,3,2,1,71.0,False
34181,5008, Note_on_c,68,76,3,2,1,79.0,False
34182,5009, Note_on_c,51,76,3,2,1,59.0,False
34183,5010, Note_on_c,58,76,3,2,1,67.0,False
34184,5010, Note_on_c,63,76,3,2,1,73.0,False
34185,5011, Note_on_c,61,76,3,2,1,71.0,False
34186,5011, Note_on_c,68,76,3,2,1,79.0,False
34187,5012, Note_on_c,58,76,3,2,1,67.0,False
34188,5012, Note_on_c,63,76,3,2,1,73.0,False
34189,5013, Note_on_c,61,76,3,2,1,71.0,False
34190,5013, Note_on_c,66,76,3,2,1,77.0,False
34191,5014, Note_on_c,51,76,3,2,1,59.0,False
34192,5015, Note_on_c,58,76,3,2,1,67.0,False
34193,5015, Note_on_c,63,76,3,2,1,73.0,False
34194,5016, Note_on_c,61,76,3,2,1,71.0,False
34195,5016, Note_on_c,68,76,3,2,1,79.0,False
34196,5017, Note_on_c,51,76,3,2,1,59.0,False
34197,5018, Note_on_c,58,76,3,2,1,67.0,False
34198,5018, Note_on_c,63,76,3,2,1,73.0,False
34199,5019, Note_on_c,61,76,3,2,1,71.0,False
34200,5019, Note_on_c,68,76,3,2,1,79.0,False
34201,5020, Note_on_c,58,76,3,2,1,67.0,False
34202,5020, Note_on_c,63,76,3,2,1,73.0,False
34203,5021, Note_on_c,61,76,3,2,1,71.0,False
34204,5021, Note_on_c,66,76,3,2,1,77.0,False
34205,5022, Note_on_c,51,76,3,2,1,59.0,False
34206,5023, Note_on_c,58,76,3,2,1,67.0,False
34207,5023, Note_on_c,63,76,3,2,1,73.0,False
34208,5024, Note_on_c,61,76,3,2,1,71.0,False
34209,5024, Note_on_c,68,76,3,2,1,79.0,False
34210,5025, Note_on_c,51,76,3,2,1,59.0,False
34211,5026, Note_on_c,58,76,3,2,1,67.0,False
34212,5026, Note_on_c,63,76,3,2,1,73.0,False
34213,5027, Note_on_c,61,76,3,2,1,71.0,False
34214,5027, Note_on_c,68,76,3,2,1,79.0,False
34215,5028, Note_on_c,58,76,3,2,1,67.0,False
34216,5028, Note_on_c,63,76,3,2,1,73.0,False
34217,5029, Note_on_c,61,76,3,2,1,71.0,False
34218,5029, Note_on_c,66,76,3,2,1,77.0,False
34219,5030, Note_on_c,51,76,3,2,1,59.0,False
34220,5031, Note_on_c,58,76,3,2,1,67.0,False
34221,5031, Note_on_c,63,76,3,2,1,73.0,False
34222,5032, Note_on_c,61,76,3,2,1,71.0,False
34223,5032, Note_on_c,68,76,3,2,1,79.0,False
34224,5033, Note_on_c,51,76,3,2,1,59.0,False
34225,5034, Note_on_c,58,76,3,2,1,67.0,False
34226,5034, Note_on_c,63,76,3,2,1,73.0,False
34227,5035, Note_on_c,61,76,3,2,1,71.0,False
34228,5035, Note_on_c,68,76,3,2,1,79.0,False
34229,5036, Note_on_c,58,76,3,2,1,67.0,False
34230,5036, Note_on_c,63,76,3,2,1,73.0,False
34231,5037, Note_on_c,61,76,3,2,1,71.0,False
34232,5037, Note_on_c,66,76,3,2,1,77.0,False
34233,5038, Note_on_c,51,76,3,2,1,59.0,False
34234,5039, Note_on_c,58,76,3,2,1,67.0,False
34235,5039, Note_on_c,63,76,3,2,1,73.0,False
34236,5040, Note_on_c,61,76,3,2,1,71.0,False
34237,5040, Note_on_c,68,76,3,2,1,79.0,False
34238,5041, Note_on_c,51,76,3,2,1,59.0,False
34239,5042, Note_on_c,58,76,3,2,1,67.0,False
34240,5042, Note_on_c,63,76,3,2,1,73.0,False
34241,5043, Note_on_c,61,76,3,2,1,71.0,False
34242,5043, Note_on_c,68,76,3,2,1,79.0,False
34243,5044, Note_on_c,58,76,3,2,1,67.0,False
34244,5044, Note_on_c,63,76,3,2,1,73.0,False
34245,5045, Note_on_c,61,76,3,2,1,71.0,False
34246,5045, Note_on_c,66,76,3,2,1,77.0,False
34247,5046, Note_on_c,51,76,3,2,1,59.0,False
34248,5047, Note_on_c,58,76,3,2,1,67.0,False
34249,5047, Note_on_c,63,76,3,2,1,73.0,False
34250,5048, Note_on_c,61,76,3,2,1,71.0,False
34251,5048, Note_on_c,68,76,3,2,1,79.0,False
34252,5049, Note_on_c,51,76,3,2,1,59.0,False
34253,5050, Note_on_c,58,76,3,2,1,67.0,False
34254,5050, Note_on_c,63,76,3,2,1,73.0,False
34255,5051, Note_on_c,61,76,3,2,1,71.0,False
34256,5051, Note_on_c,68,76,3,2,1,79.0,False
34257,5052, Note_on_c,58,76,3,2,1,67.0,False
34258,5052, Note_on_c,63,76,3,2,1,73.0,False
34259,5053, Note_on_c,61,76,3,2,1,71.0,False
34260,5053, Note_on_c,66,76,3,2,1,77.0,False
34261,5054, Note_on_c,51,76,3,2,1,59.0,False
34262,5055, Note_on_c,58,76,3,2,1,67.0,False
34263,5055, Note_on_c,63,76,3,2,1,73.0,False
34264,5056, Note_on_c,61,76,3,2,1,71.0,False
34265,5056, Note_on_c,68,76,3,2,1,79.0,False
34266,5057, Note_on_c,51,76,3,2,1,59.0,False
34267,5058, Note_on_c,58,76,3,2,1,67.0,False
34268,5058, Note_on_c,63,76,3,2,1,73.0,False
34269,5059, Note_on_c,61,76,3,2,1,71.0,False
34270,5059, Note_on_c,68,76,3,2,1,79.0,False
34271,5060, Note_on_c,58,76,3,2,1,67.0,False
34272,5060, Note_on_c,63,76,3,2,1,73.0,False
34273,5061, Note_on_c,61,76,3,2,1,71.0,False
34274,5061, Note_on_c,66,76,3,2,1,77.0,False
34275,5062, Note_on_c,51,76,3,2,1,59.0,False
34276,5063, Note_on_c,58,76,3,2,1,67.0,False
34277,5063, Note_on_c,63,76,3,2,1,73.0,False
34278,5064, Note_on_c,61,76,3,2,1,71.0,False
34279,5064, Note_on_c,68,76,3,2,1,79.0,False
34280,5065, Note_on_c,51,76,3,2,1,59.0,False
34281,5066, Note_on_c,58,76,3,2,1,67.0,False
34282,5066, Note_on_c,63,76,3,2,1,73.0,False
34283,5067, Note_on_c,61,76,3,2,1,71.0,False
34284,5067, Note_on_c,68,76,3,2,1,79.0,False
34285,5068, Note_on_c,58,76,3,2,1,67.0,False
34286,5068, Note_on_c,63,76,3,2,1,73.0,False
34287,5069, Note_on_c,61,76,3,2,1,71.0,False
34288,5069, Note_on_c,66,76,3,2,1,77.0,False
34289,5070, Note_on_c,51,76,3,2,1,59.0,False
34290,5071, Note_on_c,58,76,3,2,1,67.0,False
34291,5071, Note_on_c,63,76,3,2,1,73.0,False
34292,5072, Note_on_c,61,76,3,2,1,71.0,False
34293,5072, Note_on_c,68,76,3,2,1,79.0,False
34294,5073, Note_on_c,51,76,3,2,1,59.0,False
34295,5074, Note_on_c,58,76,3,2,1,67.0,False
34296,5074, Note_on_c,63,76,3,2,1,73.0,False
34297,5075, Note_on_c,61,76,3,2,1,71.0,False
34298,5075, Note_on_c,68,76,3,2,1,79.0,False
34299,5076, Note_on_c,58,76,3,2,1,67.0,False
34300,5076, Note_on_c,63,76,3,2,1,73.0,False
34301,5077, Note_on_c,61,76,3,2,1,71.0,False
34302,5077, Note_on_c,66,76,3,2,1,77.0,False
34303,5078, Note_on_c,51,76,3,2,1,59.0,False
34304,5079, Note_on_c,58,76,3,2,1,67.0,False
34305,5079, Note_on_c,63,76,3,2,1,73.0,False
34306,5080, Note_on_c,61,76,3,2,1,71.0,False
34307,5080, Note_on_c,68,76,3,2,1,79.0,False
34308,5081, Note_on_c,51,76,3,2,1,59.0,False
34309,5082, Note_on_c,58,76,3,2,1,67.0,False
34310,5082, Note_on_c,63,76,3,2,1,73.0,False
34311,5083, Note_on_c,61,76,3,2,1,71.0,False
34312,5083, Note_on_c,68,76,3,2,1,79.0,False
34313,5084, Note_on_c,58,76,3,2,1,67.0,False
34314,5084, Note_on_c,63,76,3,2,1,73.0,False
34315,5085, Note_on_c,61,76,3,2,1,71.0,False
34316,5085, Note_on_c,66,76,3,2,1,77.0,False
34317,5086, Note_on_c,51,76,3,2,1,59.0,False
34318,5087, Note_on_c,58,76,3,2,1,67.0,False
34319,5087, Note_on_c,63,76,3,2,1,73.0,False
34320,5088, Note_on_c,61,76,3,2,1,71.0,False
34321,5088, Note_on_c,68,76,3,2,1,79.0,False
34322,5089, Note_on_c,51,76,3,2,1,59.0,False
34323,5090, Note_on_c,58,76,3,2,1,67.0,False
34324,5090, Note_on_c,63,76,3,2,1,73.0,False
34325,5091, Note_on_c,61,76,3,2,1,71.0,False
34326,5091, Note_on_c,68,76,3,2,1,79.0,False
34327,5092, Note_on_c,58,76,3,2,1,67.0,False
34328,5092, Note_on_c,63,76,3,2,1,73.0,False
34329,5093, Note_on_c,61,76,3,2,1,71.0,False
34330,5093, Note_on_c,66,76,3,2,1,77.0,False
34331,5094, Note_on_c,51,76,3,2,1,59.0,False
34332,5095, Note_on_c,58,76,3,2,1,67.0,False
34333,5095, Note_on_c,63,76,3,2,1,73.0,False
34334,5096, Note_on_c,61,76,3,2,1,71.0,False
34335,5096, Note_on_c,68,76,3,2,1,79.0,False
34336,5097, Note_on_c,51,76,3,2,1,59.0,False
34337,5098, Note_on_c,58,76,3,2,1,67.0,False
34338,5098, Note_on_c,63,76,3,2,1,73.0,False
34339,5099, Note_on_c,61,76,3,2,1,71.0,False
34340,5099, Note_on_c,68,76,3,2,1,79.0,False
34341,5100, Note_on_c,58,76,3,2,1,67.0,False
34342,5100, Note_on_c,63,76,3,2,1,73.0,False
34343,5101, Note_on_c,61,76,3,2,1,71.0,False
34344,5101, Note_on_c,66,76,3,2,1,77.0,False
34345,5102, Note_on_c,51,76,3,2,1,59.0,False
34346,5103, Note_on_c,58,76,3,2,1,67.0,False
34347,5103, Note_on_c,63,76,3,2,1,73.0,False
34348,5104, Note_on_c,61,76,3,2,1,71.0,False
34349,5104, Note_on_c,68,76,3,2,1,79.0,False
34350,5105, Note_on_c,51,76,3,2,1,59.0,False
34351,5106, Note_on_c,58,76,3,2,1,67.0,False
34352,5106, Note_on_c,63,76,3,2,1,73.0,False
34353,5107, Note_on_c,61,76,3,2,1,71.0,False
34354,5107, Note_on_c,68,76,3,2,1,79.0,False
34355,5108, Note_on_c,58,76,3,2,1,67.0,False
34356,5108, Note_on_c,63,76,3,2,1,73.0,False
34357,5109, Note_on_c,61,76,3,2,1,71.0,False
34358,5109, Note_on_c,66,76,3,2,1,77.0,False
34359,5110, Note_on_c,51,76,3,2,1,59.0,False
34360,5111, Note_on_c,58,76,3,2,1,67.0,False
34361,5111, Note_on_c,63,76,3,2,1,73.0,False
34362,5112, Note_on_c,61,76,3,2,1,71.0,False
34363,5112, Note_on_c,68,76,3,2,1,79.0,False
34364,5113, Note_on_c,51,76,3,2,1,59.0,False
34365,5114, Note_on_c,58,76,3,2,1,67.0,False
34366,5114, Note_on_c,63,76,3,2,1,73.0,False
34367,5115, Note_on_c,61,76,3,2,1,71.0,False
34368,5115, Note_on_c,68,76,3,2,1,79.0,False
34369,5116, Note_on_c,58,76,3,2,1,67.0,False
34370,5116, Note_on_c,63,76,3,2,1,73.0,False
34371,5117, Note_on_c,61,76,3,2,1,71.0,False
34372,5117, Note_on_c,66,76,3,2,1,77.0,False
34373,5118, Note_on_c,51,76,3,2,1,59.0,False
34374,5119, Note_on_c,58,76,3,2,1,67.0,False
34375,5119, Note_on_c,63,76,3,2,1,73.0,False
34376,5120, Note_on_c,61,76,3,2,1,71.0,False
34377,5120, Note_on_c,68,76,3,2,1,79.0,False
34378,5121, Note_on_c,51,76,3,2,1,59.0,False
34379,5122, Note_on_c,58,76,3,2,1,67.0,False
34380,5122, Note_on_c,63,76,3,2,1,73.0,False
34381,5123, Note_on_c,61,76,3,2,1,71.0,False
34382,5123, Note_on_c,68,76,3,2,1,79.0,False
34383,5124, Note_on_c,58,76,3,2,1,67.0,False
34384,5124, Note_on_c,63,76,3,2,1,73.0,False
34385,5125, Note_on_c,61,76,3,2,1,71.0,False
34386,5125, Note_on_c,66,76,3,2,1,77.0,False
34387,5126, Note_on_c,51,76,3,2,1,59.0,False
34388,5127, Note_on_c,58,76,3,2,1,67.0,False
34389,5127, Note_on_c,63,76,3,2,1,73.0,False
34390,5128, Note_on_c,61,76,3,2,1,71.0,False
34391,5128, Note_on_c,68,76,3,2,1,79.0,False
34392,5129, Note_on_c,51,76,3,2,1,59.0,False
34393,5130, Note_on_c,58,76,3,2,1,67.0,False
34394,5130, Note_on_c,63,76,3,2,1,73.0,False
34395,5131, Note_on_c,61,76,3,2,1,71.0,False
34396,5131, Note_on_c,68,76,3,2,1,79.0,False
34397,5132, Note_on_c,58,76,3,2,1,67.0,False
34398,5132, Note_on_c,63,76,3,2,1,73.0,False
34399,5133, Note_on_c,61,76,3,2,1,71.0,False
34400,5133, Note_on_c,66,76,3,2,1,77.0,False
34401,5134, Note_on_c,51,76,3,2,1,59.0,False
34402,5135, Note_on_c,58,76,3,2,1,67.0,False
34403,5135, Note_on_c,63,76,3,2,1,73.0,False
34404,5136, Note_on_c,61,76,3,2,1,71.0,False
34405,5136, Note_on_c,68,76,3,2,1,79.0,False
34406,5137, Note_on_c,51,76,3,2,1,59.0,False
34407,5138, Note_on_c,58,76,3,2,1,67.0,False
34408,5138, Note_on_c,63,76,3,2,1,73.0,False
34409,5139, Note_on_c,61,76,3,2,1,71.0,False
34410,5139, Note_on_c,68,76,3,2,1,79.0,False
34411,5140, Note_on_c,58,76,3,2,1,67.0,False
34412,5140, Note_on_c,63,76,3,2,1,73.0,False
34413,5141, Note_on_c,61,76,3,2,1,71.0,False
34414,5141, Note_on_c,66,76,3,2,1,77.0,False
34415,5142, Note_on_c,51,76,3,2,1,59.0,False
34416,5143, Note_on_c,58,76,3,2,1,67.0,False
34417,5143, Note_on_c,63,76,3,2,1,73.0,False
34418,5144, Note_on_c,61,76,3,2,1,71.0,False
34419,5144, Note_on_c,68,76,3,2,1,79.0,False
34420,5145, Note_on_c,51,76,3,2,1,59.0,False
34421,5146, Note_on_c,58,76,3,2,1,67.0,False
34422,5146, Note_on_c,63,76,3,2,1,73.0,False
34423,5147, Note_on_c,61,76,3,2,1,71.0,False
34424,5147, Note_on_c,68,76,3,2,1,79.0,False
34425,5148, Note_on_c,58,76,3,2,1,67.0,False
34426,5148, Note_on_c,63,76,3,2,1,73.0,False
34427,5149, Note_on_c,61,76,3,2,1,71.0,False
34428,5149, Note_on_c,66,76,3,2,1,77.0,False
34429,5150, Note_on_c,51,76,3,2,1,59.0,False
34430,5151, Note_on_c,58,76,3,2,1,67.0,False
34431,5151, Note_on_c,63,76,3,2,1,73.0,False
34432,5152, Note_on_c,61,76,3,2,1,71.0,False
34433,5152, Note_on_c,68,76,3,2,1,79.0,False
34434,5153, Note_on_c,51,76,3,2,1,59.0,False
34435,5154, Note_on_c,58,76,3,2,1,67.0,False
34436,5154, Note_on_c,63,76,3,2,1,73.0,False
34437,5155, Note_on_c,61,76,3,2,1,71.0,False
34438,5155, Note_on_c,68,76,3,2,1,79.0,False
34439,5156, Note_on_c,58,76,3,2,1,67.0,False
34440,5156, Note_on_c,63,76,3,2,1,73.0,False
34441,5157, Note_on_c,61,76,3,2,1,71.0,False
34442,5157, Note_on_c,66,76,3,2,1,77.0,False
34443,5158, Note_on_c,51,76,3,2,1,59.0,False
34444,5159, Note_on_c,58,76,3,2,1,67.0,False
34445,5159, Note_on_c,63,76,3,2,1,73.0,False
34446,5160, Note_on_c,61,76,3,2,1,71.0,False
34447,5160, Note_on_c,68,76,3,2,1,79.0,False
34448,5161, Note_on_c,51,76,3,2,1,59.0,False
34449,5162, Note_on_c,58,76,3,2,1,67.0,False
34450,5162, Note_on_c,63,76,3,2,1,73.0,False
34451,5163, Note_on_c,61,76,3,2,1,71.0,False
34452,5163, Note_on_c,68,76,3,2,1,79.0,False
34453,5164, Note_on_c,58,76,3,2,1,67.0,False
34454,5164, Note_on_c,63,76,3,2,1,73.0,False
34455,5165, Note_on_c,61,76,3,2,1,71.0,False
34456,5165, Note_on_c,66,76,3,2,1,77.0,False
34457,5166, Note_on_c,51,76,3,2,1,59.0,False
34458,5167, Note_on_c,58,76,3,2,1,67.0,False
34459,5167, Note_on_c,63,76,3,2,1,73.0,False
34460,5168, Note_on_c,61,76,3,2,1,71.0,False
34461,5168, Note_on_c,68,76,3,2,1,79.0,False
34462,5169, Note_on_c,51,76,3,2,1,59.0,False
34463,5170, Note_on_c,58,76,3,2,1,67.0,False
34464,5170, Note_on_c,63,76,3,2,1,73.0,False
34465,5171, Note_on_c,61,76,3,2,1,71.0,False
34466,5171, Note_on_c,68,76,3,2,1,79.0,False
34467,5172, Note_on_c,58,76,3,2,1,67.0,False
34468,5172, Note_on_c,63,76,3,2,1,73.0,False
34469,5173, Note_on_c,61,76,3,2,1,71.0,False
34470,5173, Note_on_c,66,76,3,2,1,77.0,False
34471,5174, Note_on_c,51,76,3,2,1,59.0,False
34472,5175, Note_on_c,58,76,3,2,1,67.0,False
34473,5175, Note_on_c,63,76,3,2,1,73.0,False
34474,5176, Note_on_c,61,76,3,2,1,71.0,False
34475,5176, Note_on_c,68,76,3,2,1,79.0,False
34476,5177, Note_on_c,51,76,3,2,1,59.0,False
34477,5178, Note_on_c,58,76,3,2,1,67.0,False
34478,5178, Note_on_c,63,76,3,2,1,73.0,False
34479,5179, Note_on_c,61,76,3,2,1,71.0,False
34480,5179, Note_on_c,68,76,3,2,1,79.0,False
34481,5180, Note_on_c,58,76,3,2,1,67.0,False
34482,5180, Note_on_c,63,76,3,2,1,73.0,False
34483,5181, Note_on_c,61,76,3,2,1,71.0,False
34484,5181, Note_on_c,66,76,3,2,1,77.0,False
34485,5182, Note_on_c,51,76,3,2,1,59.0,False
34486,5183, Note_on_c,58,76,3,2,1,67.0,False
34487,5183, Note_on_c,63,76,3,2,1,73.0,False
34488,5184, Note_on_c,61,76,3,2,1,71.0,False
34489,5184, Note_on_c,68,76,3,2,1,79.0,False
34490,5185, Note_on_c,51,76,3,2,1,59.0,False
34491,5186, Note_on_c,58,76,3,2,1,67.0,False
34492,5186, Note_on_c,63,76,3,2,1,73.0,False
34493,5187, Note_on_c,61,76,3,2,1,71.0,False
34494,5187, Note_on_c,68,76,3,2,1,79.0,False
34495,5188, Note_on_c,58,76,3,2,1,67.0,False
34496,5188, Note_on_c,63,76,3,2,1,73.0,False
34497,5189, Note_on_c,61,76,3,2,1,71.0,False
34498,5189, Note_on_c,66,76,3,2,1,77.0,False
34499,5190, Note_on_c,51,76,3,2,1,59.0,False
34500,5191, Note_on_c,58,76,3,2,1,67.0,False
34501,5191, Note_on_c,63,76,3,2,1,73.0,False
34502,5192, Note_on_c,61,76,3,2,1,71.0,False
34503,5192, Note_on_c,68,76,3,2,1,79.0,False
34504,5193, Note_on_c,51,76,3,2,1,59.0,False
34505,5194, Note_on_c,58,76,3,2,1,67.0,False
34506,5194, Note_on_c,63,76,3,2,1,73.0,False
34507,5195, Note_on_c,61,76,3,2,1,71.0,False
34508,5195, Note_on_c,68,76,3,2,1,79.0,False
34509,5196, Note_on_c,58,76,3,2,1,67.0,False
34510,5196, Note_on_c,63,76,3,2,1,73.0,False
34511,5197, Note_on_c,61,76,3,2,1,71.0,False
34512,5197, Note_on_c,66,76,3,2,1,77.0,False
34513,5198, Note_on_c,51,76,3,2,1,59.0,False
34514,5199, Note_on_c,58,76,3,2,1,67.0,False
34515,5199, Note_on_c,63,76,3,2,1,73.0,False
34516,5200, Note_on_c,61,76,3,2,1,71.0,False
34517,5200, Note_on_c,68,76,3,2,1,79.0,False
34518,5201, Note_on_c,51,76,3,2,1,59.0,False
34519,5202, Note_on_c,58,76,3,2,1,67.0,False
34520,5202, Note_on_c,63,76,3,2,1,73.0,False
34521,5203, Note_on_c,61,76,3,2,1,71.0,False
34522,5203, Note_on_c,68,76,3,2,1,79.0,False
34523,5204, Note_on_c,58,76,3,2,1,67.0,False
34524,5204, Note_on_c,63,76,3,2,1,73.0,False
34525,5205, Note_on_c,61,76,3,2,1,71.0,False
34526,5205, Note_on_c,66,76,3,2,1,77.0,False
34527,5206, Note_on_c,51,76,3,2,1,59.0,False
34528,5207, Note_on_c,58,76,3,2,1,67.0,False
34529,5207, Note_on_c,63,76,3,2,1,73.0,False
34530,5208, Note_on_c,61,76,3,2,1,71.0,False
34531,5208, Note_on_c,68,76,3,2,1,79.0,False
34532,5209, Note_on_c,51,76,3,2,1,59.0,False
34533,5210, Note_on_c,58,76,3,2,1,67.0,False
34534,5210, Note_on_c,63,76,3,2,1,73.0,False
34535,5211, Note_on_c,61,76,3,2,1,71.0,False
34536,5211, Note_on_c,68,76,3,2,1,79.0,False
34537,5212, Note_on_c,58,76,3,2,1,67.0,False
34538,5212, Note_on_c,63,76,3,2,1,73.0,False
34539,5213, Note_on_c,61,76,3,2,1,71.0,False
34540,5213, Note_on_c,66,76,3,2,1,77.0,False
34541,5214, Note_on_c,51,76,3,2,1,59.0,False
34542,5215, Note_on_c,58,76,3,2,1,67.0,False
34543,5215, Note_on_c,63,76,3,2,1,73.0,False
34544,5216, Note_on_c,61,76,3,2,1,71.0,False
34545,5216, Note_on_c,68,76,3,2,1,79.0,False
34546,5217, Note_on_c,51,76,3,2,1,59.0,False
34547,5218, Note_on_c,58,76,3,2,1,67.0,False
34548,5218, Note_on_c,63,76,3,2,1,73.0,False
34549,5219, Note_on_c,61,76,3,2,1,71.0,False
34550,5219, Note_on_c,68,76,3,2,1,79.0,False
34551,5220, Note_on_c,58,76,3,2,1,67.0,False
34552,5220, Note_on_c,63,76,3,2,1,73.0,False
34553,5221, Note_on_c,61,76,3,2,1,71.0,False
34554,5221, Note_on_c,66,76,3,2,1,77.0,False
34555,5222, Note_on_c,51,76,3,2,1,59.0,False
34556,5223, Note_on_c,58,76,3,2,1,67.0,False
34557,5223, Note_on_c,63,76,3,2,1,73.0,False
34558,5224, Note_on_c,61,76,3,2,1,71.0,False
34559,5224, Note_on_c,68,76,3,2,1,79.0,False
34560,5225, Note_on_c,51,76,3,2,1,59.0,False
34561,5226, Note_on_c,58,76,3,2,1,67.0,False
34562,5226, Note_on_c,63,76,3,2,1,73.0,False
34563,5227, Note_on_c,61,76,3,2,1,71.0,False
34564,5227, Note_on_c,68,76,3,2,1,79.0,False
34565,5228, Note_on_c,58,76,3,2,1,67.0,False
34566,5228, Note_on_c,63,76,3,2,1,73.0,False
34567,5229, Note_on_c,61,76,3,2,1,71.0,False
34568,5229, Note_on_c,66,76,3,2,1,77.0,False
34569,5230, Note_on_c,51,76,3,2,1,59.0,False
34570,5231, Note_on_c,58,76,3,2,1,67.0,False
34571,5231, Note_on_c,63,76,3,2,1,73.0,False
34572,5232, Note_on_c,61,76,3,2,1,71.0,False
34573,5232, Note_on_c,68,76,3,2,1,79.0,False
34574,5233, Note_on_c,51,76,3,2,1,59.0,False
34575,5234, Note_on_c,58,76,3,2,1,67.0,False
34576,5234, Note_on_c,63,76,3,2,1,73.0,False
34577,5235, Note_on_c,61,76,3,2,1,71.0,False
34578,5235, Note_on_c,68,76,3,2,1,79.0,False
34579,5236, Note_on_c,58,76,3,2,1,67.0,False
34580,5236, Note_on_c,63,76,3,2,1,73.0,False
34581,5237, Note_on_c,61,76,3,2,1,71.0,False
34582,5237, Note_on_c,66,76,3,2,1,77.0,False
34583,5238, Note_on_c,51,76,3,2,1,59.0,False
34584,5239, Note_on_c,58,76,3,2,1,67.0,False
34585,5239, Note_on_c,63,76,3,2,1,73.0,False
34586,5240, Note_on_c,61,76,3,2,1,71.0,False
34587,5240, Note_on_c,68,76,3,2,1,79.0,False
34588,5241, Note_on_c,51,76,3,2,1,59.0,False
34589,5242, Note_on_c,58,76,3,2,1,67.0,False
34590,5242, Note_on_c,63,76,3,2,1,73.0,False
34591,5243, Note_on_c,61,76,3,2,1,71.0,False
34592,5243, Note_on_c,68,76,3,2,1,79.0,False
34593,5244, Note_on_c,58,76,3,2,1,67.0,False
34594,5244, Note_on_c,63,76,3,2,1,73.0,False
34595,5245, Note_on_c,61,76,3,2,1,71.0,False
34596,5245, Note_on_c,66,76,3,2,1,77.0,False
34597,5246, Note_on_c,51,76,3,2,1,59.0,False
34598,5247, Note_on_c,58,76,3,2,1,67.0,False
34599,5247, Note_on_c,63,76,3,2,1,73.0,False
34600,5248, Note_on_c,61,76,3,2,1,71.0,False
34601,5248, Note_on_c,68,76,3,2,1,79.0,False
34602,5249, Note_on_c,51,76,3,2,1,59.0,False
34603,5250, Note_on_c,58,76,3,2,1,67.0,False
34604,5250, Note_on_c,63,76,3,2,1,73.0,False
34605,5251, Note_on_c,61,76,3,2,1,71.0,False
34606,5251, Note_on_c,68,76,3,2,1,79.0,False
34607,5252, Note_on_c,58,76,3,2,1,67.0,False
34608,5252, Note_on_c,63,76,3,2,1,73.0,False
34609,5253, Note_on_c,61,76,3,2,1,71.0,False
34610,5253, Note_on_c,66,76,3,2,1,77.0,False
34611,5254, Note_on_c,51,76,3,2,1,59.0,False
34612,5255, Note_on_c,58,76,3,2,1,67.0,False
34613,5255, Note_on_c,63,76,3,2,1,73.0,False
34614,5256, Note_on_c,61,76,3,2,1,71.0,False
34615,5256, Note_on_c,68,76,3,2,1,79.0,False
34616,5257, Note_on_c,51,76,3,2,1,59.0,False
34617,5258, Note_on_c,58,76,3,2,1,67.0,False
34618,5258, Note_on_c,63,76,3,2,1,73.0,False
34619,5259, Note_on_c,61,76,3,2,1,71.0,False
34620,5259, Note_on_c,68,76,3,2,1,79.0,False
34621,5260, Note_on_c,58,76,3,2,1,67.0,False
34622,5260, Note_on_c,63,76,3,2,1,73.0,False
34623,5261, Note_on_c,61,76,3,2,1,71.0,False
34624,5261, Note_on_c,66,76,3,2,1,77.0,False
34625,5262, Note_on_c,51,76,3,2,1,59.0,False
34626,5263, Note_on_c,58,76,3,2,1,67.0,False
34627,5263, Note_on_c,63,76,3,2,1,73.0,False
34628,5264, Note_on_c,61,76,3,2,1,71.0,False
34629,5264, Note_on_c,68,76,3,2,1,79.0,False
34630,5265, Note_on_c,51,76,3,2,1,59.0,False
34631,5266, Note_on_c,58,76,3,2,1,67.0,False
34632,5266, Note_on_c,63,76,3,2,1,73.0,False
34633,5267, Note_on_c,61,76,3,2,1,71.0,False
34634,5267, Note_on_c,68,76,3,2,1,79.0,False
34635,5268, Note_on_c,58,76,3,2,1,67.0,False
34636,5268, Note_on_c,63,76,3,2,1,73.0,False
34637,5269, Note_on_c,61,76,3,2,1,71.0,False
34638,5269, Note_on_c,66,76,3,2,1,77.0,False
34639,5270, Note_on_c,51,76,3,2,1,59.0,False
34640,5271, Note_on_c,58,76,3,2,1,67.0,False
34641,5271, Note_on_c,63,76,3,2,1,73.0,False
34642,5272, Note_on_c,61,76,3,2,1,71.0,False
34643,5272, Note_on_c,68,76,3,2,1,79.0,False
34644,5273, Note_on_c,51,76,3,2,1,59.0,False
34645,5274, Note_on_c,58,76,3,2,1,67.0,False
34646,5274, Note_on_c,63,76,3,2,1,73.0,False
34647,5275, Note_on_c,61,76,3,2,1,71.0,False
34648,5275, Note_on_c,68,76,3,2,1,79.0,False
34649,5276, Note_on_c,58,76,3,2,1,67.0,False
34650,5276, Note_on_c,63,76,3,2,1,73.0,False
34651,5277, Note_on_c,61,76,3,2,1,71.0,False
34652,5277, Note_on_c,66,76,3,2,1,77.0,False
34653,5278, Note_on_c,51,76,3,2,1,59.0,False
34654,5279, Note_on_c,58,76,3,2,1,67.0,False
34655,5279, Note_on_c,63,76,3,2,1,73.0,False
34656,5280, Note_on_c,61,76,3,2,1,71.0,False
34657,5280, Note_on_c,68,76,3,2,1,79.0,False
34658,5281, Note_on_c,51,76,3,2,1,59.0,False
34659,5282, Note_on_c,58,76,3,2,1,67.0,False
34660,5282, Note_on_c,63,76,3,2,1,73.0,False
34661,5283, Note_on_c,61,76,3,2,1,71.0,False
34662,5283, Note_on_c,68,76,3,2,1,79.0,False
34663,5284, Note_on_c,58,76,3,2,1,67.0,False
34664,5284, Note_on_c,63,76,3,2,1,73.0,False
34665,5285, Note_on_c,61,76,3,2,1,71.0,False
34666,5285, Note_on_c,66,76,3,2,1,77.0,False
34667,5286, Note_on_c,51,76,3,2,1,59.0,False
34668,5287, Note_on_c,58,76,3,2,1,67.0,False
34669,5287, Note_on_c,63,76,3,2,1,73.0,False
34670,5288, Note_on_c,61,76,3,2,1,71.0,False
34671,5288, Note_on_c,68,76,3,2,1,79.0,False
34672,5289, Note_on_c,51,76,3,2,1,59.0,False
34673,5290, Note_on_c,58,76,3,2,1,67.0,False
34674,5290, Note_on_c,63,76,3,2,1,73.0,False
34675,5291, Note_on_c,61,76,3,2,1,71.0,False
34676,5291, Note_on_c,68,76,3,2,1,79.0,False
34677,5292, Note_on_c,58,76,3,2,1,67.0,False
34678,5292, Note_on_c,63,76,3,2,1,73.0,False
34679,5293, Note_on_c,61,76,3,2,1,71.0,False
34680,5293, Note_on_c,66,76,3,2,1,77.0,False
34681,5294, Note_on_c,51,76,3,2,1,59.0,False
34682,5295, Note_on_c,58,76,3,2,1,67.0,False
34683,5295, Note_on_c,63,76,3,2,1,73.0,False
34684,5296, Note_on_c,61,76,3,2,1,71.0,False
34685,5296, Note_on_c,68,76,3,2,1,79.0,False
34686,5297, Note_on_c,51,76,3,2,1,59.0,False
34687,5298, Note_on_c,58,76,3,2,1,67.0,False
34688,5298, Note_on_c,63,76,3,2,1,73.0,False
34689,5299, Note_on_c,61,76,3,2,1,71.0,False
34690,5299, Note_on_c,68,76,3,2,1,79.0,False
34691,5300, Note_on_c,58,76,3,2,1,67.0,False
34692,5300, Note_on_c,63,76,3,2,1,73.0,False
34693,5301, Note_on_c,61,76,3,2,1,71.0,False
34694,5301, Note_on_c,66,76,3,2,1,77.0,False
34695,5302, Note_on_c,51,76,3,2,1,59.0,False
34696,5303, Note_on_c,58,76,3,2,1,67.0,False
34697,5303, Note_on_c,63,76,3,2,1,73.0,False
34698,5304, Note_on_c,61,76,3,2,1,71.0,False
34699,5304, Note_on_c,68,76,3,2,1,79.0,False
34700,5305, Note_on_c,51,76,3,2,1,59.0,False
34701,5306, Note_on_c,58,76,3,2,1,67.0,False
34702,5306, Note_on_c,63,76,3,2,1,73.0,False
34703,5307, Note_on_c,61,76,3,2,1,71.0,False
34704,5307, Note_on_c,68,76,3,2,1,79.0,False
34705,5308, Note_on_c,58,76,3,2,1,67.0,False
34706,5308, Note_on_c,63,76,3,2,1,73.0,False
34707,5309, Note_on_c,61,76,3,2,1,71.0,False
34708,5309, Note_on_c,66,76,3,2,1,77.0,False
34709,5310, Note_on_c,51,76,3,2,1,59.0,False
34710,5311, Note_on_c,58,76,3,2,1,67.0,False
34711,5311, Note_on_c,63,76,3,2,1,73.0,False
34712,5312, Note_on_c,61,76,3,2,1,71.0,False
34713,5312, Note_on_c,68,76,3,2,1,79.0,False
34714,5313, Note_on_c,51,75,3,2,1,59.0,False
34715,5314, Note_on_c,58,73,3,2,1,67.0,False
34716,5314, Note_on_c,63,73,3,2,1,73.0,False
34717,5315, Note_on_c,61,71,3,2,1,71.0,False
34718,5315, Note_on_c,68,71,3,2,1,79.0,False
34719,5316, Note_on_c,58,69,3,2,1,67.0,False
34720,5316, Note_on_c,63,69,3,2,1,73.0,False
34721,5317, Note_on_c,61,68,3,2,1,71.0,False
34722,5317, Note_on_c,66,68,3,2,1,77.0,False
34723,5318, Note_on_c,51,66,3,2,1,59.0,False
34724,5319, Note_on_c,58,64,3,2,1,67.0,False
34725,5319, Note_on_c,63,64,3,2,1,73.0,False
34726,5320, Note_on_c,61,62,3,2,1,71.0,False
34727,5320, Note_on_c,68,62,3,2,1,79.0,False
34728,5321, Note_on_c,51,60,3,2,1,59.0,False
34729,5322, Note_on_c,58,58,3,2,1,67.0,False
34730,5322, Note_on_c,63,58,3,2,1,73.0,False
34731,5323, Note_on_c,61,57,3,2,1,71.0,False
34732,5323, Note_on_c,68,57,3,2,1,79.0,False
34733,5324, Note_on_c,58,55,3,2,1,67.0,False
34734,5324, Note_on_c,63,55,3,2,1,73.0,False
34735,5325, Note_on_c,61,53,3,2,1,71.0,False
34736,5325, Note_on_c,66,53,3,2,1,77.0,False
34737,5326, Note_on_c,51,51,3,2,1,59.0,False
34738,5327, Note_on_c,58,49,3,2,1,67.0,False
34739,5327, Note_on_c,63,49,3,2,1,73.0,False
34740,5328, Note_on_c,61,47,3,2,1,71.0,False
34741,5328, Note_on_c,68,47,3,2,1,79.0,False
34742,5329, Note_on_c,51,46,3,2,1,59.0,False
34743,5330, Note_on_c,58,44,3,2,1,67.0,False
34744,5330, Note_on_c,63,44,3,2,1,73.0,False
34745,5331, Note_on_c,61,42,3,2,1,71.0,False
34746,5331, Note_on_c,68,42,3,2,1,79.0,False
34747,5332, Note_on_c,58,40,3,2,1,67.0,False
34748,5332, Note_on_c,63,40,3,2,1,73.0,False
34749,5333, Note_on_c,61,38,3,2,1,71.0,False
34750,5333, Note_on_c,66,38,3,2,1,77.0,False
34751,5334, Note_on_c,51,36,3,2,1,59.0,False
34752,5335, Note_on_c,58,35,3,2,1,67.0,False
34753,5335, Note_on_c,63,35,3,2,1,73.0,False
34754,5336, Note_on_c,61,33,3,2,1,71.0,False
34755,5336, Note_on_c,68,33,3,2,1,79.0,False
34756,5337, Note_on_c,51,31,3,2,1,59.0,False
34757,5338, Note_on_c,58,29,3,2,1,67.0,False
34758,5338, Note_on_c,63,29,3,2,1,73.0,False
34759,5339, Note_on_c,61,27,3,2,1,71.0,False
34760,5339, Note_on_c,68,27,3,2,1,79.0,False
34761,5340, Note_on_c,58,25,3,2,1,67.0,False
34762,5340, Note_on_c,63,25,3,2,1,73.0,False
34763,5341, Note_on_c,61,24,3,2,1,71.0,False
34764,5341, Note_on_c,66,24,3,2,1,77.0,False
34765,5342, Note_on_c,51,22,3,2,1,59.0,False
34766,5343, Note_on_c,58,20,3,2,1,67.0,False
34767,5343, Note_on_c,63,20,3,2,1,73.0,False
34768,5344, Note_on_c,61,18,3,2,1,71.0,False
34769,5344, Note_on_c,68,18,3,2,1,79.0,False
34770,5345, Note_on_c,51,16,3,2,1,59.0,False
34771,5346, Note_on_c,58,14,3,2,1,67.0,False
34772,5346, Note_on_c,63,14,3,2,1,73.0,False
34773,5347, Note_on_c,61,13,3,2,1,71.0,False
34774,5347, Note_on_c,68,13,3,2,1,79.0,False
34775,5348, Note_on_c,58,11,3,2,1,67.0,False
34776,5348, Note_on_c,63,11,3,2,1,73.0,False
34777,5349, Note_on_c,61,9,3,2,1,71.0,False
34778,5349, Note_on_c,66,9,3,2,1,77.0,False
34779,5350, Note_on_c,51,7,3,2,1,59.0,False
34780,5351, Note_on_c,58,5,3,2,1,67.0,False
34781,5351, Note_on_c,63,5,3,2,1,73.0,False
34782,5352, Note_on_c,61,3,3,2,1,71.0,False
34783,5352, Note_on_c,68,3,3,2,1,79.0,False
34784,5401, Note_on_c,70,76,3,3,1,81.0,False
34785,5402, Note_on_c,77,76,3,3,1,90.0,True
34786,5402, Note_on_c,82,76,3,3,1,95.0,False
34787,5403, Note_on_c,68,76,3,3,1,79.0,False
34788,5403, Note_on_c,75,76,3,3,1,87.0,False
34789,5404, Note_on_c,77,76,3,3,1,90.0,True
34790,5404, Note_on_c,82,76,3,3,1,95.0,False
34791,5405, Note_on_c,68,76,3,3,1,79.0,False
34792,5405, Note_on_c,73,76,3,3,1,85.0,False
34793,5406, Note_on_c,70,76,3,3,1,81.0,False
34794,5407, Note_on_c,77,76,3,3,1,90.0,True
34795,5407, Note_on_c,82,76,3,3,1,95.0,False
34796,5408, Note_on_c,68,76,3,3,1,79.0,False
34797,5408, Note_on_c,75,76,3,3,1,87.0,False
34798,5409, Note_on_c,70,76,3,3,1,81.0,False
34799,5410, Note_on_c,77,76,3,3,1,90.0,True
34800,5410, Note_on_c,82,76,3,3,1,95.0,False
34801,5411, Note_on_c,68,76,3,3,1,79.0,False
34802,5411, Note_on_c,75,76,3,3,1,87.0,False
34803,5412, Note_on_c,77,76,3,3,1,90.0,True
34804,5412, Note_on_c,82,76,3,3,1,95.0,False
34805,5413, Note_on_c,68,76,3,3,1,79.0,False
34806,5413, Note_on_c,73,76,3,3,1,85.0,False
34807,5414, Note_on_c,70,76,3,3,1,81.0,False
34808,5415, Note_on_c,77,76,3,3,1,90.0,True
34809,5415, Note_on_c,82,76,3,3,1,95.0,False
34810,5416, Note_on_c,68,76,3,3,1,79.0,False
34811,5416, Note_on_c,75,76,3,3,1,87.0,False
34812,5417, Note_on_c,70,76,3,3,1,81.0,False
34813,5418, Note_on_c,77,76,3,3,1,90.0,True
34814,5418, Note_on_c,82,76,3,3,1,95.0,False
34815,5419, Note_on_c,68,76,3,3,1,79.0,False
34816,5419, Note_on_c,75,76,3,3,1,87.0,False
34817,5420, Note_on_c,77,76,3,3,1,90.0,True
34818,5420, Note_on_c,82,76,3,3,1,95.0,False
34819,5421, Note_on_c,68,76,3,3,1,79.0,False
34820,5421, Note_on_c,73,76,3,3,1,85.0,False
34821,5422, Note_on_c,70,76,3,3,1,81.0,False
34822,5423, Note_on_c,77,76,3,3,1,90.0,True
34823,5423, Note_on_c,82,76,3,3,1,95.0,False
34824,5424, Note_on_c,68,76,3,3,1,79.0,False
34825,5424, Note_on_c,75,76,3,3,1,87.0,False
34826,5425, Note_on_c,70,76,3,3,1,81.0,False
34827,5426, Note_on_c,77,76,3,3,1,90.0,True
34828,5426, Note_on_c,82,76,3,3,1,95.0,False
34829,5427, Note_on_c,68,76,3,3,1,79.0,False
34830,5427, Note_on_c,75,76,3,3,1,87.0,False
34831,5428, Note_on_c,77,76,3,3,1,90.0,True
34832,5428, Note_on_c,82,76,3,3,1,95.0,False
34833,5429, Note_on_c,68,76,3,3,1,79.0,False
34834,5429, Note_on_c,73,76,3,3,1,85.0,False
34835,5430, Note_on_c,70,76,3,3,1,81.0,False
34836,5431, Note_on_c,77,76,3,3,1,90.0,True
34837,5431, Note_on_c,82,76,3,3,1,95.0,False
34838,5432, Note_on_c,68,76,3,3,1,79.0,False
34839,5432, Note_on_c,75,76,3,3,1,87.0,False
34840,5433, Note_on_c,70,76,3,3,1,81.0,False
34841,5434, Note_on_c,77,76,3,3,1,90.0,True
34842,5434, Note_on_c,82,76,3,3,1,95.0,False
34843,5435, Note_on_c,68,76,3,3,1,79.0,False
34844,5435, Note_on_c,75,76,3,3,1,87.0,False
34845,5436, Note_on_c,77,76,3,3,1,90.0,True
34846,5436, Note_on_c,82,76,3,3,1,95.0,False
34847,5437, Note_on_c,68,76,3,3,1,79.0,False
34848,5437, Note_on_c,73,76,3,3,1,85.0,False
34849,5438, Note_on_c,70,76,3,3,1,81.0,False
34850,5439, Note_on_c,77,76,3,3,1,90.0,True
34851,5439, Note_on_c,82,76,3,3,1,95.0,False
34852,5440, Note_on_c,68,76,3,3,1,79.0,False
34853,5440, Note_on_c,75,76,3,3,1,87.0,False
34854,5441, Note_on_c,70,76,3,3,1,81.0,False
34855,5442, Note_on_c,77,76,3,3,1,90.0,True
34856,5442, Note_on_c,82,76,3,3,1,95.0,False
34857,5443, Note_on_c,68,76,3,3,1,79.0,False
34858,5443, Note_on_c,75,76,3,3,1,87.0,False
34859,5444, Note_on_c,77,76,3,3,1,90.0,True
34860,5444, Note_on_c,82,76,3,3,1,95.0,False
34861,5445, Note_on_c,68,76,3,3,1,79.0,False
34862,5445, Note_on_c,73,76,3,3,1,85.0,False
34863,5446, Note_on_c,70,76,3,3,1,81.0,False
34864,5447, Note_on_c,77,76,3,3,1,90.0,True
34865,5447, Note_on_c,82,76,3,3,1,95.0,False
34866,5448, Note_on_c,68,76,3,3,1,79.0,False
34867,5448, Note_on_c,75,76,3,3,1,87.0,False
34868,5449, Note_on_c,70,76,3,3,1,81.0,False
34869,5450, Note_on_c,77,76,3,3,1,90.0,True
34870,5450, Note_on_c,82,76,3,3,1,95.0,False
34871,5451, Note_on_c,68,76,3,3,1,79.0,False
34872,5451, Note_on_c,75,76,3,3,1,87.0,False
34873,5452, Note_on_c,77,76,3,3,1,90.0,True
34874,5452, Note_on_c,82,76,3,3,1,95.0,False
34875,5453, Note_on_c,68,76,3,3,1,79.0,False
34876,5453, Note_on_c,73,76,3,3,1,85.0,False
34877,5454, Note_on_c,70,76,3,3,1,81.0,False
34878,5455, Note_on_c,77,76,3,3,1,90.0,True
34879,5455, Note_on_c,82,76,3,3,1,95.0,False
34880,5456, Note_on_c,68,76,3,3,1,79.0,False
34881,5456, Note_on_c,75,76,3,3,1,87.0,False
34882,5457, Note_on_c,70,76,3,3,1,81.0,False
34883,5458, Note_on_c,77,76,3,3,1,90.0,True
34884,5458, Note_on_c,82,76,3,3,1,95.0,False
34885,5459, Note_on_c,68,76,3,3,1,79.0,False
34886,5459, Note_on_c,75,76,3,3,1,87.0,False
34887,5460, Note_on_c,77,76,3,3,1,90.0,True
34888,5460, Note_on_c,82,76,3,3,1,95.0,False
34889,5461, Note_on_c,68,76,3,3,1,79.0,False
34890,5461, Note_on_c,73,76,3,3,1,85.0,False
34891,5462, Note_on_c,70,76,3,3,1,81.0,False
34892,5463, Note_on_c,77,76,3,3,1,90.0,True
34893,5463, Note_on_c,82,76,3,3,1,95.0,False
34894,5464, Note_on_c,68,76,3,3,1,79.0,False
34895,5464, Note_on_c,75,76,3,3,1,87.0,False
34896,5465, Note_on_c,70,76,3,3,1,81.0,False
34897,5466, Note_on_c,77,76,3,3,1,90.0,True
34898,5466, Note_on_c,82,76,3,3,1,95.0,False
34899,5467, Note_on_c,68,76,3,3,1,79.0,False
34900,5467, Note_on_c,75,76,3,3,1,87.0,False
34901,5468, Note_on_c,77,76,3,3,1,90.0,True
34902,5468, Note_on_c,82,76,3,3,1,95.0,False
34903,5469, Note_on_c,68,76,3,3,1,79.0,False
34904,5469, Note_on_c,73,76,3,3,1,85.0,False
34905,5470, Note_on_c,70,76,3,3,1,81.0,False
34906,5471, Note_on_c,77,76,3,3,1,90.0,True
34907,5471, Note_on_c,82,76,3,3,1,95.0,False
34908,5472, Note_on_c,68,76,3,3,1,79.0,False
34909,5472, Note_on_c,75,76,3,3,1,87.0,False
34910,5473, Note_on_c,70,76,3,3,1,81.0,False
34911,5474, Note_on_c,77,76,3,3,1,90.0,True
34912,5474, Note_on_c,82,76,3,3,1,95.0,False
34913,5475, Note_on_c,68,76,3,3,1,79.0,False
34914,5475, Note_on_c,75,76,3,3,1,87.0,False
34915,5476, Note_on_c,77,76,3,3,1,90.0,True
34916,5476, Note_on_c,82,76,3,3,1,95.0,False
34917,5477, Note_on_c,68,76,3,3,1,79.0,False
34918,5477, Note_on_c,73,76,3,3,1,85.0,False
34919,5478, Note_on_c,70,76,3,3,1,81.0,False
34920,5479, Note_on_c,77,76,3,3,1,90.0,True
34921,5479, Note_on_c,82,76,3,3,1,95.0,False
34922,5480, Note_on_c,68,76,3,3,1,79.0,False
34923,5480, Note_on_c,75,76,3,3,1,87.0,False
34924,5481, Note_on_c,70,76,3,3,1,81.0,False
34925,5482, Note_on_c,77,76,3,3,1,90.0,True
34926,5482, Note_on_c,82,76,3,3,1,95.0,False
34927,5483, Note_on_c,68,76,3,3,1,79.0,False
34928,5483, Note_on_c,75,76,3,3,1,87.0,False
34929,5484, Note_on_c,77,76,3,3,1,90.0,True
34930,5484, Note_on_c,82,76,3,3,1,95.0,False
34931,5485, Note_on_c,68,76,3,3,1,79.0,False
34932,5485, Note_on_c,73,76,3,3,1,85.0,False
34933,5486, Note_on_c,70,76,3,3,1,81.0,False
34934,5487, Note_on_c,77,76,3,3,1,90.0,True
34935,5487, Note_on_c,82,76,3,3,1,95.0,False
34936,5488, Note_on_c,68,76,3,3,1,79.0,False
34937,5488, Note_on_c,75,76,3,3,1,87.0,False
34938,5489, Note_on_c,70,76,3,3,1,81.0,False
34939,5490, Note_on_c,77,76,3,3,1,90.0,True
34940,5490, Note_on_c,82,76,3,3,1,95.0,False
34941,5491, Note_on_c,68,76,3,3,1,79.0,False
34942,5491, Note_on_c,75,76,3,3,1,87.0,False
34943,5492, Note_on_c,77,76,3,3,1,90.0,True
34944,5492, Note_on_c,82,76,3,3,1,95.0,False
34945,5493, Note_on_c,68,76,3,3,1,79.0,False
34946,5493, Note_on_c,73,76,3,3,1,85.0,False
34947,5494, Note_on_c,70,76,3,3,1,81.0,False
34948,5495, Note_on_c,77,76,3,3,1,90.0,True
34949,5495, Note_on_c,82,76,3,3,1,95.0,False
34950,5496, Note_on_c,68,76,3,3,1,79.0,False
34951,5496, Note_on_c,75,76,3,3,1,87.0,False
34952,5497, Note_on_c,70,76,3,3,1,81.0,False
34953,5498, Note_on_c,77,76,3,3,1,90.0,True
34954,5498, Note_on_c,82,76,3,3,1,95.0,False
34955,5499, Note_on_c,68,76,3,3,1,79.0,False
34956,5499, Note_on_c,75,76,3,3,1,87.0,False
34957,5500, Note_on_c,77,76,3,3,1,90.0,True
34958,5500, Note_on_c,82,76,3,3,1,95.0,False
34959,5501, Note_on_c,68,76,3,3,1,79.0,False
34960,5501, Note_on_c,73,76,3,3,1,85.0,False
34961,5502, Note_on_c,70,76,3,3,1,81.0,False
34962,5503, Note_on_c,77,76,3,3,1,90.0,True
34963,5503, Note_on_c,82,76,3,3,1,95.0,False
34964,5504, Note_on_c,68,76,3,3,1,79.0,False
34965,5504, Note_on_c,75,76,3,3,1,87.0,False
34966,5505, Note_on_c,70,76,3,3,1,81.0,False
34967,5506, Note_on_c,77,76,3,3,1,90.0,True
34968,5506, Note_on_c,82,76,3,3,1,95.0,False
34969,5507, Note_on_c,68,76,3,3,1,79.0,False
34970,5507, Note_on_c,75,76,3,3,1,87.0,False
34971,5508, Note_on_c,77,76,3,3,1,90.0,True
34972,5508, Note_on_c,82,76,3,3,1,95.0,False
34973,5509, Note_on_c,68,76,3,3,1,79.0,False
34974,5509, Note_on_c,73,76,3,3,1,85.0,False
34975,5510, Note_on_c,70,76,3,3,1,81.0,False
34976,5511, Note_on_c,77,76,3,3,1,90.0,True
34977,5511, Note_on_c,82,76,3,3,1,95.0,False
34978,5512, Note_on_c,68,76,3,3,1,79.0,False
34979,5512, Note_on_c,75,76,3,3,1,87.0,False
34980,5513, Note_on_c,70,76,3,3,1,81.0,False
34981,5514, Note_on_c,77,76,3,3,1,90.0,True
34982,5514, Note_on_c,82,76,3,3,1,95.0,False
34983,5515, Note_on_c,68,76,3,3,1,79.0,False
34984,5515, Note_on_c,75,76,3,3,1,87.0,False
34985,5516, Note_on_c,77,76,3,3,1,90.0,True
34986,5516, Note_on_c,82,76,3,3,1,95.0,False
34987,5517, Note_on_c,68,76,3,3,1,79.0,False
34988,5517, Note_on_c,73,76,3,3,1,85.0,False
34989,5518, Note_on_c,70,76,3,3,1,81.0,False
34990,5519, Note_on_c,77,76,3,3,1,90.0,True
34991,5519, Note_on_c,82,76,3,3,1,95.0,False
34992,5520, Note_on_c,68,76,3,3,1,79.0,False
34993,5520, Note_on_c,75,76,3,3,1,87.0,False
34994,5521, Note_on_c,70,76,3,3,1,81.0,False
34995,5522, Note_on_c,77,76,3,3,1,90.0,True
34996,5522, Note_on_c,82,76,3,3,1,95.0,False
34997,5523, Note_on_c,68,76,3,3,1,79.0,False
34998,5523, Note_on_c,75,76,3,3,1,87.0,False
34999,5524, Note_on_c,77,76,3,3,1,90.0,True
35000,5524, Note_on_c,82,76,3,3,1,95.0,False
35001,5525, Note_on_c,68,76,3,3,1,79.0,False
35002,5525, Note_on_c,73,76,3,3,1,85.0,False
35003,5526, Note_on_c,70,76,3,3,1,81.0,False
35004,5527, Note_on_c,77,76,3,3,1,90.0,True
35005,5527, Note_on_c,82,76,3,3,1,95.0,False
35006,5528, Note_on_c,68,76,3,3,1,79.0,False
35007,5528, Note_on_c,75,76,3,3,1,87.0,False
35008,5529, Note_on_c,70,76,3,3,1,81.0,False
35009,5530, Note_on_c,77,76,3,3,1,90.0,True
35010,5530, Note_on_c,82,76,3,3,1,95.0,False
35011,5531, Note_on_c,68,76,3,3,1,79.0,False
35012,5531, Note_on_c,75,76,3,3,1,87.0,False
35013,5532, Note_on_c,77,76,3,3,1,90.0,True
35014,5532, Note_on_c,82,76,3,3,1,95.0,False
35015,5533, Note_on_c,68,76,3,3,1,79.0,False
35016,5533, Note_on_c,73,76,3,3,1,85.0,False
35017,5534, Note_on_c,70,76,3,3,1,81.0,False
35018,5535, Note_on_c,77,76,3,3,1,90.0,True
35019,5535, Note_on_c,82,76,3,3,1,95.0,False
35020,5536, Note_on_c,68,76,3,3,1,79.0,False
35021,5536, Note_on_c,75,76,3,3,1,87.0,False
35022,5537, Note_on_c,70,76,3,3,1,81.0,False
35023,5538, Note_on_c,77,76,3,3,1,90.0,True
35024,5538, Note_on_c,82,76,3,3,1,95.0,False
35025,5539, Note_on_c,68,76,3,3,1,79.0,False
35026,5539, Note_on_c,75,76,3,3,1,87.0,False
35027,5540, Note_on_c,77,76,3,3,1,90.0,True
35028,5540, Note_on_c,82,76,3,3,1,95.0,False
35029,5541, Note_on_c,68,76,3,3,1,79.0,False
35030,5541, Note_on_c,73,76,3,3,1,85.0,False
35031,5542, Note_on_c,70,76,3,3,1,81.0,False
35032,5543, Note_on_c,77,76,3,3,1,90.0,True
35033,5543, Note_on_c,82,76,3,3,1,95.0,False
35034,5544, Note_on_c,68,76,3,3,1,79.0,False
35035,5544, Note_on_c,75,76,3,3,1,87.0,False
35036,5545, Note_on_c,70,76,3,3,1,81.0,False
35037,5546, Note_on_c,77,76,3,3,1,90.0,True
35038,5546, Note_on_c,82,76,3,3,1,95.0,False
35039,5547, Note_on_c,68,76,3,3,1,79.0,False
35040,5547, Note_on_c,75,76,3,3,1,87.0,False
35041,5548, Note_on_c,77,76,3,3,1,90.0,True
35042,5548, Note_on_c,82,76,3,3,1,95.0,False
35043,5549, Note_on_c,68,76,3,3,1,79.0,False
35044,5549, Note_on_c,73,76,3,3,1,85.0,False
35045,5550, Note_on_c,70,76,3,3,1,81.0,False
35046,5551, Note_on_c,77,76,3,3,1,90.0,True
35047,5551, Note_on_c,82,76,3,3,1,95.0,False
35048,5552, Note_on_c,68,76,3,3,1,79.0,False
35049,5552, Note_on_c,75,76,3,3,1,87.0,False
35050,5553, Note_on_c,70,76,3,3,1,81.0,False
35051,5554, Note_on_c,77,76,3,3,1,90.0,True
35052,5554, Note_on_c,82,76,3,3,1,95.0,False
35053,5555, Note_on_c,68,76,3,3,1,79.0,False
35054,5555, Note_on_c,75,76,3,3,1,87.0,False
35055,5556, Note_on_c,77,76,3,3,1,90.0,True
35056,5556, Note_on_c,82,76,3,3,1,95.0,False
35057,5557, Note_on_c,68,76,3,3,1,79.0,False
35058,5557, Note_on_c,73,76,3,3,1,85.0,False
35059,5558, Note_on_c,70,76,3,3,1,81.0,False
35060,5559, Note_on_c,77,76,3,3,1,90.0,True
35061,5559, Note_on_c,82,76,3,3,1,95.0,False
35062,5560, Note_on_c,68,76,3,3,1,79.0,False
35063,5560, Note_on_c,75,76,3,3,1,87.0,False
35064,5561, Note_on_c,70,76,3,3,1,81.0,False
35065,5562, Note_on_c,77,76,3,3,1,90.0,True
35066,5562, Note_on_c,82,76,3,3,1,95.0,False
35067,5563, Note_on_c,68,76,3,3,1,79.0,False
35068,5563, Note_on_c,75,76,3,3,1,87.0,False
35069,5564, Note_on_c,77,76,3,3,1,90.0,True
35070,5564, Note_on_c,82,76,3,3,1,95.0,False
35071,5565, Note_on_c,68,76,3,3,1,79.0,False
35072,5565, Note_on_c,73,76,3,3,1,85.0,False
35073,5566, Note_on_c,70,76,3,3,1,81.0,False
35074,5567, Note_on_c,77,76,3,3,1,90.0,True
35075,5567, Note_on_c,82,76,3,3,1,95.0,False
35076,5568, Note_on_c,68,76,3,3,1,79.0,False
35077,5568, Note_on_c,75,76,3,3,1,87.0,False
35078,5569, Note_on_c,70,76,3,3,1,81.0,False
35079,5570, Note_on_c,77,76,3,3,1,90.0,True
35080,5570, Note_on_c,82,76,3,3,1,95.0,False
35081,5571, Note_on_c,68,76,3,3,1,79.0,False
35082,5571, Note_on_c,75,76,3,3,1,87.0,False
35083,5572, Note_on_c,77,76,3,3,1,90.0,True
35084,5572, Note_on_c,82,76,3,3,1,95.0,False
35085,5573, Note_on_c,68,76,3,3,1,79.0,False
35086,5573, Note_on_c,73,76,3,3,1,85.0,False
35087,5574, Note_on_c,70,76,3,3,1,81.0,False
35088,5575, Note_on_c,77,76,3,3,1,90.0,True
35089,5575, Note_on_c,82,76,3,3,1,95.0,False
35090,5576, Note_on_c,68,76,3,3,1,79.0,False
35091,5576, Note_on_c,75,76,3,3,1,87.0,False
35092,5577, Note_on_c,70,76,3,3,1,81.0,False
35093,5578, Note_on_c,77,76,3,3,1,90.0,True
35094,5578, Note_on_c,82,76,3,3,1,95.0,False
35095,5579, Note_on_c,68,76,3,3,1,79.0,False
35096,5579, Note_on_c,75,76,3,3,1,87.0,False
35097,5580, Note_on_c,77,76,3,3,1,90.0,True
35098,5580, Note_on_c,82,76,3,3,1,95.0,False
35099,5581, Note_on_c,68,76,3,3,1,79.0,False
35100,5581, Note_on_c,73,76,3,3,1,85.0,False
35101,5582, Note_on_c,70,76,3,3,1,81.0,False
35102,5583, Note_on_c,77,76,3,3,1,90.0,True
35103,5583, Note_on_c,82,76,3,3,1,95.0,False
35104,5584, Note_on_c,68,76,3,3,1,79.0,False
35105,5584, Note_on_c,75,76,3,3,1,87.0,False
35106,5585, Note_on_c,70,76,3,3,1,81.0,False
35107,5586, Note_on_c,77,76,3,3,1,90.0,True
35108,5586, Note_on_c,82,76,3,3,1,95.0,False
35109,5587, Note_on_c,68,76,3,3,1,79.0,False
35110,5587, Note_on_c,75,76,3,3,1,87.0,False
35111,5588, Note_on_c,77,76,3,3,1,90.0,True
35112,5588, Note_on_c,82,76,3,3,1,95.0,False
35113,5589, Note_on_c,68,76,3,3,1,79.0,False
35114,5589, Note_on_c,73,76,3,3,1,85.0,False
35115,5590, Note_on_c,70,76,3,3,1,81.0,False
35116,5591, Note_on_c,77,76,3,3,1,90.0,True
35117,5591, Note_on_c,82,76,3,3,1,95.0,False
35118,5592, Note_on_c,68,76,3,3,1,79.0,False
35119,5592, Note_on_c,75,76,3,3,1,87.0,False
35120,5593, Note_on_c,70,76,3,3,1,81.0,False
35121,5594, Note_on_c,77,76,3,3,1,90.0,True
35122,5594, Note_on_c,82,76,3,3,1,95.0,False
35123,5595, Note_on_c,68,76,3,3,1,79.0,False
35124,5595, Note_on_c,75,76,3,3,1,87.0,False
35125,5596, Note_on_c,77,76,3,3,1,90.0,True
35126,5596, Note_on_c,82,76,3,3,1,95.0,False
35127,5597, Note_on_c,68,76,3,3,1,79.0,False
35128,5597, Note_on_c,73,76,3,3,1,85.0,False
35129,5598, Note_on_c,70,76,3,3,1,81.0,False
35130,5599, Note_on_c,77,76,3,3,1,90.0,True
35131,5599, Note_on_c,82,76,3,3,1,95.0,False
35132,5600, Note_on_c,68,76,3,3,1,79.0,False
35133,5600, Note_on_c,75,76,3,3,1,87.0,False
35134,5601, Note_on_c,70,76,3,3,1,81.0,False
35135,5602, Note_on_c,77,76,3,3,1,90.0,True
35136,5602, Note_on_c,82,76,3,3,1,95.0,False
35137,5603, Note_on_c,68,76,3,3,1,79.0,False
35138,5603, Note_on_c,75,76,3,3,1,87.0,False
35139,5604, Note_on_c,77,76,3,3,1,90.0,True
35140,5604, Note_on_c,82,76,3,3,1,95.0,False
35141,5605, Note_on_c,68,76,3,3,1,79.0,False
35142,5605, Note_on_c,73,76,3,3,1,85.0,False
35143,5606, Note_on_c,70,76,3,3,1,81.0,False
35144,5607, Note_on_c,77,76,3,3,1,90.0,True
35145,5607, Note_on_c,82,76,3,3,1,95.0,False
35146,5608, Note_on_c,68,76,3,3,1,79.0,False
35147,5608, Note_on_c,75,76,3,3,1,87.0,False
35148,5609, Note_on_c,70,76,3,3,1,81.0,False
35149,5610, Note_on_c,77,76,3,3,1,90.0,True
35150,5610, Note_on_c,82,76,3,3,1,95.0,False
35151,5611, Note_on_c,68,76,3,3,1,79.0,False
35152,5611, Note_on_c,75,76,3,3,1,87.0,False
35153,5612, Note_on_c,77,76,3,3,1,90.0,True
35154,5612, Note_on_c,82,76,3,3,1,95.0,False
35155,5613, Note_on_c,68,76,3,3,1,79.0,False
35156,5613, Note_on_c,73,76,3,3,1,85.0,False
35157,5614, Note_on_c,70,76,3,3,1,81.0,False
35158,5615, Note_on_c,77,76,3,3,1,90.0,True
35159,5615, Note_on_c,82,76,3,3,1,95.0,False
35160,5616, Note_on_c,68,76,3,3,1,79.0,False
35161,5616, Note_on_c,75,76,3,3,1,87.0,False
35162,5617, Note_on_c,70,76,3,3,1,81.0,False
35163,5618, Note_on_c,77,76,3,3,1,90.0,True
35164,5618, Note_on_c,82,76,3,3,1,95.0,False
35165,5619, Note_on_c,68,76,3,3,1,79.0,False
35166,5619, Note_on_c,75,76,3,3,1,87.0,False
35167,5620, Note_on_c,77,76,3,3,1,90.0,True
35168,5620, Note_on_c,82,76,3,3,1,95.0,False
35169,5621, Note_on_c,68,76,3,3,1,79.0,False
35170,5621, Note_on_c,73,76,3,3,1,85.0,False
35171,5622, Note_on_c,70,76,3,3,1,81.0,False
35172,5623, Note_on_c,77,76,3,3,1,90.0,True
35173,5623, Note_on_c,82,76,3,3,1,95.0,False
35174,5624, Note_on_c,68,76,3,3,1,79.0,False
35175,5624, Note_on_c,75,76,3,3,1,87.0,False
35176,5625, Note_on_c,70,76,3,3,1,81.0,False
35177,5626, Note_on_c,77,76,3,3,1,90.0,True
35178,5626, Note_on_c,82,76,3,3,1,95.0,False
35179,5627, Note_on_c,68,76,3,3,1,79.0,False
35180,5627, Note_on_c,75,76,3,3,1,87.0,False
35181,5628, Note_on_c,77,76,3,3,1,90.0,True
35182,5628, Note_on_c,82,76,3,3,1,95.0,False
35183,5629, Note_on_c,68,76,3,3,1,79.0,False
35184,5629, Note_on_c,73,76,3,3,1,85.0,False
35185,5630, Note_on_c,70,76,3,3,1,81.0,False
35186,5631, Note_on_c,77,76,3,3,1,90.0,True
35187,5631, Note_on_c,82,76,3,3,1,95.0,False
35188,5632, Note_on_c,68,76,3,3,1,79.0,False
35189,5632, Note_on_c,75,76,3,3,1,87.0,False
35190,5633, Note_on_c,70,76,3,3,1,81.0,False
35191,5634, Note_on_c,77,76,3,3,1,90.0,True
35192,5634, Note_on_c,82,76,3,3,1,95.0,False
35193,5635, Note_on_c,68,76,3,3,1,79.0,False
35194,5635, Note_on_c,75,76,3,3,1,87.0,False
35195,5636, Note_on_c,77,76,3,3,1,90.0,True
35196,5636, Note_on_c,82,76,3,3,1,95.0,False
35197,5637, Note_on_c,68,76,3,3,1,79.0,False
35198,5637, Note_on_c,73,76,3,3,1,85.0,False
35199,5638, Note_on_c,70,76,3,3,1,81.0,False
35200,5639, Note_on_c,77,76,3,3,1,90.0,True
35201,5639, Note_on_c,82,76,3,3,1,95.0,False
35202,5640, Note_on_c,68,76,3,3,1,79.0,False
35203,5640, Note_on_c,75,76,3,3,1,87.0,False
35204,5641, Note_on_c,70,76,3,3,1,81.0,False
35205,5642, Note_on_c,77,76,3,3,1,90.0,True
35206,5642, Note_on_c,82,76,3,3,1,95.0,False
35207,5643, Note_on_c,68,76,3,3,1,79.0,False
35208,5643, Note_on_c,75,76,3,3,1,87.0,False
35209,5644, Note_on_c,77,76,3,3,1,90.0,True
35210,5644, Note_on_c,82,76,3,3,1,95.0,False
35211,5645, Note_on_c,68,76,3,3,1,79.0,False
35212,5645, Note_on_c,73,76,3,3,1,85.0,False
35213,5646, Note_on_c,70,76,3,3,1,81.0,False
35214,5647, Note_on_c,77,76,3,3,1,90.0,True
35215,5647, Note_on_c,82,76,3,3,1,95.0,False
35216,5648, Note_on_c,68,76,3,3,1,79.0,False
35217,5648, Note_on_c,75,76,3,3,1,87.0,False
35218,5649, Note_on_c,70,76,3,3,1,81.0,False
35219,5650, Note_on_c,77,76,3,3,1,90.0,True
35220,5650, Note_on_c,82,76,3,3,1,95.0,False
35221,5651, Note_on_c,68,76,3,3,1,79.0,False
35222,5651, Note_on_c,75,76,3,3,1,87.0,False
35223,5652, Note_on_c,77,76,3,3,1,90.0,True
35224,5652, Note_on_c,82,76,3,3,1,95.0,False
35225,5653, Note_on_c,68,76,3,3,1,79.0,False
35226,5653, Note_on_c,73,76,3,3,1,85.0,False
35227,5654, Note_on_c,70,76,3,3,1,81.0,False
35228,5655, Note_on_c,77,76,3,3,1,90.0,True
35229,5655, Note_on_c,82,76,3,3,1,95.0,False
35230,5656, Note_on_c,68,76,3,3,1,79.0,False
35231,5656, Note_on_c,75,76,3,3,1,87.0,False
35232,5657, Note_on_c,70,76,3,3,1,81.0,False
35233,5658, Note_on_c,77,76,3,3,1,90.0,True
35234,5658, Note_on_c,82,76,3,3,1,95.0,False
35235,5659, Note_on_c,68,76,3,3,1,79.0,False
35236,5659, Note_on_c,75,76,3,3,1,87.0,False
35237,5660, Note_on_c,77,76,3,3,1,90.0,True
35238,5660, Note_on_c,82,76,3,3,1,95.0,False
35239,5661, Note_on_c,68,76,3,3,1,79.0,False
35240,5661, Note_on_c,73,76,3,3,1,85.0,False
35241,5662, Note_on_c,70,76,3,3,1,81.0,False
35242,5663, Note_on_c,77,76,3,3,1,90.0,True
35243,5663, Note_on_c,82,76,3,3,1,95.0,False
35244,5664, Note_on_c,68,76,3,3,1,79.0,False
35245,5664, Note_on_c,75,76,3,3,1,87.0,False
35246,5665, Note_on_c,70,76,3,3,1,81.0,False
35247,5666, Note_on_c,77,76,3,3,1,90.0,True
35248,5666, Note_on_c,82,76,3,3,1,95.0,False
35249,5667, Note_on_c,68,76,3,3,1,79.0,False
35250,5667, Note_on_c,75,76,3,3,1,87.0,False
35251,5668, Note_on_c,77,76,3,3,1,90.0,True
35252,5668, Note_on_c,82,76,3,3,1,95.0,False
35253,5669, Note_on_c,68,76,3,3,1,79.0,False
35254,5669, Note_on_c,73,76,3,3,1,85.0,False
35255,5670, Note_on_c,70,76,3,3,1,81.0,False
35256,5671, Note_on_c,77,76,3,3,1,90.0,True
35257,5671, Note_on_c,82,76,3,3,1,95.0,False
35258,5672, Note_on_c,68,76,3,3,1,79.0,False
35259,5672, Note_on_c,75,76,3,3,1,87.0,False
35260,5673, Note_on_c,70,76,3,3,1,81.0,False
35261,5674, Note_on_c,77,76,3,3,1,90.0,True
35262,5674, Note_on_c,82,76,3,3,1,95.0,False
35263,5675, Note_on_c,68,76,3,3,1,79.0,False
35264,5675, Note_on_c,75,76,3,3,1,87.0,False
35265,5676, Note_on_c,77,76,3,3,1,90.0,True
35266,5676, Note_on_c,82,76,3,3,1,95.0,False
35267,5677, Note_on_c,68,76,3,3,1,79.0,False
35268,5677, Note_on_c,73,76,3,3,1,85.0,False
35269,5678, Note_on_c,70,76,3,3,1,81.0,False
35270,5679, Note_on_c,77,76,3,3,1,90.0,True
35271,5679, Note_on_c,82,76,3,3,1,95.0,False
35272,5680, Note_on_c,68,76,3,3,1,79.0,False
35273,5680, Note_on_c,75,76,3,3,1,87.0,False
35274,5681, Note_on_c,70,76,3,3,1,81.0,False
35275,5682, Note_on_c,77,76,3,3,1,90.0,True
35276,5682, Note_on_c,82,76,3,3,1,95.0,False
35277,5683, Note_on_c,68,76,3,3,1,79.0,False
35278,5683, Note_on_c,75,76,3,3,1,87.0,False
35279,5684, Note_on_c,77,76,3,3,1,90.0,True
35280,5684, Note_on_c,82,76,3,3,1,95.0,False
35281,5685, Note_on_c,68,76,3,3,1,79.0,False
35282,5685, Note_on_c,73,76,3,3,1,85.0,False
35283,5686, Note_on_c,70,76,3,3,1,81.0,False
35284,5687, Note_on_c,77,76,3,3,1,90.0,True
35285,5687, Note_on_c,82,76,3,3,1,95.0,False
35286,5688, Note_on_c,68,76,3,3,1,79.0,False
35287,5688, Note_on_c,75,76,3,3,1,87.0,False
35288,5689, Note_on_c,70,76,3,3,1,81.0,False
35289,5690, Note_on_c,77,76,3,3,1,90.0,True
35290,5690, Note_on_c,82,76,3,3,1,95.0,False
35291,5691, Note_on_c,68,76,3,3,1,79.0,False
35292,5691, Note_on_c,75,76,3,3,1,87.0,False
35293,5692, Note_on_c,77,76,3,3,1,90.0,True
35294,5692, Note_on_c,82,76,3,3,1,95.0,False
35295,5693, Note_on_c,68,76,3,3,1,79.0,False
35296,5693, Note_on_c,73,76,3,3,1,85.0,False
35297,5694, Note_on_c,70,76,3,3,1,81.0,False
35298,5695, Note_on_c,77,76,3,3,1,90.0,True
35299,5695, Note_on_c,82,76,3,3,1,95.0,False
35300,5696, Note_on_c,68,76,3,3,1,79.0,False
35301,5696, Note_on_c,75,76,3,3,1,87.0,False
35302,5697, Note_on_c,70,76,3,3,1,81.0,False
35303,5698, Note_on_c,77,76,3,3,1,90.0,True
35304,5698, Note_on_c,82,76,3,3,1,95.0,False
35305,5699, Note_on_c,68,76,3,3,1,79.0,False
35306,5699, Note_on_c,75,76,3,3,1,87.0,False
35307,5700, Note_on_c,77,76,3,3,1,90.0,True
35308,5700, Note_on_c,82,76,3,3,1,95.0,False
35309,5701, Note_on_c,68,76,3,3,1,79.0,False
35310,5701, Note_on_c,73,76,3,3,1,85.0,False
35311,5702, Note_on_c,70,76,3,3,1,81.0,False
35312,5703, Note_on_c,77,76,3,3,1,90.0,True
35313,5703, Note_on_c,82,76,3,3,1,95.0,False
35314,5704, Note_on_c,68,76,3,3,1,79.0,False
35315,5704, Note_on_c,75,76,3,3,1,87.0,False
35316,5705, Note_on_c,70,76,3,3,1,81.0,False
35317,5706, Note_on_c,77,76,3,3,1,90.0,True
35318,5706, Note_on_c,82,76,3,3,1,95.0,False
35319,5707, Note_on_c,68,76,3,3,1,79.0,False
35320,5707, Note_on_c,75,76,3,3,1,87.0,False
35321,5708, Note_on_c,77,76,3,3,1,90.0,True
35322,5708, Note_on_c,82,76,3,3,1,95.0,False
35323,5709, Note_on_c,68,76,3,3,1,79.0,False
35324,5709, Note_on_c,73,76,3,3,1,85.0,False
35325,5710, Note_on_c,70,76,3,3,1,81.0,False
35326,5711, Note_on_c,77,76,3,3,1,90.0,True
35327,5711, Note_on_c,82,76,3,3,1,95.0,False
35328,5712, Note_on_c,68,76,3,3,1,79.0,False
35329,5712, Note_on_c,75,76,3,3,1,87.0,False
35330,5713, Note_on_c,70,76,3,3,1,81.0,False
35331,5714, Note_on_c,77,76,3,3,1,90.0,True
35332,5714, Note_on_c,82,76,3,3,1,95.0,False
35333,5715, Note_on_c,68,76,3,3,1,79.0,False
35334,5715, Note_on_c,75,76,3,3,1,87.0,False
35335,5716, Note_on_c,77,76,3,3,1,90.0,True
35336,5716, Note_on_c,82,76,3,3,1,95.0,False
35337,5717, Note_on_c,68,76,3,3,1,79.0,False
35338,5717, Note_on_c,73,76,3,3,1,85.0,False
35339,5718, Note_on_c,70,76,3,3,1,81.0,False
35340,5719, Note_on_c,77,76,3,3,1,90.0,True
35341,5719, Note_on_c,82,76,3,3,1,95.0,False
35342,5720, Note_on_c,68,76,3,3,1,79.0,False
35343,5720, Note_on_c,75,76,3,3,1,87.0,False
35344,5721, Note_on_c,70,76,3,3,1,81.0,False
35345,5722, Note_on_c,77,76,3,3,1,90.0,True
35346,5722, Note_on_c,82,76,3,3,1,95.0,False
35347,5723, Note_on_c,68,76,3,3,1,79.0,False
35348,5723, Note_on_c,75,76,3,3,1,87.0,False
35349,5724, Note_on_c,77,76,3,3,1,90.0,True
35350,5724, Note_on_c,82,76,3,3,1,95.0,False
35351,5725, Note_on_c,68,76,3,3,1,79.0,False
35352,5725, Note_on_c,73,76,3,3,1,85.0,False
35353,5726, Note_on_c,70,76,3,3,1,81.0,False
35354,5727, Note_on_c,77,76,3,3,1,90.0,True
35355,5727, Note_on_c,82,76,3,3,1,95.0,False
35356,5728, Note_on_c,68,76,3,3,1,79.0,False
35357,5728, Note_on_c,75,76,3,3,1,87.0,False
35358,5729, Note_on_c,70,76,3,3,1,81.0,False
35359,5730, Note_on_c,77,76,3,3,1,90.0,True
35360,5730, Note_on_c,82,76,3,3,1,95.0,False
35361,5731, Note_on_c,68,76,3,3,1,79.0,False
35362,5731, Note_on_c,75,76,3,3,1,87.0,False
35363,5732, Note_on_c,77,76,3,3,1,90.0,True
35364,5732, Note_on_c,82,76,3,3,1,95.0,False
35365,5733, Note_on_c,68,76,3,3,1,79.0,False
35366,5733, Note_on_c,73,76,3,3,1,85.0,False
35367,5734, Note_on_c,70,76,3,3,1,81.0,False
35368,5735, Note_on_c,77,76,3,3,1,90.0,True
35369,5735, Note_on_c,82,76,3,3,1,95.0,False
35370,5736, Note_on_c,68,76,3,3,1,79.0,False
35371,5736, Note_on_c,75,76,3,3,1,87.0,False
35372,5737, Note_on_c,70,76,3,3,1,81.0,False
35373,5738, Note_on_c,77,76,3,3,1,90.0,True
35374,5738, Note_on_c,82,76,3,3,1,95.0,False
35375,5739, Note_on_c,68,76,3,3,1,79.0,False
35376,5739, Note_on_c,75,76,3,3,1,87.0,False
35377,5740, Note_on_c,77,76,3,3,1,90.0,True
35378,5740, Note_on_c,82,76,3,3,1,95.0,False
35379,5741, Note_on_c,68,76,3,3,1,79.0,False
35380,5741, Note_on_c,73,76,3,3,1,85.0,False
35381,5742, Note_on_c,70,76,3,3,1,81.0,False
35382,5743, Note_on_c,77,76,3,3,1,90.0,True
35383,5743, Note_on_c,82,76,3,3,1,95.0,False
35384,5744, Note_on_c,68,76,3,3,1,79.0,False
35385,5744, Note_on_c,75,76,3,3,1,87.0,False
35386,5745, Note_on_c,70,76,3,3,1,81.0,False
35387,5746, Note_on_c,77,76,3,3,1,90.0,True
35388,5746, Note_on_c,82,76,3,3,1,95.0,False
35389,5747, Note_on_c,68,76,3,3,1,79.0,False
35390,5747, Note_on_c,75,76,3,3,1,87.0,False
35391,5748, Note_on_c,77,76,3,3,1,90.0,True
35392,5748, Note_on_c,82,76,3,3,1,95.0,False
35393,5749, Note_on_c,68,76,3,3,1,79.0,False
35394,5749, Note_on_c,73,76,3,3,1,85.0,False
35395,5750, Note_on_c,70,76,3,3,1,81.0,False
35396,5751, Note_on_c,77,76,3,3,1,90.0,True
35397,5751, Note_on_c,82,76,3,3,1,95.0,False
35398,5752, Note_on_c,68,76,3,3,1,79.0,False
35399,5752, Note_on_c,75,76,3,3,1,87.0,False
35400,5753, Note_on_c,70,76,3,3,1,81.0,False
35401,5754, Note_on_c,77,76,3,3,1,90.0,True
35402,5754, Note_on_c,82,76,3,3,1,95.0,False
35403,5755, Note_on_c,68,76,3,3,1,79.0,False
35404,5755, Note_on_c,75,76,3,3,1,87.0,False
35405,5756, Note_on_c,77,76,3,3,1,90.0,True
35406,5756, Note_on_c,82,76,3,3,1,95.0,False
35407,5757, Note_on_c,68,76,3,3,1,79.0,False
35408,5757, Note_on_c,73,76,3,3,1,85.0,False
35409,5758, Note_on_c,70,76,3,3,1,81.0,False
35410,5759, Note_on_c,77,76,3,3,1,90.0,True
35411,5759, Note_on_c,82,76,3,3,1,95.0,False
35412,5760, Note_on_c,68,76,3,3,1,79.0,False
35413,5760, Note_on_c,75,76,3,3,1,87.0,False
35414,5761, Note_on_c,70,76,3,3,1,81.0,False
35415,5762, Note_on_c,77,76,3,3,1,90.0,True
35416,5762, Note_on_c,82,76,3,3,1,95.0,False
35417,5763, Note_on_c,68,76,3,3,1,79.0,False
35418,5763, Note_on_c,75,76,3,3,1,87.0,False
35419,5764, Note_on_c,77,76,3,3,1,90.0,True
35420,5764, Note_on_c,82,76,3,3,1,95.0,False
35421,5765, Note_on_c,68,76,3,3,1,79.0,False
35422,5765, Note_on_c,73,76,3,3,1,85.0,False
35423,5766, Note_on_c,70,76,3,3,1,81.0,False
35424,5767, Note_on_c,77,76,3,3,1,90.0,True
35425,5767, Note_on_c,82,76,3,3,1,95.0,False
35426,5768, Note_on_c,68,76,3,3,1,79.0,False
35427,5768, Note_on_c,75,76,3,3,1,87.0,False
35428,5769, Note_on_c,70,76,3,3,1,81.0,False
35429,5770, Note_on_c,77,76,3,3,1,90.0,True
35430,5770, Note_on_c,82,76,3,3,1,95.0,False
35431,5771, Note_on_c,68,76,3,3,1,79.0,False
35432,5771, Note_on_c,75,76,3,3,1,87.0,False
35433,5772, Note_on_c,77,76,3,3,1,90.0,True
35434,5772, Note_on_c,82,76,3,3,1,95.0,False
35435,5773, Note_on_c,68,76,3,3,1,79.0,False
35436,5773, Note_on_c,73,76,3,3,1,85.0,False
35437,5774, Note_on_c,70,76,3,3,1,81.0,False
35438,5775, Note_on_c,77,76,3,3,1,90.0,True
35439,5775, Note_on_c,82,76,3,3,1,95.0,False
35440,5776, Note_on_c,68,76,3,3,1,79.0,False
35441,5776, Note_on_c,75,76,3,3,1,87.0,False
35442,5777, Note_on_c,70,76,3,3,1,81.0,False
35443,5778, Note_on_c,77,76,3,3,1,90.0,True
35444,5778, Note_on_c,82,76,3,3,1,95.0,False
35445,5779, Note_on_c,68,76,3,3,1,79.0,False
35446,5779, Note_on_c,75,76,3,3,1,87.0,False
35447,5780, Note_on_c,77,76,3,3,1,90.0,True
35448,5780, Note_on_c,82,76,3,3,1,95.0,False
35449,5781, Note_on_c,68,76,3,3,1,79.0,False
35450,5781, Note_on_c,73,76,3,3,1,85.0,False
35451,5782, Note_on_c,70,76,3,3,1,81.0,False
35452,5783, Note_on_c,77,76,3,3,1,90.0,True
35453,5783, Note_on_c,82,76,3,3,1,95.0,False
35454,5784, Note_on_c,68,76,3,3,1,79.0,False
35455,5784, Note_on_c,75,76,3,3,1,87.0,False
35456,5785, Note_on_c,70,76,3,3,1,81.0,False
35457,5786, Note_on_c,77,76,3,3,1,90.0,True
35458,5786, Note_on_c,82,76,3,3,1,95.0,False
35459,5787, Note_on_c,68,76,3,3,1,79.0,False
35460,5787, Note_on_c,75,76,3,3,1,87.0,False
35461,5788, Note_on_c,77,76,3,3,1,90.0,True
35462,5788, Note_on_c,82,76,3,3,1,95.0,False
35463,5789, Note_on_c,68,76,3,3,1,79.0,False
35464,5789, Note_on_c,73,76,3,3,1,85.0,False
35465,5790, Note_on_c,70,76,3,3,1,81.0,False
35466,5791, Note_on_c,77,76,3,3,1,90.0,True
35467,5791, Note_on_c,82,76,3,3,1,95.0,False
35468,5792, Note_on_c,68,76,3,3,1,79.0,False
35469,5792, Note_on_c,75,76,3,3,1,87.0,False
35470,5793, Note_on_c,70,76,3,3,1,81.0,False
35471,5794, Note_on_c,77,76,3,3,1,90.0,True
35472,5794, Note_on_c,82,76,3,3,1,95.0,False
35473,5795, Note_on_c,68,76,3,3,1,79.0,False
35474,5795, Note_on_c,75,76,3,3,1,87.0,False
35475,5796, Note_on_c,77,76,3,3,1,90.0,True
35476,5796, Note_on_c,82,76,3,3,1,95.0,False
35477,5797, Note_on_c,68,76,3,3,1,79.0,False
35478,5797, Note_on_c,73,76,3,3,1,85.0,False
35479,5798, Note_on_c,70,76,3,3,1,81.0,False
35480,5799, Note_on_c,77,76,3,3,1,90.0,True
35481,5799, Note_on_c,82,76,3,3,1,95.0,False
35482,5800, Note_on_c,68,76,3,3,1,79.0,False
35483,5800, Note_on_c,75,76,3,3,1,87.0,False
35484,5801, Note_on_c,70,76,3,3,1,81.0,False
35485,5802, Note_on_c,77,76,3,3,1,90.0,True
35486,5802, Note_on_c,82,76,3,3,1,95.0,False
35487,5803, Note_on_c,68,76,3,3,1,79.0,False
35488,5803, Note_on_c,75,76,3,3,1,87.0,False
35489,5804, Note_on_c,77,76,3,3,1,90.0,True
35490,5804, Note_on_c,82,76,3,3,1,95.0,False
35491,5805, Note_on_c,68,76,3,3,1,79.0,False
35492,5805, Note_on_c,73,76,3,3,1,85.0,False
35493,5806, Note_on_c,70,76,3,3,1,81.0,False
35494,5807, Note_on_c,77,76,3,3,1,90.0,True
35495,5807, Note_on_c,82,76,3,3,1,95.0,False
35496,5808, Note_on_c,68,76,3,3,1,79.0,False
35497,5808, Note_on_c,75,76,3,3,1,87.0,False
35498,5809, Note_on_c,70,76,3,3,1,81.0,False
35499,5810, Note_on_c,77,76,3,3,1,90.0,True
35500,5810, Note_on_c,82,76,3,3,1,95.0,False
35501,5811, Note_on_c,68,76,3,3,1,79.0,False
35502,5811, Note_on_c,75,76,3,3,1,87.0,False
35503,5812, Note_on_c,77,76,3,3,1,90.0,True
35504,5812, Note_on_c,82,76,3,3,1,95.0,False
35505,5813, Note_on_c,68,76,3,3,1,79.0,False
35506,5813, Note_on_c,73,76,3,3,1,85.0,False
35507,5814, Note_on_c,70,76,3,3,1,81.0,False
35508,5815, Note_on_c,77,76,3,3,1,90.0,True
35509,5815, Note_on_c,82,76,3,3,1,95.0,False
35510,5816, Note_on_c,68,76,3,3,1,79.0,False
35511,5816, Note_on_c,75,76,3,3,1,87.0,False
35512,5817, Note_on_c,70,76,3,3,1,81.0,False
35513,5818, Note_on_c,77,76,3,3,1,90.0,True
35514,5818, Note_on_c,82,76,3,3,1,95.0,False
35515,5819, Note_on_c,68,76,3,3,1,79.0,False
35516,5819, Note_on_c,75,76,3,3,1,87.0,False
35517,5820, Note_on_c,77,76,3,3,1,90.0,True
35518,5820, Note_on_c,82,76,3,3,1,95.0,False
35519,5821, Note_on_c,68,76,3,3,1,79.0,False
35520,5821, Note_on_c,73,76,3,3,1,85.0,False
35521,5822, Note_on_c,70,76,3,3,1,81.0,False
35522,5823, Note_on_c,77,76,3,3,1,90.0,True
35523,5823, Note_on_c,82,76,3,3,1,95.0,False
35524,5824, Note_on_c,68,76,3,3,1,79.0,False
35525,5824, Note_on_c,75,76,3,3,1,87.0,False
35526,5825, Note_on_c,70,76,3,3,1,81.0,False
35527,5826, Note_on_c,77,76,3,3,1,90.0,True
35528,5826, Note_on_c,82,76,3,3,1,95.0,False
35529,5827, Note_on_c,68,76,3,3,1,79.0,False
35530,5827, Note_on_c,75,76,3,3,1,87.0,False
35531,5828, Note_on_c,77,76,3,3,1,90.0,True
35532,5828, Note_on_c,82,76,3,3,1,95.0,False
35533,5829, Note_on_c,68,76,3,3,1,79.0,False
35534,5829, Note_on_c,73,76,3,3,1,85.0,False
35535,5830, Note_on_c,70,76,3,3,1,81.0,False
35536,5831, Note_on_c,77,76,3,3,1,90.0,True
35537,5831, Note_on_c,82,76,3,3,1,95.0,False
35538,5832, Note_on_c,68,76,3,3,1,79.0,False
35539,5832, Note_on_c,75,76,3,3,1,87.0,False
35540,5833, Note_on_c,70,76,3,3,1,81.0,False
35541,5834, Note_on_c,77,76,3,3,1,90.0,True
35542,5834, Note_on_c,82,76,3,3,1,95.0,False
35543,5835, Note_on_c,68,76,3,3,1,79.0,False
35544,5835, Note_on_c,75,76,3,3,1,87.0,False
35545,5836, Note_on_c,77,76,3,3,1,90.0,True
35546,5836, Note_on_c,82,76,3,3,1,95.0,False
35547,5837, Note_on_c,68,76,3,3,1,79.0,False
35548,5837, Note_on_c,73,76,3,3,1,85.0,False
35549,5838, Note_on_c,70,76,3,3,1,81.0,False
35550,5839, Note_on_c,77,76,3,3,1,90.0,True
35551,5839, Note_on_c,82,76,3,3,1,95.0,False
35552,5840, Note_on_c,68,76,3,3,1,79.0,False
35553,5840, Note_on_c,75,76,3,3,1,87.0,False
35554,5841, Note_on_c,70,76,3,3,1,81.0,False
35555,5842, Note_on_c,77,76,3,3,1,90.0,True
35556,5842, Note_on_c,82,76,3,3,1,95.0,False
35557,5843, Note_on_c,68,76,3,3,1,79.0,False
35558,5843, Note_on_c,75,76,3,3,1,87.0,False
35559,5844, Note_on_c,77,76,3,3,1,90.0,True
35560,5844, Note_on_c,82,76,3,3,1,95.0,False
35561,5845, Note_on_c,68,76,3,3,1,79.0,False
35562,5845, Note_on_c,73,76,3,3,1,85.0,False
35563,5846, Note_on_c,70,76,3,3,1,81.0,False
35564,5847, Note_on_c,77,76,3,3,1,90.0,True
35565,5847, Note_on_c,82,76,3,3,1,95.0,False
35566,5848, Note_on_c,68,76,3,3,1,79.0,False
35567,5848, Note_on_c,75,76,3,3,1,87.0,False
35568,5849, Note_on_c,70,76,3,3,1,81.0,False
35569,5850, Note_on_c,77,76,3,3,1,90.0,True
35570,5850, Note_on_c,82,76,3,3,1,95.0,False
35571,5851, Note_on_c,68,76,3,3,1,79.0,False
35572,5851, Note_on_c,75,76,3,3,1,87.0,False
35573,5852, Note_on_c,77,76,3,3,1,90.0,True
35574,5852, Note_on_c,82,76,3,3,1,95.0,False
35575,5853, Note_on_c,68,76,3,3,1,79.0,False
35576,5853, Note_on_c,73,76,3,3,1,85.0,False
35577,5854, Note_on_c,70,76,3,3,1,81.0,False
35578,5855, Note_on_c,77,76,3,3,1,90.0,True
35579,5855, Note_on_c,82,76,3,3,1,95.0,False
35580,5856, Note_on_c,68,76,3,3,1,79.0,False
35581,5856, Note_on_c,75,76,3,3,1,87.0,False
35582,5857, Note_on_c,70,76,3,3,1,81.0,False
35583,5858, Note_on_c,77,76,3,3,1,90.0,True
35584,5858, Note_on_c,82,76,3,3,1,95.0,False
35585,5859, Note_on_c,68,76,3,3,1,79.0,False
35586,5859, Note_on_c,75,76,3,3,1,87.0,False
35587,5860, Note_on_c,77,76,3,3,1,90.0,True
35588,5860, Note_on_c,82,76,3,3,1,95.0,False
35589,5861, Note_on_c,68,76,3,3,1,79.0,False
35590,5861, Note_on_c,73,76,3,3,1,85.0,False
35591,5862, Note_on_c,70,76,3,3,1,81.0,False
35592,5863, Note_on_c,77,76,3,3,1,90.0,True
35593,5863, Note_on_c,82,76,3,3,1,95.0,False
35594,5864, Note_on_c,68,76,3,3,1,79.0,False
35595,5864, Note_on_c,75,76,3,3,1,87.0,False
35596,5865, Note_on_c,70,76,3,3,1,81.0,False
35597,5866, Note_on_c,77,76,3,3,1,90.0,True
35598,5866, Note_on_c,82,76,3,3,1,95.0,False
35599,5867, Note_on_c,68,76,3,3,1,79.0,False
35600,5867, Note_on_c,75,76,3,3,1,87.0,False
35601,5868, Note_on_c,77,76,3,3,1,90.0,True
35602,5868, Note_on_c,82,76,3,3,1,95.0,False
35603,5869, Note_on_c,68,76,3,3,1,79.0,False
35604,5869, Note_on_c,73,76,3,3,1,85.0,False
35605,5870, Note_on_c,70,76,3,3,1,81.0,False
35606,5871, Note_on_c,77,76,3,3,1,90.0,True
35607,5871, Note_on_c,82,76,3,3,1,95.0,False
35608,5872, Note_on_c,68,76,3,3,1,79.0,False
35609,5872, Note_on_c,75,76,3,3,1,87.0,False
35610,5873, Note_on_c,70,76,3,3,1,81.0,False
35611,5874, Note_on_c,77,76,3,3,1,90.0,True
35612,5874, Note_on_c,82,76,3,3,1,95.0,False
35613,5875, Note_on_c,68,76,3,3,1,79.0,False
35614,5875, Note_on_c,75,76,3,3,1,87.0,False
35615,5876, Note_on_c,77,76,3,3,1,90.0,True
35616,5876, Note_on_c,82,76,3,3,1,95.0,False
35617,5877, Note_on_c,68,76,3,3,1,79.0,False
35618,5877, Note_on_c,73,76,3,3,1,85.0,False
35619,5878, Note_on_c,70,76,3,3,1,81.0,False
35620,5879, Note_on_c,77,76,3,3,1,90.0,True
35621,5879, Note_on_c,82,76,3,3,1,95.0,False
35622,5880, Note_on_c,68,76,3,3,1,79.0,False
35623,5880, Note_on_c,75,76,3,3,1,87.0,False
35624,5881, Note_on_c,70,76,3,3,1,81.0,False
35625,5882, Note_on_c,77,76,3,3,1,90.0,True
35626,5882, Note_on_c,82,76,3,3,1,95.0,False
35627,5883, Note_on_c,68,76,3,3,1,79.0,False
35628,5883, Note_on_c,75,76,3,3,1,87.0,False
35629,5884, Note_on_c,77,76,3,3,1,90.0,True
35630,5884, Note_on_c,82,76,3,3,1,95.0,False
35631,5885, Note_on_c,68,76,3,3,1,79.0,False
35632,5885, Note_on_c,73,76,3,3,1,85.0,False
35633,5886, Note_on_c,70,76,3,3,1,81.0,False
35634,5887, Note_on_c,77,76,3,3,1,90.0,True
35635,5887, Note_on_c,82,76,3,3,1,95.0,False
35636,5888, Note_on_c,68,76,3,3,1,79.0,False
35637,5888, Note_on_c,75,76,3,3,1,87.0,False
35638,5889, Note_on_c,70,76,3,3,1,81.0,False
35639,5890, Note_on_c,77,76,3,3,1,90.0,True
35640,5890, Note_on_c,82,76,3,3,1,95.0,False
35641,5891, Note_on_c,68,76,3,3,1,79.0,False
35642,5891, Note_on_c,75,76,3,3,1,87.0,False
35643,5892, Note_on_c,77,76,3,3,1,90.0,True
35644,5892, Note_on_c,82,76,3,3,1,95.0,False
35645,5893, Note_on_c,68,76,3,3,1,79.0,False
35646,5893, Note_on_c,73,76,3,3,1,85.0,False
35647,5894, Note_on_c,70,76,3,3,1,81.0,False
35648,5895, Note_on_c,77,76,3,3,1,90.0,True
35649,5895, Note_on_c,82,76,3,3,1,95.0,False
35650,5896, Note_on_c,68,76,3,3,1,79.0,False
35651,5896, Note_on_c,75,76,3,3,1,87.0,False
35652,5897, Note_on_c,70,76,3,3,1,81.0,False
35653,5898, Note_on_c,77,76,3,3,1,90.0,True
35654,5898, Note_on_c,82,76,3,3,1,95.0,False
35655,5899, Note_on_c,68,76,3,3,1,79.0,False
35656,5899, Note_on_c,75,76,3,3,1,87.0,False
35657,5900, Note_on_c,77,76,3,3,1,90.0,True
35658,5900, Note_on_c,82,76,3,3,1,95.0,False
35659,5901, Note_on_c,68,76,3,3,1,79.0,False
35660,5901, Note_on_c,73,76,3,3,1,85.0,False
35661,5902, Note_on_c,70,76,3,3,1,81.0,False
35662,5903, Note_on_c,77,76,3,3,1,90.0,True
35663,5903, Note_on_c,82,76,3,3,1,95.0,False
35664,5904, Note_on_c,68,76,3,3,1,79.0,False
35665,5904, Note_on_c,75,76,3,3,1,87.0,False
35666,5905, Note_on_c,70,76,3,3,1,81.0,False
35667,5906, Note_on_c,77,76,3,3,1,90.0,True
35668,5906, Note_on_c,82,76,3,3,1,95.0,False
35669,5907, Note_on_c,68,76,3,3,1,79.0,False
35670,5907, Note_on_c,75,76,3,3,1,87.0,False
35671,5908, Note_on_c,77,76,3,3,1,90.0,True
35672,5908, Note_on_c,82,76,3,3,1,95.0,False
35673,5909, Note_on_c,68,76,3,3,1,79.0,False
35674,5909, Note_on_c,73,76,3,3,1,85.0,False
35675,5910, Note_on_c,70,76,3,3,1,81.0,False
35676,5911, Note_on_c,77,76,3,3,1,90.0,True
35677,5911, Note_on_c,82,76,3,3,1,95.0,False
35678,5912, Note_on_c,68,76,3,3,1,79.0,False
35679,5912, Note_on_c,75,76,3,3,1,87.0,False
35680,5913, Note_on_c,70,76,3,3,1,81.0,False
35681,5914, Note_on_c,77,76,3,3,1,90.0,True
35682,5914, Note_on_c,82,76,3,3,1,95.0,False
35683,5915, Note_on_c,68,76,3,3,1,79.0,False
35684,5915, Note_on_c,75,76,3,3,1,87.0,False
35685,5916, Note_on_c,77,76,3,3,1,90.0,True
35686,5916, Note_on_c,82,76,3,3,1,95.0,False
35687,5917, Note_on_c,68,76,3,3,1,79.0,False
35688,5917, Note_on_c,73,76,3,3,1,85.0,False
35689,5918, Note_on_c,70,76,3,3,1,81.0,False
35690,5919, Note_on_c,77,76,3,3,1,90.0,True
35691,5919, Note_on_c,82,76,3,3,1,95.0,False
35692,5920, Note_on_c,68,76,3,3,1,79.0,False
35693,5920, Note_on_c,75,76,3,3,1,87.0,False
35694,5921, Note_on_c,70,76,3,3,1,81.0,False
35695,5922, Note_on_c,77,76,3,3,1,90.0,True
35696,5922, Note_on_c,82,76,3,3,1,95.0,False
35697,5923, Note_on_c,68,76,3,3,1,79.0,False
35698,5923, Note_on_c,75,76,3,3,1,87.0,False
35699,5924, Note_on_c,77,76,3,3,1,90.0,True
35700,5924, Note_on_c,82,76,3,3,1,95.0,False
35701,5925, Note_on_c,68,76,3,3,1,79.0,False
35702,5925, Note_on_c,73,76,3,3,1,85.0,False
35703,5926, Note_on_c,70,76,3,3,1,81.0,False
35704,5927, Note_on_c,77,76,3,3,1,90.0,True
35705,5927, Note_on_c,82,76,3,3,1,95.0,False
35706,5928, Note_on_c,68,76,3,3,1,79.0,False
35707,5928, Note_on_c,75,76,3,3,1,87.0,False
35708,5929, Note_on_c,70,76,3,3,1,81.0,False
35709,5930, Note_on_c,77,76,3,3,1,90.0,True
35710,5930, Note_on_c,82,76,3,3,1,95.0,False
35711,5931, Note_on_c,68,76,3,3,1,79.0,False
35712,5931, Note_on_c,75,76,3,3,1,87.0,False
35713,5932, Note_on_c,77,76,3,3,1,90.0,True
35714,5932, Note_on_c,82,76,3,3,1,95.0,False
35715,5933, Note_on_c,68,76,3,3,1,79.0,False
35716,5933, Note_on_c,73,76,3,3,1,85.0,False
35717,5934, Note_on_c,70,76,3,3,1,81.0,False
35718,5935, Note_on_c,77,76,3,3,1,90.0,True
35719,5935, Note_on_c,82,76,3,3,1,95.0,False
35720,5936, Note_on_c,68,76,3,3,1,79.0,False
35721,5936, Note_on_c,75,76,3,3,1,87.0,False
35722,5937, Note_on_c,70,76,3,3,1,81.0,False
35723,5938, Note_on_c,77,76,3,3,1,90.0,True
35724,5938, Note_on_c,82,76,3,3,1,95.0,False
35725,5939, Note_on_c,68,76,3,3,1,79.0,False
35726,5939, Note_on_c,75,76,3,3,1,87.0,False
35727,5940, Note_on_c,77,76,3,3,1,90.0,True
35728,5940, Note_on_c,82,76,3,3,1,95.0,False
35729,5941, Note_on_c,68,76,3,3,1,79.0,False
35730,5941, Note_on_c,73,76,3,3,1,85.0,False
35731,5942, Note_on_c,70,76,3,3,1,81.0,False
35732,5943, Note_on_c,77,76,3,3,1,90.0,True
35733,5943, Note_on_c,82,76,3,3,1,95.0,False
35734,5944, Note_on_c,68,76,3,3,1,79.0,False
35735,5944, Note_on_c,75,76,3,3,1,87.0,False
35736,5945, Note_on_c,70,76,3,3,1,81.0,False
35737,5946, Note_on_c,77,76,3,3,1,90.0,True
35738,5946, Note_on_c,82,76,3,3,1,95.0,False
35739,5947, Note_on_c,68,76,3,3,1,79.0,False
35740,5947, Note_on_c,75,76,3,3,1,87.0,False
35741,5948, Note_on_c,77,76,3,3,1,90.0,True
35742,5948, Note_on_c,82,76,3,3,1,95.0,False
35743,5949, Note_on_c,68,76,3,3,1,79.0,False
35744,5949, Note_on_c,73,76,3,3,1,85.0,False
35745,5950, Note_on_c,70,76,3,3,1,81.0,False
35746,5951, Note_on_c,77,76,3,3,1,90.0,True
35747,5951, Note_on_c,82,76,3,3,1,95.0,False
35748,5952, Note_on_c,68,76,3,3,1,79.0,False
35749,5952, Note_on_c,75,76,3,3,1,87.0,False
35750,5953, Note_on_c,70,76,3,3,1,81.0,False
35751,5954, Note_on_c,77,76,3,3,1,90.0,True
35752,5954, Note_on_c,82,76,3,3,1,95.0,False
35753,5955, Note_on_c,68,76,3,3,1,79.0,False
35754,5955, Note_on_c,75,76,3,3,1,87.0,False
35755,5956, Note_on_c,77,76,3,3,1,90.0,True
35756,5956, Note_on_c,82,76,3,3,1,95.0,False
35757,5957, Note_on_c,68,76,3,3,1,79.0,False
35758,5957, Note_on_c,73,76,3,3,1,85.0,False
35759,5958, Note_on_c,70,76,3,3,1,81.0,False
35760,5959, Note_on_c,77,76,3,3,1,90.0,True
35761,5959, Note_on_c,82,76,3,3,1,95.0,False
35762,5960, Note_on_c,68,76,3,3,1,79.0,False
35763,5960, Note_on_c,75,76,3,3,1,87.0,False
35764,5961, Note_on_c,70,76,3,3,1,81.0,False
35765,5962, Note_on_c,77,76,3,3,1,90.0,True
35766,5962, Note_on_c,82,76,3,3,1,95.0,False
35767,5963, Note_on_c,68,76,3,3,1,79.0,False
35768,5963, Note_on_c,75,76,3,3,1,87.0,False
35769,5964, Note_on_c,77,76,3,3,1,90.0,True
35770,5964, Note_on_c,82,76,3,3,1,95.0,False
35771,5965, Note_on_c,68,76,3,3,1,79.0,False
35772,5965, Note_on_c,73,76,3,3,1,85.0,False
35773,5966, Note_on_c,70,76,3,3,1,81.0,False
35774,5967, Note_on_c,77,76,3,3,1,90.0,True
35775,5967, Note_on_c,82,76,3,3,1,95.0,False
35776,5968, Note_on_c,68,76,3,3,1,79.0,False
35777,5968, Note_on_c,75,76,3,3,1,87.0,False
35778,5969, Note_on_c,70,76,3,3,1,81.0,False
35779,5970, Note_on_c,77,76,3,3,1,90.0,True
35780,5970, Note_on_c,82,76,3,3,1,95.0,False
35781,5971, Note_on_c,68,76,3,3,1,79.0,False
35782,5971, Note_on_c,75,76,3,3,1,87.0,False
35783,5972, Note_on_c,77,76,3,3,1,90.0,True
35784,5972, Note_on_c,82,76,3,3,1,95.0,False
35785,5973, Note_on_c,68,76,3,3,1,79.0,False
35786,5973, Note_on_c,73,76,3,3,1,85.0,False
35787,5974, Note_on_c,70,76,3,3,1,81.0,False
35788,5975, Note_on_c,77,76,3,3,1,90.0,True
35789,5975, Note_on_c,82,76,3,3,1,95.0,False
35790,5976, Note_on_c,68,76,3,3,1,79.0,False
35791,5976, Note_on_c,75,76,3,3,1,87.0,False
35792,5977, Note_on_c,70,76,3,3,1,81.0,False
35793,5978, Note_on_c,77,76,3,3,1,90.0,True
35794,5978, Note_on_c,82,76,3,3,1,95.0,False
35795,5979, Note_on_c,68,76,3,3,1,79.0,False
35796,5979, Note_on_c,75,76,3,3,1,87.0,False
35797,5980, Note_on_c,77,76,3,3,1,90.0,True
35798,5980, Note_on_c,82,76,3,3,1,95.0,False
35799,5981, Note_on_c,68,76,3,3,1,79.0,False
35800,5981, Note_on_c,73,76,3,3,1,85.0,False
35801,5982, Note_on_c,70,76,3,3,1,81.0,False
35802,5983, Note_on_c,77,76,3,3,1,90.0,True
35803,5983, Note_on_c,82,76,3,3,1,95.0,False
35804,5984, Note_on_c,68,76,3,3,1,79.0,False
35805,5984, Note_on_c,75,76,3,3,1,87.0,False
35806,5985, Note_on_c,70,76,3,3,1,81.0,False
35807,5986, Note_on_c,77,76,3,3,1,90.0,True
35808,5986, Note_on_c,82,76,3,3,1,95.0,False
35809,5987, Note_on_c,68,76,3,3,1,79.0,False
35810,5987, Note_on_c,75,76,3,3,1,87.0,False
35811,5988, Note_on_c,77,76,3,3,1,90.0,True
35812,5988, Note_on_c,82,76,3,3,1,95.0,False
35813,5989, Note_on_c,68,76,3,3,1,79.0,False
35814,5989, Note_on_c,73,76,3,3,1,85.0,False
35815,5990, Note_on_c,70,76,3,3,1,81.0,False
35816,5991, Note_on_c,77,76,3,3,1,90.0,True
35817,5991, Note_on_c,82,76,3,3,1,95.0,False
35818,5992, Note_on_c,68,76,3,3,1,79.0,False
35819,5992, Note_on_c,75,76,3,3,1,87.0,False
35820,5993, Note_on_c,70,76,3,3,1,81.0,False
35821,5994, Note_on_c,77,76,3,3,1,90.0,True
35822,5994, Note_on_c,82,76,3,3,1,95.0,False
35823,5995, Note_on_c,68,76,3,3,1,79.0,False
35824,5995, Note_on_c,75,76,3,3,1,87.0,False
35825,5996, Note_on_c,77,76,3,3,1,90.0,True
35826,5996, Note_on_c,82,76,3,3,1,95.0,False
35827,5997, Note_on_c,68,76,3,3,1,79.0,False
35828,5997, Note_on_c,73,76,3,3,1,85.0,False
35829,5998, Note_on_c,70,76,3,3,1,81.0,False
35830,5999, Note_on_c,77,76,3,3,1,90.0,True
35831,5999, Note_on_c,82,76,3,3,1,95.0,False
35832,6000, Note_on_c,68,76,3,3,1,79.0,False
35833,6000, Note_on_c,75,76,3,3,1,87.0,False
35834,6001, Note_on_c,70,76,3,3,1,81.0,False
35835,6002, Note_on_c,77,76,3,3,1,90.0,True
35836,6002, Note_on_c,82,76,3,3,1,95.0,False
35837,6003, Note_on_c,68,76,3,3,1,79.0,False
35838,6003, Note_on_c,75,76,3,3,1,87.0,False
35839,6004, Note_on_c,77,76,3,3,1,90.0,True
35840,6004, Note_on_c,82,76,3,3,1,95.0,False
35841,6005, Note_on_c,68,76,3,3,1,79.0,False
35842,6005, Note_on_c,73,76,3,3,1,85.0,False
35843,6006, Note_on_c,70,76,3,3,1,81.0,False
35844,6007, Note_on_c,77,76,3,3,1,90.0,True
35845,6007, Note_on_c,82,76,3,3,1,95.0,False
35846,6008, Note_on_c,68,76,3,3,1,79.0,False
35847,6008, Note_on_c,75,76,3,3,1,87.0,False
35848,6009, Note_on_c,70,76,3,3,1,81.0,False
35849,6010, Note_on_c,77,76,3,3,1,90.0,True
35850,6010, Note_on_c,82,76,3,3,1,95.0,False
35851,6011, Note_on_c,68,76,3,3,1,79.0,False
35852,6011, Note_on_c,75,76,3,3,1,87.0,False
35853,6012, Note_on_c,77,76,3,3,1,90.0,True
35854,6012, Note_on_c,82,76,3,3,1,95.0,False
35855,6013, Note_on_c,68,76,3,3,1,79.0,False
35856,6013, Note_on_c,73,76,3,3,1,85.0,False
35857,6014, Note_on_c,70,76,3,3,1,81.0,False
35858,6015, Note_on_c,77,76,3,3,1,90.0,True
35859,6015, Note_on_c,82,76,3,3,1,95.0,False
35860,6016, Note_on_c,68,76,3,3,1,79.0,False
35861,6016, Note_on_c,75,76,3,3,1,87.0,False
35862,6017, Note_on_c,70,76,3,3,1,81.0,False
35863,6018, Note_on_c,77,76,3,3,1,90.0,True
35864,6018, Note_on_c,82,76,3,3,1,95.0,False
35865,6019, Note_on_c,68,76,3,3,1,79.0,False
35866,6019, Note_on_c,75,76,3,3,1,87.0,False
35867,6020, Note_on_c,77,76,3,3,1,90.0,True
35868,6020, Note_on_c,82,76,3,3,1,95.0,False
35869,6021, Note_on_c,68,76,3,3,1,79.0,False
35870,6021, Note_on_c,73,76,3,3,1,85.0,False
35871,6022, Note_on_c,70,76,3,3,1,81.0,False
35872,6023, Note_on_c,77,76,3,3,1,90.0,True
35873,6023, Note_on_c,82,76,3,3,1,95.0,False
35874,6024, Note_on_c,68,76,3,3,1,79.0,False
35875,6024, Note_on_c,75,76,3,3,1,87.0,False
35876,6025, Note_on_c,70,76,3,3,1,81.0,False
35877,6026, Note_on_c,77,76,3,3,1,90.0,True
35878,6026, Note_on_c,82,76,3,3,1,95.0,False
35879,6027, Note_on_c,68,76,3,3,1,79.0,False
35880,6027, Note_on_c,75,76,3,3,1,87.0,False
35881,6028, Note_on_c,77,76,3,3,1,90.0,True
35882,6028, Note_on_c,82,76,3,3,1,95.0,False
35883,6029, Note_on_c,68,76,3,3,1,79.0,False
35884,6029, Note_on_c,73,76,3,3,1,85.0,False
35885,6030, Note_on_c,70,76,3,3,1,81.0,False
35886,6031, Note_on_c,77,76,3,3,1,90.0,True
35887,6031, Note_on_c,82,76,3,3,1,95.0,False
35888,6032, Note_on_c,68,76,3,3,1,79.0,False
35889,6032, Note_on_c,75,76,3,3,1,87.0,False
35890,6033, Note_on_c,70,76,3,3,1,81.0,False
35891,6034, Note_on_c,77,76,3,3,1,90.0,True
35892,6034, Note_on_c,82,76,3,3,1,95.0,False
35893,6035, Note_on_c,68,76,3,3,1,79.0,False
35894,6035, Note_on_c,75,76,3,3,1,87.0,False
35895,6036, Note_on_c,77,76,3,3,1,90.0,True
35896,6036, Note_on_c,82,76,3,3,1,95.0,False
35897,6037, Note_on_c,68,76,3,3,1,79.0,False
35898,6037, Note_on_c,73,76,3,3,1,85.0,False
35899,6038, Note_on_c,70,76,3,3,1,81.0,False
35900,6039, Note_on_c,77,76,3,3,1,90.0,True
35901,6039, Note_on_c,82,76,3,3,1,95.0,False
35902,6040, Note_on_c,68,76,3,3,1,79.0,False
35903,6040, Note_on_c,75,76,3,3,1,87.0,False
35904,6041, Note_on_c,70,76,3,3,1,81.0,False
35905,6042, Note_on_c,77,76,3,3,1,90.0,True
35906,6042, Note_on_c,82,76,3,3,1,95.0,False
35907,6043, Note_on_c,68,76,3,3,1,79.0,False
35908,6043, Note_on_c,75,76,3,3,1,87.0,False
35909,6044, Note_on_c,77,76,3,3,1,90.0,True
35910,6044, Note_on_c,82,76,3,3,1,95.0,False
35911,6045, Note_on_c,68,76,3,3,1,79.0,False
35912,6045, Note_on_c,73,76,3,3,1,85.0,False
35913,6046, Note_on_c,70,76,3,3,1,81.0,False
35914,6047, Note_on_c,77,76,3,3,1,90.0,True
35915,6047, Note_on_c,82,76,3,3,1,95.0,False
35916,6048, Note_on_c,68,76,3,3,1,79.0,False
35917,6048, Note_on_c,75,76,3,3,1,87.0,False
35918,6049, Note_on_c,70,76,3,3,1,81.0,False
35919,6050, Note_on_c,77,76,3,3,1,90.0,True
35920,6050, Note_on_c,82,76,3,3,1,95.0,False
35921,6051, Note_on_c,68,76,3,3,1,79.0,False
35922,6051, Note_on_c,75,76,3,3,1,87.0,False
35923,6052, Note_on_c,77,76,3,3,1,90.0,True
35924,6052, Note_on_c,82,76,3,3,1,95.0,False
35925,6053, Note_on_c,68,76,3,3,1,79.0,False
35926,6053, Note_on_c,73,76,3,3,1,85.0,False
35927,6054, Note_on_c,70,76,3,3,1,81.0,False
35928,6055, Note_on_c,77,76,3,3,1,90.0,True
35929,6055, Note_on_c,82,76,3,3,1,95.0,False
35930,6056, Note_on_c,68,76,3,3,1,79.0,False
35931,6056, Note_on_c,75,76,3,3,1,87.0,False
35932,6057, Note_on_c,70,76,3,3,1,81.0,False
35933,6058, Note_on_c,77,76,3,3,1,90.0,True
35934,6058, Note_on_c,82,76,3,3,1,95.0,False
35935,6059, Note_on_c,68,76,3,3,1,79.0,False
35936,6059, Note_on_c,75,76,3,3,1,87.0,False
35937,6060, Note_on_c,77,76,3,3,1,90.0,True
35938,6060, Note_on_c,82,76,3,3,1,95.0,False
35939,6061, Note_on_c,68,76,3,3,1,79.0,False
35940,6061, Note_on_c,73,76,3,3,1,85.0,False
35941,6062, Note_on_c,70,76,3,3,1,81.0,False
35942,6063, Note_on_c,77,76,3,3,1,90.0,True
35943,6063, Note_on_c,82,76,3,3,1,95.0,False
35944,6064, Note_on_c,68,76,3,3,1,79.0,False
35945,6064, Note_on_c,75,76,3,3,1,87.0,False
35946,6065, Note_on_c,70,76,3,3,1,81.0,False
35947,6066, Note_on_c,77,76,3,3,1,90.0,True
35948,6066, Note_on_c,82,76,3,3,1,95.0,False
35949,6067, Note_on_c,68,76,3,3,1,79.0,False
35950,6067, Note_on_c,75,76,3,3,1,87.0,False
35951,6068, Note_on_c,77,76,3,3,1,90.0,True
35952,6068, Note_on_c,82,76,3,3,1,95.0,False
35953,6069, Note_on_c,68,76,3,3,1,79.0,False
35954,6069, Note_on_c,73,76,3,3,1,85.0,False
35955,6070, Note_on_c,70,76,3,3,1,81.0,False
35956,6071, Note_on_c,77,76,3,3,1,90.0,True
35957,6071, Note_on_c,82,76,3,3,1,95.0,False
35958,6072, Note_on_c,68,76,3,3,1,79.0,False
35959,6072, Note_on_c,75,76,3,3,1,87.0,False
35960,6073, Note_on_c,70,76,3,3,1,81.0,False
35961,6074, Note_on_c,77,76,3,3,1,90.0,True
35962,6074, Note_on_c,82,76,3,3,1,95.0,False
35963,6075, Note_on_c,68,76,3,3,1,79.0,False
35964,6075, Note_on_c,75,76,3,3,1,87.0,False
35965,6076, Note_on_c,77,76,3,3,1,90.0,True
35966,6076, Note_on_c,82,76,3,3,1,95.0,False
35967,6077, Note_on_c,68,76,3,3,1,79.0,False
35968,6077, Note_on_c,73,76,3,3,1,85.0,False
35969,6078, Note_on_c,70,76,3,3,1,81.0,False
35970,6079, Note_on_c,77,76,3,3,1,90.0,True
35971,6079, Note_on_c,82,76,3,3,1,95.0,False
35972,6080, Note_on_c,68,76,3,3,1,79.0,False
35973,6080, Note_on_c,75,76,3,3,1,87.0,False
35974,6081, Note_on_c,70,76,3,3,1,81.0,False
35975,6082, Note_on_c,77,76,3,3,1,90.0,True
35976,6082, Note_on_c,82,76,3,3,1,95.0,False
35977,6083, Note_on_c,68,76,3,3,1,79.0,False
35978,6083, Note_on_c,75,76,3,3,1,87.0,False
35979,6084, Note_on_c,77,76,3,3,1,90.0,True
35980,6084, Note_on_c,82,76,3,3,1,95.0,False
35981,6085, Note_on_c,68,76,3,3,1,79.0,False
35982,6085, Note_on_c,73,76,3,3,1,85.0,False
35983,6086, Note_on_c,70,76,3,3,1,81.0,False
35984,6087, Note_on_c,77,76,3,3,1,90.0,True
35985,6087, Note_on_c,82,76,3,3,1,95.0,False
35986,6088, Note_on_c,68,76,3,3,1,79.0,False
35987,6088, Note_on_c,75,76,3,3,1,87.0,False
35988,6089, Note_on_c,70,76,3,3,1,81.0,False
35989,6090, Note_on_c,77,76,3,3,1,90.0,True
35990,6090, Note_on_c,82,76,3,3,1,95.0,False
35991,6091, Note_on_c,68,76,3,3,1,79.0,False
35992,6091, Note_on_c,75,76,3,3,1,87.0,False
35993,6092, Note_on_c,77,76,3,3,1,90.0,True
35994,6092, Note_on_c,82,76,3,3,1,95.0,False
35995,6093, Note_on_c,68,76,3,3,1,79.0,False
35996,6093, Note_on_c,73,76,3,3,1,85.0,False
35997,6094, Note_on_c,70,76,3,3,1,81.0,False
35998,6095, Note_on_c,77,76,3,3,1,90.0,True
35999,6095, Note_on_c,82,76,3,3,1,95.0,False
36000,6096, Note_on_c,68,76,3,3,1,79.0,False
36001,6096, Note_on_c,75,76,3,3,1,87.0,False
36002,6097, Note_on_c,70,76,3,3,1,81.0,False
36003,6098, Note_on_c,77,76,3,3,1,90.0,True
36004,6098, Note_on_c,82,76,3,3,1,95.0,False
36005,6099, Note_on_c,68,76,3,3,1,79.0,False
36006,6099, Note_on_c,75,76,3,3,1,87.0,False
36007,6100, Note_on_c,77,76,3,3,1,90.0,True
36008,6100, Note_on_c,82,76,3,3,1,95.0,False
36009,6101, Note_on_c,68,76,3,3,1,79.0,False
36010,6101, Note_on_c,73,76,3,3,1,85.0,False
36011,6102, Note_on_c,70,76,3,3,1,81.0,False
36012,6103, Note_on_c,77,76,3,3,1,90.0,True
36013,6103, Note_on_c,82,76,3,3,1,95.0,False
36014,6104, Note_on_c,68,76,3,3,1,79.0,False
36015,6104, Note_on_c,75,76,3,3,1,87.0,False
36016,6105, Note_on_c,70,76,3,3,1,81.0,False
36017,6106, Note_on_c,77,76,3,3,1,90.0,True
36018,6106, Note_on_c,82,76,3,3,1,95.0,False
36019,6107, Note_on_c,68,76,3,3,1,79.0,False
36020,6107, Note_on_c,75,76,3,3,1,87.0,False
36021,6108, Note_on_c,77,76,3,3,1,90.0,True
36022,6108, Note_on_c,82,76,3,3,1,95.0,False
36023,6109, Note_on_c,68,76,3,3,1,79.0,False
36024,6109, Note_on_c,73,76,3,3,1,85.0,False
36025,6110, Note_on_c,70,76,3,3,1,81.0,False
36026,6111, Note_on_c,77,76,3,3,1,90.0,True
36027,6111, Note_on_c,82,76,3,3,1,95.0,False
36028,6112, Note_on_c,68,76,3,3,1,79.0,False
36029,6112, Note_on_c,75,76,3,3,1,87.0,False
36030,6113, Note_on_c,70,76,3,3,1,81.0,False
36031,6114, Note_on_c,77,76,3,3,1,90.0,True
36032,6114, Note_on_c,82,76,3,3,1,95.0,False
36033,6115, Note_on_c,68,76,3,3,1,79.0,False
36034,6115, Note_on_c,75,76,3,3,1,87.0,False
36035,6116, Note_on_c,77,76,3,3,1,90.0,True
36036,6116, Note_on_c,82,76,3,3,1,95.0,False
36037,6117, Note_on_c,68,76,3,3,1,79.0,False
36038,6117, Note_on_c,73,76,3,3,1,85.0,False
36039,6118, Note_on_c,70,76,3,3,1,81.0,False
36040,6119, Note_on_c,77,76,3,3,1,90.0,True
36041,6119, Note_on_c,82,76,3,3,1,95.0,False
36042,6120, Note_on_c,68,76,3,3,1,79.0,False
36043,6120, Note_on_c,75,76,3,3,1,87.0,False
36044,6121, Note_on_c,70,76,3,3,1,81.0,False
36045,6122, Note_on_c,77,76,3,3,1,90.0,True
36046,6122, Note_on_c,82,76,3,3,1,95.0,False
36047,6123, Note_on_c,68,76,3,3,1,79.0,False
36048,6123, Note_on_c,75,76,3,3,1,87.0,False
36049,6124, Note_on_c,77,76,3,3,1,90.0,True
36050,6124, Note_on_c,82,76,3,3,1,95.0,False
36051,6125, Note_on_c,68,76,3,3,1,79.0,False
36052,6125, Note_on_c,73,76,3,3,1,85.0,False
36053,6126, Note_on_c,70,76,3,3,1,81.0,False
36054,6127, Note_on_c,77,76,3,3,1,90.0,True
36055,6127, Note_on_c,82,76,3,3,1,95.0,False
36056,6128, Note_on_c,68,76,3,3,1,79.0,False
36057,6128, Note_on_c,75,76,3,3,1,87.0,False
36058,6129, Note_on_c,70,76,3,3,1,81.0,False
36059,6130, Note_on_c,77,76,3,3,1,90.0,True
36060,6130, Note_on_c,82,76,3,3,1,95.0,False
36061,6131, Note_on_c,68,76,3,3,1,79.0,False
36062,6131, Note_on_c,75,76,3,3,1,87.0,False
36063,6132, Note_on_c,77,76,3,3,1,90.0,True
36064,6132, Note_on_c,82,76,3,3,1,95.0,False
36065,6133, Note_on_c,68,76,3,3,1,79.0,False
36066,6133, Note_on_c,73,76,3,3,1,85.0,False
36067,6134, Note_on_c,70,76,3,3,1,81.0,False
36068,6135, Note_on_c,77,76,3,3,1,90.0,True
36069,6135, Note_on_c,82,76,3,3,1,95.0,False
36070,6136, Note_on_c,68,76,3,3,1,79.0,False
36071,6136, Note_on_c,75,76,3,3,1,87.0,False
36072,6137, Note_on_c,70,76,3,3,1,81.0,False
36073,6138, Note_on_c,77,76,3,3,1,90.0,True
36074,6138, Note_on_c,82,76,3,3,1,95.0,False
36075,6139, Note_on_c,68,76,3,3,1,79.0,False
36076,6139, Note_on_c,75,76,3,3,1,87.0,False
36077,6140, Note_on_c,77,76,3,3,1,90.0,True
36078,6140, Note_on_c,82,76,3,3,1,95.0,False
36079,6141, Note_on_c,68,76,3,3,1,79.0,False
36080,6141, Note_on_c,73,76,3,3,1,85.0,False
36081,6142, Note_on_c,70,76,3,3,1,81.0,False
36082,6143, Note_on_c,77,76,3,3,1,90.0,True
36083,6143, Note_on_c,82,76,3,3,1,95.0,False
36084,6144, Note_on_c,68,76,3,3,1,79.0,False
36085,6144, Note_on_c,75,76,3,3,1,87.0,False
36086,6145, Note_on_c,70,76,3,3,1,81.0,False
36087,6146, Note_on_c,77,76,3,3,1,90.0,True
36088,6146, Note_on_c,82,76,3,3,1,95.0,False
36089,6147, Note_on_c,68,76,3,3,1,79.0,False
36090,6147, Note_on_c,75,76,3,3,1,87.0,False
36091,6148, Note_on_c,77,76,3,3,1,90.0,True
36092,6148, Note_on_c,82,76,3,3,1,95.0,False
36093,6149, Note_on_c,68,76,3,3,1,79.0,False
36094,6149, Note_on_c,73,76,3,3,1,85.0,False
36095,6150, Note_on_c,70,76,3,3,1,81.0,False
36096,6151, Note_on_c,77,76,3,3,1,90.0,True
36097,6151, Note_on_c,82,76,3,3,1,95.0,False
36098,6152, Note_on_c,68,76,3,3,1,79.0,False
36099,6152, Note_on_c,75,76,3,3,1,87.0,False
36100,6153, Note_on_c,70,76,3,3,1,81.0,False
36101,6154, Note_on_c,77,76,3,3,1,90.0,True
36102,6154, Note_on_c,82,76,3,3,1,95.0,False
36103,6155, Note_on_c,68,76,3,3,1,79.0,False
36104,6155, Note_on_c,75,76,3,3,1,87.0,False
36105,6156, Note_on_c,77,76,3,3,1,90.0,True
36106,6156, Note_on_c,82,76,3,3,1,95.0,False
36107,6157, Note_on_c,68,76,3,3,1,79.0,False
36108,6157, Note_on_c,73,76,3,3,1,85.0,False
36109,6158, Note_on_c,70,76,3,3,1,81.0,False
36110,6159, Note_on_c,77,76,3,3,1,90.0,True
36111,6159, Note_on_c,82,76,3,3,1,95.0,False
36112,6160, Note_on_c,68,76,3,3,1,79.0,False
36113,6160, Note_on_c,75,76,3,3,1,87.0,False
36114,6161, Note_on_c,70,76,3,3,1,81.0,False
36115,6162, Note_on_c,77,76,3,3,1,90.0,True
36116,6162, Note_on_c,82,76,3,3,1,95.0,False
36117,6163, Note_on_c,68,76,3,3,1,79.0,False
36118,6163, Note_on_c,75,76,3,3,1,87.0,False
36119,6164, Note_on_c,77,76,3,3,1,90.0,True
36120,6164, Note_on_c,82,76,3,3,1,95.0,False
36121,6165, Note_on_c,68,76,3,3,1,79.0,False
36122,6165, Note_on_c,73,76,3,3,1,85.0,False
36123,6166, Note_on_c,70,76,3,3,1,81.0,False
36124,6167, Note_on_c,77,76,3,3,1,90.0,True
36125,6167, Note_on_c,82,76,3,3,1,95.0,False
36126,6168, Note_on_c,68,76,3,3,1,79.0,False
36127,6168, Note_on_c,75,76,3,3,1,87.0,False
36128,6169, Note_on_c,70,76,3,3,1,81.0,False
36129,6170, Note_on_c,77,76,3,3,1,90.0,True
36130,6170, Note_on_c,82,76,3,3,1,95.0,False
36131,6171, Note_on_c,68,76,3,3,1,79.0,False
36132,6171, Note_on_c,75,76,3,3,1,87.0,False
36133,6172, Note_on_c,77,76,3,3,1,90.0,True
36134,6172, Note_on_c,82,76,3,3,1,95.0,False
36135,6173, Note_on_c,68,76,3,3,1,79.0,False
36136,6173, Note_on_c,73,76,3,3,1,85.0,False
36137,6174, Note_on_c,70,76,3,3,1,81.0,False
36138,6175, Note_on_c,77,76,3,3,1,90.0,True
36139,6175, Note_on_c,82,76,3,3,1,95.0,False
36140,6176, Note_on_c,68,76,3,3,1,79.0,False
36141,6176, Note_on_c,75,76,3,3,1,87.0,False
36142,6177, Note_on_c,70,76,3,3,1,81.0,False
36143,6178, Note_on_c,77,76,3,3,1,90.0,True
36144,6178, Note_on_c,82,76,3,3,1,95.0,False
36145,6179, Note_on_c,68,76,3,3,1,79.0,False
36146,6179, Note_on_c,75,76,3,3,1,87.0,False
36147,6180, Note_on_c,77,76,3,3,1,90.0,True
36148,6180, Note_on_c,82,76,3,3,1,95.0,False
36149,6181, Note_on_c,68,76,3,3,1,79.0,False
36150,6181, Note_on_c,73,76,3,3,1,85.0,False
36151,6182, Note_on_c,70,76,3,3,1,81.0,False
36152,6183, Note_on_c,77,76,3,3,1,90.0,True
36153,6183, Note_on_c,82,76,3,3,1,95.0,False
36154,6184, Note_on_c,68,76,3,3,1,79.0,False
36155,6184, Note_on_c,75,76,3,3,1,87.0,False
36156,6185, Note_on_c,70,76,3,3,1,81.0,False
36157,6186, Note_on_c,77,76,3,3,1,90.0,True
36158,6186, Note_on_c,82,76,3,3,1,95.0,False
36159,6187, Note_on_c,68,76,3,3,1,79.0,False
36160,6187, Note_on_c,75,76,3,3,1,87.0,False
36161,6188, Note_on_c,77,76,3,3,1,90.0,True
36162,6188, Note_on_c,82,76,3,3,1,95.0,False
36163,6189, Note_on_c,68,76,3,3,1,79.0,False
36164,6189, Note_on_c,73,76,3,3,1,85.0,False
36165,6190, Note_on_c,70,76,3,3,1,81.0,False
36166,6191, Note_on_c,77,76,3,3,1,90.0,True
36167,6191, Note_on_c,82,76,3,3,1,95.0,False
36168,6192, Note_on_c,68,76,3,3,1,79.0,False
36169,6192, Note_on_c,75,76,3,3,1,87.0,False
36170,6193, Note_on_c,70,76,3,3,1,81.0,False
36171,6194, Note_on_c,77,76,3,3,1,90.0,True
36172,6194, Note_on_c,82,76,3,3,1,95.0,False
36173,6195, Note_on_c,68,76,3,3,1,79.0,False
36174,6195, Note_on_c,75,76,3,3,1,87.0,False
36175,6196, Note_on_c,77,76,3,3,1,90.0,True
36176,6196, Note_on_c,82,76,3,3,1,95.0,False
36177,6197, Note_on_c,68,76,3,3,1,79.0,False
36178,6197, Note_on_c,73,76,3,3,1,85.0,False
36179,6198, Note_on_c,70,76,3,3,1,81.0,False
36180,6199, Note_on_c,77,76,3,3,1,90.0,True
36181,6199, Note_on_c,82,76,3,3,1,95.0,False
36182,6200, Note_on_c,68,76,3,3,1,79.0,False
36183,6200, Note_on_c,75,76,3,3,1,87.0,False
36184,6201, Note_on_c,70,76,3,3,1,81.0,False
36185,6202, Note_on_c,77,76,3,3,1,90.0,True
36186,6202, Note_on_c,82,76,3,3,1,95.0,False
36187,6203, Note_on_c,68,76,3,3,1,79.0,False
36188,6203, Note_on_c,75,76,3,3,1,87.0,False
36189,6204, Note_on_c,77,76,3,3,1,90.0,True
36190,6204, Note_on_c,82,76,3,3,1,95.0,False
36191,6205, Note_on_c,68,76,3,3,1,79.0,False
36192,6205, Note_on_c,73,76,3,3,1,85.0,False
36193,6206, Note_on_c,70,76,3,3,1,81.0,False
36194,6207, Note_on_c,77,76,3,3,1,90.0,True
36195,6207, Note_on_c,82,76,3,3,1,95.0,False
36196,6208, Note_on_c,68,76,3,3,1,79.0,False
36197,6208, Note_on_c,75,76,3,3,1,87.0,False
36198,6209, Note_on_c,70,76,3,3,1,81.0,False
36199,6210, Note_on_c,77,76,3,3,1,90.0,True
36200,6210, Note_on_c,82,76,3,3,1,95.0,False
36201,6211, Note_on_c,68,76,3,3,1,79.0,False
36202,6211, Note_on_c,75,76,3,3,1,87.0,False
36203,6212, Note_on_c,77,76,3,3,1,90.0,True
36204,6212, Note_on_c,82,76,3,3,1,95.0,False
36205,6213, Note_on_c,68,76,3,3,1,79.0,False
36206,6213, Note_on_c,73,76,3,3,1,85.0,False
36207,6214, Note_on_c,70,76,3,3,1,81.0,False
36208,6215, Note_on_c,77,76,3,3,1,90.0,True
36209,6215, Note_on_c,82,76,3,3,1,95.0,False
36210,6216, Note_on_c,68,76,3,3,1,79.0,False
36211,6216, Note_on_c,75,76,3,3,1,87.0,False
36212,6217, Note_on_c,70,76,3,3,1,81.0,False
36213,6218, Note_on_c,77,76,3,3,1,90.0,True
36214,6218, Note_on_c,82,76,3,3,1,95.0,False
36215,6219, Note_on_c,68,76,3,3,1,79.0,False
36216,6219, Note_on_c,75,76,3,3,1,87.0,False
36217,6220, Note_on_c,77,76,3,3,1,90.0,True
36218,6220, Note_on_c,82,76,3,3,1,95.0,False
36219,6221, Note_on_c,68,76,3,3,1,79.0,False
36220,6221, Note_on_c,73,76,3,3,1,85.0,False
36221,6222, Note_on_c,70,76,3,3,1,81.0,False
36222,6223, Note_on_c,77,76,3,3,1,90.0,True
36223,6223, Note_on_c,82,76,3,3,1,95.0,False
36224,6224, Note_on_c,68,76,3,3,1,79.0,False
36225,6224, Note_on_c,75,76,3,3,1,87.0,False
36226,6225, Note_on_c,70,76,3,3,1,81.0,False
36227,6226, Note_on_c,77,76,3,3,1,90.0,True
36228,6226, Note_on_c,82,76,3,3,1,95.0,False
36229,6227, Note_on_c,68,76,3,3,1,79.0,False
36230,6227, Note_on_c,75,76,3,3,1,87.0,False
36231,6228, Note_on_c,77,76,3,3,1,90.0,True
36232,6228, Note_on_c,82,76,3,3,1,95.0,False
36233,6229, Note_on_c,68,76,3,3,1,79.0,False
36234,6229, Note_on_c,73,76,3,3,1,85.0,False
36235,6230, Note_on_c,70,76,3,3,1,81.0,False
36236,6231, Note_on_c,77,76,3,3,1,90.0,True
36237,6231, Note_on_c,82,76,3,3,1,95.0,False
36238,6232, Note_on_c,68,76,3,3,1,79.0,False
36239,6232, Note_on_c,75,76,3,3,1,87.0,False
36240,6233, Note_on_c,70,76,3,3,1,81.0,False
36241,6234, Note_on_c,77,76,3,3,1,90.0,True
36242,6234, Note_on_c,82,76,3,3,1,95.0,False
36243,6235, Note_on_c,68,76,3,3,1,79.0,False
36244,6235, Note_on_c,75,76,3,3,1,87.0,False
36245,6236, Note_on_c,77,76,3,3,1,90.0,True
36246,6236, Note_on_c,82,76,3,3,1,95.0,False
36247,6237, Note_on_c,68,76,3,3,1,79.0,False
36248,6237, Note_on_c,73,76,3,3,1,85.0,False
36249,6238, Note_on_c,70,76,3,3,1,81.0,False
36250,6239, Note_on_c,77,76,3,3,1,90.0,True
36251,6239, Note_on_c,82,76,3,3,1,95.0,False
36252,6240, Note_on_c,68,76,3,3,1,79.0,False
36253,6240, Note_on_c,75,76,3,3,1,87.0,False
36254,6241, Note_on_c,70,76,3,3,1,81.0,False
36255,6242, Note_on_c,77,76,3,3,1,90.0,True
36256,6242, Note_on_c,82,76,3,3,1,95.0,False
36257,6243, Note_on_c,68,76,3,3,1,79.0,False
36258,6243, Note_on_c,75,76,3,3,1,87.0,False
36259,6244, Note_on_c,77,76,3,3,1,90.0,True
36260,6244, Note_on_c,82,76,3,3,1,95.0,False
36261,6245, Note_on_c,68,76,3,3,1,79.0,False
36262,6245, Note_on_c,73,76,3,3,1,85.0,False
36263,6246, Note_on_c,70,76,3,3,1,81.0,False
36264,6247, Note_on_c,77,76,3,3,1,90.0,True
36265,6247, Note_on_c,82,76,3,3,1,95.0,False
36266,6248, Note_on_c,68,76,3,3,1,79.0,False
36267,6248, Note_on_c,75,76,3,3,1,87.0,False
36268,6249, Note_on_c,70,76,3,3,1,81.0,False
36269,6250, Note_on_c,77,76,3,3,1,90.0,True
36270,6250, Note_on_c,82,76,3,3,1,95.0,False
36271,6251, Note_on_c,68,76,3,3,1,79.0,False
36272,6251, Note_on_c,75,76,3,3,1,87.0,False
36273,6252, Note_on_c,77,76,3,3,1,90.0,True
36274,6252, Note_on_c,82,76,3,3,1,95.0,False
36275,6253, Note_on_c,68,76,3,3,1,79.0,False
36276,6253, Note_on_c,73,76,3,3,1,85.0,False
36277,6254, Note_on_c,70,76,3,3,1,81.0,False
36278,6255, Note_on_c,77,76,3,3,1,90.0,True
36279,6255, Note_on_c,82,76,3,3,1,95.0,False
36280,6256, Note_on_c,68,76,3,3,1,79.0,False
36281,6256, Note_on_c,75,76,3,3,1,87.0,False
36282,6257, Note_on_c,70,76,3,3,1,81.0,False
36283,6258, Note_on_c,77,76,3,3,1,90.0,True
36284,6258, Note_on_c,82,76,3,3,1,95.0,False
36285,6259, Note_on_c,68,76,3,3,1,79.0,False
36286,6259, Note_on_c,75,76,3,3,1,87.0,False
36287,6260, Note_on_c,77,76,3,3,1,90.0,True
36288,6260, Note_on_c,82,76,3,3,1,95.0,False
36289,6261, Note_on_c,68,76,3,3,1,79.0,False
36290,6261, Note_on_c,73,76,3,3,1,85.0,False
36291,6262, Note_on_c,70,76,3,3,1,81.0,False
36292,6263, Note_on_c,77,76,3,3,1,90.0,True
36293,6263, Note_on_c,82,76,3,3,1,95.0,False
36294,6264, Note_on_c,68,76,3,3,1,79.0,False
36295,6264, Note_on_c,75,76,3,3,1,87.0,False
36296,6265, Note_on_c,70,76,3,3,1,81.0,False
36297,6266, Note_on_c,77,76,3,3,1,90.0,True
36298,6266, Note_on_c,82,76,3,3,1,95.0,False
36299,6267, Note_on_c,68,76,3,3,1,79.0,False
36300,6267, Note_on_c,75,76,3,3,1,87.0,False
36301,6268, Note_on_c,77,76,3,3,1,90.0,True
36302,6268, Note_on_c,82,76,3,3,1,95.0,False
36303,6269, Note_on_c,68,76,3,3,1,79.0,False
36304,6269, Note_on_c,73,76,3,3,1,85.0,False
36305,6270, Note_on_c,70,76,3,3,1,81.0,False
36306,6271, Note_on_c,77,76,3,3,1,90.0,True
36307,6271, Note_on_c,82,76,3,3,1,95.0,False
36308,6272, Note_on_c,68,76,3,3,1,79.0,False
36309,6272, Note_on_c,75,76,3,3,1,87.0,False
36310,6273, Note_on_c,70,76,3,3,1,81.0,False
36311,6274, Note_on_c,77,76,3,3,1,90.0,True
36312,6274, Note_on_c,82,76,3,3,1,95.0,False
36313,6275, Note_on_c,68,76,3,3,1,79.0,False
36314,6275, Note_on_c,75,76,3,3,1,87.0,False
36315,6276, Note_on_c,77,76,3,3,1,90.0,True
36316,6276, Note_on_c,82,76,3,3,1,95.0,False
36317,6277, Note_on_c,68,76,3,3,1,79.0,False
36318,6277, Note_on_c,73,76,3,3,1,85.0,False
36319,6278, Note_on_c,70,76,3,3,1,81.0,False
36320,6279, Note_on_c,77,76,3,3,1,90.0,True
36321,6279, Note_on_c,82,76,3,3,1,95.0,False
36322,6280, Note_on_c,68,76,3,3,1,79.0,False
36323,6280, Note_on_c,75,76,3,3,1,87.0,False
36324,6281, Note_on_c,70,76,3,3,1,81.0,False
36325,6282, Note_on_c,77,76,3,3,1,90.0,True
36326,6282, Note_on_c,82,76,3,3,1,95.0,False
36327,6283, Note_on_c,68,76,3,3,1,79.0,False
36328,6283, Note_on_c,75,76,3,3,1,87.0,False
36329,6284, Note_on_c,77,76,3,3,1,90.0,True
36330,6284, Note_on_c,82,76,3,3,1,95.0,False
36331,6285, Note_on_c,68,76,3,3,1,79.0,False
36332,6285, Note_on_c,73,76,3,3,1,85.0,False
36333,6286, Note_on_c,70,76,3,3,1,81.0,False
36334,6287, Note_on_c,77,76,3,3,1,90.0,True
36335,6287, Note_on_c,82,76,3,3,1,95.0,False
36336,6288, Note_on_c,68,76,3,3,1,79.0,False
36337,6288, Note_on_c,75,76,3,3,1,87.0,False
36338,6289, Note_on_c,70,76,3,3,1,81.0,False
36339,6290, Note_on_c,77,76,3,3,1,90.0,True
36340,6290, Note_on_c,82,76,3,3,1,95.0,False
36341,6291, Note_on_c,68,76,3,3,1,79.0,False
36342,6291, Note_on_c,75,76,3,3,1,87.0,False
36343,6292, Note_on_c,77,76,3,3,1,90.0,True
36344,6292, Note_on_c,82,76,3,3,1,95.0,False
36345,6293, Note_on_c,68,76,3,3,1,79.0,False
36346,6293, Note_on_c,73,76,3,3,1,85.0,False
36347,6294, Note_on_c,70,76,3,3,1,81.0,False
36348,6295, Note_on_c,77,76,3,3,1,90.0,True
36349,6295, Note_on_c,82,76,3,3,1,95.0,False
36350,6296, Note_on_c,68,76,3,3,1,79.0,False
36351,6296, Note_on_c,75,76,3,3,1,87.0,False
36352,6297, Note_on_c,70,76,3,3,1,81.0,False
36353,6298, Note_on_c,77,76,3,3,1,90.0,True
36354,6298, Note_on_c,82,76,3,3,1,95.0,False
36355,6299, Note_on_c,68,76,3,3,1,79.0,False
36356,6299, Note_on_c,75,76,3,3,1,87.0,False
36357,6300, Note_on_c,77,76,3,3,1,90.0,True
36358,6300, Note_on_c,82,76,3,3,1,95.0,False
36359,6301, Note_on_c,68,76,3,3,1,79.0,False
36360,6301, Note_on_c,73,76,3,3,1,85.0,False
36361,6302, Note_on_c,70,76,3,3,1,81.0,False
36362,6303, Note_on_c,77,76,3,3,1,90.0,True
36363,6303, Note_on_c,82,76,3,3,1,95.0,False
36364,6304, Note_on_c,68,76,3,3,1,79.0,False
36365,6304, Note_on_c,75,76,3,3,1,87.0,False
36366,6305, Note_on_c,70,76,3,3,1,81.0,False
36367,6306, Note_on_c,77,76,3,3,1,90.0,True
36368,6306, Note_on_c,82,76,3,3,1,95.0,False
36369,6307, Note_on_c,68,76,3,3,1,79.0,False
36370,6307, Note_on_c,75,76,3,3,1,87.0,False
36371,6308, Note_on_c,77,76,3,3,1,90.0,True
36372,6308, Note_on_c,82,76,3,3,1,95.0,False
36373,6309, Note_on_c,68,76,3,3,1,79.0,False
36374,6309, Note_on_c,73,76,3,3,1,85.0,False
36375,6310, Note_on_c,70,76,3,3,1,81.0,False
36376,6311, Note_on_c,77,76,3,3,1,90.0,True
36377,6311, Note_on_c,82,76,3,3,1,95.0,False
36378,6312, Note_on_c,68,76,3,3,1,79.0,False
36379,6312, Note_on_c,75,76,3,3,1,87.0,False
36380,6313, Note_on_c,70,76,3,3,1,81.0,False
36381,6314, Note_on_c,77,76,3,3,1,90.0,True
36382,6314, Note_on_c,82,76,3,3,1,95.0,False
36383,6315, Note_on_c,68,76,3,3,1,79.0,False
36384,6315, Note_on_c,75,76,3,3,1,87.0,False
36385,6316, Note_on_c,77,76,3,3,1,90.0,True
36386,6316, Note_on_c,82,76,3,3,1,95.0,False
36387,6317, Note_on_c,68,76,3,3,1,79.0,False
36388,6317, Note_on_c,73,76,3,3,1,85.0,False
36389,6318, Note_on_c,70,76,3,3,1,81.0,False
36390,6319, Note_on_c,77,76,3,3,1,90.0,True
36391,6319, Note_on_c,82,76,3,3,1,95.0,False
36392,6320, Note_on_c,68,76,3,3,1,79.0,False
36393,6320, Note_on_c,75,76,3,3,1,87.0,False
36394,6321, Note_on_c,70,76,3,3,1,81.0,False
36395,6322, Note_on_c,77,76,3,3,1,90.0,True
36396,6322, Note_on_c,82,76,3,3,1,95.0,False
36397,6323, Note_on_c,68,76,3,3,1,79.0,False
36398,6323, Note_on_c,75,76,3,3,1,87.0,False
36399,6324, Note_on_c,77,76,3,3,1,90.0,True
36400,6324, Note_on_c,82,76,3,3,1,95.0,False
36401,6325, Note_on_c,68,76,3,3,1,79.0,False
36402,6325, Note_on_c,73,76,3,3,1,85.0,False
36403,6326, Note_on_c,70,76,3,3,1,81.0,False
36404,6327, Note_on_c,77,76,3,3,1,90.0,True
36405,6327, Note_on_c,82,76,3,3,1,95.0,False
36406,6328, Note_on_c,68,76,3,3,1,79.0,False
36407,6328, Note_on_c,75,76,3,3,1,87.0,False
36408,6329, Note_on_c,70,76,3,3,1,81.0,False
36409,6330, Note_on_c,77,76,3,3,1,90.0,True
36410,6330, Note_on_c,82,76,3,3,1,95.0,False
36411,6331, Note_on_c,68,76,3,3,1,79.0,False
36412,6331, Note_on_c,75,76,3,3,1,87.0,False
36413,6332, Note_on_c,77,76,3,3,1,90.0,True
36414,6332, Note_on_c,82,76,3,3,1,95.0,False
36415,6333, Note_on_c,68,76,3,3,1,79.0,False
36416,6333, Note_on_c,73,76,3,3,1,85.0,False
36417,6334, Note_on_c,70,76,3,3,1,81.0,False
36418,6335, Note_on_c,77,76,3,3,1,90.0,True
36419,6335, Note_on_c,82,76,3,3,1,95.0,False
36420,6336, Note_on_c,68,76,3,3,1,79.0,False
36421,6336, Note_on_c,75,76,3,3,1,87.0,False
36422,6337, Note_on_c,70,76,3,3,1,81.0,False
36423,6338, Note_on_c,77,76,3,3,1,90.0,True
36424,6338, Note_on_c,82,76,3,3,1,95.0,False
36425,6339, Note_on_c,68,76,3,3,1,79.0,False
36426,6339, Note_on_c,75,76,3,3,1,87.0,False
36427,6340, Note_on_c,77,76,3,3,1,90.0,True
36428,6340, Note_on_c,82,76,3,3,1,95.0,False
36429,6341, Note_on_c,68,76,3,3,1,79.0,False
36430,6341, Note_on_c,73,76,3,3,1,85.0,False
36431,6342, Note_on_c,70,76,3,3,1,81.0,False
36432,6343, Note_on_c,77,76,3,3,1,90.0,True
36433,6343, Note_on_c,82,76,3,3,1,95.0,False
36434,6344, Note_on_c,68,76,3,3,1,79.0,False
36435,6344, Note_on_c,75,76,3,3,1,87.0,False
36436,6345, Note_on_c,70,76,3,3,1,81.0,False
36437,6346, Note_on_c,77,76,3,3,1,90.0,True
36438,6346, Note_on_c,82,76,3,3,1,95.0,False
36439,6347, Note_on_c,68,76,3,3,1,79.0,False
36440,6347, Note_on_c,75,76,3,3,1,87.0,False
36441,6348, Note_on_c,77,76,3,3,1,90.0,True
36442,6348, Note_on_c,82,76,3,3,1,95.0,False
36443,6349, Note_on_c,68,76,3,3,1,79.0,False
36444,6349, Note_on_c,73,76,3,3,1,85.0,False
36445,6350, Note_on_c,70,76,3,3,1,81.0,False
36446,6351, Note_on_c,77,76,3,3,1,90.0,True
36447,6351, Note_on_c,82,76,3,3,1,95.0,False
36448,6352, Note_on_c,68,76,3,3,1,79.0,False
36449,6352, Note_on_c,75,76,3,3,1,87.0,False
36450,6353, Note_on_c,70,76,3,3,1,81.0,False
36451,6354, Note_on_c,77,76,3,3,1,90.0,True
36452,6354, Note_on_c,82,76,3,3,1,95.0,False
36453,6355, Note_on_c,68,76,3,3,1,79.0,False
36454,6355, Note_on_c,75,76,3,3,1,87.0,False
36455,6356, Note_on_c,77,76,3,3,1,90.0,True
36456,6356, Note_on_c,82,76,3,3,1,95.0,False
36457,6357, Note_on_c,68,76,3,3,1,79.0,False
36458,6357, Note_on_c,73,76,3,3,1,85.0,False
36459,6358, Note_on_c,70,76,3,3,1,81.0,False
36460,6359, Note_on_c,77,76,3,3,1,90.0,True
36461,6359, Note_on_c,82,76,3,3,1,95.0,False
36462,6360, Note_on_c,68,76,3,3,1,79.0,False
36463,6360, Note_on_c,75,76,3,3,1,87.0,False
36464,6361, Note_on_c,70,76,3,3,1,81.0,False
36465,6362, Note_on_c,77,76,3,3,1,90.0,True
36466,6362, Note_on_c,82,76,3,3,1,95.0,False
36467,6363, Note_on_c,68,76,3,3,1,79.0,False
36468,6363, Note_on_c,75,76,3,3,1,87.0,False
36469,6364, Note_on_c,77,76,3,3,1,90.0,True
36470,6364, Note_on_c,82,76,3,3,1,95.0,False
36471,6365, Note_on_c,68,76,3,3,1,79.0,False
36472,6365, Note_on_c,73,76,3,3,1,85.0,False
36473,6366, Note_on_c,70,76,3,3,1,81.0,False
36474,6367, Note_on_c,77,76,3,3,1,90.0,True
36475,6367, Note_on_c,82,76,3,3,1,95.0,False
36476,6368, Note_on_c,68,76,3,3,1,79.0,False
36477,6368, Note_on_c,75,76,3,3,1,87.0,False
36478,6369, Note_on_c,70,76,3,3,1,81.0,False
36479,6370, Note_on_c,77,76,3,3,1,90.0,True
36480,6370, Note_on_c,82,76,3,3,1,95.0,False
36481,6371, Note_on_c,68,76,3,3,1,79.0,False
36482,6371, Note_on_c,75,76,3,3,1,87.0,False
36483,6372, Note_on_c,77,76,3,3,1,90.0,True
36484,6372, Note_on_c,82,76,3,3,1,95.0,False
36485,6373, Note_on_c,68,76,3,3,1,79.0,False
36486,6373, Note_on_c,73,76,3,3,1,85.0,False
36487,6374, Note_on_c,70,76,3,3,1,81.0,False
36488,6375, Note_on_c,77,76,3,3,1,90.0,True
36489,6375, Note_on_c,82,76,3,3,1,95.0,False
36490,6376, Note_on_c,68,76,3,3,1,79.0,False
36491,6376, Note_on_c,75,76,3,3,1,87.0,False
36492,6377, Note_on_c,70,76,3,3,1,81.0,False
36493,6378, Note_on_c,77,76,3,3,1,90.0,True
36494,6378, Note_on_c,82,76,3,3,1,95.0,False
36495,6379, Note_on_c,68,76,3,3,1,79.0,False
36496,6379, Note_on_c,75,76,3,3,1,87.0,False
36497,6380, Note_on_c,77,76,3,3,1,90.0,True
36498,6380, Note_on_c,82,76,3,3,1,95.0,False
36499,6381, Note_on_c,68,76,3,3,1,79.0,False
36500,6381, Note_on_c,73,76,3,3,1,85.0,False
36501,6382, Note_on_c,70,76,3,3,1,81.0,False
36502,6383, Note_on_c,77,76,3,3,1,90.0,True
36503,6383, Note_on_c,82,76,3,3,1,95.0,False
36504,6384, Note_on_c,68,76,3,3,1,79.0,False
36505,6384, Note_on_c,75,76,3,3,1,87.0,False
36506,6385, Note_on_c,70,76,3,3,1,81.0,False
36507,6386, Note_on_c,77,76,3,3,1,90.0,True
36508,6386, Note_on_c,82,76,3,3,1,95.0,False
36509,6387, Note_on_c,68,76,3,3,1,79.0,False
36510,6387, Note_on_c,75,76,3,3,1,87.0,False
36511,6388, Note_on_c,77,76,3,3,1,90.0,True
36512,6388, Note_on_c,82,76,3,3,1,95.0,False
36513,6389, Note_on_c,68,76,3,3,1,79.0,False
36514,6389, Note_on_c,73,76,3,3,1,85.0,False
36515,6390, Note_on_c,70,76,3,3,1,81.0,False
36516,6391, Note_on_c,77,76,3,3,1,90.0,True
36517,6391, Note_on_c,82,76,3,3,1,95.0,False
36518,6392, Note_on_c,68,76,3,3,1,79.0,False
36519,6392, Note_on_c,75,76,3,3,1,87.0,False
36520,6393, Note_on_c,70,76,3,3,1,81.0,False
36521,6394, Note_on_c,77,76,3,3,1,90.0,True
36522,6394, Note_on_c,82,76,3,3,1,95.0,False
36523,6395, Note_on_c,68,76,3,3,1,79.0,False
36524,6395, Note_on_c,75,76,3,3,1,87.0,False
36525,6396, Note_on_c,77,76,3,3,1,90.0,True
36526,6396, Note_on_c,82,76,3,3,1,95.0,False
36527,6397, Note_on_c,68,76,3,3,1,79.0,False
36528,6397, Note_on_c,73,76,3,3,1,85.0,False
36529,6398, Note_on_c,70,76,3,3,1,81.0,False
36530,6399, Note_on_c,77,76,3,3,1,90.0,True
36531,6399, Note_on_c,82,76,3,3,1,95.0,False
36532,6400, Note_on_c,68,76,3,3,1,79.0,False
36533,6400, Note_on_c,75,76,3,3,1,87.0,False
36534,6401, Note_on_c,70,76,3,3,1,81.0,False
36535,6402, Note_on_c,77,76,3,3,1,90.0,True
36536,6402, Note_on_c,82,76,3,3,1,95.0,False
36537,6403, Note_on_c,68,76,3,3,1,79.0,False
36538,6403, Note_on_c,75,76,3,3,1,87.0,False
36539,6404, Note_on_c,77,76,3,3,1,90.0,True
36540,6404, Note_on_c,82,76,3,3,1,95.0,False
36541,6405, Note_on_c,68,76,3,3,1,79.0,False
36542,6405, Note_on_c,73,76,3,3,1,85.0,False
36543,6406, Note_on_c,70,76,3,3,1,81.0,False
36544,6407, Note_on_c,77,76,3,3,1,90.0,True
36545,6407, Note_on_c,82,76,3,3,1,95.0,False
36546,6408, Note_on_c,68,76,3,3,1,79.0,False
36547,6408, Note_on_c,75,76,3,3,1,87.0,False
36548,6409, Note_on_c,70,76,3,3,1,81.0,False
36549,6410, Note_on_c,77,76,3,3,1,90.0,True
36550,6410, Note_on_c,82,76,3,3,1,95.0,False
36551,6411, Note_on_c,68,76,3,3,1,79.0,False
36552,6411, Note_on_c,75,76,3,3,1,87.0,False
36553,6412, Note_on_c,77,76,3,3,1,90.0,True
36554,6412, Note_on_c,82,76,3,3,1,95.0,False
36555,6413, Note_on_c,68,76,3,3,1,79.0,False
36556,6413, Note_on_c,73,76,3,3,1,85.0,False
36557,6414, Note_on_c,70,76,3,3,1,81.0,False
36558,6415, Note_on_c,77,76,3,3,1,90.0,True
36559,6415, Note_on_c,82,76,3,3,1,95.0,False
36560,6416, Note_on_c,68,76,3,3,1,79.0,False
36561,6416, Note_on_c,75,76,3,3,1,87.0,False
36562,6417, Note_on_c,70,76,3,3,1,81.0,False
36563,6418, Note_on_c,77,76,3,3,1,90.0,True
36564,6418, Note_on_c,82,76,3,3,1,95.0,False
36565,6419, Note_on_c,68,76,3,3,1,79.0,False
36566,6419, Note_on_c,75,76,3,3,1,87.0,False
36567,6420, Note_on_c,77,76,3,3,1,90.0,True
36568,6420, Note_on_c,82,76,3,3,1,95.0,False
36569,6421, Note_on_c,68,76,3,3,1,79.0,False
36570,6421, Note_on_c,73,76,3,3,1,85.0,False
36571,6422, Note_on_c,70,76,3,3,1,81.0,False
36572,6423, Note_on_c,77,76,3,3,1,90.0,True
36573,6423, Note_on_c,82,76,3,3,1,95.0,False
36574,6424, Note_on_c,68,76,3,3,1,79.0,False
36575,6424, Note_on_c,75,76,3,3,1,87.0,False
36576,6425, Note_on_c,70,76,3,3,1,81.0,False
36577,6426, Note_on_c,77,76,3,3,1,90.0,True
36578,6426, Note_on_c,82,76,3,3,1,95.0,False
36579,6427, Note_on_c,68,76,3,3,1,79.0,False
36580,6427, Note_on_c,75,76,3,3,1,87.0,False
36581,6428, Note_on_c,77,76,3,3,1,90.0,True
36582,6428, Note_on_c,82,76,3,3,1,95.0,False
36583,6429, Note_on_c,68,76,3,3,1,79.0,False
36584,6429, Note_on_c,73,76,3,3,1,85.0,False
36585,6430, Note_on_c,70,76,3,3,1,81.0,False
36586,6431, Note_on_c,77,76,3,3,1,90.0,True
36587,6431, Note_on_c,82,76,3,3,1,95.0,False
36588,6432, Note_on_c,68,76,3,3,1,79.0,False
36589,6432, Note_on_c,75,76,3,3,1,87.0,False
36590,6433, Note_on_c,70,76,3,3,1,81.0,False
36591,6434, Note_on_c,77,76,3,3,1,90.0,True
36592,6434, Note_on_c,82,76,3,3,1,95.0,False
36593,6435, Note_on_c,68,76,3,3,1,79.0,False
36594,6435, Note_on_c,75,76,3,3,1,87.0,False
36595,6436, Note_on_c,77,76,3,3,1,90.0,True
36596,6436, Note_on_c,82,76,3,3,1,95.0,False
36597,6437, Note_on_c,68,76,3,3,1,79.0,False
36598,6437, Note_on_c,73,76,3,3,1,85.0,False
36599,6438, Note_on_c,70,76,3,3,1,81.0,False
36600,6439, Note_on_c,77,76,3,3,1,90.0,True
36601,6439, Note_on_c,82,76,3,3,1,95.0,False
36602,6440, Note_on_c,68,76,3,3,1,79.0,False
36603,6440, Note_on_c,75,76,3,3,1,87.0,False
36604,6441, Note_on_c,70,76,3,3,1,81.0,False
36605,6442, Note_on_c,77,76,3,3,1,90.0,True
36606,6442, Note_on_c,82,76,3,3,1,95.0,False
36607,6443, Note_on_c,68,76,3,3,1,79.0,False
36608,6443, Note_on_c,75,76,3,3,1,87.0,False
36609,6444, Note_on_c,77,76,3,3,1,90.0,True
36610,6444, Note_on_c,82,76,3,3,1,95.0,False
36611,6445, Note_on_c,68,76,3,3,1,79.0,False
36612,6445, Note_on_c,73,76,3,3,1,85.0,False
36613,6446, Note_on_c,70,76,3,3,1,81.0,False
36614,6447, Note_on_c,77,76,3,3,1,90.0,True
36615,6447, Note_on_c,82,76,3,3,1,95.0,False
36616,6448, Note_on_c,68,76,3,3,1,79.0,False
36617,6448, Note_on_c,75,76,3,3,1,87.0,False
36618,6449, Note_on_c,70,76,3,3,1,81.0,False
36619,6450, Note_on_c,77,76,3,3,1,90.0,True
36620,6450, Note_on_c,82,76,3,3,1,95.0,False
36621,6451, Note_on_c,68,76,3,3,1,79.0,False
36622,6451, Note_on_c,75,76,3,3,1,87.0,False
36623,6452, Note_on_c,77,76,3,3,1,90.0,True
36624,6452, Note_on_c,82,76,3,3,1,95.0,False
36625,6453, Note_on_c,68,76,3,3,1,79.0,False
36626,6453, Note_on_c,73,76,3,3,1,85.0,False
36627,6454, Note_on_c,70,76,3,3,1,81.0,False
36628,6455, Note_on_c,77,76,3,3,1,90.0,True
36629,6455, Note_on_c,82,76,3,3,1,95.0,False
36630,6456, Note_on_c,68,76,3,3,1,79.0,False
36631,6456, Note_on_c,75,76,3,3,1,87.0,False
36632,6457, Note_on_c,70,76,3,3,1,81.0,False
36633,6458, Note_on_c,77,76,3,3,1,90.0,True
36634,6458, Note_on_c,82,76,3,3,1,95.0,False
36635,6459, Note_on_c,68,76,3,3,1,79.0,False
36636,6459, Note_on_c,75,76,3,3,1,87.0,False
36637,6460, Note_on_c,77,76,3,3,1,90.0,True
36638,6460, Note_on_c,82,76,3,3,1,95.0,False
36639,6461, Note_on_c,68,76,3,3,1,79.0,False
36640,6461, Note_on_c,73,76,3,3,1,85.0,False
36641,6462, Note_on_c,70,76,3,3,1,81.0,False
36642,6463, Note_on_c,77,76,3,3,1,90.0,True
36643,6463, Note_on_c,82,76,3,3,1,95.0,False
36644,6464, Note_on_c,68,76,3,3,1,79.0,False
36645,6464, Note_on_c,75,76,3,3,1,87.0,False
36646,6465, Note_on_c,70,76,3,3,1,81.0,False
36647,6466, Note_on_c,77,76,3,3,1,90.0,True
36648,6466, Note_on_c,82,76,3,3,1,95.0,False
36649,6467, Note_on_c,68,76,3,3,1,79.0,False
36650,6467, Note_on_c,75,76,3,3,1,87.0,False
36651,6468, Note_on_c,77,76,3,3,1,90.0,True
36652,6468, Note_on_c,82,76,3,3,1,95.0,False
36653,6469, Note_on_c,68,76,3,3,1,79.0,False
36654,6469, Note_on_c,73,76,3,3,1,85.0,False
36655,6470, Note_on_c,70,76,3,3,1,81.0,False
36656,6471, Note_on_c,77,76,3,3,1,90.0,True
36657,6471, Note_on_c,82,76,3,3,1,95.0,False
36658,6472, Note_on_c,68,76,3,3,1,79.0,False
36659,6472, Note_on_c,75,76,3,3,1,87.0,False
36660,6473, Note_on_c,70,76,3,3,1,81.0,False
36661,6474, Note_on_c,77,76,3,3,1,90.0,True
36662,6474, Note_on_c,82,76,3,3,1,95.0,False
36663,6475, Note_on_c,68,76,3,3,1,79.0,False
36664,6475, Note_on_c,75,76,3,3,1,87.0,False
36665,6476, Note_on_c,77,76,3,3,1,90.0,True
36666,6476, Note_on_c,82,76,3,3,1,95.0,False
36667,6477, Note_on_c,68,76,3,3,1,79.0,False
36668,6477, Note_on_c,73,76,3,3,1,85.0,False
36669,6478, Note_on_c,70,76,3,3,1,81.0,False
36670,6479, Note_on_c,77,76,3,3,1,90.0,True
36671,6479, Note_on_c,82,76,3,3,1,95.0,False
36672,6480, Note_on_c,68,76,3,3,1,79.0,False
36673,6480, Note_on_c,75,76,3,3,1,87.0,False
36674,6481, Note_on_c,70,76,3,3,1,81.0,False
36675,6482, Note_on_c,77,76,3,3,1,90.0,True
36676,6482, Note_on_c,82,76,3,3,1,95.0,False
36677,6483, Note_on_c,68,76,3,3,1,79.0,False
36678,6483, Note_on_c,75,76,3,3,1,87.0,False
36679,6484, Note_on_c,77,76,3,3,1,90.0,True
36680,6484, Note_on_c,82,76,3,3,1,95.0,False
36681,6485, Note_on_c,68,76,3,3,1,79.0,False
36682,6485, Note_on_c,73,76,3,3,1,85.0,False
36683,6486, Note_on_c,70,76,3,3,1,81.0,False
36684,6487, Note_on_c,77,76,3,3,1,90.0,True
36685,6487, Note_on_c,82,76,3,3,1,95.0,False
36686,6488, Note_on_c,68,76,3,3,1,79.0,False
36687,6488, Note_on_c,75,76,3,3,1,87.0,False
36688,6489, Note_on_c,70,76,3,3,1,81.0,False
36689,6490, Note_on_c,77,76,3,3,1,90.0,True
36690,6490, Note_on_c,82,76,3,3,1,95.0,False
36691,6491, Note_on_c,68,76,3,3,1,79.0,False
36692,6491, Note_on_c,75,76,3,3,1,87.0,False
36693,6492, Note_on_c,77,76,3,3,1,90.0,True
36694,6492, Note_on_c,82,76,3,3,1,95.0,False
36695,6493, Note_on_c,68,76,3,3,1,79.0,False
36696,6493, Note_on_c,73,76,3,3,1,85.0,False
36697,6494, Note_on_c,70,76,3,3,1,81.0,False
36698,6495, Note_on_c,77,76,3,3,1,90.0,True
36699,6495, Note_on_c,82,76,3,3,1,95.0,False
36700,6496, Note_on_c,68,76,3,3,1,79.0,False
36701,6496, Note_on_c,75,76,3,3,1,87.0,False
36702,6497, Note_on_c,70,76,3,3,1,81.0,False
36703,6498, Note_on_c,77,76,3,3,1,90.0,True
36704,6498, Note_on_c,82,76,3,3,1,95.0,False
36705,6499, Note_on_c,68,76,3,3,1,79.0,False
36706,6499, Note_on_c,75,76,3,3,1,87.0,False
36707,6500, Note_on_c,77,76,3,3,1,90.0,True
36708,6500, Note_on_c,82,76,3,3,1,95.0,False
36709,6501, Note_on_c,68,76,3,3,1,79.0,False
36710,6501, Note_on_c,73,76,3,3,1,85.0,False
36711,6502, Note_on_c,70,76,3,3,1,81.0,False
36712,6503, Note_on_c,77,76,3,3,1,90.0,True
36713,6503, Note_on_c,82,76,3,3,1,95.0,False
36714,6504, Note_on_c,68,76,3,3,1,79.0,False
36715,6504, Note_on_c,75,76,3,3,1,87.0,False
36716,6505, Note_on_c,70,76,3,3,1,81.0,False
36717,6506, Note_on_c,77,76,3,3,1,90.0,True
36718,6506, Note_on_c,82,76,3,3,1,95.0,False
36719,6507, Note_on_c,68,76,3,3,1,79.0,False
36720,6507, Note_on_c,75,76,3,3,1,87.0,False
36721,6508, Note_on_c,77,76,3,3,1,90.0,True
36722,6508, Note_on_c,82,76,3,3,1,95.0,False
36723,6509, Note_on_c,68,76,3,3,1,79.0,False
36724,6509, Note_on_c,73,76,3,3,1,85.0,False
36725,6510, Note_on_c,70,76,3,3,1,81.0,False
36726,6511, Note_on_c,77,76,3,3,1,90.0,True
36727,6511, Note_on_c,82,76,3,3,1,95.0,False
36728,6512, Note_on_c,68,76,3,3,1,79.0,False
36729,6512, Note_on_c,75,76,3,3,1,87.0,False
36730,6513, Note_on_c,70,76,3,3,1,81.0,False
36731,6514, Note_on_c,77,76,3,3,1,90.0,True
36732,6514, Note_on_c,82,76,3,3,1,95.0,False
36733,6515, Note_on_c,68,76,3,3,1,79.0,False
36734,6515, Note_on_c,75,76,3,3,1,87.0,False
36735,6516, Note_on_c,77,76,3,3,1,90.0,True
36736,6516, Note_on_c,82,76,3,3,1,95.0,False
36737,6517, Note_on_c,68,76,3,3,1,79.0,False
36738,6517, Note_on_c,73,76,3,3,1,85.0,False
36739,6518, Note_on_c,70,76,3,3,1,81.0,False
36740,6519, Note_on_c,77,76,3,3,1,90.0,True
36741,6519, Note_on_c,82,76,3,3,1,95.0,False
36742,6520, Note_on_c,68,76,3,3,1,79.0,False
36743,6520, Note_on_c,75,76,3,3,1,87.0,False
36744,6521, Note_on_c,70,76,3,3,1,81.0,False
36745,6522, Note_on_c,77,76,3,3,1,90.0,True
36746,6522, Note_on_c,82,76,3,3,1,95.0,False
36747,6523, Note_on_c,68,76,3,3,1,79.0,False
36748,6523, Note_on_c,75,76,3,3,1,87.0,False
36749,6524, Note_on_c,77,76,3,3,1,90.0,True
36750,6524, Note_on_c,82,76,3,3,1,95.0,False
36751,6525, Note_on_c,68,76,3,3,1,79.0,False
36752,6525, Note_on_c,73,76,3,3,1,85.0,False
36753,6526, Note_on_c,70,76,3,3,1,81.0,False
36754,6527, Note_on_c,77,76,3,3,1,90.0,True
36755,6527, Note_on_c,82,76,3,3,1,95.0,False
36756,6528, Note_on_c,68,76,3,3,1,79.0,False
36757,6528, Note_on_c,75,76,3,3,1,87.0,False
36758,6529, Note_on_c,70,76,3,3,1,81.0,False
36759,6530, Note_on_c,77,76,3,3,1,90.0,True
36760,6530, Note_on_c,82,76,3,3,1,95.0,False
36761,6531, Note_on_c,68,76,3,3,1,79.0,False
36762,6531, Note_on_c,75,76,3,3,1,87.0,False
36763,6532, Note_on_c,77,76,3,3,1,90.0,True
36764,6532, Note_on_c,82,76,3,3,1,95.0,False
36765,6533, Note_on_c,68,76,3,3,1,79.0,False
36766,6533, Note_on_c,73,76,3,3,1,85.0,False
36767,6534, Note_on_c,70,76,3,3,1,81.0,False
36768,6535, Note_on_c,77,76,3,3,1,90.0,True
36769,6535, Note_on_c,82,76,3,3,1,95.0,False
36770,6536, Note_on_c,68,76,3,3,1,79.0,False
36771,6536, Note_on_c,75,76,3,3,1,87.0,False
36772,6537, Note_on_c,70,76,3,3,1,81.0,False
36773,6538, Note_on_c,77,76,3,3,1,90.0,True
36774,6538, Note_on_c,82,76,3,3,1,95.0,False
36775,6539, Note_on_c,68,76,3,3,1,79.0,False
36776,6539, Note_on_c,75,76,3,3,1,87.0,False
36777,6540, Note_on_c,77,76,3,3,1,90.0,True
36778,6540, Note_on_c,82,76,3,3,1,95.0,False
36779,6541, Note_on_c,68,76,3,3,1,79.0,False
36780,6541, Note_on_c,73,76,3,3,1,85.0,False
36781,6542, Note_on_c,70,76,3,3,1,81.0,False
36782,6543, Note_on_c,77,76,3,3,1,90.0,True
36783,6543, Note_on_c,82,76,3,3,1,95.0,False
36784,6544, Note_on_c,68,76,3,3,1,79.0,False
36785,6544, Note_on_c,75,76,3,3,1,87.0,False
36786,6545, Note_on_c,70,76,3,3,1,81.0,False
36787,6546, Note_on_c,77,76,3,3,1,90.0,True
36788,6546, Note_on_c,82,76,3,3,1,95.0,False
36789,6547, Note_on_c,68,76,3,3,1,79.0,False
36790,6547, Note_on_c,75,76,3,3,1,87.0,False
36791,6548, Note_on_c,77,76,3,3,1,90.0,True
36792,6548, Note_on_c,82,76,3,3,1,95.0,False
36793,6549, Note_on_c,68,76,3,3,1,79.0,False
36794,6549, Note_on_c,73,76,3,3,1,85.0,False
36795,6550, Note_on_c,70,76,3,3,1,81.0,False
36796,6551, Note_on_c,77,76,3,3,1,90.0,True
36797,6551, Note_on_c,82,76,3,3,1,95.0,False
36798,6552, Note_on_c,68,76,3,3,1,79.0,False
36799,6552, Note_on_c,75,76,3,3,1,87.0,False
36800,6553, Note_on_c,70,76,3,3,1,81.0,False
36801,6554, Note_on_c,77,76,3,3,1,90.0,True
36802,6554, Note_on_c,82,76,3,3,1,95.0,False
36803,6555, Note_on_c,68,76,3,3,1,79.0,False
36804,6555, Note_on_c,75,76,3,3,1,87.0,False
36805,6556, Note_on_c,77,76,3,3,1,90.0,True
36806,6556, Note_on_c,82,76,3,3,1,95.0,False
36807,6557, Note_on_c,68,76,3,3,1,79.0,False
36808,6557, Note_on_c,73,76,3,3,1,85.0,False
36809,6558, Note_on_c,70,76,3,3,1,81.0,False
36810,6559, Note_on_c,77,76,3,3,1,90.0,True
36811,6559, Note_on_c,82,76,3,3,1,95.0,False
36812,6560, Note_on_c,68,76,3,3,1,79.0,False
36813,6560, Note_on_c,75,76,3,3,1,87.0,False
36814,6561, Note_on_c,70,76,3,3,1,81.0,False
36815,6562, Note_on_c,77,76,3,3,1,90.0,True
36816,6562, Note_on_c,82,76,3,3,1,95.0,False
36817,6563, Note_on_c,68,76,3,3,1,79.0,False
36818,6563, Note_on_c,75,76,3,3,1,87.0,False
36819,6564, Note_on_c,77,76,3,3,1,90.0,True
36820,6564, Note_on_c,82,76,3,3,1,95.0,False
36821,6565, Note_on_c,68,76,3,3,1,79.0,False
36822,6565, Note_on_c,73,76,3,3,1,85.0,False
36823,6566, Note_on_c,70,76,3,3,1,81.0,False
36824,6567, Note_on_c,77,76,3,3,1,90.0,True
36825,6567, Note_on_c,82,76,3,3,1,95.0,False
36826,6568, Note_on_c,68,76,3,3,1,79.0,False
36827,6568, Note_on_c,75,76,3,3,1,87.0,False
36828,6569, Note_on_c,70,76,3,3,1,81.0,False
36829,6570, Note_on_c,77,76,3,3,1,90.0,True
36830,6570, Note_on_c,82,76,3,3,1,95.0,False
36831,6571, Note_on_c,68,76,3,3,1,79.0,False
36832,6571, Note_on_c,75,76,3,3,1,87.0,False
36833,6572, Note_on_c,77,76,3,3,1,90.0,True
36834,6572, Note_on_c,82,76,3,3,1,95.0,False
36835,6573, Note_on_c,68,76,3,3,1,79.0,False
36836,6573, Note_on_c,73,76,3,3,1,85.0,False
36837,6574, Note_on_c,70,76,3,3,1,81.0,False
36838,6575, Note_on_c,77,76,3,3,1,90.0,True
36839,6575, Note_on_c,82,76,3,3,1,95.0,False
36840,6576, Note_on_c,68,76,3,3,1,79.0,False
36841,6576, Note_on_c,75,76,3,3,1,87.0,False
36842,6577, Note_on_c,70,76,3,3,1,81.0,False
36843,6578, Note_on_c,77,76,3,3,1,90.0,True
36844,6578, Note_on_c,82,76,3,3,1,95.0,False
36845,6579, Note_on_c,68,76,3,3,1,79.0,False
36846,6579, Note_on_c,75,76,3,3,1,87.0,False
36847,6580, Note_on_c,77,76,3,3,1,90.0,True
36848,6580, Note_on_c,82,76,3,3,1,95.0,False
36849,6581, Note_on_c,68,76,3,3,1,79.0,False
36850,6581, Note_on_c,73,76,3,3,1,85.0,False
36851,6582, Note_on_c,70,76,3,3,1,81.0,False
36852,6583, Note_on_c,77,76,3,3,1,90.0,True
36853,6583, Note_on_c,82,76,3,3,1,95.0,False
36854,6584, Note_on_c,68,76,3,3,1,79.0,False
36855,6584, Note_on_c,75,76,3,3,1,87.0,False
36856,6585, Note_on_c,70,76,3,3,1,81.0,False
36857,6586, Note_on_c,77,76,3,3,1,90.0,True
36858,6586, Note_on_c,82,76,3,3,1,95.0,False
36859,6587, Note_on_c,68,76,3,3,1,79.0,False
36860,6587, Note_on_c,75,76,3,3,1,87.0,False
36861,6588, Note_on_c,77,76,3,3,1,90.0,True
36862,6588, Note_on_c,82,76,3,3,1,95.0,False
36863,6589, Note_on_c,68,76,3,3,1,79.0,False
36864,6589, Note_on_c,73,76,3,3,1,85.0,False
36865,6590, Note_on_c,70,76,3,3,1,81.0,False
36866,6591, Note_on_c,77,76,3,3,1,90.0,True
36867,6591, Note_on_c,82,76,3,3,1,95.0,False
36868,6592, Note_on_c,68,76,3,3,1,79.0,False
36869,6592, Note_on_c,75,76,3,3,1,87.0,False
36870,6593, Note_on_c,70,76,3,3,1,81.0,False
36871,6594, Note_on_c,77,76,3,3,1,90.0,True
36872,6594, Note_on_c,82,76,3,3,1,95.0,False
36873,6595, Note_on_c,68,76,3,3,1,79.0,False
36874,6595, Note_on_c,75,76,3,3,1,87.0,False
36875,6596, Note_on_c,77,76,3,3,1,90.0,True
36876,6596, Note_on_c,82,76,3,3,1,95.0,False
36877,6597, Note_on_c,68,76,3,3,1,79.0,False
36878,6597, Note_on_c,73,76,3,3,1,85.0,False
36879,6598, Note_on_c,70,76,3,3,1,81.0,False
36880,6599, Note_on_c,77,76,3,3,1,90.0,True
36881,6599, Note_on_c,82,76,3,3,1,95.0,False
36882,6600, Note_on_c,68,76,3,3,1,79.0,False
36883,6600, Note_on_c,75,76,3,3,1,87.0,False
36884,6601, Note_on_c,70,76,3,3,1,81.0,False
36885,6602, Note_on_c,77,76,3,3,1,90.0,True
36886,6602, Note_on_c,82,76,3,3,1,95.0,False
36887,6603, Note_on_c,68,76,3,3,1,79.0,False
36888,6603, Note_on_c,75,76,3,3,1,87.0,False
36889,6604, Note_on_c,77,76,3,3,1,90.0,True
36890,6604, Note_on_c,82,76,3,3,1,95.0,False
36891,6605, Note_on_c,68,76,3,3,1,79.0,False
36892,6605, Note_on_c,73,76,3,3,1,85.0,False
36893,6606, Note_on_c,70,76,3,3,1,81.0,False
36894,6607, Note_on_c,77,76,3,3,1,90.0,True
36895,6607, Note_on_c,82,76,3,3,1,95.0,False
36896,6608, Note_on_c,68,76,3,3,1,79.0,False
36897,6608, Note_on_c,75,76,3,3,1,87.0,False
36898,6609, Note_on_c,70,76,3,3,1,81.0,False
36899,6610, Note_on_c,77,76,3,3,1,90.0,True
36900,6610, Note_on_c,82,76,3,3,1,95.0,False
36901,6611, Note_on_c,68,76,3,3,1,79.0,False
36902,6611, Note_on_c,75,76,3,3,1,87.0,False
36903,6612, Note_on_c,77,76,3,3,1,90.0,True
36904,6612, Note_on_c,82,76,3,3,1,95.0,False
36905,6613, Note_on_c,68,76,3,3,1,79.0,False
36906,6613, Note_on_c,73,76,3,3,1,85.0,False
36907,6614, Note_on_c,70,76,3,3,1,81.0,False
36908,6615, Note_on_c,77,76,3,3,1,90.0,True
36909,6615, Note_on_c,82,76,3,3,1,95.0,False
36910,6616, Note_on_c,68,76,3,3,1,79.0,False
36911,6616, Note_on_c,75,76,3,3,1,87.0,False
36912,6617, Note_on_c,70,76,3,3,1,81.0,False
36913,6618, Note_on_c,77,76,3,3,1,90.0,True
36914,6618, Note_on_c,82,76,3,3,1,95.0,False
36915,6619, Note_on_c,68,76,3,3,1,79.0,False
36916,6619, Note_on_c,75,76,3,3,1,87.0,False
36917,6620, Note_on_c,77,76,3,3,1,90.0,True
36918,6620, Note_on_c,82,76,3,3,1,95.0,False
36919,6621, Note_on_c,68,76,3,3,1,79.0,False
36920,6621, Note_on_c,73,76,3,3,1,85.0,False
36921,6622, Note_on_c,70,76,3,3,1,81.0,False
36922,6623, Note_on_c,77,76,3,3,1,90.0,True
36923,6623, Note_on_c,82,76,3,3,1,95.0,False
36924,6624, Note_on_c,68,76,3,3,1,79.0,False
36925,6624, Note_on_c,75,76,3,3,1,87.0,False
36926,6625, Note_on_c,70,76,3,3,1,81.0,False
36927,6626, Note_on_c,77,76,3,3,1,90.0,True
36928,6626, Note_on_c,82,76,3,3,1,95.0,False
36929,6627, Note_on_c,68,76,3,3,1,79.0,False
36930,6627, Note_on_c,75,76,3,3,1,87.0,False
36931,6628, Note_on_c,77,76,3,3,1,90.0,True
36932,6628, Note_on_c,82,76,3,3,1,95.0,False
36933,6629, Note_on_c,68,76,3,3,1,79.0,False
36934,6629, Note_on_c,73,76,3,3,1,85.0,False
36935,6630, Note_on_c,70,76,3,3,1,81.0,False
36936,6631, Note_on_c,77,76,3,3,1,90.0,True
36937,6631, Note_on_c,82,76,3,3,1,95.0,False
36938,6632, Note_on_c,68,76,3,3,1,79.0,False
36939,6632, Note_on_c,75,76,3,3,1,87.0,False
36940,6633, Note_on_c,70,76,3,3,1,81.0,False
36941,6634, Note_on_c,77,76,3,3,1,90.0,True
36942,6634, Note_on_c,82,76,3,3,1,95.0,False
36943,6635, Note_on_c,68,76,3,3,1,79.0,False
36944,6635, Note_on_c,75,76,3,3,1,87.0,False
36945,6636, Note_on_c,77,76,3,3,1,90.0,True
36946,6636, Note_on_c,82,76,3,3,1,95.0,False
36947,6637, Note_on_c,68,76,3,3,1,79.0,False
36948,6637, Note_on_c,73,76,3,3,1,85.0,False
36949,6638, Note_on_c,70,76,3,3,1,81.0,False
36950,6639, Note_on_c,77,76,3,3,1,90.0,True
36951,6639, Note_on_c,82,76,3,3,1,95.0,False
36952,6640, Note_on_c,68,76,3,3,1,79.0,False
36953,6640, Note_on_c,75,76,3,3,1,87.0,False
36954,6641, Note_on_c,70,76,3,3,1,81.0,False
36955,6642, Note_on_c,77,76,3,3,1,90.0,True
36956,6642, Note_on_c,82,76,3,3,1,95.0,False
36957,6643, Note_on_c,68,76,3,3,1,79.0,False
36958,6643, Note_on_c,75,76,3,3,1,87.0,False
36959,6644, Note_on_c,77,76,3,3,1,90.0,True
36960,6644, Note_on_c,82,76,3,3,1,95.0,False
36961,6645, Note_on_c,68,76,3,3,1,79.0,False
36962,6645, Note_on_c,73,76,3,3,1,85.0,False
36963,6646, Note_on_c,70,76,3,3,1,81.0,False
36964,6647, Note_on_c,77,76,3,3,1,90.0,True
36965,6647, Note_on_c,82,76,3,3,1,95.0,False
36966,6648, Note_on_c,68,76,3,3,1,79.0,False
36967,6648, Note_on_c,75,76,3,3,1,87.0,False
36968,6649, Note_on_c,70,76,3,3,1,81.0,False
36969,6650, Note_on_c,77,76,3,3,1,90.0,True
36970,6650, Note_on_c,82,76,3,3,1,95.0,False
36971,6651, Note_on_c,68,76,3,3,1,79.0,False
36972,6651, Note_on_c,75,76,3,3,1,87.0,False
36973,6652, Note_on_c,77,76,3,3,1,90.0,True
36974,6652, Note_on_c,82,76,3,3,1,95.0,False
36975,6653, Note_on_c,68,76,3,3,1,79.0,False
36976,6653, Note_on_c,73,76,3,3,1,85.0,False
36977,6654, Note_on_c,70,76,3,3,1,81.0,False
36978,6655, Note_on_c,77,76,3,3,1,90.0,True
36979,6655, Note_on_c,82,76,3,3,1,95.0,False
36980,6656, Note_on_c,68,76,3,3,1,79.0,False
36981,6656, Note_on_c,75,76,3,3,1,87.0,False
36982,6657, Note_on_c,70,76,3,3,1,81.0,False
36983,6658, Note_on_c,77,76,3,3,1,90.0,True
36984,6658, Note_on_c,82,76,3,3,1,95.0,False
36985,6659, Note_on_c,68,76,3,3,1,79.0,False
36986,6659, Note_on_c,75,76,3,3,1,87.0,False
36987,6660, Note_on_c,77,76,3,3,1,90.0,True
36988,6660, Note_on_c,82,76,3,3,1,95.0,False
36989,6661, Note_on_c,68,76,3,3,1,79.0,False
36990,6661, Note_on_c,73,76,3,3,1,85.0,False
36991,6662, Note_on_c,70,76,3,3,1,81.0,False
36992,6663, Note_on_c,77,76,3,3,1,90.0,True
36993,6663, Note_on_c,82,76,3,3,1,95.0,False
36994,6664, Note_on_c,68,76,3,3,1,79.0,False
36995,6664, Note_on_c,75,76,3,3,1,87.0,False
36996,6665, Note_on_c,70,76,3,3,1,81.0,False
36997,6666, Note_on_c,77,76,3,3,1,90.0,True
36998,6666, Note_on_c,82,76,3,3,1,95.0,False
36999,6667, Note_on_c,68,76,3,3,1,79.0,False
37000,6667, Note_on_c,75,76,3,3,1,87.0,False
37001,6668, Note_on_c,77,76,3,3,1,90.0,True
37002,6668, Note_on_c,82,76,3,3,1,95.0,False
37003,6669, Note_on_c,68,76,3,3,1,79.0,False
37004,6669, Note_on_c,73,76,3,3,1,85.0,False
37005,6670, Note_on_c,70,76,3,3,1,81.0,False
37006,6671, Note_on_c,77,76,3,3,1,90.0,True
37007,6671, Note_on_c,82,76,3,3,1,95.0,False
37008,6672, Note_on_c,68,76,3,3,1,79.0,False
37009,6672, Note_on_c,75,76,3,3,1,87.0,False
37010,6673, Note_on_c,70,76,3,3,1,81.0,False
37011,6674, Note_on_c,77,76,3,3,1,90.0,True
37012,6674, Note_on_c,82,76,3,3,1,95.0,False
37013,6675, Note_on_c,68,76,3,3,1,79.0,False
37014,6675, Note_on_c,75,76,3,3,1,87.0,False
37015,6676, Note_on_c,77,76,3,3,1,90.0,True
37016,6676, Note_on_c,82,76,3,3,1,95.0,False
37017,6677, Note_on_c,68,76,3,3,1,79.0,False
37018,6677, Note_on_c,73,76,3,3,1,85.0,False
37019,6678, Note_on_c,70,76,3,3,1,81.0,False
37020,6679, Note_on_c,77,76,3,3,1,90.0,True
37021,6679, Note_on_c,82,76,3,3,1,95.0,False
37022,6680, Note_on_c,68,76,3,3,1,79.0,False
37023,6680, Note_on_c,75,76,3,3,1,87.0,False
37024,6681, Note_on_c,70,76,3,3,1,81.0,False
37025,6682, Note_on_c,77,76,3,3,1,90.0,True
37026,6682, Note_on_c,82,76,3,3,1,95.0,False
37027,6683, Note_on_c,68,76,3,3,1,79.0,False
37028,6683, Note_on_c,75,76,3,3,1,87.0,False
37029,6684, Note_on_c,77,76,3,3,1,90.0,True
37030,6684, Note_on_c,82,76,3,3,1,95.0,False
37031,6685, Note_on_c,68,76,3,3,1,79.0,False
37032,6685, Note_on_c,73,76,3,3,1,85.0,False
37033,6686, Note_on_c,70,76,3,3,1,81.0,False
37034,6687, Note_on_c,77,76,3,3,1,90.0,True
37035,6687, Note_on_c,82,76,3,3,1,95.0,False
37036,6688, Note_on_c,68,76,3,3,1,79.0,False
37037,6688, Note_on_c,75,76,3,3,1,87.0,False
37038,6689, Note_on_c,70,76,3,3,1,81.0,False
37039,6690, Note_on_c,77,76,3,3,1,90.0,True
37040,6690, Note_on_c,82,76,3,3,1,95.0,False
37041,6691, Note_on_c,68,76,3,3,1,79.0,False
37042,6691, Note_on_c,75,76,3,3,1,87.0,False
37043,6692, Note_on_c,77,76,3,3,1,90.0,True
37044,6692, Note_on_c,82,76,3,3,1,95.0,False
37045,6693, Note_on_c,68,76,3,3,1,79.0,False
37046,6693, Note_on_c,73,76,3,3,1,85.0,False
37047,6694, Note_on_c,70,76,3,3,1,81.0,False
37048,6695, Note_on_c,77,76,3,3,1,90.0,True
37049,6695, Note_on_c,82,76,3,3,1,95.0,False
37050,6696, Note_on_c,68,76,3,3,1,79.0,False
37051,6696, Note_on_c,75,76,3,3,1,87.0,False
37052,6697, Note_on_c,70,76,3,3,1,81.0,False
37053,6698, Note_on_c,77,76,3,3,1,90.0,True
37054,6698, Note_on_c,82,76,3,3,1,95.0,False
37055,6699, Note_on_c,68,76,3,3,1,79.0,False
37056,6699, Note_on_c,75,76,3,3,1,87.0,False
37057,6700, Note_on_c,77,76,3,3,1,90.0,True
37058,6700, Note_on_c,82,76,3,3,1,95.0,False
37059,6701, Note_on_c,68,76,3,3,1,79.0,False
37060,6701, Note_on_c,73,76,3,3,1,85.0,False
37061,6702, Note_on_c,70,76,3,3,1,81.0,False
37062,6703, Note_on_c,77,76,3,3,1,90.0,True
37063,6703, Note_on_c,82,76,3,3,1,95.0,False
37064,6704, Note_on_c,68,76,3,3,1,79.0,False
37065,6704, Note_on_c,75,76,3,3,1,87.0,False
37066,6705, Note_on_c,70,76,3,3,1,81.0,False
37067,6706, Note_on_c,77,76,3,3,1,90.0,True
37068,6706, Note_on_c,82,76,3,3,1,95.0,False
37069,6707, Note_on_c,68,76,3,3,1,79.0,False
37070,6707, Note_on_c,75,76,3,3,1,87.0,False
37071,6708, Note_on_c,77,76,3,3,1,90.0,True
37072,6708, Note_on_c,82,76,3,3,1,95.0,False
37073,6709, Note_on_c,68,76,3,3,1,79.0,False
37074,6709, Note_on_c,73,76,3,3,1,85.0,False
37075,6710, Note_on_c,70,76,3,3,1,81.0,False
37076,6711, Note_on_c,77,76,3,3,1,90.0,True
37077,6711, Note_on_c,82,76,3,3,1,95.0,False
37078,6712, Note_on_c,68,76,3,3,1,79.0,False
37079,6712, Note_on_c,75,76,3,3,1,87.0,False
37080,6713, Note_on_c,70,76,3,3,1,81.0,False
37081,6714, Note_on_c,77,76,3,3,1,90.0,True
37082,6714, Note_on_c,82,76,3,3,1,95.0,False
37083,6715, Note_on_c,68,76,3,3,1,79.0,False
37084,6715, Note_on_c,75,76,3,3,1,87.0,False
37085,6716, Note_on_c,77,76,3,3,1,90.0,True
37086,6716, Note_on_c,82,76,3,3,1,95.0,False
37087,6717, Note_on_c,68,76,3,3,1,79.0,False
37088,6717, Note_on_c,73,76,3,3,1,85.0,False
37089,6718, Note_on_c,70,76,3,3,1,81.0,False
37090,6719, Note_on_c,77,76,3,3,1,90.0,True
37091,6719, Note_on_c,82,76,3,3,1,95.0,False
37092,6720, Note_on_c,68,76,3,3,1,79.0,False
37093,6720, Note_on_c,75,76,3,3,1,87.0,False
37094,6721, Note_on_c,70,76,3,3,1,81.0,False
37095,6722, Note_on_c,77,76,3,3,1,90.0,True
37096,6722, Note_on_c,82,76,3,3,1,95.0,False
37097,6723, Note_on_c,68,76,3,3,1,79.0,False
37098,6723, Note_on_c,75,76,3,3,1,87.0,False
37099,6724, Note_on_c,77,76,3,3,1,90.0,True
37100,6724, Note_on_c,82,76,3,3,1,95.0,False
37101,6725, Note_on_c,68,76,3,3,1,79.0,False
37102,6725, Note_on_c,73,76,3,3,1,85.0,False
37103,6726, Note_on_c,70,76,3,3,1,81.0,False
37104,6727, Note_on_c,77,76,3,3,1,90.0,True
37105,6727, Note_on_c,82,76,3,3,1,95.0,False
37106,6728, Note_on_c,68,76,3,3,1,79.0,False
37107,6728, Note_on_c,75,76,3,3,1,87.0,False
37108,6729, Note_on_c,70,76,3,3,1,81.0,False
37109,6730, Note_on_c,77,76,3,3,1,90.0,True
37110,6730, Note_on_c,82,76,3,3,1,95.0,False
37111,6731, Note_on_c,68,76,3,3,1,79.0,False
37112,6731, Note_on_c,75,76,3,3,1,87.0,False
37113,6732, Note_on_c,77,76,3,3,1,90.0,True
37114,6732, Note_on_c,82,76,3,3,1,95.0,False
37115,6733, Note_on_c,68,76,3,3,1,79.0,False
37116,6733, Note_on_c,73,76,3,3,1,85.0,False
37117,6734, Note_on_c,70,76,3,3,1,81.0,False
37118,6735, Note_on_c,77,76,3,3,1,90.0,True
37119,6735, Note_on_c,82,76,3,3,1,95.0,False
37120,6736, Note_on_c,68,76,3,3,1,79.0,False
37121,6736, Note_on_c,75,76,3,3,1,87.0,False
37122,6737, Note_on_c,70,76,3,3,1,81.0,False
37123,6738, Note_on_c,77,76,3,3,1,90.0,True
37124,6738, Note_on_c,82,76,3,3,1,95.0,False
37125,6739, Note_on_c,68,76,3,3,1,79.0,False
37126,6739, Note_on_c,75,76,3,3,1,87.0,False
37127,6740, Note_on_c,77,76,3,3,1,90.0,True
37128,6740, Note_on_c,82,76,3,3,1,95.0,False
37129,6741, Note_on_c,68,76,3,3,1,79.0,False
37130,6741, Note_on_c,73,76,3,3,1,85.0,False
37131,6742, Note_on_c,70,76,3,3,1,81.0,False
37132,6743, Note_on_c,77,76,3,3,1,90.0,True
37133,6743, Note_on_c,82,76,3,3,1,95.0,False
37134,6744, Note_on_c,68,76,3,3,1,79.0,False
37135,6744, Note_on_c,75,76,3,3,1,87.0,False
37136,6745, Note_on_c,70,76,3,3,1,81.0,False
37137,6746, Note_on_c,77,76,3,3,1,90.0,True
37138,6746, Note_on_c,82,76,3,3,1,95.0,False
37139,6747, Note_on_c,68,76,3,3,1,79.0,False
37140,6747, Note_on_c,75,76,3,3,1,87.0,False
37141,6748, Note_on_c,77,76,3,3,1,90.0,True
37142,6748, Note_on_c,82,76,3,3,1,95.0,False
37143,6749, Note_on_c,68,76,3,3,1,79.0,False
37144,6749, Note_on_c,73,76,3,3,1,85.0,False
37145,6750, Note_on_c,70,76,3,3,1,81.0,False
37146,6751, Note_on_c,77,76,3,3,1,90.0,True
37147,6751, Note_on_c,82,76,3,3,1,95.0,False
37148,6752, Note_on_c,68,76,3,3,1,79.0,False
37149,6752, Note_on_c,75,76,3,3,1,87.0,False
37150,6753, Note_on_c,70,76,3,3,1,81.0,False
37151,6754, Note_on_c,77,76,3,3,1,90.0,True
37152,6754, Note_on_c,82,76,3,3,1,95.0,False
37153,6755, Note_on_c,68,76,3,3,1,79.0,False
37154,6755, Note_on_c,75,76,3,3,1,87.0,False
37155,6756, Note_on_c,77,76,3,3,1,90.0,True
37156,6756, Note_on_c,82,76,3,3,1,95.0,False
37157,6757, Note_on_c,68,76,3,3,1,79.0,False
37158,6757, Note_on_c,73,76,3,3,1,85.0,False
37159,6758, Note_on_c,70,76,3,3,1,81.0,False
37160,6759, Note_on_c,77,76,3,3,1,90.0,True
37161,6759, Note_on_c,82,76,3,3,1,95.0,False
37162,6760, Note_on_c,68,76,3,3,1,79.0,False
37163,6760, Note_on_c,75,76,3,3,1,87.0,False
37164,6761, Note_on_c,70,76,3,3,1,81.0,False
37165,6762, Note_on_c,77,76,3,3,1,90.0,True
37166,6762, Note_on_c,82,76,3,3,1,95.0,False
37167,6763, Note_on_c,68,76,3,3,1,79.0,False
37168,6763, Note_on_c,75,76,3,3,1,87.0,False
37169,6764, Note_on_c,77,76,3,3,1,90.0,True
37170,6764, Note_on_c,82,76,3,3,1,95.0,False
37171,6765, Note_on_c,68,76,3,3,1,79.0,False
37172,6765, Note_on_c,73,76,3,3,1,85.0,False
37173,6766, Note_on_c,70,76,3,3,1,81.0,False
37174,6767, Note_on_c,77,76,3,3,1,90.0,True
37175,6767, Note_on_c,82,76,3,3,1,95.0,False
37176,6768, Note_on_c,68,76,3,3,1,79.0,False
37177,6768, Note_on_c,75,76,3,3,1,87.0,False
37178,6769, Note_on_c,70,76,3,3,1,81.0,False
37179,6770, Note_on_c,77,76,3,3,1,90.0,True
37180,6770, Note_on_c,82,76,3,3,1,95.0,False
37181,6771, Note_on_c,68,76,3,3,1,79.0,False
37182,6771, Note_on_c,75,76,3,3,1,87.0,False
37183,6772, Note_on_c,77,76,3,3,1,90.0,True
37184,6772, Note_on_c,82,76,3,3,1,95.0,False
37185,6773, Note_on_c,68,76,3,3,1,79.0,False
37186,6773, Note_on_c,73,76,3,3,1,85.0,False
37187,6774, Note_on_c,70,76,3,3,1,81.0,False
37188,6775, Note_on_c,77,76,3,3,1,90.0,True
37189,6775, Note_on_c,82,76,3,3,1,95.0,False
37190,6776, Note_on_c,68,76,3,3,1,79.0,False
37191,6776, Note_on_c,75,76,3,3,1,87.0,False
37192,6777, Note_on_c,70,76,3,3,1,81.0,False
37193,6778, Note_on_c,77,76,3,3,1,90.0,True
37194,6778, Note_on_c,82,76,3,3,1,95.0,False
37195,6779, Note_on_c,68,76,3,3,1,79.0,False
37196,6779, Note_on_c,75,76,3,3,1,87.0,False
37197,6780, Note_on_c,77,76,3,3,1,90.0,True
37198,6780, Note_on_c,82,76,3,3,1,95.0,False
37199,6781, Note_on_c,68,76,3,3,1,79.0,False
37200,6781, Note_on_c,73,76,3,3,1,85.0,False
37201,6782, Note_on_c,70,76,3,3,1,81.0,False
37202,6783, Note_on_c,77,76,3,3,1,90.0,True
37203,6783, Note_on_c,82,76,3,3,1,95.0,False
37204,6784, Note_on_c,68,76,3,3,1,79.0,False
37205,6784, Note_on_c,75,76,3,3,1,87.0,False
37206,6785, Note_on_c,70,76,3,3,1,81.0,False
37207,6786, Note_on_c,77,76,3,3,1,90.0,True
37208,6786, Note_on_c,82,76,3,3,1,95.0,False
37209,6787, Note_on_c,68,76,3,3,1,79.0,False
37210,6787, Note_on_c,75,76,3,3,1,87.0,False
37211,6788, Note_on_c,77,76,3,3,1,90.0,True
37212,6788, Note_on_c,82,76,3,3,1,95.0,False
37213,6789, Note_on_c,68,76,3,3,1,79.0,False
37214,6789, Note_on_c,73,76,3,3,1,85.0,False
37215,6790, Note_on_c,70,76,3,3,1,81.0,False
37216,6791, Note_on_c,77,76,3,3,1,90.0,True
37217,6791, Note_on_c,82,76,3,3,1,95.0,False
37218,6792, Note_on_c,68,76,3,3,1,79.0,False
37219,6792, Note_on_c,75,76,3,3,1,87.0,False
37220,6793, Note_on_c,70,76,3,3,1,81.0,False
37221,6794, Note_on_c,77,76,3,3,1,90.0,True
37222,6794, Note_on_c,82,76,3,3,1,95.0,False
37223,6795, Note_on_c,68,76,3,3,1,79.0,False
37224,6795, Note_on_c,75,76,3,3,1,87.0,False
37225,6796, Note_on_c,77,76,3,3,1,90.0,True
37226,6796, Note_on_c,82,76,3,3,1,95.0,False
37227,6797, Note_on_c,68,76,3,3,1,79.0,False
37228,6797, Note_on_c,73,76,3,3,1,85.0,False
37229,6798, Note_on_c,70,76,3,3,1,81.0,False
37230,6799, Note_on_c,77,76,3,3,1,90.0,True
37231,6799, Note_on_c,82,76,3,3,1,95.0,False
37232,6800, Note_on_c,68,76,3,3,1,79.0,False
37233,6800, Note_on_c,75,76,3,3,1,87.0,False
37234,6801, Note_on_c,70,76,3,3,1,81.0,False
37235,6802, Note_on_c,77,76,3,3,1,90.0,True
37236,6802, Note_on_c,82,76,3,3,1,95.0,False
37237,6803, Note_on_c,68,76,3,3,1,79.0,False
37238,6803, Note_on_c,75,76,3,3,1,87.0,False
37239,6804, Note_on_c,77,76,3,3,1,90.0,True
37240,6804, Note_on_c,82,76,3,3,1,95.0,False
37241,6805, Note_on_c,68,76,3,3,1,79.0,False
37242,6805, Note_on_c,73,76,3,3,1,85.0,False
37243,6806, Note_on_c,70,76,3,3,1,81.0,False
37244,6807, Note_on_c,77,76,3,3,1,90.0,True
37245,6807, Note_on_c,82,76,3,3,1,95.0,False
37246,6808, Note_on_c,68,76,3,3,1,79.0,False
37247,6808, Note_on_c,75,76,3,3,1,87.0,False
37248,6809, Note_on_c,70,76,3,3,1,81.0,False
37249,6810, Note_on_c,77,76,3,3,1,90.0,True
37250,6810, Note_on_c,82,76,3,3,1,95.0,False
37251,6811, Note_on_c,68,76,3,3,1,79.0,False
37252,6811, Note_on_c,75,76,3,3,1,87.0,False
37253,6812, Note_on_c,77,76,3,3,1,90.0,True
37254,6812, Note_on_c,82,76,3,3,1,95.0,False
37255,6813, Note_on_c,68,76,3,3,1,79.0,False
37256,6813, Note_on_c,73,76,3,3,1,85.0,False
37257,6814, Note_on_c,70,76,3,3,1,81.0,False
37258,6815, Note_on_c,77,76,3,3,1,90.0,True
37259,6815, Note_on_c,82,76,3,3,1,95.0,False
37260,6816, Note_on_c,68,76,3,3,1,79.0,False
37261,6816, Note_on_c,75,76,3,3,1,87.0,False
37262,6817, Note_on_c,70,76,3,3,1,81.0,False
37263,6818, Note_on_c,77,76,3,3,1,90.0,True
37264,6818, Note_on_c,82,76,3,3,1,95.0,False
37265,6819, Note_on_c,68,76,3,3,1,79.0,False
37266,6819, Note_on_c,75,76,3,3,1,87.0,False
37267,6820, Note_on_c,77,76,3,3,1,90.0,True
37268,6820, Note_on_c,82,76,3,3,1,95.0,False
37269,6821, Note_on_c,68,76,3,3,1,79.0,False
37270,6821, Note_on_c,73,76,3,3,1,85.0,False
37271,6822, Note_on_c,70,76,3,3,1,81.0,False
37272,6823, Note_on_c,77,76,3,3,1,90.0,True
37273,6823, Note_on_c,82,76,3,3,1,95.0,False
37274,6824, Note_on_c,68,76,3,3,1,79.0,False
37275,6824, Note_on_c,75,76,3,3,1,87.0,False
37276,6825, Note_on_c,70,76,3,3,1,81.0,False
37277,6826, Note_on_c,77,76,3,3,1,90.0,True
37278,6826, Note_on_c,82,76,3,3,1,95.0,False
37279,6827, Note_on_c,68,76,3,3,1,79.0,False
37280,6827, Note_on_c,75,76,3,3,1,87.0,False
37281,6828, Note_on_c,77,76,3,3,1,90.0,True
37282,6828, Note_on_c,82,76,3,3,1,95.0,False
37283,6829, Note_on_c,68,76,3,3,1,79.0,False
37284,6829, Note_on_c,73,76,3,3,1,85.0,False
37285,6830, Note_on_c,70,76,3,3,1,81.0,False
37286,6831, Note_on_c,77,76,3,3,1,90.0,True
37287,6831, Note_on_c,82,76,3,3,1,95.0,False
37288,6832, Note_on_c,68,76,3,3,1,79.0,False
37289,6832, Note_on_c,75,76,3,3,1,87.0,False
37290,6833, Note_on_c,70,76,3,3,1,81.0,False
37291,6834, Note_on_c,77,76,3,3,1,90.0,True
37292,6834, Note_on_c,82,76,3,3,1,95.0,False
37293,6835, Note_on_c,68,76,3,3,1,79.0,False
37294,6835, Note_on_c,75,76,3,3,1,87.0,False
37295,6836, Note_on_c,77,76,3,3,1,90.0,True
37296,6836, Note_on_c,82,76,3,3,1,95.0,False
37297,6837, Note_on_c,68,76,3,3,1,79.0,False
37298,6837, Note_on_c,73,76,3,3,1,85.0,False
37299,6838, Note_on_c,70,76,3,3,1,81.0,False
37300,6839, Note_on_c,77,76,3,3,1,90.0,True
37301,6839, Note_on_c,82,76,3,3,1,95.0,False
37302,6840, Note_on_c,68,76,3,3,1,79.0,False
37303,6840, Note_on_c,75,76,3,3,1,87.0,False
37304,6841, Note_on_c,70,76,3,3,1,81.0,False
37305,6842, Note_on_c,77,76,3,3,1,90.0,True
37306,6842, Note_on_c,82,76,3,3,1,95.0,False
37307,6843, Note_on_c,68,76,3,3,1,79.0,False
37308,6843, Note_on_c,75,76,3,3,1,87.0,False
37309,6844, Note_on_c,77,76,3,3,1,90.0,True
37310,6844, Note_on_c,82,76,3,3,1,95.0,False
37311,6845, Note_on_c,68,76,3,3,1,79.0,False
37312,6845, Note_on_c,73,76,3,3,1,85.0,False
37313,6846, Note_on_c,70,76,3,3,1,81.0,False
37314,6847, Note_on_c,77,76,3,3,1,90.0,True
37315,6847, Note_on_c,82,76,3,3,1,95.0,False
37316,6848, Note_on_c,68,76,3,3,1,79.0,False
37317,6848, Note_on_c,75,76,3,3,1,87.0,False
37318,6849, Note_on_c,70,76,3,3,1,81.0,False
37319,6850, Note_on_c,77,76,3,3,1,90.0,True
37320,6850, Note_on_c,82,76,3,3,1,95.0,False
37321,6851, Note_on_c,68,76,3,3,1,79.0,False
37322,6851, Note_on_c,75,76,3,3,1,87.0,False
37323,6852, Note_on_c,77,76,3,3,1,90.0,True
37324,6852, Note_on_c,82,76,3,3,1,95.0,False
37325,6853, Note_on_c,68,76,3,3,1,79.0,False
37326,6853, Note_on_c,73,76,3,3,1,85.0,False
37327,6854, Note_on_c,70,76,3,3,1,81.0,False
37328,6855, Note_on_c,77,76,3,3,1,90.0,True
37329,6855, Note_on_c,82,76,3,3,1,95.0,False
37330,6856, Note_on_c,68,76,3,3,1,79.0,False
37331,6856, Note_on_c,75,76,3,3,1,87.0,False
37332,6857, Note_on_c,70,76,3,3,1,81.0,False
37333,6858, Note_on_c,77,76,3,3,1,90.0,True
37334,6858, Note_on_c,82,76,3,3,1,95.0,False
37335,6859, Note_on_c,68,76,3,3,1,79.0,False
37336,6859, Note_on_c,75,76,3,3,1,87.0,False
37337,6860, Note_on_c,77,76,3,3,1,90.0,True
37338,6860, Note_on_c,82,76,3,3,1,95.0,False
37339,6861, Note_on_c,68,76,3,3,1,79.0,False
37340,6861, Note_on_c,73,76,3,3,1,85.0,False
37341,6862, Note_on_c,70,76,3,3,1,81.0,False
37342,6863, Note_on_c,77,76,3,3,1,90.0,True
37343,6863, Note_on_c,82,76,3,3,1,95.0,False
37344,6864, Note_on_c,68,76,3,3,1,79.0,False
37345,6864, Note_on_c,75,76,3,3,1,87.0,False
37346,6865, Note_on_c,70,76,3,3,1,81.0,False
37347,6866, Note_on_c,77,76,3,3,1,90.0,True
37348,6866, Note_on_c,82,76,3,3,1,95.0,False
37349,6867, Note_on_c,68,76,3,3,1,79.0,False
37350,6867, Note_on_c,75,76,3,3,1,87.0,False
37351,6868, Note_on_c,77,76,3,3,1,90.0,True
37352,6868, Note_on_c,82,76,3,3,1,95.0,False
37353,6869, Note_on_c,68,76,3,3,1,79.0,False
37354,6869, Note_on_c,73,76,3,3,1,85.0,False
37355,6870, Note_on_c,70,76,3,3,1,81.0,False
37356,6871, Note_on_c,77,76,3,3,1,90.0,True
37357,6871, Note_on_c,82,76,3,3,1,95.0,False
37358,6872, Note_on_c,68,76,3,3,1,79.0,False
37359,6872, Note_on_c,75,76,3,3,1,87.0,False
37360,6873, Note_on_c,70,76,3,3,1,81.0,False
37361,6874, Note_on_c,77,76,3,3,1,90.0,True
37362,6874, Note_on_c,82,76,3,3,1,95.0,False
37363,6875, Note_on_c,68,76,3,3,1,79.0,False
37364,6875, Note_on_c,75,76,3,3,1,87.0,False
37365,6876, Note_on_c,77,76,3,3,1,90.0,True
37366,6876, Note_on_c,82,76,3,3,1,95.0,False
37367,6877, Note_on_c,68,76,3,3,1,79.0,False
37368,6877, Note_on_c,73,76,3,3,1,85.0,False
37369,6878, Note_on_c,70,76,3,3,1,81.0,False
37370,6879, Note_on_c,77,76,3,3,1,90.0,True
37371,6879, Note_on_c,82,76,3,3,1,95.0,False
37372,6880, Note_on_c,68,76,3,3,1,79.0,False
37373,6880, Note_on_c,75,76,3,3,1,87.0,False
37374,6881, Note_on_c,70,76,3,3,1,81.0,False
37375,6882, Note_on_c,77,76,3,3,1,90.0,True
37376,6882, Note_on_c,82,76,3,3,1,95.0,False
37377,6883, Note_on_c,68,76,3,3,1,79.0,False
37378,6883, Note_on_c,75,76,3,3,1,87.0,False
37379,6884, Note_on_c,77,76,3,3,1,90.0,True
37380,6884, Note_on_c,82,76,3,3,1,95.0,False
37381,6885, Note_on_c,68,76,3,3,1,79.0,False
37382,6885, Note_on_c,73,76,3,3,1,85.0,False
37383,6886, Note_on_c,70,76,3,3,1,81.0,False
37384,6887, Note_on_c,77,76,3,3,1,90.0,True
37385,6887, Note_on_c,82,76,3,3,1,95.0,False
37386,6888, Note_on_c,68,76,3,3,1,79.0,False
37387,6888, Note_on_c,75,76,3,3,1,87.0,False
37388,6889, Note_on_c,70,76,3,3,1,81.0,False
37389,6890, Note_on_c,77,76,3,3,1,90.0,True
37390,6890, Note_on_c,82,76,3,3,1,95.0,False
37391,6891, Note_on_c,68,76,3,3,1,79.0,False
37392,6891, Note_on_c,75,76,3,3,1,87.0,False
37393,6892, Note_on_c,77,76,3,3,1,90.0,True
37394,6892, Note_on_c,82,76,3,3,1,95.0,False
37395,6893, Note_on_c,68,76,3,3,1,79.0,False
37396,6893, Note_on_c,73,76,3,3,1,85.0,False
37397,6894, Note_on_c,70,76,3,3,1,81.0,False
37398,6895, Note_on_c,77,76,3,3,1,90.0,True
37399,6895, Note_on_c,82,76,3,3,1,95.0,False
37400,6896, Note_on_c,68,76,3,3,1,79.0,False
37401,6896, Note_on_c,75,76,3,3,1,87.0,False
37402,6897, Note_on_c,70,76,3,3,1,81.0,False
37403,6898, Note_on_c,77,76,3,3,1,90.0,True
37404,6898, Note_on_c,82,76,3,3,1,95.0,False
37405,6899, Note_on_c,68,76,3,3,1,79.0,False
37406,6899, Note_on_c,75,76,3,3,1,87.0,False
37407,6900, Note_on_c,77,76,3,3,1,90.0,True
37408,6900, Note_on_c,82,76,3,3,1,95.0,False
37409,6901, Note_on_c,68,76,3,3,1,79.0,False
37410,6901, Note_on_c,73,76,3,3,1,85.0,False
37411,6902, Note_on_c,70,76,3,3,1,81.0,False
37412,6903, Note_on_c,77,76,3,3,1,90.0,True
37413,6903, Note_on_c,82,76,3,3,1,95.0,False
37414,6904, Note_on_c,68,76,3,3,1,79.0,False
37415,6904, Note_on_c,75,76,3,3,1,87.0,False
37416,6905, Note_on_c,70,76,3,3,1,81.0,False
37417,6906, Note_on_c,77,76,3,3,1,90.0,True
37418,6906, Note_on_c,82,76,3,3,1,95.0,False
37419,6907, Note_on_c,68,76,3,3,1,79.0,False
37420,6907, Note_on_c,75,76,3,3,1,87.0,False
37421,6908, Note_on_c,77,76,3,3,1,90.0,True
37422,6908, Note_on_c,82,76,3,3,1,95.0,False
37423,6909, Note_on_c,68,76,3,3,1,79.0,False
37424,6909, Note_on_c,73,76,3,3,1,85.0,False
37425,6910, Note_on_c,70,76,3,3,1,81.0,False
37426,6911, Note_on_c,77,76,3,3,1,90.0,True
37427,6911, Note_on_c,82,76,3,3,1,95.0,False
37428,6912, Note_on_c,68,76,3,3,1,79.0,False
37429,6912, Note_on_c,75,76,3,3,1,87.0,False
37430,6913, Note_on_c,70,76,3,3,1,81.0,False
37431,6914, Note_on_c,77,76,3,3,1,90.0,True
37432,6914, Note_on_c,82,76,3,3,1,95.0,False
37433,6915, Note_on_c,68,76,3,3,1,79.0,False
37434,6915, Note_on_c,75,76,3,3,1,87.0,False
37435,6916, Note_on_c,77,76,3,3,1,90.0,True
37436,6916, Note_on_c,82,76,3,3,1,95.0,False
37437,6917, Note_on_c,68,76,3,3,1,79.0,False
37438,6917, Note_on_c,73,76,3,3,1,85.0,False
37439,6918, Note_on_c,70,76,3,3,1,81.0,False
37440,6919, Note_on_c,77,76,3,3,1,90.0,True
37441,6919, Note_on_c,82,76,3,3,1,95.0,False
37442,6920, Note_on_c,68,76,3,3,1,79.0,False
37443,6920, Note_on_c,75,76,3,3,1,87.0,False
37444,6921, Note_on_c,70,76,3,3,1,81.0,False
37445,6922, Note_on_c,77,76,3,3,1,90.0,True
37446,6922, Note_on_c,82,76,3,3,1,95.0,False
37447,6923, Note_on_c,68,76,3,3,1,79.0,False
37448,6923, Note_on_c,75,76,3,3,1,87.0,False
37449,6924, Note_on_c,77,76,3,3,1,90.0,True
37450,6924, Note_on_c,82,76,3,3,1,95.0,False
37451,6925, Note_on_c,68,76,3,3,1,79.0,False
37452,6925, Note_on_c,73,76,3,3,1,85.0,False
37453,6926, Note_on_c,70,76,3,3,1,81.0,False
37454,6927, Note_on_c,77,76,3,3,1,90.0,True
37455,6927, Note_on_c,82,76,3,3,1,95.0,False
37456,6928, Note_on_c,68,76,3,3,1,79.0,False
37457,6928, Note_on_c,75,76,3,3,1,87.0,False
37458,6929, Note_on_c,70,76,3,3,1,81.0,False
37459,6930, Note_on_c,77,76,3,3,1,90.0,True
37460,6930, Note_on_c,82,76,3,3,1,95.0,False
37461,6931, Note_on_c,68,76,3,3,1,79.0,False
37462,6931, Note_on_c,75,76,3,3,1,87.0,False
37463,6932, Note_on_c,77,76,3,3,1,90.0,True
37464,6932, Note_on_c,82,76,3,3,1,95.0,False
37465,6933, Note_on_c,68,76,3,3,1,79.0,False
37466,6933, Note_on_c,73,76,3,3,1,85.0,False
37467,6934, Note_on_c,70,76,3,3,1,81.0,False
37468,6935, Note_on_c,77,76,3,3,1,90.0,True
37469,6935, Note_on_c,82,76,3,3,1,95.0,False
37470,6936, Note_on_c,68,76,3,3,1,79.0,False
37471,6936, Note_on_c,75,76,3,3,1,87.0,False
37472,6937, Note_on_c,70,76,3,3,1,81.0,False
37473,6938, Note_on_c,77,76,3,3,1,90.0,True
37474,6938, Note_on_c,82,76,3,3,1,95.0,False
37475,6939, Note_on_c,68,76,3,3,1,79.0,False
37476,6939, Note_on_c,75,76,3,3,1,87.0,False
37477,6940, Note_on_c,77,76,3,3,1,90.0,True
37478,6940, Note_on_c,82,76,3,3,1,95.0,False
37479,6941, Note_on_c,68,76,3,3,1,79.0,False
37480,6941, Note_on_c,73,76,3,3,1,85.0,False
37481,6942, Note_on_c,70,76,3,3,1,81.0,False
37482,6943, Note_on_c,77,76,3,3,1,90.0,True
37483,6943, Note_on_c,82,76,3,3,1,95.0,False
37484,6944, Note_on_c,68,76,3,3,1,79.0,False
37485,6944, Note_on_c,75,76,3,3,1,87.0,False
37486,6945, Note_on_c,70,76,3,3,1,81.0,False
37487,6946, Note_on_c,77,76,3,3,1,90.0,True
37488,6946, Note_on_c,82,76,3,3,1,95.0,False
37489,6947, Note_on_c,68,76,3,3,1,79.0,False
37490,6947, Note_on_c,75,76,3,3,1,87.0,False
37491,6948, Note_on_c,77,76,3,3,1,90.0,True
37492,6948, Note_on_c,82,76,3,3,1,95.0,False
37493,6949, Note_on_c,68,76,3,3,1,79.0,False
37494,6949, Note_on_c,73,76,3,3,1,85.0,False
37495,6950, Note_on_c,70,76,3,3,1,81.0,False
37496,6951, Note_on_c,77,76,3,3,1,90.0,True
37497,6951, Note_on_c,82,76,3,3,1,95.0,False
37498,6952, Note_on_c,68,76,3,3,1,79.0,False
37499,6952, Note_on_c,75,76,3,3,1,87.0,False
37500,6953, Note_on_c,70,76,3,3,1,81.0,False
37501,6954, Note_on_c,77,76,3,3,1,90.0,True
37502,6954, Note_on_c,82,76,3,3,1,95.0,False
37503,6955, Note_on_c,68,76,3,3,1,79.0,False
37504,6955, Note_on_c,75,76,3,3,1,87.0,False
37505,6956, Note_on_c,77,76,3,3,1,90.0,True
37506,6956, Note_on_c,82,76,3,3,1,95.0,False
37507,6957, Note_on_c,68,76,3,3,1,79.0,False
37508,6957, Note_on_c,73,76,3,3,1,85.0,False
37509,6958, Note_on_c,70,76,3,3,1,81.0,False
37510,6959, Note_on_c,77,76,3,3,1,90.0,True
37511,6959, Note_on_c,82,76,3,3,1,95.0,False
37512,6960, Note_on_c,68,76,3,3,1,79.0,False
37513,6960, Note_on_c,75,76,3,3,1,87.0,False
37514,6961, Note_on_c,70,76,3,3,1,81.0,False
37515,6962, Note_on_c,77,76,3,3,1,90.0,True
37516,6962, Note_on_c,82,76,3,3,1,95.0,False
37517,6963, Note_on_c,68,76,3,3,1,79.0,False
37518,6963, Note_on_c,75,76,3,3,1,87.0,False
37519,6964, Note_on_c,77,76,3,3,1,90.0,True
37520,6964, Note_on_c,82,76,3,3,1,95.0,False
37521,6965, Note_on_c,68,76,3,3,1,79.0,False
37522,6965, Note_on_c,73,76,3,3,1,85.0,False
37523,6966, Note_on_c,70,76,3,3,1,81.0,False
37524,6967, Note_on_c,77,76,3,3,1,90.0,True
37525,6967, Note_on_c,82,76,3,3,1,95.0,False
37526,6968, Note_on_c,68,76,3,3,1,79.0,False
37527,6968, Note_on_c,75,76,3,3,1,87.0,False
37528,6969, Note_on_c,70,76,3,3,1,81.0,False
37529,6970, Note_on_c,77,76,3,3,1,90.0,True
37530,6970, Note_on_c,82,76,3,3,1,95.0,False
37531,6971, Note_on_c,68,76,3,3,1,79.0,False
37532,6971, Note_on_c,75,76,3,3,1,87.0,False
37533,6972, Note_on_c,77,76,3,3,1,90.0,True
37534,6972, Note_on_c,82,76,3,3,1,95.0,False
37535,6973, Note_on_c,68,76,3,3,1,79.0,False
37536,6973, Note_on_c,73,76,3,3,1,85.0,False
37537,6974, Note_on_c,70,76,3,3,1,81.0,False
37538,6975, Note_on_c,77,76,3,3,1,90.0,True
37539,6975, Note_on_c,82,76,3,3,1,95.0,False
37540,6976, Note_on_c,68,76,3,3,1,79.0,False
37541,6976, Note_on_c,75,76,3,3,1,87.0,False
37542,6977, Note_on_c,70,76,3,3,1,81.0,False
37543,6978, Note_on_c,77,76,3,3,1,90.0,True
37544,6978, Note_on_c,82,76,3,3,1,95.0,False
37545,6979, Note_on_c,68,76,3,3,1,79.0,False
37546,6979, Note_on_c,75,76,3,3,1,87.0,False
37547,6980, Note_on_c,77,76,3,3,1,90.0,True
37548,6980, Note_on_c,82,76,3,3,1,95.0,False
37549,6981, Note_on_c,68,76,3,3,1,79.0,False
37550,6981, Note_on_c,73,76,3,3,1,85.0,False
37551,6982, Note_on_c,70,76,3,3,1,81.0,False
37552,6983, Note_on_c,77,76,3,3,1,90.0,True
37553,6983, Note_on_c,82,76,3,3,1,95.0,False
37554,6984, Note_on_c,68,76,3,3,1,79.0,False
37555,6984, Note_on_c,75,76,3,3,1,87.0,False
37556,6985, Note_on_c,70,76,3,3,1,81.0,False
37557,6986, Note_on_c,77,76,3,3,1,90.0,True
37558,6986, Note_on_c,82,76,3,3,1,95.0,False
37559,6987, Note_on_c,68,76,3,3,1,79.0,False
37560,6987, Note_on_c,75,76,3,3,1,87.0,False
37561,6988, Note_on_c,77,76,3,3,1,90.0,True
37562,6988, Note_on_c,82,76,3,3,1,95.0,False
37563,6989, Note_on_c,68,76,3,3,1,79.0,False
37564,6989, Note_on_c,73,76,3,3,1,85.0,False
37565,6990, Note_on_c,70,76,3,3,1,81.0,False
37566,6991, Note_on_c,77,76,3,3,1,90.0,True
37567,6991, Note_on_c,82,76,3,3,1,95.0,False
37568,6992, Note_on_c,68,76,3,3,1,79.0,False
37569,6992, Note_on_c,75,76,3,3,1,87.0,False
37570,6993, Note_on_c,70,76,3,3,1,81.0,False
37571,6994, Note_on_c,77,76,3,3,1,90.0,True
37572,6994, Note_on_c,82,76,3,3,1,95.0,False
37573,6995, Note_on_c,68,76,3,3,1,79.0,False
37574,6995, Note_on_c,75,76,3,3,1,87.0,False
37575,6996, Note_on_c,77,76,3,3,1,90.0,True
37576,6996, Note_on_c,82,76,3,3,1,95.0,False
37577,6997, Note_on_c,68,76,3,3,1,79.0,False
37578,6997, Note_on_c,73,76,3,3,1,85.0,False
37579,6998, Note_on_c,70,76,3,3,1,81.0,False
37580,6999, Note_on_c,77,76,3,3,1,90.0,True
37581,6999, Note_on_c,82,76,3,3,1,95.0,False
37582,7000, Note_on_c,68,76,3,3,1,79.0,False
37583,7000, Note_on_c,75,76,3,3,1,87.0,False
37584,7001, Note_on_c,70,76,3,3,1,81.0,False
37585,7002, Note_on_c,77,76,3,3,1,90.0,True
37586,7002, Note_on_c,82,76,3,3,1,95.0,False
37587,7003, Note_on_c,68,76,3,3,1,79.0,False
37588,7003, Note_on_c,75,76,3,3,1,87.0,False
37589,7004, Note_on_c,77,76,3,3,1,90.0,True
37590,7004, Note_on_c,82,76,3,3,1,95.0,False
37591,7005, Note_on_c,68,76,3,3,1,79.0,False
37592,7005, Note_on_c,73,76,3,3,1,85.0,False
37593,7006, Note_on_c,70,76,3,3,1,81.0,False
37594,7007, Note_on_c,77,76,3,3,1,90.0,True
37595,7007, Note_on_c,82,76,3,3,1,95.0,False
37596,7008, Note_on_c,68,76,3,3,1,79.0,False
37597,7008, Note_on_c,75,76,3,3,1,87.0,False
37598,7009, Note_on_c,70,76,3,3,1,81.0,False
37599,7010, Note_on_c,77,76,3,3,1,90.0,True
37600,7010, Note_on_c,82,76,3,3,1,95.0,False
37601,7011, Note_on_c,68,76,3,3,1,79.0,False
37602,7011, Note_on_c,75,76,3,3,1,87.0,False
37603,7012, Note_on_c,77,76,3,3,1,90.0,True
37604,7012, Note_on_c,82,76,3,3,1,95.0,False
37605,7013, Note_on_c,68,76,3,3,1,79.0,False
37606,7013, Note_on_c,73,76,3,3,1,85.0,False
37607,7014, Note_on_c,70,76,3,3,1,81.0,False
37608,7015, Note_on_c,77,76,3,3,1,90.0,True
37609,7015, Note_on_c,82,76,3,3,1,95.0,False
37610,7016, Note_on_c,68,76,3,3,1,79.0,False
37611,7016, Note_on_c,75,76,3,3,1,87.0,False
37612,7017, Note_on_c,70,76,3,3,1,81.0,False
37613,7018, Note_on_c,77,76,3,3,1,90.0,True
37614,7018, Note_on_c,82,76,3,3,1,95.0,False
37615,7019, Note_on_c,68,76,3,3,1,79.0,False
37616,7019, Note_on_c,75,76,3,3,1,87.0,False
37617,7020, Note_on_c,77,76,3,3,1,90.0,True
37618,7020, Note_on_c,82,76,3,3,1,95.0,False
37619,7021, Note_on_c,68,76,3,3,1,79.0,False
37620,7021, Note_on_c,73,76,3,3,1,85.0,False
37621,7022, Note_on_c,70,76,3,3,1,81.0,False
37622,7023, Note_on_c,77,76,3,3,1,90.0,True
37623,7023, Note_on_c,82,76,3,3,1,95.0,False
37624,7024, Note_on_c,68,76,3,3,1,79.0,False
37625,7024, Note_on_c,75,76,3,3,1,87.0,False
37626,7025, Note_on_c,70,76,3,3,1,81.0,False
37627,7026, Note_on_c,77,76,3,3,1,90.0,True
37628,7026, Note_on_c,82,76,3,3,1,95.0,False
37629,7027, Note_on_c,68,76,3,3,1,79.0,False
37630,7027, Note_on_c,75,76,3,3,1,87.0,False
37631,7028, Note_on_c,77,76,3,3,1,90.0,True
37632,7028, Note_on_c,82,76,3,3,1,95.0,False
37633,7029, Note_on_c,68,76,3,3,1,79.0,False
37634,7029, Note_on_c,73,76,3,3,1,85.0,False
37635,7030, Note_on_c,70,76,3,3,1,81.0,False
37636,7031, Note_on_c,77,76,3,3,1,90.0,True
37637,7031, Note_on_c,82,76,3,3,1,95.0,False
37638,7032, Note_on_c,68,76,3,3,1,79.0,False
37639,7032, Note_on_c,75,76,3,3,1,87.0,False
37640,7033, Note_on_c,70,76,3,3,1,81.0,False
37641,7034, Note_on_c,77,76,3,3,1,90.0,True
37642,7034, Note_on_c,82,76,3,3,1,95.0,False
37643,7035, Note_on_c,68,76,3,3,1,79.0,False
37644,7035, Note_on_c,75,76,3,3,1,87.0,False
37645,7036, Note_on_c,77,76,3,3,1,90.0,True
37646,7036, Note_on_c,82,76,3,3,1,95.0,False
37647,7037, Note_on_c,68,76,3,3,1,79.0,False
37648,7037, Note_on_c,73,76,3,3,1,85.0,False
37649,7038, Note_on_c,70,76,3,3,1,81.0,False
37650,7039, Note_on_c,77,76,3,3,1,90.0,True
37651,7039, Note_on_c,82,76,3,3,1,95.0,False
37652,7040, Note_on_c,68,76,3,3,1,79.0,False
37653,7040, Note_on_c,75,76,3,3,1,87.0,False
37654,7041, Note_on_c,70,76,3,3,1,81.0,False
37655,7042, Note_on_c,77,76,3,3,1,90.0,True
37656,7042, Note_on_c,82,76,3,3,1,95.0,False
37657,7043, Note_on_c,68,76,3,3,1,79.0,False
37658,7043, Note_on_c,75,76,3,3,1,87.0,False
37659,7044, Note_on_c,77,76,3,3,1,90.0,True
37660,7044, Note_on_c,82,76,3,3,1,95.0,False
37661,7045, Note_on_c,68,76,3,3,1,79.0,False
37662,7045, Note_on_c,73,76,3,3,1,85.0,False
37663,7046, Note_on_c,70,76,3,3,1,81.0,False
37664,7047, Note_on_c,77,76,3,3,1,90.0,True
37665,7047, Note_on_c,82,76,3,3,1,95.0,False
37666,7048, Note_on_c,68,76,3,3,1,79.0,False
37667,7048, Note_on_c,75,76,3,3,1,87.0,False
37668,7049, Note_on_c,70,76,3,3,1,81.0,False
37669,7050, Note_on_c,77,76,3,3,1,90.0,True
37670,7050, Note_on_c,82,76,3,3,1,95.0,False
37671,7051, Note_on_c,68,76,3,3,1,79.0,False
37672,7051, Note_on_c,75,76,3,3,1,87.0,False
37673,7052, Note_on_c,77,76,3,3,1,90.0,True
37674,7052, Note_on_c,82,76,3,3,1,95.0,False
37675,7053, Note_on_c,68,76,3,3,1,79.0,False
37676,7053, Note_on_c,73,76,3,3,1,85.0,False
37677,7054, Note_on_c,70,76,3,3,1,81.0,False
37678,7055, Note_on_c,77,76,3,3,1,90.0,True
37679,7055, Note_on_c,82,76,3,3,1,95.0,False
37680,7056, Note_on_c,68,76,3,3,1,79.0,False
37681,7056, Note_on_c,75,76,3,3,1,87.0,False
37682,7057, Note_on_c,70,76,3,3,1,81.0,False
37683,7058, Note_on_c,77,76,3,3,1,90.0,True
37684,7058, Note_on_c,82,76,3,3,1,95.0,False
37685,7059, Note_on_c,68,76,3,3,1,79.0,False
37686,7059, Note_on_c,75,76,3,3,1,87.0,False
37687,7060, Note_on_c,77,76,3,3,1,90.0,True
37688,7060, Note_on_c,82,76,3,3,1,95.0,False
37689,7061, Note_on_c,68,76,3,3,1,79.0,False
37690,7061, Note_on_c,73,76,3,3,1,85.0,False
37691,7062, Note_on_c,70,76,3,3,1,81.0,False
37692,7063, Note_on_c,77,76,3,3,1,90.0,True
37693,7063, Note_on_c,82,76,3,3,1,95.0,False
37694,7064, Note_on_c,68,76,3,3,1,79.0,False
37695,7064, Note_on_c,75,76,3,3,1,87.0,False
37696,7065, Note_on_c,70,76,3,3,1,81.0,False
37697,7066, Note_on_c,77,76,3,3,1,90.0,True
37698,7066, Note_on_c,82,76,3,3,1,95.0,False
37699,7067, Note_on_c,68,76,3,3,1,79.0,False
37700,7067, Note_on_c,75,76,3,3,1,87.0,False
37701,7068, Note_on_c,77,76,3,3,1,90.0,True
37702,7068, Note_on_c,82,76,3,3,1,95.0,False
37703,7069, Note_on_c,68,76,3,3,1,79.0,False
37704,7069, Note_on_c,73,76,3,3,1,85.0,False
37705,7070, Note_on_c,70,76,3,3,1,81.0,False
37706,7071, Note_on_c,77,76,3,3,1,90.0,True
37707,7071, Note_on_c,82,76,3,3,1,95.0,False
37708,7072, Note_on_c,68,76,3,3,1,79.0,False
37709,7072, Note_on_c,75,76,3,3,1,87.0,False
37710,7073, Note_on_c,70,76,3,3,1,81.0,False
37711,7074, Note_on_c,77,76,3,3,1,90.0,True
37712,7074, Note_on_c,82,76,3,3,1,95.0,False
37713,7075, Note_on_c,68,76,3,3,1,79.0,False
37714,7075, Note_on_c,75,76,3,3,1,87.0,False
37715,7076, Note_on_c,77,76,3,3,1,90.0,True
37716,7076, Note_on_c,82,76,3,3,1,95.0,False
37717,7077, Note_on_c,68,76,3,3,1,79.0,False
37718,7077, Note_on_c,73,76,3,3,1,85.0,False
37719,7078, Note_on_c,70,76,3,3,1,81.0,False
37720,7079, Note_on_c,77,76,3,3,1,90.0,True
37721,7079, Note_on_c,82,76,3,3,1,95.0,False
37722,7080, Note_on_c,68,76,3,3,1,79.0,False
37723,7080, Note_on_c,75,76,3,3,1,87.0,False
37724,7081, Note_on_c,70,76,3,3,1,81.0,False
37725,7082, Note_on_c,77,76,3,3,1,90.0,True
37726,7082, Note_on_c,82,76,3,3,1,95.0,False
37727,7083, Note_on_c,68,76,3,3,1,79.0,False
37728,7083, Note_on_c,75,76,3,3,1,87.0,False
37729,7084, Note_on_c,77,76,3,3,1,90.0,True
37730,7084, Note_on_c,82,76,3,3,1,95.0,False
37731,7085, Note_on_c,68,76,3,3,1,79.0,False
37732,7085, Note_on_c,73,76,3,3,1,85.0,False
37733,7086, Note_on_c,70,76,3,3,1,81.0,False
37734,7087, Note_on_c,77,76,3,3,1,90.0,True
37735,7087, Note_on_c,82,76,3,3,1,95.0,False
37736,7088, Note_on_c,68,76,3,3,1,79.0,False
37737,7088, Note_on_c,75,76,3,3,1,87.0,False
37738,7089, Note_on_c,70,76,3,3,1,81.0,False
37739,7090, Note_on_c,77,76,3,3,1,90.0,True
37740,7090, Note_on_c,82,76,3,3,1,95.0,False
37741,7091, Note_on_c,68,76,3,3,1,79.0,False
37742,7091, Note_on_c,75,76,3,3,1,87.0,False
37743,7092, Note_on_c,77,76,3,3,1,90.0,True
37744,7092, Note_on_c,82,76,3,3,1,95.0,False
37745,7093, Note_on_c,68,76,3,3,1,79.0,False
37746,7093, Note_on_c,73,76,3,3,1,85.0,False
37747,7094, Note_on_c,70,76,3,3,1,81.0,False
37748,7095, Note_on_c,77,76,3,3,1,90.0,True
37749,7095, Note_on_c,82,76,3,3,1,95.0,False
37750,7096, Note_on_c,68,76,3,3,1,79.0,False
37751,7096, Note_on_c,75,76,3,3,1,87.0,False
37752,7097, Note_on_c,70,76,3,3,1,81.0,False
37753,7098, Note_on_c,77,76,3,3,1,90.0,True
37754,7098, Note_on_c,82,76,3,3,1,95.0,False
37755,7099, Note_on_c,68,76,3,3,1,79.0,False
37756,7099, Note_on_c,75,76,3,3,1,87.0,False
37757,7100, Note_on_c,77,76,3,3,1,90.0,True
37758,7100, Note_on_c,82,76,3,3,1,95.0,False
37759,7101, Note_on_c,68,76,3,3,1,79.0,False
37760,7101, Note_on_c,73,76,3,3,1,85.0,False
37761,7102, Note_on_c,70,76,3,3,1,81.0,False
37762,7103, Note_on_c,77,76,3,3,1,90.0,True
37763,7103, Note_on_c,82,76,3,3,1,95.0,False
37764,7104, Note_on_c,68,76,3,3,1,79.0,False
37765,7104, Note_on_c,75,76,3,3,1,87.0,False
37766,7105, Note_on_c,70,76,3,3,1,81.0,False
37767,7106, Note_on_c,77,76,3,3,1,90.0,True
37768,7106, Note_on_c,82,76,3,3,1,95.0,False
37769,7107, Note_on_c,68,76,3,3,1,79.0,False
37770,7107, Note_on_c,75,76,3,3,1,87.0,False
37771,7108, Note_on_c,77,76,3,3,1,90.0,True
37772,7108, Note_on_c,82,76,3,3,1,95.0,False
37773,7109, Note_on_c,68,76,3,3,1,79.0,False
37774,7109, Note_on_c,73,76,3,3,1,85.0,False
37775,7110, Note_on_c,70,76,3,3,1,81.0,False
37776,7111, Note_on_c,77,76,3,3,1,90.0,True
37777,7111, Note_on_c,82,76,3,3,1,95.0,False
37778,7112, Note_on_c,68,76,3,3,1,79.0,False
37779,7112, Note_on_c,75,76,3,3,1,87.0,False
37780,7113, Note_on_c,70,76,3,3,1,81.0,False
37781,7114, Note_on_c,77,76,3,3,1,90.0,True
37782,7114, Note_on_c,82,76,3,3,1,95.0,False
37783,7115, Note_on_c,68,76,3,3,1,79.0,False
37784,7115, Note_on_c,75,76,3,3,1,87.0,False
37785,7116, Note_on_c,77,76,3,3,1,90.0,True
37786,7116, Note_on_c,82,76,3,3,1,95.0,False
37787,7117, Note_on_c,68,76,3,3,1,79.0,False
37788,7117, Note_on_c,73,76,3,3,1,85.0,False
37789,7118, Note_on_c,70,76,3,3,1,81.0,False
37790,7119, Note_on_c,77,76,3,3,1,90.0,True
37791,7119, Note_on_c,82,76,3,3,1,95.0,False
37792,7120, Note_on_c,68,76,3,3,1,79.0,False
37793,7120, Note_on_c,75,76,3,3,1,87.0,False
37794,7121, Note_on_c,70,76,3,3,1,81.0,False
37795,7122, Note_on_c,77,76,3,3,1,90.0,True
37796,7122, Note_on_c,82,76,3,3,1,95.0,False
37797,7123, Note_on_c,68,76,3,3,1,79.0,False
37798,7123, Note_on_c,75,76,3,3,1,87.0,False
37799,7124, Note_on_c,77,76,3,3,1,90.0,True
37800,7124, Note_on_c,82,76,3,3,1,95.0,False
37801,7125, Note_on_c,68,76,3,3,1,79.0,False
37802,7125, Note_on_c,73,76,3,3,1,85.0,False
37803,7126, Note_on_c,70,76,3,3,1,81.0,False
37804,7127, Note_on_c,77,76,3,3,1,90.0,True
37805,7127, Note_on_c,82,76,3,3,1,95.0,False
37806,7128, Note_on_c,68,76,3,3,1,79.0,False
37807,7128, Note_on_c,75,76,3,3,1,87.0,False
37808,7129, Note_on_c,70,76,3,3,1,81.0,False
37809,7130, Note_on_c,77,76,3,3,1,90.0,True
37810,7130, Note_on_c,82,76,3,3,1,95.0,False
37811,7131, Note_on_c,68,76,3,3,1,79.0,False
37812,7131, Note_on_c,75,76,3,3,1,87.0,False
37813,7132, Note_on_c,77,76,3,3,1,90.0,True
37814,7132, Note_on_c,82,76,3,3,1,95.0,False
37815,7133, Note_on_c,68,76,3,3,1,79.0,False
37816,7133, Note_on_c,73,76,3,3,1,85.0,False
37817,7134, Note_on_c,70,76,3,3,1,81.0,False
37818,7135, Note_on_c,77,76,3,3,1,90.0,True
37819,7135, Note_on_c,82,76,3,3,1,95.0,False
37820,7136, Note_on_c,68,76,3,3,1,79.0,False
37821,7136, Note_on_c,75,76,3,3,1,87.0,False
37822,7137, Note_on_c,70,76,3,3,1,81.0,False
37823,7138, Note_on_c,77,76,3,3,1,90.0,True
37824,7138, Note_on_c,82,76,3,3,1,95.0,False
37825,7139, Note_on_c,68,76,3,3,1,79.0,False
37826,7139, Note_on_c,75,76,3,3,1,87.0,False
37827,7140, Note_on_c,77,76,3,3,1,90.0,True
37828,7140, Note_on_c,82,76,3,3,1,95.0,False
37829,7141, Note_on_c,68,76,3,3,1,79.0,False
37830,7141, Note_on_c,73,76,3,3,1,85.0,False
37831,7142, Note_on_c,70,76,3,3,1,81.0,False
37832,7143, Note_on_c,77,76,3,3,1,90.0,True
37833,7143, Note_on_c,82,76,3,3,1,95.0,False
37834,7144, Note_on_c,68,76,3,3,1,79.0,False
37835,7144, Note_on_c,75,76,3,3,1,87.0,False
37836,7145, Note_on_c,70,76,3,3,1,81.0,False
37837,7146, Note_on_c,77,76,3,3,1,90.0,True
37838,7146, Note_on_c,82,76,3,3,1,95.0,False
37839,7147, Note_on_c,68,76,3,3,1,79.0,False
37840,7147, Note_on_c,75,76,3,3,1,87.0,False
37841,7148, Note_on_c,77,76,3,3,1,90.0,True
37842,7148, Note_on_c,82,76,3,3,1,95.0,False
37843,7149, Note_on_c,68,76,3,3,1,79.0,False
37844,7149, Note_on_c,73,76,3,3,1,85.0,False
37845,7150, Note_on_c,70,76,3,3,1,81.0,False
37846,7151, Note_on_c,77,76,3,3,1,90.0,True
37847,7151, Note_on_c,82,76,3,3,1,95.0,False
37848,7152, Note_on_c,68,76,3,3,1,79.0,False
37849,7152, Note_on_c,75,76,3,3,1,87.0,False
37850,7153, Note_on_c,70,76,3,3,1,81.0,False
37851,7154, Note_on_c,77,76,3,3,1,90.0,True
37852,7154, Note_on_c,82,76,3,3,1,95.0,False
37853,7155, Note_on_c,68,76,3,3,1,79.0,False
37854,7155, Note_on_c,75,76,3,3,1,87.0,False
37855,7156, Note_on_c,77,76,3,3,1,90.0,True
37856,7156, Note_on_c,82,76,3,3,1,95.0,False
37857,7157, Note_on_c,68,76,3,3,1,79.0,False
37858,7157, Note_on_c,73,76,3,3,1,85.0,False
37859,7158, Note_on_c,70,76,3,3,1,81.0,False
37860,7159, Note_on_c,77,76,3,3,1,90.0,True
37861,7159, Note_on_c,82,76,3,3,1,95.0,False
37862,7160, Note_on_c,68,76,3,3,1,79.0,False
37863,7160, Note_on_c,75,76,3,3,1,87.0,False
37864,7161, Note_on_c,70,76,3,3,1,81.0,False
37865,7162, Note_on_c,77,76,3,3,1,90.0,True
37866,7162, Note_on_c,82,76,3,3,1,95.0,False
37867,7163, Note_on_c,68,76,3,3,1,79.0,False
37868,7163, Note_on_c,75,76,3,3,1,87.0,False
37869,7164, Note_on_c,77,76,3,3,1,90.0,True
37870,7164, Note_on_c,82,76,3,3,1,95.0,False
37871,7165, Note_on_c,68,76,3,3,1,79.0,False
37872,7165, Note_on_c,73,76,3,3,1,85.0,False
37873,7166, Note_on_c,70,76,3,3,1,81.0,False
37874,7167, Note_on_c,77,76,3,3,1,90.0,True
37875,7167, Note_on_c,82,76,3,3,1,95.0,False
37876,7168, Note_on_c,68,76,3,3,1,79.0,False
37877,7168, Note_on_c,75,76,3,3,1,87.0,False
37878,7169, Note_on_c,70,76,3,3,1,81.0,False
37879,7170, Note_on_c,77,76,3,3,1,90.0,True
37880,7170, Note_on_c,82,76,3,3,1,95.0,False
37881,7171, Note_on_c,68,76,3,3,1,79.0,False
37882,7171, Note_on_c,75,76,3,3,1,87.0,False
37883,7172, Note_on_c,77,76,3,3,1,90.0,True
37884,7172, Note_on_c,82,76,3,3,1,95.0,False
37885,7173, Note_on_c,68,76,3,3,1,79.0,False
37886,7173, Note_on_c,73,76,3,3,1,85.0,False
37887,7174, Note_on_c,70,76,3,3,1,81.0,False
37888,7175, Note_on_c,77,76,3,3,1,90.0,True
37889,7175, Note_on_c,82,76,3,3,1,95.0,False
37890,7176, Note_on_c,68,76,3,3,1,79.0,False
37891,7176, Note_on_c,75,76,3,3,1,87.0,False
37892,7177, Note_on_c,70,76,3,3,1,81.0,False
37893,7178, Note_on_c,77,76,3,3,1,90.0,True
37894,7178, Note_on_c,82,76,3,3,1,95.0,False
37895,7179, Note_on_c,68,76,3,3,1,79.0,False
37896,7179, Note_on_c,75,76,3,3,1,87.0,False
37897,7180, Note_on_c,77,76,3,3,1,90.0,True
37898,7180, Note_on_c,82,76,3,3,1,95.0,False
37899,7181, Note_on_c,68,76,3,3,1,79.0,False
37900,7181, Note_on_c,73,76,3,3,1,85.0,False
37901,7182, Note_on_c,70,76,3,3,1,81.0,False
37902,7183, Note_on_c,77,76,3,3,1,90.0,True
37903,7183, Note_on_c,82,76,3,3,1,95.0,False
37904,7184, Note_on_c,68,76,3,3,1,79.0,False
37905,7184, Note_on_c,75,76,3,3,1,87.0,False
37906,7185, Note_on_c,70,76,3,3,1,81.0,False
37907,7186, Note_on_c,77,76,3,3,1,90.0,True
37908,7186, Note_on_c,82,76,3,3,1,95.0,False
37909,7187, Note_on_c,68,76,3,3,1,79.0,False
37910,7187, Note_on_c,75,76,3,3,1,87.0,False
37911,7188, Note_on_c,77,76,3,3,1,90.0,True
37912,7188, Note_on_c,82,76,3,3,1,95.0,False
37913,7189, Note_on_c,68,76,3,3,1,79.0,False
37914,7189, Note_on_c,73,76,3,3,1,85.0,False
37915,7190, Note_on_c,70,76,3,3,1,81.0,False
37916,7191, Note_on_c,77,76,3,3,1,90.0,True
37917,7191, Note_on_c,82,76,3,3,1,95.0,False
37918,7192, Note_on_c,68,76,3,3,1,79.0,False
37919,7192, Note_on_c,75,76,3,3,1,87.0,False
37920,7193, Note_on_c,70,76,3,3,1,81.0,False
37921,7194, Note_on_c,77,76,3,3,1,90.0,True
37922,7194, Note_on_c,82,76,3,3,1,95.0,False
37923,7195, Note_on_c,68,76,3,3,1,79.0,False
37924,7195, Note_on_c,75,76,3,3,1,87.0,False
37925,7196, Note_on_c,77,76,3,3,1,90.0,True
37926,7196, Note_on_c,82,76,3,3,1,95.0,False
37927,7197, Note_on_c,68,76,3,3,1,79.0,False
37928,7197, Note_on_c,73,76,3,3,1,85.0,False
37929,7198, Note_on_c,70,76,3,3,1,81.0,False
37930,7199, Note_on_c,77,76,3,3,1,90.0,True
37931,7199, Note_on_c,82,76,3,3,1,95.0,False
37932,7200, Note_on_c,68,76,3,3,1,79.0,False
37933,7200, Note_on_c,75,76,3,3,1,87.0,False
37934,7201, Note_on_c,70,76,3,3,1,81.0,False
37935,7202, Note_on_c,77,76,3,3,1,90.0,True
37936,7202, Note_on_c,82,76,3,3,1,95.0,False
37937,7203, Note_on_c,68,76,3,3,1,79.0,False
37938,7203, Note_on_c,75,76,3,3,1,87.0,False
37939,7204, Note_on_c,77,76,3,3,1,90.0,True
37940,7204, Note_on_c,82,76,3,3,1,95.0,False
37941,7205, Note_on_c,68,76,3,3,1,79.0,False
37942,7205, Note_on_c,73,76,3,3,1,85.0,False
37943,7206, Note_on_c,70,76,3,3,1,81.0,False
37944,7207, Note_on_c,77,76,3,3,1,90.0,True
37945,7207, Note_on_c,82,76,3,3,1,95.0,False
37946,7208, Note_on_c,68,76,3,3,1,79.0,False
37947,7208, Note_on_c,75,76,3,3,1,87.0,False
37948,7209, Note_on_c,70,76,3,3,1,81.0,False
37949,7210, Note_on_c,77,76,3,3,1,90.0,True
37950,7210, Note_on_c,82,76,3,3,1,95.0,False
37951,7211, Note_on_c,68,76,3,3,1,79.0,False
37952,7211, Note_on_c,75,76,3,3,1,87.0,False
37953,7212, Note_on_c,77,76,3,3,1,90.0,True
37954,7212, Note_on_c,82,76,3,3,1,95.0,False
37955,7213, Note_on_c,68,76,3,3,1,79.0,False
37956,7213, Note_on_c,73,76,3,3,1,85.0,False
37957,7214, Note_on_c,70,76,3,3,1,81.0,False
37958,7215, Note_on_c,77,76,3,3,1,90.0,True
37959,7215, Note_on_c,82,76,3,3,1,95.0,False
37960,7216, Note_on_c,68,76,3,3,1,79.0,False
37961,7216, Note_on_c,75,76,3,3,1,87.0,False
37962,7217, Note_on_c,70,76,3,3,1,81.0,False
37963,7218, Note_on_c,77,76,3,3,1,90.0,True
37964,7218, Note_on_c,82,76,3,3,1,95.0,False
37965,7219, Note_on_c,68,76,3,3,1,79.0,False
37966,7219, Note_on_c,75,76,3,3,1,87.0,False
37967,7220, Note_on_c,77,76,3,3,1,90.0,True
37968,7220, Note_on_c,82,76,3,3,1,95.0,False
37969,7221, Note_on_c,68,76,3,3,1,79.0,False
37970,7221, Note_on_c,73,76,3,3,1,85.0,False
37971,7222, Note_on_c,70,76,3,3,1,81.0,False
37972,7223, Note_on_c,77,76,3,3,1,90.0,True
37973,7223, Note_on_c,82,76,3,3,1,95.0,False
37974,7224, Note_on_c,68,76,3,3,1,79.0,False
37975,7224, Note_on_c,75,76,3,3,1,87.0,False
37976,7225, Note_on_c,70,76,3,3,1,81.0,False
37977,7226, Note_on_c,77,76,3,3,1,90.0,True
37978,7226, Note_on_c,82,76,3,3,1,95.0,False
37979,7227, Note_on_c,68,76,3,3,1,79.0,False
37980,7227, Note_on_c,75,76,3,3,1,87.0,False
37981,7228, Note_on_c,77,76,3,3,1,90.0,True
37982,7228, Note_on_c,82,76,3,3,1,95.0,False
37983,7229, Note_on_c,68,76,3,3,1,79.0,False
37984,7229, Note_on_c,73,76,3,3,1,85.0,False
37985,7230, Note_on_c,70,76,3,3,1,81.0,False
37986,7231, Note_on_c,77,76,3,3,1,90.0,True
37987,7231, Note_on_c,82,76,3,3,1,95.0,False
37988,7232, Note_on_c,68,76,3,3,1,79.0,False
37989,7232, Note_on_c,75,76,3,3,1,87.0,False
37990,7233, Note_on_c,70,76,3,3,1,81.0,False
37991,7234, Note_on_c,77,76,3,3,1,90.0,True
37992,7234, Note_on_c,82,76,3,3,1,95.0,False
37993,7235, Note_on_c,68,76,3,3,1,79.0,False
37994,7235, Note_on_c,75,76,3,3,1,87.0,False
37995,7236, Note_on_c,77,76,3,3,1,90.0,True
37996,7236, Note_on_c,82,76,3,3,1,95.0,False
37997,7237, Note_on_c,68,76,3,3,1,79.0,False
37998,7237, Note_on_c,73,76,3,3,1,85.0,False
37999,7238, Note_on_c,70,76,3,3,1,81.0,False
38000,7239, Note_on_c,77,76,3,3,1,90.0,True
38001,7239, Note_on_c,82,76,3,3,1,95.0,False
38002,7240, Note_on_c,68,76,3,3,1,79.0,False
38003,7240, Note_on_c,75,76,3,3,1,87.0,False
38004,7241, Note_on_c,70,76,3,3,1,81.0,False
38005,7242, Note_on_c,77,76,3,3,1,90.0,True
38006,7242, Note_on_c,82,76,3,3,1,95.0,False
38007,7243, Note_on_c,68,76,3,3,1,79.0,False
38008,7243, Note_on_c,75,76,3,3,1,87.0,False
38009,7244, Note_on_c,77,76,3,3,1,90.0,True
38010,7244, Note_on_c,82,76,3,3,1,95.0,False
38011,7245, Note_on_c,68,76,3,3,1,79.0,False
38012,7245, Note_on_c,73,76,3,3,1,85.0,False
38013,7246, Note_on_c,70,76,3,3,1,81.0,False
38014,7247, Note_on_c,77,76,3,3,1,90.0,True
38015,7247, Note_on_c,82,76,3,3,1,95.0,False
38016,7248, Note_on_c,68,76,3,3,1,79.0,False
38017,7248, Note_on_c,75,76,3,3,1,87.0,False
38018,7249, Note_on_c,70,76,3,3,1,81.0,False
38019,7250, Note_on_c,77,76,3,3,1,90.0,True
38020,7250, Note_on_c,82,76,3,3,1,95.0,False
38021,7251, Note_on_c,68,76,3,3,1,79.0,False
38022,7251, Note_on_c,75,76,3,3,1,87.0,False
38023,7252, Note_on_c,77,76,3,3,1,90.0,True
38024,7252, Note_on_c,82,76,3,3,1,95.0,False
38025,7253, Note_on_c,68,76,3,3,1,79.0,False
38026,7253, Note_on_c,73,76,3,3,1,85.0,False
38027,7254, Note_on_c,70,76,3,3,1,81.0,False
38028,7255, Note_on_c,77,76,3,3,1,90.0,True
38029,7255, Note_on_c,82,76,3,3,1,95.0,False
38030,7256, Note_on_c,68,76,3,3,1,79.0,False
38031,7256, Note_on_c,75,76,3,3,1,87.0,False
38032,7257, Note_on_c,70,76,3,3,1,81.0,False
38033,7258, Note_on_c,77,76,3,3,1,90.0,True
38034,7258, Note_on_c,82,76,3,3,1,95.0,False
38035,7259, Note_on_c,68,76,3,3,1,79.0,False
38036,7259, Note_on_c,75,76,3,3,1,87.0,False
38037,7260, Note_on_c,77,76,3,3,1,90.0,True
38038,7260, Note_on_c,82,76,3,3,1,95.0,False
38039,7261, Note_on_c,68,76,3,3,1,79.0,False
38040,7261, Note_on_c,73,76,3,3,1,85.0,False
38041,7262, Note_on_c,70,76,3,3,1,81.0,False
38042,7263, Note_on_c,77,76,3,3,1,90.0,True
38043,7263, Note_on_c,82,76,3,3,1,95.0,False
38044,7264, Note_on_c,68,76,3,3,1,79.0,False
38045,7264, Note_on_c,75,76,3,3,1,87.0,False
38046,7265, Note_on_c,70,78,3,3,1,81.0,False
38047,7266, Note_on_c,77,78,3,3,1,90.0,True
38048,7266, Note_on_c,82,78,3,3,1,95.0,False
38049,7267, Note_on_c,68,79,3,3,1,79.0,False
38050,7267, Note_on_c,75,79,3,3,1,87.0,False
38051,7268, Note_on_c,77,80,3,3,1,90.0,True
38052,7268, Note_on_c,82,80,3,3,1,95.0,False
38053,7269, Note_on_c,68,80,3,3,1,79.0,False
38054,7269, Note_on_c,73,80,3,3,1,85.0,False
38055,7270, Note_on_c,70,81,3,3,1,81.0,False
38056,7271, Note_on_c,77,81,3,3,1,90.0,True
38057,7271, Note_on_c,82,81,3,3,1,95.0,False
38058,7272, Note_on_c,68,82,3,3,1,79.0,False
38059,7272, Note_on_c,75,82,3,3,1,87.0,False
38060,7273, Note_on_c,70,83,3,3,1,81.0,False
38061,7274, Note_on_c,77,83,3,3,1,90.0,True
38062,7274, Note_on_c,82,83,3,3,1,95.0,False
38063,7275, Note_on_c,68,84,3,3,1,79.0,False
38064,7275, Note_on_c,75,84,3,3,1,87.0,False
38065,7276, Note_on_c,77,85,3,3,1,90.0,True
38066,7276, Note_on_c,82,85,3,3,1,95.0,False
38067,7277, Note_on_c,68,85,3,3,1,79.0,False
38068,7277, Note_on_c,73,85,3,3,1,85.0,False
38069,7278, Note_on_c,70,86,3,3,1,81.0,False
38070,7279, Note_on_c,77,86,3,3,1,90.0,True
38071,7279, Note_on_c,82,86,3,3,1,95.0,False
38072,7280, Note_on_c,68,87,3,3,1,79.0,False
38073,7280, Note_on_c,75,87,3,3,1,87.0,False
38074,7281, Note_on_c,70,88,3,3,1,81.0,False
38075,7282, Note_on_c,77,88,3,3,1,90.0,True
38076,7282, Note_on_c,82,88,3,3,1,95.0,False
38077,7283, Note_on_c,68,89,3,3,1,79.0,False
38078,7283, Note_on_c,75,89,3,3,1,87.0,False
38079,7284, Note_on_c,77,89,3,3,1,90.0,True
38080,7284, Note_on_c,82,89,3,3,1,95.0,False
38081,7285, Note_on_c,68,90,3,3,1,79.0,False
38082,7285, Note_on_c,73,90,3,3,1,85.0,False
38083,7286, Note_on_c,70,91,3,3,1,81.0,False
38084,7287, Note_on_c,77,91,3,3,1,90.0,True
38085,7287, Note_on_c,82,91,3,3,1,95.0,False
38086,7288, Note_on_c,68,92,3,3,1,79.0,False
38087,7288, Note_on_c,75,92,3,3,1,87.0,False
38088,7289, Note_on_c,70,93,3,3,1,81.0,False
38089,7290, Note_on_c,77,93,3,3,1,90.0,True
38090,7290, Note_on_c,82,93,3,3,1,95.0,False
38091,7291, Note_on_c,68,94,3,3,1,79.0,False
38092,7291, Note_on_c,75,94,3,3,1,87.0,False
38093,7292, Note_on_c,77,94,3,3,1,90.0,True
38094,7292, Note_on_c,82,94,3,3,1,95.0,False
38095,7293, Note_on_c,68,95,3,3,1,79.0,False
38096,7293, Note_on_c,73,95,3,3,1,85.0,False
38097,7294, Note_on_c,70,96,3,3,1,81.0,False
38098,7295, Note_on_c,77,96,3,3,1,90.0,True
38099,7295, Note_on_c,82,96,3,3,1,95.0,False
38100,7296, Note_on_c,68,97,3,3,1,79.0,False
38101,7296, Note_on_c,75,97,3,3,1,87.0,False
38102,7297, Note_on_c,70,98,3,3,1,81.0,False
38103,7298, Note_on_c,77,98,3,3,1,90.0,True
38104,7298, Note_on_c,82,98,3,3,1,95.0,False
38105,7299, Note_on_c,68,99,3,3,1,79.0,False
38106,7299, Note_on_c,75,99,3,3,1,87.0,False
38107,7300, Note_on_c,77,99,3,3,1,90.0,True
38108,7300, Note_on_c,82,99,3,3,1,95.0,False
38109,7301, Note_on_c,68,100,3,3,1,79.0,False
38110,7301, Note_on_c,73,100,3,3,1,85.0,False
38111,7302, Note_on_c,70,101,3,3,1,81.0,False
38112,7303, Note_on_c,77,101,3,3,1,90.0,True
38113,7303, Note_on_c,82,101,3,3,1,95.0,False
38114,7304, Note_on_c,68,102,3,3,1,79.0,False
38115,7304, Note_on_c,75,102,3,3,1,87.0,False
38116,7305, Note_on_c,70,103,3,3,1,81.0,False
38117,7306, Note_on_c,77,103,3,3,1,90.0,True
38118,7306, Note_on_c,82,103,3,3,1,95.0,False
38119,7307, Note_on_c,68,104,3,3,1,79.0,False
38120,7307, Note_on_c,75,104,3,3,1,87.0,False
38121,7308, Note_on_c,77,104,3,3,1,90.0,True
38122,7308, Note_on_c,82,104,3,3,1,95.0,False
38123,7309, Note_on_c,68,105,3,3,1,79.0,False
38124,7309, Note_on_c,73,105,3,3,1,85.0,False
38125,7310, Note_on_c,70,106,3,3,1,81.0,False
38126,7311, Note_on_c,77,106,3,3,1,90.0,True
38127,7311, Note_on_c,82,106,3,3,1,95.0,False
38128,7312, Note_on_c,68,107,3,3,1,79.0,False
38129,7312, Note_on_c,75,107,3,3,1,87.0,False
38130,7313, End_track,,,3,3,-1,,False
38131,1, End_of_file,,,3,1,-1,,False
38132,1, Header,1,480,4,1,-1,1.0,False
38133,1, Start_track,,,4,1,-1,,False
38134,1, Channel_prefix,,,4,1,-1,,False
38135,1, Title_t,,,4,1,-1,,False
38136,1, Instrument_name_t,,,4,1,-1,,False
38137,1, Time_signature,2,24,4,1,-1,2.0,True
38138,1, Key_signature,,,4,1,-1,,False
38139,1, SMPTE_offset,0,0,4,1,-1,0.0,True
38140,1, Tempo,,,4,1,-1,,False
38141,71, Note_on_c,60,108,4,1,1,70.0,True
38142,71, Note_on_c,65,108,4,1,1,76.0,True
38143,79, Note_on_c,60,108,4,1,1,70.0,True
38144,79, Note_on_c,65,108,4,1,1,76.0,True
38145,87, Note_on_c,60,108,4,1,1,70.0,True
38146,87, Note_on_c,65,108,4,1,1,76.0,True
38147,95, Note_on_c,60,108,4,1,1,70.0,True
38148,95, Note_on_c,65,108,4,1,1,76.0,True
38149,103, Note_on_c,60,108,4,1,1,70.0,True
38150,103, Note_on_c,65,108,4,1,1,76.0,True
38151,111, Note_on_c,60,108,4,1,1,70.0,True
38152,111, Note_on_c,65,108,4,1,1,76.0,True
38153,119, Note_on_c,60,108,4,1,1,70.0,True
38154,119, Note_on_c,65,108,4,1,1,76.0,True
38155,127, Note_on_c,60,108,4,1,1,70.0,True
38156,127, Note_on_c,65,108,4,1,1,76.0,True
38157,131, Note_on_c,49,108,4,1,1,57.0,False
38158,135, Note_on_c,60,108,4,1,1,70.0,True
38159,135, Note_on_c,65,108,4,1,1,76.0,True
38160,139, Note_on_c,49,108,4,1,1,57.0,False
38161,143, Note_on_c,60,108,4,1,1,70.0,True
38162,143, Note_on_c,65,108,4,1,1,76.0,True
38163,147, Note_on_c,49,108,4,1,1,57.0,False
38164,151, Note_on_c,60,108,4,1,1,70.0,True
38165,151, Note_on_c,65,108,4,1,1,76.0,True
38166,155, Note_on_c,49,108,4,1,1,57.0,False
38167,159, Note_on_c,60,108,4,1,1,70.0,True
38168,159, Note_on_c,65,108,4,1,1,76.0,True
38169,163, Note_on_c,49,108,4,1,1,57.0,False
38170,167, Note_on_c,60,108,4,1,1,70.0,True
38171,167, Note_on_c,65,108,4,1,1,76.0,True
38172,171, Note_on_c,49,108,4,1,1,57.0,False
38173,175, Note_on_c,60,108,4,1,1,70.0,True
38174,175, Note_on_c,65,108,4,1,1,76.0,True
38175,179, Note_on_c,49,108,4,1,1,57.0,False
38176,183, Note_on_c,60,108,4,1,1,70.0,True
38177,183, Note_on_c,65,108,4,1,1,76.0,True
38178,187, Note_on_c,49,108,4,1,1,57.0,False
38179,191, Note_on_c,60,108,4,1,1,70.0,True
38180,191, Note_on_c,65,108,4,1,1,76.0,True
38181,195, Note_on_c,49,108,4,1,1,57.0,False
38182,197, Note_on_c,60,108,4,1,1,70.0,True
38183,197, Note_on_c,63,108,4,1,1,73.0,False
38184,199, Note_on_c,60,108,4,1,1,70.0,True
38185,199, Note_on_c,65,108,4,1,1,76.0,True
38186,203, Note_on_c,49,108,4,1,1,57.0,False
38187,205, Note_on_c,60,108,4,1,1,70.0,True
38188,205, Note_on_c,63,108,4,1,1,73.0,False
38189,207, Note_on_c,60,108,4,1,1,70.0,True
38190,207, Note_on_c,65,108,4,1,1,76.0,True
38191,211, Note_on_c,49,108,4,1,1,57.0,False
38192,213, Note_on_c,60,108,4,1,1,70.0,True
38193,213, Note_on_c,63,108,4,1,1,73.0,False
38194,215, Note_on_c,60,108,4,1,1,70.0,True
38195,215, Note_on_c,65,108,4,1,1,76.0,True
38196,219, Note_on_c,49,108,4,1,1,57.0,False
38197,221, Note_on_c,60,108,4,1,1,70.0,True
38198,221, Note_on_c,63,108,4,1,1,73.0,False
38199,223, Note_on_c,60,108,4,1,1,70.0,True
38200,223, Note_on_c,65,108,4,1,1,76.0,True
38201,227, Note_on_c,49,108,4,1,1,57.0,False
38202,229, Note_on_c,60,108,4,1,1,70.0,True
38203,229, Note_on_c,63,108,4,1,1,73.0,False
38204,231, Note_on_c,60,108,4,1,1,70.0,True
38205,231, Note_on_c,65,108,4,1,1,76.0,True
38206,235, Note_on_c,49,108,4,1,1,57.0,False
38207,237, Note_on_c,60,108,4,1,1,70.0,True
38208,237, Note_on_c,63,108,4,1,1,73.0,False
38209,239, Note_on_c,60,108,4,1,1,70.0,True
38210,239, Note_on_c,65,108,4,1,1,76.0,True
38211,243, Note_on_c,49,108,4,1,1,57.0,False
38212,245, Note_on_c,60,108,4,1,1,70.0,True
38213,245, Note_on_c,63,108,4,1,1,73.0,False
38214,247, Note_on_c,60,108,4,1,1,70.0,True
38215,247, Note_on_c,65,108,4,1,1,76.0,True
38216,251, Note_on_c,49,108,4,1,1,57.0,False
38217,253, Note_on_c,60,108,4,1,1,70.0,True
38218,253, Note_on_c,63,108,4,1,1,73.0,False
38219,255, Note_on_c,60,108,4,1,1,70.0,True
38220,255, Note_on_c,65,108,4,1,1,76.0,True
38221,259, Note_on_c,49,108,4,1,1,57.0,False
38222,260, Note_on_c,56,108,4,1,1,65.0,False
38223,260, Note_on_c,61,108,4,1,1,71.0,False
38224,261, Note_on_c,60,108,4,1,1,70.0,True
38225,261, Note_on_c,63,108,4,1,1,73.0,False
38226,263, Note_on_c,60,108,4,1,1,70.0,True
38227,263, Note_on_c,65,108,4,1,1,76.0,True
38228,267, Note_on_c,49,108,4,1,1,57.0,False
38229,268, Note_on_c,56,108,4,1,1,65.0,False
38230,268, Note_on_c,61,108,4,1,1,71.0,False
38231,269, Note_on_c,60,108,4,1,1,70.0,True
38232,269, Note_on_c,63,108,4,1,1,73.0,False
38233,271, Note_on_c,60,108,4,1,1,70.0,True
38234,271, Note_on_c,65,108,4,1,1,76.0,True
38235,275, Note_on_c,49,108,4,1,1,57.0,False
38236,276, Note_on_c,56,108,4,1,1,65.0,False
38237,276, Note_on_c,61,108,4,1,1,71.0,False
38238,277, Note_on_c,60,108,4,1,1,70.0,True
38239,277, Note_on_c,63,108,4,1,1,73.0,False
38240,279, Note_on_c,60,108,4,1,1,70.0,True
38241,279, Note_on_c,65,108,4,1,1,76.0,True
38242,283, Note_on_c,49,108,4,1,1,57.0,False
38243,284, Note_on_c,56,108,4,1,1,65.0,False
38244,284, Note_on_c,61,108,4,1,1,71.0,False
38245,285, Note_on_c,60,108,4,1,1,70.0,True
38246,285, Note_on_c,63,108,4,1,1,73.0,False
38247,287, Note_on_c,60,108,4,1,1,70.0,True
38248,287, Note_on_c,65,108,4,1,1,76.0,True
38249,291, Note_on_c,49,108,4,1,1,57.0,False
38250,292, Note_on_c,56,108,4,1,1,65.0,False
38251,292, Note_on_c,61,108,4,1,1,71.0,False
38252,293, Note_on_c,60,108,4,1,1,70.0,True
38253,293, Note_on_c,63,108,4,1,1,73.0,False
38254,295, Note_on_c,60,108,4,1,1,70.0,True
38255,295, Note_on_c,65,108,4,1,1,76.0,True
38256,299, Note_on_c,49,108,4,1,1,57.0,False
38257,300, Note_on_c,56,108,4,1,1,65.0,False
38258,300, Note_on_c,61,108,4,1,1,71.0,False
38259,301, Note_on_c,60,108,4,1,1,70.0,True
38260,301, Note_on_c,63,108,4,1,1,73.0,False
38261,303, Note_on_c,60,108,4,1,1,70.0,True
38262,303, Note_on_c,65,108,4,1,1,76.0,True
38263,307, Note_on_c,49,108,4,1,1,57.0,False
38264,308, Note_on_c,56,108,4,1,1,65.0,False
38265,308, Note_on_c,61,108,4,1,1,71.0,False
38266,309, Note_on_c,60,108,4,1,1,70.0,True
38267,309, Note_on_c,63,108,4,1,1,73.0,False
38268,311, Note_on_c,60,108,4,1,1,70.0,True
38269,311, Note_on_c,65,108,4,1,1,76.0,True
38270,315, Note_on_c,49,108,4,1,1,57.0,False
38271,316, Note_on_c,56,108,4,1,1,65.0,False
38272,316, Note_on_c,61,108,4,1,1,71.0,False
38273,317, Note_on_c,60,108,4,1,1,70.0,True
38274,317, Note_on_c,63,108,4,1,1,73.0,False
38275,319, Note_on_c,60,108,4,1,1,70.0,True
38276,319, Note_on_c,65,108,4,1,1,76.0,True
38277,322, Note_on_c,60,108,4,1,1,70.0,True
38278,322, Note_on_c,63,108,4,1,1,73.0,False
38279,323, Note_on_c,49,108,4,1,1,57.0,False
38280,324, Note_on_c,56,108,4,1,1,65.0,False
38281,324, Note_on_c,61,108,4,1,1,71.0,False
38282,325, Note_on_c,60,108,4,1,1,70.0,True
38283,325, Note_on_c,63,108,4,1,1,73.0,False
38284,327, Note_on_c,60,108,4,1,1,70.0,True
38285,327, Note_on_c,65,108,4,1,1,76.0,True
38286,330, Note_on_c,60,108,4,1,1,70.0,True
38287,330, Note_on_c,63,108,4,1,1,73.0,False
38288,331, Note_on_c,49,108,4,1,1,57.0,False
38289,332, Note_on_c,56,108,4,1,1,65.0,False
38290,332, Note_on_c,61,108,4,1,1,71.0,False
38291,333, Note_on_c,60,108,4,1,1,70.0,True
38292,333, Note_on_c,63,108,4,1,1,73.0,False
38293,335, Note_on_c,60,108,4,1,1,70.0,True
38294,335, Note_on_c,65,108,4,1,1,76.0,True
38295,338, Note_on_c,60,108,4,1,1,70.0,True
38296,338, Note_on_c,63,108,4,1,1,73.0,False
38297,339, Note_on_c,49,108,4,1,1,57.0,False
38298,340, Note_on_c,56,108,4,1,1,65.0,False
38299,340, Note_on_c,61,108,4,1,1,71.0,False
38300,341, Note_on_c,60,108,4,1,1,70.0,True
38301,341, Note_on_c,63,108,4,1,1,73.0,False
38302,343, Note_on_c,60,108,4,1,1,70.0,True
38303,343, Note_on_c,65,108,4,1,1,76.0,True
38304,346, Note_on_c,60,108,4,1,1,70.0,True
38305,346, Note_on_c,63,108,4,1,1,73.0,False
38306,347, Note_on_c,49,108,4,1,1,57.0,False
38307,348, Note_on_c,56,108,4,1,1,65.0,False
38308,348, Note_on_c,61,108,4,1,1,71.0,False
38309,349, Note_on_c,60,108,4,1,1,70.0,True
38310,349, Note_on_c,63,108,4,1,1,73.0,False
38311,351, Note_on_c,60,108,4,1,1,70.0,True
38312,351, Note_on_c,65,108,4,1,1,76.0,True
38313,354, Note_on_c,60,108,4,1,1,70.0,True
38314,354, Note_on_c,63,108,4,1,1,73.0,False
38315,355, Note_on_c,49,108,4,1,1,57.0,False
38316,356, Note_on_c,56,108,4,1,1,65.0,False
38317,356, Note_on_c,61,108,4,1,1,71.0,False
38318,357, Note_on_c,60,108,4,1,1,70.0,True
38319,357, Note_on_c,63,108,4,1,1,73.0,False
38320,359, Note_on_c,60,108,4,1,1,70.0,True
38321,359, Note_on_c,65,108,4,1,1,76.0,True
38322,362, Note_on_c,60,108,4,1,1,70.0,True
38323,362, Note_on_c,63,108,4,1,1,73.0,False
38324,363, Note_on_c,49,108,4,1,1,57.0,False
38325,364, Note_on_c,56,108,4,1,1,65.0,False
38326,364, Note_on_c,61,108,4,1,1,71.0,False
38327,365, Note_on_c,60,108,4,1,1,70.0,True
38328,365, Note_on_c,63,108,4,1,1,73.0,False
38329,367, Note_on_c,60,108,4,1,1,70.0,True
38330,367, Note_on_c,65,108,4,1,1,76.0,True
38331,370, Note_on_c,60,108,4,1,1,70.0,True
38332,370, Note_on_c,63,108,4,1,1,73.0,False
38333,371, Note_on_c,49,108,4,1,1,57.0,False
38334,372, Note_on_c,56,108,4,1,1,65.0,False
38335,372, Note_on_c,61,108,4,1,1,71.0,False
38336,373, Note_on_c,60,108,4,1,1,70.0,True
38337,373, Note_on_c,63,108,4,1,1,73.0,False
38338,375, Note_on_c,60,108,4,1,1,70.0,True
38339,375, Note_on_c,65,108,4,1,1,76.0,True
38340,378, Note_on_c,60,108,4,1,1,70.0,True
38341,378, Note_on_c,63,108,4,1,1,73.0,False
38342,379, Note_on_c,49,108,4,1,1,57.0,False
38343,380, Note_on_c,56,108,4,1,1,65.0,False
38344,380, Note_on_c,61,108,4,1,1,71.0,False
38345,381, Note_on_c,60,108,4,1,1,70.0,True
38346,381, Note_on_c,63,108,4,1,1,73.0,False
38347,383, Note_on_c,60,108,4,1,1,70.0,True
38348,383, Note_on_c,65,108,4,1,1,76.0,True
38349,386, Note_on_c,60,108,4,1,1,70.0,True
38350,386, Note_on_c,63,108,4,1,1,73.0,False
38351,387, Note_on_c,49,108,4,1,1,57.0,False
38352,388, Note_on_c,56,108,4,1,1,65.0,False
38353,388, Note_on_c,61,108,4,1,1,71.0,False
38354,389, Note_on_c,60,108,4,1,1,70.0,True
38355,389, Note_on_c,63,108,4,1,1,73.0,False
38356,391, Note_on_c,60,108,4,1,1,70.0,True
38357,391, Note_on_c,65,108,4,1,1,76.0,True
38358,392, Note_on_c,49,108,4,1,1,57.0,False
38359,394, Note_on_c,60,108,4,1,1,70.0,True
38360,394, Note_on_c,63,108,4,1,1,73.0,False
38361,395, Note_on_c,49,108,4,1,1,57.0,False
38362,396, Note_on_c,56,108,4,1,1,65.0,False
38363,396, Note_on_c,61,108,4,1,1,71.0,False
38364,397, Note_on_c,60,108,4,1,1,70.0,True
38365,397, Note_on_c,63,108,4,1,1,73.0,False
38366,399, Note_on_c,60,108,4,1,1,70.0,True
38367,399, Note_on_c,65,108,4,1,1,76.0,True
38368,400, Note_on_c,49,108,4,1,1,57.0,False
38369,402, Note_on_c,60,108,4,1,1,70.0,True
38370,402, Note_on_c,63,108,4,1,1,73.0,False
38371,403, Note_on_c,49,108,4,1,1,57.0,False
38372,404, Note_on_c,56,108,4,1,1,65.0,False
38373,404, Note_on_c,61,108,4,1,1,71.0,False
38374,405, Note_on_c,60,108,4,1,1,70.0,True
38375,405, Note_on_c,63,108,4,1,1,73.0,False
38376,407, Note_on_c,60,108,4,1,1,70.0,True
38377,407, Note_on_c,65,108,4,1,1,76.0,True
38378,408, Note_on_c,49,108,4,1,1,57.0,False
38379,410, Note_on_c,60,108,4,1,1,70.0,True
38380,410, Note_on_c,63,108,4,1,1,73.0,False
38381,411, Note_on_c,49,108,4,1,1,57.0,False
38382,412, Note_on_c,56,108,4,1,1,65.0,False
38383,412, Note_on_c,61,108,4,1,1,71.0,False
38384,413, Note_on_c,60,108,4,1,1,70.0,True
38385,413, Note_on_c,63,108,4,1,1,73.0,False
38386,415, Note_on_c,60,108,4,1,1,70.0,True
38387,415, Note_on_c,65,108,4,1,1,76.0,True
38388,416, Note_on_c,49,108,4,1,1,57.0,False
38389,418, Note_on_c,60,108,4,1,1,70.0,True
38390,418, Note_on_c,63,108,4,1,1,73.0,False
38391,419, Note_on_c,49,108,4,1,1,57.0,False
38392,420, Note_on_c,56,108,4,1,1,65.0,False
38393,420, Note_on_c,61,108,4,1,1,71.0,False
38394,421, Note_on_c,60,108,4,1,1,70.0,True
38395,421, Note_on_c,63,108,4,1,1,73.0,False
38396,423, Note_on_c,60,108,4,1,1,70.0,True
38397,423, Note_on_c,65,108,4,1,1,76.0,True
38398,424, Note_on_c,49,108,4,1,1,57.0,False
38399,426, Note_on_c,60,108,4,1,1,70.0,True
38400,426, Note_on_c,63,108,4,1,1,73.0,False
38401,427, Note_on_c,49,108,4,1,1,57.0,False
38402,428, Note_on_c,56,108,4,1,1,65.0,False
38403,428, Note_on_c,61,108,4,1,1,71.0,False
38404,429, Note_on_c,60,108,4,1,1,70.0,True
38405,429, Note_on_c,63,108,4,1,1,73.0,False
38406,431, Note_on_c,60,108,4,1,1,70.0,True
38407,431, Note_on_c,65,108,4,1,1,76.0,True
38408,432, Note_on_c,49,108,4,1,1,57.0,False
38409,434, Note_on_c,60,108,4,1,1,70.0,True
38410,434, Note_on_c,63,108,4,1,1,73.0,False
38411,435, Note_on_c,49,108,4,1,1,57.0,False
38412,436, Note_on_c,56,108,4,1,1,65.0,False
38413,436, Note_on_c,61,108,4,1,1,71.0,False
38414,437, Note_on_c,60,108,4,1,1,70.0,True
38415,437, Note_on_c,63,108,4,1,1,73.0,False
38416,439, Note_on_c,60,108,4,1,1,70.0,True
38417,439, Note_on_c,65,108,4,1,1,76.0,True
38418,440, Note_on_c,49,108,4,1,1,57.0,False
38419,442, Note_on_c,60,108,4,1,1,70.0,True
38420,442, Note_on_c,63,108,4,1,1,73.0,False
38421,443, Note_on_c,49,108,4,1,1,57.0,False
38422,444, Note_on_c,56,108,4,1,1,65.0,False
38423,444, Note_on_c,61,108,4,1,1,71.0,False
38424,445, Note_on_c,60,108,4,1,1,70.0,True
38425,445, Note_on_c,63,108,4,1,1,73.0,False
38426,447, Note_on_c,60,108,4,1,1,70.0,True
38427,447, Note_on_c,65,108,4,1,1,76.0,True
38428,448, Note_on_c,49,108,4,1,1,57.0,False
38429,450, Note_on_c,60,108,4,1,1,70.0,True
38430,450, Note_on_c,63,108,4,1,1,73.0,False
38431,451, Note_on_c,49,108,4,1,1,57.0,False
38432,452, Note_on_c,56,108,4,1,1,65.0,False
38433,452, Note_on_c,61,108,4,1,1,71.0,False
38434,453, Note_on_c,60,108,4,1,1,70.0,True
38435,453, Note_on_c,63,108,4,1,1,73.0,False
38436,454, Note_on_c,56,108,4,1,1,65.0,False
38437,454, Note_on_c,61,108,4,1,1,71.0,False
38438,455, Note_on_c,60,108,4,1,1,70.0,True
38439,455, Note_on_c,65,108,4,1,1,76.0,True
38440,456, Note_on_c,49,108,4,1,1,57.0,False
38441,458, Note_on_c,60,108,4,1,1,70.0,True
38442,458, Note_on_c,63,108,4,1,1,73.0,False
38443,459, Note_on_c,49,108,4,1,1,57.0,False
38444,460, Note_on_c,56,108,4,1,1,65.0,False
38445,460, Note_on_c,61,108,4,1,1,71.0,False
38446,461, Note_on_c,60,108,4,1,1,70.0,True
38447,461, Note_on_c,63,108,4,1,1,73.0,False
38448,462, Note_on_c,56,108,4,1,1,65.0,False
38449,462, Note_on_c,61,108,4,1,1,71.0,False
38450,463, Note_on_c,60,108,4,1,1,70.0,True
38451,463, Note_on_c,65,108,4,1,1,76.0,True
38452,464, Note_on_c,49,108,4,1,1,57.0,False
38453,466, Note_on_c,60,108,4,1,1,70.0,True
38454,466, Note_on_c,63,108,4,1,1,73.0,False
38455,467, Note_on_c,49,108,4,1,1,57.0,False
38456,468, Note_on_c,56,108,4,1,1,65.0,False
38457,468, Note_on_c,61,108,4,1,1,71.0,False
38458,469, Note_on_c,60,108,4,1,1,70.0,True
38459,469, Note_on_c,63,108,4,1,1,73.0,False
38460,470, Note_on_c,56,108,4,1,1,65.0,False
38461,470, Note_on_c,61,108,4,1,1,71.0,False
38462,471, Note_on_c,60,108,4,1,1,70.0,True
38463,471, Note_on_c,65,108,4,1,1,76.0,True
38464,472, Note_on_c,49,108,4,1,1,57.0,False
38465,474, Note_on_c,60,108,4,1,1,70.0,True
38466,474, Note_on_c,63,108,4,1,1,73.0,False
38467,475, Note_on_c,49,108,4,1,1,57.0,False
38468,476, Note_on_c,56,108,4,1,1,65.0,False
38469,476, Note_on_c,61,108,4,1,1,71.0,False
38470,477, Note_on_c,60,108,4,1,1,70.0,True
38471,477, Note_on_c,63,108,4,1,1,73.0,False
38472,478, Note_on_c,56,108,4,1,1,65.0,False
38473,478, Note_on_c,61,108,4,1,1,71.0,False
38474,479, Note_on_c,60,108,4,1,1,70.0,True
38475,479, Note_on_c,65,108,4,1,1,76.0,True
38476,480, Note_on_c,49,108,4,1,1,57.0,False
38477,482, Note_on_c,60,108,4,1,1,70.0,True
38478,482, Note_on_c,63,108,4,1,1,73.0,False
38479,483, Note_on_c,49,108,4,1,1,57.0,False
38480,484, Note_on_c,56,108,4,1,1,65.0,False
38481,484, Note_on_c,61,108,4,1,1,71.0,False
38482,485, Note_on_c,60,108,4,1,1,70.0,True
38483,485, Note_on_c,63,108,4,1,1,73.0,False
38484,486, Note_on_c,56,108,4,1,1,65.0,False
38485,486, Note_on_c,61,108,4,1,1,71.0,False
38486,487, Note_on_c,60,108,4,1,1,70.0,True
38487,487, Note_on_c,65,108,4,1,1,76.0,True
38488,488, Note_on_c,49,108,4,1,1,57.0,False
38489,490, Note_on_c,60,108,4,1,1,70.0,True
38490,490, Note_on_c,63,108,4,1,1,73.0,False
38491,491, Note_on_c,49,108,4,1,1,57.0,False
38492,492, Note_on_c,56,108,4,1,1,65.0,False
38493,492, Note_on_c,61,108,4,1,1,71.0,False
38494,493, Note_on_c,60,108,4,1,1,70.0,True
38495,493, Note_on_c,63,108,4,1,1,73.0,False
38496,494, Note_on_c,56,108,4,1,1,65.0,False
38497,494, Note_on_c,61,108,4,1,1,71.0,False
38498,495, Note_on_c,60,108,4,1,1,70.0,True
38499,495, Note_on_c,65,108,4,1,1,76.0,True
38500,496, Note_on_c,49,108,4,1,1,57.0,False
38501,498, Note_on_c,60,108,4,1,1,70.0,True
38502,498, Note_on_c,63,108,4,1,1,73.0,False
38503,499, Note_on_c,49,108,4,1,1,57.0,False
38504,500, Note_on_c,56,108,4,1,1,65.0,False
38505,500, Note_on_c,61,108,4,1,1,71.0,False
38506,501, Note_on_c,60,108,4,1,1,70.0,True
38507,501, Note_on_c,63,108,4,1,1,73.0,False
38508,502, Note_on_c,56,108,4,1,1,65.0,False
38509,502, Note_on_c,61,108,4,1,1,71.0,False
38510,503, Note_on_c,60,108,4,1,1,70.0,True
38511,503, Note_on_c,65,108,4,1,1,76.0,True
38512,504, Note_on_c,49,108,4,1,1,57.0,False
38513,506, Note_on_c,60,108,4,1,1,70.0,True
38514,506, Note_on_c,63,108,4,1,1,73.0,False
38515,507, Note_on_c,49,108,4,1,1,57.0,False
38516,508, Note_on_c,56,108,4,1,1,65.0,False
38517,508, Note_on_c,61,108,4,1,1,71.0,False
38518,509, Note_on_c,60,108,4,1,1,70.0,True
38519,509, Note_on_c,63,108,4,1,1,73.0,False
38520,510, Note_on_c,56,108,4,1,1,65.0,False
38521,510, Note_on_c,61,108,4,1,1,71.0,False
38522,511, Note_on_c,60,108,4,1,1,70.0,True
38523,511, Note_on_c,65,108,4,1,1,76.0,True
38524,512, Note_on_c,49,108,4,1,1,57.0,False
38525,513, Note_on_c,56,108,4,1,1,65.0,False
38526,513, Note_on_c,61,108,4,1,1,71.0,False
38527,514, Note_on_c,60,108,4,1,1,70.0,True
38528,514, Note_on_c,63,108,4,1,1,73.0,False
38529,515, Note_on_c,49,108,4,1,1,57.0,False
38530,516, Note_on_c,56,108,4,1,1,65.0,False
38531,516, Note_on_c,61,108,4,1,1,71.0,False
38532,517, Note_on_c,60,108,4,1,1,70.0,True
38533,517, Note_on_c,63,108,4,1,1,73.0,False
38534,518, Note_on_c,56,108,4,1,1,65.0,False
38535,518, Note_on_c,61,108,4,1,1,71.0,False
38536,519, Note_on_c,60,108,4,1,1,70.0,True
38537,519, Note_on_c,65,108,4,1,1,76.0,True
38538,520, Note_on_c,49,108,4,1,1,57.0,False
38539,521, Note_on_c,56,108,4,1,1,65.0,False
38540,521, Note_on_c,61,108,4,1,1,71.0,False
38541,522, Note_on_c,60,108,4,1,1,70.0,True
38542,522, Note_on_c,63,108,4,1,1,73.0,False
38543,523, Note_on_c,49,108,4,1,1,57.0,False
38544,524, Note_on_c,56,108,4,1,1,65.0,False
38545,524, Note_on_c,61,108,4,1,1,71.0,False
38546,525, Note_on_c,60,108,4,1,1,70.0,True
38547,525, Note_on_c,63,108,4,1,1,73.0,False
38548,526, Note_on_c,56,108,4,1,1,65.0,False
38549,526, Note_on_c,61,108,4,1,1,71.0,False
38550,527, Note_on_c,60,108,4,1,1,70.0,True
38551,527, Note_on_c,65,108,4,1,1,76.0,True
38552,528, Note_on_c,49,108,4,1,1,57.0,False
38553,529, Note_on_c,56,108,4,1,1,65.0,False
38554,529, Note_on_c,61,108,4,1,1,71.0,False
38555,530, Note_on_c,60,108,4,1,1,70.0,True
38556,530, Note_on_c,63,108,4,1,1,73.0,False
38557,531, Note_on_c,49,108,4,1,1,57.0,False
38558,532, Note_on_c,56,108,4,1,1,65.0,False
38559,532, Note_on_c,61,108,4,1,1,71.0,False
38560,533, Note_on_c,60,108,4,1,1,70.0,True
38561,533, Note_on_c,63,108,4,1,1,73.0,False
38562,534, Note_on_c,56,108,4,1,1,65.0,False
38563,534, Note_on_c,61,108,4,1,1,71.0,False
38564,535, Note_on_c,60,108,4,1,1,70.0,True
38565,535, Note_on_c,65,108,4,1,1,76.0,True
38566,536, Note_on_c,49,108,4,1,1,57.0,False
38567,537, Note_on_c,56,108,4,1,1,65.0,False
38568,537, Note_on_c,61,108,4,1,1,71.0,False
38569,538, Note_on_c,60,108,4,1,1,70.0,True
38570,538, Note_on_c,63,108,4,1,1,73.0,False
38571,539, Note_on_c,49,108,4,1,1,57.0,False
38572,540, Note_on_c,56,108,4,1,1,65.0,False
38573,540, Note_on_c,61,108,4,1,1,71.0,False
38574,541, Note_on_c,60,108,4,1,1,70.0,True
38575,541, Note_on_c,63,108,4,1,1,73.0,False
38576,542, Note_on_c,56,108,4,1,1,65.0,False
38577,542, Note_on_c,61,108,4,1,1,71.0,False
38578,543, Note_on_c,60,108,4,1,1,70.0,True
38579,543, Note_on_c,65,108,4,1,1,76.0,True
38580,544, Note_on_c,49,108,4,1,1,57.0,False
38581,545, Note_on_c,56,108,4,1,1,65.0,False
38582,545, Note_on_c,61,108,4,1,1,71.0,False
38583,546, Note_on_c,60,108,4,1,1,70.0,True
38584,546, Note_on_c,63,108,4,1,1,73.0,False
38585,547, Note_on_c,49,108,4,1,1,57.0,False
38586,548, Note_on_c,56,108,4,1,1,65.0,False
38587,548, Note_on_c,61,108,4,1,1,71.0,False
38588,549, Note_on_c,60,108,4,1,1,70.0,True
38589,549, Note_on_c,63,108,4,1,1,73.0,False
38590,550, Note_on_c,56,108,4,1,1,65.0,False
38591,550, Note_on_c,61,108,4,1,1,71.0,False
38592,551, Note_on_c,60,108,4,1,1,70.0,True
38593,551, Note_on_c,65,108,4,1,1,76.0,True
38594,552, Note_on_c,49,108,4,1,1,57.0,False
38595,553, Note_on_c,56,108,4,1,1,65.0,False
38596,553, Note_on_c,61,108,4,1,1,71.0,False
38597,554, Note_on_c,60,108,4,1,1,70.0,True
38598,554, Note_on_c,63,108,4,1,1,73.0,False
38599,555, Note_on_c,49,108,4,1,1,57.0,False
38600,556, Note_on_c,56,108,4,1,1,65.0,False
38601,556, Note_on_c,61,108,4,1,1,71.0,False
38602,557, Note_on_c,60,108,4,1,1,70.0,True
38603,557, Note_on_c,63,108,4,1,1,73.0,False
38604,558, Note_on_c,56,108,4,1,1,65.0,False
38605,558, Note_on_c,61,108,4,1,1,71.0,False
38606,559, Note_on_c,60,108,4,1,1,70.0,True
38607,559, Note_on_c,65,108,4,1,1,76.0,True
38608,560, Note_on_c,49,108,4,1,1,57.0,False
38609,561, Note_on_c,56,108,4,1,1,65.0,False
38610,561, Note_on_c,61,108,4,1,1,71.0,False
38611,562, Note_on_c,60,108,4,1,1,70.0,True
38612,562, Note_on_c,63,108,4,1,1,73.0,False
38613,563, Note_on_c,49,108,4,1,1,57.0,False
38614,564, Note_on_c,56,108,4,1,1,65.0,False
38615,564, Note_on_c,61,108,4,1,1,71.0,False
38616,565, Note_on_c,60,108,4,1,1,70.0,True
38617,565, Note_on_c,63,108,4,1,1,73.0,False
38618,566, Note_on_c,56,108,4,1,1,65.0,False
38619,566, Note_on_c,61,108,4,1,1,71.0,False
38620,567, Note_on_c,60,108,4,1,1,70.0,True
38621,567, Note_on_c,65,108,4,1,1,76.0,True
38622,568, Note_on_c,49,108,4,1,1,57.0,False
38623,569, Note_on_c,56,108,4,1,1,65.0,False
38624,569, Note_on_c,61,108,4,1,1,71.0,False
38625,570, Note_on_c,60,108,4,1,1,70.0,True
38626,570, Note_on_c,63,108,4,1,1,73.0,False
38627,571, Note_on_c,49,108,4,1,1,57.0,False
38628,572, Note_on_c,56,108,4,1,1,65.0,False
38629,572, Note_on_c,61,108,4,1,1,71.0,False
38630,573, Note_on_c,60,108,4,1,1,70.0,True
38631,573, Note_on_c,63,108,4,1,1,73.0,False
38632,574, Note_on_c,56,108,4,1,1,65.0,False
38633,574, Note_on_c,61,108,4,1,1,71.0,False
38634,575, Note_on_c,60,108,4,1,1,70.0,True
38635,575, Note_on_c,65,108,4,1,1,76.0,True
38636,576, Note_on_c,49,108,4,1,1,57.0,False
38637,577, Note_on_c,56,108,4,1,1,65.0,False
38638,577, Note_on_c,61,108,4,1,1,71.0,False
38639,578, Note_on_c,60,108,4,1,1,70.0,True
38640,578, Note_on_c,63,108,4,1,1,73.0,False
38641,579, Note_on_c,49,106,4,1,1,57.0,False
38642,580, Note_on_c,56,104,4,1,1,65.0,False
38643,580, Note_on_c,61,104,4,1,1,71.0,False
38644,581, Note_on_c,60,102,4,1,1,70.0,True
38645,581, Note_on_c,63,102,4,1,1,73.0,False
38646,582, Note_on_c,56,102,4,1,1,65.0,False
38647,582, Note_on_c,61,102,4,1,1,71.0,False
38648,583, Note_on_c,60,98,4,1,1,70.0,True
38649,583, Note_on_c,65,98,4,1,1,76.0,True
38650,584, Note_on_c,49,97,4,1,1,57.0,False
38651,585, Note_on_c,56,96,4,1,1,65.0,False
38652,585, Note_on_c,61,96,4,1,1,71.0,False
38653,586, Note_on_c,60,94,4,1,1,70.0,True
38654,586, Note_on_c,63,94,4,1,1,73.0,False
38655,587, Note_on_c,49,94,4,1,1,57.0,False
38656,588, Note_on_c,56,90,4,1,1,65.0,False
38657,588, Note_on_c,61,90,4,1,1,71.0,False
38658,589, Note_on_c,60,90,4,1,1,70.0,True
38659,589, Note_on_c,63,90,4,1,1,73.0,False
38660,590, Note_on_c,56,90,4,1,1,65.0,False
38661,590, Note_on_c,61,90,4,1,1,71.0,False
38662,591, Note_on_c,60,86,4,1,1,70.0,True
38663,591, Note_on_c,65,86,4,1,1,76.0,True
38664,592, Note_on_c,49,86,4,1,1,57.0,False
38665,593, Note_on_c,56,83,4,1,1,65.0,False
38666,593, Note_on_c,61,83,4,1,1,71.0,False
38667,594, Note_on_c,60,82,4,1,1,70.0,True
38668,594, Note_on_c,63,82,4,1,1,73.0,False
38669,595, Note_on_c,49,82,4,1,1,57.0,False
38670,596, Note_on_c,56,79,4,1,1,65.0,False
38671,596, Note_on_c,61,79,4,1,1,71.0,False
38672,597, Note_on_c,60,79,4,1,1,70.0,True
38673,597, Note_on_c,63,79,4,1,1,73.0,False
38674,598, Note_on_c,56,76,4,1,1,65.0,False
38675,598, Note_on_c,61,76,4,1,1,71.0,False
38676,599, Note_on_c,60,75,4,1,1,70.0,True
38677,599, Note_on_c,65,75,4,1,1,76.0,True
38678,600, Note_on_c,49,75,4,1,1,57.0,False
38679,601, Note_on_c,56,75,4,1,1,65.0,False
38680,601, Note_on_c,61,75,4,1,1,71.0,False
38681,602, Note_on_c,60,75,4,1,1,70.0,True
38682,602, Note_on_c,63,75,4,1,1,73.0,False
38683,603, Note_on_c,49,75,4,1,1,57.0,False
38684,604, Note_on_c,56,75,4,1,1,65.0,False
38685,604, Note_on_c,61,75,4,1,1,71.0,False
38686,605, Note_on_c,60,75,4,1,1,70.0,True
38687,605, Note_on_c,63,75,4,1,1,73.0,False
38688,606, Note_on_c,56,75,4,1,1,65.0,False
38689,606, Note_on_c,61,75,4,1,1,71.0,False
38690,607, Note_on_c,60,75,4,1,1,70.0,True
38691,607, Note_on_c,65,75,4,1,1,76.0,True
38692,608, Note_on_c,49,75,4,1,1,57.0,False
38693,609, Note_on_c,56,75,4,1,1,65.0,False
38694,609, Note_on_c,61,75,4,1,1,71.0,False
38695,610, Note_on_c,60,75,4,1,1,70.0,True
38696,610, Note_on_c,63,75,4,1,1,73.0,False
38697,611, Note_on_c,49,75,4,1,1,57.0,False
38698,612, Note_on_c,56,75,4,1,1,65.0,False
38699,612, Note_on_c,61,75,4,1,1,71.0,False
38700,613, Note_on_c,60,75,4,1,1,70.0,True
38701,613, Note_on_c,63,75,4,1,1,73.0,False
38702,614, Note_on_c,56,75,4,1,1,65.0,False
38703,614, Note_on_c,61,75,4,1,1,71.0,False
38704,615, Note_on_c,60,75,4,1,1,70.0,True
38705,615, Note_on_c,65,75,4,1,1,76.0,True
38706,616, Note_on_c,49,75,4,1,1,57.0,False
38707,617, Note_on_c,56,75,4,1,1,65.0,False
38708,617, Note_on_c,61,75,4,1,1,71.0,False
38709,618, Note_on_c,60,75,4,1,1,70.0,True
38710,618, Note_on_c,63,75,4,1,1,73.0,False
38711,619, Note_on_c,49,75,4,1,1,57.0,False
38712,620, Note_on_c,56,75,4,1,1,65.0,False
38713,620, Note_on_c,61,75,4,1,1,71.0,False
38714,621, Note_on_c,60,75,4,1,1,70.0,True
38715,621, Note_on_c,63,75,4,1,1,73.0,False
38716,622, Note_on_c,56,75,4,1,1,65.0,False
38717,622, Note_on_c,61,75,4,1,1,71.0,False
38718,623, Note_on_c,60,75,4,1,1,70.0,True
38719,623, Note_on_c,65,75,4,1,1,76.0,True
38720,624, Note_on_c,49,75,4,1,1,57.0,False
38721,625, Note_on_c,56,75,4,1,1,65.0,False
38722,625, Note_on_c,61,75,4,1,1,71.0,False
38723,626, Note_on_c,60,75,4,1,1,70.0,True
38724,626, Note_on_c,63,75,4,1,1,73.0,False
38725,627, Note_on_c,49,75,4,1,1,57.0,False
38726,628, Note_on_c,56,75,4,1,1,65.0,False
38727,628, Note_on_c,61,75,4,1,1,71.0,False
38728,629, Note_on_c,60,75,4,1,1,70.0,True
38729,629, Note_on_c,63,75,4,1,1,73.0,False
38730,630, Note_on_c,56,75,4,1,1,65.0,False
38731,630, Note_on_c,61,75,4,1,1,71.0,False
38732,631, Note_on_c,60,75,4,1,1,70.0,True
38733,631, Note_on_c,65,75,4,1,1,76.0,True
38734,632, Note_on_c,49,75,4,1,1,57.0,False
38735,633, Note_on_c,56,75,4,1,1,65.0,False
38736,633, Note_on_c,61,75,4,1,1,71.0,False
38737,634, Note_on_c,60,75,4,1,1,70.0,True
38738,634, Note_on_c,63,75,4,1,1,73.0,False
38739,635, Note_on_c,49,75,4,1,1,57.0,False
38740,636, Note_on_c,56,75,4,1,1,65.0,False
38741,636, Note_on_c,61,75,4,1,1,71.0,False
38742,637, Note_on_c,60,75,4,1,1,70.0,True
38743,637, Note_on_c,63,75,4,1,1,73.0,False
38744,638, Note_on_c,56,75,4,1,1,65.0,False
38745,638, Note_on_c,61,75,4,1,1,71.0,False
38746,639, Note_on_c,60,75,4,1,1,70.0,True
38747,639, Note_on_c,65,75,4,1,1,76.0,True
38748,640, Note_on_c,49,75,4,1,1,57.0,False
38749,641, Note_on_c,56,75,4,1,1,65.0,False
38750,641, Note_on_c,61,75,4,1,1,71.0,False
38751,642, Note_on_c,60,75,4,1,1,70.0,True
38752,642, Note_on_c,63,75,4,1,1,73.0,False
38753,643, Note_on_c,49,75,4,1,1,57.0,False
38754,644, Note_on_c,56,75,4,1,1,65.0,False
38755,644, Note_on_c,61,75,4,1,1,71.0,False
38756,645, Note_on_c,60,75,4,1,1,70.0,True
38757,645, Note_on_c,63,75,4,1,1,73.0,False
38758,646, Note_on_c,56,75,4,1,1,65.0,False
38759,646, Note_on_c,61,75,4,1,1,71.0,False
38760,647, Note_on_c,60,75,4,1,1,70.0,True
38761,647, Note_on_c,65,75,4,1,1,76.0,True
38762,648, Note_on_c,49,75,4,1,1,57.0,False
38763,649, Note_on_c,56,75,4,1,1,65.0,False
38764,649, Note_on_c,61,75,4,1,1,71.0,False
38765,650, Note_on_c,60,75,4,1,1,70.0,True
38766,650, Note_on_c,63,75,4,1,1,73.0,False
38767,651, Note_on_c,49,75,4,1,1,57.0,False
38768,652, Note_on_c,56,75,4,1,1,65.0,False
38769,652, Note_on_c,61,75,4,1,1,71.0,False
38770,653, Note_on_c,60,75,4,1,1,70.0,True
38771,653, Note_on_c,63,75,4,1,1,73.0,False
38772,654, Note_on_c,56,75,4,1,1,65.0,False
38773,654, Note_on_c,61,75,4,1,1,71.0,False
38774,655, Note_on_c,60,75,4,1,1,70.0,True
38775,655, Note_on_c,65,75,4,1,1,76.0,True
38776,656, Note_on_c,49,75,4,1,1,57.0,False
38777,657, Note_on_c,56,75,4,1,1,65.0,False
38778,657, Note_on_c,61,75,4,1,1,71.0,False
38779,658, Note_on_c,60,75,4,1,1,70.0,True
38780,658, Note_on_c,63,75,4,1,1,73.0,False
38781,659, Note_on_c,49,75,4,1,1,57.0,False
38782,660, Note_on_c,56,75,4,1,1,65.0,False
38783,660, Note_on_c,61,75,4,1,1,71.0,False
38784,661, Note_on_c,60,75,4,1,1,70.0,True
38785,661, Note_on_c,63,75,4,1,1,73.0,False
38786,662, Note_on_c,56,75,4,1,1,65.0,False
38787,662, Note_on_c,61,75,4,1,1,71.0,False
38788,663, Note_on_c,60,75,4,1,1,70.0,True
38789,663, Note_on_c,65,75,4,1,1,76.0,True
38790,664, Note_on_c,49,75,4,1,1,57.0,False
38791,665, Note_on_c,56,75,4,1,1,65.0,False
38792,665, Note_on_c,61,75,4,1,1,71.0,False
38793,666, Note_on_c,60,75,4,1,1,70.0,True
38794,666, Note_on_c,63,75,4,1,1,73.0,False
38795,667, Note_on_c,49,75,4,1,1,57.0,False
38796,668, Note_on_c,56,75,4,1,1,65.0,False
38797,668, Note_on_c,61,75,4,1,1,71.0,False
38798,669, Note_on_c,60,75,4,1,1,70.0,True
38799,669, Note_on_c,63,75,4,1,1,73.0,False
38800,670, Note_on_c,56,75,4,1,1,65.0,False
38801,670, Note_on_c,61,75,4,1,1,71.0,False
38802,671, Note_on_c,60,75,4,1,1,70.0,True
38803,671, Note_on_c,65,75,4,1,1,76.0,True
38804,672, Note_on_c,49,75,4,1,1,57.0,False
38805,673, Note_on_c,56,75,4,1,1,65.0,False
38806,673, Note_on_c,61,75,4,1,1,71.0,False
38807,674, Note_on_c,60,75,4,1,1,70.0,True
38808,674, Note_on_c,63,75,4,1,1,73.0,False
38809,675, Note_on_c,49,75,4,1,1,57.0,False
38810,676, Note_on_c,56,75,4,1,1,65.0,False
38811,676, Note_on_c,61,75,4,1,1,71.0,False
38812,677, Note_on_c,60,75,4,1,1,70.0,True
38813,677, Note_on_c,63,75,4,1,1,73.0,False
38814,678, Note_on_c,56,75,4,1,1,65.0,False
38815,678, Note_on_c,61,75,4,1,1,71.0,False
38816,679, Note_on_c,60,75,4,1,1,70.0,True
38817,679, Note_on_c,65,75,4,1,1,76.0,True
38818,680, Note_on_c,49,75,4,1,1,57.0,False
38819,681, Note_on_c,56,75,4,1,1,65.0,False
38820,681, Note_on_c,61,75,4,1,1,71.0,False
38821,682, Note_on_c,60,75,4,1,1,70.0,True
38822,682, Note_on_c,63,75,4,1,1,73.0,False
38823,683, Note_on_c,49,75,4,1,1,57.0,False
38824,684, Note_on_c,56,75,4,1,1,65.0,False
38825,684, Note_on_c,61,75,4,1,1,71.0,False
38826,685, Note_on_c,60,75,4,1,1,70.0,True
38827,685, Note_on_c,63,75,4,1,1,73.0,False
38828,686, Note_on_c,56,75,4,1,1,65.0,False
38829,686, Note_on_c,61,75,4,1,1,71.0,False
38830,687, Note_on_c,60,75,4,1,1,70.0,True
38831,687, Note_on_c,65,75,4,1,1,76.0,True
38832,688, Note_on_c,49,75,4,1,1,57.0,False
38833,689, Note_on_c,56,75,4,1,1,65.0,False
38834,689, Note_on_c,61,75,4,1,1,71.0,False
38835,690, Note_on_c,60,75,4,1,1,70.0,True
38836,690, Note_on_c,63,75,4,1,1,73.0,False
38837,691, Note_on_c,49,75,4,1,1,57.0,False
38838,692, Note_on_c,56,75,4,1,1,65.0,False
38839,692, Note_on_c,61,75,4,1,1,71.0,False
38840,693, Note_on_c,60,75,4,1,1,70.0,True
38841,693, Note_on_c,63,75,4,1,1,73.0,False
38842,694, Note_on_c,56,75,4,1,1,65.0,False
38843,694, Note_on_c,61,75,4,1,1,71.0,False
38844,695, Note_on_c,60,75,4,1,1,70.0,True
38845,695, Note_on_c,65,75,4,1,1,76.0,True
38846,696, Note_on_c,49,75,4,1,1,57.0,False
38847,697, Note_on_c,56,75,4,1,1,65.0,False
38848,697, Note_on_c,61,75,4,1,1,71.0,False
38849,698, Note_on_c,60,75,4,1,1,70.0,True
38850,698, Note_on_c,63,75,4,1,1,73.0,False
38851,699, Note_on_c,49,75,4,1,1,57.0,False
38852,700, Note_on_c,56,75,4,1,1,65.0,False
38853,700, Note_on_c,61,75,4,1,1,71.0,False
38854,701, Note_on_c,60,75,4,1,1,70.0,True
38855,701, Note_on_c,63,75,4,1,1,73.0,False
38856,702, Note_on_c,56,75,4,1,1,65.0,False
38857,702, Note_on_c,61,75,4,1,1,71.0,False
38858,703, Note_on_c,60,75,4,1,1,70.0,True
38859,703, Note_on_c,65,75,4,1,1,76.0,True
38860,704, Note_on_c,49,75,4,1,1,57.0,False
38861,705, Note_on_c,56,75,4,1,1,65.0,False
38862,705, Note_on_c,61,75,4,1,1,71.0,False
38863,706, Note_on_c,60,75,4,1,1,70.0,True
38864,706, Note_on_c,63,75,4,1,1,73.0,False
38865,707, Note_on_c,49,75,4,1,1,57.0,False
38866,708, Note_on_c,56,75,4,1,1,65.0,False
38867,708, Note_on_c,61,75,4,1,1,71.0,False
38868,709, Note_on_c,60,75,4,1,1,70.0,True
38869,709, Note_on_c,63,75,4,1,1,73.0,False
38870,710, Note_on_c,56,75,4,1,1,65.0,False
38871,710, Note_on_c,61,75,4,1,1,71.0,False
38872,711, Note_on_c,60,75,4,1,1,70.0,True
38873,711, Note_on_c,65,75,4,1,1,76.0,True
38874,712, Note_on_c,49,75,4,1,1,57.0,False
38875,713, Note_on_c,56,75,4,1,1,65.0,False
38876,713, Note_on_c,61,75,4,1,1,71.0,False
38877,714, Note_on_c,60,75,4,1,1,70.0,True
38878,714, Note_on_c,63,75,4,1,1,73.0,False
38879,715, Note_on_c,49,75,4,1,1,57.0,False
38880,716, Note_on_c,56,75,4,1,1,65.0,False
38881,716, Note_on_c,61,75,4,1,1,71.0,False
38882,717, Note_on_c,60,75,4,1,1,70.0,True
38883,717, Note_on_c,63,75,4,1,1,73.0,False
38884,718, Note_on_c,56,75,4,1,1,65.0,False
38885,718, Note_on_c,61,75,4,1,1,71.0,False
38886,719, Note_on_c,60,75,4,1,1,70.0,True
38887,719, Note_on_c,65,75,4,1,1,76.0,True
38888,720, Note_on_c,49,75,4,1,1,57.0,False
38889,721, Note_on_c,56,75,4,1,1,65.0,False
38890,721, Note_on_c,61,75,4,1,1,71.0,False
38891,722, Note_on_c,60,75,4,1,1,70.0,True
38892,722, Note_on_c,63,75,4,1,1,73.0,False
38893,723, Note_on_c,49,75,4,1,1,57.0,False
38894,724, Note_on_c,56,75,4,1,1,65.0,False
38895,724, Note_on_c,61,75,4,1,1,71.0,False
38896,725, Note_on_c,60,75,4,1,1,70.0,True
38897,725, Note_on_c,63,75,4,1,1,73.0,False
38898,726, Note_on_c,56,75,4,1,1,65.0,False
38899,726, Note_on_c,61,75,4,1,1,71.0,False
38900,727, Note_on_c,60,75,4,1,1,70.0,True
38901,727, Note_on_c,65,75,4,1,1,76.0,True
38902,728, Note_on_c,49,75,4,1,1,57.0,False
38903,729, Note_on_c,56,75,4,1,1,65.0,False
38904,729, Note_on_c,61,75,4,1,1,71.0,False
38905,730, Note_on_c,60,75,4,1,1,70.0,True
38906,730, Note_on_c,63,75,4,1,1,73.0,False
38907,731, Note_on_c,49,75,4,1,1,57.0,False
38908,732, Note_on_c,56,75,4,1,1,65.0,False
38909,732, Note_on_c,61,75,4,1,1,71.0,False
38910,733, Note_on_c,60,75,4,1,1,70.0,True
38911,733, Note_on_c,63,75,4,1,1,73.0,False
38912,734, Note_on_c,56,75,4,1,1,65.0,False
38913,734, Note_on_c,61,75,4,1,1,71.0,False
38914,735, Note_on_c,60,75,4,1,1,70.0,True
38915,735, Note_on_c,65,75,4,1,1,76.0,True
38916,736, Note_on_c,49,75,4,1,1,57.0,False
38917,737, Note_on_c,56,75,4,1,1,65.0,False
38918,737, Note_on_c,61,75,4,1,1,71.0,False
38919,738, Note_on_c,60,75,4,1,1,70.0,True
38920,738, Note_on_c,63,75,4,1,1,73.0,False
38921,739, Note_on_c,49,75,4,1,1,57.0,False
38922,740, Note_on_c,56,75,4,1,1,65.0,False
38923,740, Note_on_c,61,75,4,1,1,71.0,False
38924,741, Note_on_c,60,75,4,1,1,70.0,True
38925,741, Note_on_c,63,75,4,1,1,73.0,False
38926,742, Note_on_c,56,75,4,1,1,65.0,False
38927,742, Note_on_c,61,75,4,1,1,71.0,False
38928,743, Note_on_c,60,75,4,1,1,70.0,True
38929,743, Note_on_c,65,75,4,1,1,76.0,True
38930,744, Note_on_c,49,75,4,1,1,57.0,False
38931,745, Note_on_c,56,75,4,1,1,65.0,False
38932,745, Note_on_c,61,75,4,1,1,71.0,False
38933,746, Note_on_c,60,75,4,1,1,70.0,True
38934,746, Note_on_c,63,75,4,1,1,73.0,False
38935,747, Note_on_c,49,75,4,1,1,57.0,False
38936,748, Note_on_c,56,75,4,1,1,65.0,False
38937,748, Note_on_c,61,75,4,1,1,71.0,False
38938,749, Note_on_c,60,75,4,1,1,70.0,True
38939,749, Note_on_c,63,75,4,1,1,73.0,False
38940,750, Note_on_c,56,75,4,1,1,65.0,False
38941,750, Note_on_c,61,75,4,1,1,71.0,False
38942,751, Note_on_c,60,75,4,1,1,70.0,True
38943,751, Note_on_c,65,75,4,1,1,76.0,True
38944,752, Note_on_c,49,75,4,1,1,57.0,False
38945,753, Note_on_c,56,75,4,1,1,65.0,False
38946,753, Note_on_c,61,75,4,1,1,71.0,False
38947,754, Note_on_c,60,75,4,1,1,70.0,True
38948,754, Note_on_c,63,75,4,1,1,73.0,False
38949,755, Note_on_c,49,75,4,1,1,57.0,False
38950,756, Note_on_c,56,75,4,1,1,65.0,False
38951,756, Note_on_c,61,75,4,1,1,71.0,False
38952,757, Note_on_c,60,75,4,1,1,70.0,True
38953,757, Note_on_c,63,75,4,1,1,73.0,False
38954,758, Note_on_c,56,75,4,1,1,65.0,False
38955,758, Note_on_c,61,75,4,1,1,71.0,False
38956,759, Note_on_c,60,75,4,1,1,70.0,True
38957,759, Note_on_c,65,75,4,1,1,76.0,True
38958,760, Note_on_c,49,75,4,1,1,57.0,False
38959,761, Note_on_c,56,75,4,1,1,65.0,False
38960,761, Note_on_c,61,75,4,1,1,71.0,False
38961,762, Note_on_c,60,75,4,1,1,70.0,True
38962,762, Note_on_c,63,75,4,1,1,73.0,False
38963,763, Note_on_c,49,75,4,1,1,57.0,False
38964,764, Note_on_c,56,75,4,1,1,65.0,False
38965,764, Note_on_c,61,75,4,1,1,71.0,False
38966,765, Note_on_c,60,75,4,1,1,70.0,True
38967,765, Note_on_c,63,75,4,1,1,73.0,False
38968,766, Note_on_c,56,75,4,1,1,65.0,False
38969,766, Note_on_c,61,75,4,1,1,71.0,False
38970,767, Note_on_c,60,75,4,1,1,70.0,True
38971,767, Note_on_c,65,75,4,1,1,76.0,True
38972,768, Note_on_c,49,75,4,1,1,57.0,False
38973,769, Note_on_c,56,75,4,1,1,65.0,False
38974,769, Note_on_c,61,75,4,1,1,71.0,False
38975,770, Note_on_c,60,75,4,1,1,70.0,True
38976,770, Note_on_c,63,75,4,1,1,73.0,False
38977,771, Note_on_c,49,75,4,1,1,57.0,False
38978,772, Note_on_c,56,75,4,1,1,65.0,False
38979,772, Note_on_c,61,75,4,1,1,71.0,False
38980,773, Note_on_c,60,75,4,1,1,70.0,True
38981,773, Note_on_c,63,75,4,1,1,73.0,False
38982,774, Note_on_c,56,75,4,1,1,65.0,False
38983,774, Note_on_c,61,75,4,1,1,71.0,False
38984,775, Note_on_c,60,75,4,1,1,70.0,True
38985,775, Note_on_c,65,75,4,1,1,76.0,True
38986,776, Note_on_c,49,75,4,1,1,57.0,False
38987,777, Note_on_c,56,75,4,1,1,65.0,False
38988,777, Note_on_c,61,75,4,1,1,71.0,False
38989,778, Note_on_c,60,75,4,1,1,70.0,True
38990,778, Note_on_c,63,75,4,1,1,73.0,False
38991,779, Note_on_c,49,75,4,1,1,57.0,False
38992,780, Note_on_c,56,75,4,1,1,65.0,False
38993,780, Note_on_c,61,75,4,1,1,71.0,False
38994,781, Note_on_c,60,75,4,1,1,70.0,True
38995,781, Note_on_c,63,75,4,1,1,73.0,False
38996,782, Note_on_c,56,75,4,1,1,65.0,False
38997,782, Note_on_c,61,75,4,1,1,71.0,False
38998,783, Note_on_c,60,75,4,1,1,70.0,True
38999,783, Note_on_c,65,75,4,1,1,76.0,True
39000,784, Note_on_c,49,75,4,1,1,57.0,False
39001,785, Note_on_c,56,75,4,1,1,65.0,False
39002,785, Note_on_c,61,75,4,1,1,71.0,False
39003,786, Note_on_c,60,75,4,1,1,70.0,True
39004,786, Note_on_c,63,75,4,1,1,73.0,False
39005,787, Note_on_c,49,75,4,1,1,57.0,False
39006,788, Note_on_c,56,75,4,1,1,65.0,False
39007,788, Note_on_c,61,75,4,1,1,71.0,False
39008,789, Note_on_c,60,75,4,1,1,70.0,True
39009,789, Note_on_c,63,75,4,1,1,73.0,False
39010,790, Note_on_c,56,75,4,1,1,65.0,False
39011,790, Note_on_c,61,75,4,1,1,71.0,False
39012,791, Note_on_c,60,75,4,1,1,70.0,True
39013,791, Note_on_c,65,75,4,1,1,76.0,True
39014,792, Note_on_c,49,75,4,1,1,57.0,False
39015,793, Note_on_c,56,75,4,1,1,65.0,False
39016,793, Note_on_c,61,75,4,1,1,71.0,False
39017,794, Note_on_c,60,75,4,1,1,70.0,True
39018,794, Note_on_c,63,75,4,1,1,73.0,False
39019,795, Note_on_c,49,75,4,1,1,57.0,False
39020,796, Note_on_c,56,75,4,1,1,65.0,False
39021,796, Note_on_c,61,75,4,1,1,71.0,False
39022,797, Note_on_c,60,75,4,1,1,70.0,True
39023,797, Note_on_c,63,75,4,1,1,73.0,False
39024,798, Note_on_c,56,75,4,1,1,65.0,False
39025,798, Note_on_c,61,75,4,1,1,71.0,False
39026,799, Note_on_c,60,75,4,1,1,70.0,True
39027,799, Note_on_c,65,75,4,1,1,76.0,True
39028,800, Note_on_c,49,75,4,1,1,57.0,False
39029,801, Note_on_c,56,75,4,1,1,65.0,False
39030,801, Note_on_c,61,75,4,1,1,71.0,False
39031,802, Note_on_c,60,75,4,1,1,70.0,True
39032,802, Note_on_c,63,75,4,1,1,73.0,False
39033,803, Note_on_c,49,75,4,1,1,57.0,False
39034,804, Note_on_c,56,75,4,1,1,65.0,False
39035,804, Note_on_c,61,75,4,1,1,71.0,False
39036,805, Note_on_c,60,75,4,1,1,70.0,True
39037,805, Note_on_c,63,75,4,1,1,73.0,False
39038,806, Note_on_c,56,75,4,1,1,65.0,False
39039,806, Note_on_c,61,75,4,1,1,71.0,False
39040,807, Note_on_c,60,75,4,1,1,70.0,True
39041,807, Note_on_c,65,75,4,1,1,76.0,True
39042,808, Note_on_c,49,75,4,1,1,57.0,False
39043,809, Note_on_c,56,75,4,1,1,65.0,False
39044,809, Note_on_c,61,75,4,1,1,71.0,False
39045,810, Note_on_c,60,75,4,1,1,70.0,True
39046,810, Note_on_c,63,75,4,1,1,73.0,False
39047,811, Note_on_c,49,75,4,1,1,57.0,False
39048,812, Note_on_c,56,75,4,1,1,65.0,False
39049,812, Note_on_c,61,75,4,1,1,71.0,False
39050,813, Note_on_c,60,75,4,1,1,70.0,True
39051,813, Note_on_c,63,75,4,1,1,73.0,False
39052,814, Note_on_c,56,75,4,1,1,65.0,False
39053,814, Note_on_c,61,75,4,1,1,71.0,False
39054,815, Note_on_c,60,75,4,1,1,70.0,True
39055,815, Note_on_c,65,75,4,1,1,76.0,True
39056,816, Note_on_c,49,75,4,1,1,57.0,False
39057,817, Note_on_c,56,75,4,1,1,65.0,False
39058,817, Note_on_c,61,75,4,1,1,71.0,False
39059,818, Note_on_c,60,75,4,1,1,70.0,True
39060,818, Note_on_c,63,75,4,1,1,73.0,False
39061,819, Note_on_c,49,75,4,1,1,57.0,False
39062,820, Note_on_c,56,75,4,1,1,65.0,False
39063,820, Note_on_c,61,75,4,1,1,71.0,False
39064,821, Note_on_c,60,75,4,1,1,70.0,True
39065,821, Note_on_c,63,75,4,1,1,73.0,False
39066,822, Note_on_c,56,75,4,1,1,65.0,False
39067,822, Note_on_c,61,75,4,1,1,71.0,False
39068,823, Note_on_c,60,75,4,1,1,70.0,True
39069,823, Note_on_c,65,75,4,1,1,76.0,True
39070,824, Note_on_c,49,75,4,1,1,57.0,False
39071,825, Note_on_c,56,75,4,1,1,65.0,False
39072,825, Note_on_c,61,75,4,1,1,71.0,False
39073,826, Note_on_c,60,75,4,1,1,70.0,True
39074,826, Note_on_c,63,75,4,1,1,73.0,False
39075,827, Note_on_c,49,75,4,1,1,57.0,False
39076,828, Note_on_c,56,75,4,1,1,65.0,False
39077,828, Note_on_c,61,75,4,1,1,71.0,False
39078,829, Note_on_c,60,75,4,1,1,70.0,True
39079,829, Note_on_c,63,75,4,1,1,73.0,False
39080,830, Note_on_c,56,75,4,1,1,65.0,False
39081,830, Note_on_c,61,75,4,1,1,71.0,False
39082,831, Note_on_c,60,75,4,1,1,70.0,True
39083,831, Note_on_c,65,75,4,1,1,76.0,True
39084,832, Note_on_c,49,75,4,1,1,57.0,False
39085,833, Note_on_c,56,75,4,1,1,65.0,False
39086,833, Note_on_c,61,75,4,1,1,71.0,False
39087,834, Note_on_c,60,75,4,1,1,70.0,True
39088,834, Note_on_c,63,75,4,1,1,73.0,False
39089,835, Note_on_c,49,75,4,1,1,57.0,False
39090,836, Note_on_c,56,75,4,1,1,65.0,False
39091,836, Note_on_c,61,75,4,1,1,71.0,False
39092,837, Note_on_c,60,75,4,1,1,70.0,True
39093,837, Note_on_c,63,75,4,1,1,73.0,False
39094,838, Note_on_c,56,75,4,1,1,65.0,False
39095,838, Note_on_c,61,75,4,1,1,71.0,False
39096,839, Note_on_c,60,75,4,1,1,70.0,True
39097,839, Note_on_c,65,75,4,1,1,76.0,True
39098,840, Note_on_c,49,75,4,1,1,57.0,False
39099,841, Note_on_c,56,75,4,1,1,65.0,False
39100,841, Note_on_c,61,75,4,1,1,71.0,False
39101,842, Note_on_c,60,75,4,1,1,70.0,True
39102,842, Note_on_c,63,75,4,1,1,73.0,False
39103,843, Note_on_c,49,75,4,1,1,57.0,False
39104,844, Note_on_c,56,75,4,1,1,65.0,False
39105,844, Note_on_c,61,75,4,1,1,71.0,False
39106,845, Note_on_c,60,75,4,1,1,70.0,True
39107,845, Note_on_c,63,75,4,1,1,73.0,False
39108,846, Note_on_c,56,75,4,1,1,65.0,False
39109,846, Note_on_c,61,75,4,1,1,71.0,False
39110,847, Note_on_c,60,75,4,1,1,70.0,True
39111,847, Note_on_c,65,75,4,1,1,76.0,True
39112,848, Note_on_c,49,75,4,1,1,57.0,False
39113,849, Note_on_c,56,75,4,1,1,65.0,False
39114,849, Note_on_c,61,75,4,1,1,71.0,False
39115,850, Note_on_c,60,75,4,1,1,70.0,True
39116,850, Note_on_c,63,75,4,1,1,73.0,False
39117,851, Note_on_c,49,75,4,1,1,57.0,False
39118,852, Note_on_c,56,75,4,1,1,65.0,False
39119,852, Note_on_c,61,75,4,1,1,71.0,False
39120,853, Note_on_c,60,75,4,1,1,70.0,True
39121,853, Note_on_c,63,75,4,1,1,73.0,False
39122,854, Note_on_c,56,75,4,1,1,65.0,False
39123,854, Note_on_c,61,75,4,1,1,71.0,False
39124,855, Note_on_c,60,75,4,1,1,70.0,True
39125,855, Note_on_c,65,75,4,1,1,76.0,True
39126,856, Note_on_c,49,75,4,1,1,57.0,False
39127,857, Note_on_c,56,75,4,1,1,65.0,False
39128,857, Note_on_c,61,75,4,1,1,71.0,False
39129,858, Note_on_c,60,75,4,1,1,70.0,True
39130,858, Note_on_c,63,75,4,1,1,73.0,False
39131,859, Note_on_c,49,75,4,1,1,57.0,False
39132,860, Note_on_c,56,75,4,1,1,65.0,False
39133,860, Note_on_c,61,75,4,1,1,71.0,False
39134,861, Note_on_c,60,75,4,1,1,70.0,True
39135,861, Note_on_c,63,75,4,1,1,73.0,False
39136,862, Note_on_c,56,75,4,1,1,65.0,False
39137,862, Note_on_c,61,75,4,1,1,71.0,False
39138,863, Note_on_c,60,75,4,1,1,70.0,True
39139,863, Note_on_c,65,75,4,1,1,76.0,True
39140,864, Note_on_c,49,75,4,1,1,57.0,False
39141,865, Note_on_c,56,75,4,1,1,65.0,False
39142,865, Note_on_c,61,75,4,1,1,71.0,False
39143,866, Note_on_c,60,75,4,1,1,70.0,True
39144,866, Note_on_c,63,75,4,1,1,73.0,False
39145,867, Note_on_c,49,75,4,1,1,57.0,False
39146,868, Note_on_c,56,75,4,1,1,65.0,False
39147,868, Note_on_c,61,75,4,1,1,71.0,False
39148,869, Note_on_c,60,75,4,1,1,70.0,True
39149,869, Note_on_c,63,75,4,1,1,73.0,False
39150,870, Note_on_c,56,75,4,1,1,65.0,False
39151,870, Note_on_c,61,75,4,1,1,71.0,False
39152,871, Note_on_c,60,75,4,1,1,70.0,True
39153,871, Note_on_c,65,75,4,1,1,76.0,True
39154,872, Note_on_c,49,75,4,1,1,57.0,False
39155,873, Note_on_c,56,75,4,1,1,65.0,False
39156,873, Note_on_c,61,75,4,1,1,71.0,False
39157,874, Note_on_c,60,75,4,1,1,70.0,True
39158,874, Note_on_c,63,75,4,1,1,73.0,False
39159,875, Note_on_c,49,75,4,1,1,57.0,False
39160,876, Note_on_c,56,75,4,1,1,65.0,False
39161,876, Note_on_c,61,75,4,1,1,71.0,False
39162,877, Note_on_c,60,75,4,1,1,70.0,True
39163,877, Note_on_c,63,75,4,1,1,73.0,False
39164,878, Note_on_c,56,75,4,1,1,65.0,False
39165,878, Note_on_c,61,75,4,1,1,71.0,False
39166,879, Note_on_c,60,75,4,1,1,70.0,True
39167,879, Note_on_c,65,75,4,1,1,76.0,True
39168,880, Note_on_c,49,75,4,1,1,57.0,False
39169,881, Note_on_c,56,75,4,1,1,65.0,False
39170,881, Note_on_c,61,75,4,1,1,71.0,False
39171,882, Note_on_c,60,75,4,1,1,70.0,True
39172,882, Note_on_c,63,75,4,1,1,73.0,False
39173,883, Note_on_c,49,75,4,1,1,57.0,False
39174,884, Note_on_c,56,75,4,1,1,65.0,False
39175,884, Note_on_c,61,75,4,1,1,71.0,False
39176,885, Note_on_c,60,75,4,1,1,70.0,True
39177,885, Note_on_c,63,75,4,1,1,73.0,False
39178,886, Note_on_c,56,75,4,1,1,65.0,False
39179,886, Note_on_c,61,75,4,1,1,71.0,False
39180,887, Note_on_c,60,75,4,1,1,70.0,True
39181,887, Note_on_c,65,75,4,1,1,76.0,True
39182,888, Note_on_c,49,75,4,1,1,57.0,False
39183,889, Note_on_c,56,75,4,1,1,65.0,False
39184,889, Note_on_c,61,75,4,1,1,71.0,False
39185,890, Note_on_c,60,75,4,1,1,70.0,True
39186,890, Note_on_c,63,75,4,1,1,73.0,False
39187,891, Note_on_c,49,75,4,1,1,57.0,False
39188,892, Note_on_c,56,75,4,1,1,65.0,False
39189,892, Note_on_c,61,75,4,1,1,71.0,False
39190,893, Note_on_c,60,75,4,1,1,70.0,True
39191,893, Note_on_c,63,75,4,1,1,73.0,False
39192,894, Note_on_c,56,75,4,1,1,65.0,False
39193,894, Note_on_c,61,75,4,1,1,71.0,False
39194,895, Note_on_c,60,75,4,1,1,70.0,True
39195,895, Note_on_c,65,75,4,1,1,76.0,True
39196,896, Note_on_c,49,75,4,1,1,57.0,False
39197,897, Note_on_c,56,75,4,1,1,65.0,False
39198,897, Note_on_c,61,75,4,1,1,71.0,False
39199,898, Note_on_c,60,75,4,1,1,70.0,True
39200,898, Note_on_c,63,75,4,1,1,73.0,False
39201,899, Note_on_c,49,75,4,1,1,57.0,False
39202,900, Note_on_c,56,75,4,1,1,65.0,False
39203,900, Note_on_c,61,75,4,1,1,71.0,False
39204,901, Note_on_c,60,75,4,1,1,70.0,True
39205,901, Note_on_c,63,75,4,1,1,73.0,False
39206,902, Note_on_c,56,75,4,1,1,65.0,False
39207,902, Note_on_c,61,75,4,1,1,71.0,False
39208,903, Note_on_c,60,75,4,1,1,70.0,True
39209,903, Note_on_c,65,75,4,1,1,76.0,True
39210,904, Note_on_c,49,75,4,1,1,57.0,False
39211,905, Note_on_c,56,75,4,1,1,65.0,False
39212,905, Note_on_c,61,75,4,1,1,71.0,False
39213,906, Note_on_c,60,75,4,1,1,70.0,True
39214,906, Note_on_c,63,75,4,1,1,73.0,False
39215,907, Note_on_c,49,75,4,1,1,57.0,False
39216,908, Note_on_c,56,75,4,1,1,65.0,False
39217,908, Note_on_c,61,75,4,1,1,71.0,False
39218,909, Note_on_c,60,75,4,1,1,70.0,True
39219,909, Note_on_c,63,75,4,1,1,73.0,False
39220,910, Note_on_c,56,75,4,1,1,65.0,False
39221,910, Note_on_c,61,75,4,1,1,71.0,False
39222,911, Note_on_c,60,75,4,1,1,70.0,True
39223,911, Note_on_c,65,75,4,1,1,76.0,True
39224,912, Note_on_c,49,75,4,1,1,57.0,False
39225,913, Note_on_c,56,75,4,1,1,65.0,False
39226,913, Note_on_c,61,75,4,1,1,71.0,False
39227,914, Note_on_c,60,75,4,1,1,70.0,True
39228,914, Note_on_c,63,75,4,1,1,73.0,False
39229,915, Note_on_c,49,75,4,1,1,57.0,False
39230,916, Note_on_c,56,75,4,1,1,65.0,False
39231,916, Note_on_c,61,75,4,1,1,71.0,False
39232,917, Note_on_c,60,75,4,1,1,70.0,True
39233,917, Note_on_c,63,75,4,1,1,73.0,False
39234,918, Note_on_c,56,75,4,1,1,65.0,False
39235,918, Note_on_c,61,75,4,1,1,71.0,False
39236,919, Note_on_c,60,75,4,1,1,70.0,True
39237,919, Note_on_c,65,75,4,1,1,76.0,True
39238,920, Note_on_c,49,75,4,1,1,57.0,False
39239,921, Note_on_c,56,75,4,1,1,65.0,False
39240,921, Note_on_c,61,75,4,1,1,71.0,False
39241,922, Note_on_c,60,75,4,1,1,70.0,True
39242,922, Note_on_c,63,75,4,1,1,73.0,False
39243,923, Note_on_c,49,75,4,1,1,57.0,False
39244,924, Note_on_c,56,75,4,1,1,65.0,False
39245,924, Note_on_c,61,75,4,1,1,71.0,False
39246,925, Note_on_c,60,75,4,1,1,70.0,True
39247,925, Note_on_c,63,75,4,1,1,73.0,False
39248,926, Note_on_c,56,75,4,1,1,65.0,False
39249,926, Note_on_c,61,75,4,1,1,71.0,False
39250,927, Note_on_c,60,75,4,1,1,70.0,True
39251,927, Note_on_c,65,75,4,1,1,76.0,True
39252,928, Note_on_c,49,75,4,1,1,57.0,False
39253,929, Note_on_c,56,75,4,1,1,65.0,False
39254,929, Note_on_c,61,75,4,1,1,71.0,False
39255,930, Note_on_c,60,75,4,1,1,70.0,True
39256,930, Note_on_c,63,75,4,1,1,73.0,False
39257,931, Note_on_c,49,75,4,1,1,57.0,False
39258,932, Note_on_c,56,75,4,1,1,65.0,False
39259,932, Note_on_c,61,75,4,1,1,71.0,False
39260,933, Note_on_c,60,75,4,1,1,70.0,True
39261,933, Note_on_c,63,75,4,1,1,73.0,False
39262,934, Note_on_c,56,75,4,1,1,65.0,False
39263,934, Note_on_c,61,75,4,1,1,71.0,False
39264,935, Note_on_c,60,75,4,1,1,70.0,True
39265,935, Note_on_c,65,75,4,1,1,76.0,True
39266,936, Note_on_c,49,75,4,1,1,57.0,False
39267,937, Note_on_c,56,75,4,1,1,65.0,False
39268,937, Note_on_c,61,75,4,1,1,71.0,False
39269,938, Note_on_c,60,75,4,1,1,70.0,True
39270,938, Note_on_c,63,75,4,1,1,73.0,False
39271,939, Note_on_c,49,75,4,1,1,57.0,False
39272,940, Note_on_c,56,75,4,1,1,65.0,False
39273,940, Note_on_c,61,75,4,1,1,71.0,False
39274,941, Note_on_c,60,75,4,1,1,70.0,True
39275,941, Note_on_c,63,75,4,1,1,73.0,False
39276,942, Note_on_c,56,75,4,1,1,65.0,False
39277,942, Note_on_c,61,75,4,1,1,71.0,False
39278,943, Note_on_c,60,75,4,1,1,70.0,True
39279,943, Note_on_c,65,75,4,1,1,76.0,True
39280,944, Note_on_c,49,75,4,1,1,57.0,False
39281,945, Note_on_c,56,75,4,1,1,65.0,False
39282,945, Note_on_c,61,75,4,1,1,71.0,False
39283,946, Note_on_c,60,75,4,1,1,70.0,True
39284,946, Note_on_c,63,75,4,1,1,73.0,False
39285,947, Note_on_c,49,75,4,1,1,57.0,False
39286,948, Note_on_c,56,75,4,1,1,65.0,False
39287,948, Note_on_c,61,75,4,1,1,71.0,False
39288,949, Note_on_c,60,75,4,1,1,70.0,True
39289,949, Note_on_c,63,75,4,1,1,73.0,False
39290,950, Note_on_c,56,75,4,1,1,65.0,False
39291,950, Note_on_c,61,75,4,1,1,71.0,False
39292,951, Note_on_c,60,75,4,1,1,70.0,True
39293,951, Note_on_c,65,75,4,1,1,76.0,True
39294,952, Note_on_c,49,75,4,1,1,57.0,False
39295,953, Note_on_c,56,75,4,1,1,65.0,False
39296,953, Note_on_c,61,75,4,1,1,71.0,False
39297,954, Note_on_c,60,75,4,1,1,70.0,True
39298,954, Note_on_c,63,75,4,1,1,73.0,False
39299,955, Note_on_c,49,75,4,1,1,57.0,False
39300,956, Note_on_c,56,75,4,1,1,65.0,False
39301,956, Note_on_c,61,75,4,1,1,71.0,False
39302,957, Note_on_c,60,75,4,1,1,70.0,True
39303,957, Note_on_c,63,75,4,1,1,73.0,False
39304,958, Note_on_c,56,75,4,1,1,65.0,False
39305,958, Note_on_c,61,75,4,1,1,71.0,False
39306,959, Note_on_c,60,75,4,1,1,70.0,True
39307,959, Note_on_c,65,75,4,1,1,76.0,True
39308,960, Note_on_c,49,75,4,1,1,57.0,False
39309,961, Note_on_c,56,75,4,1,1,65.0,False
39310,961, Note_on_c,61,75,4,1,1,71.0,False
39311,962, Note_on_c,60,75,4,1,1,70.0,True
39312,962, Note_on_c,63,75,4,1,1,73.0,False
39313,963, Note_on_c,49,75,4,1,1,57.0,False
39314,964, Note_on_c,56,75,4,1,1,65.0,False
39315,964, Note_on_c,61,75,4,1,1,71.0,False
39316,965, Note_on_c,60,75,4,1,1,70.0,True
39317,965, Note_on_c,63,75,4,1,1,73.0,False
39318,966, Note_on_c,56,75,4,1,1,65.0,False
39319,966, Note_on_c,61,75,4,1,1,71.0,False
39320,967, Note_on_c,60,75,4,1,1,70.0,True
39321,967, Note_on_c,65,75,4,1,1,76.0,True
39322,968, Note_on_c,49,75,4,1,1,57.0,False
39323,969, Note_on_c,56,75,4,1,1,65.0,False
39324,969, Note_on_c,61,75,4,1,1,71.0,False
39325,970, Note_on_c,60,75,4,1,1,70.0,True
39326,970, Note_on_c,63,75,4,1,1,73.0,False
39327,971, Note_on_c,49,75,4,1,1,57.0,False
39328,972, Note_on_c,56,75,4,1,1,65.0,False
39329,972, Note_on_c,61,75,4,1,1,71.0,False
39330,973, Note_on_c,60,75,4,1,1,70.0,True
39331,973, Note_on_c,63,75,4,1,1,73.0,False
39332,974, Note_on_c,56,75,4,1,1,65.0,False
39333,974, Note_on_c,61,75,4,1,1,71.0,False
39334,975, Note_on_c,60,75,4,1,1,70.0,True
39335,975, Note_on_c,65,75,4,1,1,76.0,True
39336,976, Note_on_c,49,75,4,1,1,57.0,False
39337,977, Note_on_c,56,75,4,1,1,65.0,False
39338,977, Note_on_c,61,75,4,1,1,71.0,False
39339,978, Note_on_c,60,75,4,1,1,70.0,True
39340,978, Note_on_c,63,75,4,1,1,73.0,False
39341,979, Note_on_c,49,75,4,1,1,57.0,False
39342,980, Note_on_c,56,75,4,1,1,65.0,False
39343,980, Note_on_c,61,75,4,1,1,71.0,False
39344,981, Note_on_c,60,75,4,1,1,70.0,True
39345,981, Note_on_c,63,75,4,1,1,73.0,False
39346,982, Note_on_c,56,75,4,1,1,65.0,False
39347,982, Note_on_c,61,75,4,1,1,71.0,False
39348,983, Note_on_c,60,75,4,1,1,70.0,True
39349,983, Note_on_c,65,75,4,1,1,76.0,True
39350,984, Note_on_c,49,75,4,1,1,57.0,False
39351,985, Note_on_c,56,75,4,1,1,65.0,False
39352,985, Note_on_c,61,75,4,1,1,71.0,False
39353,986, Note_on_c,60,75,4,1,1,70.0,True
39354,986, Note_on_c,63,75,4,1,1,73.0,False
39355,987, Note_on_c,49,75,4,1,1,57.0,False
39356,988, Note_on_c,56,75,4,1,1,65.0,False
39357,988, Note_on_c,61,75,4,1,1,71.0,False
39358,989, Note_on_c,60,75,4,1,1,70.0,True
39359,989, Note_on_c,63,75,4,1,1,73.0,False
39360,990, Note_on_c,56,75,4,1,1,65.0,False
39361,990, Note_on_c,61,75,4,1,1,71.0,False
39362,991, Note_on_c,60,75,4,1,1,70.0,True
39363,991, Note_on_c,65,75,4,1,1,76.0,True
39364,992, Note_on_c,49,75,4,1,1,57.0,False
39365,993, Note_on_c,56,75,4,1,1,65.0,False
39366,993, Note_on_c,61,75,4,1,1,71.0,False
39367,994, Note_on_c,60,75,4,1,1,70.0,True
39368,994, Note_on_c,63,75,4,1,1,73.0,False
39369,995, Note_on_c,49,75,4,1,1,57.0,False
39370,996, Note_on_c,56,75,4,1,1,65.0,False
39371,996, Note_on_c,61,75,4,1,1,71.0,False
39372,997, Note_on_c,60,75,4,1,1,70.0,True
39373,997, Note_on_c,63,75,4,1,1,73.0,False
39374,998, Note_on_c,56,75,4,1,1,65.0,False
39375,998, Note_on_c,61,75,4,1,1,71.0,False
39376,999, Note_on_c,60,75,4,1,1,70.0,True
39377,999, Note_on_c,65,75,4,1,1,76.0,True
39378,1000, Note_on_c,49,75,4,1,1,57.0,False
39379,1001, Note_on_c,56,75,4,1,1,65.0,False
39380,1001, Note_on_c,61,75,4,1,1,71.0,False
39381,1002, Note_on_c,60,75,4,1,1,70.0,True
39382,1002, Note_on_c,63,75,4,1,1,73.0,False
39383,1003, Note_on_c,49,75,4,1,1,57.0,False
39384,1004, Note_on_c,56,75,4,1,1,65.0,False
39385,1004, Note_on_c,61,75,4,1,1,71.0,False
39386,1005, Note_on_c,60,75,4,1,1,70.0,True
39387,1005, Note_on_c,63,75,4,1,1,73.0,False
39388,1006, Note_on_c,56,75,4,1,1,65.0,False
39389,1006, Note_on_c,61,75,4,1,1,71.0,False
39390,1007, Note_on_c,60,75,4,1,1,70.0,True
39391,1007, Note_on_c,65,75,4,1,1,76.0,True
39392,1008, Note_on_c,49,75,4,1,1,57.0,False
39393,1009, Note_on_c,56,75,4,1,1,65.0,False
39394,1009, Note_on_c,61,75,4,1,1,71.0,False
39395,1010, Note_on_c,60,75,4,1,1,70.0,True
39396,1010, Note_on_c,63,75,4,1,1,73.0,False
39397,1011, Note_on_c,49,75,4,1,1,57.0,False
39398,1012, Note_on_c,56,75,4,1,1,65.0,False
39399,1012, Note_on_c,61,75,4,1,1,71.0,False
39400,1013, Note_on_c,60,75,4,1,1,70.0,True
39401,1013, Note_on_c,63,75,4,1,1,73.0,False
39402,1014, Note_on_c,56,75,4,1,1,65.0,False
39403,1014, Note_on_c,61,75,4,1,1,71.0,False
39404,1015, Note_on_c,60,75,4,1,1,70.0,True
39405,1015, Note_on_c,65,75,4,1,1,76.0,True
39406,1016, Note_on_c,49,75,4,1,1,57.0,False
39407,1017, Note_on_c,56,75,4,1,1,65.0,False
39408,1017, Note_on_c,61,75,4,1,1,71.0,False
39409,1018, Note_on_c,60,75,4,1,1,70.0,True
39410,1018, Note_on_c,63,75,4,1,1,73.0,False
39411,1019, Note_on_c,49,75,4,1,1,57.0,False
39412,1020, Note_on_c,56,75,4,1,1,65.0,False
39413,1020, Note_on_c,61,75,4,1,1,71.0,False
39414,1021, Note_on_c,60,75,4,1,1,70.0,True
39415,1021, Note_on_c,63,75,4,1,1,73.0,False
39416,1022, Note_on_c,56,75,4,1,1,65.0,False
39417,1022, Note_on_c,61,75,4,1,1,71.0,False
39418,1023, Note_on_c,60,75,4,1,1,70.0,True
39419,1023, Note_on_c,65,75,4,1,1,76.0,True
39420,1024, Note_on_c,49,75,4,1,1,57.0,False
39421,1025, Note_on_c,56,75,4,1,1,65.0,False
39422,1025, Note_on_c,61,75,4,1,1,71.0,False
39423,1026, Note_on_c,60,75,4,1,1,70.0,True
39424,1026, Note_on_c,63,75,4,1,1,73.0,False
39425,1027, Note_on_c,49,75,4,1,1,57.0,False
39426,1028, Note_on_c,56,75,4,1,1,65.0,False
39427,1028, Note_on_c,61,75,4,1,1,71.0,False
39428,1029, Note_on_c,60,75,4,1,1,70.0,True
39429,1029, Note_on_c,63,75,4,1,1,73.0,False
39430,1030, Note_on_c,56,75,4,1,1,65.0,False
39431,1030, Note_on_c,61,75,4,1,1,71.0,False
39432,1031, Note_on_c,60,75,4,1,1,70.0,True
39433,1031, Note_on_c,65,75,4,1,1,76.0,True
39434,1032, Note_on_c,49,75,4,1,1,57.0,False
39435,1033, Note_on_c,56,75,4,1,1,65.0,False
39436,1033, Note_on_c,61,75,4,1,1,71.0,False
39437,1034, Note_on_c,60,75,4,1,1,70.0,True
39438,1034, Note_on_c,63,75,4,1,1,73.0,False
39439,1035, Note_on_c,49,75,4,1,1,57.0,False
39440,1036, Note_on_c,56,75,4,1,1,65.0,False
39441,1036, Note_on_c,61,75,4,1,1,71.0,False
39442,1037, Note_on_c,60,75,4,1,1,70.0,True
39443,1037, Note_on_c,63,75,4,1,1,73.0,False
39444,1038, Note_on_c,56,75,4,1,1,65.0,False
39445,1038, Note_on_c,61,75,4,1,1,71.0,False
39446,1039, Note_on_c,60,75,4,1,1,70.0,True
39447,1039, Note_on_c,65,75,4,1,1,76.0,True
39448,1040, Note_on_c,49,75,4,1,1,57.0,False
39449,1041, Note_on_c,56,75,4,1,1,65.0,False
39450,1041, Note_on_c,61,75,4,1,1,71.0,False
39451,1042, Note_on_c,60,75,4,1,1,70.0,True
39452,1042, Note_on_c,63,75,4,1,1,73.0,False
39453,1043, Note_on_c,49,75,4,1,1,57.0,False
39454,1044, Note_on_c,56,75,4,1,1,65.0,False
39455,1044, Note_on_c,61,75,4,1,1,71.0,False
39456,1045, Note_on_c,60,75,4,1,1,70.0,True
39457,1045, Note_on_c,63,75,4,1,1,73.0,False
39458,1046, Note_on_c,56,75,4,1,1,65.0,False
39459,1046, Note_on_c,61,75,4,1,1,71.0,False
39460,1047, Note_on_c,60,75,4,1,1,70.0,True
39461,1047, Note_on_c,65,75,4,1,1,76.0,True
39462,1048, Note_on_c,49,75,4,1,1,57.0,False
39463,1049, Note_on_c,56,75,4,1,1,65.0,False
39464,1049, Note_on_c,61,75,4,1,1,71.0,False
39465,1050, Note_on_c,60,75,4,1,1,70.0,True
39466,1050, Note_on_c,63,75,4,1,1,73.0,False
39467,1051, Note_on_c,49,75,4,1,1,57.0,False
39468,1052, Note_on_c,56,75,4,1,1,65.0,False
39469,1052, Note_on_c,61,75,4,1,1,71.0,False
39470,1053, Note_on_c,60,75,4,1,1,70.0,True
39471,1053, Note_on_c,63,75,4,1,1,73.0,False
39472,1054, Note_on_c,56,75,4,1,1,65.0,False
39473,1054, Note_on_c,61,75,4,1,1,71.0,False
39474,1055, Note_on_c,60,75,4,1,1,70.0,True
39475,1055, Note_on_c,65,75,4,1,1,76.0,True
39476,1056, Note_on_c,49,75,4,1,1,57.0,False
39477,1057, Note_on_c,56,75,4,1,1,65.0,False
39478,1057, Note_on_c,61,75,4,1,1,71.0,False
39479,1058, Note_on_c,60,75,4,1,1,70.0,True
39480,1058, Note_on_c,63,75,4,1,1,73.0,False
39481,1059, Note_on_c,49,75,4,1,1,57.0,False
39482,1060, Note_on_c,56,75,4,1,1,65.0,False
39483,1060, Note_on_c,61,75,4,1,1,71.0,False
39484,1061, Note_on_c,60,75,4,1,1,70.0,True
39485,1061, Note_on_c,63,75,4,1,1,73.0,False
39486,1062, Note_on_c,56,75,4,1,1,65.0,False
39487,1062, Note_on_c,61,75,4,1,1,71.0,False
39488,1063, Note_on_c,60,75,4,1,1,70.0,True
39489,1063, Note_on_c,65,75,4,1,1,76.0,True
39490,1064, Note_on_c,49,75,4,1,1,57.0,False
39491,1065, Note_on_c,56,75,4,1,1,65.0,False
39492,1065, Note_on_c,61,75,4,1,1,71.0,False
39493,1066, Note_on_c,60,75,4,1,1,70.0,True
39494,1066, Note_on_c,63,75,4,1,1,73.0,False
39495,1067, Note_on_c,49,75,4,1,1,57.0,False
39496,1068, Note_on_c,56,75,4,1,1,65.0,False
39497,1068, Note_on_c,61,75,4,1,1,71.0,False
39498,1069, Note_on_c,60,75,4,1,1,70.0,True
39499,1069, Note_on_c,63,75,4,1,1,73.0,False
39500,1070, Note_on_c,56,75,4,1,1,65.0,False
39501,1070, Note_on_c,61,75,4,1,1,71.0,False
39502,1071, Note_on_c,60,75,4,1,1,70.0,True
39503,1071, Note_on_c,65,75,4,1,1,76.0,True
39504,1072, Note_on_c,49,75,4,1,1,57.0,False
39505,1073, Note_on_c,56,75,4,1,1,65.0,False
39506,1073, Note_on_c,61,75,4,1,1,71.0,False
39507,1074, Note_on_c,60,75,4,1,1,70.0,True
39508,1074, Note_on_c,63,75,4,1,1,73.0,False
39509,1075, Note_on_c,49,75,4,1,1,57.0,False
39510,1076, Note_on_c,56,75,4,1,1,65.0,False
39511,1076, Note_on_c,61,75,4,1,1,71.0,False
39512,1077, Note_on_c,60,75,4,1,1,70.0,True
39513,1077, Note_on_c,63,75,4,1,1,73.0,False
39514,1078, Note_on_c,56,75,4,1,1,65.0,False
39515,1078, Note_on_c,61,75,4,1,1,71.0,False
39516,1079, Note_on_c,60,75,4,1,1,70.0,True
39517,1079, Note_on_c,65,75,4,1,1,76.0,True
39518,1080, Note_on_c,49,75,4,1,1,57.0,False
39519,1081, Note_on_c,56,75,4,1,1,65.0,False
39520,1081, Note_on_c,61,75,4,1,1,71.0,False
39521,1082, Note_on_c,60,75,4,1,1,70.0,True
39522,1082, Note_on_c,63,75,4,1,1,73.0,False
39523,1083, Note_on_c,49,75,4,1,1,57.0,False
39524,1084, Note_on_c,56,75,4,1,1,65.0,False
39525,1084, Note_on_c,61,75,4,1,1,71.0,False
39526,1085, Note_on_c,60,75,4,1,1,70.0,True
39527,1085, Note_on_c,63,75,4,1,1,73.0,False
39528,1086, Note_on_c,56,75,4,1,1,65.0,False
39529,1086, Note_on_c,61,75,4,1,1,71.0,False
39530,1087, Note_on_c,60,75,4,1,1,70.0,True
39531,1087, Note_on_c,65,75,4,1,1,76.0,True
39532,1088, Note_on_c,49,75,4,1,1,57.0,False
39533,1089, Note_on_c,56,75,4,1,1,65.0,False
39534,1089, Note_on_c,61,75,4,1,1,71.0,False
39535,1090, Note_on_c,60,75,4,1,1,70.0,True
39536,1090, Note_on_c,63,75,4,1,1,73.0,False
39537,1091, Note_on_c,49,75,4,1,1,57.0,False
39538,1092, Note_on_c,56,75,4,1,1,65.0,False
39539,1092, Note_on_c,61,75,4,1,1,71.0,False
39540,1093, Note_on_c,60,75,4,1,1,70.0,True
39541,1093, Note_on_c,63,75,4,1,1,73.0,False
39542,1094, Note_on_c,56,75,4,1,1,65.0,False
39543,1094, Note_on_c,61,75,4,1,1,71.0,False
39544,1095, Note_on_c,60,75,4,1,1,70.0,True
39545,1095, Note_on_c,65,75,4,1,1,76.0,True
39546,1096, Note_on_c,49,75,4,1,1,57.0,False
39547,1097, Note_on_c,56,75,4,1,1,65.0,False
39548,1097, Note_on_c,61,75,4,1,1,71.0,False
39549,1098, Note_on_c,60,75,4,1,1,70.0,True
39550,1098, Note_on_c,63,75,4,1,1,73.0,False
39551,1099, Note_on_c,49,75,4,1,1,57.0,False
39552,1100, Note_on_c,56,75,4,1,1,65.0,False
39553,1100, Note_on_c,61,75,4,1,1,71.0,False
39554,1101, Note_on_c,60,75,4,1,1,70.0,True
39555,1101, Note_on_c,63,75,4,1,1,73.0,False
39556,1102, Note_on_c,56,75,4,1,1,65.0,False
39557,1102, Note_on_c,61,75,4,1,1,71.0,False
39558,1103, Note_on_c,60,75,4,1,1,70.0,True
39559,1103, Note_on_c,65,75,4,1,1,76.0,True
39560,1104, Note_on_c,49,75,4,1,1,57.0,False
39561,1105, Note_on_c,56,75,4,1,1,65.0,False
39562,1105, Note_on_c,61,75,4,1,1,71.0,False
39563,1106, Note_on_c,60,75,4,1,1,70.0,True
39564,1106, Note_on_c,63,75,4,1,1,73.0,False
39565,1107, Note_on_c,49,75,4,1,1,57.0,False
39566,1108, Note_on_c,56,75,4,1,1,65.0,False
39567,1108, Note_on_c,61,75,4,1,1,71.0,False
39568,1109, Note_on_c,60,75,4,1,1,70.0,True
39569,1109, Note_on_c,63,75,4,1,1,73.0,False
39570,1110, Note_on_c,56,75,4,1,1,65.0,False
39571,1110, Note_on_c,61,75,4,1,1,71.0,False
39572,1111, Note_on_c,60,75,4,1,1,70.0,True
39573,1111, Note_on_c,65,75,4,1,1,76.0,True
39574,1112, Note_on_c,49,75,4,1,1,57.0,False
39575,1113, Note_on_c,56,75,4,1,1,65.0,False
39576,1113, Note_on_c,61,75,4,1,1,71.0,False
39577,1114, Note_on_c,60,75,4,1,1,70.0,True
39578,1114, Note_on_c,63,75,4,1,1,73.0,False
39579,1115, Note_on_c,49,75,4,1,1,57.0,False
39580,1116, Note_on_c,56,75,4,1,1,65.0,False
39581,1116, Note_on_c,61,75,4,1,1,71.0,False
39582,1117, Note_on_c,60,75,4,1,1,70.0,True
39583,1117, Note_on_c,63,75,4,1,1,73.0,False
39584,1118, Note_on_c,56,75,4,1,1,65.0,False
39585,1118, Note_on_c,61,75,4,1,1,71.0,False
39586,1119, Note_on_c,60,75,4,1,1,70.0,True
39587,1119, Note_on_c,65,75,4,1,1,76.0,True
39588,1120, Note_on_c,49,75,4,1,1,57.0,False
39589,1121, Note_on_c,56,75,4,1,1,65.0,False
39590,1121, Note_on_c,61,75,4,1,1,71.0,False
39591,1122, Note_on_c,60,75,4,1,1,70.0,True
39592,1122, Note_on_c,63,75,4,1,1,73.0,False
39593,1123, Note_on_c,49,75,4,1,1,57.0,False
39594,1124, Note_on_c,56,75,4,1,1,65.0,False
39595,1124, Note_on_c,61,75,4,1,1,71.0,False
39596,1125, Note_on_c,60,75,4,1,1,70.0,True
39597,1125, Note_on_c,63,75,4,1,1,73.0,False
39598,1126, Note_on_c,56,75,4,1,1,65.0,False
39599,1126, Note_on_c,61,75,4,1,1,71.0,False
39600,1127, Note_on_c,60,75,4,1,1,70.0,True
39601,1127, Note_on_c,65,75,4,1,1,76.0,True
39602,1128, Note_on_c,49,75,4,1,1,57.0,False
39603,1129, Note_on_c,56,75,4,1,1,65.0,False
39604,1129, Note_on_c,61,75,4,1,1,71.0,False
39605,1130, Note_on_c,60,75,4,1,1,70.0,True
39606,1130, Note_on_c,63,75,4,1,1,73.0,False
39607,1131, Note_on_c,49,75,4,1,1,57.0,False
39608,1132, Note_on_c,56,75,4,1,1,65.0,False
39609,1132, Note_on_c,61,75,4,1,1,71.0,False
39610,1133, Note_on_c,60,75,4,1,1,70.0,True
39611,1133, Note_on_c,63,75,4,1,1,73.0,False
39612,1134, Note_on_c,56,75,4,1,1,65.0,False
39613,1134, Note_on_c,61,75,4,1,1,71.0,False
39614,1135, Note_on_c,60,75,4,1,1,70.0,True
39615,1135, Note_on_c,65,75,4,1,1,76.0,True
39616,1136, Note_on_c,49,75,4,1,1,57.0,False
39617,1137, Note_on_c,56,75,4,1,1,65.0,False
39618,1137, Note_on_c,61,75,4,1,1,71.0,False
39619,1138, Note_on_c,60,75,4,1,1,70.0,True
39620,1138, Note_on_c,63,75,4,1,1,73.0,False
39621,1139, Note_on_c,49,75,4,1,1,57.0,False
39622,1140, Note_on_c,56,75,4,1,1,65.0,False
39623,1140, Note_on_c,61,75,4,1,1,71.0,False
39624,1141, Note_on_c,60,75,4,1,1,70.0,True
39625,1141, Note_on_c,63,75,4,1,1,73.0,False
39626,1142, Note_on_c,56,75,4,1,1,65.0,False
39627,1142, Note_on_c,61,75,4,1,1,71.0,False
39628,1143, Note_on_c,60,75,4,1,1,70.0,True
39629,1143, Note_on_c,65,75,4,1,1,76.0,True
39630,1144, Note_on_c,49,75,4,1,1,57.0,False
39631,1145, Note_on_c,56,75,4,1,1,65.0,False
39632,1145, Note_on_c,61,75,4,1,1,71.0,False
39633,1146, Note_on_c,60,75,4,1,1,70.0,True
39634,1146, Note_on_c,63,75,4,1,1,73.0,False
39635,1147, Note_on_c,49,75,4,1,1,57.0,False
39636,1148, Note_on_c,56,75,4,1,1,65.0,False
39637,1148, Note_on_c,61,75,4,1,1,71.0,False
39638,1149, Note_on_c,60,75,4,1,1,70.0,True
39639,1149, Note_on_c,63,75,4,1,1,73.0,False
39640,1150, Note_on_c,56,75,4,1,1,65.0,False
39641,1150, Note_on_c,61,75,4,1,1,71.0,False
39642,1151, Note_on_c,60,75,4,1,1,70.0,True
39643,1151, Note_on_c,65,75,4,1,1,76.0,True
39644,1152, Note_on_c,49,75,4,1,1,57.0,False
39645,1153, Note_on_c,56,75,4,1,1,65.0,False
39646,1153, Note_on_c,61,75,4,1,1,71.0,False
39647,1154, Note_on_c,60,75,4,1,1,70.0,True
39648,1154, Note_on_c,63,75,4,1,1,73.0,False
39649,1155, Note_on_c,49,75,4,1,1,57.0,False
39650,1156, Note_on_c,56,75,4,1,1,65.0,False
39651,1156, Note_on_c,61,75,4,1,1,71.0,False
39652,1157, Note_on_c,60,75,4,1,1,70.0,True
39653,1157, Note_on_c,63,75,4,1,1,73.0,False
39654,1158, Note_on_c,56,75,4,1,1,65.0,False
39655,1158, Note_on_c,61,75,4,1,1,71.0,False
39656,1159, Note_on_c,60,75,4,1,1,70.0,True
39657,1159, Note_on_c,65,75,4,1,1,76.0,True
39658,1160, Note_on_c,49,75,4,1,1,57.0,False
39659,1161, Note_on_c,56,75,4,1,1,65.0,False
39660,1161, Note_on_c,61,75,4,1,1,71.0,False
39661,1162, Note_on_c,60,75,4,1,1,70.0,True
39662,1162, Note_on_c,63,75,4,1,1,73.0,False
39663,1163, Note_on_c,49,75,4,1,1,57.0,False
39664,1164, Note_on_c,56,75,4,1,1,65.0,False
39665,1164, Note_on_c,61,75,4,1,1,71.0,False
39666,1165, Note_on_c,60,75,4,1,1,70.0,True
39667,1165, Note_on_c,63,75,4,1,1,73.0,False
39668,1166, Note_on_c,56,75,4,1,1,65.0,False
39669,1166, Note_on_c,61,75,4,1,1,71.0,False
39670,1167, Note_on_c,60,75,4,1,1,70.0,True
39671,1167, Note_on_c,65,75,4,1,1,76.0,True
39672,1168, Note_on_c,49,75,4,1,1,57.0,False
39673,1169, Note_on_c,56,75,4,1,1,65.0,False
39674,1169, Note_on_c,61,75,4,1,1,71.0,False
39675,1170, Note_on_c,60,75,4,1,1,70.0,True
39676,1170, Note_on_c,63,75,4,1,1,73.0,False
39677,1171, Note_on_c,49,75,4,1,1,57.0,False
39678,1172, Note_on_c,56,75,4,1,1,65.0,False
39679,1172, Note_on_c,61,75,4,1,1,71.0,False
39680,1173, Note_on_c,60,75,4,1,1,70.0,True
39681,1173, Note_on_c,63,75,4,1,1,73.0,False
39682,1174, Note_on_c,56,75,4,1,1,65.0,False
39683,1174, Note_on_c,61,75,4,1,1,71.0,False
39684,1175, Note_on_c,60,75,4,1,1,70.0,True
39685,1175, Note_on_c,65,75,4,1,1,76.0,True
39686,1176, Note_on_c,49,75,4,1,1,57.0,False
39687,1177, Note_on_c,56,75,4,1,1,65.0,False
39688,1177, Note_on_c,61,75,4,1,1,71.0,False
39689,1178, Note_on_c,60,75,4,1,1,70.0,True
39690,1178, Note_on_c,63,75,4,1,1,73.0,False
39691,1179, Note_on_c,49,75,4,1,1,57.0,False
39692,1180, Note_on_c,56,75,4,1,1,65.0,False
39693,1180, Note_on_c,61,75,4,1,1,71.0,False
39694,1181, Note_on_c,60,75,4,1,1,70.0,True
39695,1181, Note_on_c,63,75,4,1,1,73.0,False
39696,1182, Note_on_c,56,75,4,1,1,65.0,False
39697,1182, Note_on_c,61,75,4,1,1,71.0,False
39698,1183, Note_on_c,60,75,4,1,1,70.0,True
39699,1183, Note_on_c,65,75,4,1,1,76.0,True
39700,1184, Note_on_c,49,75,4,1,1,57.0,False
39701,1185, Note_on_c,56,75,4,1,1,65.0,False
39702,1185, Note_on_c,61,75,4,1,1,71.0,False
39703,1186, Note_on_c,60,75,4,1,1,70.0,True
39704,1186, Note_on_c,63,75,4,1,1,73.0,False
39705,1187, Note_on_c,49,75,4,1,1,57.0,False
39706,1188, Note_on_c,56,75,4,1,1,65.0,False
39707,1188, Note_on_c,61,75,4,1,1,71.0,False
39708,1189, Note_on_c,60,75,4,1,1,70.0,True
39709,1189, Note_on_c,63,75,4,1,1,73.0,False
39710,1190, Note_on_c,56,75,4,1,1,65.0,False
39711,1190, Note_on_c,61,75,4,1,1,71.0,False
39712,1191, Note_on_c,60,75,4,1,1,70.0,True
39713,1191, Note_on_c,65,75,4,1,1,76.0,True
39714,1192, Note_on_c,49,75,4,1,1,57.0,False
39715,1193, Note_on_c,56,75,4,1,1,65.0,False
39716,1193, Note_on_c,61,75,4,1,1,71.0,False
39717,1194, Note_on_c,60,75,4,1,1,70.0,True
39718,1194, Note_on_c,63,75,4,1,1,73.0,False
39719,1195, Note_on_c,49,75,4,1,1,57.0,False
39720,1196, Note_on_c,56,75,4,1,1,65.0,False
39721,1196, Note_on_c,61,75,4,1,1,71.0,False
39722,1197, Note_on_c,60,75,4,1,1,70.0,True
39723,1197, Note_on_c,63,75,4,1,1,73.0,False
39724,1198, Note_on_c,56,75,4,1,1,65.0,False
39725,1198, Note_on_c,61,75,4,1,1,71.0,False
39726,1199, Note_on_c,60,75,4,1,1,70.0,True
39727,1199, Note_on_c,65,75,4,1,1,76.0,True
39728,1200, Note_on_c,49,75,4,1,1,57.0,False
39729,1201, Note_on_c,56,75,4,1,1,65.0,False
39730,1201, Note_on_c,61,75,4,1,1,71.0,False
39731,1202, Note_on_c,60,75,4,1,1,70.0,True
39732,1202, Note_on_c,63,75,4,1,1,73.0,False
39733,1203, Note_on_c,49,75,4,1,1,57.0,False
39734,1204, Note_on_c,56,75,4,1,1,65.0,False
39735,1204, Note_on_c,61,75,4,1,1,71.0,False
39736,1205, Note_on_c,60,75,4,1,1,70.0,True
39737,1205, Note_on_c,63,75,4,1,1,73.0,False
39738,1206, Note_on_c,56,75,4,1,1,65.0,False
39739,1206, Note_on_c,61,75,4,1,1,71.0,False
39740,1207, Note_on_c,60,75,4,1,1,70.0,True
39741,1207, Note_on_c,65,75,4,1,1,76.0,True
39742,1208, Note_on_c,49,75,4,1,1,57.0,False
39743,1209, Note_on_c,56,75,4,1,1,65.0,False
39744,1209, Note_on_c,61,75,4,1,1,71.0,False
39745,1210, Note_on_c,60,75,4,1,1,70.0,True
39746,1210, Note_on_c,63,75,4,1,1,73.0,False
39747,1211, Note_on_c,49,75,4,1,1,57.0,False
39748,1212, Note_on_c,56,75,4,1,1,65.0,False
39749,1212, Note_on_c,61,75,4,1,1,71.0,False
39750,1213, Note_on_c,60,75,4,1,1,70.0,True
39751,1213, Note_on_c,63,75,4,1,1,73.0,False
39752,1214, Note_on_c,56,75,4,1,1,65.0,False
39753,1214, Note_on_c,61,75,4,1,1,71.0,False
39754,1215, Note_on_c,60,75,4,1,1,70.0,True
39755,1215, Note_on_c,65,75,4,1,1,76.0,True
39756,1216, Note_on_c,49,75,4,1,1,57.0,False
39757,1217, Note_on_c,56,75,4,1,1,65.0,False
39758,1217, Note_on_c,61,75,4,1,1,71.0,False
39759,1218, Note_on_c,60,75,4,1,1,70.0,True
39760,1218, Note_on_c,63,75,4,1,1,73.0,False
39761,1219, Note_on_c,49,75,4,1,1,57.0,False
39762,1220, Note_on_c,56,75,4,1,1,65.0,False
39763,1220, Note_on_c,61,75,4,1,1,71.0,False
39764,1221, Note_on_c,60,75,4,1,1,70.0,True
39765,1221, Note_on_c,63,75,4,1,1,73.0,False
39766,1222, Note_on_c,56,75,4,1,1,65.0,False
39767,1222, Note_on_c,61,75,4,1,1,71.0,False
39768,1223, Note_on_c,60,75,4,1,1,70.0,True
39769,1223, Note_on_c,65,75,4,1,1,76.0,True
39770,1224, Note_on_c,49,75,4,1,1,57.0,False
39771,1225, Note_on_c,56,75,4,1,1,65.0,False
39772,1225, Note_on_c,61,75,4,1,1,71.0,False
39773,1226, Note_on_c,60,75,4,1,1,70.0,True
39774,1226, Note_on_c,63,75,4,1,1,73.0,False
39775,1227, Note_on_c,49,75,4,1,1,57.0,False
39776,1228, Note_on_c,56,75,4,1,1,65.0,False
39777,1228, Note_on_c,61,75,4,1,1,71.0,False
39778,1229, Note_on_c,60,75,4,1,1,70.0,True
39779,1229, Note_on_c,63,75,4,1,1,73.0,False
39780,1230, Note_on_c,56,75,4,1,1,65.0,False
39781,1230, Note_on_c,61,75,4,1,1,71.0,False
39782,1231, Note_on_c,60,75,4,1,1,70.0,True
39783,1231, Note_on_c,65,75,4,1,1,76.0,True
39784,1232, Note_on_c,49,75,4,1,1,57.0,False
39785,1233, Note_on_c,56,75,4,1,1,65.0,False
39786,1233, Note_on_c,61,75,4,1,1,71.0,False
39787,1234, Note_on_c,60,75,4,1,1,70.0,True
39788,1234, Note_on_c,63,75,4,1,1,73.0,False
39789,1235, Note_on_c,49,75,4,1,1,57.0,False
39790,1236, Note_on_c,56,75,4,1,1,65.0,False
39791,1236, Note_on_c,61,75,4,1,1,71.0,False
39792,1237, Note_on_c,60,75,4,1,1,70.0,True
39793,1237, Note_on_c,63,75,4,1,1,73.0,False
39794,1238, Note_on_c,56,75,4,1,1,65.0,False
39795,1238, Note_on_c,61,75,4,1,1,71.0,False
39796,1239, Note_on_c,60,75,4,1,1,70.0,True
39797,1239, Note_on_c,65,75,4,1,1,76.0,True
39798,1240, Note_on_c,49,75,4,1,1,57.0,False
39799,1241, Note_on_c,56,75,4,1,1,65.0,False
39800,1241, Note_on_c,61,75,4,1,1,71.0,False
39801,1242, Note_on_c,60,75,4,1,1,70.0,True
39802,1242, Note_on_c,63,75,4,1,1,73.0,False
39803,1243, Note_on_c,49,75,4,1,1,57.0,False
39804,1244, Note_on_c,56,75,4,1,1,65.0,False
39805,1244, Note_on_c,61,75,4,1,1,71.0,False
39806,1245, Note_on_c,60,75,4,1,1,70.0,True
39807,1245, Note_on_c,63,75,4,1,1,73.0,False
39808,1246, Note_on_c,56,75,4,1,1,65.0,False
39809,1246, Note_on_c,61,75,4,1,1,71.0,False
39810,1247, Note_on_c,60,75,4,1,1,70.0,True
39811,1247, Note_on_c,65,75,4,1,1,76.0,True
39812,1248, Note_on_c,49,75,4,1,1,57.0,False
39813,1249, Note_on_c,56,75,4,1,1,65.0,False
39814,1249, Note_on_c,61,75,4,1,1,71.0,False
39815,1250, Note_on_c,60,75,4,1,1,70.0,True
39816,1250, Note_on_c,63,75,4,1,1,73.0,False
39817,1251, Note_on_c,49,75,4,1,1,57.0,False
39818,1252, Note_on_c,56,75,4,1,1,65.0,False
39819,1252, Note_on_c,61,75,4,1,1,71.0,False
39820,1253, Note_on_c,60,75,4,1,1,70.0,True
39821,1253, Note_on_c,63,75,4,1,1,73.0,False
39822,1254, Note_on_c,56,75,4,1,1,65.0,False
39823,1254, Note_on_c,61,75,4,1,1,71.0,False
39824,1255, Note_on_c,60,75,4,1,1,70.0,True
39825,1255, Note_on_c,65,75,4,1,1,76.0,True
39826,1256, Note_on_c,49,75,4,1,1,57.0,False
39827,1257, Note_on_c,56,75,4,1,1,65.0,False
39828,1257, Note_on_c,61,75,4,1,1,71.0,False
39829,1258, Note_on_c,60,75,4,1,1,70.0,True
39830,1258, Note_on_c,63,75,4,1,1,73.0,False
39831,1259, Note_on_c,49,75,4,1,1,57.0,False
39832,1260, Note_on_c,56,75,4,1,1,65.0,False
39833,1260, Note_on_c,61,75,4,1,1,71.0,False
39834,1261, Note_on_c,60,75,4,1,1,70.0,True
39835,1261, Note_on_c,63,75,4,1,1,73.0,False
39836,1262, Note_on_c,56,75,4,1,1,65.0,False
39837,1262, Note_on_c,61,75,4,1,1,71.0,False
39838,1263, Note_on_c,60,75,4,1,1,70.0,True
39839,1263, Note_on_c,65,75,4,1,1,76.0,True
39840,1264, Note_on_c,49,75,4,1,1,57.0,False
39841,1265, Note_on_c,56,75,4,1,1,65.0,False
39842,1265, Note_on_c,61,75,4,1,1,71.0,False
39843,1266, Note_on_c,60,75,4,1,1,70.0,True
39844,1266, Note_on_c,63,75,4,1,1,73.0,False
39845,1267, Note_on_c,49,75,4,1,1,57.0,False
39846,1268, Note_on_c,56,75,4,1,1,65.0,False
39847,1268, Note_on_c,61,75,4,1,1,71.0,False
39848,1269, Note_on_c,60,75,4,1,1,70.0,True
39849,1269, Note_on_c,63,75,4,1,1,73.0,False
39850,1270, Note_on_c,56,75,4,1,1,65.0,False
39851,1270, Note_on_c,61,75,4,1,1,71.0,False
39852,1271, Note_on_c,60,75,4,1,1,70.0,True
39853,1271, Note_on_c,65,75,4,1,1,76.0,True
39854,1272, Note_on_c,49,75,4,1,1,57.0,False
39855,1273, Note_on_c,56,75,4,1,1,65.0,False
39856,1273, Note_on_c,61,75,4,1,1,71.0,False
39857,1274, Note_on_c,60,75,4,1,1,70.0,True
39858,1274, Note_on_c,63,75,4,1,1,73.0,False
39859,1275, Note_on_c,49,75,4,1,1,57.0,False
39860,1276, Note_on_c,56,75,4,1,1,65.0,False
39861,1276, Note_on_c,61,75,4,1,1,71.0,False
39862,1277, Note_on_c,60,75,4,1,1,70.0,True
39863,1277, Note_on_c,63,75,4,1,1,73.0,False
39864,1278, Note_on_c,56,75,4,1,1,65.0,False
39865,1278, Note_on_c,61,75,4,1,1,71.0,False
39866,1279, Note_on_c,60,75,4,1,1,70.0,True
39867,1279, Note_on_c,65,75,4,1,1,76.0,True
39868,1280, Note_on_c,49,75,4,1,1,57.0,False
39869,1281, Note_on_c,60,108,4,1,1,70.0,True
39870,1281, Note_on_c,63,108,4,1,1,73.0,False
39871,1282, Note_on_c,49,108,4,1,1,57.0,False
39872,1283, Note_on_c,56,108,4,1,1,65.0,False
39873,1283, Note_on_c,61,108,4,1,1,71.0,False
39874,1284, Note_on_c,60,108,4,1,1,70.0,True
39875,1284, Note_on_c,63,108,4,1,1,73.0,False
39876,1285, Note_on_c,56,108,4,1,1,65.0,False
39877,1285, Note_on_c,61,108,4,1,1,71.0,False
39878,1286, Note_on_c,60,108,4,1,1,70.0,True
39879,1286, Note_on_c,65,108,4,1,1,76.0,True
39880,1287, Note_on_c,49,108,4,1,1,57.0,False
39881,1288, Note_on_c,56,108,4,1,1,65.0,False
39882,1288, Note_on_c,61,108,4,1,1,71.0,False
39883,1289, Note_on_c,60,108,4,1,1,70.0,True
39884,1289, Note_on_c,63,108,4,1,1,73.0,False
39885,1290, Note_on_c,49,108,4,1,1,57.0,False
39886,1291, Note_on_c,56,108,4,1,1,65.0,False
39887,1291, Note_on_c,61,108,4,1,1,71.0,False
39888,1292, Note_on_c,60,108,4,1,1,70.0,True
39889,1292, Note_on_c,63,108,4,1,1,73.0,False
39890,1293, Note_on_c,56,108,4,1,1,65.0,False
39891,1293, Note_on_c,61,108,4,1,1,71.0,False
39892,1294, Note_on_c,60,108,4,1,1,70.0,True
39893,1294, Note_on_c,65,108,4,1,1,76.0,True
39894,1295, Note_on_c,49,108,4,1,1,57.0,False
39895,1296, Note_on_c,56,108,4,1,1,65.0,False
39896,1296, Note_on_c,61,108,4,1,1,71.0,False
39897,1297, Note_on_c,60,108,4,1,1,70.0,True
39898,1297, Note_on_c,63,108,4,1,1,73.0,False
39899,1298, Note_on_c,49,108,4,1,1,57.0,False
39900,1299, Note_on_c,56,108,4,1,1,65.0,False
39901,1299, Note_on_c,61,108,4,1,1,71.0,False
39902,1300, Note_on_c,60,108,4,1,1,70.0,True
39903,1300, Note_on_c,63,108,4,1,1,73.0,False
39904,1301, Note_on_c,56,108,4,1,1,65.0,False
39905,1301, Note_on_c,61,108,4,1,1,71.0,False
39906,1302, Note_on_c,60,108,4,1,1,70.0,True
39907,1302, Note_on_c,65,108,4,1,1,76.0,True
39908,1303, Note_on_c,49,108,4,1,1,57.0,False
39909,1304, Note_on_c,56,108,4,1,1,65.0,False
39910,1304, Note_on_c,61,108,4,1,1,71.0,False
39911,1305, Note_on_c,60,108,4,1,1,70.0,True
39912,1305, Note_on_c,63,108,4,1,1,73.0,False
39913,1306, Note_on_c,49,108,4,1,1,57.0,False
39914,1307, Note_on_c,56,108,4,1,1,65.0,False
39915,1307, Note_on_c,61,108,4,1,1,71.0,False
39916,1308, Note_on_c,60,108,4,1,1,70.0,True
39917,1308, Note_on_c,63,108,4,1,1,73.0,False
39918,1309, Note_on_c,56,108,4,1,1,65.0,False
39919,1309, Note_on_c,61,108,4,1,1,71.0,False
39920,1310, Note_on_c,60,108,4,1,1,70.0,True
39921,1310, Note_on_c,65,108,4,1,1,76.0,True
39922,1311, Note_on_c,49,108,4,1,1,57.0,False
39923,1312, Note_on_c,56,108,4,1,1,65.0,False
39924,1312, Note_on_c,61,108,4,1,1,71.0,False
39925,1313, Note_on_c,60,108,4,1,1,70.0,True
39926,1313, Note_on_c,63,108,4,1,1,73.0,False
39927,1314, Note_on_c,49,108,4,1,1,57.0,False
39928,1315, Note_on_c,56,108,4,1,1,65.0,False
39929,1315, Note_on_c,61,108,4,1,1,71.0,False
39930,1316, Note_on_c,60,108,4,1,1,70.0,True
39931,1316, Note_on_c,63,108,4,1,1,73.0,False
39932,1317, Note_on_c,56,108,4,1,1,65.0,False
39933,1317, Note_on_c,61,108,4,1,1,71.0,False
39934,1318, Note_on_c,60,108,4,1,1,70.0,True
39935,1318, Note_on_c,65,108,4,1,1,76.0,True
39936,1319, Note_on_c,49,108,4,1,1,57.0,False
39937,1320, Note_on_c,56,108,4,1,1,65.0,False
39938,1320, Note_on_c,61,108,4,1,1,71.0,False
39939,1321, Note_on_c,60,108,4,1,1,70.0,True
39940,1321, Note_on_c,63,108,4,1,1,73.0,False
39941,1322, Note_on_c,49,106,4,1,1,57.0,False
39942,1323, Note_on_c,56,105,4,1,1,65.0,False
39943,1323, Note_on_c,61,105,4,1,1,71.0,False
39944,1324, Note_on_c,60,104,4,1,1,70.0,True
39945,1324, Note_on_c,63,104,4,1,1,73.0,False
39946,1325, Note_on_c,56,102,4,1,1,65.0,False
39947,1325, Note_on_c,61,102,4,1,1,71.0,False
39948,1326, Note_on_c,60,101,4,1,1,70.0,True
39949,1326, Note_on_c,65,101,4,1,1,76.0,True
39950,1327, Note_on_c,49,100,4,1,1,57.0,False
39951,1328, Note_on_c,56,98,4,1,1,65.0,False
39952,1328, Note_on_c,61,98,4,1,1,71.0,False
39953,1329, Note_on_c,60,97,4,1,1,70.0,True
39954,1329, Note_on_c,63,97,4,1,1,73.0,False
39955,1330, Note_on_c,49,96,4,1,1,57.0,False
39956,1331, Note_on_c,56,95,4,1,1,65.0,False
39957,1331, Note_on_c,61,95,4,1,1,71.0,False
39958,1332, Note_on_c,60,93,4,1,1,70.0,True
39959,1332, Note_on_c,63,93,4,1,1,73.0,False
39960,1333, Note_on_c,56,92,4,1,1,65.0,False
39961,1333, Note_on_c,61,92,4,1,1,71.0,False
39962,1334, Note_on_c,60,91,4,1,1,70.0,True
39963,1334, Note_on_c,65,91,4,1,1,76.0,True
39964,1335, Note_on_c,49,89,4,1,1,57.0,False
39965,1336, Note_on_c,56,88,4,1,1,65.0,False
39966,1336, Note_on_c,61,88,4,1,1,71.0,False
39967,1337, Note_on_c,60,87,4,1,1,70.0,True
39968,1337, Note_on_c,63,87,4,1,1,73.0,False
39969,1338, Note_on_c,49,86,4,1,1,57.0,False
39970,1339, Note_on_c,56,84,4,1,1,65.0,False
39971,1339, Note_on_c,61,84,4,1,1,71.0,False
39972,1340, Note_on_c,60,83,4,1,1,70.0,True
39973,1340, Note_on_c,63,83,4,1,1,73.0,False
39974,1341, Note_on_c,56,82,4,1,1,65.0,False
39975,1341, Note_on_c,61,82,4,1,1,71.0,False
39976,1342, Note_on_c,60,80,4,1,1,70.0,True
39977,1342, Note_on_c,65,80,4,1,1,76.0,True
39978,1343, Note_on_c,49,79,4,1,1,57.0,False
39979,1344, Note_on_c,56,78,4,1,1,65.0,False
39980,1344, Note_on_c,61,78,4,1,1,71.0,False
39981,1345, Note_on_c,60,78,4,1,1,70.0,True
39982,1345, Note_on_c,63,78,4,1,1,73.0,False
39983,1346, Note_on_c,49,78,4,1,1,57.0,False
39984,1347, Note_on_c,56,78,4,1,1,65.0,False
39985,1347, Note_on_c,61,78,4,1,1,71.0,False
39986,1348, Note_on_c,60,78,4,1,1,70.0,True
39987,1348, Note_on_c,63,78,4,1,1,73.0,False
39988,1349, Note_on_c,56,78,4,1,1,65.0,False
39989,1349, Note_on_c,61,78,4,1,1,71.0,False
39990,1350, Note_on_c,60,78,4,1,1,70.0,True
39991,1350, Note_on_c,65,78,4,1,1,76.0,True
39992,1351, Note_on_c,49,78,4,1,1,57.0,False
39993,1352, Note_on_c,56,78,4,1,1,65.0,False
39994,1352, Note_on_c,61,78,4,1,1,71.0,False
39995,1353, Note_on_c,60,78,4,1,1,70.0,True
39996,1353, Note_on_c,63,78,4,1,1,73.0,False
39997,1354, Note_on_c,49,78,4,1,1,57.0,False
39998,1355, Note_on_c,56,78,4,1,1,65.0,False
39999,1355, Note_on_c,61,78,4,1,1,71.0,False
40000,1356, Note_on_c,60,78,4,1,1,70.0,True
40001,1356, Note_on_c,63,78,4,1,1,73.0,False
40002,1357, Note_on_c,56,78,4,1,1,65.0,False
40003,1357, Note_on_c,61,78,4,1,1,71.0,False
40004,1358, Note_on_c,60,78,4,1,1,70.0,True
40005,1358, Note_on_c,65,78,4,1,1,76.0,True
40006,1359, Note_on_c,49,78,4,1,1,57.0,False
40007,1360, Note_on_c,56,78,4,1,1,65.0,False
40008,1360, Note_on_c,61,78,4,1,1,71.0,False
40009,1361, Note_on_c,60,78,4,1,1,70.0,True
40010,1361, Note_on_c,63,78,4,1,1,73.0,False
40011,1362, Note_on_c,49,78,4,1,1,57.0,False
40012,1363, Note_on_c,56,78,4,1,1,65.0,False
40013,1363, Note_on_c,61,78,4,1,1,71.0,False
40014,1364, Note_on_c,60,78,4,1,1,70.0,True
40015,1364, Note_on_c,63,78,4,1,1,73.0,False
40016,1365, Note_on_c,56,78,4,1,1,65.0,False
40017,1365, Note_on_c,61,78,4,1,1,71.0,False
40018,1366, Note_on_c,60,78,4,1,1,70.0,True
40019,1366, Note_on_c,65,78,4,1,1,76.0,True
40020,1367, Note_on_c,49,78,4,1,1,57.0,False
40021,1368, Note_on_c,56,78,4,1,1,65.0,False
40022,1368, Note_on_c,61,78,4,1,1,71.0,False
40023,1369, Note_on_c,60,78,4,1,1,70.0,True
40024,1369, Note_on_c,63,78,4,1,1,73.0,False
40025,1370, Note_on_c,49,78,4,1,1,57.0,False
40026,1371, Note_on_c,56,78,4,1,1,65.0,False
40027,1371, Note_on_c,61,78,4,1,1,71.0,False
40028,1372, Note_on_c,60,78,4,1,1,70.0,True
40029,1372, Note_on_c,63,78,4,1,1,73.0,False
40030,1373, Note_on_c,56,78,4,1,1,65.0,False
40031,1373, Note_on_c,61,78,4,1,1,71.0,False
40032,1374, Note_on_c,60,78,4,1,1,70.0,True
40033,1374, Note_on_c,65,78,4,1,1,76.0,True
40034,1375, Note_on_c,49,78,4,1,1,57.0,False
40035,1376, Note_on_c,56,78,4,1,1,65.0,False
40036,1376, Note_on_c,61,78,4,1,1,71.0,False
40037,1377, Note_on_c,60,78,4,1,1,70.0,True
40038,1377, Note_on_c,63,78,4,1,1,73.0,False
40039,1378, Note_on_c,49,78,4,1,1,57.0,False
40040,1379, Note_on_c,56,78,4,1,1,65.0,False
40041,1379, Note_on_c,61,78,4,1,1,71.0,False
40042,1380, Note_on_c,60,78,4,1,1,70.0,True
40043,1380, Note_on_c,63,78,4,1,1,73.0,False
40044,1381, Note_on_c,56,78,4,1,1,65.0,False
40045,1381, Note_on_c,61,78,4,1,1,71.0,False
40046,1382, Note_on_c,60,78,4,1,1,70.0,True
40047,1382, Note_on_c,65,78,4,1,1,76.0,True
40048,1383, Note_on_c,49,78,4,1,1,57.0,False
40049,1384, Note_on_c,56,78,4,1,1,65.0,False
40050,1384, Note_on_c,61,78,4,1,1,71.0,False
40051,1385, Note_on_c,60,78,4,1,1,70.0,True
40052,1385, Note_on_c,63,78,4,1,1,73.0,False
40053,1386, Note_on_c,49,78,4,1,1,57.0,False
40054,1387, Note_on_c,56,78,4,1,1,65.0,False
40055,1387, Note_on_c,61,78,4,1,1,71.0,False
40056,1388, Note_on_c,60,78,4,1,1,70.0,True
40057,1388, Note_on_c,63,78,4,1,1,73.0,False
40058,1389, Note_on_c,56,78,4,1,1,65.0,False
40059,1389, Note_on_c,61,78,4,1,1,71.0,False
40060,1390, Note_on_c,60,78,4,1,1,70.0,True
40061,1390, Note_on_c,65,78,4,1,1,76.0,True
40062,1391, Note_on_c,49,78,4,1,1,57.0,False
40063,1392, Note_on_c,56,78,4,1,1,65.0,False
40064,1392, Note_on_c,61,78,4,1,1,71.0,False
40065,1393, Note_on_c,60,78,4,1,1,70.0,True
40066,1393, Note_on_c,63,78,4,1,1,73.0,False
40067,1394, Note_on_c,49,78,4,1,1,57.0,False
40068,1395, Note_on_c,56,78,4,1,1,65.0,False
40069,1395, Note_on_c,61,78,4,1,1,71.0,False
40070,1396, Note_on_c,60,78,4,1,1,70.0,True
40071,1396, Note_on_c,63,78,4,1,1,73.0,False
40072,1397, Note_on_c,56,78,4,1,1,65.0,False
40073,1397, Note_on_c,61,78,4,1,1,71.0,False
40074,1398, Note_on_c,60,78,4,1,1,70.0,True
40075,1398, Note_on_c,65,78,4,1,1,76.0,True
40076,1399, Note_on_c,49,78,4,1,1,57.0,False
40077,1400, Note_on_c,56,78,4,1,1,65.0,False
40078,1400, Note_on_c,61,78,4,1,1,71.0,False
40079,1401, Note_on_c,60,78,4,1,1,70.0,True
40080,1401, Note_on_c,63,78,4,1,1,73.0,False
40081,1402, Note_on_c,49,78,4,1,1,57.0,False
40082,1403, Note_on_c,56,78,4,1,1,65.0,False
40083,1403, Note_on_c,61,78,4,1,1,71.0,False
40084,1404, Note_on_c,60,78,4,1,1,70.0,True
40085,1404, Note_on_c,63,78,4,1,1,73.0,False
40086,1405, Note_on_c,56,78,4,1,1,65.0,False
40087,1405, Note_on_c,61,78,4,1,1,71.0,False
40088,1406, Note_on_c,60,78,4,1,1,70.0,True
40089,1406, Note_on_c,65,78,4,1,1,76.0,True
40090,1407, Note_on_c,49,78,4,1,1,57.0,False
40091,1408, Note_on_c,56,78,4,1,1,65.0,False
40092,1408, Note_on_c,61,78,4,1,1,71.0,False
40093,1409, Note_on_c,60,78,4,1,1,70.0,True
40094,1409, Note_on_c,63,78,4,1,1,73.0,False
40095,1410, Note_on_c,49,78,4,1,1,57.0,False
40096,1411, Note_on_c,56,78,4,1,1,65.0,False
40097,1411, Note_on_c,61,78,4,1,1,71.0,False
40098,1412, Note_on_c,60,78,4,1,1,70.0,True
40099,1412, Note_on_c,63,78,4,1,1,73.0,False
40100,1413, Note_on_c,56,78,4,1,1,65.0,False
40101,1413, Note_on_c,61,78,4,1,1,71.0,False
40102,1414, Note_on_c,60,78,4,1,1,70.0,True
40103,1414, Note_on_c,65,78,4,1,1,76.0,True
40104,1415, Note_on_c,49,78,4,1,1,57.0,False
40105,1416, Note_on_c,56,78,4,1,1,65.0,False
40106,1416, Note_on_c,61,78,4,1,1,71.0,False
40107,1417, Note_on_c,60,78,4,1,1,70.0,True
40108,1417, Note_on_c,63,78,4,1,1,73.0,False
40109,1418, Note_on_c,49,78,4,1,1,57.0,False
40110,1419, Note_on_c,56,78,4,1,1,65.0,False
40111,1419, Note_on_c,61,78,4,1,1,71.0,False
40112,1420, Note_on_c,60,78,4,1,1,70.0,True
40113,1420, Note_on_c,63,78,4,1,1,73.0,False
40114,1421, Note_on_c,56,78,4,1,1,65.0,False
40115,1421, Note_on_c,61,78,4,1,1,71.0,False
40116,1422, Note_on_c,60,78,4,1,1,70.0,True
40117,1422, Note_on_c,65,78,4,1,1,76.0,True
40118,1423, Note_on_c,49,78,4,1,1,57.0,False
40119,1424, Note_on_c,56,78,4,1,1,65.0,False
40120,1424, Note_on_c,61,78,4,1,1,71.0,False
40121,1425, Note_on_c,60,78,4,1,1,70.0,True
40122,1425, Note_on_c,63,78,4,1,1,73.0,False
40123,1426, Note_on_c,49,78,4,1,1,57.0,False
40124,1427, Note_on_c,56,78,4,1,1,65.0,False
40125,1427, Note_on_c,61,78,4,1,1,71.0,False
40126,1428, Note_on_c,60,78,4,1,1,70.0,True
40127,1428, Note_on_c,63,78,4,1,1,73.0,False
40128,1429, Note_on_c,56,78,4,1,1,65.0,False
40129,1429, Note_on_c,61,78,4,1,1,71.0,False
40130,1430, Note_on_c,60,78,4,1,1,70.0,True
40131,1430, Note_on_c,65,78,4,1,1,76.0,True
40132,1431, Note_on_c,49,78,4,1,1,57.0,False
40133,1432, Note_on_c,56,78,4,1,1,65.0,False
40134,1432, Note_on_c,61,78,4,1,1,71.0,False
40135,1433, Note_on_c,60,78,4,1,1,70.0,True
40136,1433, Note_on_c,63,78,4,1,1,73.0,False
40137,1434, Note_on_c,49,78,4,1,1,57.0,False
40138,1435, Note_on_c,56,78,4,1,1,65.0,False
40139,1435, Note_on_c,61,78,4,1,1,71.0,False
40140,1436, Note_on_c,60,78,4,1,1,70.0,True
40141,1436, Note_on_c,63,78,4,1,1,73.0,False
40142,1437, Note_on_c,56,78,4,1,1,65.0,False
40143,1437, Note_on_c,61,78,4,1,1,71.0,False
40144,1438, Note_on_c,60,78,4,1,1,70.0,True
40145,1438, Note_on_c,65,78,4,1,1,76.0,True
40146,1439, Note_on_c,49,78,4,1,1,57.0,False
40147,1440, Note_on_c,56,78,4,1,1,65.0,False
40148,1440, Note_on_c,61,78,4,1,1,71.0,False
40149,1441, Note_on_c,60,78,4,1,1,70.0,True
40150,1441, Note_on_c,63,78,4,1,1,73.0,False
40151,1442, Note_on_c,49,78,4,1,1,57.0,False
40152,1443, Note_on_c,56,78,4,1,1,65.0,False
40153,1443, Note_on_c,61,78,4,1,1,71.0,False
40154,1444, Note_on_c,60,78,4,1,1,70.0,True
40155,1444, Note_on_c,63,78,4,1,1,73.0,False
40156,1445, Note_on_c,56,78,4,1,1,65.0,False
40157,1445, Note_on_c,61,78,4,1,1,71.0,False
40158,1446, Note_on_c,60,78,4,1,1,70.0,True
40159,1446, Note_on_c,65,78,4,1,1,76.0,True
40160,1447, Note_on_c,49,78,4,1,1,57.0,False
40161,1448, Note_on_c,56,78,4,1,1,65.0,False
40162,1448, Note_on_c,61,78,4,1,1,71.0,False
40163,1449, Note_on_c,60,78,4,1,1,70.0,True
40164,1449, Note_on_c,63,78,4,1,1,73.0,False
40165,1450, Note_on_c,49,78,4,1,1,57.0,False
40166,1451, Note_on_c,56,78,4,1,1,65.0,False
40167,1451, Note_on_c,61,78,4,1,1,71.0,False
40168,1452, Note_on_c,60,78,4,1,1,70.0,True
40169,1452, Note_on_c,63,78,4,1,1,73.0,False
40170,1453, Note_on_c,56,78,4,1,1,65.0,False
40171,1453, Note_on_c,61,78,4,1,1,71.0,False
40172,1454, Note_on_c,60,78,4,1,1,70.0,True
40173,1454, Note_on_c,65,78,4,1,1,76.0,True
40174,1455, Note_on_c,49,78,4,1,1,57.0,False
40175,1456, Note_on_c,56,78,4,1,1,65.0,False
40176,1456, Note_on_c,61,78,4,1,1,71.0,False
40177,1457, Note_on_c,60,78,4,1,1,70.0,True
40178,1457, Note_on_c,63,78,4,1,1,73.0,False
40179,1458, Note_on_c,49,78,4,1,1,57.0,False
40180,1459, Note_on_c,56,78,4,1,1,65.0,False
40181,1459, Note_on_c,61,78,4,1,1,71.0,False
40182,1460, Note_on_c,60,78,4,1,1,70.0,True
40183,1460, Note_on_c,63,78,4,1,1,73.0,False
40184,1461, Note_on_c,56,78,4,1,1,65.0,False
40185,1461, Note_on_c,61,78,4,1,1,71.0,False
40186,1462, Note_on_c,60,78,4,1,1,70.0,True
40187,1462, Note_on_c,65,78,4,1,1,76.0,True
40188,1463, Note_on_c,49,78,4,1,1,57.0,False
40189,1464, Note_on_c,56,78,4,1,1,65.0,False
40190,1464, Note_on_c,61,78,4,1,1,71.0,False
40191,1465, Note_on_c,60,78,4,1,1,70.0,True
40192,1465, Note_on_c,63,78,4,1,1,73.0,False
40193,1466, Note_on_c,49,78,4,1,1,57.0,False
40194,1467, Note_on_c,56,78,4,1,1,65.0,False
40195,1467, Note_on_c,61,78,4,1,1,71.0,False
40196,1468, Note_on_c,60,78,4,1,1,70.0,True
40197,1468, Note_on_c,63,78,4,1,1,73.0,False
40198,1469, Note_on_c,56,78,4,1,1,65.0,False
40199,1469, Note_on_c,61,78,4,1,1,71.0,False
40200,1470, Note_on_c,60,78,4,1,1,70.0,True
40201,1470, Note_on_c,65,78,4,1,1,76.0,True
40202,1471, Note_on_c,49,78,4,1,1,57.0,False
40203,1472, Note_on_c,56,78,4,1,1,65.0,False
40204,1472, Note_on_c,61,78,4,1,1,71.0,False
40205,1473, Note_on_c,60,78,4,1,1,70.0,True
40206,1473, Note_on_c,63,78,4,1,1,73.0,False
40207,1474, Note_on_c,49,78,4,1,1,57.0,False
40208,1475, Note_on_c,56,78,4,1,1,65.0,False
40209,1475, Note_on_c,61,78,4,1,1,71.0,False
40210,1476, Note_on_c,60,78,4,1,1,70.0,True
40211,1476, Note_on_c,63,78,4,1,1,73.0,False
40212,1477, Note_on_c,56,78,4,1,1,65.0,False
40213,1477, Note_on_c,61,78,4,1,1,71.0,False
40214,1478, Note_on_c,60,78,4,1,1,70.0,True
40215,1478, Note_on_c,65,78,4,1,1,76.0,True
40216,1479, Note_on_c,49,78,4,1,1,57.0,False
40217,1480, Note_on_c,56,78,4,1,1,65.0,False
40218,1480, Note_on_c,61,78,4,1,1,71.0,False
40219,1481, Note_on_c,60,78,4,1,1,70.0,True
40220,1481, Note_on_c,63,78,4,1,1,73.0,False
40221,1482, Note_on_c,49,78,4,1,1,57.0,False
40222,1483, Note_on_c,56,78,4,1,1,65.0,False
40223,1483, Note_on_c,61,78,4,1,1,71.0,False
40224,1484, Note_on_c,60,78,4,1,1,70.0,True
40225,1484, Note_on_c,63,78,4,1,1,73.0,False
40226,1485, Note_on_c,56,78,4,1,1,65.0,False
40227,1485, Note_on_c,61,78,4,1,1,71.0,False
40228,1486, Note_on_c,60,78,4,1,1,70.0,True
40229,1486, Note_on_c,65,78,4,1,1,76.0,True
40230,1487, Note_on_c,49,78,4,1,1,57.0,False
40231,1488, Note_on_c,56,78,4,1,1,65.0,False
40232,1488, Note_on_c,61,78,4,1,1,71.0,False
40233,1489, Note_on_c,60,78,4,1,1,70.0,True
40234,1489, Note_on_c,63,78,4,1,1,73.0,False
40235,1490, Note_on_c,49,78,4,1,1,57.0,False
40236,1491, Note_on_c,56,78,4,1,1,65.0,False
40237,1491, Note_on_c,61,78,4,1,1,71.0,False
40238,1492, Note_on_c,60,78,4,1,1,70.0,True
40239,1492, Note_on_c,63,78,4,1,1,73.0,False
40240,1493, Note_on_c,56,78,4,1,1,65.0,False
40241,1493, Note_on_c,61,78,4,1,1,71.0,False
40242,1494, Note_on_c,60,78,4,1,1,70.0,True
40243,1494, Note_on_c,65,78,4,1,1,76.0,True
40244,1495, Note_on_c,49,78,4,1,1,57.0,False
40245,1496, Note_on_c,56,78,4,1,1,65.0,False
40246,1496, Note_on_c,61,78,4,1,1,71.0,False
40247,1497, Note_on_c,60,78,4,1,1,70.0,True
40248,1497, Note_on_c,63,78,4,1,1,73.0,False
40249,1498, Note_on_c,49,78,4,1,1,57.0,False
40250,1499, Note_on_c,56,78,4,1,1,65.0,False
40251,1499, Note_on_c,61,78,4,1,1,71.0,False
40252,1500, Note_on_c,60,78,4,1,1,70.0,True
40253,1500, Note_on_c,63,78,4,1,1,73.0,False
40254,1501, Note_on_c,56,78,4,1,1,65.0,False
40255,1501, Note_on_c,61,78,4,1,1,71.0,False
40256,1502, Note_on_c,60,78,4,1,1,70.0,True
40257,1502, Note_on_c,65,78,4,1,1,76.0,True
40258,1503, Note_on_c,49,78,4,1,1,57.0,False
40259,1504, Note_on_c,56,78,4,1,1,65.0,False
40260,1504, Note_on_c,61,78,4,1,1,71.0,False
40261,1505, Note_on_c,60,78,4,1,1,70.0,True
40262,1505, Note_on_c,63,78,4,1,1,73.0,False
40263,1506, Note_on_c,49,78,4,1,1,57.0,False
40264,1507, Note_on_c,56,78,4,1,1,65.0,False
40265,1507, Note_on_c,61,78,4,1,1,71.0,False
40266,1508, Note_on_c,60,78,4,1,1,70.0,True
40267,1508, Note_on_c,63,78,4,1,1,73.0,False
40268,1509, Note_on_c,56,78,4,1,1,65.0,False
40269,1509, Note_on_c,61,78,4,1,1,71.0,False
40270,1510, Note_on_c,60,78,4,1,1,70.0,True
40271,1510, Note_on_c,65,78,4,1,1,76.0,True
40272,1511, Note_on_c,49,78,4,1,1,57.0,False
40273,1512, Note_on_c,56,78,4,1,1,65.0,False
40274,1512, Note_on_c,61,78,4,1,1,71.0,False
40275,1513, Note_on_c,60,78,4,1,1,70.0,True
40276,1513, Note_on_c,63,78,4,1,1,73.0,False
40277,1514, Note_on_c,49,78,4,1,1,57.0,False
40278,1515, Note_on_c,56,78,4,1,1,65.0,False
40279,1515, Note_on_c,61,78,4,1,1,71.0,False
40280,1516, Note_on_c,60,78,4,1,1,70.0,True
40281,1516, Note_on_c,63,78,4,1,1,73.0,False
40282,1517, Note_on_c,56,78,4,1,1,65.0,False
40283,1517, Note_on_c,61,78,4,1,1,71.0,False
40284,1518, Note_on_c,60,78,4,1,1,70.0,True
40285,1518, Note_on_c,65,78,4,1,1,76.0,True
40286,1519, Note_on_c,49,78,4,1,1,57.0,False
40287,1520, Note_on_c,56,78,4,1,1,65.0,False
40288,1520, Note_on_c,61,78,4,1,1,71.0,False
40289,1521, Note_on_c,60,78,4,1,1,70.0,True
40290,1521, Note_on_c,63,78,4,1,1,73.0,False
40291,1522, Note_on_c,49,78,4,1,1,57.0,False
40292,1523, Note_on_c,56,78,4,1,1,65.0,False
40293,1523, Note_on_c,61,78,4,1,1,71.0,False
40294,1524, Note_on_c,60,78,4,1,1,70.0,True
40295,1524, Note_on_c,63,78,4,1,1,73.0,False
40296,1525, Note_on_c,56,78,4,1,1,65.0,False
40297,1525, Note_on_c,61,78,4,1,1,71.0,False
40298,1526, Note_on_c,60,78,4,1,1,70.0,True
40299,1526, Note_on_c,65,78,4,1,1,76.0,True
40300,1527, Note_on_c,49,78,4,1,1,57.0,False
40301,1528, Note_on_c,56,78,4,1,1,65.0,False
40302,1528, Note_on_c,61,78,4,1,1,71.0,False
40303,1529, Note_on_c,60,78,4,1,1,70.0,True
40304,1529, Note_on_c,63,78,4,1,1,73.0,False
40305,1530, Note_on_c,49,78,4,1,1,57.0,False
40306,1531, Note_on_c,56,78,4,1,1,65.0,False
40307,1531, Note_on_c,61,78,4,1,1,71.0,False
40308,1532, Note_on_c,60,78,4,1,1,70.0,True
40309,1532, Note_on_c,63,78,4,1,1,73.0,False
40310,1533, Note_on_c,56,78,4,1,1,65.0,False
40311,1533, Note_on_c,61,78,4,1,1,71.0,False
40312,1534, Note_on_c,60,78,4,1,1,70.0,True
40313,1534, Note_on_c,65,78,4,1,1,76.0,True
40314,1535, Note_on_c,49,78,4,1,1,57.0,False
40315,1536, Note_on_c,56,78,4,1,1,65.0,False
40316,1536, Note_on_c,61,78,4,1,1,71.0,False
40317,1537, Note_on_c,60,78,4,1,1,70.0,True
40318,1537, Note_on_c,63,78,4,1,1,73.0,False
40319,1538, Note_on_c,49,78,4,1,1,57.0,False
40320,1539, Note_on_c,56,78,4,1,1,65.0,False
40321,1539, Note_on_c,61,78,4,1,1,71.0,False
40322,1540, Note_on_c,60,78,4,1,1,70.0,True
40323,1540, Note_on_c,63,78,4,1,1,73.0,False
40324,1541, Note_on_c,56,78,4,1,1,65.0,False
40325,1541, Note_on_c,61,78,4,1,1,71.0,False
40326,1542, Note_on_c,60,78,4,1,1,70.0,True
40327,1542, Note_on_c,65,78,4,1,1,76.0,True
40328,1543, Note_on_c,49,78,4,1,1,57.0,False
40329,1544, Note_on_c,56,78,4,1,1,65.0,False
40330,1544, Note_on_c,61,78,4,1,1,71.0,False
40331,1545, Note_on_c,60,78,4,1,1,70.0,True
40332,1545, Note_on_c,63,78,4,1,1,73.0,False
40333,1546, Note_on_c,49,78,4,1,1,57.0,False
40334,1547, Note_on_c,56,78,4,1,1,65.0,False
40335,1547, Note_on_c,61,78,4,1,1,71.0,False
40336,1548, Note_on_c,60,78,4,1,1,70.0,True
40337,1548, Note_on_c,63,78,4,1,1,73.0,False
40338,1549, Note_on_c,56,78,4,1,1,65.0,False
40339,1549, Note_on_c,61,78,4,1,1,71.0,False
40340,1550, Note_on_c,60,78,4,1,1,70.0,True
40341,1550, Note_on_c,65,78,4,1,1,76.0,True
40342,1551, Note_on_c,49,78,4,1,1,57.0,False
40343,1552, Note_on_c,56,78,4,1,1,65.0,False
40344,1552, Note_on_c,61,78,4,1,1,71.0,False
40345,1553, Note_on_c,60,78,4,1,1,70.0,True
40346,1553, Note_on_c,63,78,4,1,1,73.0,False
40347,1554, Note_on_c,49,78,4,1,1,57.0,False
40348,1555, Note_on_c,56,78,4,1,1,65.0,False
40349,1555, Note_on_c,61,78,4,1,1,71.0,False
40350,1556, Note_on_c,60,78,4,1,1,70.0,True
40351,1556, Note_on_c,63,78,4,1,1,73.0,False
40352,1557, Note_on_c,56,78,4,1,1,65.0,False
40353,1557, Note_on_c,61,78,4,1,1,71.0,False
40354,1558, Note_on_c,60,78,4,1,1,70.0,True
40355,1558, Note_on_c,65,78,4,1,1,76.0,True
40356,1559, Note_on_c,49,78,4,1,1,57.0,False
40357,1560, Note_on_c,56,78,4,1,1,65.0,False
40358,1560, Note_on_c,61,78,4,1,1,71.0,False
40359,1561, Note_on_c,60,78,4,1,1,70.0,True
40360,1561, Note_on_c,63,78,4,1,1,73.0,False
40361,1562, Note_on_c,49,78,4,1,1,57.0,False
40362,1563, Note_on_c,56,78,4,1,1,65.0,False
40363,1563, Note_on_c,61,78,4,1,1,71.0,False
40364,1564, Note_on_c,60,78,4,1,1,70.0,True
40365,1564, Note_on_c,63,78,4,1,1,73.0,False
40366,1565, Note_on_c,56,78,4,1,1,65.0,False
40367,1565, Note_on_c,61,78,4,1,1,71.0,False
40368,1566, Note_on_c,60,78,4,1,1,70.0,True
40369,1566, Note_on_c,65,78,4,1,1,76.0,True
40370,1567, Note_on_c,49,78,4,1,1,57.0,False
40371,1568, Note_on_c,56,78,4,1,1,65.0,False
40372,1568, Note_on_c,61,78,4,1,1,71.0,False
40373,1569, Note_on_c,60,78,4,1,1,70.0,True
40374,1569, Note_on_c,63,78,4,1,1,73.0,False
40375,1570, Note_on_c,49,78,4,1,1,57.0,False
40376,1571, Note_on_c,56,78,4,1,1,65.0,False
40377,1571, Note_on_c,61,78,4,1,1,71.0,False
40378,1572, Note_on_c,60,78,4,1,1,70.0,True
40379,1572, Note_on_c,63,78,4,1,1,73.0,False
40380,1573, Note_on_c,56,78,4,1,1,65.0,False
40381,1573, Note_on_c,61,78,4,1,1,71.0,False
40382,1574, Note_on_c,60,78,4,1,1,70.0,True
40383,1574, Note_on_c,65,78,4,1,1,76.0,True
40384,1575, Note_on_c,49,78,4,1,1,57.0,False
40385,1576, Note_on_c,56,78,4,1,1,65.0,False
40386,1576, Note_on_c,61,78,4,1,1,71.0,False
40387,1577, Note_on_c,60,78,4,1,1,70.0,True
40388,1577, Note_on_c,63,78,4,1,1,73.0,False
40389,1578, Note_on_c,49,78,4,1,1,57.0,False
40390,1579, Note_on_c,56,78,4,1,1,65.0,False
40391,1579, Note_on_c,61,78,4,1,1,71.0,False
40392,1580, Note_on_c,60,78,4,1,1,70.0,True
40393,1580, Note_on_c,63,78,4,1,1,73.0,False
40394,1581, Note_on_c,56,78,4,1,1,65.0,False
40395,1581, Note_on_c,61,78,4,1,1,71.0,False
40396,1582, Note_on_c,60,78,4,1,1,70.0,True
40397,1582, Note_on_c,65,78,4,1,1,76.0,True
40398,1583, Note_on_c,49,78,4,1,1,57.0,False
40399,1584, Note_on_c,56,78,4,1,1,65.0,False
40400,1584, Note_on_c,61,78,4,1,1,71.0,False
40401,1585, Note_on_c,60,78,4,1,1,70.0,True
40402,1585, Note_on_c,63,78,4,1,1,73.0,False
40403,1586, Note_on_c,49,78,4,1,1,57.0,False
40404,1587, Note_on_c,56,78,4,1,1,65.0,False
40405,1587, Note_on_c,61,78,4,1,1,71.0,False
40406,1588, Note_on_c,60,78,4,1,1,70.0,True
40407,1588, Note_on_c,63,78,4,1,1,73.0,False
40408,1589, Note_on_c,56,78,4,1,1,65.0,False
40409,1589, Note_on_c,61,78,4,1,1,71.0,False
40410,1590, Note_on_c,60,78,4,1,1,70.0,True
40411,1590, Note_on_c,65,78,4,1,1,76.0,True
40412,1591, Note_on_c,49,78,4,1,1,57.0,False
40413,1592, Note_on_c,56,78,4,1,1,65.0,False
40414,1592, Note_on_c,61,78,4,1,1,71.0,False
40415,1593, Note_on_c,60,78,4,1,1,70.0,True
40416,1593, Note_on_c,63,78,4,1,1,73.0,False
40417,1594, Note_on_c,49,78,4,1,1,57.0,False
40418,1595, Note_on_c,56,78,4,1,1,65.0,False
40419,1595, Note_on_c,61,78,4,1,1,71.0,False
40420,1596, Note_on_c,60,78,4,1,1,70.0,True
40421,1596, Note_on_c,63,78,4,1,1,73.0,False
40422,1597, Note_on_c,56,78,4,1,1,65.0,False
40423,1597, Note_on_c,61,78,4,1,1,71.0,False
40424,1598, Note_on_c,60,78,4,1,1,70.0,True
40425,1598, Note_on_c,65,78,4,1,1,76.0,True
40426,1599, Note_on_c,49,78,4,1,1,57.0,False
40427,1600, Note_on_c,56,78,4,1,1,65.0,False
40428,1600, Note_on_c,61,78,4,1,1,71.0,False
40429,1601, Note_on_c,60,78,4,1,1,70.0,True
40430,1601, Note_on_c,63,78,4,1,1,73.0,False
40431,1602, Note_on_c,49,78,4,1,1,57.0,False
40432,1603, Note_on_c,56,78,4,1,1,65.0,False
40433,1603, Note_on_c,61,78,4,1,1,71.0,False
40434,1604, Note_on_c,60,78,4,1,1,70.0,True
40435,1604, Note_on_c,63,78,4,1,1,73.0,False
40436,1605, Note_on_c,56,78,4,1,1,65.0,False
40437,1605, Note_on_c,61,78,4,1,1,71.0,False
40438,1606, Note_on_c,60,78,4,1,1,70.0,True
40439,1606, Note_on_c,65,78,4,1,1,76.0,True
40440,1607, Note_on_c,49,78,4,1,1,57.0,False
40441,1608, Note_on_c,56,78,4,1,1,65.0,False
40442,1608, Note_on_c,61,78,4,1,1,71.0,False
40443,1609, Note_on_c,60,78,4,1,1,70.0,True
40444,1609, Note_on_c,63,78,4,1,1,73.0,False
40445,1610, Note_on_c,49,78,4,1,1,57.0,False
40446,1611, Note_on_c,56,78,4,1,1,65.0,False
40447,1611, Note_on_c,61,78,4,1,1,71.0,False
40448,1612, Note_on_c,60,78,4,1,1,70.0,True
40449,1612, Note_on_c,63,78,4,1,1,73.0,False
40450,1613, Note_on_c,56,78,4,1,1,65.0,False
40451,1613, Note_on_c,61,78,4,1,1,71.0,False
40452,1614, Note_on_c,60,78,4,1,1,70.0,True
40453,1614, Note_on_c,65,78,4,1,1,76.0,True
40454,1615, Note_on_c,49,78,4,1,1,57.0,False
40455,1616, Note_on_c,56,78,4,1,1,65.0,False
40456,1616, Note_on_c,61,78,4,1,1,71.0,False
40457,1617, Note_on_c,60,78,4,1,1,70.0,True
40458,1617, Note_on_c,63,78,4,1,1,73.0,False
40459,1618, Note_on_c,49,78,4,1,1,57.0,False
40460,1619, Note_on_c,56,78,4,1,1,65.0,False
40461,1619, Note_on_c,61,78,4,1,1,71.0,False
40462,1620, Note_on_c,60,78,4,1,1,70.0,True
40463,1620, Note_on_c,63,78,4,1,1,73.0,False
40464,1621, Note_on_c,56,78,4,1,1,65.0,False
40465,1621, Note_on_c,61,78,4,1,1,71.0,False
40466,1622, Note_on_c,60,78,4,1,1,70.0,True
40467,1622, Note_on_c,65,78,4,1,1,76.0,True
40468,1623, Note_on_c,49,78,4,1,1,57.0,False
40469,1624, Note_on_c,56,78,4,1,1,65.0,False
40470,1624, Note_on_c,61,78,4,1,1,71.0,False
40471,1625, Note_on_c,60,78,4,1,1,70.0,True
40472,1625, Note_on_c,63,78,4,1,1,73.0,False
40473,1626, Note_on_c,49,78,4,1,1,57.0,False
40474,1627, Note_on_c,56,78,4,1,1,65.0,False
40475,1627, Note_on_c,61,78,4,1,1,71.0,False
40476,1628, Note_on_c,60,78,4,1,1,70.0,True
40477,1628, Note_on_c,63,78,4,1,1,73.0,False
40478,1629, Note_on_c,56,78,4,1,1,65.0,False
40479,1629, Note_on_c,61,78,4,1,1,71.0,False
40480,1630, Note_on_c,60,78,4,1,1,70.0,True
40481,1630, Note_on_c,65,78,4,1,1,76.0,True
40482,1631, Note_on_c,49,78,4,1,1,57.0,False
40483,1632, Note_on_c,56,78,4,1,1,65.0,False
40484,1632, Note_on_c,61,78,4,1,1,71.0,False
40485,1633, Note_on_c,60,78,4,1,1,70.0,True
40486,1633, Note_on_c,63,78,4,1,1,73.0,False
40487,1634, Note_on_c,49,78,4,1,1,57.0,False
40488,1635, Note_on_c,56,78,4,1,1,65.0,False
40489,1635, Note_on_c,61,78,4,1,1,71.0,False
40490,1636, Note_on_c,60,78,4,1,1,70.0,True
40491,1636, Note_on_c,63,78,4,1,1,73.0,False
40492,1637, Note_on_c,56,78,4,1,1,65.0,False
40493,1637, Note_on_c,61,78,4,1,1,71.0,False
40494,1638, Note_on_c,60,78,4,1,1,70.0,True
40495,1638, Note_on_c,65,78,4,1,1,76.0,True
40496,1639, Note_on_c,49,78,4,1,1,57.0,False
40497,1640, Note_on_c,56,78,4,1,1,65.0,False
40498,1640, Note_on_c,61,78,4,1,1,71.0,False
40499,1641, Note_on_c,60,78,4,1,1,70.0,True
40500,1641, Note_on_c,63,78,4,1,1,73.0,False
40501,1642, Note_on_c,49,78,4,1,1,57.0,False
40502,1643, Note_on_c,56,78,4,1,1,65.0,False
40503,1643, Note_on_c,61,78,4,1,1,71.0,False
40504,1644, Note_on_c,60,78,4,1,1,70.0,True
40505,1644, Note_on_c,63,78,4,1,1,73.0,False
40506,1645, Note_on_c,56,78,4,1,1,65.0,False
40507,1645, Note_on_c,61,78,4,1,1,71.0,False
40508,1646, Note_on_c,60,78,4,1,1,70.0,True
40509,1646, Note_on_c,65,78,4,1,1,76.0,True
40510,1647, Note_on_c,49,78,4,1,1,57.0,False
40511,1648, Note_on_c,56,78,4,1,1,65.0,False
40512,1648, Note_on_c,61,78,4,1,1,71.0,False
40513,1649, Note_on_c,60,78,4,1,1,70.0,True
40514,1649, Note_on_c,63,78,4,1,1,73.0,False
40515,1650, Note_on_c,49,78,4,1,1,57.0,False
40516,1651, Note_on_c,56,78,4,1,1,65.0,False
40517,1651, Note_on_c,61,78,4,1,1,71.0,False
40518,1652, Note_on_c,60,78,4,1,1,70.0,True
40519,1652, Note_on_c,63,78,4,1,1,73.0,False
40520,1653, Note_on_c,56,78,4,1,1,65.0,False
40521,1653, Note_on_c,61,78,4,1,1,71.0,False
40522,1654, Note_on_c,60,78,4,1,1,70.0,True
40523,1654, Note_on_c,65,78,4,1,1,76.0,True
40524,1655, Note_on_c,49,78,4,1,1,57.0,False
40525,1656, Note_on_c,56,78,4,1,1,65.0,False
40526,1656, Note_on_c,61,78,4,1,1,71.0,False
40527,1657, Note_on_c,60,78,4,1,1,70.0,True
40528,1657, Note_on_c,63,78,4,1,1,73.0,False
40529,1658, Note_on_c,49,78,4,1,1,57.0,False
40530,1659, Note_on_c,56,78,4,1,1,65.0,False
40531,1659, Note_on_c,61,78,4,1,1,71.0,False
40532,1660, Note_on_c,60,78,4,1,1,70.0,True
40533,1660, Note_on_c,63,78,4,1,1,73.0,False
40534,1661, Note_on_c,56,78,4,1,1,65.0,False
40535,1661, Note_on_c,61,78,4,1,1,71.0,False
40536,1662, Note_on_c,60,78,4,1,1,70.0,True
40537,1662, Note_on_c,65,78,4,1,1,76.0,True
40538,1663, Note_on_c,49,78,4,1,1,57.0,False
40539,1664, Note_on_c,56,78,4,1,1,65.0,False
40540,1664, Note_on_c,61,78,4,1,1,71.0,False
40541,1665, Note_on_c,60,78,4,1,1,70.0,True
40542,1665, Note_on_c,63,78,4,1,1,73.0,False
40543,1666, Note_on_c,49,78,4,1,1,57.0,False
40544,1667, Note_on_c,56,78,4,1,1,65.0,False
40545,1667, Note_on_c,61,78,4,1,1,71.0,False
40546,1668, Note_on_c,60,78,4,1,1,70.0,True
40547,1668, Note_on_c,63,78,4,1,1,73.0,False
40548,1669, Note_on_c,56,78,4,1,1,65.0,False
40549,1669, Note_on_c,61,78,4,1,1,71.0,False
40550,1670, Note_on_c,60,78,4,1,1,70.0,True
40551,1670, Note_on_c,65,78,4,1,1,76.0,True
40552,1671, Note_on_c,49,78,4,1,1,57.0,False
40553,1672, Note_on_c,56,78,4,1,1,65.0,False
40554,1672, Note_on_c,61,78,4,1,1,71.0,False
40555,1673, Note_on_c,60,78,4,1,1,70.0,True
40556,1673, Note_on_c,63,78,4,1,1,73.0,False
40557,1674, Note_on_c,49,78,4,1,1,57.0,False
40558,1675, Note_on_c,56,78,4,1,1,65.0,False
40559,1675, Note_on_c,61,78,4,1,1,71.0,False
40560,1676, Note_on_c,60,78,4,1,1,70.0,True
40561,1676, Note_on_c,63,78,4,1,1,73.0,False
40562,1677, Note_on_c,56,78,4,1,1,65.0,False
40563,1677, Note_on_c,61,78,4,1,1,71.0,False
40564,1678, Note_on_c,60,78,4,1,1,70.0,True
40565,1678, Note_on_c,65,78,4,1,1,76.0,True
40566,1679, Note_on_c,49,78,4,1,1,57.0,False
40567,1680, Note_on_c,56,78,4,1,1,65.0,False
40568,1680, Note_on_c,61,78,4,1,1,71.0,False
40569,1681, Note_on_c,60,78,4,1,1,70.0,True
40570,1681, Note_on_c,63,78,4,1,1,73.0,False
40571,1682, Note_on_c,49,78,4,1,1,57.0,False
40572,1683, Note_on_c,56,78,4,1,1,65.0,False
40573,1683, Note_on_c,61,78,4,1,1,71.0,False
40574,1684, Note_on_c,60,78,4,1,1,70.0,True
40575,1684, Note_on_c,63,78,4,1,1,73.0,False
40576,1685, Note_on_c,56,78,4,1,1,65.0,False
40577,1685, Note_on_c,61,78,4,1,1,71.0,False
40578,1686, Note_on_c,60,78,4,1,1,70.0,True
40579,1686, Note_on_c,65,78,4,1,1,76.0,True
40580,1687, Note_on_c,49,78,4,1,1,57.0,False
40581,1688, Note_on_c,56,78,4,1,1,65.0,False
40582,1688, Note_on_c,61,78,4,1,1,71.0,False
40583,1689, Note_on_c,60,78,4,1,1,70.0,True
40584,1689, Note_on_c,63,78,4,1,1,73.0,False
40585,1690, Note_on_c,49,78,4,1,1,57.0,False
40586,1691, Note_on_c,56,78,4,1,1,65.0,False
40587,1691, Note_on_c,61,78,4,1,1,71.0,False
40588,1692, Note_on_c,60,78,4,1,1,70.0,True
40589,1692, Note_on_c,63,78,4,1,1,73.0,False
40590,1693, Note_on_c,56,78,4,1,1,65.0,False
40591,1693, Note_on_c,61,78,4,1,1,71.0,False
40592,1694, Note_on_c,60,78,4,1,1,70.0,True
40593,1694, Note_on_c,65,78,4,1,1,76.0,True
40594,1695, Note_on_c,49,78,4,1,1,57.0,False
40595,1696, Note_on_c,56,78,4,1,1,65.0,False
40596,1696, Note_on_c,61,78,4,1,1,71.0,False
40597,1697, Note_on_c,60,78,4,1,1,70.0,True
40598,1697, Note_on_c,63,78,4,1,1,73.0,False
40599,1698, Note_on_c,49,78,4,1,1,57.0,False
40600,1699, Note_on_c,56,78,4,1,1,65.0,False
40601,1699, Note_on_c,61,78,4,1,1,71.0,False
40602,1700, Note_on_c,60,78,4,1,1,70.0,True
40603,1700, Note_on_c,63,78,4,1,1,73.0,False
40604,1701, Note_on_c,56,78,4,1,1,65.0,False
40605,1701, Note_on_c,61,78,4,1,1,71.0,False
40606,1702, Note_on_c,60,78,4,1,1,70.0,True
40607,1702, Note_on_c,65,78,4,1,1,76.0,True
40608,1703, Note_on_c,49,78,4,1,1,57.0,False
40609,1704, Note_on_c,56,78,4,1,1,65.0,False
40610,1704, Note_on_c,61,78,4,1,1,71.0,False
40611,1705, Note_on_c,60,78,4,1,1,70.0,True
40612,1705, Note_on_c,63,78,4,1,1,73.0,False
40613,1706, Note_on_c,49,78,4,1,1,57.0,False
40614,1707, Note_on_c,56,78,4,1,1,65.0,False
40615,1707, Note_on_c,61,78,4,1,1,71.0,False
40616,1708, Note_on_c,60,78,4,1,1,70.0,True
40617,1708, Note_on_c,63,78,4,1,1,73.0,False
40618,1709, Note_on_c,56,78,4,1,1,65.0,False
40619,1709, Note_on_c,61,78,4,1,1,71.0,False
40620,1710, Note_on_c,60,78,4,1,1,70.0,True
40621,1710, Note_on_c,65,78,4,1,1,76.0,True
40622,1711, Note_on_c,49,78,4,1,1,57.0,False
40623,1712, Note_on_c,56,78,4,1,1,65.0,False
40624,1712, Note_on_c,61,78,4,1,1,71.0,False
40625,1713, Note_on_c,60,78,4,1,1,70.0,True
40626,1713, Note_on_c,63,78,4,1,1,73.0,False
40627,1714, Note_on_c,49,78,4,1,1,57.0,False
40628,1715, Note_on_c,56,78,4,1,1,65.0,False
40629,1715, Note_on_c,61,78,4,1,1,71.0,False
40630,1716, Note_on_c,60,78,4,1,1,70.0,True
40631,1716, Note_on_c,63,78,4,1,1,73.0,False
40632,1717, Note_on_c,56,78,4,1,1,65.0,False
40633,1717, Note_on_c,61,78,4,1,1,71.0,False
40634,1718, Note_on_c,60,78,4,1,1,70.0,True
40635,1718, Note_on_c,65,78,4,1,1,76.0,True
40636,1719, Note_on_c,49,78,4,1,1,57.0,False
40637,1720, Note_on_c,56,78,4,1,1,65.0,False
40638,1720, Note_on_c,61,78,4,1,1,71.0,False
40639,1721, Note_on_c,60,78,4,1,1,70.0,True
40640,1721, Note_on_c,63,78,4,1,1,73.0,False
40641,1722, Note_on_c,49,78,4,1,1,57.0,False
40642,1723, Note_on_c,56,78,4,1,1,65.0,False
40643,1723, Note_on_c,61,78,4,1,1,71.0,False
40644,1724, Note_on_c,60,78,4,1,1,70.0,True
40645,1724, Note_on_c,63,78,4,1,1,73.0,False
40646,1725, Note_on_c,56,78,4,1,1,65.0,False
40647,1725, Note_on_c,61,78,4,1,1,71.0,False
40648,1726, Note_on_c,60,78,4,1,1,70.0,True
40649,1726, Note_on_c,65,78,4,1,1,76.0,True
40650,1727, Note_on_c,49,78,4,1,1,57.0,False
40651,1728, Note_on_c,56,78,4,1,1,65.0,False
40652,1728, Note_on_c,61,78,4,1,1,71.0,False
40653,1729, Note_on_c,60,78,4,1,1,70.0,True
40654,1729, Note_on_c,63,78,4,1,1,73.0,False
40655,1730, Note_on_c,49,78,4,1,1,57.0,False
40656,1731, Note_on_c,56,78,4,1,1,65.0,False
40657,1731, Note_on_c,61,78,4,1,1,71.0,False
40658,1732, Note_on_c,60,78,4,1,1,70.0,True
40659,1732, Note_on_c,63,78,4,1,1,73.0,False
40660,1733, Note_on_c,56,78,4,1,1,65.0,False
40661,1733, Note_on_c,61,78,4,1,1,71.0,False
40662,1734, Note_on_c,60,78,4,1,1,70.0,True
40663,1734, Note_on_c,65,78,4,1,1,76.0,True
40664,1735, Note_on_c,49,78,4,1,1,57.0,False
40665,1736, Note_on_c,56,78,4,1,1,65.0,False
40666,1736, Note_on_c,61,78,4,1,1,71.0,False
40667,1737, Note_on_c,60,78,4,1,1,70.0,True
40668,1737, Note_on_c,63,78,4,1,1,73.0,False
40669,1738, Note_on_c,49,78,4,1,1,57.0,False
40670,1739, Note_on_c,56,78,4,1,1,65.0,False
40671,1739, Note_on_c,61,78,4,1,1,71.0,False
40672,1740, Note_on_c,60,78,4,1,1,70.0,True
40673,1740, Note_on_c,63,78,4,1,1,73.0,False
40674,1741, Note_on_c,56,78,4,1,1,65.0,False
40675,1741, Note_on_c,61,78,4,1,1,71.0,False
40676,1742, Note_on_c,60,78,4,1,1,70.0,True
40677,1742, Note_on_c,65,78,4,1,1,76.0,True
40678,1743, Note_on_c,49,78,4,1,1,57.0,False
40679,1744, Note_on_c,56,78,4,1,1,65.0,False
40680,1744, Note_on_c,61,78,4,1,1,71.0,False
40681,1745, Note_on_c,60,78,4,1,1,70.0,True
40682,1745, Note_on_c,63,78,4,1,1,73.0,False
40683,1746, Note_on_c,49,78,4,1,1,57.0,False
40684,1747, Note_on_c,56,78,4,1,1,65.0,False
40685,1747, Note_on_c,61,78,4,1,1,71.0,False
40686,1748, Note_on_c,60,78,4,1,1,70.0,True
40687,1748, Note_on_c,63,78,4,1,1,73.0,False
40688,1749, Note_on_c,56,78,4,1,1,65.0,False
40689,1749, Note_on_c,61,78,4,1,1,71.0,False
40690,1750, Note_on_c,60,78,4,1,1,70.0,True
40691,1750, Note_on_c,65,78,4,1,1,76.0,True
40692,1751, Note_on_c,49,78,4,1,1,57.0,False
40693,1752, Note_on_c,56,78,4,1,1,65.0,False
40694,1752, Note_on_c,61,78,4,1,1,71.0,False
40695,1753, Note_on_c,60,78,4,1,1,70.0,True
40696,1753, Note_on_c,63,78,4,1,1,73.0,False
40697,1754, Note_on_c,49,78,4,1,1,57.0,False
40698,1755, Note_on_c,56,78,4,1,1,65.0,False
40699,1755, Note_on_c,61,78,4,1,1,71.0,False
40700,1756, Note_on_c,60,78,4,1,1,70.0,True
40701,1756, Note_on_c,63,78,4,1,1,73.0,False
40702,1757, Note_on_c,56,78,4,1,1,65.0,False
40703,1757, Note_on_c,61,78,4,1,1,71.0,False
40704,1758, Note_on_c,60,78,4,1,1,70.0,True
40705,1758, Note_on_c,65,78,4,1,1,76.0,True
40706,1759, Note_on_c,49,78,4,1,1,57.0,False
40707,1760, Note_on_c,56,78,4,1,1,65.0,False
40708,1760, Note_on_c,61,78,4,1,1,71.0,False
40709,1761, Note_on_c,60,78,4,1,1,70.0,True
40710,1761, Note_on_c,63,78,4,1,1,73.0,False
40711,1762, Note_on_c,49,78,4,1,1,57.0,False
40712,1763, Note_on_c,56,78,4,1,1,65.0,False
40713,1763, Note_on_c,61,78,4,1,1,71.0,False
40714,1764, Note_on_c,60,78,4,1,1,70.0,True
40715,1764, Note_on_c,63,78,4,1,1,73.0,False
40716,1765, Note_on_c,56,78,4,1,1,65.0,False
40717,1765, Note_on_c,61,78,4,1,1,71.0,False
40718,1766, Note_on_c,60,78,4,1,1,70.0,True
40719,1766, Note_on_c,65,78,4,1,1,76.0,True
40720,1767, Note_on_c,49,78,4,1,1,57.0,False
40721,1768, Note_on_c,56,78,4,1,1,65.0,False
40722,1768, Note_on_c,61,78,4,1,1,71.0,False
40723,1769, Note_on_c,60,78,4,1,1,70.0,True
40724,1769, Note_on_c,63,78,4,1,1,73.0,False
40725,1770, Note_on_c,49,78,4,1,1,57.0,False
40726,1771, Note_on_c,56,78,4,1,1,65.0,False
40727,1771, Note_on_c,61,78,4,1,1,71.0,False
40728,1772, Note_on_c,60,78,4,1,1,70.0,True
40729,1772, Note_on_c,63,78,4,1,1,73.0,False
40730,1773, Note_on_c,56,78,4,1,1,65.0,False
40731,1773, Note_on_c,61,78,4,1,1,71.0,False
40732,1774, Note_on_c,60,78,4,1,1,70.0,True
40733,1774, Note_on_c,65,78,4,1,1,76.0,True
40734,1775, Note_on_c,49,78,4,1,1,57.0,False
40735,1776, Note_on_c,56,78,4,1,1,65.0,False
40736,1776, Note_on_c,61,78,4,1,1,71.0,False
40737,1777, Note_on_c,60,78,4,1,1,70.0,True
40738,1777, Note_on_c,63,78,4,1,1,73.0,False
40739,1778, Note_on_c,49,78,4,1,1,57.0,False
40740,1779, Note_on_c,56,78,4,1,1,65.0,False
40741,1779, Note_on_c,61,78,4,1,1,71.0,False
40742,1780, Note_on_c,60,78,4,1,1,70.0,True
40743,1780, Note_on_c,63,78,4,1,1,73.0,False
40744,1781, Note_on_c,56,78,4,1,1,65.0,False
40745,1781, Note_on_c,61,78,4,1,1,71.0,False
40746,1782, Note_on_c,60,78,4,1,1,70.0,True
40747,1782, Note_on_c,65,78,4,1,1,76.0,True
40748,1783, Note_on_c,49,78,4,1,1,57.0,False
40749,1784, Note_on_c,56,78,4,1,1,65.0,False
40750,1784, Note_on_c,61,78,4,1,1,71.0,False
40751,1785, Note_on_c,60,78,4,1,1,70.0,True
40752,1785, Note_on_c,63,78,4,1,1,73.0,False
40753,1786, Note_on_c,49,78,4,1,1,57.0,False
40754,1787, Note_on_c,56,78,4,1,1,65.0,False
40755,1787, Note_on_c,61,78,4,1,1,71.0,False
40756,1788, Note_on_c,60,78,4,1,1,70.0,True
40757,1788, Note_on_c,63,78,4,1,1,73.0,False
40758,1789, Note_on_c,56,78,4,1,1,65.0,False
40759,1789, Note_on_c,61,78,4,1,1,71.0,False
40760,1790, Note_on_c,60,78,4,1,1,70.0,True
40761,1790, Note_on_c,65,78,4,1,1,76.0,True
40762,1791, Note_on_c,49,78,4,1,1,57.0,False
40763,1792, Note_on_c,56,78,4,1,1,65.0,False
40764,1792, Note_on_c,61,78,4,1,1,71.0,False
40765,1793, Note_on_c,60,78,4,1,1,70.0,True
40766,1793, Note_on_c,63,78,4,1,1,73.0,False
40767,1794, Note_on_c,49,78,4,1,1,57.0,False
40768,1795, Note_on_c,56,78,4,1,1,65.0,False
40769,1795, Note_on_c,61,78,4,1,1,71.0,False
40770,1796, Note_on_c,60,78,4,1,1,70.0,True
40771,1796, Note_on_c,63,78,4,1,1,73.0,False
40772,1797, Note_on_c,56,78,4,1,1,65.0,False
40773,1797, Note_on_c,61,78,4,1,1,71.0,False
40774,1798, Note_on_c,60,78,4,1,1,70.0,True
40775,1798, Note_on_c,65,78,4,1,1,76.0,True
40776,1799, Note_on_c,49,78,4,1,1,57.0,False
40777,1800, Note_on_c,56,78,4,1,1,65.0,False
40778,1800, Note_on_c,61,78,4,1,1,71.0,False
40779,1801, Note_on_c,60,78,4,1,1,70.0,True
40780,1801, Note_on_c,63,78,4,1,1,73.0,False
40781,1802, Note_on_c,49,78,4,1,1,57.0,False
40782,1803, Note_on_c,56,78,4,1,1,65.0,False
40783,1803, Note_on_c,61,78,4,1,1,71.0,False
40784,1804, Note_on_c,60,78,4,1,1,70.0,True
40785,1804, Note_on_c,63,78,4,1,1,73.0,False
40786,1805, Note_on_c,56,78,4,1,1,65.0,False
40787,1805, Note_on_c,61,78,4,1,1,71.0,False
40788,1806, Note_on_c,60,78,4,1,1,70.0,True
40789,1806, Note_on_c,65,78,4,1,1,76.0,True
40790,1807, Note_on_c,49,78,4,1,1,57.0,False
40791,1808, Note_on_c,56,78,4,1,1,65.0,False
40792,1808, Note_on_c,61,78,4,1,1,71.0,False
40793,1809, Note_on_c,60,78,4,1,1,70.0,True
40794,1809, Note_on_c,63,78,4,1,1,73.0,False
40795,1810, Note_on_c,49,78,4,1,1,57.0,False
40796,1811, Note_on_c,56,78,4,1,1,65.0,False
40797,1811, Note_on_c,61,78,4,1,1,71.0,False
40798,1812, Note_on_c,60,78,4,1,1,70.0,True
40799,1812, Note_on_c,63,78,4,1,1,73.0,False
40800,1813, Note_on_c,56,78,4,1,1,65.0,False
40801,1813, Note_on_c,61,78,4,1,1,71.0,False
40802,1814, Note_on_c,60,78,4,1,1,70.0,True
40803,1814, Note_on_c,65,78,4,1,1,76.0,True
40804,1815, Note_on_c,49,78,4,1,1,57.0,False
40805,1816, Note_on_c,56,78,4,1,1,65.0,False
40806,1816, Note_on_c,61,78,4,1,1,71.0,False
40807,1817, Note_on_c,60,78,4,1,1,70.0,True
40808,1817, Note_on_c,63,78,4,1,1,73.0,False
40809,1818, Note_on_c,49,78,4,1,1,57.0,False
40810,1819, Note_on_c,56,78,4,1,1,65.0,False
40811,1819, Note_on_c,61,78,4,1,1,71.0,False
40812,1820, Note_on_c,60,78,4,1,1,70.0,True
40813,1820, Note_on_c,63,78,4,1,1,73.0,False
40814,1821, Note_on_c,56,78,4,1,1,65.0,False
40815,1821, Note_on_c,61,78,4,1,1,71.0,False
40816,1822, Note_on_c,60,78,4,1,1,70.0,True
40817,1822, Note_on_c,65,78,4,1,1,76.0,True
40818,1823, Note_on_c,49,78,4,1,1,57.0,False
40819,1824, Note_on_c,56,78,4,1,1,65.0,False
40820,1824, Note_on_c,61,78,4,1,1,71.0,False
40821,1825, Note_on_c,60,78,4,1,1,70.0,True
40822,1825, Note_on_c,63,78,4,1,1,73.0,False
40823,1826, Note_on_c,49,78,4,1,1,57.0,False
40824,1827, Note_on_c,56,78,4,1,1,65.0,False
40825,1827, Note_on_c,61,78,4,1,1,71.0,False
40826,1828, Note_on_c,60,78,4,1,1,70.0,True
40827,1828, Note_on_c,63,78,4,1,1,73.0,False
40828,1829, Note_on_c,56,78,4,1,1,65.0,False
40829,1829, Note_on_c,61,78,4,1,1,71.0,False
40830,1830, Note_on_c,60,78,4,1,1,70.0,True
40831,1830, Note_on_c,65,78,4,1,1,76.0,True
40832,1831, Note_on_c,49,78,4,1,1,57.0,False
40833,1832, Note_on_c,56,78,4,1,1,65.0,False
40834,1832, Note_on_c,61,78,4,1,1,71.0,False
40835,1833, Note_on_c,60,78,4,1,1,70.0,True
40836,1833, Note_on_c,63,78,4,1,1,73.0,False
40837,1834, Note_on_c,49,78,4,1,1,57.0,False
40838,1835, Note_on_c,56,78,4,1,1,65.0,False
40839,1835, Note_on_c,61,78,4,1,1,71.0,False
40840,1836, Note_on_c,60,78,4,1,1,70.0,True
40841,1836, Note_on_c,63,78,4,1,1,73.0,False
40842,1837, Note_on_c,56,78,4,1,1,65.0,False
40843,1837, Note_on_c,61,78,4,1,1,71.0,False
40844,1838, Note_on_c,60,78,4,1,1,70.0,True
40845,1838, Note_on_c,65,78,4,1,1,76.0,True
40846,1839, Note_on_c,49,78,4,1,1,57.0,False
40847,1840, Note_on_c,56,78,4,1,1,65.0,False
40848,1840, Note_on_c,61,78,4,1,1,71.0,False
40849,1841, Note_on_c,60,78,4,1,1,70.0,True
40850,1841, Note_on_c,63,78,4,1,1,73.0,False
40851,1842, Note_on_c,49,78,4,1,1,57.0,False
40852,1843, Note_on_c,56,78,4,1,1,65.0,False
40853,1843, Note_on_c,61,78,4,1,1,71.0,False
40854,1844, Note_on_c,60,78,4,1,1,70.0,True
40855,1844, Note_on_c,63,78,4,1,1,73.0,False
40856,1845, Note_on_c,56,78,4,1,1,65.0,False
40857,1845, Note_on_c,61,78,4,1,1,71.0,False
40858,1846, Note_on_c,60,78,4,1,1,70.0,True
40859,1846, Note_on_c,65,78,4,1,1,76.0,True
40860,1847, Note_on_c,49,78,4,1,1,57.0,False
40861,1848, Note_on_c,56,78,4,1,1,65.0,False
40862,1848, Note_on_c,61,78,4,1,1,71.0,False
40863,1849, Note_on_c,60,78,4,1,1,70.0,True
40864,1849, Note_on_c,63,78,4,1,1,73.0,False
40865,1850, Note_on_c,49,78,4,1,1,57.0,False
40866,1851, Note_on_c,56,78,4,1,1,65.0,False
40867,1851, Note_on_c,61,78,4,1,1,71.0,False
40868,1852, Note_on_c,60,78,4,1,1,70.0,True
40869,1852, Note_on_c,63,78,4,1,1,73.0,False
40870,1853, Note_on_c,56,78,4,1,1,65.0,False
40871,1853, Note_on_c,61,78,4,1,1,71.0,False
40872,1854, Note_on_c,60,78,4,1,1,70.0,True
40873,1854, Note_on_c,65,78,4,1,1,76.0,True
40874,1855, Note_on_c,49,78,4,1,1,57.0,False
40875,1856, Note_on_c,56,78,4,1,1,65.0,False
40876,1856, Note_on_c,61,78,4,1,1,71.0,False
40877,1857, Note_on_c,60,78,4,1,1,70.0,True
40878,1857, Note_on_c,63,78,4,1,1,73.0,False
40879,1858, Note_on_c,49,78,4,1,1,57.0,False
40880,1859, Note_on_c,56,78,4,1,1,65.0,False
40881,1859, Note_on_c,61,78,4,1,1,71.0,False
40882,1860, Note_on_c,60,78,4,1,1,70.0,True
40883,1860, Note_on_c,63,78,4,1,1,73.0,False
40884,1861, Note_on_c,56,78,4,1,1,65.0,False
40885,1861, Note_on_c,61,78,4,1,1,71.0,False
40886,1862, Note_on_c,60,78,4,1,1,70.0,True
40887,1862, Note_on_c,65,78,4,1,1,76.0,True
40888,1863, Note_on_c,49,78,4,1,1,57.0,False
40889,1864, Note_on_c,56,78,4,1,1,65.0,False
40890,1864, Note_on_c,61,78,4,1,1,71.0,False
40891,1865, Note_on_c,60,78,4,1,1,70.0,True
40892,1865, Note_on_c,63,78,4,1,1,73.0,False
40893,1866, Note_on_c,49,78,4,1,1,57.0,False
40894,1867, Note_on_c,56,78,4,1,1,65.0,False
40895,1867, Note_on_c,61,78,4,1,1,71.0,False
40896,1868, Note_on_c,60,78,4,1,1,70.0,True
40897,1868, Note_on_c,63,78,4,1,1,73.0,False
40898,1869, Note_on_c,56,78,4,1,1,65.0,False
40899,1869, Note_on_c,61,78,4,1,1,71.0,False
40900,1870, Note_on_c,60,78,4,1,1,70.0,True
40901,1870, Note_on_c,65,78,4,1,1,76.0,True
40902,1871, Note_on_c,49,78,4,1,1,57.0,False
40903,1872, Note_on_c,56,78,4,1,1,65.0,False
40904,1872, Note_on_c,61,78,4,1,1,71.0,False
40905,1873, Note_on_c,60,78,4,1,1,70.0,True
40906,1873, Note_on_c,63,78,4,1,1,73.0,False
40907,1874, Note_on_c,49,78,4,1,1,57.0,False
40908,1875, Note_on_c,56,78,4,1,1,65.0,False
40909,1875, Note_on_c,61,78,4,1,1,71.0,False
40910,1876, Note_on_c,60,78,4,1,1,70.0,True
40911,1876, Note_on_c,63,78,4,1,1,73.0,False
40912,1877, Note_on_c,56,78,4,1,1,65.0,False
40913,1877, Note_on_c,61,78,4,1,1,71.0,False
40914,1878, Note_on_c,60,78,4,1,1,70.0,True
40915,1878, Note_on_c,65,78,4,1,1,76.0,True
40916,1879, Note_on_c,49,78,4,1,1,57.0,False
40917,1880, Note_on_c,56,78,4,1,1,65.0,False
40918,1880, Note_on_c,61,78,4,1,1,71.0,False
40919,1881, Note_on_c,60,78,4,1,1,70.0,True
40920,1881, Note_on_c,63,78,4,1,1,73.0,False
40921,1882, Note_on_c,49,78,4,1,1,57.0,False
40922,1883, Note_on_c,56,78,4,1,1,65.0,False
40923,1883, Note_on_c,61,78,4,1,1,71.0,False
40924,1884, Note_on_c,60,78,4,1,1,70.0,True
40925,1884, Note_on_c,63,78,4,1,1,73.0,False
40926,1885, Note_on_c,56,78,4,1,1,65.0,False
40927,1885, Note_on_c,61,78,4,1,1,71.0,False
40928,1886, Note_on_c,60,78,4,1,1,70.0,True
40929,1886, Note_on_c,65,78,4,1,1,76.0,True
40930,1887, Note_on_c,49,78,4,1,1,57.0,False
40931,1888, Note_on_c,56,78,4,1,1,65.0,False
40932,1888, Note_on_c,61,78,4,1,1,71.0,False
40933,1889, Note_on_c,60,78,4,1,1,70.0,True
40934,1889, Note_on_c,63,78,4,1,1,73.0,False
40935,1890, Note_on_c,49,78,4,1,1,57.0,False
40936,1891, Note_on_c,56,78,4,1,1,65.0,False
40937,1891, Note_on_c,61,78,4,1,1,71.0,False
40938,1892, Note_on_c,60,78,4,1,1,70.0,True
40939,1892, Note_on_c,63,78,4,1,1,73.0,False
40940,1893, Note_on_c,56,78,4,1,1,65.0,False
40941,1893, Note_on_c,61,78,4,1,1,71.0,False
40942,1894, Note_on_c,60,78,4,1,1,70.0,True
40943,1894, Note_on_c,65,78,4,1,1,76.0,True
40944,1895, Note_on_c,49,78,4,1,1,57.0,False
40945,1896, Note_on_c,56,78,4,1,1,65.0,False
40946,1896, Note_on_c,61,78,4,1,1,71.0,False
40947,1897, Note_on_c,60,78,4,1,1,70.0,True
40948,1897, Note_on_c,63,78,4,1,1,73.0,False
40949,1898, Note_on_c,49,78,4,1,1,57.0,False
40950,1899, Note_on_c,56,78,4,1,1,65.0,False
40951,1899, Note_on_c,61,78,4,1,1,71.0,False
40952,1900, Note_on_c,60,78,4,1,1,70.0,True
40953,1900, Note_on_c,63,78,4,1,1,73.0,False
40954,1901, Note_on_c,56,78,4,1,1,65.0,False
40955,1901, Note_on_c,61,78,4,1,1,71.0,False
40956,1902, Note_on_c,60,78,4,1,1,70.0,True
40957,1902, Note_on_c,65,78,4,1,1,76.0,True
40958,1903, Note_on_c,49,78,4,1,1,57.0,False
40959,1904, Note_on_c,56,78,4,1,1,65.0,False
40960,1904, Note_on_c,61,78,4,1,1,71.0,False
40961,1905, Note_on_c,60,78,4,1,1,70.0,True
40962,1905, Note_on_c,63,78,4,1,1,73.0,False
40963,1906, Note_on_c,49,78,4,1,1,57.0,False
40964,1907, Note_on_c,56,78,4,1,1,65.0,False
40965,1907, Note_on_c,61,78,4,1,1,71.0,False
40966,1908, Note_on_c,60,78,4,1,1,70.0,True
40967,1908, Note_on_c,63,78,4,1,1,73.0,False
40968,1909, Note_on_c,56,78,4,1,1,65.0,False
40969,1909, Note_on_c,61,78,4,1,1,71.0,False
40970,1910, Note_on_c,60,78,4,1,1,70.0,True
40971,1910, Note_on_c,65,78,4,1,1,76.0,True
40972,1911, Note_on_c,49,78,4,1,1,57.0,False
40973,1912, Note_on_c,56,78,4,1,1,65.0,False
40974,1912, Note_on_c,61,78,4,1,1,71.0,False
40975,1913, Note_on_c,60,78,4,1,1,70.0,True
40976,1913, Note_on_c,63,78,4,1,1,73.0,False
40977,1914, Note_on_c,49,78,4,1,1,57.0,False
40978,1915, Note_on_c,56,78,4,1,1,65.0,False
40979,1915, Note_on_c,61,78,4,1,1,71.0,False
40980,1916, Note_on_c,60,78,4,1,1,70.0,True
40981,1916, Note_on_c,63,78,4,1,1,73.0,False
40982,1917, Note_on_c,56,78,4,1,1,65.0,False
40983,1917, Note_on_c,61,78,4,1,1,71.0,False
40984,1918, Note_on_c,60,78,4,1,1,70.0,True
40985,1918, Note_on_c,65,78,4,1,1,76.0,True
40986,1919, Note_on_c,49,78,4,1,1,57.0,False
40987,1920, Note_on_c,56,78,4,1,1,65.0,False
40988,1920, Note_on_c,61,78,4,1,1,71.0,False
40989,1921, Note_on_c,60,78,4,1,1,70.0,True
40990,1921, Note_on_c,63,78,4,1,1,73.0,False
40991,1922, Note_on_c,49,78,4,1,1,57.0,False
40992,1923, Note_on_c,56,78,4,1,1,65.0,False
40993,1923, Note_on_c,61,78,4,1,1,71.0,False
40994,1924, Note_on_c,60,78,4,1,1,70.0,True
40995,1924, Note_on_c,63,78,4,1,1,73.0,False
40996,1925, Note_on_c,56,78,4,1,1,65.0,False
40997,1925, Note_on_c,61,78,4,1,1,71.0,False
40998,1926, Note_on_c,60,78,4,1,1,70.0,True
40999,1926, Note_on_c,65,78,4,1,1,76.0,True
41000,1927, Note_on_c,49,78,4,1,1,57.0,False
41001,1928, Note_on_c,56,78,4,1,1,65.0,False
41002,1928, Note_on_c,61,78,4,1,1,71.0,False
41003,1929, Note_on_c,60,78,4,1,1,70.0,True
41004,1929, Note_on_c,63,78,4,1,1,73.0,False
41005,1930, Note_on_c,49,78,4,1,1,57.0,False
41006,1931, Note_on_c,56,78,4,1,1,65.0,False
41007,1931, Note_on_c,61,78,4,1,1,71.0,False
41008,1932, Note_on_c,60,78,4,1,1,70.0,True
41009,1932, Note_on_c,63,78,4,1,1,73.0,False
41010,1933, Note_on_c,56,78,4,1,1,65.0,False
41011,1933, Note_on_c,61,78,4,1,1,71.0,False
41012,1934, Note_on_c,60,78,4,1,1,70.0,True
41013,1934, Note_on_c,65,78,4,1,1,76.0,True
41014,1935, Note_on_c,49,78,4,1,1,57.0,False
41015,1936, Note_on_c,56,78,4,1,1,65.0,False
41016,1936, Note_on_c,61,78,4,1,1,71.0,False
41017,1937, Note_on_c,60,78,4,1,1,70.0,True
41018,1937, Note_on_c,63,78,4,1,1,73.0,False
41019,1938, Note_on_c,49,78,4,1,1,57.0,False
41020,1939, Note_on_c,56,78,4,1,1,65.0,False
41021,1939, Note_on_c,61,78,4,1,1,71.0,False
41022,1940, Note_on_c,60,78,4,1,1,70.0,True
41023,1940, Note_on_c,63,78,4,1,1,73.0,False
41024,1941, Note_on_c,56,78,4,1,1,65.0,False
41025,1941, Note_on_c,61,78,4,1,1,71.0,False
41026,1942, Note_on_c,60,78,4,1,1,70.0,True
41027,1942, Note_on_c,65,78,4,1,1,76.0,True
41028,1943, Note_on_c,49,78,4,1,1,57.0,False
41029,1944, Note_on_c,56,78,4,1,1,65.0,False
41030,1944, Note_on_c,61,78,4,1,1,71.0,False
41031,1945, Note_on_c,60,78,4,1,1,70.0,True
41032,1945, Note_on_c,63,78,4,1,1,73.0,False
41033,1946, Note_on_c,49,78,4,1,1,57.0,False
41034,1947, Note_on_c,56,78,4,1,1,65.0,False
41035,1947, Note_on_c,61,78,4,1,1,71.0,False
41036,1948, Note_on_c,60,78,4,1,1,70.0,True
41037,1948, Note_on_c,63,78,4,1,1,73.0,False
41038,1949, Note_on_c,56,78,4,1,1,65.0,False
41039,1949, Note_on_c,61,78,4,1,1,71.0,False
41040,1950, Note_on_c,60,78,4,1,1,70.0,True
41041,1950, Note_on_c,65,78,4,1,1,76.0,True
41042,1951, Note_on_c,49,78,4,1,1,57.0,False
41043,1952, Note_on_c,56,78,4,1,1,65.0,False
41044,1952, Note_on_c,61,78,4,1,1,71.0,False
41045,1953, Note_on_c,60,78,4,1,1,70.0,True
41046,1953, Note_on_c,63,78,4,1,1,73.0,False
41047,1954, Note_on_c,49,78,4,1,1,57.0,False
41048,1955, Note_on_c,56,78,4,1,1,65.0,False
41049,1955, Note_on_c,61,78,4,1,1,71.0,False
41050,1956, Note_on_c,60,78,4,1,1,70.0,True
41051,1956, Note_on_c,63,78,4,1,1,73.0,False
41052,1957, Note_on_c,56,78,4,1,1,65.0,False
41053,1957, Note_on_c,61,78,4,1,1,71.0,False
41054,1958, Note_on_c,60,78,4,1,1,70.0,True
41055,1958, Note_on_c,65,78,4,1,1,76.0,True
41056,1959, Note_on_c,49,78,4,1,1,57.0,False
41057,1960, Note_on_c,56,78,4,1,1,65.0,False
41058,1960, Note_on_c,61,78,4,1,1,71.0,False
41059,1961, Note_on_c,60,78,4,1,1,70.0,True
41060,1961, Note_on_c,63,78,4,1,1,73.0,False
41061,1962, Note_on_c,49,78,4,1,1,57.0,False
41062,1963, Note_on_c,56,78,4,1,1,65.0,False
41063,1963, Note_on_c,61,78,4,1,1,71.0,False
41064,1964, Note_on_c,60,78,4,1,1,70.0,True
41065,1964, Note_on_c,63,78,4,1,1,73.0,False
41066,1965, Note_on_c,56,78,4,1,1,65.0,False
41067,1965, Note_on_c,61,78,4,1,1,71.0,False
41068,1966, Note_on_c,60,78,4,1,1,70.0,True
41069,1966, Note_on_c,65,78,4,1,1,76.0,True
41070,1967, Note_on_c,49,78,4,1,1,57.0,False
41071,1968, Note_on_c,56,78,4,1,1,65.0,False
41072,1968, Note_on_c,61,78,4,1,1,71.0,False
41073,1969, Note_on_c,60,78,4,1,1,70.0,True
41074,1969, Note_on_c,63,78,4,1,1,73.0,False
41075,1970, Note_on_c,49,78,4,1,1,57.0,False
41076,1971, Note_on_c,56,78,4,1,1,65.0,False
41077,1971, Note_on_c,61,78,4,1,1,71.0,False
41078,1972, Note_on_c,60,78,4,1,1,70.0,True
41079,1972, Note_on_c,63,78,4,1,1,73.0,False
41080,1973, Note_on_c,56,78,4,1,1,65.0,False
41081,1973, Note_on_c,61,78,4,1,1,71.0,False
41082,1974, Note_on_c,60,78,4,1,1,70.0,True
41083,1974, Note_on_c,65,78,4,1,1,76.0,True
41084,1975, Note_on_c,49,78,4,1,1,57.0,False
41085,1976, Note_on_c,56,78,4,1,1,65.0,False
41086,1976, Note_on_c,61,78,4,1,1,71.0,False
41087,1977, Note_on_c,60,78,4,1,1,70.0,True
41088,1977, Note_on_c,63,78,4,1,1,73.0,False
41089,1978, Note_on_c,49,78,4,1,1,57.0,False
41090,1979, Note_on_c,56,78,4,1,1,65.0,False
41091,1979, Note_on_c,61,78,4,1,1,71.0,False
41092,1980, Note_on_c,60,78,4,1,1,70.0,True
41093,1980, Note_on_c,63,78,4,1,1,73.0,False
41094,1981, Note_on_c,56,78,4,1,1,65.0,False
41095,1981, Note_on_c,61,78,4,1,1,71.0,False
41096,1982, Note_on_c,60,78,4,1,1,70.0,True
41097,1982, Note_on_c,65,78,4,1,1,76.0,True
41098,1983, Note_on_c,49,78,4,1,1,57.0,False
41099,1984, Note_on_c,56,78,4,1,1,65.0,False
41100,1984, Note_on_c,61,78,4,1,1,71.0,False
41101,1985, Note_on_c,60,78,4,1,1,70.0,True
41102,1985, Note_on_c,63,78,4,1,1,73.0,False
41103,1986, Note_on_c,49,78,4,1,1,57.0,False
41104,1987, Note_on_c,56,78,4,1,1,65.0,False
41105,1987, Note_on_c,61,78,4,1,1,71.0,False
41106,1988, Note_on_c,60,78,4,1,1,70.0,True
41107,1988, Note_on_c,63,78,4,1,1,73.0,False
41108,1989, Note_on_c,56,78,4,1,1,65.0,False
41109,1989, Note_on_c,61,78,4,1,1,71.0,False
41110,1990, Note_on_c,60,78,4,1,1,70.0,True
41111,1990, Note_on_c,65,78,4,1,1,76.0,True
41112,1991, Note_on_c,49,78,4,1,1,57.0,False
41113,1992, Note_on_c,56,78,4,1,1,65.0,False
41114,1992, Note_on_c,61,78,4,1,1,71.0,False
41115,1993, Note_on_c,60,78,4,1,1,70.0,True
41116,1993, Note_on_c,63,78,4,1,1,73.0,False
41117,1994, Note_on_c,49,78,4,1,1,57.0,False
41118,1995, Note_on_c,56,78,4,1,1,65.0,False
41119,1995, Note_on_c,61,78,4,1,1,71.0,False
41120,1996, Note_on_c,60,78,4,1,1,70.0,True
41121,1996, Note_on_c,63,78,4,1,1,73.0,False
41122,1997, Note_on_c,56,78,4,1,1,65.0,False
41123,1997, Note_on_c,61,78,4,1,1,71.0,False
41124,1998, Note_on_c,60,78,4,1,1,70.0,True
41125,1998, Note_on_c,65,78,4,1,1,76.0,True
41126,1999, Note_on_c,49,78,4,1,1,57.0,False
41127,2000, Note_on_c,56,78,4,1,1,65.0,False
41128,2000, Note_on_c,61,78,4,1,1,71.0,False
41129,2001, Note_on_c,60,78,4,1,1,70.0,True
41130,2001, Note_on_c,63,78,4,1,1,73.0,False
41131,2002, Note_on_c,49,78,4,1,1,57.0,False
41132,2003, Note_on_c,56,78,4,1,1,65.0,False
41133,2003, Note_on_c,61,78,4,1,1,71.0,False
41134,2004, Note_on_c,60,78,4,1,1,70.0,True
41135,2004, Note_on_c,63,78,4,1,1,73.0,False
41136,2005, Note_on_c,56,78,4,1,1,65.0,False
41137,2005, Note_on_c,61,78,4,1,1,71.0,False
41138,2006, Note_on_c,60,78,4,1,1,70.0,True
41139,2006, Note_on_c,65,78,4,1,1,76.0,True
41140,2007, Note_on_c,49,78,4,1,1,57.0,False
41141,2008, Note_on_c,56,78,4,1,1,65.0,False
41142,2008, Note_on_c,61,78,4,1,1,71.0,False
41143,2009, Note_on_c,60,78,4,1,1,70.0,True
41144,2009, Note_on_c,63,78,4,1,1,73.0,False
41145,2010, Note_on_c,49,78,4,1,1,57.0,False
41146,2011, Note_on_c,56,78,4,1,1,65.0,False
41147,2011, Note_on_c,61,78,4,1,1,71.0,False
41148,2012, Note_on_c,60,78,4,1,1,70.0,True
41149,2012, Note_on_c,63,78,4,1,1,73.0,False
41150,2013, Note_on_c,56,78,4,1,1,65.0,False
41151,2013, Note_on_c,61,78,4,1,1,71.0,False
41152,2014, Note_on_c,60,78,4,1,1,70.0,True
41153,2014, Note_on_c,65,78,4,1,1,76.0,True
41154,2015, Note_on_c,49,78,4,1,1,57.0,False
41155,2016, Note_on_c,56,78,4,1,1,65.0,False
41156,2016, Note_on_c,61,78,4,1,1,71.0,False
41157,2017, Note_on_c,60,78,4,1,1,70.0,True
41158,2017, Note_on_c,63,78,4,1,1,73.0,False
41159,2018, Note_on_c,49,78,4,1,1,57.0,False
41160,2019, Note_on_c,56,78,4,1,1,65.0,False
41161,2019, Note_on_c,61,78,4,1,1,71.0,False
41162,2020, Note_on_c,60,78,4,1,1,70.0,True
41163,2020, Note_on_c,63,78,4,1,1,73.0,False
41164,2021, Note_on_c,56,78,4,1,1,65.0,False
41165,2021, Note_on_c,61,78,4,1,1,71.0,False
41166,2022, Note_on_c,60,78,4,1,1,70.0,True
41167,2022, Note_on_c,65,78,4,1,1,76.0,True
41168,2023, Note_on_c,49,78,4,1,1,57.0,False
41169,2024, Note_on_c,56,78,4,1,1,65.0,False
41170,2024, Note_on_c,61,78,4,1,1,71.0,False
41171,2025, Note_on_c,60,78,4,1,1,70.0,True
41172,2025, Note_on_c,63,78,4,1,1,73.0,False
41173,2026, Note_on_c,49,78,4,1,1,57.0,False
41174,2027, Note_on_c,56,78,4,1,1,65.0,False
41175,2027, Note_on_c,61,78,4,1,1,71.0,False
41176,2028, Note_on_c,60,78,4,1,1,70.0,True
41177,2028, Note_on_c,63,78,4,1,1,73.0,False
41178,2029, Note_on_c,56,78,4,1,1,65.0,False
41179,2029, Note_on_c,61,78,4,1,1,71.0,False
41180,2030, Note_on_c,60,78,4,1,1,70.0,True
41181,2030, Note_on_c,65,78,4,1,1,76.0,True
41182,2031, Note_on_c,49,78,4,1,1,57.0,False
41183,2032, Note_on_c,56,78,4,1,1,65.0,False
41184,2032, Note_on_c,61,78,4,1,1,71.0,False
41185,2033, Note_on_c,60,78,4,1,1,70.0,True
41186,2033, Note_on_c,63,78,4,1,1,73.0,False
41187,2034, Note_on_c,49,78,4,1,1,57.0,False
41188,2035, Note_on_c,56,78,4,1,1,65.0,False
41189,2035, Note_on_c,61,78,4,1,1,71.0,False
41190,2036, Note_on_c,60,78,4,1,1,70.0,True
41191,2036, Note_on_c,63,78,4,1,1,73.0,False
41192,2037, Note_on_c,56,78,4,1,1,65.0,False
41193,2037, Note_on_c,61,78,4,1,1,71.0,False
41194,2038, Note_on_c,60,78,4,1,1,70.0,True
41195,2038, Note_on_c,65,78,4,1,1,76.0,True
41196,2039, Note_on_c,49,78,4,1,1,57.0,False
41197,2040, Note_on_c,56,78,4,1,1,65.0,False
41198,2040, Note_on_c,61,78,4,1,1,71.0,False
41199,2041, Note_on_c,60,78,4,1,1,70.0,True
41200,2041, Note_on_c,63,78,4,1,1,73.0,False
41201,2042, Note_on_c,49,78,4,1,1,57.0,False
41202,2043, Note_on_c,56,78,4,1,1,65.0,False
41203,2043, Note_on_c,61,78,4,1,1,71.0,False
41204,2044, Note_on_c,60,78,4,1,1,70.0,True
41205,2044, Note_on_c,63,78,4,1,1,73.0,False
41206,2045, Note_on_c,56,78,4,1,1,65.0,False
41207,2045, Note_on_c,61,78,4,1,1,71.0,False
41208,2046, Note_on_c,60,78,4,1,1,70.0,True
41209,2046, Note_on_c,65,78,4,1,1,76.0,True
41210,2047, Note_on_c,49,78,4,1,1,57.0,False
41211,2048, Note_on_c,56,78,4,1,1,65.0,False
41212,2048, Note_on_c,61,78,4,1,1,71.0,False
41213,2049, Note_on_c,60,78,4,1,1,70.0,True
41214,2049, Note_on_c,63,78,4,1,1,73.0,False
41215,2050, Note_on_c,49,78,4,1,1,57.0,False
41216,2051, Note_on_c,56,78,4,1,1,65.0,False
41217,2051, Note_on_c,61,78,4,1,1,71.0,False
41218,2052, Note_on_c,60,78,4,1,1,70.0,True
41219,2052, Note_on_c,63,78,4,1,1,73.0,False
41220,2053, Note_on_c,56,78,4,1,1,65.0,False
41221,2053, Note_on_c,61,78,4,1,1,71.0,False
41222,2054, Note_on_c,60,78,4,1,1,70.0,True
41223,2054, Note_on_c,65,78,4,1,1,76.0,True
41224,2055, Note_on_c,49,78,4,1,1,57.0,False
41225,2056, Note_on_c,56,78,4,1,1,65.0,False
41226,2056, Note_on_c,61,78,4,1,1,71.0,False
41227,2057, Note_on_c,60,78,4,1,1,70.0,True
41228,2057, Note_on_c,63,78,4,1,1,73.0,False
41229,2058, Note_on_c,49,78,4,1,1,57.0,False
41230,2059, Note_on_c,56,78,4,1,1,65.0,False
41231,2059, Note_on_c,61,78,4,1,1,71.0,False
41232,2060, Note_on_c,60,78,4,1,1,70.0,True
41233,2060, Note_on_c,63,78,4,1,1,73.0,False
41234,2061, Note_on_c,56,78,4,1,1,65.0,False
41235,2061, Note_on_c,61,78,4,1,1,71.0,False
41236,2062, Note_on_c,60,78,4,1,1,70.0,True
41237,2062, Note_on_c,65,78,4,1,1,76.0,True
41238,2063, Note_on_c,49,78,4,1,1,57.0,False
41239,2064, Note_on_c,56,78,4,1,1,65.0,False
41240,2064, Note_on_c,61,78,4,1,1,71.0,False
41241,2065, Note_on_c,60,78,4,1,1,70.0,True
41242,2065, Note_on_c,63,78,4,1,1,73.0,False
41243,2066, Note_on_c,49,78,4,1,1,57.0,False
41244,2067, Note_on_c,56,78,4,1,1,65.0,False
41245,2067, Note_on_c,61,78,4,1,1,71.0,False
41246,2068, Note_on_c,60,78,4,1,1,70.0,True
41247,2068, Note_on_c,63,78,4,1,1,73.0,False
41248,2069, Note_on_c,56,78,4,1,1,65.0,False
41249,2069, Note_on_c,61,78,4,1,1,71.0,False
41250,2070, Note_on_c,60,78,4,1,1,70.0,True
41251,2070, Note_on_c,65,78,4,1,1,76.0,True
41252,2071, Note_on_c,49,78,4,1,1,57.0,False
41253,2072, Note_on_c,56,78,4,1,1,65.0,False
41254,2072, Note_on_c,61,78,4,1,1,71.0,False
41255,2073, Note_on_c,60,78,4,1,1,70.0,True
41256,2073, Note_on_c,63,78,4,1,1,73.0,False
41257,2074, Note_on_c,49,78,4,1,1,57.0,False
41258,2075, Note_on_c,56,78,4,1,1,65.0,False
41259,2075, Note_on_c,61,78,4,1,1,71.0,False
41260,2076, Note_on_c,60,78,4,1,1,70.0,True
41261,2076, Note_on_c,63,78,4,1,1,73.0,False
41262,2077, Note_on_c,56,78,4,1,1,65.0,False
41263,2077, Note_on_c,61,78,4,1,1,71.0,False
41264,2078, Note_on_c,60,78,4,1,1,70.0,True
41265,2078, Note_on_c,65,78,4,1,1,76.0,True
41266,2079, Note_on_c,49,78,4,1,1,57.0,False
41267,2080, Note_on_c,56,78,4,1,1,65.0,False
41268,2080, Note_on_c,61,78,4,1,1,71.0,False
41269,2081, Note_on_c,60,78,4,1,1,70.0,True
41270,2081, Note_on_c,63,78,4,1,1,73.0,False
41271,2082, Note_on_c,49,78,4,1,1,57.0,False
41272,2083, Note_on_c,56,78,4,1,1,65.0,False
41273,2083, Note_on_c,61,78,4,1,1,71.0,False
41274,2084, Note_on_c,60,78,4,1,1,70.0,True
41275,2084, Note_on_c,63,78,4,1,1,73.0,False
41276,2085, Note_on_c,56,78,4,1,1,65.0,False
41277,2085, Note_on_c,61,78,4,1,1,71.0,False
41278,2086, Note_on_c,60,78,4,1,1,70.0,True
41279,2086, Note_on_c,65,78,4,1,1,76.0,True
41280,2087, Note_on_c,49,78,4,1,1,57.0,False
41281,2088, Note_on_c,56,78,4,1,1,65.0,False
41282,2088, Note_on_c,61,78,4,1,1,71.0,False
41283,2089, Note_on_c,60,78,4,1,1,70.0,True
41284,2089, Note_on_c,63,78,4,1,1,73.0,False
41285,2090, Note_on_c,49,78,4,1,1,57.0,False
41286,2091, Note_on_c,56,78,4,1,1,65.0,False
41287,2091, Note_on_c,61,78,4,1,1,71.0,False
41288,2092, Note_on_c,60,78,4,1,1,70.0,True
41289,2092, Note_on_c,63,78,4,1,1,73.0,False
41290,2093, Note_on_c,56,78,4,1,1,65.0,False
41291,2093, Note_on_c,61,78,4,1,1,71.0,False
41292,2094, Note_on_c,60,78,4,1,1,70.0,True
41293,2094, Note_on_c,65,78,4,1,1,76.0,True
41294,2095, Note_on_c,49,78,4,1,1,57.0,False
41295,2096, Note_on_c,56,78,4,1,1,65.0,False
41296,2096, Note_on_c,61,78,4,1,1,71.0,False
41297,2097, Note_on_c,60,78,4,1,1,70.0,True
41298,2097, Note_on_c,63,78,4,1,1,73.0,False
41299,2098, Note_on_c,49,78,4,1,1,57.0,False
41300,2099, Note_on_c,56,78,4,1,1,65.0,False
41301,2099, Note_on_c,61,78,4,1,1,71.0,False
41302,2100, Note_on_c,60,78,4,1,1,70.0,True
41303,2100, Note_on_c,63,78,4,1,1,73.0,False
41304,2101, Note_on_c,56,78,4,1,1,65.0,False
41305,2101, Note_on_c,61,78,4,1,1,71.0,False
41306,2102, Note_on_c,60,78,4,1,1,70.0,True
41307,2102, Note_on_c,65,78,4,1,1,76.0,True
41308,2103, Note_on_c,49,78,4,1,1,57.0,False
41309,2104, Note_on_c,56,78,4,1,1,65.0,False
41310,2104, Note_on_c,61,78,4,1,1,71.0,False
41311,2105, Note_on_c,60,78,4,1,1,70.0,True
41312,2105, Note_on_c,63,78,4,1,1,73.0,False
41313,2106, Note_on_c,49,78,4,1,1,57.0,False
41314,2107, Note_on_c,56,78,4,1,1,65.0,False
41315,2107, Note_on_c,61,78,4,1,1,71.0,False
41316,2108, Note_on_c,60,78,4,1,1,70.0,True
41317,2108, Note_on_c,63,78,4,1,1,73.0,False
41318,2109, Note_on_c,56,78,4,1,1,65.0,False
41319,2109, Note_on_c,61,78,4,1,1,71.0,False
41320,2110, Note_on_c,60,78,4,1,1,70.0,True
41321,2110, Note_on_c,65,78,4,1,1,76.0,True
41322,2111, Note_on_c,49,78,4,1,1,57.0,False
41323,2112, Note_on_c,56,78,4,1,1,65.0,False
41324,2112, Note_on_c,61,78,4,1,1,71.0,False
41325,2113, Note_on_c,60,78,4,1,1,70.0,True
41326,2113, Note_on_c,63,78,4,1,1,73.0,False
41327,2114, Note_on_c,49,78,4,1,1,57.0,False
41328,2115, Note_on_c,56,78,4,1,1,65.0,False
41329,2115, Note_on_c,61,78,4,1,1,71.0,False
41330,2116, Note_on_c,60,78,4,1,1,70.0,True
41331,2116, Note_on_c,63,78,4,1,1,73.0,False
41332,2117, Note_on_c,56,78,4,1,1,65.0,False
41333,2117, Note_on_c,61,78,4,1,1,71.0,False
41334,2118, Note_on_c,60,78,4,1,1,70.0,True
41335,2118, Note_on_c,65,78,4,1,1,76.0,True
41336,2119, Note_on_c,49,78,4,1,1,57.0,False
41337,2120, Note_on_c,56,78,4,1,1,65.0,False
41338,2120, Note_on_c,61,78,4,1,1,71.0,False
41339,2121, Note_on_c,60,78,4,1,1,70.0,True
41340,2121, Note_on_c,63,78,4,1,1,73.0,False
41341,2122, Note_on_c,49,78,4,1,1,57.0,False
41342,2123, Note_on_c,56,78,4,1,1,65.0,False
41343,2123, Note_on_c,61,78,4,1,1,71.0,False
41344,2124, Note_on_c,60,78,4,1,1,70.0,True
41345,2124, Note_on_c,63,78,4,1,1,73.0,False
41346,2125, Note_on_c,56,78,4,1,1,65.0,False
41347,2125, Note_on_c,61,78,4,1,1,71.0,False
41348,2126, Note_on_c,60,78,4,1,1,70.0,True
41349,2126, Note_on_c,65,78,4,1,1,76.0,True
41350,2127, Note_on_c,49,78,4,1,1,57.0,False
41351,2128, Note_on_c,56,78,4,1,1,65.0,False
41352,2128, Note_on_c,61,78,4,1,1,71.0,False
41353,2129, Note_on_c,60,78,4,1,1,70.0,True
41354,2129, Note_on_c,63,78,4,1,1,73.0,False
41355,2130, Note_on_c,49,78,4,1,1,57.0,False
41356,2131, Note_on_c,56,78,4,1,1,65.0,False
41357,2131, Note_on_c,61,78,4,1,1,71.0,False
41358,2132, Note_on_c,60,78,4,1,1,70.0,True
41359,2132, Note_on_c,63,78,4,1,1,73.0,False
41360,2133, Note_on_c,56,78,4,1,1,65.0,False
41361,2133, Note_on_c,61,78,4,1,1,71.0,False
41362,2134, Note_on_c,60,78,4,1,1,70.0,True
41363,2134, Note_on_c,65,78,4,1,1,76.0,True
41364,2135, Note_on_c,49,78,4,1,1,57.0,False
41365,2136, Note_on_c,56,78,4,1,1,65.0,False
41366,2136, Note_on_c,61,78,4,1,1,71.0,False
41367,2137, Note_on_c,60,78,4,1,1,70.0,True
41368,2137, Note_on_c,63,78,4,1,1,73.0,False
41369,2138, Note_on_c,49,78,4,1,1,57.0,False
41370,2139, Note_on_c,56,78,4,1,1,65.0,False
41371,2139, Note_on_c,61,78,4,1,1,71.0,False
41372,2140, Note_on_c,60,78,4,1,1,70.0,True
41373,2140, Note_on_c,63,78,4,1,1,73.0,False
41374,2141, Note_on_c,56,78,4,1,1,65.0,False
41375,2141, Note_on_c,61,78,4,1,1,71.0,False
41376,2142, Note_on_c,60,78,4,1,1,70.0,True
41377,2142, Note_on_c,65,78,4,1,1,76.0,True
41378,2143, Note_on_c,49,78,4,1,1,57.0,False
41379,2144, Note_on_c,56,78,4,1,1,65.0,False
41380,2144, Note_on_c,61,78,4,1,1,71.0,False
41381,2145, Note_on_c,60,78,4,1,1,70.0,True
41382,2145, Note_on_c,63,78,4,1,1,73.0,False
41383,2146, Note_on_c,49,78,4,1,1,57.0,False
41384,2147, Note_on_c,56,78,4,1,1,65.0,False
41385,2147, Note_on_c,61,78,4,1,1,71.0,False
41386,2148, Note_on_c,60,78,4,1,1,70.0,True
41387,2148, Note_on_c,63,78,4,1,1,73.0,False
41388,2149, Note_on_c,56,78,4,1,1,65.0,False
41389,2149, Note_on_c,61,78,4,1,1,71.0,False
41390,2150, Note_on_c,60,78,4,1,1,70.0,True
41391,2150, Note_on_c,65,78,4,1,1,76.0,True
41392,2151, Note_on_c,49,78,4,1,1,57.0,False
41393,2152, Note_on_c,56,78,4,1,1,65.0,False
41394,2152, Note_on_c,61,78,4,1,1,71.0,False
41395,2153, Note_on_c,60,78,4,1,1,70.0,True
41396,2153, Note_on_c,63,78,4,1,1,73.0,False
41397,2154, Note_on_c,49,78,4,1,1,57.0,False
41398,2155, Note_on_c,56,78,4,1,1,65.0,False
41399,2155, Note_on_c,61,78,4,1,1,71.0,False
41400,2156, Note_on_c,60,78,4,1,1,70.0,True
41401,2156, Note_on_c,63,78,4,1,1,73.0,False
41402,2157, Note_on_c,56,78,4,1,1,65.0,False
41403,2157, Note_on_c,61,78,4,1,1,71.0,False
41404,2158, Note_on_c,60,78,4,1,1,70.0,True
41405,2158, Note_on_c,65,78,4,1,1,76.0,True
41406,2159, Note_on_c,49,78,4,1,1,57.0,False
41407,2160, Note_on_c,56,78,4,1,1,65.0,False
41408,2160, Note_on_c,61,78,4,1,1,71.0,False
41409,2161, Note_on_c,60,78,4,1,1,70.0,True
41410,2161, Note_on_c,63,78,4,1,1,73.0,False
41411,2162, Note_on_c,49,78,4,1,1,57.0,False
41412,2163, Note_on_c,56,78,4,1,1,65.0,False
41413,2163, Note_on_c,61,78,4,1,1,71.0,False
41414,2164, Note_on_c,60,78,4,1,1,70.0,True
41415,2164, Note_on_c,63,78,4,1,1,73.0,False
41416,2165, Note_on_c,56,78,4,1,1,65.0,False
41417,2165, Note_on_c,61,78,4,1,1,71.0,False
41418,2166, Note_on_c,60,78,4,1,1,70.0,True
41419,2166, Note_on_c,65,78,4,1,1,76.0,True
41420,2167, Note_on_c,49,78,4,1,1,57.0,False
41421,2168, Note_on_c,56,78,4,1,1,65.0,False
41422,2168, Note_on_c,61,78,4,1,1,71.0,False
41423,2169, Note_on_c,60,78,4,1,1,70.0,True
41424,2169, Note_on_c,63,78,4,1,1,73.0,False
41425,2170, Note_on_c,49,78,4,1,1,57.0,False
41426,2171, Note_on_c,56,78,4,1,1,65.0,False
41427,2171, Note_on_c,61,78,4,1,1,71.0,False
41428,2172, Note_on_c,60,78,4,1,1,70.0,True
41429,2172, Note_on_c,63,78,4,1,1,73.0,False
41430,2173, Note_on_c,56,78,4,1,1,65.0,False
41431,2173, Note_on_c,61,78,4,1,1,71.0,False
41432,2174, Note_on_c,60,78,4,1,1,70.0,True
41433,2174, Note_on_c,65,78,4,1,1,76.0,True
41434,2175, Note_on_c,49,78,4,1,1,57.0,False
41435,2176, Note_on_c,56,78,4,1,1,65.0,False
41436,2176, Note_on_c,61,78,4,1,1,71.0,False
41437,2177, Note_on_c,60,78,4,1,1,70.0,True
41438,2177, Note_on_c,63,78,4,1,1,73.0,False
41439,2178, Note_on_c,49,78,4,1,1,57.0,False
41440,2179, Note_on_c,56,78,4,1,1,65.0,False
41441,2179, Note_on_c,61,78,4,1,1,71.0,False
41442,2180, Note_on_c,60,78,4,1,1,70.0,True
41443,2180, Note_on_c,63,78,4,1,1,73.0,False
41444,2181, Note_on_c,56,78,4,1,1,65.0,False
41445,2181, Note_on_c,61,78,4,1,1,71.0,False
41446,2182, Note_on_c,60,78,4,1,1,70.0,True
41447,2182, Note_on_c,65,78,4,1,1,76.0,True
41448,2183, Note_on_c,49,78,4,1,1,57.0,False
41449,2184, Note_on_c,56,78,4,1,1,65.0,False
41450,2184, Note_on_c,61,78,4,1,1,71.0,False
41451,2185, Note_on_c,60,78,4,1,1,70.0,True
41452,2185, Note_on_c,63,78,4,1,1,73.0,False
41453,2186, Note_on_c,49,78,4,1,1,57.0,False
41454,2187, Note_on_c,56,78,4,1,1,65.0,False
41455,2187, Note_on_c,61,78,4,1,1,71.0,False
41456,2188, Note_on_c,60,78,4,1,1,70.0,True
41457,2188, Note_on_c,63,78,4,1,1,73.0,False
41458,2189, Note_on_c,56,78,4,1,1,65.0,False
41459,2189, Note_on_c,61,78,4,1,1,71.0,False
41460,2190, Note_on_c,60,78,4,1,1,70.0,True
41461,2190, Note_on_c,65,78,4,1,1,76.0,True
41462,2191, Note_on_c,49,78,4,1,1,57.0,False
41463,2192, Note_on_c,56,78,4,1,1,65.0,False
41464,2192, Note_on_c,61,78,4,1,1,71.0,False
41465,2193, Note_on_c,60,78,4,1,1,70.0,True
41466,2193, Note_on_c,63,78,4,1,1,73.0,False
41467,2194, Note_on_c,49,78,4,1,1,57.0,False
41468,2195, Note_on_c,56,78,4,1,1,65.0,False
41469,2195, Note_on_c,61,78,4,1,1,71.0,False
41470,2196, Note_on_c,60,78,4,1,1,70.0,True
41471,2196, Note_on_c,63,78,4,1,1,73.0,False
41472,2197, Note_on_c,56,78,4,1,1,65.0,False
41473,2197, Note_on_c,61,78,4,1,1,71.0,False
41474,2198, Note_on_c,60,78,4,1,1,70.0,True
41475,2198, Note_on_c,65,78,4,1,1,76.0,True
41476,2199, Note_on_c,49,78,4,1,1,57.0,False
41477,2200, Note_on_c,56,78,4,1,1,65.0,False
41478,2200, Note_on_c,61,78,4,1,1,71.0,False
41479,2201, Note_on_c,60,78,4,1,1,70.0,True
41480,2201, Note_on_c,63,78,4,1,1,73.0,False
41481,2202, Note_on_c,49,78,4,1,1,57.0,False
41482,2203, Note_on_c,56,78,4,1,1,65.0,False
41483,2203, Note_on_c,61,78,4,1,1,71.0,False
41484,2204, Note_on_c,60,78,4,1,1,70.0,True
41485,2204, Note_on_c,63,78,4,1,1,73.0,False
41486,2205, Note_on_c,56,78,4,1,1,65.0,False
41487,2205, Note_on_c,61,78,4,1,1,71.0,False
41488,2206, Note_on_c,60,78,4,1,1,70.0,True
41489,2206, Note_on_c,65,78,4,1,1,76.0,True
41490,2207, Note_on_c,49,78,4,1,1,57.0,False
41491,2208, Note_on_c,56,78,4,1,1,65.0,False
41492,2208, Note_on_c,61,78,4,1,1,71.0,False
41493,2209, Note_on_c,60,78,4,1,1,70.0,True
41494,2209, Note_on_c,63,78,4,1,1,73.0,False
41495,2210, Note_on_c,49,78,4,1,1,57.0,False
41496,2211, Note_on_c,56,78,4,1,1,65.0,False
41497,2211, Note_on_c,61,78,4,1,1,71.0,False
41498,2212, Note_on_c,60,78,4,1,1,70.0,True
41499,2212, Note_on_c,63,78,4,1,1,73.0,False
41500,2213, Note_on_c,56,78,4,1,1,65.0,False
41501,2213, Note_on_c,61,78,4,1,1,71.0,False
41502,2214, Note_on_c,60,78,4,1,1,70.0,True
41503,2214, Note_on_c,65,78,4,1,1,76.0,True
41504,2215, Note_on_c,49,78,4,1,1,57.0,False
41505,2216, Note_on_c,56,78,4,1,1,65.0,False
41506,2216, Note_on_c,61,78,4,1,1,71.0,False
41507,2217, Note_on_c,60,78,4,1,1,70.0,True
41508,2217, Note_on_c,63,78,4,1,1,73.0,False
41509,2218, Note_on_c,49,78,4,1,1,57.0,False
41510,2219, Note_on_c,56,78,4,1,1,65.0,False
41511,2219, Note_on_c,61,78,4,1,1,71.0,False
41512,2220, Note_on_c,60,78,4,1,1,70.0,True
41513,2220, Note_on_c,63,78,4,1,1,73.0,False
41514,2221, Note_on_c,56,78,4,1,1,65.0,False
41515,2221, Note_on_c,61,78,4,1,1,71.0,False
41516,2222, Note_on_c,60,78,4,1,1,70.0,True
41517,2222, Note_on_c,65,78,4,1,1,76.0,True
41518,2223, Note_on_c,49,78,4,1,1,57.0,False
41519,2224, Note_on_c,56,78,4,1,1,65.0,False
41520,2224, Note_on_c,61,78,4,1,1,71.0,False
41521,2225, Note_on_c,60,78,4,1,1,70.0,True
41522,2225, Note_on_c,63,78,4,1,1,73.0,False
41523,2226, Note_on_c,49,78,4,1,1,57.0,False
41524,2227, Note_on_c,56,78,4,1,1,65.0,False
41525,2227, Note_on_c,61,78,4,1,1,71.0,False
41526,2228, Note_on_c,60,78,4,1,1,70.0,True
41527,2228, Note_on_c,63,78,4,1,1,73.0,False
41528,2229, Note_on_c,56,78,4,1,1,65.0,False
41529,2229, Note_on_c,61,78,4,1,1,71.0,False
41530,2230, Note_on_c,60,78,4,1,1,70.0,True
41531,2230, Note_on_c,65,78,4,1,1,76.0,True
41532,2231, Note_on_c,49,78,4,1,1,57.0,False
41533,2232, Note_on_c,56,78,4,1,1,65.0,False
41534,2232, Note_on_c,61,78,4,1,1,71.0,False
41535,2233, Note_on_c,60,78,4,1,1,70.0,True
41536,2233, Note_on_c,63,78,4,1,1,73.0,False
41537,2234, Note_on_c,49,78,4,1,1,57.0,False
41538,2235, Note_on_c,56,78,4,1,1,65.0,False
41539,2235, Note_on_c,61,78,4,1,1,71.0,False
41540,2236, Note_on_c,60,78,4,1,1,70.0,True
41541,2236, Note_on_c,63,78,4,1,1,73.0,False
41542,2237, Note_on_c,56,78,4,1,1,65.0,False
41543,2237, Note_on_c,61,78,4,1,1,71.0,False
41544,2238, Note_on_c,60,78,4,1,1,70.0,True
41545,2238, Note_on_c,65,78,4,1,1,76.0,True
41546,2239, Note_on_c,49,78,4,1,1,57.0,False
41547,2240, Note_on_c,56,78,4,1,1,65.0,False
41548,2240, Note_on_c,61,78,4,1,1,71.0,False
41549,2241, Note_on_c,60,78,4,1,1,70.0,True
41550,2241, Note_on_c,63,78,4,1,1,73.0,False
41551,2242, Note_on_c,49,78,4,1,1,57.0,False
41552,2243, Note_on_c,56,78,4,1,1,65.0,False
41553,2243, Note_on_c,61,78,4,1,1,71.0,False
41554,2244, Note_on_c,60,78,4,1,1,70.0,True
41555,2244, Note_on_c,63,78,4,1,1,73.0,False
41556,2245, Note_on_c,56,78,4,1,1,65.0,False
41557,2245, Note_on_c,61,78,4,1,1,71.0,False
41558,2246, Note_on_c,60,78,4,1,1,70.0,True
41559,2246, Note_on_c,65,78,4,1,1,76.0,True
41560,2247, Note_on_c,49,78,4,1,1,57.0,False
41561,2248, Note_on_c,56,78,4,1,1,65.0,False
41562,2248, Note_on_c,61,78,4,1,1,71.0,False
41563,2249, Note_on_c,60,78,4,1,1,70.0,True
41564,2249, Note_on_c,63,78,4,1,1,73.0,False
41565,2250, Note_on_c,49,78,4,1,1,57.0,False
41566,2251, Note_on_c,56,78,4,1,1,65.0,False
41567,2251, Note_on_c,61,78,4,1,1,71.0,False
41568,2252, Note_on_c,60,78,4,1,1,70.0,True
41569,2252, Note_on_c,63,78,4,1,1,73.0,False
41570,2253, Note_on_c,56,78,4,1,1,65.0,False
41571,2253, Note_on_c,61,78,4,1,1,71.0,False
41572,2254, Note_on_c,60,78,4,1,1,70.0,True
41573,2254, Note_on_c,65,78,4,1,1,76.0,True
41574,2255, Note_on_c,49,78,4,1,1,57.0,False
41575,2256, Note_on_c,56,78,4,1,1,65.0,False
41576,2256, Note_on_c,61,78,4,1,1,71.0,False
41577,2257, Note_on_c,60,78,4,1,1,70.0,True
41578,2257, Note_on_c,63,78,4,1,1,73.0,False
41579,2258, Note_on_c,49,78,4,1,1,57.0,False
41580,2259, Note_on_c,56,78,4,1,1,65.0,False
41581,2259, Note_on_c,61,78,4,1,1,71.0,False
41582,2260, Note_on_c,60,78,4,1,1,70.0,True
41583,2260, Note_on_c,63,78,4,1,1,73.0,False
41584,2261, Note_on_c,56,78,4,1,1,65.0,False
41585,2261, Note_on_c,61,78,4,1,1,71.0,False
41586,2262, Note_on_c,60,78,4,1,1,70.0,True
41587,2262, Note_on_c,65,78,4,1,1,76.0,True
41588,2263, Note_on_c,49,78,4,1,1,57.0,False
41589,2264, Note_on_c,56,78,4,1,1,65.0,False
41590,2264, Note_on_c,61,78,4,1,1,71.0,False
41591,2265, Note_on_c,60,78,4,1,1,70.0,True
41592,2265, Note_on_c,63,78,4,1,1,73.0,False
41593,2266, Note_on_c,49,78,4,1,1,57.0,False
41594,2267, Note_on_c,56,78,4,1,1,65.0,False
41595,2267, Note_on_c,61,78,4,1,1,71.0,False
41596,2268, Note_on_c,60,78,4,1,1,70.0,True
41597,2268, Note_on_c,63,78,4,1,1,73.0,False
41598,2269, Note_on_c,56,78,4,1,1,65.0,False
41599,2269, Note_on_c,61,78,4,1,1,71.0,False
41600,2270, Note_on_c,60,78,4,1,1,70.0,True
41601,2270, Note_on_c,65,78,4,1,1,76.0,True
41602,2271, Note_on_c,49,78,4,1,1,57.0,False
41603,2272, Note_on_c,56,78,4,1,1,65.0,False
41604,2272, Note_on_c,61,78,4,1,1,71.0,False
41605,2273, Note_on_c,60,78,4,1,1,70.0,True
41606,2273, Note_on_c,63,78,4,1,1,73.0,False
41607,2274, Note_on_c,49,78,4,1,1,57.0,False
41608,2275, Note_on_c,56,78,4,1,1,65.0,False
41609,2275, Note_on_c,61,78,4,1,1,71.0,False
41610,2276, Note_on_c,60,78,4,1,1,70.0,True
41611,2276, Note_on_c,63,78,4,1,1,73.0,False
41612,2277, Note_on_c,56,78,4,1,1,65.0,False
41613,2277, Note_on_c,61,78,4,1,1,71.0,False
41614,2278, Note_on_c,60,78,4,1,1,70.0,True
41615,2278, Note_on_c,65,78,4,1,1,76.0,True
41616,2279, Note_on_c,49,78,4,1,1,57.0,False
41617,2280, Note_on_c,56,78,4,1,1,65.0,False
41618,2280, Note_on_c,61,78,4,1,1,71.0,False
41619,2281, Note_on_c,60,78,4,1,1,70.0,True
41620,2281, Note_on_c,63,78,4,1,1,73.0,False
41621,2282, Note_on_c,49,78,4,1,1,57.0,False
41622,2283, Note_on_c,56,78,4,1,1,65.0,False
41623,2283, Note_on_c,61,78,4,1,1,71.0,False
41624,2284, Note_on_c,60,78,4,1,1,70.0,True
41625,2284, Note_on_c,63,78,4,1,1,73.0,False
41626,2285, Note_on_c,56,78,4,1,1,65.0,False
41627,2285, Note_on_c,61,78,4,1,1,71.0,False
41628,2286, Note_on_c,60,78,4,1,1,70.0,True
41629,2286, Note_on_c,65,78,4,1,1,76.0,True
41630,2287, Note_on_c,49,78,4,1,1,57.0,False
41631,2288, Note_on_c,56,78,4,1,1,65.0,False
41632,2288, Note_on_c,61,78,4,1,1,71.0,False
41633,2289, Note_on_c,60,78,4,1,1,70.0,True
41634,2289, Note_on_c,63,78,4,1,1,73.0,False
41635,2290, Note_on_c,49,78,4,1,1,57.0,False
41636,2291, Note_on_c,56,78,4,1,1,65.0,False
41637,2291, Note_on_c,61,78,4,1,1,71.0,False
41638,2292, Note_on_c,60,78,4,1,1,70.0,True
41639,2292, Note_on_c,63,78,4,1,1,73.0,False
41640,2293, Note_on_c,56,78,4,1,1,65.0,False
41641,2293, Note_on_c,61,78,4,1,1,71.0,False
41642,2294, Note_on_c,60,78,4,1,1,70.0,True
41643,2294, Note_on_c,65,78,4,1,1,76.0,True
41644,2295, Note_on_c,49,78,4,1,1,57.0,False
41645,2296, Note_on_c,56,78,4,1,1,65.0,False
41646,2296, Note_on_c,61,78,4,1,1,71.0,False
41647,2297, Note_on_c,60,78,4,1,1,70.0,True
41648,2297, Note_on_c,63,78,4,1,1,73.0,False
41649,2298, Note_on_c,49,78,4,1,1,57.0,False
41650,2299, Note_on_c,56,78,4,1,1,65.0,False
41651,2299, Note_on_c,61,78,4,1,1,71.0,False
41652,2300, Note_on_c,60,78,4,1,1,70.0,True
41653,2300, Note_on_c,63,78,4,1,1,73.0,False
41654,2301, Note_on_c,56,78,4,1,1,65.0,False
41655,2301, Note_on_c,61,78,4,1,1,71.0,False
41656,2302, Note_on_c,60,78,4,1,1,70.0,True
41657,2302, Note_on_c,65,78,4,1,1,76.0,True
41658,2303, Note_on_c,49,78,4,1,1,57.0,False
41659,2304, Note_on_c,56,78,4,1,1,65.0,False
41660,2304, Note_on_c,61,78,4,1,1,71.0,False
41661,2305, Note_on_c,60,78,4,1,1,70.0,True
41662,2305, Note_on_c,63,78,4,1,1,73.0,False
41663,2306, Note_on_c,49,78,4,1,1,57.0,False
41664,2307, Note_on_c,56,78,4,1,1,65.0,False
41665,2307, Note_on_c,61,78,4,1,1,71.0,False
41666,2308, Note_on_c,60,78,4,1,1,70.0,True
41667,2308, Note_on_c,63,78,4,1,1,73.0,False
41668,2309, Note_on_c,56,78,4,1,1,65.0,False
41669,2309, Note_on_c,61,78,4,1,1,71.0,False
41670,2310, Note_on_c,60,78,4,1,1,70.0,True
41671,2310, Note_on_c,65,78,4,1,1,76.0,True
41672,2311, Note_on_c,49,78,4,1,1,57.0,False
41673,2312, Note_on_c,56,78,4,1,1,65.0,False
41674,2312, Note_on_c,61,78,4,1,1,71.0,False
41675,2313, Note_on_c,60,78,4,1,1,70.0,True
41676,2313, Note_on_c,63,78,4,1,1,73.0,False
41677,2314, Note_on_c,49,78,4,1,1,57.0,False
41678,2315, Note_on_c,56,78,4,1,1,65.0,False
41679,2315, Note_on_c,61,78,4,1,1,71.0,False
41680,2316, Note_on_c,60,78,4,1,1,70.0,True
41681,2316, Note_on_c,63,78,4,1,1,73.0,False
41682,2317, Note_on_c,56,78,4,1,1,65.0,False
41683,2317, Note_on_c,61,78,4,1,1,71.0,False
41684,2318, Note_on_c,60,78,4,1,1,70.0,True
41685,2318, Note_on_c,65,78,4,1,1,76.0,True
41686,2319, Note_on_c,49,78,4,1,1,57.0,False
41687,2320, Note_on_c,56,78,4,1,1,65.0,False
41688,2320, Note_on_c,61,78,4,1,1,71.0,False
41689,2321, Note_on_c,60,78,4,1,1,70.0,True
41690,2321, Note_on_c,63,78,4,1,1,73.0,False
41691,2322, Note_on_c,49,78,4,1,1,57.0,False
41692,2323, Note_on_c,56,78,4,1,1,65.0,False
41693,2323, Note_on_c,61,78,4,1,1,71.0,False
41694,2324, Note_on_c,60,78,4,1,1,70.0,True
41695,2324, Note_on_c,63,78,4,1,1,73.0,False
41696,2325, Note_on_c,56,78,4,1,1,65.0,False
41697,2325, Note_on_c,61,78,4,1,1,71.0,False
41698,2326, Note_on_c,60,78,4,1,1,70.0,True
41699,2326, Note_on_c,65,78,4,1,1,76.0,True
41700,2327, Note_on_c,49,78,4,1,1,57.0,False
41701,2328, Note_on_c,56,78,4,1,1,65.0,False
41702,2328, Note_on_c,61,78,4,1,1,71.0,False
41703,2329, Note_on_c,60,78,4,1,1,70.0,True
41704,2329, Note_on_c,63,78,4,1,1,73.0,False
41705,2330, Note_on_c,49,78,4,1,1,57.0,False
41706,2331, Note_on_c,56,78,4,1,1,65.0,False
41707,2331, Note_on_c,61,78,4,1,1,71.0,False
41708,2332, Note_on_c,60,78,4,1,1,70.0,True
41709,2332, Note_on_c,63,78,4,1,1,73.0,False
41710,2333, Note_on_c,56,78,4,1,1,65.0,False
41711,2333, Note_on_c,61,78,4,1,1,71.0,False
41712,2334, Note_on_c,60,78,4,1,1,70.0,True
41713,2334, Note_on_c,65,78,4,1,1,76.0,True
41714,2335, Note_on_c,49,78,4,1,1,57.0,False
41715,2336, Note_on_c,56,78,4,1,1,65.0,False
41716,2336, Note_on_c,61,78,4,1,1,71.0,False
41717,2337, Note_on_c,60,78,4,1,1,70.0,True
41718,2337, Note_on_c,63,78,4,1,1,73.0,False
41719,2338, Note_on_c,49,78,4,1,1,57.0,False
41720,2339, Note_on_c,56,78,4,1,1,65.0,False
41721,2339, Note_on_c,61,78,4,1,1,71.0,False
41722,2340, Note_on_c,60,78,4,1,1,70.0,True
41723,2340, Note_on_c,63,78,4,1,1,73.0,False
41724,2341, Note_on_c,56,78,4,1,1,65.0,False
41725,2341, Note_on_c,61,78,4,1,1,71.0,False
41726,2342, Note_on_c,60,78,4,1,1,70.0,True
41727,2342, Note_on_c,65,78,4,1,1,76.0,True
41728,2343, Note_on_c,49,78,4,1,1,57.0,False
41729,2344, Note_on_c,56,78,4,1,1,65.0,False
41730,2344, Note_on_c,61,78,4,1,1,71.0,False
41731,2345, Note_on_c,60,78,4,1,1,70.0,True
41732,2345, Note_on_c,63,78,4,1,1,73.0,False
41733,2346, Note_on_c,49,78,4,1,1,57.0,False
41734,2347, Note_on_c,56,78,4,1,1,65.0,False
41735,2347, Note_on_c,61,78,4,1,1,71.0,False
41736,2348, Note_on_c,60,78,4,1,1,70.0,True
41737,2348, Note_on_c,63,78,4,1,1,73.0,False
41738,2349, Note_on_c,56,78,4,1,1,65.0,False
41739,2349, Note_on_c,61,78,4,1,1,71.0,False
41740,2350, Note_on_c,60,78,4,1,1,70.0,True
41741,2350, Note_on_c,65,78,4,1,1,76.0,True
41742,2351, Note_on_c,49,78,4,1,1,57.0,False
41743,2352, Note_on_c,56,78,4,1,1,65.0,False
41744,2352, Note_on_c,61,78,4,1,1,71.0,False
41745,2353, Note_on_c,60,78,4,1,1,70.0,True
41746,2353, Note_on_c,63,78,4,1,1,73.0,False
41747,2354, Note_on_c,49,78,4,1,1,57.0,False
41748,2355, Note_on_c,56,78,4,1,1,65.0,False
41749,2355, Note_on_c,61,78,4,1,1,71.0,False
41750,2356, Note_on_c,60,78,4,1,1,70.0,True
41751,2356, Note_on_c,63,78,4,1,1,73.0,False
41752,2357, Note_on_c,56,78,4,1,1,65.0,False
41753,2357, Note_on_c,61,78,4,1,1,71.0,False
41754,2358, Note_on_c,60,78,4,1,1,70.0,True
41755,2358, Note_on_c,65,78,4,1,1,76.0,True
41756,2359, Note_on_c,49,78,4,1,1,57.0,False
41757,2360, Note_on_c,56,78,4,1,1,65.0,False
41758,2360, Note_on_c,61,78,4,1,1,71.0,False
41759,2361, Note_on_c,60,78,4,1,1,70.0,True
41760,2361, Note_on_c,63,78,4,1,1,73.0,False
41761,2362, Note_on_c,49,78,4,1,1,57.0,False
41762,2363, Note_on_c,56,78,4,1,1,65.0,False
41763,2363, Note_on_c,61,78,4,1,1,71.0,False
41764,2364, Note_on_c,60,78,4,1,1,70.0,True
41765,2364, Note_on_c,63,78,4,1,1,73.0,False
41766,2365, Note_on_c,56,78,4,1,1,65.0,False
41767,2365, Note_on_c,61,78,4,1,1,71.0,False
41768,2366, Note_on_c,60,78,4,1,1,70.0,True
41769,2366, Note_on_c,65,78,4,1,1,76.0,True
41770,2367, Note_on_c,49,78,4,1,1,57.0,False
41771,2368, Note_on_c,56,78,4,1,1,65.0,False
41772,2368, Note_on_c,61,78,4,1,1,71.0,False
41773,2369, Note_on_c,60,78,4,1,1,70.0,True
41774,2369, Note_on_c,63,78,4,1,1,73.0,False
41775,2370, Note_on_c,49,78,4,1,1,57.0,False
41776,2371, Note_on_c,56,78,4,1,1,65.0,False
41777,2371, Note_on_c,61,78,4,1,1,71.0,False
41778,2372, Note_on_c,60,78,4,1,1,70.0,True
41779,2372, Note_on_c,63,78,4,1,1,73.0,False
41780,2373, Note_on_c,56,78,4,1,1,65.0,False
41781,2373, Note_on_c,61,78,4,1,1,71.0,False
41782,2374, Note_on_c,60,78,4,1,1,70.0,True
41783,2374, Note_on_c,65,78,4,1,1,76.0,True
41784,2375, Note_on_c,49,78,4,1,1,57.0,False
41785,2376, Note_on_c,56,78,4,1,1,65.0,False
41786,2376, Note_on_c,61,78,4,1,1,71.0,False
41787,2377, Note_on_c,60,78,4,1,1,70.0,True
41788,2377, Note_on_c,63,78,4,1,1,73.0,False
41789,2378, Note_on_c,49,78,4,1,1,57.0,False
41790,2379, Note_on_c,56,78,4,1,1,65.0,False
41791,2379, Note_on_c,61,78,4,1,1,71.0,False
41792,2380, Note_on_c,60,78,4,1,1,70.0,True
41793,2380, Note_on_c,63,78,4,1,1,73.0,False
41794,2381, Note_on_c,56,78,4,1,1,65.0,False
41795,2381, Note_on_c,61,78,4,1,1,71.0,False
41796,2382, Note_on_c,60,78,4,1,1,70.0,True
41797,2382, Note_on_c,65,78,4,1,1,76.0,True
41798,2383, Note_on_c,49,78,4,1,1,57.0,False
41799,2384, Note_on_c,56,78,4,1,1,65.0,False
41800,2384, Note_on_c,61,78,4,1,1,71.0,False
41801,2385, Note_on_c,60,78,4,1,1,70.0,True
41802,2385, Note_on_c,63,78,4,1,1,73.0,False
41803,2386, Note_on_c,49,78,4,1,1,57.0,False
41804,2387, Note_on_c,56,78,4,1,1,65.0,False
41805,2387, Note_on_c,61,78,4,1,1,71.0,False
41806,2388, Note_on_c,60,78,4,1,1,70.0,True
41807,2388, Note_on_c,63,78,4,1,1,73.0,False
41808,2389, Note_on_c,56,78,4,1,1,65.0,False
41809,2389, Note_on_c,61,78,4,1,1,71.0,False
41810,2390, Note_on_c,60,78,4,1,1,70.0,True
41811,2390, Note_on_c,65,78,4,1,1,76.0,True
41812,2391, Note_on_c,49,78,4,1,1,57.0,False
41813,2392, Note_on_c,56,78,4,1,1,65.0,False
41814,2392, Note_on_c,61,78,4,1,1,71.0,False
41815,2393, Note_on_c,60,78,4,1,1,70.0,True
41816,2393, Note_on_c,63,78,4,1,1,73.0,False
41817,2394, Note_on_c,49,78,4,1,1,57.0,False
41818,2395, Note_on_c,56,78,4,1,1,65.0,False
41819,2395, Note_on_c,61,78,4,1,1,71.0,False
41820,2396, Note_on_c,60,78,4,1,1,70.0,True
41821,2396, Note_on_c,63,78,4,1,1,73.0,False
41822,2397, Note_on_c,56,78,4,1,1,65.0,False
41823,2397, Note_on_c,61,78,4,1,1,71.0,False
41824,2398, Note_on_c,60,78,4,1,1,70.0,True
41825,2398, Note_on_c,65,78,4,1,1,76.0,True
41826,2399, Note_on_c,49,78,4,1,1,57.0,False
41827,2400, Note_on_c,56,78,4,1,1,65.0,False
41828,2400, Note_on_c,61,78,4,1,1,71.0,False
41829,2401, Note_on_c,60,78,4,1,1,70.0,True
41830,2401, Note_on_c,63,78,4,1,1,73.0,False
41831,2402, Note_on_c,49,78,4,1,1,57.0,False
41832,2403, Note_on_c,56,78,4,1,1,65.0,False
41833,2403, Note_on_c,61,78,4,1,1,71.0,False
41834,2404, Note_on_c,60,78,4,1,1,70.0,True
41835,2404, Note_on_c,63,78,4,1,1,73.0,False
41836,2405, Note_on_c,56,78,4,1,1,65.0,False
41837,2405, Note_on_c,61,78,4,1,1,71.0,False
41838,2406, Note_on_c,60,78,4,1,1,70.0,True
41839,2406, Note_on_c,65,78,4,1,1,76.0,True
41840,2407, Note_on_c,49,78,4,1,1,57.0,False
41841,2408, Note_on_c,56,78,4,1,1,65.0,False
41842,2408, Note_on_c,61,78,4,1,1,71.0,False
41843,2409, Note_on_c,60,78,4,1,1,70.0,True
41844,2409, Note_on_c,63,78,4,1,1,73.0,False
41845,2410, Note_on_c,49,78,4,1,1,57.0,False
41846,2411, Note_on_c,56,78,4,1,1,65.0,False
41847,2411, Note_on_c,61,78,4,1,1,71.0,False
41848,2412, Note_on_c,60,78,4,1,1,70.0,True
41849,2412, Note_on_c,63,78,4,1,1,73.0,False
41850,2413, Note_on_c,56,78,4,1,1,65.0,False
41851,2413, Note_on_c,61,78,4,1,1,71.0,False
41852,2414, Note_on_c,60,78,4,1,1,70.0,True
41853,2414, Note_on_c,65,78,4,1,1,76.0,True
41854,2415, Note_on_c,49,78,4,1,1,57.0,False
41855,2416, Note_on_c,56,78,4,1,1,65.0,False
41856,2416, Note_on_c,61,78,4,1,1,71.0,False
41857,2417, Note_on_c,60,78,4,1,1,70.0,True
41858,2417, Note_on_c,63,78,4,1,1,73.0,False
41859,2418, Note_on_c,49,78,4,1,1,57.0,False
41860,2419, Note_on_c,56,78,4,1,1,65.0,False
41861,2419, Note_on_c,61,78,4,1,1,71.0,False
41862,2420, Note_on_c,60,78,4,1,1,70.0,True
41863,2420, Note_on_c,63,78,4,1,1,73.0,False
41864,2421, Note_on_c,56,78,4,1,1,65.0,False
41865,2421, Note_on_c,61,78,4,1,1,71.0,False
41866,2422, Note_on_c,60,78,4,1,1,70.0,True
41867,2422, Note_on_c,65,78,4,1,1,76.0,True
41868,2423, Note_on_c,49,78,4,1,1,57.0,False
41869,2424, Note_on_c,56,78,4,1,1,65.0,False
41870,2424, Note_on_c,61,78,4,1,1,71.0,False
41871,2425, Note_on_c,60,78,4,1,1,70.0,True
41872,2425, Note_on_c,63,78,4,1,1,73.0,False
41873,2426, Note_on_c,49,78,4,1,1,57.0,False
41874,2427, Note_on_c,56,78,4,1,1,65.0,False
41875,2427, Note_on_c,61,78,4,1,1,71.0,False
41876,2428, Note_on_c,60,78,4,1,1,70.0,True
41877,2428, Note_on_c,63,78,4,1,1,73.0,False
41878,2429, Note_on_c,56,78,4,1,1,65.0,False
41879,2429, Note_on_c,61,78,4,1,1,71.0,False
41880,2430, Note_on_c,60,78,4,1,1,70.0,True
41881,2430, Note_on_c,65,78,4,1,1,76.0,True
41882,2431, Note_on_c,49,78,4,1,1,57.0,False
41883,2432, Note_on_c,56,78,4,1,1,65.0,False
41884,2432, Note_on_c,61,78,4,1,1,71.0,False
41885,2433, Note_on_c,60,78,4,1,1,70.0,True
41886,2433, Note_on_c,63,78,4,1,1,73.0,False
41887,2434, Note_on_c,49,78,4,1,1,57.0,False
41888,2435, Note_on_c,56,78,4,1,1,65.0,False
41889,2435, Note_on_c,61,78,4,1,1,71.0,False
41890,2436, Note_on_c,60,78,4,1,1,70.0,True
41891,2436, Note_on_c,63,78,4,1,1,73.0,False
41892,2437, Note_on_c,56,78,4,1,1,65.0,False
41893,2437, Note_on_c,61,78,4,1,1,71.0,False
41894,2438, Note_on_c,60,78,4,1,1,70.0,True
41895,2438, Note_on_c,65,78,4,1,1,76.0,True
41896,2439, Note_on_c,49,78,4,1,1,57.0,False
41897,2440, Note_on_c,56,78,4,1,1,65.0,False
41898,2440, Note_on_c,61,78,4,1,1,71.0,False
41899,2441, Note_on_c,60,78,4,1,1,70.0,True
41900,2441, Note_on_c,63,78,4,1,1,73.0,False
41901,2442, Note_on_c,49,78,4,1,1,57.0,False
41902,2443, Note_on_c,56,78,4,1,1,65.0,False
41903,2443, Note_on_c,61,78,4,1,1,71.0,False
41904,2444, Note_on_c,60,78,4,1,1,70.0,True
41905,2444, Note_on_c,63,78,4,1,1,73.0,False
41906,2445, Note_on_c,56,78,4,1,1,65.0,False
41907,2445, Note_on_c,61,78,4,1,1,71.0,False
41908,2446, Note_on_c,60,78,4,1,1,70.0,True
41909,2446, Note_on_c,65,78,4,1,1,76.0,True
41910,2447, Note_on_c,49,78,4,1,1,57.0,False
41911,2448, Note_on_c,56,78,4,1,1,65.0,False
41912,2448, Note_on_c,61,78,4,1,1,71.0,False
41913,2449, Note_on_c,60,78,4,1,1,70.0,True
41914,2449, Note_on_c,63,78,4,1,1,73.0,False
41915,2450, Note_on_c,49,78,4,1,1,57.0,False
41916,2451, Note_on_c,56,78,4,1,1,65.0,False
41917,2451, Note_on_c,61,78,4,1,1,71.0,False
41918,2452, Note_on_c,60,78,4,1,1,70.0,True
41919,2452, Note_on_c,63,78,4,1,1,73.0,False
41920,2453, Note_on_c,56,78,4,1,1,65.0,False
41921,2453, Note_on_c,61,78,4,1,1,71.0,False
41922,2454, Note_on_c,60,78,4,1,1,70.0,True
41923,2454, Note_on_c,65,78,4,1,1,76.0,True
41924,2455, Note_on_c,49,78,4,1,1,57.0,False
41925,2456, Note_on_c,56,78,4,1,1,65.0,False
41926,2456, Note_on_c,61,78,4,1,1,71.0,False
41927,2457, Note_on_c,60,78,4,1,1,70.0,True
41928,2457, Note_on_c,63,78,4,1,1,73.0,False
41929,2458, Note_on_c,49,78,4,1,1,57.0,False
41930,2459, Note_on_c,56,78,4,1,1,65.0,False
41931,2459, Note_on_c,61,78,4,1,1,71.0,False
41932,2460, Note_on_c,60,78,4,1,1,70.0,True
41933,2460, Note_on_c,63,78,4,1,1,73.0,False
41934,2461, Note_on_c,56,78,4,1,1,65.0,False
41935,2461, Note_on_c,61,78,4,1,1,71.0,False
41936,2462, Note_on_c,60,78,4,1,1,70.0,True
41937,2462, Note_on_c,65,78,4,1,1,76.0,True
41938,2463, Note_on_c,49,78,4,1,1,57.0,False
41939,2464, Note_on_c,56,78,4,1,1,65.0,False
41940,2464, Note_on_c,61,78,4,1,1,71.0,False
41941,2465, Note_on_c,60,78,4,1,1,70.0,True
41942,2465, Note_on_c,63,78,4,1,1,73.0,False
41943,2466, Note_on_c,49,78,4,1,1,57.0,False
41944,2467, Note_on_c,56,78,4,1,1,65.0,False
41945,2467, Note_on_c,61,78,4,1,1,71.0,False
41946,2468, Note_on_c,60,78,4,1,1,70.0,True
41947,2468, Note_on_c,63,78,4,1,1,73.0,False
41948,2469, Note_on_c,56,78,4,1,1,65.0,False
41949,2469, Note_on_c,61,78,4,1,1,71.0,False
41950,2470, Note_on_c,60,78,4,1,1,70.0,True
41951,2470, Note_on_c,65,78,4,1,1,76.0,True
41952,2471, Note_on_c,49,78,4,1,1,57.0,False
41953,2472, Note_on_c,56,78,4,1,1,65.0,False
41954,2472, Note_on_c,61,78,4,1,1,71.0,False
41955,2473, Note_on_c,60,78,4,1,1,70.0,True
41956,2473, Note_on_c,63,78,4,1,1,73.0,False
41957,2474, Note_on_c,49,76,4,1,1,57.0,False
41958,2475, Note_on_c,56,74,4,1,1,65.0,False
41959,2475, Note_on_c,61,74,4,1,1,71.0,False
41960,2476, Note_on_c,60,72,4,1,1,70.0,True
41961,2476, Note_on_c,63,72,4,1,1,73.0,False
41962,2477, Note_on_c,56,70,4,1,1,65.0,False
41963,2477, Note_on_c,61,70,4,1,1,71.0,False
41964,2478, Note_on_c,60,68,4,1,1,70.0,True
41965,2478, Note_on_c,65,68,4,1,1,76.0,True
41966,2479, Note_on_c,49,66,4,1,1,57.0,False
41967,2480, Note_on_c,56,65,4,1,1,65.0,False
41968,2480, Note_on_c,61,65,4,1,1,71.0,False
41969,2481, Note_on_c,60,63,4,1,1,70.0,True
41970,2481, Note_on_c,63,63,4,1,1,73.0,False
41971,2482, Note_on_c,49,61,4,1,1,57.0,False
41972,2483, Note_on_c,56,59,4,1,1,65.0,False
41973,2483, Note_on_c,61,59,4,1,1,71.0,False
41974,2484, Note_on_c,60,57,4,1,1,70.0,True
41975,2484, Note_on_c,63,57,4,1,1,73.0,False
41976,2485, Note_on_c,56,55,4,1,1,65.0,False
41977,2485, Note_on_c,61,55,4,1,1,71.0,False
41978,2486, Note_on_c,60,53,4,1,1,70.0,True
41979,2486, Note_on_c,65,53,4,1,1,76.0,True
41980,2487, Note_on_c,49,51,4,1,1,57.0,False
41981,2488, Note_on_c,56,49,4,1,1,65.0,False
41982,2488, Note_on_c,61,49,4,1,1,71.0,False
41983,2489, Note_on_c,60,47,4,1,1,70.0,True
41984,2489, Note_on_c,63,47,4,1,1,73.0,False
41985,2490, Note_on_c,49,45,4,1,1,57.0,False
41986,2491, Note_on_c,56,44,4,1,1,65.0,False
41987,2491, Note_on_c,61,44,4,1,1,71.0,False
41988,2492, Note_on_c,60,42,4,1,1,70.0,True
41989,2492, Note_on_c,63,42,4,1,1,73.0,False
41990,2493, Note_on_c,56,40,4,1,1,65.0,False
41991,2493, Note_on_c,61,40,4,1,1,71.0,False
41992,2494, Note_on_c,60,38,4,1,1,70.0,True
41993,2494, Note_on_c,65,38,4,1,1,76.0,True
41994,2495, Note_on_c,49,36,4,1,1,57.0,False
41995,2496, Note_on_c,56,34,4,1,1,65.0,False
41996,2496, Note_on_c,61,34,4,1,1,71.0,False
41997,2497, Note_on_c,60,32,4,1,1,70.0,True
41998,2497, Note_on_c,63,32,4,1,1,73.0,False
41999,2498, Note_on_c,49,30,4,1,1,57.0,False
42000,2499, Note_on_c,56,28,4,1,1,65.0,False
42001,2499, Note_on_c,61,28,4,1,1,71.0,False
42002,2500, Note_on_c,60,26,4,1,1,70.0,True
42003,2500, Note_on_c,63,26,4,1,1,73.0,False
42004,2501, Note_on_c,56,24,4,1,1,65.0,False
42005,2501, Note_on_c,61,24,4,1,1,71.0,False
42006,2502, Note_on_c,60,23,4,1,1,70.0,True
42007,2502, Note_on_c,65,23,4,1,1,76.0,True
42008,2503, Note_on_c,49,21,4,1,1,57.0,False
42009,2504, Note_on_c,56,19,4,1,1,65.0,False
42010,2504, Note_on_c,61,19,4,1,1,71.0,False
42011,2505, Note_on_c,60,17,4,1,1,70.0,True
42012,2505, Note_on_c,63,17,4,1,1,73.0,False
42013,2506, Note_on_c,49,15,4,1,1,57.0,False
42014,2507, Note_on_c,56,13,4,1,1,65.0,False
42015,2507, Note_on_c,61,13,4,1,1,71.0,False
42016,2508, Note_on_c,60,11,4,1,1,70.0,True
42017,2508, Note_on_c,63,11,4,1,1,73.0,False
42018,2509, Note_on_c,56,9,4,1,1,65.0,False
42019,2509, Note_on_c,61,9,4,1,1,71.0,False
42020,2510, Note_on_c,60,7,4,1,1,70.0,True
42021,2510, Note_on_c,65,7,4,1,1,76.0,True
42022,2511, Note_on_c,49,5,4,1,1,57.0,False
42023,2512, Note_on_c,56,3,4,1,1,65.0,False
42024,2512, Note_on_c,61,3,4,1,1,71.0,False
42025,2701, Note_on_c,63,108,4,2,1,73.0,False
42026,2701, Note_on_c,66,108,4,2,1,77.0,False
42027,2709, Note_on_c,63,108,4,2,1,73.0,False
42028,2709, Note_on_c,66,108,4,2,1,77.0,False
42029,2717, Note_on_c,63,108,4,2,1,73.0,False
42030,2717, Note_on_c,66,108,4,2,1,77.0,False
42031,2725, Note_on_c,63,108,4,2,1,73.0,False
42032,2725, Note_on_c,66,108,4,2,1,77.0,False
42033,2733, Note_on_c,63,108,4,2,1,73.0,False
42034,2733, Note_on_c,66,108,4,2,1,77.0,False
42035,2741, Note_on_c,63,108,4,2,1,73.0,False
42036,2741, Note_on_c,66,108,4,2,1,77.0,False
42037,2749, Note_on_c,63,108,4,2,1,73.0,False
42038,2749, Note_on_c,66,108,4,2,1,77.0,False
42039,2757, Note_on_c,63,108,4,2,1,73.0,False
42040,2757, Note_on_c,66,108,4,2,1,77.0,False
42041,2765, Note_on_c,63,108,4,2,1,73.0,False
42042,2765, Note_on_c,66,108,4,2,1,77.0,False
42043,2766, Note_on_c,65,108,4,2,1,76.0,True
42044,2766, Note_on_c,70,108,4,2,1,81.0,False
42045,2773, Note_on_c,63,108,4,2,1,73.0,False
42046,2773, Note_on_c,66,108,4,2,1,77.0,False
42047,2774, Note_on_c,65,108,4,2,1,76.0,True
42048,2774, Note_on_c,70,108,4,2,1,81.0,False
42049,2781, Note_on_c,63,108,4,2,1,73.0,False
42050,2781, Note_on_c,66,108,4,2,1,77.0,False
42051,2782, Note_on_c,65,108,4,2,1,76.0,True
42052,2782, Note_on_c,70,108,4,2,1,81.0,False
42053,2789, Note_on_c,63,108,4,2,1,73.0,False
42054,2789, Note_on_c,66,108,4,2,1,77.0,False
42055,2790, Note_on_c,65,108,4,2,1,76.0,True
42056,2790, Note_on_c,70,108,4,2,1,81.0,False
42057,2797, Note_on_c,63,108,4,2,1,73.0,False
42058,2797, Note_on_c,66,108,4,2,1,77.0,False
42059,2798, Note_on_c,65,108,4,2,1,76.0,True
42060,2798, Note_on_c,70,108,4,2,1,81.0,False
42061,2805, Note_on_c,63,108,4,2,1,73.0,False
42062,2805, Note_on_c,66,108,4,2,1,77.0,False
42063,2806, Note_on_c,65,108,4,2,1,76.0,True
42064,2806, Note_on_c,70,108,4,2,1,81.0,False
42065,2813, Note_on_c,63,108,4,2,1,73.0,False
42066,2813, Note_on_c,66,108,4,2,1,77.0,False
42067,2814, Note_on_c,65,108,4,2,1,76.0,True
42068,2814, Note_on_c,70,108,4,2,1,81.0,False
42069,2821, Note_on_c,63,108,4,2,1,73.0,False
42070,2821, Note_on_c,66,108,4,2,1,77.0,False
42071,2822, Note_on_c,65,108,4,2,1,76.0,True
42072,2822, Note_on_c,70,108,4,2,1,81.0,False
42073,2829, Note_on_c,63,108,4,2,1,73.0,False
42074,2829, Note_on_c,66,108,4,2,1,77.0,False
42075,2830, Note_on_c,65,108,4,2,1,76.0,True
42076,2830, Note_on_c,70,108,4,2,1,81.0,False
42077,2831, Note_on_c,58,108,4,2,1,67.0,False
42078,2837, Note_on_c,63,108,4,2,1,73.0,False
42079,2837, Note_on_c,66,108,4,2,1,77.0,False
42080,2838, Note_on_c,65,108,4,2,1,76.0,True
42081,2838, Note_on_c,70,108,4,2,1,81.0,False
42082,2839, Note_on_c,58,108,4,2,1,67.0,False
42083,2845, Note_on_c,63,108,4,2,1,73.0,False
42084,2845, Note_on_c,66,108,4,2,1,77.0,False
42085,2846, Note_on_c,65,108,4,2,1,76.0,True
42086,2846, Note_on_c,70,108,4,2,1,81.0,False
42087,2847, Note_on_c,58,108,4,2,1,67.0,False
42088,2853, Note_on_c,63,108,4,2,1,73.0,False
42089,2853, Note_on_c,66,108,4,2,1,77.0,False
42090,2854, Note_on_c,65,108,4,2,1,76.0,True
42091,2854, Note_on_c,70,108,4,2,1,81.0,False
42092,2855, Note_on_c,58,108,4,2,1,67.0,False
42093,2861, Note_on_c,63,108,4,2,1,73.0,False
42094,2861, Note_on_c,66,108,4,2,1,77.0,False
42095,2862, Note_on_c,65,108,4,2,1,76.0,True
42096,2862, Note_on_c,70,108,4,2,1,81.0,False
42097,2863, Note_on_c,58,108,4,2,1,67.0,False
42098,2869, Note_on_c,63,108,4,2,1,73.0,False
42099,2869, Note_on_c,66,108,4,2,1,77.0,False
42100,2870, Note_on_c,65,108,4,2,1,76.0,True
42101,2870, Note_on_c,70,108,4,2,1,81.0,False
42102,2871, Note_on_c,58,108,4,2,1,67.0,False
42103,2877, Note_on_c,63,108,4,2,1,73.0,False
42104,2877, Note_on_c,66,108,4,2,1,77.0,False
42105,2878, Note_on_c,65,108,4,2,1,76.0,True
42106,2878, Note_on_c,70,108,4,2,1,81.0,False
42107,2879, Note_on_c,58,108,4,2,1,67.0,False
42108,2885, Note_on_c,63,108,4,2,1,73.0,False
42109,2885, Note_on_c,66,108,4,2,1,77.0,False
42110,2886, Note_on_c,65,108,4,2,1,76.0,True
42111,2886, Note_on_c,70,108,4,2,1,81.0,False
42112,2887, Note_on_c,58,108,4,2,1,67.0,False
42113,2889, Note_on_c,65,108,4,2,1,76.0,True
42114,2889, Note_on_c,68,108,4,2,1,79.0,False
42115,2893, Note_on_c,63,108,4,2,1,73.0,False
42116,2893, Note_on_c,66,108,4,2,1,77.0,False
42117,2894, Note_on_c,65,108,4,2,1,76.0,True
42118,2894, Note_on_c,70,108,4,2,1,81.0,False
42119,2895, Note_on_c,58,108,4,2,1,67.0,False
42120,2897, Note_on_c,65,108,4,2,1,76.0,True
42121,2897, Note_on_c,68,108,4,2,1,79.0,False
42122,2901, Note_on_c,63,108,4,2,1,73.0,False
42123,2901, Note_on_c,66,108,4,2,1,77.0,False
42124,2902, Note_on_c,65,108,4,2,1,76.0,True
42125,2902, Note_on_c,70,108,4,2,1,81.0,False
42126,2903, Note_on_c,58,108,4,2,1,67.0,False
42127,2905, Note_on_c,65,108,4,2,1,76.0,True
42128,2905, Note_on_c,68,108,4,2,1,79.0,False
42129,2909, Note_on_c,63,108,4,2,1,73.0,False
42130,2909, Note_on_c,66,108,4,2,1,77.0,False
42131,2910, Note_on_c,65,108,4,2,1,76.0,True
42132,2910, Note_on_c,70,108,4,2,1,81.0,False
42133,2911, Note_on_c,58,108,4,2,1,67.0,False
42134,2913, Note_on_c,65,108,4,2,1,76.0,True
42135,2913, Note_on_c,68,108,4,2,1,79.0,False
42136,2917, Note_on_c,63,108,4,2,1,73.0,False
42137,2917, Note_on_c,66,108,4,2,1,77.0,False
42138,2918, Note_on_c,65,108,4,2,1,76.0,True
42139,2918, Note_on_c,70,108,4,2,1,81.0,False
42140,2919, Note_on_c,58,108,4,2,1,67.0,False
42141,2921, Note_on_c,65,108,4,2,1,76.0,True
42142,2921, Note_on_c,68,108,4,2,1,79.0,False
42143,2925, Note_on_c,63,108,4,2,1,73.0,False
42144,2925, Note_on_c,66,108,4,2,1,77.0,False
42145,2926, Note_on_c,65,108,4,2,1,76.0,True
42146,2926, Note_on_c,70,108,4,2,1,81.0,False
42147,2927, Note_on_c,58,108,4,2,1,67.0,False
42148,2929, Note_on_c,65,108,4,2,1,76.0,True
42149,2929, Note_on_c,68,108,4,2,1,79.0,False
42150,2933, Note_on_c,63,108,4,2,1,73.0,False
42151,2933, Note_on_c,66,108,4,2,1,77.0,False
42152,2934, Note_on_c,65,108,4,2,1,76.0,True
42153,2934, Note_on_c,70,108,4,2,1,81.0,False
42154,2935, Note_on_c,58,108,4,2,1,67.0,False
42155,2937, Note_on_c,65,108,4,2,1,76.0,True
42156,2937, Note_on_c,68,108,4,2,1,79.0,False
42157,2941, Note_on_c,63,108,4,2,1,73.0,False
42158,2941, Note_on_c,66,108,4,2,1,77.0,False
42159,2942, Note_on_c,65,108,4,2,1,76.0,True
42160,2942, Note_on_c,70,108,4,2,1,81.0,False
42161,2943, Note_on_c,58,108,4,2,1,67.0,False
42162,2945, Note_on_c,65,108,4,2,1,76.0,True
42163,2945, Note_on_c,68,108,4,2,1,79.0,False
42164,2949, Note_on_c,63,108,4,2,1,73.0,False
42165,2949, Note_on_c,66,108,4,2,1,77.0,False
42166,2950, Note_on_c,65,108,4,2,1,76.0,True
42167,2950, Note_on_c,70,108,4,2,1,81.0,False
42168,2951, Note_on_c,58,108,4,2,1,67.0,False
42169,2953, Note_on_c,65,108,4,2,1,76.0,True
42170,2953, Note_on_c,68,108,4,2,1,79.0,False
42171,2956, Note_on_c,65,108,4,2,1,76.0,True
42172,2956, Note_on_c,68,108,4,2,1,79.0,False
42173,2957, Note_on_c,63,108,4,2,1,73.0,False
42174,2957, Note_on_c,66,108,4,2,1,77.0,False
42175,2958, Note_on_c,65,108,4,2,1,76.0,True
42176,2958, Note_on_c,70,108,4,2,1,81.0,False
42177,2959, Note_on_c,58,108,4,2,1,67.0,False
42178,2961, Note_on_c,65,108,4,2,1,76.0,True
42179,2961, Note_on_c,68,108,4,2,1,79.0,False
42180,2964, Note_on_c,65,108,4,2,1,76.0,True
42181,2964, Note_on_c,68,108,4,2,1,79.0,False
42182,2965, Note_on_c,63,108,4,2,1,73.0,False
42183,2965, Note_on_c,66,108,4,2,1,77.0,False
42184,2966, Note_on_c,65,108,4,2,1,76.0,True
42185,2966, Note_on_c,70,108,4,2,1,81.0,False
42186,2967, Note_on_c,58,108,4,2,1,67.0,False
42187,2969, Note_on_c,65,108,4,2,1,76.0,True
42188,2969, Note_on_c,68,108,4,2,1,79.0,False
42189,2972, Note_on_c,65,108,4,2,1,76.0,True
42190,2972, Note_on_c,68,108,4,2,1,79.0,False
42191,2973, Note_on_c,63,108,4,2,1,73.0,False
42192,2973, Note_on_c,66,108,4,2,1,77.0,False
42193,2974, Note_on_c,65,108,4,2,1,76.0,True
42194,2974, Note_on_c,70,108,4,2,1,81.0,False
42195,2975, Note_on_c,58,108,4,2,1,67.0,False
42196,2977, Note_on_c,65,108,4,2,1,76.0,True
42197,2977, Note_on_c,68,108,4,2,1,79.0,False
42198,2980, Note_on_c,65,108,4,2,1,76.0,True
42199,2980, Note_on_c,68,108,4,2,1,79.0,False
42200,2981, Note_on_c,63,108,4,2,1,73.0,False
42201,2981, Note_on_c,66,108,4,2,1,77.0,False
42202,2982, Note_on_c,65,108,4,2,1,76.0,True
42203,2982, Note_on_c,70,108,4,2,1,81.0,False
42204,2983, Note_on_c,58,108,4,2,1,67.0,False
42205,2985, Note_on_c,65,108,4,2,1,76.0,True
42206,2985, Note_on_c,68,108,4,2,1,79.0,False
42207,2988, Note_on_c,65,108,4,2,1,76.0,True
42208,2988, Note_on_c,68,108,4,2,1,79.0,False
42209,2989, Note_on_c,63,108,4,2,1,73.0,False
42210,2989, Note_on_c,66,108,4,2,1,77.0,False
42211,2990, Note_on_c,65,108,4,2,1,76.0,True
42212,2990, Note_on_c,70,108,4,2,1,81.0,False
42213,2991, Note_on_c,58,108,4,2,1,67.0,False
42214,2993, Note_on_c,65,108,4,2,1,76.0,True
42215,2993, Note_on_c,68,108,4,2,1,79.0,False
42216,2996, Note_on_c,65,108,4,2,1,76.0,True
42217,2996, Note_on_c,68,108,4,2,1,79.0,False
42218,2997, Note_on_c,63,108,4,2,1,73.0,False
42219,2997, Note_on_c,66,108,4,2,1,77.0,False
42220,2998, Note_on_c,65,108,4,2,1,76.0,True
42221,2998, Note_on_c,70,108,4,2,1,81.0,False
42222,2999, Note_on_c,58,108,4,2,1,67.0,False
42223,3001, Note_on_c,65,108,4,2,1,76.0,True
42224,3001, Note_on_c,68,108,4,2,1,79.0,False
42225,3004, Note_on_c,65,108,4,2,1,76.0,True
42226,3004, Note_on_c,68,108,4,2,1,79.0,False
42227,3005, Note_on_c,63,108,4,2,1,73.0,False
42228,3005, Note_on_c,66,108,4,2,1,77.0,False
42229,3006, Note_on_c,65,108,4,2,1,76.0,True
42230,3006, Note_on_c,70,108,4,2,1,81.0,False
42231,3007, Note_on_c,58,108,4,2,1,67.0,False
42232,3009, Note_on_c,65,108,4,2,1,76.0,True
42233,3009, Note_on_c,68,108,4,2,1,79.0,False
42234,3012, Note_on_c,65,108,4,2,1,76.0,True
42235,3012, Note_on_c,68,108,4,2,1,79.0,False
42236,3013, Note_on_c,63,108,4,2,1,73.0,False
42237,3013, Note_on_c,66,108,4,2,1,77.0,False
42238,3014, Note_on_c,65,108,4,2,1,76.0,True
42239,3014, Note_on_c,70,108,4,2,1,81.0,False
42240,3015, Note_on_c,58,108,4,2,1,67.0,False
42241,3017, Note_on_c,65,108,4,2,1,76.0,True
42242,3017, Note_on_c,68,108,4,2,1,79.0,False
42243,3020, Note_on_c,65,108,4,2,1,76.0,True
42244,3020, Note_on_c,68,108,4,2,1,79.0,False
42245,3021, Note_on_c,63,108,4,2,1,73.0,False
42246,3021, Note_on_c,66,108,4,2,1,77.0,False
42247,3022, Note_on_c,65,108,4,2,1,76.0,True
42248,3022, Note_on_c,70,108,4,2,1,81.0,False
42249,3023, Note_on_c,58,108,4,2,1,67.0,False
42250,3024, Note_on_c,63,108,4,2,1,73.0,False
42251,3024, Note_on_c,66,108,4,2,1,77.0,False
42252,3025, Note_on_c,65,108,4,2,1,76.0,True
42253,3025, Note_on_c,68,108,4,2,1,79.0,False
42254,3028, Note_on_c,65,108,4,2,1,76.0,True
42255,3028, Note_on_c,68,108,4,2,1,79.0,False
42256,3029, Note_on_c,63,108,4,2,1,73.0,False
42257,3029, Note_on_c,66,108,4,2,1,77.0,False
42258,3030, Note_on_c,65,108,4,2,1,76.0,True
42259,3030, Note_on_c,70,108,4,2,1,81.0,False
42260,3031, Note_on_c,58,108,4,2,1,67.0,False
42261,3032, Note_on_c,63,108,4,2,1,73.0,False
42262,3032, Note_on_c,66,108,4,2,1,77.0,False
42263,3033, Note_on_c,65,108,4,2,1,76.0,True
42264,3033, Note_on_c,68,108,4,2,1,79.0,False
42265,3036, Note_on_c,65,108,4,2,1,76.0,True
42266,3036, Note_on_c,68,108,4,2,1,79.0,False
42267,3037, Note_on_c,63,108,4,2,1,73.0,False
42268,3037, Note_on_c,66,108,4,2,1,77.0,False
42269,3038, Note_on_c,65,108,4,2,1,76.0,True
42270,3038, Note_on_c,70,108,4,2,1,81.0,False
42271,3039, Note_on_c,58,108,4,2,1,67.0,False
42272,3040, Note_on_c,63,108,4,2,1,73.0,False
42273,3040, Note_on_c,66,108,4,2,1,77.0,False
42274,3041, Note_on_c,65,108,4,2,1,76.0,True
42275,3041, Note_on_c,68,108,4,2,1,79.0,False
42276,3044, Note_on_c,65,108,4,2,1,76.0,True
42277,3044, Note_on_c,68,108,4,2,1,79.0,False
42278,3045, Note_on_c,63,108,4,2,1,73.0,False
42279,3045, Note_on_c,66,108,4,2,1,77.0,False
42280,3046, Note_on_c,65,108,4,2,1,76.0,True
42281,3046, Note_on_c,70,108,4,2,1,81.0,False
42282,3047, Note_on_c,58,108,4,2,1,67.0,False
42283,3048, Note_on_c,63,108,4,2,1,73.0,False
42284,3048, Note_on_c,66,108,4,2,1,77.0,False
42285,3049, Note_on_c,65,108,4,2,1,76.0,True
42286,3049, Note_on_c,68,108,4,2,1,79.0,False
42287,3052, Note_on_c,65,108,4,2,1,76.0,True
42288,3052, Note_on_c,68,108,4,2,1,79.0,False
42289,3053, Note_on_c,63,108,4,2,1,73.0,False
42290,3053, Note_on_c,66,108,4,2,1,77.0,False
42291,3054, Note_on_c,65,108,4,2,1,76.0,True
42292,3054, Note_on_c,70,108,4,2,1,81.0,False
42293,3055, Note_on_c,58,108,4,2,1,67.0,False
42294,3056, Note_on_c,63,108,4,2,1,73.0,False
42295,3056, Note_on_c,66,108,4,2,1,77.0,False
42296,3057, Note_on_c,65,108,4,2,1,76.0,True
42297,3057, Note_on_c,68,108,4,2,1,79.0,False
42298,3060, Note_on_c,65,108,4,2,1,76.0,True
42299,3060, Note_on_c,68,108,4,2,1,79.0,False
42300,3061, Note_on_c,63,108,4,2,1,73.0,False
42301,3061, Note_on_c,66,108,4,2,1,77.0,False
42302,3062, Note_on_c,65,108,4,2,1,76.0,True
42303,3062, Note_on_c,70,108,4,2,1,81.0,False
42304,3063, Note_on_c,58,108,4,2,1,67.0,False
42305,3064, Note_on_c,63,108,4,2,1,73.0,False
42306,3064, Note_on_c,66,108,4,2,1,77.0,False
42307,3065, Note_on_c,65,108,4,2,1,76.0,True
42308,3065, Note_on_c,68,108,4,2,1,79.0,False
42309,3068, Note_on_c,65,108,4,2,1,76.0,True
42310,3068, Note_on_c,68,108,4,2,1,79.0,False
42311,3069, Note_on_c,63,108,4,2,1,73.0,False
42312,3069, Note_on_c,66,108,4,2,1,77.0,False
42313,3070, Note_on_c,65,108,4,2,1,76.0,True
42314,3070, Note_on_c,70,108,4,2,1,81.0,False
42315,3071, Note_on_c,58,108,4,2,1,67.0,False
42316,3072, Note_on_c,63,108,4,2,1,73.0,False
42317,3072, Note_on_c,66,108,4,2,1,77.0,False
42318,3073, Note_on_c,65,108,4,2,1,76.0,True
42319,3073, Note_on_c,68,108,4,2,1,79.0,False
42320,3076, Note_on_c,65,108,4,2,1,76.0,True
42321,3076, Note_on_c,68,108,4,2,1,79.0,False
42322,3077, Note_on_c,63,108,4,2,1,73.0,False
42323,3077, Note_on_c,66,108,4,2,1,77.0,False
42324,3078, Note_on_c,65,108,4,2,1,76.0,True
42325,3078, Note_on_c,70,108,4,2,1,81.0,False
42326,3079, Note_on_c,58,108,4,2,1,67.0,False
42327,3080, Note_on_c,63,108,4,2,1,73.0,False
42328,3080, Note_on_c,66,108,4,2,1,77.0,False
42329,3081, Note_on_c,65,108,4,2,1,76.0,True
42330,3081, Note_on_c,68,108,4,2,1,79.0,False
42331,3083, Note_on_c,63,108,4,2,1,73.0,False
42332,3083, Note_on_c,66,108,4,2,1,77.0,False
42333,3084, Note_on_c,65,108,4,2,1,76.0,True
42334,3084, Note_on_c,68,108,4,2,1,79.0,False
42335,3085, Note_on_c,63,108,4,2,1,73.0,False
42336,3085, Note_on_c,66,108,4,2,1,77.0,False
42337,3086, Note_on_c,65,108,4,2,1,76.0,True
42338,3086, Note_on_c,70,108,4,2,1,81.0,False
42339,3087, Note_on_c,58,108,4,2,1,67.0,False
42340,3088, Note_on_c,63,108,4,2,1,73.0,False
42341,3088, Note_on_c,66,108,4,2,1,77.0,False
42342,3089, Note_on_c,65,108,4,2,1,76.0,True
42343,3089, Note_on_c,68,108,4,2,1,79.0,False
42344,3091, Note_on_c,63,108,4,2,1,73.0,False
42345,3091, Note_on_c,66,108,4,2,1,77.0,False
42346,3092, Note_on_c,65,108,4,2,1,76.0,True
42347,3092, Note_on_c,68,108,4,2,1,79.0,False
42348,3093, Note_on_c,63,108,4,2,1,73.0,False
42349,3093, Note_on_c,66,108,4,2,1,77.0,False
42350,3094, Note_on_c,65,108,4,2,1,76.0,True
42351,3094, Note_on_c,70,108,4,2,1,81.0,False
42352,3095, Note_on_c,58,108,4,2,1,67.0,False
42353,3096, Note_on_c,63,108,4,2,1,73.0,False
42354,3096, Note_on_c,66,108,4,2,1,77.0,False
42355,3097, Note_on_c,65,108,4,2,1,76.0,True
42356,3097, Note_on_c,68,108,4,2,1,79.0,False
42357,3099, Note_on_c,63,108,4,2,1,73.0,False
42358,3099, Note_on_c,66,108,4,2,1,77.0,False
42359,3100, Note_on_c,65,108,4,2,1,76.0,True
42360,3100, Note_on_c,68,108,4,2,1,79.0,False
42361,3101, Note_on_c,63,108,4,2,1,73.0,False
42362,3101, Note_on_c,66,108,4,2,1,77.0,False
42363,3102, Note_on_c,65,108,4,2,1,76.0,True
42364,3102, Note_on_c,70,108,4,2,1,81.0,False
42365,3103, Note_on_c,58,108,4,2,1,67.0,False
42366,3104, Note_on_c,63,108,4,2,1,73.0,False
42367,3104, Note_on_c,66,108,4,2,1,77.0,False
42368,3105, Note_on_c,65,108,4,2,1,76.0,True
42369,3105, Note_on_c,68,108,4,2,1,79.0,False
42370,3107, Note_on_c,63,108,4,2,1,73.0,False
42371,3107, Note_on_c,66,108,4,2,1,77.0,False
42372,3108, Note_on_c,65,108,4,2,1,76.0,True
42373,3108, Note_on_c,68,108,4,2,1,79.0,False
42374,3109, Note_on_c,63,108,4,2,1,73.0,False
42375,3109, Note_on_c,66,108,4,2,1,77.0,False
42376,3110, Note_on_c,65,108,4,2,1,76.0,True
42377,3110, Note_on_c,70,108,4,2,1,81.0,False
42378,3111, Note_on_c,58,108,4,2,1,67.0,False
42379,3112, Note_on_c,63,108,4,2,1,73.0,False
42380,3112, Note_on_c,66,108,4,2,1,77.0,False
42381,3113, Note_on_c,65,108,4,2,1,76.0,True
42382,3113, Note_on_c,68,108,4,2,1,79.0,False
42383,3115, Note_on_c,63,108,4,2,1,73.0,False
42384,3115, Note_on_c,66,108,4,2,1,77.0,False
42385,3116, Note_on_c,65,108,4,2,1,76.0,True
42386,3116, Note_on_c,68,108,4,2,1,79.0,False
42387,3117, Note_on_c,63,108,4,2,1,73.0,False
42388,3117, Note_on_c,66,108,4,2,1,77.0,False
42389,3118, Note_on_c,65,108,4,2,1,76.0,True
42390,3118, Note_on_c,70,108,4,2,1,81.0,False
42391,3119, Note_on_c,58,108,4,2,1,67.0,False
42392,3120, Note_on_c,63,108,4,2,1,73.0,False
42393,3120, Note_on_c,66,108,4,2,1,77.0,False
42394,3121, Note_on_c,65,108,4,2,1,76.0,True
42395,3121, Note_on_c,68,108,4,2,1,79.0,False
42396,3123, Note_on_c,63,108,4,2,1,73.0,False
42397,3123, Note_on_c,66,108,4,2,1,77.0,False
42398,3124, Note_on_c,65,108,4,2,1,76.0,True
42399,3124, Note_on_c,68,108,4,2,1,79.0,False
42400,3125, Note_on_c,63,108,4,2,1,73.0,False
42401,3125, Note_on_c,66,108,4,2,1,77.0,False
42402,3126, Note_on_c,65,108,4,2,1,76.0,True
42403,3126, Note_on_c,70,108,4,2,1,81.0,False
42404,3127, Note_on_c,58,108,4,2,1,67.0,False
42405,3128, Note_on_c,63,108,4,2,1,73.0,False
42406,3128, Note_on_c,66,108,4,2,1,77.0,False
42407,3129, Note_on_c,65,108,4,2,1,76.0,True
42408,3129, Note_on_c,68,108,4,2,1,79.0,False
42409,3131, Note_on_c,63,108,4,2,1,73.0,False
42410,3131, Note_on_c,66,108,4,2,1,77.0,False
42411,3132, Note_on_c,65,108,4,2,1,76.0,True
42412,3132, Note_on_c,68,108,4,2,1,79.0,False
42413,3133, Note_on_c,63,108,4,2,1,73.0,False
42414,3133, Note_on_c,66,108,4,2,1,77.0,False
42415,3134, Note_on_c,65,108,4,2,1,76.0,True
42416,3134, Note_on_c,70,108,4,2,1,81.0,False
42417,3135, Note_on_c,58,108,4,2,1,67.0,False
42418,3136, Note_on_c,63,108,4,2,1,73.0,False
42419,3136, Note_on_c,66,108,4,2,1,77.0,False
42420,3137, Note_on_c,65,108,4,2,1,76.0,True
42421,3137, Note_on_c,68,108,4,2,1,79.0,False
42422,3139, Note_on_c,63,108,4,2,1,73.0,False
42423,3139, Note_on_c,66,108,4,2,1,77.0,False
42424,3140, Note_on_c,65,108,4,2,1,76.0,True
42425,3140, Note_on_c,68,108,4,2,1,79.0,False
42426,3141, Note_on_c,63,108,4,2,1,73.0,False
42427,3141, Note_on_c,66,108,4,2,1,77.0,False
42428,3142, Note_on_c,65,108,4,2,1,76.0,True
42429,3142, Note_on_c,70,108,4,2,1,81.0,False
42430,3143, Note_on_c,58,108,4,2,1,67.0,False
42431,3144, Note_on_c,63,108,4,2,1,73.0,False
42432,3144, Note_on_c,66,108,4,2,1,77.0,False
42433,3145, Note_on_c,65,108,4,2,1,76.0,True
42434,3145, Note_on_c,68,108,4,2,1,79.0,False
42435,3146, Note_on_c,58,108,4,2,1,67.0,False
42436,3147, Note_on_c,63,108,4,2,1,73.0,False
42437,3147, Note_on_c,66,108,4,2,1,77.0,False
42438,3148, Note_on_c,65,108,4,2,1,76.0,True
42439,3148, Note_on_c,68,108,4,2,1,79.0,False
42440,3149, Note_on_c,63,108,4,2,1,73.0,False
42441,3149, Note_on_c,66,108,4,2,1,77.0,False
42442,3150, Note_on_c,65,108,4,2,1,76.0,True
42443,3150, Note_on_c,70,108,4,2,1,81.0,False
42444,3151, Note_on_c,58,108,4,2,1,67.0,False
42445,3152, Note_on_c,63,108,4,2,1,73.0,False
42446,3152, Note_on_c,66,108,4,2,1,77.0,False
42447,3153, Note_on_c,65,108,4,2,1,76.0,True
42448,3153, Note_on_c,68,108,4,2,1,79.0,False
42449,3154, Note_on_c,58,108,4,2,1,67.0,False
42450,3155, Note_on_c,63,108,4,2,1,73.0,False
42451,3155, Note_on_c,66,108,4,2,1,77.0,False
42452,3156, Note_on_c,65,108,4,2,1,76.0,True
42453,3156, Note_on_c,68,108,4,2,1,79.0,False
42454,3157, Note_on_c,63,108,4,2,1,73.0,False
42455,3157, Note_on_c,66,108,4,2,1,77.0,False
42456,3158, Note_on_c,65,108,4,2,1,76.0,True
42457,3158, Note_on_c,70,108,4,2,1,81.0,False
42458,3159, Note_on_c,58,108,4,2,1,67.0,False
42459,3160, Note_on_c,63,108,4,2,1,73.0,False
42460,3160, Note_on_c,66,108,4,2,1,77.0,False
42461,3161, Note_on_c,65,108,4,2,1,76.0,True
42462,3161, Note_on_c,68,108,4,2,1,79.0,False
42463,3162, Note_on_c,58,108,4,2,1,67.0,False
42464,3163, Note_on_c,63,108,4,2,1,73.0,False
42465,3163, Note_on_c,66,108,4,2,1,77.0,False
42466,3164, Note_on_c,65,108,4,2,1,76.0,True
42467,3164, Note_on_c,68,108,4,2,1,79.0,False
42468,3165, Note_on_c,63,108,4,2,1,73.0,False
42469,3165, Note_on_c,66,108,4,2,1,77.0,False
42470,3166, Note_on_c,65,108,4,2,1,76.0,True
42471,3166, Note_on_c,70,108,4,2,1,81.0,False
42472,3167, Note_on_c,58,108,4,2,1,67.0,False
42473,3168, Note_on_c,63,108,4,2,1,73.0,False
42474,3168, Note_on_c,66,108,4,2,1,77.0,False
42475,3169, Note_on_c,65,108,4,2,1,76.0,True
42476,3169, Note_on_c,68,108,4,2,1,79.0,False
42477,3170, Note_on_c,58,108,4,2,1,67.0,False
42478,3171, Note_on_c,63,108,4,2,1,73.0,False
42479,3171, Note_on_c,66,108,4,2,1,77.0,False
42480,3172, Note_on_c,65,108,4,2,1,76.0,True
42481,3172, Note_on_c,68,108,4,2,1,79.0,False
42482,3173, Note_on_c,63,108,4,2,1,73.0,False
42483,3173, Note_on_c,66,108,4,2,1,77.0,False
42484,3174, Note_on_c,65,108,4,2,1,76.0,True
42485,3174, Note_on_c,70,108,4,2,1,81.0,False
42486,3175, Note_on_c,58,108,4,2,1,67.0,False
42487,3176, Note_on_c,63,108,4,2,1,73.0,False
42488,3176, Note_on_c,66,108,4,2,1,77.0,False
42489,3177, Note_on_c,65,108,4,2,1,76.0,True
42490,3177, Note_on_c,68,108,4,2,1,79.0,False
42491,3178, Note_on_c,58,108,4,2,1,67.0,False
42492,3179, Note_on_c,63,108,4,2,1,73.0,False
42493,3179, Note_on_c,66,108,4,2,1,77.0,False
42494,3180, Note_on_c,65,108,4,2,1,76.0,True
42495,3180, Note_on_c,68,108,4,2,1,79.0,False
42496,3181, Note_on_c,63,108,4,2,1,73.0,False
42497,3181, Note_on_c,66,108,4,2,1,77.0,False
42498,3182, Note_on_c,65,108,4,2,1,76.0,True
42499,3182, Note_on_c,70,108,4,2,1,81.0,False
42500,3183, Note_on_c,58,108,4,2,1,67.0,False
42501,3184, Note_on_c,63,108,4,2,1,73.0,False
42502,3184, Note_on_c,66,108,4,2,1,77.0,False
42503,3185, Note_on_c,65,108,4,2,1,76.0,True
42504,3185, Note_on_c,68,108,4,2,1,79.0,False
42505,3186, Note_on_c,58,108,4,2,1,67.0,False
42506,3187, Note_on_c,63,108,4,2,1,73.0,False
42507,3187, Note_on_c,66,108,4,2,1,77.0,False
42508,3188, Note_on_c,65,108,4,2,1,76.0,True
42509,3188, Note_on_c,68,108,4,2,1,79.0,False
42510,3189, Note_on_c,63,108,4,2,1,73.0,False
42511,3189, Note_on_c,66,108,4,2,1,77.0,False
42512,3190, Note_on_c,65,108,4,2,1,76.0,True
42513,3190, Note_on_c,70,108,4,2,1,81.0,False
42514,3191, Note_on_c,58,108,4,2,1,67.0,False
42515,3192, Note_on_c,63,108,4,2,1,73.0,False
42516,3192, Note_on_c,66,108,4,2,1,77.0,False
42517,3193, Note_on_c,65,108,4,2,1,76.0,True
42518,3193, Note_on_c,68,108,4,2,1,79.0,False
42519,3194, Note_on_c,58,108,4,2,1,67.0,False
42520,3195, Note_on_c,63,108,4,2,1,73.0,False
42521,3195, Note_on_c,66,108,4,2,1,77.0,False
42522,3196, Note_on_c,65,108,4,2,1,76.0,True
42523,3196, Note_on_c,68,108,4,2,1,79.0,False
42524,3197, Note_on_c,63,108,4,2,1,73.0,False
42525,3197, Note_on_c,66,108,4,2,1,77.0,False
42526,3198, Note_on_c,65,108,4,2,1,76.0,True
42527,3198, Note_on_c,70,108,4,2,1,81.0,False
42528,3199, Note_on_c,58,108,4,2,1,67.0,False
42529,3200, Note_on_c,63,108,4,2,1,73.0,False
42530,3200, Note_on_c,66,108,4,2,1,77.0,False
42531,3201, Note_on_c,65,108,4,2,1,76.0,True
42532,3201, Note_on_c,68,108,4,2,1,79.0,False
42533,3202, Note_on_c,58,108,4,2,1,67.0,False
42534,3203, Note_on_c,63,108,4,2,1,73.0,False
42535,3203, Note_on_c,66,108,4,2,1,77.0,False
42536,3204, Note_on_c,65,108,4,2,1,76.0,True
42537,3204, Note_on_c,68,108,4,2,1,79.0,False
42538,3205, Note_on_c,63,108,4,2,1,73.0,False
42539,3205, Note_on_c,66,108,4,2,1,77.0,False
42540,3206, Note_on_c,65,108,4,2,1,76.0,True
42541,3206, Note_on_c,70,108,4,2,1,81.0,False
42542,3207, Note_on_c,58,108,4,2,1,67.0,False
42543,3208, Note_on_c,63,108,4,2,1,73.0,False
42544,3208, Note_on_c,66,108,4,2,1,77.0,False
42545,3209, Note_on_c,65,108,4,2,1,76.0,True
42546,3209, Note_on_c,68,108,4,2,1,79.0,False
42547,3210, Note_on_c,58,107,4,2,1,67.0,False
42548,3211, Note_on_c,63,105,4,2,1,73.0,False
42549,3211, Note_on_c,66,105,4,2,1,77.0,False
42550,3212, Note_on_c,65,104,4,2,1,76.0,True
42551,3212, Note_on_c,68,104,4,2,1,79.0,False
42552,3213, Note_on_c,63,103,4,2,1,73.0,False
42553,3213, Note_on_c,66,103,4,2,1,77.0,False
42554,3214, Note_on_c,65,102,4,2,1,76.0,True
42555,3214, Note_on_c,70,102,4,2,1,81.0,False
42556,3215, Note_on_c,58,100,4,2,1,67.0,False
42557,3216, Note_on_c,63,99,4,2,1,73.0,False
42558,3216, Note_on_c,66,99,4,2,1,77.0,False
42559,3217, Note_on_c,65,98,4,2,1,76.0,True
42560,3217, Note_on_c,68,98,4,2,1,79.0,False
42561,3218, Note_on_c,58,96,4,2,1,67.0,False
42562,3219, Note_on_c,63,95,4,2,1,73.0,False
42563,3219, Note_on_c,66,95,4,2,1,77.0,False
42564,3220, Note_on_c,65,94,4,2,1,76.0,True
42565,3220, Note_on_c,68,94,4,2,1,79.0,False
42566,3221, Note_on_c,63,92,4,2,1,73.0,False
42567,3221, Note_on_c,66,92,4,2,1,77.0,False
42568,3222, Note_on_c,65,91,4,2,1,76.0,True
42569,3222, Note_on_c,70,91,4,2,1,81.0,False
42570,3223, Note_on_c,58,90,4,2,1,67.0,False
42571,3224, Note_on_c,63,88,4,2,1,73.0,False
42572,3224, Note_on_c,66,88,4,2,1,77.0,False
42573,3225, Note_on_c,65,87,4,2,1,76.0,True
42574,3225, Note_on_c,68,87,4,2,1,79.0,False
42575,3226, Note_on_c,58,86,4,2,1,67.0,False
42576,3227, Note_on_c,63,84,4,2,1,73.0,False
42577,3227, Note_on_c,66,84,4,2,1,77.0,False
42578,3228, Note_on_c,65,83,4,2,1,76.0,True
42579,3228, Note_on_c,68,83,4,2,1,79.0,False
42580,3229, Note_on_c,63,82,4,2,1,73.0,False
42581,3229, Note_on_c,66,82,4,2,1,77.0,False
42582,3230, Note_on_c,65,80,4,2,1,76.0,True
42583,3230, Note_on_c,70,80,4,2,1,81.0,False
42584,3231, Note_on_c,58,79,4,2,1,67.0,False
42585,3232, Note_on_c,63,78,4,2,1,73.0,False
42586,3232, Note_on_c,66,78,4,2,1,77.0,False
42587,3233, Note_on_c,65,76,4,2,1,76.0,True
42588,3233, Note_on_c,68,76,4,2,1,79.0,False
42589,3234, Note_on_c,58,76,4,2,1,67.0,False
42590,3235, Note_on_c,63,76,4,2,1,73.0,False
42591,3235, Note_on_c,66,76,4,2,1,77.0,False
42592,3236, Note_on_c,65,76,4,2,1,76.0,True
42593,3236, Note_on_c,68,76,4,2,1,79.0,False
42594,3237, Note_on_c,63,76,4,2,1,73.0,False
42595,3237, Note_on_c,66,76,4,2,1,77.0,False
42596,3238, Note_on_c,65,76,4,2,1,76.0,True
42597,3238, Note_on_c,70,76,4,2,1,81.0,False
42598,3239, Note_on_c,58,76,4,2,1,67.0,False
42599,3240, Note_on_c,63,76,4,2,1,73.0,False
42600,3240, Note_on_c,66,76,4,2,1,77.0,False
42601,3241, Note_on_c,65,76,4,2,1,76.0,True
42602,3241, Note_on_c,68,76,4,2,1,79.0,False
42603,3242, Note_on_c,58,76,4,2,1,67.0,False
42604,3243, Note_on_c,63,76,4,2,1,73.0,False
42605,3243, Note_on_c,66,76,4,2,1,77.0,False
42606,3244, Note_on_c,65,76,4,2,1,76.0,True
42607,3244, Note_on_c,68,76,4,2,1,79.0,False
42608,3245, Note_on_c,63,76,4,2,1,73.0,False
42609,3245, Note_on_c,66,76,4,2,1,77.0,False
42610,3246, Note_on_c,65,76,4,2,1,76.0,True
42611,3246, Note_on_c,70,76,4,2,1,81.0,False
42612,3247, Note_on_c,58,76,4,2,1,67.0,False
42613,3248, Note_on_c,63,76,4,2,1,73.0,False
42614,3248, Note_on_c,66,76,4,2,1,77.0,False
42615,3249, Note_on_c,65,76,4,2,1,76.0,True
42616,3249, Note_on_c,68,76,4,2,1,79.0,False
42617,3250, Note_on_c,58,76,4,2,1,67.0,False
42618,3251, Note_on_c,63,76,4,2,1,73.0,False
42619,3251, Note_on_c,66,76,4,2,1,77.0,False
42620,3252, Note_on_c,65,76,4,2,1,76.0,True
42621,3252, Note_on_c,68,76,4,2,1,79.0,False
42622,3253, Note_on_c,63,76,4,2,1,73.0,False
42623,3253, Note_on_c,66,76,4,2,1,77.0,False
42624,3254, Note_on_c,65,76,4,2,1,76.0,True
42625,3254, Note_on_c,70,76,4,2,1,81.0,False
42626,3255, Note_on_c,58,76,4,2,1,67.0,False
42627,3256, Note_on_c,63,76,4,2,1,73.0,False
42628,3256, Note_on_c,66,76,4,2,1,77.0,False
42629,3257, Note_on_c,65,76,4,2,1,76.0,True
42630,3257, Note_on_c,68,76,4,2,1,79.0,False
42631,3258, Note_on_c,58,76,4,2,1,67.0,False
42632,3259, Note_on_c,63,76,4,2,1,73.0,False
42633,3259, Note_on_c,66,76,4,2,1,77.0,False
42634,3260, Note_on_c,65,76,4,2,1,76.0,True
42635,3260, Note_on_c,68,76,4,2,1,79.0,False
42636,3261, Note_on_c,63,76,4,2,1,73.0,False
42637,3261, Note_on_c,66,76,4,2,1,77.0,False
42638,3262, Note_on_c,65,76,4,2,1,76.0,True
42639,3262, Note_on_c,70,76,4,2,1,81.0,False
42640,3263, Note_on_c,58,76,4,2,1,67.0,False
42641,3264, Note_on_c,63,76,4,2,1,73.0,False
42642,3264, Note_on_c,66,76,4,2,1,77.0,False
42643,3265, Note_on_c,65,76,4,2,1,76.0,True
42644,3265, Note_on_c,68,76,4,2,1,79.0,False
42645,3266, Note_on_c,58,76,4,2,1,67.0,False
42646,3267, Note_on_c,63,76,4,2,1,73.0,False
42647,3267, Note_on_c,66,76,4,2,1,77.0,False
42648,3268, Note_on_c,65,76,4,2,1,76.0,True
42649,3268, Note_on_c,68,76,4,2,1,79.0,False
42650,3269, Note_on_c,63,76,4,2,1,73.0,False
42651,3269, Note_on_c,66,76,4,2,1,77.0,False
42652,3270, Note_on_c,65,76,4,2,1,76.0,True
42653,3270, Note_on_c,70,76,4,2,1,81.0,False
42654,3271, Note_on_c,58,76,4,2,1,67.0,False
42655,3272, Note_on_c,63,76,4,2,1,73.0,False
42656,3272, Note_on_c,66,76,4,2,1,77.0,False
42657,3273, Note_on_c,65,76,4,2,1,76.0,True
42658,3273, Note_on_c,68,76,4,2,1,79.0,False
42659,3274, Note_on_c,58,76,4,2,1,67.0,False
42660,3275, Note_on_c,63,76,4,2,1,73.0,False
42661,3275, Note_on_c,66,76,4,2,1,77.0,False
42662,3276, Note_on_c,65,76,4,2,1,76.0,True
42663,3276, Note_on_c,68,76,4,2,1,79.0,False
42664,3277, Note_on_c,63,76,4,2,1,73.0,False
42665,3277, Note_on_c,66,76,4,2,1,77.0,False
42666,3278, Note_on_c,65,76,4,2,1,76.0,True
42667,3278, Note_on_c,70,76,4,2,1,81.0,False
42668,3279, Note_on_c,58,76,4,2,1,67.0,False
42669,3280, Note_on_c,63,76,4,2,1,73.0,False
42670,3280, Note_on_c,66,76,4,2,1,77.0,False
42671,3281, Note_on_c,65,76,4,2,1,76.0,True
42672,3281, Note_on_c,68,76,4,2,1,79.0,False
42673,3282, Note_on_c,58,76,4,2,1,67.0,False
42674,3283, Note_on_c,63,76,4,2,1,73.0,False
42675,3283, Note_on_c,66,76,4,2,1,77.0,False
42676,3284, Note_on_c,65,76,4,2,1,76.0,True
42677,3284, Note_on_c,68,76,4,2,1,79.0,False
42678,3285, Note_on_c,63,76,4,2,1,73.0,False
42679,3285, Note_on_c,66,76,4,2,1,77.0,False
42680,3286, Note_on_c,65,76,4,2,1,76.0,True
42681,3286, Note_on_c,70,76,4,2,1,81.0,False
42682,3287, Note_on_c,58,76,4,2,1,67.0,False
42683,3288, Note_on_c,63,76,4,2,1,73.0,False
42684,3288, Note_on_c,66,76,4,2,1,77.0,False
42685,3289, Note_on_c,65,76,4,2,1,76.0,True
42686,3289, Note_on_c,68,76,4,2,1,79.0,False
42687,3290, Note_on_c,58,76,4,2,1,67.0,False
42688,3291, Note_on_c,63,76,4,2,1,73.0,False
42689,3291, Note_on_c,66,76,4,2,1,77.0,False
42690,3292, Note_on_c,65,76,4,2,1,76.0,True
42691,3292, Note_on_c,68,76,4,2,1,79.0,False
42692,3293, Note_on_c,63,76,4,2,1,73.0,False
42693,3293, Note_on_c,66,76,4,2,1,77.0,False
42694,3294, Note_on_c,65,76,4,2,1,76.0,True
42695,3294, Note_on_c,70,76,4,2,1,81.0,False
42696,3295, Note_on_c,58,76,4,2,1,67.0,False
42697,3296, Note_on_c,63,76,4,2,1,73.0,False
42698,3296, Note_on_c,66,76,4,2,1,77.0,False
42699,3297, Note_on_c,65,76,4,2,1,76.0,True
42700,3297, Note_on_c,68,76,4,2,1,79.0,False
42701,3298, Note_on_c,58,76,4,2,1,67.0,False
42702,3299, Note_on_c,63,76,4,2,1,73.0,False
42703,3299, Note_on_c,66,76,4,2,1,77.0,False
42704,3300, Note_on_c,65,76,4,2,1,76.0,True
42705,3300, Note_on_c,68,76,4,2,1,79.0,False
42706,3301, Note_on_c,63,76,4,2,1,73.0,False
42707,3301, Note_on_c,66,76,4,2,1,77.0,False
42708,3302, Note_on_c,65,76,4,2,1,76.0,True
42709,3302, Note_on_c,70,76,4,2,1,81.0,False
42710,3303, Note_on_c,58,76,4,2,1,67.0,False
42711,3304, Note_on_c,63,76,4,2,1,73.0,False
42712,3304, Note_on_c,66,76,4,2,1,77.0,False
42713,3305, Note_on_c,65,76,4,2,1,76.0,True
42714,3305, Note_on_c,68,76,4,2,1,79.0,False
42715,3306, Note_on_c,58,76,4,2,1,67.0,False
42716,3307, Note_on_c,63,76,4,2,1,73.0,False
42717,3307, Note_on_c,66,76,4,2,1,77.0,False
42718,3308, Note_on_c,65,76,4,2,1,76.0,True
42719,3308, Note_on_c,68,76,4,2,1,79.0,False
42720,3309, Note_on_c,63,76,4,2,1,73.0,False
42721,3309, Note_on_c,66,76,4,2,1,77.0,False
42722,3310, Note_on_c,65,76,4,2,1,76.0,True
42723,3310, Note_on_c,70,76,4,2,1,81.0,False
42724,3311, Note_on_c,58,76,4,2,1,67.0,False
42725,3312, Note_on_c,63,76,4,2,1,73.0,False
42726,3312, Note_on_c,66,76,4,2,1,77.0,False
42727,3313, Note_on_c,65,76,4,2,1,76.0,True
42728,3313, Note_on_c,68,76,4,2,1,79.0,False
42729,3314, Note_on_c,58,76,4,2,1,67.0,False
42730,3315, Note_on_c,63,76,4,2,1,73.0,False
42731,3315, Note_on_c,66,76,4,2,1,77.0,False
42732,3316, Note_on_c,65,76,4,2,1,76.0,True
42733,3316, Note_on_c,68,76,4,2,1,79.0,False
42734,3317, Note_on_c,63,76,4,2,1,73.0,False
42735,3317, Note_on_c,66,76,4,2,1,77.0,False
42736,3318, Note_on_c,65,76,4,2,1,76.0,True
42737,3318, Note_on_c,70,76,4,2,1,81.0,False
42738,3319, Note_on_c,58,76,4,2,1,67.0,False
42739,3320, Note_on_c,63,76,4,2,1,73.0,False
42740,3320, Note_on_c,66,76,4,2,1,77.0,False
42741,3321, Note_on_c,65,76,4,2,1,76.0,True
42742,3321, Note_on_c,68,76,4,2,1,79.0,False
42743,3322, Note_on_c,58,76,4,2,1,67.0,False
42744,3323, Note_on_c,63,76,4,2,1,73.0,False
42745,3323, Note_on_c,66,76,4,2,1,77.0,False
42746,3324, Note_on_c,65,76,4,2,1,76.0,True
42747,3324, Note_on_c,68,76,4,2,1,79.0,False
42748,3325, Note_on_c,63,76,4,2,1,73.0,False
42749,3325, Note_on_c,66,76,4,2,1,77.0,False
42750,3326, Note_on_c,65,76,4,2,1,76.0,True
42751,3326, Note_on_c,70,76,4,2,1,81.0,False
42752,3327, Note_on_c,58,76,4,2,1,67.0,False
42753,3328, Note_on_c,63,76,4,2,1,73.0,False
42754,3328, Note_on_c,66,76,4,2,1,77.0,False
42755,3329, Note_on_c,65,76,4,2,1,76.0,True
42756,3329, Note_on_c,68,76,4,2,1,79.0,False
42757,3330, Note_on_c,58,76,4,2,1,67.0,False
42758,3331, Note_on_c,63,76,4,2,1,73.0,False
42759,3331, Note_on_c,66,76,4,2,1,77.0,False
42760,3332, Note_on_c,65,76,4,2,1,76.0,True
42761,3332, Note_on_c,68,76,4,2,1,79.0,False
42762,3333, Note_on_c,63,76,4,2,1,73.0,False
42763,3333, Note_on_c,66,76,4,2,1,77.0,False
42764,3334, Note_on_c,65,76,4,2,1,76.0,True
42765,3334, Note_on_c,70,76,4,2,1,81.0,False
42766,3335, Note_on_c,58,76,4,2,1,67.0,False
42767,3336, Note_on_c,63,76,4,2,1,73.0,False
42768,3336, Note_on_c,66,76,4,2,1,77.0,False
42769,3337, Note_on_c,65,76,4,2,1,76.0,True
42770,3337, Note_on_c,68,76,4,2,1,79.0,False
42771,3338, Note_on_c,58,76,4,2,1,67.0,False
42772,3339, Note_on_c,63,76,4,2,1,73.0,False
42773,3339, Note_on_c,66,76,4,2,1,77.0,False
42774,3340, Note_on_c,65,76,4,2,1,76.0,True
42775,3340, Note_on_c,68,76,4,2,1,79.0,False
42776,3341, Note_on_c,63,76,4,2,1,73.0,False
42777,3341, Note_on_c,66,76,4,2,1,77.0,False
42778,3342, Note_on_c,65,76,4,2,1,76.0,True
42779,3342, Note_on_c,70,76,4,2,1,81.0,False
42780,3343, Note_on_c,58,76,4,2,1,67.0,False
42781,3344, Note_on_c,63,76,4,2,1,73.0,False
42782,3344, Note_on_c,66,76,4,2,1,77.0,False
42783,3345, Note_on_c,65,76,4,2,1,76.0,True
42784,3345, Note_on_c,68,76,4,2,1,79.0,False
42785,3346, Note_on_c,58,76,4,2,1,67.0,False
42786,3347, Note_on_c,63,76,4,2,1,73.0,False
42787,3347, Note_on_c,66,76,4,2,1,77.0,False
42788,3348, Note_on_c,65,76,4,2,1,76.0,True
42789,3348, Note_on_c,68,76,4,2,1,79.0,False
42790,3349, Note_on_c,63,76,4,2,1,73.0,False
42791,3349, Note_on_c,66,76,4,2,1,77.0,False
42792,3350, Note_on_c,65,76,4,2,1,76.0,True
42793,3350, Note_on_c,70,76,4,2,1,81.0,False
42794,3351, Note_on_c,58,76,4,2,1,67.0,False
42795,3352, Note_on_c,63,76,4,2,1,73.0,False
42796,3352, Note_on_c,66,76,4,2,1,77.0,False
42797,3353, Note_on_c,65,76,4,2,1,76.0,True
42798,3353, Note_on_c,68,76,4,2,1,79.0,False
42799,3354, Note_on_c,58,76,4,2,1,67.0,False
42800,3355, Note_on_c,63,76,4,2,1,73.0,False
42801,3355, Note_on_c,66,76,4,2,1,77.0,False
42802,3356, Note_on_c,65,76,4,2,1,76.0,True
42803,3356, Note_on_c,68,76,4,2,1,79.0,False
42804,3357, Note_on_c,63,76,4,2,1,73.0,False
42805,3357, Note_on_c,66,76,4,2,1,77.0,False
42806,3358, Note_on_c,65,76,4,2,1,76.0,True
42807,3358, Note_on_c,70,76,4,2,1,81.0,False
42808,3359, Note_on_c,58,76,4,2,1,67.0,False
42809,3360, Note_on_c,63,76,4,2,1,73.0,False
42810,3360, Note_on_c,66,76,4,2,1,77.0,False
42811,3361, Note_on_c,65,76,4,2,1,76.0,True
42812,3361, Note_on_c,68,76,4,2,1,79.0,False
42813,3362, Note_on_c,58,76,4,2,1,67.0,False
42814,3363, Note_on_c,63,76,4,2,1,73.0,False
42815,3363, Note_on_c,66,76,4,2,1,77.0,False
42816,3364, Note_on_c,65,76,4,2,1,76.0,True
42817,3364, Note_on_c,68,76,4,2,1,79.0,False
42818,3365, Note_on_c,63,76,4,2,1,73.0,False
42819,3365, Note_on_c,66,76,4,2,1,77.0,False
42820,3366, Note_on_c,65,76,4,2,1,76.0,True
42821,3366, Note_on_c,70,76,4,2,1,81.0,False
42822,3367, Note_on_c,58,76,4,2,1,67.0,False
42823,3368, Note_on_c,63,76,4,2,1,73.0,False
42824,3368, Note_on_c,66,76,4,2,1,77.0,False
42825,3369, Note_on_c,65,76,4,2,1,76.0,True
42826,3369, Note_on_c,68,76,4,2,1,79.0,False
42827,3370, Note_on_c,58,76,4,2,1,67.0,False
42828,3371, Note_on_c,63,76,4,2,1,73.0,False
42829,3371, Note_on_c,66,76,4,2,1,77.0,False
42830,3372, Note_on_c,65,76,4,2,1,76.0,True
42831,3372, Note_on_c,68,76,4,2,1,79.0,False
42832,3373, Note_on_c,63,76,4,2,1,73.0,False
42833,3373, Note_on_c,66,76,4,2,1,77.0,False
42834,3374, Note_on_c,65,76,4,2,1,76.0,True
42835,3374, Note_on_c,70,76,4,2,1,81.0,False
42836,3375, Note_on_c,58,76,4,2,1,67.0,False
42837,3376, Note_on_c,63,76,4,2,1,73.0,False
42838,3376, Note_on_c,66,76,4,2,1,77.0,False
42839,3377, Note_on_c,65,76,4,2,1,76.0,True
42840,3377, Note_on_c,68,76,4,2,1,79.0,False
42841,3378, Note_on_c,58,76,4,2,1,67.0,False
42842,3379, Note_on_c,63,76,4,2,1,73.0,False
42843,3379, Note_on_c,66,76,4,2,1,77.0,False
42844,3380, Note_on_c,65,76,4,2,1,76.0,True
42845,3380, Note_on_c,68,76,4,2,1,79.0,False
42846,3381, Note_on_c,63,76,4,2,1,73.0,False
42847,3381, Note_on_c,66,76,4,2,1,77.0,False
42848,3382, Note_on_c,65,76,4,2,1,76.0,True
42849,3382, Note_on_c,70,76,4,2,1,81.0,False
42850,3383, Note_on_c,58,76,4,2,1,67.0,False
42851,3384, Note_on_c,63,76,4,2,1,73.0,False
42852,3384, Note_on_c,66,76,4,2,1,77.0,False
42853,3385, Note_on_c,65,76,4,2,1,76.0,True
42854,3385, Note_on_c,68,76,4,2,1,79.0,False
42855,3386, Note_on_c,58,76,4,2,1,67.0,False
42856,3387, Note_on_c,63,76,4,2,1,73.0,False
42857,3387, Note_on_c,66,76,4,2,1,77.0,False
42858,3388, Note_on_c,65,76,4,2,1,76.0,True
42859,3388, Note_on_c,68,76,4,2,1,79.0,False
42860,3389, Note_on_c,63,76,4,2,1,73.0,False
42861,3389, Note_on_c,66,76,4,2,1,77.0,False
42862,3390, Note_on_c,65,76,4,2,1,76.0,True
42863,3390, Note_on_c,70,76,4,2,1,81.0,False
42864,3391, Note_on_c,58,76,4,2,1,67.0,False
42865,3392, Note_on_c,63,76,4,2,1,73.0,False
42866,3392, Note_on_c,66,76,4,2,1,77.0,False
42867,3393, Note_on_c,65,76,4,2,1,76.0,True
42868,3393, Note_on_c,68,76,4,2,1,79.0,False
42869,3394, Note_on_c,58,76,4,2,1,67.0,False
42870,3395, Note_on_c,63,76,4,2,1,73.0,False
42871,3395, Note_on_c,66,76,4,2,1,77.0,False
42872,3396, Note_on_c,65,76,4,2,1,76.0,True
42873,3396, Note_on_c,68,76,4,2,1,79.0,False
42874,3397, Note_on_c,63,76,4,2,1,73.0,False
42875,3397, Note_on_c,66,76,4,2,1,77.0,False
42876,3398, Note_on_c,65,76,4,2,1,76.0,True
42877,3398, Note_on_c,70,76,4,2,1,81.0,False
42878,3399, Note_on_c,58,76,4,2,1,67.0,False
42879,3400, Note_on_c,63,76,4,2,1,73.0,False
42880,3400, Note_on_c,66,76,4,2,1,77.0,False
42881,3401, Note_on_c,65,76,4,2,1,76.0,True
42882,3401, Note_on_c,68,76,4,2,1,79.0,False
42883,3402, Note_on_c,58,76,4,2,1,67.0,False
42884,3403, Note_on_c,63,76,4,2,1,73.0,False
42885,3403, Note_on_c,66,76,4,2,1,77.0,False
42886,3404, Note_on_c,65,76,4,2,1,76.0,True
42887,3404, Note_on_c,68,76,4,2,1,79.0,False
42888,3405, Note_on_c,63,76,4,2,1,73.0,False
42889,3405, Note_on_c,66,76,4,2,1,77.0,False
42890,3406, Note_on_c,65,76,4,2,1,76.0,True
42891,3406, Note_on_c,70,76,4,2,1,81.0,False
42892,3407, Note_on_c,58,76,4,2,1,67.0,False
42893,3408, Note_on_c,63,76,4,2,1,73.0,False
42894,3408, Note_on_c,66,76,4,2,1,77.0,False
42895,3409, Note_on_c,65,76,4,2,1,76.0,True
42896,3409, Note_on_c,68,76,4,2,1,79.0,False
42897,3410, Note_on_c,58,76,4,2,1,67.0,False
42898,3411, Note_on_c,63,76,4,2,1,73.0,False
42899,3411, Note_on_c,66,76,4,2,1,77.0,False
42900,3412, Note_on_c,65,76,4,2,1,76.0,True
42901,3412, Note_on_c,68,76,4,2,1,79.0,False
42902,3413, Note_on_c,63,76,4,2,1,73.0,False
42903,3413, Note_on_c,66,76,4,2,1,77.0,False
42904,3414, Note_on_c,65,76,4,2,1,76.0,True
42905,3414, Note_on_c,70,76,4,2,1,81.0,False
42906,3415, Note_on_c,58,76,4,2,1,67.0,False
42907,3416, Note_on_c,63,76,4,2,1,73.0,False
42908,3416, Note_on_c,66,76,4,2,1,77.0,False
42909,3417, Note_on_c,65,76,4,2,1,76.0,True
42910,3417, Note_on_c,68,76,4,2,1,79.0,False
42911,3418, Note_on_c,58,76,4,2,1,67.0,False
42912,3419, Note_on_c,63,76,4,2,1,73.0,False
42913,3419, Note_on_c,66,76,4,2,1,77.0,False
42914,3420, Note_on_c,65,76,4,2,1,76.0,True
42915,3420, Note_on_c,68,76,4,2,1,79.0,False
42916,3421, Note_on_c,63,76,4,2,1,73.0,False
42917,3421, Note_on_c,66,76,4,2,1,77.0,False
42918,3422, Note_on_c,65,76,4,2,1,76.0,True
42919,3422, Note_on_c,70,76,4,2,1,81.0,False
42920,3423, Note_on_c,58,76,4,2,1,67.0,False
42921,3424, Note_on_c,63,76,4,2,1,73.0,False
42922,3424, Note_on_c,66,76,4,2,1,77.0,False
42923,3425, Note_on_c,65,76,4,2,1,76.0,True
42924,3425, Note_on_c,68,76,4,2,1,79.0,False
42925,3426, Note_on_c,58,76,4,2,1,67.0,False
42926,3427, Note_on_c,63,76,4,2,1,73.0,False
42927,3427, Note_on_c,66,76,4,2,1,77.0,False
42928,3428, Note_on_c,65,76,4,2,1,76.0,True
42929,3428, Note_on_c,68,76,4,2,1,79.0,False
42930,3429, Note_on_c,63,76,4,2,1,73.0,False
42931,3429, Note_on_c,66,76,4,2,1,77.0,False
42932,3430, Note_on_c,65,76,4,2,1,76.0,True
42933,3430, Note_on_c,70,76,4,2,1,81.0,False
42934,3431, Note_on_c,58,76,4,2,1,67.0,False
42935,3432, Note_on_c,63,76,4,2,1,73.0,False
42936,3432, Note_on_c,66,76,4,2,1,77.0,False
42937,3433, Note_on_c,65,76,4,2,1,76.0,True
42938,3433, Note_on_c,68,76,4,2,1,79.0,False
42939,3434, Note_on_c,58,76,4,2,1,67.0,False
42940,3435, Note_on_c,63,76,4,2,1,73.0,False
42941,3435, Note_on_c,66,76,4,2,1,77.0,False
42942,3436, Note_on_c,65,76,4,2,1,76.0,True
42943,3436, Note_on_c,68,76,4,2,1,79.0,False
42944,3437, Note_on_c,63,76,4,2,1,73.0,False
42945,3437, Note_on_c,66,76,4,2,1,77.0,False
42946,3438, Note_on_c,65,76,4,2,1,76.0,True
42947,3438, Note_on_c,70,76,4,2,1,81.0,False
42948,3439, Note_on_c,58,76,4,2,1,67.0,False
42949,3440, Note_on_c,63,76,4,2,1,73.0,False
42950,3440, Note_on_c,66,76,4,2,1,77.0,False
42951,3441, Note_on_c,65,76,4,2,1,76.0,True
42952,3441, Note_on_c,68,76,4,2,1,79.0,False
42953,3442, Note_on_c,58,76,4,2,1,67.0,False
42954,3443, Note_on_c,63,76,4,2,1,73.0,False
42955,3443, Note_on_c,66,76,4,2,1,77.0,False
42956,3444, Note_on_c,65,76,4,2,1,76.0,True
42957,3444, Note_on_c,68,76,4,2,1,79.0,False
42958,3445, Note_on_c,63,76,4,2,1,73.0,False
42959,3445, Note_on_c,66,76,4,2,1,77.0,False
42960,3446, Note_on_c,65,76,4,2,1,76.0,True
42961,3446, Note_on_c,70,76,4,2,1,81.0,False
42962,3447, Note_on_c,58,76,4,2,1,67.0,False
42963,3448, Note_on_c,63,76,4,2,1,73.0,False
42964,3448, Note_on_c,66,76,4,2,1,77.0,False
42965,3449, Note_on_c,65,76,4,2,1,76.0,True
42966,3449, Note_on_c,68,76,4,2,1,79.0,False
42967,3450, Note_on_c,58,76,4,2,1,67.0,False
42968,3451, Note_on_c,63,76,4,2,1,73.0,False
42969,3451, Note_on_c,66,76,4,2,1,77.0,False
42970,3452, Note_on_c,65,76,4,2,1,76.0,True
42971,3452, Note_on_c,68,76,4,2,1,79.0,False
42972,3453, Note_on_c,63,76,4,2,1,73.0,False
42973,3453, Note_on_c,66,76,4,2,1,77.0,False
42974,3454, Note_on_c,65,76,4,2,1,76.0,True
42975,3454, Note_on_c,70,76,4,2,1,81.0,False
42976,3455, Note_on_c,58,76,4,2,1,67.0,False
42977,3456, Note_on_c,63,76,4,2,1,73.0,False
42978,3456, Note_on_c,66,76,4,2,1,77.0,False
42979,3457, Note_on_c,65,76,4,2,1,76.0,True
42980,3457, Note_on_c,68,76,4,2,1,79.0,False
42981,3458, Note_on_c,58,76,4,2,1,67.0,False
42982,3459, Note_on_c,63,76,4,2,1,73.0,False
42983,3459, Note_on_c,66,76,4,2,1,77.0,False
42984,3460, Note_on_c,65,76,4,2,1,76.0,True
42985,3460, Note_on_c,68,76,4,2,1,79.0,False
42986,3461, Note_on_c,63,76,4,2,1,73.0,False
42987,3461, Note_on_c,66,76,4,2,1,77.0,False
42988,3462, Note_on_c,65,76,4,2,1,76.0,True
42989,3462, Note_on_c,70,76,4,2,1,81.0,False
42990,3463, Note_on_c,58,76,4,2,1,67.0,False
42991,3464, Note_on_c,63,76,4,2,1,73.0,False
42992,3464, Note_on_c,66,76,4,2,1,77.0,False
42993,3465, Note_on_c,65,76,4,2,1,76.0,True
42994,3465, Note_on_c,68,76,4,2,1,79.0,False
42995,3466, Note_on_c,58,76,4,2,1,67.0,False
42996,3467, Note_on_c,63,76,4,2,1,73.0,False
42997,3467, Note_on_c,66,76,4,2,1,77.0,False
42998,3468, Note_on_c,65,76,4,2,1,76.0,True
42999,3468, Note_on_c,68,76,4,2,1,79.0,False
43000,3469, Note_on_c,63,76,4,2,1,73.0,False
43001,3469, Note_on_c,66,76,4,2,1,77.0,False
43002,3470, Note_on_c,65,76,4,2,1,76.0,True
43003,3470, Note_on_c,70,76,4,2,1,81.0,False
43004,3471, Note_on_c,58,76,4,2,1,67.0,False
43005,3472, Note_on_c,63,76,4,2,1,73.0,False
43006,3472, Note_on_c,66,76,4,2,1,77.0,False
43007,3473, Note_on_c,65,76,4,2,1,76.0,True
43008,3473, Note_on_c,68,76,4,2,1,79.0,False
43009,3474, Note_on_c,58,76,4,2,1,67.0,False
43010,3475, Note_on_c,63,76,4,2,1,73.0,False
43011,3475, Note_on_c,66,76,4,2,1,77.0,False
43012,3476, Note_on_c,65,76,4,2,1,76.0,True
43013,3476, Note_on_c,68,76,4,2,1,79.0,False
43014,3477, Note_on_c,63,76,4,2,1,73.0,False
43015,3477, Note_on_c,66,76,4,2,1,77.0,False
43016,3478, Note_on_c,65,76,4,2,1,76.0,True
43017,3478, Note_on_c,70,76,4,2,1,81.0,False
43018,3479, Note_on_c,58,76,4,2,1,67.0,False
43019,3480, Note_on_c,63,76,4,2,1,73.0,False
43020,3480, Note_on_c,66,76,4,2,1,77.0,False
43021,3481, Note_on_c,65,76,4,2,1,76.0,True
43022,3481, Note_on_c,68,76,4,2,1,79.0,False
43023,3482, Note_on_c,58,76,4,2,1,67.0,False
43024,3483, Note_on_c,63,76,4,2,1,73.0,False
43025,3483, Note_on_c,66,76,4,2,1,77.0,False
43026,3484, Note_on_c,65,76,4,2,1,76.0,True
43027,3484, Note_on_c,68,76,4,2,1,79.0,False
43028,3485, Note_on_c,63,76,4,2,1,73.0,False
43029,3485, Note_on_c,66,76,4,2,1,77.0,False
43030,3486, Note_on_c,65,76,4,2,1,76.0,True
43031,3486, Note_on_c,70,76,4,2,1,81.0,False
43032,3487, Note_on_c,58,76,4,2,1,67.0,False
43033,3488, Note_on_c,63,76,4,2,1,73.0,False
43034,3488, Note_on_c,66,76,4,2,1,77.0,False
43035,3489, Note_on_c,65,76,4,2,1,76.0,True
43036,3489, Note_on_c,68,76,4,2,1,79.0,False
43037,3490, Note_on_c,58,76,4,2,1,67.0,False
43038,3491, Note_on_c,63,76,4,2,1,73.0,False
43039,3491, Note_on_c,66,76,4,2,1,77.0,False
43040,3492, Note_on_c,65,76,4,2,1,76.0,True
43041,3492, Note_on_c,68,76,4,2,1,79.0,False
43042,3493, Note_on_c,63,76,4,2,1,73.0,False
43043,3493, Note_on_c,66,76,4,2,1,77.0,False
43044,3494, Note_on_c,65,76,4,2,1,76.0,True
43045,3494, Note_on_c,70,76,4,2,1,81.0,False
43046,3495, Note_on_c,58,76,4,2,1,67.0,False
43047,3496, Note_on_c,63,76,4,2,1,73.0,False
43048,3496, Note_on_c,66,76,4,2,1,77.0,False
43049,3497, Note_on_c,65,76,4,2,1,76.0,True
43050,3497, Note_on_c,68,76,4,2,1,79.0,False
43051,3498, Note_on_c,58,76,4,2,1,67.0,False
43052,3499, Note_on_c,63,76,4,2,1,73.0,False
43053,3499, Note_on_c,66,76,4,2,1,77.0,False
43054,3500, Note_on_c,65,76,4,2,1,76.0,True
43055,3500, Note_on_c,68,76,4,2,1,79.0,False
43056,3501, Note_on_c,63,76,4,2,1,73.0,False
43057,3501, Note_on_c,66,76,4,2,1,77.0,False
43058,3502, Note_on_c,65,76,4,2,1,76.0,True
43059,3502, Note_on_c,70,76,4,2,1,81.0,False
43060,3503, Note_on_c,58,76,4,2,1,67.0,False
43061,3504, Note_on_c,63,76,4,2,1,73.0,False
43062,3504, Note_on_c,66,76,4,2,1,77.0,False
43063,3505, Note_on_c,65,76,4,2,1,76.0,True
43064,3505, Note_on_c,68,76,4,2,1,79.0,False
43065,3506, Note_on_c,58,76,4,2,1,67.0,False
43066,3507, Note_on_c,63,76,4,2,1,73.0,False
43067,3507, Note_on_c,66,76,4,2,1,77.0,False
43068,3508, Note_on_c,65,76,4,2,1,76.0,True
43069,3508, Note_on_c,68,76,4,2,1,79.0,False
43070,3509, Note_on_c,63,76,4,2,1,73.0,False
43071,3509, Note_on_c,66,76,4,2,1,77.0,False
43072,3510, Note_on_c,65,76,4,2,1,76.0,True
43073,3510, Note_on_c,70,76,4,2,1,81.0,False
43074,3511, Note_on_c,58,76,4,2,1,67.0,False
43075,3512, Note_on_c,63,76,4,2,1,73.0,False
43076,3512, Note_on_c,66,76,4,2,1,77.0,False
43077,3513, Note_on_c,65,76,4,2,1,76.0,True
43078,3513, Note_on_c,68,76,4,2,1,79.0,False
43079,3514, Note_on_c,58,76,4,2,1,67.0,False
43080,3515, Note_on_c,63,76,4,2,1,73.0,False
43081,3515, Note_on_c,66,76,4,2,1,77.0,False
43082,3516, Note_on_c,65,76,4,2,1,76.0,True
43083,3516, Note_on_c,68,76,4,2,1,79.0,False
43084,3517, Note_on_c,63,76,4,2,1,73.0,False
43085,3517, Note_on_c,66,76,4,2,1,77.0,False
43086,3518, Note_on_c,65,76,4,2,1,76.0,True
43087,3518, Note_on_c,70,76,4,2,1,81.0,False
43088,3519, Note_on_c,58,76,4,2,1,67.0,False
43089,3520, Note_on_c,63,76,4,2,1,73.0,False
43090,3520, Note_on_c,66,76,4,2,1,77.0,False
43091,3521, Note_on_c,65,76,4,2,1,76.0,True
43092,3521, Note_on_c,68,76,4,2,1,79.0,False
43093,3522, Note_on_c,58,76,4,2,1,67.0,False
43094,3523, Note_on_c,63,76,4,2,1,73.0,False
43095,3523, Note_on_c,66,76,4,2,1,77.0,False
43096,3524, Note_on_c,65,76,4,2,1,76.0,True
43097,3524, Note_on_c,68,76,4,2,1,79.0,False
43098,3525, Note_on_c,63,76,4,2,1,73.0,False
43099,3525, Note_on_c,66,76,4,2,1,77.0,False
43100,3526, Note_on_c,65,76,4,2,1,76.0,True
43101,3526, Note_on_c,70,76,4,2,1,81.0,False
43102,3527, Note_on_c,58,76,4,2,1,67.0,False
43103,3528, Note_on_c,63,76,4,2,1,73.0,False
43104,3528, Note_on_c,66,76,4,2,1,77.0,False
43105,3529, Note_on_c,65,76,4,2,1,76.0,True
43106,3529, Note_on_c,68,76,4,2,1,79.0,False
43107,3530, Note_on_c,58,76,4,2,1,67.0,False
43108,3531, Note_on_c,63,76,4,2,1,73.0,False
43109,3531, Note_on_c,66,76,4,2,1,77.0,False
43110,3532, Note_on_c,65,76,4,2,1,76.0,True
43111,3532, Note_on_c,68,76,4,2,1,79.0,False
43112,3533, Note_on_c,63,76,4,2,1,73.0,False
43113,3533, Note_on_c,66,76,4,2,1,77.0,False
43114,3534, Note_on_c,65,76,4,2,1,76.0,True
43115,3534, Note_on_c,70,76,4,2,1,81.0,False
43116,3535, Note_on_c,58,76,4,2,1,67.0,False
43117,3536, Note_on_c,63,76,4,2,1,73.0,False
43118,3536, Note_on_c,66,76,4,2,1,77.0,False
43119,3537, Note_on_c,65,76,4,2,1,76.0,True
43120,3537, Note_on_c,68,76,4,2,1,79.0,False
43121,3538, Note_on_c,58,76,4,2,1,67.0,False
43122,3539, Note_on_c,63,76,4,2,1,73.0,False
43123,3539, Note_on_c,66,76,4,2,1,77.0,False
43124,3540, Note_on_c,65,76,4,2,1,76.0,True
43125,3540, Note_on_c,68,76,4,2,1,79.0,False
43126,3541, Note_on_c,63,76,4,2,1,73.0,False
43127,3541, Note_on_c,66,76,4,2,1,77.0,False
43128,3542, Note_on_c,65,76,4,2,1,76.0,True
43129,3542, Note_on_c,70,76,4,2,1,81.0,False
43130,3543, Note_on_c,58,76,4,2,1,67.0,False
43131,3544, Note_on_c,63,76,4,2,1,73.0,False
43132,3544, Note_on_c,66,76,4,2,1,77.0,False
43133,3545, Note_on_c,65,76,4,2,1,76.0,True
43134,3545, Note_on_c,68,76,4,2,1,79.0,False
43135,3546, Note_on_c,58,76,4,2,1,67.0,False
43136,3547, Note_on_c,63,76,4,2,1,73.0,False
43137,3547, Note_on_c,66,76,4,2,1,77.0,False
43138,3548, Note_on_c,65,76,4,2,1,76.0,True
43139,3548, Note_on_c,68,76,4,2,1,79.0,False
43140,3549, Note_on_c,63,76,4,2,1,73.0,False
43141,3549, Note_on_c,66,76,4,2,1,77.0,False
43142,3550, Note_on_c,65,76,4,2,1,76.0,True
43143,3550, Note_on_c,70,76,4,2,1,81.0,False
43144,3551, Note_on_c,58,76,4,2,1,67.0,False
43145,3552, Note_on_c,63,76,4,2,1,73.0,False
43146,3552, Note_on_c,66,76,4,2,1,77.0,False
43147,3553, Note_on_c,65,76,4,2,1,76.0,True
43148,3553, Note_on_c,68,76,4,2,1,79.0,False
43149,3554, Note_on_c,58,76,4,2,1,67.0,False
43150,3555, Note_on_c,63,76,4,2,1,73.0,False
43151,3555, Note_on_c,66,76,4,2,1,77.0,False
43152,3556, Note_on_c,65,76,4,2,1,76.0,True
43153,3556, Note_on_c,68,76,4,2,1,79.0,False
43154,3557, Note_on_c,63,76,4,2,1,73.0,False
43155,3557, Note_on_c,66,76,4,2,1,77.0,False
43156,3558, Note_on_c,65,76,4,2,1,76.0,True
43157,3558, Note_on_c,70,76,4,2,1,81.0,False
43158,3559, Note_on_c,58,76,4,2,1,67.0,False
43159,3560, Note_on_c,63,76,4,2,1,73.0,False
43160,3560, Note_on_c,66,76,4,2,1,77.0,False
43161,3561, Note_on_c,65,76,4,2,1,76.0,True
43162,3561, Note_on_c,68,76,4,2,1,79.0,False
43163,3562, Note_on_c,58,76,4,2,1,67.0,False
43164,3563, Note_on_c,63,76,4,2,1,73.0,False
43165,3563, Note_on_c,66,76,4,2,1,77.0,False
43166,3564, Note_on_c,65,76,4,2,1,76.0,True
43167,3564, Note_on_c,68,76,4,2,1,79.0,False
43168,3565, Note_on_c,63,76,4,2,1,73.0,False
43169,3565, Note_on_c,66,76,4,2,1,77.0,False
43170,3566, Note_on_c,65,76,4,2,1,76.0,True
43171,3566, Note_on_c,70,76,4,2,1,81.0,False
43172,3567, Note_on_c,58,76,4,2,1,67.0,False
43173,3568, Note_on_c,63,76,4,2,1,73.0,False
43174,3568, Note_on_c,66,76,4,2,1,77.0,False
43175,3569, Note_on_c,65,76,4,2,1,76.0,True
43176,3569, Note_on_c,68,76,4,2,1,79.0,False
43177,3570, Note_on_c,58,76,4,2,1,67.0,False
43178,3571, Note_on_c,63,76,4,2,1,73.0,False
43179,3571, Note_on_c,66,76,4,2,1,77.0,False
43180,3572, Note_on_c,65,76,4,2,1,76.0,True
43181,3572, Note_on_c,68,76,4,2,1,79.0,False
43182,3573, Note_on_c,63,76,4,2,1,73.0,False
43183,3573, Note_on_c,66,76,4,2,1,77.0,False
43184,3574, Note_on_c,65,76,4,2,1,76.0,True
43185,3574, Note_on_c,70,76,4,2,1,81.0,False
43186,3575, Note_on_c,58,76,4,2,1,67.0,False
43187,3576, Note_on_c,63,76,4,2,1,73.0,False
43188,3576, Note_on_c,66,76,4,2,1,77.0,False
43189,3577, Note_on_c,65,76,4,2,1,76.0,True
43190,3577, Note_on_c,68,76,4,2,1,79.0,False
43191,3578, Note_on_c,58,76,4,2,1,67.0,False
43192,3579, Note_on_c,63,76,4,2,1,73.0,False
43193,3579, Note_on_c,66,76,4,2,1,77.0,False
43194,3580, Note_on_c,65,76,4,2,1,76.0,True
43195,3580, Note_on_c,68,76,4,2,1,79.0,False
43196,3581, Note_on_c,63,76,4,2,1,73.0,False
43197,3581, Note_on_c,66,76,4,2,1,77.0,False
43198,3582, Note_on_c,65,76,4,2,1,76.0,True
43199,3582, Note_on_c,70,76,4,2,1,81.0,False
43200,3583, Note_on_c,58,76,4,2,1,67.0,False
43201,3584, Note_on_c,63,76,4,2,1,73.0,False
43202,3584, Note_on_c,66,76,4,2,1,77.0,False
43203,3585, Note_on_c,65,76,4,2,1,76.0,True
43204,3585, Note_on_c,68,76,4,2,1,79.0,False
43205,3586, Note_on_c,58,76,4,2,1,67.0,False
43206,3587, Note_on_c,63,76,4,2,1,73.0,False
43207,3587, Note_on_c,66,76,4,2,1,77.0,False
43208,3588, Note_on_c,65,76,4,2,1,76.0,True
43209,3588, Note_on_c,68,76,4,2,1,79.0,False
43210,3589, Note_on_c,63,76,4,2,1,73.0,False
43211,3589, Note_on_c,66,76,4,2,1,77.0,False
43212,3590, Note_on_c,65,76,4,2,1,76.0,True
43213,3590, Note_on_c,70,76,4,2,1,81.0,False
43214,3591, Note_on_c,58,76,4,2,1,67.0,False
43215,3592, Note_on_c,63,76,4,2,1,73.0,False
43216,3592, Note_on_c,66,76,4,2,1,77.0,False
43217,3593, Note_on_c,65,76,4,2,1,76.0,True
43218,3593, Note_on_c,68,76,4,2,1,79.0,False
43219,3594, Note_on_c,58,76,4,2,1,67.0,False
43220,3595, Note_on_c,63,76,4,2,1,73.0,False
43221,3595, Note_on_c,66,76,4,2,1,77.0,False
43222,3596, Note_on_c,65,76,4,2,1,76.0,True
43223,3596, Note_on_c,68,76,4,2,1,79.0,False
43224,3597, Note_on_c,63,76,4,2,1,73.0,False
43225,3597, Note_on_c,66,76,4,2,1,77.0,False
43226,3598, Note_on_c,65,76,4,2,1,76.0,True
43227,3598, Note_on_c,70,76,4,2,1,81.0,False
43228,3599, Note_on_c,58,76,4,2,1,67.0,False
43229,3600, Note_on_c,63,76,4,2,1,73.0,False
43230,3600, Note_on_c,66,76,4,2,1,77.0,False
43231,3601, Note_on_c,65,76,4,2,1,76.0,True
43232,3601, Note_on_c,68,76,4,2,1,79.0,False
43233,3602, Note_on_c,58,76,4,2,1,67.0,False
43234,3603, Note_on_c,63,76,4,2,1,73.0,False
43235,3603, Note_on_c,66,76,4,2,1,77.0,False
43236,3604, Note_on_c,65,76,4,2,1,76.0,True
43237,3604, Note_on_c,68,76,4,2,1,79.0,False
43238,3605, Note_on_c,63,76,4,2,1,73.0,False
43239,3605, Note_on_c,66,76,4,2,1,77.0,False
43240,3606, Note_on_c,65,76,4,2,1,76.0,True
43241,3606, Note_on_c,70,76,4,2,1,81.0,False
43242,3607, Note_on_c,58,76,4,2,1,67.0,False
43243,3608, Note_on_c,63,76,4,2,1,73.0,False
43244,3608, Note_on_c,66,76,4,2,1,77.0,False
43245,3609, Note_on_c,65,76,4,2,1,76.0,True
43246,3609, Note_on_c,68,76,4,2,1,79.0,False
43247,3610, Note_on_c,58,76,4,2,1,67.0,False
43248,3611, Note_on_c,63,76,4,2,1,73.0,False
43249,3611, Note_on_c,66,76,4,2,1,77.0,False
43250,3612, Note_on_c,65,76,4,2,1,76.0,True
43251,3612, Note_on_c,68,76,4,2,1,79.0,False
43252,3613, Note_on_c,63,76,4,2,1,73.0,False
43253,3613, Note_on_c,66,76,4,2,1,77.0,False
43254,3614, Note_on_c,65,76,4,2,1,76.0,True
43255,3614, Note_on_c,70,76,4,2,1,81.0,False
43256,3615, Note_on_c,58,76,4,2,1,67.0,False
43257,3616, Note_on_c,63,76,4,2,1,73.0,False
43258,3616, Note_on_c,66,76,4,2,1,77.0,False
43259,3617, Note_on_c,65,76,4,2,1,76.0,True
43260,3617, Note_on_c,68,76,4,2,1,79.0,False
43261,3618, Note_on_c,58,76,4,2,1,67.0,False
43262,3619, Note_on_c,63,76,4,2,1,73.0,False
43263,3619, Note_on_c,66,76,4,2,1,77.0,False
43264,3620, Note_on_c,65,76,4,2,1,76.0,True
43265,3620, Note_on_c,68,76,4,2,1,79.0,False
43266,3621, Note_on_c,63,76,4,2,1,73.0,False
43267,3621, Note_on_c,66,76,4,2,1,77.0,False
43268,3622, Note_on_c,65,76,4,2,1,76.0,True
43269,3622, Note_on_c,70,76,4,2,1,81.0,False
43270,3623, Note_on_c,58,76,4,2,1,67.0,False
43271,3624, Note_on_c,63,76,4,2,1,73.0,False
43272,3624, Note_on_c,66,76,4,2,1,77.0,False
43273,3625, Note_on_c,65,76,4,2,1,76.0,True
43274,3625, Note_on_c,68,76,4,2,1,79.0,False
43275,3626, Note_on_c,58,76,4,2,1,67.0,False
43276,3627, Note_on_c,63,76,4,2,1,73.0,False
43277,3627, Note_on_c,66,76,4,2,1,77.0,False
43278,3628, Note_on_c,65,76,4,2,1,76.0,True
43279,3628, Note_on_c,68,76,4,2,1,79.0,False
43280,3629, Note_on_c,63,76,4,2,1,73.0,False
43281,3629, Note_on_c,66,76,4,2,1,77.0,False
43282,3630, Note_on_c,65,76,4,2,1,76.0,True
43283,3630, Note_on_c,70,76,4,2,1,81.0,False
43284,3631, Note_on_c,58,76,4,2,1,67.0,False
43285,3632, Note_on_c,63,76,4,2,1,73.0,False
43286,3632, Note_on_c,66,76,4,2,1,77.0,False
43287,3633, Note_on_c,65,76,4,2,1,76.0,True
43288,3633, Note_on_c,68,76,4,2,1,79.0,False
43289,3634, Note_on_c,58,76,4,2,1,67.0,False
43290,3635, Note_on_c,63,76,4,2,1,73.0,False
43291,3635, Note_on_c,66,76,4,2,1,77.0,False
43292,3636, Note_on_c,65,76,4,2,1,76.0,True
43293,3636, Note_on_c,68,76,4,2,1,79.0,False
43294,3637, Note_on_c,63,76,4,2,1,73.0,False
43295,3637, Note_on_c,66,76,4,2,1,77.0,False
43296,3638, Note_on_c,65,76,4,2,1,76.0,True
43297,3638, Note_on_c,70,76,4,2,1,81.0,False
43298,3639, Note_on_c,58,76,4,2,1,67.0,False
43299,3640, Note_on_c,63,76,4,2,1,73.0,False
43300,3640, Note_on_c,66,76,4,2,1,77.0,False
43301,3641, Note_on_c,65,76,4,2,1,76.0,True
43302,3641, Note_on_c,68,76,4,2,1,79.0,False
43303,3642, Note_on_c,58,76,4,2,1,67.0,False
43304,3643, Note_on_c,63,76,4,2,1,73.0,False
43305,3643, Note_on_c,66,76,4,2,1,77.0,False
43306,3644, Note_on_c,65,76,4,2,1,76.0,True
43307,3644, Note_on_c,68,76,4,2,1,79.0,False
43308,3645, Note_on_c,63,76,4,2,1,73.0,False
43309,3645, Note_on_c,66,76,4,2,1,77.0,False
43310,3646, Note_on_c,65,76,4,2,1,76.0,True
43311,3646, Note_on_c,70,76,4,2,1,81.0,False
43312,3647, Note_on_c,58,76,4,2,1,67.0,False
43313,3648, Note_on_c,63,76,4,2,1,73.0,False
43314,3648, Note_on_c,66,76,4,2,1,77.0,False
43315,3649, Note_on_c,65,76,4,2,1,76.0,True
43316,3649, Note_on_c,68,76,4,2,1,79.0,False
43317,3650, Note_on_c,58,76,4,2,1,67.0,False
43318,3651, Note_on_c,63,76,4,2,1,73.0,False
43319,3651, Note_on_c,66,76,4,2,1,77.0,False
43320,3652, Note_on_c,65,76,4,2,1,76.0,True
43321,3652, Note_on_c,68,76,4,2,1,79.0,False
43322,3653, Note_on_c,63,76,4,2,1,73.0,False
43323,3653, Note_on_c,66,76,4,2,1,77.0,False
43324,3654, Note_on_c,65,76,4,2,1,76.0,True
43325,3654, Note_on_c,70,76,4,2,1,81.0,False
43326,3655, Note_on_c,58,76,4,2,1,67.0,False
43327,3656, Note_on_c,63,76,4,2,1,73.0,False
43328,3656, Note_on_c,66,76,4,2,1,77.0,False
43329,3657, Note_on_c,65,76,4,2,1,76.0,True
43330,3657, Note_on_c,68,76,4,2,1,79.0,False
43331,3658, Note_on_c,58,76,4,2,1,67.0,False
43332,3659, Note_on_c,63,76,4,2,1,73.0,False
43333,3659, Note_on_c,66,76,4,2,1,77.0,False
43334,3660, Note_on_c,65,76,4,2,1,76.0,True
43335,3660, Note_on_c,68,76,4,2,1,79.0,False
43336,3661, Note_on_c,63,76,4,2,1,73.0,False
43337,3661, Note_on_c,66,76,4,2,1,77.0,False
43338,3662, Note_on_c,65,76,4,2,1,76.0,True
43339,3662, Note_on_c,70,76,4,2,1,81.0,False
43340,3663, Note_on_c,58,76,4,2,1,67.0,False
43341,3664, Note_on_c,63,76,4,2,1,73.0,False
43342,3664, Note_on_c,66,76,4,2,1,77.0,False
43343,3665, Note_on_c,65,76,4,2,1,76.0,True
43344,3665, Note_on_c,68,76,4,2,1,79.0,False
43345,3666, Note_on_c,58,76,4,2,1,67.0,False
43346,3667, Note_on_c,63,76,4,2,1,73.0,False
43347,3667, Note_on_c,66,76,4,2,1,77.0,False
43348,3668, Note_on_c,65,76,4,2,1,76.0,True
43349,3668, Note_on_c,68,76,4,2,1,79.0,False
43350,3669, Note_on_c,63,76,4,2,1,73.0,False
43351,3669, Note_on_c,66,76,4,2,1,77.0,False
43352,3670, Note_on_c,65,76,4,2,1,76.0,True
43353,3670, Note_on_c,70,76,4,2,1,81.0,False
43354,3671, Note_on_c,58,76,4,2,1,67.0,False
43355,3672, Note_on_c,63,76,4,2,1,73.0,False
43356,3672, Note_on_c,66,76,4,2,1,77.0,False
43357,3673, Note_on_c,65,76,4,2,1,76.0,True
43358,3673, Note_on_c,68,76,4,2,1,79.0,False
43359,3674, Note_on_c,58,76,4,2,1,67.0,False
43360,3675, Note_on_c,63,76,4,2,1,73.0,False
43361,3675, Note_on_c,66,76,4,2,1,77.0,False
43362,3676, Note_on_c,65,76,4,2,1,76.0,True
43363,3676, Note_on_c,68,76,4,2,1,79.0,False
43364,3677, Note_on_c,63,76,4,2,1,73.0,False
43365,3677, Note_on_c,66,76,4,2,1,77.0,False
43366,3678, Note_on_c,65,76,4,2,1,76.0,True
43367,3678, Note_on_c,70,76,4,2,1,81.0,False
43368,3679, Note_on_c,58,76,4,2,1,67.0,False
43369,3680, Note_on_c,63,76,4,2,1,73.0,False
43370,3680, Note_on_c,66,76,4,2,1,77.0,False
43371,3681, Note_on_c,65,76,4,2,1,76.0,True
43372,3681, Note_on_c,68,76,4,2,1,79.0,False
43373,3682, Note_on_c,58,76,4,2,1,67.0,False
43374,3683, Note_on_c,63,76,4,2,1,73.0,False
43375,3683, Note_on_c,66,76,4,2,1,77.0,False
43376,3684, Note_on_c,65,76,4,2,1,76.0,True
43377,3684, Note_on_c,68,76,4,2,1,79.0,False
43378,3685, Note_on_c,63,76,4,2,1,73.0,False
43379,3685, Note_on_c,66,76,4,2,1,77.0,False
43380,3686, Note_on_c,65,76,4,2,1,76.0,True
43381,3686, Note_on_c,70,76,4,2,1,81.0,False
43382,3687, Note_on_c,58,76,4,2,1,67.0,False
43383,3688, Note_on_c,63,76,4,2,1,73.0,False
43384,3688, Note_on_c,66,76,4,2,1,77.0,False
43385,3689, Note_on_c,65,76,4,2,1,76.0,True
43386,3689, Note_on_c,68,76,4,2,1,79.0,False
43387,3690, Note_on_c,58,76,4,2,1,67.0,False
43388,3691, Note_on_c,63,76,4,2,1,73.0,False
43389,3691, Note_on_c,66,76,4,2,1,77.0,False
43390,3692, Note_on_c,65,76,4,2,1,76.0,True
43391,3692, Note_on_c,68,76,4,2,1,79.0,False
43392,3693, Note_on_c,63,76,4,2,1,73.0,False
43393,3693, Note_on_c,66,76,4,2,1,77.0,False
43394,3694, Note_on_c,65,76,4,2,1,76.0,True
43395,3694, Note_on_c,70,76,4,2,1,81.0,False
43396,3695, Note_on_c,58,76,4,2,1,67.0,False
43397,3696, Note_on_c,63,76,4,2,1,73.0,False
43398,3696, Note_on_c,66,76,4,2,1,77.0,False
43399,3697, Note_on_c,65,76,4,2,1,76.0,True
43400,3697, Note_on_c,68,76,4,2,1,79.0,False
43401,3698, Note_on_c,58,76,4,2,1,67.0,False
43402,3699, Note_on_c,63,76,4,2,1,73.0,False
43403,3699, Note_on_c,66,76,4,2,1,77.0,False
43404,3700, Note_on_c,65,76,4,2,1,76.0,True
43405,3700, Note_on_c,68,76,4,2,1,79.0,False
43406,3701, Note_on_c,63,76,4,2,1,73.0,False
43407,3701, Note_on_c,66,76,4,2,1,77.0,False
43408,3702, Note_on_c,65,76,4,2,1,76.0,True
43409,3702, Note_on_c,70,76,4,2,1,81.0,False
43410,3703, Note_on_c,58,76,4,2,1,67.0,False
43411,3704, Note_on_c,63,76,4,2,1,73.0,False
43412,3704, Note_on_c,66,76,4,2,1,77.0,False
43413,3705, Note_on_c,65,76,4,2,1,76.0,True
43414,3705, Note_on_c,68,76,4,2,1,79.0,False
43415,3706, Note_on_c,58,76,4,2,1,67.0,False
43416,3707, Note_on_c,63,76,4,2,1,73.0,False
43417,3707, Note_on_c,66,76,4,2,1,77.0,False
43418,3708, Note_on_c,65,76,4,2,1,76.0,True
43419,3708, Note_on_c,68,76,4,2,1,79.0,False
43420,3709, Note_on_c,63,76,4,2,1,73.0,False
43421,3709, Note_on_c,66,76,4,2,1,77.0,False
43422,3710, Note_on_c,65,76,4,2,1,76.0,True
43423,3710, Note_on_c,70,76,4,2,1,81.0,False
43424,3711, Note_on_c,58,76,4,2,1,67.0,False
43425,3712, Note_on_c,63,76,4,2,1,73.0,False
43426,3712, Note_on_c,66,76,4,2,1,77.0,False
43427,3713, Note_on_c,65,76,4,2,1,76.0,True
43428,3713, Note_on_c,68,76,4,2,1,79.0,False
43429,3714, Note_on_c,58,76,4,2,1,67.0,False
43430,3715, Note_on_c,63,76,4,2,1,73.0,False
43431,3715, Note_on_c,66,76,4,2,1,77.0,False
43432,3716, Note_on_c,65,76,4,2,1,76.0,True
43433,3716, Note_on_c,68,76,4,2,1,79.0,False
43434,3717, Note_on_c,63,76,4,2,1,73.0,False
43435,3717, Note_on_c,66,76,4,2,1,77.0,False
43436,3718, Note_on_c,65,76,4,2,1,76.0,True
43437,3718, Note_on_c,70,76,4,2,1,81.0,False
43438,3719, Note_on_c,58,76,4,2,1,67.0,False
43439,3720, Note_on_c,63,76,4,2,1,73.0,False
43440,3720, Note_on_c,66,76,4,2,1,77.0,False
43441,3721, Note_on_c,65,76,4,2,1,76.0,True
43442,3721, Note_on_c,68,76,4,2,1,79.0,False
43443,3722, Note_on_c,58,76,4,2,1,67.0,False
43444,3723, Note_on_c,63,76,4,2,1,73.0,False
43445,3723, Note_on_c,66,76,4,2,1,77.0,False
43446,3724, Note_on_c,65,76,4,2,1,76.0,True
43447,3724, Note_on_c,68,76,4,2,1,79.0,False
43448,3725, Note_on_c,63,76,4,2,1,73.0,False
43449,3725, Note_on_c,66,76,4,2,1,77.0,False
43450,3726, Note_on_c,65,76,4,2,1,76.0,True
43451,3726, Note_on_c,70,76,4,2,1,81.0,False
43452,3727, Note_on_c,58,76,4,2,1,67.0,False
43453,3728, Note_on_c,63,76,4,2,1,73.0,False
43454,3728, Note_on_c,66,76,4,2,1,77.0,False
43455,3729, Note_on_c,65,76,4,2,1,76.0,True
43456,3729, Note_on_c,68,76,4,2,1,79.0,False
43457,3730, Note_on_c,58,76,4,2,1,67.0,False
43458,3731, Note_on_c,63,76,4,2,1,73.0,False
43459,3731, Note_on_c,66,76,4,2,1,77.0,False
43460,3732, Note_on_c,65,76,4,2,1,76.0,True
43461,3732, Note_on_c,68,76,4,2,1,79.0,False
43462,3733, Note_on_c,63,76,4,2,1,73.0,False
43463,3733, Note_on_c,66,76,4,2,1,77.0,False
43464,3734, Note_on_c,65,76,4,2,1,76.0,True
43465,3734, Note_on_c,70,76,4,2,1,81.0,False
43466,3735, Note_on_c,58,76,4,2,1,67.0,False
43467,3736, Note_on_c,63,76,4,2,1,73.0,False
43468,3736, Note_on_c,66,76,4,2,1,77.0,False
43469,3737, Note_on_c,65,76,4,2,1,76.0,True
43470,3737, Note_on_c,68,76,4,2,1,79.0,False
43471,3738, Note_on_c,58,76,4,2,1,67.0,False
43472,3739, Note_on_c,63,76,4,2,1,73.0,False
43473,3739, Note_on_c,66,76,4,2,1,77.0,False
43474,3740, Note_on_c,65,76,4,2,1,76.0,True
43475,3740, Note_on_c,68,76,4,2,1,79.0,False
43476,3741, Note_on_c,63,76,4,2,1,73.0,False
43477,3741, Note_on_c,66,76,4,2,1,77.0,False
43478,3742, Note_on_c,65,76,4,2,1,76.0,True
43479,3742, Note_on_c,70,76,4,2,1,81.0,False
43480,3743, Note_on_c,58,76,4,2,1,67.0,False
43481,3744, Note_on_c,63,76,4,2,1,73.0,False
43482,3744, Note_on_c,66,76,4,2,1,77.0,False
43483,3745, Note_on_c,65,76,4,2,1,76.0,True
43484,3745, Note_on_c,68,76,4,2,1,79.0,False
43485,3746, Note_on_c,58,76,4,2,1,67.0,False
43486,3747, Note_on_c,63,76,4,2,1,73.0,False
43487,3747, Note_on_c,66,76,4,2,1,77.0,False
43488,3748, Note_on_c,65,76,4,2,1,76.0,True
43489,3748, Note_on_c,68,76,4,2,1,79.0,False
43490,3749, Note_on_c,63,76,4,2,1,73.0,False
43491,3749, Note_on_c,66,76,4,2,1,77.0,False
43492,3750, Note_on_c,65,76,4,2,1,76.0,True
43493,3750, Note_on_c,70,76,4,2,1,81.0,False
43494,3751, Note_on_c,58,76,4,2,1,67.0,False
43495,3752, Note_on_c,63,76,4,2,1,73.0,False
43496,3752, Note_on_c,66,76,4,2,1,77.0,False
43497,3753, Note_on_c,65,76,4,2,1,76.0,True
43498,3753, Note_on_c,68,76,4,2,1,79.0,False
43499,3754, Note_on_c,58,76,4,2,1,67.0,False
43500,3755, Note_on_c,63,76,4,2,1,73.0,False
43501,3755, Note_on_c,66,76,4,2,1,77.0,False
43502,3756, Note_on_c,65,76,4,2,1,76.0,True
43503,3756, Note_on_c,68,76,4,2,1,79.0,False
43504,3757, Note_on_c,63,76,4,2,1,73.0,False
43505,3757, Note_on_c,66,76,4,2,1,77.0,False
43506,3758, Note_on_c,65,76,4,2,1,76.0,True
43507,3758, Note_on_c,70,76,4,2,1,81.0,False
43508,3759, Note_on_c,58,76,4,2,1,67.0,False
43509,3760, Note_on_c,63,76,4,2,1,73.0,False
43510,3760, Note_on_c,66,76,4,2,1,77.0,False
43511,3761, Note_on_c,65,76,4,2,1,76.0,True
43512,3761, Note_on_c,68,76,4,2,1,79.0,False
43513,3762, Note_on_c,58,76,4,2,1,67.0,False
43514,3763, Note_on_c,63,76,4,2,1,73.0,False
43515,3763, Note_on_c,66,76,4,2,1,77.0,False
43516,3764, Note_on_c,65,76,4,2,1,76.0,True
43517,3764, Note_on_c,68,76,4,2,1,79.0,False
43518,3765, Note_on_c,63,76,4,2,1,73.0,False
43519,3765, Note_on_c,66,76,4,2,1,77.0,False
43520,3766, Note_on_c,65,76,4,2,1,76.0,True
43521,3766, Note_on_c,70,76,4,2,1,81.0,False
43522,3767, Note_on_c,58,76,4,2,1,67.0,False
43523,3768, Note_on_c,63,76,4,2,1,73.0,False
43524,3768, Note_on_c,66,76,4,2,1,77.0,False
43525,3769, Note_on_c,65,76,4,2,1,76.0,True
43526,3769, Note_on_c,68,76,4,2,1,79.0,False
43527,3770, Note_on_c,58,76,4,2,1,67.0,False
43528,3771, Note_on_c,63,76,4,2,1,73.0,False
43529,3771, Note_on_c,66,76,4,2,1,77.0,False
43530,3772, Note_on_c,65,76,4,2,1,76.0,True
43531,3772, Note_on_c,68,76,4,2,1,79.0,False
43532,3773, Note_on_c,63,76,4,2,1,73.0,False
43533,3773, Note_on_c,66,76,4,2,1,77.0,False
43534,3774, Note_on_c,65,76,4,2,1,76.0,True
43535,3774, Note_on_c,70,76,4,2,1,81.0,False
43536,3775, Note_on_c,58,76,4,2,1,67.0,False
43537,3776, Note_on_c,63,76,4,2,1,73.0,False
43538,3776, Note_on_c,66,76,4,2,1,77.0,False
43539,3777, Note_on_c,65,76,4,2,1,76.0,True
43540,3777, Note_on_c,68,76,4,2,1,79.0,False
43541,3778, Note_on_c,58,76,4,2,1,67.0,False
43542,3779, Note_on_c,63,76,4,2,1,73.0,False
43543,3779, Note_on_c,66,76,4,2,1,77.0,False
43544,3780, Note_on_c,65,76,4,2,1,76.0,True
43545,3780, Note_on_c,68,76,4,2,1,79.0,False
43546,3781, Note_on_c,63,76,4,2,1,73.0,False
43547,3781, Note_on_c,66,76,4,2,1,77.0,False
43548,3782, Note_on_c,65,76,4,2,1,76.0,True
43549,3782, Note_on_c,70,76,4,2,1,81.0,False
43550,3783, Note_on_c,58,76,4,2,1,67.0,False
43551,3784, Note_on_c,63,76,4,2,1,73.0,False
43552,3784, Note_on_c,66,76,4,2,1,77.0,False
43553,3785, Note_on_c,65,76,4,2,1,76.0,True
43554,3785, Note_on_c,68,76,4,2,1,79.0,False
43555,3786, Note_on_c,58,76,4,2,1,67.0,False
43556,3787, Note_on_c,63,76,4,2,1,73.0,False
43557,3787, Note_on_c,66,76,4,2,1,77.0,False
43558,3788, Note_on_c,65,76,4,2,1,76.0,True
43559,3788, Note_on_c,68,76,4,2,1,79.0,False
43560,3789, Note_on_c,63,76,4,2,1,73.0,False
43561,3789, Note_on_c,66,76,4,2,1,77.0,False
43562,3790, Note_on_c,65,76,4,2,1,76.0,True
43563,3790, Note_on_c,70,76,4,2,1,81.0,False
43564,3791, Note_on_c,58,76,4,2,1,67.0,False
43565,3792, Note_on_c,63,76,4,2,1,73.0,False
43566,3792, Note_on_c,66,76,4,2,1,77.0,False
43567,3793, Note_on_c,65,76,4,2,1,76.0,True
43568,3793, Note_on_c,68,76,4,2,1,79.0,False
43569,3794, Note_on_c,58,76,4,2,1,67.0,False
43570,3795, Note_on_c,63,76,4,2,1,73.0,False
43571,3795, Note_on_c,66,76,4,2,1,77.0,False
43572,3796, Note_on_c,65,76,4,2,1,76.0,True
43573,3796, Note_on_c,68,76,4,2,1,79.0,False
43574,3797, Note_on_c,63,76,4,2,1,73.0,False
43575,3797, Note_on_c,66,76,4,2,1,77.0,False
43576,3798, Note_on_c,65,76,4,2,1,76.0,True
43577,3798, Note_on_c,70,76,4,2,1,81.0,False
43578,3799, Note_on_c,58,76,4,2,1,67.0,False
43579,3800, Note_on_c,63,76,4,2,1,73.0,False
43580,3800, Note_on_c,66,76,4,2,1,77.0,False
43581,3801, Note_on_c,65,76,4,2,1,76.0,True
43582,3801, Note_on_c,68,76,4,2,1,79.0,False
43583,3802, Note_on_c,58,76,4,2,1,67.0,False
43584,3803, Note_on_c,63,76,4,2,1,73.0,False
43585,3803, Note_on_c,66,76,4,2,1,77.0,False
43586,3804, Note_on_c,65,76,4,2,1,76.0,True
43587,3804, Note_on_c,68,76,4,2,1,79.0,False
43588,3805, Note_on_c,63,76,4,2,1,73.0,False
43589,3805, Note_on_c,66,76,4,2,1,77.0,False
43590,3806, Note_on_c,65,76,4,2,1,76.0,True
43591,3806, Note_on_c,70,76,4,2,1,81.0,False
43592,3807, Note_on_c,58,76,4,2,1,67.0,False
43593,3808, Note_on_c,63,76,4,2,1,73.0,False
43594,3808, Note_on_c,66,76,4,2,1,77.0,False
43595,3809, Note_on_c,65,76,4,2,1,76.0,True
43596,3809, Note_on_c,68,76,4,2,1,79.0,False
43597,3810, Note_on_c,58,76,4,2,1,67.0,False
43598,3811, Note_on_c,63,76,4,2,1,73.0,False
43599,3811, Note_on_c,66,76,4,2,1,77.0,False
43600,3812, Note_on_c,65,76,4,2,1,76.0,True
43601,3812, Note_on_c,68,76,4,2,1,79.0,False
43602,3813, Note_on_c,63,76,4,2,1,73.0,False
43603,3813, Note_on_c,66,76,4,2,1,77.0,False
43604,3814, Note_on_c,65,76,4,2,1,76.0,True
43605,3814, Note_on_c,70,76,4,2,1,81.0,False
43606,3815, Note_on_c,58,76,4,2,1,67.0,False
43607,3816, Note_on_c,63,76,4,2,1,73.0,False
43608,3816, Note_on_c,66,76,4,2,1,77.0,False
43609,3817, Note_on_c,65,76,4,2,1,76.0,True
43610,3817, Note_on_c,68,76,4,2,1,79.0,False
43611,3818, Note_on_c,58,76,4,2,1,67.0,False
43612,3819, Note_on_c,63,76,4,2,1,73.0,False
43613,3819, Note_on_c,66,76,4,2,1,77.0,False
43614,3820, Note_on_c,65,76,4,2,1,76.0,True
43615,3820, Note_on_c,68,76,4,2,1,79.0,False
43616,3821, Note_on_c,63,76,4,2,1,73.0,False
43617,3821, Note_on_c,66,76,4,2,1,77.0,False
43618,3822, Note_on_c,65,76,4,2,1,76.0,True
43619,3822, Note_on_c,70,76,4,2,1,81.0,False
43620,3823, Note_on_c,58,76,4,2,1,67.0,False
43621,3824, Note_on_c,63,76,4,2,1,73.0,False
43622,3824, Note_on_c,66,76,4,2,1,77.0,False
43623,3825, Note_on_c,65,76,4,2,1,76.0,True
43624,3825, Note_on_c,68,76,4,2,1,79.0,False
43625,3826, Note_on_c,58,76,4,2,1,67.0,False
43626,3827, Note_on_c,63,76,4,2,1,73.0,False
43627,3827, Note_on_c,66,76,4,2,1,77.0,False
43628,3828, Note_on_c,65,76,4,2,1,76.0,True
43629,3828, Note_on_c,68,76,4,2,1,79.0,False
43630,3829, Note_on_c,63,76,4,2,1,73.0,False
43631,3829, Note_on_c,66,76,4,2,1,77.0,False
43632,3830, Note_on_c,65,76,4,2,1,76.0,True
43633,3830, Note_on_c,70,76,4,2,1,81.0,False
43634,3831, Note_on_c,58,76,4,2,1,67.0,False
43635,3832, Note_on_c,63,76,4,2,1,73.0,False
43636,3832, Note_on_c,66,76,4,2,1,77.0,False
43637,3833, Note_on_c,65,76,4,2,1,76.0,True
43638,3833, Note_on_c,68,76,4,2,1,79.0,False
43639,3834, Note_on_c,58,76,4,2,1,67.0,False
43640,3835, Note_on_c,63,76,4,2,1,73.0,False
43641,3835, Note_on_c,66,76,4,2,1,77.0,False
43642,3836, Note_on_c,65,76,4,2,1,76.0,True
43643,3836, Note_on_c,68,76,4,2,1,79.0,False
43644,3837, Note_on_c,63,76,4,2,1,73.0,False
43645,3837, Note_on_c,66,76,4,2,1,77.0,False
43646,3838, Note_on_c,65,76,4,2,1,76.0,True
43647,3838, Note_on_c,70,76,4,2,1,81.0,False
43648,3839, Note_on_c,58,76,4,2,1,67.0,False
43649,3840, Note_on_c,63,76,4,2,1,73.0,False
43650,3840, Note_on_c,66,76,4,2,1,77.0,False
43651,3841, Note_on_c,65,76,4,2,1,76.0,True
43652,3841, Note_on_c,68,76,4,2,1,79.0,False
43653,3842, Note_on_c,58,76,4,2,1,67.0,False
43654,3843, Note_on_c,63,76,4,2,1,73.0,False
43655,3843, Note_on_c,66,76,4,2,1,77.0,False
43656,3844, Note_on_c,65,76,4,2,1,76.0,True
43657,3844, Note_on_c,68,76,4,2,1,79.0,False
43658,3845, Note_on_c,63,76,4,2,1,73.0,False
43659,3845, Note_on_c,66,76,4,2,1,77.0,False
43660,3846, Note_on_c,65,76,4,2,1,76.0,True
43661,3846, Note_on_c,70,76,4,2,1,81.0,False
43662,3847, Note_on_c,58,76,4,2,1,67.0,False
43663,3848, Note_on_c,63,76,4,2,1,73.0,False
43664,3848, Note_on_c,66,76,4,2,1,77.0,False
43665,3849, Note_on_c,65,76,4,2,1,76.0,True
43666,3849, Note_on_c,68,76,4,2,1,79.0,False
43667,3850, Note_on_c,58,76,4,2,1,67.0,False
43668,3851, Note_on_c,63,76,4,2,1,73.0,False
43669,3851, Note_on_c,66,76,4,2,1,77.0,False
43670,3852, Note_on_c,65,76,4,2,1,76.0,True
43671,3852, Note_on_c,68,76,4,2,1,79.0,False
43672,3853, Note_on_c,63,76,4,2,1,73.0,False
43673,3853, Note_on_c,66,76,4,2,1,77.0,False
43674,3854, Note_on_c,65,76,4,2,1,76.0,True
43675,3854, Note_on_c,70,76,4,2,1,81.0,False
43676,3855, Note_on_c,58,76,4,2,1,67.0,False
43677,3856, Note_on_c,63,76,4,2,1,73.0,False
43678,3856, Note_on_c,66,76,4,2,1,77.0,False
43679,3857, Note_on_c,65,76,4,2,1,76.0,True
43680,3857, Note_on_c,68,76,4,2,1,79.0,False
43681,3858, Note_on_c,58,76,4,2,1,67.0,False
43682,3859, Note_on_c,63,76,4,2,1,73.0,False
43683,3859, Note_on_c,66,76,4,2,1,77.0,False
43684,3860, Note_on_c,65,76,4,2,1,76.0,True
43685,3860, Note_on_c,68,76,4,2,1,79.0,False
43686,3861, Note_on_c,63,76,4,2,1,73.0,False
43687,3861, Note_on_c,66,76,4,2,1,77.0,False
43688,3862, Note_on_c,65,76,4,2,1,76.0,True
43689,3862, Note_on_c,70,76,4,2,1,81.0,False
43690,3863, Note_on_c,58,76,4,2,1,67.0,False
43691,3864, Note_on_c,63,76,4,2,1,73.0,False
43692,3864, Note_on_c,66,76,4,2,1,77.0,False
43693,3865, Note_on_c,65,76,4,2,1,76.0,True
43694,3865, Note_on_c,68,76,4,2,1,79.0,False
43695,3866, Note_on_c,58,76,4,2,1,67.0,False
43696,3867, Note_on_c,63,76,4,2,1,73.0,False
43697,3867, Note_on_c,66,76,4,2,1,77.0,False
43698,3868, Note_on_c,65,76,4,2,1,76.0,True
43699,3868, Note_on_c,68,76,4,2,1,79.0,False
43700,3869, Note_on_c,63,76,4,2,1,73.0,False
43701,3869, Note_on_c,66,76,4,2,1,77.0,False
43702,3870, Note_on_c,65,76,4,2,1,76.0,True
43703,3870, Note_on_c,70,76,4,2,1,81.0,False
43704,3871, Note_on_c,58,76,4,2,1,67.0,False
43705,3872, Note_on_c,63,76,4,2,1,73.0,False
43706,3872, Note_on_c,66,76,4,2,1,77.0,False
43707,3873, Note_on_c,65,76,4,2,1,76.0,True
43708,3873, Note_on_c,68,76,4,2,1,79.0,False
43709,3874, Note_on_c,58,76,4,2,1,67.0,False
43710,3875, Note_on_c,63,76,4,2,1,73.0,False
43711,3875, Note_on_c,66,76,4,2,1,77.0,False
43712,3876, Note_on_c,65,76,4,2,1,76.0,True
43713,3876, Note_on_c,68,76,4,2,1,79.0,False
43714,3877, Note_on_c,63,76,4,2,1,73.0,False
43715,3877, Note_on_c,66,76,4,2,1,77.0,False
43716,3878, Note_on_c,65,76,4,2,1,76.0,True
43717,3878, Note_on_c,70,76,4,2,1,81.0,False
43718,3879, Note_on_c,58,76,4,2,1,67.0,False
43719,3880, Note_on_c,63,76,4,2,1,73.0,False
43720,3880, Note_on_c,66,76,4,2,1,77.0,False
43721,3881, Note_on_c,65,76,4,2,1,76.0,True
43722,3881, Note_on_c,68,76,4,2,1,79.0,False
43723,3882, Note_on_c,58,76,4,2,1,67.0,False
43724,3883, Note_on_c,63,76,4,2,1,73.0,False
43725,3883, Note_on_c,66,76,4,2,1,77.0,False
43726,3884, Note_on_c,65,76,4,2,1,76.0,True
43727,3884, Note_on_c,68,76,4,2,1,79.0,False
43728,3885, Note_on_c,63,76,4,2,1,73.0,False
43729,3885, Note_on_c,66,76,4,2,1,77.0,False
43730,3886, Note_on_c,65,76,4,2,1,76.0,True
43731,3886, Note_on_c,70,76,4,2,1,81.0,False
43732,3887, Note_on_c,58,76,4,2,1,67.0,False
43733,3888, Note_on_c,63,76,4,2,1,73.0,False
43734,3888, Note_on_c,66,76,4,2,1,77.0,False
43735,3889, Note_on_c,65,76,4,2,1,76.0,True
43736,3889, Note_on_c,68,76,4,2,1,79.0,False
43737,3890, Note_on_c,58,76,4,2,1,67.0,False
43738,3891, Note_on_c,63,76,4,2,1,73.0,False
43739,3891, Note_on_c,66,76,4,2,1,77.0,False
43740,3892, Note_on_c,65,76,4,2,1,76.0,True
43741,3892, Note_on_c,68,76,4,2,1,79.0,False
43742,3893, Note_on_c,63,76,4,2,1,73.0,False
43743,3893, Note_on_c,66,76,4,2,1,77.0,False
43744,3894, Note_on_c,65,76,4,2,1,76.0,True
43745,3894, Note_on_c,70,76,4,2,1,81.0,False
43746,3895, Note_on_c,58,76,4,2,1,67.0,False
43747,3896, Note_on_c,63,76,4,2,1,73.0,False
43748,3896, Note_on_c,66,76,4,2,1,77.0,False
43749,3897, Note_on_c,65,76,4,2,1,76.0,True
43750,3897, Note_on_c,68,76,4,2,1,79.0,False
43751,3898, Note_on_c,58,76,4,2,1,67.0,False
43752,3899, Note_on_c,63,76,4,2,1,73.0,False
43753,3899, Note_on_c,66,76,4,2,1,77.0,False
43754,3900, Note_on_c,65,76,4,2,1,76.0,True
43755,3900, Note_on_c,68,76,4,2,1,79.0,False
43756,3901, Note_on_c,63,76,4,2,1,73.0,False
43757,3901, Note_on_c,66,76,4,2,1,77.0,False
43758,3902, Note_on_c,65,76,4,2,1,76.0,True
43759,3902, Note_on_c,70,76,4,2,1,81.0,False
43760,3903, Note_on_c,58,76,4,2,1,67.0,False
43761,3904, Note_on_c,63,76,4,2,1,73.0,False
43762,3904, Note_on_c,66,76,4,2,1,77.0,False
43763,3905, Note_on_c,65,76,4,2,1,76.0,True
43764,3905, Note_on_c,68,76,4,2,1,79.0,False
43765,3906, Note_on_c,58,76,4,2,1,67.0,False
43766,3907, Note_on_c,63,76,4,2,1,73.0,False
43767,3907, Note_on_c,66,76,4,2,1,77.0,False
43768,3908, Note_on_c,65,76,4,2,1,76.0,True
43769,3908, Note_on_c,68,76,4,2,1,79.0,False
43770,3909, Note_on_c,63,76,4,2,1,73.0,False
43771,3909, Note_on_c,66,76,4,2,1,77.0,False
43772,3910, Note_on_c,65,76,4,2,1,76.0,True
43773,3910, Note_on_c,70,76,4,2,1,81.0,False
43774,3911, Note_on_c,58,76,4,2,1,67.0,False
43775,3912, Note_on_c,63,76,4,2,1,73.0,False
43776,3912, Note_on_c,66,76,4,2,1,77.0,False
43777,3913, Note_on_c,65,76,4,2,1,76.0,True
43778,3913, Note_on_c,68,76,4,2,1,79.0,False
43779,3914, Note_on_c,58,76,4,2,1,67.0,False
43780,3915, Note_on_c,63,76,4,2,1,73.0,False
43781,3915, Note_on_c,66,76,4,2,1,77.0,False
43782,3916, Note_on_c,65,76,4,2,1,76.0,True
43783,3916, Note_on_c,68,76,4,2,1,79.0,False
43784,3917, Note_on_c,63,76,4,2,1,73.0,False
43785,3917, Note_on_c,66,76,4,2,1,77.0,False
43786,3918, Note_on_c,65,76,4,2,1,76.0,True
43787,3918, Note_on_c,70,76,4,2,1,81.0,False
43788,3919, Note_on_c,58,76,4,2,1,67.0,False
43789,3920, Note_on_c,63,76,4,2,1,73.0,False
43790,3920, Note_on_c,66,76,4,2,1,77.0,False
43791,3921, Note_on_c,65,76,4,2,1,76.0,True
43792,3921, Note_on_c,68,76,4,2,1,79.0,False
43793,3922, Note_on_c,58,76,4,2,1,67.0,False
43794,3923, Note_on_c,63,76,4,2,1,73.0,False
43795,3923, Note_on_c,66,76,4,2,1,77.0,False
43796,3924, Note_on_c,65,76,4,2,1,76.0,True
43797,3924, Note_on_c,68,76,4,2,1,79.0,False
43798,3925, Note_on_c,63,76,4,2,1,73.0,False
43799,3925, Note_on_c,66,76,4,2,1,77.0,False
43800,3926, Note_on_c,65,76,4,2,1,76.0,True
43801,3926, Note_on_c,70,76,4,2,1,81.0,False
43802,3927, Note_on_c,58,76,4,2,1,67.0,False
43803,3928, Note_on_c,63,76,4,2,1,73.0,False
43804,3928, Note_on_c,66,76,4,2,1,77.0,False
43805,3929, Note_on_c,65,76,4,2,1,76.0,True
43806,3929, Note_on_c,68,76,4,2,1,79.0,False
43807,3930, Note_on_c,58,76,4,2,1,67.0,False
43808,3931, Note_on_c,63,76,4,2,1,73.0,False
43809,3931, Note_on_c,66,76,4,2,1,77.0,False
43810,3932, Note_on_c,65,76,4,2,1,76.0,True
43811,3932, Note_on_c,68,76,4,2,1,79.0,False
43812,3933, Note_on_c,63,76,4,2,1,73.0,False
43813,3933, Note_on_c,66,76,4,2,1,77.0,False
43814,3934, Note_on_c,65,76,4,2,1,76.0,True
43815,3934, Note_on_c,70,76,4,2,1,81.0,False
43816,3935, Note_on_c,58,76,4,2,1,67.0,False
43817,3936, Note_on_c,63,76,4,2,1,73.0,False
43818,3936, Note_on_c,66,76,4,2,1,77.0,False
43819,3937, Note_on_c,65,76,4,2,1,76.0,True
43820,3937, Note_on_c,68,76,4,2,1,79.0,False
43821,3938, Note_on_c,58,76,4,2,1,67.0,False
43822,3939, Note_on_c,63,76,4,2,1,73.0,False
43823,3939, Note_on_c,66,76,4,2,1,77.0,False
43824,3940, Note_on_c,65,76,4,2,1,76.0,True
43825,3940, Note_on_c,68,76,4,2,1,79.0,False
43826,3941, Note_on_c,63,76,4,2,1,73.0,False
43827,3941, Note_on_c,66,76,4,2,1,77.0,False
43828,3942, Note_on_c,65,76,4,2,1,76.0,True
43829,3942, Note_on_c,70,76,4,2,1,81.0,False
43830,3943, Note_on_c,58,76,4,2,1,67.0,False
43831,3944, Note_on_c,63,76,4,2,1,73.0,False
43832,3944, Note_on_c,66,76,4,2,1,77.0,False
43833,3945, Note_on_c,65,76,4,2,1,76.0,True
43834,3945, Note_on_c,68,76,4,2,1,79.0,False
43835,3946, Note_on_c,58,76,4,2,1,67.0,False
43836,3947, Note_on_c,63,76,4,2,1,73.0,False
43837,3947, Note_on_c,66,76,4,2,1,77.0,False
43838,3948, Note_on_c,65,76,4,2,1,76.0,True
43839,3948, Note_on_c,68,76,4,2,1,79.0,False
43840,3949, Note_on_c,63,76,4,2,1,73.0,False
43841,3949, Note_on_c,66,76,4,2,1,77.0,False
43842,3950, Note_on_c,65,76,4,2,1,76.0,True
43843,3950, Note_on_c,70,76,4,2,1,81.0,False
43844,3951, Note_on_c,58,76,4,2,1,67.0,False
43845,3952, Note_on_c,63,76,4,2,1,73.0,False
43846,3952, Note_on_c,66,76,4,2,1,77.0,False
43847,3953, Note_on_c,65,76,4,2,1,76.0,True
43848,3953, Note_on_c,68,76,4,2,1,79.0,False
43849,3954, Note_on_c,58,76,4,2,1,67.0,False
43850,3955, Note_on_c,63,76,4,2,1,73.0,False
43851,3955, Note_on_c,66,76,4,2,1,77.0,False
43852,3956, Note_on_c,65,76,4,2,1,76.0,True
43853,3956, Note_on_c,68,76,4,2,1,79.0,False
43854,3957, Note_on_c,63,76,4,2,1,73.0,False
43855,3957, Note_on_c,66,76,4,2,1,77.0,False
43856,3958, Note_on_c,65,76,4,2,1,76.0,True
43857,3958, Note_on_c,70,76,4,2,1,81.0,False
43858,3959, Note_on_c,58,76,4,2,1,67.0,False
43859,3960, Note_on_c,63,76,4,2,1,73.0,False
43860,3960, Note_on_c,66,76,4,2,1,77.0,False
43861,3961, Note_on_c,65,76,4,2,1,76.0,True
43862,3961, Note_on_c,68,76,4,2,1,79.0,False
43863,3962, Note_on_c,58,76,4,2,1,67.0,False
43864,3963, Note_on_c,63,76,4,2,1,73.0,False
43865,3963, Note_on_c,66,76,4,2,1,77.0,False
43866,3964, Note_on_c,65,76,4,2,1,76.0,True
43867,3964, Note_on_c,68,76,4,2,1,79.0,False
43868,3965, Note_on_c,63,76,4,2,1,73.0,False
43869,3965, Note_on_c,66,76,4,2,1,77.0,False
43870,3966, Note_on_c,65,76,4,2,1,76.0,True
43871,3966, Note_on_c,70,76,4,2,1,81.0,False
43872,3967, Note_on_c,58,76,4,2,1,67.0,False
43873,3968, Note_on_c,63,76,4,2,1,73.0,False
43874,3968, Note_on_c,66,76,4,2,1,77.0,False
43875,3969, Note_on_c,65,76,4,2,1,76.0,True
43876,3969, Note_on_c,68,76,4,2,1,79.0,False
43877,3970, Note_on_c,58,76,4,2,1,67.0,False
43878,3971, Note_on_c,63,76,4,2,1,73.0,False
43879,3971, Note_on_c,66,76,4,2,1,77.0,False
43880,3972, Note_on_c,65,76,4,2,1,76.0,True
43881,3972, Note_on_c,68,76,4,2,1,79.0,False
43882,3973, Note_on_c,63,76,4,2,1,73.0,False
43883,3973, Note_on_c,66,76,4,2,1,77.0,False
43884,3974, Note_on_c,65,76,4,2,1,76.0,True
43885,3974, Note_on_c,70,76,4,2,1,81.0,False
43886,3975, Note_on_c,58,76,4,2,1,67.0,False
43887,3976, Note_on_c,63,76,4,2,1,73.0,False
43888,3976, Note_on_c,66,76,4,2,1,77.0,False
43889,3977, Note_on_c,65,76,4,2,1,76.0,True
43890,3977, Note_on_c,68,76,4,2,1,79.0,False
43891,3978, Note_on_c,58,76,4,2,1,67.0,False
43892,3979, Note_on_c,63,76,4,2,1,73.0,False
43893,3979, Note_on_c,66,76,4,2,1,77.0,False
43894,3980, Note_on_c,65,76,4,2,1,76.0,True
43895,3980, Note_on_c,68,76,4,2,1,79.0,False
43896,3981, Note_on_c,63,76,4,2,1,73.0,False
43897,3981, Note_on_c,66,76,4,2,1,77.0,False
43898,3982, Note_on_c,65,76,4,2,1,76.0,True
43899,3982, Note_on_c,70,76,4,2,1,81.0,False
43900,3983, Note_on_c,58,76,4,2,1,67.0,False
43901,3984, Note_on_c,63,76,4,2,1,73.0,False
43902,3984, Note_on_c,66,76,4,2,1,77.0,False
43903,3985, Note_on_c,65,76,4,2,1,76.0,True
43904,3985, Note_on_c,68,76,4,2,1,79.0,False
43905,3986, Note_on_c,58,76,4,2,1,67.0,False
43906,3987, Note_on_c,63,76,4,2,1,73.0,False
43907,3987, Note_on_c,66,76,4,2,1,77.0,False
43908,3988, Note_on_c,65,76,4,2,1,76.0,True
43909,3988, Note_on_c,68,76,4,2,1,79.0,False
43910,3989, Note_on_c,63,76,4,2,1,73.0,False
43911,3989, Note_on_c,66,76,4,2,1,77.0,False
43912,3990, Note_on_c,65,76,4,2,1,76.0,True
43913,3990, Note_on_c,70,76,4,2,1,81.0,False
43914,3991, Note_on_c,58,76,4,2,1,67.0,False
43915,3992, Note_on_c,63,76,4,2,1,73.0,False
43916,3992, Note_on_c,66,76,4,2,1,77.0,False
43917,3993, Note_on_c,65,76,4,2,1,76.0,True
43918,3993, Note_on_c,68,76,4,2,1,79.0,False
43919,3994, Note_on_c,58,76,4,2,1,67.0,False
43920,3995, Note_on_c,63,76,4,2,1,73.0,False
43921,3995, Note_on_c,66,76,4,2,1,77.0,False
43922,3996, Note_on_c,65,76,4,2,1,76.0,True
43923,3996, Note_on_c,68,76,4,2,1,79.0,False
43924,3997, Note_on_c,63,76,4,2,1,73.0,False
43925,3997, Note_on_c,66,76,4,2,1,77.0,False
43926,3998, Note_on_c,65,76,4,2,1,76.0,True
43927,3998, Note_on_c,70,76,4,2,1,81.0,False
43928,3999, Note_on_c,58,76,4,2,1,67.0,False
43929,4000, Note_on_c,63,76,4,2,1,73.0,False
43930,4000, Note_on_c,66,76,4,2,1,77.0,False
43931,4001, Note_on_c,65,76,4,2,1,76.0,True
43932,4001, Note_on_c,68,76,4,2,1,79.0,False
43933,4002, Note_on_c,58,76,4,2,1,67.0,False
43934,4003, Note_on_c,63,76,4,2,1,73.0,False
43935,4003, Note_on_c,66,76,4,2,1,77.0,False
43936,4004, Note_on_c,65,76,4,2,1,76.0,True
43937,4004, Note_on_c,68,76,4,2,1,79.0,False
43938,4005, Note_on_c,63,76,4,2,1,73.0,False
43939,4005, Note_on_c,66,76,4,2,1,77.0,False
43940,4006, Note_on_c,65,76,4,2,1,76.0,True
43941,4006, Note_on_c,70,76,4,2,1,81.0,False
43942,4007, Note_on_c,58,76,4,2,1,67.0,False
43943,4008, Note_on_c,63,76,4,2,1,73.0,False
43944,4008, Note_on_c,66,76,4,2,1,77.0,False
43945,4009, Note_on_c,65,76,4,2,1,76.0,True
43946,4009, Note_on_c,68,76,4,2,1,79.0,False
43947,4010, Note_on_c,58,76,4,2,1,67.0,False
43948,4011, Note_on_c,63,76,4,2,1,73.0,False
43949,4011, Note_on_c,66,76,4,2,1,77.0,False
43950,4012, Note_on_c,65,76,4,2,1,76.0,True
43951,4012, Note_on_c,68,76,4,2,1,79.0,False
43952,4013, Note_on_c,63,76,4,2,1,73.0,False
43953,4013, Note_on_c,66,76,4,2,1,77.0,False
43954,4014, Note_on_c,65,76,4,2,1,76.0,True
43955,4014, Note_on_c,70,76,4,2,1,81.0,False
43956,4015, Note_on_c,58,76,4,2,1,67.0,False
43957,4016, Note_on_c,63,76,4,2,1,73.0,False
43958,4016, Note_on_c,66,76,4,2,1,77.0,False
43959,4017, Note_on_c,65,76,4,2,1,76.0,True
43960,4017, Note_on_c,68,76,4,2,1,79.0,False
43961,4018, Note_on_c,58,76,4,2,1,67.0,False
43962,4019, Note_on_c,63,76,4,2,1,73.0,False
43963,4019, Note_on_c,66,76,4,2,1,77.0,False
43964,4020, Note_on_c,65,76,4,2,1,76.0,True
43965,4020, Note_on_c,68,76,4,2,1,79.0,False
43966,4021, Note_on_c,63,76,4,2,1,73.0,False
43967,4021, Note_on_c,66,76,4,2,1,77.0,False
43968,4022, Note_on_c,65,76,4,2,1,76.0,True
43969,4022, Note_on_c,70,76,4,2,1,81.0,False
43970,4023, Note_on_c,58,76,4,2,1,67.0,False
43971,4024, Note_on_c,63,76,4,2,1,73.0,False
43972,4024, Note_on_c,66,76,4,2,1,77.0,False
43973,4025, Note_on_c,65,76,4,2,1,76.0,True
43974,4025, Note_on_c,68,76,4,2,1,79.0,False
43975,4026, Note_on_c,58,76,4,2,1,67.0,False
43976,4027, Note_on_c,63,76,4,2,1,73.0,False
43977,4027, Note_on_c,66,76,4,2,1,77.0,False
43978,4028, Note_on_c,65,76,4,2,1,76.0,True
43979,4028, Note_on_c,68,76,4,2,1,79.0,False
43980,4029, Note_on_c,63,76,4,2,1,73.0,False
43981,4029, Note_on_c,66,76,4,2,1,77.0,False
43982,4030, Note_on_c,65,76,4,2,1,76.0,True
43983,4030, Note_on_c,70,76,4,2,1,81.0,False
43984,4031, Note_on_c,58,76,4,2,1,67.0,False
43985,4032, Note_on_c,63,76,4,2,1,73.0,False
43986,4032, Note_on_c,66,76,4,2,1,77.0,False
43987,4033, Note_on_c,65,76,4,2,1,76.0,True
43988,4033, Note_on_c,68,76,4,2,1,79.0,False
43989,4034, Note_on_c,58,76,4,2,1,67.0,False
43990,4035, Note_on_c,63,76,4,2,1,73.0,False
43991,4035, Note_on_c,66,76,4,2,1,77.0,False
43992,4036, Note_on_c,65,76,4,2,1,76.0,True
43993,4036, Note_on_c,68,76,4,2,1,79.0,False
43994,4037, Note_on_c,63,76,4,2,1,73.0,False
43995,4037, Note_on_c,66,76,4,2,1,77.0,False
43996,4038, Note_on_c,65,76,4,2,1,76.0,True
43997,4038, Note_on_c,70,76,4,2,1,81.0,False
43998,4039, Note_on_c,58,76,4,2,1,67.0,False
43999,4040, Note_on_c,63,76,4,2,1,73.0,False
44000,4040, Note_on_c,66,76,4,2,1,77.0,False
44001,4041, Note_on_c,65,76,4,2,1,76.0,True
44002,4041, Note_on_c,68,76,4,2,1,79.0,False
44003,4042, Note_on_c,58,76,4,2,1,67.0,False
44004,4043, Note_on_c,63,76,4,2,1,73.0,False
44005,4043, Note_on_c,66,76,4,2,1,77.0,False
44006,4044, Note_on_c,65,76,4,2,1,76.0,True
44007,4044, Note_on_c,68,76,4,2,1,79.0,False
44008,4045, Note_on_c,63,76,4,2,1,73.0,False
44009,4045, Note_on_c,66,76,4,2,1,77.0,False
44010,4046, Note_on_c,65,76,4,2,1,76.0,True
44011,4046, Note_on_c,70,76,4,2,1,81.0,False
44012,4047, Note_on_c,58,76,4,2,1,67.0,False
44013,4048, Note_on_c,63,76,4,2,1,73.0,False
44014,4048, Note_on_c,66,76,4,2,1,77.0,False
44015,4049, Note_on_c,65,76,4,2,1,76.0,True
44016,4049, Note_on_c,68,76,4,2,1,79.0,False
44017,4050, Note_on_c,58,76,4,2,1,67.0,False
44018,4051, Note_on_c,63,76,4,2,1,73.0,False
44019,4051, Note_on_c,66,76,4,2,1,77.0,False
44020,4052, Note_on_c,65,76,4,2,1,76.0,True
44021,4052, Note_on_c,68,76,4,2,1,79.0,False
44022,4053, Note_on_c,63,76,4,2,1,73.0,False
44023,4053, Note_on_c,66,76,4,2,1,77.0,False
44024,4054, Note_on_c,65,76,4,2,1,76.0,True
44025,4054, Note_on_c,70,76,4,2,1,81.0,False
44026,4055, Note_on_c,58,76,4,2,1,67.0,False
44027,4056, Note_on_c,63,76,4,2,1,73.0,False
44028,4056, Note_on_c,66,76,4,2,1,77.0,False
44029,4057, Note_on_c,65,76,4,2,1,76.0,True
44030,4057, Note_on_c,68,76,4,2,1,79.0,False
44031,4058, Note_on_c,58,76,4,2,1,67.0,False
44032,4059, Note_on_c,63,76,4,2,1,73.0,False
44033,4059, Note_on_c,66,76,4,2,1,77.0,False
44034,4060, Note_on_c,65,76,4,2,1,76.0,True
44035,4060, Note_on_c,68,76,4,2,1,79.0,False
44036,4061, Note_on_c,63,76,4,2,1,73.0,False
44037,4061, Note_on_c,66,76,4,2,1,77.0,False
44038,4062, Note_on_c,65,76,4,2,1,76.0,True
44039,4062, Note_on_c,70,76,4,2,1,81.0,False
44040,4063, Note_on_c,58,76,4,2,1,67.0,False
44041,4064, Note_on_c,63,76,4,2,1,73.0,False
44042,4064, Note_on_c,66,76,4,2,1,77.0,False
44043,4065, Note_on_c,65,76,4,2,1,76.0,True
44044,4065, Note_on_c,68,76,4,2,1,79.0,False
44045,4066, Note_on_c,58,76,4,2,1,67.0,False
44046,4067, Note_on_c,63,76,4,2,1,73.0,False
44047,4067, Note_on_c,66,76,4,2,1,77.0,False
44048,4068, Note_on_c,65,76,4,2,1,76.0,True
44049,4068, Note_on_c,68,76,4,2,1,79.0,False
44050,4069, Note_on_c,63,76,4,2,1,73.0,False
44051,4069, Note_on_c,66,76,4,2,1,77.0,False
44052,4070, Note_on_c,65,76,4,2,1,76.0,True
44053,4070, Note_on_c,70,76,4,2,1,81.0,False
44054,4071, Note_on_c,58,76,4,2,1,67.0,False
44055,4072, Note_on_c,63,76,4,2,1,73.0,False
44056,4072, Note_on_c,66,76,4,2,1,77.0,False
44057,4073, Note_on_c,65,76,4,2,1,76.0,True
44058,4073, Note_on_c,68,76,4,2,1,79.0,False
44059,4074, Note_on_c,58,76,4,2,1,67.0,False
44060,4075, Note_on_c,63,76,4,2,1,73.0,False
44061,4075, Note_on_c,66,76,4,2,1,77.0,False
44062,4076, Note_on_c,65,76,4,2,1,76.0,True
44063,4076, Note_on_c,68,76,4,2,1,79.0,False
44064,4077, Note_on_c,63,76,4,2,1,73.0,False
44065,4077, Note_on_c,66,76,4,2,1,77.0,False
44066,4078, Note_on_c,65,76,4,2,1,76.0,True
44067,4078, Note_on_c,70,76,4,2,1,81.0,False
44068,4079, Note_on_c,58,76,4,2,1,67.0,False
44069,4080, Note_on_c,63,76,4,2,1,73.0,False
44070,4080, Note_on_c,66,76,4,2,1,77.0,False
44071,4081, Note_on_c,65,76,4,2,1,76.0,True
44072,4081, Note_on_c,68,76,4,2,1,79.0,False
44073,4082, Note_on_c,58,76,4,2,1,67.0,False
44074,4083, Note_on_c,63,76,4,2,1,73.0,False
44075,4083, Note_on_c,66,76,4,2,1,77.0,False
44076,4084, Note_on_c,65,76,4,2,1,76.0,True
44077,4084, Note_on_c,68,76,4,2,1,79.0,False
44078,4085, Note_on_c,63,76,4,2,1,73.0,False
44079,4085, Note_on_c,66,76,4,2,1,77.0,False
44080,4086, Note_on_c,65,76,4,2,1,76.0,True
44081,4086, Note_on_c,70,76,4,2,1,81.0,False
44082,4087, Note_on_c,58,76,4,2,1,67.0,False
44083,4088, Note_on_c,63,76,4,2,1,73.0,False
44084,4088, Note_on_c,66,76,4,2,1,77.0,False
44085,4089, Note_on_c,65,76,4,2,1,76.0,True
44086,4089, Note_on_c,68,76,4,2,1,79.0,False
44087,4090, Note_on_c,58,76,4,2,1,67.0,False
44088,4091, Note_on_c,63,76,4,2,1,73.0,False
44089,4091, Note_on_c,66,76,4,2,1,77.0,False
44090,4092, Note_on_c,65,76,4,2,1,76.0,True
44091,4092, Note_on_c,68,76,4,2,1,79.0,False
44092,4093, Note_on_c,63,76,4,2,1,73.0,False
44093,4093, Note_on_c,66,76,4,2,1,77.0,False
44094,4094, Note_on_c,65,76,4,2,1,76.0,True
44095,4094, Note_on_c,70,76,4,2,1,81.0,False
44096,4095, Note_on_c,58,76,4,2,1,67.0,False
44097,4096, Note_on_c,63,76,4,2,1,73.0,False
44098,4096, Note_on_c,66,76,4,2,1,77.0,False
44099,4097, Note_on_c,65,76,4,2,1,76.0,True
44100,4097, Note_on_c,68,76,4,2,1,79.0,False
44101,4098, Note_on_c,58,76,4,2,1,67.0,False
44102,4099, Note_on_c,63,76,4,2,1,73.0,False
44103,4099, Note_on_c,66,76,4,2,1,77.0,False
44104,4100, Note_on_c,65,76,4,2,1,76.0,True
44105,4100, Note_on_c,68,76,4,2,1,79.0,False
44106,4101, Note_on_c,63,76,4,2,1,73.0,False
44107,4101, Note_on_c,66,76,4,2,1,77.0,False
44108,4102, Note_on_c,65,76,4,2,1,76.0,True
44109,4102, Note_on_c,70,76,4,2,1,81.0,False
44110,4103, Note_on_c,58,76,4,2,1,67.0,False
44111,4104, Note_on_c,63,76,4,2,1,73.0,False
44112,4104, Note_on_c,66,76,4,2,1,77.0,False
44113,4105, Note_on_c,65,76,4,2,1,76.0,True
44114,4105, Note_on_c,68,76,4,2,1,79.0,False
44115,4106, Note_on_c,58,76,4,2,1,67.0,False
44116,4107, Note_on_c,63,76,4,2,1,73.0,False
44117,4107, Note_on_c,66,76,4,2,1,77.0,False
44118,4108, Note_on_c,65,76,4,2,1,76.0,True
44119,4108, Note_on_c,68,76,4,2,1,79.0,False
44120,4109, Note_on_c,63,76,4,2,1,73.0,False
44121,4109, Note_on_c,66,76,4,2,1,77.0,False
44122,4110, Note_on_c,65,76,4,2,1,76.0,True
44123,4110, Note_on_c,70,76,4,2,1,81.0,False
44124,4111, Note_on_c,58,76,4,2,1,67.0,False
44125,4112, Note_on_c,63,76,4,2,1,73.0,False
44126,4112, Note_on_c,66,76,4,2,1,77.0,False
44127,4113, Note_on_c,65,76,4,2,1,76.0,True
44128,4113, Note_on_c,68,76,4,2,1,79.0,False
44129,4114, Note_on_c,58,76,4,2,1,67.0,False
44130,4115, Note_on_c,63,76,4,2,1,73.0,False
44131,4115, Note_on_c,66,76,4,2,1,77.0,False
44132,4116, Note_on_c,65,76,4,2,1,76.0,True
44133,4116, Note_on_c,68,76,4,2,1,79.0,False
44134,4117, Note_on_c,63,76,4,2,1,73.0,False
44135,4117, Note_on_c,66,76,4,2,1,77.0,False
44136,4118, Note_on_c,65,76,4,2,1,76.0,True
44137,4118, Note_on_c,70,76,4,2,1,81.0,False
44138,4119, Note_on_c,58,76,4,2,1,67.0,False
44139,4120, Note_on_c,63,76,4,2,1,73.0,False
44140,4120, Note_on_c,66,76,4,2,1,77.0,False
44141,4121, Note_on_c,65,76,4,2,1,76.0,True
44142,4121, Note_on_c,68,76,4,2,1,79.0,False
44143,4122, Note_on_c,58,76,4,2,1,67.0,False
44144,4123, Note_on_c,63,76,4,2,1,73.0,False
44145,4123, Note_on_c,66,76,4,2,1,77.0,False
44146,4124, Note_on_c,65,76,4,2,1,76.0,True
44147,4124, Note_on_c,68,76,4,2,1,79.0,False
44148,4125, Note_on_c,63,76,4,2,1,73.0,False
44149,4125, Note_on_c,66,76,4,2,1,77.0,False
44150,4126, Note_on_c,65,76,4,2,1,76.0,True
44151,4126, Note_on_c,70,76,4,2,1,81.0,False
44152,4127, Note_on_c,58,76,4,2,1,67.0,False
44153,4128, Note_on_c,63,76,4,2,1,73.0,False
44154,4128, Note_on_c,66,76,4,2,1,77.0,False
44155,4129, Note_on_c,65,76,4,2,1,76.0,True
44156,4129, Note_on_c,68,76,4,2,1,79.0,False
44157,4130, Note_on_c,58,76,4,2,1,67.0,False
44158,4131, Note_on_c,63,76,4,2,1,73.0,False
44159,4131, Note_on_c,66,76,4,2,1,77.0,False
44160,4132, Note_on_c,65,76,4,2,1,76.0,True
44161,4132, Note_on_c,68,76,4,2,1,79.0,False
44162,4133, Note_on_c,63,76,4,2,1,73.0,False
44163,4133, Note_on_c,66,76,4,2,1,77.0,False
44164,4134, Note_on_c,65,76,4,2,1,76.0,True
44165,4134, Note_on_c,70,76,4,2,1,81.0,False
44166,4135, Note_on_c,58,76,4,2,1,67.0,False
44167,4136, Note_on_c,63,76,4,2,1,73.0,False
44168,4136, Note_on_c,66,76,4,2,1,77.0,False
44169,4137, Note_on_c,65,76,4,2,1,76.0,True
44170,4137, Note_on_c,68,76,4,2,1,79.0,False
44171,4138, Note_on_c,58,76,4,2,1,67.0,False
44172,4139, Note_on_c,63,76,4,2,1,73.0,False
44173,4139, Note_on_c,66,76,4,2,1,77.0,False
44174,4140, Note_on_c,65,76,4,2,1,76.0,True
44175,4140, Note_on_c,68,76,4,2,1,79.0,False
44176,4141, Note_on_c,63,76,4,2,1,73.0,False
44177,4141, Note_on_c,66,76,4,2,1,77.0,False
44178,4142, Note_on_c,65,76,4,2,1,76.0,True
44179,4142, Note_on_c,70,76,4,2,1,81.0,False
44180,4143, Note_on_c,58,76,4,2,1,67.0,False
44181,4144, Note_on_c,63,76,4,2,1,73.0,False
44182,4144, Note_on_c,66,76,4,2,1,77.0,False
44183,4145, Note_on_c,65,76,4,2,1,76.0,True
44184,4145, Note_on_c,68,76,4,2,1,79.0,False
44185,4146, Note_on_c,58,76,4,2,1,67.0,False
44186,4147, Note_on_c,63,76,4,2,1,73.0,False
44187,4147, Note_on_c,66,76,4,2,1,77.0,False
44188,4148, Note_on_c,65,76,4,2,1,76.0,True
44189,4148, Note_on_c,68,76,4,2,1,79.0,False
44190,4149, Note_on_c,63,76,4,2,1,73.0,False
44191,4149, Note_on_c,66,76,4,2,1,77.0,False
44192,4150, Note_on_c,65,76,4,2,1,76.0,True
44193,4150, Note_on_c,70,76,4,2,1,81.0,False
44194,4151, Note_on_c,58,76,4,2,1,67.0,False
44195,4152, Note_on_c,63,76,4,2,1,73.0,False
44196,4152, Note_on_c,66,76,4,2,1,77.0,False
44197,4153, Note_on_c,65,76,4,2,1,76.0,True
44198,4153, Note_on_c,68,76,4,2,1,79.0,False
44199,4154, Note_on_c,58,76,4,2,1,67.0,False
44200,4155, Note_on_c,63,76,4,2,1,73.0,False
44201,4155, Note_on_c,66,76,4,2,1,77.0,False
44202,4156, Note_on_c,65,76,4,2,1,76.0,True
44203,4156, Note_on_c,68,76,4,2,1,79.0,False
44204,4157, Note_on_c,63,76,4,2,1,73.0,False
44205,4157, Note_on_c,66,76,4,2,1,77.0,False
44206,4158, Note_on_c,65,76,4,2,1,76.0,True
44207,4158, Note_on_c,70,76,4,2,1,81.0,False
44208,4159, Note_on_c,58,76,4,2,1,67.0,False
44209,4160, Note_on_c,63,76,4,2,1,73.0,False
44210,4160, Note_on_c,66,76,4,2,1,77.0,False
44211,4161, Note_on_c,65,76,4,2,1,76.0,True
44212,4161, Note_on_c,68,76,4,2,1,79.0,False
44213,4162, Note_on_c,58,76,4,2,1,67.0,False
44214,4163, Note_on_c,63,76,4,2,1,73.0,False
44215,4163, Note_on_c,66,76,4,2,1,77.0,False
44216,4164, Note_on_c,65,76,4,2,1,76.0,True
44217,4164, Note_on_c,68,76,4,2,1,79.0,False
44218,4165, Note_on_c,63,76,4,2,1,73.0,False
44219,4165, Note_on_c,66,76,4,2,1,77.0,False
44220,4166, Note_on_c,65,76,4,2,1,76.0,True
44221,4166, Note_on_c,70,76,4,2,1,81.0,False
44222,4167, Note_on_c,58,76,4,2,1,67.0,False
44223,4168, Note_on_c,63,76,4,2,1,73.0,False
44224,4168, Note_on_c,66,76,4,2,1,77.0,False
44225,4169, Note_on_c,65,76,4,2,1,76.0,True
44226,4169, Note_on_c,68,76,4,2,1,79.0,False
44227,4170, Note_on_c,58,76,4,2,1,67.0,False
44228,4171, Note_on_c,63,76,4,2,1,73.0,False
44229,4171, Note_on_c,66,76,4,2,1,77.0,False
44230,4172, Note_on_c,65,76,4,2,1,76.0,True
44231,4172, Note_on_c,68,76,4,2,1,79.0,False
44232,4173, Note_on_c,63,76,4,2,1,73.0,False
44233,4173, Note_on_c,66,76,4,2,1,77.0,False
44234,4174, Note_on_c,65,76,4,2,1,76.0,True
44235,4174, Note_on_c,70,76,4,2,1,81.0,False
44236,4175, Note_on_c,58,76,4,2,1,67.0,False
44237,4176, Note_on_c,63,76,4,2,1,73.0,False
44238,4176, Note_on_c,66,76,4,2,1,77.0,False
44239,4177, Note_on_c,65,76,4,2,1,76.0,True
44240,4177, Note_on_c,68,76,4,2,1,79.0,False
44241,4178, Note_on_c,58,76,4,2,1,67.0,False
44242,4179, Note_on_c,63,76,4,2,1,73.0,False
44243,4179, Note_on_c,66,76,4,2,1,77.0,False
44244,4180, Note_on_c,65,76,4,2,1,76.0,True
44245,4180, Note_on_c,68,76,4,2,1,79.0,False
44246,4181, Note_on_c,63,76,4,2,1,73.0,False
44247,4181, Note_on_c,66,76,4,2,1,77.0,False
44248,4182, Note_on_c,65,76,4,2,1,76.0,True
44249,4182, Note_on_c,70,76,4,2,1,81.0,False
44250,4183, Note_on_c,58,76,4,2,1,67.0,False
44251,4184, Note_on_c,63,76,4,2,1,73.0,False
44252,4184, Note_on_c,66,76,4,2,1,77.0,False
44253,4185, Note_on_c,63,108,4,2,1,73.0,False
44254,4185, Note_on_c,66,108,4,2,1,77.0,False
44255,4186, Note_on_c,65,108,4,2,1,76.0,True
44256,4186, Note_on_c,68,108,4,2,1,79.0,False
44257,4187, Note_on_c,63,108,4,2,1,73.0,False
44258,4187, Note_on_c,66,108,4,2,1,77.0,False
44259,4188, Note_on_c,65,108,4,2,1,76.0,True
44260,4188, Note_on_c,70,108,4,2,1,81.0,False
44261,4189, Note_on_c,58,108,4,2,1,67.0,False
44262,4190, Note_on_c,63,108,4,2,1,73.0,False
44263,4190, Note_on_c,66,108,4,2,1,77.0,False
44264,4191, Note_on_c,65,108,4,2,1,76.0,True
44265,4191, Note_on_c,68,108,4,2,1,79.0,False
44266,4192, Note_on_c,58,108,4,2,1,67.0,False
44267,4193, Note_on_c,63,108,4,2,1,73.0,False
44268,4193, Note_on_c,66,108,4,2,1,77.0,False
44269,4194, Note_on_c,65,108,4,2,1,76.0,True
44270,4194, Note_on_c,68,108,4,2,1,79.0,False
44271,4195, Note_on_c,63,108,4,2,1,73.0,False
44272,4195, Note_on_c,66,108,4,2,1,77.0,False
44273,4196, Note_on_c,65,108,4,2,1,76.0,True
44274,4196, Note_on_c,70,108,4,2,1,81.0,False
44275,4197, Note_on_c,58,108,4,2,1,67.0,False
44276,4198, Note_on_c,63,108,4,2,1,73.0,False
44277,4198, Note_on_c,66,108,4,2,1,77.0,False
44278,4199, Note_on_c,65,108,4,2,1,76.0,True
44279,4199, Note_on_c,68,108,4,2,1,79.0,False
44280,4200, Note_on_c,58,108,4,2,1,67.0,False
44281,4201, Note_on_c,63,108,4,2,1,73.0,False
44282,4201, Note_on_c,66,108,4,2,1,77.0,False
44283,4202, Note_on_c,65,108,4,2,1,76.0,True
44284,4202, Note_on_c,68,108,4,2,1,79.0,False
44285,4203, Note_on_c,63,108,4,2,1,73.0,False
44286,4203, Note_on_c,66,108,4,2,1,77.0,False
44287,4204, Note_on_c,65,108,4,2,1,76.0,True
44288,4204, Note_on_c,70,108,4,2,1,81.0,False
44289,4205, Note_on_c,58,108,4,2,1,67.0,False
44290,4206, Note_on_c,63,108,4,2,1,73.0,False
44291,4206, Note_on_c,66,108,4,2,1,77.0,False
44292,4207, Note_on_c,65,108,4,2,1,76.0,True
44293,4207, Note_on_c,68,108,4,2,1,79.0,False
44294,4208, Note_on_c,58,108,4,2,1,67.0,False
44295,4209, Note_on_c,63,108,4,2,1,73.0,False
44296,4209, Note_on_c,66,108,4,2,1,77.0,False
44297,4210, Note_on_c,65,108,4,2,1,76.0,True
44298,4210, Note_on_c,68,108,4,2,1,79.0,False
44299,4211, Note_on_c,63,108,4,2,1,73.0,False
44300,4211, Note_on_c,66,108,4,2,1,77.0,False
44301,4212, Note_on_c,65,108,4,2,1,76.0,True
44302,4212, Note_on_c,70,108,4,2,1,81.0,False
44303,4213, Note_on_c,58,108,4,2,1,67.0,False
44304,4214, Note_on_c,63,108,4,2,1,73.0,False
44305,4214, Note_on_c,66,108,4,2,1,77.0,False
44306,4215, Note_on_c,65,108,4,2,1,76.0,True
44307,4215, Note_on_c,68,108,4,2,1,79.0,False
44308,4216, Note_on_c,58,108,4,2,1,67.0,False
44309,4217, Note_on_c,63,108,4,2,1,73.0,False
44310,4217, Note_on_c,66,108,4,2,1,77.0,False
44311,4218, Note_on_c,65,108,4,2,1,76.0,True
44312,4218, Note_on_c,68,108,4,2,1,79.0,False
44313,4219, Note_on_c,63,108,4,2,1,73.0,False
44314,4219, Note_on_c,66,108,4,2,1,77.0,False
44315,4220, Note_on_c,65,108,4,2,1,76.0,True
44316,4220, Note_on_c,70,108,4,2,1,81.0,False
44317,4221, Note_on_c,58,108,4,2,1,67.0,False
44318,4222, Note_on_c,63,108,4,2,1,73.0,False
44319,4222, Note_on_c,66,108,4,2,1,77.0,False
44320,4223, Note_on_c,65,108,4,2,1,76.0,True
44321,4223, Note_on_c,68,108,4,2,1,79.0,False
44322,4224, Note_on_c,58,108,4,2,1,67.0,False
44323,4225, Note_on_c,63,108,4,2,1,73.0,False
44324,4225, Note_on_c,66,108,4,2,1,77.0,False
44325,4226, Note_on_c,65,107,4,2,1,76.0,True
44326,4226, Note_on_c,68,107,4,2,1,79.0,False
44327,4227, Note_on_c,63,105,4,2,1,73.0,False
44328,4227, Note_on_c,66,105,4,2,1,77.0,False
44329,4228, Note_on_c,65,104,4,2,1,76.0,True
44330,4228, Note_on_c,70,104,4,2,1,81.0,False
44331,4229, Note_on_c,58,103,4,2,1,67.0,False
44332,4230, Note_on_c,63,101,4,2,1,73.0,False
44333,4230, Note_on_c,66,101,4,2,1,77.0,False
44334,4231, Note_on_c,65,100,4,2,1,76.0,True
44335,4231, Note_on_c,68,100,4,2,1,79.0,False
44336,4232, Note_on_c,58,99,4,2,1,67.0,False
44337,4233, Note_on_c,63,97,4,2,1,73.0,False
44338,4233, Note_on_c,66,97,4,2,1,77.0,False
44339,4234, Note_on_c,65,96,4,2,1,76.0,True
44340,4234, Note_on_c,68,96,4,2,1,79.0,False
44341,4235, Note_on_c,63,95,4,2,1,73.0,False
44342,4235, Note_on_c,66,95,4,2,1,77.0,False
44343,4236, Note_on_c,65,94,4,2,1,76.0,True
44344,4236, Note_on_c,70,94,4,2,1,81.0,False
44345,4237, Note_on_c,58,92,4,2,1,67.0,False
44346,4238, Note_on_c,63,91,4,2,1,73.0,False
44347,4238, Note_on_c,66,91,4,2,1,77.0,False
44348,4239, Note_on_c,65,90,4,2,1,76.0,True
44349,4239, Note_on_c,68,90,4,2,1,79.0,False
44350,4240, Note_on_c,58,88,4,2,1,67.0,False
44351,4241, Note_on_c,63,87,4,2,1,73.0,False
44352,4241, Note_on_c,66,87,4,2,1,77.0,False
44353,4242, Note_on_c,65,86,4,2,1,76.0,True
44354,4242, Note_on_c,68,86,4,2,1,79.0,False
44355,4243, Note_on_c,63,84,4,2,1,73.0,False
44356,4243, Note_on_c,66,84,4,2,1,77.0,False
44357,4244, Note_on_c,65,83,4,2,1,76.0,True
44358,4244, Note_on_c,70,83,4,2,1,81.0,False
44359,4245, Note_on_c,58,82,4,2,1,67.0,False
44360,4246, Note_on_c,63,80,4,2,1,73.0,False
44361,4246, Note_on_c,66,80,4,2,1,77.0,False
44362,4247, Note_on_c,65,79,4,2,1,76.0,True
44363,4247, Note_on_c,68,79,4,2,1,79.0,False
44364,4248, Note_on_c,58,78,4,2,1,67.0,False
44365,4249, Note_on_c,63,75,4,2,1,73.0,False
44366,4249, Note_on_c,66,75,4,2,1,77.0,False
44367,4250, Note_on_c,65,75,4,2,1,76.0,True
44368,4250, Note_on_c,68,75,4,2,1,79.0,False
44369,4251, Note_on_c,63,75,4,2,1,73.0,False
44370,4251, Note_on_c,66,75,4,2,1,77.0,False
44371,4252, Note_on_c,65,75,4,2,1,76.0,True
44372,4252, Note_on_c,70,75,4,2,1,81.0,False
44373,4253, Note_on_c,58,75,4,2,1,67.0,False
44374,4254, Note_on_c,63,75,4,2,1,73.0,False
44375,4254, Note_on_c,66,75,4,2,1,77.0,False
44376,4255, Note_on_c,65,75,4,2,1,76.0,True
44377,4255, Note_on_c,68,75,4,2,1,79.0,False
44378,4256, Note_on_c,58,75,4,2,1,67.0,False
44379,4257, Note_on_c,63,75,4,2,1,73.0,False
44380,4257, Note_on_c,66,75,4,2,1,77.0,False
44381,4258, Note_on_c,65,75,4,2,1,76.0,True
44382,4258, Note_on_c,68,75,4,2,1,79.0,False
44383,4259, Note_on_c,63,75,4,2,1,73.0,False
44384,4259, Note_on_c,66,75,4,2,1,77.0,False
44385,4260, Note_on_c,65,75,4,2,1,76.0,True
44386,4260, Note_on_c,70,75,4,2,1,81.0,False
44387,4261, Note_on_c,58,75,4,2,1,67.0,False
44388,4262, Note_on_c,63,75,4,2,1,73.0,False
44389,4262, Note_on_c,66,75,4,2,1,77.0,False
44390,4263, Note_on_c,65,75,4,2,1,76.0,True
44391,4263, Note_on_c,68,75,4,2,1,79.0,False
44392,4264, Note_on_c,58,75,4,2,1,67.0,False
44393,4265, Note_on_c,63,75,4,2,1,73.0,False
44394,4265, Note_on_c,66,75,4,2,1,77.0,False
44395,4266, Note_on_c,65,75,4,2,1,76.0,True
44396,4266, Note_on_c,68,75,4,2,1,79.0,False
44397,4267, Note_on_c,63,75,4,2,1,73.0,False
44398,4267, Note_on_c,66,75,4,2,1,77.0,False
44399,4268, Note_on_c,65,75,4,2,1,76.0,True
44400,4268, Note_on_c,70,75,4,2,1,81.0,False
44401,4269, Note_on_c,58,75,4,2,1,67.0,False
44402,4270, Note_on_c,63,75,4,2,1,73.0,False
44403,4270, Note_on_c,66,75,4,2,1,77.0,False
44404,4271, Note_on_c,65,75,4,2,1,76.0,True
44405,4271, Note_on_c,68,75,4,2,1,79.0,False
44406,4272, Note_on_c,58,75,4,2,1,67.0,False
44407,4273, Note_on_c,63,75,4,2,1,73.0,False
44408,4273, Note_on_c,66,75,4,2,1,77.0,False
44409,4274, Note_on_c,65,75,4,2,1,76.0,True
44410,4274, Note_on_c,68,75,4,2,1,79.0,False
44411,4275, Note_on_c,63,75,4,2,1,73.0,False
44412,4275, Note_on_c,66,75,4,2,1,77.0,False
44413,4276, Note_on_c,65,75,4,2,1,76.0,True
44414,4276, Note_on_c,70,75,4,2,1,81.0,False
44415,4277, Note_on_c,58,75,4,2,1,67.0,False
44416,4278, Note_on_c,63,75,4,2,1,73.0,False
44417,4278, Note_on_c,66,75,4,2,1,77.0,False
44418,4279, Note_on_c,65,75,4,2,1,76.0,True
44419,4279, Note_on_c,68,75,4,2,1,79.0,False
44420,4280, Note_on_c,58,75,4,2,1,67.0,False
44421,4281, Note_on_c,63,75,4,2,1,73.0,False
44422,4281, Note_on_c,66,75,4,2,1,77.0,False
44423,4282, Note_on_c,65,75,4,2,1,76.0,True
44424,4282, Note_on_c,68,75,4,2,1,79.0,False
44425,4283, Note_on_c,63,75,4,2,1,73.0,False
44426,4283, Note_on_c,66,75,4,2,1,77.0,False
44427,4284, Note_on_c,65,75,4,2,1,76.0,True
44428,4284, Note_on_c,70,75,4,2,1,81.0,False
44429,4285, Note_on_c,58,75,4,2,1,67.0,False
44430,4286, Note_on_c,63,75,4,2,1,73.0,False
44431,4286, Note_on_c,66,75,4,2,1,77.0,False
44432,4287, Note_on_c,65,75,4,2,1,76.0,True
44433,4287, Note_on_c,68,75,4,2,1,79.0,False
44434,4288, Note_on_c,58,75,4,2,1,67.0,False
44435,4289, Note_on_c,63,75,4,2,1,73.0,False
44436,4289, Note_on_c,66,75,4,2,1,77.0,False
44437,4290, Note_on_c,65,75,4,2,1,76.0,True
44438,4290, Note_on_c,68,75,4,2,1,79.0,False
44439,4291, Note_on_c,63,75,4,2,1,73.0,False
44440,4291, Note_on_c,66,75,4,2,1,77.0,False
44441,4292, Note_on_c,65,75,4,2,1,76.0,True
44442,4292, Note_on_c,70,75,4,2,1,81.0,False
44443,4293, Note_on_c,58,75,4,2,1,67.0,False
44444,4294, Note_on_c,63,75,4,2,1,73.0,False
44445,4294, Note_on_c,66,75,4,2,1,77.0,False
44446,4295, Note_on_c,65,75,4,2,1,76.0,True
44447,4295, Note_on_c,68,75,4,2,1,79.0,False
44448,4296, Note_on_c,58,75,4,2,1,67.0,False
44449,4297, Note_on_c,63,75,4,2,1,73.0,False
44450,4297, Note_on_c,66,75,4,2,1,77.0,False
44451,4298, Note_on_c,65,75,4,2,1,76.0,True
44452,4298, Note_on_c,68,75,4,2,1,79.0,False
44453,4299, Note_on_c,63,75,4,2,1,73.0,False
44454,4299, Note_on_c,66,75,4,2,1,77.0,False
44455,4300, Note_on_c,65,75,4,2,1,76.0,True
44456,4300, Note_on_c,70,75,4,2,1,81.0,False
44457,4301, Note_on_c,58,75,4,2,1,67.0,False
44458,4302, Note_on_c,63,75,4,2,1,73.0,False
44459,4302, Note_on_c,66,75,4,2,1,77.0,False
44460,4303, Note_on_c,65,75,4,2,1,76.0,True
44461,4303, Note_on_c,68,75,4,2,1,79.0,False
44462,4304, Note_on_c,58,75,4,2,1,67.0,False
44463,4305, Note_on_c,63,75,4,2,1,73.0,False
44464,4305, Note_on_c,66,75,4,2,1,77.0,False
44465,4306, Note_on_c,65,75,4,2,1,76.0,True
44466,4306, Note_on_c,68,75,4,2,1,79.0,False
44467,4307, Note_on_c,63,75,4,2,1,73.0,False
44468,4307, Note_on_c,66,75,4,2,1,77.0,False
44469,4308, Note_on_c,65,75,4,2,1,76.0,True
44470,4308, Note_on_c,70,75,4,2,1,81.0,False
44471,4309, Note_on_c,58,75,4,2,1,67.0,False
44472,4310, Note_on_c,63,75,4,2,1,73.0,False
44473,4310, Note_on_c,66,75,4,2,1,77.0,False
44474,4311, Note_on_c,65,75,4,2,1,76.0,True
44475,4311, Note_on_c,68,75,4,2,1,79.0,False
44476,4312, Note_on_c,58,75,4,2,1,67.0,False
44477,4313, Note_on_c,63,75,4,2,1,73.0,False
44478,4313, Note_on_c,66,75,4,2,1,77.0,False
44479,4314, Note_on_c,65,75,4,2,1,76.0,True
44480,4314, Note_on_c,68,75,4,2,1,79.0,False
44481,4315, Note_on_c,63,75,4,2,1,73.0,False
44482,4315, Note_on_c,66,75,4,2,1,77.0,False
44483,4316, Note_on_c,65,75,4,2,1,76.0,True
44484,4316, Note_on_c,70,75,4,2,1,81.0,False
44485,4317, Note_on_c,58,75,4,2,1,67.0,False
44486,4318, Note_on_c,63,75,4,2,1,73.0,False
44487,4318, Note_on_c,66,75,4,2,1,77.0,False
44488,4319, Note_on_c,65,75,4,2,1,76.0,True
44489,4319, Note_on_c,68,75,4,2,1,79.0,False
44490,4320, Note_on_c,58,75,4,2,1,67.0,False
44491,4321, Note_on_c,63,75,4,2,1,73.0,False
44492,4321, Note_on_c,66,75,4,2,1,77.0,False
44493,4322, Note_on_c,65,75,4,2,1,76.0,True
44494,4322, Note_on_c,68,75,4,2,1,79.0,False
44495,4323, Note_on_c,63,75,4,2,1,73.0,False
44496,4323, Note_on_c,66,75,4,2,1,77.0,False
44497,4324, Note_on_c,65,75,4,2,1,76.0,True
44498,4324, Note_on_c,70,75,4,2,1,81.0,False
44499,4325, Note_on_c,58,75,4,2,1,67.0,False
44500,4326, Note_on_c,63,75,4,2,1,73.0,False
44501,4326, Note_on_c,66,75,4,2,1,77.0,False
44502,4327, Note_on_c,65,75,4,2,1,76.0,True
44503,4327, Note_on_c,68,75,4,2,1,79.0,False
44504,4328, Note_on_c,58,75,4,2,1,67.0,False
44505,4329, Note_on_c,63,75,4,2,1,73.0,False
44506,4329, Note_on_c,66,75,4,2,1,77.0,False
44507,4330, Note_on_c,65,75,4,2,1,76.0,True
44508,4330, Note_on_c,68,75,4,2,1,79.0,False
44509,4331, Note_on_c,63,75,4,2,1,73.0,False
44510,4331, Note_on_c,66,75,4,2,1,77.0,False
44511,4332, Note_on_c,65,75,4,2,1,76.0,True
44512,4332, Note_on_c,70,75,4,2,1,81.0,False
44513,4333, Note_on_c,58,75,4,2,1,67.0,False
44514,4334, Note_on_c,63,75,4,2,1,73.0,False
44515,4334, Note_on_c,66,75,4,2,1,77.0,False
44516,4335, Note_on_c,65,75,4,2,1,76.0,True
44517,4335, Note_on_c,68,75,4,2,1,79.0,False
44518,4336, Note_on_c,58,75,4,2,1,67.0,False
44519,4337, Note_on_c,63,75,4,2,1,73.0,False
44520,4337, Note_on_c,66,75,4,2,1,77.0,False
44521,4338, Note_on_c,65,75,4,2,1,76.0,True
44522,4338, Note_on_c,68,75,4,2,1,79.0,False
44523,4339, Note_on_c,63,75,4,2,1,73.0,False
44524,4339, Note_on_c,66,75,4,2,1,77.0,False
44525,4340, Note_on_c,65,75,4,2,1,76.0,True
44526,4340, Note_on_c,70,75,4,2,1,81.0,False
44527,4341, Note_on_c,58,75,4,2,1,67.0,False
44528,4342, Note_on_c,63,75,4,2,1,73.0,False
44529,4342, Note_on_c,66,75,4,2,1,77.0,False
44530,4343, Note_on_c,65,75,4,2,1,76.0,True
44531,4343, Note_on_c,68,75,4,2,1,79.0,False
44532,4344, Note_on_c,58,75,4,2,1,67.0,False
44533,4345, Note_on_c,63,75,4,2,1,73.0,False
44534,4345, Note_on_c,66,75,4,2,1,77.0,False
44535,4346, Note_on_c,65,75,4,2,1,76.0,True
44536,4346, Note_on_c,68,75,4,2,1,79.0,False
44537,4347, Note_on_c,63,75,4,2,1,73.0,False
44538,4347, Note_on_c,66,75,4,2,1,77.0,False
44539,4348, Note_on_c,65,75,4,2,1,76.0,True
44540,4348, Note_on_c,70,75,4,2,1,81.0,False
44541,4349, Note_on_c,58,75,4,2,1,67.0,False
44542,4350, Note_on_c,63,75,4,2,1,73.0,False
44543,4350, Note_on_c,66,75,4,2,1,77.0,False
44544,4351, Note_on_c,65,75,4,2,1,76.0,True
44545,4351, Note_on_c,68,75,4,2,1,79.0,False
44546,4352, Note_on_c,58,75,4,2,1,67.0,False
44547,4353, Note_on_c,63,75,4,2,1,73.0,False
44548,4353, Note_on_c,66,75,4,2,1,77.0,False
44549,4354, Note_on_c,65,75,4,2,1,76.0,True
44550,4354, Note_on_c,68,75,4,2,1,79.0,False
44551,4355, Note_on_c,63,75,4,2,1,73.0,False
44552,4355, Note_on_c,66,75,4,2,1,77.0,False
44553,4356, Note_on_c,65,75,4,2,1,76.0,True
44554,4356, Note_on_c,70,75,4,2,1,81.0,False
44555,4357, Note_on_c,58,75,4,2,1,67.0,False
44556,4358, Note_on_c,63,75,4,2,1,73.0,False
44557,4358, Note_on_c,66,75,4,2,1,77.0,False
44558,4359, Note_on_c,65,75,4,2,1,76.0,True
44559,4359, Note_on_c,68,75,4,2,1,79.0,False
44560,4360, Note_on_c,58,75,4,2,1,67.0,False
44561,4361, Note_on_c,63,75,4,2,1,73.0,False
44562,4361, Note_on_c,66,75,4,2,1,77.0,False
44563,4362, Note_on_c,65,75,4,2,1,76.0,True
44564,4362, Note_on_c,68,75,4,2,1,79.0,False
44565,4363, Note_on_c,63,75,4,2,1,73.0,False
44566,4363, Note_on_c,66,75,4,2,1,77.0,False
44567,4364, Note_on_c,65,75,4,2,1,76.0,True
44568,4364, Note_on_c,70,75,4,2,1,81.0,False
44569,4365, Note_on_c,58,75,4,2,1,67.0,False
44570,4366, Note_on_c,63,75,4,2,1,73.0,False
44571,4366, Note_on_c,66,75,4,2,1,77.0,False
44572,4367, Note_on_c,65,75,4,2,1,76.0,True
44573,4367, Note_on_c,68,75,4,2,1,79.0,False
44574,4368, Note_on_c,58,75,4,2,1,67.0,False
44575,4369, Note_on_c,63,75,4,2,1,73.0,False
44576,4369, Note_on_c,66,75,4,2,1,77.0,False
44577,4370, Note_on_c,65,75,4,2,1,76.0,True
44578,4370, Note_on_c,68,75,4,2,1,79.0,False
44579,4371, Note_on_c,63,75,4,2,1,73.0,False
44580,4371, Note_on_c,66,75,4,2,1,77.0,False
44581,4372, Note_on_c,65,75,4,2,1,76.0,True
44582,4372, Note_on_c,70,75,4,2,1,81.0,False
44583,4373, Note_on_c,58,75,4,2,1,67.0,False
44584,4374, Note_on_c,63,75,4,2,1,73.0,False
44585,4374, Note_on_c,66,75,4,2,1,77.0,False
44586,4375, Note_on_c,65,75,4,2,1,76.0,True
44587,4375, Note_on_c,68,75,4,2,1,79.0,False
44588,4376, Note_on_c,58,75,4,2,1,67.0,False
44589,4377, Note_on_c,63,75,4,2,1,73.0,False
44590,4377, Note_on_c,66,75,4,2,1,77.0,False
44591,4378, Note_on_c,65,75,4,2,1,76.0,True
44592,4378, Note_on_c,68,75,4,2,1,79.0,False
44593,4379, Note_on_c,63,75,4,2,1,73.0,False
44594,4379, Note_on_c,66,75,4,2,1,77.0,False
44595,4380, Note_on_c,65,75,4,2,1,76.0,True
44596,4380, Note_on_c,70,75,4,2,1,81.0,False
44597,4381, Note_on_c,58,75,4,2,1,67.0,False
44598,4382, Note_on_c,63,75,4,2,1,73.0,False
44599,4382, Note_on_c,66,75,4,2,1,77.0,False
44600,4383, Note_on_c,65,75,4,2,1,76.0,True
44601,4383, Note_on_c,68,75,4,2,1,79.0,False
44602,4384, Note_on_c,58,75,4,2,1,67.0,False
44603,4385, Note_on_c,63,75,4,2,1,73.0,False
44604,4385, Note_on_c,66,75,4,2,1,77.0,False
44605,4386, Note_on_c,65,75,4,2,1,76.0,True
44606,4386, Note_on_c,68,75,4,2,1,79.0,False
44607,4387, Note_on_c,63,75,4,2,1,73.0,False
44608,4387, Note_on_c,66,75,4,2,1,77.0,False
44609,4388, Note_on_c,65,75,4,2,1,76.0,True
44610,4388, Note_on_c,70,75,4,2,1,81.0,False
44611,4389, Note_on_c,58,75,4,2,1,67.0,False
44612,4390, Note_on_c,63,75,4,2,1,73.0,False
44613,4390, Note_on_c,66,75,4,2,1,77.0,False
44614,4391, Note_on_c,65,75,4,2,1,76.0,True
44615,4391, Note_on_c,68,75,4,2,1,79.0,False
44616,4392, Note_on_c,58,75,4,2,1,67.0,False
44617,4393, Note_on_c,63,75,4,2,1,73.0,False
44618,4393, Note_on_c,66,75,4,2,1,77.0,False
44619,4394, Note_on_c,65,75,4,2,1,76.0,True
44620,4394, Note_on_c,68,75,4,2,1,79.0,False
44621,4395, Note_on_c,63,75,4,2,1,73.0,False
44622,4395, Note_on_c,66,75,4,2,1,77.0,False
44623,4396, Note_on_c,65,75,4,2,1,76.0,True
44624,4396, Note_on_c,70,75,4,2,1,81.0,False
44625,4397, Note_on_c,58,75,4,2,1,67.0,False
44626,4398, Note_on_c,63,75,4,2,1,73.0,False
44627,4398, Note_on_c,66,75,4,2,1,77.0,False
44628,4399, Note_on_c,65,75,4,2,1,76.0,True
44629,4399, Note_on_c,68,75,4,2,1,79.0,False
44630,4400, Note_on_c,58,75,4,2,1,67.0,False
44631,4401, Note_on_c,63,75,4,2,1,73.0,False
44632,4401, Note_on_c,66,75,4,2,1,77.0,False
44633,4402, Note_on_c,65,75,4,2,1,76.0,True
44634,4402, Note_on_c,68,75,4,2,1,79.0,False
44635,4403, Note_on_c,63,75,4,2,1,73.0,False
44636,4403, Note_on_c,66,75,4,2,1,77.0,False
44637,4404, Note_on_c,65,75,4,2,1,76.0,True
44638,4404, Note_on_c,70,75,4,2,1,81.0,False
44639,4405, Note_on_c,58,75,4,2,1,67.0,False
44640,4406, Note_on_c,63,75,4,2,1,73.0,False
44641,4406, Note_on_c,66,75,4,2,1,77.0,False
44642,4407, Note_on_c,65,75,4,2,1,76.0,True
44643,4407, Note_on_c,68,75,4,2,1,79.0,False
44644,4408, Note_on_c,58,75,4,2,1,67.0,False
44645,4409, Note_on_c,63,75,4,2,1,73.0,False
44646,4409, Note_on_c,66,75,4,2,1,77.0,False
44647,4410, Note_on_c,65,75,4,2,1,76.0,True
44648,4410, Note_on_c,68,75,4,2,1,79.0,False
44649,4411, Note_on_c,63,75,4,2,1,73.0,False
44650,4411, Note_on_c,66,75,4,2,1,77.0,False
44651,4412, Note_on_c,65,75,4,2,1,76.0,True
44652,4412, Note_on_c,70,75,4,2,1,81.0,False
44653,4413, Note_on_c,58,75,4,2,1,67.0,False
44654,4414, Note_on_c,63,75,4,2,1,73.0,False
44655,4414, Note_on_c,66,75,4,2,1,77.0,False
44656,4415, Note_on_c,65,75,4,2,1,76.0,True
44657,4415, Note_on_c,68,75,4,2,1,79.0,False
44658,4416, Note_on_c,58,75,4,2,1,67.0,False
44659,4417, Note_on_c,63,75,4,2,1,73.0,False
44660,4417, Note_on_c,66,75,4,2,1,77.0,False
44661,4418, Note_on_c,65,75,4,2,1,76.0,True
44662,4418, Note_on_c,68,75,4,2,1,79.0,False
44663,4419, Note_on_c,63,75,4,2,1,73.0,False
44664,4419, Note_on_c,66,75,4,2,1,77.0,False
44665,4420, Note_on_c,65,75,4,2,1,76.0,True
44666,4420, Note_on_c,70,75,4,2,1,81.0,False
44667,4421, Note_on_c,58,75,4,2,1,67.0,False
44668,4422, Note_on_c,63,75,4,2,1,73.0,False
44669,4422, Note_on_c,66,75,4,2,1,77.0,False
44670,4423, Note_on_c,65,75,4,2,1,76.0,True
44671,4423, Note_on_c,68,75,4,2,1,79.0,False
44672,4424, Note_on_c,58,75,4,2,1,67.0,False
44673,4425, Note_on_c,63,75,4,2,1,73.0,False
44674,4425, Note_on_c,66,75,4,2,1,77.0,False
44675,4426, Note_on_c,65,75,4,2,1,76.0,True
44676,4426, Note_on_c,68,75,4,2,1,79.0,False
44677,4427, Note_on_c,63,75,4,2,1,73.0,False
44678,4427, Note_on_c,66,75,4,2,1,77.0,False
44679,4428, Note_on_c,65,75,4,2,1,76.0,True
44680,4428, Note_on_c,70,75,4,2,1,81.0,False
44681,4429, Note_on_c,58,75,4,2,1,67.0,False
44682,4430, Note_on_c,63,75,4,2,1,73.0,False
44683,4430, Note_on_c,66,75,4,2,1,77.0,False
44684,4431, Note_on_c,65,75,4,2,1,76.0,True
44685,4431, Note_on_c,68,75,4,2,1,79.0,False
44686,4432, Note_on_c,58,75,4,2,1,67.0,False
44687,4433, Note_on_c,63,75,4,2,1,73.0,False
44688,4433, Note_on_c,66,75,4,2,1,77.0,False
44689,4434, Note_on_c,65,75,4,2,1,76.0,True
44690,4434, Note_on_c,68,75,4,2,1,79.0,False
44691,4435, Note_on_c,63,75,4,2,1,73.0,False
44692,4435, Note_on_c,66,75,4,2,1,77.0,False
44693,4436, Note_on_c,65,75,4,2,1,76.0,True
44694,4436, Note_on_c,70,75,4,2,1,81.0,False
44695,4437, Note_on_c,58,75,4,2,1,67.0,False
44696,4438, Note_on_c,63,75,4,2,1,73.0,False
44697,4438, Note_on_c,66,75,4,2,1,77.0,False
44698,4439, Note_on_c,65,75,4,2,1,76.0,True
44699,4439, Note_on_c,68,75,4,2,1,79.0,False
44700,4440, Note_on_c,58,75,4,2,1,67.0,False
44701,4441, Note_on_c,63,75,4,2,1,73.0,False
44702,4441, Note_on_c,66,75,4,2,1,77.0,False
44703,4442, Note_on_c,65,75,4,2,1,76.0,True
44704,4442, Note_on_c,68,75,4,2,1,79.0,False
44705,4443, Note_on_c,63,75,4,2,1,73.0,False
44706,4443, Note_on_c,66,75,4,2,1,77.0,False
44707,4444, Note_on_c,65,75,4,2,1,76.0,True
44708,4444, Note_on_c,70,75,4,2,1,81.0,False
44709,4445, Note_on_c,58,75,4,2,1,67.0,False
44710,4446, Note_on_c,63,75,4,2,1,73.0,False
44711,4446, Note_on_c,66,75,4,2,1,77.0,False
44712,4447, Note_on_c,65,75,4,2,1,76.0,True
44713,4447, Note_on_c,68,75,4,2,1,79.0,False
44714,4448, Note_on_c,58,75,4,2,1,67.0,False
44715,4449, Note_on_c,63,75,4,2,1,73.0,False
44716,4449, Note_on_c,66,75,4,2,1,77.0,False
44717,4450, Note_on_c,65,75,4,2,1,76.0,True
44718,4450, Note_on_c,68,75,4,2,1,79.0,False
44719,4451, Note_on_c,63,75,4,2,1,73.0,False
44720,4451, Note_on_c,66,75,4,2,1,77.0,False
44721,4452, Note_on_c,65,75,4,2,1,76.0,True
44722,4452, Note_on_c,70,75,4,2,1,81.0,False
44723,4453, Note_on_c,58,75,4,2,1,67.0,False
44724,4454, Note_on_c,63,75,4,2,1,73.0,False
44725,4454, Note_on_c,66,75,4,2,1,77.0,False
44726,4455, Note_on_c,65,75,4,2,1,76.0,True
44727,4455, Note_on_c,68,75,4,2,1,79.0,False
44728,4456, Note_on_c,58,75,4,2,1,67.0,False
44729,4457, Note_on_c,63,75,4,2,1,73.0,False
44730,4457, Note_on_c,66,75,4,2,1,77.0,False
44731,4458, Note_on_c,65,75,4,2,1,76.0,True
44732,4458, Note_on_c,68,75,4,2,1,79.0,False
44733,4459, Note_on_c,63,75,4,2,1,73.0,False
44734,4459, Note_on_c,66,75,4,2,1,77.0,False
44735,4460, Note_on_c,65,75,4,2,1,76.0,True
44736,4460, Note_on_c,70,75,4,2,1,81.0,False
44737,4461, Note_on_c,58,75,4,2,1,67.0,False
44738,4462, Note_on_c,63,75,4,2,1,73.0,False
44739,4462, Note_on_c,66,75,4,2,1,77.0,False
44740,4463, Note_on_c,65,75,4,2,1,76.0,True
44741,4463, Note_on_c,68,75,4,2,1,79.0,False
44742,4464, Note_on_c,58,75,4,2,1,67.0,False
44743,4465, Note_on_c,63,75,4,2,1,73.0,False
44744,4465, Note_on_c,66,75,4,2,1,77.0,False
44745,4466, Note_on_c,65,75,4,2,1,76.0,True
44746,4466, Note_on_c,68,75,4,2,1,79.0,False
44747,4467, Note_on_c,63,75,4,2,1,73.0,False
44748,4467, Note_on_c,66,75,4,2,1,77.0,False
44749,4468, Note_on_c,65,75,4,2,1,76.0,True
44750,4468, Note_on_c,70,75,4,2,1,81.0,False
44751,4469, Note_on_c,58,75,4,2,1,67.0,False
44752,4470, Note_on_c,63,75,4,2,1,73.0,False
44753,4470, Note_on_c,66,75,4,2,1,77.0,False
44754,4471, Note_on_c,65,75,4,2,1,76.0,True
44755,4471, Note_on_c,68,75,4,2,1,79.0,False
44756,4472, Note_on_c,58,75,4,2,1,67.0,False
44757,4473, Note_on_c,63,75,4,2,1,73.0,False
44758,4473, Note_on_c,66,75,4,2,1,77.0,False
44759,4474, Note_on_c,65,75,4,2,1,76.0,True
44760,4474, Note_on_c,68,75,4,2,1,79.0,False
44761,4475, Note_on_c,63,75,4,2,1,73.0,False
44762,4475, Note_on_c,66,75,4,2,1,77.0,False
44763,4476, Note_on_c,65,75,4,2,1,76.0,True
44764,4476, Note_on_c,70,75,4,2,1,81.0,False
44765,4477, Note_on_c,58,75,4,2,1,67.0,False
44766,4478, Note_on_c,63,75,4,2,1,73.0,False
44767,4478, Note_on_c,66,75,4,2,1,77.0,False
44768,4479, Note_on_c,65,75,4,2,1,76.0,True
44769,4479, Note_on_c,68,75,4,2,1,79.0,False
44770,4480, Note_on_c,58,75,4,2,1,67.0,False
44771,4481, Note_on_c,63,75,4,2,1,73.0,False
44772,4481, Note_on_c,66,75,4,2,1,77.0,False
44773,4482, Note_on_c,65,75,4,2,1,76.0,True
44774,4482, Note_on_c,68,75,4,2,1,79.0,False
44775,4483, Note_on_c,63,75,4,2,1,73.0,False
44776,4483, Note_on_c,66,75,4,2,1,77.0,False
44777,4484, Note_on_c,65,75,4,2,1,76.0,True
44778,4484, Note_on_c,70,75,4,2,1,81.0,False
44779,4485, Note_on_c,58,75,4,2,1,67.0,False
44780,4486, Note_on_c,63,75,4,2,1,73.0,False
44781,4486, Note_on_c,66,75,4,2,1,77.0,False
44782,4487, Note_on_c,65,75,4,2,1,76.0,True
44783,4487, Note_on_c,68,75,4,2,1,79.0,False
44784,4488, Note_on_c,58,75,4,2,1,67.0,False
44785,4489, Note_on_c,63,75,4,2,1,73.0,False
44786,4489, Note_on_c,66,75,4,2,1,77.0,False
44787,4490, Note_on_c,65,75,4,2,1,76.0,True
44788,4490, Note_on_c,68,75,4,2,1,79.0,False
44789,4491, Note_on_c,63,75,4,2,1,73.0,False
44790,4491, Note_on_c,66,75,4,2,1,77.0,False
44791,4492, Note_on_c,65,75,4,2,1,76.0,True
44792,4492, Note_on_c,70,75,4,2,1,81.0,False
44793,4493, Note_on_c,58,75,4,2,1,67.0,False
44794,4494, Note_on_c,63,75,4,2,1,73.0,False
44795,4494, Note_on_c,66,75,4,2,1,77.0,False
44796,4495, Note_on_c,65,75,4,2,1,76.0,True
44797,4495, Note_on_c,68,75,4,2,1,79.0,False
44798,4496, Note_on_c,58,75,4,2,1,67.0,False
44799,4497, Note_on_c,63,75,4,2,1,73.0,False
44800,4497, Note_on_c,66,75,4,2,1,77.0,False
44801,4498, Note_on_c,65,75,4,2,1,76.0,True
44802,4498, Note_on_c,68,75,4,2,1,79.0,False
44803,4499, Note_on_c,63,75,4,2,1,73.0,False
44804,4499, Note_on_c,66,75,4,2,1,77.0,False
44805,4500, Note_on_c,65,75,4,2,1,76.0,True
44806,4500, Note_on_c,70,75,4,2,1,81.0,False
44807,4501, Note_on_c,58,75,4,2,1,67.0,False
44808,4502, Note_on_c,63,75,4,2,1,73.0,False
44809,4502, Note_on_c,66,75,4,2,1,77.0,False
44810,4503, Note_on_c,65,75,4,2,1,76.0,True
44811,4503, Note_on_c,68,75,4,2,1,79.0,False
44812,4504, Note_on_c,58,75,4,2,1,67.0,False
44813,4505, Note_on_c,63,75,4,2,1,73.0,False
44814,4505, Note_on_c,66,75,4,2,1,77.0,False
44815,4506, Note_on_c,65,75,4,2,1,76.0,True
44816,4506, Note_on_c,68,75,4,2,1,79.0,False
44817,4507, Note_on_c,63,75,4,2,1,73.0,False
44818,4507, Note_on_c,66,75,4,2,1,77.0,False
44819,4508, Note_on_c,65,75,4,2,1,76.0,True
44820,4508, Note_on_c,70,75,4,2,1,81.0,False
44821,4509, Note_on_c,58,75,4,2,1,67.0,False
44822,4510, Note_on_c,63,75,4,2,1,73.0,False
44823,4510, Note_on_c,66,75,4,2,1,77.0,False
44824,4511, Note_on_c,65,75,4,2,1,76.0,True
44825,4511, Note_on_c,68,75,4,2,1,79.0,False
44826,4512, Note_on_c,58,75,4,2,1,67.0,False
44827,4513, Note_on_c,63,75,4,2,1,73.0,False
44828,4513, Note_on_c,66,75,4,2,1,77.0,False
44829,4514, Note_on_c,65,75,4,2,1,76.0,True
44830,4514, Note_on_c,68,75,4,2,1,79.0,False
44831,4515, Note_on_c,63,75,4,2,1,73.0,False
44832,4515, Note_on_c,66,75,4,2,1,77.0,False
44833,4516, Note_on_c,65,75,4,2,1,76.0,True
44834,4516, Note_on_c,70,75,4,2,1,81.0,False
44835,4517, Note_on_c,58,75,4,2,1,67.0,False
44836,4518, Note_on_c,63,75,4,2,1,73.0,False
44837,4518, Note_on_c,66,75,4,2,1,77.0,False
44838,4519, Note_on_c,65,75,4,2,1,76.0,True
44839,4519, Note_on_c,68,75,4,2,1,79.0,False
44840,4520, Note_on_c,58,75,4,2,1,67.0,False
44841,4521, Note_on_c,63,75,4,2,1,73.0,False
44842,4521, Note_on_c,66,75,4,2,1,77.0,False
44843,4522, Note_on_c,65,75,4,2,1,76.0,True
44844,4522, Note_on_c,68,75,4,2,1,79.0,False
44845,4523, Note_on_c,63,75,4,2,1,73.0,False
44846,4523, Note_on_c,66,75,4,2,1,77.0,False
44847,4524, Note_on_c,65,75,4,2,1,76.0,True
44848,4524, Note_on_c,70,75,4,2,1,81.0,False
44849,4525, Note_on_c,58,75,4,2,1,67.0,False
44850,4526, Note_on_c,63,75,4,2,1,73.0,False
44851,4526, Note_on_c,66,75,4,2,1,77.0,False
44852,4527, Note_on_c,65,75,4,2,1,76.0,True
44853,4527, Note_on_c,68,75,4,2,1,79.0,False
44854,4528, Note_on_c,58,75,4,2,1,67.0,False
44855,4529, Note_on_c,63,75,4,2,1,73.0,False
44856,4529, Note_on_c,66,75,4,2,1,77.0,False
44857,4530, Note_on_c,65,75,4,2,1,76.0,True
44858,4530, Note_on_c,68,75,4,2,1,79.0,False
44859,4531, Note_on_c,63,75,4,2,1,73.0,False
44860,4531, Note_on_c,66,75,4,2,1,77.0,False
44861,4532, Note_on_c,65,75,4,2,1,76.0,True
44862,4532, Note_on_c,70,75,4,2,1,81.0,False
44863,4533, Note_on_c,58,75,4,2,1,67.0,False
44864,4534, Note_on_c,63,75,4,2,1,73.0,False
44865,4534, Note_on_c,66,75,4,2,1,77.0,False
44866,4535, Note_on_c,65,75,4,2,1,76.0,True
44867,4535, Note_on_c,68,75,4,2,1,79.0,False
44868,4536, Note_on_c,58,75,4,2,1,67.0,False
44869,4537, Note_on_c,63,75,4,2,1,73.0,False
44870,4537, Note_on_c,66,75,4,2,1,77.0,False
44871,4538, Note_on_c,65,75,4,2,1,76.0,True
44872,4538, Note_on_c,68,75,4,2,1,79.0,False
44873,4539, Note_on_c,63,75,4,2,1,73.0,False
44874,4539, Note_on_c,66,75,4,2,1,77.0,False
44875,4540, Note_on_c,65,75,4,2,1,76.0,True
44876,4540, Note_on_c,70,75,4,2,1,81.0,False
44877,4541, Note_on_c,58,75,4,2,1,67.0,False
44878,4542, Note_on_c,63,75,4,2,1,73.0,False
44879,4542, Note_on_c,66,75,4,2,1,77.0,False
44880,4543, Note_on_c,65,75,4,2,1,76.0,True
44881,4543, Note_on_c,68,75,4,2,1,79.0,False
44882,4544, Note_on_c,58,75,4,2,1,67.0,False
44883,4545, Note_on_c,63,75,4,2,1,73.0,False
44884,4545, Note_on_c,66,75,4,2,1,77.0,False
44885,4546, Note_on_c,65,75,4,2,1,76.0,True
44886,4546, Note_on_c,68,75,4,2,1,79.0,False
44887,4547, Note_on_c,63,75,4,2,1,73.0,False
44888,4547, Note_on_c,66,75,4,2,1,77.0,False
44889,4548, Note_on_c,65,75,4,2,1,76.0,True
44890,4548, Note_on_c,70,75,4,2,1,81.0,False
44891,4549, Note_on_c,58,75,4,2,1,67.0,False
44892,4550, Note_on_c,63,75,4,2,1,73.0,False
44893,4550, Note_on_c,66,75,4,2,1,77.0,False
44894,4551, Note_on_c,65,75,4,2,1,76.0,True
44895,4551, Note_on_c,68,75,4,2,1,79.0,False
44896,4552, Note_on_c,58,75,4,2,1,67.0,False
44897,4553, Note_on_c,63,75,4,2,1,73.0,False
44898,4553, Note_on_c,66,75,4,2,1,77.0,False
44899,4554, Note_on_c,65,75,4,2,1,76.0,True
44900,4554, Note_on_c,68,75,4,2,1,79.0,False
44901,4555, Note_on_c,63,75,4,2,1,73.0,False
44902,4555, Note_on_c,66,75,4,2,1,77.0,False
44903,4556, Note_on_c,65,75,4,2,1,76.0,True
44904,4556, Note_on_c,70,75,4,2,1,81.0,False
44905,4557, Note_on_c,58,75,4,2,1,67.0,False
44906,4558, Note_on_c,63,75,4,2,1,73.0,False
44907,4558, Note_on_c,66,75,4,2,1,77.0,False
44908,4559, Note_on_c,65,75,4,2,1,76.0,True
44909,4559, Note_on_c,68,75,4,2,1,79.0,False
44910,4560, Note_on_c,58,75,4,2,1,67.0,False
44911,4561, Note_on_c,63,75,4,2,1,73.0,False
44912,4561, Note_on_c,66,75,4,2,1,77.0,False
44913,4562, Note_on_c,65,75,4,2,1,76.0,True
44914,4562, Note_on_c,68,75,4,2,1,79.0,False
44915,4563, Note_on_c,63,75,4,2,1,73.0,False
44916,4563, Note_on_c,66,75,4,2,1,77.0,False
44917,4564, Note_on_c,65,75,4,2,1,76.0,True
44918,4564, Note_on_c,70,75,4,2,1,81.0,False
44919,4565, Note_on_c,58,75,4,2,1,67.0,False
44920,4566, Note_on_c,63,75,4,2,1,73.0,False
44921,4566, Note_on_c,66,75,4,2,1,77.0,False
44922,4567, Note_on_c,65,75,4,2,1,76.0,True
44923,4567, Note_on_c,68,75,4,2,1,79.0,False
44924,4568, Note_on_c,58,75,4,2,1,67.0,False
44925,4569, Note_on_c,63,75,4,2,1,73.0,False
44926,4569, Note_on_c,66,75,4,2,1,77.0,False
44927,4570, Note_on_c,65,75,4,2,1,76.0,True
44928,4570, Note_on_c,68,75,4,2,1,79.0,False
44929,4571, Note_on_c,63,75,4,2,1,73.0,False
44930,4571, Note_on_c,66,75,4,2,1,77.0,False
44931,4572, Note_on_c,65,75,4,2,1,76.0,True
44932,4572, Note_on_c,70,75,4,2,1,81.0,False
44933,4573, Note_on_c,58,75,4,2,1,67.0,False
44934,4574, Note_on_c,63,75,4,2,1,73.0,False
44935,4574, Note_on_c,66,75,4,2,1,77.0,False
44936,4575, Note_on_c,65,75,4,2,1,76.0,True
44937,4575, Note_on_c,68,75,4,2,1,79.0,False
44938,4576, Note_on_c,58,75,4,2,1,67.0,False
44939,4577, Note_on_c,63,75,4,2,1,73.0,False
44940,4577, Note_on_c,66,75,4,2,1,77.0,False
44941,4578, Note_on_c,65,75,4,2,1,76.0,True
44942,4578, Note_on_c,68,75,4,2,1,79.0,False
44943,4579, Note_on_c,63,75,4,2,1,73.0,False
44944,4579, Note_on_c,66,75,4,2,1,77.0,False
44945,4580, Note_on_c,65,75,4,2,1,76.0,True
44946,4580, Note_on_c,70,75,4,2,1,81.0,False
44947,4581, Note_on_c,58,75,4,2,1,67.0,False
44948,4582, Note_on_c,63,75,4,2,1,73.0,False
44949,4582, Note_on_c,66,75,4,2,1,77.0,False
44950,4583, Note_on_c,65,75,4,2,1,76.0,True
44951,4583, Note_on_c,68,75,4,2,1,79.0,False
44952,4584, Note_on_c,58,75,4,2,1,67.0,False
44953,4585, Note_on_c,63,75,4,2,1,73.0,False
44954,4585, Note_on_c,66,75,4,2,1,77.0,False
44955,4586, Note_on_c,65,75,4,2,1,76.0,True
44956,4586, Note_on_c,68,75,4,2,1,79.0,False
44957,4587, Note_on_c,63,75,4,2,1,73.0,False
44958,4587, Note_on_c,66,75,4,2,1,77.0,False
44959,4588, Note_on_c,65,75,4,2,1,76.0,True
44960,4588, Note_on_c,70,75,4,2,1,81.0,False
44961,4589, Note_on_c,58,75,4,2,1,67.0,False
44962,4590, Note_on_c,63,75,4,2,1,73.0,False
44963,4590, Note_on_c,66,75,4,2,1,77.0,False
44964,4591, Note_on_c,65,75,4,2,1,76.0,True
44965,4591, Note_on_c,68,75,4,2,1,79.0,False
44966,4592, Note_on_c,58,75,4,2,1,67.0,False
44967,4593, Note_on_c,63,75,4,2,1,73.0,False
44968,4593, Note_on_c,66,75,4,2,1,77.0,False
44969,4594, Note_on_c,65,75,4,2,1,76.0,True
44970,4594, Note_on_c,68,75,4,2,1,79.0,False
44971,4595, Note_on_c,63,75,4,2,1,73.0,False
44972,4595, Note_on_c,66,75,4,2,1,77.0,False
44973,4596, Note_on_c,65,75,4,2,1,76.0,True
44974,4596, Note_on_c,70,75,4,2,1,81.0,False
44975,4597, Note_on_c,58,75,4,2,1,67.0,False
44976,4598, Note_on_c,63,75,4,2,1,73.0,False
44977,4598, Note_on_c,66,75,4,2,1,77.0,False
44978,4599, Note_on_c,65,75,4,2,1,76.0,True
44979,4599, Note_on_c,68,75,4,2,1,79.0,False
44980,4600, Note_on_c,58,75,4,2,1,67.0,False
44981,4601, Note_on_c,63,75,4,2,1,73.0,False
44982,4601, Note_on_c,66,75,4,2,1,77.0,False
44983,4602, Note_on_c,65,75,4,2,1,76.0,True
44984,4602, Note_on_c,68,75,4,2,1,79.0,False
44985,4603, Note_on_c,63,75,4,2,1,73.0,False
44986,4603, Note_on_c,66,75,4,2,1,77.0,False
44987,4604, Note_on_c,65,75,4,2,1,76.0,True
44988,4604, Note_on_c,70,75,4,2,1,81.0,False
44989,4605, Note_on_c,58,75,4,2,1,67.0,False
44990,4606, Note_on_c,63,75,4,2,1,73.0,False
44991,4606, Note_on_c,66,75,4,2,1,77.0,False
44992,4607, Note_on_c,65,75,4,2,1,76.0,True
44993,4607, Note_on_c,68,75,4,2,1,79.0,False
44994,4608, Note_on_c,58,75,4,2,1,67.0,False
44995,4609, Note_on_c,63,75,4,2,1,73.0,False
44996,4609, Note_on_c,66,75,4,2,1,77.0,False
44997,4610, Note_on_c,65,75,4,2,1,76.0,True
44998,4610, Note_on_c,68,75,4,2,1,79.0,False
44999,4611, Note_on_c,63,75,4,2,1,73.0,False
45000,4611, Note_on_c,66,75,4,2,1,77.0,False
45001,4612, Note_on_c,65,75,4,2,1,76.0,True
45002,4612, Note_on_c,70,75,4,2,1,81.0,False
45003,4613, Note_on_c,58,75,4,2,1,67.0,False
45004,4614, Note_on_c,63,75,4,2,1,73.0,False
45005,4614, Note_on_c,66,75,4,2,1,77.0,False
45006,4615, Note_on_c,65,75,4,2,1,76.0,True
45007,4615, Note_on_c,68,75,4,2,1,79.0,False
45008,4616, Note_on_c,58,75,4,2,1,67.0,False
45009,4617, Note_on_c,63,75,4,2,1,73.0,False
45010,4617, Note_on_c,66,75,4,2,1,77.0,False
45011,4618, Note_on_c,65,75,4,2,1,76.0,True
45012,4618, Note_on_c,68,75,4,2,1,79.0,False
45013,4619, Note_on_c,63,75,4,2,1,73.0,False
45014,4619, Note_on_c,66,75,4,2,1,77.0,False
45015,4620, Note_on_c,65,75,4,2,1,76.0,True
45016,4620, Note_on_c,70,75,4,2,1,81.0,False
45017,4621, Note_on_c,58,75,4,2,1,67.0,False
45018,4622, Note_on_c,63,75,4,2,1,73.0,False
45019,4622, Note_on_c,66,75,4,2,1,77.0,False
45020,4623, Note_on_c,65,75,4,2,1,76.0,True
45021,4623, Note_on_c,68,75,4,2,1,79.0,False
45022,4624, Note_on_c,58,75,4,2,1,67.0,False
45023,4625, Note_on_c,63,75,4,2,1,73.0,False
45024,4625, Note_on_c,66,75,4,2,1,77.0,False
45025,4626, Note_on_c,65,75,4,2,1,76.0,True
45026,4626, Note_on_c,68,75,4,2,1,79.0,False
45027,4627, Note_on_c,63,75,4,2,1,73.0,False
45028,4627, Note_on_c,66,75,4,2,1,77.0,False
45029,4628, Note_on_c,65,75,4,2,1,76.0,True
45030,4628, Note_on_c,70,75,4,2,1,81.0,False
45031,4629, Note_on_c,58,75,4,2,1,67.0,False
45032,4630, Note_on_c,63,75,4,2,1,73.0,False
45033,4630, Note_on_c,66,75,4,2,1,77.0,False
45034,4631, Note_on_c,65,75,4,2,1,76.0,True
45035,4631, Note_on_c,68,75,4,2,1,79.0,False
45036,4632, Note_on_c,58,75,4,2,1,67.0,False
45037,4633, Note_on_c,63,75,4,2,1,73.0,False
45038,4633, Note_on_c,66,75,4,2,1,77.0,False
45039,4634, Note_on_c,65,75,4,2,1,76.0,True
45040,4634, Note_on_c,68,75,4,2,1,79.0,False
45041,4635, Note_on_c,63,75,4,2,1,73.0,False
45042,4635, Note_on_c,66,75,4,2,1,77.0,False
45043,4636, Note_on_c,65,75,4,2,1,76.0,True
45044,4636, Note_on_c,70,75,4,2,1,81.0,False
45045,4637, Note_on_c,58,75,4,2,1,67.0,False
45046,4638, Note_on_c,63,75,4,2,1,73.0,False
45047,4638, Note_on_c,66,75,4,2,1,77.0,False
45048,4639, Note_on_c,65,75,4,2,1,76.0,True
45049,4639, Note_on_c,68,75,4,2,1,79.0,False
45050,4640, Note_on_c,58,75,4,2,1,67.0,False
45051,4641, Note_on_c,63,75,4,2,1,73.0,False
45052,4641, Note_on_c,66,75,4,2,1,77.0,False
45053,4642, Note_on_c,65,75,4,2,1,76.0,True
45054,4642, Note_on_c,68,75,4,2,1,79.0,False
45055,4643, Note_on_c,63,75,4,2,1,73.0,False
45056,4643, Note_on_c,66,75,4,2,1,77.0,False
45057,4644, Note_on_c,65,75,4,2,1,76.0,True
45058,4644, Note_on_c,70,75,4,2,1,81.0,False
45059,4645, Note_on_c,58,75,4,2,1,67.0,False
45060,4646, Note_on_c,63,75,4,2,1,73.0,False
45061,4646, Note_on_c,66,75,4,2,1,77.0,False
45062,4647, Note_on_c,65,75,4,2,1,76.0,True
45063,4647, Note_on_c,68,75,4,2,1,79.0,False
45064,4648, Note_on_c,58,75,4,2,1,67.0,False
45065,4649, Note_on_c,63,75,4,2,1,73.0,False
45066,4649, Note_on_c,66,75,4,2,1,77.0,False
45067,4650, Note_on_c,65,75,4,2,1,76.0,True
45068,4650, Note_on_c,68,75,4,2,1,79.0,False
45069,4651, Note_on_c,63,75,4,2,1,73.0,False
45070,4651, Note_on_c,66,75,4,2,1,77.0,False
45071,4652, Note_on_c,65,75,4,2,1,76.0,True
45072,4652, Note_on_c,70,75,4,2,1,81.0,False
45073,4653, Note_on_c,58,75,4,2,1,67.0,False
45074,4654, Note_on_c,63,75,4,2,1,73.0,False
45075,4654, Note_on_c,66,75,4,2,1,77.0,False
45076,4655, Note_on_c,65,75,4,2,1,76.0,True
45077,4655, Note_on_c,68,75,4,2,1,79.0,False
45078,4656, Note_on_c,58,75,4,2,1,67.0,False
45079,4657, Note_on_c,63,75,4,2,1,73.0,False
45080,4657, Note_on_c,66,75,4,2,1,77.0,False
45081,4658, Note_on_c,65,75,4,2,1,76.0,True
45082,4658, Note_on_c,68,75,4,2,1,79.0,False
45083,4659, Note_on_c,63,75,4,2,1,73.0,False
45084,4659, Note_on_c,66,75,4,2,1,77.0,False
45085,4660, Note_on_c,65,75,4,2,1,76.0,True
45086,4660, Note_on_c,70,75,4,2,1,81.0,False
45087,4661, Note_on_c,58,75,4,2,1,67.0,False
45088,4662, Note_on_c,63,75,4,2,1,73.0,False
45089,4662, Note_on_c,66,75,4,2,1,77.0,False
45090,4663, Note_on_c,65,75,4,2,1,76.0,True
45091,4663, Note_on_c,68,75,4,2,1,79.0,False
45092,4664, Note_on_c,58,75,4,2,1,67.0,False
45093,4665, Note_on_c,63,75,4,2,1,73.0,False
45094,4665, Note_on_c,66,75,4,2,1,77.0,False
45095,4666, Note_on_c,65,75,4,2,1,76.0,True
45096,4666, Note_on_c,68,75,4,2,1,79.0,False
45097,4667, Note_on_c,63,75,4,2,1,73.0,False
45098,4667, Note_on_c,66,75,4,2,1,77.0,False
45099,4668, Note_on_c,65,75,4,2,1,76.0,True
45100,4668, Note_on_c,70,75,4,2,1,81.0,False
45101,4669, Note_on_c,58,75,4,2,1,67.0,False
45102,4670, Note_on_c,63,75,4,2,1,73.0,False
45103,4670, Note_on_c,66,75,4,2,1,77.0,False
45104,4671, Note_on_c,65,75,4,2,1,76.0,True
45105,4671, Note_on_c,68,75,4,2,1,79.0,False
45106,4672, Note_on_c,58,75,4,2,1,67.0,False
45107,4673, Note_on_c,63,75,4,2,1,73.0,False
45108,4673, Note_on_c,66,75,4,2,1,77.0,False
45109,4674, Note_on_c,65,75,4,2,1,76.0,True
45110,4674, Note_on_c,68,75,4,2,1,79.0,False
45111,4675, Note_on_c,63,75,4,2,1,73.0,False
45112,4675, Note_on_c,66,75,4,2,1,77.0,False
45113,4676, Note_on_c,65,75,4,2,1,76.0,True
45114,4676, Note_on_c,70,75,4,2,1,81.0,False
45115,4677, Note_on_c,58,75,4,2,1,67.0,False
45116,4678, Note_on_c,63,75,4,2,1,73.0,False
45117,4678, Note_on_c,66,75,4,2,1,77.0,False
45118,4679, Note_on_c,65,75,4,2,1,76.0,True
45119,4679, Note_on_c,68,75,4,2,1,79.0,False
45120,4680, Note_on_c,58,75,4,2,1,67.0,False
45121,4681, Note_on_c,63,75,4,2,1,73.0,False
45122,4681, Note_on_c,66,75,4,2,1,77.0,False
45123,4682, Note_on_c,65,75,4,2,1,76.0,True
45124,4682, Note_on_c,68,75,4,2,1,79.0,False
45125,4683, Note_on_c,63,75,4,2,1,73.0,False
45126,4683, Note_on_c,66,75,4,2,1,77.0,False
45127,4684, Note_on_c,65,75,4,2,1,76.0,True
45128,4684, Note_on_c,70,75,4,2,1,81.0,False
45129,4685, Note_on_c,58,75,4,2,1,67.0,False
45130,4686, Note_on_c,63,75,4,2,1,73.0,False
45131,4686, Note_on_c,66,75,4,2,1,77.0,False
45132,4687, Note_on_c,65,75,4,2,1,76.0,True
45133,4687, Note_on_c,68,75,4,2,1,79.0,False
45134,4688, Note_on_c,58,75,4,2,1,67.0,False
45135,4689, Note_on_c,63,75,4,2,1,73.0,False
45136,4689, Note_on_c,66,75,4,2,1,77.0,False
45137,4690, Note_on_c,65,75,4,2,1,76.0,True
45138,4690, Note_on_c,68,75,4,2,1,79.0,False
45139,4691, Note_on_c,63,75,4,2,1,73.0,False
45140,4691, Note_on_c,66,75,4,2,1,77.0,False
45141,4692, Note_on_c,65,75,4,2,1,76.0,True
45142,4692, Note_on_c,70,75,4,2,1,81.0,False
45143,4693, Note_on_c,58,75,4,2,1,67.0,False
45144,4694, Note_on_c,63,75,4,2,1,73.0,False
45145,4694, Note_on_c,66,75,4,2,1,77.0,False
45146,4695, Note_on_c,65,75,4,2,1,76.0,True
45147,4695, Note_on_c,68,75,4,2,1,79.0,False
45148,4696, Note_on_c,58,75,4,2,1,67.0,False
45149,4697, Note_on_c,63,75,4,2,1,73.0,False
45150,4697, Note_on_c,66,75,4,2,1,77.0,False
45151,4698, Note_on_c,65,75,4,2,1,76.0,True
45152,4698, Note_on_c,68,75,4,2,1,79.0,False
45153,4699, Note_on_c,63,75,4,2,1,73.0,False
45154,4699, Note_on_c,66,75,4,2,1,77.0,False
45155,4700, Note_on_c,65,75,4,2,1,76.0,True
45156,4700, Note_on_c,70,75,4,2,1,81.0,False
45157,4701, Note_on_c,58,75,4,2,1,67.0,False
45158,4702, Note_on_c,63,75,4,2,1,73.0,False
45159,4702, Note_on_c,66,75,4,2,1,77.0,False
45160,4703, Note_on_c,65,75,4,2,1,76.0,True
45161,4703, Note_on_c,68,75,4,2,1,79.0,False
45162,4704, Note_on_c,58,75,4,2,1,67.0,False
45163,4705, Note_on_c,63,75,4,2,1,73.0,False
45164,4705, Note_on_c,66,75,4,2,1,77.0,False
45165,4706, Note_on_c,65,75,4,2,1,76.0,True
45166,4706, Note_on_c,68,75,4,2,1,79.0,False
45167,4707, Note_on_c,63,75,4,2,1,73.0,False
45168,4707, Note_on_c,66,75,4,2,1,77.0,False
45169,4708, Note_on_c,65,75,4,2,1,76.0,True
45170,4708, Note_on_c,70,75,4,2,1,81.0,False
45171,4709, Note_on_c,58,75,4,2,1,67.0,False
45172,4710, Note_on_c,63,75,4,2,1,73.0,False
45173,4710, Note_on_c,66,75,4,2,1,77.0,False
45174,4711, Note_on_c,65,75,4,2,1,76.0,True
45175,4711, Note_on_c,68,75,4,2,1,79.0,False
45176,4712, Note_on_c,58,75,4,2,1,67.0,False
45177,4713, Note_on_c,63,75,4,2,1,73.0,False
45178,4713, Note_on_c,66,75,4,2,1,77.0,False
45179,4714, Note_on_c,65,75,4,2,1,76.0,True
45180,4714, Note_on_c,68,75,4,2,1,79.0,False
45181,4715, Note_on_c,63,75,4,2,1,73.0,False
45182,4715, Note_on_c,66,75,4,2,1,77.0,False
45183,4716, Note_on_c,65,75,4,2,1,76.0,True
45184,4716, Note_on_c,70,75,4,2,1,81.0,False
45185,4717, Note_on_c,58,75,4,2,1,67.0,False
45186,4718, Note_on_c,63,75,4,2,1,73.0,False
45187,4718, Note_on_c,66,75,4,2,1,77.0,False
45188,4719, Note_on_c,65,75,4,2,1,76.0,True
45189,4719, Note_on_c,68,75,4,2,1,79.0,False
45190,4720, Note_on_c,58,75,4,2,1,67.0,False
45191,4721, Note_on_c,63,75,4,2,1,73.0,False
45192,4721, Note_on_c,66,75,4,2,1,77.0,False
45193,4722, Note_on_c,65,75,4,2,1,76.0,True
45194,4722, Note_on_c,68,75,4,2,1,79.0,False
45195,4723, Note_on_c,63,75,4,2,1,73.0,False
45196,4723, Note_on_c,66,75,4,2,1,77.0,False
45197,4724, Note_on_c,65,75,4,2,1,76.0,True
45198,4724, Note_on_c,70,75,4,2,1,81.0,False
45199,4725, Note_on_c,58,75,4,2,1,67.0,False
45200,4726, Note_on_c,63,75,4,2,1,73.0,False
45201,4726, Note_on_c,66,75,4,2,1,77.0,False
45202,4727, Note_on_c,65,75,4,2,1,76.0,True
45203,4727, Note_on_c,68,75,4,2,1,79.0,False
45204,4728, Note_on_c,58,75,4,2,1,67.0,False
45205,4729, Note_on_c,63,75,4,2,1,73.0,False
45206,4729, Note_on_c,66,75,4,2,1,77.0,False
45207,4730, Note_on_c,65,75,4,2,1,76.0,True
45208,4730, Note_on_c,68,75,4,2,1,79.0,False
45209,4731, Note_on_c,63,75,4,2,1,73.0,False
45210,4731, Note_on_c,66,75,4,2,1,77.0,False
45211,4732, Note_on_c,65,75,4,2,1,76.0,True
45212,4732, Note_on_c,70,75,4,2,1,81.0,False
45213,4733, Note_on_c,58,75,4,2,1,67.0,False
45214,4734, Note_on_c,63,75,4,2,1,73.0,False
45215,4734, Note_on_c,66,75,4,2,1,77.0,False
45216,4735, Note_on_c,65,75,4,2,1,76.0,True
45217,4735, Note_on_c,68,75,4,2,1,79.0,False
45218,4736, Note_on_c,58,75,4,2,1,67.0,False
45219,4737, Note_on_c,63,75,4,2,1,73.0,False
45220,4737, Note_on_c,66,75,4,2,1,77.0,False
45221,4738, Note_on_c,65,75,4,2,1,76.0,True
45222,4738, Note_on_c,68,75,4,2,1,79.0,False
45223,4739, Note_on_c,63,75,4,2,1,73.0,False
45224,4739, Note_on_c,66,75,4,2,1,77.0,False
45225,4740, Note_on_c,65,75,4,2,1,76.0,True
45226,4740, Note_on_c,70,75,4,2,1,81.0,False
45227,4741, Note_on_c,58,75,4,2,1,67.0,False
45228,4742, Note_on_c,63,75,4,2,1,73.0,False
45229,4742, Note_on_c,66,75,4,2,1,77.0,False
45230,4743, Note_on_c,65,75,4,2,1,76.0,True
45231,4743, Note_on_c,68,75,4,2,1,79.0,False
45232,4744, Note_on_c,58,75,4,2,1,67.0,False
45233,4745, Note_on_c,63,75,4,2,1,73.0,False
45234,4745, Note_on_c,66,75,4,2,1,77.0,False
45235,4746, Note_on_c,65,75,4,2,1,76.0,True
45236,4746, Note_on_c,68,75,4,2,1,79.0,False
45237,4747, Note_on_c,63,75,4,2,1,73.0,False
45238,4747, Note_on_c,66,75,4,2,1,77.0,False
45239,4748, Note_on_c,65,75,4,2,1,76.0,True
45240,4748, Note_on_c,70,75,4,2,1,81.0,False
45241,4749, Note_on_c,58,75,4,2,1,67.0,False
45242,4750, Note_on_c,63,75,4,2,1,73.0,False
45243,4750, Note_on_c,66,75,4,2,1,77.0,False
45244,4751, Note_on_c,65,75,4,2,1,76.0,True
45245,4751, Note_on_c,68,75,4,2,1,79.0,False
45246,4752, Note_on_c,58,75,4,2,1,67.0,False
45247,4753, Note_on_c,63,75,4,2,1,73.0,False
45248,4753, Note_on_c,66,75,4,2,1,77.0,False
45249,4754, Note_on_c,65,75,4,2,1,76.0,True
45250,4754, Note_on_c,68,75,4,2,1,79.0,False
45251,4755, Note_on_c,63,75,4,2,1,73.0,False
45252,4755, Note_on_c,66,75,4,2,1,77.0,False
45253,4756, Note_on_c,65,75,4,2,1,76.0,True
45254,4756, Note_on_c,70,75,4,2,1,81.0,False
45255,4757, Note_on_c,58,75,4,2,1,67.0,False
45256,4758, Note_on_c,63,75,4,2,1,73.0,False
45257,4758, Note_on_c,66,75,4,2,1,77.0,False
45258,4759, Note_on_c,65,75,4,2,1,76.0,True
45259,4759, Note_on_c,68,75,4,2,1,79.0,False
45260,4760, Note_on_c,58,75,4,2,1,67.0,False
45261,4761, Note_on_c,63,75,4,2,1,73.0,False
45262,4761, Note_on_c,66,75,4,2,1,77.0,False
45263,4762, Note_on_c,65,75,4,2,1,76.0,True
45264,4762, Note_on_c,68,75,4,2,1,79.0,False
45265,4763, Note_on_c,63,75,4,2,1,73.0,False
45266,4763, Note_on_c,66,75,4,2,1,77.0,False
45267,4764, Note_on_c,65,75,4,2,1,76.0,True
45268,4764, Note_on_c,70,75,4,2,1,81.0,False
45269,4765, Note_on_c,58,75,4,2,1,67.0,False
45270,4766, Note_on_c,63,75,4,2,1,73.0,False
45271,4766, Note_on_c,66,75,4,2,1,77.0,False
45272,4767, Note_on_c,65,75,4,2,1,76.0,True
45273,4767, Note_on_c,68,75,4,2,1,79.0,False
45274,4768, Note_on_c,58,75,4,2,1,67.0,False
45275,4769, Note_on_c,63,75,4,2,1,73.0,False
45276,4769, Note_on_c,66,75,4,2,1,77.0,False
45277,4770, Note_on_c,65,75,4,2,1,76.0,True
45278,4770, Note_on_c,68,75,4,2,1,79.0,False
45279,4771, Note_on_c,63,75,4,2,1,73.0,False
45280,4771, Note_on_c,66,75,4,2,1,77.0,False
45281,4772, Note_on_c,65,75,4,2,1,76.0,True
45282,4772, Note_on_c,70,75,4,2,1,81.0,False
45283,4773, Note_on_c,58,75,4,2,1,67.0,False
45284,4774, Note_on_c,63,75,4,2,1,73.0,False
45285,4774, Note_on_c,66,75,4,2,1,77.0,False
45286,4775, Note_on_c,65,75,4,2,1,76.0,True
45287,4775, Note_on_c,68,75,4,2,1,79.0,False
45288,4776, Note_on_c,58,75,4,2,1,67.0,False
45289,4777, Note_on_c,63,75,4,2,1,73.0,False
45290,4777, Note_on_c,66,75,4,2,1,77.0,False
45291,4778, Note_on_c,65,75,4,2,1,76.0,True
45292,4778, Note_on_c,68,75,4,2,1,79.0,False
45293,4779, Note_on_c,63,75,4,2,1,73.0,False
45294,4779, Note_on_c,66,75,4,2,1,77.0,False
45295,4780, Note_on_c,65,75,4,2,1,76.0,True
45296,4780, Note_on_c,70,75,4,2,1,81.0,False
45297,4781, Note_on_c,58,75,4,2,1,67.0,False
45298,4782, Note_on_c,63,75,4,2,1,73.0,False
45299,4782, Note_on_c,66,75,4,2,1,77.0,False
45300,4783, Note_on_c,65,75,4,2,1,76.0,True
45301,4783, Note_on_c,68,75,4,2,1,79.0,False
45302,4784, Note_on_c,58,75,4,2,1,67.0,False
45303,4785, Note_on_c,63,75,4,2,1,73.0,False
45304,4785, Note_on_c,66,75,4,2,1,77.0,False
45305,4786, Note_on_c,65,75,4,2,1,76.0,True
45306,4786, Note_on_c,68,75,4,2,1,79.0,False
45307,4787, Note_on_c,63,75,4,2,1,73.0,False
45308,4787, Note_on_c,66,75,4,2,1,77.0,False
45309,4788, Note_on_c,65,75,4,2,1,76.0,True
45310,4788, Note_on_c,70,75,4,2,1,81.0,False
45311,4789, Note_on_c,58,75,4,2,1,67.0,False
45312,4790, Note_on_c,63,75,4,2,1,73.0,False
45313,4790, Note_on_c,66,75,4,2,1,77.0,False
45314,4791, Note_on_c,65,75,4,2,1,76.0,True
45315,4791, Note_on_c,68,75,4,2,1,79.0,False
45316,4792, Note_on_c,58,75,4,2,1,67.0,False
45317,4793, Note_on_c,63,75,4,2,1,73.0,False
45318,4793, Note_on_c,66,75,4,2,1,77.0,False
45319,4794, Note_on_c,65,75,4,2,1,76.0,True
45320,4794, Note_on_c,68,75,4,2,1,79.0,False
45321,4795, Note_on_c,63,75,4,2,1,73.0,False
45322,4795, Note_on_c,66,75,4,2,1,77.0,False
45323,4796, Note_on_c,65,75,4,2,1,76.0,True
45324,4796, Note_on_c,70,75,4,2,1,81.0,False
45325,4797, Note_on_c,58,75,4,2,1,67.0,False
45326,4798, Note_on_c,63,75,4,2,1,73.0,False
45327,4798, Note_on_c,66,75,4,2,1,77.0,False
45328,4799, Note_on_c,65,75,4,2,1,76.0,True
45329,4799, Note_on_c,68,75,4,2,1,79.0,False
45330,4800, Note_on_c,58,75,4,2,1,67.0,False
45331,4801, Note_on_c,63,75,4,2,1,73.0,False
45332,4801, Note_on_c,66,75,4,2,1,77.0,False
45333,4802, Note_on_c,65,75,4,2,1,76.0,True
45334,4802, Note_on_c,68,75,4,2,1,79.0,False
45335,4803, Note_on_c,63,75,4,2,1,73.0,False
45336,4803, Note_on_c,66,75,4,2,1,77.0,False
45337,4804, Note_on_c,65,75,4,2,1,76.0,True
45338,4804, Note_on_c,70,75,4,2,1,81.0,False
45339,4805, Note_on_c,58,75,4,2,1,67.0,False
45340,4806, Note_on_c,63,75,4,2,1,73.0,False
45341,4806, Note_on_c,66,75,4,2,1,77.0,False
45342,4807, Note_on_c,65,75,4,2,1,76.0,True
45343,4807, Note_on_c,68,75,4,2,1,79.0,False
45344,4808, Note_on_c,58,75,4,2,1,67.0,False
45345,4809, Note_on_c,63,75,4,2,1,73.0,False
45346,4809, Note_on_c,66,75,4,2,1,77.0,False
45347,4810, Note_on_c,65,75,4,2,1,76.0,True
45348,4810, Note_on_c,68,75,4,2,1,79.0,False
45349,4811, Note_on_c,63,75,4,2,1,73.0,False
45350,4811, Note_on_c,66,75,4,2,1,77.0,False
45351,4812, Note_on_c,65,75,4,2,1,76.0,True
45352,4812, Note_on_c,70,75,4,2,1,81.0,False
45353,4813, Note_on_c,58,75,4,2,1,67.0,False
45354,4814, Note_on_c,63,75,4,2,1,73.0,False
45355,4814, Note_on_c,66,75,4,2,1,77.0,False
45356,4815, Note_on_c,65,75,4,2,1,76.0,True
45357,4815, Note_on_c,68,75,4,2,1,79.0,False
45358,4816, Note_on_c,58,75,4,2,1,67.0,False
45359,4817, Note_on_c,63,75,4,2,1,73.0,False
45360,4817, Note_on_c,66,75,4,2,1,77.0,False
45361,4818, Note_on_c,65,75,4,2,1,76.0,True
45362,4818, Note_on_c,68,75,4,2,1,79.0,False
45363,4819, Note_on_c,63,75,4,2,1,73.0,False
45364,4819, Note_on_c,66,75,4,2,1,77.0,False
45365,4820, Note_on_c,65,75,4,2,1,76.0,True
45366,4820, Note_on_c,70,75,4,2,1,81.0,False
45367,4821, Note_on_c,58,75,4,2,1,67.0,False
45368,4822, Note_on_c,63,75,4,2,1,73.0,False
45369,4822, Note_on_c,66,75,4,2,1,77.0,False
45370,4823, Note_on_c,65,75,4,2,1,76.0,True
45371,4823, Note_on_c,68,75,4,2,1,79.0,False
45372,4824, Note_on_c,58,75,4,2,1,67.0,False
45373,4825, Note_on_c,63,75,4,2,1,73.0,False
45374,4825, Note_on_c,66,75,4,2,1,77.0,False
45375,4826, Note_on_c,65,75,4,2,1,76.0,True
45376,4826, Note_on_c,68,75,4,2,1,79.0,False
45377,4827, Note_on_c,63,75,4,2,1,73.0,False
45378,4827, Note_on_c,66,75,4,2,1,77.0,False
45379,4828, Note_on_c,65,75,4,2,1,76.0,True
45380,4828, Note_on_c,70,75,4,2,1,81.0,False
45381,4829, Note_on_c,58,75,4,2,1,67.0,False
45382,4830, Note_on_c,63,75,4,2,1,73.0,False
45383,4830, Note_on_c,66,75,4,2,1,77.0,False
45384,4831, Note_on_c,65,75,4,2,1,76.0,True
45385,4831, Note_on_c,68,75,4,2,1,79.0,False
45386,4832, Note_on_c,58,75,4,2,1,67.0,False
45387,4833, Note_on_c,63,75,4,2,1,73.0,False
45388,4833, Note_on_c,66,75,4,2,1,77.0,False
45389,4834, Note_on_c,65,75,4,2,1,76.0,True
45390,4834, Note_on_c,68,75,4,2,1,79.0,False
45391,4835, Note_on_c,63,75,4,2,1,73.0,False
45392,4835, Note_on_c,66,75,4,2,1,77.0,False
45393,4836, Note_on_c,65,75,4,2,1,76.0,True
45394,4836, Note_on_c,70,75,4,2,1,81.0,False
45395,4837, Note_on_c,58,75,4,2,1,67.0,False
45396,4838, Note_on_c,63,75,4,2,1,73.0,False
45397,4838, Note_on_c,66,75,4,2,1,77.0,False
45398,4839, Note_on_c,65,75,4,2,1,76.0,True
45399,4839, Note_on_c,68,75,4,2,1,79.0,False
45400,4840, Note_on_c,58,75,4,2,1,67.0,False
45401,4841, Note_on_c,63,75,4,2,1,73.0,False
45402,4841, Note_on_c,66,75,4,2,1,77.0,False
45403,4842, Note_on_c,65,75,4,2,1,76.0,True
45404,4842, Note_on_c,68,75,4,2,1,79.0,False
45405,4843, Note_on_c,63,75,4,2,1,73.0,False
45406,4843, Note_on_c,66,75,4,2,1,77.0,False
45407,4844, Note_on_c,65,75,4,2,1,76.0,True
45408,4844, Note_on_c,70,75,4,2,1,81.0,False
45409,4845, Note_on_c,58,75,4,2,1,67.0,False
45410,4846, Note_on_c,63,75,4,2,1,73.0,False
45411,4846, Note_on_c,66,75,4,2,1,77.0,False
45412,4847, Note_on_c,65,75,4,2,1,76.0,True
45413,4847, Note_on_c,68,75,4,2,1,79.0,False
45414,4848, Note_on_c,58,75,4,2,1,67.0,False
45415,4849, Note_on_c,63,75,4,2,1,73.0,False
45416,4849, Note_on_c,66,75,4,2,1,77.0,False
45417,4850, Note_on_c,65,75,4,2,1,76.0,True
45418,4850, Note_on_c,68,75,4,2,1,79.0,False
45419,4851, Note_on_c,63,75,4,2,1,73.0,False
45420,4851, Note_on_c,66,75,4,2,1,77.0,False
45421,4852, Note_on_c,65,75,4,2,1,76.0,True
45422,4852, Note_on_c,70,75,4,2,1,81.0,False
45423,4853, Note_on_c,58,75,4,2,1,67.0,False
45424,4854, Note_on_c,63,75,4,2,1,73.0,False
45425,4854, Note_on_c,66,75,4,2,1,77.0,False
45426,4855, Note_on_c,65,75,4,2,1,76.0,True
45427,4855, Note_on_c,68,75,4,2,1,79.0,False
45428,4856, Note_on_c,58,75,4,2,1,67.0,False
45429,4857, Note_on_c,63,75,4,2,1,73.0,False
45430,4857, Note_on_c,66,75,4,2,1,77.0,False
45431,4858, Note_on_c,65,75,4,2,1,76.0,True
45432,4858, Note_on_c,68,75,4,2,1,79.0,False
45433,4859, Note_on_c,63,75,4,2,1,73.0,False
45434,4859, Note_on_c,66,75,4,2,1,77.0,False
45435,4860, Note_on_c,65,75,4,2,1,76.0,True
45436,4860, Note_on_c,70,75,4,2,1,81.0,False
45437,4861, Note_on_c,58,75,4,2,1,67.0,False
45438,4862, Note_on_c,63,75,4,2,1,73.0,False
45439,4862, Note_on_c,66,75,4,2,1,77.0,False
45440,4863, Note_on_c,65,75,4,2,1,76.0,True
45441,4863, Note_on_c,68,75,4,2,1,79.0,False
45442,4864, Note_on_c,58,75,4,2,1,67.0,False
45443,4865, Note_on_c,63,75,4,2,1,73.0,False
45444,4865, Note_on_c,66,75,4,2,1,77.0,False
45445,4866, Note_on_c,65,75,4,2,1,76.0,True
45446,4866, Note_on_c,68,75,4,2,1,79.0,False
45447,4867, Note_on_c,63,75,4,2,1,73.0,False
45448,4867, Note_on_c,66,75,4,2,1,77.0,False
45449,4868, Note_on_c,65,75,4,2,1,76.0,True
45450,4868, Note_on_c,70,75,4,2,1,81.0,False
45451,4869, Note_on_c,58,75,4,2,1,67.0,False
45452,4870, Note_on_c,63,75,4,2,1,73.0,False
45453,4870, Note_on_c,66,75,4,2,1,77.0,False
45454,4871, Note_on_c,65,75,4,2,1,76.0,True
45455,4871, Note_on_c,68,75,4,2,1,79.0,False
45456,4872, Note_on_c,58,75,4,2,1,67.0,False
45457,4873, Note_on_c,63,75,4,2,1,73.0,False
45458,4873, Note_on_c,66,75,4,2,1,77.0,False
45459,4874, Note_on_c,65,75,4,2,1,76.0,True
45460,4874, Note_on_c,68,75,4,2,1,79.0,False
45461,4875, Note_on_c,63,75,4,2,1,73.0,False
45462,4875, Note_on_c,66,75,4,2,1,77.0,False
45463,4876, Note_on_c,65,75,4,2,1,76.0,True
45464,4876, Note_on_c,70,75,4,2,1,81.0,False
45465,4877, Note_on_c,58,75,4,2,1,67.0,False
45466,4878, Note_on_c,63,75,4,2,1,73.0,False
45467,4878, Note_on_c,66,75,4,2,1,77.0,False
45468,4879, Note_on_c,65,75,4,2,1,76.0,True
45469,4879, Note_on_c,68,75,4,2,1,79.0,False
45470,4880, Note_on_c,58,75,4,2,1,67.0,False
45471,4881, Note_on_c,63,75,4,2,1,73.0,False
45472,4881, Note_on_c,66,75,4,2,1,77.0,False
45473,4882, Note_on_c,65,75,4,2,1,76.0,True
45474,4882, Note_on_c,68,75,4,2,1,79.0,False
45475,4883, Note_on_c,63,75,4,2,1,73.0,False
45476,4883, Note_on_c,66,75,4,2,1,77.0,False
45477,4884, Note_on_c,65,75,4,2,1,76.0,True
45478,4884, Note_on_c,70,75,4,2,1,81.0,False
45479,4885, Note_on_c,58,75,4,2,1,67.0,False
45480,4886, Note_on_c,63,75,4,2,1,73.0,False
45481,4886, Note_on_c,66,75,4,2,1,77.0,False
45482,4887, Note_on_c,65,75,4,2,1,76.0,True
45483,4887, Note_on_c,68,75,4,2,1,79.0,False
45484,4888, Note_on_c,58,75,4,2,1,67.0,False
45485,4889, Note_on_c,63,75,4,2,1,73.0,False
45486,4889, Note_on_c,66,75,4,2,1,77.0,False
45487,4890, Note_on_c,65,75,4,2,1,76.0,True
45488,4890, Note_on_c,68,75,4,2,1,79.0,False
45489,4891, Note_on_c,63,75,4,2,1,73.0,False
45490,4891, Note_on_c,66,75,4,2,1,77.0,False
45491,4892, Note_on_c,65,75,4,2,1,76.0,True
45492,4892, Note_on_c,70,75,4,2,1,81.0,False
45493,4893, Note_on_c,58,75,4,2,1,67.0,False
45494,4894, Note_on_c,63,75,4,2,1,73.0,False
45495,4894, Note_on_c,66,75,4,2,1,77.0,False
45496,4895, Note_on_c,65,75,4,2,1,76.0,True
45497,4895, Note_on_c,68,75,4,2,1,79.0,False
45498,4896, Note_on_c,58,75,4,2,1,67.0,False
45499,4897, Note_on_c,63,75,4,2,1,73.0,False
45500,4897, Note_on_c,66,75,4,2,1,77.0,False
45501,4898, Note_on_c,65,75,4,2,1,76.0,True
45502,4898, Note_on_c,68,75,4,2,1,79.0,False
45503,4899, Note_on_c,63,75,4,2,1,73.0,False
45504,4899, Note_on_c,66,75,4,2,1,77.0,False
45505,4900, Note_on_c,65,75,4,2,1,76.0,True
45506,4900, Note_on_c,70,75,4,2,1,81.0,False
45507,4901, Note_on_c,58,75,4,2,1,67.0,False
45508,4902, Note_on_c,63,75,4,2,1,73.0,False
45509,4902, Note_on_c,66,75,4,2,1,77.0,False
45510,4903, Note_on_c,65,75,4,2,1,76.0,True
45511,4903, Note_on_c,68,75,4,2,1,79.0,False
45512,4904, Note_on_c,58,75,4,2,1,67.0,False
45513,4905, Note_on_c,63,75,4,2,1,73.0,False
45514,4905, Note_on_c,66,75,4,2,1,77.0,False
45515,4906, Note_on_c,65,75,4,2,1,76.0,True
45516,4906, Note_on_c,68,75,4,2,1,79.0,False
45517,4907, Note_on_c,63,75,4,2,1,73.0,False
45518,4907, Note_on_c,66,75,4,2,1,77.0,False
45519,4908, Note_on_c,65,75,4,2,1,76.0,True
45520,4908, Note_on_c,70,75,4,2,1,81.0,False
45521,4909, Note_on_c,58,75,4,2,1,67.0,False
45522,4910, Note_on_c,63,75,4,2,1,73.0,False
45523,4910, Note_on_c,66,75,4,2,1,77.0,False
45524,4911, Note_on_c,65,75,4,2,1,76.0,True
45525,4911, Note_on_c,68,75,4,2,1,79.0,False
45526,4912, Note_on_c,58,75,4,2,1,67.0,False
45527,4913, Note_on_c,63,75,4,2,1,73.0,False
45528,4913, Note_on_c,66,75,4,2,1,77.0,False
45529,4914, Note_on_c,65,75,4,2,1,76.0,True
45530,4914, Note_on_c,68,75,4,2,1,79.0,False
45531,4915, Note_on_c,63,75,4,2,1,73.0,False
45532,4915, Note_on_c,66,75,4,2,1,77.0,False
45533,4916, Note_on_c,65,75,4,2,1,76.0,True
45534,4916, Note_on_c,70,75,4,2,1,81.0,False
45535,4917, Note_on_c,58,75,4,2,1,67.0,False
45536,4918, Note_on_c,63,75,4,2,1,73.0,False
45537,4918, Note_on_c,66,75,4,2,1,77.0,False
45538,4919, Note_on_c,65,75,4,2,1,76.0,True
45539,4919, Note_on_c,68,75,4,2,1,79.0,False
45540,4920, Note_on_c,58,75,4,2,1,67.0,False
45541,4921, Note_on_c,63,75,4,2,1,73.0,False
45542,4921, Note_on_c,66,75,4,2,1,77.0,False
45543,4922, Note_on_c,65,75,4,2,1,76.0,True
45544,4922, Note_on_c,68,75,4,2,1,79.0,False
45545,4923, Note_on_c,63,75,4,2,1,73.0,False
45546,4923, Note_on_c,66,75,4,2,1,77.0,False
45547,4924, Note_on_c,65,75,4,2,1,76.0,True
45548,4924, Note_on_c,70,75,4,2,1,81.0,False
45549,4925, Note_on_c,58,75,4,2,1,67.0,False
45550,4926, Note_on_c,63,75,4,2,1,73.0,False
45551,4926, Note_on_c,66,75,4,2,1,77.0,False
45552,4927, Note_on_c,65,75,4,2,1,76.0,True
45553,4927, Note_on_c,68,75,4,2,1,79.0,False
45554,4928, Note_on_c,58,75,4,2,1,67.0,False
45555,4929, Note_on_c,63,75,4,2,1,73.0,False
45556,4929, Note_on_c,66,75,4,2,1,77.0,False
45557,4930, Note_on_c,65,75,4,2,1,76.0,True
45558,4930, Note_on_c,68,75,4,2,1,79.0,False
45559,4931, Note_on_c,63,75,4,2,1,73.0,False
45560,4931, Note_on_c,66,75,4,2,1,77.0,False
45561,4932, Note_on_c,65,75,4,2,1,76.0,True
45562,4932, Note_on_c,70,75,4,2,1,81.0,False
45563,4933, Note_on_c,58,75,4,2,1,67.0,False
45564,4934, Note_on_c,63,75,4,2,1,73.0,False
45565,4934, Note_on_c,66,75,4,2,1,77.0,False
45566,4935, Note_on_c,65,75,4,2,1,76.0,True
45567,4935, Note_on_c,68,75,4,2,1,79.0,False
45568,4936, Note_on_c,58,75,4,2,1,67.0,False
45569,4937, Note_on_c,63,75,4,2,1,73.0,False
45570,4937, Note_on_c,66,75,4,2,1,77.0,False
45571,4938, Note_on_c,65,75,4,2,1,76.0,True
45572,4938, Note_on_c,68,75,4,2,1,79.0,False
45573,4939, Note_on_c,63,75,4,2,1,73.0,False
45574,4939, Note_on_c,66,75,4,2,1,77.0,False
45575,4940, Note_on_c,65,75,4,2,1,76.0,True
45576,4940, Note_on_c,70,75,4,2,1,81.0,False
45577,4941, Note_on_c,58,75,4,2,1,67.0,False
45578,4942, Note_on_c,63,75,4,2,1,73.0,False
45579,4942, Note_on_c,66,75,4,2,1,77.0,False
45580,4943, Note_on_c,65,75,4,2,1,76.0,True
45581,4943, Note_on_c,68,75,4,2,1,79.0,False
45582,4944, Note_on_c,58,75,4,2,1,67.0,False
45583,4945, Note_on_c,63,75,4,2,1,73.0,False
45584,4945, Note_on_c,66,75,4,2,1,77.0,False
45585,4946, Note_on_c,65,75,4,2,1,76.0,True
45586,4946, Note_on_c,68,75,4,2,1,79.0,False
45587,4947, Note_on_c,63,75,4,2,1,73.0,False
45588,4947, Note_on_c,66,75,4,2,1,77.0,False
45589,4948, Note_on_c,65,75,4,2,1,76.0,True
45590,4948, Note_on_c,70,75,4,2,1,81.0,False
45591,4949, Note_on_c,58,75,4,2,1,67.0,False
45592,4950, Note_on_c,63,75,4,2,1,73.0,False
45593,4950, Note_on_c,66,75,4,2,1,77.0,False
45594,4951, Note_on_c,65,75,4,2,1,76.0,True
45595,4951, Note_on_c,68,75,4,2,1,79.0,False
45596,4952, Note_on_c,58,75,4,2,1,67.0,False
45597,4953, Note_on_c,63,75,4,2,1,73.0,False
45598,4953, Note_on_c,66,75,4,2,1,77.0,False
45599,4954, Note_on_c,65,75,4,2,1,76.0,True
45600,4954, Note_on_c,68,75,4,2,1,79.0,False
45601,4955, Note_on_c,63,75,4,2,1,73.0,False
45602,4955, Note_on_c,66,75,4,2,1,77.0,False
45603,4956, Note_on_c,65,75,4,2,1,76.0,True
45604,4956, Note_on_c,70,75,4,2,1,81.0,False
45605,4957, Note_on_c,58,75,4,2,1,67.0,False
45606,4958, Note_on_c,63,75,4,2,1,73.0,False
45607,4958, Note_on_c,66,75,4,2,1,77.0,False
45608,4959, Note_on_c,65,75,4,2,1,76.0,True
45609,4959, Note_on_c,68,75,4,2,1,79.0,False
45610,4960, Note_on_c,58,75,4,2,1,67.0,False
45611,4961, Note_on_c,63,75,4,2,1,73.0,False
45612,4961, Note_on_c,66,75,4,2,1,77.0,False
45613,4962, Note_on_c,65,75,4,2,1,76.0,True
45614,4962, Note_on_c,68,75,4,2,1,79.0,False
45615,4963, Note_on_c,63,75,4,2,1,73.0,False
45616,4963, Note_on_c,66,75,4,2,1,77.0,False
45617,4964, Note_on_c,65,75,4,2,1,76.0,True
45618,4964, Note_on_c,70,75,4,2,1,81.0,False
45619,4965, Note_on_c,58,75,4,2,1,67.0,False
45620,4966, Note_on_c,63,75,4,2,1,73.0,False
45621,4966, Note_on_c,66,75,4,2,1,77.0,False
45622,4967, Note_on_c,65,75,4,2,1,76.0,True
45623,4967, Note_on_c,68,75,4,2,1,79.0,False
45624,4968, Note_on_c,58,75,4,2,1,67.0,False
45625,4969, Note_on_c,63,75,4,2,1,73.0,False
45626,4969, Note_on_c,66,75,4,2,1,77.0,False
45627,4970, Note_on_c,65,75,4,2,1,76.0,True
45628,4970, Note_on_c,68,75,4,2,1,79.0,False
45629,4971, Note_on_c,63,75,4,2,1,73.0,False
45630,4971, Note_on_c,66,75,4,2,1,77.0,False
45631,4972, Note_on_c,65,75,4,2,1,76.0,True
45632,4972, Note_on_c,70,75,4,2,1,81.0,False
45633,4973, Note_on_c,58,75,4,2,1,67.0,False
45634,4974, Note_on_c,63,75,4,2,1,73.0,False
45635,4974, Note_on_c,66,75,4,2,1,77.0,False
45636,4975, Note_on_c,65,75,4,2,1,76.0,True
45637,4975, Note_on_c,68,75,4,2,1,79.0,False
45638,4976, Note_on_c,58,75,4,2,1,67.0,False
45639,4977, Note_on_c,63,75,4,2,1,73.0,False
45640,4977, Note_on_c,66,75,4,2,1,77.0,False
45641,4978, Note_on_c,65,75,4,2,1,76.0,True
45642,4978, Note_on_c,68,75,4,2,1,79.0,False
45643,4979, Note_on_c,63,75,4,2,1,73.0,False
45644,4979, Note_on_c,66,75,4,2,1,77.0,False
45645,4980, Note_on_c,65,75,4,2,1,76.0,True
45646,4980, Note_on_c,70,75,4,2,1,81.0,False
45647,4981, Note_on_c,58,75,4,2,1,67.0,False
45648,4982, Note_on_c,63,75,4,2,1,73.0,False
45649,4982, Note_on_c,66,75,4,2,1,77.0,False
45650,4983, Note_on_c,65,75,4,2,1,76.0,True
45651,4983, Note_on_c,68,75,4,2,1,79.0,False
45652,4984, Note_on_c,58,75,4,2,1,67.0,False
45653,4985, Note_on_c,63,75,4,2,1,73.0,False
45654,4985, Note_on_c,66,75,4,2,1,77.0,False
45655,4986, Note_on_c,65,75,4,2,1,76.0,True
45656,4986, Note_on_c,68,75,4,2,1,79.0,False
45657,4987, Note_on_c,63,75,4,2,1,73.0,False
45658,4987, Note_on_c,66,75,4,2,1,77.0,False
45659,4988, Note_on_c,65,75,4,2,1,76.0,True
45660,4988, Note_on_c,70,75,4,2,1,81.0,False
45661,4989, Note_on_c,58,75,4,2,1,67.0,False
45662,4990, Note_on_c,63,75,4,2,1,73.0,False
45663,4990, Note_on_c,66,75,4,2,1,77.0,False
45664,4991, Note_on_c,65,75,4,2,1,76.0,True
45665,4991, Note_on_c,68,75,4,2,1,79.0,False
45666,4992, Note_on_c,58,75,4,2,1,67.0,False
45667,4993, Note_on_c,63,75,4,2,1,73.0,False
45668,4993, Note_on_c,66,75,4,2,1,77.0,False
45669,4994, Note_on_c,65,75,4,2,1,76.0,True
45670,4994, Note_on_c,68,75,4,2,1,79.0,False
45671,4995, Note_on_c,63,75,4,2,1,73.0,False
45672,4995, Note_on_c,66,75,4,2,1,77.0,False
45673,4996, Note_on_c,65,75,4,2,1,76.0,True
45674,4996, Note_on_c,70,75,4,2,1,81.0,False
45675,4997, Note_on_c,58,75,4,2,1,67.0,False
45676,4998, Note_on_c,63,75,4,2,1,73.0,False
45677,4998, Note_on_c,66,75,4,2,1,77.0,False
45678,4999, Note_on_c,65,75,4,2,1,76.0,True
45679,4999, Note_on_c,68,75,4,2,1,79.0,False
45680,5000, Note_on_c,58,75,4,2,1,67.0,False
45681,5001, Note_on_c,63,75,4,2,1,73.0,False
45682,5001, Note_on_c,66,75,4,2,1,77.0,False
45683,5002, Note_on_c,65,75,4,2,1,76.0,True
45684,5002, Note_on_c,68,75,4,2,1,79.0,False
45685,5003, Note_on_c,63,75,4,2,1,73.0,False
45686,5003, Note_on_c,66,75,4,2,1,77.0,False
45687,5004, Note_on_c,65,75,4,2,1,76.0,True
45688,5004, Note_on_c,70,75,4,2,1,81.0,False
45689,5005, Note_on_c,58,75,4,2,1,67.0,False
45690,5006, Note_on_c,63,75,4,2,1,73.0,False
45691,5006, Note_on_c,66,75,4,2,1,77.0,False
45692,5007, Note_on_c,65,75,4,2,1,76.0,True
45693,5007, Note_on_c,68,75,4,2,1,79.0,False
45694,5008, Note_on_c,58,75,4,2,1,67.0,False
45695,5009, Note_on_c,63,75,4,2,1,73.0,False
45696,5009, Note_on_c,66,75,4,2,1,77.0,False
45697,5010, Note_on_c,65,75,4,2,1,76.0,True
45698,5010, Note_on_c,68,75,4,2,1,79.0,False
45699,5011, Note_on_c,63,75,4,2,1,73.0,False
45700,5011, Note_on_c,66,75,4,2,1,77.0,False
45701,5012, Note_on_c,65,75,4,2,1,76.0,True
45702,5012, Note_on_c,70,75,4,2,1,81.0,False
45703,5013, Note_on_c,58,75,4,2,1,67.0,False
45704,5014, Note_on_c,63,75,4,2,1,73.0,False
45705,5014, Note_on_c,66,75,4,2,1,77.0,False
45706,5015, Note_on_c,65,75,4,2,1,76.0,True
45707,5015, Note_on_c,68,75,4,2,1,79.0,False
45708,5016, Note_on_c,58,75,4,2,1,67.0,False
45709,5017, Note_on_c,63,75,4,2,1,73.0,False
45710,5017, Note_on_c,66,75,4,2,1,77.0,False
45711,5018, Note_on_c,65,75,4,2,1,76.0,True
45712,5018, Note_on_c,68,75,4,2,1,79.0,False
45713,5019, Note_on_c,63,75,4,2,1,73.0,False
45714,5019, Note_on_c,66,75,4,2,1,77.0,False
45715,5020, Note_on_c,65,75,4,2,1,76.0,True
45716,5020, Note_on_c,70,75,4,2,1,81.0,False
45717,5021, Note_on_c,58,75,4,2,1,67.0,False
45718,5022, Note_on_c,63,75,4,2,1,73.0,False
45719,5022, Note_on_c,66,75,4,2,1,77.0,False
45720,5023, Note_on_c,65,75,4,2,1,76.0,True
45721,5023, Note_on_c,68,75,4,2,1,79.0,False
45722,5024, Note_on_c,58,75,4,2,1,67.0,False
45723,5025, Note_on_c,63,75,4,2,1,73.0,False
45724,5025, Note_on_c,66,75,4,2,1,77.0,False
45725,5026, Note_on_c,65,75,4,2,1,76.0,True
45726,5026, Note_on_c,68,75,4,2,1,79.0,False
45727,5027, Note_on_c,63,75,4,2,1,73.0,False
45728,5027, Note_on_c,66,75,4,2,1,77.0,False
45729,5028, Note_on_c,65,75,4,2,1,76.0,True
45730,5028, Note_on_c,70,75,4,2,1,81.0,False
45731,5029, Note_on_c,58,75,4,2,1,67.0,False
45732,5030, Note_on_c,63,75,4,2,1,73.0,False
45733,5030, Note_on_c,66,75,4,2,1,77.0,False
45734,5031, Note_on_c,65,75,4,2,1,76.0,True
45735,5031, Note_on_c,68,75,4,2,1,79.0,False
45736,5032, Note_on_c,58,75,4,2,1,67.0,False
45737,5033, Note_on_c,63,75,4,2,1,73.0,False
45738,5033, Note_on_c,66,75,4,2,1,77.0,False
45739,5034, Note_on_c,65,75,4,2,1,76.0,True
45740,5034, Note_on_c,68,75,4,2,1,79.0,False
45741,5035, Note_on_c,63,75,4,2,1,73.0,False
45742,5035, Note_on_c,66,75,4,2,1,77.0,False
45743,5036, Note_on_c,65,75,4,2,1,76.0,True
45744,5036, Note_on_c,70,75,4,2,1,81.0,False
45745,5037, Note_on_c,58,75,4,2,1,67.0,False
45746,5038, Note_on_c,63,75,4,2,1,73.0,False
45747,5038, Note_on_c,66,75,4,2,1,77.0,False
45748,5039, Note_on_c,65,75,4,2,1,76.0,True
45749,5039, Note_on_c,68,75,4,2,1,79.0,False
45750,5040, Note_on_c,58,75,4,2,1,67.0,False
45751,5041, Note_on_c,63,75,4,2,1,73.0,False
45752,5041, Note_on_c,66,75,4,2,1,77.0,False
45753,5042, Note_on_c,65,75,4,2,1,76.0,True
45754,5042, Note_on_c,68,75,4,2,1,79.0,False
45755,5043, Note_on_c,63,75,4,2,1,73.0,False
45756,5043, Note_on_c,66,75,4,2,1,77.0,False
45757,5044, Note_on_c,65,75,4,2,1,76.0,True
45758,5044, Note_on_c,70,75,4,2,1,81.0,False
45759,5045, Note_on_c,58,75,4,2,1,67.0,False
45760,5046, Note_on_c,63,75,4,2,1,73.0,False
45761,5046, Note_on_c,66,75,4,2,1,77.0,False
45762,5047, Note_on_c,65,75,4,2,1,76.0,True
45763,5047, Note_on_c,68,75,4,2,1,79.0,False
45764,5048, Note_on_c,58,75,4,2,1,67.0,False
45765,5049, Note_on_c,63,75,4,2,1,73.0,False
45766,5049, Note_on_c,66,75,4,2,1,77.0,False
45767,5050, Note_on_c,65,75,4,2,1,76.0,True
45768,5050, Note_on_c,68,75,4,2,1,79.0,False
45769,5051, Note_on_c,63,75,4,2,1,73.0,False
45770,5051, Note_on_c,66,75,4,2,1,77.0,False
45771,5052, Note_on_c,65,75,4,2,1,76.0,True
45772,5052, Note_on_c,70,75,4,2,1,81.0,False
45773,5053, Note_on_c,58,75,4,2,1,67.0,False
45774,5054, Note_on_c,63,75,4,2,1,73.0,False
45775,5054, Note_on_c,66,75,4,2,1,77.0,False
45776,5055, Note_on_c,65,75,4,2,1,76.0,True
45777,5055, Note_on_c,68,75,4,2,1,79.0,False
45778,5056, Note_on_c,58,75,4,2,1,67.0,False
45779,5057, Note_on_c,63,75,4,2,1,73.0,False
45780,5057, Note_on_c,66,75,4,2,1,77.0,False
45781,5058, Note_on_c,65,75,4,2,1,76.0,True
45782,5058, Note_on_c,68,75,4,2,1,79.0,False
45783,5059, Note_on_c,63,75,4,2,1,73.0,False
45784,5059, Note_on_c,66,75,4,2,1,77.0,False
45785,5060, Note_on_c,65,75,4,2,1,76.0,True
45786,5060, Note_on_c,70,75,4,2,1,81.0,False
45787,5061, Note_on_c,58,75,4,2,1,67.0,False
45788,5062, Note_on_c,63,75,4,2,1,73.0,False
45789,5062, Note_on_c,66,75,4,2,1,77.0,False
45790,5063, Note_on_c,65,75,4,2,1,76.0,True
45791,5063, Note_on_c,68,75,4,2,1,79.0,False
45792,5064, Note_on_c,58,75,4,2,1,67.0,False
45793,5065, Note_on_c,63,75,4,2,1,73.0,False
45794,5065, Note_on_c,66,75,4,2,1,77.0,False
45795,5066, Note_on_c,65,75,4,2,1,76.0,True
45796,5066, Note_on_c,68,75,4,2,1,79.0,False
45797,5067, Note_on_c,63,75,4,2,1,73.0,False
45798,5067, Note_on_c,66,75,4,2,1,77.0,False
45799,5068, Note_on_c,65,75,4,2,1,76.0,True
45800,5068, Note_on_c,70,75,4,2,1,81.0,False
45801,5069, Note_on_c,58,75,4,2,1,67.0,False
45802,5070, Note_on_c,63,75,4,2,1,73.0,False
45803,5070, Note_on_c,66,75,4,2,1,77.0,False
45804,5071, Note_on_c,65,75,4,2,1,76.0,True
45805,5071, Note_on_c,68,75,4,2,1,79.0,False
45806,5072, Note_on_c,58,75,4,2,1,67.0,False
45807,5073, Note_on_c,63,75,4,2,1,73.0,False
45808,5073, Note_on_c,66,75,4,2,1,77.0,False
45809,5074, Note_on_c,65,75,4,2,1,76.0,True
45810,5074, Note_on_c,68,75,4,2,1,79.0,False
45811,5075, Note_on_c,63,75,4,2,1,73.0,False
45812,5075, Note_on_c,66,75,4,2,1,77.0,False
45813,5076, Note_on_c,65,75,4,2,1,76.0,True
45814,5076, Note_on_c,70,75,4,2,1,81.0,False
45815,5077, Note_on_c,58,75,4,2,1,67.0,False
45816,5078, Note_on_c,63,75,4,2,1,73.0,False
45817,5078, Note_on_c,66,75,4,2,1,77.0,False
45818,5079, Note_on_c,65,75,4,2,1,76.0,True
45819,5079, Note_on_c,68,75,4,2,1,79.0,False
45820,5080, Note_on_c,58,75,4,2,1,67.0,False
45821,5081, Note_on_c,63,75,4,2,1,73.0,False
45822,5081, Note_on_c,66,75,4,2,1,77.0,False
45823,5082, Note_on_c,65,75,4,2,1,76.0,True
45824,5082, Note_on_c,68,75,4,2,1,79.0,False
45825,5083, Note_on_c,63,75,4,2,1,73.0,False
45826,5083, Note_on_c,66,75,4,2,1,77.0,False
45827,5084, Note_on_c,65,75,4,2,1,76.0,True
45828,5084, Note_on_c,70,75,4,2,1,81.0,False
45829,5085, Note_on_c,58,75,4,2,1,67.0,False
45830,5086, Note_on_c,63,75,4,2,1,73.0,False
45831,5086, Note_on_c,66,75,4,2,1,77.0,False
45832,5087, Note_on_c,65,75,4,2,1,76.0,True
45833,5087, Note_on_c,68,75,4,2,1,79.0,False
45834,5088, Note_on_c,58,75,4,2,1,67.0,False
45835,5089, Note_on_c,63,75,4,2,1,73.0,False
45836,5089, Note_on_c,66,75,4,2,1,77.0,False
45837,5090, Note_on_c,65,75,4,2,1,76.0,True
45838,5090, Note_on_c,68,75,4,2,1,79.0,False
45839,5091, Note_on_c,63,75,4,2,1,73.0,False
45840,5091, Note_on_c,66,75,4,2,1,77.0,False
45841,5092, Note_on_c,65,75,4,2,1,76.0,True
45842,5092, Note_on_c,70,75,4,2,1,81.0,False
45843,5093, Note_on_c,58,75,4,2,1,67.0,False
45844,5094, Note_on_c,63,75,4,2,1,73.0,False
45845,5094, Note_on_c,66,75,4,2,1,77.0,False
45846,5095, Note_on_c,65,75,4,2,1,76.0,True
45847,5095, Note_on_c,68,75,4,2,1,79.0,False
45848,5096, Note_on_c,58,75,4,2,1,67.0,False
45849,5097, Note_on_c,63,75,4,2,1,73.0,False
45850,5097, Note_on_c,66,75,4,2,1,77.0,False
45851,5098, Note_on_c,65,75,4,2,1,76.0,True
45852,5098, Note_on_c,68,75,4,2,1,79.0,False
45853,5099, Note_on_c,63,75,4,2,1,73.0,False
45854,5099, Note_on_c,66,75,4,2,1,77.0,False
45855,5100, Note_on_c,65,75,4,2,1,76.0,True
45856,5100, Note_on_c,70,75,4,2,1,81.0,False
45857,5101, Note_on_c,58,75,4,2,1,67.0,False
45858,5102, Note_on_c,63,75,4,2,1,73.0,False
45859,5102, Note_on_c,66,75,4,2,1,77.0,False
45860,5103, Note_on_c,65,75,4,2,1,76.0,True
45861,5103, Note_on_c,68,75,4,2,1,79.0,False
45862,5104, Note_on_c,58,75,4,2,1,67.0,False
45863,5105, Note_on_c,63,75,4,2,1,73.0,False
45864,5105, Note_on_c,66,75,4,2,1,77.0,False
45865,5106, Note_on_c,65,75,4,2,1,76.0,True
45866,5106, Note_on_c,68,75,4,2,1,79.0,False
45867,5107, Note_on_c,63,75,4,2,1,73.0,False
45868,5107, Note_on_c,66,75,4,2,1,77.0,False
45869,5108, Note_on_c,65,75,4,2,1,76.0,True
45870,5108, Note_on_c,70,75,4,2,1,81.0,False
45871,5109, Note_on_c,58,75,4,2,1,67.0,False
45872,5110, Note_on_c,63,75,4,2,1,73.0,False
45873,5110, Note_on_c,66,75,4,2,1,77.0,False
45874,5111, Note_on_c,65,75,4,2,1,76.0,True
45875,5111, Note_on_c,68,75,4,2,1,79.0,False
45876,5112, Note_on_c,58,75,4,2,1,67.0,False
45877,5113, Note_on_c,63,75,4,2,1,73.0,False
45878,5113, Note_on_c,66,75,4,2,1,77.0,False
45879,5114, Note_on_c,65,75,4,2,1,76.0,True
45880,5114, Note_on_c,68,75,4,2,1,79.0,False
45881,5115, Note_on_c,63,75,4,2,1,73.0,False
45882,5115, Note_on_c,66,75,4,2,1,77.0,False
45883,5116, Note_on_c,65,75,4,2,1,76.0,True
45884,5116, Note_on_c,70,75,4,2,1,81.0,False
45885,5117, Note_on_c,58,75,4,2,1,67.0,False
45886,5118, Note_on_c,63,75,4,2,1,73.0,False
45887,5118, Note_on_c,66,75,4,2,1,77.0,False
45888,5119, Note_on_c,65,75,4,2,1,76.0,True
45889,5119, Note_on_c,68,75,4,2,1,79.0,False
45890,5120, Note_on_c,58,75,4,2,1,67.0,False
45891,5121, Note_on_c,63,75,4,2,1,73.0,False
45892,5121, Note_on_c,66,75,4,2,1,77.0,False
45893,5122, Note_on_c,65,75,4,2,1,76.0,True
45894,5122, Note_on_c,68,75,4,2,1,79.0,False
45895,5123, Note_on_c,63,75,4,2,1,73.0,False
45896,5123, Note_on_c,66,75,4,2,1,77.0,False
45897,5124, Note_on_c,65,75,4,2,1,76.0,True
45898,5124, Note_on_c,70,75,4,2,1,81.0,False
45899,5125, Note_on_c,58,75,4,2,1,67.0,False
45900,5126, Note_on_c,63,75,4,2,1,73.0,False
45901,5126, Note_on_c,66,75,4,2,1,77.0,False
45902,5127, Note_on_c,65,75,4,2,1,76.0,True
45903,5127, Note_on_c,68,75,4,2,1,79.0,False
45904,5128, Note_on_c,58,75,4,2,1,67.0,False
45905,5129, Note_on_c,63,75,4,2,1,73.0,False
45906,5129, Note_on_c,66,75,4,2,1,77.0,False
45907,5130, Note_on_c,65,75,4,2,1,76.0,True
45908,5130, Note_on_c,68,75,4,2,1,79.0,False
45909,5131, Note_on_c,63,75,4,2,1,73.0,False
45910,5131, Note_on_c,66,75,4,2,1,77.0,False
45911,5132, Note_on_c,65,75,4,2,1,76.0,True
45912,5132, Note_on_c,70,75,4,2,1,81.0,False
45913,5133, Note_on_c,58,75,4,2,1,67.0,False
45914,5134, Note_on_c,63,75,4,2,1,73.0,False
45915,5134, Note_on_c,66,75,4,2,1,77.0,False
45916,5135, Note_on_c,65,75,4,2,1,76.0,True
45917,5135, Note_on_c,68,75,4,2,1,79.0,False
45918,5136, Note_on_c,58,75,4,2,1,67.0,False
45919,5137, Note_on_c,63,75,4,2,1,73.0,False
45920,5137, Note_on_c,66,75,4,2,1,77.0,False
45921,5138, Note_on_c,65,75,4,2,1,76.0,True
45922,5138, Note_on_c,68,75,4,2,1,79.0,False
45923,5139, Note_on_c,63,75,4,2,1,73.0,False
45924,5139, Note_on_c,66,75,4,2,1,77.0,False
45925,5140, Note_on_c,65,75,4,2,1,76.0,True
45926,5140, Note_on_c,70,75,4,2,1,81.0,False
45927,5141, Note_on_c,58,75,4,2,1,67.0,False
45928,5142, Note_on_c,63,75,4,2,1,73.0,False
45929,5142, Note_on_c,66,75,4,2,1,77.0,False
45930,5143, Note_on_c,65,75,4,2,1,76.0,True
45931,5143, Note_on_c,68,75,4,2,1,79.0,False
45932,5144, Note_on_c,58,75,4,2,1,67.0,False
45933,5145, Note_on_c,63,75,4,2,1,73.0,False
45934,5145, Note_on_c,66,75,4,2,1,77.0,False
45935,5146, Note_on_c,65,75,4,2,1,76.0,True
45936,5146, Note_on_c,68,75,4,2,1,79.0,False
45937,5147, Note_on_c,63,75,4,2,1,73.0,False
45938,5147, Note_on_c,66,75,4,2,1,77.0,False
45939,5148, Note_on_c,65,75,4,2,1,76.0,True
45940,5148, Note_on_c,70,75,4,2,1,81.0,False
45941,5149, Note_on_c,58,75,4,2,1,67.0,False
45942,5150, Note_on_c,63,75,4,2,1,73.0,False
45943,5150, Note_on_c,66,75,4,2,1,77.0,False
45944,5151, Note_on_c,65,75,4,2,1,76.0,True
45945,5151, Note_on_c,68,75,4,2,1,79.0,False
45946,5152, Note_on_c,58,75,4,2,1,67.0,False
45947,5153, Note_on_c,63,75,4,2,1,73.0,False
45948,5153, Note_on_c,66,75,4,2,1,77.0,False
45949,5154, Note_on_c,65,75,4,2,1,76.0,True
45950,5154, Note_on_c,68,75,4,2,1,79.0,False
45951,5155, Note_on_c,63,75,4,2,1,73.0,False
45952,5155, Note_on_c,66,75,4,2,1,77.0,False
45953,5156, Note_on_c,65,75,4,2,1,76.0,True
45954,5156, Note_on_c,70,75,4,2,1,81.0,False
45955,5157, Note_on_c,58,75,4,2,1,67.0,False
45956,5158, Note_on_c,63,75,4,2,1,73.0,False
45957,5158, Note_on_c,66,75,4,2,1,77.0,False
45958,5159, Note_on_c,65,75,4,2,1,76.0,True
45959,5159, Note_on_c,68,75,4,2,1,79.0,False
45960,5160, Note_on_c,58,75,4,2,1,67.0,False
45961,5161, Note_on_c,63,75,4,2,1,73.0,False
45962,5161, Note_on_c,66,75,4,2,1,77.0,False
45963,5162, Note_on_c,65,75,4,2,1,76.0,True
45964,5162, Note_on_c,68,75,4,2,1,79.0,False
45965,5163, Note_on_c,63,75,4,2,1,73.0,False
45966,5163, Note_on_c,66,75,4,2,1,77.0,False
45967,5164, Note_on_c,65,75,4,2,1,76.0,True
45968,5164, Note_on_c,70,75,4,2,1,81.0,False
45969,5165, Note_on_c,58,75,4,2,1,67.0,False
45970,5166, Note_on_c,63,75,4,2,1,73.0,False
45971,5166, Note_on_c,66,75,4,2,1,77.0,False
45972,5167, Note_on_c,65,75,4,2,1,76.0,True
45973,5167, Note_on_c,68,75,4,2,1,79.0,False
45974,5168, Note_on_c,58,75,4,2,1,67.0,False
45975,5169, Note_on_c,63,75,4,2,1,73.0,False
45976,5169, Note_on_c,66,75,4,2,1,77.0,False
45977,5170, Note_on_c,65,75,4,2,1,76.0,True
45978,5170, Note_on_c,68,75,4,2,1,79.0,False
45979,5171, Note_on_c,63,75,4,2,1,73.0,False
45980,5171, Note_on_c,66,75,4,2,1,77.0,False
45981,5172, Note_on_c,65,75,4,2,1,76.0,True
45982,5172, Note_on_c,70,75,4,2,1,81.0,False
45983,5173, Note_on_c,58,75,4,2,1,67.0,False
45984,5174, Note_on_c,63,75,4,2,1,73.0,False
45985,5174, Note_on_c,66,75,4,2,1,77.0,False
45986,5175, Note_on_c,65,75,4,2,1,76.0,True
45987,5175, Note_on_c,68,75,4,2,1,79.0,False
45988,5176, Note_on_c,58,75,4,2,1,67.0,False
45989,5177, Note_on_c,63,75,4,2,1,73.0,False
45990,5177, Note_on_c,66,75,4,2,1,77.0,False
45991,5178, Note_on_c,65,75,4,2,1,76.0,True
45992,5178, Note_on_c,68,75,4,2,1,79.0,False
45993,5179, Note_on_c,63,75,4,2,1,73.0,False
45994,5179, Note_on_c,66,75,4,2,1,77.0,False
45995,5180, Note_on_c,65,75,4,2,1,76.0,True
45996,5180, Note_on_c,70,75,4,2,1,81.0,False
45997,5181, Note_on_c,58,75,4,2,1,67.0,False
45998,5182, Note_on_c,63,75,4,2,1,73.0,False
45999,5182, Note_on_c,66,75,4,2,1,77.0,False
46000,5183, Note_on_c,65,75,4,2,1,76.0,True
46001,5183, Note_on_c,68,75,4,2,1,79.0,False
46002,5184, Note_on_c,58,75,4,2,1,67.0,False
46003,5185, Note_on_c,63,75,4,2,1,73.0,False
46004,5185, Note_on_c,66,75,4,2,1,77.0,False
46005,5186, Note_on_c,65,75,4,2,1,76.0,True
46006,5186, Note_on_c,68,75,4,2,1,79.0,False
46007,5187, Note_on_c,63,75,4,2,1,73.0,False
46008,5187, Note_on_c,66,75,4,2,1,77.0,False
46009,5188, Note_on_c,65,75,4,2,1,76.0,True
46010,5188, Note_on_c,70,75,4,2,1,81.0,False
46011,5189, Note_on_c,58,75,4,2,1,67.0,False
46012,5190, Note_on_c,63,75,4,2,1,73.0,False
46013,5190, Note_on_c,66,75,4,2,1,77.0,False
46014,5191, Note_on_c,65,75,4,2,1,76.0,True
46015,5191, Note_on_c,68,75,4,2,1,79.0,False
46016,5192, Note_on_c,58,75,4,2,1,67.0,False
46017,5193, Note_on_c,63,75,4,2,1,73.0,False
46018,5193, Note_on_c,66,75,4,2,1,77.0,False
46019,5194, Note_on_c,65,75,4,2,1,76.0,True
46020,5194, Note_on_c,68,75,4,2,1,79.0,False
46021,5195, Note_on_c,63,75,4,2,1,73.0,False
46022,5195, Note_on_c,66,75,4,2,1,77.0,False
46023,5196, Note_on_c,65,75,4,2,1,76.0,True
46024,5196, Note_on_c,70,75,4,2,1,81.0,False
46025,5197, Note_on_c,58,75,4,2,1,67.0,False
46026,5198, Note_on_c,63,75,4,2,1,73.0,False
46027,5198, Note_on_c,66,75,4,2,1,77.0,False
46028,5199, Note_on_c,65,75,4,2,1,76.0,True
46029,5199, Note_on_c,68,75,4,2,1,79.0,False
46030,5200, Note_on_c,58,75,4,2,1,67.0,False
46031,5201, Note_on_c,63,75,4,2,1,73.0,False
46032,5201, Note_on_c,66,75,4,2,1,77.0,False
46033,5202, Note_on_c,65,75,4,2,1,76.0,True
46034,5202, Note_on_c,68,75,4,2,1,79.0,False
46035,5203, Note_on_c,63,75,4,2,1,73.0,False
46036,5203, Note_on_c,66,75,4,2,1,77.0,False
46037,5204, Note_on_c,65,75,4,2,1,76.0,True
46038,5204, Note_on_c,70,75,4,2,1,81.0,False
46039,5205, Note_on_c,58,75,4,2,1,67.0,False
46040,5206, Note_on_c,63,75,4,2,1,73.0,False
46041,5206, Note_on_c,66,75,4,2,1,77.0,False
46042,5207, Note_on_c,65,75,4,2,1,76.0,True
46043,5207, Note_on_c,68,75,4,2,1,79.0,False
46044,5208, Note_on_c,58,75,4,2,1,67.0,False
46045,5209, Note_on_c,63,75,4,2,1,73.0,False
46046,5209, Note_on_c,66,75,4,2,1,77.0,False
46047,5210, Note_on_c,65,75,4,2,1,76.0,True
46048,5210, Note_on_c,68,75,4,2,1,79.0,False
46049,5211, Note_on_c,63,75,4,2,1,73.0,False
46050,5211, Note_on_c,66,75,4,2,1,77.0,False
46051,5212, Note_on_c,65,75,4,2,1,76.0,True
46052,5212, Note_on_c,70,75,4,2,1,81.0,False
46053,5213, Note_on_c,58,75,4,2,1,67.0,False
46054,5214, Note_on_c,63,75,4,2,1,73.0,False
46055,5214, Note_on_c,66,75,4,2,1,77.0,False
46056,5215, Note_on_c,65,75,4,2,1,76.0,True
46057,5215, Note_on_c,68,75,4,2,1,79.0,False
46058,5216, Note_on_c,58,75,4,2,1,67.0,False
46059,5217, Note_on_c,63,75,4,2,1,73.0,False
46060,5217, Note_on_c,66,75,4,2,1,77.0,False
46061,5218, Note_on_c,65,75,4,2,1,76.0,True
46062,5218, Note_on_c,68,75,4,2,1,79.0,False
46063,5219, Note_on_c,63,75,4,2,1,73.0,False
46064,5219, Note_on_c,66,75,4,2,1,77.0,False
46065,5220, Note_on_c,65,75,4,2,1,76.0,True
46066,5220, Note_on_c,70,75,4,2,1,81.0,False
46067,5221, Note_on_c,58,75,4,2,1,67.0,False
46068,5222, Note_on_c,63,75,4,2,1,73.0,False
46069,5222, Note_on_c,66,75,4,2,1,77.0,False
46070,5223, Note_on_c,65,75,4,2,1,76.0,True
46071,5223, Note_on_c,68,75,4,2,1,79.0,False
46072,5224, Note_on_c,58,75,4,2,1,67.0,False
46073,5225, Note_on_c,63,75,4,2,1,73.0,False
46074,5225, Note_on_c,66,75,4,2,1,77.0,False
46075,5226, Note_on_c,65,75,4,2,1,76.0,True
46076,5226, Note_on_c,68,75,4,2,1,79.0,False
46077,5227, Note_on_c,63,75,4,2,1,73.0,False
46078,5227, Note_on_c,66,75,4,2,1,77.0,False
46079,5228, Note_on_c,65,75,4,2,1,76.0,True
46080,5228, Note_on_c,70,75,4,2,1,81.0,False
46081,5229, Note_on_c,58,75,4,2,1,67.0,False
46082,5230, Note_on_c,63,75,4,2,1,73.0,False
46083,5230, Note_on_c,66,75,4,2,1,77.0,False
46084,5231, Note_on_c,65,75,4,2,1,76.0,True
46085,5231, Note_on_c,68,75,4,2,1,79.0,False
46086,5232, Note_on_c,58,75,4,2,1,67.0,False
46087,5233, Note_on_c,63,75,4,2,1,73.0,False
46088,5233, Note_on_c,66,75,4,2,1,77.0,False
46089,5234, Note_on_c,65,75,4,2,1,76.0,True
46090,5234, Note_on_c,68,75,4,2,1,79.0,False
46091,5235, Note_on_c,63,75,4,2,1,73.0,False
46092,5235, Note_on_c,66,75,4,2,1,77.0,False
46093,5236, Note_on_c,65,75,4,2,1,76.0,True
46094,5236, Note_on_c,70,75,4,2,1,81.0,False
46095,5237, Note_on_c,58,75,4,2,1,67.0,False
46096,5238, Note_on_c,63,75,4,2,1,73.0,False
46097,5238, Note_on_c,66,75,4,2,1,77.0,False
46098,5239, Note_on_c,65,75,4,2,1,76.0,True
46099,5239, Note_on_c,68,75,4,2,1,79.0,False
46100,5240, Note_on_c,58,75,4,2,1,67.0,False
46101,5241, Note_on_c,63,75,4,2,1,73.0,False
46102,5241, Note_on_c,66,75,4,2,1,77.0,False
46103,5242, Note_on_c,65,75,4,2,1,76.0,True
46104,5242, Note_on_c,68,75,4,2,1,79.0,False
46105,5243, Note_on_c,63,75,4,2,1,73.0,False
46106,5243, Note_on_c,66,75,4,2,1,77.0,False
46107,5244, Note_on_c,65,75,4,2,1,76.0,True
46108,5244, Note_on_c,70,75,4,2,1,81.0,False
46109,5245, Note_on_c,58,75,4,2,1,67.0,False
46110,5246, Note_on_c,63,75,4,2,1,73.0,False
46111,5246, Note_on_c,66,75,4,2,1,77.0,False
46112,5247, Note_on_c,65,75,4,2,1,76.0,True
46113,5247, Note_on_c,68,75,4,2,1,79.0,False
46114,5248, Note_on_c,58,75,4,2,1,67.0,False
46115,5249, Note_on_c,63,75,4,2,1,73.0,False
46116,5249, Note_on_c,66,75,4,2,1,77.0,False
46117,5250, Note_on_c,65,75,4,2,1,76.0,True
46118,5250, Note_on_c,68,75,4,2,1,79.0,False
46119,5251, Note_on_c,63,75,4,2,1,73.0,False
46120,5251, Note_on_c,66,75,4,2,1,77.0,False
46121,5252, Note_on_c,65,75,4,2,1,76.0,True
46122,5252, Note_on_c,70,75,4,2,1,81.0,False
46123,5253, Note_on_c,58,75,4,2,1,67.0,False
46124,5254, Note_on_c,63,75,4,2,1,73.0,False
46125,5254, Note_on_c,66,75,4,2,1,77.0,False
46126,5255, Note_on_c,65,75,4,2,1,76.0,True
46127,5255, Note_on_c,68,75,4,2,1,79.0,False
46128,5256, Note_on_c,58,75,4,2,1,67.0,False
46129,5257, Note_on_c,58,76,4,2,1,67.0,False
46130,5258, Note_on_c,63,76,4,2,1,73.0,False
46131,5258, Note_on_c,66,76,4,2,1,77.0,False
46132,5259, Note_on_c,65,76,4,2,1,76.0,True
46133,5259, Note_on_c,68,76,4,2,1,79.0,False
46134,5260, Note_on_c,63,76,4,2,1,73.0,False
46135,5260, Note_on_c,66,76,4,2,1,77.0,False
46136,5261, Note_on_c,65,76,4,2,1,76.0,True
46137,5261, Note_on_c,70,76,4,2,1,81.0,False
46138,5262, Note_on_c,58,76,4,2,1,67.0,False
46139,5263, Note_on_c,63,76,4,2,1,73.0,False
46140,5263, Note_on_c,66,76,4,2,1,77.0,False
46141,5264, Note_on_c,65,76,4,2,1,76.0,True
46142,5264, Note_on_c,68,76,4,2,1,79.0,False
46143,5265, Note_on_c,58,76,4,2,1,67.0,False
46144,5266, Note_on_c,63,76,4,2,1,73.0,False
46145,5266, Note_on_c,66,76,4,2,1,77.0,False
46146,5267, Note_on_c,65,76,4,2,1,76.0,True
46147,5267, Note_on_c,68,76,4,2,1,79.0,False
46148,5268, Note_on_c,63,76,4,2,1,73.0,False
46149,5268, Note_on_c,66,76,4,2,1,77.0,False
46150,5269, Note_on_c,65,76,4,2,1,76.0,True
46151,5269, Note_on_c,70,76,4,2,1,81.0,False
46152,5270, Note_on_c,58,76,4,2,1,67.0,False
46153,5271, Note_on_c,63,76,4,2,1,73.0,False
46154,5271, Note_on_c,66,76,4,2,1,77.0,False
46155,5272, Note_on_c,65,76,4,2,1,76.0,True
46156,5272, Note_on_c,68,76,4,2,1,79.0,False
46157,5273, Note_on_c,58,76,4,2,1,67.0,False
46158,5274, Note_on_c,63,76,4,2,1,73.0,False
46159,5274, Note_on_c,66,76,4,2,1,77.0,False
46160,5275, Note_on_c,65,76,4,2,1,76.0,True
46161,5275, Note_on_c,68,76,4,2,1,79.0,False
46162,5276, Note_on_c,63,76,4,2,1,73.0,False
46163,5276, Note_on_c,66,76,4,2,1,77.0,False
46164,5277, Note_on_c,65,76,4,2,1,76.0,True
46165,5277, Note_on_c,70,76,4,2,1,81.0,False
46166,5278, Note_on_c,58,76,4,2,1,67.0,False
46167,5279, Note_on_c,63,76,4,2,1,73.0,False
46168,5279, Note_on_c,66,76,4,2,1,77.0,False
46169,5280, Note_on_c,65,76,4,2,1,76.0,True
46170,5280, Note_on_c,68,76,4,2,1,79.0,False
46171,5281, Note_on_c,58,76,4,2,1,67.0,False
46172,5282, Note_on_c,63,76,4,2,1,73.0,False
46173,5282, Note_on_c,66,76,4,2,1,77.0,False
46174,5283, Note_on_c,65,76,4,2,1,76.0,True
46175,5283, Note_on_c,68,76,4,2,1,79.0,False
46176,5284, Note_on_c,63,76,4,2,1,73.0,False
46177,5284, Note_on_c,66,76,4,2,1,77.0,False
46178,5285, Note_on_c,65,76,4,2,1,76.0,True
46179,5285, Note_on_c,70,76,4,2,1,81.0,False
46180,5286, Note_on_c,58,76,4,2,1,67.0,False
46181,5287, Note_on_c,63,76,4,2,1,73.0,False
46182,5287, Note_on_c,66,76,4,2,1,77.0,False
46183,5288, Note_on_c,65,76,4,2,1,76.0,True
46184,5288, Note_on_c,68,76,4,2,1,79.0,False
46185,5289, Note_on_c,58,76,4,2,1,67.0,False
46186,5290, Note_on_c,63,76,4,2,1,73.0,False
46187,5290, Note_on_c,66,76,4,2,1,77.0,False
46188,5291, Note_on_c,65,76,4,2,1,76.0,True
46189,5291, Note_on_c,68,76,4,2,1,79.0,False
46190,5292, Note_on_c,63,76,4,2,1,73.0,False
46191,5292, Note_on_c,66,76,4,2,1,77.0,False
46192,5293, Note_on_c,65,76,4,2,1,76.0,True
46193,5293, Note_on_c,70,76,4,2,1,81.0,False
46194,5294, Note_on_c,58,76,4,2,1,67.0,False
46195,5295, Note_on_c,63,76,4,2,1,73.0,False
46196,5295, Note_on_c,66,76,4,2,1,77.0,False
46197,5296, Note_on_c,65,76,4,2,1,76.0,True
46198,5296, Note_on_c,68,76,4,2,1,79.0,False
46199,5297, Note_on_c,58,76,4,2,1,67.0,False
46200,5298, Note_on_c,63,76,4,2,1,73.0,False
46201,5298, Note_on_c,66,76,4,2,1,77.0,False
46202,5299, Note_on_c,65,76,4,2,1,76.0,True
46203,5299, Note_on_c,68,76,4,2,1,79.0,False
46204,5300, Note_on_c,63,76,4,2,1,73.0,False
46205,5300, Note_on_c,66,76,4,2,1,77.0,False
46206,5301, Note_on_c,65,76,4,2,1,76.0,True
46207,5301, Note_on_c,70,76,4,2,1,81.0,False
46208,5302, Note_on_c,58,76,4,2,1,67.0,False
46209,5303, Note_on_c,63,76,4,2,1,73.0,False
46210,5303, Note_on_c,66,76,4,2,1,77.0,False
46211,5304, Note_on_c,65,76,4,2,1,76.0,True
46212,5304, Note_on_c,68,76,4,2,1,79.0,False
46213,5305, Note_on_c,58,76,4,2,1,67.0,False
46214,5306, Note_on_c,63,76,4,2,1,73.0,False
46215,5306, Note_on_c,66,76,4,2,1,77.0,False
46216,5307, Note_on_c,65,76,4,2,1,76.0,True
46217,5307, Note_on_c,68,76,4,2,1,79.0,False
46218,5308, Note_on_c,63,76,4,2,1,73.0,False
46219,5308, Note_on_c,66,76,4,2,1,77.0,False
46220,5309, Note_on_c,65,76,4,2,1,76.0,True
46221,5309, Note_on_c,70,76,4,2,1,81.0,False
46222,5310, Note_on_c,58,76,4,2,1,67.0,False
46223,5311, Note_on_c,63,76,4,2,1,73.0,False
46224,5311, Note_on_c,66,76,4,2,1,77.0,False
46225,5312, Note_on_c,65,76,4,2,1,76.0,True
46226,5312, Note_on_c,68,76,4,2,1,79.0,False
46227,5313, Note_on_c,58,76,4,2,1,67.0,False
46228,5314, Note_on_c,63,76,4,2,1,73.0,False
46229,5314, Note_on_c,66,76,4,2,1,77.0,False
46230,5315, Note_on_c,65,76,4,2,1,76.0,True
46231,5315, Note_on_c,68,76,4,2,1,79.0,False
46232,5316, Note_on_c,63,76,4,2,1,73.0,False
46233,5316, Note_on_c,66,76,4,2,1,77.0,False
46234,5317, Note_on_c,65,76,4,2,1,76.0,True
46235,5317, Note_on_c,70,76,4,2,1,81.0,False
46236,5318, Note_on_c,58,76,4,2,1,67.0,False
46237,5319, Note_on_c,63,76,4,2,1,73.0,False
46238,5319, Note_on_c,66,76,4,2,1,77.0,False
46239,5320, Note_on_c,65,76,4,2,1,76.0,True
46240,5320, Note_on_c,68,76,4,2,1,79.0,False
46241,5321, Note_on_c,58,76,4,2,1,67.0,False
46242,5322, Note_on_c,63,76,4,2,1,73.0,False
46243,5322, Note_on_c,66,76,4,2,1,77.0,False
46244,5323, Note_on_c,65,76,4,2,1,76.0,True
46245,5323, Note_on_c,68,76,4,2,1,79.0,False
46246,5324, Note_on_c,63,76,4,2,1,73.0,False
46247,5324, Note_on_c,66,76,4,2,1,77.0,False
46248,5325, Note_on_c,65,76,4,2,1,76.0,True
46249,5325, Note_on_c,70,76,4,2,1,81.0,False
46250,5326, Note_on_c,58,76,4,2,1,67.0,False
46251,5327, Note_on_c,63,76,4,2,1,73.0,False
46252,5327, Note_on_c,66,76,4,2,1,77.0,False
46253,5328, Note_on_c,65,76,4,2,1,76.0,True
46254,5328, Note_on_c,68,76,4,2,1,79.0,False
46255,5329, Note_on_c,58,76,4,2,1,67.0,False
46256,5330, Note_on_c,63,76,4,2,1,73.0,False
46257,5330, Note_on_c,66,76,4,2,1,77.0,False
46258,5331, Note_on_c,65,76,4,2,1,76.0,True
46259,5331, Note_on_c,68,76,4,2,1,79.0,False
46260,5332, Note_on_c,63,76,4,2,1,73.0,False
46261,5332, Note_on_c,66,76,4,2,1,77.0,False
46262,5333, Note_on_c,65,76,4,2,1,76.0,True
46263,5333, Note_on_c,70,76,4,2,1,81.0,False
46264,5334, Note_on_c,58,76,4,2,1,67.0,False
46265,5335, Note_on_c,63,76,4,2,1,73.0,False
46266,5335, Note_on_c,66,76,4,2,1,77.0,False
46267,5336, Note_on_c,65,76,4,2,1,76.0,True
46268,5336, Note_on_c,68,76,4,2,1,79.0,False
46269,5337, Note_on_c,58,76,4,2,1,67.0,False
46270,5338, Note_on_c,63,76,4,2,1,73.0,False
46271,5338, Note_on_c,66,76,4,2,1,77.0,False
46272,5339, Note_on_c,65,76,4,2,1,76.0,True
46273,5339, Note_on_c,68,76,4,2,1,79.0,False
46274,5340, Note_on_c,63,76,4,2,1,73.0,False
46275,5340, Note_on_c,66,76,4,2,1,77.0,False
46276,5341, Note_on_c,65,76,4,2,1,76.0,True
46277,5341, Note_on_c,70,76,4,2,1,81.0,False
46278,5342, Note_on_c,58,76,4,2,1,67.0,False
46279,5343, Note_on_c,63,76,4,2,1,73.0,False
46280,5343, Note_on_c,66,76,4,2,1,77.0,False
46281,5344, Note_on_c,65,76,4,2,1,76.0,True
46282,5344, Note_on_c,68,76,4,2,1,79.0,False
46283,5345, Note_on_c,58,76,4,2,1,67.0,False
46284,5346, Note_on_c,63,76,4,2,1,73.0,False
46285,5346, Note_on_c,66,76,4,2,1,77.0,False
46286,5347, Note_on_c,65,76,4,2,1,76.0,True
46287,5347, Note_on_c,68,76,4,2,1,79.0,False
46288,5348, Note_on_c,63,76,4,2,1,73.0,False
46289,5348, Note_on_c,66,76,4,2,1,77.0,False
46290,5349, Note_on_c,65,76,4,2,1,76.0,True
46291,5349, Note_on_c,70,76,4,2,1,81.0,False
46292,5350, Note_on_c,58,76,4,2,1,67.0,False
46293,5351, Note_on_c,63,76,4,2,1,73.0,False
46294,5351, Note_on_c,66,76,4,2,1,77.0,False
46295,5352, Note_on_c,65,76,4,2,1,76.0,True
46296,5352, Note_on_c,68,76,4,2,1,79.0,False
46297,5353, Note_on_c,58,76,4,2,1,67.0,False
46298,5354, Note_on_c,63,76,4,2,1,73.0,False
46299,5354, Note_on_c,66,76,4,2,1,77.0,False
46300,5355, Note_on_c,65,76,4,2,1,76.0,True
46301,5355, Note_on_c,68,76,4,2,1,79.0,False
46302,5356, Note_on_c,63,76,4,2,1,73.0,False
46303,5356, Note_on_c,66,76,4,2,1,77.0,False
46304,5357, Note_on_c,65,76,4,2,1,76.0,True
46305,5357, Note_on_c,70,76,4,2,1,81.0,False
46306,5358, Note_on_c,58,76,4,2,1,67.0,False
46307,5359, Note_on_c,63,76,4,2,1,73.0,False
46308,5359, Note_on_c,66,76,4,2,1,77.0,False
46309,5360, Note_on_c,65,76,4,2,1,76.0,True
46310,5360, Note_on_c,68,76,4,2,1,79.0,False
46311,5361, Note_on_c,58,76,4,2,1,67.0,False
46312,5362, Note_on_c,63,76,4,2,1,73.0,False
46313,5362, Note_on_c,66,76,4,2,1,77.0,False
46314,5363, Note_on_c,65,76,4,2,1,76.0,True
46315,5363, Note_on_c,68,76,4,2,1,79.0,False
46316,5364, Note_on_c,63,76,4,2,1,73.0,False
46317,5364, Note_on_c,66,76,4,2,1,77.0,False
46318,5365, Note_on_c,65,76,4,2,1,76.0,True
46319,5365, Note_on_c,70,76,4,2,1,81.0,False
46320,5366, Note_on_c,58,76,4,2,1,67.0,False
46321,5367, Note_on_c,63,76,4,2,1,73.0,False
46322,5367, Note_on_c,66,76,4,2,1,77.0,False
46323,5368, Note_on_c,65,76,4,2,1,76.0,True
46324,5368, Note_on_c,68,76,4,2,1,79.0,False
46325,5369, Note_on_c,58,76,4,2,1,67.0,False
46326,5370, Note_on_c,63,76,4,2,1,73.0,False
46327,5370, Note_on_c,66,76,4,2,1,77.0,False
46328,5371, Note_on_c,65,76,4,2,1,76.0,True
46329,5371, Note_on_c,68,76,4,2,1,79.0,False
46330,5372, Note_on_c,63,76,4,2,1,73.0,False
46331,5372, Note_on_c,66,76,4,2,1,77.0,False
46332,5373, Note_on_c,65,76,4,2,1,76.0,True
46333,5373, Note_on_c,70,76,4,2,1,81.0,False
46334,5374, Note_on_c,58,76,4,2,1,67.0,False
46335,5375, Note_on_c,63,76,4,2,1,73.0,False
46336,5375, Note_on_c,66,76,4,2,1,77.0,False
46337,5376, Note_on_c,65,76,4,2,1,76.0,True
46338,5376, Note_on_c,68,76,4,2,1,79.0,False
46339,5377, Note_on_c,58,76,4,2,1,67.0,False
46340,5378, Note_on_c,63,76,4,2,1,73.0,False
46341,5378, Note_on_c,66,76,4,2,1,77.0,False
46342,5379, Note_on_c,65,76,4,2,1,76.0,True
46343,5379, Note_on_c,68,76,4,2,1,79.0,False
46344,5380, Note_on_c,63,76,4,2,1,73.0,False
46345,5380, Note_on_c,66,76,4,2,1,77.0,False
46346,5381, Note_on_c,65,76,4,2,1,76.0,True
46347,5381, Note_on_c,70,76,4,2,1,81.0,False
46348,5382, Note_on_c,58,76,4,2,1,67.0,False
46349,5383, Note_on_c,63,76,4,2,1,73.0,False
46350,5383, Note_on_c,66,76,4,2,1,77.0,False
46351,5384, Note_on_c,65,76,4,2,1,76.0,True
46352,5384, Note_on_c,68,76,4,2,1,79.0,False
46353,5385, Note_on_c,58,76,4,2,1,67.0,False
46354,5386, Note_on_c,63,76,4,2,1,73.0,False
46355,5386, Note_on_c,66,76,4,2,1,77.0,False
46356,5387, Note_on_c,65,76,4,2,1,76.0,True
46357,5387, Note_on_c,68,76,4,2,1,79.0,False
46358,5388, Note_on_c,63,76,4,2,1,73.0,False
46359,5388, Note_on_c,66,76,4,2,1,77.0,False
46360,5389, Note_on_c,65,76,4,2,1,76.0,True
46361,5389, Note_on_c,70,76,4,2,1,81.0,False
46362,5390, Note_on_c,58,76,4,2,1,67.0,False
46363,5391, Note_on_c,63,76,4,2,1,73.0,False
46364,5391, Note_on_c,66,76,4,2,1,77.0,False
46365,5392, Note_on_c,65,76,4,2,1,76.0,True
46366,5392, Note_on_c,68,76,4,2,1,79.0,False
46367,5393, Note_on_c,58,76,4,2,1,67.0,False
46368,5394, Note_on_c,63,76,4,2,1,73.0,False
46369,5394, Note_on_c,66,76,4,2,1,77.0,False
46370,5395, Note_on_c,65,76,4,2,1,76.0,True
46371,5395, Note_on_c,68,76,4,2,1,79.0,False
46372,5396, Note_on_c,63,76,4,2,1,73.0,False
46373,5396, Note_on_c,66,76,4,2,1,77.0,False
46374,5397, Note_on_c,65,76,4,2,1,76.0,True
46375,5397, Note_on_c,70,76,4,2,1,81.0,False
46376,5398, Note_on_c,58,76,4,2,1,67.0,False
46377,5399, Note_on_c,63,76,4,2,1,73.0,False
46378,5399, Note_on_c,66,76,4,2,1,77.0,False
46379,5400, Note_on_c,65,76,4,2,1,76.0,True
46380,5400, Note_on_c,68,76,4,2,1,79.0,False
46381,5401, Note_on_c,58,76,4,3,1,67.0,False
46382,5402, Note_on_c,63,76,4,3,1,73.0,False
46383,5402, Note_on_c,68,76,4,3,1,79.0,False
46384,5403, Note_on_c,65,76,4,3,1,76.0,True
46385,5403, Note_on_c,70,76,4,3,1,81.0,False
46386,5404, Note_on_c,63,76,4,3,1,73.0,False
46387,5404, Note_on_c,68,76,4,3,1,79.0,False
46388,5405, Note_on_c,66,76,4,3,1,77.0,False
46389,5405, Note_on_c,70,76,4,3,1,81.0,False
46390,5406, Note_on_c,58,76,4,3,1,67.0,False
46391,5407, Note_on_c,63,76,4,3,1,73.0,False
46392,5407, Note_on_c,68,76,4,3,1,79.0,False
46393,5408, Note_on_c,65,76,4,3,1,76.0,True
46394,5408, Note_on_c,70,76,4,3,1,81.0,False
46395,5409, Note_on_c,58,76,4,3,1,67.0,False
46396,5410, Note_on_c,63,76,4,3,1,73.0,False
46397,5410, Note_on_c,68,76,4,3,1,79.0,False
46398,5411, Note_on_c,65,76,4,3,1,76.0,True
46399,5411, Note_on_c,70,76,4,3,1,81.0,False
46400,5412, Note_on_c,63,76,4,3,1,73.0,False
46401,5412, Note_on_c,68,76,4,3,1,79.0,False
46402,5413, Note_on_c,66,76,4,3,1,77.0,False
46403,5413, Note_on_c,70,76,4,3,1,81.0,False
46404,5414, Note_on_c,58,76,4,3,1,67.0,False
46405,5415, Note_on_c,63,76,4,3,1,73.0,False
46406,5415, Note_on_c,68,76,4,3,1,79.0,False
46407,5416, Note_on_c,65,76,4,3,1,76.0,True
46408,5416, Note_on_c,70,76,4,3,1,81.0,False
46409,5417, Note_on_c,58,76,4,3,1,67.0,False
46410,5418, Note_on_c,63,76,4,3,1,73.0,False
46411,5418, Note_on_c,68,76,4,3,1,79.0,False
46412,5419, Note_on_c,65,76,4,3,1,76.0,True
46413,5419, Note_on_c,70,76,4,3,1,81.0,False
46414,5420, Note_on_c,63,76,4,3,1,73.0,False
46415,5420, Note_on_c,68,76,4,3,1,79.0,False
46416,5421, Note_on_c,66,76,4,3,1,77.0,False
46417,5421, Note_on_c,70,76,4,3,1,81.0,False
46418,5422, Note_on_c,58,76,4,3,1,67.0,False
46419,5423, Note_on_c,63,76,4,3,1,73.0,False
46420,5423, Note_on_c,68,76,4,3,1,79.0,False
46421,5424, Note_on_c,65,76,4,3,1,76.0,True
46422,5424, Note_on_c,70,76,4,3,1,81.0,False
46423,5425, Note_on_c,58,76,4,3,1,67.0,False
46424,5426, Note_on_c,63,76,4,3,1,73.0,False
46425,5426, Note_on_c,68,76,4,3,1,79.0,False
46426,5427, Note_on_c,65,76,4,3,1,76.0,True
46427,5427, Note_on_c,70,76,4,3,1,81.0,False
46428,5428, Note_on_c,63,76,4,3,1,73.0,False
46429,5428, Note_on_c,68,76,4,3,1,79.0,False
46430,5429, Note_on_c,66,76,4,3,1,77.0,False
46431,5429, Note_on_c,70,76,4,3,1,81.0,False
46432,5430, Note_on_c,58,76,4,3,1,67.0,False
46433,5431, Note_on_c,63,76,4,3,1,73.0,False
46434,5431, Note_on_c,68,76,4,3,1,79.0,False
46435,5432, Note_on_c,65,76,4,3,1,76.0,True
46436,5432, Note_on_c,70,76,4,3,1,81.0,False
46437,5433, Note_on_c,58,76,4,3,1,67.0,False
46438,5434, Note_on_c,63,76,4,3,1,73.0,False
46439,5434, Note_on_c,68,76,4,3,1,79.0,False
46440,5435, Note_on_c,65,76,4,3,1,76.0,True
46441,5435, Note_on_c,70,76,4,3,1,81.0,False
46442,5436, Note_on_c,63,76,4,3,1,73.0,False
46443,5436, Note_on_c,68,76,4,3,1,79.0,False
46444,5437, Note_on_c,66,76,4,3,1,77.0,False
46445,5437, Note_on_c,70,76,4,3,1,81.0,False
46446,5438, Note_on_c,58,76,4,3,1,67.0,False
46447,5439, Note_on_c,63,76,4,3,1,73.0,False
46448,5439, Note_on_c,68,76,4,3,1,79.0,False
46449,5440, Note_on_c,65,76,4,3,1,76.0,True
46450,5440, Note_on_c,70,76,4,3,1,81.0,False
46451,5441, Note_on_c,58,76,4,3,1,67.0,False
46452,5442, Note_on_c,63,76,4,3,1,73.0,False
46453,5442, Note_on_c,68,76,4,3,1,79.0,False
46454,5443, Note_on_c,65,76,4,3,1,76.0,True
46455,5443, Note_on_c,70,76,4,3,1,81.0,False
46456,5444, Note_on_c,63,76,4,3,1,73.0,False
46457,5444, Note_on_c,68,76,4,3,1,79.0,False
46458,5445, Note_on_c,66,76,4,3,1,77.0,False
46459,5445, Note_on_c,70,76,4,3,1,81.0,False
46460,5446, Note_on_c,58,76,4,3,1,67.0,False
46461,5447, Note_on_c,63,76,4,3,1,73.0,False
46462,5447, Note_on_c,68,76,4,3,1,79.0,False
46463,5448, Note_on_c,65,76,4,3,1,76.0,True
46464,5448, Note_on_c,70,76,4,3,1,81.0,False
46465,5449, Note_on_c,58,76,4,3,1,67.0,False
46466,5450, Note_on_c,63,76,4,3,1,73.0,False
46467,5450, Note_on_c,68,76,4,3,1,79.0,False
46468,5451, Note_on_c,65,76,4,3,1,76.0,True
46469,5451, Note_on_c,70,76,4,3,1,81.0,False
46470,5452, Note_on_c,63,76,4,3,1,73.0,False
46471,5452, Note_on_c,68,76,4,3,1,79.0,False
46472,5453, Note_on_c,66,76,4,3,1,77.0,False
46473,5453, Note_on_c,70,76,4,3,1,81.0,False
46474,5454, Note_on_c,58,76,4,3,1,67.0,False
46475,5455, Note_on_c,63,76,4,3,1,73.0,False
46476,5455, Note_on_c,68,76,4,3,1,79.0,False
46477,5456, Note_on_c,65,76,4,3,1,76.0,True
46478,5456, Note_on_c,70,76,4,3,1,81.0,False
46479,5457, Note_on_c,58,76,4,3,1,67.0,False
46480,5458, Note_on_c,63,76,4,3,1,73.0,False
46481,5458, Note_on_c,68,76,4,3,1,79.0,False
46482,5459, Note_on_c,65,76,4,3,1,76.0,True
46483,5459, Note_on_c,70,76,4,3,1,81.0,False
46484,5460, Note_on_c,63,76,4,3,1,73.0,False
46485,5460, Note_on_c,68,76,4,3,1,79.0,False
46486,5461, Note_on_c,66,76,4,3,1,77.0,False
46487,5461, Note_on_c,70,76,4,3,1,81.0,False
46488,5462, Note_on_c,58,76,4,3,1,67.0,False
46489,5463, Note_on_c,63,76,4,3,1,73.0,False
46490,5463, Note_on_c,68,76,4,3,1,79.0,False
46491,5464, Note_on_c,65,76,4,3,1,76.0,True
46492,5464, Note_on_c,70,76,4,3,1,81.0,False
46493,5465, Note_on_c,58,76,4,3,1,67.0,False
46494,5466, Note_on_c,63,76,4,3,1,73.0,False
46495,5466, Note_on_c,68,76,4,3,1,79.0,False
46496,5467, Note_on_c,65,76,4,3,1,76.0,True
46497,5467, Note_on_c,70,76,4,3,1,81.0,False
46498,5468, Note_on_c,63,76,4,3,1,73.0,False
46499,5468, Note_on_c,68,76,4,3,1,79.0,False
46500,5469, Note_on_c,66,76,4,3,1,77.0,False
46501,5469, Note_on_c,70,76,4,3,1,81.0,False
46502,5470, Note_on_c,58,76,4,3,1,67.0,False
46503,5471, Note_on_c,63,76,4,3,1,73.0,False
46504,5471, Note_on_c,68,76,4,3,1,79.0,False
46505,5472, Note_on_c,65,76,4,3,1,76.0,True
46506,5472, Note_on_c,70,76,4,3,1,81.0,False
46507,5473, Note_on_c,58,76,4,3,1,67.0,False
46508,5474, Note_on_c,63,76,4,3,1,73.0,False
46509,5474, Note_on_c,68,76,4,3,1,79.0,False
46510,5475, Note_on_c,65,76,4,3,1,76.0,True
46511,5475, Note_on_c,70,76,4,3,1,81.0,False
46512,5476, Note_on_c,63,76,4,3,1,73.0,False
46513,5476, Note_on_c,68,76,4,3,1,79.0,False
46514,5477, Note_on_c,66,76,4,3,1,77.0,False
46515,5477, Note_on_c,70,76,4,3,1,81.0,False
46516,5478, Note_on_c,58,76,4,3,1,67.0,False
46517,5479, Note_on_c,63,76,4,3,1,73.0,False
46518,5479, Note_on_c,68,76,4,3,1,79.0,False
46519,5480, Note_on_c,65,76,4,3,1,76.0,True
46520,5480, Note_on_c,70,76,4,3,1,81.0,False
46521,5481, Note_on_c,58,76,4,3,1,67.0,False
46522,5482, Note_on_c,63,74,4,3,1,73.0,False
46523,5482, Note_on_c,68,74,4,3,1,79.0,False
46524,5483, Note_on_c,65,71,4,3,1,76.0,True
46525,5483, Note_on_c,70,71,4,3,1,81.0,False
46526,5484, Note_on_c,63,69,4,3,1,73.0,False
46527,5484, Note_on_c,68,69,4,3,1,79.0,False
46528,5485, Note_on_c,66,67,4,3,1,77.0,False
46529,5485, Note_on_c,70,67,4,3,1,81.0,False
46530,5486, Note_on_c,58,64,4,3,1,67.0,False
46531,5487, Note_on_c,63,62,4,3,1,73.0,False
46532,5487, Note_on_c,68,62,4,3,1,79.0,False
46533,5488, Note_on_c,65,60,4,3,1,76.0,True
46534,5488, Note_on_c,70,60,4,3,1,81.0,False
46535,5489, Note_on_c,58,57,4,3,1,67.0,False
46536,5490, Note_on_c,63,55,4,3,1,73.0,False
46537,5490, Note_on_c,68,55,4,3,1,79.0,False
46538,5491, Note_on_c,65,53,4,3,1,76.0,True
46539,5491, Note_on_c,70,53,4,3,1,81.0,False
46540,5492, Note_on_c,63,50,4,3,1,73.0,False
46541,5492, Note_on_c,68,50,4,3,1,79.0,False
46542,5493, Note_on_c,66,48,4,3,1,77.0,False
46543,5493, Note_on_c,70,48,4,3,1,81.0,False
46544,5494, Note_on_c,58,46,4,3,1,67.0,False
46545,5495, Note_on_c,63,43,4,3,1,73.0,False
46546,5495, Note_on_c,68,43,4,3,1,79.0,False
46547,5496, Note_on_c,65,41,4,3,1,76.0,True
46548,5496, Note_on_c,70,41,4,3,1,81.0,False
46549,5497, Note_on_c,58,39,4,3,1,67.0,False
46550,5498, Note_on_c,63,36,4,3,1,73.0,False
46551,5498, Note_on_c,68,36,4,3,1,79.0,False
46552,5499, Note_on_c,65,34,4,3,1,76.0,True
46553,5499, Note_on_c,70,34,4,3,1,81.0,False
46554,5500, Note_on_c,63,32,4,3,1,73.0,False
46555,5500, Note_on_c,68,32,4,3,1,79.0,False
46556,5501, Note_on_c,66,29,4,3,1,77.0,False
46557,5501, Note_on_c,70,29,4,3,1,81.0,False
46558,5502, Note_on_c,58,27,4,3,1,67.0,False
46559,5503, Note_on_c,63,25,4,3,1,73.0,False
46560,5503, Note_on_c,68,25,4,3,1,79.0,False
46561,5504, Note_on_c,65,22,4,3,1,76.0,True
46562,5504, Note_on_c,70,22,4,3,1,81.0,False
46563,5505, Note_on_c,58,20,4,3,1,67.0,False
46564,5506, Note_on_c,63,18,4,3,1,73.0,False
46565,5506, Note_on_c,68,18,4,3,1,79.0,False
46566,5507, Note_on_c,65,15,4,3,1,76.0,True
46567,5507, Note_on_c,70,15,4,3,1,81.0,False
46568,5508, Note_on_c,63,13,4,3,1,73.0,False
46569,5508, Note_on_c,68,13,4,3,1,79.0,False
46570,5509, Note_on_c,66,11,4,3,1,77.0,False
46571,5509, Note_on_c,70,11,4,3,1,81.0,False
46572,5510, Note_on_c,58,8,4,3,1,67.0,False
46573,5511, Note_on_c,63,6,4,3,1,73.0,False
46574,5511, Note_on_c,68,6,4,3,1,79.0,False
46575,5512, Note_on_c,65,4,4,3,1,76.0,True
46576,5512, Note_on_c,70,4,4,3,1,81.0,False
46577,5539, Note_on_c,77,108,4,3,1,90.0,True
46578,5539, Note_on_c,82,108,4,3,1,95.0,False
46579,5547, Note_on_c,77,108,4,3,1,90.0,True
46580,5547, Note_on_c,82,108,4,3,1,95.0,False
46581,5555, Note_on_c,77,108,4,3,1,90.0,True
46582,5555, Note_on_c,82,108,4,3,1,95.0,False
46583,5563, Note_on_c,77,108,4,3,1,90.0,True
46584,5563, Note_on_c,82,108,4,3,1,95.0,False
46585,5571, Note_on_c,77,108,4,3,1,90.0,True
46586,5571, Note_on_c,82,108,4,3,1,95.0,False
46587,5579, Note_on_c,77,108,4,3,1,90.0,True
46588,5579, Note_on_c,82,108,4,3,1,95.0,False
46589,5587, Note_on_c,77,108,4,3,1,90.0,True
46590,5587, Note_on_c,82,108,4,3,1,95.0,False
46591,5595, Note_on_c,77,108,4,3,1,90.0,True
46592,5595, Note_on_c,82,108,4,3,1,95.0,False
46593,5603, Note_on_c,77,108,4,3,1,90.0,True
46594,5603, Note_on_c,82,108,4,3,1,95.0,False
46595,5605, Note_on_c,70,108,4,3,1,81.0,False
46596,5611, Note_on_c,77,108,4,3,1,90.0,True
46597,5611, Note_on_c,82,108,4,3,1,95.0,False
46598,5613, Note_on_c,70,108,4,3,1,81.0,False
46599,5619, Note_on_c,77,108,4,3,1,90.0,True
46600,5619, Note_on_c,82,108,4,3,1,95.0,False
46601,5621, Note_on_c,70,108,4,3,1,81.0,False
46602,5627, Note_on_c,77,108,4,3,1,90.0,True
46603,5627, Note_on_c,82,108,4,3,1,95.0,False
46604,5629, Note_on_c,70,108,4,3,1,81.0,False
46605,5635, Note_on_c,77,108,4,3,1,90.0,True
46606,5635, Note_on_c,82,108,4,3,1,95.0,False
46607,5637, Note_on_c,70,108,4,3,1,81.0,False
46608,5643, Note_on_c,77,108,4,3,1,90.0,True
46609,5643, Note_on_c,82,108,4,3,1,95.0,False
46610,5645, Note_on_c,70,108,4,3,1,81.0,False
46611,5651, Note_on_c,77,108,4,3,1,90.0,True
46612,5651, Note_on_c,82,108,4,3,1,95.0,False
46613,5653, Note_on_c,70,108,4,3,1,81.0,False
46614,5659, Note_on_c,77,108,4,3,1,90.0,True
46615,5659, Note_on_c,82,108,4,3,1,95.0,False
46616,5661, Note_on_c,70,108,4,3,1,81.0,False
46617,5666, Note_on_c,70,108,4,3,1,81.0,False
46618,5667, Note_on_c,77,108,4,3,1,90.0,True
46619,5667, Note_on_c,82,108,4,3,1,95.0,False
46620,5669, Note_on_c,70,108,4,3,1,81.0,False
46621,5674, Note_on_c,70,108,4,3,1,81.0,False
46622,5675, Note_on_c,77,108,4,3,1,90.0,True
46623,5675, Note_on_c,82,108,4,3,1,95.0,False
46624,5677, Note_on_c,70,108,4,3,1,81.0,False
46625,5682, Note_on_c,70,108,4,3,1,81.0,False
46626,5683, Note_on_c,77,108,4,3,1,90.0,True
46627,5683, Note_on_c,82,108,4,3,1,95.0,False
46628,5685, Note_on_c,70,108,4,3,1,81.0,False
46629,5690, Note_on_c,70,108,4,3,1,81.0,False
46630,5691, Note_on_c,77,108,4,3,1,90.0,True
46631,5691, Note_on_c,82,108,4,3,1,95.0,False
46632,5693, Note_on_c,70,108,4,3,1,81.0,False
46633,5698, Note_on_c,70,108,4,3,1,81.0,False
46634,5699, Note_on_c,77,108,4,3,1,90.0,True
46635,5699, Note_on_c,82,108,4,3,1,95.0,False
46636,5701, Note_on_c,70,108,4,3,1,81.0,False
46637,5706, Note_on_c,70,108,4,3,1,81.0,False
46638,5707, Note_on_c,77,108,4,3,1,90.0,True
46639,5707, Note_on_c,82,108,4,3,1,95.0,False
46640,5709, Note_on_c,70,108,4,3,1,81.0,False
46641,5714, Note_on_c,70,108,4,3,1,81.0,False
46642,5715, Note_on_c,77,108,4,3,1,90.0,True
46643,5715, Note_on_c,82,108,4,3,1,95.0,False
46644,5717, Note_on_c,70,108,4,3,1,81.0,False
46645,5722, Note_on_c,70,108,4,3,1,81.0,False
46646,5723, Note_on_c,77,108,4,3,1,90.0,True
46647,5723, Note_on_c,82,108,4,3,1,95.0,False
46648,5725, Note_on_c,70,108,4,3,1,81.0,False
46649,5730, Note_on_c,70,108,4,3,1,81.0,False
46650,5731, Note_on_c,77,108,4,3,1,90.0,True
46651,5731, Note_on_c,82,108,4,3,1,95.0,False
46652,5733, Note_on_c,70,108,4,3,1,81.0,False
46653,5734, Note_on_c,77,108,4,3,1,90.0,True
46654,5734, Note_on_c,82,108,4,3,1,95.0,False
46655,5738, Note_on_c,70,108,4,3,1,81.0,False
46656,5739, Note_on_c,77,108,4,3,1,90.0,True
46657,5739, Note_on_c,82,108,4,3,1,95.0,False
46658,5741, Note_on_c,70,108,4,3,1,81.0,False
46659,5742, Note_on_c,77,108,4,3,1,90.0,True
46660,5742, Note_on_c,82,108,4,3,1,95.0,False
46661,5746, Note_on_c,70,108,4,3,1,81.0,False
46662,5747, Note_on_c,77,108,4,3,1,90.0,True
46663,5747, Note_on_c,82,108,4,3,1,95.0,False
46664,5749, Note_on_c,70,108,4,3,1,81.0,False
46665,5750, Note_on_c,77,108,4,3,1,90.0,True
46666,5750, Note_on_c,82,108,4,3,1,95.0,False
46667,5754, Note_on_c,70,108,4,3,1,81.0,False
46668,5755, Note_on_c,77,108,4,3,1,90.0,True
46669,5755, Note_on_c,82,108,4,3,1,95.0,False
46670,5757, Note_on_c,70,108,4,3,1,81.0,False
46671,5758, Note_on_c,77,108,4,3,1,90.0,True
46672,5758, Note_on_c,82,108,4,3,1,95.0,False
46673,5762, Note_on_c,70,108,4,3,1,81.0,False
46674,5763, Note_on_c,77,108,4,3,1,90.0,True
46675,5763, Note_on_c,82,108,4,3,1,95.0,False
46676,5765, Note_on_c,70,108,4,3,1,81.0,False
46677,5766, Note_on_c,77,108,4,3,1,90.0,True
46678,5766, Note_on_c,82,108,4,3,1,95.0,False
46679,5770, Note_on_c,70,108,4,3,1,81.0,False
46680,5771, Note_on_c,77,108,4,3,1,90.0,True
46681,5771, Note_on_c,82,108,4,3,1,95.0,False
46682,5773, Note_on_c,70,108,4,3,1,81.0,False
46683,5774, Note_on_c,77,108,4,3,1,90.0,True
46684,5774, Note_on_c,82,108,4,3,1,95.0,False
46685,5778, Note_on_c,70,108,4,3,1,81.0,False
46686,5779, Note_on_c,77,108,4,3,1,90.0,True
46687,5779, Note_on_c,82,108,4,3,1,95.0,False
46688,5781, Note_on_c,70,108,4,3,1,81.0,False
46689,5782, Note_on_c,77,108,4,3,1,90.0,True
46690,5782, Note_on_c,82,108,4,3,1,95.0,False
46691,5786, Note_on_c,70,108,4,3,1,81.0,False
46692,5787, Note_on_c,77,108,4,3,1,90.0,True
46693,5787, Note_on_c,82,108,4,3,1,95.0,False
46694,5789, Note_on_c,70,108,4,3,1,81.0,False
46695,5790, Note_on_c,77,108,4,3,1,90.0,True
46696,5790, Note_on_c,82,108,4,3,1,95.0,False
46697,5794, Note_on_c,70,108,4,3,1,81.0,False
46698,5795, Note_on_c,77,108,4,3,1,90.0,True
46699,5795, Note_on_c,82,108,4,3,1,95.0,False
46700,5797, Note_on_c,70,108,4,3,1,81.0,False
46701,5798, Note_on_c,77,108,4,3,1,90.0,True
46702,5798, Note_on_c,82,108,4,3,1,95.0,False
46703,5800, Note_on_c,77,108,4,3,1,90.0,True
46704,5800, Note_on_c,82,108,4,3,1,95.0,False
46705,5802, Note_on_c,70,108,4,3,1,81.0,False
46706,5803, Note_on_c,77,108,4,3,1,90.0,True
46707,5803, Note_on_c,82,108,4,3,1,95.0,False
46708,5805, Note_on_c,70,108,4,3,1,81.0,False
46709,5806, Note_on_c,77,108,4,3,1,90.0,True
46710,5806, Note_on_c,82,108,4,3,1,95.0,False
46711,5808, Note_on_c,77,108,4,3,1,90.0,True
46712,5808, Note_on_c,82,108,4,3,1,95.0,False
46713,5810, Note_on_c,70,108,4,3,1,81.0,False
46714,5811, Note_on_c,77,108,4,3,1,90.0,True
46715,5811, Note_on_c,82,108,4,3,1,95.0,False
46716,5813, Note_on_c,70,108,4,3,1,81.0,False
46717,5814, Note_on_c,77,108,4,3,1,90.0,True
46718,5814, Note_on_c,82,108,4,3,1,95.0,False
46719,5816, Note_on_c,77,108,4,3,1,90.0,True
46720,5816, Note_on_c,82,108,4,3,1,95.0,False
46721,5818, Note_on_c,70,108,4,3,1,81.0,False
46722,5819, Note_on_c,77,108,4,3,1,90.0,True
46723,5819, Note_on_c,82,108,4,3,1,95.0,False
46724,5821, Note_on_c,70,108,4,3,1,81.0,False
46725,5822, Note_on_c,77,108,4,3,1,90.0,True
46726,5822, Note_on_c,82,108,4,3,1,95.0,False
46727,5824, Note_on_c,77,108,4,3,1,90.0,True
46728,5824, Note_on_c,82,108,4,3,1,95.0,False
46729,5826, Note_on_c,70,108,4,3,1,81.0,False
46730,5827, Note_on_c,77,108,4,3,1,90.0,True
46731,5827, Note_on_c,82,108,4,3,1,95.0,False
46732,5829, Note_on_c,70,108,4,3,1,81.0,False
46733,5830, Note_on_c,77,108,4,3,1,90.0,True
46734,5830, Note_on_c,82,108,4,3,1,95.0,False
46735,5832, Note_on_c,77,108,4,3,1,90.0,True
46736,5832, Note_on_c,82,108,4,3,1,95.0,False
46737,5834, Note_on_c,70,108,4,3,1,81.0,False
46738,5835, Note_on_c,77,108,4,3,1,90.0,True
46739,5835, Note_on_c,82,108,4,3,1,95.0,False
46740,5837, Note_on_c,70,108,4,3,1,81.0,False
46741,5838, Note_on_c,77,108,4,3,1,90.0,True
46742,5838, Note_on_c,82,108,4,3,1,95.0,False
46743,5840, Note_on_c,77,108,4,3,1,90.0,True
46744,5840, Note_on_c,82,108,4,3,1,95.0,False
46745,5842, Note_on_c,70,108,4,3,1,81.0,False
46746,5843, Note_on_c,77,108,4,3,1,90.0,True
46747,5843, Note_on_c,82,108,4,3,1,95.0,False
46748,5845, Note_on_c,70,108,4,3,1,81.0,False
46749,5846, Note_on_c,77,108,4,3,1,90.0,True
46750,5846, Note_on_c,82,108,4,3,1,95.0,False
46751,5848, Note_on_c,77,108,4,3,1,90.0,True
46752,5848, Note_on_c,82,108,4,3,1,95.0,False
46753,5850, Note_on_c,70,108,4,3,1,81.0,False
46754,5851, Note_on_c,77,108,4,3,1,90.0,True
46755,5851, Note_on_c,82,108,4,3,1,95.0,False
46756,5853, Note_on_c,70,108,4,3,1,81.0,False
46757,5854, Note_on_c,77,108,4,3,1,90.0,True
46758,5854, Note_on_c,82,108,4,3,1,95.0,False
46759,5856, Note_on_c,77,108,4,3,1,90.0,True
46760,5856, Note_on_c,82,108,4,3,1,95.0,False
46761,5858, Note_on_c,70,108,4,3,1,81.0,False
46762,5859, Note_on_c,77,108,4,3,1,90.0,True
46763,5859, Note_on_c,82,108,4,3,1,95.0,False
46764,5861, Note_on_c,70,108,4,3,1,81.0,False
46765,5862, Note_on_c,77,108,4,3,1,90.0,True
46766,5862, Note_on_c,82,108,4,3,1,95.0,False
46767,5863, Note_on_c,68,108,4,3,1,79.0,False
46768,5863, Note_on_c,75,108,4,3,1,87.0,False
46769,5864, Note_on_c,77,108,4,3,1,90.0,True
46770,5864, Note_on_c,82,108,4,3,1,95.0,False
46771,5866, Note_on_c,70,108,4,3,1,81.0,False
46772,5867, Note_on_c,77,108,4,3,1,90.0,True
46773,5867, Note_on_c,82,108,4,3,1,95.0,False
46774,5869, Note_on_c,70,108,4,3,1,81.0,False
46775,5870, Note_on_c,77,108,4,3,1,90.0,True
46776,5870, Note_on_c,82,108,4,3,1,95.0,False
46777,5871, Note_on_c,68,108,4,3,1,79.0,False
46778,5871, Note_on_c,75,108,4,3,1,87.0,False
46779,5872, Note_on_c,77,108,4,3,1,90.0,True
46780,5872, Note_on_c,82,108,4,3,1,95.0,False
46781,5874, Note_on_c,70,108,4,3,1,81.0,False
46782,5875, Note_on_c,77,108,4,3,1,90.0,True
46783,5875, Note_on_c,82,108,4,3,1,95.0,False
46784,5877, Note_on_c,70,108,4,3,1,81.0,False
46785,5878, Note_on_c,77,108,4,3,1,90.0,True
46786,5878, Note_on_c,82,108,4,3,1,95.0,False
46787,5879, Note_on_c,68,108,4,3,1,79.0,False
46788,5879, Note_on_c,75,108,4,3,1,87.0,False
46789,5880, Note_on_c,77,108,4,3,1,90.0,True
46790,5880, Note_on_c,82,108,4,3,1,95.0,False
46791,5882, Note_on_c,70,108,4,3,1,81.0,False
46792,5883, Note_on_c,77,108,4,3,1,90.0,True
46793,5883, Note_on_c,82,108,4,3,1,95.0,False
46794,5885, Note_on_c,70,108,4,3,1,81.0,False
46795,5886, Note_on_c,77,108,4,3,1,90.0,True
46796,5886, Note_on_c,82,108,4,3,1,95.0,False
46797,5887, Note_on_c,68,108,4,3,1,79.0,False
46798,5887, Note_on_c,75,108,4,3,1,87.0,False
46799,5888, Note_on_c,77,108,4,3,1,90.0,True
46800,5888, Note_on_c,82,108,4,3,1,95.0,False
46801,5890, Note_on_c,70,108,4,3,1,81.0,False
46802,5891, Note_on_c,77,108,4,3,1,90.0,True
46803,5891, Note_on_c,82,108,4,3,1,95.0,False
46804,5893, Note_on_c,70,108,4,3,1,81.0,False
46805,5894, Note_on_c,77,108,4,3,1,90.0,True
46806,5894, Note_on_c,82,108,4,3,1,95.0,False
46807,5895, Note_on_c,68,108,4,3,1,79.0,False
46808,5895, Note_on_c,75,108,4,3,1,87.0,False
46809,5896, Note_on_c,77,108,4,3,1,90.0,True
46810,5896, Note_on_c,82,108,4,3,1,95.0,False
46811,5898, Note_on_c,70,108,4,3,1,81.0,False
46812,5899, Note_on_c,77,108,4,3,1,90.0,True
46813,5899, Note_on_c,82,108,4,3,1,95.0,False
46814,5901, Note_on_c,70,108,4,3,1,81.0,False
46815,5902, Note_on_c,77,108,4,3,1,90.0,True
46816,5902, Note_on_c,82,108,4,3,1,95.0,False
46817,5903, Note_on_c,68,108,4,3,1,79.0,False
46818,5903, Note_on_c,75,108,4,3,1,87.0,False
46819,5904, Note_on_c,77,108,4,3,1,90.0,True
46820,5904, Note_on_c,82,108,4,3,1,95.0,False
46821,5906, Note_on_c,70,108,4,3,1,81.0,False
46822,5907, Note_on_c,77,108,4,3,1,90.0,True
46823,5907, Note_on_c,82,108,4,3,1,95.0,False
46824,5909, Note_on_c,70,108,4,3,1,81.0,False
46825,5910, Note_on_c,77,108,4,3,1,90.0,True
46826,5910, Note_on_c,82,108,4,3,1,95.0,False
46827,5911, Note_on_c,68,108,4,3,1,79.0,False
46828,5911, Note_on_c,75,108,4,3,1,87.0,False
46829,5912, Note_on_c,77,108,4,3,1,90.0,True
46830,5912, Note_on_c,82,108,4,3,1,95.0,False
46831,5914, Note_on_c,70,108,4,3,1,81.0,False
46832,5915, Note_on_c,77,108,4,3,1,90.0,True
46833,5915, Note_on_c,82,108,4,3,1,95.0,False
46834,5917, Note_on_c,70,108,4,3,1,81.0,False
46835,5918, Note_on_c,77,108,4,3,1,90.0,True
46836,5918, Note_on_c,82,108,4,3,1,95.0,False
46837,5919, Note_on_c,68,108,4,3,1,79.0,False
46838,5919, Note_on_c,75,108,4,3,1,87.0,False
46839,5920, Note_on_c,77,108,4,3,1,90.0,True
46840,5920, Note_on_c,82,108,4,3,1,95.0,False
46841,5921, Note_on_c,68,108,4,3,1,79.0,False
46842,5921, Note_on_c,73,108,4,3,1,85.0,False
46843,5922, Note_on_c,70,108,4,3,1,81.0,False
46844,5923, Note_on_c,77,108,4,3,1,90.0,True
46845,5923, Note_on_c,82,108,4,3,1,95.0,False
46846,5925, Note_on_c,70,108,4,3,1,81.0,False
46847,5926, Note_on_c,77,108,4,3,1,90.0,True
46848,5926, Note_on_c,82,108,4,3,1,95.0,False
46849,5927, Note_on_c,68,108,4,3,1,79.0,False
46850,5927, Note_on_c,75,108,4,3,1,87.0,False
46851,5928, Note_on_c,77,108,4,3,1,90.0,True
46852,5928, Note_on_c,82,108,4,3,1,95.0,False
46853,5929, Note_on_c,68,108,4,3,1,79.0,False
46854,5929, Note_on_c,73,108,4,3,1,85.0,False
46855,5930, Note_on_c,70,108,4,3,1,81.0,False
46856,5931, Note_on_c,77,108,4,3,1,90.0,True
46857,5931, Note_on_c,82,108,4,3,1,95.0,False
46858,5933, Note_on_c,70,108,4,3,1,81.0,False
46859,5934, Note_on_c,77,108,4,3,1,90.0,True
46860,5934, Note_on_c,82,108,4,3,1,95.0,False
46861,5935, Note_on_c,68,108,4,3,1,79.0,False
46862,5935, Note_on_c,75,108,4,3,1,87.0,False
46863,5936, Note_on_c,77,108,4,3,1,90.0,True
46864,5936, Note_on_c,82,108,4,3,1,95.0,False
46865,5937, Note_on_c,68,108,4,3,1,79.0,False
46866,5937, Note_on_c,73,108,4,3,1,85.0,False
46867,5938, Note_on_c,70,108,4,3,1,81.0,False
46868,5939, Note_on_c,77,108,4,3,1,90.0,True
46869,5939, Note_on_c,82,108,4,3,1,95.0,False
46870,5941, Note_on_c,70,108,4,3,1,81.0,False
46871,5942, Note_on_c,77,108,4,3,1,90.0,True
46872,5942, Note_on_c,82,108,4,3,1,95.0,False
46873,5943, Note_on_c,68,108,4,3,1,79.0,False
46874,5943, Note_on_c,75,108,4,3,1,87.0,False
46875,5944, Note_on_c,77,108,4,3,1,90.0,True
46876,5944, Note_on_c,82,108,4,3,1,95.0,False
46877,5945, Note_on_c,68,108,4,3,1,79.0,False
46878,5945, Note_on_c,73,108,4,3,1,85.0,False
46879,5946, Note_on_c,70,108,4,3,1,81.0,False
46880,5947, Note_on_c,77,108,4,3,1,90.0,True
46881,5947, Note_on_c,82,108,4,3,1,95.0,False
46882,5949, Note_on_c,70,108,4,3,1,81.0,False
46883,5950, Note_on_c,77,108,4,3,1,90.0,True
46884,5950, Note_on_c,82,108,4,3,1,95.0,False
46885,5951, Note_on_c,68,108,4,3,1,79.0,False
46886,5951, Note_on_c,75,108,4,3,1,87.0,False
46887,5952, Note_on_c,77,108,4,3,1,90.0,True
46888,5952, Note_on_c,82,108,4,3,1,95.0,False
46889,5953, Note_on_c,68,108,4,3,1,79.0,False
46890,5953, Note_on_c,73,108,4,3,1,85.0,False
46891,5954, Note_on_c,70,108,4,3,1,81.0,False
46892,5955, Note_on_c,77,108,4,3,1,90.0,True
46893,5955, Note_on_c,82,108,4,3,1,95.0,False
46894,5957, Note_on_c,70,108,4,3,1,81.0,False
46895,5958, Note_on_c,77,108,4,3,1,90.0,True
46896,5958, Note_on_c,82,108,4,3,1,95.0,False
46897,5959, Note_on_c,68,108,4,3,1,79.0,False
46898,5959, Note_on_c,75,108,4,3,1,87.0,False
46899,5960, Note_on_c,77,108,4,3,1,90.0,True
46900,5960, Note_on_c,82,108,4,3,1,95.0,False
46901,5961, Note_on_c,68,108,4,3,1,79.0,False
46902,5961, Note_on_c,73,108,4,3,1,85.0,False
46903,5962, Note_on_c,70,108,4,3,1,81.0,False
46904,5963, Note_on_c,77,108,4,3,1,90.0,True
46905,5963, Note_on_c,82,108,4,3,1,95.0,False
46906,5965, Note_on_c,70,108,4,3,1,81.0,False
46907,5966, Note_on_c,77,108,4,3,1,90.0,True
46908,5966, Note_on_c,82,108,4,3,1,95.0,False
46909,5967, Note_on_c,68,108,4,3,1,79.0,False
46910,5967, Note_on_c,75,108,4,3,1,87.0,False
46911,5968, Note_on_c,77,108,4,3,1,90.0,True
46912,5968, Note_on_c,82,108,4,3,1,95.0,False
46913,5969, Note_on_c,68,108,4,3,1,79.0,False
46914,5969, Note_on_c,73,108,4,3,1,85.0,False
46915,5970, Note_on_c,70,108,4,3,1,81.0,False
46916,5971, Note_on_c,77,108,4,3,1,90.0,True
46917,5971, Note_on_c,82,108,4,3,1,95.0,False
46918,5973, Note_on_c,70,108,4,3,1,81.0,False
46919,5974, Note_on_c,77,108,4,3,1,90.0,True
46920,5974, Note_on_c,82,108,4,3,1,95.0,False
46921,5975, Note_on_c,68,108,4,3,1,79.0,False
46922,5975, Note_on_c,75,108,4,3,1,87.0,False
46923,5976, Note_on_c,77,108,4,3,1,90.0,True
46924,5976, Note_on_c,82,108,4,3,1,95.0,False
46925,5977, Note_on_c,68,108,4,3,1,79.0,False
46926,5977, Note_on_c,73,108,4,3,1,85.0,False
46927,5978, Note_on_c,70,108,4,3,1,81.0,False
46928,5979, Note_on_c,77,108,4,3,1,90.0,True
46929,5979, Note_on_c,82,108,4,3,1,95.0,False
46930,5981, Note_on_c,70,108,4,3,1,81.0,False
46931,5982, Note_on_c,77,108,4,3,1,90.0,True
46932,5982, Note_on_c,82,108,4,3,1,95.0,False
46933,5983, Note_on_c,68,108,4,3,1,79.0,False
46934,5983, Note_on_c,75,108,4,3,1,87.0,False
46935,5984, Note_on_c,77,108,4,3,1,90.0,True
46936,5984, Note_on_c,82,108,4,3,1,95.0,False
46937,5985, Note_on_c,68,108,4,3,1,79.0,False
46938,5985, Note_on_c,73,108,4,3,1,85.0,False
46939,5986, Note_on_c,70,108,4,3,1,81.0,False
46940,5987, Note_on_c,77,108,4,3,1,90.0,True
46941,5987, Note_on_c,82,108,4,3,1,95.0,False
46942,5988, Note_on_c,68,108,4,3,1,79.0,False
46943,5988, Note_on_c,75,108,4,3,1,87.0,False
46944,5989, Note_on_c,70,108,4,3,1,81.0,False
46945,5990, Note_on_c,77,108,4,3,1,90.0,True
46946,5990, Note_on_c,82,108,4,3,1,95.0,False
46947,5991, Note_on_c,68,108,4,3,1,79.0,False
46948,5991, Note_on_c,75,108,4,3,1,87.0,False
46949,5992, Note_on_c,77,108,4,3,1,90.0,True
46950,5992, Note_on_c,82,108,4,3,1,95.0,False
46951,5993, Note_on_c,68,108,4,3,1,79.0,False
46952,5993, Note_on_c,73,108,4,3,1,85.0,False
46953,5994, Note_on_c,70,108,4,3,1,81.0,False
46954,5995, Note_on_c,77,108,4,3,1,90.0,True
46955,5995, Note_on_c,82,108,4,3,1,95.0,False
46956,5996, Note_on_c,68,108,4,3,1,79.0,False
46957,5996, Note_on_c,75,108,4,3,1,87.0,False
46958,5997, Note_on_c,70,108,4,3,1,81.0,False
46959,5998, Note_on_c,77,108,4,3,1,90.0,True
46960,5998, Note_on_c,82,108,4,3,1,95.0,False
46961,5999, Note_on_c,68,108,4,3,1,79.0,False
46962,5999, Note_on_c,75,108,4,3,1,87.0,False
46963,6000, Note_on_c,77,108,4,3,1,90.0,True
46964,6000, Note_on_c,82,108,4,3,1,95.0,False
46965,6001, Note_on_c,68,108,4,3,1,79.0,False
46966,6001, Note_on_c,73,108,4,3,1,85.0,False
46967,6002, Note_on_c,70,108,4,3,1,81.0,False
46968,6003, Note_on_c,77,108,4,3,1,90.0,True
46969,6003, Note_on_c,82,108,4,3,1,95.0,False
46970,6004, Note_on_c,68,108,4,3,1,79.0,False
46971,6004, Note_on_c,75,108,4,3,1,87.0,False
46972,6005, Note_on_c,70,108,4,3,1,81.0,False
46973,6006, Note_on_c,77,108,4,3,1,90.0,True
46974,6006, Note_on_c,82,108,4,3,1,95.0,False
46975,6007, Note_on_c,68,108,4,3,1,79.0,False
46976,6007, Note_on_c,75,108,4,3,1,87.0,False
46977,6008, Note_on_c,77,108,4,3,1,90.0,True
46978,6008, Note_on_c,82,108,4,3,1,95.0,False
46979,6009, Note_on_c,68,108,4,3,1,79.0,False
46980,6009, Note_on_c,73,108,4,3,1,85.0,False
46981,6010, Note_on_c,70,108,4,3,1,81.0,False
46982,6011, Note_on_c,77,108,4,3,1,90.0,True
46983,6011, Note_on_c,82,108,4,3,1,95.0,False
46984,6012, Note_on_c,68,108,4,3,1,79.0,False
46985,6012, Note_on_c,75,108,4,3,1,87.0,False
46986,6013, Note_on_c,70,108,4,3,1,81.0,False
46987,6014, Note_on_c,77,108,4,3,1,90.0,True
46988,6014, Note_on_c,82,108,4,3,1,95.0,False
46989,6015, Note_on_c,68,108,4,3,1,79.0,False
46990,6015, Note_on_c,75,108,4,3,1,87.0,False
46991,6016, Note_on_c,77,108,4,3,1,90.0,True
46992,6016, Note_on_c,82,108,4,3,1,95.0,False
46993,6017, Note_on_c,68,108,4,3,1,79.0,False
46994,6017, Note_on_c,73,108,4,3,1,85.0,False
46995,6018, Note_on_c,70,108,4,3,1,81.0,False
46996,6019, Note_on_c,77,108,4,3,1,90.0,True
46997,6019, Note_on_c,82,108,4,3,1,95.0,False
46998,6020, Note_on_c,68,108,4,3,1,79.0,False
46999,6020, Note_on_c,75,108,4,3,1,87.0,False
47000,6021, Note_on_c,70,108,4,3,1,81.0,False
47001,6022, Note_on_c,77,108,4,3,1,90.0,True
47002,6022, Note_on_c,82,108,4,3,1,95.0,False
47003,6023, Note_on_c,68,108,4,3,1,79.0,False
47004,6023, Note_on_c,75,108,4,3,1,87.0,False
47005,6024, Note_on_c,77,108,4,3,1,90.0,True
47006,6024, Note_on_c,82,108,4,3,1,95.0,False
47007,6025, Note_on_c,68,108,4,3,1,79.0,False
47008,6025, Note_on_c,73,108,4,3,1,85.0,False
47009,6026, Note_on_c,70,108,4,3,1,81.0,False
47010,6027, Note_on_c,77,108,4,3,1,90.0,True
47011,6027, Note_on_c,82,108,4,3,1,95.0,False
47012,6028, Note_on_c,68,108,4,3,1,79.0,False
47013,6028, Note_on_c,75,108,4,3,1,87.0,False
47014,6029, Note_on_c,70,108,4,3,1,81.0,False
47015,6030, Note_on_c,77,108,4,3,1,90.0,True
47016,6030, Note_on_c,82,108,4,3,1,95.0,False
47017,6031, Note_on_c,68,108,4,3,1,79.0,False
47018,6031, Note_on_c,75,108,4,3,1,87.0,False
47019,6032, Note_on_c,77,108,4,3,1,90.0,True
47020,6032, Note_on_c,82,108,4,3,1,95.0,False
47021,6033, Note_on_c,68,108,4,3,1,79.0,False
47022,6033, Note_on_c,73,108,4,3,1,85.0,False
47023,6034, Note_on_c,70,108,4,3,1,81.0,False
47024,6035, Note_on_c,77,108,4,3,1,90.0,True
47025,6035, Note_on_c,82,108,4,3,1,95.0,False
47026,6036, Note_on_c,68,108,4,3,1,79.0,False
47027,6036, Note_on_c,75,108,4,3,1,87.0,False
47028,6037, Note_on_c,70,108,4,3,1,81.0,False
47029,6038, Note_on_c,77,108,4,3,1,90.0,True
47030,6038, Note_on_c,82,108,4,3,1,95.0,False
47031,6039, Note_on_c,68,108,4,3,1,79.0,False
47032,6039, Note_on_c,75,108,4,3,1,87.0,False
47033,6040, Note_on_c,77,108,4,3,1,90.0,True
47034,6040, Note_on_c,82,108,4,3,1,95.0,False
47035,6041, Note_on_c,68,108,4,3,1,79.0,False
47036,6041, Note_on_c,73,108,4,3,1,85.0,False
47037,6042, Note_on_c,70,108,4,3,1,81.0,False
47038,6043, Note_on_c,77,108,4,3,1,90.0,True
47039,6043, Note_on_c,82,108,4,3,1,95.0,False
47040,6044, Note_on_c,68,108,4,3,1,79.0,False
47041,6044, Note_on_c,75,108,4,3,1,87.0,False
47042,6045, Note_on_c,70,108,4,3,1,81.0,False
47043,6046, Note_on_c,77,108,4,3,1,90.0,True
47044,6046, Note_on_c,82,108,4,3,1,95.0,False
47045,6047, Note_on_c,68,108,4,3,1,79.0,False
47046,6047, Note_on_c,75,108,4,3,1,87.0,False
47047,6048, Note_on_c,77,108,4,3,1,90.0,True
47048,6048, Note_on_c,82,108,4,3,1,95.0,False
47049,6049, Note_on_c,68,107,4,3,1,79.0,False
47050,6049, Note_on_c,73,107,4,3,1,85.0,False
47051,6050, Note_on_c,70,106,4,3,1,81.0,False
47052,6051, Note_on_c,77,105,4,3,1,90.0,True
47053,6051, Note_on_c,82,105,4,3,1,95.0,False
47054,6052, Note_on_c,68,105,4,3,1,79.0,False
47055,6052, Note_on_c,75,105,4,3,1,87.0,False
47056,6053, Note_on_c,70,104,4,3,1,81.0,False
47057,6054, Note_on_c,77,103,4,3,1,90.0,True
47058,6054, Note_on_c,82,103,4,3,1,95.0,False
47059,6055, Note_on_c,68,102,4,3,1,79.0,False
47060,6055, Note_on_c,75,102,4,3,1,87.0,False
47061,6056, Note_on_c,77,102,4,3,1,90.0,True
47062,6056, Note_on_c,82,102,4,3,1,95.0,False
47063,6057, Note_on_c,68,101,4,3,1,79.0,False
47064,6057, Note_on_c,73,101,4,3,1,85.0,False
47065,6058, Note_on_c,70,100,4,3,1,81.0,False
47066,6059, Note_on_c,77,99,4,3,1,90.0,True
47067,6059, Note_on_c,82,99,4,3,1,95.0,False
47068,6060, Note_on_c,68,99,4,3,1,79.0,False
47069,6060, Note_on_c,75,99,4,3,1,87.0,False
47070,6061, Note_on_c,70,98,4,3,1,81.0,False
47071,6062, Note_on_c,77,97,4,3,1,90.0,True
47072,6062, Note_on_c,82,97,4,3,1,95.0,False
47073,6063, Note_on_c,68,96,4,3,1,79.0,False
47074,6063, Note_on_c,75,96,4,3,1,87.0,False
47075,6064, Note_on_c,77,95,4,3,1,90.0,True
47076,6064, Note_on_c,82,95,4,3,1,95.0,False
47077,6065, Note_on_c,68,95,4,3,1,79.0,False
47078,6065, Note_on_c,73,95,4,3,1,85.0,False
47079,6066, Note_on_c,70,94,4,3,1,81.0,False
47080,6067, Note_on_c,77,93,4,3,1,90.0,True
47081,6067, Note_on_c,82,93,4,3,1,95.0,False
47082,6068, Note_on_c,68,92,4,3,1,79.0,False
47083,6068, Note_on_c,75,92,4,3,1,87.0,False
47084,6069, Note_on_c,70,92,4,3,1,81.0,False
47085,6070, Note_on_c,77,91,4,3,1,90.0,True
47086,6070, Note_on_c,82,91,4,3,1,95.0,False
47087,6071, Note_on_c,68,90,4,3,1,79.0,False
47088,6071, Note_on_c,75,90,4,3,1,87.0,False
47089,6072, Note_on_c,77,89,4,3,1,90.0,True
47090,6072, Note_on_c,82,89,4,3,1,95.0,False
47091,6073, Note_on_c,68,88,4,3,1,79.0,False
47092,6073, Note_on_c,73,88,4,3,1,85.0,False
47093,6074, Note_on_c,70,88,4,3,1,81.0,False
47094,6075, Note_on_c,77,87,4,3,1,90.0,True
47095,6075, Note_on_c,82,87,4,3,1,95.0,False
47096,6076, Note_on_c,68,86,4,3,1,79.0,False
47097,6076, Note_on_c,75,86,4,3,1,87.0,False
47098,6077, Note_on_c,70,85,4,3,1,81.0,False
47099,6078, Note_on_c,77,85,4,3,1,90.0,True
47100,6078, Note_on_c,82,85,4,3,1,95.0,False
47101,6079, Note_on_c,68,84,4,3,1,79.0,False
47102,6079, Note_on_c,75,84,4,3,1,87.0,False
47103,6080, Note_on_c,77,83,4,3,1,90.0,True
47104,6080, Note_on_c,82,83,4,3,1,95.0,False
47105,6081, Note_on_c,68,82,4,3,1,79.0,False
47106,6081, Note_on_c,73,82,4,3,1,85.0,False
47107,6082, Note_on_c,70,82,4,3,1,81.0,False
47108,6083, Note_on_c,77,81,4,3,1,90.0,True
47109,6083, Note_on_c,82,81,4,3,1,95.0,False
47110,6084, Note_on_c,68,80,4,3,1,79.0,False
47111,6084, Note_on_c,75,80,4,3,1,87.0,False
47112,6085, Note_on_c,70,79,4,3,1,81.0,False
47113,6086, Note_on_c,77,78,4,3,1,90.0,True
47114,6086, Note_on_c,82,78,4,3,1,95.0,False
47115,6087, Note_on_c,68,78,4,3,1,79.0,False
47116,6087, Note_on_c,75,78,4,3,1,87.0,False
47117,6088, Note_on_c,77,77,4,3,1,90.0,True
47118,6088, Note_on_c,82,77,4,3,1,95.0,False
47119,6089, Note_on_c,68,75,4,3,1,79.0,False
47120,6089, Note_on_c,73,75,4,3,1,85.0,False
47121,6090, Note_on_c,70,75,4,3,1,81.0,False
47122,6091, Note_on_c,77,75,4,3,1,90.0,True
47123,6091, Note_on_c,82,75,4,3,1,95.0,False
47124,6092, Note_on_c,68,75,4,3,1,79.0,False
47125,6092, Note_on_c,75,75,4,3,1,87.0,False
47126,6093, Note_on_c,70,75,4,3,1,81.0,False
47127,6094, Note_on_c,77,75,4,3,1,90.0,True
47128,6094, Note_on_c,82,75,4,3,1,95.0,False
47129,6095, Note_on_c,68,75,4,3,1,79.0,False
47130,6095, Note_on_c,75,75,4,3,1,87.0,False
47131,6096, Note_on_c,77,75,4,3,1,90.0,True
47132,6096, Note_on_c,82,75,4,3,1,95.0,False
47133,6097, Note_on_c,68,75,4,3,1,79.0,False
47134,6097, Note_on_c,73,75,4,3,1,85.0,False
47135,6098, Note_on_c,70,75,4,3,1,81.0,False
47136,6099, Note_on_c,77,75,4,3,1,90.0,True
47137,6099, Note_on_c,82,75,4,3,1,95.0,False
47138,6100, Note_on_c,68,75,4,3,1,79.0,False
47139,6100, Note_on_c,75,75,4,3,1,87.0,False
47140,6101, Note_on_c,70,75,4,3,1,81.0,False
47141,6102, Note_on_c,77,75,4,3,1,90.0,True
47142,6102, Note_on_c,82,75,4,3,1,95.0,False
47143,6103, Note_on_c,68,75,4,3,1,79.0,False
47144,6103, Note_on_c,75,75,4,3,1,87.0,False
47145,6104, Note_on_c,77,75,4,3,1,90.0,True
47146,6104, Note_on_c,82,75,4,3,1,95.0,False
47147,6105, Note_on_c,68,75,4,3,1,79.0,False
47148,6105, Note_on_c,73,75,4,3,1,85.0,False
47149,6106, Note_on_c,70,75,4,3,1,81.0,False
47150,6107, Note_on_c,77,75,4,3,1,90.0,True
47151,6107, Note_on_c,82,75,4,3,1,95.0,False
47152,6108, Note_on_c,68,75,4,3,1,79.0,False
47153,6108, Note_on_c,75,75,4,3,1,87.0,False
47154,6109, Note_on_c,70,75,4,3,1,81.0,False
47155,6110, Note_on_c,77,75,4,3,1,90.0,True
47156,6110, Note_on_c,82,75,4,3,1,95.0,False
47157,6111, Note_on_c,68,75,4,3,1,79.0,False
47158,6111, Note_on_c,75,75,4,3,1,87.0,False
47159,6112, Note_on_c,77,75,4,3,1,90.0,True
47160,6112, Note_on_c,82,75,4,3,1,95.0,False
47161,6113, Note_on_c,68,75,4,3,1,79.0,False
47162,6113, Note_on_c,73,75,4,3,1,85.0,False
47163,6114, Note_on_c,70,75,4,3,1,81.0,False
47164,6115, Note_on_c,77,75,4,3,1,90.0,True
47165,6115, Note_on_c,82,75,4,3,1,95.0,False
47166,6116, Note_on_c,68,75,4,3,1,79.0,False
47167,6116, Note_on_c,75,75,4,3,1,87.0,False
47168,6117, Note_on_c,70,75,4,3,1,81.0,False
47169,6118, Note_on_c,77,75,4,3,1,90.0,True
47170,6118, Note_on_c,82,75,4,3,1,95.0,False
47171,6119, Note_on_c,68,75,4,3,1,79.0,False
47172,6119, Note_on_c,75,75,4,3,1,87.0,False
47173,6120, Note_on_c,77,75,4,3,1,90.0,True
47174,6120, Note_on_c,82,75,4,3,1,95.0,False
47175,6121, Note_on_c,68,75,4,3,1,79.0,False
47176,6121, Note_on_c,73,75,4,3,1,85.0,False
47177,6122, Note_on_c,70,75,4,3,1,81.0,False
47178,6123, Note_on_c,77,75,4,3,1,90.0,True
47179,6123, Note_on_c,82,75,4,3,1,95.0,False
47180,6124, Note_on_c,68,75,4,3,1,79.0,False
47181,6124, Note_on_c,75,75,4,3,1,87.0,False
47182,6125, Note_on_c,70,75,4,3,1,81.0,False
47183,6126, Note_on_c,77,75,4,3,1,90.0,True
47184,6126, Note_on_c,82,75,4,3,1,95.0,False
47185,6127, Note_on_c,68,75,4,3,1,79.0,False
47186,6127, Note_on_c,75,75,4,3,1,87.0,False
47187,6128, Note_on_c,77,75,4,3,1,90.0,True
47188,6128, Note_on_c,82,75,4,3,1,95.0,False
47189,6129, Note_on_c,68,75,4,3,1,79.0,False
47190,6129, Note_on_c,73,75,4,3,1,85.0,False
47191,6130, Note_on_c,70,75,4,3,1,81.0,False
47192,6131, Note_on_c,77,75,4,3,1,90.0,True
47193,6131, Note_on_c,82,75,4,3,1,95.0,False
47194,6132, Note_on_c,68,75,4,3,1,79.0,False
47195,6132, Note_on_c,75,75,4,3,1,87.0,False
47196,6133, Note_on_c,70,75,4,3,1,81.0,False
47197,6134, Note_on_c,77,75,4,3,1,90.0,True
47198,6134, Note_on_c,82,75,4,3,1,95.0,False
47199,6135, Note_on_c,68,75,4,3,1,79.0,False
47200,6135, Note_on_c,75,75,4,3,1,87.0,False
47201,6136, Note_on_c,77,75,4,3,1,90.0,True
47202,6136, Note_on_c,82,75,4,3,1,95.0,False
47203,6137, Note_on_c,68,75,4,3,1,79.0,False
47204,6137, Note_on_c,73,75,4,3,1,85.0,False
47205,6138, Note_on_c,70,75,4,3,1,81.0,False
47206,6139, Note_on_c,77,75,4,3,1,90.0,True
47207,6139, Note_on_c,82,75,4,3,1,95.0,False
47208,6140, Note_on_c,68,75,4,3,1,79.0,False
47209,6140, Note_on_c,75,75,4,3,1,87.0,False
47210,6141, Note_on_c,70,75,4,3,1,81.0,False
47211,6142, Note_on_c,77,75,4,3,1,90.0,True
47212,6142, Note_on_c,82,75,4,3,1,95.0,False
47213,6143, Note_on_c,68,75,4,3,1,79.0,False
47214,6143, Note_on_c,75,75,4,3,1,87.0,False
47215,6144, Note_on_c,77,75,4,3,1,90.0,True
47216,6144, Note_on_c,82,75,4,3,1,95.0,False
47217,6145, Note_on_c,68,75,4,3,1,79.0,False
47218,6145, Note_on_c,73,75,4,3,1,85.0,False
47219,6146, Note_on_c,70,75,4,3,1,81.0,False
47220,6147, Note_on_c,77,75,4,3,1,90.0,True
47221,6147, Note_on_c,82,75,4,3,1,95.0,False
47222,6148, Note_on_c,68,75,4,3,1,79.0,False
47223,6148, Note_on_c,75,75,4,3,1,87.0,False
47224,6149, Note_on_c,70,75,4,3,1,81.0,False
47225,6150, Note_on_c,77,75,4,3,1,90.0,True
47226,6150, Note_on_c,82,75,4,3,1,95.0,False
47227,6151, Note_on_c,68,75,4,3,1,79.0,False
47228,6151, Note_on_c,75,75,4,3,1,87.0,False
47229,6152, Note_on_c,77,75,4,3,1,90.0,True
47230,6152, Note_on_c,82,75,4,3,1,95.0,False
47231,6153, Note_on_c,68,75,4,3,1,79.0,False
47232,6153, Note_on_c,73,75,4,3,1,85.0,False
47233,6154, Note_on_c,70,75,4,3,1,81.0,False
47234,6155, Note_on_c,77,75,4,3,1,90.0,True
47235,6155, Note_on_c,82,75,4,3,1,95.0,False
47236,6156, Note_on_c,68,75,4,3,1,79.0,False
47237,6156, Note_on_c,75,75,4,3,1,87.0,False
47238,6157, Note_on_c,70,75,4,3,1,81.0,False
47239,6158, Note_on_c,77,75,4,3,1,90.0,True
47240,6158, Note_on_c,82,75,4,3,1,95.0,False
47241,6159, Note_on_c,68,75,4,3,1,79.0,False
47242,6159, Note_on_c,75,75,4,3,1,87.0,False
47243,6160, Note_on_c,77,75,4,3,1,90.0,True
47244,6160, Note_on_c,82,75,4,3,1,95.0,False
47245,6161, Note_on_c,68,75,4,3,1,79.0,False
47246,6161, Note_on_c,73,75,4,3,1,85.0,False
47247,6162, Note_on_c,70,75,4,3,1,81.0,False
47248,6163, Note_on_c,77,75,4,3,1,90.0,True
47249,6163, Note_on_c,82,75,4,3,1,95.0,False
47250,6164, Note_on_c,68,75,4,3,1,79.0,False
47251,6164, Note_on_c,75,75,4,3,1,87.0,False
47252,6165, Note_on_c,70,75,4,3,1,81.0,False
47253,6166, Note_on_c,77,75,4,3,1,90.0,True
47254,6166, Note_on_c,82,75,4,3,1,95.0,False
47255,6167, Note_on_c,68,75,4,3,1,79.0,False
47256,6167, Note_on_c,75,75,4,3,1,87.0,False
47257,6168, Note_on_c,77,75,4,3,1,90.0,True
47258,6168, Note_on_c,82,75,4,3,1,95.0,False
47259,6169, Note_on_c,68,75,4,3,1,79.0,False
47260,6169, Note_on_c,73,75,4,3,1,85.0,False
47261,6170, Note_on_c,70,75,4,3,1,81.0,False
47262,6171, Note_on_c,77,75,4,3,1,90.0,True
47263,6171, Note_on_c,82,75,4,3,1,95.0,False
47264,6172, Note_on_c,68,75,4,3,1,79.0,False
47265,6172, Note_on_c,75,75,4,3,1,87.0,False
47266,6173, Note_on_c,70,75,4,3,1,81.0,False
47267,6174, Note_on_c,77,75,4,3,1,90.0,True
47268,6174, Note_on_c,82,75,4,3,1,95.0,False
47269,6175, Note_on_c,68,75,4,3,1,79.0,False
47270,6175, Note_on_c,75,75,4,3,1,87.0,False
47271,6176, Note_on_c,77,75,4,3,1,90.0,True
47272,6176, Note_on_c,82,75,4,3,1,95.0,False
47273,6177, Note_on_c,68,75,4,3,1,79.0,False
47274,6177, Note_on_c,73,75,4,3,1,85.0,False
47275,6178, Note_on_c,70,75,4,3,1,81.0,False
47276,6179, Note_on_c,77,75,4,3,1,90.0,True
47277,6179, Note_on_c,82,75,4,3,1,95.0,False
47278,6180, Note_on_c,68,75,4,3,1,79.0,False
47279,6180, Note_on_c,75,75,4,3,1,87.0,False
47280,6181, Note_on_c,70,75,4,3,1,81.0,False
47281,6182, Note_on_c,77,75,4,3,1,90.0,True
47282,6182, Note_on_c,82,75,4,3,1,95.0,False
47283,6183, Note_on_c,68,75,4,3,1,79.0,False
47284,6183, Note_on_c,75,75,4,3,1,87.0,False
47285,6184, Note_on_c,77,75,4,3,1,90.0,True
47286,6184, Note_on_c,82,75,4,3,1,95.0,False
47287,6185, Note_on_c,68,75,4,3,1,79.0,False
47288,6185, Note_on_c,73,75,4,3,1,85.0,False
47289,6186, Note_on_c,70,75,4,3,1,81.0,False
47290,6187, Note_on_c,77,75,4,3,1,90.0,True
47291,6187, Note_on_c,82,75,4,3,1,95.0,False
47292,6188, Note_on_c,68,75,4,3,1,79.0,False
47293,6188, Note_on_c,75,75,4,3,1,87.0,False
47294,6189, Note_on_c,70,75,4,3,1,81.0,False
47295,6190, Note_on_c,77,75,4,3,1,90.0,True
47296,6190, Note_on_c,82,75,4,3,1,95.0,False
47297,6191, Note_on_c,68,75,4,3,1,79.0,False
47298,6191, Note_on_c,75,75,4,3,1,87.0,False
47299,6192, Note_on_c,77,75,4,3,1,90.0,True
47300,6192, Note_on_c,82,75,4,3,1,95.0,False
47301,6193, Note_on_c,68,75,4,3,1,79.0,False
47302,6193, Note_on_c,73,75,4,3,1,85.0,False
47303,6194, Note_on_c,70,75,4,3,1,81.0,False
47304,6195, Note_on_c,77,75,4,3,1,90.0,True
47305,6195, Note_on_c,82,75,4,3,1,95.0,False
47306,6196, Note_on_c,68,75,4,3,1,79.0,False
47307,6196, Note_on_c,75,75,4,3,1,87.0,False
47308,6197, Note_on_c,70,75,4,3,1,81.0,False
47309,6198, Note_on_c,77,75,4,3,1,90.0,True
47310,6198, Note_on_c,82,75,4,3,1,95.0,False
47311,6199, Note_on_c,68,75,4,3,1,79.0,False
47312,6199, Note_on_c,75,75,4,3,1,87.0,False
47313,6200, Note_on_c,77,75,4,3,1,90.0,True
47314,6200, Note_on_c,82,75,4,3,1,95.0,False
47315,6201, Note_on_c,68,75,4,3,1,79.0,False
47316,6201, Note_on_c,73,75,4,3,1,85.0,False
47317,6202, Note_on_c,70,75,4,3,1,81.0,False
47318,6203, Note_on_c,77,75,4,3,1,90.0,True
47319,6203, Note_on_c,82,75,4,3,1,95.0,False
47320,6204, Note_on_c,68,75,4,3,1,79.0,False
47321,6204, Note_on_c,75,75,4,3,1,87.0,False
47322,6205, Note_on_c,70,75,4,3,1,81.0,False
47323,6206, Note_on_c,77,75,4,3,1,90.0,True
47324,6206, Note_on_c,82,75,4,3,1,95.0,False
47325,6207, Note_on_c,68,75,4,3,1,79.0,False
47326,6207, Note_on_c,75,75,4,3,1,87.0,False
47327,6208, Note_on_c,77,75,4,3,1,90.0,True
47328,6208, Note_on_c,82,75,4,3,1,95.0,False
47329,6209, Note_on_c,68,75,4,3,1,79.0,False
47330,6209, Note_on_c,73,75,4,3,1,85.0,False
47331,6210, Note_on_c,70,75,4,3,1,81.0,False
47332,6211, Note_on_c,77,75,4,3,1,90.0,True
47333,6211, Note_on_c,82,75,4,3,1,95.0,False
47334,6212, Note_on_c,68,75,4,3,1,79.0,False
47335,6212, Note_on_c,75,75,4,3,1,87.0,False
47336,6213, Note_on_c,70,75,4,3,1,81.0,False
47337,6214, Note_on_c,77,75,4,3,1,90.0,True
47338,6214, Note_on_c,82,75,4,3,1,95.0,False
47339,6215, Note_on_c,68,75,4,3,1,79.0,False
47340,6215, Note_on_c,75,75,4,3,1,87.0,False
47341,6216, Note_on_c,77,75,4,3,1,90.0,True
47342,6216, Note_on_c,82,75,4,3,1,95.0,False
47343,6217, Note_on_c,68,75,4,3,1,79.0,False
47344,6217, Note_on_c,73,75,4,3,1,85.0,False
47345,6218, Note_on_c,70,75,4,3,1,81.0,False
47346,6219, Note_on_c,77,75,4,3,1,90.0,True
47347,6219, Note_on_c,82,75,4,3,1,95.0,False
47348,6220, Note_on_c,68,75,4,3,1,79.0,False
47349,6220, Note_on_c,75,75,4,3,1,87.0,False
47350,6221, Note_on_c,70,75,4,3,1,81.0,False
47351,6222, Note_on_c,77,75,4,3,1,90.0,True
47352,6222, Note_on_c,82,75,4,3,1,95.0,False
47353,6223, Note_on_c,68,75,4,3,1,79.0,False
47354,6223, Note_on_c,75,75,4,3,1,87.0,False
47355,6224, Note_on_c,77,75,4,3,1,90.0,True
47356,6224, Note_on_c,82,75,4,3,1,95.0,False
47357,6225, Note_on_c,68,75,4,3,1,79.0,False
47358,6225, Note_on_c,73,75,4,3,1,85.0,False
47359,6226, Note_on_c,70,75,4,3,1,81.0,False
47360,6227, Note_on_c,77,75,4,3,1,90.0,True
47361,6227, Note_on_c,82,75,4,3,1,95.0,False
47362,6228, Note_on_c,68,75,4,3,1,79.0,False
47363,6228, Note_on_c,75,75,4,3,1,87.0,False
47364,6229, Note_on_c,70,75,4,3,1,81.0,False
47365,6230, Note_on_c,77,75,4,3,1,90.0,True
47366,6230, Note_on_c,82,75,4,3,1,95.0,False
47367,6231, Note_on_c,68,75,4,3,1,79.0,False
47368,6231, Note_on_c,75,75,4,3,1,87.0,False
47369,6232, Note_on_c,77,75,4,3,1,90.0,True
47370,6232, Note_on_c,82,75,4,3,1,95.0,False
47371,6233, Note_on_c,68,75,4,3,1,79.0,False
47372,6233, Note_on_c,73,75,4,3,1,85.0,False
47373,6234, Note_on_c,70,75,4,3,1,81.0,False
47374,6235, Note_on_c,77,75,4,3,1,90.0,True
47375,6235, Note_on_c,82,75,4,3,1,95.0,False
47376,6236, Note_on_c,68,75,4,3,1,79.0,False
47377,6236, Note_on_c,75,75,4,3,1,87.0,False
47378,6237, Note_on_c,70,75,4,3,1,81.0,False
47379,6238, Note_on_c,77,75,4,3,1,90.0,True
47380,6238, Note_on_c,82,75,4,3,1,95.0,False
47381,6239, Note_on_c,68,75,4,3,1,79.0,False
47382,6239, Note_on_c,75,75,4,3,1,87.0,False
47383,6240, Note_on_c,77,75,4,3,1,90.0,True
47384,6240, Note_on_c,82,75,4,3,1,95.0,False
47385,6241, Note_on_c,68,75,4,3,1,79.0,False
47386,6241, Note_on_c,73,75,4,3,1,85.0,False
47387,6242, Note_on_c,70,75,4,3,1,81.0,False
47388,6243, Note_on_c,77,75,4,3,1,90.0,True
47389,6243, Note_on_c,82,75,4,3,1,95.0,False
47390,6244, Note_on_c,68,75,4,3,1,79.0,False
47391,6244, Note_on_c,75,75,4,3,1,87.0,False
47392,6245, Note_on_c,70,75,4,3,1,81.0,False
47393,6246, Note_on_c,77,75,4,3,1,90.0,True
47394,6246, Note_on_c,82,75,4,3,1,95.0,False
47395,6247, Note_on_c,68,75,4,3,1,79.0,False
47396,6247, Note_on_c,75,75,4,3,1,87.0,False
47397,6248, Note_on_c,77,75,4,3,1,90.0,True
47398,6248, Note_on_c,82,75,4,3,1,95.0,False
47399,6249, Note_on_c,68,75,4,3,1,79.0,False
47400,6249, Note_on_c,73,75,4,3,1,85.0,False
47401,6250, Note_on_c,70,75,4,3,1,81.0,False
47402,6251, Note_on_c,77,75,4,3,1,90.0,True
47403,6251, Note_on_c,82,75,4,3,1,95.0,False
47404,6252, Note_on_c,68,75,4,3,1,79.0,False
47405,6252, Note_on_c,75,75,4,3,1,87.0,False
47406,6253, Note_on_c,70,75,4,3,1,81.0,False
47407,6254, Note_on_c,77,75,4,3,1,90.0,True
47408,6254, Note_on_c,82,75,4,3,1,95.0,False
47409,6255, Note_on_c,68,75,4,3,1,79.0,False
47410,6255, Note_on_c,75,75,4,3,1,87.0,False
47411,6256, Note_on_c,77,75,4,3,1,90.0,True
47412,6256, Note_on_c,82,75,4,3,1,95.0,False
47413,6257, Note_on_c,68,75,4,3,1,79.0,False
47414,6257, Note_on_c,73,75,4,3,1,85.0,False
47415,6258, Note_on_c,70,75,4,3,1,81.0,False
47416,6259, Note_on_c,77,75,4,3,1,90.0,True
47417,6259, Note_on_c,82,75,4,3,1,95.0,False
47418,6260, Note_on_c,68,75,4,3,1,79.0,False
47419,6260, Note_on_c,75,75,4,3,1,87.0,False
47420,6261, Note_on_c,70,75,4,3,1,81.0,False
47421,6262, Note_on_c,77,75,4,3,1,90.0,True
47422,6262, Note_on_c,82,75,4,3,1,95.0,False
47423,6263, Note_on_c,68,75,4,3,1,79.0,False
47424,6263, Note_on_c,75,75,4,3,1,87.0,False
47425,6264, Note_on_c,77,75,4,3,1,90.0,True
47426,6264, Note_on_c,82,75,4,3,1,95.0,False
47427,6265, Note_on_c,68,75,4,3,1,79.0,False
47428,6265, Note_on_c,73,75,4,3,1,85.0,False
47429,6266, Note_on_c,70,75,4,3,1,81.0,False
47430,6267, Note_on_c,77,75,4,3,1,90.0,True
47431,6267, Note_on_c,82,75,4,3,1,95.0,False
47432,6268, Note_on_c,68,75,4,3,1,79.0,False
47433,6268, Note_on_c,75,75,4,3,1,87.0,False
47434,6269, Note_on_c,70,75,4,3,1,81.0,False
47435,6270, Note_on_c,77,75,4,3,1,90.0,True
47436,6270, Note_on_c,82,75,4,3,1,95.0,False
47437,6271, Note_on_c,68,75,4,3,1,79.0,False
47438,6271, Note_on_c,75,75,4,3,1,87.0,False
47439,6272, Note_on_c,77,75,4,3,1,90.0,True
47440,6272, Note_on_c,82,75,4,3,1,95.0,False
47441,6273, Note_on_c,68,75,4,3,1,79.0,False
47442,6273, Note_on_c,73,75,4,3,1,85.0,False
47443,6274, Note_on_c,70,75,4,3,1,81.0,False
47444,6275, Note_on_c,77,75,4,3,1,90.0,True
47445,6275, Note_on_c,82,75,4,3,1,95.0,False
47446,6276, Note_on_c,68,75,4,3,1,79.0,False
47447,6276, Note_on_c,75,75,4,3,1,87.0,False
47448,6277, Note_on_c,70,75,4,3,1,81.0,False
47449,6278, Note_on_c,77,75,4,3,1,90.0,True
47450,6278, Note_on_c,82,75,4,3,1,95.0,False
47451,6279, Note_on_c,68,75,4,3,1,79.0,False
47452,6279, Note_on_c,75,75,4,3,1,87.0,False
47453,6280, Note_on_c,77,75,4,3,1,90.0,True
47454,6280, Note_on_c,82,75,4,3,1,95.0,False
47455,6281, Note_on_c,68,75,4,3,1,79.0,False
47456,6281, Note_on_c,73,75,4,3,1,85.0,False
47457,6282, Note_on_c,70,75,4,3,1,81.0,False
47458,6283, Note_on_c,77,75,4,3,1,90.0,True
47459,6283, Note_on_c,82,75,4,3,1,95.0,False
47460,6284, Note_on_c,68,75,4,3,1,79.0,False
47461,6284, Note_on_c,75,75,4,3,1,87.0,False
47462,6285, Note_on_c,70,75,4,3,1,81.0,False
47463,6286, Note_on_c,77,75,4,3,1,90.0,True
47464,6286, Note_on_c,82,75,4,3,1,95.0,False
47465,6287, Note_on_c,68,75,4,3,1,79.0,False
47466,6287, Note_on_c,75,75,4,3,1,87.0,False
47467,6288, Note_on_c,77,75,4,3,1,90.0,True
47468,6288, Note_on_c,82,75,4,3,1,95.0,False
47469,6289, Note_on_c,68,75,4,3,1,79.0,False
47470,6289, Note_on_c,73,75,4,3,1,85.0,False
47471,6290, Note_on_c,70,75,4,3,1,81.0,False
47472,6291, Note_on_c,77,75,4,3,1,90.0,True
47473,6291, Note_on_c,82,75,4,3,1,95.0,False
47474,6292, Note_on_c,68,75,4,3,1,79.0,False
47475,6292, Note_on_c,75,75,4,3,1,87.0,False
47476,6293, Note_on_c,70,75,4,3,1,81.0,False
47477,6294, Note_on_c,77,75,4,3,1,90.0,True
47478,6294, Note_on_c,82,75,4,3,1,95.0,False
47479,6295, Note_on_c,68,75,4,3,1,79.0,False
47480,6295, Note_on_c,75,75,4,3,1,87.0,False
47481,6296, Note_on_c,77,75,4,3,1,90.0,True
47482,6296, Note_on_c,82,75,4,3,1,95.0,False
47483,6297, Note_on_c,68,75,4,3,1,79.0,False
47484,6297, Note_on_c,73,75,4,3,1,85.0,False
47485,6298, Note_on_c,70,75,4,3,1,81.0,False
47486,6299, Note_on_c,77,75,4,3,1,90.0,True
47487,6299, Note_on_c,82,75,4,3,1,95.0,False
47488,6300, Note_on_c,68,75,4,3,1,79.0,False
47489,6300, Note_on_c,75,75,4,3,1,87.0,False
47490,6301, Note_on_c,70,75,4,3,1,81.0,False
47491,6302, Note_on_c,77,75,4,3,1,90.0,True
47492,6302, Note_on_c,82,75,4,3,1,95.0,False
47493,6303, Note_on_c,68,75,4,3,1,79.0,False
47494,6303, Note_on_c,75,75,4,3,1,87.0,False
47495,6304, Note_on_c,77,75,4,3,1,90.0,True
47496,6304, Note_on_c,82,75,4,3,1,95.0,False
47497,6305, Note_on_c,68,75,4,3,1,79.0,False
47498,6305, Note_on_c,73,75,4,3,1,85.0,False
47499,6306, Note_on_c,70,75,4,3,1,81.0,False
47500,6307, Note_on_c,77,75,4,3,1,90.0,True
47501,6307, Note_on_c,82,75,4,3,1,95.0,False
47502,6308, Note_on_c,68,75,4,3,1,79.0,False
47503,6308, Note_on_c,75,75,4,3,1,87.0,False
47504,6309, Note_on_c,70,75,4,3,1,81.0,False
47505,6310, Note_on_c,77,75,4,3,1,90.0,True
47506,6310, Note_on_c,82,75,4,3,1,95.0,False
47507,6311, Note_on_c,68,75,4,3,1,79.0,False
47508,6311, Note_on_c,75,75,4,3,1,87.0,False
47509,6312, Note_on_c,77,75,4,3,1,90.0,True
47510,6312, Note_on_c,82,75,4,3,1,95.0,False
47511,6313, Note_on_c,68,75,4,3,1,79.0,False
47512,6313, Note_on_c,73,75,4,3,1,85.0,False
47513,6314, Note_on_c,70,75,4,3,1,81.0,False
47514,6315, Note_on_c,77,75,4,3,1,90.0,True
47515,6315, Note_on_c,82,75,4,3,1,95.0,False
47516,6316, Note_on_c,68,75,4,3,1,79.0,False
47517,6316, Note_on_c,75,75,4,3,1,87.0,False
47518,6317, Note_on_c,70,75,4,3,1,81.0,False
47519,6318, Note_on_c,77,75,4,3,1,90.0,True
47520,6318, Note_on_c,82,75,4,3,1,95.0,False
47521,6319, Note_on_c,68,75,4,3,1,79.0,False
47522,6319, Note_on_c,75,75,4,3,1,87.0,False
47523,6320, Note_on_c,77,75,4,3,1,90.0,True
47524,6320, Note_on_c,82,75,4,3,1,95.0,False
47525,6321, Note_on_c,68,75,4,3,1,79.0,False
47526,6321, Note_on_c,73,75,4,3,1,85.0,False
47527,6322, Note_on_c,70,75,4,3,1,81.0,False
47528,6323, Note_on_c,77,75,4,3,1,90.0,True
47529,6323, Note_on_c,82,75,4,3,1,95.0,False
47530,6324, Note_on_c,68,75,4,3,1,79.0,False
47531,6324, Note_on_c,75,75,4,3,1,87.0,False
47532,6325, Note_on_c,70,75,4,3,1,81.0,False
47533,6326, Note_on_c,77,75,4,3,1,90.0,True
47534,6326, Note_on_c,82,75,4,3,1,95.0,False
47535,6327, Note_on_c,68,75,4,3,1,79.0,False
47536,6327, Note_on_c,75,75,4,3,1,87.0,False
47537,6328, Note_on_c,77,75,4,3,1,90.0,True
47538,6328, Note_on_c,82,75,4,3,1,95.0,False
47539,6329, Note_on_c,68,75,4,3,1,79.0,False
47540,6329, Note_on_c,73,75,4,3,1,85.0,False
47541,6330, Note_on_c,70,75,4,3,1,81.0,False
47542,6331, Note_on_c,77,75,4,3,1,90.0,True
47543,6331, Note_on_c,82,75,4,3,1,95.0,False
47544,6332, Note_on_c,68,75,4,3,1,79.0,False
47545,6332, Note_on_c,75,75,4,3,1,87.0,False
47546,6333, Note_on_c,70,75,4,3,1,81.0,False
47547,6334, Note_on_c,77,75,4,3,1,90.0,True
47548,6334, Note_on_c,82,75,4,3,1,95.0,False
47549,6335, Note_on_c,68,75,4,3,1,79.0,False
47550,6335, Note_on_c,75,75,4,3,1,87.0,False
47551,6336, Note_on_c,77,75,4,3,1,90.0,True
47552,6336, Note_on_c,82,75,4,3,1,95.0,False
47553,6337, Note_on_c,68,75,4,3,1,79.0,False
47554,6337, Note_on_c,73,75,4,3,1,85.0,False
47555,6338, Note_on_c,70,75,4,3,1,81.0,False
47556,6339, Note_on_c,77,75,4,3,1,90.0,True
47557,6339, Note_on_c,82,75,4,3,1,95.0,False
47558,6340, Note_on_c,68,75,4,3,1,79.0,False
47559,6340, Note_on_c,75,75,4,3,1,87.0,False
47560,6341, Note_on_c,70,75,4,3,1,81.0,False
47561,6342, Note_on_c,77,75,4,3,1,90.0,True
47562,6342, Note_on_c,82,75,4,3,1,95.0,False
47563,6343, Note_on_c,68,75,4,3,1,79.0,False
47564,6343, Note_on_c,75,75,4,3,1,87.0,False
47565,6344, Note_on_c,77,75,4,3,1,90.0,True
47566,6344, Note_on_c,82,75,4,3,1,95.0,False
47567,6345, Note_on_c,68,75,4,3,1,79.0,False
47568,6345, Note_on_c,73,75,4,3,1,85.0,False
47569,6346, Note_on_c,70,75,4,3,1,81.0,False
47570,6347, Note_on_c,77,75,4,3,1,90.0,True
47571,6347, Note_on_c,82,75,4,3,1,95.0,False
47572,6348, Note_on_c,68,75,4,3,1,79.0,False
47573,6348, Note_on_c,75,75,4,3,1,87.0,False
47574,6349, Note_on_c,70,75,4,3,1,81.0,False
47575,6350, Note_on_c,77,75,4,3,1,90.0,True
47576,6350, Note_on_c,82,75,4,3,1,95.0,False
47577,6351, Note_on_c,68,75,4,3,1,79.0,False
47578,6351, Note_on_c,75,75,4,3,1,87.0,False
47579,6352, Note_on_c,77,75,4,3,1,90.0,True
47580,6352, Note_on_c,82,75,4,3,1,95.0,False
47581,6353, Note_on_c,68,75,4,3,1,79.0,False
47582,6353, Note_on_c,73,75,4,3,1,85.0,False
47583,6354, Note_on_c,70,75,4,3,1,81.0,False
47584,6355, Note_on_c,77,75,4,3,1,90.0,True
47585,6355, Note_on_c,82,75,4,3,1,95.0,False
47586,6356, Note_on_c,68,75,4,3,1,79.0,False
47587,6356, Note_on_c,75,75,4,3,1,87.0,False
47588,6357, Note_on_c,70,75,4,3,1,81.0,False
47589,6358, Note_on_c,77,75,4,3,1,90.0,True
47590,6358, Note_on_c,82,75,4,3,1,95.0,False
47591,6359, Note_on_c,68,75,4,3,1,79.0,False
47592,6359, Note_on_c,75,75,4,3,1,87.0,False
47593,6360, Note_on_c,77,75,4,3,1,90.0,True
47594,6360, Note_on_c,82,75,4,3,1,95.0,False
47595,6361, Note_on_c,68,75,4,3,1,79.0,False
47596,6361, Note_on_c,73,75,4,3,1,85.0,False
47597,6362, Note_on_c,70,75,4,3,1,81.0,False
47598,6363, Note_on_c,77,75,4,3,1,90.0,True
47599,6363, Note_on_c,82,75,4,3,1,95.0,False
47600,6364, Note_on_c,68,75,4,3,1,79.0,False
47601,6364, Note_on_c,75,75,4,3,1,87.0,False
47602,6365, Note_on_c,70,75,4,3,1,81.0,False
47603,6366, Note_on_c,77,75,4,3,1,90.0,True
47604,6366, Note_on_c,82,75,4,3,1,95.0,False
47605,6367, Note_on_c,68,75,4,3,1,79.0,False
47606,6367, Note_on_c,75,75,4,3,1,87.0,False
47607,6368, Note_on_c,77,75,4,3,1,90.0,True
47608,6368, Note_on_c,82,75,4,3,1,95.0,False
47609,6369, Note_on_c,68,75,4,3,1,79.0,False
47610,6369, Note_on_c,73,75,4,3,1,85.0,False
47611,6370, Note_on_c,70,75,4,3,1,81.0,False
47612,6371, Note_on_c,77,75,4,3,1,90.0,True
47613,6371, Note_on_c,82,75,4,3,1,95.0,False
47614,6372, Note_on_c,68,75,4,3,1,79.0,False
47615,6372, Note_on_c,75,75,4,3,1,87.0,False
47616,6373, Note_on_c,70,75,4,3,1,81.0,False
47617,6374, Note_on_c,77,75,4,3,1,90.0,True
47618,6374, Note_on_c,82,75,4,3,1,95.0,False
47619,6375, Note_on_c,68,75,4,3,1,79.0,False
47620,6375, Note_on_c,75,75,4,3,1,87.0,False
47621,6376, Note_on_c,77,75,4,3,1,90.0,True
47622,6376, Note_on_c,82,75,4,3,1,95.0,False
47623,6377, Note_on_c,68,75,4,3,1,79.0,False
47624,6377, Note_on_c,73,75,4,3,1,85.0,False
47625,6378, Note_on_c,70,75,4,3,1,81.0,False
47626,6379, Note_on_c,77,75,4,3,1,90.0,True
47627,6379, Note_on_c,82,75,4,3,1,95.0,False
47628,6380, Note_on_c,68,75,4,3,1,79.0,False
47629,6380, Note_on_c,75,75,4,3,1,87.0,False
47630,6381, Note_on_c,70,75,4,3,1,81.0,False
47631,6382, Note_on_c,77,75,4,3,1,90.0,True
47632,6382, Note_on_c,82,75,4,3,1,95.0,False
47633,6383, Note_on_c,68,75,4,3,1,79.0,False
47634,6383, Note_on_c,75,75,4,3,1,87.0,False
47635,6384, Note_on_c,77,75,4,3,1,90.0,True
47636,6384, Note_on_c,82,75,4,3,1,95.0,False
47637,6385, Note_on_c,68,75,4,3,1,79.0,False
47638,6385, Note_on_c,73,75,4,3,1,85.0,False
47639,6386, Note_on_c,70,75,4,3,1,81.0,False
47640,6387, Note_on_c,77,75,4,3,1,90.0,True
47641,6387, Note_on_c,82,75,4,3,1,95.0,False
47642,6388, Note_on_c,68,75,4,3,1,79.0,False
47643,6388, Note_on_c,75,75,4,3,1,87.0,False
47644,6389, Note_on_c,70,75,4,3,1,81.0,False
47645,6390, Note_on_c,77,75,4,3,1,90.0,True
47646,6390, Note_on_c,82,75,4,3,1,95.0,False
47647,6391, Note_on_c,68,75,4,3,1,79.0,False
47648,6391, Note_on_c,75,75,4,3,1,87.0,False
47649,6392, Note_on_c,77,75,4,3,1,90.0,True
47650,6392, Note_on_c,82,75,4,3,1,95.0,False
47651,6393, Note_on_c,68,75,4,3,1,79.0,False
47652,6393, Note_on_c,73,75,4,3,1,85.0,False
47653,6394, Note_on_c,70,75,4,3,1,81.0,False
47654,6395, Note_on_c,77,75,4,3,1,90.0,True
47655,6395, Note_on_c,82,75,4,3,1,95.0,False
47656,6396, Note_on_c,68,75,4,3,1,79.0,False
47657,6396, Note_on_c,75,75,4,3,1,87.0,False
47658,6397, Note_on_c,70,75,4,3,1,81.0,False
47659,6398, Note_on_c,77,75,4,3,1,90.0,True
47660,6398, Note_on_c,82,75,4,3,1,95.0,False
47661,6399, Note_on_c,68,75,4,3,1,79.0,False
47662,6399, Note_on_c,75,75,4,3,1,87.0,False
47663,6400, Note_on_c,77,75,4,3,1,90.0,True
47664,6400, Note_on_c,82,75,4,3,1,95.0,False
47665,6401, Note_on_c,68,75,4,3,1,79.0,False
47666,6401, Note_on_c,73,75,4,3,1,85.0,False
47667,6402, Note_on_c,70,75,4,3,1,81.0,False
47668,6403, Note_on_c,77,75,4,3,1,90.0,True
47669,6403, Note_on_c,82,75,4,3,1,95.0,False
47670,6404, Note_on_c,68,75,4,3,1,79.0,False
47671,6404, Note_on_c,75,75,4,3,1,87.0,False
47672,6405, Note_on_c,70,75,4,3,1,81.0,False
47673,6406, Note_on_c,77,75,4,3,1,90.0,True
47674,6406, Note_on_c,82,75,4,3,1,95.0,False
47675,6407, Note_on_c,68,75,4,3,1,79.0,False
47676,6407, Note_on_c,75,75,4,3,1,87.0,False
47677,6408, Note_on_c,77,75,4,3,1,90.0,True
47678,6408, Note_on_c,82,75,4,3,1,95.0,False
47679,6409, Note_on_c,68,75,4,3,1,79.0,False
47680,6409, Note_on_c,73,75,4,3,1,85.0,False
47681,6410, Note_on_c,70,75,4,3,1,81.0,False
47682,6411, Note_on_c,77,75,4,3,1,90.0,True
47683,6411, Note_on_c,82,75,4,3,1,95.0,False
47684,6412, Note_on_c,68,75,4,3,1,79.0,False
47685,6412, Note_on_c,75,75,4,3,1,87.0,False
47686,6413, Note_on_c,70,75,4,3,1,81.0,False
47687,6414, Note_on_c,77,75,4,3,1,90.0,True
47688,6414, Note_on_c,82,75,4,3,1,95.0,False
47689,6415, Note_on_c,68,75,4,3,1,79.0,False
47690,6415, Note_on_c,75,75,4,3,1,87.0,False
47691,6416, Note_on_c,77,75,4,3,1,90.0,True
47692,6416, Note_on_c,82,75,4,3,1,95.0,False
47693,6417, Note_on_c,68,75,4,3,1,79.0,False
47694,6417, Note_on_c,73,75,4,3,1,85.0,False
47695,6418, Note_on_c,70,75,4,3,1,81.0,False
47696,6419, Note_on_c,77,75,4,3,1,90.0,True
47697,6419, Note_on_c,82,75,4,3,1,95.0,False
47698,6420, Note_on_c,68,75,4,3,1,79.0,False
47699,6420, Note_on_c,75,75,4,3,1,87.0,False
47700,6421, Note_on_c,70,75,4,3,1,81.0,False
47701,6422, Note_on_c,77,75,4,3,1,90.0,True
47702,6422, Note_on_c,82,75,4,3,1,95.0,False
47703,6423, Note_on_c,68,75,4,3,1,79.0,False
47704,6423, Note_on_c,75,75,4,3,1,87.0,False
47705,6424, Note_on_c,77,75,4,3,1,90.0,True
47706,6424, Note_on_c,82,75,4,3,1,95.0,False
47707,6425, Note_on_c,68,75,4,3,1,79.0,False
47708,6425, Note_on_c,73,75,4,3,1,85.0,False
47709,6426, Note_on_c,70,75,4,3,1,81.0,False
47710,6427, Note_on_c,77,75,4,3,1,90.0,True
47711,6427, Note_on_c,82,75,4,3,1,95.0,False
47712,6428, Note_on_c,68,75,4,3,1,79.0,False
47713,6428, Note_on_c,75,75,4,3,1,87.0,False
47714,6429, Note_on_c,70,75,4,3,1,81.0,False
47715,6430, Note_on_c,77,75,4,3,1,90.0,True
47716,6430, Note_on_c,82,75,4,3,1,95.0,False
47717,6431, Note_on_c,68,75,4,3,1,79.0,False
47718,6431, Note_on_c,75,75,4,3,1,87.0,False
47719,6432, Note_on_c,77,75,4,3,1,90.0,True
47720,6432, Note_on_c,82,75,4,3,1,95.0,False
47721,6433, Note_on_c,68,75,4,3,1,79.0,False
47722,6433, Note_on_c,73,75,4,3,1,85.0,False
47723,6434, Note_on_c,70,75,4,3,1,81.0,False
47724,6435, Note_on_c,77,75,4,3,1,90.0,True
47725,6435, Note_on_c,82,75,4,3,1,95.0,False
47726,6436, Note_on_c,68,75,4,3,1,79.0,False
47727,6436, Note_on_c,75,75,4,3,1,87.0,False
47728,6437, Note_on_c,70,75,4,3,1,81.0,False
47729,6438, Note_on_c,77,75,4,3,1,90.0,True
47730,6438, Note_on_c,82,75,4,3,1,95.0,False
47731,6439, Note_on_c,68,75,4,3,1,79.0,False
47732,6439, Note_on_c,75,75,4,3,1,87.0,False
47733,6440, Note_on_c,77,75,4,3,1,90.0,True
47734,6440, Note_on_c,82,75,4,3,1,95.0,False
47735,6441, Note_on_c,68,75,4,3,1,79.0,False
47736,6441, Note_on_c,73,75,4,3,1,85.0,False
47737,6442, Note_on_c,70,75,4,3,1,81.0,False
47738,6443, Note_on_c,77,75,4,3,1,90.0,True
47739,6443, Note_on_c,82,75,4,3,1,95.0,False
47740,6444, Note_on_c,68,75,4,3,1,79.0,False
47741,6444, Note_on_c,75,75,4,3,1,87.0,False
47742,6445, Note_on_c,70,75,4,3,1,81.0,False
47743,6446, Note_on_c,77,75,4,3,1,90.0,True
47744,6446, Note_on_c,82,75,4,3,1,95.0,False
47745,6447, Note_on_c,68,75,4,3,1,79.0,False
47746,6447, Note_on_c,75,75,4,3,1,87.0,False
47747,6448, Note_on_c,77,75,4,3,1,90.0,True
47748,6448, Note_on_c,82,75,4,3,1,95.0,False
47749,6449, Note_on_c,68,75,4,3,1,79.0,False
47750,6449, Note_on_c,73,75,4,3,1,85.0,False
47751,6450, Note_on_c,70,75,4,3,1,81.0,False
47752,6451, Note_on_c,77,75,4,3,1,90.0,True
47753,6451, Note_on_c,82,75,4,3,1,95.0,False
47754,6452, Note_on_c,68,75,4,3,1,79.0,False
47755,6452, Note_on_c,75,75,4,3,1,87.0,False
47756,6453, Note_on_c,70,75,4,3,1,81.0,False
47757,6454, Note_on_c,77,75,4,3,1,90.0,True
47758,6454, Note_on_c,82,75,4,3,1,95.0,False
47759,6455, Note_on_c,68,75,4,3,1,79.0,False
47760,6455, Note_on_c,75,75,4,3,1,87.0,False
47761,6456, Note_on_c,77,75,4,3,1,90.0,True
47762,6456, Note_on_c,82,75,4,3,1,95.0,False
47763,6457, Note_on_c,68,75,4,3,1,79.0,False
47764,6457, Note_on_c,73,75,4,3,1,85.0,False
47765,6458, Note_on_c,70,75,4,3,1,81.0,False
47766,6459, Note_on_c,77,75,4,3,1,90.0,True
47767,6459, Note_on_c,82,75,4,3,1,95.0,False
47768,6460, Note_on_c,68,75,4,3,1,79.0,False
47769,6460, Note_on_c,75,75,4,3,1,87.0,False
47770,6461, Note_on_c,70,75,4,3,1,81.0,False
47771,6462, Note_on_c,77,75,4,3,1,90.0,True
47772,6462, Note_on_c,82,75,4,3,1,95.0,False
47773,6463, Note_on_c,68,75,4,3,1,79.0,False
47774,6463, Note_on_c,75,75,4,3,1,87.0,False
47775,6464, Note_on_c,77,75,4,3,1,90.0,True
47776,6464, Note_on_c,82,75,4,3,1,95.0,False
47777,6465, Note_on_c,68,75,4,3,1,79.0,False
47778,6465, Note_on_c,73,75,4,3,1,85.0,False
47779,6466, Note_on_c,70,75,4,3,1,81.0,False
47780,6467, Note_on_c,77,75,4,3,1,90.0,True
47781,6467, Note_on_c,82,75,4,3,1,95.0,False
47782,6468, Note_on_c,68,75,4,3,1,79.0,False
47783,6468, Note_on_c,75,75,4,3,1,87.0,False
47784,6469, Note_on_c,70,75,4,3,1,81.0,False
47785,6470, Note_on_c,77,75,4,3,1,90.0,True
47786,6470, Note_on_c,82,75,4,3,1,95.0,False
47787,6471, Note_on_c,68,75,4,3,1,79.0,False
47788,6471, Note_on_c,75,75,4,3,1,87.0,False
47789,6472, Note_on_c,77,75,4,3,1,90.0,True
47790,6472, Note_on_c,82,75,4,3,1,95.0,False
47791,6473, Note_on_c,68,75,4,3,1,79.0,False
47792,6473, Note_on_c,73,75,4,3,1,85.0,False
47793,6474, Note_on_c,70,75,4,3,1,81.0,False
47794,6475, Note_on_c,77,75,4,3,1,90.0,True
47795,6475, Note_on_c,82,75,4,3,1,95.0,False
47796,6476, Note_on_c,68,75,4,3,1,79.0,False
47797,6476, Note_on_c,75,75,4,3,1,87.0,False
47798,6477, Note_on_c,70,75,4,3,1,81.0,False
47799,6478, Note_on_c,77,75,4,3,1,90.0,True
47800,6478, Note_on_c,82,75,4,3,1,95.0,False
47801,6479, Note_on_c,68,75,4,3,1,79.0,False
47802,6479, Note_on_c,75,75,4,3,1,87.0,False
47803,6480, Note_on_c,77,75,4,3,1,90.0,True
47804,6480, Note_on_c,82,75,4,3,1,95.0,False
47805,6481, Note_on_c,68,75,4,3,1,79.0,False
47806,6481, Note_on_c,73,75,4,3,1,85.0,False
47807,6482, Note_on_c,70,75,4,3,1,81.0,False
47808,6483, Note_on_c,77,75,4,3,1,90.0,True
47809,6483, Note_on_c,82,75,4,3,1,95.0,False
47810,6484, Note_on_c,68,75,4,3,1,79.0,False
47811,6484, Note_on_c,75,75,4,3,1,87.0,False
47812,6485, Note_on_c,70,75,4,3,1,81.0,False
47813,6486, Note_on_c,77,75,4,3,1,90.0,True
47814,6486, Note_on_c,82,75,4,3,1,95.0,False
47815,6487, Note_on_c,68,75,4,3,1,79.0,False
47816,6487, Note_on_c,75,75,4,3,1,87.0,False
47817,6488, Note_on_c,77,75,4,3,1,90.0,True
47818,6488, Note_on_c,82,75,4,3,1,95.0,False
47819,6489, Note_on_c,68,75,4,3,1,79.0,False
47820,6489, Note_on_c,73,75,4,3,1,85.0,False
47821,6490, Note_on_c,70,75,4,3,1,81.0,False
47822,6491, Note_on_c,77,75,4,3,1,90.0,True
47823,6491, Note_on_c,82,75,4,3,1,95.0,False
47824,6492, Note_on_c,68,75,4,3,1,79.0,False
47825,6492, Note_on_c,75,75,4,3,1,87.0,False
47826,6493, Note_on_c,70,75,4,3,1,81.0,False
47827,6494, Note_on_c,77,75,4,3,1,90.0,True
47828,6494, Note_on_c,82,75,4,3,1,95.0,False
47829,6495, Note_on_c,68,75,4,3,1,79.0,False
47830,6495, Note_on_c,75,75,4,3,1,87.0,False
47831,6496, Note_on_c,77,75,4,3,1,90.0,True
47832,6496, Note_on_c,82,75,4,3,1,95.0,False
47833,6497, Note_on_c,68,75,4,3,1,79.0,False
47834,6497, Note_on_c,73,75,4,3,1,85.0,False
47835,6498, Note_on_c,70,75,4,3,1,81.0,False
47836,6499, Note_on_c,77,75,4,3,1,90.0,True
47837,6499, Note_on_c,82,75,4,3,1,95.0,False
47838,6500, Note_on_c,68,75,4,3,1,79.0,False
47839,6500, Note_on_c,75,75,4,3,1,87.0,False
47840,6501, Note_on_c,70,75,4,3,1,81.0,False
47841,6502, Note_on_c,77,75,4,3,1,90.0,True
47842,6502, Note_on_c,82,75,4,3,1,95.0,False
47843,6503, Note_on_c,68,75,4,3,1,79.0,False
47844,6503, Note_on_c,75,75,4,3,1,87.0,False
47845,6504, Note_on_c,77,75,4,3,1,90.0,True
47846,6504, Note_on_c,82,75,4,3,1,95.0,False
47847,6505, Note_on_c,68,75,4,3,1,79.0,False
47848,6505, Note_on_c,73,75,4,3,1,85.0,False
47849,6506, Note_on_c,70,75,4,3,1,81.0,False
47850,6507, Note_on_c,77,75,4,3,1,90.0,True
47851,6507, Note_on_c,82,75,4,3,1,95.0,False
47852,6508, Note_on_c,68,75,4,3,1,79.0,False
47853,6508, Note_on_c,75,75,4,3,1,87.0,False
47854,6509, Note_on_c,70,75,4,3,1,81.0,False
47855,6510, Note_on_c,77,75,4,3,1,90.0,True
47856,6510, Note_on_c,82,75,4,3,1,95.0,False
47857,6511, Note_on_c,68,75,4,3,1,79.0,False
47858,6511, Note_on_c,75,75,4,3,1,87.0,False
47859,6512, Note_on_c,77,75,4,3,1,90.0,True
47860,6512, Note_on_c,82,75,4,3,1,95.0,False
47861,6513, Note_on_c,68,75,4,3,1,79.0,False
47862,6513, Note_on_c,73,75,4,3,1,85.0,False
47863,6514, Note_on_c,70,75,4,3,1,81.0,False
47864,6515, Note_on_c,77,75,4,3,1,90.0,True
47865,6515, Note_on_c,82,75,4,3,1,95.0,False
47866,6516, Note_on_c,68,75,4,3,1,79.0,False
47867,6516, Note_on_c,75,75,4,3,1,87.0,False
47868,6517, Note_on_c,70,75,4,3,1,81.0,False
47869,6518, Note_on_c,77,75,4,3,1,90.0,True
47870,6518, Note_on_c,82,75,4,3,1,95.0,False
47871,6519, Note_on_c,68,75,4,3,1,79.0,False
47872,6519, Note_on_c,75,75,4,3,1,87.0,False
47873,6520, Note_on_c,77,75,4,3,1,90.0,True
47874,6520, Note_on_c,82,75,4,3,1,95.0,False
47875,6521, Note_on_c,68,75,4,3,1,79.0,False
47876,6521, Note_on_c,73,75,4,3,1,85.0,False
47877,6522, Note_on_c,70,75,4,3,1,81.0,False
47878,6523, Note_on_c,77,75,4,3,1,90.0,True
47879,6523, Note_on_c,82,75,4,3,1,95.0,False
47880,6524, Note_on_c,68,75,4,3,1,79.0,False
47881,6524, Note_on_c,75,75,4,3,1,87.0,False
47882,6525, Note_on_c,70,75,4,3,1,81.0,False
47883,6526, Note_on_c,77,75,4,3,1,90.0,True
47884,6526, Note_on_c,82,75,4,3,1,95.0,False
47885,6527, Note_on_c,68,75,4,3,1,79.0,False
47886,6527, Note_on_c,75,75,4,3,1,87.0,False
47887,6528, Note_on_c,77,75,4,3,1,90.0,True
47888,6528, Note_on_c,82,75,4,3,1,95.0,False
47889,6529, Note_on_c,68,75,4,3,1,79.0,False
47890,6529, Note_on_c,73,75,4,3,1,85.0,False
47891,6530, Note_on_c,70,75,4,3,1,81.0,False
47892,6531, Note_on_c,77,75,4,3,1,90.0,True
47893,6531, Note_on_c,82,75,4,3,1,95.0,False
47894,6532, Note_on_c,68,75,4,3,1,79.0,False
47895,6532, Note_on_c,75,75,4,3,1,87.0,False
47896,6533, Note_on_c,70,75,4,3,1,81.0,False
47897,6534, Note_on_c,77,75,4,3,1,90.0,True
47898,6534, Note_on_c,82,75,4,3,1,95.0,False
47899,6535, Note_on_c,68,75,4,3,1,79.0,False
47900,6535, Note_on_c,75,75,4,3,1,87.0,False
47901,6536, Note_on_c,77,75,4,3,1,90.0,True
47902,6536, Note_on_c,82,75,4,3,1,95.0,False
47903,6537, Note_on_c,68,75,4,3,1,79.0,False
47904,6537, Note_on_c,73,75,4,3,1,85.0,False
47905,6538, Note_on_c,70,75,4,3,1,81.0,False
47906,6539, Note_on_c,77,75,4,3,1,90.0,True
47907,6539, Note_on_c,82,75,4,3,1,95.0,False
47908,6540, Note_on_c,68,75,4,3,1,79.0,False
47909,6540, Note_on_c,75,75,4,3,1,87.0,False
47910,6541, Note_on_c,70,75,4,3,1,81.0,False
47911,6542, Note_on_c,77,75,4,3,1,90.0,True
47912,6542, Note_on_c,82,75,4,3,1,95.0,False
47913,6543, Note_on_c,68,75,4,3,1,79.0,False
47914,6543, Note_on_c,75,75,4,3,1,87.0,False
47915,6544, Note_on_c,77,75,4,3,1,90.0,True
47916,6544, Note_on_c,82,75,4,3,1,95.0,False
47917,6545, Note_on_c,68,75,4,3,1,79.0,False
47918,6545, Note_on_c,73,75,4,3,1,85.0,False
47919,6546, Note_on_c,70,75,4,3,1,81.0,False
47920,6547, Note_on_c,77,75,4,3,1,90.0,True
47921,6547, Note_on_c,82,75,4,3,1,95.0,False
47922,6548, Note_on_c,68,75,4,3,1,79.0,False
47923,6548, Note_on_c,75,75,4,3,1,87.0,False
47924,6549, Note_on_c,70,75,4,3,1,81.0,False
47925,6550, Note_on_c,77,75,4,3,1,90.0,True
47926,6550, Note_on_c,82,75,4,3,1,95.0,False
47927,6551, Note_on_c,68,75,4,3,1,79.0,False
47928,6551, Note_on_c,75,75,4,3,1,87.0,False
47929,6552, Note_on_c,77,75,4,3,1,90.0,True
47930,6552, Note_on_c,82,75,4,3,1,95.0,False
47931,6553, Note_on_c,68,75,4,3,1,79.0,False
47932,6553, Note_on_c,73,75,4,3,1,85.0,False
47933,6554, Note_on_c,70,75,4,3,1,81.0,False
47934,6555, Note_on_c,77,75,4,3,1,90.0,True
47935,6555, Note_on_c,82,75,4,3,1,95.0,False
47936,6556, Note_on_c,68,75,4,3,1,79.0,False
47937,6556, Note_on_c,75,75,4,3,1,87.0,False
47938,6557, Note_on_c,70,75,4,3,1,81.0,False
47939,6558, Note_on_c,77,75,4,3,1,90.0,True
47940,6558, Note_on_c,82,75,4,3,1,95.0,False
47941,6559, Note_on_c,68,75,4,3,1,79.0,False
47942,6559, Note_on_c,75,75,4,3,1,87.0,False
47943,6560, Note_on_c,77,75,4,3,1,90.0,True
47944,6560, Note_on_c,82,75,4,3,1,95.0,False
47945,6561, Note_on_c,68,75,4,3,1,79.0,False
47946,6561, Note_on_c,73,75,4,3,1,85.0,False
47947,6562, Note_on_c,70,75,4,3,1,81.0,False
47948,6563, Note_on_c,77,75,4,3,1,90.0,True
47949,6563, Note_on_c,82,75,4,3,1,95.0,False
47950,6564, Note_on_c,68,75,4,3,1,79.0,False
47951,6564, Note_on_c,75,75,4,3,1,87.0,False
47952,6565, Note_on_c,70,75,4,3,1,81.0,False
47953,6566, Note_on_c,77,75,4,3,1,90.0,True
47954,6566, Note_on_c,82,75,4,3,1,95.0,False
47955,6567, Note_on_c,68,75,4,3,1,79.0,False
47956,6567, Note_on_c,75,75,4,3,1,87.0,False
47957,6568, Note_on_c,77,75,4,3,1,90.0,True
47958,6568, Note_on_c,82,75,4,3,1,95.0,False
47959,6569, Note_on_c,68,75,4,3,1,79.0,False
47960,6569, Note_on_c,73,75,4,3,1,85.0,False
47961,6570, Note_on_c,70,75,4,3,1,81.0,False
47962,6571, Note_on_c,77,75,4,3,1,90.0,True
47963,6571, Note_on_c,82,75,4,3,1,95.0,False
47964,6572, Note_on_c,68,75,4,3,1,79.0,False
47965,6572, Note_on_c,75,75,4,3,1,87.0,False
47966,6573, Note_on_c,70,75,4,3,1,81.0,False
47967,6574, Note_on_c,77,75,4,3,1,90.0,True
47968,6574, Note_on_c,82,75,4,3,1,95.0,False
47969,6575, Note_on_c,68,75,4,3,1,79.0,False
47970,6575, Note_on_c,75,75,4,3,1,87.0,False
47971,6576, Note_on_c,77,75,4,3,1,90.0,True
47972,6576, Note_on_c,82,75,4,3,1,95.0,False
47973,6577, Note_on_c,68,75,4,3,1,79.0,False
47974,6577, Note_on_c,73,75,4,3,1,85.0,False
47975,6578, Note_on_c,70,75,4,3,1,81.0,False
47976,6579, Note_on_c,77,75,4,3,1,90.0,True
47977,6579, Note_on_c,82,75,4,3,1,95.0,False
47978,6580, Note_on_c,68,75,4,3,1,79.0,False
47979,6580, Note_on_c,75,75,4,3,1,87.0,False
47980,6581, Note_on_c,70,75,4,3,1,81.0,False
47981,6582, Note_on_c,77,75,4,3,1,90.0,True
47982,6582, Note_on_c,82,75,4,3,1,95.0,False
47983,6583, Note_on_c,68,75,4,3,1,79.0,False
47984,6583, Note_on_c,75,75,4,3,1,87.0,False
47985,6584, Note_on_c,77,75,4,3,1,90.0,True
47986,6584, Note_on_c,82,75,4,3,1,95.0,False
47987,6585, Note_on_c,68,75,4,3,1,79.0,False
47988,6585, Note_on_c,73,75,4,3,1,85.0,False
47989,6586, Note_on_c,70,75,4,3,1,81.0,False
47990,6587, Note_on_c,77,75,4,3,1,90.0,True
47991,6587, Note_on_c,82,75,4,3,1,95.0,False
47992,6588, Note_on_c,68,75,4,3,1,79.0,False
47993,6588, Note_on_c,75,75,4,3,1,87.0,False
47994,6589, Note_on_c,70,75,4,3,1,81.0,False
47995,6590, Note_on_c,77,75,4,3,1,90.0,True
47996,6590, Note_on_c,82,75,4,3,1,95.0,False
47997,6591, Note_on_c,68,75,4,3,1,79.0,False
47998,6591, Note_on_c,75,75,4,3,1,87.0,False
47999,6592, Note_on_c,77,75,4,3,1,90.0,True
48000,6592, Note_on_c,82,75,4,3,1,95.0,False
48001,6593, Note_on_c,68,75,4,3,1,79.0,False
48002,6593, Note_on_c,73,75,4,3,1,85.0,False
48003,6594, Note_on_c,70,75,4,3,1,81.0,False
48004,6595, Note_on_c,77,75,4,3,1,90.0,True
48005,6595, Note_on_c,82,75,4,3,1,95.0,False
48006,6596, Note_on_c,68,75,4,3,1,79.0,False
48007,6596, Note_on_c,75,75,4,3,1,87.0,False
48008,6597, Note_on_c,70,75,4,3,1,81.0,False
48009,6598, Note_on_c,77,75,4,3,1,90.0,True
48010,6598, Note_on_c,82,75,4,3,1,95.0,False
48011,6599, Note_on_c,68,75,4,3,1,79.0,False
48012,6599, Note_on_c,75,75,4,3,1,87.0,False
48013,6600, Note_on_c,77,75,4,3,1,90.0,True
48014,6600, Note_on_c,82,75,4,3,1,95.0,False
48015,6601, Note_on_c,68,75,4,3,1,79.0,False
48016,6601, Note_on_c,73,75,4,3,1,85.0,False
48017,6602, Note_on_c,70,75,4,3,1,81.0,False
48018,6603, Note_on_c,77,75,4,3,1,90.0,True
48019,6603, Note_on_c,82,75,4,3,1,95.0,False
48020,6604, Note_on_c,68,75,4,3,1,79.0,False
48021,6604, Note_on_c,75,75,4,3,1,87.0,False
48022,6605, Note_on_c,70,75,4,3,1,81.0,False
48023,6606, Note_on_c,77,75,4,3,1,90.0,True
48024,6606, Note_on_c,82,75,4,3,1,95.0,False
48025,6607, Note_on_c,68,75,4,3,1,79.0,False
48026,6607, Note_on_c,75,75,4,3,1,87.0,False
48027,6608, Note_on_c,77,75,4,3,1,90.0,True
48028,6608, Note_on_c,82,75,4,3,1,95.0,False
48029,6609, Note_on_c,68,75,4,3,1,79.0,False
48030,6609, Note_on_c,73,75,4,3,1,85.0,False
48031,6610, Note_on_c,70,75,4,3,1,81.0,False
48032,6611, Note_on_c,77,75,4,3,1,90.0,True
48033,6611, Note_on_c,82,75,4,3,1,95.0,False
48034,6612, Note_on_c,68,75,4,3,1,79.0,False
48035,6612, Note_on_c,75,75,4,3,1,87.0,False
48036,6613, Note_on_c,70,75,4,3,1,81.0,False
48037,6614, Note_on_c,77,75,4,3,1,90.0,True
48038,6614, Note_on_c,82,75,4,3,1,95.0,False
48039,6615, Note_on_c,68,75,4,3,1,79.0,False
48040,6615, Note_on_c,75,75,4,3,1,87.0,False
48041,6616, Note_on_c,77,75,4,3,1,90.0,True
48042,6616, Note_on_c,82,75,4,3,1,95.0,False
48043,6617, Note_on_c,68,75,4,3,1,79.0,False
48044,6617, Note_on_c,73,75,4,3,1,85.0,False
48045,6618, Note_on_c,70,75,4,3,1,81.0,False
48046,6619, Note_on_c,77,75,4,3,1,90.0,True
48047,6619, Note_on_c,82,75,4,3,1,95.0,False
48048,6620, Note_on_c,68,75,4,3,1,79.0,False
48049,6620, Note_on_c,75,75,4,3,1,87.0,False
48050,6621, Note_on_c,70,75,4,3,1,81.0,False
48051,6622, Note_on_c,77,75,4,3,1,90.0,True
48052,6622, Note_on_c,82,75,4,3,1,95.0,False
48053,6623, Note_on_c,68,75,4,3,1,79.0,False
48054,6623, Note_on_c,75,75,4,3,1,87.0,False
48055,6624, Note_on_c,77,75,4,3,1,90.0,True
48056,6624, Note_on_c,82,75,4,3,1,95.0,False
48057,6625, Note_on_c,68,75,4,3,1,79.0,False
48058,6625, Note_on_c,73,75,4,3,1,85.0,False
48059,6626, Note_on_c,70,75,4,3,1,81.0,False
48060,6627, Note_on_c,77,75,4,3,1,90.0,True
48061,6627, Note_on_c,82,75,4,3,1,95.0,False
48062,6628, Note_on_c,68,75,4,3,1,79.0,False
48063,6628, Note_on_c,75,75,4,3,1,87.0,False
48064,6629, Note_on_c,70,75,4,3,1,81.0,False
48065,6630, Note_on_c,77,75,4,3,1,90.0,True
48066,6630, Note_on_c,82,75,4,3,1,95.0,False
48067,6631, Note_on_c,68,75,4,3,1,79.0,False
48068,6631, Note_on_c,75,75,4,3,1,87.0,False
48069,6632, Note_on_c,77,75,4,3,1,90.0,True
48070,6632, Note_on_c,82,75,4,3,1,95.0,False
48071,6633, Note_on_c,68,75,4,3,1,79.0,False
48072,6633, Note_on_c,73,75,4,3,1,85.0,False
48073,6634, Note_on_c,70,75,4,3,1,81.0,False
48074,6635, Note_on_c,77,75,4,3,1,90.0,True
48075,6635, Note_on_c,82,75,4,3,1,95.0,False
48076,6636, Note_on_c,68,75,4,3,1,79.0,False
48077,6636, Note_on_c,75,75,4,3,1,87.0,False
48078,6637, Note_on_c,70,75,4,3,1,81.0,False
48079,6638, Note_on_c,77,75,4,3,1,90.0,True
48080,6638, Note_on_c,82,75,4,3,1,95.0,False
48081,6639, Note_on_c,68,75,4,3,1,79.0,False
48082,6639, Note_on_c,75,75,4,3,1,87.0,False
48083,6640, Note_on_c,77,75,4,3,1,90.0,True
48084,6640, Note_on_c,82,75,4,3,1,95.0,False
48085,6641, Note_on_c,68,75,4,3,1,79.0,False
48086,6641, Note_on_c,73,75,4,3,1,85.0,False
48087,6642, Note_on_c,70,75,4,3,1,81.0,False
48088,6643, Note_on_c,77,75,4,3,1,90.0,True
48089,6643, Note_on_c,82,75,4,3,1,95.0,False
48090,6644, Note_on_c,68,75,4,3,1,79.0,False
48091,6644, Note_on_c,75,75,4,3,1,87.0,False
48092,6645, Note_on_c,70,75,4,3,1,81.0,False
48093,6646, Note_on_c,77,75,4,3,1,90.0,True
48094,6646, Note_on_c,82,75,4,3,1,95.0,False
48095,6647, Note_on_c,68,75,4,3,1,79.0,False
48096,6647, Note_on_c,75,75,4,3,1,87.0,False
48097,6648, Note_on_c,77,75,4,3,1,90.0,True
48098,6648, Note_on_c,82,75,4,3,1,95.0,False
48099,6649, Note_on_c,68,75,4,3,1,79.0,False
48100,6649, Note_on_c,73,75,4,3,1,85.0,False
48101,6650, Note_on_c,70,75,4,3,1,81.0,False
48102,6651, Note_on_c,77,75,4,3,1,90.0,True
48103,6651, Note_on_c,82,75,4,3,1,95.0,False
48104,6652, Note_on_c,68,75,4,3,1,79.0,False
48105,6652, Note_on_c,75,75,4,3,1,87.0,False
48106,6653, Note_on_c,70,75,4,3,1,81.0,False
48107,6654, Note_on_c,77,75,4,3,1,90.0,True
48108,6654, Note_on_c,82,75,4,3,1,95.0,False
48109,6655, Note_on_c,68,75,4,3,1,79.0,False
48110,6655, Note_on_c,75,75,4,3,1,87.0,False
48111,6656, Note_on_c,77,75,4,3,1,90.0,True
48112,6656, Note_on_c,82,75,4,3,1,95.0,False
48113,6657, Note_on_c,68,75,4,3,1,79.0,False
48114,6657, Note_on_c,73,75,4,3,1,85.0,False
48115,6658, Note_on_c,70,75,4,3,1,81.0,False
48116,6659, Note_on_c,77,75,4,3,1,90.0,True
48117,6659, Note_on_c,82,75,4,3,1,95.0,False
48118,6660, Note_on_c,68,75,4,3,1,79.0,False
48119,6660, Note_on_c,75,75,4,3,1,87.0,False
48120,6661, Note_on_c,70,75,4,3,1,81.0,False
48121,6662, Note_on_c,77,75,4,3,1,90.0,True
48122,6662, Note_on_c,82,75,4,3,1,95.0,False
48123,6663, Note_on_c,68,75,4,3,1,79.0,False
48124,6663, Note_on_c,75,75,4,3,1,87.0,False
48125,6664, Note_on_c,77,75,4,3,1,90.0,True
48126,6664, Note_on_c,82,75,4,3,1,95.0,False
48127,6665, Note_on_c,68,75,4,3,1,79.0,False
48128,6665, Note_on_c,73,75,4,3,1,85.0,False
48129,6666, Note_on_c,70,75,4,3,1,81.0,False
48130,6667, Note_on_c,77,75,4,3,1,90.0,True
48131,6667, Note_on_c,82,75,4,3,1,95.0,False
48132,6668, Note_on_c,68,75,4,3,1,79.0,False
48133,6668, Note_on_c,75,75,4,3,1,87.0,False
48134,6669, Note_on_c,70,75,4,3,1,81.0,False
48135,6670, Note_on_c,77,75,4,3,1,90.0,True
48136,6670, Note_on_c,82,75,4,3,1,95.0,False
48137,6671, Note_on_c,68,75,4,3,1,79.0,False
48138,6671, Note_on_c,75,75,4,3,1,87.0,False
48139,6672, Note_on_c,77,75,4,3,1,90.0,True
48140,6672, Note_on_c,82,75,4,3,1,95.0,False
48141,6673, Note_on_c,68,75,4,3,1,79.0,False
48142,6673, Note_on_c,73,75,4,3,1,85.0,False
48143,6674, Note_on_c,70,75,4,3,1,81.0,False
48144,6675, Note_on_c,77,75,4,3,1,90.0,True
48145,6675, Note_on_c,82,75,4,3,1,95.0,False
48146,6676, Note_on_c,68,75,4,3,1,79.0,False
48147,6676, Note_on_c,75,75,4,3,1,87.0,False
48148,6677, Note_on_c,70,75,4,3,1,81.0,False
48149,6678, Note_on_c,77,75,4,3,1,90.0,True
48150,6678, Note_on_c,82,75,4,3,1,95.0,False
48151,6679, Note_on_c,68,75,4,3,1,79.0,False
48152,6679, Note_on_c,75,75,4,3,1,87.0,False
48153,6680, Note_on_c,77,75,4,3,1,90.0,True
48154,6680, Note_on_c,82,75,4,3,1,95.0,False
48155,6681, Note_on_c,68,75,4,3,1,79.0,False
48156,6681, Note_on_c,73,75,4,3,1,85.0,False
48157,6682, Note_on_c,70,75,4,3,1,81.0,False
48158,6683, Note_on_c,77,75,4,3,1,90.0,True
48159,6683, Note_on_c,82,75,4,3,1,95.0,False
48160,6684, Note_on_c,68,75,4,3,1,79.0,False
48161,6684, Note_on_c,75,75,4,3,1,87.0,False
48162,6685, Note_on_c,70,75,4,3,1,81.0,False
48163,6686, Note_on_c,77,75,4,3,1,90.0,True
48164,6686, Note_on_c,82,75,4,3,1,95.0,False
48165,6687, Note_on_c,68,75,4,3,1,79.0,False
48166,6687, Note_on_c,75,75,4,3,1,87.0,False
48167,6688, Note_on_c,77,75,4,3,1,90.0,True
48168,6688, Note_on_c,82,75,4,3,1,95.0,False
48169,6689, Note_on_c,68,75,4,3,1,79.0,False
48170,6689, Note_on_c,73,75,4,3,1,85.0,False
48171,6690, Note_on_c,70,75,4,3,1,81.0,False
48172,6691, Note_on_c,77,75,4,3,1,90.0,True
48173,6691, Note_on_c,82,75,4,3,1,95.0,False
48174,6692, Note_on_c,68,75,4,3,1,79.0,False
48175,6692, Note_on_c,75,75,4,3,1,87.0,False
48176,6693, Note_on_c,70,75,4,3,1,81.0,False
48177,6694, Note_on_c,77,75,4,3,1,90.0,True
48178,6694, Note_on_c,82,75,4,3,1,95.0,False
48179,6695, Note_on_c,68,75,4,3,1,79.0,False
48180,6695, Note_on_c,75,75,4,3,1,87.0,False
48181,6696, Note_on_c,77,75,4,3,1,90.0,True
48182,6696, Note_on_c,82,75,4,3,1,95.0,False
48183,6697, Note_on_c,68,75,4,3,1,79.0,False
48184,6697, Note_on_c,73,75,4,3,1,85.0,False
48185,6698, Note_on_c,70,75,4,3,1,81.0,False
48186,6699, Note_on_c,77,75,4,3,1,90.0,True
48187,6699, Note_on_c,82,75,4,3,1,95.0,False
48188,6700, Note_on_c,68,75,4,3,1,79.0,False
48189,6700, Note_on_c,75,75,4,3,1,87.0,False
48190,6701, Note_on_c,70,75,4,3,1,81.0,False
48191,6702, Note_on_c,77,75,4,3,1,90.0,True
48192,6702, Note_on_c,82,75,4,3,1,95.0,False
48193,6703, Note_on_c,68,75,4,3,1,79.0,False
48194,6703, Note_on_c,75,75,4,3,1,87.0,False
48195,6704, Note_on_c,77,75,4,3,1,90.0,True
48196,6704, Note_on_c,82,75,4,3,1,95.0,False
48197,6705, Note_on_c,68,75,4,3,1,79.0,False
48198,6705, Note_on_c,73,75,4,3,1,85.0,False
48199,6706, Note_on_c,70,75,4,3,1,81.0,False
48200,6707, Note_on_c,77,75,4,3,1,90.0,True
48201,6707, Note_on_c,82,75,4,3,1,95.0,False
48202,6708, Note_on_c,68,75,4,3,1,79.0,False
48203,6708, Note_on_c,75,75,4,3,1,87.0,False
48204,6709, Note_on_c,70,75,4,3,1,81.0,False
48205,6710, Note_on_c,77,75,4,3,1,90.0,True
48206,6710, Note_on_c,82,75,4,3,1,95.0,False
48207,6711, Note_on_c,68,75,4,3,1,79.0,False
48208,6711, Note_on_c,75,75,4,3,1,87.0,False
48209,6712, Note_on_c,77,75,4,3,1,90.0,True
48210,6712, Note_on_c,82,75,4,3,1,95.0,False
48211,6713, Note_on_c,68,75,4,3,1,79.0,False
48212,6713, Note_on_c,73,75,4,3,1,85.0,False
48213,6714, Note_on_c,70,75,4,3,1,81.0,False
48214,6715, Note_on_c,77,75,4,3,1,90.0,True
48215,6715, Note_on_c,82,75,4,3,1,95.0,False
48216,6716, Note_on_c,68,75,4,3,1,79.0,False
48217,6716, Note_on_c,75,75,4,3,1,87.0,False
48218,6717, Note_on_c,70,75,4,3,1,81.0,False
48219,6718, Note_on_c,77,75,4,3,1,90.0,True
48220,6718, Note_on_c,82,75,4,3,1,95.0,False
48221,6719, Note_on_c,68,75,4,3,1,79.0,False
48222,6719, Note_on_c,75,75,4,3,1,87.0,False
48223,6720, Note_on_c,77,75,4,3,1,90.0,True
48224,6720, Note_on_c,82,75,4,3,1,95.0,False
48225,6721, Note_on_c,68,75,4,3,1,79.0,False
48226,6721, Note_on_c,73,75,4,3,1,85.0,False
48227,6722, Note_on_c,70,75,4,3,1,81.0,False
48228,6723, Note_on_c,77,75,4,3,1,90.0,True
48229,6723, Note_on_c,82,75,4,3,1,95.0,False
48230,6724, Note_on_c,68,75,4,3,1,79.0,False
48231,6724, Note_on_c,75,75,4,3,1,87.0,False
48232,6725, Note_on_c,70,75,4,3,1,81.0,False
48233,6726, Note_on_c,77,75,4,3,1,90.0,True
48234,6726, Note_on_c,82,75,4,3,1,95.0,False
48235,6727, Note_on_c,68,75,4,3,1,79.0,False
48236,6727, Note_on_c,75,75,4,3,1,87.0,False
48237,6728, Note_on_c,77,75,4,3,1,90.0,True
48238,6728, Note_on_c,82,75,4,3,1,95.0,False
48239,6729, Note_on_c,68,75,4,3,1,79.0,False
48240,6729, Note_on_c,73,75,4,3,1,85.0,False
48241,6730, Note_on_c,70,75,4,3,1,81.0,False
48242,6731, Note_on_c,77,75,4,3,1,90.0,True
48243,6731, Note_on_c,82,75,4,3,1,95.0,False
48244,6732, Note_on_c,68,75,4,3,1,79.0,False
48245,6732, Note_on_c,75,75,4,3,1,87.0,False
48246,6733, Note_on_c,70,75,4,3,1,81.0,False
48247,6734, Note_on_c,77,75,4,3,1,90.0,True
48248,6734, Note_on_c,82,75,4,3,1,95.0,False
48249,6735, Note_on_c,68,75,4,3,1,79.0,False
48250,6735, Note_on_c,75,75,4,3,1,87.0,False
48251,6736, Note_on_c,77,75,4,3,1,90.0,True
48252,6736, Note_on_c,82,75,4,3,1,95.0,False
48253,6737, Note_on_c,68,75,4,3,1,79.0,False
48254,6737, Note_on_c,73,75,4,3,1,85.0,False
48255,6738, Note_on_c,70,75,4,3,1,81.0,False
48256,6739, Note_on_c,77,75,4,3,1,90.0,True
48257,6739, Note_on_c,82,75,4,3,1,95.0,False
48258,6740, Note_on_c,68,75,4,3,1,79.0,False
48259,6740, Note_on_c,75,75,4,3,1,87.0,False
48260,6741, Note_on_c,70,75,4,3,1,81.0,False
48261,6742, Note_on_c,77,75,4,3,1,90.0,True
48262,6742, Note_on_c,82,75,4,3,1,95.0,False
48263,6743, Note_on_c,68,75,4,3,1,79.0,False
48264,6743, Note_on_c,75,75,4,3,1,87.0,False
48265,6744, Note_on_c,77,75,4,3,1,90.0,True
48266,6744, Note_on_c,82,75,4,3,1,95.0,False
48267,6745, Note_on_c,68,75,4,3,1,79.0,False
48268,6745, Note_on_c,73,75,4,3,1,85.0,False
48269,6746, Note_on_c,70,75,4,3,1,81.0,False
48270,6747, Note_on_c,77,75,4,3,1,90.0,True
48271,6747, Note_on_c,82,75,4,3,1,95.0,False
48272,6748, Note_on_c,68,75,4,3,1,79.0,False
48273,6748, Note_on_c,75,75,4,3,1,87.0,False
48274,6749, Note_on_c,70,75,4,3,1,81.0,False
48275,6750, Note_on_c,77,75,4,3,1,90.0,True
48276,6750, Note_on_c,82,75,4,3,1,95.0,False
48277,6751, Note_on_c,68,75,4,3,1,79.0,False
48278,6751, Note_on_c,75,75,4,3,1,87.0,False
48279,6752, Note_on_c,77,75,4,3,1,90.0,True
48280,6752, Note_on_c,82,75,4,3,1,95.0,False
48281,6753, Note_on_c,68,75,4,3,1,79.0,False
48282,6753, Note_on_c,73,75,4,3,1,85.0,False
48283,6754, Note_on_c,70,75,4,3,1,81.0,False
48284,6755, Note_on_c,77,75,4,3,1,90.0,True
48285,6755, Note_on_c,82,75,4,3,1,95.0,False
48286,6756, Note_on_c,68,75,4,3,1,79.0,False
48287,6756, Note_on_c,75,75,4,3,1,87.0,False
48288,6757, Note_on_c,70,75,4,3,1,81.0,False
48289,6758, Note_on_c,77,75,4,3,1,90.0,True
48290,6758, Note_on_c,82,75,4,3,1,95.0,False
48291,6759, Note_on_c,68,75,4,3,1,79.0,False
48292,6759, Note_on_c,75,75,4,3,1,87.0,False
48293,6760, Note_on_c,77,75,4,3,1,90.0,True
48294,6760, Note_on_c,82,75,4,3,1,95.0,False
48295,6761, Note_on_c,68,75,4,3,1,79.0,False
48296,6761, Note_on_c,73,75,4,3,1,85.0,False
48297,6762, Note_on_c,70,75,4,3,1,81.0,False
48298,6763, Note_on_c,77,75,4,3,1,90.0,True
48299,6763, Note_on_c,82,75,4,3,1,95.0,False
48300,6764, Note_on_c,68,75,4,3,1,79.0,False
48301,6764, Note_on_c,75,75,4,3,1,87.0,False
48302,6765, Note_on_c,70,75,4,3,1,81.0,False
48303,6766, Note_on_c,77,75,4,3,1,90.0,True
48304,6766, Note_on_c,82,75,4,3,1,95.0,False
48305,6767, Note_on_c,68,75,4,3,1,79.0,False
48306,6767, Note_on_c,75,75,4,3,1,87.0,False
48307,6768, Note_on_c,77,75,4,3,1,90.0,True
48308,6768, Note_on_c,82,75,4,3,1,95.0,False
48309,6769, Note_on_c,68,75,4,3,1,79.0,False
48310,6769, Note_on_c,73,75,4,3,1,85.0,False
48311,6770, Note_on_c,70,75,4,3,1,81.0,False
48312,6771, Note_on_c,77,75,4,3,1,90.0,True
48313,6771, Note_on_c,82,75,4,3,1,95.0,False
48314,6772, Note_on_c,68,75,4,3,1,79.0,False
48315,6772, Note_on_c,75,75,4,3,1,87.0,False
48316,6773, Note_on_c,70,75,4,3,1,81.0,False
48317,6774, Note_on_c,77,75,4,3,1,90.0,True
48318,6774, Note_on_c,82,75,4,3,1,95.0,False
48319,6775, Note_on_c,68,75,4,3,1,79.0,False
48320,6775, Note_on_c,75,75,4,3,1,87.0,False
48321,6776, Note_on_c,77,75,4,3,1,90.0,True
48322,6776, Note_on_c,82,75,4,3,1,95.0,False
48323,6777, Note_on_c,68,75,4,3,1,79.0,False
48324,6777, Note_on_c,73,75,4,3,1,85.0,False
48325,6778, Note_on_c,70,75,4,3,1,81.0,False
48326,6779, Note_on_c,77,75,4,3,1,90.0,True
48327,6779, Note_on_c,82,75,4,3,1,95.0,False
48328,6780, Note_on_c,68,75,4,3,1,79.0,False
48329,6780, Note_on_c,75,75,4,3,1,87.0,False
48330,6781, Note_on_c,70,75,4,3,1,81.0,False
48331,6782, Note_on_c,77,75,4,3,1,90.0,True
48332,6782, Note_on_c,82,75,4,3,1,95.0,False
48333,6783, Note_on_c,68,75,4,3,1,79.0,False
48334,6783, Note_on_c,75,75,4,3,1,87.0,False
48335,6784, Note_on_c,77,75,4,3,1,90.0,True
48336,6784, Note_on_c,82,75,4,3,1,95.0,False
48337,6785, Note_on_c,68,75,4,3,1,79.0,False
48338,6785, Note_on_c,73,75,4,3,1,85.0,False
48339,6786, Note_on_c,70,75,4,3,1,81.0,False
48340,6787, Note_on_c,77,75,4,3,1,90.0,True
48341,6787, Note_on_c,82,75,4,3,1,95.0,False
48342,6788, Note_on_c,68,75,4,3,1,79.0,False
48343,6788, Note_on_c,75,75,4,3,1,87.0,False
48344,6789, Note_on_c,70,75,4,3,1,81.0,False
48345,6790, Note_on_c,77,75,4,3,1,90.0,True
48346,6790, Note_on_c,82,75,4,3,1,95.0,False
48347,6791, Note_on_c,68,75,4,3,1,79.0,False
48348,6791, Note_on_c,75,75,4,3,1,87.0,False
48349,6792, Note_on_c,77,75,4,3,1,90.0,True
48350,6792, Note_on_c,82,75,4,3,1,95.0,False
48351,6793, Note_on_c,68,75,4,3,1,79.0,False
48352,6793, Note_on_c,73,75,4,3,1,85.0,False
48353,6794, Note_on_c,70,75,4,3,1,81.0,False
48354,6795, Note_on_c,77,75,4,3,1,90.0,True
48355,6795, Note_on_c,82,75,4,3,1,95.0,False
48356,6796, Note_on_c,68,75,4,3,1,79.0,False
48357,6796, Note_on_c,75,75,4,3,1,87.0,False
48358,6797, Note_on_c,70,75,4,3,1,81.0,False
48359,6798, Note_on_c,77,75,4,3,1,90.0,True
48360,6798, Note_on_c,82,75,4,3,1,95.0,False
48361,6799, Note_on_c,68,75,4,3,1,79.0,False
48362,6799, Note_on_c,75,75,4,3,1,87.0,False
48363,6800, Note_on_c,77,75,4,3,1,90.0,True
48364,6800, Note_on_c,82,75,4,3,1,95.0,False
48365,6801, Note_on_c,68,75,4,3,1,79.0,False
48366,6801, Note_on_c,73,75,4,3,1,85.0,False
48367,6802, Note_on_c,70,75,4,3,1,81.0,False
48368,6803, Note_on_c,77,75,4,3,1,90.0,True
48369,6803, Note_on_c,82,75,4,3,1,95.0,False
48370,6804, Note_on_c,68,75,4,3,1,79.0,False
48371,6804, Note_on_c,75,75,4,3,1,87.0,False
48372,6805, Note_on_c,70,75,4,3,1,81.0,False
48373,6806, Note_on_c,77,75,4,3,1,90.0,True
48374,6806, Note_on_c,82,75,4,3,1,95.0,False
48375,6807, Note_on_c,68,75,4,3,1,79.0,False
48376,6807, Note_on_c,75,75,4,3,1,87.0,False
48377,6808, Note_on_c,77,75,4,3,1,90.0,True
48378,6808, Note_on_c,82,75,4,3,1,95.0,False
48379,6809, Note_on_c,68,75,4,3,1,79.0,False
48380,6809, Note_on_c,73,75,4,3,1,85.0,False
48381,6810, Note_on_c,70,75,4,3,1,81.0,False
48382,6811, Note_on_c,77,75,4,3,1,90.0,True
48383,6811, Note_on_c,82,75,4,3,1,95.0,False
48384,6812, Note_on_c,68,75,4,3,1,79.0,False
48385,6812, Note_on_c,75,75,4,3,1,87.0,False
48386,6813, Note_on_c,70,75,4,3,1,81.0,False
48387,6814, Note_on_c,77,75,4,3,1,90.0,True
48388,6814, Note_on_c,82,75,4,3,1,95.0,False
48389,6815, Note_on_c,68,75,4,3,1,79.0,False
48390,6815, Note_on_c,75,75,4,3,1,87.0,False
48391,6816, Note_on_c,77,75,4,3,1,90.0,True
48392,6816, Note_on_c,82,75,4,3,1,95.0,False
48393,6817, Note_on_c,68,75,4,3,1,79.0,False
48394,6817, Note_on_c,73,75,4,3,1,85.0,False
48395,6818, Note_on_c,70,75,4,3,1,81.0,False
48396,6819, Note_on_c,77,75,4,3,1,90.0,True
48397,6819, Note_on_c,82,75,4,3,1,95.0,False
48398,6820, Note_on_c,68,75,4,3,1,79.0,False
48399,6820, Note_on_c,75,75,4,3,1,87.0,False
48400,6821, Note_on_c,70,75,4,3,1,81.0,False
48401,6822, Note_on_c,77,75,4,3,1,90.0,True
48402,6822, Note_on_c,82,75,4,3,1,95.0,False
48403,6823, Note_on_c,68,75,4,3,1,79.0,False
48404,6823, Note_on_c,75,75,4,3,1,87.0,False
48405,6824, Note_on_c,77,75,4,3,1,90.0,True
48406,6824, Note_on_c,82,75,4,3,1,95.0,False
48407,6825, Note_on_c,68,75,4,3,1,79.0,False
48408,6825, Note_on_c,73,75,4,3,1,85.0,False
48409,6826, Note_on_c,70,75,4,3,1,81.0,False
48410,6827, Note_on_c,77,75,4,3,1,90.0,True
48411,6827, Note_on_c,82,75,4,3,1,95.0,False
48412,6828, Note_on_c,68,75,4,3,1,79.0,False
48413,6828, Note_on_c,75,75,4,3,1,87.0,False
48414,6829, Note_on_c,70,75,4,3,1,81.0,False
48415,6830, Note_on_c,77,75,4,3,1,90.0,True
48416,6830, Note_on_c,82,75,4,3,1,95.0,False
48417,6831, Note_on_c,68,75,4,3,1,79.0,False
48418,6831, Note_on_c,75,75,4,3,1,87.0,False
48419,6832, Note_on_c,77,75,4,3,1,90.0,True
48420,6832, Note_on_c,82,75,4,3,1,95.0,False
48421,6833, Note_on_c,68,75,4,3,1,79.0,False
48422,6833, Note_on_c,73,75,4,3,1,85.0,False
48423,6834, Note_on_c,70,75,4,3,1,81.0,False
48424,6835, Note_on_c,77,75,4,3,1,90.0,True
48425,6835, Note_on_c,82,75,4,3,1,95.0,False
48426,6836, Note_on_c,68,75,4,3,1,79.0,False
48427,6836, Note_on_c,75,75,4,3,1,87.0,False
48428,6837, Note_on_c,70,75,4,3,1,81.0,False
48429,6838, Note_on_c,77,75,4,3,1,90.0,True
48430,6838, Note_on_c,82,75,4,3,1,95.0,False
48431,6839, Note_on_c,68,75,4,3,1,79.0,False
48432,6839, Note_on_c,75,75,4,3,1,87.0,False
48433,6840, Note_on_c,77,75,4,3,1,90.0,True
48434,6840, Note_on_c,82,75,4,3,1,95.0,False
48435,6841, Note_on_c,68,75,4,3,1,79.0,False
48436,6841, Note_on_c,73,75,4,3,1,85.0,False
48437,6842, Note_on_c,70,75,4,3,1,81.0,False
48438,6843, Note_on_c,77,75,4,3,1,90.0,True
48439,6843, Note_on_c,82,75,4,3,1,95.0,False
48440,6844, Note_on_c,68,75,4,3,1,79.0,False
48441,6844, Note_on_c,75,75,4,3,1,87.0,False
48442,6845, Note_on_c,70,75,4,3,1,81.0,False
48443,6846, Note_on_c,77,75,4,3,1,90.0,True
48444,6846, Note_on_c,82,75,4,3,1,95.0,False
48445,6847, Note_on_c,68,75,4,3,1,79.0,False
48446,6847, Note_on_c,75,75,4,3,1,87.0,False
48447,6848, Note_on_c,77,75,4,3,1,90.0,True
48448,6848, Note_on_c,82,75,4,3,1,95.0,False
48449,6849, Note_on_c,68,75,4,3,1,79.0,False
48450,6849, Note_on_c,73,75,4,3,1,85.0,False
48451,6850, Note_on_c,70,75,4,3,1,81.0,False
48452,6851, Note_on_c,77,75,4,3,1,90.0,True
48453,6851, Note_on_c,82,75,4,3,1,95.0,False
48454,6852, Note_on_c,68,75,4,3,1,79.0,False
48455,6852, Note_on_c,75,75,4,3,1,87.0,False
48456,6853, Note_on_c,70,75,4,3,1,81.0,False
48457,6854, Note_on_c,77,75,4,3,1,90.0,True
48458,6854, Note_on_c,82,75,4,3,1,95.0,False
48459,6855, Note_on_c,68,75,4,3,1,79.0,False
48460,6855, Note_on_c,75,75,4,3,1,87.0,False
48461,6856, Note_on_c,77,75,4,3,1,90.0,True
48462,6856, Note_on_c,82,75,4,3,1,95.0,False
48463,6857, Note_on_c,68,75,4,3,1,79.0,False
48464,6857, Note_on_c,73,75,4,3,1,85.0,False
48465,6858, Note_on_c,70,75,4,3,1,81.0,False
48466,6859, Note_on_c,77,75,4,3,1,90.0,True
48467,6859, Note_on_c,82,75,4,3,1,95.0,False
48468,6860, Note_on_c,68,75,4,3,1,79.0,False
48469,6860, Note_on_c,75,75,4,3,1,87.0,False
48470,6861, Note_on_c,70,75,4,3,1,81.0,False
48471,6862, Note_on_c,77,75,4,3,1,90.0,True
48472,6862, Note_on_c,82,75,4,3,1,95.0,False
48473,6863, Note_on_c,68,75,4,3,1,79.0,False
48474,6863, Note_on_c,75,75,4,3,1,87.0,False
48475,6864, Note_on_c,77,75,4,3,1,90.0,True
48476,6864, Note_on_c,82,75,4,3,1,95.0,False
48477,6865, Note_on_c,68,75,4,3,1,79.0,False
48478,6865, Note_on_c,73,75,4,3,1,85.0,False
48479,6866, Note_on_c,70,75,4,3,1,81.0,False
48480,6867, Note_on_c,77,75,4,3,1,90.0,True
48481,6867, Note_on_c,82,75,4,3,1,95.0,False
48482,6868, Note_on_c,68,75,4,3,1,79.0,False
48483,6868, Note_on_c,75,75,4,3,1,87.0,False
48484,6869, Note_on_c,70,75,4,3,1,81.0,False
48485,6870, Note_on_c,77,75,4,3,1,90.0,True
48486,6870, Note_on_c,82,75,4,3,1,95.0,False
48487,6871, Note_on_c,68,75,4,3,1,79.0,False
48488,6871, Note_on_c,75,75,4,3,1,87.0,False
48489,6872, Note_on_c,77,75,4,3,1,90.0,True
48490,6872, Note_on_c,82,75,4,3,1,95.0,False
48491,6873, Note_on_c,68,75,4,3,1,79.0,False
48492,6873, Note_on_c,73,75,4,3,1,85.0,False
48493,6874, Note_on_c,70,75,4,3,1,81.0,False
48494,6875, Note_on_c,77,75,4,3,1,90.0,True
48495,6875, Note_on_c,82,75,4,3,1,95.0,False
48496,6876, Note_on_c,68,75,4,3,1,79.0,False
48497,6876, Note_on_c,75,75,4,3,1,87.0,False
48498,6877, Note_on_c,70,75,4,3,1,81.0,False
48499,6878, Note_on_c,77,75,4,3,1,90.0,True
48500,6878, Note_on_c,82,75,4,3,1,95.0,False
48501,6879, Note_on_c,68,75,4,3,1,79.0,False
48502,6879, Note_on_c,75,75,4,3,1,87.0,False
48503,6880, Note_on_c,77,75,4,3,1,90.0,True
48504,6880, Note_on_c,82,75,4,3,1,95.0,False
48505,6881, Note_on_c,68,75,4,3,1,79.0,False
48506,6881, Note_on_c,73,75,4,3,1,85.0,False
48507,6882, Note_on_c,70,75,4,3,1,81.0,False
48508,6883, Note_on_c,77,75,4,3,1,90.0,True
48509,6883, Note_on_c,82,75,4,3,1,95.0,False
48510,6884, Note_on_c,68,75,4,3,1,79.0,False
48511,6884, Note_on_c,75,75,4,3,1,87.0,False
48512,6885, Note_on_c,70,75,4,3,1,81.0,False
48513,6886, Note_on_c,77,75,4,3,1,90.0,True
48514,6886, Note_on_c,82,75,4,3,1,95.0,False
48515,6887, Note_on_c,68,75,4,3,1,79.0,False
48516,6887, Note_on_c,75,75,4,3,1,87.0,False
48517,6888, Note_on_c,77,75,4,3,1,90.0,True
48518,6888, Note_on_c,82,75,4,3,1,95.0,False
48519,6889, Note_on_c,68,75,4,3,1,79.0,False
48520,6889, Note_on_c,73,75,4,3,1,85.0,False
48521,6890, Note_on_c,70,75,4,3,1,81.0,False
48522,6891, Note_on_c,77,75,4,3,1,90.0,True
48523,6891, Note_on_c,82,75,4,3,1,95.0,False
48524,6892, Note_on_c,68,75,4,3,1,79.0,False
48525,6892, Note_on_c,75,75,4,3,1,87.0,False
48526,6893, Note_on_c,70,75,4,3,1,81.0,False
48527,6894, Note_on_c,77,75,4,3,1,90.0,True
48528,6894, Note_on_c,82,75,4,3,1,95.0,False
48529,6895, Note_on_c,68,75,4,3,1,79.0,False
48530,6895, Note_on_c,75,75,4,3,1,87.0,False
48531,6896, Note_on_c,77,75,4,3,1,90.0,True
48532,6896, Note_on_c,82,75,4,3,1,95.0,False
48533,6897, Note_on_c,68,75,4,3,1,79.0,False
48534,6897, Note_on_c,73,75,4,3,1,85.0,False
48535,6898, Note_on_c,70,75,4,3,1,81.0,False
48536,6899, Note_on_c,77,75,4,3,1,90.0,True
48537,6899, Note_on_c,82,75,4,3,1,95.0,False
48538,6900, Note_on_c,68,75,4,3,1,79.0,False
48539,6900, Note_on_c,75,75,4,3,1,87.0,False
48540,6901, Note_on_c,70,75,4,3,1,81.0,False
48541,6902, Note_on_c,77,75,4,3,1,90.0,True
48542,6902, Note_on_c,82,75,4,3,1,95.0,False
48543,6903, Note_on_c,68,75,4,3,1,79.0,False
48544,6903, Note_on_c,75,75,4,3,1,87.0,False
48545,6904, Note_on_c,77,75,4,3,1,90.0,True
48546,6904, Note_on_c,82,75,4,3,1,95.0,False
48547,6905, Note_on_c,68,75,4,3,1,79.0,False
48548,6905, Note_on_c,73,75,4,3,1,85.0,False
48549,6906, Note_on_c,70,75,4,3,1,81.0,False
48550,6907, Note_on_c,77,75,4,3,1,90.0,True
48551,6907, Note_on_c,82,75,4,3,1,95.0,False
48552,6908, Note_on_c,68,75,4,3,1,79.0,False
48553,6908, Note_on_c,75,75,4,3,1,87.0,False
48554,6909, Note_on_c,70,75,4,3,1,81.0,False
48555,6910, Note_on_c,77,75,4,3,1,90.0,True
48556,6910, Note_on_c,82,75,4,3,1,95.0,False
48557,6911, Note_on_c,68,75,4,3,1,79.0,False
48558,6911, Note_on_c,75,75,4,3,1,87.0,False
48559,6912, Note_on_c,77,75,4,3,1,90.0,True
48560,6912, Note_on_c,82,75,4,3,1,95.0,False
48561,6913, Note_on_c,68,75,4,3,1,79.0,False
48562,6913, Note_on_c,73,75,4,3,1,85.0,False
48563,6914, Note_on_c,70,75,4,3,1,81.0,False
48564,6915, Note_on_c,77,75,4,3,1,90.0,True
48565,6915, Note_on_c,82,75,4,3,1,95.0,False
48566,6916, Note_on_c,68,75,4,3,1,79.0,False
48567,6916, Note_on_c,75,75,4,3,1,87.0,False
48568,6917, Note_on_c,70,75,4,3,1,81.0,False
48569,6918, Note_on_c,77,75,4,3,1,90.0,True
48570,6918, Note_on_c,82,75,4,3,1,95.0,False
48571,6919, Note_on_c,68,75,4,3,1,79.0,False
48572,6919, Note_on_c,75,75,4,3,1,87.0,False
48573,6920, Note_on_c,77,75,4,3,1,90.0,True
48574,6920, Note_on_c,82,75,4,3,1,95.0,False
48575,6921, Note_on_c,68,75,4,3,1,79.0,False
48576,6921, Note_on_c,73,75,4,3,1,85.0,False
48577,6922, Note_on_c,70,75,4,3,1,81.0,False
48578,6923, Note_on_c,77,75,4,3,1,90.0,True
48579,6923, Note_on_c,82,75,4,3,1,95.0,False
48580,6924, Note_on_c,68,75,4,3,1,79.0,False
48581,6924, Note_on_c,75,75,4,3,1,87.0,False
48582,6925, Note_on_c,70,75,4,3,1,81.0,False
48583,6926, Note_on_c,77,75,4,3,1,90.0,True
48584,6926, Note_on_c,82,75,4,3,1,95.0,False
48585,6927, Note_on_c,68,75,4,3,1,79.0,False
48586,6927, Note_on_c,75,75,4,3,1,87.0,False
48587,6928, Note_on_c,77,75,4,3,1,90.0,True
48588,6928, Note_on_c,82,75,4,3,1,95.0,False
48589,6929, Note_on_c,68,75,4,3,1,79.0,False
48590,6929, Note_on_c,73,75,4,3,1,85.0,False
48591,6930, Note_on_c,70,75,4,3,1,81.0,False
48592,6931, Note_on_c,77,75,4,3,1,90.0,True
48593,6931, Note_on_c,82,75,4,3,1,95.0,False
48594,6932, Note_on_c,68,75,4,3,1,79.0,False
48595,6932, Note_on_c,75,75,4,3,1,87.0,False
48596,6933, Note_on_c,70,75,4,3,1,81.0,False
48597,6934, Note_on_c,77,75,4,3,1,90.0,True
48598,6934, Note_on_c,82,75,4,3,1,95.0,False
48599,6935, Note_on_c,68,75,4,3,1,79.0,False
48600,6935, Note_on_c,75,75,4,3,1,87.0,False
48601,6936, Note_on_c,77,75,4,3,1,90.0,True
48602,6936, Note_on_c,82,75,4,3,1,95.0,False
48603,6937, Note_on_c,68,75,4,3,1,79.0,False
48604,6937, Note_on_c,73,75,4,3,1,85.0,False
48605,6938, Note_on_c,70,75,4,3,1,81.0,False
48606,6939, Note_on_c,77,75,4,3,1,90.0,True
48607,6939, Note_on_c,82,75,4,3,1,95.0,False
48608,6940, Note_on_c,68,75,4,3,1,79.0,False
48609,6940, Note_on_c,75,75,4,3,1,87.0,False
48610,6941, Note_on_c,70,75,4,3,1,81.0,False
48611,6942, Note_on_c,77,75,4,3,1,90.0,True
48612,6942, Note_on_c,82,75,4,3,1,95.0,False
48613,6943, Note_on_c,68,75,4,3,1,79.0,False
48614,6943, Note_on_c,75,75,4,3,1,87.0,False
48615,6944, Note_on_c,77,75,4,3,1,90.0,True
48616,6944, Note_on_c,82,75,4,3,1,95.0,False
48617,6945, Note_on_c,68,75,4,3,1,79.0,False
48618,6945, Note_on_c,73,75,4,3,1,85.0,False
48619,6946, Note_on_c,70,75,4,3,1,81.0,False
48620,6947, Note_on_c,77,75,4,3,1,90.0,True
48621,6947, Note_on_c,82,75,4,3,1,95.0,False
48622,6948, Note_on_c,68,75,4,3,1,79.0,False
48623,6948, Note_on_c,75,75,4,3,1,87.0,False
48624,6949, Note_on_c,70,75,4,3,1,81.0,False
48625,6950, Note_on_c,77,75,4,3,1,90.0,True
48626,6950, Note_on_c,82,75,4,3,1,95.0,False
48627,6951, Note_on_c,68,75,4,3,1,79.0,False
48628,6951, Note_on_c,75,75,4,3,1,87.0,False
48629,6952, Note_on_c,77,75,4,3,1,90.0,True
48630,6952, Note_on_c,82,75,4,3,1,95.0,False
48631,6953, Note_on_c,68,75,4,3,1,79.0,False
48632,6953, Note_on_c,73,75,4,3,1,85.0,False
48633,6954, Note_on_c,70,75,4,3,1,81.0,False
48634,6955, Note_on_c,77,75,4,3,1,90.0,True
48635,6955, Note_on_c,82,75,4,3,1,95.0,False
48636,6956, Note_on_c,68,75,4,3,1,79.0,False
48637,6956, Note_on_c,75,75,4,3,1,87.0,False
48638,6957, Note_on_c,70,75,4,3,1,81.0,False
48639,6958, Note_on_c,77,75,4,3,1,90.0,True
48640,6958, Note_on_c,82,75,4,3,1,95.0,False
48641,6959, Note_on_c,68,75,4,3,1,79.0,False
48642,6959, Note_on_c,75,75,4,3,1,87.0,False
48643,6960, Note_on_c,77,75,4,3,1,90.0,True
48644,6960, Note_on_c,82,75,4,3,1,95.0,False
48645,6961, Note_on_c,68,75,4,3,1,79.0,False
48646,6961, Note_on_c,73,75,4,3,1,85.0,False
48647,6962, Note_on_c,70,75,4,3,1,81.0,False
48648,6963, Note_on_c,77,75,4,3,1,90.0,True
48649,6963, Note_on_c,82,75,4,3,1,95.0,False
48650,6964, Note_on_c,68,75,4,3,1,79.0,False
48651,6964, Note_on_c,75,75,4,3,1,87.0,False
48652,6965, Note_on_c,70,75,4,3,1,81.0,False
48653,6966, Note_on_c,77,75,4,3,1,90.0,True
48654,6966, Note_on_c,82,75,4,3,1,95.0,False
48655,6967, Note_on_c,68,75,4,3,1,79.0,False
48656,6967, Note_on_c,75,75,4,3,1,87.0,False
48657,6968, Note_on_c,77,75,4,3,1,90.0,True
48658,6968, Note_on_c,82,75,4,3,1,95.0,False
48659,6969, Note_on_c,68,75,4,3,1,79.0,False
48660,6969, Note_on_c,73,75,4,3,1,85.0,False
48661,6970, Note_on_c,70,75,4,3,1,81.0,False
48662,6971, Note_on_c,77,75,4,3,1,90.0,True
48663,6971, Note_on_c,82,75,4,3,1,95.0,False
48664,6972, Note_on_c,68,75,4,3,1,79.0,False
48665,6972, Note_on_c,75,75,4,3,1,87.0,False
48666,6973, Note_on_c,70,75,4,3,1,81.0,False
48667,6974, Note_on_c,77,75,4,3,1,90.0,True
48668,6974, Note_on_c,82,75,4,3,1,95.0,False
48669,6975, Note_on_c,68,75,4,3,1,79.0,False
48670,6975, Note_on_c,75,75,4,3,1,87.0,False
48671,6976, Note_on_c,77,75,4,3,1,90.0,True
48672,6976, Note_on_c,82,75,4,3,1,95.0,False
48673,6977, Note_on_c,68,75,4,3,1,79.0,False
48674,6977, Note_on_c,73,75,4,3,1,85.0,False
48675,6978, Note_on_c,70,75,4,3,1,81.0,False
48676,6979, Note_on_c,77,75,4,3,1,90.0,True
48677,6979, Note_on_c,82,75,4,3,1,95.0,False
48678,6980, Note_on_c,68,75,4,3,1,79.0,False
48679,6980, Note_on_c,75,75,4,3,1,87.0,False
48680,6981, Note_on_c,70,75,4,3,1,81.0,False
48681,6982, Note_on_c,77,75,4,3,1,90.0,True
48682,6982, Note_on_c,82,75,4,3,1,95.0,False
48683,6983, Note_on_c,68,75,4,3,1,79.0,False
48684,6983, Note_on_c,75,75,4,3,1,87.0,False
48685,6984, Note_on_c,77,75,4,3,1,90.0,True
48686,6984, Note_on_c,82,75,4,3,1,95.0,False
48687,6985, Note_on_c,68,75,4,3,1,79.0,False
48688,6985, Note_on_c,73,75,4,3,1,85.0,False
48689,6986, Note_on_c,70,75,4,3,1,81.0,False
48690,6987, Note_on_c,77,75,4,3,1,90.0,True
48691,6987, Note_on_c,82,75,4,3,1,95.0,False
48692,6988, Note_on_c,68,75,4,3,1,79.0,False
48693,6988, Note_on_c,75,75,4,3,1,87.0,False
48694,6989, Note_on_c,70,75,4,3,1,81.0,False
48695,6990, Note_on_c,77,75,4,3,1,90.0,True
48696,6990, Note_on_c,82,75,4,3,1,95.0,False
48697,6991, Note_on_c,68,75,4,3,1,79.0,False
48698,6991, Note_on_c,75,75,4,3,1,87.0,False
48699,6992, Note_on_c,77,75,4,3,1,90.0,True
48700,6992, Note_on_c,82,75,4,3,1,95.0,False
48701,6993, Note_on_c,68,75,4,3,1,79.0,False
48702,6993, Note_on_c,73,75,4,3,1,85.0,False
48703,6994, Note_on_c,70,75,4,3,1,81.0,False
48704,6995, Note_on_c,77,75,4,3,1,90.0,True
48705,6995, Note_on_c,82,75,4,3,1,95.0,False
48706,6996, Note_on_c,68,75,4,3,1,79.0,False
48707,6996, Note_on_c,75,75,4,3,1,87.0,False
48708,6997, Note_on_c,70,75,4,3,1,81.0,False
48709,6998, Note_on_c,77,75,4,3,1,90.0,True
48710,6998, Note_on_c,82,75,4,3,1,95.0,False
48711,6999, Note_on_c,68,75,4,3,1,79.0,False
48712,6999, Note_on_c,75,75,4,3,1,87.0,False
48713,7000, Note_on_c,77,75,4,3,1,90.0,True
48714,7000, Note_on_c,82,75,4,3,1,95.0,False
48715,7001, Note_on_c,68,75,4,3,1,79.0,False
48716,7001, Note_on_c,73,75,4,3,1,85.0,False
48717,7002, Note_on_c,70,75,4,3,1,81.0,False
48718,7003, Note_on_c,77,75,4,3,1,90.0,True
48719,7003, Note_on_c,82,75,4,3,1,95.0,False
48720,7004, Note_on_c,68,75,4,3,1,79.0,False
48721,7004, Note_on_c,75,75,4,3,1,87.0,False
48722,7005, Note_on_c,70,75,4,3,1,81.0,False
48723,7006, Note_on_c,77,75,4,3,1,90.0,True
48724,7006, Note_on_c,82,75,4,3,1,95.0,False
48725,7007, Note_on_c,68,75,4,3,1,79.0,False
48726,7007, Note_on_c,75,75,4,3,1,87.0,False
48727,7008, Note_on_c,77,75,4,3,1,90.0,True
48728,7008, Note_on_c,82,75,4,3,1,95.0,False
48729,7009, Note_on_c,68,75,4,3,1,79.0,False
48730,7009, Note_on_c,73,75,4,3,1,85.0,False
48731,7010, Note_on_c,70,75,4,3,1,81.0,False
48732,7011, Note_on_c,77,75,4,3,1,90.0,True
48733,7011, Note_on_c,82,75,4,3,1,95.0,False
48734,7012, Note_on_c,68,75,4,3,1,79.0,False
48735,7012, Note_on_c,75,75,4,3,1,87.0,False
48736,7013, Note_on_c,70,75,4,3,1,81.0,False
48737,7014, Note_on_c,77,75,4,3,1,90.0,True
48738,7014, Note_on_c,82,75,4,3,1,95.0,False
48739,7015, Note_on_c,68,75,4,3,1,79.0,False
48740,7015, Note_on_c,75,75,4,3,1,87.0,False
48741,7016, Note_on_c,77,75,4,3,1,90.0,True
48742,7016, Note_on_c,82,75,4,3,1,95.0,False
48743,7017, Note_on_c,68,75,4,3,1,79.0,False
48744,7017, Note_on_c,73,75,4,3,1,85.0,False
48745,7018, Note_on_c,70,75,4,3,1,81.0,False
48746,7019, Note_on_c,77,75,4,3,1,90.0,True
48747,7019, Note_on_c,82,75,4,3,1,95.0,False
48748,7020, Note_on_c,68,75,4,3,1,79.0,False
48749,7020, Note_on_c,75,75,4,3,1,87.0,False
48750,7021, Note_on_c,70,75,4,3,1,81.0,False
48751,7022, Note_on_c,77,75,4,3,1,90.0,True
48752,7022, Note_on_c,82,75,4,3,1,95.0,False
48753,7023, Note_on_c,68,75,4,3,1,79.0,False
48754,7023, Note_on_c,75,75,4,3,1,87.0,False
48755,7024, Note_on_c,77,75,4,3,1,90.0,True
48756,7024, Note_on_c,82,75,4,3,1,95.0,False
48757,7025, Note_on_c,68,75,4,3,1,79.0,False
48758,7025, Note_on_c,73,75,4,3,1,85.0,False
48759,7026, Note_on_c,70,75,4,3,1,81.0,False
48760,7027, Note_on_c,77,75,4,3,1,90.0,True
48761,7027, Note_on_c,82,75,4,3,1,95.0,False
48762,7028, Note_on_c,68,75,4,3,1,79.0,False
48763,7028, Note_on_c,75,75,4,3,1,87.0,False
48764,7029, Note_on_c,70,75,4,3,1,81.0,False
48765,7030, Note_on_c,77,75,4,3,1,90.0,True
48766,7030, Note_on_c,82,75,4,3,1,95.0,False
48767,7031, Note_on_c,68,75,4,3,1,79.0,False
48768,7031, Note_on_c,75,75,4,3,1,87.0,False
48769,7032, Note_on_c,77,75,4,3,1,90.0,True
48770,7032, Note_on_c,82,75,4,3,1,95.0,False
48771,7033, Note_on_c,68,75,4,3,1,79.0,False
48772,7033, Note_on_c,73,75,4,3,1,85.0,False
48773,7034, Note_on_c,70,75,4,3,1,81.0,False
48774,7035, Note_on_c,77,75,4,3,1,90.0,True
48775,7035, Note_on_c,82,75,4,3,1,95.0,False
48776,7036, Note_on_c,68,75,4,3,1,79.0,False
48777,7036, Note_on_c,75,75,4,3,1,87.0,False
48778,7037, Note_on_c,70,75,4,3,1,81.0,False
48779,7038, Note_on_c,77,75,4,3,1,90.0,True
48780,7038, Note_on_c,82,75,4,3,1,95.0,False
48781,7039, Note_on_c,68,75,4,3,1,79.0,False
48782,7039, Note_on_c,75,75,4,3,1,87.0,False
48783,7040, Note_on_c,77,75,4,3,1,90.0,True
48784,7040, Note_on_c,82,75,4,3,1,95.0,False
48785,7041, Note_on_c,68,75,4,3,1,79.0,False
48786,7041, Note_on_c,73,75,4,3,1,85.0,False
48787,7042, Note_on_c,70,75,4,3,1,81.0,False
48788,7043, Note_on_c,77,75,4,3,1,90.0,True
48789,7043, Note_on_c,82,75,4,3,1,95.0,False
48790,7044, Note_on_c,68,75,4,3,1,79.0,False
48791,7044, Note_on_c,75,75,4,3,1,87.0,False
48792,7045, Note_on_c,70,75,4,3,1,81.0,False
48793,7046, Note_on_c,77,75,4,3,1,90.0,True
48794,7046, Note_on_c,82,75,4,3,1,95.0,False
48795,7047, Note_on_c,68,75,4,3,1,79.0,False
48796,7047, Note_on_c,75,75,4,3,1,87.0,False
48797,7048, Note_on_c,77,75,4,3,1,90.0,True
48798,7048, Note_on_c,82,75,4,3,1,95.0,False
48799,7049, Note_on_c,68,75,4,3,1,79.0,False
48800,7049, Note_on_c,73,75,4,3,1,85.0,False
48801,7050, Note_on_c,70,75,4,3,1,81.0,False
48802,7051, Note_on_c,77,75,4,3,1,90.0,True
48803,7051, Note_on_c,82,75,4,3,1,95.0,False
48804,7052, Note_on_c,68,75,4,3,1,79.0,False
48805,7052, Note_on_c,75,75,4,3,1,87.0,False
48806,7053, Note_on_c,70,75,4,3,1,81.0,False
48807,7054, Note_on_c,77,75,4,3,1,90.0,True
48808,7054, Note_on_c,82,75,4,3,1,95.0,False
48809,7055, Note_on_c,68,75,4,3,1,79.0,False
48810,7055, Note_on_c,75,75,4,3,1,87.0,False
48811,7056, Note_on_c,77,75,4,3,1,90.0,True
48812,7056, Note_on_c,82,75,4,3,1,95.0,False
48813,7057, Note_on_c,68,75,4,3,1,79.0,False
48814,7057, Note_on_c,73,75,4,3,1,85.0,False
48815,7058, Note_on_c,70,75,4,3,1,81.0,False
48816,7059, Note_on_c,77,75,4,3,1,90.0,True
48817,7059, Note_on_c,82,75,4,3,1,95.0,False
48818,7060, Note_on_c,68,75,4,3,1,79.0,False
48819,7060, Note_on_c,75,75,4,3,1,87.0,False
48820,7061, Note_on_c,70,75,4,3,1,81.0,False
48821,7062, Note_on_c,77,75,4,3,1,90.0,True
48822,7062, Note_on_c,82,75,4,3,1,95.0,False
48823,7063, Note_on_c,68,75,4,3,1,79.0,False
48824,7063, Note_on_c,75,75,4,3,1,87.0,False
48825,7064, Note_on_c,77,75,4,3,1,90.0,True
48826,7064, Note_on_c,82,75,4,3,1,95.0,False
48827,7065, Note_on_c,68,75,4,3,1,79.0,False
48828,7065, Note_on_c,73,75,4,3,1,85.0,False
48829,7066, Note_on_c,70,75,4,3,1,81.0,False
48830,7067, Note_on_c,77,75,4,3,1,90.0,True
48831,7067, Note_on_c,82,75,4,3,1,95.0,False
48832,7068, Note_on_c,68,75,4,3,1,79.0,False
48833,7068, Note_on_c,75,75,4,3,1,87.0,False
48834,7069, Note_on_c,70,75,4,3,1,81.0,False
48835,7070, Note_on_c,77,75,4,3,1,90.0,True
48836,7070, Note_on_c,82,75,4,3,1,95.0,False
48837,7071, Note_on_c,68,75,4,3,1,79.0,False
48838,7071, Note_on_c,75,75,4,3,1,87.0,False
48839,7072, Note_on_c,77,75,4,3,1,90.0,True
48840,7072, Note_on_c,82,75,4,3,1,95.0,False
48841,7073, Note_on_c,68,75,4,3,1,79.0,False
48842,7073, Note_on_c,73,75,4,3,1,85.0,False
48843,7074, Note_on_c,70,75,4,3,1,81.0,False
48844,7075, Note_on_c,77,75,4,3,1,90.0,True
48845,7075, Note_on_c,82,75,4,3,1,95.0,False
48846,7076, Note_on_c,68,75,4,3,1,79.0,False
48847,7076, Note_on_c,75,75,4,3,1,87.0,False
48848,7077, Note_on_c,70,75,4,3,1,81.0,False
48849,7078, Note_on_c,77,75,4,3,1,90.0,True
48850,7078, Note_on_c,82,75,4,3,1,95.0,False
48851,7079, Note_on_c,68,75,4,3,1,79.0,False
48852,7079, Note_on_c,75,75,4,3,1,87.0,False
48853,7080, Note_on_c,77,75,4,3,1,90.0,True
48854,7080, Note_on_c,82,75,4,3,1,95.0,False
48855,7081, Note_on_c,68,75,4,3,1,79.0,False
48856,7081, Note_on_c,73,75,4,3,1,85.0,False
48857,7082, Note_on_c,70,75,4,3,1,81.0,False
48858,7083, Note_on_c,77,75,4,3,1,90.0,True
48859,7083, Note_on_c,82,75,4,3,1,95.0,False
48860,7084, Note_on_c,68,75,4,3,1,79.0,False
48861,7084, Note_on_c,75,75,4,3,1,87.0,False
48862,7085, Note_on_c,70,75,4,3,1,81.0,False
48863,7086, Note_on_c,77,75,4,3,1,90.0,True
48864,7086, Note_on_c,82,75,4,3,1,95.0,False
48865,7087, Note_on_c,68,75,4,3,1,79.0,False
48866,7087, Note_on_c,75,75,4,3,1,87.0,False
48867,7088, Note_on_c,77,75,4,3,1,90.0,True
48868,7088, Note_on_c,82,75,4,3,1,95.0,False
48869,7089, Note_on_c,68,75,4,3,1,79.0,False
48870,7089, Note_on_c,73,75,4,3,1,85.0,False
48871,7090, Note_on_c,70,75,4,3,1,81.0,False
48872,7091, Note_on_c,77,75,4,3,1,90.0,True
48873,7091, Note_on_c,82,75,4,3,1,95.0,False
48874,7092, Note_on_c,68,75,4,3,1,79.0,False
48875,7092, Note_on_c,75,75,4,3,1,87.0,False
48876,7093, Note_on_c,70,75,4,3,1,81.0,False
48877,7094, Note_on_c,77,75,4,3,1,90.0,True
48878,7094, Note_on_c,82,75,4,3,1,95.0,False
48879,7095, Note_on_c,68,75,4,3,1,79.0,False
48880,7095, Note_on_c,75,75,4,3,1,87.0,False
48881,7096, Note_on_c,77,75,4,3,1,90.0,True
48882,7096, Note_on_c,82,75,4,3,1,95.0,False
48883,7097, Note_on_c,68,75,4,3,1,79.0,False
48884,7097, Note_on_c,73,75,4,3,1,85.0,False
48885,7098, Note_on_c,70,75,4,3,1,81.0,False
48886,7099, Note_on_c,77,75,4,3,1,90.0,True
48887,7099, Note_on_c,82,75,4,3,1,95.0,False
48888,7100, Note_on_c,68,75,4,3,1,79.0,False
48889,7100, Note_on_c,75,75,4,3,1,87.0,False
48890,7101, Note_on_c,70,75,4,3,1,81.0,False
48891,7102, Note_on_c,77,75,4,3,1,90.0,True
48892,7102, Note_on_c,82,75,4,3,1,95.0,False
48893,7103, Note_on_c,68,75,4,3,1,79.0,False
48894,7103, Note_on_c,75,75,4,3,1,87.0,False
48895,7104, Note_on_c,77,75,4,3,1,90.0,True
48896,7104, Note_on_c,82,75,4,3,1,95.0,False
48897,7105, Note_on_c,68,75,4,3,1,79.0,False
48898,7105, Note_on_c,73,75,4,3,1,85.0,False
48899,7106, Note_on_c,70,75,4,3,1,81.0,False
48900,7107, Note_on_c,77,75,4,3,1,90.0,True
48901,7107, Note_on_c,82,75,4,3,1,95.0,False
48902,7108, Note_on_c,68,75,4,3,1,79.0,False
48903,7108, Note_on_c,75,75,4,3,1,87.0,False
48904,7109, Note_on_c,70,75,4,3,1,81.0,False
48905,7110, Note_on_c,77,75,4,3,1,90.0,True
48906,7110, Note_on_c,82,75,4,3,1,95.0,False
48907,7111, Note_on_c,68,75,4,3,1,79.0,False
48908,7111, Note_on_c,75,75,4,3,1,87.0,False
48909,7112, Note_on_c,77,75,4,3,1,90.0,True
48910,7112, Note_on_c,82,75,4,3,1,95.0,False
48911,7113, Note_on_c,68,75,4,3,1,79.0,False
48912,7113, Note_on_c,73,75,4,3,1,85.0,False
48913,7114, Note_on_c,70,75,4,3,1,81.0,False
48914,7115, Note_on_c,77,75,4,3,1,90.0,True
48915,7115, Note_on_c,82,75,4,3,1,95.0,False
48916,7116, Note_on_c,68,75,4,3,1,79.0,False
48917,7116, Note_on_c,75,75,4,3,1,87.0,False
48918,7117, Note_on_c,70,75,4,3,1,81.0,False
48919,7118, Note_on_c,77,75,4,3,1,90.0,True
48920,7118, Note_on_c,82,75,4,3,1,95.0,False
48921,7119, Note_on_c,68,75,4,3,1,79.0,False
48922,7119, Note_on_c,75,75,4,3,1,87.0,False
48923,7120, Note_on_c,77,75,4,3,1,90.0,True
48924,7120, Note_on_c,82,75,4,3,1,95.0,False
48925,7121, Note_on_c,68,75,4,3,1,79.0,False
48926,7121, Note_on_c,73,75,4,3,1,85.0,False
48927,7122, Note_on_c,70,75,4,3,1,81.0,False
48928,7123, Note_on_c,77,75,4,3,1,90.0,True
48929,7123, Note_on_c,82,75,4,3,1,95.0,False
48930,7124, Note_on_c,68,75,4,3,1,79.0,False
48931,7124, Note_on_c,75,75,4,3,1,87.0,False
48932,7125, Note_on_c,70,75,4,3,1,81.0,False
48933,7126, Note_on_c,77,75,4,3,1,90.0,True
48934,7126, Note_on_c,82,75,4,3,1,95.0,False
48935,7127, Note_on_c,68,75,4,3,1,79.0,False
48936,7127, Note_on_c,75,75,4,3,1,87.0,False
48937,7128, Note_on_c,77,75,4,3,1,90.0,True
48938,7128, Note_on_c,82,75,4,3,1,95.0,False
48939,7129, Note_on_c,68,75,4,3,1,79.0,False
48940,7129, Note_on_c,73,75,4,3,1,85.0,False
48941,7130, Note_on_c,70,75,4,3,1,81.0,False
48942,7131, Note_on_c,77,75,4,3,1,90.0,True
48943,7131, Note_on_c,82,75,4,3,1,95.0,False
48944,7132, Note_on_c,68,75,4,3,1,79.0,False
48945,7132, Note_on_c,75,75,4,3,1,87.0,False
48946,7133, Note_on_c,70,75,4,3,1,81.0,False
48947,7134, Note_on_c,77,75,4,3,1,90.0,True
48948,7134, Note_on_c,82,75,4,3,1,95.0,False
48949,7135, Note_on_c,68,75,4,3,1,79.0,False
48950,7135, Note_on_c,75,75,4,3,1,87.0,False
48951,7136, Note_on_c,77,75,4,3,1,90.0,True
48952,7136, Note_on_c,82,75,4,3,1,95.0,False
48953,7137, Note_on_c,68,75,4,3,1,79.0,False
48954,7137, Note_on_c,73,75,4,3,1,85.0,False
48955,7138, Note_on_c,70,75,4,3,1,81.0,False
48956,7139, Note_on_c,77,75,4,3,1,90.0,True
48957,7139, Note_on_c,82,75,4,3,1,95.0,False
48958,7140, Note_on_c,68,75,4,3,1,79.0,False
48959,7140, Note_on_c,75,75,4,3,1,87.0,False
48960,7141, Note_on_c,70,75,4,3,1,81.0,False
48961,7142, Note_on_c,77,75,4,3,1,90.0,True
48962,7142, Note_on_c,82,75,4,3,1,95.0,False
48963,7143, Note_on_c,68,75,4,3,1,79.0,False
48964,7143, Note_on_c,75,75,4,3,1,87.0,False
48965,7144, Note_on_c,77,75,4,3,1,90.0,True
48966,7144, Note_on_c,82,75,4,3,1,95.0,False
48967,7145, Note_on_c,68,75,4,3,1,79.0,False
48968,7145, Note_on_c,73,75,4,3,1,85.0,False
48969,7146, Note_on_c,70,75,4,3,1,81.0,False
48970,7147, Note_on_c,77,75,4,3,1,90.0,True
48971,7147, Note_on_c,82,75,4,3,1,95.0,False
48972,7148, Note_on_c,68,75,4,3,1,79.0,False
48973,7148, Note_on_c,75,75,4,3,1,87.0,False
48974,7149, Note_on_c,70,75,4,3,1,81.0,False
48975,7150, Note_on_c,77,75,4,3,1,90.0,True
48976,7150, Note_on_c,82,75,4,3,1,95.0,False
48977,7151, Note_on_c,68,75,4,3,1,79.0,False
48978,7151, Note_on_c,75,75,4,3,1,87.0,False
48979,7152, Note_on_c,77,75,4,3,1,90.0,True
48980,7152, Note_on_c,82,75,4,3,1,95.0,False
48981,7153, Note_on_c,68,75,4,3,1,79.0,False
48982,7153, Note_on_c,73,75,4,3,1,85.0,False
48983,7154, Note_on_c,70,75,4,3,1,81.0,False
48984,7155, Note_on_c,77,75,4,3,1,90.0,True
48985,7155, Note_on_c,82,75,4,3,1,95.0,False
48986,7156, Note_on_c,68,75,4,3,1,79.0,False
48987,7156, Note_on_c,75,75,4,3,1,87.0,False
48988,7157, Note_on_c,70,75,4,3,1,81.0,False
48989,7158, Note_on_c,77,75,4,3,1,90.0,True
48990,7158, Note_on_c,82,75,4,3,1,95.0,False
48991,7159, Note_on_c,68,75,4,3,1,79.0,False
48992,7159, Note_on_c,75,75,4,3,1,87.0,False
48993,7160, Note_on_c,77,75,4,3,1,90.0,True
48994,7160, Note_on_c,82,75,4,3,1,95.0,False
48995,7161, Note_on_c,68,75,4,3,1,79.0,False
48996,7161, Note_on_c,73,75,4,3,1,85.0,False
48997,7162, Note_on_c,70,75,4,3,1,81.0,False
48998,7163, Note_on_c,77,75,4,3,1,90.0,True
48999,7163, Note_on_c,82,75,4,3,1,95.0,False
49000,7164, Note_on_c,68,75,4,3,1,79.0,False
49001,7164, Note_on_c,75,75,4,3,1,87.0,False
49002,7165, Note_on_c,70,75,4,3,1,81.0,False
49003,7166, Note_on_c,77,75,4,3,1,90.0,True
49004,7166, Note_on_c,82,75,4,3,1,95.0,False
49005,7167, Note_on_c,68,75,4,3,1,79.0,False
49006,7167, Note_on_c,75,75,4,3,1,87.0,False
49007,7168, Note_on_c,77,75,4,3,1,90.0,True
49008,7168, Note_on_c,82,75,4,3,1,95.0,False
49009,7169, Note_on_c,68,75,4,3,1,79.0,False
49010,7169, Note_on_c,73,75,4,3,1,85.0,False
49011,7170, Note_on_c,70,75,4,3,1,81.0,False
49012,7171, Note_on_c,77,75,4,3,1,90.0,True
49013,7171, Note_on_c,82,75,4,3,1,95.0,False
49014,7172, Note_on_c,68,75,4,3,1,79.0,False
49015,7172, Note_on_c,75,75,4,3,1,87.0,False
49016,7173, Note_on_c,70,75,4,3,1,81.0,False
49017,7174, Note_on_c,77,75,4,3,1,90.0,True
49018,7174, Note_on_c,82,75,4,3,1,95.0,False
49019,7175, Note_on_c,68,75,4,3,1,79.0,False
49020,7175, Note_on_c,75,75,4,3,1,87.0,False
49021,7176, Note_on_c,77,75,4,3,1,90.0,True
49022,7176, Note_on_c,82,75,4,3,1,95.0,False
49023,7177, Note_on_c,68,75,4,3,1,79.0,False
49024,7177, Note_on_c,73,75,4,3,1,85.0,False
49025,7178, Note_on_c,70,75,4,3,1,81.0,False
49026,7179, Note_on_c,77,75,4,3,1,90.0,True
49027,7179, Note_on_c,82,75,4,3,1,95.0,False
49028,7180, Note_on_c,68,75,4,3,1,79.0,False
49029,7180, Note_on_c,75,75,4,3,1,87.0,False
49030,7181, Note_on_c,70,75,4,3,1,81.0,False
49031,7182, Note_on_c,77,75,4,3,1,90.0,True
49032,7182, Note_on_c,82,75,4,3,1,95.0,False
49033,7183, Note_on_c,68,75,4,3,1,79.0,False
49034,7183, Note_on_c,75,75,4,3,1,87.0,False
49035,7184, Note_on_c,77,75,4,3,1,90.0,True
49036,7184, Note_on_c,82,75,4,3,1,95.0,False
49037,7185, Note_on_c,68,75,4,3,1,79.0,False
49038,7185, Note_on_c,73,75,4,3,1,85.0,False
49039,7186, Note_on_c,70,75,4,3,1,81.0,False
49040,7187, Note_on_c,77,75,4,3,1,90.0,True
49041,7187, Note_on_c,82,75,4,3,1,95.0,False
49042,7188, Note_on_c,68,75,4,3,1,79.0,False
49043,7188, Note_on_c,75,75,4,3,1,87.0,False
49044,7189, Note_on_c,70,75,4,3,1,81.0,False
49045,7190, Note_on_c,77,75,4,3,1,90.0,True
49046,7190, Note_on_c,82,75,4,3,1,95.0,False
49047,7191, Note_on_c,68,75,4,3,1,79.0,False
49048,7191, Note_on_c,75,75,4,3,1,87.0,False
49049,7192, Note_on_c,77,75,4,3,1,90.0,True
49050,7192, Note_on_c,82,75,4,3,1,95.0,False
49051,7193, Note_on_c,68,75,4,3,1,79.0,False
49052,7193, Note_on_c,73,75,4,3,1,85.0,False
49053,7194, Note_on_c,70,75,4,3,1,81.0,False
49054,7195, Note_on_c,77,75,4,3,1,90.0,True
49055,7195, Note_on_c,82,75,4,3,1,95.0,False
49056,7196, Note_on_c,68,75,4,3,1,79.0,False
49057,7196, Note_on_c,75,75,4,3,1,87.0,False
49058,7197, Note_on_c,70,75,4,3,1,81.0,False
49059,7198, Note_on_c,77,75,4,3,1,90.0,True
49060,7198, Note_on_c,82,75,4,3,1,95.0,False
49061,7199, Note_on_c,68,75,4,3,1,79.0,False
49062,7199, Note_on_c,75,75,4,3,1,87.0,False
49063,7200, Note_on_c,77,75,4,3,1,90.0,True
49064,7200, Note_on_c,82,75,4,3,1,95.0,False
49065,7201, Note_on_c,68,75,4,3,1,79.0,False
49066,7201, Note_on_c,73,75,4,3,1,85.0,False
49067,7202, Note_on_c,70,75,4,3,1,81.0,False
49068,7203, Note_on_c,77,75,4,3,1,90.0,True
49069,7203, Note_on_c,82,75,4,3,1,95.0,False
49070,7204, Note_on_c,68,75,4,3,1,79.0,False
49071,7204, Note_on_c,75,75,4,3,1,87.0,False
49072,7205, Note_on_c,70,75,4,3,1,81.0,False
49073,7206, Note_on_c,77,75,4,3,1,90.0,True
49074,7206, Note_on_c,82,75,4,3,1,95.0,False
49075,7207, Note_on_c,68,75,4,3,1,79.0,False
49076,7207, Note_on_c,75,75,4,3,1,87.0,False
49077,7208, Note_on_c,77,75,4,3,1,90.0,True
49078,7208, Note_on_c,82,75,4,3,1,95.0,False
49079,7209, Note_on_c,68,75,4,3,1,79.0,False
49080,7209, Note_on_c,73,75,4,3,1,85.0,False
49081,7210, Note_on_c,70,75,4,3,1,81.0,False
49082,7211, Note_on_c,77,75,4,3,1,90.0,True
49083,7211, Note_on_c,82,75,4,3,1,95.0,False
49084,7212, Note_on_c,68,75,4,3,1,79.0,False
49085,7212, Note_on_c,75,75,4,3,1,87.0,False
49086,7213, Note_on_c,70,75,4,3,1,81.0,False
49087,7214, Note_on_c,77,75,4,3,1,90.0,True
49088,7214, Note_on_c,82,75,4,3,1,95.0,False
49089,7215, Note_on_c,68,75,4,3,1,79.0,False
49090,7215, Note_on_c,75,75,4,3,1,87.0,False
49091,7216, Note_on_c,77,75,4,3,1,90.0,True
49092,7216, Note_on_c,82,75,4,3,1,95.0,False
49093,7217, Note_on_c,68,75,4,3,1,79.0,False
49094,7217, Note_on_c,73,75,4,3,1,85.0,False
49095,7218, Note_on_c,70,75,4,3,1,81.0,False
49096,7219, Note_on_c,77,75,4,3,1,90.0,True
49097,7219, Note_on_c,82,75,4,3,1,95.0,False
49098,7220, Note_on_c,68,75,4,3,1,79.0,False
49099,7220, Note_on_c,75,75,4,3,1,87.0,False
49100,7221, Note_on_c,70,75,4,3,1,81.0,False
49101,7222, Note_on_c,77,75,4,3,1,90.0,True
49102,7222, Note_on_c,82,75,4,3,1,95.0,False
49103,7223, Note_on_c,68,75,4,3,1,79.0,False
49104,7223, Note_on_c,75,75,4,3,1,87.0,False
49105,7224, Note_on_c,77,75,4,3,1,90.0,True
49106,7224, Note_on_c,82,75,4,3,1,95.0,False
49107,7225, Note_on_c,68,75,4,3,1,79.0,False
49108,7225, Note_on_c,73,75,4,3,1,85.0,False
49109,7226, Note_on_c,70,75,4,3,1,81.0,False
49110,7227, Note_on_c,77,75,4,3,1,90.0,True
49111,7227, Note_on_c,82,75,4,3,1,95.0,False
49112,7228, Note_on_c,68,75,4,3,1,79.0,False
49113,7228, Note_on_c,75,75,4,3,1,87.0,False
49114,7229, Note_on_c,70,75,4,3,1,81.0,False
49115,7230, Note_on_c,77,75,4,3,1,90.0,True
49116,7230, Note_on_c,82,75,4,3,1,95.0,False
49117,7231, Note_on_c,68,75,4,3,1,79.0,False
49118,7231, Note_on_c,75,75,4,3,1,87.0,False
49119,7232, Note_on_c,77,75,4,3,1,90.0,True
49120,7232, Note_on_c,82,75,4,3,1,95.0,False
49121,7233, Note_on_c,68,75,4,3,1,79.0,False
49122,7233, Note_on_c,73,75,4,3,1,85.0,False
49123,7234, Note_on_c,70,75,4,3,1,81.0,False
49124,7235, Note_on_c,77,75,4,3,1,90.0,True
49125,7235, Note_on_c,82,75,4,3,1,95.0,False
49126,7236, Note_on_c,68,75,4,3,1,79.0,False
49127,7236, Note_on_c,75,75,4,3,1,87.0,False
49128,7237, Note_on_c,70,75,4,3,1,81.0,False
49129,7238, Note_on_c,77,75,4,3,1,90.0,True
49130,7238, Note_on_c,82,75,4,3,1,95.0,False
49131,7239, Note_on_c,68,75,4,3,1,79.0,False
49132,7239, Note_on_c,75,75,4,3,1,87.0,False
49133,7240, Note_on_c,77,75,4,3,1,90.0,True
49134,7240, Note_on_c,82,75,4,3,1,95.0,False
49135,7241, Note_on_c,68,75,4,3,1,79.0,False
49136,7241, Note_on_c,73,75,4,3,1,85.0,False
49137,7242, Note_on_c,70,75,4,3,1,81.0,False
49138,7243, Note_on_c,77,75,4,3,1,90.0,True
49139,7243, Note_on_c,82,75,4,3,1,95.0,False
49140,7244, Note_on_c,68,75,4,3,1,79.0,False
49141,7244, Note_on_c,75,75,4,3,1,87.0,False
49142,7245, Note_on_c,70,75,4,3,1,81.0,False
49143,7246, Note_on_c,77,75,4,3,1,90.0,True
49144,7246, Note_on_c,82,75,4,3,1,95.0,False
49145,7247, Note_on_c,68,75,4,3,1,79.0,False
49146,7247, Note_on_c,75,75,4,3,1,87.0,False
49147,7248, Note_on_c,77,75,4,3,1,90.0,True
49148,7248, Note_on_c,82,75,4,3,1,95.0,False
49149,7249, Note_on_c,68,75,4,3,1,79.0,False
49150,7249, Note_on_c,73,75,4,3,1,85.0,False
49151,7250, Note_on_c,70,75,4,3,1,81.0,False
49152,7251, Note_on_c,77,75,4,3,1,90.0,True
49153,7251, Note_on_c,82,75,4,3,1,95.0,False
49154,7252, Note_on_c,68,75,4,3,1,79.0,False
49155,7252, Note_on_c,75,75,4,3,1,87.0,False
49156,7253, Note_on_c,70,75,4,3,1,81.0,False
49157,7254, Note_on_c,77,75,4,3,1,90.0,True
49158,7254, Note_on_c,82,75,4,3,1,95.0,False
49159,7255, Note_on_c,68,75,4,3,1,79.0,False
49160,7255, Note_on_c,75,75,4,3,1,87.0,False
49161,7256, Note_on_c,77,75,4,3,1,90.0,True
49162,7256, Note_on_c,82,75,4,3,1,95.0,False
49163,7257, Note_on_c,68,75,4,3,1,79.0,False
49164,7257, Note_on_c,73,75,4,3,1,85.0,False
49165,7258, Note_on_c,70,75,4,3,1,81.0,False
49166,7259, Note_on_c,77,75,4,3,1,90.0,True
49167,7259, Note_on_c,82,75,4,3,1,95.0,False
49168,7260, Note_on_c,68,75,4,3,1,79.0,False
49169,7260, Note_on_c,75,75,4,3,1,87.0,False
49170,7261, Note_on_c,70,75,4,3,1,81.0,False
49171,7262, Note_on_c,77,75,4,3,1,90.0,True
49172,7262, Note_on_c,82,75,4,3,1,95.0,False
49173,7263, Note_on_c,68,75,4,3,1,79.0,False
49174,7263, Note_on_c,75,75,4,3,1,87.0,False
49175,7264, Note_on_c,77,75,4,3,1,90.0,True
49176,7264, Note_on_c,82,75,4,3,1,95.0,False
49177,7265, Note_on_c,68,77,4,3,1,79.0,False
49178,7265, Note_on_c,73,77,4,3,1,85.0,False
49179,7266, Note_on_c,70,77,4,3,1,81.0,False
49180,7267, Note_on_c,77,78,4,3,1,90.0,True
49181,7267, Note_on_c,82,78,4,3,1,95.0,False
49182,7268, Note_on_c,68,79,4,3,1,79.0,False
49183,7268, Note_on_c,75,79,4,3,1,87.0,False
49184,7269, Note_on_c,70,79,4,3,1,81.0,False
49185,7270, Note_on_c,77,80,4,3,1,90.0,True
49186,7270, Note_on_c,82,80,4,3,1,95.0,False
49187,7271, Note_on_c,68,80,4,3,1,79.0,False
49188,7271, Note_on_c,75,80,4,3,1,87.0,False
49189,7272, Note_on_c,77,81,4,3,1,90.0,True
49190,7272, Note_on_c,82,81,4,3,1,95.0,False
49191,7273, Note_on_c,68,82,4,3,1,79.0,False
49192,7273, Note_on_c,73,82,4,3,1,85.0,False
49193,7274, Note_on_c,70,82,4,3,1,81.0,False
49194,7275, Note_on_c,77,83,4,3,1,90.0,True
49195,7275, Note_on_c,82,83,4,3,1,95.0,False
49196,7276, Note_on_c,68,84,4,3,1,79.0,False
49197,7276, Note_on_c,75,84,4,3,1,87.0,False
49198,7277, Note_on_c,70,84,4,3,1,81.0,False
49199,7278, Note_on_c,77,85,4,3,1,90.0,True
49200,7278, Note_on_c,82,85,4,3,1,95.0,False
49201,7279, Note_on_c,68,86,4,3,1,79.0,False
49202,7279, Note_on_c,75,86,4,3,1,87.0,False
49203,7280, Note_on_c,77,86,4,3,1,90.0,True
49204,7280, Note_on_c,82,86,4,3,1,95.0,False
49205,7281, Note_on_c,68,87,4,3,1,79.0,False
49206,7281, Note_on_c,73,87,4,3,1,85.0,False
49207,7282, Note_on_c,70,88,4,3,1,81.0,False
49208,7283, Note_on_c,77,88,4,3,1,90.0,True
49209,7283, Note_on_c,82,88,4,3,1,95.0,False
49210,7284, Note_on_c,68,89,4,3,1,79.0,False
49211,7284, Note_on_c,75,89,4,3,1,87.0,False
49212,7285, Note_on_c,70,89,4,3,1,81.0,False
49213,7286, Note_on_c,77,90,4,3,1,90.0,True
49214,7286, Note_on_c,82,90,4,3,1,95.0,False
49215,7287, Note_on_c,68,91,4,3,1,79.0,False
49216,7287, Note_on_c,75,91,4,3,1,87.0,False
49217,7288, Note_on_c,77,91,4,3,1,90.0,True
49218,7288, Note_on_c,82,91,4,3,1,95.0,False
49219,7289, Note_on_c,68,92,4,3,1,79.0,False
49220,7289, Note_on_c,73,92,4,3,1,85.0,False
49221,7290, Note_on_c,70,93,4,3,1,81.0,False
49222,7291, Note_on_c,77,93,4,3,1,90.0,True
49223,7291, Note_on_c,82,93,4,3,1,95.0,False
49224,7292, Note_on_c,68,94,4,3,1,79.0,False
49225,7292, Note_on_c,75,94,4,3,1,87.0,False
49226,7293, Note_on_c,70,95,4,3,1,81.0,False
49227,7294, Note_on_c,77,95,4,3,1,90.0,True
49228,7294, Note_on_c,82,95,4,3,1,95.0,False
49229,7295, Note_on_c,68,96,4,3,1,79.0,False
49230,7295, Note_on_c,75,96,4,3,1,87.0,False
49231,7296, Note_on_c,77,97,4,3,1,90.0,True
49232,7296, Note_on_c,82,97,4,3,1,95.0,False
49233,7297, Note_on_c,68,97,4,3,1,79.0,False
49234,7297, Note_on_c,73,97,4,3,1,85.0,False
49235,7298, Note_on_c,70,98,4,3,1,81.0,False
49236,7299, Note_on_c,77,98,4,3,1,90.0,True
49237,7299, Note_on_c,82,98,4,3,1,95.0,False
49238,7300, Note_on_c,68,99,4,3,1,79.0,False
49239,7300, Note_on_c,75,99,4,3,1,87.0,False
49240,7301, Note_on_c,70,100,4,3,1,81.0,False
49241,7302, Note_on_c,77,100,4,3,1,90.0,True
49242,7302, Note_on_c,82,100,4,3,1,95.0,False
49243,7303, Note_on_c,68,101,4,3,1,79.0,False
49244,7303, Note_on_c,75,101,4,3,1,87.0,False
49245,7304, Note_on_c,77,102,4,3,1,90.0,True
49246,7304, Note_on_c,82,102,4,3,1,95.0,False
49247,7305, Note_on_c,68,102,4,3,1,79.0,False
49248,7305, Note_on_c,73,102,4,3,1,85.0,False
49249,7306, Note_on_c,70,103,4,3,1,81.0,False
49250,7307, Note_on_c,77,104,4,3,1,90.0,True
49251,7307, Note_on_c,82,104,4,3,1,95.0,False
49252,7308, Note_on_c,68,104,4,3,1,79.0,False
49253,7308, Note_on_c,75,104,4,3,1,87.0,False
49254,7309, Note_on_c,70,105,4,3,1,81.0,False
49255,7310, Note_on_c,77,106,4,3,1,90.0,True
49256,7310, Note_on_c,82,106,4,3,1,95.0,False
49257,7311, Note_on_c,68,106,4,3,1,79.0,False
49258,7311, Note_on_c,75,106,4,3,1,87.0,False
49259,7312, Note_on_c,77,107,4,3,1,90.0,True
49260,7312, Note_on_c,82,107,4,3,1,95.0,False
49261,7313, End_track,,,4,3,-1,,False
49262,1, End_of_file,,,4,1,-1,,False
49263,1, Header,1,480,5,1,-1,1.0,False
49264,1, Start_track,,,5,1,-1,,False
49265,1, Channel_prefix,,,5,1,-1,,False
49266,1, Title_t,,,5,1,-1,,False
49267,1, Instrument_name_t,,,5,1,-1,,False
49268,1, Time_signature,2,24,5,1,-1,2.0,True
49269,1, Key_signature,,,5,1,-1,,False
49270,1, SMPTE_offset,0,0,5,1,-1,0.0,True
49271,1, Tempo,,,5,1,-1,,False
49272,71, Note_on_c,60,108,5,1,1,70.0,True
49273,71, Note_on_c,65,108,5,1,1,76.0,True
49274,79, Note_on_c,60,108,5,1,1,70.0,True
49275,79, Note_on_c,65,108,5,1,1,76.0,True
49276,87, Note_on_c,60,108,5,1,1,70.0,True
49277,87, Note_on_c,65,108,5,1,1,76.0,True
49278,95, Note_on_c,60,108,5,1,1,70.0,True
49279,95, Note_on_c,65,108,5,1,1,76.0,True
49280,103, Note_on_c,60,108,5,1,1,70.0,True
49281,103, Note_on_c,65,108,5,1,1,76.0,True
49282,111, Note_on_c,60,108,5,1,1,70.0,True
49283,111, Note_on_c,65,108,5,1,1,76.0,True
49284,119, Note_on_c,60,108,5,1,1,70.0,True
49285,119, Note_on_c,65,108,5,1,1,76.0,True
49286,127, Note_on_c,60,108,5,1,1,70.0,True
49287,127, Note_on_c,65,108,5,1,1,76.0,True
49288,131, Note_on_c,49,108,5,1,1,57.0,False
49289,135, Note_on_c,60,108,5,1,1,70.0,True
49290,135, Note_on_c,65,108,5,1,1,76.0,True
49291,139, Note_on_c,49,108,5,1,1,57.0,False
49292,143, Note_on_c,60,108,5,1,1,70.0,True
49293,143, Note_on_c,65,108,5,1,1,76.0,True
49294,147, Note_on_c,49,108,5,1,1,57.0,False
49295,151, Note_on_c,60,108,5,1,1,70.0,True
49296,151, Note_on_c,65,108,5,1,1,76.0,True
49297,155, Note_on_c,49,108,5,1,1,57.0,False
49298,159, Note_on_c,60,108,5,1,1,70.0,True
49299,159, Note_on_c,65,108,5,1,1,76.0,True
49300,163, Note_on_c,49,108,5,1,1,57.0,False
49301,167, Note_on_c,60,108,5,1,1,70.0,True
49302,167, Note_on_c,65,108,5,1,1,76.0,True
49303,171, Note_on_c,49,108,5,1,1,57.0,False
49304,175, Note_on_c,60,108,5,1,1,70.0,True
49305,175, Note_on_c,65,108,5,1,1,76.0,True
49306,179, Note_on_c,49,108,5,1,1,57.0,False
49307,183, Note_on_c,60,108,5,1,1,70.0,True
49308,183, Note_on_c,65,108,5,1,1,76.0,True
49309,187, Note_on_c,49,108,5,1,1,57.0,False
49310,191, Note_on_c,60,108,5,1,1,70.0,True
49311,191, Note_on_c,65,108,5,1,1,76.0,True
49312,195, Note_on_c,49,108,5,1,1,57.0,False
49313,197, Note_on_c,60,108,5,1,1,70.0,True
49314,197, Note_on_c,63,108,5,1,1,73.0,False
49315,199, Note_on_c,60,108,5,1,1,70.0,True
49316,199, Note_on_c,65,108,5,1,1,76.0,True
49317,203, Note_on_c,49,108,5,1,1,57.0,False
49318,205, Note_on_c,60,108,5,1,1,70.0,True
49319,205, Note_on_c,63,108,5,1,1,73.0,False
49320,207, Note_on_c,60,108,5,1,1,70.0,True
49321,207, Note_on_c,65,108,5,1,1,76.0,True
49322,211, Note_on_c,49,108,5,1,1,57.0,False
49323,213, Note_on_c,60,108,5,1,1,70.0,True
49324,213, Note_on_c,63,108,5,1,1,73.0,False
49325,215, Note_on_c,60,108,5,1,1,70.0,True
49326,215, Note_on_c,65,108,5,1,1,76.0,True
49327,219, Note_on_c,49,108,5,1,1,57.0,False
49328,221, Note_on_c,60,108,5,1,1,70.0,True
49329,221, Note_on_c,63,108,5,1,1,73.0,False
49330,223, Note_on_c,60,108,5,1,1,70.0,True
49331,223, Note_on_c,65,108,5,1,1,76.0,True
49332,227, Note_on_c,49,108,5,1,1,57.0,False
49333,229, Note_on_c,60,108,5,1,1,70.0,True
49334,229, Note_on_c,63,108,5,1,1,73.0,False
49335,231, Note_on_c,60,108,5,1,1,70.0,True
49336,231, Note_on_c,65,108,5,1,1,76.0,True
49337,235, Note_on_c,49,108,5,1,1,57.0,False
49338,237, Note_on_c,60,108,5,1,1,70.0,True
49339,237, Note_on_c,63,108,5,1,1,73.0,False
49340,239, Note_on_c,60,108,5,1,1,70.0,True
49341,239, Note_on_c,65,108,5,1,1,76.0,True
49342,243, Note_on_c,49,108,5,1,1,57.0,False
49343,245, Note_on_c,60,108,5,1,1,70.0,True
49344,245, Note_on_c,63,108,5,1,1,73.0,False
49345,247, Note_on_c,60,108,5,1,1,70.0,True
49346,247, Note_on_c,65,108,5,1,1,76.0,True
49347,251, Note_on_c,49,108,5,1,1,57.0,False
49348,253, Note_on_c,60,108,5,1,1,70.0,True
49349,253, Note_on_c,63,108,5,1,1,73.0,False
49350,255, Note_on_c,60,108,5,1,1,70.0,True
49351,255, Note_on_c,65,108,5,1,1,76.0,True
49352,259, Note_on_c,49,108,5,1,1,57.0,False
49353,260, Note_on_c,56,108,5,1,1,65.0,False
49354,260, Note_on_c,61,108,5,1,1,71.0,False
49355,261, Note_on_c,60,108,5,1,1,70.0,True
49356,261, Note_on_c,63,108,5,1,1,73.0,False
49357,263, Note_on_c,60,108,5,1,1,70.0,True
49358,263, Note_on_c,65,108,5,1,1,76.0,True
49359,267, Note_on_c,49,108,5,1,1,57.0,False
49360,268, Note_on_c,56,108,5,1,1,65.0,False
49361,268, Note_on_c,61,108,5,1,1,71.0,False
49362,269, Note_on_c,60,108,5,1,1,70.0,True
49363,269, Note_on_c,63,108,5,1,1,73.0,False
49364,271, Note_on_c,60,108,5,1,1,70.0,True
49365,271, Note_on_c,65,108,5,1,1,76.0,True
49366,275, Note_on_c,49,108,5,1,1,57.0,False
49367,276, Note_on_c,56,108,5,1,1,65.0,False
49368,276, Note_on_c,61,108,5,1,1,71.0,False
49369,277, Note_on_c,60,108,5,1,1,70.0,True
49370,277, Note_on_c,63,108,5,1,1,73.0,False
49371,279, Note_on_c,60,108,5,1,1,70.0,True
49372,279, Note_on_c,65,108,5,1,1,76.0,True
49373,283, Note_on_c,49,108,5,1,1,57.0,False
49374,284, Note_on_c,56,108,5,1,1,65.0,False
49375,284, Note_on_c,61,108,5,1,1,71.0,False
49376,285, Note_on_c,60,108,5,1,1,70.0,True
49377,285, Note_on_c,63,108,5,1,1,73.0,False
49378,287, Note_on_c,60,108,5,1,1,70.0,True
49379,287, Note_on_c,65,108,5,1,1,76.0,True
49380,291, Note_on_c,49,108,5,1,1,57.0,False
49381,292, Note_on_c,56,108,5,1,1,65.0,False
49382,292, Note_on_c,61,108,5,1,1,71.0,False
49383,293, Note_on_c,60,108,5,1,1,70.0,True
49384,293, Note_on_c,63,108,5,1,1,73.0,False
49385,295, Note_on_c,60,108,5,1,1,70.0,True
49386,295, Note_on_c,65,108,5,1,1,76.0,True
49387,299, Note_on_c,49,108,5,1,1,57.0,False
49388,300, Note_on_c,56,108,5,1,1,65.0,False
49389,300, Note_on_c,61,108,5,1,1,71.0,False
49390,301, Note_on_c,60,108,5,1,1,70.0,True
49391,301, Note_on_c,63,108,5,1,1,73.0,False
49392,303, Note_on_c,60,108,5,1,1,70.0,True
49393,303, Note_on_c,65,108,5,1,1,76.0,True
49394,307, Note_on_c,49,108,5,1,1,57.0,False
49395,308, Note_on_c,56,108,5,1,1,65.0,False
49396,308, Note_on_c,61,108,5,1,1,71.0,False
49397,309, Note_on_c,60,108,5,1,1,70.0,True
49398,309, Note_on_c,63,108,5,1,1,73.0,False
49399,311, Note_on_c,60,108,5,1,1,70.0,True
49400,311, Note_on_c,65,108,5,1,1,76.0,True
49401,315, Note_on_c,49,108,5,1,1,57.0,False
49402,316, Note_on_c,56,108,5,1,1,65.0,False
49403,316, Note_on_c,61,108,5,1,1,71.0,False
49404,317, Note_on_c,60,108,5,1,1,70.0,True
49405,317, Note_on_c,63,108,5,1,1,73.0,False
49406,319, Note_on_c,60,108,5,1,1,70.0,True
49407,319, Note_on_c,65,108,5,1,1,76.0,True
49408,322, Note_on_c,60,108,5,1,1,70.0,True
49409,322, Note_on_c,63,108,5,1,1,73.0,False
49410,323, Note_on_c,49,108,5,1,1,57.0,False
49411,324, Note_on_c,56,108,5,1,1,65.0,False
49412,324, Note_on_c,61,108,5,1,1,71.0,False
49413,325, Note_on_c,60,108,5,1,1,70.0,True
49414,325, Note_on_c,63,108,5,1,1,73.0,False
49415,327, Note_on_c,60,108,5,1,1,70.0,True
49416,327, Note_on_c,65,108,5,1,1,76.0,True
49417,330, Note_on_c,60,108,5,1,1,70.0,True
49418,330, Note_on_c,63,108,5,1,1,73.0,False
49419,331, Note_on_c,49,108,5,1,1,57.0,False
49420,332, Note_on_c,56,108,5,1,1,65.0,False
49421,332, Note_on_c,61,108,5,1,1,71.0,False
49422,333, Note_on_c,60,108,5,1,1,70.0,True
49423,333, Note_on_c,63,108,5,1,1,73.0,False
49424,335, Note_on_c,60,108,5,1,1,70.0,True
49425,335, Note_on_c,65,108,5,1,1,76.0,True
49426,338, Note_on_c,60,108,5,1,1,70.0,True
49427,338, Note_on_c,63,108,5,1,1,73.0,False
49428,339, Note_on_c,49,108,5,1,1,57.0,False
49429,340, Note_on_c,56,108,5,1,1,65.0,False
49430,340, Note_on_c,61,108,5,1,1,71.0,False
49431,341, Note_on_c,60,108,5,1,1,70.0,True
49432,341, Note_on_c,63,108,5,1,1,73.0,False
49433,343, Note_on_c,60,108,5,1,1,70.0,True
49434,343, Note_on_c,65,108,5,1,1,76.0,True
49435,346, Note_on_c,60,108,5,1,1,70.0,True
49436,346, Note_on_c,63,108,5,1,1,73.0,False
49437,347, Note_on_c,49,108,5,1,1,57.0,False
49438,348, Note_on_c,56,108,5,1,1,65.0,False
49439,348, Note_on_c,61,108,5,1,1,71.0,False
49440,349, Note_on_c,60,108,5,1,1,70.0,True
49441,349, Note_on_c,63,108,5,1,1,73.0,False
49442,351, Note_on_c,60,108,5,1,1,70.0,True
49443,351, Note_on_c,65,108,5,1,1,76.0,True
49444,354, Note_on_c,60,108,5,1,1,70.0,True
49445,354, Note_on_c,63,108,5,1,1,73.0,False
49446,355, Note_on_c,49,108,5,1,1,57.0,False
49447,356, Note_on_c,56,108,5,1,1,65.0,False
49448,356, Note_on_c,61,108,5,1,1,71.0,False
49449,357, Note_on_c,60,108,5,1,1,70.0,True
49450,357, Note_on_c,63,108,5,1,1,73.0,False
49451,359, Note_on_c,60,108,5,1,1,70.0,True
49452,359, Note_on_c,65,108,5,1,1,76.0,True
49453,362, Note_on_c,60,108,5,1,1,70.0,True
49454,362, Note_on_c,63,108,5,1,1,73.0,False
49455,363, Note_on_c,49,108,5,1,1,57.0,False
49456,364, Note_on_c,56,108,5,1,1,65.0,False
49457,364, Note_on_c,61,108,5,1,1,71.0,False
49458,365, Note_on_c,60,108,5,1,1,70.0,True
49459,365, Note_on_c,63,108,5,1,1,73.0,False
49460,367, Note_on_c,60,108,5,1,1,70.0,True
49461,367, Note_on_c,65,108,5,1,1,76.0,True
49462,370, Note_on_c,60,108,5,1,1,70.0,True
49463,370, Note_on_c,63,108,5,1,1,73.0,False
49464,371, Note_on_c,49,108,5,1,1,57.0,False
49465,372, Note_on_c,56,108,5,1,1,65.0,False
49466,372, Note_on_c,61,108,5,1,1,71.0,False
49467,373, Note_on_c,60,108,5,1,1,70.0,True
49468,373, Note_on_c,63,108,5,1,1,73.0,False
49469,375, Note_on_c,60,108,5,1,1,70.0,True
49470,375, Note_on_c,65,108,5,1,1,76.0,True
49471,378, Note_on_c,60,108,5,1,1,70.0,True
49472,378, Note_on_c,63,108,5,1,1,73.0,False
49473,379, Note_on_c,49,108,5,1,1,57.0,False
49474,380, Note_on_c,56,108,5,1,1,65.0,False
49475,380, Note_on_c,61,108,5,1,1,71.0,False
49476,381, Note_on_c,60,108,5,1,1,70.0,True
49477,381, Note_on_c,63,108,5,1,1,73.0,False
49478,383, Note_on_c,60,108,5,1,1,70.0,True
49479,383, Note_on_c,65,108,5,1,1,76.0,True
49480,386, Note_on_c,60,108,5,1,1,70.0,True
49481,386, Note_on_c,63,108,5,1,1,73.0,False
49482,387, Note_on_c,49,108,5,1,1,57.0,False
49483,388, Note_on_c,56,108,5,1,1,65.0,False
49484,388, Note_on_c,61,108,5,1,1,71.0,False
49485,389, Note_on_c,60,108,5,1,1,70.0,True
49486,389, Note_on_c,63,108,5,1,1,73.0,False
49487,391, Note_on_c,60,108,5,1,1,70.0,True
49488,391, Note_on_c,65,108,5,1,1,76.0,True
49489,392, Note_on_c,49,108,5,1,1,57.0,False
49490,394, Note_on_c,60,108,5,1,1,70.0,True
49491,394, Note_on_c,63,108,5,1,1,73.0,False
49492,395, Note_on_c,49,108,5,1,1,57.0,False
49493,396, Note_on_c,56,108,5,1,1,65.0,False
49494,396, Note_on_c,61,108,5,1,1,71.0,False
49495,397, Note_on_c,60,108,5,1,1,70.0,True
49496,397, Note_on_c,63,108,5,1,1,73.0,False
49497,399, Note_on_c,60,108,5,1,1,70.0,True
49498,399, Note_on_c,65,108,5,1,1,76.0,True
49499,400, Note_on_c,49,108,5,1,1,57.0,False
49500,402, Note_on_c,60,108,5,1,1,70.0,True
49501,402, Note_on_c,63,108,5,1,1,73.0,False
49502,403, Note_on_c,49,108,5,1,1,57.0,False
49503,404, Note_on_c,56,108,5,1,1,65.0,False
49504,404, Note_on_c,61,108,5,1,1,71.0,False
49505,405, Note_on_c,60,108,5,1,1,70.0,True
49506,405, Note_on_c,63,108,5,1,1,73.0,False
49507,407, Note_on_c,60,108,5,1,1,70.0,True
49508,407, Note_on_c,65,108,5,1,1,76.0,True
49509,408, Note_on_c,49,108,5,1,1,57.0,False
49510,410, Note_on_c,60,108,5,1,1,70.0,True
49511,410, Note_on_c,63,108,5,1,1,73.0,False
49512,411, Note_on_c,49,108,5,1,1,57.0,False
49513,412, Note_on_c,56,108,5,1,1,65.0,False
49514,412, Note_on_c,61,108,5,1,1,71.0,False
49515,413, Note_on_c,60,108,5,1,1,70.0,True
49516,413, Note_on_c,63,108,5,1,1,73.0,False
49517,415, Note_on_c,60,108,5,1,1,70.0,True
49518,415, Note_on_c,65,108,5,1,1,76.0,True
49519,416, Note_on_c,49,108,5,1,1,57.0,False
49520,418, Note_on_c,60,108,5,1,1,70.0,True
49521,418, Note_on_c,63,108,5,1,1,73.0,False
49522,419, Note_on_c,49,108,5,1,1,57.0,False
49523,420, Note_on_c,56,108,5,1,1,65.0,False
49524,420, Note_on_c,61,108,5,1,1,71.0,False
49525,421, Note_on_c,60,108,5,1,1,70.0,True
49526,421, Note_on_c,63,108,5,1,1,73.0,False
49527,423, Note_on_c,60,108,5,1,1,70.0,True
49528,423, Note_on_c,65,108,5,1,1,76.0,True
49529,424, Note_on_c,49,108,5,1,1,57.0,False
49530,426, Note_on_c,60,108,5,1,1,70.0,True
49531,426, Note_on_c,63,108,5,1,1,73.0,False
49532,427, Note_on_c,49,108,5,1,1,57.0,False
49533,428, Note_on_c,56,108,5,1,1,65.0,False
49534,428, Note_on_c,61,108,5,1,1,71.0,False
49535,429, Note_on_c,60,108,5,1,1,70.0,True
49536,429, Note_on_c,63,108,5,1,1,73.0,False
49537,431, Note_on_c,60,108,5,1,1,70.0,True
49538,431, Note_on_c,65,108,5,1,1,76.0,True
49539,432, Note_on_c,49,108,5,1,1,57.0,False
49540,434, Note_on_c,60,108,5,1,1,70.0,True
49541,434, Note_on_c,63,108,5,1,1,73.0,False
49542,435, Note_on_c,49,108,5,1,1,57.0,False
49543,436, Note_on_c,56,108,5,1,1,65.0,False
49544,436, Note_on_c,61,108,5,1,1,71.0,False
49545,437, Note_on_c,60,108,5,1,1,70.0,True
49546,437, Note_on_c,63,108,5,1,1,73.0,False
49547,439, Note_on_c,60,108,5,1,1,70.0,True
49548,439, Note_on_c,65,108,5,1,1,76.0,True
49549,440, Note_on_c,49,108,5,1,1,57.0,False
49550,442, Note_on_c,60,108,5,1,1,70.0,True
49551,442, Note_on_c,63,108,5,1,1,73.0,False
49552,443, Note_on_c,49,108,5,1,1,57.0,False
49553,444, Note_on_c,56,108,5,1,1,65.0,False
49554,444, Note_on_c,61,108,5,1,1,71.0,False
49555,445, Note_on_c,60,108,5,1,1,70.0,True
49556,445, Note_on_c,63,108,5,1,1,73.0,False
49557,447, Note_on_c,60,108,5,1,1,70.0,True
49558,447, Note_on_c,65,108,5,1,1,76.0,True
49559,448, Note_on_c,49,108,5,1,1,57.0,False
49560,450, Note_on_c,60,108,5,1,1,70.0,True
49561,450, Note_on_c,63,108,5,1,1,73.0,False
49562,451, Note_on_c,49,108,5,1,1,57.0,False
49563,452, Note_on_c,56,108,5,1,1,65.0,False
49564,452, Note_on_c,61,108,5,1,1,71.0,False
49565,453, Note_on_c,60,108,5,1,1,70.0,True
49566,453, Note_on_c,63,108,5,1,1,73.0,False
49567,454, Note_on_c,56,108,5,1,1,65.0,False
49568,454, Note_on_c,61,108,5,1,1,71.0,False
49569,455, Note_on_c,60,108,5,1,1,70.0,True
49570,455, Note_on_c,65,108,5,1,1,76.0,True
49571,456, Note_on_c,49,108,5,1,1,57.0,False
49572,458, Note_on_c,60,108,5,1,1,70.0,True
49573,458, Note_on_c,63,108,5,1,1,73.0,False
49574,459, Note_on_c,49,108,5,1,1,57.0,False
49575,460, Note_on_c,56,108,5,1,1,65.0,False
49576,460, Note_on_c,61,108,5,1,1,71.0,False
49577,461, Note_on_c,60,108,5,1,1,70.0,True
49578,461, Note_on_c,63,108,5,1,1,73.0,False
49579,462, Note_on_c,56,108,5,1,1,65.0,False
49580,462, Note_on_c,61,108,5,1,1,71.0,False
49581,463, Note_on_c,60,108,5,1,1,70.0,True
49582,463, Note_on_c,65,108,5,1,1,76.0,True
49583,464, Note_on_c,49,108,5,1,1,57.0,False
49584,466, Note_on_c,60,108,5,1,1,70.0,True
49585,466, Note_on_c,63,108,5,1,1,73.0,False
49586,467, Note_on_c,49,108,5,1,1,57.0,False
49587,468, Note_on_c,56,108,5,1,1,65.0,False
49588,468, Note_on_c,61,108,5,1,1,71.0,False
49589,469, Note_on_c,60,108,5,1,1,70.0,True
49590,469, Note_on_c,63,108,5,1,1,73.0,False
49591,470, Note_on_c,56,108,5,1,1,65.0,False
49592,470, Note_on_c,61,108,5,1,1,71.0,False
49593,471, Note_on_c,60,108,5,1,1,70.0,True
49594,471, Note_on_c,65,108,5,1,1,76.0,True
49595,472, Note_on_c,49,108,5,1,1,57.0,False
49596,474, Note_on_c,60,108,5,1,1,70.0,True
49597,474, Note_on_c,63,108,5,1,1,73.0,False
49598,475, Note_on_c,49,108,5,1,1,57.0,False
49599,476, Note_on_c,56,108,5,1,1,65.0,False
49600,476, Note_on_c,61,108,5,1,1,71.0,False
49601,477, Note_on_c,60,108,5,1,1,70.0,True
49602,477, Note_on_c,63,108,5,1,1,73.0,False
49603,478, Note_on_c,56,108,5,1,1,65.0,False
49604,478, Note_on_c,61,108,5,1,1,71.0,False
49605,479, Note_on_c,60,108,5,1,1,70.0,True
49606,479, Note_on_c,65,108,5,1,1,76.0,True
49607,480, Note_on_c,49,108,5,1,1,57.0,False
49608,482, Note_on_c,60,108,5,1,1,70.0,True
49609,482, Note_on_c,63,108,5,1,1,73.0,False
49610,483, Note_on_c,49,108,5,1,1,57.0,False
49611,484, Note_on_c,56,108,5,1,1,65.0,False
49612,484, Note_on_c,61,108,5,1,1,71.0,False
49613,485, Note_on_c,60,108,5,1,1,70.0,True
49614,485, Note_on_c,63,108,5,1,1,73.0,False
49615,486, Note_on_c,56,108,5,1,1,65.0,False
49616,486, Note_on_c,61,108,5,1,1,71.0,False
49617,487, Note_on_c,60,108,5,1,1,70.0,True
49618,487, Note_on_c,65,108,5,1,1,76.0,True
49619,488, Note_on_c,49,108,5,1,1,57.0,False
49620,490, Note_on_c,60,108,5,1,1,70.0,True
49621,490, Note_on_c,63,108,5,1,1,73.0,False
49622,491, Note_on_c,49,108,5,1,1,57.0,False
49623,492, Note_on_c,56,108,5,1,1,65.0,False
49624,492, Note_on_c,61,108,5,1,1,71.0,False
49625,493, Note_on_c,60,108,5,1,1,70.0,True
49626,493, Note_on_c,63,108,5,1,1,73.0,False
49627,494, Note_on_c,56,108,5,1,1,65.0,False
49628,494, Note_on_c,61,108,5,1,1,71.0,False
49629,495, Note_on_c,60,108,5,1,1,70.0,True
49630,495, Note_on_c,65,108,5,1,1,76.0,True
49631,496, Note_on_c,49,108,5,1,1,57.0,False
49632,498, Note_on_c,60,108,5,1,1,70.0,True
49633,498, Note_on_c,63,108,5,1,1,73.0,False
49634,499, Note_on_c,49,108,5,1,1,57.0,False
49635,500, Note_on_c,56,108,5,1,1,65.0,False
49636,500, Note_on_c,61,108,5,1,1,71.0,False
49637,501, Note_on_c,60,108,5,1,1,70.0,True
49638,501, Note_on_c,63,108,5,1,1,73.0,False
49639,502, Note_on_c,56,108,5,1,1,65.0,False
49640,502, Note_on_c,61,108,5,1,1,71.0,False
49641,503, Note_on_c,60,108,5,1,1,70.0,True
49642,503, Note_on_c,65,108,5,1,1,76.0,True
49643,504, Note_on_c,49,108,5,1,1,57.0,False
49644,506, Note_on_c,60,108,5,1,1,70.0,True
49645,506, Note_on_c,63,108,5,1,1,73.0,False
49646,507, Note_on_c,49,108,5,1,1,57.0,False
49647,508, Note_on_c,56,108,5,1,1,65.0,False
49648,508, Note_on_c,61,108,5,1,1,71.0,False
49649,509, Note_on_c,60,108,5,1,1,70.0,True
49650,509, Note_on_c,63,108,5,1,1,73.0,False
49651,510, Note_on_c,56,108,5,1,1,65.0,False
49652,510, Note_on_c,61,108,5,1,1,71.0,False
49653,511, Note_on_c,60,108,5,1,1,70.0,True
49654,511, Note_on_c,65,108,5,1,1,76.0,True
49655,512, Note_on_c,49,108,5,1,1,57.0,False
49656,513, Note_on_c,56,108,5,1,1,65.0,False
49657,513, Note_on_c,61,108,5,1,1,71.0,False
49658,514, Note_on_c,60,108,5,1,1,70.0,True
49659,514, Note_on_c,63,108,5,1,1,73.0,False
49660,515, Note_on_c,49,108,5,1,1,57.0,False
49661,516, Note_on_c,56,108,5,1,1,65.0,False
49662,516, Note_on_c,61,108,5,1,1,71.0,False
49663,517, Note_on_c,60,108,5,1,1,70.0,True
49664,517, Note_on_c,63,108,5,1,1,73.0,False
49665,518, Note_on_c,56,108,5,1,1,65.0,False
49666,518, Note_on_c,61,108,5,1,1,71.0,False
49667,519, Note_on_c,60,108,5,1,1,70.0,True
49668,519, Note_on_c,65,108,5,1,1,76.0,True
49669,520, Note_on_c,49,108,5,1,1,57.0,False
49670,521, Note_on_c,56,108,5,1,1,65.0,False
49671,521, Note_on_c,61,108,5,1,1,71.0,False
49672,522, Note_on_c,60,108,5,1,1,70.0,True
49673,522, Note_on_c,63,108,5,1,1,73.0,False
49674,523, Note_on_c,49,108,5,1,1,57.0,False
49675,524, Note_on_c,56,108,5,1,1,65.0,False
49676,524, Note_on_c,61,108,5,1,1,71.0,False
49677,525, Note_on_c,60,108,5,1,1,70.0,True
49678,525, Note_on_c,63,108,5,1,1,73.0,False
49679,526, Note_on_c,56,108,5,1,1,65.0,False
49680,526, Note_on_c,61,108,5,1,1,71.0,False
49681,527, Note_on_c,60,108,5,1,1,70.0,True
49682,527, Note_on_c,65,108,5,1,1,76.0,True
49683,528, Note_on_c,49,108,5,1,1,57.0,False
49684,529, Note_on_c,56,108,5,1,1,65.0,False
49685,529, Note_on_c,61,108,5,1,1,71.0,False
49686,530, Note_on_c,60,108,5,1,1,70.0,True
49687,530, Note_on_c,63,108,5,1,1,73.0,False
49688,531, Note_on_c,49,108,5,1,1,57.0,False
49689,532, Note_on_c,56,108,5,1,1,65.0,False
49690,532, Note_on_c,61,108,5,1,1,71.0,False
49691,533, Note_on_c,60,108,5,1,1,70.0,True
49692,533, Note_on_c,63,108,5,1,1,73.0,False
49693,534, Note_on_c,56,108,5,1,1,65.0,False
49694,534, Note_on_c,61,108,5,1,1,71.0,False
49695,535, Note_on_c,60,108,5,1,1,70.0,True
49696,535, Note_on_c,65,108,5,1,1,76.0,True
49697,536, Note_on_c,49,108,5,1,1,57.0,False
49698,537, Note_on_c,56,108,5,1,1,65.0,False
49699,537, Note_on_c,61,108,5,1,1,71.0,False
49700,538, Note_on_c,60,108,5,1,1,70.0,True
49701,538, Note_on_c,63,108,5,1,1,73.0,False
49702,539, Note_on_c,49,108,5,1,1,57.0,False
49703,540, Note_on_c,56,108,5,1,1,65.0,False
49704,540, Note_on_c,61,108,5,1,1,71.0,False
49705,541, Note_on_c,60,108,5,1,1,70.0,True
49706,541, Note_on_c,63,108,5,1,1,73.0,False
49707,542, Note_on_c,56,108,5,1,1,65.0,False
49708,542, Note_on_c,61,108,5,1,1,71.0,False
49709,543, Note_on_c,60,108,5,1,1,70.0,True
49710,543, Note_on_c,65,108,5,1,1,76.0,True
49711,544, Note_on_c,49,108,5,1,1,57.0,False
49712,545, Note_on_c,56,108,5,1,1,65.0,False
49713,545, Note_on_c,61,108,5,1,1,71.0,False
49714,546, Note_on_c,60,108,5,1,1,70.0,True
49715,546, Note_on_c,63,108,5,1,1,73.0,False
49716,547, Note_on_c,49,108,5,1,1,57.0,False
49717,548, Note_on_c,56,108,5,1,1,65.0,False
49718,548, Note_on_c,61,108,5,1,1,71.0,False
49719,549, Note_on_c,60,108,5,1,1,70.0,True
49720,549, Note_on_c,63,108,5,1,1,73.0,False
49721,550, Note_on_c,56,108,5,1,1,65.0,False
49722,550, Note_on_c,61,108,5,1,1,71.0,False
49723,551, Note_on_c,60,108,5,1,1,70.0,True
49724,551, Note_on_c,65,108,5,1,1,76.0,True
49725,552, Note_on_c,49,108,5,1,1,57.0,False
49726,553, Note_on_c,56,108,5,1,1,65.0,False
49727,553, Note_on_c,61,108,5,1,1,71.0,False
49728,554, Note_on_c,60,108,5,1,1,70.0,True
49729,554, Note_on_c,63,108,5,1,1,73.0,False
49730,555, Note_on_c,49,108,5,1,1,57.0,False
49731,556, Note_on_c,56,108,5,1,1,65.0,False
49732,556, Note_on_c,61,108,5,1,1,71.0,False
49733,557, Note_on_c,60,108,5,1,1,70.0,True
49734,557, Note_on_c,63,108,5,1,1,73.0,False
49735,558, Note_on_c,56,108,5,1,1,65.0,False
49736,558, Note_on_c,61,108,5,1,1,71.0,False
49737,559, Note_on_c,60,108,5,1,1,70.0,True
49738,559, Note_on_c,65,108,5,1,1,76.0,True
49739,560, Note_on_c,49,108,5,1,1,57.0,False
49740,561, Note_on_c,56,108,5,1,1,65.0,False
49741,561, Note_on_c,61,108,5,1,1,71.0,False
49742,562, Note_on_c,60,108,5,1,1,70.0,True
49743,562, Note_on_c,63,108,5,1,1,73.0,False
49744,563, Note_on_c,49,108,5,1,1,57.0,False
49745,564, Note_on_c,56,108,5,1,1,65.0,False
49746,564, Note_on_c,61,108,5,1,1,71.0,False
49747,565, Note_on_c,60,108,5,1,1,70.0,True
49748,565, Note_on_c,63,108,5,1,1,73.0,False
49749,566, Note_on_c,56,108,5,1,1,65.0,False
49750,566, Note_on_c,61,108,5,1,1,71.0,False
49751,567, Note_on_c,60,108,5,1,1,70.0,True
49752,567, Note_on_c,65,108,5,1,1,76.0,True
49753,568, Note_on_c,49,108,5,1,1,57.0,False
49754,569, Note_on_c,56,108,5,1,1,65.0,False
49755,569, Note_on_c,61,108,5,1,1,71.0,False
49756,570, Note_on_c,60,108,5,1,1,70.0,True
49757,570, Note_on_c,63,108,5,1,1,73.0,False
49758,571, Note_on_c,49,108,5,1,1,57.0,False
49759,572, Note_on_c,56,108,5,1,1,65.0,False
49760,572, Note_on_c,61,108,5,1,1,71.0,False
49761,573, Note_on_c,60,108,5,1,1,70.0,True
49762,573, Note_on_c,63,108,5,1,1,73.0,False
49763,574, Note_on_c,56,108,5,1,1,65.0,False
49764,574, Note_on_c,61,108,5,1,1,71.0,False
49765,575, Note_on_c,60,108,5,1,1,70.0,True
49766,575, Note_on_c,65,108,5,1,1,76.0,True
49767,576, Note_on_c,49,108,5,1,1,57.0,False
49768,577, Note_on_c,56,108,5,1,1,65.0,False
49769,577, Note_on_c,61,108,5,1,1,71.0,False
49770,578, Note_on_c,60,104,5,1,1,70.0,True
49771,578, Note_on_c,63,104,5,1,1,73.0,False
49772,579, Note_on_c,49,97,5,1,1,57.0,False
49773,580, Note_on_c,56,94,5,1,1,65.0,False
49774,580, Note_on_c,61,94,5,1,1,71.0,False
49775,581, Note_on_c,60,88,5,1,1,70.0,True
49776,581, Note_on_c,63,88,5,1,1,73.0,False
49777,582, Note_on_c,56,83,5,1,1,65.0,False
49778,582, Note_on_c,61,83,5,1,1,71.0,False
49779,583, Note_on_c,60,78,5,1,1,70.0,True
49780,583, Note_on_c,65,78,5,1,1,76.0,True
49781,584, Note_on_c,49,73,5,1,1,57.0,False
49782,585, Note_on_c,56,68,5,1,1,65.0,False
49783,585, Note_on_c,61,68,5,1,1,71.0,False
49784,586, Note_on_c,60,64,5,1,1,70.0,True
49785,586, Note_on_c,63,64,5,1,1,73.0,False
49786,587, Note_on_c,49,61,5,1,1,57.0,False
49787,588, Note_on_c,56,56,5,1,1,65.0,False
49788,588, Note_on_c,61,56,5,1,1,71.0,False
49789,589, Note_on_c,60,53,5,1,1,70.0,True
49790,589, Note_on_c,63,53,5,1,1,73.0,False
49791,590, Note_on_c,56,50,5,1,1,65.0,False
49792,590, Note_on_c,61,50,5,1,1,71.0,False
49793,591, Note_on_c,60,45,5,1,1,70.0,True
49794,591, Note_on_c,65,45,5,1,1,76.0,True
49795,592, Note_on_c,49,43,5,1,1,57.0,False
49796,593, Note_on_c,56,38,5,1,1,65.0,False
49797,593, Note_on_c,61,38,5,1,1,71.0,False
49798,594, Note_on_c,60,35,5,1,1,70.0,True
49799,594, Note_on_c,63,35,5,1,1,73.0,False
49800,595, Note_on_c,49,33,5,1,1,57.0,False
49801,596, Note_on_c,56,30,5,1,1,65.0,False
49802,596, Note_on_c,61,30,5,1,1,71.0,False
49803,597, Note_on_c,60,28,5,1,1,70.0,True
49804,597, Note_on_c,63,28,5,1,1,73.0,False
49805,598, Note_on_c,56,25,5,1,1,65.0,False
49806,598, Note_on_c,61,25,5,1,1,71.0,False
49807,599, Note_on_c,60,23,5,1,1,70.0,True
49808,599, Note_on_c,65,23,5,1,1,76.0,True
49809,600, Note_on_c,49,20,5,1,1,57.0,False
49810,697, Note_on_c,65,2,5,1,1,76.0,True
49811,698, Note_on_c,66,8,5,1,1,77.0,False
49812,699, Note_on_c,65,13,5,1,1,76.0,True
49813,700, Note_on_c,66,17,5,1,1,77.0,False
49814,701, Note_on_c,65,21,5,1,1,76.0,True
49815,702, Note_on_c,65,26,5,1,1,76.0,True
49816,703, Note_on_c,66,30,5,1,1,77.0,False
49817,704, Note_on_c,65,34,5,1,1,76.0,True
49818,705, Note_on_c,65,39,5,1,1,76.0,True
49819,706, Note_on_c,66,43,5,1,1,77.0,False
49820,707, Note_on_c,65,47,5,1,1,76.0,True
49821,708, Note_on_c,66,51,5,1,1,77.0,False
49822,709, Note_on_c,65,56,5,1,1,76.0,True
49823,710, Note_on_c,65,60,5,1,1,76.0,True
49824,711, Note_on_c,66,64,5,1,1,77.0,False
49825,712, Note_on_c,65,69,5,1,1,76.0,True
49826,713, Note_on_c,65,73,5,1,1,76.0,True
49827,714, Note_on_c,66,77,5,1,1,77.0,False
49828,715, Note_on_c,65,82,5,1,1,76.0,True
49829,716, Note_on_c,66,86,5,1,1,77.0,False
49830,717, Note_on_c,65,90,5,1,1,76.0,True
49831,718, Note_on_c,65,95,5,1,1,76.0,True
49832,719, Note_on_c,66,99,5,1,1,77.0,False
49833,720, Note_on_c,65,103,5,1,1,76.0,True
49834,721, Note_on_c,65,108,5,1,1,76.0,True
49835,722, Note_on_c,66,108,5,1,1,77.0,False
49836,723, Note_on_c,65,108,5,1,1,76.0,True
49837,724, Note_on_c,66,108,5,1,1,77.0,False
49838,725, Note_on_c,65,108,5,1,1,76.0,True
49839,726, Note_on_c,65,108,5,1,1,76.0,True
49840,727, Note_on_c,66,108,5,1,1,77.0,False
49841,728, Note_on_c,65,108,5,1,1,76.0,True
49842,729, Note_on_c,65,108,5,1,1,76.0,True
49843,730, Note_on_c,66,108,5,1,1,77.0,False
49844,731, Note_on_c,65,108,5,1,1,76.0,True
49845,732, Note_on_c,66,108,5,1,1,77.0,False
49846,733, Note_on_c,65,108,5,1,1,76.0,True
49847,734, Note_on_c,65,108,5,1,1,76.0,True
49848,735, Note_on_c,66,108,5,1,1,77.0,False
49849,736, Note_on_c,65,108,5,1,1,76.0,True
49850,737, Note_on_c,65,108,5,1,1,76.0,True
49851,738, Note_on_c,66,108,5,1,1,77.0,False
49852,739, Note_on_c,65,108,5,1,1,76.0,True
49853,740, Note_on_c,66,108,5,1,1,77.0,False
49854,741, Note_on_c,65,108,5,1,1,76.0,True
49855,742, Note_on_c,65,108,5,1,1,76.0,True
49856,743, Note_on_c,66,108,5,1,1,77.0,False
49857,744, Note_on_c,65,108,5,1,1,76.0,True
49858,745, Note_on_c,65,108,5,1,1,76.0,True
49859,746, Note_on_c,66,108,5,1,1,77.0,False
49860,747, Note_on_c,65,108,5,1,1,76.0,True
49861,748, Note_on_c,66,108,5,1,1,77.0,False
49862,749, Note_on_c,65,108,5,1,1,76.0,True
49863,750, Note_on_c,65,108,5,1,1,76.0,True
49864,751, Note_on_c,66,108,5,1,1,77.0,False
49865,752, Note_on_c,65,108,5,1,1,76.0,True
49866,753, Note_on_c,65,108,5,1,1,76.0,True
49867,754, Note_on_c,66,108,5,1,1,77.0,False
49868,755, Note_on_c,65,108,5,1,1,76.0,True
49869,756, Note_on_c,66,108,5,1,1,77.0,False
49870,757, Note_on_c,65,108,5,1,1,76.0,True
49871,758, Note_on_c,65,108,5,1,1,76.0,True
49872,759, Note_on_c,66,108,5,1,1,77.0,False
49873,760, Note_on_c,65,108,5,1,1,76.0,True
49874,761, Note_on_c,65,108,5,1,1,76.0,True
49875,762, Note_on_c,66,108,5,1,1,77.0,False
49876,763, Note_on_c,65,108,5,1,1,76.0,True
49877,764, Note_on_c,66,108,5,1,1,77.0,False
49878,765, Note_on_c,65,108,5,1,1,76.0,True
49879,766, Note_on_c,65,108,5,1,1,76.0,True
49880,767, Note_on_c,66,108,5,1,1,77.0,False
49881,768, Note_on_c,65,108,5,1,1,76.0,True
49882,769, Note_on_c,65,108,5,1,1,76.0,True
49883,770, Note_on_c,66,108,5,1,1,77.0,False
49884,771, Note_on_c,65,108,5,1,1,76.0,True
49885,772, Note_on_c,66,108,5,1,1,77.0,False
49886,773, Note_on_c,65,108,5,1,1,76.0,True
49887,774, Note_on_c,65,108,5,1,1,76.0,True
49888,775, Note_on_c,66,108,5,1,1,77.0,False
49889,776, Note_on_c,65,108,5,1,1,76.0,True
49890,777, Note_on_c,65,108,5,1,1,76.0,True
49891,778, Note_on_c,66,108,5,1,1,77.0,False
49892,779, Note_on_c,65,108,5,1,1,76.0,True
49893,780, Note_on_c,66,108,5,1,1,77.0,False
49894,781, Note_on_c,65,108,5,1,1,76.0,True
49895,782, Note_on_c,65,108,5,1,1,76.0,True
49896,783, Note_on_c,66,108,5,1,1,77.0,False
49897,784, Note_on_c,65,108,5,1,1,76.0,True
49898,785, Note_on_c,65,108,5,1,1,76.0,True
49899,786, Note_on_c,66,108,5,1,1,77.0,False
49900,787, Note_on_c,65,108,5,1,1,76.0,True
49901,788, Note_on_c,66,108,5,1,1,77.0,False
49902,789, Note_on_c,65,108,5,1,1,76.0,True
49903,790, Note_on_c,65,108,5,1,1,76.0,True
49904,791, Note_on_c,66,108,5,1,1,77.0,False
49905,792, Note_on_c,65,108,5,1,1,76.0,True
49906,793, Note_on_c,65,108,5,1,1,76.0,True
49907,794, Note_on_c,66,108,5,1,1,77.0,False
49908,795, Note_on_c,65,108,5,1,1,76.0,True
49909,796, Note_on_c,66,108,5,1,1,77.0,False
49910,797, Note_on_c,65,108,5,1,1,76.0,True
49911,798, Note_on_c,65,108,5,1,1,76.0,True
49912,799, Note_on_c,66,108,5,1,1,77.0,False
49913,800, Note_on_c,65,108,5,1,1,76.0,True
49914,801, Note_on_c,65,108,5,1,1,76.0,True
49915,802, Note_on_c,66,108,5,1,1,77.0,False
49916,803, Note_on_c,65,108,5,1,1,76.0,True
49917,804, Note_on_c,66,108,5,1,1,77.0,False
49918,805, Note_on_c,65,108,5,1,1,76.0,True
49919,806, Note_on_c,65,108,5,1,1,76.0,True
49920,807, Note_on_c,66,108,5,1,1,77.0,False
49921,808, Note_on_c,65,108,5,1,1,76.0,True
49922,809, Note_on_c,65,108,5,1,1,76.0,True
49923,810, Note_on_c,66,108,5,1,1,77.0,False
49924,811, Note_on_c,65,108,5,1,1,76.0,True
49925,812, Note_on_c,66,108,5,1,1,77.0,False
49926,813, Note_on_c,65,108,5,1,1,76.0,True
49927,814, Note_on_c,65,108,5,1,1,76.0,True
49928,815, Note_on_c,66,108,5,1,1,77.0,False
49929,816, Note_on_c,65,108,5,1,1,76.0,True
49930,817, Note_on_c,65,108,5,1,1,76.0,True
49931,818, Note_on_c,66,108,5,1,1,77.0,False
49932,819, Note_on_c,65,108,5,1,1,76.0,True
49933,820, Note_on_c,66,108,5,1,1,77.0,False
49934,821, Note_on_c,65,108,5,1,1,76.0,True
49935,822, Note_on_c,65,108,5,1,1,76.0,True
49936,823, Note_on_c,66,108,5,1,1,77.0,False
49937,824, Note_on_c,65,108,5,1,1,76.0,True
49938,825, Note_on_c,65,108,5,1,1,76.0,True
49939,826, Note_on_c,66,108,5,1,1,77.0,False
49940,827, Note_on_c,65,108,5,1,1,76.0,True
49941,828, Note_on_c,66,108,5,1,1,77.0,False
49942,829, Note_on_c,65,108,5,1,1,76.0,True
49943,830, Note_on_c,65,108,5,1,1,76.0,True
49944,831, Note_on_c,66,108,5,1,1,77.0,False
49945,832, Note_on_c,65,108,5,1,1,76.0,True
49946,833, Note_on_c,65,108,5,1,1,76.0,True
49947,834, Note_on_c,66,108,5,1,1,77.0,False
49948,835, Note_on_c,65,108,5,1,1,76.0,True
49949,836, Note_on_c,66,108,5,1,1,77.0,False
49950,837, Note_on_c,65,108,5,1,1,76.0,True
49951,838, Note_on_c,65,108,5,1,1,76.0,True
49952,839, Note_on_c,66,108,5,1,1,77.0,False
49953,840, Note_on_c,65,108,5,1,1,76.0,True
49954,841, Note_on_c,65,108,5,1,1,76.0,True
49955,842, Note_on_c,66,108,5,1,1,77.0,False
49956,843, Note_on_c,65,108,5,1,1,76.0,True
49957,844, Note_on_c,66,108,5,1,1,77.0,False
49958,845, Note_on_c,65,108,5,1,1,76.0,True
49959,846, Note_on_c,65,108,5,1,1,76.0,True
49960,847, Note_on_c,66,108,5,1,1,77.0,False
49961,848, Note_on_c,65,108,5,1,1,76.0,True
49962,849, Note_on_c,65,108,5,1,1,76.0,True
49963,850, Note_on_c,66,108,5,1,1,77.0,False
49964,851, Note_on_c,65,108,5,1,1,76.0,True
49965,852, Note_on_c,66,108,5,1,1,77.0,False
49966,853, Note_on_c,65,108,5,1,1,76.0,True
49967,854, Note_on_c,65,108,5,1,1,76.0,True
49968,855, Note_on_c,66,108,5,1,1,77.0,False
49969,856, Note_on_c,65,108,5,1,1,76.0,True
49970,857, Note_on_c,65,108,5,1,1,76.0,True
49971,858, Note_on_c,66,108,5,1,1,77.0,False
49972,859, Note_on_c,65,108,5,1,1,76.0,True
49973,860, Note_on_c,66,108,5,1,1,77.0,False
49974,861, Note_on_c,65,108,5,1,1,76.0,True
49975,862, Note_on_c,65,108,5,1,1,76.0,True
49976,863, Note_on_c,66,108,5,1,1,77.0,False
49977,864, Note_on_c,65,108,5,1,1,76.0,True
49978,865, Note_on_c,65,108,5,1,1,76.0,True
49979,866, Note_on_c,66,108,5,1,1,77.0,False
49980,867, Note_on_c,65,108,5,1,1,76.0,True
49981,868, Note_on_c,66,108,5,1,1,77.0,False
49982,869, Note_on_c,65,108,5,1,1,76.0,True
49983,870, Note_on_c,65,108,5,1,1,76.0,True
49984,871, Note_on_c,66,108,5,1,1,77.0,False
49985,872, Note_on_c,65,108,5,1,1,76.0,True
49986,873, Note_on_c,65,108,5,1,1,76.0,True
49987,874, Note_on_c,66,108,5,1,1,77.0,False
49988,875, Note_on_c,65,108,5,1,1,76.0,True
49989,876, Note_on_c,66,108,5,1,1,77.0,False
49990,877, Note_on_c,65,108,5,1,1,76.0,True
49991,878, Note_on_c,65,108,5,1,1,76.0,True
49992,879, Note_on_c,66,108,5,1,1,77.0,False
49993,880, Note_on_c,65,108,5,1,1,76.0,True
49994,881, Note_on_c,65,108,5,1,1,76.0,True
49995,882, Note_on_c,66,108,5,1,1,77.0,False
49996,883, Note_on_c,65,108,5,1,1,76.0,True
49997,884, Note_on_c,66,108,5,1,1,77.0,False
49998,885, Note_on_c,65,108,5,1,1,76.0,True
49999,886, Note_on_c,65,108,5,1,1,76.0,True
50000,887, Note_on_c,66,108,5,1,1,77.0,False
50001,888, Note_on_c,65,108,5,1,1,76.0,True
50002,889, Note_on_c,65,108,5,1,1,76.0,True
50003,890, Note_on_c,66,108,5,1,1,77.0,False
50004,891, Note_on_c,65,108,5,1,1,76.0,True
50005,892, Note_on_c,66,108,5,1,1,77.0,False
50006,893, Note_on_c,65,108,5,1,1,76.0,True
50007,894, Note_on_c,65,108,5,1,1,76.0,True
50008,895, Note_on_c,66,108,5,1,1,77.0,False
50009,896, Note_on_c,65,108,5,1,1,76.0,True
50010,897, Note_on_c,65,108,5,1,1,76.0,True
50011,898, Note_on_c,66,108,5,1,1,77.0,False
50012,899, Note_on_c,65,108,5,1,1,76.0,True
50013,900, Note_on_c,66,108,5,1,1,77.0,False
50014,901, Note_on_c,65,108,5,1,1,76.0,True
50015,902, Note_on_c,65,108,5,1,1,76.0,True
50016,903, Note_on_c,66,108,5,1,1,77.0,False
50017,904, Note_on_c,65,108,5,1,1,76.0,True
50018,905, Note_on_c,65,108,5,1,1,76.0,True
50019,906, Note_on_c,66,108,5,1,1,77.0,False
50020,907, Note_on_c,65,108,5,1,1,76.0,True
50021,908, Note_on_c,66,108,5,1,1,77.0,False
50022,909, Note_on_c,65,108,5,1,1,76.0,True
50023,910, Note_on_c,65,108,5,1,1,76.0,True
50024,911, Note_on_c,66,108,5,1,1,77.0,False
50025,912, Note_on_c,65,108,5,1,1,76.0,True
50026,913, Note_on_c,65,108,5,1,1,76.0,True
50027,914, Note_on_c,66,108,5,1,1,77.0,False
50028,915, Note_on_c,65,108,5,1,1,76.0,True
50029,916, Note_on_c,66,108,5,1,1,77.0,False
50030,917, Note_on_c,65,108,5,1,1,76.0,True
50031,918, Note_on_c,65,108,5,1,1,76.0,True
50032,919, Note_on_c,66,108,5,1,1,77.0,False
50033,920, Note_on_c,65,108,5,1,1,76.0,True
50034,921, Note_on_c,65,108,5,1,1,76.0,True
50035,922, Note_on_c,66,108,5,1,1,77.0,False
50036,923, Note_on_c,65,108,5,1,1,76.0,True
50037,924, Note_on_c,66,108,5,1,1,77.0,False
50038,925, Note_on_c,65,108,5,1,1,76.0,True
50039,926, Note_on_c,65,108,5,1,1,76.0,True
50040,927, Note_on_c,66,108,5,1,1,77.0,False
50041,928, Note_on_c,65,108,5,1,1,76.0,True
50042,929, Note_on_c,65,108,5,1,1,76.0,True
50043,930, Note_on_c,66,108,5,1,1,77.0,False
50044,931, Note_on_c,65,108,5,1,1,76.0,True
50045,932, Note_on_c,66,108,5,1,1,77.0,False
50046,933, Note_on_c,65,108,5,1,1,76.0,True
50047,934, Note_on_c,65,108,5,1,1,76.0,True
50048,935, Note_on_c,66,108,5,1,1,77.0,False
50049,936, Note_on_c,65,108,5,1,1,76.0,True
50050,937, Note_on_c,65,108,5,1,1,76.0,True
50051,938, Note_on_c,66,104,5,1,1,77.0,False
50052,939, Note_on_c,65,99,5,1,1,76.0,True
50053,940, Note_on_c,66,95,5,1,1,77.0,False
50054,941, Note_on_c,65,90,5,1,1,76.0,True
50055,942, Note_on_c,65,86,5,1,1,76.0,True
50056,943, Note_on_c,66,81,5,1,1,77.0,False
50057,944, Note_on_c,65,77,5,1,1,76.0,True
50058,945, Note_on_c,65,72,5,1,1,76.0,True
50059,946, Note_on_c,66,67,5,1,1,77.0,False
50060,947, Note_on_c,65,63,5,1,1,76.0,True
50061,948, Note_on_c,66,58,5,1,1,77.0,False
50062,949, Note_on_c,65,54,5,1,1,76.0,True
50063,950, Note_on_c,65,49,5,1,1,76.0,True
50064,951, Note_on_c,66,45,5,1,1,77.0,False
50065,952, Note_on_c,65,40,5,1,1,76.0,True
50066,953, Note_on_c,65,36,5,1,1,76.0,True
50067,954, Note_on_c,66,31,5,1,1,77.0,False
50068,955, Note_on_c,65,27,5,1,1,76.0,True
50069,956, Note_on_c,66,22,5,1,1,77.0,False
50070,957, Note_on_c,65,17,5,1,1,76.0,True
50071,958, Note_on_c,65,13,5,1,1,76.0,True
50072,959, Note_on_c,66,8,5,1,1,77.0,False
50073,960, Note_on_c,65,4,5,1,1,76.0,True
50074,1001, Note_on_c,65,3,5,1,1,76.0,True
50075,1002, Note_on_c,73,8,5,1,1,85.0,False
50076,1003, Note_on_c,72,10,5,1,1,84.0,True
50077,1004, Note_on_c,73,12,5,1,1,85.0,False
50078,1005, Note_on_c,72,14,5,1,1,84.0,True
50079,1006, Note_on_c,65,16,5,1,1,76.0,True
50080,1007, Note_on_c,73,18,5,1,1,85.0,False
50081,1008, Note_on_c,72,20,5,1,1,84.0,True
50082,1010, Note_on_c,73,25,5,1,1,85.0,False
50083,1011, Note_on_c,72,27,5,1,1,84.0,True
50084,1012, Note_on_c,73,29,5,1,1,85.0,False
50085,1013, Note_on_c,72,31,5,1,1,84.0,True
50086,1014, Note_on_c,65,33,5,1,1,76.0,True
50087,1015, Note_on_c,73,36,5,1,1,85.0,False
50088,1016, Note_on_c,72,38,5,1,1,84.0,True
50089,1017, Note_on_c,65,40,5,1,1,76.0,True
50090,1018, Note_on_c,73,42,5,1,1,85.0,False
50091,1019, Note_on_c,72,44,5,1,1,84.0,True
50092,1020, Note_on_c,73,46,5,1,1,85.0,False
50093,1021, Note_on_c,72,48,5,1,1,84.0,True
50094,1022, Note_on_c,65,51,5,1,1,76.0,True
50095,1023, Note_on_c,73,53,5,1,1,85.0,False
50096,1024, Note_on_c,72,55,5,1,1,84.0,True
50097,1026, Note_on_c,73,59,5,1,1,85.0,False
50098,1027, Note_on_c,72,61,5,1,1,84.0,True
50099,1028, Note_on_c,73,63,5,1,1,85.0,False
50100,1029, Note_on_c,72,66,5,1,1,84.0,True
50101,1030, Note_on_c,65,68,5,1,1,76.0,True
50102,1031, Note_on_c,73,70,5,1,1,85.0,False
50103,1032, Note_on_c,72,72,5,1,1,84.0,True
50104,1033, Note_on_c,65,74,5,1,1,76.0,True
50105,1034, Note_on_c,73,76,5,1,1,85.0,False
50106,1035, Note_on_c,72,78,5,1,1,84.0,True
50107,1036, Note_on_c,73,81,5,1,1,85.0,False
50108,1037, Note_on_c,72,83,5,1,1,84.0,True
50109,1038, Note_on_c,65,85,5,1,1,76.0,True
50110,1039, Note_on_c,73,87,5,1,1,85.0,False
50111,1040, Note_on_c,72,89,5,1,1,84.0,True
50112,1042, Note_on_c,73,93,5,1,1,85.0,False
50113,1043, Note_on_c,72,96,5,1,1,84.0,True
50114,1044, Note_on_c,73,98,5,1,1,85.0,False
50115,1045, Note_on_c,72,100,5,1,1,84.0,True
50116,1046, Note_on_c,65,102,5,1,1,76.0,True
50117,1047, Note_on_c,73,104,5,1,1,85.0,False
50118,1048, Note_on_c,72,106,5,1,1,84.0,True
50119,1049, Note_on_c,65,108,5,1,1,76.0,True
50120,1050, Note_on_c,73,108,5,1,1,85.0,False
50121,1051, Note_on_c,72,108,5,1,1,84.0,True
50122,1052, Note_on_c,73,108,5,1,1,85.0,False
50123,1053, Note_on_c,72,108,5,1,1,84.0,True
50124,1054, Note_on_c,65,108,5,1,1,76.0,True
50125,1055, Note_on_c,73,108,5,1,1,85.0,False
50126,1056, Note_on_c,72,108,5,1,1,84.0,True
50127,1058, Note_on_c,73,108,5,1,1,85.0,False
50128,1059, Note_on_c,72,108,5,1,1,84.0,True
50129,1060, Note_on_c,73,108,5,1,1,85.0,False
50130,1061, Note_on_c,72,108,5,1,1,84.0,True
50131,1062, Note_on_c,65,108,5,1,1,76.0,True
50132,1063, Note_on_c,73,108,5,1,1,85.0,False
50133,1064, Note_on_c,72,108,5,1,1,84.0,True
50134,1065, Note_on_c,65,108,5,1,1,76.0,True
50135,1066, Note_on_c,73,108,5,1,1,85.0,False
50136,1067, Note_on_c,72,108,5,1,1,84.0,True
50137,1068, Note_on_c,73,108,5,1,1,85.0,False
50138,1069, Note_on_c,72,108,5,1,1,84.0,True
50139,1070, Note_on_c,65,108,5,1,1,76.0,True
50140,1071, Note_on_c,73,108,5,1,1,85.0,False
50141,1072, Note_on_c,72,108,5,1,1,84.0,True
50142,1074, Note_on_c,73,108,5,1,1,85.0,False
50143,1075, Note_on_c,72,108,5,1,1,84.0,True
50144,1076, Note_on_c,73,108,5,1,1,85.0,False
50145,1077, Note_on_c,72,108,5,1,1,84.0,True
50146,1078, Note_on_c,65,108,5,1,1,76.0,True
50147,1079, Note_on_c,73,108,5,1,1,85.0,False
50148,1080, Note_on_c,72,108,5,1,1,84.0,True
50149,1081, Note_on_c,65,108,5,1,1,76.0,True
50150,1082, Note_on_c,73,108,5,1,1,85.0,False
50151,1083, Note_on_c,72,108,5,1,1,84.0,True
50152,1084, Note_on_c,73,108,5,1,1,85.0,False
50153,1085, Note_on_c,72,108,5,1,1,84.0,True
50154,1086, Note_on_c,65,108,5,1,1,76.0,True
50155,1087, Note_on_c,73,108,5,1,1,85.0,False
50156,1088, Note_on_c,72,108,5,1,1,84.0,True
50157,1090, Note_on_c,73,108,5,1,1,85.0,False
50158,1091, Note_on_c,72,108,5,1,1,84.0,True
50159,1092, Note_on_c,73,108,5,1,1,85.0,False
50160,1093, Note_on_c,72,108,5,1,1,84.0,True
50161,1094, Note_on_c,65,108,5,1,1,76.0,True
50162,1095, Note_on_c,73,108,5,1,1,85.0,False
50163,1096, Note_on_c,72,108,5,1,1,84.0,True
50164,1097, Note_on_c,65,108,5,1,1,76.0,True
50165,1098, Note_on_c,73,108,5,1,1,85.0,False
50166,1099, Note_on_c,72,108,5,1,1,84.0,True
50167,1100, Note_on_c,73,108,5,1,1,85.0,False
50168,1101, Note_on_c,72,108,5,1,1,84.0,True
50169,1102, Note_on_c,65,108,5,1,1,76.0,True
50170,1103, Note_on_c,73,108,5,1,1,85.0,False
50171,1104, Note_on_c,72,108,5,1,1,84.0,True
50172,1106, Note_on_c,73,108,5,1,1,85.0,False
50173,1107, Note_on_c,72,108,5,1,1,84.0,True
50174,1108, Note_on_c,73,108,5,1,1,85.0,False
50175,1109, Note_on_c,72,108,5,1,1,84.0,True
50176,1110, Note_on_c,65,108,5,1,1,76.0,True
50177,1111, Note_on_c,73,108,5,1,1,85.0,False
50178,1112, Note_on_c,72,108,5,1,1,84.0,True
50179,1113, Note_on_c,65,108,5,1,1,76.0,True
50180,1114, Note_on_c,73,108,5,1,1,85.0,False
50181,1115, Note_on_c,72,108,5,1,1,84.0,True
50182,1116, Note_on_c,73,108,5,1,1,85.0,False
50183,1117, Note_on_c,72,108,5,1,1,84.0,True
50184,1118, Note_on_c,65,108,5,1,1,76.0,True
50185,1119, Note_on_c,73,108,5,1,1,85.0,False
50186,1120, Note_on_c,72,108,5,1,1,84.0,True
50187,1122, Note_on_c,73,108,5,1,1,85.0,False
50188,1123, Note_on_c,72,108,5,1,1,84.0,True
50189,1124, Note_on_c,73,108,5,1,1,85.0,False
50190,1125, Note_on_c,72,108,5,1,1,84.0,True
50191,1126, Note_on_c,65,108,5,1,1,76.0,True
50192,1127, Note_on_c,73,108,5,1,1,85.0,False
50193,1128, Note_on_c,72,108,5,1,1,84.0,True
50194,1129, Note_on_c,65,108,5,1,1,76.0,True
50195,1130, Note_on_c,73,108,5,1,1,85.0,False
50196,1131, Note_on_c,72,108,5,1,1,84.0,True
50197,1132, Note_on_c,73,108,5,1,1,85.0,False
50198,1133, Note_on_c,72,108,5,1,1,84.0,True
50199,1134, Note_on_c,65,108,5,1,1,76.0,True
50200,1135, Note_on_c,73,108,5,1,1,85.0,False
50201,1136, Note_on_c,72,108,5,1,1,84.0,True
50202,1138, Note_on_c,73,108,5,1,1,85.0,False
50203,1139, Note_on_c,72,108,5,1,1,84.0,True
50204,1140, Note_on_c,73,108,5,1,1,85.0,False
50205,1141, Note_on_c,72,108,5,1,1,84.0,True
50206,1142, Note_on_c,65,108,5,1,1,76.0,True
50207,1143, Note_on_c,73,108,5,1,1,85.0,False
50208,1144, Note_on_c,72,108,5,1,1,84.0,True
50209,1145, Note_on_c,65,108,5,1,1,76.0,True
50210,1146, Note_on_c,73,108,5,1,1,85.0,False
50211,1147, Note_on_c,72,108,5,1,1,84.0,True
50212,1148, Note_on_c,73,108,5,1,1,85.0,False
50213,1149, Note_on_c,72,108,5,1,1,84.0,True
50214,1150, Note_on_c,65,108,5,1,1,76.0,True
50215,1151, Note_on_c,73,108,5,1,1,85.0,False
50216,1152, Note_on_c,72,108,5,1,1,84.0,True
50217,1154, Note_on_c,73,108,5,1,1,85.0,False
50218,1155, Note_on_c,72,108,5,1,1,84.0,True
50219,1156, Note_on_c,73,108,5,1,1,85.0,False
50220,1157, Note_on_c,72,108,5,1,1,84.0,True
50221,1158, Note_on_c,65,108,5,1,1,76.0,True
50222,1159, Note_on_c,73,108,5,1,1,85.0,False
50223,1160, Note_on_c,72,108,5,1,1,84.0,True
50224,1161, Note_on_c,65,108,5,1,1,76.0,True
50225,1162, Note_on_c,73,108,5,1,1,85.0,False
50226,1163, Note_on_c,72,108,5,1,1,84.0,True
50227,1164, Note_on_c,73,108,5,1,1,85.0,False
50228,1165, Note_on_c,72,108,5,1,1,84.0,True
50229,1166, Note_on_c,65,108,5,1,1,76.0,True
50230,1167, Note_on_c,73,108,5,1,1,85.0,False
50231,1168, Note_on_c,72,108,5,1,1,84.0,True
50232,1170, Note_on_c,73,108,5,1,1,85.0,False
50233,1171, Note_on_c,72,108,5,1,1,84.0,True
50234,1172, Note_on_c,73,108,5,1,1,85.0,False
50235,1173, Note_on_c,72,108,5,1,1,84.0,True
50236,1174, Note_on_c,65,108,5,1,1,76.0,True
50237,1175, Note_on_c,73,108,5,1,1,85.0,False
50238,1176, Note_on_c,72,108,5,1,1,84.0,True
50239,1177, Note_on_c,65,108,5,1,1,76.0,True
50240,1178, Note_on_c,73,108,5,1,1,85.0,False
50241,1179, Note_on_c,72,108,5,1,1,84.0,True
50242,1180, Note_on_c,73,108,5,1,1,85.0,False
50243,1181, Note_on_c,72,108,5,1,1,84.0,True
50244,1182, Note_on_c,65,108,5,1,1,76.0,True
50245,1183, Note_on_c,73,108,5,1,1,85.0,False
50246,1184, Note_on_c,72,108,5,1,1,84.0,True
50247,1186, Note_on_c,73,108,5,1,1,85.0,False
50248,1187, Note_on_c,72,108,5,1,1,84.0,True
50249,1188, Note_on_c,73,108,5,1,1,85.0,False
50250,1189, Note_on_c,72,108,5,1,1,84.0,True
50251,1190, Note_on_c,65,108,5,1,1,76.0,True
50252,1191, Note_on_c,73,108,5,1,1,85.0,False
50253,1192, Note_on_c,72,108,5,1,1,84.0,True
50254,1193, Note_on_c,65,108,5,1,1,76.0,True
50255,1194, Note_on_c,73,108,5,1,1,85.0,False
50256,1195, Note_on_c,72,108,5,1,1,84.0,True
50257,1196, Note_on_c,73,108,5,1,1,85.0,False
50258,1197, Note_on_c,72,108,5,1,1,84.0,True
50259,1198, Note_on_c,65,108,5,1,1,76.0,True
50260,1199, Note_on_c,73,108,5,1,1,85.0,False
50261,1200, Note_on_c,72,108,5,1,1,84.0,True
50262,1202, Note_on_c,73,108,5,1,1,85.0,False
50263,1203, Note_on_c,72,108,5,1,1,84.0,True
50264,1204, Note_on_c,73,108,5,1,1,85.0,False
50265,1205, Note_on_c,72,108,5,1,1,84.0,True
50266,1206, Note_on_c,65,108,5,1,1,76.0,True
50267,1207, Note_on_c,73,108,5,1,1,85.0,False
50268,1208, Note_on_c,72,108,5,1,1,84.0,True
50269,1209, Note_on_c,65,107,5,1,1,76.0,True
50270,1210, Note_on_c,73,105,5,1,1,85.0,False
50271,1211, Note_on_c,72,103,5,1,1,84.0,True
50272,1212, Note_on_c,73,100,5,1,1,85.0,False
50273,1213, Note_on_c,72,98,5,1,1,84.0,True
50274,1214, Note_on_c,65,96,5,1,1,76.0,True
50275,1215, Note_on_c,73,94,5,1,1,85.0,False
50276,1216, Note_on_c,72,92,5,1,1,84.0,True
50277,1218, Note_on_c,73,87,5,1,1,85.0,False
50278,1219, Note_on_c,72,85,5,1,1,84.0,True
50279,1220, Note_on_c,73,83,5,1,1,85.0,False
50280,1221, Note_on_c,72,80,5,1,1,84.0,True
50281,1222, Note_on_c,65,78,5,1,1,76.0,True
50282,1223, Note_on_c,73,76,5,1,1,85.0,False
50283,1224, Note_on_c,72,74,5,1,1,84.0,True
50284,1225, Note_on_c,65,72,5,1,1,76.0,True
50285,1226, Note_on_c,73,69,5,1,1,85.0,False
50286,1227, Note_on_c,72,67,5,1,1,84.0,True
50287,1228, Note_on_c,73,65,5,1,1,85.0,False
50288,1229, Note_on_c,72,63,5,1,1,84.0,True
50289,1230, Note_on_c,65,60,5,1,1,76.0,True
50290,1231, Note_on_c,73,58,5,1,1,85.0,False
50291,1232, Note_on_c,72,56,5,1,1,84.0,True
50292,1234, Note_on_c,73,52,5,1,1,85.0,False
50293,1235, Note_on_c,72,49,5,1,1,84.0,True
50294,1236, Note_on_c,73,47,5,1,1,85.0,False
50295,1237, Note_on_c,72,45,5,1,1,84.0,True
50296,1238, Note_on_c,65,43,5,1,1,76.0,True
50297,1239, Note_on_c,73,40,5,1,1,85.0,False
50298,1240, Note_on_c,72,38,5,1,1,84.0,True
50299,1241, Note_on_c,65,36,5,1,1,76.0,True
50300,1242, Note_on_c,73,34,5,1,1,85.0,False
50301,1243, Note_on_c,72,32,5,1,1,84.0,True
50302,1244, Note_on_c,73,29,5,1,1,85.0,False
50303,1245, Note_on_c,72,27,5,1,1,84.0,True
50304,1246, Note_on_c,65,25,5,1,1,76.0,True
50305,1247, Note_on_c,73,23,5,1,1,85.0,False
50306,1248, Note_on_c,72,20,5,1,1,84.0,True
50307,1250, Note_on_c,73,16,5,1,1,85.0,False
50308,1251, Note_on_c,72,14,5,1,1,84.0,True
50309,1252, Note_on_c,73,12,5,1,1,85.0,False
50310,1253, Note_on_c,72,9,5,1,1,84.0,True
50311,1254, Note_on_c,65,7,5,1,1,76.0,True
50312,1255, Note_on_c,73,5,5,1,1,85.0,False
50313,1256, Note_on_c,72,3,5,1,1,84.0,True
50314,1347, Note_on_c,72,108,5,1,1,84.0,True
50315,1347, Note_on_c,77,108,5,1,1,90.0,True
50316,1355, Note_on_c,72,108,5,1,1,84.0,True
50317,1355, Note_on_c,77,108,5,1,1,90.0,True
50318,1363, Note_on_c,72,108,5,1,1,84.0,True
50319,1363, Note_on_c,77,108,5,1,1,90.0,True
50320,1371, Note_on_c,72,108,5,1,1,84.0,True
50321,1371, Note_on_c,77,108,5,1,1,90.0,True
50322,1379, Note_on_c,72,108,5,1,1,84.0,True
50323,1379, Note_on_c,77,108,5,1,1,90.0,True
50324,1387, Note_on_c,72,108,5,1,1,84.0,True
50325,1387, Note_on_c,77,108,5,1,1,90.0,True
50326,1395, Note_on_c,72,108,5,1,1,84.0,True
50327,1395, Note_on_c,77,108,5,1,1,90.0,True
50328,1403, Note_on_c,72,108,5,1,1,84.0,True
50329,1403, Note_on_c,77,108,5,1,1,90.0,True
50330,1410, Note_on_c,70,108,5,1,1,81.0,False
50331,1410, Note_on_c,73,108,5,1,1,85.0,False
50332,1411, Note_on_c,72,108,5,1,1,84.0,True
50333,1411, Note_on_c,77,108,5,1,1,90.0,True
50334,1418, Note_on_c,70,108,5,1,1,81.0,False
50335,1418, Note_on_c,73,108,5,1,1,85.0,False
50336,1419, Note_on_c,72,108,5,1,1,84.0,True
50337,1419, Note_on_c,77,108,5,1,1,90.0,True
50338,1426, Note_on_c,70,108,5,1,1,81.0,False
50339,1426, Note_on_c,73,108,5,1,1,85.0,False
50340,1427, Note_on_c,72,108,5,1,1,84.0,True
50341,1427, Note_on_c,77,108,5,1,1,90.0,True
50342,1434, Note_on_c,70,108,5,1,1,81.0,False
50343,1434, Note_on_c,73,108,5,1,1,85.0,False
50344,1435, Note_on_c,72,108,5,1,1,84.0,True
50345,1435, Note_on_c,77,108,5,1,1,90.0,True
50346,1442, Note_on_c,70,108,5,1,1,81.0,False
50347,1442, Note_on_c,73,108,5,1,1,85.0,False
50348,1443, Note_on_c,72,108,5,1,1,84.0,True
50349,1443, Note_on_c,77,108,5,1,1,90.0,True
50350,1450, Note_on_c,70,108,5,1,1,81.0,False
50351,1450, Note_on_c,73,108,5,1,1,85.0,False
50352,1451, Note_on_c,72,108,5,1,1,84.0,True
50353,1451, Note_on_c,77,108,5,1,1,90.0,True
50354,1458, Note_on_c,70,108,5,1,1,81.0,False
50355,1458, Note_on_c,73,108,5,1,1,85.0,False
50356,1459, Note_on_c,72,108,5,1,1,84.0,True
50357,1459, Note_on_c,77,108,5,1,1,90.0,True
50358,1466, Note_on_c,70,108,5,1,1,81.0,False
50359,1466, Note_on_c,73,108,5,1,1,85.0,False
50360,1467, Note_on_c,72,108,5,1,1,84.0,True
50361,1467, Note_on_c,77,108,5,1,1,90.0,True
50362,1474, Note_on_c,70,108,5,1,1,81.0,False
50363,1474, Note_on_c,73,108,5,1,1,85.0,False
50364,1475, Note_on_c,72,108,5,1,1,84.0,True
50365,1475, Note_on_c,77,108,5,1,1,90.0,True
50366,1476, Note_on_c,65,108,5,1,1,76.0,True
50367,1482, Note_on_c,70,108,5,1,1,81.0,False
50368,1482, Note_on_c,73,108,5,1,1,85.0,False
50369,1483, Note_on_c,72,108,5,1,1,84.0,True
50370,1483, Note_on_c,77,108,5,1,1,90.0,True
50371,1484, Note_on_c,65,108,5,1,1,76.0,True
50372,1490, Note_on_c,70,108,5,1,1,81.0,False
50373,1490, Note_on_c,73,108,5,1,1,85.0,False
50374,1491, Note_on_c,72,108,5,1,1,84.0,True
50375,1491, Note_on_c,77,108,5,1,1,90.0,True
50376,1492, Note_on_c,65,108,5,1,1,76.0,True
50377,1498, Note_on_c,70,108,5,1,1,81.0,False
50378,1498, Note_on_c,73,108,5,1,1,85.0,False
50379,1499, Note_on_c,72,108,5,1,1,84.0,True
50380,1499, Note_on_c,77,108,5,1,1,90.0,True
50381,1500, Note_on_c,65,108,5,1,1,76.0,True
50382,1506, Note_on_c,70,108,5,1,1,81.0,False
50383,1506, Note_on_c,73,108,5,1,1,85.0,False
50384,1507, Note_on_c,72,108,5,1,1,84.0,True
50385,1507, Note_on_c,77,108,5,1,1,90.0,True
50386,1508, Note_on_c,65,108,5,1,1,76.0,True
50387,1514, Note_on_c,70,108,5,1,1,81.0,False
50388,1514, Note_on_c,73,108,5,1,1,85.0,False
50389,1515, Note_on_c,72,108,5,1,1,84.0,True
50390,1515, Note_on_c,77,108,5,1,1,90.0,True
50391,1516, Note_on_c,65,108,5,1,1,76.0,True
50392,1522, Note_on_c,70,108,5,1,1,81.0,False
50393,1522, Note_on_c,73,108,5,1,1,85.0,False
50394,1523, Note_on_c,72,108,5,1,1,84.0,True
50395,1523, Note_on_c,77,108,5,1,1,90.0,True
50396,1524, Note_on_c,65,108,5,1,1,76.0,True
50397,1530, Note_on_c,70,108,5,1,1,81.0,False
50398,1530, Note_on_c,73,108,5,1,1,85.0,False
50399,1531, Note_on_c,72,108,5,1,1,84.0,True
50400,1531, Note_on_c,77,108,5,1,1,90.0,True
50401,1532, Note_on_c,65,108,5,1,1,76.0,True
50402,1538, Note_on_c,70,108,5,1,1,81.0,False
50403,1538, Note_on_c,73,108,5,1,1,85.0,False
50404,1539, Note_on_c,72,108,5,1,1,84.0,True
50405,1539, Note_on_c,77,108,5,1,1,90.0,True
50406,1540, Note_on_c,65,108,5,1,1,76.0,True
50407,1543, Note_on_c,65,108,5,1,1,76.0,True
50408,1546, Note_on_c,70,108,5,1,1,81.0,False
50409,1546, Note_on_c,73,108,5,1,1,85.0,False
50410,1547, Note_on_c,72,108,5,1,1,84.0,True
50411,1547, Note_on_c,77,108,5,1,1,90.0,True
50412,1548, Note_on_c,65,108,5,1,1,76.0,True
50413,1551, Note_on_c,65,108,5,1,1,76.0,True
50414,1554, Note_on_c,70,108,5,1,1,81.0,False
50415,1554, Note_on_c,73,108,5,1,1,85.0,False
50416,1555, Note_on_c,72,108,5,1,1,84.0,True
50417,1555, Note_on_c,77,108,5,1,1,90.0,True
50418,1556, Note_on_c,65,108,5,1,1,76.0,True
50419,1559, Note_on_c,65,108,5,1,1,76.0,True
50420,1562, Note_on_c,70,108,5,1,1,81.0,False
50421,1562, Note_on_c,73,108,5,1,1,85.0,False
50422,1563, Note_on_c,72,108,5,1,1,84.0,True
50423,1563, Note_on_c,77,108,5,1,1,90.0,True
50424,1564, Note_on_c,65,108,5,1,1,76.0,True
50425,1567, Note_on_c,65,108,5,1,1,76.0,True
50426,1570, Note_on_c,70,108,5,1,1,81.0,False
50427,1570, Note_on_c,73,108,5,1,1,85.0,False
50428,1571, Note_on_c,72,108,5,1,1,84.0,True
50429,1571, Note_on_c,77,108,5,1,1,90.0,True
50430,1572, Note_on_c,65,108,5,1,1,76.0,True
50431,1575, Note_on_c,65,108,5,1,1,76.0,True
50432,1578, Note_on_c,70,108,5,1,1,81.0,False
50433,1578, Note_on_c,73,108,5,1,1,85.0,False
50434,1579, Note_on_c,72,108,5,1,1,84.0,True
50435,1579, Note_on_c,77,108,5,1,1,90.0,True
50436,1580, Note_on_c,65,108,5,1,1,76.0,True
50437,1583, Note_on_c,65,108,5,1,1,76.0,True
50438,1586, Note_on_c,70,108,5,1,1,81.0,False
50439,1586, Note_on_c,73,108,5,1,1,85.0,False
50440,1587, Note_on_c,72,108,5,1,1,84.0,True
50441,1587, Note_on_c,77,108,5,1,1,90.0,True
50442,1588, Note_on_c,65,108,5,1,1,76.0,True
50443,1591, Note_on_c,65,108,5,1,1,76.0,True
50444,1594, Note_on_c,70,108,5,1,1,81.0,False
50445,1594, Note_on_c,73,108,5,1,1,85.0,False
50446,1595, Note_on_c,72,108,5,1,1,84.0,True
50447,1595, Note_on_c,77,108,5,1,1,90.0,True
50448,1596, Note_on_c,65,108,5,1,1,76.0,True
50449,1599, Note_on_c,65,108,5,1,1,76.0,True
50450,1602, Note_on_c,70,108,5,1,1,81.0,False
50451,1602, Note_on_c,73,108,5,1,1,85.0,False
50452,1603, Note_on_c,72,108,5,1,1,84.0,True
50453,1603, Note_on_c,77,108,5,1,1,90.0,True
50454,1604, Note_on_c,65,108,5,1,1,76.0,True
50455,1606, Note_on_c,72,108,5,1,1,84.0,True
50456,1606, Note_on_c,75,108,5,1,1,87.0,False
50457,1607, Note_on_c,65,108,5,1,1,76.0,True
50458,1610, Note_on_c,70,108,5,1,1,81.0,False
50459,1610, Note_on_c,73,108,5,1,1,85.0,False
50460,1611, Note_on_c,72,108,5,1,1,84.0,True
50461,1611, Note_on_c,77,108,5,1,1,90.0,True
50462,1612, Note_on_c,65,108,5,1,1,76.0,True
50463,1614, Note_on_c,72,108,5,1,1,84.0,True
50464,1614, Note_on_c,75,108,5,1,1,87.0,False
50465,1615, Note_on_c,65,108,5,1,1,76.0,True
50466,1618, Note_on_c,70,108,5,1,1,81.0,False
50467,1618, Note_on_c,73,108,5,1,1,85.0,False
50468,1619, Note_on_c,72,108,5,1,1,84.0,True
50469,1619, Note_on_c,77,108,5,1,1,90.0,True
50470,1620, Note_on_c,65,108,5,1,1,76.0,True
50471,1622, Note_on_c,72,108,5,1,1,84.0,True
50472,1622, Note_on_c,75,108,5,1,1,87.0,False
50473,1623, Note_on_c,65,108,5,1,1,76.0,True
50474,1626, Note_on_c,70,108,5,1,1,81.0,False
50475,1626, Note_on_c,73,108,5,1,1,85.0,False
50476,1627, Note_on_c,72,108,5,1,1,84.0,True
50477,1627, Note_on_c,77,108,5,1,1,90.0,True
50478,1628, Note_on_c,65,108,5,1,1,76.0,True
50479,1630, Note_on_c,72,108,5,1,1,84.0,True
50480,1630, Note_on_c,75,108,5,1,1,87.0,False
50481,1631, Note_on_c,65,108,5,1,1,76.0,True
50482,1634, Note_on_c,70,108,5,1,1,81.0,False
50483,1634, Note_on_c,73,108,5,1,1,85.0,False
50484,1635, Note_on_c,72,108,5,1,1,84.0,True
50485,1635, Note_on_c,77,108,5,1,1,90.0,True
50486,1636, Note_on_c,65,108,5,1,1,76.0,True
50487,1638, Note_on_c,72,108,5,1,1,84.0,True
50488,1638, Note_on_c,75,108,5,1,1,87.0,False
50489,1639, Note_on_c,65,108,5,1,1,76.0,True
50490,1642, Note_on_c,70,108,5,1,1,81.0,False
50491,1642, Note_on_c,73,108,5,1,1,85.0,False
50492,1643, Note_on_c,72,108,5,1,1,84.0,True
50493,1643, Note_on_c,77,108,5,1,1,90.0,True
50494,1644, Note_on_c,65,108,5,1,1,76.0,True
50495,1646, Note_on_c,72,108,5,1,1,84.0,True
50496,1646, Note_on_c,75,108,5,1,1,87.0,False
50497,1647, Note_on_c,65,108,5,1,1,76.0,True
50498,1650, Note_on_c,70,108,5,1,1,81.0,False
50499,1650, Note_on_c,73,108,5,1,1,85.0,False
50500,1651, Note_on_c,72,108,5,1,1,84.0,True
50501,1651, Note_on_c,77,108,5,1,1,90.0,True
50502,1652, Note_on_c,65,108,5,1,1,76.0,True
50503,1654, Note_on_c,72,108,5,1,1,84.0,True
50504,1654, Note_on_c,75,108,5,1,1,87.0,False
50505,1655, Note_on_c,65,108,5,1,1,76.0,True
50506,1658, Note_on_c,70,108,5,1,1,81.0,False
50507,1658, Note_on_c,73,108,5,1,1,85.0,False
50508,1659, Note_on_c,72,108,5,1,1,84.0,True
50509,1659, Note_on_c,77,108,5,1,1,90.0,True
50510,1660, Note_on_c,65,108,5,1,1,76.0,True
50511,1662, Note_on_c,72,108,5,1,1,84.0,True
50512,1662, Note_on_c,75,108,5,1,1,87.0,False
50513,1663, Note_on_c,65,108,5,1,1,76.0,True
50514,1666, Note_on_c,70,108,5,1,1,81.0,False
50515,1666, Note_on_c,73,108,5,1,1,85.0,False
50516,1667, Note_on_c,72,108,5,1,1,84.0,True
50517,1667, Note_on_c,77,108,5,1,1,90.0,True
50518,1668, Note_on_c,65,108,5,1,1,76.0,True
50519,1669, Note_on_c,70,108,5,1,1,81.0,False
50520,1669, Note_on_c,73,108,5,1,1,85.0,False
50521,1670, Note_on_c,72,108,5,1,1,84.0,True
50522,1670, Note_on_c,75,108,5,1,1,87.0,False
50523,1671, Note_on_c,65,108,5,1,1,76.0,True
50524,1674, Note_on_c,70,108,5,1,1,81.0,False
50525,1674, Note_on_c,73,108,5,1,1,85.0,False
50526,1675, Note_on_c,72,108,5,1,1,84.0,True
50527,1675, Note_on_c,77,108,5,1,1,90.0,True
50528,1676, Note_on_c,65,108,5,1,1,76.0,True
50529,1677, Note_on_c,70,108,5,1,1,81.0,False
50530,1677, Note_on_c,73,108,5,1,1,85.0,False
50531,1678, Note_on_c,72,108,5,1,1,84.0,True
50532,1678, Note_on_c,75,108,5,1,1,87.0,False
50533,1679, Note_on_c,65,108,5,1,1,76.0,True
50534,1682, Note_on_c,70,108,5,1,1,81.0,False
50535,1682, Note_on_c,73,108,5,1,1,85.0,False
50536,1683, Note_on_c,72,108,5,1,1,84.0,True
50537,1683, Note_on_c,77,108,5,1,1,90.0,True
50538,1684, Note_on_c,65,108,5,1,1,76.0,True
50539,1685, Note_on_c,70,108,5,1,1,81.0,False
50540,1685, Note_on_c,73,108,5,1,1,85.0,False
50541,1686, Note_on_c,72,108,5,1,1,84.0,True
50542,1686, Note_on_c,75,108,5,1,1,87.0,False
50543,1687, Note_on_c,65,108,5,1,1,76.0,True
50544,1690, Note_on_c,70,108,5,1,1,81.0,False
50545,1690, Note_on_c,73,108,5,1,1,85.0,False
50546,1691, Note_on_c,72,108,5,1,1,84.0,True
50547,1691, Note_on_c,77,108,5,1,1,90.0,True
50548,1692, Note_on_c,65,108,5,1,1,76.0,True
50549,1693, Note_on_c,70,108,5,1,1,81.0,False
50550,1693, Note_on_c,73,108,5,1,1,85.0,False
50551,1694, Note_on_c,72,108,5,1,1,84.0,True
50552,1694, Note_on_c,75,108,5,1,1,87.0,False
50553,1695, Note_on_c,65,108,5,1,1,76.0,True
50554,1698, Note_on_c,70,108,5,1,1,81.0,False
50555,1698, Note_on_c,73,108,5,1,1,85.0,False
50556,1699, Note_on_c,72,108,5,1,1,84.0,True
50557,1699, Note_on_c,77,108,5,1,1,90.0,True
50558,1700, Note_on_c,65,108,5,1,1,76.0,True
50559,1701, Note_on_c,70,108,5,1,1,81.0,False
50560,1701, Note_on_c,73,108,5,1,1,85.0,False
50561,1702, Note_on_c,72,108,5,1,1,84.0,True
50562,1702, Note_on_c,75,108,5,1,1,87.0,False
50563,1703, Note_on_c,65,108,5,1,1,76.0,True
50564,1706, Note_on_c,70,108,5,1,1,81.0,False
50565,1706, Note_on_c,73,108,5,1,1,85.0,False
50566,1707, Note_on_c,72,108,5,1,1,84.0,True
50567,1707, Note_on_c,77,108,5,1,1,90.0,True
50568,1708, Note_on_c,65,108,5,1,1,76.0,True
50569,1709, Note_on_c,70,108,5,1,1,81.0,False
50570,1709, Note_on_c,73,108,5,1,1,85.0,False
50571,1710, Note_on_c,72,108,5,1,1,84.0,True
50572,1710, Note_on_c,75,108,5,1,1,87.0,False
50573,1711, Note_on_c,65,108,5,1,1,76.0,True
50574,1714, Note_on_c,70,108,5,1,1,81.0,False
50575,1714, Note_on_c,73,108,5,1,1,85.0,False
50576,1715, Note_on_c,72,108,5,1,1,84.0,True
50577,1715, Note_on_c,77,108,5,1,1,90.0,True
50578,1716, Note_on_c,65,108,5,1,1,76.0,True
50579,1717, Note_on_c,70,108,5,1,1,81.0,False
50580,1717, Note_on_c,73,108,5,1,1,85.0,False
50581,1718, Note_on_c,72,108,5,1,1,84.0,True
50582,1718, Note_on_c,75,108,5,1,1,87.0,False
50583,1719, Note_on_c,65,108,5,1,1,76.0,True
50584,1722, Note_on_c,70,108,5,1,1,81.0,False
50585,1722, Note_on_c,73,108,5,1,1,85.0,False
50586,1723, Note_on_c,72,108,5,1,1,84.0,True
50587,1723, Note_on_c,77,108,5,1,1,90.0,True
50588,1724, Note_on_c,65,108,5,1,1,76.0,True
50589,1725, Note_on_c,70,108,5,1,1,81.0,False
50590,1725, Note_on_c,73,108,5,1,1,85.0,False
50591,1726, Note_on_c,72,108,5,1,1,84.0,True
50592,1726, Note_on_c,75,108,5,1,1,87.0,False
50593,1727, Note_on_c,65,108,5,1,1,76.0,True
50594,1730, Note_on_c,70,108,5,1,1,81.0,False
50595,1730, Note_on_c,73,108,5,1,1,85.0,False
50596,1731, Note_on_c,72,108,5,1,1,84.0,True
50597,1731, Note_on_c,77,108,5,1,1,90.0,True
50598,1732, Note_on_c,65,108,5,1,1,76.0,True
50599,1733, Note_on_c,70,108,5,1,1,81.0,False
50600,1733, Note_on_c,73,108,5,1,1,85.0,False
50601,1734, Note_on_c,72,108,5,1,1,84.0,True
50602,1734, Note_on_c,75,108,5,1,1,87.0,False
50603,1735, Note_on_c,65,108,5,1,1,76.0,True
50604,1736, Note_on_c,70,108,5,1,1,81.0,False
50605,1736, Note_on_c,73,108,5,1,1,85.0,False
50606,1738, Note_on_c,70,108,5,1,1,81.0,False
50607,1738, Note_on_c,73,108,5,1,1,85.0,False
50608,1739, Note_on_c,72,108,5,1,1,84.0,True
50609,1739, Note_on_c,77,108,5,1,1,90.0,True
50610,1740, Note_on_c,65,108,5,1,1,76.0,True
50611,1741, Note_on_c,70,108,5,1,1,81.0,False
50612,1741, Note_on_c,73,108,5,1,1,85.0,False
50613,1742, Note_on_c,72,108,5,1,1,84.0,True
50614,1742, Note_on_c,75,108,5,1,1,87.0,False
50615,1743, Note_on_c,65,108,5,1,1,76.0,True
50616,1744, Note_on_c,70,108,5,1,1,81.0,False
50617,1744, Note_on_c,73,108,5,1,1,85.0,False
50618,1746, Note_on_c,70,108,5,1,1,81.0,False
50619,1746, Note_on_c,73,108,5,1,1,85.0,False
50620,1747, Note_on_c,72,108,5,1,1,84.0,True
50621,1747, Note_on_c,77,108,5,1,1,90.0,True
50622,1748, Note_on_c,65,108,5,1,1,76.0,True
50623,1749, Note_on_c,70,108,5,1,1,81.0,False
50624,1749, Note_on_c,73,108,5,1,1,85.0,False
50625,1750, Note_on_c,72,108,5,1,1,84.0,True
50626,1750, Note_on_c,75,108,5,1,1,87.0,False
50627,1751, Note_on_c,65,108,5,1,1,76.0,True
50628,1752, Note_on_c,70,108,5,1,1,81.0,False
50629,1752, Note_on_c,73,108,5,1,1,85.0,False
50630,1754, Note_on_c,70,108,5,1,1,81.0,False
50631,1754, Note_on_c,73,108,5,1,1,85.0,False
50632,1755, Note_on_c,72,108,5,1,1,84.0,True
50633,1755, Note_on_c,77,108,5,1,1,90.0,True
50634,1756, Note_on_c,65,108,5,1,1,76.0,True
50635,1757, Note_on_c,70,108,5,1,1,81.0,False
50636,1757, Note_on_c,73,108,5,1,1,85.0,False
50637,1758, Note_on_c,72,108,5,1,1,84.0,True
50638,1758, Note_on_c,75,108,5,1,1,87.0,False
50639,1759, Note_on_c,65,108,5,1,1,76.0,True
50640,1760, Note_on_c,70,108,5,1,1,81.0,False
50641,1760, Note_on_c,73,108,5,1,1,85.0,False
50642,1762, Note_on_c,70,108,5,1,1,81.0,False
50643,1762, Note_on_c,73,108,5,1,1,85.0,False
50644,1763, Note_on_c,72,108,5,1,1,84.0,True
50645,1763, Note_on_c,77,108,5,1,1,90.0,True
50646,1764, Note_on_c,65,108,5,1,1,76.0,True
50647,1765, Note_on_c,70,108,5,1,1,81.0,False
50648,1765, Note_on_c,73,108,5,1,1,85.0,False
50649,1766, Note_on_c,72,108,5,1,1,84.0,True
50650,1766, Note_on_c,75,108,5,1,1,87.0,False
50651,1767, Note_on_c,65,108,5,1,1,76.0,True
50652,1768, Note_on_c,70,108,5,1,1,81.0,False
50653,1768, Note_on_c,73,108,5,1,1,85.0,False
50654,1770, Note_on_c,70,108,5,1,1,81.0,False
50655,1770, Note_on_c,73,108,5,1,1,85.0,False
50656,1771, Note_on_c,72,108,5,1,1,84.0,True
50657,1771, Note_on_c,77,108,5,1,1,90.0,True
50658,1772, Note_on_c,65,108,5,1,1,76.0,True
50659,1773, Note_on_c,70,108,5,1,1,81.0,False
50660,1773, Note_on_c,73,108,5,1,1,85.0,False
50661,1774, Note_on_c,72,108,5,1,1,84.0,True
50662,1774, Note_on_c,75,108,5,1,1,87.0,False
50663,1775, Note_on_c,65,108,5,1,1,76.0,True
50664,1776, Note_on_c,70,108,5,1,1,81.0,False
50665,1776, Note_on_c,73,108,5,1,1,85.0,False
50666,1778, Note_on_c,70,108,5,1,1,81.0,False
50667,1778, Note_on_c,73,108,5,1,1,85.0,False
50668,1779, Note_on_c,72,108,5,1,1,84.0,True
50669,1779, Note_on_c,77,108,5,1,1,90.0,True
50670,1780, Note_on_c,65,108,5,1,1,76.0,True
50671,1781, Note_on_c,70,108,5,1,1,81.0,False
50672,1781, Note_on_c,73,108,5,1,1,85.0,False
50673,1782, Note_on_c,72,108,5,1,1,84.0,True
50674,1782, Note_on_c,75,108,5,1,1,87.0,False
50675,1783, Note_on_c,65,108,5,1,1,76.0,True
50676,1784, Note_on_c,70,108,5,1,1,81.0,False
50677,1784, Note_on_c,73,108,5,1,1,85.0,False
50678,1786, Note_on_c,70,108,5,1,1,81.0,False
50679,1786, Note_on_c,73,108,5,1,1,85.0,False
50680,1787, Note_on_c,72,108,5,1,1,84.0,True
50681,1787, Note_on_c,77,108,5,1,1,90.0,True
50682,1788, Note_on_c,65,108,5,1,1,76.0,True
50683,1789, Note_on_c,70,108,5,1,1,81.0,False
50684,1789, Note_on_c,73,108,5,1,1,85.0,False
50685,1790, Note_on_c,72,108,5,1,1,84.0,True
50686,1790, Note_on_c,75,108,5,1,1,87.0,False
50687,1791, Note_on_c,65,108,5,1,1,76.0,True
50688,1792, Note_on_c,70,108,5,1,1,81.0,False
50689,1792, Note_on_c,73,108,5,1,1,85.0,False
50690,1793, Note_on_c,72,108,5,1,1,84.0,True
50691,1793, Note_on_c,75,108,5,1,1,87.0,False
50692,1794, Note_on_c,70,108,5,1,1,81.0,False
50693,1794, Note_on_c,73,108,5,1,1,85.0,False
50694,1795, Note_on_c,72,108,5,1,1,84.0,True
50695,1795, Note_on_c,77,108,5,1,1,90.0,True
50696,1796, Note_on_c,65,108,5,1,1,76.0,True
50697,1797, Note_on_c,70,108,5,1,1,81.0,False
50698,1797, Note_on_c,73,108,5,1,1,85.0,False
50699,1798, Note_on_c,72,108,5,1,1,84.0,True
50700,1798, Note_on_c,75,108,5,1,1,87.0,False
50701,1799, Note_on_c,65,108,5,1,1,76.0,True
50702,1800, Note_on_c,70,108,5,1,1,81.0,False
50703,1800, Note_on_c,73,108,5,1,1,85.0,False
50704,1801, Note_on_c,72,108,5,1,1,84.0,True
50705,1801, Note_on_c,75,108,5,1,1,87.0,False
50706,1802, Note_on_c,70,108,5,1,1,81.0,False
50707,1802, Note_on_c,73,108,5,1,1,85.0,False
50708,1803, Note_on_c,72,108,5,1,1,84.0,True
50709,1803, Note_on_c,77,108,5,1,1,90.0,True
50710,1804, Note_on_c,65,108,5,1,1,76.0,True
50711,1805, Note_on_c,70,108,5,1,1,81.0,False
50712,1805, Note_on_c,73,108,5,1,1,85.0,False
50713,1806, Note_on_c,72,108,5,1,1,84.0,True
50714,1806, Note_on_c,75,108,5,1,1,87.0,False
50715,1807, Note_on_c,65,108,5,1,1,76.0,True
50716,1808, Note_on_c,70,108,5,1,1,81.0,False
50717,1808, Note_on_c,73,108,5,1,1,85.0,False
50718,1809, Note_on_c,72,108,5,1,1,84.0,True
50719,1809, Note_on_c,75,108,5,1,1,87.0,False
50720,1810, Note_on_c,70,108,5,1,1,81.0,False
50721,1810, Note_on_c,73,108,5,1,1,85.0,False
50722,1811, Note_on_c,72,108,5,1,1,84.0,True
50723,1811, Note_on_c,77,108,5,1,1,90.0,True
50724,1812, Note_on_c,65,108,5,1,1,76.0,True
50725,1813, Note_on_c,70,108,5,1,1,81.0,False
50726,1813, Note_on_c,73,108,5,1,1,85.0,False
50727,1814, Note_on_c,72,108,5,1,1,84.0,True
50728,1814, Note_on_c,75,108,5,1,1,87.0,False
50729,1815, Note_on_c,65,108,5,1,1,76.0,True
50730,1816, Note_on_c,70,108,5,1,1,81.0,False
50731,1816, Note_on_c,73,108,5,1,1,85.0,False
50732,1817, Note_on_c,72,108,5,1,1,84.0,True
50733,1817, Note_on_c,75,108,5,1,1,87.0,False
50734,1818, Note_on_c,70,108,5,1,1,81.0,False
50735,1818, Note_on_c,73,108,5,1,1,85.0,False
50736,1819, Note_on_c,72,108,5,1,1,84.0,True
50737,1819, Note_on_c,77,108,5,1,1,90.0,True
50738,1820, Note_on_c,65,108,5,1,1,76.0,True
50739,1821, Note_on_c,70,108,5,1,1,81.0,False
50740,1821, Note_on_c,73,108,5,1,1,85.0,False
50741,1822, Note_on_c,72,108,5,1,1,84.0,True
50742,1822, Note_on_c,75,108,5,1,1,87.0,False
50743,1823, Note_on_c,65,108,5,1,1,76.0,True
50744,1824, Note_on_c,70,108,5,1,1,81.0,False
50745,1824, Note_on_c,73,108,5,1,1,85.0,False
50746,1825, Note_on_c,72,108,5,1,1,84.0,True
50747,1825, Note_on_c,75,108,5,1,1,87.0,False
50748,1826, Note_on_c,70,108,5,1,1,81.0,False
50749,1826, Note_on_c,73,108,5,1,1,85.0,False
50750,1827, Note_on_c,72,108,5,1,1,84.0,True
50751,1827, Note_on_c,77,108,5,1,1,90.0,True
50752,1828, Note_on_c,65,108,5,1,1,76.0,True
50753,1829, Note_on_c,70,108,5,1,1,81.0,False
50754,1829, Note_on_c,73,108,5,1,1,85.0,False
50755,1830, Note_on_c,72,108,5,1,1,84.0,True
50756,1830, Note_on_c,75,108,5,1,1,87.0,False
50757,1831, Note_on_c,65,108,5,1,1,76.0,True
50758,1832, Note_on_c,70,108,5,1,1,81.0,False
50759,1832, Note_on_c,73,108,5,1,1,85.0,False
50760,1833, Note_on_c,72,108,5,1,1,84.0,True
50761,1833, Note_on_c,75,108,5,1,1,87.0,False
50762,1834, Note_on_c,70,108,5,1,1,81.0,False
50763,1834, Note_on_c,73,108,5,1,1,85.0,False
50764,1835, Note_on_c,72,108,5,1,1,84.0,True
50765,1835, Note_on_c,77,108,5,1,1,90.0,True
50766,1836, Note_on_c,65,108,5,1,1,76.0,True
50767,1837, Note_on_c,70,108,5,1,1,81.0,False
50768,1837, Note_on_c,73,108,5,1,1,85.0,False
50769,1838, Note_on_c,72,108,5,1,1,84.0,True
50770,1838, Note_on_c,75,108,5,1,1,87.0,False
50771,1839, Note_on_c,65,108,5,1,1,76.0,True
50772,1840, Note_on_c,70,108,5,1,1,81.0,False
50773,1840, Note_on_c,73,108,5,1,1,85.0,False
50774,1841, Note_on_c,72,108,5,1,1,84.0,True
50775,1841, Note_on_c,75,108,5,1,1,87.0,False
50776,1842, Note_on_c,70,108,5,1,1,81.0,False
50777,1842, Note_on_c,73,108,5,1,1,85.0,False
50778,1843, Note_on_c,72,108,5,1,1,84.0,True
50779,1843, Note_on_c,77,108,5,1,1,90.0,True
50780,1844, Note_on_c,65,108,5,1,1,76.0,True
50781,1845, Note_on_c,70,108,5,1,1,81.0,False
50782,1845, Note_on_c,73,108,5,1,1,85.0,False
50783,1846, Note_on_c,72,108,5,1,1,84.0,True
50784,1846, Note_on_c,75,108,5,1,1,87.0,False
50785,1847, Note_on_c,65,108,5,1,1,76.0,True
50786,1848, Note_on_c,70,108,5,1,1,81.0,False
50787,1848, Note_on_c,73,108,5,1,1,85.0,False
50788,1849, Note_on_c,72,108,5,1,1,84.0,True
50789,1849, Note_on_c,75,108,5,1,1,87.0,False
50790,1850, Note_on_c,70,108,5,1,1,81.0,False
50791,1850, Note_on_c,73,108,5,1,1,85.0,False
50792,1851, Note_on_c,72,108,5,1,1,84.0,True
50793,1851, Note_on_c,77,108,5,1,1,90.0,True
50794,1852, Note_on_c,65,108,5,1,1,76.0,True
50795,1853, Note_on_c,70,108,5,1,1,81.0,False
50796,1853, Note_on_c,73,108,5,1,1,85.0,False
50797,1854, Note_on_c,72,108,5,1,1,84.0,True
50798,1854, Note_on_c,75,108,5,1,1,87.0,False
50799,1855, Note_on_c,65,108,5,1,1,76.0,True
50800,1856, Note_on_c,70,108,5,1,1,81.0,False
50801,1856, Note_on_c,73,108,5,1,1,85.0,False
50802,1857, Note_on_c,72,108,5,1,1,84.0,True
50803,1857, Note_on_c,75,108,5,1,1,87.0,False
50804,1858, Note_on_c,70,104,5,1,1,81.0,False
50805,1858, Note_on_c,73,104,5,1,1,85.0,False
50806,1859, Note_on_c,72,103,5,1,1,84.0,True
50807,1859, Note_on_c,77,103,5,1,1,90.0,True
50808,1860, Note_on_c,65,102,5,1,1,76.0,True
50809,1861, Note_on_c,70,101,5,1,1,81.0,False
50810,1861, Note_on_c,73,101,5,1,1,85.0,False
50811,1862, Note_on_c,72,100,5,1,1,84.0,True
50812,1862, Note_on_c,75,100,5,1,1,87.0,False
50813,1863, Note_on_c,65,99,5,1,1,76.0,True
50814,1864, Note_on_c,70,97,5,1,1,81.0,False
50815,1864, Note_on_c,73,97,5,1,1,85.0,False
50816,1865, Note_on_c,72,96,5,1,1,84.0,True
50817,1865, Note_on_c,75,96,5,1,1,87.0,False
50818,1866, Note_on_c,70,95,5,1,1,81.0,False
50819,1866, Note_on_c,73,95,5,1,1,85.0,False
50820,1867, Note_on_c,72,94,5,1,1,84.0,True
50821,1867, Note_on_c,77,94,5,1,1,90.0,True
50822,1868, Note_on_c,65,93,5,1,1,76.0,True
50823,1869, Note_on_c,70,92,5,1,1,81.0,False
50824,1869, Note_on_c,73,92,5,1,1,85.0,False
50825,1870, Note_on_c,72,90,5,1,1,84.0,True
50826,1870, Note_on_c,75,90,5,1,1,87.0,False
50827,1871, Note_on_c,65,89,5,1,1,76.0,True
50828,1872, Note_on_c,70,88,5,1,1,81.0,False
50829,1872, Note_on_c,73,88,5,1,1,85.0,False
50830,1873, Note_on_c,72,87,5,1,1,84.0,True
50831,1873, Note_on_c,75,87,5,1,1,87.0,False
50832,1874, Note_on_c,70,86,5,1,1,81.0,False
50833,1874, Note_on_c,73,86,5,1,1,85.0,False
50834,1875, Note_on_c,72,85,5,1,1,84.0,True
50835,1875, Note_on_c,77,85,5,1,1,90.0,True
50836,1876, Note_on_c,65,83,5,1,1,76.0,True
50837,1877, Note_on_c,70,82,5,1,1,81.0,False
50838,1877, Note_on_c,73,82,5,1,1,85.0,False
50839,1878, Note_on_c,72,81,5,1,1,84.0,True
50840,1878, Note_on_c,75,81,5,1,1,87.0,False
50841,1879, Note_on_c,65,80,5,1,1,76.0,True
50842,1880, Note_on_c,70,79,5,1,1,81.0,False
50843,1880, Note_on_c,73,79,5,1,1,85.0,False
50844,1881, Note_on_c,72,77,5,1,1,84.0,True
50845,1881, Note_on_c,75,77,5,1,1,87.0,False
50846,1882, Note_on_c,70,77,5,1,1,81.0,False
50847,1882, Note_on_c,73,77,5,1,1,85.0,False
50848,1883, Note_on_c,72,77,5,1,1,84.0,True
50849,1883, Note_on_c,77,77,5,1,1,90.0,True
50850,1884, Note_on_c,65,77,5,1,1,76.0,True
50851,1885, Note_on_c,70,77,5,1,1,81.0,False
50852,1885, Note_on_c,73,77,5,1,1,85.0,False
50853,1886, Note_on_c,72,77,5,1,1,84.0,True
50854,1886, Note_on_c,75,77,5,1,1,87.0,False
50855,1887, Note_on_c,65,77,5,1,1,76.0,True
50856,1888, Note_on_c,70,77,5,1,1,81.0,False
50857,1888, Note_on_c,73,77,5,1,1,85.0,False
50858,1889, Note_on_c,72,77,5,1,1,84.0,True
50859,1889, Note_on_c,75,77,5,1,1,87.0,False
50860,1890, Note_on_c,70,77,5,1,1,81.0,False
50861,1890, Note_on_c,73,77,5,1,1,85.0,False
50862,1891, Note_on_c,72,77,5,1,1,84.0,True
50863,1891, Note_on_c,77,77,5,1,1,90.0,True
50864,1892, Note_on_c,65,77,5,1,1,76.0,True
50865,1893, Note_on_c,70,77,5,1,1,81.0,False
50866,1893, Note_on_c,73,77,5,1,1,85.0,False
50867,1894, Note_on_c,72,77,5,1,1,84.0,True
50868,1894, Note_on_c,75,77,5,1,1,87.0,False
50869,1895, Note_on_c,65,77,5,1,1,76.0,True
50870,1896, Note_on_c,70,77,5,1,1,81.0,False
50871,1896, Note_on_c,73,77,5,1,1,85.0,False
50872,1897, Note_on_c,72,77,5,1,1,84.0,True
50873,1897, Note_on_c,75,77,5,1,1,87.0,False
50874,1898, Note_on_c,70,77,5,1,1,81.0,False
50875,1898, Note_on_c,73,77,5,1,1,85.0,False
50876,1899, Note_on_c,72,77,5,1,1,84.0,True
50877,1899, Note_on_c,77,77,5,1,1,90.0,True
50878,1900, Note_on_c,65,77,5,1,1,76.0,True
50879,1901, Note_on_c,70,77,5,1,1,81.0,False
50880,1901, Note_on_c,73,77,5,1,1,85.0,False
50881,1902, Note_on_c,72,77,5,1,1,84.0,True
50882,1902, Note_on_c,75,77,5,1,1,87.0,False
50883,1903, Note_on_c,65,77,5,1,1,76.0,True
50884,1904, Note_on_c,70,77,5,1,1,81.0,False
50885,1904, Note_on_c,73,77,5,1,1,85.0,False
50886,1905, Note_on_c,72,77,5,1,1,84.0,True
50887,1905, Note_on_c,75,77,5,1,1,87.0,False
50888,1906, Note_on_c,70,77,5,1,1,81.0,False
50889,1906, Note_on_c,73,77,5,1,1,85.0,False
50890,1907, Note_on_c,72,77,5,1,1,84.0,True
50891,1907, Note_on_c,77,77,5,1,1,90.0,True
50892,1908, Note_on_c,65,77,5,1,1,76.0,True
50893,1909, Note_on_c,70,77,5,1,1,81.0,False
50894,1909, Note_on_c,73,77,5,1,1,85.0,False
50895,1910, Note_on_c,72,77,5,1,1,84.0,True
50896,1910, Note_on_c,75,77,5,1,1,87.0,False
50897,1911, Note_on_c,65,77,5,1,1,76.0,True
50898,1912, Note_on_c,70,77,5,1,1,81.0,False
50899,1912, Note_on_c,73,77,5,1,1,85.0,False
50900,1913, Note_on_c,72,77,5,1,1,84.0,True
50901,1913, Note_on_c,75,77,5,1,1,87.0,False
50902,1914, Note_on_c,70,77,5,1,1,81.0,False
50903,1914, Note_on_c,73,77,5,1,1,85.0,False
50904,1915, Note_on_c,72,77,5,1,1,84.0,True
50905,1915, Note_on_c,77,77,5,1,1,90.0,True
50906,1916, Note_on_c,65,77,5,1,1,76.0,True
50907,1917, Note_on_c,70,77,5,1,1,81.0,False
50908,1917, Note_on_c,73,77,5,1,1,85.0,False
50909,1918, Note_on_c,72,77,5,1,1,84.0,True
50910,1918, Note_on_c,75,77,5,1,1,87.0,False
50911,1919, Note_on_c,65,77,5,1,1,76.0,True
50912,1920, Note_on_c,70,77,5,1,1,81.0,False
50913,1920, Note_on_c,73,77,5,1,1,85.0,False
50914,1921, Note_on_c,72,77,5,1,1,84.0,True
50915,1921, Note_on_c,75,77,5,1,1,87.0,False
50916,1922, Note_on_c,70,77,5,1,1,81.0,False
50917,1922, Note_on_c,73,77,5,1,1,85.0,False
50918,1923, Note_on_c,72,77,5,1,1,84.0,True
50919,1923, Note_on_c,77,77,5,1,1,90.0,True
50920,1924, Note_on_c,65,77,5,1,1,76.0,True
50921,1925, Note_on_c,70,77,5,1,1,81.0,False
50922,1925, Note_on_c,73,77,5,1,1,85.0,False
50923,1926, Note_on_c,72,77,5,1,1,84.0,True
50924,1926, Note_on_c,75,77,5,1,1,87.0,False
50925,1927, Note_on_c,65,77,5,1,1,76.0,True
50926,1928, Note_on_c,70,77,5,1,1,81.0,False
50927,1928, Note_on_c,73,77,5,1,1,85.0,False
50928,1929, Note_on_c,72,77,5,1,1,84.0,True
50929,1929, Note_on_c,75,77,5,1,1,87.0,False
50930,1930, Note_on_c,70,77,5,1,1,81.0,False
50931,1930, Note_on_c,73,77,5,1,1,85.0,False
50932,1931, Note_on_c,72,77,5,1,1,84.0,True
50933,1931, Note_on_c,77,77,5,1,1,90.0,True
50934,1932, Note_on_c,65,77,5,1,1,76.0,True
50935,1933, Note_on_c,70,77,5,1,1,81.0,False
50936,1933, Note_on_c,73,77,5,1,1,85.0,False
50937,1934, Note_on_c,72,77,5,1,1,84.0,True
50938,1934, Note_on_c,75,77,5,1,1,87.0,False
50939,1935, Note_on_c,65,77,5,1,1,76.0,True
50940,1936, Note_on_c,70,77,5,1,1,81.0,False
50941,1936, Note_on_c,73,77,5,1,1,85.0,False
50942,1937, Note_on_c,72,77,5,1,1,84.0,True
50943,1937, Note_on_c,75,77,5,1,1,87.0,False
50944,1938, Note_on_c,70,77,5,1,1,81.0,False
50945,1938, Note_on_c,73,77,5,1,1,85.0,False
50946,1939, Note_on_c,72,77,5,1,1,84.0,True
50947,1939, Note_on_c,77,77,5,1,1,90.0,True
50948,1940, Note_on_c,65,77,5,1,1,76.0,True
50949,1941, Note_on_c,70,77,5,1,1,81.0,False
50950,1941, Note_on_c,73,77,5,1,1,85.0,False
50951,1942, Note_on_c,72,77,5,1,1,84.0,True
50952,1942, Note_on_c,75,77,5,1,1,87.0,False
50953,1943, Note_on_c,65,77,5,1,1,76.0,True
50954,1944, Note_on_c,70,77,5,1,1,81.0,False
50955,1944, Note_on_c,73,77,5,1,1,85.0,False
50956,1945, Note_on_c,72,77,5,1,1,84.0,True
50957,1945, Note_on_c,75,77,5,1,1,87.0,False
50958,1946, Note_on_c,70,77,5,1,1,81.0,False
50959,1946, Note_on_c,73,77,5,1,1,85.0,False
50960,1947, Note_on_c,72,77,5,1,1,84.0,True
50961,1947, Note_on_c,77,77,5,1,1,90.0,True
50962,1948, Note_on_c,65,77,5,1,1,76.0,True
50963,1949, Note_on_c,70,77,5,1,1,81.0,False
50964,1949, Note_on_c,73,77,5,1,1,85.0,False
50965,1950, Note_on_c,72,77,5,1,1,84.0,True
50966,1950, Note_on_c,75,77,5,1,1,87.0,False
50967,1951, Note_on_c,65,77,5,1,1,76.0,True
50968,1952, Note_on_c,70,77,5,1,1,81.0,False
50969,1952, Note_on_c,73,77,5,1,1,85.0,False
50970,1953, Note_on_c,72,77,5,1,1,84.0,True
50971,1953, Note_on_c,75,77,5,1,1,87.0,False
50972,1954, Note_on_c,70,77,5,1,1,81.0,False
50973,1954, Note_on_c,73,77,5,1,1,85.0,False
50974,1955, Note_on_c,72,77,5,1,1,84.0,True
50975,1955, Note_on_c,77,77,5,1,1,90.0,True
50976,1956, Note_on_c,65,77,5,1,1,76.0,True
50977,1957, Note_on_c,70,77,5,1,1,81.0,False
50978,1957, Note_on_c,73,77,5,1,1,85.0,False
50979,1958, Note_on_c,72,77,5,1,1,84.0,True
50980,1958, Note_on_c,75,77,5,1,1,87.0,False
50981,1959, Note_on_c,65,77,5,1,1,76.0,True
50982,1960, Note_on_c,70,77,5,1,1,81.0,False
50983,1960, Note_on_c,73,77,5,1,1,85.0,False
50984,1961, Note_on_c,72,77,5,1,1,84.0,True
50985,1961, Note_on_c,75,77,5,1,1,87.0,False
50986,1962, Note_on_c,70,77,5,1,1,81.0,False
50987,1962, Note_on_c,73,77,5,1,1,85.0,False
50988,1963, Note_on_c,72,77,5,1,1,84.0,True
50989,1963, Note_on_c,77,77,5,1,1,90.0,True
50990,1964, Note_on_c,65,77,5,1,1,76.0,True
50991,1965, Note_on_c,70,77,5,1,1,81.0,False
50992,1965, Note_on_c,73,77,5,1,1,85.0,False
50993,1966, Note_on_c,72,77,5,1,1,84.0,True
50994,1966, Note_on_c,75,77,5,1,1,87.0,False
50995,1967, Note_on_c,65,77,5,1,1,76.0,True
50996,1968, Note_on_c,70,77,5,1,1,81.0,False
50997,1968, Note_on_c,73,77,5,1,1,85.0,False
50998,1969, Note_on_c,72,77,5,1,1,84.0,True
50999,1969, Note_on_c,75,77,5,1,1,87.0,False
51000,1970, Note_on_c,70,77,5,1,1,81.0,False
51001,1970, Note_on_c,73,77,5,1,1,85.0,False
51002,1971, Note_on_c,72,77,5,1,1,84.0,True
51003,1971, Note_on_c,77,77,5,1,1,90.0,True
51004,1972, Note_on_c,65,77,5,1,1,76.0,True
51005,1973, Note_on_c,70,77,5,1,1,81.0,False
51006,1973, Note_on_c,73,77,5,1,1,85.0,False
51007,1974, Note_on_c,72,77,5,1,1,84.0,True
51008,1974, Note_on_c,75,77,5,1,1,87.0,False
51009,1975, Note_on_c,65,77,5,1,1,76.0,True
51010,1976, Note_on_c,70,77,5,1,1,81.0,False
51011,1976, Note_on_c,73,77,5,1,1,85.0,False
51012,1977, Note_on_c,72,77,5,1,1,84.0,True
51013,1977, Note_on_c,75,77,5,1,1,87.0,False
51014,1978, Note_on_c,70,77,5,1,1,81.0,False
51015,1978, Note_on_c,73,77,5,1,1,85.0,False
51016,1979, Note_on_c,72,77,5,1,1,84.0,True
51017,1979, Note_on_c,77,77,5,1,1,90.0,True
51018,1980, Note_on_c,65,77,5,1,1,76.0,True
51019,1981, Note_on_c,70,77,5,1,1,81.0,False
51020,1981, Note_on_c,73,77,5,1,1,85.0,False
51021,1982, Note_on_c,72,77,5,1,1,84.0,True
51022,1982, Note_on_c,75,77,5,1,1,87.0,False
51023,1983, Note_on_c,65,77,5,1,1,76.0,True
51024,1984, Note_on_c,70,77,5,1,1,81.0,False
51025,1984, Note_on_c,73,77,5,1,1,85.0,False
51026,1985, Note_on_c,72,77,5,1,1,84.0,True
51027,1985, Note_on_c,75,77,5,1,1,87.0,False
51028,1986, Note_on_c,70,77,5,1,1,81.0,False
51029,1986, Note_on_c,73,77,5,1,1,85.0,False
51030,1987, Note_on_c,72,77,5,1,1,84.0,True
51031,1987, Note_on_c,77,77,5,1,1,90.0,True
51032,1988, Note_on_c,65,77,5,1,1,76.0,True
51033,1989, Note_on_c,70,77,5,1,1,81.0,False
51034,1989, Note_on_c,73,77,5,1,1,85.0,False
51035,1990, Note_on_c,72,77,5,1,1,84.0,True
51036,1990, Note_on_c,75,77,5,1,1,87.0,False
51037,1991, Note_on_c,65,77,5,1,1,76.0,True
51038,1992, Note_on_c,70,77,5,1,1,81.0,False
51039,1992, Note_on_c,73,77,5,1,1,85.0,False
51040,1993, Note_on_c,72,77,5,1,1,84.0,True
51041,1993, Note_on_c,75,77,5,1,1,87.0,False
51042,1994, Note_on_c,70,77,5,1,1,81.0,False
51043,1994, Note_on_c,73,77,5,1,1,85.0,False
51044,1995, Note_on_c,72,77,5,1,1,84.0,True
51045,1995, Note_on_c,77,77,5,1,1,90.0,True
51046,1996, Note_on_c,65,77,5,1,1,76.0,True
51047,1997, Note_on_c,70,77,5,1,1,81.0,False
51048,1997, Note_on_c,73,77,5,1,1,85.0,False
51049,1998, Note_on_c,72,77,5,1,1,84.0,True
51050,1998, Note_on_c,75,77,5,1,1,87.0,False
51051,1999, Note_on_c,65,77,5,1,1,76.0,True
51052,2000, Note_on_c,70,77,5,1,1,81.0,False
51053,2000, Note_on_c,73,77,5,1,1,85.0,False
51054,2001, Note_on_c,72,77,5,1,1,84.0,True
51055,2001, Note_on_c,75,77,5,1,1,87.0,False
51056,2002, Note_on_c,70,77,5,1,1,81.0,False
51057,2002, Note_on_c,73,77,5,1,1,85.0,False
51058,2003, Note_on_c,72,77,5,1,1,84.0,True
51059,2003, Note_on_c,77,77,5,1,1,90.0,True
51060,2004, Note_on_c,65,77,5,1,1,76.0,True
51061,2005, Note_on_c,70,77,5,1,1,81.0,False
51062,2005, Note_on_c,73,77,5,1,1,85.0,False
51063,2006, Note_on_c,72,77,5,1,1,84.0,True
51064,2006, Note_on_c,75,77,5,1,1,87.0,False
51065,2007, Note_on_c,65,77,5,1,1,76.0,True
51066,2008, Note_on_c,70,77,5,1,1,81.0,False
51067,2008, Note_on_c,73,77,5,1,1,85.0,False
51068,2009, Note_on_c,72,77,5,1,1,84.0,True
51069,2009, Note_on_c,75,77,5,1,1,87.0,False
51070,2010, Note_on_c,70,77,5,1,1,81.0,False
51071,2010, Note_on_c,73,77,5,1,1,85.0,False
51072,2011, Note_on_c,72,77,5,1,1,84.0,True
51073,2011, Note_on_c,77,77,5,1,1,90.0,True
51074,2012, Note_on_c,65,77,5,1,1,76.0,True
51075,2013, Note_on_c,70,77,5,1,1,81.0,False
51076,2013, Note_on_c,73,77,5,1,1,85.0,False
51077,2014, Note_on_c,72,77,5,1,1,84.0,True
51078,2014, Note_on_c,75,77,5,1,1,87.0,False
51079,2015, Note_on_c,65,77,5,1,1,76.0,True
51080,2016, Note_on_c,70,77,5,1,1,81.0,False
51081,2016, Note_on_c,73,77,5,1,1,85.0,False
51082,2017, Note_on_c,72,77,5,1,1,84.0,True
51083,2017, Note_on_c,75,77,5,1,1,87.0,False
51084,2018, Note_on_c,70,77,5,1,1,81.0,False
51085,2018, Note_on_c,73,77,5,1,1,85.0,False
51086,2019, Note_on_c,72,77,5,1,1,84.0,True
51087,2019, Note_on_c,77,77,5,1,1,90.0,True
51088,2020, Note_on_c,65,77,5,1,1,76.0,True
51089,2021, Note_on_c,70,77,5,1,1,81.0,False
51090,2021, Note_on_c,73,77,5,1,1,85.0,False
51091,2022, Note_on_c,72,77,5,1,1,84.0,True
51092,2022, Note_on_c,75,77,5,1,1,87.0,False
51093,2023, Note_on_c,65,77,5,1,1,76.0,True
51094,2024, Note_on_c,70,77,5,1,1,81.0,False
51095,2024, Note_on_c,73,77,5,1,1,85.0,False
51096,2025, Note_on_c,72,77,5,1,1,84.0,True
51097,2025, Note_on_c,75,77,5,1,1,87.0,False
51098,2026, Note_on_c,70,77,5,1,1,81.0,False
51099,2026, Note_on_c,73,77,5,1,1,85.0,False
51100,2027, Note_on_c,72,77,5,1,1,84.0,True
51101,2027, Note_on_c,77,77,5,1,1,90.0,True
51102,2028, Note_on_c,65,77,5,1,1,76.0,True
51103,2029, Note_on_c,70,77,5,1,1,81.0,False
51104,2029, Note_on_c,73,77,5,1,1,85.0,False
51105,2030, Note_on_c,72,77,5,1,1,84.0,True
51106,2030, Note_on_c,75,77,5,1,1,87.0,False
51107,2031, Note_on_c,65,77,5,1,1,76.0,True
51108,2032, Note_on_c,70,77,5,1,1,81.0,False
51109,2032, Note_on_c,73,77,5,1,1,85.0,False
51110,2033, Note_on_c,72,77,5,1,1,84.0,True
51111,2033, Note_on_c,75,77,5,1,1,87.0,False
51112,2034, Note_on_c,70,77,5,1,1,81.0,False
51113,2034, Note_on_c,73,77,5,1,1,85.0,False
51114,2035, Note_on_c,72,77,5,1,1,84.0,True
51115,2035, Note_on_c,77,77,5,1,1,90.0,True
51116,2036, Note_on_c,65,77,5,1,1,76.0,True
51117,2037, Note_on_c,70,77,5,1,1,81.0,False
51118,2037, Note_on_c,73,77,5,1,1,85.0,False
51119,2038, Note_on_c,72,77,5,1,1,84.0,True
51120,2038, Note_on_c,75,77,5,1,1,87.0,False
51121,2039, Note_on_c,65,77,5,1,1,76.0,True
51122,2040, Note_on_c,70,77,5,1,1,81.0,False
51123,2040, Note_on_c,73,77,5,1,1,85.0,False
51124,2041, Note_on_c,72,77,5,1,1,84.0,True
51125,2041, Note_on_c,75,77,5,1,1,87.0,False
51126,2042, Note_on_c,70,77,5,1,1,81.0,False
51127,2042, Note_on_c,73,77,5,1,1,85.0,False
51128,2043, Note_on_c,72,77,5,1,1,84.0,True
51129,2043, Note_on_c,77,77,5,1,1,90.0,True
51130,2044, Note_on_c,65,77,5,1,1,76.0,True
51131,2045, Note_on_c,70,77,5,1,1,81.0,False
51132,2045, Note_on_c,73,77,5,1,1,85.0,False
51133,2046, Note_on_c,72,77,5,1,1,84.0,True
51134,2046, Note_on_c,75,77,5,1,1,87.0,False
51135,2047, Note_on_c,65,77,5,1,1,76.0,True
51136,2048, Note_on_c,70,77,5,1,1,81.0,False
51137,2048, Note_on_c,73,77,5,1,1,85.0,False
51138,2049, Note_on_c,72,77,5,1,1,84.0,True
51139,2049, Note_on_c,75,77,5,1,1,87.0,False
51140,2050, Note_on_c,70,77,5,1,1,81.0,False
51141,2050, Note_on_c,73,77,5,1,1,85.0,False
51142,2051, Note_on_c,72,77,5,1,1,84.0,True
51143,2051, Note_on_c,77,77,5,1,1,90.0,True
51144,2052, Note_on_c,65,77,5,1,1,76.0,True
51145,2053, Note_on_c,70,77,5,1,1,81.0,False
51146,2053, Note_on_c,73,77,5,1,1,85.0,False
51147,2054, Note_on_c,72,77,5,1,1,84.0,True
51148,2054, Note_on_c,75,77,5,1,1,87.0,False
51149,2055, Note_on_c,65,77,5,1,1,76.0,True
51150,2056, Note_on_c,70,77,5,1,1,81.0,False
51151,2056, Note_on_c,73,77,5,1,1,85.0,False
51152,2057, Note_on_c,72,77,5,1,1,84.0,True
51153,2057, Note_on_c,75,77,5,1,1,87.0,False
51154,2058, Note_on_c,70,77,5,1,1,81.0,False
51155,2058, Note_on_c,73,77,5,1,1,85.0,False
51156,2059, Note_on_c,72,77,5,1,1,84.0,True
51157,2059, Note_on_c,77,77,5,1,1,90.0,True
51158,2060, Note_on_c,65,77,5,1,1,76.0,True
51159,2061, Note_on_c,70,77,5,1,1,81.0,False
51160,2061, Note_on_c,73,77,5,1,1,85.0,False
51161,2062, Note_on_c,72,77,5,1,1,84.0,True
51162,2062, Note_on_c,75,77,5,1,1,87.0,False
51163,2063, Note_on_c,65,77,5,1,1,76.0,True
51164,2064, Note_on_c,70,77,5,1,1,81.0,False
51165,2064, Note_on_c,73,77,5,1,1,85.0,False
51166,2065, Note_on_c,72,77,5,1,1,84.0,True
51167,2065, Note_on_c,75,77,5,1,1,87.0,False
51168,2066, Note_on_c,70,77,5,1,1,81.0,False
51169,2066, Note_on_c,73,77,5,1,1,85.0,False
51170,2067, Note_on_c,72,77,5,1,1,84.0,True
51171,2067, Note_on_c,77,77,5,1,1,90.0,True
51172,2068, Note_on_c,65,77,5,1,1,76.0,True
51173,2069, Note_on_c,70,77,5,1,1,81.0,False
51174,2069, Note_on_c,73,77,5,1,1,85.0,False
51175,2070, Note_on_c,72,77,5,1,1,84.0,True
51176,2070, Note_on_c,75,77,5,1,1,87.0,False
51177,2071, Note_on_c,65,77,5,1,1,76.0,True
51178,2072, Note_on_c,70,77,5,1,1,81.0,False
51179,2072, Note_on_c,73,77,5,1,1,85.0,False
51180,2073, Note_on_c,72,77,5,1,1,84.0,True
51181,2073, Note_on_c,75,77,5,1,1,87.0,False
51182,2074, Note_on_c,70,77,5,1,1,81.0,False
51183,2074, Note_on_c,73,77,5,1,1,85.0,False
51184,2075, Note_on_c,72,77,5,1,1,84.0,True
51185,2075, Note_on_c,77,77,5,1,1,90.0,True
51186,2076, Note_on_c,65,77,5,1,1,76.0,True
51187,2077, Note_on_c,70,77,5,1,1,81.0,False
51188,2077, Note_on_c,73,77,5,1,1,85.0,False
51189,2078, Note_on_c,72,77,5,1,1,84.0,True
51190,2078, Note_on_c,75,77,5,1,1,87.0,False
51191,2079, Note_on_c,65,77,5,1,1,76.0,True
51192,2080, Note_on_c,70,77,5,1,1,81.0,False
51193,2080, Note_on_c,73,77,5,1,1,85.0,False
51194,2081, Note_on_c,72,77,5,1,1,84.0,True
51195,2081, Note_on_c,75,77,5,1,1,87.0,False
51196,2082, Note_on_c,70,77,5,1,1,81.0,False
51197,2082, Note_on_c,73,77,5,1,1,85.0,False
51198,2083, Note_on_c,72,77,5,1,1,84.0,True
51199,2083, Note_on_c,77,77,5,1,1,90.0,True
51200,2084, Note_on_c,65,77,5,1,1,76.0,True
51201,2085, Note_on_c,70,77,5,1,1,81.0,False
51202,2085, Note_on_c,73,77,5,1,1,85.0,False
51203,2086, Note_on_c,72,77,5,1,1,84.0,True
51204,2086, Note_on_c,75,77,5,1,1,87.0,False
51205,2087, Note_on_c,65,77,5,1,1,76.0,True
51206,2088, Note_on_c,70,77,5,1,1,81.0,False
51207,2088, Note_on_c,73,77,5,1,1,85.0,False
51208,2089, Note_on_c,72,77,5,1,1,84.0,True
51209,2089, Note_on_c,75,77,5,1,1,87.0,False
51210,2090, Note_on_c,70,77,5,1,1,81.0,False
51211,2090, Note_on_c,73,77,5,1,1,85.0,False
51212,2091, Note_on_c,72,77,5,1,1,84.0,True
51213,2091, Note_on_c,77,77,5,1,1,90.0,True
51214,2092, Note_on_c,65,77,5,1,1,76.0,True
51215,2093, Note_on_c,70,77,5,1,1,81.0,False
51216,2093, Note_on_c,73,77,5,1,1,85.0,False
51217,2094, Note_on_c,72,77,5,1,1,84.0,True
51218,2094, Note_on_c,75,77,5,1,1,87.0,False
51219,2095, Note_on_c,65,77,5,1,1,76.0,True
51220,2096, Note_on_c,70,77,5,1,1,81.0,False
51221,2096, Note_on_c,73,77,5,1,1,85.0,False
51222,2097, Note_on_c,72,77,5,1,1,84.0,True
51223,2097, Note_on_c,75,77,5,1,1,87.0,False
51224,2098, Note_on_c,70,77,5,1,1,81.0,False
51225,2098, Note_on_c,73,77,5,1,1,85.0,False
51226,2099, Note_on_c,72,77,5,1,1,84.0,True
51227,2099, Note_on_c,77,77,5,1,1,90.0,True
51228,2100, Note_on_c,65,77,5,1,1,76.0,True
51229,2101, Note_on_c,70,77,5,1,1,81.0,False
51230,2101, Note_on_c,73,77,5,1,1,85.0,False
51231,2102, Note_on_c,72,77,5,1,1,84.0,True
51232,2102, Note_on_c,75,77,5,1,1,87.0,False
51233,2103, Note_on_c,65,77,5,1,1,76.0,True
51234,2104, Note_on_c,70,77,5,1,1,81.0,False
51235,2104, Note_on_c,73,77,5,1,1,85.0,False
51236,2105, Note_on_c,72,77,5,1,1,84.0,True
51237,2105, Note_on_c,75,77,5,1,1,87.0,False
51238,2106, Note_on_c,70,77,5,1,1,81.0,False
51239,2106, Note_on_c,73,77,5,1,1,85.0,False
51240,2107, Note_on_c,72,77,5,1,1,84.0,True
51241,2107, Note_on_c,77,77,5,1,1,90.0,True
51242,2108, Note_on_c,65,77,5,1,1,76.0,True
51243,2109, Note_on_c,70,77,5,1,1,81.0,False
51244,2109, Note_on_c,73,77,5,1,1,85.0,False
51245,2110, Note_on_c,72,77,5,1,1,84.0,True
51246,2110, Note_on_c,75,77,5,1,1,87.0,False
51247,2111, Note_on_c,65,77,5,1,1,76.0,True
51248,2112, Note_on_c,70,77,5,1,1,81.0,False
51249,2112, Note_on_c,73,77,5,1,1,85.0,False
51250,2113, Note_on_c,72,77,5,1,1,84.0,True
51251,2113, Note_on_c,75,77,5,1,1,87.0,False
51252,2114, Note_on_c,70,77,5,1,1,81.0,False
51253,2114, Note_on_c,73,77,5,1,1,85.0,False
51254,2115, Note_on_c,72,77,5,1,1,84.0,True
51255,2115, Note_on_c,77,77,5,1,1,90.0,True
51256,2116, Note_on_c,65,77,5,1,1,76.0,True
51257,2117, Note_on_c,70,77,5,1,1,81.0,False
51258,2117, Note_on_c,73,77,5,1,1,85.0,False
51259,2118, Note_on_c,72,77,5,1,1,84.0,True
51260,2118, Note_on_c,75,77,5,1,1,87.0,False
51261,2119, Note_on_c,65,77,5,1,1,76.0,True
51262,2120, Note_on_c,70,77,5,1,1,81.0,False
51263,2120, Note_on_c,73,77,5,1,1,85.0,False
51264,2121, Note_on_c,72,77,5,1,1,84.0,True
51265,2121, Note_on_c,75,77,5,1,1,87.0,False
51266,2122, Note_on_c,70,77,5,1,1,81.0,False
51267,2122, Note_on_c,73,77,5,1,1,85.0,False
51268,2123, Note_on_c,72,77,5,1,1,84.0,True
51269,2123, Note_on_c,77,77,5,1,1,90.0,True
51270,2124, Note_on_c,65,77,5,1,1,76.0,True
51271,2125, Note_on_c,70,77,5,1,1,81.0,False
51272,2125, Note_on_c,73,77,5,1,1,85.0,False
51273,2126, Note_on_c,72,77,5,1,1,84.0,True
51274,2126, Note_on_c,75,77,5,1,1,87.0,False
51275,2127, Note_on_c,65,77,5,1,1,76.0,True
51276,2128, Note_on_c,70,77,5,1,1,81.0,False
51277,2128, Note_on_c,73,77,5,1,1,85.0,False
51278,2129, Note_on_c,72,77,5,1,1,84.0,True
51279,2129, Note_on_c,75,77,5,1,1,87.0,False
51280,2130, Note_on_c,70,77,5,1,1,81.0,False
51281,2130, Note_on_c,73,77,5,1,1,85.0,False
51282,2131, Note_on_c,72,77,5,1,1,84.0,True
51283,2131, Note_on_c,77,77,5,1,1,90.0,True
51284,2132, Note_on_c,65,77,5,1,1,76.0,True
51285,2133, Note_on_c,70,77,5,1,1,81.0,False
51286,2133, Note_on_c,73,77,5,1,1,85.0,False
51287,2134, Note_on_c,72,77,5,1,1,84.0,True
51288,2134, Note_on_c,75,77,5,1,1,87.0,False
51289,2135, Note_on_c,65,77,5,1,1,76.0,True
51290,2136, Note_on_c,70,77,5,1,1,81.0,False
51291,2136, Note_on_c,73,77,5,1,1,85.0,False
51292,2137, Note_on_c,72,77,5,1,1,84.0,True
51293,2137, Note_on_c,75,77,5,1,1,87.0,False
51294,2138, Note_on_c,70,77,5,1,1,81.0,False
51295,2138, Note_on_c,73,77,5,1,1,85.0,False
51296,2139, Note_on_c,72,77,5,1,1,84.0,True
51297,2139, Note_on_c,77,77,5,1,1,90.0,True
51298,2140, Note_on_c,65,77,5,1,1,76.0,True
51299,2141, Note_on_c,70,77,5,1,1,81.0,False
51300,2141, Note_on_c,73,77,5,1,1,85.0,False
51301,2142, Note_on_c,72,77,5,1,1,84.0,True
51302,2142, Note_on_c,75,77,5,1,1,87.0,False
51303,2143, Note_on_c,65,77,5,1,1,76.0,True
51304,2144, Note_on_c,70,77,5,1,1,81.0,False
51305,2144, Note_on_c,73,77,5,1,1,85.0,False
51306,2145, Note_on_c,72,77,5,1,1,84.0,True
51307,2145, Note_on_c,75,77,5,1,1,87.0,False
51308,2146, Note_on_c,70,77,5,1,1,81.0,False
51309,2146, Note_on_c,73,77,5,1,1,85.0,False
51310,2147, Note_on_c,72,77,5,1,1,84.0,True
51311,2147, Note_on_c,77,77,5,1,1,90.0,True
51312,2148, Note_on_c,65,77,5,1,1,76.0,True
51313,2149, Note_on_c,70,77,5,1,1,81.0,False
51314,2149, Note_on_c,73,77,5,1,1,85.0,False
51315,2150, Note_on_c,72,77,5,1,1,84.0,True
51316,2150, Note_on_c,75,77,5,1,1,87.0,False
51317,2151, Note_on_c,65,77,5,1,1,76.0,True
51318,2152, Note_on_c,70,77,5,1,1,81.0,False
51319,2152, Note_on_c,73,77,5,1,1,85.0,False
51320,2153, Note_on_c,72,77,5,1,1,84.0,True
51321,2153, Note_on_c,75,77,5,1,1,87.0,False
51322,2154, Note_on_c,70,77,5,1,1,81.0,False
51323,2154, Note_on_c,73,77,5,1,1,85.0,False
51324,2155, Note_on_c,72,77,5,1,1,84.0,True
51325,2155, Note_on_c,77,77,5,1,1,90.0,True
51326,2156, Note_on_c,65,77,5,1,1,76.0,True
51327,2157, Note_on_c,70,77,5,1,1,81.0,False
51328,2157, Note_on_c,73,77,5,1,1,85.0,False
51329,2158, Note_on_c,72,77,5,1,1,84.0,True
51330,2158, Note_on_c,75,77,5,1,1,87.0,False
51331,2159, Note_on_c,65,77,5,1,1,76.0,True
51332,2160, Note_on_c,70,77,5,1,1,81.0,False
51333,2160, Note_on_c,73,77,5,1,1,85.0,False
51334,2161, Note_on_c,72,77,5,1,1,84.0,True
51335,2161, Note_on_c,75,77,5,1,1,87.0,False
51336,2162, Note_on_c,70,77,5,1,1,81.0,False
51337,2162, Note_on_c,73,77,5,1,1,85.0,False
51338,2163, Note_on_c,72,77,5,1,1,84.0,True
51339,2163, Note_on_c,77,77,5,1,1,90.0,True
51340,2164, Note_on_c,65,77,5,1,1,76.0,True
51341,2165, Note_on_c,70,77,5,1,1,81.0,False
51342,2165, Note_on_c,73,77,5,1,1,85.0,False
51343,2166, Note_on_c,72,77,5,1,1,84.0,True
51344,2166, Note_on_c,75,77,5,1,1,87.0,False
51345,2167, Note_on_c,65,77,5,1,1,76.0,True
51346,2168, Note_on_c,70,77,5,1,1,81.0,False
51347,2168, Note_on_c,73,77,5,1,1,85.0,False
51348,2169, Note_on_c,72,77,5,1,1,84.0,True
51349,2169, Note_on_c,75,77,5,1,1,87.0,False
51350,2170, Note_on_c,70,77,5,1,1,81.0,False
51351,2170, Note_on_c,73,77,5,1,1,85.0,False
51352,2171, Note_on_c,72,77,5,1,1,84.0,True
51353,2171, Note_on_c,77,77,5,1,1,90.0,True
51354,2172, Note_on_c,65,77,5,1,1,76.0,True
51355,2173, Note_on_c,70,77,5,1,1,81.0,False
51356,2173, Note_on_c,73,77,5,1,1,85.0,False
51357,2174, Note_on_c,72,77,5,1,1,84.0,True
51358,2174, Note_on_c,75,77,5,1,1,87.0,False
51359,2175, Note_on_c,65,77,5,1,1,76.0,True
51360,2176, Note_on_c,70,77,5,1,1,81.0,False
51361,2176, Note_on_c,73,77,5,1,1,85.0,False
51362,2177, Note_on_c,72,77,5,1,1,84.0,True
51363,2177, Note_on_c,75,77,5,1,1,87.0,False
51364,2178, Note_on_c,70,77,5,1,1,81.0,False
51365,2178, Note_on_c,73,77,5,1,1,85.0,False
51366,2179, Note_on_c,72,77,5,1,1,84.0,True
51367,2179, Note_on_c,77,77,5,1,1,90.0,True
51368,2180, Note_on_c,65,77,5,1,1,76.0,True
51369,2181, Note_on_c,70,77,5,1,1,81.0,False
51370,2181, Note_on_c,73,77,5,1,1,85.0,False
51371,2182, Note_on_c,72,77,5,1,1,84.0,True
51372,2182, Note_on_c,75,77,5,1,1,87.0,False
51373,2183, Note_on_c,65,77,5,1,1,76.0,True
51374,2184, Note_on_c,70,77,5,1,1,81.0,False
51375,2184, Note_on_c,73,77,5,1,1,85.0,False
51376,2185, Note_on_c,72,77,5,1,1,84.0,True
51377,2185, Note_on_c,75,77,5,1,1,87.0,False
51378,2186, Note_on_c,70,77,5,1,1,81.0,False
51379,2186, Note_on_c,73,77,5,1,1,85.0,False
51380,2187, Note_on_c,72,77,5,1,1,84.0,True
51381,2187, Note_on_c,77,77,5,1,1,90.0,True
51382,2188, Note_on_c,65,77,5,1,1,76.0,True
51383,2189, Note_on_c,70,77,5,1,1,81.0,False
51384,2189, Note_on_c,73,77,5,1,1,85.0,False
51385,2190, Note_on_c,72,77,5,1,1,84.0,True
51386,2190, Note_on_c,75,77,5,1,1,87.0,False
51387,2191, Note_on_c,65,77,5,1,1,76.0,True
51388,2192, Note_on_c,70,77,5,1,1,81.0,False
51389,2192, Note_on_c,73,77,5,1,1,85.0,False
51390,2193, Note_on_c,72,77,5,1,1,84.0,True
51391,2193, Note_on_c,75,77,5,1,1,87.0,False
51392,2194, Note_on_c,70,77,5,1,1,81.0,False
51393,2194, Note_on_c,73,77,5,1,1,85.0,False
51394,2195, Note_on_c,72,77,5,1,1,84.0,True
51395,2195, Note_on_c,77,77,5,1,1,90.0,True
51396,2196, Note_on_c,65,77,5,1,1,76.0,True
51397,2197, Note_on_c,70,77,5,1,1,81.0,False
51398,2197, Note_on_c,73,77,5,1,1,85.0,False
51399,2198, Note_on_c,72,77,5,1,1,84.0,True
51400,2198, Note_on_c,75,77,5,1,1,87.0,False
51401,2199, Note_on_c,65,77,5,1,1,76.0,True
51402,2200, Note_on_c,70,77,5,1,1,81.0,False
51403,2200, Note_on_c,73,77,5,1,1,85.0,False
51404,2201, Note_on_c,72,77,5,1,1,84.0,True
51405,2201, Note_on_c,75,77,5,1,1,87.0,False
51406,2202, Note_on_c,70,77,5,1,1,81.0,False
51407,2202, Note_on_c,73,77,5,1,1,85.0,False
51408,2203, Note_on_c,72,77,5,1,1,84.0,True
51409,2203, Note_on_c,77,77,5,1,1,90.0,True
51410,2204, Note_on_c,65,77,5,1,1,76.0,True
51411,2205, Note_on_c,70,77,5,1,1,81.0,False
51412,2205, Note_on_c,73,77,5,1,1,85.0,False
51413,2206, Note_on_c,72,77,5,1,1,84.0,True
51414,2206, Note_on_c,75,77,5,1,1,87.0,False
51415,2207, Note_on_c,65,77,5,1,1,76.0,True
51416,2208, Note_on_c,70,77,5,1,1,81.0,False
51417,2208, Note_on_c,73,77,5,1,1,85.0,False
51418,2209, Note_on_c,72,77,5,1,1,84.0,True
51419,2209, Note_on_c,75,77,5,1,1,87.0,False
51420,2210, Note_on_c,70,77,5,1,1,81.0,False
51421,2210, Note_on_c,73,77,5,1,1,85.0,False
51422,2211, Note_on_c,72,77,5,1,1,84.0,True
51423,2211, Note_on_c,77,77,5,1,1,90.0,True
51424,2212, Note_on_c,65,77,5,1,1,76.0,True
51425,2213, Note_on_c,70,77,5,1,1,81.0,False
51426,2213, Note_on_c,73,77,5,1,1,85.0,False
51427,2214, Note_on_c,72,77,5,1,1,84.0,True
51428,2214, Note_on_c,75,77,5,1,1,87.0,False
51429,2215, Note_on_c,65,77,5,1,1,76.0,True
51430,2216, Note_on_c,70,77,5,1,1,81.0,False
51431,2216, Note_on_c,73,77,5,1,1,85.0,False
51432,2217, Note_on_c,72,77,5,1,1,84.0,True
51433,2217, Note_on_c,75,77,5,1,1,87.0,False
51434,2218, Note_on_c,70,77,5,1,1,81.0,False
51435,2218, Note_on_c,73,77,5,1,1,85.0,False
51436,2219, Note_on_c,72,77,5,1,1,84.0,True
51437,2219, Note_on_c,77,77,5,1,1,90.0,True
51438,2220, Note_on_c,65,77,5,1,1,76.0,True
51439,2221, Note_on_c,70,77,5,1,1,81.0,False
51440,2221, Note_on_c,73,77,5,1,1,85.0,False
51441,2222, Note_on_c,72,77,5,1,1,84.0,True
51442,2222, Note_on_c,75,77,5,1,1,87.0,False
51443,2223, Note_on_c,65,77,5,1,1,76.0,True
51444,2224, Note_on_c,70,77,5,1,1,81.0,False
51445,2224, Note_on_c,73,77,5,1,1,85.0,False
51446,2225, Note_on_c,72,77,5,1,1,84.0,True
51447,2225, Note_on_c,75,77,5,1,1,87.0,False
51448,2226, Note_on_c,70,77,5,1,1,81.0,False
51449,2226, Note_on_c,73,77,5,1,1,85.0,False
51450,2227, Note_on_c,72,77,5,1,1,84.0,True
51451,2227, Note_on_c,77,77,5,1,1,90.0,True
51452,2228, Note_on_c,65,77,5,1,1,76.0,True
51453,2229, Note_on_c,70,77,5,1,1,81.0,False
51454,2229, Note_on_c,73,77,5,1,1,85.0,False
51455,2230, Note_on_c,72,77,5,1,1,84.0,True
51456,2230, Note_on_c,75,77,5,1,1,87.0,False
51457,2231, Note_on_c,65,77,5,1,1,76.0,True
51458,2232, Note_on_c,70,77,5,1,1,81.0,False
51459,2232, Note_on_c,73,77,5,1,1,85.0,False
51460,2233, Note_on_c,72,77,5,1,1,84.0,True
51461,2233, Note_on_c,75,77,5,1,1,87.0,False
51462,2234, Note_on_c,70,77,5,1,1,81.0,False
51463,2234, Note_on_c,73,77,5,1,1,85.0,False
51464,2235, Note_on_c,72,77,5,1,1,84.0,True
51465,2235, Note_on_c,77,77,5,1,1,90.0,True
51466,2236, Note_on_c,65,77,5,1,1,76.0,True
51467,2237, Note_on_c,70,77,5,1,1,81.0,False
51468,2237, Note_on_c,73,77,5,1,1,85.0,False
51469,2238, Note_on_c,72,77,5,1,1,84.0,True
51470,2238, Note_on_c,75,77,5,1,1,87.0,False
51471,2239, Note_on_c,65,77,5,1,1,76.0,True
51472,2240, Note_on_c,70,77,5,1,1,81.0,False
51473,2240, Note_on_c,73,77,5,1,1,85.0,False
51474,2241, Note_on_c,72,77,5,1,1,84.0,True
51475,2241, Note_on_c,75,77,5,1,1,87.0,False
51476,2242, Note_on_c,70,77,5,1,1,81.0,False
51477,2242, Note_on_c,73,77,5,1,1,85.0,False
51478,2243, Note_on_c,72,77,5,1,1,84.0,True
51479,2243, Note_on_c,77,77,5,1,1,90.0,True
51480,2244, Note_on_c,65,77,5,1,1,76.0,True
51481,2245, Note_on_c,70,77,5,1,1,81.0,False
51482,2245, Note_on_c,73,77,5,1,1,85.0,False
51483,2246, Note_on_c,72,77,5,1,1,84.0,True
51484,2246, Note_on_c,75,77,5,1,1,87.0,False
51485,2247, Note_on_c,65,77,5,1,1,76.0,True
51486,2248, Note_on_c,70,77,5,1,1,81.0,False
51487,2248, Note_on_c,73,77,5,1,1,85.0,False
51488,2249, Note_on_c,72,77,5,1,1,84.0,True
51489,2249, Note_on_c,75,77,5,1,1,87.0,False
51490,2250, Note_on_c,70,77,5,1,1,81.0,False
51491,2250, Note_on_c,73,77,5,1,1,85.0,False
51492,2251, Note_on_c,72,77,5,1,1,84.0,True
51493,2251, Note_on_c,77,77,5,1,1,90.0,True
51494,2252, Note_on_c,65,77,5,1,1,76.0,True
51495,2253, Note_on_c,70,77,5,1,1,81.0,False
51496,2253, Note_on_c,73,77,5,1,1,85.0,False
51497,2254, Note_on_c,72,77,5,1,1,84.0,True
51498,2254, Note_on_c,75,77,5,1,1,87.0,False
51499,2255, Note_on_c,65,77,5,1,1,76.0,True
51500,2256, Note_on_c,70,77,5,1,1,81.0,False
51501,2256, Note_on_c,73,77,5,1,1,85.0,False
51502,2257, Note_on_c,72,77,5,1,1,84.0,True
51503,2257, Note_on_c,75,77,5,1,1,87.0,False
51504,2258, Note_on_c,70,77,5,1,1,81.0,False
51505,2258, Note_on_c,73,77,5,1,1,85.0,False
51506,2259, Note_on_c,72,77,5,1,1,84.0,True
51507,2259, Note_on_c,77,77,5,1,1,90.0,True
51508,2260, Note_on_c,65,77,5,1,1,76.0,True
51509,2261, Note_on_c,70,77,5,1,1,81.0,False
51510,2261, Note_on_c,73,77,5,1,1,85.0,False
51511,2262, Note_on_c,72,77,5,1,1,84.0,True
51512,2262, Note_on_c,75,77,5,1,1,87.0,False
51513,2263, Note_on_c,65,77,5,1,1,76.0,True
51514,2264, Note_on_c,70,77,5,1,1,81.0,False
51515,2264, Note_on_c,73,77,5,1,1,85.0,False
51516,2265, Note_on_c,72,77,5,1,1,84.0,True
51517,2265, Note_on_c,75,77,5,1,1,87.0,False
51518,2266, Note_on_c,70,77,5,1,1,81.0,False
51519,2266, Note_on_c,73,77,5,1,1,85.0,False
51520,2267, Note_on_c,72,77,5,1,1,84.0,True
51521,2267, Note_on_c,77,77,5,1,1,90.0,True
51522,2268, Note_on_c,65,77,5,1,1,76.0,True
51523,2269, Note_on_c,70,77,5,1,1,81.0,False
51524,2269, Note_on_c,73,77,5,1,1,85.0,False
51525,2270, Note_on_c,72,77,5,1,1,84.0,True
51526,2270, Note_on_c,75,77,5,1,1,87.0,False
51527,2271, Note_on_c,65,77,5,1,1,76.0,True
51528,2272, Note_on_c,70,77,5,1,1,81.0,False
51529,2272, Note_on_c,73,77,5,1,1,85.0,False
51530,2273, Note_on_c,72,77,5,1,1,84.0,True
51531,2273, Note_on_c,75,77,5,1,1,87.0,False
51532,2274, Note_on_c,70,77,5,1,1,81.0,False
51533,2274, Note_on_c,73,77,5,1,1,85.0,False
51534,2275, Note_on_c,72,77,5,1,1,84.0,True
51535,2275, Note_on_c,77,77,5,1,1,90.0,True
51536,2276, Note_on_c,65,77,5,1,1,76.0,True
51537,2277, Note_on_c,70,77,5,1,1,81.0,False
51538,2277, Note_on_c,73,77,5,1,1,85.0,False
51539,2278, Note_on_c,72,77,5,1,1,84.0,True
51540,2278, Note_on_c,75,77,5,1,1,87.0,False
51541,2279, Note_on_c,65,77,5,1,1,76.0,True
51542,2280, Note_on_c,70,77,5,1,1,81.0,False
51543,2280, Note_on_c,73,77,5,1,1,85.0,False
51544,2281, Note_on_c,72,77,5,1,1,84.0,True
51545,2281, Note_on_c,75,77,5,1,1,87.0,False
51546,2282, Note_on_c,70,77,5,1,1,81.0,False
51547,2282, Note_on_c,73,77,5,1,1,85.0,False
51548,2283, Note_on_c,72,77,5,1,1,84.0,True
51549,2283, Note_on_c,77,77,5,1,1,90.0,True
51550,2284, Note_on_c,65,77,5,1,1,76.0,True
51551,2285, Note_on_c,70,77,5,1,1,81.0,False
51552,2285, Note_on_c,73,77,5,1,1,85.0,False
51553,2286, Note_on_c,72,77,5,1,1,84.0,True
51554,2286, Note_on_c,75,77,5,1,1,87.0,False
51555,2287, Note_on_c,65,77,5,1,1,76.0,True
51556,2288, Note_on_c,70,77,5,1,1,81.0,False
51557,2288, Note_on_c,73,77,5,1,1,85.0,False
51558,2289, Note_on_c,72,77,5,1,1,84.0,True
51559,2289, Note_on_c,75,77,5,1,1,87.0,False
51560,2290, Note_on_c,70,77,5,1,1,81.0,False
51561,2290, Note_on_c,73,77,5,1,1,85.0,False
51562,2291, Note_on_c,72,77,5,1,1,84.0,True
51563,2291, Note_on_c,77,77,5,1,1,90.0,True
51564,2292, Note_on_c,65,77,5,1,1,76.0,True
51565,2293, Note_on_c,70,77,5,1,1,81.0,False
51566,2293, Note_on_c,73,77,5,1,1,85.0,False
51567,2294, Note_on_c,72,77,5,1,1,84.0,True
51568,2294, Note_on_c,75,77,5,1,1,87.0,False
51569,2295, Note_on_c,65,77,5,1,1,76.0,True
51570,2296, Note_on_c,70,77,5,1,1,81.0,False
51571,2296, Note_on_c,73,77,5,1,1,85.0,False
51572,2297, Note_on_c,72,77,5,1,1,84.0,True
51573,2297, Note_on_c,75,77,5,1,1,87.0,False
51574,2298, Note_on_c,70,77,5,1,1,81.0,False
51575,2298, Note_on_c,73,77,5,1,1,85.0,False
51576,2299, Note_on_c,72,77,5,1,1,84.0,True
51577,2299, Note_on_c,77,77,5,1,1,90.0,True
51578,2300, Note_on_c,65,77,5,1,1,76.0,True
51579,2301, Note_on_c,70,77,5,1,1,81.0,False
51580,2301, Note_on_c,73,77,5,1,1,85.0,False
51581,2302, Note_on_c,72,77,5,1,1,84.0,True
51582,2302, Note_on_c,75,77,5,1,1,87.0,False
51583,2303, Note_on_c,65,77,5,1,1,76.0,True
51584,2304, Note_on_c,70,77,5,1,1,81.0,False
51585,2304, Note_on_c,73,77,5,1,1,85.0,False
51586,2305, Note_on_c,72,77,5,1,1,84.0,True
51587,2305, Note_on_c,75,77,5,1,1,87.0,False
51588,2306, Note_on_c,70,77,5,1,1,81.0,False
51589,2306, Note_on_c,73,77,5,1,1,85.0,False
51590,2307, Note_on_c,72,77,5,1,1,84.0,True
51591,2307, Note_on_c,77,77,5,1,1,90.0,True
51592,2308, Note_on_c,65,77,5,1,1,76.0,True
51593,2309, Note_on_c,70,77,5,1,1,81.0,False
51594,2309, Note_on_c,73,77,5,1,1,85.0,False
51595,2310, Note_on_c,72,77,5,1,1,84.0,True
51596,2310, Note_on_c,75,77,5,1,1,87.0,False
51597,2311, Note_on_c,65,77,5,1,1,76.0,True
51598,2312, Note_on_c,70,77,5,1,1,81.0,False
51599,2312, Note_on_c,73,77,5,1,1,85.0,False
51600,2313, Note_on_c,72,77,5,1,1,84.0,True
51601,2313, Note_on_c,75,77,5,1,1,87.0,False
51602,2314, Note_on_c,70,77,5,1,1,81.0,False
51603,2314, Note_on_c,73,77,5,1,1,85.0,False
51604,2315, Note_on_c,72,77,5,1,1,84.0,True
51605,2315, Note_on_c,77,77,5,1,1,90.0,True
51606,2316, Note_on_c,65,77,5,1,1,76.0,True
51607,2317, Note_on_c,70,77,5,1,1,81.0,False
51608,2317, Note_on_c,73,77,5,1,1,85.0,False
51609,2318, Note_on_c,72,77,5,1,1,84.0,True
51610,2318, Note_on_c,75,77,5,1,1,87.0,False
51611,2319, Note_on_c,65,77,5,1,1,76.0,True
51612,2320, Note_on_c,70,77,5,1,1,81.0,False
51613,2320, Note_on_c,73,77,5,1,1,85.0,False
51614,2321, Note_on_c,72,77,5,1,1,84.0,True
51615,2321, Note_on_c,75,77,5,1,1,87.0,False
51616,2322, Note_on_c,70,77,5,1,1,81.0,False
51617,2322, Note_on_c,73,77,5,1,1,85.0,False
51618,2323, Note_on_c,72,77,5,1,1,84.0,True
51619,2323, Note_on_c,77,77,5,1,1,90.0,True
51620,2324, Note_on_c,65,77,5,1,1,76.0,True
51621,2325, Note_on_c,70,77,5,1,1,81.0,False
51622,2325, Note_on_c,73,77,5,1,1,85.0,False
51623,2326, Note_on_c,72,77,5,1,1,84.0,True
51624,2326, Note_on_c,75,77,5,1,1,87.0,False
51625,2327, Note_on_c,65,77,5,1,1,76.0,True
51626,2328, Note_on_c,70,77,5,1,1,81.0,False
51627,2328, Note_on_c,73,77,5,1,1,85.0,False
51628,2329, Note_on_c,72,77,5,1,1,84.0,True
51629,2329, Note_on_c,75,77,5,1,1,87.0,False
51630,2330, Note_on_c,70,77,5,1,1,81.0,False
51631,2330, Note_on_c,73,77,5,1,1,85.0,False
51632,2331, Note_on_c,72,77,5,1,1,84.0,True
51633,2331, Note_on_c,77,77,5,1,1,90.0,True
51634,2332, Note_on_c,65,77,5,1,1,76.0,True
51635,2333, Note_on_c,70,77,5,1,1,81.0,False
51636,2333, Note_on_c,73,77,5,1,1,85.0,False
51637,2334, Note_on_c,72,77,5,1,1,84.0,True
51638,2334, Note_on_c,75,77,5,1,1,87.0,False
51639,2335, Note_on_c,65,77,5,1,1,76.0,True
51640,2336, Note_on_c,70,77,5,1,1,81.0,False
51641,2336, Note_on_c,73,77,5,1,1,85.0,False
51642,2337, Note_on_c,72,77,5,1,1,84.0,True
51643,2337, Note_on_c,75,77,5,1,1,87.0,False
51644,2338, Note_on_c,70,77,5,1,1,81.0,False
51645,2338, Note_on_c,73,77,5,1,1,85.0,False
51646,2339, Note_on_c,72,77,5,1,1,84.0,True
51647,2339, Note_on_c,77,77,5,1,1,90.0,True
51648,2340, Note_on_c,65,77,5,1,1,76.0,True
51649,2341, Note_on_c,70,77,5,1,1,81.0,False
51650,2341, Note_on_c,73,77,5,1,1,85.0,False
51651,2342, Note_on_c,72,77,5,1,1,84.0,True
51652,2342, Note_on_c,75,77,5,1,1,87.0,False
51653,2343, Note_on_c,65,77,5,1,1,76.0,True
51654,2344, Note_on_c,70,77,5,1,1,81.0,False
51655,2344, Note_on_c,73,77,5,1,1,85.0,False
51656,2345, Note_on_c,72,77,5,1,1,84.0,True
51657,2345, Note_on_c,75,77,5,1,1,87.0,False
51658,2346, Note_on_c,70,77,5,1,1,81.0,False
51659,2346, Note_on_c,73,77,5,1,1,85.0,False
51660,2347, Note_on_c,72,77,5,1,1,84.0,True
51661,2347, Note_on_c,77,77,5,1,1,90.0,True
51662,2348, Note_on_c,65,77,5,1,1,76.0,True
51663,2349, Note_on_c,70,77,5,1,1,81.0,False
51664,2349, Note_on_c,73,77,5,1,1,85.0,False
51665,2350, Note_on_c,72,77,5,1,1,84.0,True
51666,2350, Note_on_c,75,77,5,1,1,87.0,False
51667,2351, Note_on_c,65,77,5,1,1,76.0,True
51668,2352, Note_on_c,70,77,5,1,1,81.0,False
51669,2352, Note_on_c,73,77,5,1,1,85.0,False
51670,2353, Note_on_c,72,77,5,1,1,84.0,True
51671,2353, Note_on_c,75,77,5,1,1,87.0,False
51672,2354, Note_on_c,70,77,5,1,1,81.0,False
51673,2354, Note_on_c,73,77,5,1,1,85.0,False
51674,2355, Note_on_c,72,77,5,1,1,84.0,True
51675,2355, Note_on_c,77,77,5,1,1,90.0,True
51676,2356, Note_on_c,65,77,5,1,1,76.0,True
51677,2357, Note_on_c,70,77,5,1,1,81.0,False
51678,2357, Note_on_c,73,77,5,1,1,85.0,False
51679,2358, Note_on_c,72,77,5,1,1,84.0,True
51680,2358, Note_on_c,75,77,5,1,1,87.0,False
51681,2359, Note_on_c,65,77,5,1,1,76.0,True
51682,2360, Note_on_c,70,77,5,1,1,81.0,False
51683,2360, Note_on_c,73,77,5,1,1,85.0,False
51684,2361, Note_on_c,72,77,5,1,1,84.0,True
51685,2361, Note_on_c,75,77,5,1,1,87.0,False
51686,2362, Note_on_c,70,77,5,1,1,81.0,False
51687,2362, Note_on_c,73,77,5,1,1,85.0,False
51688,2363, Note_on_c,72,77,5,1,1,84.0,True
51689,2363, Note_on_c,77,77,5,1,1,90.0,True
51690,2364, Note_on_c,65,77,5,1,1,76.0,True
51691,2365, Note_on_c,70,77,5,1,1,81.0,False
51692,2365, Note_on_c,73,77,5,1,1,85.0,False
51693,2366, Note_on_c,72,77,5,1,1,84.0,True
51694,2366, Note_on_c,75,77,5,1,1,87.0,False
51695,2367, Note_on_c,65,77,5,1,1,76.0,True
51696,2368, Note_on_c,70,77,5,1,1,81.0,False
51697,2368, Note_on_c,73,77,5,1,1,85.0,False
51698,2369, Note_on_c,72,77,5,1,1,84.0,True
51699,2369, Note_on_c,75,77,5,1,1,87.0,False
51700,2370, Note_on_c,70,77,5,1,1,81.0,False
51701,2370, Note_on_c,73,77,5,1,1,85.0,False
51702,2371, Note_on_c,72,77,5,1,1,84.0,True
51703,2371, Note_on_c,77,77,5,1,1,90.0,True
51704,2372, Note_on_c,65,77,5,1,1,76.0,True
51705,2373, Note_on_c,70,77,5,1,1,81.0,False
51706,2373, Note_on_c,73,77,5,1,1,85.0,False
51707,2374, Note_on_c,72,77,5,1,1,84.0,True
51708,2374, Note_on_c,75,77,5,1,1,87.0,False
51709,2375, Note_on_c,65,77,5,1,1,76.0,True
51710,2376, Note_on_c,70,77,5,1,1,81.0,False
51711,2376, Note_on_c,73,77,5,1,1,85.0,False
51712,2377, Note_on_c,72,77,5,1,1,84.0,True
51713,2377, Note_on_c,75,77,5,1,1,87.0,False
51714,2378, Note_on_c,70,77,5,1,1,81.0,False
51715,2378, Note_on_c,73,77,5,1,1,85.0,False
51716,2379, Note_on_c,72,77,5,1,1,84.0,True
51717,2379, Note_on_c,77,77,5,1,1,90.0,True
51718,2380, Note_on_c,65,77,5,1,1,76.0,True
51719,2381, Note_on_c,70,77,5,1,1,81.0,False
51720,2381, Note_on_c,73,77,5,1,1,85.0,False
51721,2382, Note_on_c,72,77,5,1,1,84.0,True
51722,2382, Note_on_c,75,77,5,1,1,87.0,False
51723,2383, Note_on_c,65,77,5,1,1,76.0,True
51724,2384, Note_on_c,70,77,5,1,1,81.0,False
51725,2384, Note_on_c,73,77,5,1,1,85.0,False
51726,2385, Note_on_c,72,77,5,1,1,84.0,True
51727,2385, Note_on_c,75,77,5,1,1,87.0,False
51728,2386, Note_on_c,70,77,5,1,1,81.0,False
51729,2386, Note_on_c,73,77,5,1,1,85.0,False
51730,2387, Note_on_c,72,77,5,1,1,84.0,True
51731,2387, Note_on_c,77,77,5,1,1,90.0,True
51732,2388, Note_on_c,65,77,5,1,1,76.0,True
51733,2389, Note_on_c,70,77,5,1,1,81.0,False
51734,2389, Note_on_c,73,77,5,1,1,85.0,False
51735,2390, Note_on_c,72,77,5,1,1,84.0,True
51736,2390, Note_on_c,75,77,5,1,1,87.0,False
51737,2391, Note_on_c,65,77,5,1,1,76.0,True
51738,2392, Note_on_c,70,77,5,1,1,81.0,False
51739,2392, Note_on_c,73,77,5,1,1,85.0,False
51740,2393, Note_on_c,72,77,5,1,1,84.0,True
51741,2393, Note_on_c,75,77,5,1,1,87.0,False
51742,2394, Note_on_c,70,77,5,1,1,81.0,False
51743,2394, Note_on_c,73,77,5,1,1,85.0,False
51744,2395, Note_on_c,72,77,5,1,1,84.0,True
51745,2395, Note_on_c,77,77,5,1,1,90.0,True
51746,2396, Note_on_c,65,77,5,1,1,76.0,True
51747,2397, Note_on_c,70,77,5,1,1,81.0,False
51748,2397, Note_on_c,73,77,5,1,1,85.0,False
51749,2398, Note_on_c,72,77,5,1,1,84.0,True
51750,2398, Note_on_c,75,77,5,1,1,87.0,False
51751,2399, Note_on_c,65,77,5,1,1,76.0,True
51752,2400, Note_on_c,70,77,5,1,1,81.0,False
51753,2400, Note_on_c,73,77,5,1,1,85.0,False
51754,2401, Note_on_c,72,77,5,1,1,84.0,True
51755,2401, Note_on_c,75,77,5,1,1,87.0,False
51756,2402, Note_on_c,70,77,5,1,1,81.0,False
51757,2402, Note_on_c,73,77,5,1,1,85.0,False
51758,2403, Note_on_c,72,77,5,1,1,84.0,True
51759,2403, Note_on_c,77,77,5,1,1,90.0,True
51760,2404, Note_on_c,65,77,5,1,1,76.0,True
51761,2405, Note_on_c,70,77,5,1,1,81.0,False
51762,2405, Note_on_c,73,77,5,1,1,85.0,False
51763,2406, Note_on_c,72,77,5,1,1,84.0,True
51764,2406, Note_on_c,75,77,5,1,1,87.0,False
51765,2407, Note_on_c,65,77,5,1,1,76.0,True
51766,2408, Note_on_c,70,77,5,1,1,81.0,False
51767,2408, Note_on_c,73,77,5,1,1,85.0,False
51768,2409, Note_on_c,72,77,5,1,1,84.0,True
51769,2409, Note_on_c,75,77,5,1,1,87.0,False
51770,2410, Note_on_c,70,77,5,1,1,81.0,False
51771,2410, Note_on_c,73,77,5,1,1,85.0,False
51772,2411, Note_on_c,72,77,5,1,1,84.0,True
51773,2411, Note_on_c,77,77,5,1,1,90.0,True
51774,2412, Note_on_c,65,77,5,1,1,76.0,True
51775,2413, Note_on_c,70,77,5,1,1,81.0,False
51776,2413, Note_on_c,73,77,5,1,1,85.0,False
51777,2414, Note_on_c,72,77,5,1,1,84.0,True
51778,2414, Note_on_c,75,77,5,1,1,87.0,False
51779,2415, Note_on_c,65,77,5,1,1,76.0,True
51780,2416, Note_on_c,70,77,5,1,1,81.0,False
51781,2416, Note_on_c,73,77,5,1,1,85.0,False
51782,2417, Note_on_c,72,77,5,1,1,84.0,True
51783,2417, Note_on_c,75,77,5,1,1,87.0,False
51784,2418, Note_on_c,70,77,5,1,1,81.0,False
51785,2418, Note_on_c,73,77,5,1,1,85.0,False
51786,2419, Note_on_c,72,77,5,1,1,84.0,True
51787,2419, Note_on_c,77,77,5,1,1,90.0,True
51788,2420, Note_on_c,65,77,5,1,1,76.0,True
51789,2421, Note_on_c,70,77,5,1,1,81.0,False
51790,2421, Note_on_c,73,77,5,1,1,85.0,False
51791,2422, Note_on_c,72,77,5,1,1,84.0,True
51792,2422, Note_on_c,75,77,5,1,1,87.0,False
51793,2423, Note_on_c,65,77,5,1,1,76.0,True
51794,2424, Note_on_c,70,77,5,1,1,81.0,False
51795,2424, Note_on_c,73,77,5,1,1,85.0,False
51796,2425, Note_on_c,72,77,5,1,1,84.0,True
51797,2425, Note_on_c,75,77,5,1,1,87.0,False
51798,2426, Note_on_c,70,77,5,1,1,81.0,False
51799,2426, Note_on_c,73,77,5,1,1,85.0,False
51800,2427, Note_on_c,72,77,5,1,1,84.0,True
51801,2427, Note_on_c,77,77,5,1,1,90.0,True
51802,2428, Note_on_c,65,77,5,1,1,76.0,True
51803,2429, Note_on_c,70,77,5,1,1,81.0,False
51804,2429, Note_on_c,73,77,5,1,1,85.0,False
51805,2430, Note_on_c,72,77,5,1,1,84.0,True
51806,2430, Note_on_c,75,77,5,1,1,87.0,False
51807,2431, Note_on_c,65,77,5,1,1,76.0,True
51808,2432, Note_on_c,70,77,5,1,1,81.0,False
51809,2432, Note_on_c,73,77,5,1,1,85.0,False
51810,2433, Note_on_c,72,77,5,1,1,84.0,True
51811,2433, Note_on_c,75,77,5,1,1,87.0,False
51812,2434, Note_on_c,70,77,5,1,1,81.0,False
51813,2434, Note_on_c,73,77,5,1,1,85.0,False
51814,2435, Note_on_c,72,77,5,1,1,84.0,True
51815,2435, Note_on_c,77,77,5,1,1,90.0,True
51816,2436, Note_on_c,65,77,5,1,1,76.0,True
51817,2437, Note_on_c,70,77,5,1,1,81.0,False
51818,2437, Note_on_c,73,77,5,1,1,85.0,False
51819,2438, Note_on_c,72,77,5,1,1,84.0,True
51820,2438, Note_on_c,75,77,5,1,1,87.0,False
51821,2439, Note_on_c,65,77,5,1,1,76.0,True
51822,2440, Note_on_c,70,77,5,1,1,81.0,False
51823,2440, Note_on_c,73,77,5,1,1,85.0,False
51824,2441, Note_on_c,72,77,5,1,1,84.0,True
51825,2441, Note_on_c,75,77,5,1,1,87.0,False
51826,2442, Note_on_c,70,77,5,1,1,81.0,False
51827,2442, Note_on_c,73,77,5,1,1,85.0,False
51828,2443, Note_on_c,72,77,5,1,1,84.0,True
51829,2443, Note_on_c,77,77,5,1,1,90.0,True
51830,2444, Note_on_c,65,77,5,1,1,76.0,True
51831,2445, Note_on_c,70,77,5,1,1,81.0,False
51832,2445, Note_on_c,73,77,5,1,1,85.0,False
51833,2446, Note_on_c,72,77,5,1,1,84.0,True
51834,2446, Note_on_c,75,77,5,1,1,87.0,False
51835,2447, Note_on_c,65,77,5,1,1,76.0,True
51836,2448, Note_on_c,70,77,5,1,1,81.0,False
51837,2448, Note_on_c,73,77,5,1,1,85.0,False
51838,2449, Note_on_c,72,77,5,1,1,84.0,True
51839,2449, Note_on_c,75,77,5,1,1,87.0,False
51840,2450, Note_on_c,70,77,5,1,1,81.0,False
51841,2450, Note_on_c,73,77,5,1,1,85.0,False
51842,2451, Note_on_c,72,77,5,1,1,84.0,True
51843,2451, Note_on_c,77,77,5,1,1,90.0,True
51844,2452, Note_on_c,65,77,5,1,1,76.0,True
51845,2453, Note_on_c,70,77,5,1,1,81.0,False
51846,2453, Note_on_c,73,77,5,1,1,85.0,False
51847,2454, Note_on_c,72,77,5,1,1,84.0,True
51848,2454, Note_on_c,75,77,5,1,1,87.0,False
51849,2455, Note_on_c,65,77,5,1,1,76.0,True
51850,2456, Note_on_c,70,77,5,1,1,81.0,False
51851,2456, Note_on_c,73,77,5,1,1,85.0,False
51852,2457, Note_on_c,72,77,5,1,1,84.0,True
51853,2457, Note_on_c,75,77,5,1,1,87.0,False
51854,2458, Note_on_c,70,77,5,1,1,81.0,False
51855,2458, Note_on_c,73,77,5,1,1,85.0,False
51856,2459, Note_on_c,72,77,5,1,1,84.0,True
51857,2459, Note_on_c,77,77,5,1,1,90.0,True
51858,2460, Note_on_c,65,77,5,1,1,76.0,True
51859,2461, Note_on_c,70,77,5,1,1,81.0,False
51860,2461, Note_on_c,73,77,5,1,1,85.0,False
51861,2462, Note_on_c,72,77,5,1,1,84.0,True
51862,2462, Note_on_c,75,77,5,1,1,87.0,False
51863,2463, Note_on_c,65,77,5,1,1,76.0,True
51864,2464, Note_on_c,70,77,5,1,1,81.0,False
51865,2464, Note_on_c,73,77,5,1,1,85.0,False
51866,2465, Note_on_c,72,77,5,1,1,84.0,True
51867,2465, Note_on_c,75,77,5,1,1,87.0,False
51868,2466, Note_on_c,70,77,5,1,1,81.0,False
51869,2466, Note_on_c,73,77,5,1,1,85.0,False
51870,2467, Note_on_c,72,77,5,1,1,84.0,True
51871,2467, Note_on_c,77,77,5,1,1,90.0,True
51872,2468, Note_on_c,65,77,5,1,1,76.0,True
51873,2469, Note_on_c,70,77,5,1,1,81.0,False
51874,2469, Note_on_c,73,77,5,1,1,85.0,False
51875,2470, Note_on_c,72,77,5,1,1,84.0,True
51876,2470, Note_on_c,75,77,5,1,1,87.0,False
51877,2471, Note_on_c,65,77,5,1,1,76.0,True
51878,2472, Note_on_c,70,77,5,1,1,81.0,False
51879,2472, Note_on_c,73,77,5,1,1,85.0,False
51880,2473, Note_on_c,72,77,5,1,1,84.0,True
51881,2473, Note_on_c,75,77,5,1,1,87.0,False
51882,2474, Note_on_c,70,77,5,1,1,81.0,False
51883,2474, Note_on_c,73,77,5,1,1,85.0,False
51884,2475, Note_on_c,72,77,5,1,1,84.0,True
51885,2475, Note_on_c,77,77,5,1,1,90.0,True
51886,2476, Note_on_c,65,77,5,1,1,76.0,True
51887,2477, Note_on_c,70,77,5,1,1,81.0,False
51888,2477, Note_on_c,73,77,5,1,1,85.0,False
51889,2478, Note_on_c,72,77,5,1,1,84.0,True
51890,2478, Note_on_c,75,77,5,1,1,87.0,False
51891,2479, Note_on_c,65,77,5,1,1,76.0,True
51892,2480, Note_on_c,70,77,5,1,1,81.0,False
51893,2480, Note_on_c,73,77,5,1,1,85.0,False
51894,2481, Note_on_c,72,77,5,1,1,84.0,True
51895,2481, Note_on_c,75,77,5,1,1,87.0,False
51896,2482, Note_on_c,70,77,5,1,1,81.0,False
51897,2482, Note_on_c,73,77,5,1,1,85.0,False
51898,2483, Note_on_c,72,77,5,1,1,84.0,True
51899,2483, Note_on_c,77,77,5,1,1,90.0,True
51900,2484, Note_on_c,65,77,5,1,1,76.0,True
51901,2485, Note_on_c,70,77,5,1,1,81.0,False
51902,2485, Note_on_c,73,77,5,1,1,85.0,False
51903,2486, Note_on_c,72,77,5,1,1,84.0,True
51904,2486, Note_on_c,75,77,5,1,1,87.0,False
51905,2487, Note_on_c,65,77,5,1,1,76.0,True
51906,2488, Note_on_c,70,77,5,1,1,81.0,False
51907,2488, Note_on_c,73,77,5,1,1,85.0,False
51908,2489, Note_on_c,72,77,5,1,1,84.0,True
51909,2489, Note_on_c,75,77,5,1,1,87.0,False
51910,2490, Note_on_c,70,77,5,1,1,81.0,False
51911,2490, Note_on_c,73,77,5,1,1,85.0,False
51912,2491, Note_on_c,72,77,5,1,1,84.0,True
51913,2491, Note_on_c,77,77,5,1,1,90.0,True
51914,2492, Note_on_c,65,77,5,1,1,76.0,True
51915,2493, Note_on_c,70,77,5,1,1,81.0,False
51916,2493, Note_on_c,73,77,5,1,1,85.0,False
51917,2494, Note_on_c,72,77,5,1,1,84.0,True
51918,2494, Note_on_c,75,77,5,1,1,87.0,False
51919,2495, Note_on_c,65,77,5,1,1,76.0,True
51920,2496, Note_on_c,70,77,5,1,1,81.0,False
51921,2496, Note_on_c,73,77,5,1,1,85.0,False
51922,2497, Note_on_c,72,77,5,1,1,84.0,True
51923,2497, Note_on_c,75,77,5,1,1,87.0,False
51924,2498, Note_on_c,70,77,5,1,1,81.0,False
51925,2498, Note_on_c,73,77,5,1,1,85.0,False
51926,2499, Note_on_c,72,77,5,1,1,84.0,True
51927,2499, Note_on_c,77,77,5,1,1,90.0,True
51928,2500, Note_on_c,65,77,5,1,1,76.0,True
51929,2501, Note_on_c,70,77,5,1,1,81.0,False
51930,2501, Note_on_c,73,77,5,1,1,85.0,False
51931,2502, Note_on_c,72,77,5,1,1,84.0,True
51932,2502, Note_on_c,75,77,5,1,1,87.0,False
51933,2503, Note_on_c,65,77,5,1,1,76.0,True
51934,2504, Note_on_c,70,77,5,1,1,81.0,False
51935,2504, Note_on_c,73,77,5,1,1,85.0,False
51936,2505, Note_on_c,72,77,5,1,1,84.0,True
51937,2505, Note_on_c,75,77,5,1,1,87.0,False
51938,2506, Note_on_c,70,77,5,1,1,81.0,False
51939,2506, Note_on_c,73,77,5,1,1,85.0,False
51940,2507, Note_on_c,72,77,5,1,1,84.0,True
51941,2507, Note_on_c,77,77,5,1,1,90.0,True
51942,2508, Note_on_c,65,77,5,1,1,76.0,True
51943,2509, Note_on_c,70,77,5,1,1,81.0,False
51944,2509, Note_on_c,73,77,5,1,1,85.0,False
51945,2510, Note_on_c,72,77,5,1,1,84.0,True
51946,2510, Note_on_c,75,77,5,1,1,87.0,False
51947,2511, Note_on_c,65,77,5,1,1,76.0,True
51948,2512, Note_on_c,70,77,5,1,1,81.0,False
51949,2512, Note_on_c,73,77,5,1,1,85.0,False
51950,2513, Note_on_c,72,77,5,1,1,84.0,True
51951,2513, Note_on_c,75,77,5,1,1,87.0,False
51952,2514, Note_on_c,70,77,5,1,1,81.0,False
51953,2514, Note_on_c,73,77,5,1,1,85.0,False
51954,2515, Note_on_c,72,77,5,1,1,84.0,True
51955,2515, Note_on_c,77,77,5,1,1,90.0,True
51956,2516, Note_on_c,65,77,5,1,1,76.0,True
51957,2517, Note_on_c,70,77,5,1,1,81.0,False
51958,2517, Note_on_c,73,77,5,1,1,85.0,False
51959,2518, Note_on_c,72,77,5,1,1,84.0,True
51960,2518, Note_on_c,75,77,5,1,1,87.0,False
51961,2519, Note_on_c,65,77,5,1,1,76.0,True
51962,2520, Note_on_c,70,77,5,1,1,81.0,False
51963,2520, Note_on_c,73,77,5,1,1,85.0,False
51964,2521, Note_on_c,72,77,5,1,1,84.0,True
51965,2521, Note_on_c,75,77,5,1,1,87.0,False
51966,2522, Note_on_c,70,77,5,1,1,81.0,False
51967,2522, Note_on_c,73,77,5,1,1,85.0,False
51968,2523, Note_on_c,72,77,5,1,1,84.0,True
51969,2523, Note_on_c,77,77,5,1,1,90.0,True
51970,2524, Note_on_c,65,77,5,1,1,76.0,True
51971,2525, Note_on_c,70,77,5,1,1,81.0,False
51972,2525, Note_on_c,73,77,5,1,1,85.0,False
51973,2526, Note_on_c,72,77,5,1,1,84.0,True
51974,2526, Note_on_c,75,77,5,1,1,87.0,False
51975,2527, Note_on_c,65,77,5,1,1,76.0,True
51976,2528, Note_on_c,70,77,5,1,1,81.0,False
51977,2528, Note_on_c,73,77,5,1,1,85.0,False
51978,2529, Note_on_c,72,77,5,1,1,84.0,True
51979,2529, Note_on_c,75,77,5,1,1,87.0,False
51980,2530, Note_on_c,70,77,5,1,1,81.0,False
51981,2530, Note_on_c,73,77,5,1,1,85.0,False
51982,2531, Note_on_c,72,77,5,1,1,84.0,True
51983,2531, Note_on_c,77,77,5,1,1,90.0,True
51984,2532, Note_on_c,65,77,5,1,1,76.0,True
51985,2533, Note_on_c,70,77,5,1,1,81.0,False
51986,2533, Note_on_c,73,77,5,1,1,85.0,False
51987,2534, Note_on_c,72,77,5,1,1,84.0,True
51988,2534, Note_on_c,75,77,5,1,1,87.0,False
51989,2535, Note_on_c,65,77,5,1,1,76.0,True
51990,2536, Note_on_c,70,77,5,1,1,81.0,False
51991,2536, Note_on_c,73,77,5,1,1,85.0,False
51992,2537, Note_on_c,72,77,5,1,1,84.0,True
51993,2537, Note_on_c,75,77,5,1,1,87.0,False
51994,2538, Note_on_c,70,75,5,1,1,81.0,False
51995,2538, Note_on_c,73,75,5,1,1,85.0,False
51996,2539, Note_on_c,72,73,5,1,1,84.0,True
51997,2539, Note_on_c,77,73,5,1,1,90.0,True
51998,2540, Note_on_c,65,71,5,1,1,76.0,True
51999,2541, Note_on_c,70,69,5,1,1,81.0,False
52000,2541, Note_on_c,73,69,5,1,1,85.0,False
52001,2542, Note_on_c,72,67,5,1,1,84.0,True
52002,2542, Note_on_c,75,67,5,1,1,87.0,False
52003,2543, Note_on_c,65,66,5,1,1,76.0,True
52004,2544, Note_on_c,70,64,5,1,1,81.0,False
52005,2544, Note_on_c,73,64,5,1,1,85.0,False
52006,2545, Note_on_c,72,62,5,1,1,84.0,True
52007,2545, Note_on_c,75,62,5,1,1,87.0,False
52008,2546, Note_on_c,70,60,5,1,1,81.0,False
52009,2546, Note_on_c,73,60,5,1,1,85.0,False
52010,2547, Note_on_c,72,58,5,1,1,84.0,True
52011,2547, Note_on_c,77,58,5,1,1,90.0,True
52012,2548, Note_on_c,65,56,5,1,1,76.0,True
52013,2549, Note_on_c,70,54,5,1,1,81.0,False
52014,2549, Note_on_c,73,54,5,1,1,85.0,False
52015,2550, Note_on_c,72,52,5,1,1,84.0,True
52016,2550, Note_on_c,75,52,5,1,1,87.0,False
52017,2551, Note_on_c,65,51,5,1,1,76.0,True
52018,2552, Note_on_c,70,49,5,1,1,81.0,False
52019,2552, Note_on_c,73,49,5,1,1,85.0,False
52020,2553, Note_on_c,72,47,5,1,1,84.0,True
52021,2553, Note_on_c,75,47,5,1,1,87.0,False
52022,2554, Note_on_c,70,45,5,1,1,81.0,False
52023,2554, Note_on_c,73,45,5,1,1,85.0,False
52024,2555, Note_on_c,72,43,5,1,1,84.0,True
52025,2555, Note_on_c,77,43,5,1,1,90.0,True
52026,2556, Note_on_c,65,41,5,1,1,76.0,True
52027,2557, Note_on_c,70,39,5,1,1,81.0,False
52028,2557, Note_on_c,73,39,5,1,1,85.0,False
52029,2558, Note_on_c,72,37,5,1,1,84.0,True
52030,2558, Note_on_c,75,37,5,1,1,87.0,False
52031,2559, Note_on_c,65,35,5,1,1,76.0,True
52032,2560, Note_on_c,70,34,5,1,1,81.0,False
52033,2560, Note_on_c,73,34,5,1,1,85.0,False
52034,2561, Note_on_c,72,32,5,1,1,84.0,True
52035,2561, Note_on_c,75,32,5,1,1,87.0,False
52036,2562, Note_on_c,70,30,5,1,1,81.0,False
52037,2562, Note_on_c,73,30,5,1,1,85.0,False
52038,2563, Note_on_c,72,28,5,1,1,84.0,True
52039,2563, Note_on_c,77,28,5,1,1,90.0,True
52040,2564, Note_on_c,65,26,5,1,1,76.0,True
52041,2565, Note_on_c,70,24,5,1,1,81.0,False
52042,2565, Note_on_c,73,24,5,1,1,85.0,False
52043,2566, Note_on_c,72,22,5,1,1,84.0,True
52044,2566, Note_on_c,75,22,5,1,1,87.0,False
52045,2567, Note_on_c,65,20,5,1,1,76.0,True
52046,2568, Note_on_c,70,18,5,1,1,81.0,False
52047,2568, Note_on_c,73,18,5,1,1,85.0,False
52048,2569, Note_on_c,72,17,5,1,1,84.0,True
52049,2569, Note_on_c,75,17,5,1,1,87.0,False
52050,2570, Note_on_c,70,15,5,1,1,81.0,False
52051,2570, Note_on_c,73,15,5,1,1,85.0,False
52052,2571, Note_on_c,72,13,5,1,1,84.0,True
52053,2571, Note_on_c,77,13,5,1,1,90.0,True
52054,2572, Note_on_c,65,11,5,1,1,76.0,True
52055,2573, Note_on_c,70,9,5,1,1,81.0,False
52056,2573, Note_on_c,73,9,5,1,1,85.0,False
52057,2574, Note_on_c,72,7,5,1,1,84.0,True
52058,2574, Note_on_c,75,7,5,1,1,87.0,False
52059,2575, Note_on_c,65,5,5,1,1,76.0,True
52060,2576, Note_on_c,70,3,5,1,1,81.0,False
52061,2576, Note_on_c,73,3,5,1,1,85.0,False
52062,2701, Note_on_c,63,108,5,2,1,73.0,False
52063,2701, Note_on_c,66,108,5,2,1,77.0,False
52064,2709, Note_on_c,63,108,5,2,1,73.0,False
52065,2709, Note_on_c,66,108,5,2,1,77.0,False
52066,2717, Note_on_c,63,108,5,2,1,73.0,False
52067,2717, Note_on_c,66,108,5,2,1,77.0,False
52068,2725, Note_on_c,63,108,5,2,1,73.0,False
52069,2725, Note_on_c,66,108,5,2,1,77.0,False
52070,2733, Note_on_c,63,108,5,2,1,73.0,False
52071,2733, Note_on_c,66,108,5,2,1,77.0,False
52072,2741, Note_on_c,63,108,5,2,1,73.0,False
52073,2741, Note_on_c,66,108,5,2,1,77.0,False
52074,2749, Note_on_c,63,108,5,2,1,73.0,False
52075,2749, Note_on_c,66,108,5,2,1,77.0,False
52076,2757, Note_on_c,63,108,5,2,1,73.0,False
52077,2757, Note_on_c,66,108,5,2,1,77.0,False
52078,2765, Note_on_c,63,108,5,2,1,73.0,False
52079,2765, Note_on_c,66,108,5,2,1,77.0,False
52080,2766, Note_on_c,65,108,5,2,1,76.0,True
52081,2766, Note_on_c,70,108,5,2,1,81.0,False
52082,2773, Note_on_c,63,108,5,2,1,73.0,False
52083,2773, Note_on_c,66,108,5,2,1,77.0,False
52084,2774, Note_on_c,65,108,5,2,1,76.0,True
52085,2774, Note_on_c,70,108,5,2,1,81.0,False
52086,2781, Note_on_c,63,108,5,2,1,73.0,False
52087,2781, Note_on_c,66,108,5,2,1,77.0,False
52088,2782, Note_on_c,65,108,5,2,1,76.0,True
52089,2782, Note_on_c,70,108,5,2,1,81.0,False
52090,2789, Note_on_c,63,108,5,2,1,73.0,False
52091,2789, Note_on_c,66,108,5,2,1,77.0,False
52092,2790, Note_on_c,65,108,5,2,1,76.0,True
52093,2790, Note_on_c,70,108,5,2,1,81.0,False
52094,2797, Note_on_c,63,108,5,2,1,73.0,False
52095,2797, Note_on_c,66,108,5,2,1,77.0,False
52096,2798, Note_on_c,65,108,5,2,1,76.0,True
52097,2798, Note_on_c,70,108,5,2,1,81.0,False
52098,2805, Note_on_c,63,108,5,2,1,73.0,False
52099,2805, Note_on_c,66,108,5,2,1,77.0,False
52100,2806, Note_on_c,65,108,5,2,1,76.0,True
52101,2806, Note_on_c,70,108,5,2,1,81.0,False
52102,2813, Note_on_c,63,108,5,2,1,73.0,False
52103,2813, Note_on_c,66,108,5,2,1,77.0,False
52104,2814, Note_on_c,65,108,5,2,1,76.0,True
52105,2814, Note_on_c,70,108,5,2,1,81.0,False
52106,2821, Note_on_c,63,108,5,2,1,73.0,False
52107,2821, Note_on_c,66,108,5,2,1,77.0,False
52108,2822, Note_on_c,65,108,5,2,1,76.0,True
52109,2822, Note_on_c,70,108,5,2,1,81.0,False
52110,2829, Note_on_c,63,108,5,2,1,73.0,False
52111,2829, Note_on_c,66,108,5,2,1,77.0,False
52112,2830, Note_on_c,65,108,5,2,1,76.0,True
52113,2830, Note_on_c,70,108,5,2,1,81.0,False
52114,2831, Note_on_c,58,108,5,2,1,67.0,False
52115,2837, Note_on_c,63,108,5,2,1,73.0,False
52116,2837, Note_on_c,66,108,5,2,1,77.0,False
52117,2838, Note_on_c,65,108,5,2,1,76.0,True
52118,2838, Note_on_c,70,108,5,2,1,81.0,False
52119,2839, Note_on_c,58,108,5,2,1,67.0,False
52120,2845, Note_on_c,63,108,5,2,1,73.0,False
52121,2845, Note_on_c,66,108,5,2,1,77.0,False
52122,2846, Note_on_c,65,108,5,2,1,76.0,True
52123,2846, Note_on_c,70,108,5,2,1,81.0,False
52124,2847, Note_on_c,58,108,5,2,1,67.0,False
52125,2853, Note_on_c,63,108,5,2,1,73.0,False
52126,2853, Note_on_c,66,108,5,2,1,77.0,False
52127,2854, Note_on_c,65,108,5,2,1,76.0,True
52128,2854, Note_on_c,70,108,5,2,1,81.0,False
52129,2855, Note_on_c,58,108,5,2,1,67.0,False
52130,2861, Note_on_c,63,108,5,2,1,73.0,False
52131,2861, Note_on_c,66,108,5,2,1,77.0,False
52132,2862, Note_on_c,65,108,5,2,1,76.0,True
52133,2862, Note_on_c,70,108,5,2,1,81.0,False
52134,2863, Note_on_c,58,108,5,2,1,67.0,False
52135,2869, Note_on_c,63,108,5,2,1,73.0,False
52136,2869, Note_on_c,66,108,5,2,1,77.0,False
52137,2870, Note_on_c,65,108,5,2,1,76.0,True
52138,2870, Note_on_c,70,108,5,2,1,81.0,False
52139,2871, Note_on_c,58,108,5,2,1,67.0,False
52140,2877, Note_on_c,63,108,5,2,1,73.0,False
52141,2877, Note_on_c,66,108,5,2,1,77.0,False
52142,2878, Note_on_c,65,108,5,2,1,76.0,True
52143,2878, Note_on_c,70,108,5,2,1,81.0,False
52144,2879, Note_on_c,58,108,5,2,1,67.0,False
52145,2885, Note_on_c,63,108,5,2,1,73.0,False
52146,2885, Note_on_c,66,108,5,2,1,77.0,False
52147,2886, Note_on_c,65,108,5,2,1,76.0,True
52148,2886, Note_on_c,70,108,5,2,1,81.0,False
52149,2887, Note_on_c,58,108,5,2,1,67.0,False
52150,2889, Note_on_c,65,108,5,2,1,76.0,True
52151,2889, Note_on_c,68,108,5,2,1,79.0,False
52152,2893, Note_on_c,63,108,5,2,1,73.0,False
52153,2893, Note_on_c,66,108,5,2,1,77.0,False
52154,2894, Note_on_c,65,108,5,2,1,76.0,True
52155,2894, Note_on_c,70,108,5,2,1,81.0,False
52156,2895, Note_on_c,58,108,5,2,1,67.0,False
52157,2897, Note_on_c,65,108,5,2,1,76.0,True
52158,2897, Note_on_c,68,108,5,2,1,79.0,False
52159,2901, Note_on_c,63,108,5,2,1,73.0,False
52160,2901, Note_on_c,66,108,5,2,1,77.0,False
52161,2902, Note_on_c,65,108,5,2,1,76.0,True
52162,2902, Note_on_c,70,108,5,2,1,81.0,False
52163,2903, Note_on_c,58,108,5,2,1,67.0,False
52164,2905, Note_on_c,65,108,5,2,1,76.0,True
52165,2905, Note_on_c,68,108,5,2,1,79.0,False
52166,2909, Note_on_c,63,108,5,2,1,73.0,False
52167,2909, Note_on_c,66,108,5,2,1,77.0,False
52168,2910, Note_on_c,65,108,5,2,1,76.0,True
52169,2910, Note_on_c,70,108,5,2,1,81.0,False
52170,2911, Note_on_c,58,108,5,2,1,67.0,False
52171,2913, Note_on_c,65,108,5,2,1,76.0,True
52172,2913, Note_on_c,68,108,5,2,1,79.0,False
52173,2917, Note_on_c,63,108,5,2,1,73.0,False
52174,2917, Note_on_c,66,108,5,2,1,77.0,False
52175,2918, Note_on_c,65,108,5,2,1,76.0,True
52176,2918, Note_on_c,70,108,5,2,1,81.0,False
52177,2919, Note_on_c,58,108,5,2,1,67.0,False
52178,2921, Note_on_c,65,108,5,2,1,76.0,True
52179,2921, Note_on_c,68,108,5,2,1,79.0,False
52180,2925, Note_on_c,63,108,5,2,1,73.0,False
52181,2925, Note_on_c,66,108,5,2,1,77.0,False
52182,2926, Note_on_c,65,108,5,2,1,76.0,True
52183,2926, Note_on_c,70,108,5,2,1,81.0,False
52184,2927, Note_on_c,58,108,5,2,1,67.0,False
52185,2929, Note_on_c,65,108,5,2,1,76.0,True
52186,2929, Note_on_c,68,108,5,2,1,79.0,False
52187,2933, Note_on_c,63,108,5,2,1,73.0,False
52188,2933, Note_on_c,66,108,5,2,1,77.0,False
52189,2934, Note_on_c,65,108,5,2,1,76.0,True
52190,2934, Note_on_c,70,108,5,2,1,81.0,False
52191,2935, Note_on_c,58,108,5,2,1,67.0,False
52192,2937, Note_on_c,65,108,5,2,1,76.0,True
52193,2937, Note_on_c,68,108,5,2,1,79.0,False
52194,2941, Note_on_c,63,108,5,2,1,73.0,False
52195,2941, Note_on_c,66,108,5,2,1,77.0,False
52196,2942, Note_on_c,65,108,5,2,1,76.0,True
52197,2942, Note_on_c,70,108,5,2,1,81.0,False
52198,2943, Note_on_c,58,108,5,2,1,67.0,False
52199,2945, Note_on_c,65,108,5,2,1,76.0,True
52200,2945, Note_on_c,68,108,5,2,1,79.0,False
52201,2949, Note_on_c,63,108,5,2,1,73.0,False
52202,2949, Note_on_c,66,108,5,2,1,77.0,False
52203,2950, Note_on_c,65,108,5,2,1,76.0,True
52204,2950, Note_on_c,70,108,5,2,1,81.0,False
52205,2951, Note_on_c,58,108,5,2,1,67.0,False
52206,2953, Note_on_c,65,108,5,2,1,76.0,True
52207,2953, Note_on_c,68,108,5,2,1,79.0,False
52208,2956, Note_on_c,65,108,5,2,1,76.0,True
52209,2956, Note_on_c,68,108,5,2,1,79.0,False
52210,2957, Note_on_c,63,108,5,2,1,73.0,False
52211,2957, Note_on_c,66,108,5,2,1,77.0,False
52212,2958, Note_on_c,65,108,5,2,1,76.0,True
52213,2958, Note_on_c,70,108,5,2,1,81.0,False
52214,2959, Note_on_c,58,108,5,2,1,67.0,False
52215,2961, Note_on_c,65,108,5,2,1,76.0,True
52216,2961, Note_on_c,68,108,5,2,1,79.0,False
52217,2964, Note_on_c,65,108,5,2,1,76.0,True
52218,2964, Note_on_c,68,108,5,2,1,79.0,False
52219,2965, Note_on_c,63,108,5,2,1,73.0,False
52220,2965, Note_on_c,66,108,5,2,1,77.0,False
52221,2966, Note_on_c,65,108,5,2,1,76.0,True
52222,2966, Note_on_c,70,108,5,2,1,81.0,False
52223,2967, Note_on_c,58,108,5,2,1,67.0,False
52224,2969, Note_on_c,65,108,5,2,1,76.0,True
52225,2969, Note_on_c,68,108,5,2,1,79.0,False
52226,2972, Note_on_c,65,108,5,2,1,76.0,True
52227,2972, Note_on_c,68,108,5,2,1,79.0,False
52228,2973, Note_on_c,63,108,5,2,1,73.0,False
52229,2973, Note_on_c,66,108,5,2,1,77.0,False
52230,2974, Note_on_c,65,108,5,2,1,76.0,True
52231,2974, Note_on_c,70,108,5,2,1,81.0,False
52232,2975, Note_on_c,58,108,5,2,1,67.0,False
52233,2977, Note_on_c,65,108,5,2,1,76.0,True
52234,2977, Note_on_c,68,108,5,2,1,79.0,False
52235,2980, Note_on_c,65,108,5,2,1,76.0,True
52236,2980, Note_on_c,68,108,5,2,1,79.0,False
52237,2981, Note_on_c,63,108,5,2,1,73.0,False
52238,2981, Note_on_c,66,108,5,2,1,77.0,False
52239,2982, Note_on_c,65,108,5,2,1,76.0,True
52240,2982, Note_on_c,70,108,5,2,1,81.0,False
52241,2983, Note_on_c,58,108,5,2,1,67.0,False
52242,2985, Note_on_c,65,108,5,2,1,76.0,True
52243,2985, Note_on_c,68,108,5,2,1,79.0,False
52244,2988, Note_on_c,65,108,5,2,1,76.0,True
52245,2988, Note_on_c,68,108,5,2,1,79.0,False
52246,2989, Note_on_c,63,108,5,2,1,73.0,False
52247,2989, Note_on_c,66,108,5,2,1,77.0,False
52248,2990, Note_on_c,65,108,5,2,1,76.0,True
52249,2990, Note_on_c,70,108,5,2,1,81.0,False
52250,2991, Note_on_c,58,108,5,2,1,67.0,False
52251,2993, Note_on_c,65,108,5,2,1,76.0,True
52252,2993, Note_on_c,68,108,5,2,1,79.0,False
52253,2996, Note_on_c,65,108,5,2,1,76.0,True
52254,2996, Note_on_c,68,108,5,2,1,79.0,False
52255,2997, Note_on_c,63,108,5,2,1,73.0,False
52256,2997, Note_on_c,66,108,5,2,1,77.0,False
52257,2998, Note_on_c,65,108,5,2,1,76.0,True
52258,2998, Note_on_c,70,108,5,2,1,81.0,False
52259,2999, Note_on_c,58,108,5,2,1,67.0,False
52260,3001, Note_on_c,65,108,5,2,1,76.0,True
52261,3001, Note_on_c,68,108,5,2,1,79.0,False
52262,3004, Note_on_c,65,108,5,2,1,76.0,True
52263,3004, Note_on_c,68,108,5,2,1,79.0,False
52264,3005, Note_on_c,63,108,5,2,1,73.0,False
52265,3005, Note_on_c,66,108,5,2,1,77.0,False
52266,3006, Note_on_c,65,108,5,2,1,76.0,True
52267,3006, Note_on_c,70,108,5,2,1,81.0,False
52268,3007, Note_on_c,58,108,5,2,1,67.0,False
52269,3009, Note_on_c,65,108,5,2,1,76.0,True
52270,3009, Note_on_c,68,108,5,2,1,79.0,False
52271,3012, Note_on_c,65,108,5,2,1,76.0,True
52272,3012, Note_on_c,68,108,5,2,1,79.0,False
52273,3013, Note_on_c,63,108,5,2,1,73.0,False
52274,3013, Note_on_c,66,108,5,2,1,77.0,False
52275,3014, Note_on_c,65,108,5,2,1,76.0,True
52276,3014, Note_on_c,70,108,5,2,1,81.0,False
52277,3015, Note_on_c,58,108,5,2,1,67.0,False
52278,3017, Note_on_c,65,108,5,2,1,76.0,True
52279,3017, Note_on_c,68,108,5,2,1,79.0,False
52280,3020, Note_on_c,65,108,5,2,1,76.0,True
52281,3020, Note_on_c,68,108,5,2,1,79.0,False
52282,3021, Note_on_c,63,108,5,2,1,73.0,False
52283,3021, Note_on_c,66,108,5,2,1,77.0,False
52284,3022, Note_on_c,65,108,5,2,1,76.0,True
52285,3022, Note_on_c,70,108,5,2,1,81.0,False
52286,3023, Note_on_c,58,108,5,2,1,67.0,False
52287,3024, Note_on_c,63,108,5,2,1,73.0,False
52288,3024, Note_on_c,66,108,5,2,1,77.0,False
52289,3025, Note_on_c,65,108,5,2,1,76.0,True
52290,3025, Note_on_c,68,108,5,2,1,79.0,False
52291,3028, Note_on_c,65,108,5,2,1,76.0,True
52292,3028, Note_on_c,68,108,5,2,1,79.0,False
52293,3029, Note_on_c,63,108,5,2,1,73.0,False
52294,3029, Note_on_c,66,108,5,2,1,77.0,False
52295,3030, Note_on_c,65,108,5,2,1,76.0,True
52296,3030, Note_on_c,70,108,5,2,1,81.0,False
52297,3031, Note_on_c,58,108,5,2,1,67.0,False
52298,3032, Note_on_c,63,108,5,2,1,73.0,False
52299,3032, Note_on_c,66,108,5,2,1,77.0,False
52300,3033, Note_on_c,65,108,5,2,1,76.0,True
52301,3033, Note_on_c,68,108,5,2,1,79.0,False
52302,3036, Note_on_c,65,108,5,2,1,76.0,True
52303,3036, Note_on_c,68,108,5,2,1,79.0,False
52304,3037, Note_on_c,63,108,5,2,1,73.0,False
52305,3037, Note_on_c,66,108,5,2,1,77.0,False
52306,3038, Note_on_c,65,108,5,2,1,76.0,True
52307,3038, Note_on_c,70,108,5,2,1,81.0,False
52308,3039, Note_on_c,58,108,5,2,1,67.0,False
52309,3040, Note_on_c,63,108,5,2,1,73.0,False
52310,3040, Note_on_c,66,108,5,2,1,77.0,False
52311,3041, Note_on_c,65,108,5,2,1,76.0,True
52312,3041, Note_on_c,68,108,5,2,1,79.0,False
52313,3044, Note_on_c,65,108,5,2,1,76.0,True
52314,3044, Note_on_c,68,108,5,2,1,79.0,False
52315,3045, Note_on_c,63,108,5,2,1,73.0,False
52316,3045, Note_on_c,66,108,5,2,1,77.0,False
52317,3046, Note_on_c,65,108,5,2,1,76.0,True
52318,3046, Note_on_c,70,108,5,2,1,81.0,False
52319,3047, Note_on_c,58,108,5,2,1,67.0,False
52320,3048, Note_on_c,63,108,5,2,1,73.0,False
52321,3048, Note_on_c,66,108,5,2,1,77.0,False
52322,3049, Note_on_c,65,108,5,2,1,76.0,True
52323,3049, Note_on_c,68,108,5,2,1,79.0,False
52324,3052, Note_on_c,65,108,5,2,1,76.0,True
52325,3052, Note_on_c,68,108,5,2,1,79.0,False
52326,3053, Note_on_c,63,108,5,2,1,73.0,False
52327,3053, Note_on_c,66,108,5,2,1,77.0,False
52328,3054, Note_on_c,65,108,5,2,1,76.0,True
52329,3054, Note_on_c,70,108,5,2,1,81.0,False
52330,3055, Note_on_c,58,108,5,2,1,67.0,False
52331,3056, Note_on_c,63,108,5,2,1,73.0,False
52332,3056, Note_on_c,66,108,5,2,1,77.0,False
52333,3057, Note_on_c,65,108,5,2,1,76.0,True
52334,3057, Note_on_c,68,108,5,2,1,79.0,False
52335,3060, Note_on_c,65,108,5,2,1,76.0,True
52336,3060, Note_on_c,68,108,5,2,1,79.0,False
52337,3061, Note_on_c,63,108,5,2,1,73.0,False
52338,3061, Note_on_c,66,108,5,2,1,77.0,False
52339,3062, Note_on_c,65,108,5,2,1,76.0,True
52340,3062, Note_on_c,70,108,5,2,1,81.0,False
52341,3063, Note_on_c,58,108,5,2,1,67.0,False
52342,3064, Note_on_c,63,108,5,2,1,73.0,False
52343,3064, Note_on_c,66,108,5,2,1,77.0,False
52344,3065, Note_on_c,65,108,5,2,1,76.0,True
52345,3065, Note_on_c,68,108,5,2,1,79.0,False
52346,3068, Note_on_c,65,108,5,2,1,76.0,True
52347,3068, Note_on_c,68,108,5,2,1,79.0,False
52348,3069, Note_on_c,63,108,5,2,1,73.0,False
52349,3069, Note_on_c,66,108,5,2,1,77.0,False
52350,3070, Note_on_c,65,108,5,2,1,76.0,True
52351,3070, Note_on_c,70,108,5,2,1,81.0,False
52352,3071, Note_on_c,58,108,5,2,1,67.0,False
52353,3072, Note_on_c,63,108,5,2,1,73.0,False
52354,3072, Note_on_c,66,108,5,2,1,77.0,False
52355,3073, Note_on_c,65,108,5,2,1,76.0,True
52356,3073, Note_on_c,68,108,5,2,1,79.0,False
52357,3076, Note_on_c,65,108,5,2,1,76.0,True
52358,3076, Note_on_c,68,108,5,2,1,79.0,False
52359,3077, Note_on_c,63,108,5,2,1,73.0,False
52360,3077, Note_on_c,66,108,5,2,1,77.0,False
52361,3078, Note_on_c,65,108,5,2,1,76.0,True
52362,3078, Note_on_c,70,108,5,2,1,81.0,False
52363,3079, Note_on_c,58,108,5,2,1,67.0,False
52364,3080, Note_on_c,63,108,5,2,1,73.0,False
52365,3080, Note_on_c,66,108,5,2,1,77.0,False
52366,3081, Note_on_c,65,108,5,2,1,76.0,True
52367,3081, Note_on_c,68,108,5,2,1,79.0,False
52368,3083, Note_on_c,63,108,5,2,1,73.0,False
52369,3083, Note_on_c,66,108,5,2,1,77.0,False
52370,3084, Note_on_c,65,108,5,2,1,76.0,True
52371,3084, Note_on_c,68,108,5,2,1,79.0,False
52372,3085, Note_on_c,63,108,5,2,1,73.0,False
52373,3085, Note_on_c,66,108,5,2,1,77.0,False
52374,3086, Note_on_c,65,108,5,2,1,76.0,True
52375,3086, Note_on_c,70,108,5,2,1,81.0,False
52376,3087, Note_on_c,58,108,5,2,1,67.0,False
52377,3088, Note_on_c,63,108,5,2,1,73.0,False
52378,3088, Note_on_c,66,108,5,2,1,77.0,False
52379,3089, Note_on_c,65,108,5,2,1,76.0,True
52380,3089, Note_on_c,68,108,5,2,1,79.0,False
52381,3091, Note_on_c,63,108,5,2,1,73.0,False
52382,3091, Note_on_c,66,108,5,2,1,77.0,False
52383,3092, Note_on_c,65,108,5,2,1,76.0,True
52384,3092, Note_on_c,68,108,5,2,1,79.0,False
52385,3093, Note_on_c,63,108,5,2,1,73.0,False
52386,3093, Note_on_c,66,108,5,2,1,77.0,False
52387,3094, Note_on_c,65,108,5,2,1,76.0,True
52388,3094, Note_on_c,70,108,5,2,1,81.0,False
52389,3095, Note_on_c,58,108,5,2,1,67.0,False
52390,3096, Note_on_c,63,108,5,2,1,73.0,False
52391,3096, Note_on_c,66,108,5,2,1,77.0,False
52392,3097, Note_on_c,65,108,5,2,1,76.0,True
52393,3097, Note_on_c,68,108,5,2,1,79.0,False
52394,3099, Note_on_c,63,108,5,2,1,73.0,False
52395,3099, Note_on_c,66,108,5,2,1,77.0,False
52396,3100, Note_on_c,65,108,5,2,1,76.0,True
52397,3100, Note_on_c,68,108,5,2,1,79.0,False
52398,3101, Note_on_c,63,108,5,2,1,73.0,False
52399,3101, Note_on_c,66,108,5,2,1,77.0,False
52400,3102, Note_on_c,65,108,5,2,1,76.0,True
52401,3102, Note_on_c,70,108,5,2,1,81.0,False
52402,3103, Note_on_c,58,108,5,2,1,67.0,False
52403,3104, Note_on_c,63,108,5,2,1,73.0,False
52404,3104, Note_on_c,66,108,5,2,1,77.0,False
52405,3105, Note_on_c,65,108,5,2,1,76.0,True
52406,3105, Note_on_c,68,108,5,2,1,79.0,False
52407,3107, Note_on_c,63,108,5,2,1,73.0,False
52408,3107, Note_on_c,66,108,5,2,1,77.0,False
52409,3108, Note_on_c,65,108,5,2,1,76.0,True
52410,3108, Note_on_c,68,108,5,2,1,79.0,False
52411,3109, Note_on_c,63,108,5,2,1,73.0,False
52412,3109, Note_on_c,66,108,5,2,1,77.0,False
52413,3110, Note_on_c,65,108,5,2,1,76.0,True
52414,3110, Note_on_c,70,108,5,2,1,81.0,False
52415,3111, Note_on_c,58,108,5,2,1,67.0,False
52416,3112, Note_on_c,63,108,5,2,1,73.0,False
52417,3112, Note_on_c,66,108,5,2,1,77.0,False
52418,3113, Note_on_c,65,108,5,2,1,76.0,True
52419,3113, Note_on_c,68,108,5,2,1,79.0,False
52420,3115, Note_on_c,63,108,5,2,1,73.0,False
52421,3115, Note_on_c,66,108,5,2,1,77.0,False
52422,3116, Note_on_c,65,108,5,2,1,76.0,True
52423,3116, Note_on_c,68,108,5,2,1,79.0,False
52424,3117, Note_on_c,63,108,5,2,1,73.0,False
52425,3117, Note_on_c,66,108,5,2,1,77.0,False
52426,3118, Note_on_c,65,108,5,2,1,76.0,True
52427,3118, Note_on_c,70,108,5,2,1,81.0,False
52428,3119, Note_on_c,58,108,5,2,1,67.0,False
52429,3120, Note_on_c,63,108,5,2,1,73.0,False
52430,3120, Note_on_c,66,108,5,2,1,77.0,False
52431,3121, Note_on_c,65,108,5,2,1,76.0,True
52432,3121, Note_on_c,68,108,5,2,1,79.0,False
52433,3123, Note_on_c,63,108,5,2,1,73.0,False
52434,3123, Note_on_c,66,108,5,2,1,77.0,False
52435,3124, Note_on_c,65,108,5,2,1,76.0,True
52436,3124, Note_on_c,68,108,5,2,1,79.0,False
52437,3125, Note_on_c,63,108,5,2,1,73.0,False
52438,3125, Note_on_c,66,108,5,2,1,77.0,False
52439,3126, Note_on_c,65,108,5,2,1,76.0,True
52440,3126, Note_on_c,70,108,5,2,1,81.0,False
52441,3127, Note_on_c,58,108,5,2,1,67.0,False
52442,3128, Note_on_c,63,108,5,2,1,73.0,False
52443,3128, Note_on_c,66,108,5,2,1,77.0,False
52444,3129, Note_on_c,65,108,5,2,1,76.0,True
52445,3129, Note_on_c,68,108,5,2,1,79.0,False
52446,3131, Note_on_c,63,108,5,2,1,73.0,False
52447,3131, Note_on_c,66,108,5,2,1,77.0,False
52448,3132, Note_on_c,65,108,5,2,1,76.0,True
52449,3132, Note_on_c,68,108,5,2,1,79.0,False
52450,3133, Note_on_c,63,108,5,2,1,73.0,False
52451,3133, Note_on_c,66,108,5,2,1,77.0,False
52452,3134, Note_on_c,65,108,5,2,1,76.0,True
52453,3134, Note_on_c,70,108,5,2,1,81.0,False
52454,3135, Note_on_c,58,108,5,2,1,67.0,False
52455,3136, Note_on_c,63,108,5,2,1,73.0,False
52456,3136, Note_on_c,66,108,5,2,1,77.0,False
52457,3137, Note_on_c,65,108,5,2,1,76.0,True
52458,3137, Note_on_c,68,108,5,2,1,79.0,False
52459,3139, Note_on_c,63,108,5,2,1,73.0,False
52460,3139, Note_on_c,66,108,5,2,1,77.0,False
52461,3140, Note_on_c,65,108,5,2,1,76.0,True
52462,3140, Note_on_c,68,108,5,2,1,79.0,False
52463,3141, Note_on_c,63,108,5,2,1,73.0,False
52464,3141, Note_on_c,66,108,5,2,1,77.0,False
52465,3142, Note_on_c,65,108,5,2,1,76.0,True
52466,3142, Note_on_c,70,108,5,2,1,81.0,False
52467,3143, Note_on_c,58,108,5,2,1,67.0,False
52468,3144, Note_on_c,63,108,5,2,1,73.0,False
52469,3144, Note_on_c,66,108,5,2,1,77.0,False
52470,3145, Note_on_c,65,108,5,2,1,76.0,True
52471,3145, Note_on_c,68,108,5,2,1,79.0,False
52472,3146, Note_on_c,58,108,5,2,1,67.0,False
52473,3147, Note_on_c,63,108,5,2,1,73.0,False
52474,3147, Note_on_c,66,108,5,2,1,77.0,False
52475,3148, Note_on_c,65,108,5,2,1,76.0,True
52476,3148, Note_on_c,68,108,5,2,1,79.0,False
52477,3149, Note_on_c,63,108,5,2,1,73.0,False
52478,3149, Note_on_c,66,108,5,2,1,77.0,False
52479,3150, Note_on_c,65,108,5,2,1,76.0,True
52480,3150, Note_on_c,70,108,5,2,1,81.0,False
52481,3151, Note_on_c,58,108,5,2,1,67.0,False
52482,3152, Note_on_c,63,108,5,2,1,73.0,False
52483,3152, Note_on_c,66,108,5,2,1,77.0,False
52484,3153, Note_on_c,65,108,5,2,1,76.0,True
52485,3153, Note_on_c,68,108,5,2,1,79.0,False
52486,3154, Note_on_c,58,108,5,2,1,67.0,False
52487,3155, Note_on_c,63,108,5,2,1,73.0,False
52488,3155, Note_on_c,66,108,5,2,1,77.0,False
52489,3156, Note_on_c,65,108,5,2,1,76.0,True
52490,3156, Note_on_c,68,108,5,2,1,79.0,False
52491,3157, Note_on_c,63,108,5,2,1,73.0,False
52492,3157, Note_on_c,66,108,5,2,1,77.0,False
52493,3158, Note_on_c,65,108,5,2,1,76.0,True
52494,3158, Note_on_c,70,108,5,2,1,81.0,False
52495,3159, Note_on_c,58,108,5,2,1,67.0,False
52496,3160, Note_on_c,63,108,5,2,1,73.0,False
52497,3160, Note_on_c,66,108,5,2,1,77.0,False
52498,3161, Note_on_c,65,108,5,2,1,76.0,True
52499,3161, Note_on_c,68,108,5,2,1,79.0,False
52500,3162, Note_on_c,58,108,5,2,1,67.0,False
52501,3163, Note_on_c,63,108,5,2,1,73.0,False
52502,3163, Note_on_c,66,108,5,2,1,77.0,False
52503,3164, Note_on_c,65,108,5,2,1,76.0,True
52504,3164, Note_on_c,68,108,5,2,1,79.0,False
52505,3165, Note_on_c,63,108,5,2,1,73.0,False
52506,3165, Note_on_c,66,108,5,2,1,77.0,False
52507,3166, Note_on_c,65,108,5,2,1,76.0,True
52508,3166, Note_on_c,70,108,5,2,1,81.0,False
52509,3167, Note_on_c,58,108,5,2,1,67.0,False
52510,3168, Note_on_c,63,108,5,2,1,73.0,False
52511,3168, Note_on_c,66,108,5,2,1,77.0,False
52512,3169, Note_on_c,65,108,5,2,1,76.0,True
52513,3169, Note_on_c,68,108,5,2,1,79.0,False
52514,3170, Note_on_c,58,108,5,2,1,67.0,False
52515,3171, Note_on_c,63,108,5,2,1,73.0,False
52516,3171, Note_on_c,66,108,5,2,1,77.0,False
52517,3172, Note_on_c,65,108,5,2,1,76.0,True
52518,3172, Note_on_c,68,108,5,2,1,79.0,False
52519,3173, Note_on_c,63,108,5,2,1,73.0,False
52520,3173, Note_on_c,66,108,5,2,1,77.0,False
52521,3174, Note_on_c,65,108,5,2,1,76.0,True
52522,3174, Note_on_c,70,108,5,2,1,81.0,False
52523,3175, Note_on_c,58,108,5,2,1,67.0,False
52524,3176, Note_on_c,63,108,5,2,1,73.0,False
52525,3176, Note_on_c,66,108,5,2,1,77.0,False
52526,3177, Note_on_c,65,108,5,2,1,76.0,True
52527,3177, Note_on_c,68,108,5,2,1,79.0,False
52528,3178, Note_on_c,58,108,5,2,1,67.0,False
52529,3179, Note_on_c,63,108,5,2,1,73.0,False
52530,3179, Note_on_c,66,108,5,2,1,77.0,False
52531,3180, Note_on_c,65,108,5,2,1,76.0,True
52532,3180, Note_on_c,68,108,5,2,1,79.0,False
52533,3181, Note_on_c,63,108,5,2,1,73.0,False
52534,3181, Note_on_c,66,108,5,2,1,77.0,False
52535,3182, Note_on_c,65,108,5,2,1,76.0,True
52536,3182, Note_on_c,70,108,5,2,1,81.0,False
52537,3183, Note_on_c,58,108,5,2,1,67.0,False
52538,3184, Note_on_c,63,108,5,2,1,73.0,False
52539,3184, Note_on_c,66,108,5,2,1,77.0,False
52540,3185, Note_on_c,65,108,5,2,1,76.0,True
52541,3185, Note_on_c,68,108,5,2,1,79.0,False
52542,3186, Note_on_c,58,108,5,2,1,67.0,False
52543,3187, Note_on_c,63,108,5,2,1,73.0,False
52544,3187, Note_on_c,66,108,5,2,1,77.0,False
52545,3188, Note_on_c,65,108,5,2,1,76.0,True
52546,3188, Note_on_c,68,108,5,2,1,79.0,False
52547,3189, Note_on_c,63,108,5,2,1,73.0,False
52548,3189, Note_on_c,66,108,5,2,1,77.0,False
52549,3190, Note_on_c,65,108,5,2,1,76.0,True
52550,3190, Note_on_c,70,108,5,2,1,81.0,False
52551,3191, Note_on_c,58,108,5,2,1,67.0,False
52552,3192, Note_on_c,63,108,5,2,1,73.0,False
52553,3192, Note_on_c,66,108,5,2,1,77.0,False
52554,3193, Note_on_c,65,108,5,2,1,76.0,True
52555,3193, Note_on_c,68,108,5,2,1,79.0,False
52556,3194, Note_on_c,58,108,5,2,1,67.0,False
52557,3195, Note_on_c,63,108,5,2,1,73.0,False
52558,3195, Note_on_c,66,108,5,2,1,77.0,False
52559,3196, Note_on_c,65,108,5,2,1,76.0,True
52560,3196, Note_on_c,68,108,5,2,1,79.0,False
52561,3197, Note_on_c,63,108,5,2,1,73.0,False
52562,3197, Note_on_c,66,108,5,2,1,77.0,False
52563,3198, Note_on_c,65,108,5,2,1,76.0,True
52564,3198, Note_on_c,70,108,5,2,1,81.0,False
52565,3199, Note_on_c,58,108,5,2,1,67.0,False
52566,3200, Note_on_c,63,108,5,2,1,73.0,False
52567,3200, Note_on_c,66,108,5,2,1,77.0,False
52568,3201, Note_on_c,65,108,5,2,1,76.0,True
52569,3201, Note_on_c,68,108,5,2,1,79.0,False
52570,3202, Note_on_c,58,108,5,2,1,67.0,False
52571,3203, Note_on_c,63,108,5,2,1,73.0,False
52572,3203, Note_on_c,66,108,5,2,1,77.0,False
52573,3204, Note_on_c,65,108,5,2,1,76.0,True
52574,3204, Note_on_c,68,108,5,2,1,79.0,False
52575,3205, Note_on_c,63,108,5,2,1,73.0,False
52576,3205, Note_on_c,66,108,5,2,1,77.0,False
52577,3206, Note_on_c,65,108,5,2,1,76.0,True
52578,3206, Note_on_c,70,108,5,2,1,81.0,False
52579,3207, Note_on_c,58,108,5,2,1,67.0,False
52580,3208, Note_on_c,63,108,5,2,1,73.0,False
52581,3208, Note_on_c,66,108,5,2,1,77.0,False
52582,3209, Note_on_c,65,107,5,2,1,76.0,True
52583,3209, Note_on_c,68,107,5,2,1,79.0,False
52584,3210, Note_on_c,58,102,5,2,1,67.0,False
52585,3211, Note_on_c,63,98,5,2,1,73.0,False
52586,3211, Note_on_c,66,98,5,2,1,77.0,False
52587,3212, Note_on_c,65,93,5,2,1,76.0,True
52588,3212, Note_on_c,68,93,5,2,1,79.0,False
52589,3213, Note_on_c,63,89,5,2,1,73.0,False
52590,3213, Note_on_c,66,89,5,2,1,77.0,False
52591,3214, Note_on_c,65,85,5,2,1,76.0,True
52592,3214, Note_on_c,70,85,5,2,1,81.0,False
52593,3215, Note_on_c,58,80,5,2,1,67.0,False
52594,3216, Note_on_c,63,76,5,2,1,73.0,False
52595,3216, Note_on_c,66,76,5,2,1,77.0,False
52596,3217, Note_on_c,65,72,5,2,1,76.0,True
52597,3217, Note_on_c,68,72,5,2,1,79.0,False
52598,3218, Note_on_c,58,67,5,2,1,67.0,False
52599,3219, Note_on_c,63,63,5,2,1,73.0,False
52600,3219, Note_on_c,66,63,5,2,1,77.0,False
52601,3220, Note_on_c,65,58,5,2,1,76.0,True
52602,3220, Note_on_c,68,58,5,2,1,79.0,False
52603,3221, Note_on_c,63,54,5,2,1,73.0,False
52604,3221, Note_on_c,66,54,5,2,1,77.0,False
52605,3222, Note_on_c,65,50,5,2,1,76.0,True
52606,3222, Note_on_c,70,50,5,2,1,81.0,False
52607,3223, Note_on_c,58,45,5,2,1,67.0,False
52608,3224, Note_on_c,63,41,5,2,1,73.0,False
52609,3224, Note_on_c,66,41,5,2,1,77.0,False
52610,3225, Note_on_c,65,37,5,2,1,76.0,True
52611,3225, Note_on_c,68,37,5,2,1,79.0,False
52612,3226, Note_on_c,58,32,5,2,1,67.0,False
52613,3227, Note_on_c,63,28,5,2,1,73.0,False
52614,3227, Note_on_c,66,28,5,2,1,77.0,False
52615,3228, Note_on_c,65,23,5,2,1,76.0,True
52616,3228, Note_on_c,68,23,5,2,1,79.0,False
52617,3229, Note_on_c,63,19,5,2,1,73.0,False
52618,3229, Note_on_c,66,19,5,2,1,77.0,False
52619,3230, Note_on_c,65,15,5,2,1,76.0,True
52620,3230, Note_on_c,70,15,5,2,1,81.0,False
52621,3231, Note_on_c,58,10,5,2,1,67.0,False
52622,3232, Note_on_c,63,6,5,2,1,73.0,False
52623,3232, Note_on_c,66,6,5,2,1,77.0,False
52624,3361, Note_on_c,68,5,5,2,1,79.0,False
52625,3362, Note_on_c,73,10,5,2,1,85.0,False
52626,3363, Note_on_c,75,14,5,2,1,87.0,False
52627,3364, Note_on_c,73,18,5,2,1,85.0,False
52628,3365, Note_on_c,75,22,5,2,1,87.0,False
52629,3366, Note_on_c,70,27,5,2,1,81.0,False
52630,3367, Note_on_c,73,31,5,2,1,85.0,False
52631,3368, Note_on_c,75,35,5,2,1,87.0,False
52632,3369, Note_on_c,68,40,5,2,1,79.0,False
52633,3370, Note_on_c,73,44,5,2,1,85.0,False
52634,3371, Note_on_c,75,48,5,2,1,87.0,False
52635,3372, Note_on_c,73,53,5,2,1,85.0,False
52636,3373, Note_on_c,75,57,5,2,1,87.0,False
52637,3374, Note_on_c,70,61,5,2,1,81.0,False
52638,3375, Note_on_c,73,65,5,2,1,85.0,False
52639,3376, Note_on_c,75,70,5,2,1,87.0,False
52640,3377, Note_on_c,68,74,5,2,1,79.0,False
52641,3378, Note_on_c,73,78,5,2,1,85.0,False
52642,3379, Note_on_c,75,83,5,2,1,87.0,False
52643,3380, Note_on_c,73,87,5,2,1,85.0,False
52644,3381, Note_on_c,75,91,5,2,1,87.0,False
52645,3382, Note_on_c,70,96,5,2,1,81.0,False
52646,3383, Note_on_c,73,100,5,2,1,85.0,False
52647,3384, Note_on_c,75,104,5,2,1,87.0,False
52648,3385, Note_on_c,68,108,5,2,1,79.0,False
52649,3386, Note_on_c,73,108,5,2,1,85.0,False
52650,3387, Note_on_c,75,108,5,2,1,87.0,False
52651,3388, Note_on_c,73,108,5,2,1,85.0,False
52652,3389, Note_on_c,75,108,5,2,1,87.0,False
52653,3390, Note_on_c,70,108,5,2,1,81.0,False
52654,3391, Note_on_c,73,108,5,2,1,85.0,False
52655,3392, Note_on_c,75,108,5,2,1,87.0,False
52656,3393, Note_on_c,68,108,5,2,1,79.0,False
52657,3394, Note_on_c,73,108,5,2,1,85.0,False
52658,3395, Note_on_c,75,108,5,2,1,87.0,False
52659,3396, Note_on_c,73,108,5,2,1,85.0,False
52660,3397, Note_on_c,75,108,5,2,1,87.0,False
52661,3398, Note_on_c,70,108,5,2,1,81.0,False
52662,3399, Note_on_c,73,108,5,2,1,85.0,False
52663,3400, Note_on_c,75,108,5,2,1,87.0,False
52664,3401, Note_on_c,68,108,5,2,1,79.0,False
52665,3402, Note_on_c,73,108,5,2,1,85.0,False
52666,3403, Note_on_c,75,108,5,2,1,87.0,False
52667,3404, Note_on_c,73,108,5,2,1,85.0,False
52668,3405, Note_on_c,75,108,5,2,1,87.0,False
52669,3406, Note_on_c,70,108,5,2,1,81.0,False
52670,3407, Note_on_c,73,108,5,2,1,85.0,False
52671,3408, Note_on_c,75,108,5,2,1,87.0,False
52672,3409, Note_on_c,68,108,5,2,1,79.0,False
52673,3410, Note_on_c,73,108,5,2,1,85.0,False
52674,3411, Note_on_c,75,108,5,2,1,87.0,False
52675,3412, Note_on_c,73,108,5,2,1,85.0,False
52676,3413, Note_on_c,75,108,5,2,1,87.0,False
52677,3414, Note_on_c,70,108,5,2,1,81.0,False
52678,3415, Note_on_c,73,108,5,2,1,85.0,False
52679,3416, Note_on_c,75,108,5,2,1,87.0,False
52680,3417, Note_on_c,68,108,5,2,1,79.0,False
52681,3418, Note_on_c,73,108,5,2,1,85.0,False
52682,3419, Note_on_c,75,108,5,2,1,87.0,False
52683,3420, Note_on_c,73,108,5,2,1,85.0,False
52684,3421, Note_on_c,75,108,5,2,1,87.0,False
52685,3422, Note_on_c,70,108,5,2,1,81.0,False
52686,3423, Note_on_c,73,108,5,2,1,85.0,False
52687,3424, Note_on_c,75,108,5,2,1,87.0,False
52688,3425, Note_on_c,68,108,5,2,1,79.0,False
52689,3426, Note_on_c,73,108,5,2,1,85.0,False
52690,3427, Note_on_c,75,108,5,2,1,87.0,False
52691,3428, Note_on_c,73,108,5,2,1,85.0,False
52692,3429, Note_on_c,75,108,5,2,1,87.0,False
52693,3430, Note_on_c,70,108,5,2,1,81.0,False
52694,3431, Note_on_c,73,108,5,2,1,85.0,False
52695,3432, Note_on_c,75,108,5,2,1,87.0,False
52696,3433, Note_on_c,68,108,5,2,1,79.0,False
52697,3434, Note_on_c,73,108,5,2,1,85.0,False
52698,3435, Note_on_c,75,108,5,2,1,87.0,False
52699,3436, Note_on_c,73,108,5,2,1,85.0,False
52700,3437, Note_on_c,75,108,5,2,1,87.0,False
52701,3438, Note_on_c,70,108,5,2,1,81.0,False
52702,3439, Note_on_c,73,108,5,2,1,85.0,False
52703,3440, Note_on_c,75,108,5,2,1,87.0,False
52704,3441, Note_on_c,68,108,5,2,1,79.0,False
52705,3442, Note_on_c,73,108,5,2,1,85.0,False
52706,3443, Note_on_c,75,108,5,2,1,87.0,False
52707,3444, Note_on_c,73,108,5,2,1,85.0,False
52708,3445, Note_on_c,75,108,5,2,1,87.0,False
52709,3446, Note_on_c,70,108,5,2,1,81.0,False
52710,3447, Note_on_c,73,108,5,2,1,85.0,False
52711,3448, Note_on_c,75,108,5,2,1,87.0,False
52712,3449, Note_on_c,68,108,5,2,1,79.0,False
52713,3450, Note_on_c,73,108,5,2,1,85.0,False
52714,3451, Note_on_c,75,108,5,2,1,87.0,False
52715,3452, Note_on_c,73,108,5,2,1,85.0,False
52716,3453, Note_on_c,75,108,5,2,1,87.0,False
52717,3454, Note_on_c,70,108,5,2,1,81.0,False
52718,3455, Note_on_c,73,108,5,2,1,85.0,False
52719,3456, Note_on_c,75,108,5,2,1,87.0,False
52720,3457, Note_on_c,68,108,5,2,1,79.0,False
52721,3458, Note_on_c,73,108,5,2,1,85.0,False
52722,3459, Note_on_c,75,108,5,2,1,87.0,False
52723,3460, Note_on_c,73,108,5,2,1,85.0,False
52724,3461, Note_on_c,75,108,5,2,1,87.0,False
52725,3462, Note_on_c,70,108,5,2,1,81.0,False
52726,3463, Note_on_c,73,108,5,2,1,85.0,False
52727,3464, Note_on_c,75,108,5,2,1,87.0,False
52728,3465, Note_on_c,68,108,5,2,1,79.0,False
52729,3466, Note_on_c,73,108,5,2,1,85.0,False
52730,3467, Note_on_c,75,108,5,2,1,87.0,False
52731,3468, Note_on_c,73,108,5,2,1,85.0,False
52732,3469, Note_on_c,75,108,5,2,1,87.0,False
52733,3470, Note_on_c,70,108,5,2,1,81.0,False
52734,3471, Note_on_c,73,108,5,2,1,85.0,False
52735,3472, Note_on_c,75,108,5,2,1,87.0,False
52736,3473, Note_on_c,68,108,5,2,1,79.0,False
52737,3474, Note_on_c,73,108,5,2,1,85.0,False
52738,3475, Note_on_c,75,108,5,2,1,87.0,False
52739,3476, Note_on_c,73,108,5,2,1,85.0,False
52740,3477, Note_on_c,75,108,5,2,1,87.0,False
52741,3478, Note_on_c,70,108,5,2,1,81.0,False
52742,3479, Note_on_c,73,108,5,2,1,85.0,False
52743,3480, Note_on_c,75,108,5,2,1,87.0,False
52744,3481, Note_on_c,68,108,5,2,1,79.0,False
52745,3482, Note_on_c,73,108,5,2,1,85.0,False
52746,3483, Note_on_c,75,108,5,2,1,87.0,False
52747,3484, Note_on_c,73,108,5,2,1,85.0,False
52748,3485, Note_on_c,75,108,5,2,1,87.0,False
52749,3486, Note_on_c,70,108,5,2,1,81.0,False
52750,3487, Note_on_c,73,108,5,2,1,85.0,False
52751,3488, Note_on_c,75,108,5,2,1,87.0,False
52752,3489, Note_on_c,68,108,5,2,1,79.0,False
52753,3490, Note_on_c,73,108,5,2,1,85.0,False
52754,3491, Note_on_c,75,108,5,2,1,87.0,False
52755,3492, Note_on_c,73,108,5,2,1,85.0,False
52756,3493, Note_on_c,75,108,5,2,1,87.0,False
52757,3494, Note_on_c,70,108,5,2,1,81.0,False
52758,3495, Note_on_c,73,108,5,2,1,85.0,False
52759,3496, Note_on_c,75,108,5,2,1,87.0,False
52760,3497, Note_on_c,68,108,5,2,1,79.0,False
52761,3498, Note_on_c,73,108,5,2,1,85.0,False
52762,3499, Note_on_c,75,108,5,2,1,87.0,False
52763,3500, Note_on_c,73,108,5,2,1,85.0,False
52764,3501, Note_on_c,75,108,5,2,1,87.0,False
52765,3502, Note_on_c,70,108,5,2,1,81.0,False
52766,3503, Note_on_c,73,108,5,2,1,85.0,False
52767,3504, Note_on_c,75,108,5,2,1,87.0,False
52768,3505, Note_on_c,68,108,5,2,1,79.0,False
52769,3506, Note_on_c,73,108,5,2,1,85.0,False
52770,3507, Note_on_c,75,108,5,2,1,87.0,False
52771,3508, Note_on_c,73,108,5,2,1,85.0,False
52772,3509, Note_on_c,75,108,5,2,1,87.0,False
52773,3510, Note_on_c,70,108,5,2,1,81.0,False
52774,3511, Note_on_c,73,108,5,2,1,85.0,False
52775,3512, Note_on_c,75,108,5,2,1,87.0,False
52776,3513, Note_on_c,68,108,5,2,1,79.0,False
52777,3514, Note_on_c,73,108,5,2,1,85.0,False
52778,3515, Note_on_c,75,108,5,2,1,87.0,False
52779,3516, Note_on_c,73,108,5,2,1,85.0,False
52780,3517, Note_on_c,75,108,5,2,1,87.0,False
52781,3518, Note_on_c,70,108,5,2,1,81.0,False
52782,3519, Note_on_c,73,108,5,2,1,85.0,False
52783,3520, Note_on_c,75,108,5,2,1,87.0,False
52784,3521, Note_on_c,68,108,5,2,1,79.0,False
52785,3522, Note_on_c,73,108,5,2,1,85.0,False
52786,3523, Note_on_c,75,108,5,2,1,87.0,False
52787,3524, Note_on_c,73,108,5,2,1,85.0,False
52788,3525, Note_on_c,75,108,5,2,1,87.0,False
52789,3526, Note_on_c,70,108,5,2,1,81.0,False
52790,3527, Note_on_c,73,108,5,2,1,85.0,False
52791,3528, Note_on_c,75,108,5,2,1,87.0,False
52792,3529, Note_on_c,68,108,5,2,1,79.0,False
52793,3530, Note_on_c,73,108,5,2,1,85.0,False
52794,3531, Note_on_c,75,108,5,2,1,87.0,False
52795,3532, Note_on_c,73,108,5,2,1,85.0,False
52796,3533, Note_on_c,75,108,5,2,1,87.0,False
52797,3534, Note_on_c,70,108,5,2,1,81.0,False
52798,3535, Note_on_c,73,108,5,2,1,85.0,False
52799,3536, Note_on_c,75,108,5,2,1,87.0,False
52800,3537, Note_on_c,68,108,5,2,1,79.0,False
52801,3538, Note_on_c,73,108,5,2,1,85.0,False
52802,3539, Note_on_c,75,108,5,2,1,87.0,False
52803,3540, Note_on_c,73,108,5,2,1,85.0,False
52804,3541, Note_on_c,75,108,5,2,1,87.0,False
52805,3542, Note_on_c,70,108,5,2,1,81.0,False
52806,3543, Note_on_c,73,108,5,2,1,85.0,False
52807,3544, Note_on_c,75,108,5,2,1,87.0,False
52808,3545, Note_on_c,68,108,5,2,1,79.0,False
52809,3546, Note_on_c,73,108,5,2,1,85.0,False
52810,3547, Note_on_c,75,108,5,2,1,87.0,False
52811,3548, Note_on_c,73,108,5,2,1,85.0,False
52812,3549, Note_on_c,75,108,5,2,1,87.0,False
52813,3550, Note_on_c,70,108,5,2,1,81.0,False
52814,3551, Note_on_c,73,108,5,2,1,85.0,False
52815,3552, Note_on_c,75,108,5,2,1,87.0,False
52816,3553, Note_on_c,68,108,5,2,1,79.0,False
52817,3554, Note_on_c,73,108,5,2,1,85.0,False
52818,3555, Note_on_c,75,108,5,2,1,87.0,False
52819,3556, Note_on_c,73,108,5,2,1,85.0,False
52820,3557, Note_on_c,75,108,5,2,1,87.0,False
52821,3558, Note_on_c,70,108,5,2,1,81.0,False
52822,3559, Note_on_c,73,108,5,2,1,85.0,False
52823,3560, Note_on_c,75,108,5,2,1,87.0,False
52824,3561, Note_on_c,68,108,5,2,1,79.0,False
52825,3562, Note_on_c,73,108,5,2,1,85.0,False
52826,3563, Note_on_c,75,108,5,2,1,87.0,False
52827,3564, Note_on_c,73,108,5,2,1,85.0,False
52828,3565, Note_on_c,75,108,5,2,1,87.0,False
52829,3566, Note_on_c,70,108,5,2,1,81.0,False
52830,3567, Note_on_c,73,108,5,2,1,85.0,False
52831,3568, Note_on_c,75,108,5,2,1,87.0,False
52832,3569, Note_on_c,68,108,5,2,1,79.0,False
52833,3570, Note_on_c,73,108,5,2,1,85.0,False
52834,3571, Note_on_c,75,108,5,2,1,87.0,False
52835,3572, Note_on_c,73,108,5,2,1,85.0,False
52836,3573, Note_on_c,75,108,5,2,1,87.0,False
52837,3574, Note_on_c,70,108,5,2,1,81.0,False
52838,3575, Note_on_c,73,108,5,2,1,85.0,False
52839,3576, Note_on_c,75,108,5,2,1,87.0,False
52840,3577, Note_on_c,68,108,5,2,1,79.0,False
52841,3578, Note_on_c,73,108,5,2,1,85.0,False
52842,3579, Note_on_c,75,108,5,2,1,87.0,False
52843,3580, Note_on_c,73,108,5,2,1,85.0,False
52844,3581, Note_on_c,75,108,5,2,1,87.0,False
52845,3582, Note_on_c,70,108,5,2,1,81.0,False
52846,3583, Note_on_c,73,108,5,2,1,85.0,False
52847,3584, Note_on_c,75,108,5,2,1,87.0,False
52848,3585, Note_on_c,68,108,5,2,1,79.0,False
52849,3586, Note_on_c,73,108,5,2,1,85.0,False
52850,3587, Note_on_c,75,108,5,2,1,87.0,False
52851,3588, Note_on_c,73,108,5,2,1,85.0,False
52852,3589, Note_on_c,75,108,5,2,1,87.0,False
52853,3590, Note_on_c,70,108,5,2,1,81.0,False
52854,3591, Note_on_c,73,108,5,2,1,85.0,False
52855,3592, Note_on_c,75,108,5,2,1,87.0,False
52856,3593, Note_on_c,68,108,5,2,1,79.0,False
52857,3594, Note_on_c,73,108,5,2,1,85.0,False
52858,3595, Note_on_c,75,108,5,2,1,87.0,False
52859,3596, Note_on_c,73,108,5,2,1,85.0,False
52860,3597, Note_on_c,75,108,5,2,1,87.0,False
52861,3598, Note_on_c,70,108,5,2,1,81.0,False
52862,3599, Note_on_c,73,108,5,2,1,85.0,False
52863,3600, Note_on_c,75,108,5,2,1,87.0,False
52864,3601, Note_on_c,68,108,5,2,1,79.0,False
52865,3602, Note_on_c,73,108,5,2,1,85.0,False
52866,3603, Note_on_c,75,108,5,2,1,87.0,False
52867,3604, Note_on_c,73,108,5,2,1,85.0,False
52868,3605, Note_on_c,75,108,5,2,1,87.0,False
52869,3606, Note_on_c,70,108,5,2,1,81.0,False
52870,3607, Note_on_c,73,108,5,2,1,85.0,False
52871,3608, Note_on_c,75,108,5,2,1,87.0,False
52872,3609, Note_on_c,68,108,5,2,1,79.0,False
52873,3610, Note_on_c,73,108,5,2,1,85.0,False
52874,3611, Note_on_c,75,108,5,2,1,87.0,False
52875,3612, Note_on_c,73,108,5,2,1,85.0,False
52876,3613, Note_on_c,75,108,5,2,1,87.0,False
52877,3614, Note_on_c,70,108,5,2,1,81.0,False
52878,3615, Note_on_c,73,108,5,2,1,85.0,False
52879,3616, Note_on_c,75,108,5,2,1,87.0,False
52880,3617, Note_on_c,68,108,5,2,1,79.0,False
52881,3618, Note_on_c,73,108,5,2,1,85.0,False
52882,3619, Note_on_c,75,108,5,2,1,87.0,False
52883,3620, Note_on_c,73,108,5,2,1,85.0,False
52884,3621, Note_on_c,75,108,5,2,1,87.0,False
52885,3622, Note_on_c,70,108,5,2,1,81.0,False
52886,3623, Note_on_c,73,108,5,2,1,85.0,False
52887,3624, Note_on_c,75,108,5,2,1,87.0,False
52888,3625, Note_on_c,68,108,5,2,1,79.0,False
52889,3626, Note_on_c,73,108,5,2,1,85.0,False
52890,3627, Note_on_c,75,108,5,2,1,87.0,False
52891,3628, Note_on_c,73,108,5,2,1,85.0,False
52892,3629, Note_on_c,75,108,5,2,1,87.0,False
52893,3630, Note_on_c,70,108,5,2,1,81.0,False
52894,3631, Note_on_c,73,108,5,2,1,85.0,False
52895,3632, Note_on_c,75,108,5,2,1,87.0,False
52896,3633, Note_on_c,68,108,5,2,1,79.0,False
52897,3634, Note_on_c,73,108,5,2,1,85.0,False
52898,3635, Note_on_c,75,108,5,2,1,87.0,False
52899,3636, Note_on_c,73,108,5,2,1,85.0,False
52900,3637, Note_on_c,75,108,5,2,1,87.0,False
52901,3638, Note_on_c,70,108,5,2,1,81.0,False
52902,3639, Note_on_c,73,108,5,2,1,85.0,False
52903,3640, Note_on_c,75,108,5,2,1,87.0,False
52904,3641, Note_on_c,68,108,5,2,1,79.0,False
52905,3642, Note_on_c,73,108,5,2,1,85.0,False
52906,3643, Note_on_c,75,108,5,2,1,87.0,False
52907,3644, Note_on_c,73,108,5,2,1,85.0,False
52908,3645, Note_on_c,75,108,5,2,1,87.0,False
52909,3646, Note_on_c,70,108,5,2,1,81.0,False
52910,3647, Note_on_c,73,108,5,2,1,85.0,False
52911,3648, Note_on_c,75,108,5,2,1,87.0,False
52912,3649, Note_on_c,68,108,5,2,1,79.0,False
52913,3650, Note_on_c,73,108,5,2,1,85.0,False
52914,3651, Note_on_c,75,108,5,2,1,87.0,False
52915,3652, Note_on_c,73,108,5,2,1,85.0,False
52916,3653, Note_on_c,75,108,5,2,1,87.0,False
52917,3654, Note_on_c,70,108,5,2,1,81.0,False
52918,3655, Note_on_c,73,108,5,2,1,85.0,False
52919,3656, Note_on_c,75,108,5,2,1,87.0,False
52920,3657, Note_on_c,68,108,5,2,1,79.0,False
52921,3658, Note_on_c,73,108,5,2,1,85.0,False
52922,3659, Note_on_c,75,108,5,2,1,87.0,False
52923,3660, Note_on_c,73,108,5,2,1,85.0,False
52924,3661, Note_on_c,75,108,5,2,1,87.0,False
52925,3662, Note_on_c,70,108,5,2,1,81.0,False
52926,3663, Note_on_c,73,108,5,2,1,85.0,False
52927,3664, Note_on_c,75,108,5,2,1,87.0,False
52928,3665, Note_on_c,68,107,5,2,1,79.0,False
52929,3666, Note_on_c,73,103,5,2,1,85.0,False
52930,3667, Note_on_c,75,98,5,2,1,87.0,False
52931,3668, Note_on_c,73,94,5,2,1,85.0,False
52932,3669, Note_on_c,75,90,5,2,1,87.0,False
52933,3670, Note_on_c,70,85,5,2,1,81.0,False
52934,3671, Note_on_c,73,81,5,2,1,85.0,False
52935,3672, Note_on_c,75,76,5,2,1,87.0,False
52936,3673, Note_on_c,68,72,5,2,1,79.0,False
52937,3674, Note_on_c,73,68,5,2,1,85.0,False
52938,3675, Note_on_c,75,63,5,2,1,87.0,False
52939,3676, Note_on_c,73,59,5,2,1,85.0,False
52940,3677, Note_on_c,75,54,5,2,1,87.0,False
52941,3678, Note_on_c,70,50,5,2,1,81.0,False
52942,3679, Note_on_c,73,46,5,2,1,85.0,False
52943,3680, Note_on_c,75,41,5,2,1,87.0,False
52944,3681, Note_on_c,68,37,5,2,1,79.0,False
52945,3682, Note_on_c,73,32,5,2,1,85.0,False
52946,3683, Note_on_c,75,28,5,2,1,87.0,False
52947,3684, Note_on_c,73,24,5,2,1,85.0,False
52948,3685, Note_on_c,75,19,5,2,1,87.0,False
52949,3686, Note_on_c,70,15,5,2,1,81.0,False
52950,3687, Note_on_c,73,10,5,2,1,85.0,False
52951,3688, Note_on_c,75,6,5,2,1,87.0,False
52952,3737, Note_on_c,65,5,5,2,1,76.0,True
52953,3738, Note_on_c,73,9,5,2,1,85.0,False
52954,3739, Note_on_c,65,14,5,2,1,76.0,True
52955,3742, Note_on_c,65,26,5,2,1,76.0,True
52956,3743, Note_on_c,73,31,5,2,1,85.0,False
52957,3744, Note_on_c,65,35,5,2,1,76.0,True
52958,3745, Note_on_c,65,39,5,2,1,76.0,True
52959,3746, Note_on_c,73,44,5,2,1,85.0,False
52960,3747, Note_on_c,65,48,5,2,1,76.0,True
52961,3750, Note_on_c,65,61,5,2,1,76.0,True
52962,3751, Note_on_c,73,65,5,2,1,85.0,False
52963,3752, Note_on_c,65,69,5,2,1,76.0,True
52964,3753, Note_on_c,65,73,5,2,1,76.0,True
52965,3754, Note_on_c,73,78,5,2,1,85.0,False
52966,3755, Note_on_c,65,82,5,2,1,76.0,True
52967,3758, Note_on_c,65,95,5,2,1,76.0,True
52968,3759, Note_on_c,73,99,5,2,1,85.0,False
52969,3760, Note_on_c,65,103,5,2,1,76.0,True
52970,3761, Note_on_c,65,108,5,2,1,76.0,True
52971,3762, Note_on_c,73,108,5,2,1,85.0,False
52972,3763, Note_on_c,65,108,5,2,1,76.0,True
52973,3766, Note_on_c,65,108,5,2,1,76.0,True
52974,3767, Note_on_c,73,108,5,2,1,85.0,False
52975,3768, Note_on_c,65,108,5,2,1,76.0,True
52976,3769, Note_on_c,65,108,5,2,1,76.0,True
52977,3770, Note_on_c,73,108,5,2,1,85.0,False
52978,3771, Note_on_c,65,108,5,2,1,76.0,True
52979,3774, Note_on_c,65,108,5,2,1,76.0,True
52980,3775, Note_on_c,73,108,5,2,1,85.0,False
52981,3776, Note_on_c,65,108,5,2,1,76.0,True
52982,3777, Note_on_c,65,108,5,2,1,76.0,True
52983,3778, Note_on_c,73,108,5,2,1,85.0,False
52984,3779, Note_on_c,65,108,5,2,1,76.0,True
52985,3782, Note_on_c,65,108,5,2,1,76.0,True
52986,3783, Note_on_c,73,108,5,2,1,85.0,False
52987,3784, Note_on_c,65,108,5,2,1,76.0,True
52988,3785, Note_on_c,65,108,5,2,1,76.0,True
52989,3786, Note_on_c,73,108,5,2,1,85.0,False
52990,3787, Note_on_c,65,108,5,2,1,76.0,True
52991,3790, Note_on_c,65,108,5,2,1,76.0,True
52992,3791, Note_on_c,73,108,5,2,1,85.0,False
52993,3792, Note_on_c,65,108,5,2,1,76.0,True
52994,3793, Note_on_c,65,108,5,2,1,76.0,True
52995,3794, Note_on_c,73,108,5,2,1,85.0,False
52996,3795, Note_on_c,65,108,5,2,1,76.0,True
52997,3798, Note_on_c,65,108,5,2,1,76.0,True
52998,3799, Note_on_c,73,108,5,2,1,85.0,False
52999,3800, Note_on_c,65,108,5,2,1,76.0,True
53000,3801, Note_on_c,65,108,5,2,1,76.0,True
53001,3802, Note_on_c,73,108,5,2,1,85.0,False
53002,3803, Note_on_c,65,108,5,2,1,76.0,True
53003,3806, Note_on_c,65,108,5,2,1,76.0,True
53004,3807, Note_on_c,73,108,5,2,1,85.0,False
53005,3808, Note_on_c,65,108,5,2,1,76.0,True
53006,3809, Note_on_c,65,108,5,2,1,76.0,True
53007,3810, Note_on_c,73,108,5,2,1,85.0,False
53008,3811, Note_on_c,65,108,5,2,1,76.0,True
53009,3814, Note_on_c,65,108,5,2,1,76.0,True
53010,3815, Note_on_c,73,108,5,2,1,85.0,False
53011,3816, Note_on_c,65,108,5,2,1,76.0,True
53012,3817, Note_on_c,65,108,5,2,1,76.0,True
53013,3818, Note_on_c,73,108,5,2,1,85.0,False
53014,3819, Note_on_c,65,108,5,2,1,76.0,True
53015,3822, Note_on_c,65,108,5,2,1,76.0,True
53016,3823, Note_on_c,73,108,5,2,1,85.0,False
53017,3824, Note_on_c,65,108,5,2,1,76.0,True
53018,3825, Note_on_c,65,108,5,2,1,76.0,True
53019,3826, Note_on_c,73,108,5,2,1,85.0,False
53020,3827, Note_on_c,65,108,5,2,1,76.0,True
53021,3830, Note_on_c,65,108,5,2,1,76.0,True
53022,3831, Note_on_c,73,108,5,2,1,85.0,False
53023,3832, Note_on_c,65,108,5,2,1,76.0,True
53024,3833, Note_on_c,65,108,5,2,1,76.0,True
53025,3834, Note_on_c,73,108,5,2,1,85.0,False
53026,3835, Note_on_c,65,108,5,2,1,76.0,True
53027,3838, Note_on_c,65,108,5,2,1,76.0,True
53028,3839, Note_on_c,73,108,5,2,1,85.0,False
53029,3840, Note_on_c,65,108,5,2,1,76.0,True
53030,3841, Note_on_c,65,108,5,2,1,76.0,True
53031,3842, Note_on_c,73,108,5,2,1,85.0,False
53032,3843, Note_on_c,65,108,5,2,1,76.0,True
53033,3846, Note_on_c,65,108,5,2,1,76.0,True
53034,3847, Note_on_c,73,108,5,2,1,85.0,False
53035,3848, Note_on_c,65,108,5,2,1,76.0,True
53036,3849, Note_on_c,65,108,5,2,1,76.0,True
53037,3850, Note_on_c,73,108,5,2,1,85.0,False
53038,3851, Note_on_c,65,108,5,2,1,76.0,True
53039,3854, Note_on_c,65,108,5,2,1,76.0,True
53040,3855, Note_on_c,73,108,5,2,1,85.0,False
53041,3856, Note_on_c,65,108,5,2,1,76.0,True
53042,3857, Note_on_c,65,108,5,2,1,76.0,True
53043,3858, Note_on_c,73,108,5,2,1,85.0,False
53044,3859, Note_on_c,65,108,5,2,1,76.0,True
53045,3862, Note_on_c,65,108,5,2,1,76.0,True
53046,3863, Note_on_c,73,108,5,2,1,85.0,False
53047,3864, Note_on_c,65,108,5,2,1,76.0,True
53048,3865, Note_on_c,65,108,5,2,1,76.0,True
53049,3866, Note_on_c,73,108,5,2,1,85.0,False
53050,3867, Note_on_c,65,108,5,2,1,76.0,True
53051,3870, Note_on_c,65,108,5,2,1,76.0,True
53052,3871, Note_on_c,73,108,5,2,1,85.0,False
53053,3872, Note_on_c,65,108,5,2,1,76.0,True
53054,3873, Note_on_c,65,108,5,2,1,76.0,True
53055,3874, Note_on_c,73,108,5,2,1,85.0,False
53056,3875, Note_on_c,65,108,5,2,1,76.0,True
53057,3878, Note_on_c,65,108,5,2,1,76.0,True
53058,3879, Note_on_c,73,108,5,2,1,85.0,False
53059,3880, Note_on_c,65,108,5,2,1,76.0,True
53060,3881, Note_on_c,65,108,5,2,1,76.0,True
53061,3882, Note_on_c,73,108,5,2,1,85.0,False
53062,3883, Note_on_c,65,108,5,2,1,76.0,True
53063,3886, Note_on_c,65,108,5,2,1,76.0,True
53064,3887, Note_on_c,73,108,5,2,1,85.0,False
53065,3888, Note_on_c,65,108,5,2,1,76.0,True
53066,3889, Note_on_c,65,108,5,2,1,76.0,True
53067,3890, Note_on_c,73,108,5,2,1,85.0,False
53068,3891, Note_on_c,65,108,5,2,1,76.0,True
53069,3894, Note_on_c,65,108,5,2,1,76.0,True
53070,3895, Note_on_c,73,108,5,2,1,85.0,False
53071,3896, Note_on_c,65,108,5,2,1,76.0,True
53072,3897, Note_on_c,65,108,5,2,1,76.0,True
53073,3898, Note_on_c,73,108,5,2,1,85.0,False
53074,3899, Note_on_c,65,108,5,2,1,76.0,True
53075,3902, Note_on_c,65,108,5,2,1,76.0,True
53076,3903, Note_on_c,73,108,5,2,1,85.0,False
53077,3904, Note_on_c,65,108,5,2,1,76.0,True
53078,3905, Note_on_c,65,108,5,2,1,76.0,True
53079,3906, Note_on_c,73,108,5,2,1,85.0,False
53080,3907, Note_on_c,65,108,5,2,1,76.0,True
53081,3910, Note_on_c,65,108,5,2,1,76.0,True
53082,3911, Note_on_c,73,108,5,2,1,85.0,False
53083,3912, Note_on_c,65,108,5,2,1,76.0,True
53084,3913, Note_on_c,65,108,5,2,1,76.0,True
53085,3914, Note_on_c,73,108,5,2,1,85.0,False
53086,3915, Note_on_c,65,108,5,2,1,76.0,True
53087,3918, Note_on_c,65,108,5,2,1,76.0,True
53088,3919, Note_on_c,73,108,5,2,1,85.0,False
53089,3920, Note_on_c,65,108,5,2,1,76.0,True
53090,3921, Note_on_c,65,108,5,2,1,76.0,True
53091,3922, Note_on_c,73,108,5,2,1,85.0,False
53092,3923, Note_on_c,65,108,5,2,1,76.0,True
53093,3926, Note_on_c,65,108,5,2,1,76.0,True
53094,3927, Note_on_c,73,108,5,2,1,85.0,False
53095,3928, Note_on_c,65,108,5,2,1,76.0,True
53096,3929, Note_on_c,65,108,5,2,1,76.0,True
53097,3930, Note_on_c,73,108,5,2,1,85.0,False
53098,3931, Note_on_c,65,108,5,2,1,76.0,True
53099,3934, Note_on_c,65,108,5,2,1,76.0,True
53100,3935, Note_on_c,73,108,5,2,1,85.0,False
53101,3936, Note_on_c,65,108,5,2,1,76.0,True
53102,3937, Note_on_c,65,108,5,2,1,76.0,True
53103,3938, Note_on_c,73,108,5,2,1,85.0,False
53104,3939, Note_on_c,65,108,5,2,1,76.0,True
53105,3942, Note_on_c,65,108,5,2,1,76.0,True
53106,3943, Note_on_c,73,108,5,2,1,85.0,False
53107,3944, Note_on_c,65,108,5,2,1,76.0,True
53108,3945, Note_on_c,65,108,5,2,1,76.0,True
53109,3946, Note_on_c,73,108,5,2,1,85.0,False
53110,3947, Note_on_c,65,108,5,2,1,76.0,True
53111,3950, Note_on_c,65,108,5,2,1,76.0,True
53112,3951, Note_on_c,73,108,5,2,1,85.0,False
53113,3952, Note_on_c,65,108,5,2,1,76.0,True
53114,3953, Note_on_c,65,108,5,2,1,76.0,True
53115,3954, Note_on_c,73,108,5,2,1,85.0,False
53116,3955, Note_on_c,65,108,5,2,1,76.0,True
53117,3958, Note_on_c,65,108,5,2,1,76.0,True
53118,3959, Note_on_c,73,108,5,2,1,85.0,False
53119,3960, Note_on_c,65,108,5,2,1,76.0,True
53120,3961, Note_on_c,65,108,5,2,1,76.0,True
53121,3962, Note_on_c,73,108,5,2,1,85.0,False
53122,3963, Note_on_c,65,108,5,2,1,76.0,True
53123,3966, Note_on_c,65,108,5,2,1,76.0,True
53124,3967, Note_on_c,73,108,5,2,1,85.0,False
53125,3968, Note_on_c,65,108,5,2,1,76.0,True
53126,3969, Note_on_c,65,108,5,2,1,76.0,True
53127,3970, Note_on_c,73,108,5,2,1,85.0,False
53128,3971, Note_on_c,65,108,5,2,1,76.0,True
53129,3974, Note_on_c,65,108,5,2,1,76.0,True
53130,3975, Note_on_c,73,108,5,2,1,85.0,False
53131,3976, Note_on_c,65,108,5,2,1,76.0,True
53132,3977, Note_on_c,65,108,5,2,1,76.0,True
53133,3978, Note_on_c,73,108,5,2,1,85.0,False
53134,3979, Note_on_c,65,108,5,2,1,76.0,True
53135,3982, Note_on_c,65,108,5,2,1,76.0,True
53136,3983, Note_on_c,73,108,5,2,1,85.0,False
53137,3984, Note_on_c,65,108,5,2,1,76.0,True
53138,3985, Note_on_c,65,108,5,2,1,76.0,True
53139,3986, Note_on_c,73,108,5,2,1,85.0,False
53140,3987, Note_on_c,65,108,5,2,1,76.0,True
53141,3990, Note_on_c,65,108,5,2,1,76.0,True
53142,3991, Note_on_c,73,108,5,2,1,85.0,False
53143,3992, Note_on_c,65,108,5,2,1,76.0,True
53144,3993, Note_on_c,65,108,5,2,1,76.0,True
53145,3994, Note_on_c,73,108,5,2,1,85.0,False
53146,3995, Note_on_c,65,108,5,2,1,76.0,True
53147,3998, Note_on_c,65,108,5,2,1,76.0,True
53148,3999, Note_on_c,73,108,5,2,1,85.0,False
53149,4000, Note_on_c,65,108,5,2,1,76.0,True
53150,4001, Note_on_c,65,108,5,2,1,76.0,True
53151,4002, Note_on_c,73,108,5,2,1,85.0,False
53152,4003, Note_on_c,65,108,5,2,1,76.0,True
53153,4006, Note_on_c,65,108,5,2,1,76.0,True
53154,4007, Note_on_c,73,108,5,2,1,85.0,False
53155,4008, Note_on_c,65,108,5,2,1,76.0,True
53156,4009, Note_on_c,65,108,5,2,1,76.0,True
53157,4010, Note_on_c,73,108,5,2,1,85.0,False
53158,4011, Note_on_c,65,108,5,2,1,76.0,True
53159,4014, Note_on_c,65,108,5,2,1,76.0,True
53160,4015, Note_on_c,73,108,5,2,1,85.0,False
53161,4016, Note_on_c,65,108,5,2,1,76.0,True
53162,4017, Note_on_c,65,108,5,2,1,76.0,True
53163,4018, Note_on_c,73,108,5,2,1,85.0,False
53164,4019, Note_on_c,65,108,5,2,1,76.0,True
53165,4022, Note_on_c,65,108,5,2,1,76.0,True
53166,4023, Note_on_c,73,108,5,2,1,85.0,False
53167,4024, Note_on_c,65,108,5,2,1,76.0,True
53168,4025, Note_on_c,65,108,5,2,1,76.0,True
53169,4026, Note_on_c,73,108,5,2,1,85.0,False
53170,4027, Note_on_c,65,108,5,2,1,76.0,True
53171,4030, Note_on_c,65,108,5,2,1,76.0,True
53172,4031, Note_on_c,73,108,5,2,1,85.0,False
53173,4032, Note_on_c,65,108,5,2,1,76.0,True
53174,4033, Note_on_c,65,108,5,2,1,76.0,True
53175,4034, Note_on_c,73,108,5,2,1,85.0,False
53176,4035, Note_on_c,65,108,5,2,1,76.0,True
53177,4038, Note_on_c,65,108,5,2,1,76.0,True
53178,4039, Note_on_c,73,108,5,2,1,85.0,False
53179,4040, Note_on_c,65,108,5,2,1,76.0,True
53180,4041, Note_on_c,65,108,5,2,1,76.0,True
53181,4042, Note_on_c,73,108,5,2,1,85.0,False
53182,4043, Note_on_c,65,108,5,2,1,76.0,True
53183,4046, Note_on_c,65,108,5,2,1,76.0,True
53184,4047, Note_on_c,73,108,5,2,1,85.0,False
53185,4048, Note_on_c,65,108,5,2,1,76.0,True
53186,4049, Note_on_c,65,108,5,2,1,76.0,True
53187,4050, Note_on_c,73,105,5,2,1,85.0,False
53188,4051, Note_on_c,65,101,5,2,1,76.0,True
53189,4054, Note_on_c,65,91,5,2,1,76.0,True
53190,4055, Note_on_c,73,88,5,2,1,85.0,False
53191,4056, Note_on_c,65,85,5,2,1,76.0,True
53192,4057, Note_on_c,65,81,5,2,1,76.0,True
53193,4058, Note_on_c,73,78,5,2,1,85.0,False
53194,4059, Note_on_c,65,75,5,2,1,76.0,True
53195,4062, Note_on_c,65,65,5,2,1,76.0,True
53196,4063, Note_on_c,73,61,5,2,1,85.0,False
53197,4064, Note_on_c,65,58,5,2,1,76.0,True
53198,4065, Note_on_c,65,55,5,2,1,76.0,True
53199,4066, Note_on_c,73,51,5,2,1,85.0,False
53200,4067, Note_on_c,65,48,5,2,1,76.0,True
53201,4070, Note_on_c,65,38,5,2,1,76.0,True
53202,4071, Note_on_c,73,35,5,2,1,85.0,False
53203,4072, Note_on_c,65,31,5,2,1,76.0,True
53204,4073, Note_on_c,65,28,5,2,1,76.0,True
53205,4074, Note_on_c,73,25,5,2,1,85.0,False
53206,4075, Note_on_c,65,21,5,2,1,76.0,True
53207,4078, Note_on_c,65,11,5,2,1,76.0,True
53208,4079, Note_on_c,73,8,5,2,1,85.0,False
53209,4080, Note_on_c,65,5,5,2,1,76.0,True
53210,4251, Note_on_c,68,108,5,2,1,79.0,False
53211,4251, Note_on_c,73,108,5,2,1,85.0,False
53212,4259, Note_on_c,68,108,5,2,1,79.0,False
53213,4259, Note_on_c,73,108,5,2,1,85.0,False
53214,4267, Note_on_c,68,108,5,2,1,79.0,False
53215,4267, Note_on_c,73,108,5,2,1,85.0,False
53216,4275, Note_on_c,68,108,5,2,1,79.0,False
53217,4275, Note_on_c,73,108,5,2,1,85.0,False
53218,4283, Note_on_c,68,108,5,2,1,79.0,False
53219,4283, Note_on_c,73,108,5,2,1,85.0,False
53220,4291, Note_on_c,68,108,5,2,1,79.0,False
53221,4291, Note_on_c,73,108,5,2,1,85.0,False
53222,4299, Note_on_c,68,108,5,2,1,79.0,False
53223,4299, Note_on_c,73,108,5,2,1,85.0,False
53224,4307, Note_on_c,68,108,5,2,1,79.0,False
53225,4307, Note_on_c,73,108,5,2,1,85.0,False
53226,4315, Note_on_c,68,108,5,2,1,79.0,False
53227,4315, Note_on_c,73,108,5,2,1,85.0,False
53228,4316, Note_on_c,70,108,5,2,1,81.0,False
53229,4316, Note_on_c,75,108,5,2,1,87.0,False
53230,4323, Note_on_c,68,108,5,2,1,79.0,False
53231,4323, Note_on_c,73,108,5,2,1,85.0,False
53232,4324, Note_on_c,70,108,5,2,1,81.0,False
53233,4324, Note_on_c,75,108,5,2,1,87.0,False
53234,4331, Note_on_c,68,108,5,2,1,79.0,False
53235,4331, Note_on_c,73,108,5,2,1,85.0,False
53236,4332, Note_on_c,70,108,5,2,1,81.0,False
53237,4332, Note_on_c,75,108,5,2,1,87.0,False
53238,4339, Note_on_c,68,108,5,2,1,79.0,False
53239,4339, Note_on_c,73,108,5,2,1,85.0,False
53240,4340, Note_on_c,70,108,5,2,1,81.0,False
53241,4340, Note_on_c,75,108,5,2,1,87.0,False
53242,4347, Note_on_c,68,108,5,2,1,79.0,False
53243,4347, Note_on_c,73,108,5,2,1,85.0,False
53244,4348, Note_on_c,70,108,5,2,1,81.0,False
53245,4348, Note_on_c,75,108,5,2,1,87.0,False
53246,4355, Note_on_c,68,108,5,2,1,79.0,False
53247,4355, Note_on_c,73,108,5,2,1,85.0,False
53248,4356, Note_on_c,70,108,5,2,1,81.0,False
53249,4356, Note_on_c,75,108,5,2,1,87.0,False
53250,4363, Note_on_c,68,108,5,2,1,79.0,False
53251,4363, Note_on_c,73,108,5,2,1,85.0,False
53252,4364, Note_on_c,70,108,5,2,1,81.0,False
53253,4364, Note_on_c,75,108,5,2,1,87.0,False
53254,4371, Note_on_c,68,108,5,2,1,79.0,False
53255,4371, Note_on_c,73,108,5,2,1,85.0,False
53256,4372, Note_on_c,70,108,5,2,1,81.0,False
53257,4372, Note_on_c,75,108,5,2,1,87.0,False
53258,4379, Note_on_c,68,108,5,2,1,79.0,False
53259,4379, Note_on_c,73,108,5,2,1,85.0,False
53260,4380, Note_on_c,70,108,5,2,1,81.0,False
53261,4380, Note_on_c,75,108,5,2,1,87.0,False
53262,4381, Note_on_c,63,108,5,2,1,73.0,False
53263,4387, Note_on_c,68,108,5,2,1,79.0,False
53264,4387, Note_on_c,73,108,5,2,1,85.0,False
53265,4388, Note_on_c,70,108,5,2,1,81.0,False
53266,4388, Note_on_c,75,108,5,2,1,87.0,False
53267,4389, Note_on_c,63,108,5,2,1,73.0,False
53268,4395, Note_on_c,68,108,5,2,1,79.0,False
53269,4395, Note_on_c,73,108,5,2,1,85.0,False
53270,4396, Note_on_c,70,108,5,2,1,81.0,False
53271,4396, Note_on_c,75,108,5,2,1,87.0,False
53272,4397, Note_on_c,63,108,5,2,1,73.0,False
53273,4403, Note_on_c,68,108,5,2,1,79.0,False
53274,4403, Note_on_c,73,108,5,2,1,85.0,False
53275,4404, Note_on_c,70,108,5,2,1,81.0,False
53276,4404, Note_on_c,75,108,5,2,1,87.0,False
53277,4405, Note_on_c,63,108,5,2,1,73.0,False
53278,4411, Note_on_c,68,108,5,2,1,79.0,False
53279,4411, Note_on_c,73,108,5,2,1,85.0,False
53280,4412, Note_on_c,70,108,5,2,1,81.0,False
53281,4412, Note_on_c,75,108,5,2,1,87.0,False
53282,4413, Note_on_c,63,108,5,2,1,73.0,False
53283,4419, Note_on_c,68,108,5,2,1,79.0,False
53284,4419, Note_on_c,73,108,5,2,1,85.0,False
53285,4420, Note_on_c,70,108,5,2,1,81.0,False
53286,4420, Note_on_c,75,108,5,2,1,87.0,False
53287,4421, Note_on_c,63,108,5,2,1,73.0,False
53288,4427, Note_on_c,68,108,5,2,1,79.0,False
53289,4427, Note_on_c,73,108,5,2,1,85.0,False
53290,4428, Note_on_c,70,108,5,2,1,81.0,False
53291,4428, Note_on_c,75,108,5,2,1,87.0,False
53292,4429, Note_on_c,63,108,5,2,1,73.0,False
53293,4435, Note_on_c,68,108,5,2,1,79.0,False
53294,4435, Note_on_c,73,108,5,2,1,85.0,False
53295,4436, Note_on_c,70,108,5,2,1,81.0,False
53296,4436, Note_on_c,75,108,5,2,1,87.0,False
53297,4437, Note_on_c,63,108,5,2,1,73.0,False
53298,4443, Note_on_c,68,108,5,2,1,79.0,False
53299,4443, Note_on_c,73,108,5,2,1,85.0,False
53300,4444, Note_on_c,70,108,5,2,1,81.0,False
53301,4444, Note_on_c,75,108,5,2,1,87.0,False
53302,4445, Note_on_c,63,108,5,2,1,73.0,False
53303,4447, Note_on_c,72,108,5,2,1,84.0,True
53304,4447, Note_on_c,75,108,5,2,1,87.0,False
53305,4451, Note_on_c,68,108,5,2,1,79.0,False
53306,4451, Note_on_c,73,108,5,2,1,85.0,False
53307,4452, Note_on_c,70,108,5,2,1,81.0,False
53308,4452, Note_on_c,75,108,5,2,1,87.0,False
53309,4453, Note_on_c,63,108,5,2,1,73.0,False
53310,4455, Note_on_c,72,108,5,2,1,84.0,True
53311,4455, Note_on_c,75,108,5,2,1,87.0,False
53312,4459, Note_on_c,68,108,5,2,1,79.0,False
53313,4459, Note_on_c,73,108,5,2,1,85.0,False
53314,4460, Note_on_c,70,108,5,2,1,81.0,False
53315,4460, Note_on_c,75,108,5,2,1,87.0,False
53316,4461, Note_on_c,63,108,5,2,1,73.0,False
53317,4463, Note_on_c,72,108,5,2,1,84.0,True
53318,4463, Note_on_c,75,108,5,2,1,87.0,False
53319,4467, Note_on_c,68,108,5,2,1,79.0,False
53320,4467, Note_on_c,73,108,5,2,1,85.0,False
53321,4468, Note_on_c,70,108,5,2,1,81.0,False
53322,4468, Note_on_c,75,108,5,2,1,87.0,False
53323,4469, Note_on_c,63,108,5,2,1,73.0,False
53324,4471, Note_on_c,72,108,5,2,1,84.0,True
53325,4471, Note_on_c,75,108,5,2,1,87.0,False
53326,4475, Note_on_c,68,108,5,2,1,79.0,False
53327,4475, Note_on_c,73,108,5,2,1,85.0,False
53328,4476, Note_on_c,70,108,5,2,1,81.0,False
53329,4476, Note_on_c,75,108,5,2,1,87.0,False
53330,4477, Note_on_c,63,108,5,2,1,73.0,False
53331,4479, Note_on_c,72,108,5,2,1,84.0,True
53332,4479, Note_on_c,75,108,5,2,1,87.0,False
53333,4483, Note_on_c,68,108,5,2,1,79.0,False
53334,4483, Note_on_c,73,108,5,2,1,85.0,False
53335,4484, Note_on_c,70,108,5,2,1,81.0,False
53336,4484, Note_on_c,75,108,5,2,1,87.0,False
53337,4485, Note_on_c,63,108,5,2,1,73.0,False
53338,4487, Note_on_c,72,108,5,2,1,84.0,True
53339,4487, Note_on_c,75,108,5,2,1,87.0,False
53340,4491, Note_on_c,68,108,5,2,1,79.0,False
53341,4491, Note_on_c,73,108,5,2,1,85.0,False
53342,4492, Note_on_c,70,108,5,2,1,81.0,False
53343,4492, Note_on_c,75,108,5,2,1,87.0,False
53344,4493, Note_on_c,63,108,5,2,1,73.0,False
53345,4495, Note_on_c,72,108,5,2,1,84.0,True
53346,4495, Note_on_c,75,108,5,2,1,87.0,False
53347,4499, Note_on_c,68,108,5,2,1,79.0,False
53348,4499, Note_on_c,73,108,5,2,1,85.0,False
53349,4500, Note_on_c,70,108,5,2,1,81.0,False
53350,4500, Note_on_c,75,108,5,2,1,87.0,False
53351,4501, Note_on_c,63,108,5,2,1,73.0,False
53352,4503, Note_on_c,72,108,5,2,1,84.0,True
53353,4503, Note_on_c,75,108,5,2,1,87.0,False
53354,4507, Note_on_c,68,108,5,2,1,79.0,False
53355,4507, Note_on_c,73,108,5,2,1,85.0,False
53356,4508, Note_on_c,70,108,5,2,1,81.0,False
53357,4508, Note_on_c,75,108,5,2,1,87.0,False
53358,4509, Note_on_c,63,108,5,2,1,73.0,False
53359,4511, Note_on_c,72,108,5,2,1,84.0,True
53360,4511, Note_on_c,75,108,5,2,1,87.0,False
53361,4512, Note_on_c,63,108,5,2,1,73.0,False
53362,4515, Note_on_c,68,108,5,2,1,79.0,False
53363,4515, Note_on_c,73,108,5,2,1,85.0,False
53364,4516, Note_on_c,70,108,5,2,1,81.0,False
53365,4516, Note_on_c,75,108,5,2,1,87.0,False
53366,4517, Note_on_c,63,108,5,2,1,73.0,False
53367,4519, Note_on_c,72,108,5,2,1,84.0,True
53368,4519, Note_on_c,75,108,5,2,1,87.0,False
53369,4520, Note_on_c,63,108,5,2,1,73.0,False
53370,4523, Note_on_c,68,108,5,2,1,79.0,False
53371,4523, Note_on_c,73,108,5,2,1,85.0,False
53372,4524, Note_on_c,70,108,5,2,1,81.0,False
53373,4524, Note_on_c,75,108,5,2,1,87.0,False
53374,4525, Note_on_c,63,108,5,2,1,73.0,False
53375,4527, Note_on_c,72,108,5,2,1,84.0,True
53376,4527, Note_on_c,75,108,5,2,1,87.0,False
53377,4528, Note_on_c,63,108,5,2,1,73.0,False
53378,4531, Note_on_c,68,108,5,2,1,79.0,False
53379,4531, Note_on_c,73,108,5,2,1,85.0,False
53380,4532, Note_on_c,70,108,5,2,1,81.0,False
53381,4532, Note_on_c,75,108,5,2,1,87.0,False
53382,4533, Note_on_c,63,108,5,2,1,73.0,False
53383,4535, Note_on_c,72,108,5,2,1,84.0,True
53384,4535, Note_on_c,75,108,5,2,1,87.0,False
53385,4536, Note_on_c,63,108,5,2,1,73.0,False
53386,4539, Note_on_c,68,108,5,2,1,79.0,False
53387,4539, Note_on_c,73,108,5,2,1,85.0,False
53388,4540, Note_on_c,70,108,5,2,1,81.0,False
53389,4540, Note_on_c,75,108,5,2,1,87.0,False
53390,4541, Note_on_c,63,108,5,2,1,73.0,False
53391,4543, Note_on_c,72,108,5,2,1,84.0,True
53392,4543, Note_on_c,75,108,5,2,1,87.0,False
53393,4544, Note_on_c,63,108,5,2,1,73.0,False
53394,4547, Note_on_c,68,108,5,2,1,79.0,False
53395,4547, Note_on_c,73,108,5,2,1,85.0,False
53396,4548, Note_on_c,70,108,5,2,1,81.0,False
53397,4548, Note_on_c,75,108,5,2,1,87.0,False
53398,4549, Note_on_c,63,108,5,2,1,73.0,False
53399,4551, Note_on_c,72,108,5,2,1,84.0,True
53400,4551, Note_on_c,75,108,5,2,1,87.0,False
53401,4552, Note_on_c,63,108,5,2,1,73.0,False
53402,4555, Note_on_c,68,108,5,2,1,79.0,False
53403,4555, Note_on_c,73,108,5,2,1,85.0,False
53404,4556, Note_on_c,70,108,5,2,1,81.0,False
53405,4556, Note_on_c,75,108,5,2,1,87.0,False
53406,4557, Note_on_c,63,108,5,2,1,73.0,False
53407,4559, Note_on_c,72,108,5,2,1,84.0,True
53408,4559, Note_on_c,75,108,5,2,1,87.0,False
53409,4560, Note_on_c,63,108,5,2,1,73.0,False
53410,4563, Note_on_c,68,108,5,2,1,79.0,False
53411,4563, Note_on_c,73,108,5,2,1,85.0,False
53412,4564, Note_on_c,70,108,5,2,1,81.0,False
53413,4564, Note_on_c,75,108,5,2,1,87.0,False
53414,4565, Note_on_c,63,108,5,2,1,73.0,False
53415,4567, Note_on_c,72,108,5,2,1,84.0,True
53416,4567, Note_on_c,75,108,5,2,1,87.0,False
53417,4568, Note_on_c,63,108,5,2,1,73.0,False
53418,4570, Note_on_c,72,108,5,2,1,84.0,True
53419,4570, Note_on_c,75,108,5,2,1,87.0,False
53420,4571, Note_on_c,68,108,5,2,1,79.0,False
53421,4571, Note_on_c,73,108,5,2,1,85.0,False
53422,4572, Note_on_c,70,108,5,2,1,81.0,False
53423,4572, Note_on_c,75,108,5,2,1,87.0,False
53424,4573, Note_on_c,63,108,5,2,1,73.0,False
53425,4575, Note_on_c,72,108,5,2,1,84.0,True
53426,4575, Note_on_c,75,108,5,2,1,87.0,False
53427,4576, Note_on_c,63,108,5,2,1,73.0,False
53428,4578, Note_on_c,72,108,5,2,1,84.0,True
53429,4578, Note_on_c,75,108,5,2,1,87.0,False
53430,4579, Note_on_c,68,108,5,2,1,79.0,False
53431,4579, Note_on_c,73,108,5,2,1,85.0,False
53432,4580, Note_on_c,70,108,5,2,1,81.0,False
53433,4580, Note_on_c,75,108,5,2,1,87.0,False
53434,4581, Note_on_c,63,108,5,2,1,73.0,False
53435,4583, Note_on_c,72,108,5,2,1,84.0,True
53436,4583, Note_on_c,75,108,5,2,1,87.0,False
53437,4584, Note_on_c,63,108,5,2,1,73.0,False
53438,4586, Note_on_c,72,108,5,2,1,84.0,True
53439,4586, Note_on_c,75,108,5,2,1,87.0,False
53440,4587, Note_on_c,68,108,5,2,1,79.0,False
53441,4587, Note_on_c,73,108,5,2,1,85.0,False
53442,4588, Note_on_c,70,108,5,2,1,81.0,False
53443,4588, Note_on_c,75,108,5,2,1,87.0,False
53444,4589, Note_on_c,63,108,5,2,1,73.0,False
53445,4591, Note_on_c,72,108,5,2,1,84.0,True
53446,4591, Note_on_c,75,108,5,2,1,87.0,False
53447,4592, Note_on_c,63,108,5,2,1,73.0,False
53448,4594, Note_on_c,72,108,5,2,1,84.0,True
53449,4594, Note_on_c,75,108,5,2,1,87.0,False
53450,4595, Note_on_c,68,108,5,2,1,79.0,False
53451,4595, Note_on_c,73,108,5,2,1,85.0,False
53452,4596, Note_on_c,70,108,5,2,1,81.0,False
53453,4596, Note_on_c,75,108,5,2,1,87.0,False
53454,4597, Note_on_c,63,108,5,2,1,73.0,False
53455,4599, Note_on_c,72,108,5,2,1,84.0,True
53456,4599, Note_on_c,75,108,5,2,1,87.0,False
53457,4600, Note_on_c,63,108,5,2,1,73.0,False
53458,4602, Note_on_c,72,108,5,2,1,84.0,True
53459,4602, Note_on_c,75,108,5,2,1,87.0,False
53460,4603, Note_on_c,68,108,5,2,1,79.0,False
53461,4603, Note_on_c,73,108,5,2,1,85.0,False
53462,4604, Note_on_c,70,108,5,2,1,81.0,False
53463,4604, Note_on_c,75,108,5,2,1,87.0,False
53464,4605, Note_on_c,63,108,5,2,1,73.0,False
53465,4607, Note_on_c,72,108,5,2,1,84.0,True
53466,4607, Note_on_c,75,108,5,2,1,87.0,False
53467,4608, Note_on_c,63,108,5,2,1,73.0,False
53468,4610, Note_on_c,72,108,5,2,1,84.0,True
53469,4610, Note_on_c,75,108,5,2,1,87.0,False
53470,4611, Note_on_c,68,108,5,2,1,79.0,False
53471,4611, Note_on_c,73,108,5,2,1,85.0,False
53472,4612, Note_on_c,70,108,5,2,1,81.0,False
53473,4612, Note_on_c,75,108,5,2,1,87.0,False
53474,4613, Note_on_c,63,108,5,2,1,73.0,False
53475,4615, Note_on_c,72,108,5,2,1,84.0,True
53476,4615, Note_on_c,75,108,5,2,1,87.0,False
53477,4616, Note_on_c,63,108,5,2,1,73.0,False
53478,4618, Note_on_c,72,108,5,2,1,84.0,True
53479,4618, Note_on_c,75,108,5,2,1,87.0,False
53480,4619, Note_on_c,68,108,5,2,1,79.0,False
53481,4619, Note_on_c,73,108,5,2,1,85.0,False
53482,4620, Note_on_c,70,108,5,2,1,81.0,False
53483,4620, Note_on_c,75,108,5,2,1,87.0,False
53484,4621, Note_on_c,63,108,5,2,1,73.0,False
53485,4623, Note_on_c,72,108,5,2,1,84.0,True
53486,4623, Note_on_c,75,108,5,2,1,87.0,False
53487,4624, Note_on_c,63,108,5,2,1,73.0,False
53488,4626, Note_on_c,72,108,5,2,1,84.0,True
53489,4626, Note_on_c,75,108,5,2,1,87.0,False
53490,4627, Note_on_c,68,108,5,2,1,79.0,False
53491,4627, Note_on_c,73,108,5,2,1,85.0,False
53492,4628, Note_on_c,70,108,5,2,1,81.0,False
53493,4628, Note_on_c,75,108,5,2,1,87.0,False
53494,4629, Note_on_c,63,108,5,2,1,73.0,False
53495,4631, Note_on_c,72,108,5,2,1,84.0,True
53496,4631, Note_on_c,75,108,5,2,1,87.0,False
53497,4632, Note_on_c,63,108,5,2,1,73.0,False
53498,4634, Note_on_c,72,108,5,2,1,84.0,True
53499,4634, Note_on_c,75,108,5,2,1,87.0,False
53500,4635, Note_on_c,68,108,5,2,1,79.0,False
53501,4635, Note_on_c,73,108,5,2,1,85.0,False
53502,4636, Note_on_c,70,108,5,2,1,81.0,False
53503,4636, Note_on_c,75,108,5,2,1,87.0,False
53504,4637, Note_on_c,63,108,5,2,1,73.0,False
53505,4638, Note_on_c,68,108,5,2,1,79.0,False
53506,4638, Note_on_c,73,108,5,2,1,85.0,False
53507,4639, Note_on_c,72,108,5,2,1,84.0,True
53508,4639, Note_on_c,75,108,5,2,1,87.0,False
53509,4640, Note_on_c,63,108,5,2,1,73.0,False
53510,4642, Note_on_c,72,108,5,2,1,84.0,True
53511,4642, Note_on_c,75,108,5,2,1,87.0,False
53512,4643, Note_on_c,68,108,5,2,1,79.0,False
53513,4643, Note_on_c,73,108,5,2,1,85.0,False
53514,4644, Note_on_c,70,108,5,2,1,81.0,False
53515,4644, Note_on_c,75,108,5,2,1,87.0,False
53516,4645, Note_on_c,63,108,5,2,1,73.0,False
53517,4646, Note_on_c,68,108,5,2,1,79.0,False
53518,4646, Note_on_c,73,108,5,2,1,85.0,False
53519,4647, Note_on_c,72,108,5,2,1,84.0,True
53520,4647, Note_on_c,75,108,5,2,1,87.0,False
53521,4648, Note_on_c,63,108,5,2,1,73.0,False
53522,4650, Note_on_c,72,108,5,2,1,84.0,True
53523,4650, Note_on_c,75,108,5,2,1,87.0,False
53524,4651, Note_on_c,68,108,5,2,1,79.0,False
53525,4651, Note_on_c,73,108,5,2,1,85.0,False
53526,4652, Note_on_c,70,108,5,2,1,81.0,False
53527,4652, Note_on_c,75,108,5,2,1,87.0,False
53528,4653, Note_on_c,63,108,5,2,1,73.0,False
53529,4654, Note_on_c,68,108,5,2,1,79.0,False
53530,4654, Note_on_c,73,108,5,2,1,85.0,False
53531,4655, Note_on_c,72,108,5,2,1,84.0,True
53532,4655, Note_on_c,75,108,5,2,1,87.0,False
53533,4656, Note_on_c,63,108,5,2,1,73.0,False
53534,4658, Note_on_c,72,108,5,2,1,84.0,True
53535,4658, Note_on_c,75,108,5,2,1,87.0,False
53536,4659, Note_on_c,68,108,5,2,1,79.0,False
53537,4659, Note_on_c,73,108,5,2,1,85.0,False
53538,4660, Note_on_c,70,108,5,2,1,81.0,False
53539,4660, Note_on_c,75,108,5,2,1,87.0,False
53540,4661, Note_on_c,63,108,5,2,1,73.0,False
53541,4662, Note_on_c,68,108,5,2,1,79.0,False
53542,4662, Note_on_c,73,108,5,2,1,85.0,False
53543,4663, Note_on_c,72,108,5,2,1,84.0,True
53544,4663, Note_on_c,75,108,5,2,1,87.0,False
53545,4664, Note_on_c,63,108,5,2,1,73.0,False
53546,4666, Note_on_c,72,108,5,2,1,84.0,True
53547,4666, Note_on_c,75,108,5,2,1,87.0,False
53548,4667, Note_on_c,68,108,5,2,1,79.0,False
53549,4667, Note_on_c,73,108,5,2,1,85.0,False
53550,4668, Note_on_c,70,108,5,2,1,81.0,False
53551,4668, Note_on_c,75,108,5,2,1,87.0,False
53552,4669, Note_on_c,63,108,5,2,1,73.0,False
53553,4670, Note_on_c,68,108,5,2,1,79.0,False
53554,4670, Note_on_c,73,108,5,2,1,85.0,False
53555,4671, Note_on_c,72,108,5,2,1,84.0,True
53556,4671, Note_on_c,75,108,5,2,1,87.0,False
53557,4672, Note_on_c,63,108,5,2,1,73.0,False
53558,4674, Note_on_c,72,108,5,2,1,84.0,True
53559,4674, Note_on_c,75,108,5,2,1,87.0,False
53560,4675, Note_on_c,68,108,5,2,1,79.0,False
53561,4675, Note_on_c,73,108,5,2,1,85.0,False
53562,4676, Note_on_c,70,108,5,2,1,81.0,False
53563,4676, Note_on_c,75,108,5,2,1,87.0,False
53564,4677, Note_on_c,63,108,5,2,1,73.0,False
53565,4678, Note_on_c,68,108,5,2,1,79.0,False
53566,4678, Note_on_c,73,108,5,2,1,85.0,False
53567,4679, Note_on_c,72,108,5,2,1,84.0,True
53568,4679, Note_on_c,75,108,5,2,1,87.0,False
53569,4680, Note_on_c,63,108,5,2,1,73.0,False
53570,4682, Note_on_c,72,108,5,2,1,84.0,True
53571,4682, Note_on_c,75,108,5,2,1,87.0,False
53572,4683, Note_on_c,68,108,5,2,1,79.0,False
53573,4683, Note_on_c,73,108,5,2,1,85.0,False
53574,4684, Note_on_c,70,108,5,2,1,81.0,False
53575,4684, Note_on_c,75,108,5,2,1,87.0,False
53576,4685, Note_on_c,63,108,5,2,1,73.0,False
53577,4686, Note_on_c,68,108,5,2,1,79.0,False
53578,4686, Note_on_c,73,108,5,2,1,85.0,False
53579,4687, Note_on_c,72,108,5,2,1,84.0,True
53580,4687, Note_on_c,75,108,5,2,1,87.0,False
53581,4688, Note_on_c,63,108,5,2,1,73.0,False
53582,4690, Note_on_c,72,108,5,2,1,84.0,True
53583,4690, Note_on_c,75,108,5,2,1,87.0,False
53584,4691, Note_on_c,68,108,5,2,1,79.0,False
53585,4691, Note_on_c,73,108,5,2,1,85.0,False
53586,4692, Note_on_c,70,108,5,2,1,81.0,False
53587,4692, Note_on_c,75,108,5,2,1,87.0,False
53588,4693, Note_on_c,63,108,5,2,1,73.0,False
53589,4694, Note_on_c,68,108,5,2,1,79.0,False
53590,4694, Note_on_c,73,108,5,2,1,85.0,False
53591,4695, Note_on_c,72,108,5,2,1,84.0,True
53592,4695, Note_on_c,75,108,5,2,1,87.0,False
53593,4696, Note_on_c,63,108,5,2,1,73.0,False
53594,4697, Note_on_c,68,108,5,2,1,79.0,False
53595,4697, Note_on_c,73,108,5,2,1,85.0,False
53596,4698, Note_on_c,72,108,5,2,1,84.0,True
53597,4698, Note_on_c,75,108,5,2,1,87.0,False
53598,4699, Note_on_c,68,108,5,2,1,79.0,False
53599,4699, Note_on_c,73,108,5,2,1,85.0,False
53600,4700, Note_on_c,70,108,5,2,1,81.0,False
53601,4700, Note_on_c,75,108,5,2,1,87.0,False
53602,4701, Note_on_c,63,108,5,2,1,73.0,False
53603,4702, Note_on_c,68,108,5,2,1,79.0,False
53604,4702, Note_on_c,73,108,5,2,1,85.0,False
53605,4703, Note_on_c,72,108,5,2,1,84.0,True
53606,4703, Note_on_c,75,108,5,2,1,87.0,False
53607,4704, Note_on_c,63,108,5,2,1,73.0,False
53608,4705, Note_on_c,68,108,5,2,1,79.0,False
53609,4705, Note_on_c,73,108,5,2,1,85.0,False
53610,4706, Note_on_c,72,108,5,2,1,84.0,True
53611,4706, Note_on_c,75,108,5,2,1,87.0,False
53612,4707, Note_on_c,68,108,5,2,1,79.0,False
53613,4707, Note_on_c,73,108,5,2,1,85.0,False
53614,4708, Note_on_c,70,108,5,2,1,81.0,False
53615,4708, Note_on_c,75,108,5,2,1,87.0,False
53616,4709, Note_on_c,63,108,5,2,1,73.0,False
53617,4710, Note_on_c,68,108,5,2,1,79.0,False
53618,4710, Note_on_c,73,108,5,2,1,85.0,False
53619,4711, Note_on_c,72,108,5,2,1,84.0,True
53620,4711, Note_on_c,75,108,5,2,1,87.0,False
53621,4712, Note_on_c,63,108,5,2,1,73.0,False
53622,4713, Note_on_c,68,108,5,2,1,79.0,False
53623,4713, Note_on_c,73,108,5,2,1,85.0,False
53624,4714, Note_on_c,72,108,5,2,1,84.0,True
53625,4714, Note_on_c,75,108,5,2,1,87.0,False
53626,4715, Note_on_c,68,108,5,2,1,79.0,False
53627,4715, Note_on_c,73,108,5,2,1,85.0,False
53628,4716, Note_on_c,70,108,5,2,1,81.0,False
53629,4716, Note_on_c,75,108,5,2,1,87.0,False
53630,4717, Note_on_c,63,108,5,2,1,73.0,False
53631,4718, Note_on_c,68,108,5,2,1,79.0,False
53632,4718, Note_on_c,73,108,5,2,1,85.0,False
53633,4719, Note_on_c,72,108,5,2,1,84.0,True
53634,4719, Note_on_c,75,108,5,2,1,87.0,False
53635,4720, Note_on_c,63,108,5,2,1,73.0,False
53636,4721, Note_on_c,68,108,5,2,1,79.0,False
53637,4721, Note_on_c,73,108,5,2,1,85.0,False
53638,4722, Note_on_c,72,108,5,2,1,84.0,True
53639,4722, Note_on_c,75,108,5,2,1,87.0,False
53640,4723, Note_on_c,68,108,5,2,1,79.0,False
53641,4723, Note_on_c,73,108,5,2,1,85.0,False
53642,4724, Note_on_c,70,108,5,2,1,81.0,False
53643,4724, Note_on_c,75,108,5,2,1,87.0,False
53644,4725, Note_on_c,63,108,5,2,1,73.0,False
53645,4726, Note_on_c,68,108,5,2,1,79.0,False
53646,4726, Note_on_c,73,108,5,2,1,85.0,False
53647,4727, Note_on_c,72,108,5,2,1,84.0,True
53648,4727, Note_on_c,75,108,5,2,1,87.0,False
53649,4728, Note_on_c,63,108,5,2,1,73.0,False
53650,4729, Note_on_c,68,108,5,2,1,79.0,False
53651,4729, Note_on_c,73,108,5,2,1,85.0,False
53652,4730, Note_on_c,72,108,5,2,1,84.0,True
53653,4730, Note_on_c,75,108,5,2,1,87.0,False
53654,4731, Note_on_c,68,108,5,2,1,79.0,False
53655,4731, Note_on_c,73,108,5,2,1,85.0,False
53656,4732, Note_on_c,70,108,5,2,1,81.0,False
53657,4732, Note_on_c,75,108,5,2,1,87.0,False
53658,4733, Note_on_c,63,108,5,2,1,73.0,False
53659,4734, Note_on_c,68,108,5,2,1,79.0,False
53660,4734, Note_on_c,73,108,5,2,1,85.0,False
53661,4735, Note_on_c,72,108,5,2,1,84.0,True
53662,4735, Note_on_c,75,108,5,2,1,87.0,False
53663,4736, Note_on_c,63,108,5,2,1,73.0,False
53664,4737, Note_on_c,68,108,5,2,1,79.0,False
53665,4737, Note_on_c,73,108,5,2,1,85.0,False
53666,4738, Note_on_c,72,108,5,2,1,84.0,True
53667,4738, Note_on_c,75,108,5,2,1,87.0,False
53668,4739, Note_on_c,68,108,5,2,1,79.0,False
53669,4739, Note_on_c,73,108,5,2,1,85.0,False
53670,4740, Note_on_c,70,108,5,2,1,81.0,False
53671,4740, Note_on_c,75,108,5,2,1,87.0,False
53672,4741, Note_on_c,63,108,5,2,1,73.0,False
53673,4742, Note_on_c,68,108,5,2,1,79.0,False
53674,4742, Note_on_c,73,108,5,2,1,85.0,False
53675,4743, Note_on_c,72,108,5,2,1,84.0,True
53676,4743, Note_on_c,75,108,5,2,1,87.0,False
53677,4744, Note_on_c,63,108,5,2,1,73.0,False
53678,4745, Note_on_c,68,108,5,2,1,79.0,False
53679,4745, Note_on_c,73,108,5,2,1,85.0,False
53680,4746, Note_on_c,72,108,5,2,1,84.0,True
53681,4746, Note_on_c,75,108,5,2,1,87.0,False
53682,4747, Note_on_c,68,108,5,2,1,79.0,False
53683,4747, Note_on_c,73,108,5,2,1,85.0,False
53684,4748, Note_on_c,70,108,5,2,1,81.0,False
53685,4748, Note_on_c,75,108,5,2,1,87.0,False
53686,4749, Note_on_c,63,108,5,2,1,73.0,False
53687,4750, Note_on_c,68,108,5,2,1,79.0,False
53688,4750, Note_on_c,73,108,5,2,1,85.0,False
53689,4751, Note_on_c,72,108,5,2,1,84.0,True
53690,4751, Note_on_c,75,108,5,2,1,87.0,False
53691,4752, Note_on_c,63,108,5,2,1,73.0,False
53692,4753, Note_on_c,68,108,5,2,1,79.0,False
53693,4753, Note_on_c,73,108,5,2,1,85.0,False
53694,4754, Note_on_c,72,108,5,2,1,84.0,True
53695,4754, Note_on_c,75,108,5,2,1,87.0,False
53696,4755, Note_on_c,68,108,5,2,1,79.0,False
53697,4755, Note_on_c,73,108,5,2,1,85.0,False
53698,4756, Note_on_c,70,108,5,2,1,81.0,False
53699,4756, Note_on_c,75,108,5,2,1,87.0,False
53700,4757, Note_on_c,63,108,5,2,1,73.0,False
53701,4758, Note_on_c,68,108,5,2,1,79.0,False
53702,4758, Note_on_c,73,108,5,2,1,85.0,False
53703,4759, Note_on_c,72,108,5,2,1,84.0,True
53704,4759, Note_on_c,75,108,5,2,1,87.0,False
53705,4760, Note_on_c,63,108,5,2,1,73.0,False
53706,4761, Note_on_c,68,106,5,2,1,79.0,False
53707,4761, Note_on_c,73,106,5,2,1,85.0,False
53708,4762, Note_on_c,72,102,5,2,1,84.0,True
53709,4762, Note_on_c,75,102,5,2,1,87.0,False
53710,4763, Note_on_c,68,97,5,2,1,79.0,False
53711,4763, Note_on_c,73,97,5,2,1,85.0,False
53712,4764, Note_on_c,70,93,5,2,1,81.0,False
53713,4764, Note_on_c,75,93,5,2,1,87.0,False
53714,4765, Note_on_c,63,89,5,2,1,73.0,False
53715,4766, Note_on_c,68,84,5,2,1,79.0,False
53716,4766, Note_on_c,73,84,5,2,1,85.0,False
53717,4767, Note_on_c,72,80,5,2,1,84.0,True
53718,4767, Note_on_c,75,80,5,2,1,87.0,False
53719,4768, Note_on_c,63,76,5,2,1,73.0,False
53720,4769, Note_on_c,68,71,5,2,1,79.0,False
53721,4769, Note_on_c,73,71,5,2,1,85.0,False
53722,4770, Note_on_c,72,67,5,2,1,84.0,True
53723,4770, Note_on_c,75,67,5,2,1,87.0,False
53724,4771, Note_on_c,68,62,5,2,1,79.0,False
53725,4771, Note_on_c,73,62,5,2,1,85.0,False
53726,4772, Note_on_c,70,58,5,2,1,81.0,False
53727,4772, Note_on_c,75,58,5,2,1,87.0,False
53728,4773, Note_on_c,63,54,5,2,1,73.0,False
53729,4774, Note_on_c,68,49,5,2,1,79.0,False
53730,4774, Note_on_c,73,49,5,2,1,85.0,False
53731,4775, Note_on_c,72,45,5,2,1,84.0,True
53732,4775, Note_on_c,75,45,5,2,1,87.0,False
53733,4776, Note_on_c,63,41,5,2,1,73.0,False
53734,4777, Note_on_c,68,36,5,2,1,79.0,False
53735,4777, Note_on_c,73,36,5,2,1,85.0,False
53736,4778, Note_on_c,72,32,5,2,1,84.0,True
53737,4778, Note_on_c,75,32,5,2,1,87.0,False
53738,4779, Note_on_c,68,28,5,2,1,79.0,False
53739,4779, Note_on_c,73,28,5,2,1,85.0,False
53740,4780, Note_on_c,70,23,5,2,1,81.0,False
53741,4780, Note_on_c,75,23,5,2,1,87.0,False
53742,4781, Note_on_c,63,19,5,2,1,73.0,False
53743,4782, Note_on_c,68,15,5,2,1,79.0,False
53744,4782, Note_on_c,73,15,5,2,1,85.0,False
53745,4783, Note_on_c,72,10,5,2,1,84.0,True
53746,4783, Note_on_c,75,10,5,2,1,87.0,False
53747,4784, Note_on_c,63,6,5,2,1,73.0,False
53748,4785, Note_on_c,68,76,5,2,1,79.0,False
53749,4785, Note_on_c,73,76,5,2,1,85.0,False
53750,4786, Note_on_c,72,76,5,2,1,84.0,True
53751,4786, Note_on_c,75,76,5,2,1,87.0,False
53752,4787, Note_on_c,68,76,5,2,1,79.0,False
53753,4787, Note_on_c,73,76,5,2,1,85.0,False
53754,4788, Note_on_c,70,76,5,2,1,81.0,False
53755,4788, Note_on_c,75,76,5,2,1,87.0,False
53756,4789, Note_on_c,63,76,5,2,1,73.0,False
53757,4790, Note_on_c,68,76,5,2,1,79.0,False
53758,4790, Note_on_c,73,76,5,2,1,85.0,False
53759,4791, Note_on_c,72,76,5,2,1,84.0,True
53760,4791, Note_on_c,75,76,5,2,1,87.0,False
53761,4792, Note_on_c,63,76,5,2,1,73.0,False
53762,4793, Note_on_c,68,76,5,2,1,79.0,False
53763,4793, Note_on_c,73,76,5,2,1,85.0,False
53764,4794, Note_on_c,72,76,5,2,1,84.0,True
53765,4794, Note_on_c,75,76,5,2,1,87.0,False
53766,4795, Note_on_c,68,76,5,2,1,79.0,False
53767,4795, Note_on_c,73,76,5,2,1,85.0,False
53768,4796, Note_on_c,70,76,5,2,1,81.0,False
53769,4796, Note_on_c,75,76,5,2,1,87.0,False
53770,4797, Note_on_c,63,76,5,2,1,73.0,False
53771,4798, Note_on_c,68,76,5,2,1,79.0,False
53772,4798, Note_on_c,73,76,5,2,1,85.0,False
53773,4799, Note_on_c,72,76,5,2,1,84.0,True
53774,4799, Note_on_c,75,76,5,2,1,87.0,False
53775,4800, Note_on_c,63,76,5,2,1,73.0,False
53776,4801, Note_on_c,68,76,5,2,1,79.0,False
53777,4801, Note_on_c,73,76,5,2,1,85.0,False
53778,4802, Note_on_c,72,76,5,2,1,84.0,True
53779,4802, Note_on_c,75,76,5,2,1,87.0,False
53780,4803, Note_on_c,68,76,5,2,1,79.0,False
53781,4803, Note_on_c,73,76,5,2,1,85.0,False
53782,4804, Note_on_c,70,76,5,2,1,81.0,False
53783,4804, Note_on_c,75,76,5,2,1,87.0,False
53784,4805, Note_on_c,63,76,5,2,1,73.0,False
53785,4806, Note_on_c,68,76,5,2,1,79.0,False
53786,4806, Note_on_c,73,76,5,2,1,85.0,False
53787,4807, Note_on_c,72,76,5,2,1,84.0,True
53788,4807, Note_on_c,75,76,5,2,1,87.0,False
53789,4808, Note_on_c,63,76,5,2,1,73.0,False
53790,4809, Note_on_c,68,76,5,2,1,79.0,False
53791,4809, Note_on_c,73,76,5,2,1,85.0,False
53792,4810, Note_on_c,72,76,5,2,1,84.0,True
53793,4810, Note_on_c,75,76,5,2,1,87.0,False
53794,4811, Note_on_c,68,76,5,2,1,79.0,False
53795,4811, Note_on_c,73,76,5,2,1,85.0,False
53796,4812, Note_on_c,70,76,5,2,1,81.0,False
53797,4812, Note_on_c,75,76,5,2,1,87.0,False
53798,4813, Note_on_c,63,76,5,2,1,73.0,False
53799,4814, Note_on_c,68,76,5,2,1,79.0,False
53800,4814, Note_on_c,73,76,5,2,1,85.0,False
53801,4815, Note_on_c,72,76,5,2,1,84.0,True
53802,4815, Note_on_c,75,76,5,2,1,87.0,False
53803,4816, Note_on_c,63,76,5,2,1,73.0,False
53804,4817, Note_on_c,68,76,5,2,1,79.0,False
53805,4817, Note_on_c,73,76,5,2,1,85.0,False
53806,4818, Note_on_c,72,76,5,2,1,84.0,True
53807,4818, Note_on_c,75,76,5,2,1,87.0,False
53808,4819, Note_on_c,68,76,5,2,1,79.0,False
53809,4819, Note_on_c,73,76,5,2,1,85.0,False
53810,4820, Note_on_c,70,76,5,2,1,81.0,False
53811,4820, Note_on_c,75,76,5,2,1,87.0,False
53812,4821, Note_on_c,63,76,5,2,1,73.0,False
53813,4822, Note_on_c,68,76,5,2,1,79.0,False
53814,4822, Note_on_c,73,76,5,2,1,85.0,False
53815,4823, Note_on_c,72,76,5,2,1,84.0,True
53816,4823, Note_on_c,75,76,5,2,1,87.0,False
53817,4824, Note_on_c,63,76,5,2,1,73.0,False
53818,4825, Note_on_c,68,76,5,2,1,79.0,False
53819,4825, Note_on_c,73,76,5,2,1,85.0,False
53820,4826, Note_on_c,72,76,5,2,1,84.0,True
53821,4826, Note_on_c,75,76,5,2,1,87.0,False
53822,4827, Note_on_c,68,76,5,2,1,79.0,False
53823,4827, Note_on_c,73,76,5,2,1,85.0,False
53824,4828, Note_on_c,70,76,5,2,1,81.0,False
53825,4828, Note_on_c,75,76,5,2,1,87.0,False
53826,4829, Note_on_c,63,76,5,2,1,73.0,False
53827,4830, Note_on_c,68,76,5,2,1,79.0,False
53828,4830, Note_on_c,73,76,5,2,1,85.0,False
53829,4831, Note_on_c,72,76,5,2,1,84.0,True
53830,4831, Note_on_c,75,76,5,2,1,87.0,False
53831,4832, Note_on_c,63,76,5,2,1,73.0,False
53832,4833, Note_on_c,68,76,5,2,1,79.0,False
53833,4833, Note_on_c,73,76,5,2,1,85.0,False
53834,4834, Note_on_c,72,76,5,2,1,84.0,True
53835,4834, Note_on_c,75,76,5,2,1,87.0,False
53836,4835, Note_on_c,68,76,5,2,1,79.0,False
53837,4835, Note_on_c,73,76,5,2,1,85.0,False
53838,4836, Note_on_c,70,76,5,2,1,81.0,False
53839,4836, Note_on_c,75,76,5,2,1,87.0,False
53840,4837, Note_on_c,63,76,5,2,1,73.0,False
53841,4838, Note_on_c,68,76,5,2,1,79.0,False
53842,4838, Note_on_c,73,76,5,2,1,85.0,False
53843,4839, Note_on_c,72,76,5,2,1,84.0,True
53844,4839, Note_on_c,75,76,5,2,1,87.0,False
53845,4840, Note_on_c,63,76,5,2,1,73.0,False
53846,4841, Note_on_c,68,76,5,2,1,79.0,False
53847,4841, Note_on_c,73,76,5,2,1,85.0,False
53848,4842, Note_on_c,72,76,5,2,1,84.0,True
53849,4842, Note_on_c,75,76,5,2,1,87.0,False
53850,4843, Note_on_c,68,76,5,2,1,79.0,False
53851,4843, Note_on_c,73,76,5,2,1,85.0,False
53852,4844, Note_on_c,70,76,5,2,1,81.0,False
53853,4844, Note_on_c,75,76,5,2,1,87.0,False
53854,4845, Note_on_c,63,76,5,2,1,73.0,False
53855,4846, Note_on_c,68,76,5,2,1,79.0,False
53856,4846, Note_on_c,73,76,5,2,1,85.0,False
53857,4847, Note_on_c,72,76,5,2,1,84.0,True
53858,4847, Note_on_c,75,76,5,2,1,87.0,False
53859,4848, Note_on_c,63,76,5,2,1,73.0,False
53860,4849, Note_on_c,68,76,5,2,1,79.0,False
53861,4849, Note_on_c,73,76,5,2,1,85.0,False
53862,4850, Note_on_c,72,76,5,2,1,84.0,True
53863,4850, Note_on_c,75,76,5,2,1,87.0,False
53864,4851, Note_on_c,68,76,5,2,1,79.0,False
53865,4851, Note_on_c,73,76,5,2,1,85.0,False
53866,4852, Note_on_c,70,76,5,2,1,81.0,False
53867,4852, Note_on_c,75,76,5,2,1,87.0,False
53868,4853, Note_on_c,63,76,5,2,1,73.0,False
53869,4854, Note_on_c,68,76,5,2,1,79.0,False
53870,4854, Note_on_c,73,76,5,2,1,85.0,False
53871,4855, Note_on_c,72,76,5,2,1,84.0,True
53872,4855, Note_on_c,75,76,5,2,1,87.0,False
53873,4856, Note_on_c,63,76,5,2,1,73.0,False
53874,4857, Note_on_c,68,76,5,2,1,79.0,False
53875,4857, Note_on_c,73,76,5,2,1,85.0,False
53876,4858, Note_on_c,72,76,5,2,1,84.0,True
53877,4858, Note_on_c,75,76,5,2,1,87.0,False
53878,4859, Note_on_c,68,76,5,2,1,79.0,False
53879,4859, Note_on_c,73,76,5,2,1,85.0,False
53880,4860, Note_on_c,70,76,5,2,1,81.0,False
53881,4860, Note_on_c,75,76,5,2,1,87.0,False
53882,4861, Note_on_c,63,76,5,2,1,73.0,False
53883,4862, Note_on_c,68,76,5,2,1,79.0,False
53884,4862, Note_on_c,73,76,5,2,1,85.0,False
53885,4863, Note_on_c,72,76,5,2,1,84.0,True
53886,4863, Note_on_c,75,76,5,2,1,87.0,False
53887,4864, Note_on_c,63,76,5,2,1,73.0,False
53888,4865, Note_on_c,68,76,5,2,1,79.0,False
53889,4865, Note_on_c,73,76,5,2,1,85.0,False
53890,4866, Note_on_c,72,76,5,2,1,84.0,True
53891,4866, Note_on_c,75,76,5,2,1,87.0,False
53892,4867, Note_on_c,68,76,5,2,1,79.0,False
53893,4867, Note_on_c,73,76,5,2,1,85.0,False
53894,4868, Note_on_c,70,76,5,2,1,81.0,False
53895,4868, Note_on_c,75,76,5,2,1,87.0,False
53896,4869, Note_on_c,63,76,5,2,1,73.0,False
53897,4870, Note_on_c,68,76,5,2,1,79.0,False
53898,4870, Note_on_c,73,76,5,2,1,85.0,False
53899,4871, Note_on_c,72,76,5,2,1,84.0,True
53900,4871, Note_on_c,75,76,5,2,1,87.0,False
53901,4872, Note_on_c,63,76,5,2,1,73.0,False
53902,4873, Note_on_c,68,76,5,2,1,79.0,False
53903,4873, Note_on_c,73,76,5,2,1,85.0,False
53904,4874, Note_on_c,72,76,5,2,1,84.0,True
53905,4874, Note_on_c,75,76,5,2,1,87.0,False
53906,4875, Note_on_c,68,76,5,2,1,79.0,False
53907,4875, Note_on_c,73,76,5,2,1,85.0,False
53908,4876, Note_on_c,70,76,5,2,1,81.0,False
53909,4876, Note_on_c,75,76,5,2,1,87.0,False
53910,4877, Note_on_c,63,76,5,2,1,73.0,False
53911,4878, Note_on_c,68,76,5,2,1,79.0,False
53912,4878, Note_on_c,73,76,5,2,1,85.0,False
53913,4879, Note_on_c,72,76,5,2,1,84.0,True
53914,4879, Note_on_c,75,76,5,2,1,87.0,False
53915,4880, Note_on_c,63,76,5,2,1,73.0,False
53916,4881, Note_on_c,68,76,5,2,1,79.0,False
53917,4881, Note_on_c,73,76,5,2,1,85.0,False
53918,4882, Note_on_c,72,76,5,2,1,84.0,True
53919,4882, Note_on_c,75,76,5,2,1,87.0,False
53920,4883, Note_on_c,68,76,5,2,1,79.0,False
53921,4883, Note_on_c,73,76,5,2,1,85.0,False
53922,4884, Note_on_c,70,76,5,2,1,81.0,False
53923,4884, Note_on_c,75,76,5,2,1,87.0,False
53924,4885, Note_on_c,63,76,5,2,1,73.0,False
53925,4886, Note_on_c,68,76,5,2,1,79.0,False
53926,4886, Note_on_c,73,76,5,2,1,85.0,False
53927,4887, Note_on_c,72,76,5,2,1,84.0,True
53928,4887, Note_on_c,75,76,5,2,1,87.0,False
53929,4888, Note_on_c,63,76,5,2,1,73.0,False
53930,4889, Note_on_c,68,76,5,2,1,79.0,False
53931,4889, Note_on_c,73,76,5,2,1,85.0,False
53932,4890, Note_on_c,72,76,5,2,1,84.0,True
53933,4890, Note_on_c,75,76,5,2,1,87.0,False
53934,4891, Note_on_c,68,76,5,2,1,79.0,False
53935,4891, Note_on_c,73,76,5,2,1,85.0,False
53936,4892, Note_on_c,70,76,5,2,1,81.0,False
53937,4892, Note_on_c,75,76,5,2,1,87.0,False
53938,4893, Note_on_c,63,76,5,2,1,73.0,False
53939,4894, Note_on_c,68,76,5,2,1,79.0,False
53940,4894, Note_on_c,73,76,5,2,1,85.0,False
53941,4895, Note_on_c,72,76,5,2,1,84.0,True
53942,4895, Note_on_c,75,76,5,2,1,87.0,False
53943,4896, Note_on_c,63,76,5,2,1,73.0,False
53944,4897, Note_on_c,68,76,5,2,1,79.0,False
53945,4897, Note_on_c,73,76,5,2,1,85.0,False
53946,4898, Note_on_c,72,76,5,2,1,84.0,True
53947,4898, Note_on_c,75,76,5,2,1,87.0,False
53948,4899, Note_on_c,68,76,5,2,1,79.0,False
53949,4899, Note_on_c,73,76,5,2,1,85.0,False
53950,4900, Note_on_c,70,76,5,2,1,81.0,False
53951,4900, Note_on_c,75,76,5,2,1,87.0,False
53952,4901, Note_on_c,63,76,5,2,1,73.0,False
53953,4902, Note_on_c,68,76,5,2,1,79.0,False
53954,4902, Note_on_c,73,76,5,2,1,85.0,False
53955,4903, Note_on_c,72,76,5,2,1,84.0,True
53956,4903, Note_on_c,75,76,5,2,1,87.0,False
53957,4904, Note_on_c,63,76,5,2,1,73.0,False
53958,4905, Note_on_c,68,76,5,2,1,79.0,False
53959,4905, Note_on_c,73,76,5,2,1,85.0,False
53960,4906, Note_on_c,72,76,5,2,1,84.0,True
53961,4906, Note_on_c,75,76,5,2,1,87.0,False
53962,4907, Note_on_c,68,76,5,2,1,79.0,False
53963,4907, Note_on_c,73,76,5,2,1,85.0,False
53964,4908, Note_on_c,70,76,5,2,1,81.0,False
53965,4908, Note_on_c,75,76,5,2,1,87.0,False
53966,4909, Note_on_c,63,76,5,2,1,73.0,False
53967,4910, Note_on_c,68,76,5,2,1,79.0,False
53968,4910, Note_on_c,73,76,5,2,1,85.0,False
53969,4911, Note_on_c,72,76,5,2,1,84.0,True
53970,4911, Note_on_c,75,76,5,2,1,87.0,False
53971,4912, Note_on_c,63,76,5,2,1,73.0,False
53972,4913, Note_on_c,68,76,5,2,1,79.0,False
53973,4913, Note_on_c,73,76,5,2,1,85.0,False
53974,4914, Note_on_c,72,76,5,2,1,84.0,True
53975,4914, Note_on_c,75,76,5,2,1,87.0,False
53976,4915, Note_on_c,68,76,5,2,1,79.0,False
53977,4915, Note_on_c,73,76,5,2,1,85.0,False
53978,4916, Note_on_c,70,76,5,2,1,81.0,False
53979,4916, Note_on_c,75,76,5,2,1,87.0,False
53980,4917, Note_on_c,63,76,5,2,1,73.0,False
53981,4918, Note_on_c,68,76,5,2,1,79.0,False
53982,4918, Note_on_c,73,76,5,2,1,85.0,False
53983,4919, Note_on_c,72,76,5,2,1,84.0,True
53984,4919, Note_on_c,75,76,5,2,1,87.0,False
53985,4920, Note_on_c,63,76,5,2,1,73.0,False
53986,4921, Note_on_c,68,76,5,2,1,79.0,False
53987,4921, Note_on_c,73,76,5,2,1,85.0,False
53988,4922, Note_on_c,72,76,5,2,1,84.0,True
53989,4922, Note_on_c,75,76,5,2,1,87.0,False
53990,4923, Note_on_c,68,76,5,2,1,79.0,False
53991,4923, Note_on_c,73,76,5,2,1,85.0,False
53992,4924, Note_on_c,70,76,5,2,1,81.0,False
53993,4924, Note_on_c,75,76,5,2,1,87.0,False
53994,4925, Note_on_c,63,76,5,2,1,73.0,False
53995,4926, Note_on_c,68,76,5,2,1,79.0,False
53996,4926, Note_on_c,73,76,5,2,1,85.0,False
53997,4927, Note_on_c,72,76,5,2,1,84.0,True
53998,4927, Note_on_c,75,76,5,2,1,87.0,False
53999,4928, Note_on_c,63,76,5,2,1,73.0,False
54000,4929, Note_on_c,68,76,5,2,1,79.0,False
54001,4929, Note_on_c,73,76,5,2,1,85.0,False
54002,4930, Note_on_c,72,76,5,2,1,84.0,True
54003,4930, Note_on_c,75,76,5,2,1,87.0,False
54004,4931, Note_on_c,68,76,5,2,1,79.0,False
54005,4931, Note_on_c,73,76,5,2,1,85.0,False
54006,4932, Note_on_c,70,76,5,2,1,81.0,False
54007,4932, Note_on_c,75,76,5,2,1,87.0,False
54008,4933, Note_on_c,63,76,5,2,1,73.0,False
54009,4934, Note_on_c,68,76,5,2,1,79.0,False
54010,4934, Note_on_c,73,76,5,2,1,85.0,False
54011,4935, Note_on_c,72,76,5,2,1,84.0,True
54012,4935, Note_on_c,75,76,5,2,1,87.0,False
54013,4936, Note_on_c,63,76,5,2,1,73.0,False
54014,4937, Note_on_c,68,76,5,2,1,79.0,False
54015,4937, Note_on_c,73,76,5,2,1,85.0,False
54016,4938, Note_on_c,72,76,5,2,1,84.0,True
54017,4938, Note_on_c,75,76,5,2,1,87.0,False
54018,4939, Note_on_c,68,76,5,2,1,79.0,False
54019,4939, Note_on_c,73,76,5,2,1,85.0,False
54020,4940, Note_on_c,70,76,5,2,1,81.0,False
54021,4940, Note_on_c,75,76,5,2,1,87.0,False
54022,4941, Note_on_c,63,76,5,2,1,73.0,False
54023,4942, Note_on_c,68,76,5,2,1,79.0,False
54024,4942, Note_on_c,73,76,5,2,1,85.0,False
54025,4943, Note_on_c,72,76,5,2,1,84.0,True
54026,4943, Note_on_c,75,76,5,2,1,87.0,False
54027,4944, Note_on_c,63,76,5,2,1,73.0,False
54028,4945, Note_on_c,68,76,5,2,1,79.0,False
54029,4945, Note_on_c,73,76,5,2,1,85.0,False
54030,4946, Note_on_c,72,76,5,2,1,84.0,True
54031,4946, Note_on_c,75,76,5,2,1,87.0,False
54032,4947, Note_on_c,68,76,5,2,1,79.0,False
54033,4947, Note_on_c,73,76,5,2,1,85.0,False
54034,4948, Note_on_c,70,76,5,2,1,81.0,False
54035,4948, Note_on_c,75,76,5,2,1,87.0,False
54036,4949, Note_on_c,63,76,5,2,1,73.0,False
54037,4950, Note_on_c,68,76,5,2,1,79.0,False
54038,4950, Note_on_c,73,76,5,2,1,85.0,False
54039,4951, Note_on_c,72,76,5,2,1,84.0,True
54040,4951, Note_on_c,75,76,5,2,1,87.0,False
54041,4952, Note_on_c,63,76,5,2,1,73.0,False
54042,4953, Note_on_c,68,76,5,2,1,79.0,False
54043,4953, Note_on_c,73,76,5,2,1,85.0,False
54044,4954, Note_on_c,72,76,5,2,1,84.0,True
54045,4954, Note_on_c,75,76,5,2,1,87.0,False
54046,4955, Note_on_c,68,76,5,2,1,79.0,False
54047,4955, Note_on_c,73,76,5,2,1,85.0,False
54048,4956, Note_on_c,70,76,5,2,1,81.0,False
54049,4956, Note_on_c,75,76,5,2,1,87.0,False
54050,4957, Note_on_c,63,76,5,2,1,73.0,False
54051,4958, Note_on_c,68,76,5,2,1,79.0,False
54052,4958, Note_on_c,73,76,5,2,1,85.0,False
54053,4959, Note_on_c,72,76,5,2,1,84.0,True
54054,4959, Note_on_c,75,76,5,2,1,87.0,False
54055,4960, Note_on_c,63,76,5,2,1,73.0,False
54056,4961, Note_on_c,68,76,5,2,1,79.0,False
54057,4961, Note_on_c,73,76,5,2,1,85.0,False
54058,4962, Note_on_c,72,76,5,2,1,84.0,True
54059,4962, Note_on_c,75,76,5,2,1,87.0,False
54060,4963, Note_on_c,68,76,5,2,1,79.0,False
54061,4963, Note_on_c,73,76,5,2,1,85.0,False
54062,4964, Note_on_c,70,76,5,2,1,81.0,False
54063,4964, Note_on_c,75,76,5,2,1,87.0,False
54064,4965, Note_on_c,63,76,5,2,1,73.0,False
54065,4966, Note_on_c,68,76,5,2,1,79.0,False
54066,4966, Note_on_c,73,76,5,2,1,85.0,False
54067,4967, Note_on_c,72,76,5,2,1,84.0,True
54068,4967, Note_on_c,75,76,5,2,1,87.0,False
54069,4968, Note_on_c,63,76,5,2,1,73.0,False
54070,4969, Note_on_c,68,76,5,2,1,79.0,False
54071,4969, Note_on_c,73,76,5,2,1,85.0,False
54072,4970, Note_on_c,72,76,5,2,1,84.0,True
54073,4970, Note_on_c,75,76,5,2,1,87.0,False
54074,4971, Note_on_c,68,76,5,2,1,79.0,False
54075,4971, Note_on_c,73,76,5,2,1,85.0,False
54076,4972, Note_on_c,70,76,5,2,1,81.0,False
54077,4972, Note_on_c,75,76,5,2,1,87.0,False
54078,4973, Note_on_c,63,76,5,2,1,73.0,False
54079,4974, Note_on_c,68,76,5,2,1,79.0,False
54080,4974, Note_on_c,73,76,5,2,1,85.0,False
54081,4975, Note_on_c,72,76,5,2,1,84.0,True
54082,4975, Note_on_c,75,76,5,2,1,87.0,False
54083,4976, Note_on_c,63,76,5,2,1,73.0,False
54084,4977, Note_on_c,68,76,5,2,1,79.0,False
54085,4977, Note_on_c,73,76,5,2,1,85.0,False
54086,4978, Note_on_c,72,76,5,2,1,84.0,True
54087,4978, Note_on_c,75,76,5,2,1,87.0,False
54088,4979, Note_on_c,68,76,5,2,1,79.0,False
54089,4979, Note_on_c,73,76,5,2,1,85.0,False
54090,4980, Note_on_c,70,76,5,2,1,81.0,False
54091,4980, Note_on_c,75,76,5,2,1,87.0,False
54092,4981, Note_on_c,63,76,5,2,1,73.0,False
54093,4982, Note_on_c,68,76,5,2,1,79.0,False
54094,4982, Note_on_c,73,76,5,2,1,85.0,False
54095,4983, Note_on_c,72,76,5,2,1,84.0,True
54096,4983, Note_on_c,75,76,5,2,1,87.0,False
54097,4984, Note_on_c,63,76,5,2,1,73.0,False
54098,4985, Note_on_c,68,76,5,2,1,79.0,False
54099,4985, Note_on_c,73,76,5,2,1,85.0,False
54100,4986, Note_on_c,72,76,5,2,1,84.0,True
54101,4986, Note_on_c,75,76,5,2,1,87.0,False
54102,4987, Note_on_c,68,76,5,2,1,79.0,False
54103,4987, Note_on_c,73,76,5,2,1,85.0,False
54104,4988, Note_on_c,70,76,5,2,1,81.0,False
54105,4988, Note_on_c,75,76,5,2,1,87.0,False
54106,4989, Note_on_c,63,76,5,2,1,73.0,False
54107,4990, Note_on_c,68,76,5,2,1,79.0,False
54108,4990, Note_on_c,73,76,5,2,1,85.0,False
54109,4991, Note_on_c,72,76,5,2,1,84.0,True
54110,4991, Note_on_c,75,76,5,2,1,87.0,False
54111,4992, Note_on_c,63,76,5,2,1,73.0,False
54112,4993, Note_on_c,68,76,5,2,1,79.0,False
54113,4993, Note_on_c,73,76,5,2,1,85.0,False
54114,4994, Note_on_c,72,76,5,2,1,84.0,True
54115,4994, Note_on_c,75,76,5,2,1,87.0,False
54116,4995, Note_on_c,68,76,5,2,1,79.0,False
54117,4995, Note_on_c,73,76,5,2,1,85.0,False
54118,4996, Note_on_c,70,76,5,2,1,81.0,False
54119,4996, Note_on_c,75,76,5,2,1,87.0,False
54120,4997, Note_on_c,63,76,5,2,1,73.0,False
54121,4998, Note_on_c,68,76,5,2,1,79.0,False
54122,4998, Note_on_c,73,76,5,2,1,85.0,False
54123,4999, Note_on_c,72,76,5,2,1,84.0,True
54124,4999, Note_on_c,75,76,5,2,1,87.0,False
54125,5000, Note_on_c,63,76,5,2,1,73.0,False
54126,5001, Note_on_c,68,76,5,2,1,79.0,False
54127,5001, Note_on_c,73,76,5,2,1,85.0,False
54128,5002, Note_on_c,72,76,5,2,1,84.0,True
54129,5002, Note_on_c,75,76,5,2,1,87.0,False
54130,5003, Note_on_c,68,76,5,2,1,79.0,False
54131,5003, Note_on_c,73,76,5,2,1,85.0,False
54132,5004, Note_on_c,70,76,5,2,1,81.0,False
54133,5004, Note_on_c,75,76,5,2,1,87.0,False
54134,5005, Note_on_c,63,76,5,2,1,73.0,False
54135,5006, Note_on_c,68,76,5,2,1,79.0,False
54136,5006, Note_on_c,73,76,5,2,1,85.0,False
54137,5007, Note_on_c,72,76,5,2,1,84.0,True
54138,5007, Note_on_c,75,76,5,2,1,87.0,False
54139,5008, Note_on_c,63,76,5,2,1,73.0,False
54140,5009, Note_on_c,68,76,5,2,1,79.0,False
54141,5009, Note_on_c,73,76,5,2,1,85.0,False
54142,5010, Note_on_c,72,76,5,2,1,84.0,True
54143,5010, Note_on_c,75,76,5,2,1,87.0,False
54144,5011, Note_on_c,68,76,5,2,1,79.0,False
54145,5011, Note_on_c,73,76,5,2,1,85.0,False
54146,5012, Note_on_c,70,76,5,2,1,81.0,False
54147,5012, Note_on_c,75,76,5,2,1,87.0,False
54148,5013, Note_on_c,63,76,5,2,1,73.0,False
54149,5014, Note_on_c,68,76,5,2,1,79.0,False
54150,5014, Note_on_c,73,76,5,2,1,85.0,False
54151,5015, Note_on_c,72,76,5,2,1,84.0,True
54152,5015, Note_on_c,75,76,5,2,1,87.0,False
54153,5016, Note_on_c,63,76,5,2,1,73.0,False
54154,5017, Note_on_c,68,76,5,2,1,79.0,False
54155,5017, Note_on_c,73,76,5,2,1,85.0,False
54156,5018, Note_on_c,72,76,5,2,1,84.0,True
54157,5018, Note_on_c,75,76,5,2,1,87.0,False
54158,5019, Note_on_c,68,76,5,2,1,79.0,False
54159,5019, Note_on_c,73,76,5,2,1,85.0,False
54160,5020, Note_on_c,70,76,5,2,1,81.0,False
54161,5020, Note_on_c,75,76,5,2,1,87.0,False
54162,5021, Note_on_c,63,76,5,2,1,73.0,False
54163,5022, Note_on_c,68,76,5,2,1,79.0,False
54164,5022, Note_on_c,73,76,5,2,1,85.0,False
54165,5023, Note_on_c,72,76,5,2,1,84.0,True
54166,5023, Note_on_c,75,76,5,2,1,87.0,False
54167,5024, Note_on_c,63,76,5,2,1,73.0,False
54168,5025, Note_on_c,68,76,5,2,1,79.0,False
54169,5025, Note_on_c,73,76,5,2,1,85.0,False
54170,5026, Note_on_c,72,76,5,2,1,84.0,True
54171,5026, Note_on_c,75,76,5,2,1,87.0,False
54172,5027, Note_on_c,68,76,5,2,1,79.0,False
54173,5027, Note_on_c,73,76,5,2,1,85.0,False
54174,5028, Note_on_c,70,76,5,2,1,81.0,False
54175,5028, Note_on_c,75,76,5,2,1,87.0,False
54176,5029, Note_on_c,63,76,5,2,1,73.0,False
54177,5030, Note_on_c,68,76,5,2,1,79.0,False
54178,5030, Note_on_c,73,76,5,2,1,85.0,False
54179,5031, Note_on_c,72,76,5,2,1,84.0,True
54180,5031, Note_on_c,75,76,5,2,1,87.0,False
54181,5032, Note_on_c,63,76,5,2,1,73.0,False
54182,5033, Note_on_c,68,76,5,2,1,79.0,False
54183,5033, Note_on_c,73,76,5,2,1,85.0,False
54184,5034, Note_on_c,72,76,5,2,1,84.0,True
54185,5034, Note_on_c,75,76,5,2,1,87.0,False
54186,5035, Note_on_c,68,76,5,2,1,79.0,False
54187,5035, Note_on_c,73,76,5,2,1,85.0,False
54188,5036, Note_on_c,70,76,5,2,1,81.0,False
54189,5036, Note_on_c,75,76,5,2,1,87.0,False
54190,5037, Note_on_c,63,76,5,2,1,73.0,False
54191,5038, Note_on_c,68,76,5,2,1,79.0,False
54192,5038, Note_on_c,73,76,5,2,1,85.0,False
54193,5039, Note_on_c,72,76,5,2,1,84.0,True
54194,5039, Note_on_c,75,76,5,2,1,87.0,False
54195,5040, Note_on_c,63,76,5,2,1,73.0,False
54196,5041, Note_on_c,68,76,5,2,1,79.0,False
54197,5041, Note_on_c,73,76,5,2,1,85.0,False
54198,5042, Note_on_c,72,76,5,2,1,84.0,True
54199,5042, Note_on_c,75,76,5,2,1,87.0,False
54200,5043, Note_on_c,68,76,5,2,1,79.0,False
54201,5043, Note_on_c,73,76,5,2,1,85.0,False
54202,5044, Note_on_c,70,76,5,2,1,81.0,False
54203,5044, Note_on_c,75,76,5,2,1,87.0,False
54204,5045, Note_on_c,63,76,5,2,1,73.0,False
54205,5046, Note_on_c,68,76,5,2,1,79.0,False
54206,5046, Note_on_c,73,76,5,2,1,85.0,False
54207,5047, Note_on_c,72,76,5,2,1,84.0,True
54208,5047, Note_on_c,75,76,5,2,1,87.0,False
54209,5048, Note_on_c,63,76,5,2,1,73.0,False
54210,5049, Note_on_c,68,76,5,2,1,79.0,False
54211,5049, Note_on_c,73,76,5,2,1,85.0,False
54212,5050, Note_on_c,72,76,5,2,1,84.0,True
54213,5050, Note_on_c,75,76,5,2,1,87.0,False
54214,5051, Note_on_c,68,76,5,2,1,79.0,False
54215,5051, Note_on_c,73,76,5,2,1,85.0,False
54216,5052, Note_on_c,70,76,5,2,1,81.0,False
54217,5052, Note_on_c,75,76,5,2,1,87.0,False
54218,5053, Note_on_c,63,76,5,2,1,73.0,False
54219,5054, Note_on_c,68,76,5,2,1,79.0,False
54220,5054, Note_on_c,73,76,5,2,1,85.0,False
54221,5055, Note_on_c,72,76,5,2,1,84.0,True
54222,5055, Note_on_c,75,76,5,2,1,87.0,False
54223,5056, Note_on_c,63,76,5,2,1,73.0,False
54224,5057, Note_on_c,68,76,5,2,1,79.0,False
54225,5057, Note_on_c,73,76,5,2,1,85.0,False
54226,5058, Note_on_c,72,76,5,2,1,84.0,True
54227,5058, Note_on_c,75,76,5,2,1,87.0,False
54228,5059, Note_on_c,68,76,5,2,1,79.0,False
54229,5059, Note_on_c,73,76,5,2,1,85.0,False
54230,5060, Note_on_c,70,76,5,2,1,81.0,False
54231,5060, Note_on_c,75,76,5,2,1,87.0,False
54232,5061, Note_on_c,63,76,5,2,1,73.0,False
54233,5062, Note_on_c,68,76,5,2,1,79.0,False
54234,5062, Note_on_c,73,76,5,2,1,85.0,False
54235,5063, Note_on_c,72,76,5,2,1,84.0,True
54236,5063, Note_on_c,75,76,5,2,1,87.0,False
54237,5064, Note_on_c,63,76,5,2,1,73.0,False
54238,5065, Note_on_c,68,76,5,2,1,79.0,False
54239,5065, Note_on_c,73,76,5,2,1,85.0,False
54240,5066, Note_on_c,72,76,5,2,1,84.0,True
54241,5066, Note_on_c,75,76,5,2,1,87.0,False
54242,5067, Note_on_c,68,76,5,2,1,79.0,False
54243,5067, Note_on_c,73,76,5,2,1,85.0,False
54244,5068, Note_on_c,70,76,5,2,1,81.0,False
54245,5068, Note_on_c,75,76,5,2,1,87.0,False
54246,5069, Note_on_c,63,76,5,2,1,73.0,False
54247,5070, Note_on_c,68,76,5,2,1,79.0,False
54248,5070, Note_on_c,73,76,5,2,1,85.0,False
54249,5071, Note_on_c,72,76,5,2,1,84.0,True
54250,5071, Note_on_c,75,76,5,2,1,87.0,False
54251,5072, Note_on_c,63,76,5,2,1,73.0,False
54252,5073, Note_on_c,68,76,5,2,1,79.0,False
54253,5073, Note_on_c,73,76,5,2,1,85.0,False
54254,5074, Note_on_c,72,76,5,2,1,84.0,True
54255,5074, Note_on_c,75,76,5,2,1,87.0,False
54256,5075, Note_on_c,68,76,5,2,1,79.0,False
54257,5075, Note_on_c,73,76,5,2,1,85.0,False
54258,5076, Note_on_c,70,76,5,2,1,81.0,False
54259,5076, Note_on_c,75,76,5,2,1,87.0,False
54260,5077, Note_on_c,63,76,5,2,1,73.0,False
54261,5078, Note_on_c,68,76,5,2,1,79.0,False
54262,5078, Note_on_c,73,76,5,2,1,85.0,False
54263,5079, Note_on_c,72,76,5,2,1,84.0,True
54264,5079, Note_on_c,75,76,5,2,1,87.0,False
54265,5080, Note_on_c,63,76,5,2,1,73.0,False
54266,5081, Note_on_c,68,76,5,2,1,79.0,False
54267,5081, Note_on_c,73,76,5,2,1,85.0,False
54268,5082, Note_on_c,72,76,5,2,1,84.0,True
54269,5082, Note_on_c,75,76,5,2,1,87.0,False
54270,5083, Note_on_c,68,76,5,2,1,79.0,False
54271,5083, Note_on_c,73,76,5,2,1,85.0,False
54272,5084, Note_on_c,70,76,5,2,1,81.0,False
54273,5084, Note_on_c,75,76,5,2,1,87.0,False
54274,5085, Note_on_c,63,76,5,2,1,73.0,False
54275,5086, Note_on_c,68,76,5,2,1,79.0,False
54276,5086, Note_on_c,73,76,5,2,1,85.0,False
54277,5087, Note_on_c,72,76,5,2,1,84.0,True
54278,5087, Note_on_c,75,76,5,2,1,87.0,False
54279,5088, Note_on_c,63,76,5,2,1,73.0,False
54280,5089, Note_on_c,68,76,5,2,1,79.0,False
54281,5089, Note_on_c,73,76,5,2,1,85.0,False
54282,5090, Note_on_c,72,76,5,2,1,84.0,True
54283,5090, Note_on_c,75,76,5,2,1,87.0,False
54284,5091, Note_on_c,68,76,5,2,1,79.0,False
54285,5091, Note_on_c,73,76,5,2,1,85.0,False
54286,5092, Note_on_c,70,76,5,2,1,81.0,False
54287,5092, Note_on_c,75,76,5,2,1,87.0,False
54288,5093, Note_on_c,63,76,5,2,1,73.0,False
54289,5094, Note_on_c,68,76,5,2,1,79.0,False
54290,5094, Note_on_c,73,76,5,2,1,85.0,False
54291,5095, Note_on_c,72,76,5,2,1,84.0,True
54292,5095, Note_on_c,75,76,5,2,1,87.0,False
54293,5096, Note_on_c,63,76,5,2,1,73.0,False
54294,5097, Note_on_c,68,76,5,2,1,79.0,False
54295,5097, Note_on_c,73,76,5,2,1,85.0,False
54296,5098, Note_on_c,72,76,5,2,1,84.0,True
54297,5098, Note_on_c,75,76,5,2,1,87.0,False
54298,5099, Note_on_c,68,76,5,2,1,79.0,False
54299,5099, Note_on_c,73,76,5,2,1,85.0,False
54300,5100, Note_on_c,70,76,5,2,1,81.0,False
54301,5100, Note_on_c,75,76,5,2,1,87.0,False
54302,5101, Note_on_c,63,76,5,2,1,73.0,False
54303,5102, Note_on_c,68,76,5,2,1,79.0,False
54304,5102, Note_on_c,73,76,5,2,1,85.0,False
54305,5103, Note_on_c,72,76,5,2,1,84.0,True
54306,5103, Note_on_c,75,76,5,2,1,87.0,False
54307,5104, Note_on_c,63,76,5,2,1,73.0,False
54308,5105, Note_on_c,68,76,5,2,1,79.0,False
54309,5105, Note_on_c,73,76,5,2,1,85.0,False
54310,5106, Note_on_c,72,76,5,2,1,84.0,True
54311,5106, Note_on_c,75,76,5,2,1,87.0,False
54312,5107, Note_on_c,68,76,5,2,1,79.0,False
54313,5107, Note_on_c,73,76,5,2,1,85.0,False
54314,5108, Note_on_c,70,76,5,2,1,81.0,False
54315,5108, Note_on_c,75,76,5,2,1,87.0,False
54316,5109, Note_on_c,63,76,5,2,1,73.0,False
54317,5110, Note_on_c,68,76,5,2,1,79.0,False
54318,5110, Note_on_c,73,76,5,2,1,85.0,False
54319,5111, Note_on_c,72,76,5,2,1,84.0,True
54320,5111, Note_on_c,75,76,5,2,1,87.0,False
54321,5112, Note_on_c,63,76,5,2,1,73.0,False
54322,5113, Note_on_c,68,76,5,2,1,79.0,False
54323,5113, Note_on_c,73,76,5,2,1,85.0,False
54324,5114, Note_on_c,72,76,5,2,1,84.0,True
54325,5114, Note_on_c,75,76,5,2,1,87.0,False
54326,5115, Note_on_c,68,76,5,2,1,79.0,False
54327,5115, Note_on_c,73,76,5,2,1,85.0,False
54328,5116, Note_on_c,70,76,5,2,1,81.0,False
54329,5116, Note_on_c,75,76,5,2,1,87.0,False
54330,5117, Note_on_c,63,76,5,2,1,73.0,False
54331,5118, Note_on_c,68,76,5,2,1,79.0,False
54332,5118, Note_on_c,73,76,5,2,1,85.0,False
54333,5119, Note_on_c,72,76,5,2,1,84.0,True
54334,5119, Note_on_c,75,76,5,2,1,87.0,False
54335,5120, Note_on_c,63,76,5,2,1,73.0,False
54336,5121, Note_on_c,68,76,5,2,1,79.0,False
54337,5121, Note_on_c,73,76,5,2,1,85.0,False
54338,5122, Note_on_c,72,76,5,2,1,84.0,True
54339,5122, Note_on_c,75,76,5,2,1,87.0,False
54340,5123, Note_on_c,68,76,5,2,1,79.0,False
54341,5123, Note_on_c,73,76,5,2,1,85.0,False
54342,5124, Note_on_c,70,76,5,2,1,81.0,False
54343,5124, Note_on_c,75,76,5,2,1,87.0,False
54344,5125, Note_on_c,63,76,5,2,1,73.0,False
54345,5126, Note_on_c,68,76,5,2,1,79.0,False
54346,5126, Note_on_c,73,76,5,2,1,85.0,False
54347,5127, Note_on_c,72,76,5,2,1,84.0,True
54348,5127, Note_on_c,75,76,5,2,1,87.0,False
54349,5128, Note_on_c,63,76,5,2,1,73.0,False
54350,5129, Note_on_c,68,76,5,2,1,79.0,False
54351,5129, Note_on_c,73,76,5,2,1,85.0,False
54352,5130, Note_on_c,72,76,5,2,1,84.0,True
54353,5130, Note_on_c,75,76,5,2,1,87.0,False
54354,5131, Note_on_c,68,76,5,2,1,79.0,False
54355,5131, Note_on_c,73,76,5,2,1,85.0,False
54356,5132, Note_on_c,70,76,5,2,1,81.0,False
54357,5132, Note_on_c,75,76,5,2,1,87.0,False
54358,5133, Note_on_c,63,76,5,2,1,73.0,False
54359,5134, Note_on_c,68,76,5,2,1,79.0,False
54360,5134, Note_on_c,73,76,5,2,1,85.0,False
54361,5135, Note_on_c,72,76,5,2,1,84.0,True
54362,5135, Note_on_c,75,76,5,2,1,87.0,False
54363,5136, Note_on_c,63,76,5,2,1,73.0,False
54364,5137, Note_on_c,68,76,5,2,1,79.0,False
54365,5137, Note_on_c,73,76,5,2,1,85.0,False
54366,5138, Note_on_c,72,76,5,2,1,84.0,True
54367,5138, Note_on_c,75,76,5,2,1,87.0,False
54368,5139, Note_on_c,68,76,5,2,1,79.0,False
54369,5139, Note_on_c,73,76,5,2,1,85.0,False
54370,5140, Note_on_c,70,76,5,2,1,81.0,False
54371,5140, Note_on_c,75,76,5,2,1,87.0,False
54372,5141, Note_on_c,63,76,5,2,1,73.0,False
54373,5142, Note_on_c,68,76,5,2,1,79.0,False
54374,5142, Note_on_c,73,76,5,2,1,85.0,False
54375,5143, Note_on_c,72,76,5,2,1,84.0,True
54376,5143, Note_on_c,75,76,5,2,1,87.0,False
54377,5144, Note_on_c,63,76,5,2,1,73.0,False
54378,5145, Note_on_c,68,76,5,2,1,79.0,False
54379,5145, Note_on_c,73,76,5,2,1,85.0,False
54380,5146, Note_on_c,72,76,5,2,1,84.0,True
54381,5146, Note_on_c,75,76,5,2,1,87.0,False
54382,5147, Note_on_c,68,76,5,2,1,79.0,False
54383,5147, Note_on_c,73,76,5,2,1,85.0,False
54384,5148, Note_on_c,70,76,5,2,1,81.0,False
54385,5148, Note_on_c,75,76,5,2,1,87.0,False
54386,5149, Note_on_c,63,76,5,2,1,73.0,False
54387,5150, Note_on_c,68,76,5,2,1,79.0,False
54388,5150, Note_on_c,73,76,5,2,1,85.0,False
54389,5151, Note_on_c,72,76,5,2,1,84.0,True
54390,5151, Note_on_c,75,76,5,2,1,87.0,False
54391,5152, Note_on_c,63,76,5,2,1,73.0,False
54392,5153, Note_on_c,68,76,5,2,1,79.0,False
54393,5153, Note_on_c,73,76,5,2,1,85.0,False
54394,5154, Note_on_c,72,76,5,2,1,84.0,True
54395,5154, Note_on_c,75,76,5,2,1,87.0,False
54396,5155, Note_on_c,68,76,5,2,1,79.0,False
54397,5155, Note_on_c,73,76,5,2,1,85.0,False
54398,5156, Note_on_c,70,76,5,2,1,81.0,False
54399,5156, Note_on_c,75,76,5,2,1,87.0,False
54400,5157, Note_on_c,63,76,5,2,1,73.0,False
54401,5158, Note_on_c,68,76,5,2,1,79.0,False
54402,5158, Note_on_c,73,76,5,2,1,85.0,False
54403,5159, Note_on_c,72,76,5,2,1,84.0,True
54404,5159, Note_on_c,75,76,5,2,1,87.0,False
54405,5160, Note_on_c,63,76,5,2,1,73.0,False
54406,5161, Note_on_c,68,76,5,2,1,79.0,False
54407,5161, Note_on_c,73,76,5,2,1,85.0,False
54408,5162, Note_on_c,72,76,5,2,1,84.0,True
54409,5162, Note_on_c,75,76,5,2,1,87.0,False
54410,5163, Note_on_c,68,76,5,2,1,79.0,False
54411,5163, Note_on_c,73,76,5,2,1,85.0,False
54412,5164, Note_on_c,70,76,5,2,1,81.0,False
54413,5164, Note_on_c,75,76,5,2,1,87.0,False
54414,5165, Note_on_c,63,76,5,2,1,73.0,False
54415,5166, Note_on_c,68,76,5,2,1,79.0,False
54416,5166, Note_on_c,73,76,5,2,1,85.0,False
54417,5167, Note_on_c,72,76,5,2,1,84.0,True
54418,5167, Note_on_c,75,76,5,2,1,87.0,False
54419,5168, Note_on_c,63,76,5,2,1,73.0,False
54420,5169, Note_on_c,68,76,5,2,1,79.0,False
54421,5169, Note_on_c,73,76,5,2,1,85.0,False
54422,5170, Note_on_c,72,76,5,2,1,84.0,True
54423,5170, Note_on_c,75,76,5,2,1,87.0,False
54424,5171, Note_on_c,68,76,5,2,1,79.0,False
54425,5171, Note_on_c,73,76,5,2,1,85.0,False
54426,5172, Note_on_c,70,76,5,2,1,81.0,False
54427,5172, Note_on_c,75,76,5,2,1,87.0,False
54428,5173, Note_on_c,63,76,5,2,1,73.0,False
54429,5174, Note_on_c,68,76,5,2,1,79.0,False
54430,5174, Note_on_c,73,76,5,2,1,85.0,False
54431,5175, Note_on_c,72,76,5,2,1,84.0,True
54432,5175, Note_on_c,75,76,5,2,1,87.0,False
54433,5176, Note_on_c,63,76,5,2,1,73.0,False
54434,5177, Note_on_c,68,76,5,2,1,79.0,False
54435,5177, Note_on_c,73,76,5,2,1,85.0,False
54436,5178, Note_on_c,72,76,5,2,1,84.0,True
54437,5178, Note_on_c,75,76,5,2,1,87.0,False
54438,5179, Note_on_c,68,76,5,2,1,79.0,False
54439,5179, Note_on_c,73,76,5,2,1,85.0,False
54440,5180, Note_on_c,70,76,5,2,1,81.0,False
54441,5180, Note_on_c,75,76,5,2,1,87.0,False
54442,5181, Note_on_c,63,76,5,2,1,73.0,False
54443,5182, Note_on_c,68,76,5,2,1,79.0,False
54444,5182, Note_on_c,73,76,5,2,1,85.0,False
54445,5183, Note_on_c,72,76,5,2,1,84.0,True
54446,5183, Note_on_c,75,76,5,2,1,87.0,False
54447,5184, Note_on_c,63,76,5,2,1,73.0,False
54448,5185, Note_on_c,68,76,5,2,1,79.0,False
54449,5185, Note_on_c,73,76,5,2,1,85.0,False
54450,5186, Note_on_c,72,76,5,2,1,84.0,True
54451,5186, Note_on_c,75,76,5,2,1,87.0,False
54452,5187, Note_on_c,68,76,5,2,1,79.0,False
54453,5187, Note_on_c,73,76,5,2,1,85.0,False
54454,5188, Note_on_c,70,76,5,2,1,81.0,False
54455,5188, Note_on_c,75,76,5,2,1,87.0,False
54456,5189, Note_on_c,63,76,5,2,1,73.0,False
54457,5190, Note_on_c,68,76,5,2,1,79.0,False
54458,5190, Note_on_c,73,76,5,2,1,85.0,False
54459,5191, Note_on_c,72,76,5,2,1,84.0,True
54460,5191, Note_on_c,75,76,5,2,1,87.0,False
54461,5192, Note_on_c,63,76,5,2,1,73.0,False
54462,5193, Note_on_c,68,76,5,2,1,79.0,False
54463,5193, Note_on_c,73,76,5,2,1,85.0,False
54464,5194, Note_on_c,72,76,5,2,1,84.0,True
54465,5194, Note_on_c,75,76,5,2,1,87.0,False
54466,5195, Note_on_c,68,76,5,2,1,79.0,False
54467,5195, Note_on_c,73,76,5,2,1,85.0,False
54468,5196, Note_on_c,70,76,5,2,1,81.0,False
54469,5196, Note_on_c,75,76,5,2,1,87.0,False
54470,5197, Note_on_c,63,76,5,2,1,73.0,False
54471,5198, Note_on_c,68,76,5,2,1,79.0,False
54472,5198, Note_on_c,73,76,5,2,1,85.0,False
54473,5199, Note_on_c,72,76,5,2,1,84.0,True
54474,5199, Note_on_c,75,76,5,2,1,87.0,False
54475,5200, Note_on_c,63,76,5,2,1,73.0,False
54476,5201, Note_on_c,68,76,5,2,1,79.0,False
54477,5201, Note_on_c,73,76,5,2,1,85.0,False
54478,5202, Note_on_c,72,76,5,2,1,84.0,True
54479,5202, Note_on_c,75,76,5,2,1,87.0,False
54480,5203, Note_on_c,68,76,5,2,1,79.0,False
54481,5203, Note_on_c,73,76,5,2,1,85.0,False
54482,5204, Note_on_c,70,76,5,2,1,81.0,False
54483,5204, Note_on_c,75,76,5,2,1,87.0,False
54484,5205, Note_on_c,63,76,5,2,1,73.0,False
54485,5206, Note_on_c,68,76,5,2,1,79.0,False
54486,5206, Note_on_c,73,76,5,2,1,85.0,False
54487,5207, Note_on_c,72,76,5,2,1,84.0,True
54488,5207, Note_on_c,75,76,5,2,1,87.0,False
54489,5208, Note_on_c,63,76,5,2,1,73.0,False
54490,5209, Note_on_c,68,76,5,2,1,79.0,False
54491,5209, Note_on_c,73,76,5,2,1,85.0,False
54492,5210, Note_on_c,72,76,5,2,1,84.0,True
54493,5210, Note_on_c,75,76,5,2,1,87.0,False
54494,5211, Note_on_c,68,76,5,2,1,79.0,False
54495,5211, Note_on_c,73,76,5,2,1,85.0,False
54496,5212, Note_on_c,70,76,5,2,1,81.0,False
54497,5212, Note_on_c,75,76,5,2,1,87.0,False
54498,5213, Note_on_c,63,76,5,2,1,73.0,False
54499,5214, Note_on_c,68,76,5,2,1,79.0,False
54500,5214, Note_on_c,73,76,5,2,1,85.0,False
54501,5215, Note_on_c,72,76,5,2,1,84.0,True
54502,5215, Note_on_c,75,76,5,2,1,87.0,False
54503,5216, Note_on_c,63,76,5,2,1,73.0,False
54504,5217, Note_on_c,68,76,5,2,1,79.0,False
54505,5217, Note_on_c,73,76,5,2,1,85.0,False
54506,5218, Note_on_c,72,76,5,2,1,84.0,True
54507,5218, Note_on_c,75,76,5,2,1,87.0,False
54508,5219, Note_on_c,68,76,5,2,1,79.0,False
54509,5219, Note_on_c,73,76,5,2,1,85.0,False
54510,5220, Note_on_c,70,76,5,2,1,81.0,False
54511,5220, Note_on_c,75,76,5,2,1,87.0,False
54512,5221, Note_on_c,63,76,5,2,1,73.0,False
54513,5222, Note_on_c,68,76,5,2,1,79.0,False
54514,5222, Note_on_c,73,76,5,2,1,85.0,False
54515,5223, Note_on_c,72,76,5,2,1,84.0,True
54516,5223, Note_on_c,75,76,5,2,1,87.0,False
54517,5224, Note_on_c,63,76,5,2,1,73.0,False
54518,5225, Note_on_c,68,76,5,2,1,79.0,False
54519,5225, Note_on_c,73,76,5,2,1,85.0,False
54520,5226, Note_on_c,72,76,5,2,1,84.0,True
54521,5226, Note_on_c,75,76,5,2,1,87.0,False
54522,5227, Note_on_c,68,76,5,2,1,79.0,False
54523,5227, Note_on_c,73,76,5,2,1,85.0,False
54524,5228, Note_on_c,70,76,5,2,1,81.0,False
54525,5228, Note_on_c,75,76,5,2,1,87.0,False
54526,5229, Note_on_c,63,76,5,2,1,73.0,False
54527,5230, Note_on_c,68,76,5,2,1,79.0,False
54528,5230, Note_on_c,73,76,5,2,1,85.0,False
54529,5231, Note_on_c,72,76,5,2,1,84.0,True
54530,5231, Note_on_c,75,76,5,2,1,87.0,False
54531,5232, Note_on_c,63,76,5,2,1,73.0,False
54532,5233, Note_on_c,68,76,5,2,1,79.0,False
54533,5233, Note_on_c,73,76,5,2,1,85.0,False
54534,5234, Note_on_c,72,76,5,2,1,84.0,True
54535,5234, Note_on_c,75,76,5,2,1,87.0,False
54536,5235, Note_on_c,68,76,5,2,1,79.0,False
54537,5235, Note_on_c,73,76,5,2,1,85.0,False
54538,5236, Note_on_c,70,76,5,2,1,81.0,False
54539,5236, Note_on_c,75,76,5,2,1,87.0,False
54540,5237, Note_on_c,63,76,5,2,1,73.0,False
54541,5238, Note_on_c,68,76,5,2,1,79.0,False
54542,5238, Note_on_c,73,76,5,2,1,85.0,False
54543,5239, Note_on_c,72,76,5,2,1,84.0,True
54544,5239, Note_on_c,75,76,5,2,1,87.0,False
54545,5240, Note_on_c,63,76,5,2,1,73.0,False
54546,5241, Note_on_c,68,76,5,2,1,79.0,False
54547,5241, Note_on_c,73,76,5,2,1,85.0,False
54548,5242, Note_on_c,72,76,5,2,1,84.0,True
54549,5242, Note_on_c,75,76,5,2,1,87.0,False
54550,5243, Note_on_c,68,76,5,2,1,79.0,False
54551,5243, Note_on_c,73,76,5,2,1,85.0,False
54552,5244, Note_on_c,70,76,5,2,1,81.0,False
54553,5244, Note_on_c,75,76,5,2,1,87.0,False
54554,5245, Note_on_c,63,76,5,2,1,73.0,False
54555,5246, Note_on_c,68,76,5,2,1,79.0,False
54556,5246, Note_on_c,73,76,5,2,1,85.0,False
54557,5247, Note_on_c,72,76,5,2,1,84.0,True
54558,5247, Note_on_c,75,76,5,2,1,87.0,False
54559,5248, Note_on_c,63,76,5,2,1,73.0,False
54560,5249, Note_on_c,68,76,5,2,1,79.0,False
54561,5249, Note_on_c,73,76,5,2,1,85.0,False
54562,5250, Note_on_c,72,76,5,2,1,84.0,True
54563,5250, Note_on_c,75,76,5,2,1,87.0,False
54564,5251, Note_on_c,68,76,5,2,1,79.0,False
54565,5251, Note_on_c,73,76,5,2,1,85.0,False
54566,5252, Note_on_c,70,76,5,2,1,81.0,False
54567,5252, Note_on_c,75,76,5,2,1,87.0,False
54568,5253, Note_on_c,63,76,5,2,1,73.0,False
54569,5254, Note_on_c,68,76,5,2,1,79.0,False
54570,5254, Note_on_c,73,76,5,2,1,85.0,False
54571,5255, Note_on_c,72,76,5,2,1,84.0,True
54572,5255, Note_on_c,75,76,5,2,1,87.0,False
54573,5256, Note_on_c,63,76,5,2,1,73.0,False
54574,5257, Note_on_c,63,76,5,2,1,73.0,False
54575,5258, Note_on_c,68,76,5,2,1,79.0,False
54576,5258, Note_on_c,73,76,5,2,1,85.0,False
54577,5259, Note_on_c,72,76,5,2,1,84.0,True
54578,5259, Note_on_c,75,76,5,2,1,87.0,False
54579,5260, Note_on_c,68,76,5,2,1,79.0,False
54580,5260, Note_on_c,73,76,5,2,1,85.0,False
54581,5261, Note_on_c,70,76,5,2,1,81.0,False
54582,5261, Note_on_c,75,76,5,2,1,87.0,False
54583,5262, Note_on_c,63,76,5,2,1,73.0,False
54584,5263, Note_on_c,68,76,5,2,1,79.0,False
54585,5263, Note_on_c,73,76,5,2,1,85.0,False
54586,5264, Note_on_c,72,76,5,2,1,84.0,True
54587,5264, Note_on_c,75,76,5,2,1,87.0,False
54588,5265, Note_on_c,63,76,5,2,1,73.0,False
54589,5266, Note_on_c,68,76,5,2,1,79.0,False
54590,5266, Note_on_c,73,76,5,2,1,85.0,False
54591,5267, Note_on_c,72,76,5,2,1,84.0,True
54592,5267, Note_on_c,75,76,5,2,1,87.0,False
54593,5268, Note_on_c,68,76,5,2,1,79.0,False
54594,5268, Note_on_c,73,76,5,2,1,85.0,False
54595,5269, Note_on_c,70,76,5,2,1,81.0,False
54596,5269, Note_on_c,75,76,5,2,1,87.0,False
54597,5270, Note_on_c,63,76,5,2,1,73.0,False
54598,5271, Note_on_c,68,76,5,2,1,79.0,False
54599,5271, Note_on_c,73,76,5,2,1,85.0,False
54600,5272, Note_on_c,72,76,5,2,1,84.0,True
54601,5272, Note_on_c,75,76,5,2,1,87.0,False
54602,5273, Note_on_c,63,76,5,2,1,73.0,False
54603,5274, Note_on_c,68,76,5,2,1,79.0,False
54604,5274, Note_on_c,73,76,5,2,1,85.0,False
54605,5275, Note_on_c,72,76,5,2,1,84.0,True
54606,5275, Note_on_c,75,76,5,2,1,87.0,False
54607,5276, Note_on_c,68,76,5,2,1,79.0,False
54608,5276, Note_on_c,73,76,5,2,1,85.0,False
54609,5277, Note_on_c,70,76,5,2,1,81.0,False
54610,5277, Note_on_c,75,76,5,2,1,87.0,False
54611,5278, Note_on_c,63,76,5,2,1,73.0,False
54612,5279, Note_on_c,68,76,5,2,1,79.0,False
54613,5279, Note_on_c,73,76,5,2,1,85.0,False
54614,5280, Note_on_c,72,76,5,2,1,84.0,True
54615,5280, Note_on_c,75,76,5,2,1,87.0,False
54616,5281, Note_on_c,63,76,5,2,1,73.0,False
54617,5282, Note_on_c,68,76,5,2,1,79.0,False
54618,5282, Note_on_c,73,76,5,2,1,85.0,False
54619,5283, Note_on_c,72,76,5,2,1,84.0,True
54620,5283, Note_on_c,75,76,5,2,1,87.0,False
54621,5284, Note_on_c,68,76,5,2,1,79.0,False
54622,5284, Note_on_c,73,76,5,2,1,85.0,False
54623,5285, Note_on_c,70,76,5,2,1,81.0,False
54624,5285, Note_on_c,75,76,5,2,1,87.0,False
54625,5286, Note_on_c,63,76,5,2,1,73.0,False
54626,5287, Note_on_c,68,76,5,2,1,79.0,False
54627,5287, Note_on_c,73,76,5,2,1,85.0,False
54628,5288, Note_on_c,72,76,5,2,1,84.0,True
54629,5288, Note_on_c,75,76,5,2,1,87.0,False
54630,5289, Note_on_c,63,76,5,2,1,73.0,False
54631,5290, Note_on_c,68,76,5,2,1,79.0,False
54632,5290, Note_on_c,73,76,5,2,1,85.0,False
54633,5291, Note_on_c,72,76,5,2,1,84.0,True
54634,5291, Note_on_c,75,76,5,2,1,87.0,False
54635,5292, Note_on_c,68,76,5,2,1,79.0,False
54636,5292, Note_on_c,73,76,5,2,1,85.0,False
54637,5293, Note_on_c,70,76,5,2,1,81.0,False
54638,5293, Note_on_c,75,76,5,2,1,87.0,False
54639,5294, Note_on_c,63,76,5,2,1,73.0,False
54640,5295, Note_on_c,68,76,5,2,1,79.0,False
54641,5295, Note_on_c,73,76,5,2,1,85.0,False
54642,5296, Note_on_c,72,76,5,2,1,84.0,True
54643,5296, Note_on_c,75,76,5,2,1,87.0,False
54644,5297, Note_on_c,63,76,5,2,1,73.0,False
54645,5298, Note_on_c,68,76,5,2,1,79.0,False
54646,5298, Note_on_c,73,76,5,2,1,85.0,False
54647,5299, Note_on_c,72,76,5,2,1,84.0,True
54648,5299, Note_on_c,75,76,5,2,1,87.0,False
54649,5300, Note_on_c,68,76,5,2,1,79.0,False
54650,5300, Note_on_c,73,76,5,2,1,85.0,False
54651,5301, Note_on_c,70,76,5,2,1,81.0,False
54652,5301, Note_on_c,75,76,5,2,1,87.0,False
54653,5302, Note_on_c,63,76,5,2,1,73.0,False
54654,5303, Note_on_c,68,76,5,2,1,79.0,False
54655,5303, Note_on_c,73,76,5,2,1,85.0,False
54656,5304, Note_on_c,72,76,5,2,1,84.0,True
54657,5304, Note_on_c,75,76,5,2,1,87.0,False
54658,5305, Note_on_c,63,76,5,2,1,73.0,False
54659,5306, Note_on_c,68,76,5,2,1,79.0,False
54660,5306, Note_on_c,73,76,5,2,1,85.0,False
54661,5307, Note_on_c,72,76,5,2,1,84.0,True
54662,5307, Note_on_c,75,76,5,2,1,87.0,False
54663,5308, Note_on_c,68,76,5,2,1,79.0,False
54664,5308, Note_on_c,73,76,5,2,1,85.0,False
54665,5309, Note_on_c,70,76,5,2,1,81.0,False
54666,5309, Note_on_c,75,76,5,2,1,87.0,False
54667,5310, Note_on_c,63,76,5,2,1,73.0,False
54668,5311, Note_on_c,68,76,5,2,1,79.0,False
54669,5311, Note_on_c,73,76,5,2,1,85.0,False
54670,5312, Note_on_c,72,76,5,2,1,84.0,True
54671,5312, Note_on_c,75,76,5,2,1,87.0,False
54672,5313, Note_on_c,63,76,5,2,1,73.0,False
54673,5314, Note_on_c,68,76,5,2,1,79.0,False
54674,5314, Note_on_c,73,76,5,2,1,85.0,False
54675,5315, Note_on_c,72,76,5,2,1,84.0,True
54676,5315, Note_on_c,75,76,5,2,1,87.0,False
54677,5316, Note_on_c,68,76,5,2,1,79.0,False
54678,5316, Note_on_c,73,76,5,2,1,85.0,False
54679,5317, Note_on_c,70,76,5,2,1,81.0,False
54680,5317, Note_on_c,75,76,5,2,1,87.0,False
54681,5318, Note_on_c,63,76,5,2,1,73.0,False
54682,5319, Note_on_c,68,76,5,2,1,79.0,False
54683,5319, Note_on_c,73,76,5,2,1,85.0,False
54684,5320, Note_on_c,72,76,5,2,1,84.0,True
54685,5320, Note_on_c,75,76,5,2,1,87.0,False
54686,5321, Note_on_c,63,76,5,2,1,73.0,False
54687,5322, Note_on_c,68,76,5,2,1,79.0,False
54688,5322, Note_on_c,73,76,5,2,1,85.0,False
54689,5323, Note_on_c,72,76,5,2,1,84.0,True
54690,5323, Note_on_c,75,76,5,2,1,87.0,False
54691,5324, Note_on_c,68,76,5,2,1,79.0,False
54692,5324, Note_on_c,73,76,5,2,1,85.0,False
54693,5325, Note_on_c,70,76,5,2,1,81.0,False
54694,5325, Note_on_c,75,76,5,2,1,87.0,False
54695,5326, Note_on_c,63,76,5,2,1,73.0,False
54696,5327, Note_on_c,68,76,5,2,1,79.0,False
54697,5327, Note_on_c,73,76,5,2,1,85.0,False
54698,5328, Note_on_c,72,76,5,2,1,84.0,True
54699,5328, Note_on_c,75,76,5,2,1,87.0,False
54700,5329, Note_on_c,63,76,5,2,1,73.0,False
54701,5330, Note_on_c,68,76,5,2,1,79.0,False
54702,5330, Note_on_c,73,76,5,2,1,85.0,False
54703,5331, Note_on_c,72,76,5,2,1,84.0,True
54704,5331, Note_on_c,75,76,5,2,1,87.0,False
54705,5332, Note_on_c,68,76,5,2,1,79.0,False
54706,5332, Note_on_c,73,76,5,2,1,85.0,False
54707,5333, Note_on_c,70,76,5,2,1,81.0,False
54708,5333, Note_on_c,75,76,5,2,1,87.0,False
54709,5334, Note_on_c,63,76,5,2,1,73.0,False
54710,5335, Note_on_c,68,76,5,2,1,79.0,False
54711,5335, Note_on_c,73,76,5,2,1,85.0,False
54712,5336, Note_on_c,72,76,5,2,1,84.0,True
54713,5336, Note_on_c,75,76,5,2,1,87.0,False
54714,5337, Note_on_c,63,76,5,2,1,73.0,False
54715,5338, Note_on_c,68,76,5,2,1,79.0,False
54716,5338, Note_on_c,73,76,5,2,1,85.0,False
54717,5339, Note_on_c,72,76,5,2,1,84.0,True
54718,5339, Note_on_c,75,76,5,2,1,87.0,False
54719,5340, Note_on_c,68,76,5,2,1,79.0,False
54720,5340, Note_on_c,73,76,5,2,1,85.0,False
54721,5341, Note_on_c,70,76,5,2,1,81.0,False
54722,5341, Note_on_c,75,76,5,2,1,87.0,False
54723,5342, Note_on_c,63,76,5,2,1,73.0,False
54724,5343, Note_on_c,68,76,5,2,1,79.0,False
54725,5343, Note_on_c,73,76,5,2,1,85.0,False
54726,5344, Note_on_c,72,76,5,2,1,84.0,True
54727,5344, Note_on_c,75,76,5,2,1,87.0,False
54728,5345, Note_on_c,63,76,5,2,1,73.0,False
54729,5346, Note_on_c,68,76,5,2,1,79.0,False
54730,5346, Note_on_c,73,76,5,2,1,85.0,False
54731,5347, Note_on_c,72,76,5,2,1,84.0,True
54732,5347, Note_on_c,75,76,5,2,1,87.0,False
54733,5348, Note_on_c,68,76,5,2,1,79.0,False
54734,5348, Note_on_c,73,76,5,2,1,85.0,False
54735,5349, Note_on_c,70,76,5,2,1,81.0,False
54736,5349, Note_on_c,75,76,5,2,1,87.0,False
54737,5350, Note_on_c,63,76,5,2,1,73.0,False
54738,5351, Note_on_c,68,76,5,2,1,79.0,False
54739,5351, Note_on_c,73,76,5,2,1,85.0,False
54740,5352, Note_on_c,72,76,5,2,1,84.0,True
54741,5352, Note_on_c,75,76,5,2,1,87.0,False
54742,5353, Note_on_c,63,76,5,2,1,73.0,False
54743,5354, Note_on_c,68,76,5,2,1,79.0,False
54744,5354, Note_on_c,73,76,5,2,1,85.0,False
54745,5355, Note_on_c,72,76,5,2,1,84.0,True
54746,5355, Note_on_c,75,76,5,2,1,87.0,False
54747,5356, Note_on_c,68,76,5,2,1,79.0,False
54748,5356, Note_on_c,73,76,5,2,1,85.0,False
54749,5357, Note_on_c,70,76,5,2,1,81.0,False
54750,5357, Note_on_c,75,76,5,2,1,87.0,False
54751,5358, Note_on_c,63,76,5,2,1,73.0,False
54752,5359, Note_on_c,68,76,5,2,1,79.0,False
54753,5359, Note_on_c,73,76,5,2,1,85.0,False
54754,5360, Note_on_c,72,76,5,2,1,84.0,True
54755,5360, Note_on_c,75,76,5,2,1,87.0,False
54756,5361, Note_on_c,63,76,5,2,1,73.0,False
54757,5362, Note_on_c,68,76,5,2,1,79.0,False
54758,5362, Note_on_c,73,76,5,2,1,85.0,False
54759,5363, Note_on_c,72,76,5,2,1,84.0,True
54760,5363, Note_on_c,75,76,5,2,1,87.0,False
54761,5364, Note_on_c,68,76,5,2,1,79.0,False
54762,5364, Note_on_c,73,76,5,2,1,85.0,False
54763,5365, Note_on_c,70,76,5,2,1,81.0,False
54764,5365, Note_on_c,75,76,5,2,1,87.0,False
54765,5366, Note_on_c,63,76,5,2,1,73.0,False
54766,5367, Note_on_c,68,76,5,2,1,79.0,False
54767,5367, Note_on_c,73,76,5,2,1,85.0,False
54768,5368, Note_on_c,72,76,5,2,1,84.0,True
54769,5368, Note_on_c,75,76,5,2,1,87.0,False
54770,5369, Note_on_c,63,76,5,2,1,73.0,False
54771,5370, Note_on_c,68,76,5,2,1,79.0,False
54772,5370, Note_on_c,73,76,5,2,1,85.0,False
54773,5371, Note_on_c,72,76,5,2,1,84.0,True
54774,5371, Note_on_c,75,76,5,2,1,87.0,False
54775,5372, Note_on_c,68,76,5,2,1,79.0,False
54776,5372, Note_on_c,73,76,5,2,1,85.0,False
54777,5373, Note_on_c,70,76,5,2,1,81.0,False
54778,5373, Note_on_c,75,76,5,2,1,87.0,False
54779,5374, Note_on_c,63,76,5,2,1,73.0,False
54780,5375, Note_on_c,68,76,5,2,1,79.0,False
54781,5375, Note_on_c,73,76,5,2,1,85.0,False
54782,5376, Note_on_c,72,76,5,2,1,84.0,True
54783,5376, Note_on_c,75,76,5,2,1,87.0,False
54784,5377, Note_on_c,63,76,5,2,1,73.0,False
54785,5378, Note_on_c,68,76,5,2,1,79.0,False
54786,5378, Note_on_c,73,76,5,2,1,85.0,False
54787,5379, Note_on_c,72,76,5,2,1,84.0,True
54788,5379, Note_on_c,75,76,5,2,1,87.0,False
54789,5380, Note_on_c,68,76,5,2,1,79.0,False
54790,5380, Note_on_c,73,76,5,2,1,85.0,False
54791,5381, Note_on_c,70,76,5,2,1,81.0,False
54792,5381, Note_on_c,75,76,5,2,1,87.0,False
54793,5382, Note_on_c,63,76,5,2,1,73.0,False
54794,5383, Note_on_c,68,76,5,2,1,79.0,False
54795,5383, Note_on_c,73,76,5,2,1,85.0,False
54796,5384, Note_on_c,72,76,5,2,1,84.0,True
54797,5384, Note_on_c,75,76,5,2,1,87.0,False
54798,5385, Note_on_c,63,76,5,2,1,73.0,False
54799,5386, Note_on_c,68,76,5,2,1,79.0,False
54800,5386, Note_on_c,73,76,5,2,1,85.0,False
54801,5387, Note_on_c,72,76,5,2,1,84.0,True
54802,5387, Note_on_c,75,76,5,2,1,87.0,False
54803,5388, Note_on_c,68,76,5,2,1,79.0,False
54804,5388, Note_on_c,73,76,5,2,1,85.0,False
54805,5389, Note_on_c,70,76,5,2,1,81.0,False
54806,5389, Note_on_c,75,76,5,2,1,87.0,False
54807,5390, Note_on_c,63,76,5,2,1,73.0,False
54808,5391, Note_on_c,68,76,5,2,1,79.0,False
54809,5391, Note_on_c,73,76,5,2,1,85.0,False
54810,5392, Note_on_c,72,76,5,2,1,84.0,True
54811,5392, Note_on_c,75,76,5,2,1,87.0,False
54812,5393, Note_on_c,63,76,5,2,1,73.0,False
54813,5394, Note_on_c,68,76,5,2,1,79.0,False
54814,5394, Note_on_c,73,76,5,2,1,85.0,False
54815,5395, Note_on_c,72,76,5,2,1,84.0,True
54816,5395, Note_on_c,75,76,5,2,1,87.0,False
54817,5396, Note_on_c,68,76,5,2,1,79.0,False
54818,5396, Note_on_c,73,76,5,2,1,85.0,False
54819,5397, Note_on_c,70,76,5,2,1,81.0,False
54820,5397, Note_on_c,75,76,5,2,1,87.0,False
54821,5398, Note_on_c,63,76,5,2,1,73.0,False
54822,5399, Note_on_c,68,76,5,2,1,79.0,False
54823,5399, Note_on_c,73,76,5,2,1,85.0,False
54824,5400, Note_on_c,72,76,5,2,1,84.0,True
54825,5400, Note_on_c,75,76,5,2,1,87.0,False
54826,5401, Note_on_c,65,76,5,3,1,76.0,True
54827,5402, Note_on_c,70,76,5,3,1,81.0,False
54828,5402, Note_on_c,75,76,5,3,1,87.0,False
54829,5403, Note_on_c,72,76,5,3,1,84.0,True
54830,5403, Note_on_c,77,76,5,3,1,90.0,True
54831,5404, Note_on_c,70,76,5,3,1,81.0,False
54832,5404, Note_on_c,75,76,5,3,1,87.0,False
54833,5405, Note_on_c,73,76,5,3,1,85.0,False
54834,5405, Note_on_c,77,76,5,3,1,90.0,True
54835,5406, Note_on_c,65,76,5,3,1,76.0,True
54836,5407, Note_on_c,70,76,5,3,1,81.0,False
54837,5407, Note_on_c,75,76,5,3,1,87.0,False
54838,5408, Note_on_c,72,76,5,3,1,84.0,True
54839,5408, Note_on_c,77,76,5,3,1,90.0,True
54840,5409, Note_on_c,65,76,5,3,1,76.0,True
54841,5410, Note_on_c,70,76,5,3,1,81.0,False
54842,5410, Note_on_c,75,76,5,3,1,87.0,False
54843,5411, Note_on_c,72,76,5,3,1,84.0,True
54844,5411, Note_on_c,77,76,5,3,1,90.0,True
54845,5412, Note_on_c,70,76,5,3,1,81.0,False
54846,5412, Note_on_c,75,76,5,3,1,87.0,False
54847,5413, Note_on_c,73,76,5,3,1,85.0,False
54848,5413, Note_on_c,77,76,5,3,1,90.0,True
54849,5414, Note_on_c,65,76,5,3,1,76.0,True
54850,5415, Note_on_c,70,76,5,3,1,81.0,False
54851,5415, Note_on_c,75,76,5,3,1,87.0,False
54852,5416, Note_on_c,72,76,5,3,1,84.0,True
54853,5416, Note_on_c,77,76,5,3,1,90.0,True
54854,5417, Note_on_c,65,76,5,3,1,76.0,True
54855,5418, Note_on_c,70,76,5,3,1,81.0,False
54856,5418, Note_on_c,75,76,5,3,1,87.0,False
54857,5419, Note_on_c,72,76,5,3,1,84.0,True
54858,5419, Note_on_c,77,76,5,3,1,90.0,True
54859,5420, Note_on_c,70,76,5,3,1,81.0,False
54860,5420, Note_on_c,75,76,5,3,1,87.0,False
54861,5421, Note_on_c,73,76,5,3,1,85.0,False
54862,5421, Note_on_c,77,76,5,3,1,90.0,True
54863,5422, Note_on_c,65,76,5,3,1,76.0,True
54864,5423, Note_on_c,70,76,5,3,1,81.0,False
54865,5423, Note_on_c,75,76,5,3,1,87.0,False
54866,5424, Note_on_c,72,76,5,3,1,84.0,True
54867,5424, Note_on_c,77,76,5,3,1,90.0,True
54868,5425, Note_on_c,65,76,5,3,1,76.0,True
54869,5426, Note_on_c,70,76,5,3,1,81.0,False
54870,5426, Note_on_c,75,76,5,3,1,87.0,False
54871,5427, Note_on_c,72,76,5,3,1,84.0,True
54872,5427, Note_on_c,77,76,5,3,1,90.0,True
54873,5428, Note_on_c,70,76,5,3,1,81.0,False
54874,5428, Note_on_c,75,76,5,3,1,87.0,False
54875,5429, Note_on_c,73,76,5,3,1,85.0,False
54876,5429, Note_on_c,77,76,5,3,1,90.0,True
54877,5430, Note_on_c,65,76,5,3,1,76.0,True
54878,5431, Note_on_c,70,76,5,3,1,81.0,False
54879,5431, Note_on_c,75,76,5,3,1,87.0,False
54880,5432, Note_on_c,72,76,5,3,1,84.0,True
54881,5432, Note_on_c,77,76,5,3,1,90.0,True
54882,5433, Note_on_c,65,76,5,3,1,76.0,True
54883,5434, Note_on_c,70,76,5,3,1,81.0,False
54884,5434, Note_on_c,75,76,5,3,1,87.0,False
54885,5435, Note_on_c,72,76,5,3,1,84.0,True
54886,5435, Note_on_c,77,76,5,3,1,90.0,True
54887,5436, Note_on_c,70,76,5,3,1,81.0,False
54888,5436, Note_on_c,75,76,5,3,1,87.0,False
54889,5437, Note_on_c,73,76,5,3,1,85.0,False
54890,5437, Note_on_c,77,76,5,3,1,90.0,True
54891,5438, Note_on_c,65,76,5,3,1,76.0,True
54892,5439, Note_on_c,70,76,5,3,1,81.0,False
54893,5439, Note_on_c,75,76,5,3,1,87.0,False
54894,5440, Note_on_c,72,76,5,3,1,84.0,True
54895,5440, Note_on_c,77,76,5,3,1,90.0,True
54896,5441, Note_on_c,65,76,5,3,1,76.0,True
54897,5442, Note_on_c,70,76,5,3,1,81.0,False
54898,5442, Note_on_c,75,76,5,3,1,87.0,False
54899,5443, Note_on_c,72,76,5,3,1,84.0,True
54900,5443, Note_on_c,77,76,5,3,1,90.0,True
54901,5444, Note_on_c,70,76,5,3,1,81.0,False
54902,5444, Note_on_c,75,76,5,3,1,87.0,False
54903,5445, Note_on_c,73,76,5,3,1,85.0,False
54904,5445, Note_on_c,77,76,5,3,1,90.0,True
54905,5446, Note_on_c,65,76,5,3,1,76.0,True
54906,5447, Note_on_c,70,76,5,3,1,81.0,False
54907,5447, Note_on_c,75,76,5,3,1,87.0,False
54908,5448, Note_on_c,72,76,5,3,1,84.0,True
54909,5448, Note_on_c,77,76,5,3,1,90.0,True
54910,5449, Note_on_c,65,76,5,3,1,76.0,True
54911,5450, Note_on_c,70,76,5,3,1,81.0,False
54912,5450, Note_on_c,75,76,5,3,1,87.0,False
54913,5451, Note_on_c,72,76,5,3,1,84.0,True
54914,5451, Note_on_c,77,76,5,3,1,90.0,True
54915,5452, Note_on_c,70,76,5,3,1,81.0,False
54916,5452, Note_on_c,75,76,5,3,1,87.0,False
54917,5453, Note_on_c,73,76,5,3,1,85.0,False
54918,5453, Note_on_c,77,76,5,3,1,90.0,True
54919,5454, Note_on_c,65,76,5,3,1,76.0,True
54920,5455, Note_on_c,70,76,5,3,1,81.0,False
54921,5455, Note_on_c,75,76,5,3,1,87.0,False
54922,5456, Note_on_c,72,76,5,3,1,84.0,True
54923,5456, Note_on_c,77,76,5,3,1,90.0,True
54924,5457, Note_on_c,65,76,5,3,1,76.0,True
54925,5458, Note_on_c,70,76,5,3,1,81.0,False
54926,5458, Note_on_c,75,76,5,3,1,87.0,False
54927,5459, Note_on_c,72,76,5,3,1,84.0,True
54928,5459, Note_on_c,77,76,5,3,1,90.0,True
54929,5460, Note_on_c,70,76,5,3,1,81.0,False
54930,5460, Note_on_c,75,76,5,3,1,87.0,False
54931,5461, Note_on_c,73,76,5,3,1,85.0,False
54932,5461, Note_on_c,77,76,5,3,1,90.0,True
54933,5462, Note_on_c,65,76,5,3,1,76.0,True
54934,5463, Note_on_c,70,76,5,3,1,81.0,False
54935,5463, Note_on_c,75,76,5,3,1,87.0,False
54936,5464, Note_on_c,72,76,5,3,1,84.0,True
54937,5464, Note_on_c,77,76,5,3,1,90.0,True
54938,5465, Note_on_c,65,76,5,3,1,76.0,True
54939,5466, Note_on_c,70,76,5,3,1,81.0,False
54940,5466, Note_on_c,75,76,5,3,1,87.0,False
54941,5467, Note_on_c,72,76,5,3,1,84.0,True
54942,5467, Note_on_c,77,76,5,3,1,90.0,True
54943,5468, Note_on_c,70,76,5,3,1,81.0,False
54944,5468, Note_on_c,75,76,5,3,1,87.0,False
54945,5469, Note_on_c,73,76,5,3,1,85.0,False
54946,5469, Note_on_c,77,76,5,3,1,90.0,True
54947,5470, Note_on_c,65,76,5,3,1,76.0,True
54948,5471, Note_on_c,70,76,5,3,1,81.0,False
54949,5471, Note_on_c,75,76,5,3,1,87.0,False
54950,5472, Note_on_c,72,76,5,3,1,84.0,True
54951,5472, Note_on_c,77,76,5,3,1,90.0,True
54952,5473, Note_on_c,65,76,5,3,1,76.0,True
54953,5474, Note_on_c,70,76,5,3,1,81.0,False
54954,5474, Note_on_c,75,76,5,3,1,87.0,False
54955,5475, Note_on_c,72,76,5,3,1,84.0,True
54956,5475, Note_on_c,77,76,5,3,1,90.0,True
54957,5476, Note_on_c,70,76,5,3,1,81.0,False
54958,5476, Note_on_c,75,76,5,3,1,87.0,False
54959,5477, Note_on_c,73,76,5,3,1,85.0,False
54960,5477, Note_on_c,77,76,5,3,1,90.0,True
54961,5478, Note_on_c,65,76,5,3,1,76.0,True
54962,5479, Note_on_c,70,76,5,3,1,81.0,False
54963,5479, Note_on_c,75,76,5,3,1,87.0,False
54964,5480, Note_on_c,72,76,5,3,1,84.0,True
54965,5480, Note_on_c,77,76,5,3,1,90.0,True
54966,5481, Note_on_c,65,77,5,3,1,76.0,True
54967,5482, Note_on_c,70,74,5,3,1,81.0,False
54968,5482, Note_on_c,75,74,5,3,1,87.0,False
54969,5483, Note_on_c,72,72,5,3,1,84.0,True
54970,5483, Note_on_c,77,72,5,3,1,90.0,True
54971,5484, Note_on_c,70,70,5,3,1,81.0,False
54972,5484, Note_on_c,75,70,5,3,1,87.0,False
54973,5485, Note_on_c,73,67,5,3,1,85.0,False
54974,5485, Note_on_c,77,67,5,3,1,90.0,True
54975,5486, Note_on_c,65,65,5,3,1,76.0,True
54976,5487, Note_on_c,70,63,5,3,1,81.0,False
54977,5487, Note_on_c,75,63,5,3,1,87.0,False
54978,5488, Note_on_c,72,60,5,3,1,84.0,True
54979,5488, Note_on_c,77,60,5,3,1,90.0,True
54980,5489, Note_on_c,65,58,5,3,1,76.0,True
54981,5490, Note_on_c,70,56,5,3,1,81.0,False
54982,5490, Note_on_c,75,56,5,3,1,87.0,False
54983,5491, Note_on_c,72,53,5,3,1,84.0,True
54984,5491, Note_on_c,77,53,5,3,1,90.0,True
54985,5492, Note_on_c,70,51,5,3,1,81.0,False
54986,5492, Note_on_c,75,51,5,3,1,87.0,False
54987,5493, Note_on_c,73,48,5,3,1,85.0,False
54988,5493, Note_on_c,77,48,5,3,1,90.0,True
54989,5494, Note_on_c,65,46,5,3,1,76.0,True
54990,5495, Note_on_c,70,44,5,3,1,81.0,False
54991,5495, Note_on_c,75,44,5,3,1,87.0,False
54992,5496, Note_on_c,72,41,5,3,1,84.0,True
54993,5496, Note_on_c,77,41,5,3,1,90.0,True
54994,5497, Note_on_c,65,39,5,3,1,76.0,True
54995,5498, Note_on_c,70,37,5,3,1,81.0,False
54996,5498, Note_on_c,75,37,5,3,1,87.0,False
54997,5499, Note_on_c,72,34,5,3,1,84.0,True
54998,5499, Note_on_c,77,34,5,3,1,90.0,True
54999,5500, Note_on_c,70,32,5,3,1,81.0,False
55000,5500, Note_on_c,75,32,5,3,1,87.0,False
55001,5501, Note_on_c,73,30,5,3,1,85.0,False
55002,5501, Note_on_c,77,30,5,3,1,90.0,True
55003,5502, Note_on_c,65,27,5,3,1,76.0,True
55004,5503, Note_on_c,70,25,5,3,1,81.0,False
55005,5503, Note_on_c,75,25,5,3,1,87.0,False
55006,5504, Note_on_c,72,23,5,3,1,84.0,True
55007,5504, Note_on_c,77,23,5,3,1,90.0,True
55008,5505, Note_on_c,65,20,5,3,1,76.0,True
55009,5506, Note_on_c,70,18,5,3,1,81.0,False
55010,5506, Note_on_c,75,18,5,3,1,87.0,False
55011,5507, Note_on_c,72,16,5,3,1,84.0,True
55012,5507, Note_on_c,77,16,5,3,1,90.0,True
55013,5508, Note_on_c,70,13,5,3,1,81.0,False
55014,5508, Note_on_c,75,13,5,3,1,87.0,False
55015,5509, Note_on_c,73,11,5,3,1,85.0,False
55016,5509, Note_on_c,77,11,5,3,1,90.0,True
55017,5510, Note_on_c,65,9,5,3,1,76.0,True
55018,5511, Note_on_c,70,6,5,3,1,81.0,False
55019,5511, Note_on_c,75,6,5,3,1,87.0,False
55020,5512, Note_on_c,72,4,5,3,1,84.0,True
55021,5512, Note_on_c,77,4,5,3,1,90.0,True
55022,5539, Note_on_c,77,108,5,3,1,90.0,True
55023,5539, Note_on_c,82,108,5,3,1,95.0,False
55024,5547, Note_on_c,77,108,5,3,1,90.0,True
55025,5547, Note_on_c,82,108,5,3,1,95.0,False
55026,5555, Note_on_c,77,108,5,3,1,90.0,True
55027,5555, Note_on_c,82,108,5,3,1,95.0,False
55028,5563, Note_on_c,77,108,5,3,1,90.0,True
55029,5563, Note_on_c,82,108,5,3,1,95.0,False
55030,5571, Note_on_c,77,108,5,3,1,90.0,True
55031,5571, Note_on_c,82,108,5,3,1,95.0,False
55032,5579, Note_on_c,77,108,5,3,1,90.0,True
55033,5579, Note_on_c,82,108,5,3,1,95.0,False
55034,5587, Note_on_c,77,108,5,3,1,90.0,True
55035,5587, Note_on_c,82,108,5,3,1,95.0,False
55036,5595, Note_on_c,77,108,5,3,1,90.0,True
55037,5595, Note_on_c,82,108,5,3,1,95.0,False
55038,5603, Note_on_c,77,108,5,3,1,90.0,True
55039,5603, Note_on_c,82,108,5,3,1,95.0,False
55040,5605, Note_on_c,70,108,5,3,1,81.0,False
55041,5611, Note_on_c,77,108,5,3,1,90.0,True
55042,5611, Note_on_c,82,108,5,3,1,95.0,False
55043,5613, Note_on_c,70,108,5,3,1,81.0,False
55044,5619, Note_on_c,77,108,5,3,1,90.0,True
55045,5619, Note_on_c,82,108,5,3,1,95.0,False
55046,5621, Note_on_c,70,108,5,3,1,81.0,False
55047,5627, Note_on_c,77,108,5,3,1,90.0,True
55048,5627, Note_on_c,82,108,5,3,1,95.0,False
55049,5629, Note_on_c,70,108,5,3,1,81.0,False
55050,5635, Note_on_c,77,108,5,3,1,90.0,True
55051,5635, Note_on_c,82,108,5,3,1,95.0,False
55052,5637, Note_on_c,70,108,5,3,1,81.0,False
55053,5643, Note_on_c,77,108,5,3,1,90.0,True
55054,5643, Note_on_c,82,108,5,3,1,95.0,False
55055,5645, Note_on_c,70,108,5,3,1,81.0,False
55056,5651, Note_on_c,77,108,5,3,1,90.0,True
55057,5651, Note_on_c,82,108,5,3,1,95.0,False
55058,5653, Note_on_c,70,108,5,3,1,81.0,False
55059,5659, Note_on_c,77,108,5,3,1,90.0,True
55060,5659, Note_on_c,82,108,5,3,1,95.0,False
55061,5661, Note_on_c,70,108,5,3,1,81.0,False
55062,5666, Note_on_c,70,108,5,3,1,81.0,False
55063,5667, Note_on_c,77,108,5,3,1,90.0,True
55064,5667, Note_on_c,82,108,5,3,1,95.0,False
55065,5669, Note_on_c,70,108,5,3,1,81.0,False
55066,5674, Note_on_c,70,108,5,3,1,81.0,False
55067,5675, Note_on_c,77,108,5,3,1,90.0,True
55068,5675, Note_on_c,82,108,5,3,1,95.0,False
55069,5677, Note_on_c,70,108,5,3,1,81.0,False
55070,5682, Note_on_c,70,108,5,3,1,81.0,False
55071,5683, Note_on_c,77,108,5,3,1,90.0,True
55072,5683, Note_on_c,82,108,5,3,1,95.0,False
55073,5685, Note_on_c,70,108,5,3,1,81.0,False
55074,5690, Note_on_c,70,108,5,3,1,81.0,False
55075,5691, Note_on_c,77,108,5,3,1,90.0,True
55076,5691, Note_on_c,82,108,5,3,1,95.0,False
55077,5693, Note_on_c,70,108,5,3,1,81.0,False
55078,5698, Note_on_c,70,108,5,3,1,81.0,False
55079,5699, Note_on_c,77,108,5,3,1,90.0,True
55080,5699, Note_on_c,82,108,5,3,1,95.0,False
55081,5701, Note_on_c,70,108,5,3,1,81.0,False
55082,5706, Note_on_c,70,108,5,3,1,81.0,False
55083,5707, Note_on_c,77,108,5,3,1,90.0,True
55084,5707, Note_on_c,82,108,5,3,1,95.0,False
55085,5709, Note_on_c,70,108,5,3,1,81.0,False
55086,5714, Note_on_c,70,108,5,3,1,81.0,False
55087,5715, Note_on_c,77,108,5,3,1,90.0,True
55088,5715, Note_on_c,82,108,5,3,1,95.0,False
55089,5717, Note_on_c,70,108,5,3,1,81.0,False
55090,5722, Note_on_c,70,108,5,3,1,81.0,False
55091,5723, Note_on_c,77,108,5,3,1,90.0,True
55092,5723, Note_on_c,82,108,5,3,1,95.0,False
55093,5725, Note_on_c,70,108,5,3,1,81.0,False
55094,5730, Note_on_c,70,108,5,3,1,81.0,False
55095,5731, Note_on_c,77,108,5,3,1,90.0,True
55096,5731, Note_on_c,82,108,5,3,1,95.0,False
55097,5733, Note_on_c,70,108,5,3,1,81.0,False
55098,5734, Note_on_c,77,108,5,3,1,90.0,True
55099,5734, Note_on_c,82,108,5,3,1,95.0,False
55100,5738, Note_on_c,70,108,5,3,1,81.0,False
55101,5739, Note_on_c,77,108,5,3,1,90.0,True
55102,5739, Note_on_c,82,108,5,3,1,95.0,False
55103,5741, Note_on_c,70,108,5,3,1,81.0,False
55104,5742, Note_on_c,77,108,5,3,1,90.0,True
55105,5742, Note_on_c,82,108,5,3,1,95.0,False
55106,5746, Note_on_c,70,108,5,3,1,81.0,False
55107,5747, Note_on_c,77,108,5,3,1,90.0,True
55108,5747, Note_on_c,82,108,5,3,1,95.0,False
55109,5749, Note_on_c,70,108,5,3,1,81.0,False
55110,5750, Note_on_c,77,108,5,3,1,90.0,True
55111,5750, Note_on_c,82,108,5,3,1,95.0,False
55112,5754, Note_on_c,70,108,5,3,1,81.0,False
55113,5755, Note_on_c,77,108,5,3,1,90.0,True
55114,5755, Note_on_c,82,108,5,3,1,95.0,False
55115,5757, Note_on_c,70,108,5,3,1,81.0,False
55116,5758, Note_on_c,77,108,5,3,1,90.0,True
55117,5758, Note_on_c,82,108,5,3,1,95.0,False
55118,5762, Note_on_c,70,108,5,3,1,81.0,False
55119,5763, Note_on_c,77,108,5,3,1,90.0,True
55120,5763, Note_on_c,82,108,5,3,1,95.0,False
55121,5765, Note_on_c,70,108,5,3,1,81.0,False
55122,5766, Note_on_c,77,108,5,3,1,90.0,True
55123,5766, Note_on_c,82,108,5,3,1,95.0,False
55124,5770, Note_on_c,70,108,5,3,1,81.0,False
55125,5771, Note_on_c,77,108,5,3,1,90.0,True
55126,5771, Note_on_c,82,108,5,3,1,95.0,False
55127,5773, Note_on_c,70,108,5,3,1,81.0,False
55128,5774, Note_on_c,77,108,5,3,1,90.0,True
55129,5774, Note_on_c,82,108,5,3,1,95.0,False
55130,5778, Note_on_c,70,108,5,3,1,81.0,False
55131,5779, Note_on_c,77,108,5,3,1,90.0,True
55132,5779, Note_on_c,82,108,5,3,1,95.0,False
55133,5781, Note_on_c,70,108,5,3,1,81.0,False
55134,5782, Note_on_c,77,108,5,3,1,90.0,True
55135,5782, Note_on_c,82,108,5,3,1,95.0,False
55136,5786, Note_on_c,70,108,5,3,1,81.0,False
55137,5787, Note_on_c,77,108,5,3,1,90.0,True
55138,5787, Note_on_c,82,108,5,3,1,95.0,False
55139,5789, Note_on_c,70,108,5,3,1,81.0,False
55140,5790, Note_on_c,77,108,5,3,1,90.0,True
55141,5790, Note_on_c,82,108,5,3,1,95.0,False
55142,5794, Note_on_c,70,108,5,3,1,81.0,False
55143,5795, Note_on_c,77,108,5,3,1,90.0,True
55144,5795, Note_on_c,82,108,5,3,1,95.0,False
55145,5797, Note_on_c,70,108,5,3,1,81.0,False
55146,5798, Note_on_c,77,108,5,3,1,90.0,True
55147,5798, Note_on_c,82,108,5,3,1,95.0,False
55148,5800, Note_on_c,77,108,5,3,1,90.0,True
55149,5800, Note_on_c,82,108,5,3,1,95.0,False
55150,5802, Note_on_c,70,108,5,3,1,81.0,False
55151,5803, Note_on_c,77,108,5,3,1,90.0,True
55152,5803, Note_on_c,82,108,5,3,1,95.0,False
55153,5805, Note_on_c,70,108,5,3,1,81.0,False
55154,5806, Note_on_c,77,108,5,3,1,90.0,True
55155,5806, Note_on_c,82,108,5,3,1,95.0,False
55156,5808, Note_on_c,77,108,5,3,1,90.0,True
55157,5808, Note_on_c,82,108,5,3,1,95.0,False
55158,5810, Note_on_c,70,108,5,3,1,81.0,False
55159,5811, Note_on_c,77,108,5,3,1,90.0,True
55160,5811, Note_on_c,82,108,5,3,1,95.0,False
55161,5813, Note_on_c,70,108,5,3,1,81.0,False
55162,5814, Note_on_c,77,108,5,3,1,90.0,True
55163,5814, Note_on_c,82,108,5,3,1,95.0,False
55164,5816, Note_on_c,77,108,5,3,1,90.0,True
55165,5816, Note_on_c,82,108,5,3,1,95.0,False
55166,5818, Note_on_c,70,108,5,3,1,81.0,False
55167,5819, Note_on_c,77,108,5,3,1,90.0,True
55168,5819, Note_on_c,82,108,5,3,1,95.0,False
55169,5821, Note_on_c,70,108,5,3,1,81.0,False
55170,5822, Note_on_c,77,108,5,3,1,90.0,True
55171,5822, Note_on_c,82,108,5,3,1,95.0,False
55172,5824, Note_on_c,77,108,5,3,1,90.0,True
55173,5824, Note_on_c,82,108,5,3,1,95.0,False
55174,5826, Note_on_c,70,108,5,3,1,81.0,False
55175,5827, Note_on_c,77,108,5,3,1,90.0,True
55176,5827, Note_on_c,82,108,5,3,1,95.0,False
55177,5829, Note_on_c,70,108,5,3,1,81.0,False
55178,5830, Note_on_c,77,108,5,3,1,90.0,True
55179,5830, Note_on_c,82,108,5,3,1,95.0,False
55180,5832, Note_on_c,77,108,5,3,1,90.0,True
55181,5832, Note_on_c,82,108,5,3,1,95.0,False
55182,5834, Note_on_c,70,108,5,3,1,81.0,False
55183,5835, Note_on_c,77,108,5,3,1,90.0,True
55184,5835, Note_on_c,82,108,5,3,1,95.0,False
55185,5837, Note_on_c,70,108,5,3,1,81.0,False
55186,5838, Note_on_c,77,108,5,3,1,90.0,True
55187,5838, Note_on_c,82,108,5,3,1,95.0,False
55188,5840, Note_on_c,77,108,5,3,1,90.0,True
55189,5840, Note_on_c,82,108,5,3,1,95.0,False
55190,5842, Note_on_c,70,108,5,3,1,81.0,False
55191,5843, Note_on_c,77,108,5,3,1,90.0,True
55192,5843, Note_on_c,82,108,5,3,1,95.0,False
55193,5845, Note_on_c,70,108,5,3,1,81.0,False
55194,5846, Note_on_c,77,108,5,3,1,90.0,True
55195,5846, Note_on_c,82,108,5,3,1,95.0,False
55196,5848, Note_on_c,77,108,5,3,1,90.0,True
55197,5848, Note_on_c,82,108,5,3,1,95.0,False
55198,5850, Note_on_c,70,108,5,3,1,81.0,False
55199,5851, Note_on_c,77,108,5,3,1,90.0,True
55200,5851, Note_on_c,82,108,5,3,1,95.0,False
55201,5853, Note_on_c,70,108,5,3,1,81.0,False
55202,5854, Note_on_c,77,108,5,3,1,90.0,True
55203,5854, Note_on_c,82,108,5,3,1,95.0,False
55204,5856, Note_on_c,77,108,5,3,1,90.0,True
55205,5856, Note_on_c,82,108,5,3,1,95.0,False
55206,5858, Note_on_c,70,108,5,3,1,81.0,False
55207,5859, Note_on_c,77,108,5,3,1,90.0,True
55208,5859, Note_on_c,82,108,5,3,1,95.0,False
55209,5861, Note_on_c,70,108,5,3,1,81.0,False
55210,5862, Note_on_c,77,108,5,3,1,90.0,True
55211,5862, Note_on_c,82,108,5,3,1,95.0,False
55212,5863, Note_on_c,68,108,5,3,1,79.0,False
55213,5863, Note_on_c,75,108,5,3,1,87.0,False
55214,5864, Note_on_c,77,108,5,3,1,90.0,True
55215,5864, Note_on_c,82,108,5,3,1,95.0,False
55216,5866, Note_on_c,70,108,5,3,1,81.0,False
55217,5867, Note_on_c,77,108,5,3,1,90.0,True
55218,5867, Note_on_c,82,108,5,3,1,95.0,False
55219,5869, Note_on_c,70,108,5,3,1,81.0,False
55220,5870, Note_on_c,77,108,5,3,1,90.0,True
55221,5870, Note_on_c,82,108,5,3,1,95.0,False
55222,5871, Note_on_c,68,108,5,3,1,79.0,False
55223,5871, Note_on_c,75,108,5,3,1,87.0,False
55224,5872, Note_on_c,77,108,5,3,1,90.0,True
55225,5872, Note_on_c,82,108,5,3,1,95.0,False
55226,5874, Note_on_c,70,108,5,3,1,81.0,False
55227,5875, Note_on_c,77,108,5,3,1,90.0,True
55228,5875, Note_on_c,82,108,5,3,1,95.0,False
55229,5877, Note_on_c,70,108,5,3,1,81.0,False
55230,5878, Note_on_c,77,108,5,3,1,90.0,True
55231,5878, Note_on_c,82,108,5,3,1,95.0,False
55232,5879, Note_on_c,68,108,5,3,1,79.0,False
55233,5879, Note_on_c,75,108,5,3,1,87.0,False
55234,5880, Note_on_c,77,108,5,3,1,90.0,True
55235,5880, Note_on_c,82,108,5,3,1,95.0,False
55236,5882, Note_on_c,70,108,5,3,1,81.0,False
55237,5883, Note_on_c,77,108,5,3,1,90.0,True
55238,5883, Note_on_c,82,108,5,3,1,95.0,False
55239,5885, Note_on_c,70,108,5,3,1,81.0,False
55240,5886, Note_on_c,77,108,5,3,1,90.0,True
55241,5886, Note_on_c,82,108,5,3,1,95.0,False
55242,5887, Note_on_c,68,108,5,3,1,79.0,False
55243,5887, Note_on_c,75,108,5,3,1,87.0,False
55244,5888, Note_on_c,77,108,5,3,1,90.0,True
55245,5888, Note_on_c,82,108,5,3,1,95.0,False
55246,5890, Note_on_c,70,108,5,3,1,81.0,False
55247,5891, Note_on_c,77,108,5,3,1,90.0,True
55248,5891, Note_on_c,82,108,5,3,1,95.0,False
55249,5893, Note_on_c,70,108,5,3,1,81.0,False
55250,5894, Note_on_c,77,108,5,3,1,90.0,True
55251,5894, Note_on_c,82,108,5,3,1,95.0,False
55252,5895, Note_on_c,68,108,5,3,1,79.0,False
55253,5895, Note_on_c,75,108,5,3,1,87.0,False
55254,5896, Note_on_c,77,108,5,3,1,90.0,True
55255,5896, Note_on_c,82,108,5,3,1,95.0,False
55256,5898, Note_on_c,70,108,5,3,1,81.0,False
55257,5899, Note_on_c,77,108,5,3,1,90.0,True
55258,5899, Note_on_c,82,108,5,3,1,95.0,False
55259,5901, Note_on_c,70,108,5,3,1,81.0,False
55260,5902, Note_on_c,77,108,5,3,1,90.0,True
55261,5902, Note_on_c,82,108,5,3,1,95.0,False
55262,5903, Note_on_c,68,108,5,3,1,79.0,False
55263,5903, Note_on_c,75,108,5,3,1,87.0,False
55264,5904, Note_on_c,77,108,5,3,1,90.0,True
55265,5904, Note_on_c,82,108,5,3,1,95.0,False
55266,5906, Note_on_c,70,108,5,3,1,81.0,False
55267,5907, Note_on_c,77,108,5,3,1,90.0,True
55268,5907, Note_on_c,82,108,5,3,1,95.0,False
55269,5909, Note_on_c,70,108,5,3,1,81.0,False
55270,5910, Note_on_c,77,108,5,3,1,90.0,True
55271,5910, Note_on_c,82,108,5,3,1,95.0,False
55272,5911, Note_on_c,68,108,5,3,1,79.0,False
55273,5911, Note_on_c,75,108,5,3,1,87.0,False
55274,5912, Note_on_c,77,108,5,3,1,90.0,True
55275,5912, Note_on_c,82,108,5,3,1,95.0,False
55276,5914, Note_on_c,70,108,5,3,1,81.0,False
55277,5915, Note_on_c,77,108,5,3,1,90.0,True
55278,5915, Note_on_c,82,108,5,3,1,95.0,False
55279,5917, Note_on_c,70,108,5,3,1,81.0,False
55280,5918, Note_on_c,77,108,5,3,1,90.0,True
55281,5918, Note_on_c,82,108,5,3,1,95.0,False
55282,5919, Note_on_c,68,108,5,3,1,79.0,False
55283,5919, Note_on_c,75,108,5,3,1,87.0,False
55284,5920, Note_on_c,77,108,5,3,1,90.0,True
55285,5920, Note_on_c,82,108,5,3,1,95.0,False
55286,5921, Note_on_c,68,108,5,3,1,79.0,False
55287,5921, Note_on_c,73,108,5,3,1,85.0,False
55288,5922, Note_on_c,70,108,5,3,1,81.0,False
55289,5923, Note_on_c,77,108,5,3,1,90.0,True
55290,5923, Note_on_c,82,108,5,3,1,95.0,False
55291,5925, Note_on_c,70,108,5,3,1,81.0,False
55292,5926, Note_on_c,77,108,5,3,1,90.0,True
55293,5926, Note_on_c,82,108,5,3,1,95.0,False
55294,5927, Note_on_c,68,108,5,3,1,79.0,False
55295,5927, Note_on_c,75,108,5,3,1,87.0,False
55296,5928, Note_on_c,77,108,5,3,1,90.0,True
55297,5928, Note_on_c,82,108,5,3,1,95.0,False
55298,5929, Note_on_c,68,108,5,3,1,79.0,False
55299,5929, Note_on_c,73,108,5,3,1,85.0,False
55300,5930, Note_on_c,70,108,5,3,1,81.0,False
55301,5931, Note_on_c,77,108,5,3,1,90.0,True
55302,5931, Note_on_c,82,108,5,3,1,95.0,False
55303,5933, Note_on_c,70,108,5,3,1,81.0,False
55304,5934, Note_on_c,77,108,5,3,1,90.0,True
55305,5934, Note_on_c,82,108,5,3,1,95.0,False
55306,5935, Note_on_c,68,108,5,3,1,79.0,False
55307,5935, Note_on_c,75,108,5,3,1,87.0,False
55308,5936, Note_on_c,77,108,5,3,1,90.0,True
55309,5936, Note_on_c,82,108,5,3,1,95.0,False
55310,5937, Note_on_c,68,108,5,3,1,79.0,False
55311,5937, Note_on_c,73,108,5,3,1,85.0,False
55312,5938, Note_on_c,70,108,5,3,1,81.0,False
55313,5939, Note_on_c,77,108,5,3,1,90.0,True
55314,5939, Note_on_c,82,108,5,3,1,95.0,False
55315,5941, Note_on_c,70,108,5,3,1,81.0,False
55316,5942, Note_on_c,77,108,5,3,1,90.0,True
55317,5942, Note_on_c,82,108,5,3,1,95.0,False
55318,5943, Note_on_c,68,108,5,3,1,79.0,False
55319,5943, Note_on_c,75,108,5,3,1,87.0,False
55320,5944, Note_on_c,77,108,5,3,1,90.0,True
55321,5944, Note_on_c,82,108,5,3,1,95.0,False
55322,5945, Note_on_c,68,108,5,3,1,79.0,False
55323,5945, Note_on_c,73,108,5,3,1,85.0,False
55324,5946, Note_on_c,70,108,5,3,1,81.0,False
55325,5947, Note_on_c,77,108,5,3,1,90.0,True
55326,5947, Note_on_c,82,108,5,3,1,95.0,False
55327,5949, Note_on_c,70,108,5,3,1,81.0,False
55328,5950, Note_on_c,77,108,5,3,1,90.0,True
55329,5950, Note_on_c,82,108,5,3,1,95.0,False
55330,5951, Note_on_c,68,108,5,3,1,79.0,False
55331,5951, Note_on_c,75,108,5,3,1,87.0,False
55332,5952, Note_on_c,77,108,5,3,1,90.0,True
55333,5952, Note_on_c,82,108,5,3,1,95.0,False
55334,5953, Note_on_c,68,108,5,3,1,79.0,False
55335,5953, Note_on_c,73,108,5,3,1,85.0,False
55336,5954, Note_on_c,70,108,5,3,1,81.0,False
55337,5955, Note_on_c,77,108,5,3,1,90.0,True
55338,5955, Note_on_c,82,108,5,3,1,95.0,False
55339,5957, Note_on_c,70,108,5,3,1,81.0,False
55340,5958, Note_on_c,77,108,5,3,1,90.0,True
55341,5958, Note_on_c,82,108,5,3,1,95.0,False
55342,5959, Note_on_c,68,108,5,3,1,79.0,False
55343,5959, Note_on_c,75,108,5,3,1,87.0,False
55344,5960, Note_on_c,77,108,5,3,1,90.0,True
55345,5960, Note_on_c,82,108,5,3,1,95.0,False
55346,5961, Note_on_c,68,108,5,3,1,79.0,False
55347,5961, Note_on_c,73,108,5,3,1,85.0,False
55348,5962, Note_on_c,70,108,5,3,1,81.0,False
55349,5963, Note_on_c,77,108,5,3,1,90.0,True
55350,5963, Note_on_c,82,108,5,3,1,95.0,False
55351,5965, Note_on_c,70,108,5,3,1,81.0,False
55352,5966, Note_on_c,77,108,5,3,1,90.0,True
55353,5966, Note_on_c,82,108,5,3,1,95.0,False
55354,5967, Note_on_c,68,108,5,3,1,79.0,False
55355,5967, Note_on_c,75,108,5,3,1,87.0,False
55356,5968, Note_on_c,77,108,5,3,1,90.0,True
55357,5968, Note_on_c,82,108,5,3,1,95.0,False
55358,5969, Note_on_c,68,108,5,3,1,79.0,False
55359,5969, Note_on_c,73,108,5,3,1,85.0,False
55360,5970, Note_on_c,70,108,5,3,1,81.0,False
55361,5971, Note_on_c,77,108,5,3,1,90.0,True
55362,5971, Note_on_c,82,108,5,3,1,95.0,False
55363,5973, Note_on_c,70,108,5,3,1,81.0,False
55364,5974, Note_on_c,77,108,5,3,1,90.0,True
55365,5974, Note_on_c,82,108,5,3,1,95.0,False
55366,5975, Note_on_c,68,108,5,3,1,79.0,False
55367,5975, Note_on_c,75,108,5,3,1,87.0,False
55368,5976, Note_on_c,77,108,5,3,1,90.0,True
55369,5976, Note_on_c,82,108,5,3,1,95.0,False
55370,5977, Note_on_c,68,108,5,3,1,79.0,False
55371,5977, Note_on_c,73,108,5,3,1,85.0,False
55372,5978, Note_on_c,70,108,5,3,1,81.0,False
55373,5979, Note_on_c,77,108,5,3,1,90.0,True
55374,5979, Note_on_c,82,108,5,3,1,95.0,False
55375,5981, Note_on_c,70,108,5,3,1,81.0,False
55376,5982, Note_on_c,77,108,5,3,1,90.0,True
55377,5982, Note_on_c,82,108,5,3,1,95.0,False
55378,5983, Note_on_c,68,108,5,3,1,79.0,False
55379,5983, Note_on_c,75,108,5,3,1,87.0,False
55380,5984, Note_on_c,77,108,5,3,1,90.0,True
55381,5984, Note_on_c,82,108,5,3,1,95.0,False
55382,5985, Note_on_c,68,108,5,3,1,79.0,False
55383,5985, Note_on_c,73,108,5,3,1,85.0,False
55384,5986, Note_on_c,70,108,5,3,1,81.0,False
55385,5987, Note_on_c,77,108,5,3,1,90.0,True
55386,5987, Note_on_c,82,108,5,3,1,95.0,False
55387,5988, Note_on_c,68,108,5,3,1,79.0,False
55388,5988, Note_on_c,75,108,5,3,1,87.0,False
55389,5989, Note_on_c,70,108,5,3,1,81.0,False
55390,5990, Note_on_c,77,108,5,3,1,90.0,True
55391,5990, Note_on_c,82,108,5,3,1,95.0,False
55392,5991, Note_on_c,68,108,5,3,1,79.0,False
55393,5991, Note_on_c,75,108,5,3,1,87.0,False
55394,5992, Note_on_c,77,108,5,3,1,90.0,True
55395,5992, Note_on_c,82,108,5,3,1,95.0,False
55396,5993, Note_on_c,68,108,5,3,1,79.0,False
55397,5993, Note_on_c,73,108,5,3,1,85.0,False
55398,5994, Note_on_c,70,108,5,3,1,81.0,False
55399,5995, Note_on_c,77,108,5,3,1,90.0,True
55400,5995, Note_on_c,82,108,5,3,1,95.0,False
55401,5996, Note_on_c,68,108,5,3,1,79.0,False
55402,5996, Note_on_c,75,108,5,3,1,87.0,False
55403,5997, Note_on_c,70,108,5,3,1,81.0,False
55404,5998, Note_on_c,77,108,5,3,1,90.0,True
55405,5998, Note_on_c,82,108,5,3,1,95.0,False
55406,5999, Note_on_c,68,108,5,3,1,79.0,False
55407,5999, Note_on_c,75,108,5,3,1,87.0,False
55408,6000, Note_on_c,77,108,5,3,1,90.0,True
55409,6000, Note_on_c,82,108,5,3,1,95.0,False
55410,6001, Note_on_c,68,108,5,3,1,79.0,False
55411,6001, Note_on_c,73,108,5,3,1,85.0,False
55412,6002, Note_on_c,70,108,5,3,1,81.0,False
55413,6003, Note_on_c,77,108,5,3,1,90.0,True
55414,6003, Note_on_c,82,108,5,3,1,95.0,False
55415,6004, Note_on_c,68,108,5,3,1,79.0,False
55416,6004, Note_on_c,75,108,5,3,1,87.0,False
55417,6005, Note_on_c,70,108,5,3,1,81.0,False
55418,6006, Note_on_c,77,108,5,3,1,90.0,True
55419,6006, Note_on_c,82,108,5,3,1,95.0,False
55420,6007, Note_on_c,68,108,5,3,1,79.0,False
55421,6007, Note_on_c,75,108,5,3,1,87.0,False
55422,6008, Note_on_c,77,108,5,3,1,90.0,True
55423,6008, Note_on_c,82,108,5,3,1,95.0,False
55424,6009, Note_on_c,68,108,5,3,1,79.0,False
55425,6009, Note_on_c,73,108,5,3,1,85.0,False
55426,6010, Note_on_c,70,108,5,3,1,81.0,False
55427,6011, Note_on_c,77,108,5,3,1,90.0,True
55428,6011, Note_on_c,82,108,5,3,1,95.0,False
55429,6012, Note_on_c,68,108,5,3,1,79.0,False
55430,6012, Note_on_c,75,108,5,3,1,87.0,False
55431,6013, Note_on_c,70,108,5,3,1,81.0,False
55432,6014, Note_on_c,77,108,5,3,1,90.0,True
55433,6014, Note_on_c,82,108,5,3,1,95.0,False
55434,6015, Note_on_c,68,108,5,3,1,79.0,False
55435,6015, Note_on_c,75,108,5,3,1,87.0,False
55436,6016, Note_on_c,77,108,5,3,1,90.0,True
55437,6016, Note_on_c,82,108,5,3,1,95.0,False
55438,6017, Note_on_c,68,108,5,3,1,79.0,False
55439,6017, Note_on_c,73,108,5,3,1,85.0,False
55440,6018, Note_on_c,70,108,5,3,1,81.0,False
55441,6019, Note_on_c,77,108,5,3,1,90.0,True
55442,6019, Note_on_c,82,108,5,3,1,95.0,False
55443,6020, Note_on_c,68,108,5,3,1,79.0,False
55444,6020, Note_on_c,75,108,5,3,1,87.0,False
55445,6021, Note_on_c,70,108,5,3,1,81.0,False
55446,6022, Note_on_c,77,108,5,3,1,90.0,True
55447,6022, Note_on_c,82,108,5,3,1,95.0,False
55448,6023, Note_on_c,68,108,5,3,1,79.0,False
55449,6023, Note_on_c,75,108,5,3,1,87.0,False
55450,6024, Note_on_c,77,108,5,3,1,90.0,True
55451,6024, Note_on_c,82,108,5,3,1,95.0,False
55452,6025, Note_on_c,68,108,5,3,1,79.0,False
55453,6025, Note_on_c,73,108,5,3,1,85.0,False
55454,6026, Note_on_c,70,108,5,3,1,81.0,False
55455,6027, Note_on_c,77,108,5,3,1,90.0,True
55456,6027, Note_on_c,82,108,5,3,1,95.0,False
55457,6028, Note_on_c,68,108,5,3,1,79.0,False
55458,6028, Note_on_c,75,108,5,3,1,87.0,False
55459,6029, Note_on_c,70,108,5,3,1,81.0,False
55460,6030, Note_on_c,77,108,5,3,1,90.0,True
55461,6030, Note_on_c,82,108,5,3,1,95.0,False
55462,6031, Note_on_c,68,108,5,3,1,79.0,False
55463,6031, Note_on_c,75,108,5,3,1,87.0,False
55464,6032, Note_on_c,77,108,5,3,1,90.0,True
55465,6032, Note_on_c,82,108,5,3,1,95.0,False
55466,6033, Note_on_c,68,108,5,3,1,79.0,False
55467,6033, Note_on_c,73,108,5,3,1,85.0,False
55468,6034, Note_on_c,70,108,5,3,1,81.0,False
55469,6035, Note_on_c,77,108,5,3,1,90.0,True
55470,6035, Note_on_c,82,108,5,3,1,95.0,False
55471,6036, Note_on_c,68,108,5,3,1,79.0,False
55472,6036, Note_on_c,75,108,5,3,1,87.0,False
55473,6037, Note_on_c,70,108,5,3,1,81.0,False
55474,6038, Note_on_c,77,108,5,3,1,90.0,True
55475,6038, Note_on_c,82,108,5,3,1,95.0,False
55476,6039, Note_on_c,68,108,5,3,1,79.0,False
55477,6039, Note_on_c,75,108,5,3,1,87.0,False
55478,6040, Note_on_c,77,108,5,3,1,90.0,True
55479,6040, Note_on_c,82,108,5,3,1,95.0,False
55480,6041, Note_on_c,68,108,5,3,1,79.0,False
55481,6041, Note_on_c,73,108,5,3,1,85.0,False
55482,6042, Note_on_c,70,108,5,3,1,81.0,False
55483,6043, Note_on_c,77,108,5,3,1,90.0,True
55484,6043, Note_on_c,82,108,5,3,1,95.0,False
55485,6044, Note_on_c,68,108,5,3,1,79.0,False
55486,6044, Note_on_c,75,108,5,3,1,87.0,False
55487,6045, Note_on_c,70,108,5,3,1,81.0,False
55488,6046, Note_on_c,77,108,5,3,1,90.0,True
55489,6046, Note_on_c,82,108,5,3,1,95.0,False
55490,6047, Note_on_c,68,108,5,3,1,79.0,False
55491,6047, Note_on_c,75,108,5,3,1,87.0,False
55492,6048, Note_on_c,77,108,5,3,1,90.0,True
55493,6048, Note_on_c,82,108,5,3,1,95.0,False
55494,6049, Note_on_c,68,106,5,3,1,79.0,False
55495,6049, Note_on_c,73,106,5,3,1,85.0,False
55496,6050, Note_on_c,70,103,5,3,1,81.0,False
55497,6051, Note_on_c,77,100,5,3,1,90.0,True
55498,6051, Note_on_c,82,100,5,3,1,95.0,False
55499,6052, Note_on_c,68,98,5,3,1,79.0,False
55500,6052, Note_on_c,75,98,5,3,1,87.0,False
55501,6053, Note_on_c,70,95,5,3,1,81.0,False
55502,6054, Note_on_c,77,93,5,3,1,90.0,True
55503,6054, Note_on_c,82,93,5,3,1,95.0,False
55504,6055, Note_on_c,68,90,5,3,1,79.0,False
55505,6055, Note_on_c,75,90,5,3,1,87.0,False
55506,6056, Note_on_c,77,87,5,3,1,90.0,True
55507,6056, Note_on_c,82,87,5,3,1,95.0,False
55508,6057, Note_on_c,68,85,5,3,1,79.0,False
55509,6057, Note_on_c,73,85,5,3,1,85.0,False
55510,6058, Note_on_c,70,82,5,3,1,81.0,False
55511,6059, Note_on_c,77,80,5,3,1,90.0,True
55512,6059, Note_on_c,82,80,5,3,1,95.0,False
55513,6060, Note_on_c,68,77,5,3,1,79.0,False
55514,6060, Note_on_c,75,77,5,3,1,87.0,False
55515,6061, Note_on_c,70,74,5,3,1,81.0,False
55516,6062, Note_on_c,77,72,5,3,1,90.0,True
55517,6062, Note_on_c,82,72,5,3,1,95.0,False
55518,6063, Note_on_c,68,69,5,3,1,79.0,False
55519,6063, Note_on_c,75,69,5,3,1,87.0,False
55520,6064, Note_on_c,77,67,5,3,1,90.0,True
55521,6064, Note_on_c,82,67,5,3,1,95.0,False
55522,6065, Note_on_c,68,64,5,3,1,79.0,False
55523,6065, Note_on_c,73,64,5,3,1,85.0,False
55524,6066, Note_on_c,70,61,5,3,1,81.0,False
55525,6067, Note_on_c,77,59,5,3,1,90.0,True
55526,6067, Note_on_c,82,59,5,3,1,95.0,False
55527,6068, Note_on_c,68,56,5,3,1,79.0,False
55528,6068, Note_on_c,75,56,5,3,1,87.0,False
55529,6069, Note_on_c,70,54,5,3,1,81.0,False
55530,6070, Note_on_c,77,51,5,3,1,90.0,True
55531,6070, Note_on_c,82,51,5,3,1,95.0,False
55532,6071, Note_on_c,68,48,5,3,1,79.0,False
55533,6071, Note_on_c,75,48,5,3,1,87.0,False
55534,6072, Note_on_c,77,46,5,3,1,90.0,True
55535,6072, Note_on_c,82,46,5,3,1,95.0,False
55536,6073, Note_on_c,68,43,5,3,1,79.0,False
55537,6073, Note_on_c,73,43,5,3,1,85.0,False
55538,6074, Note_on_c,70,41,5,3,1,81.0,False
55539,6075, Note_on_c,77,38,5,3,1,90.0,True
55540,6075, Note_on_c,82,38,5,3,1,95.0,False
55541,6076, Note_on_c,68,35,5,3,1,79.0,False
55542,6076, Note_on_c,75,35,5,3,1,87.0,False
55543,6077, Note_on_c,70,33,5,3,1,81.0,False
55544,6078, Note_on_c,77,30,5,3,1,90.0,True
55545,6078, Note_on_c,82,30,5,3,1,95.0,False
55546,6079, Note_on_c,68,28,5,3,1,79.0,False
55547,6079, Note_on_c,75,28,5,3,1,87.0,False
55548,6080, Note_on_c,77,25,5,3,1,90.0,True
55549,6080, Note_on_c,82,25,5,3,1,95.0,False
55550,6081, Note_on_c,68,22,5,3,1,79.0,False
55551,6081, Note_on_c,73,22,5,3,1,85.0,False
55552,6082, Note_on_c,70,20,5,3,1,81.0,False
55553,6083, Note_on_c,77,17,5,3,1,90.0,True
55554,6083, Note_on_c,82,17,5,3,1,95.0,False
55555,6084, Note_on_c,68,15,5,3,1,79.0,False
55556,6084, Note_on_c,75,15,5,3,1,87.0,False
55557,6085, Note_on_c,70,12,5,3,1,81.0,False
55558,6086, Note_on_c,77,9,5,3,1,90.0,True
55559,6086, Note_on_c,82,9,5,3,1,95.0,False
55560,6087, Note_on_c,68,7,5,3,1,79.0,False
55561,6087, Note_on_c,75,7,5,3,1,87.0,False
55562,6088, Note_on_c,77,4,5,3,1,90.0,True
55563,6088, Note_on_c,82,4,5,3,1,95.0,False
55564,6115, Note_on_c,70,108,5,3,1,81.0,False
55565,6115, Note_on_c,75,108,5,3,1,87.0,False
55566,6123, Note_on_c,70,108,5,3,1,81.0,False
55567,6123, Note_on_c,75,108,5,3,1,87.0,False
55568,6131, Note_on_c,70,108,5,3,1,81.0,False
55569,6131, Note_on_c,75,108,5,3,1,87.0,False
55570,6139, Note_on_c,70,108,5,3,1,81.0,False
55571,6139, Note_on_c,75,108,5,3,1,87.0,False
55572,6147, Note_on_c,70,108,5,3,1,81.0,False
55573,6147, Note_on_c,75,108,5,3,1,87.0,False
55574,6155, Note_on_c,70,108,5,3,1,81.0,False
55575,6155, Note_on_c,75,108,5,3,1,87.0,False
55576,6163, Note_on_c,70,108,5,3,1,81.0,False
55577,6163, Note_on_c,75,108,5,3,1,87.0,False
55578,6171, Note_on_c,70,108,5,3,1,81.0,False
55579,6171, Note_on_c,75,108,5,3,1,87.0,False
55580,6179, Note_on_c,70,108,5,3,1,81.0,False
55581,6179, Note_on_c,75,108,5,3,1,87.0,False
55582,6181, Note_on_c,65,108,5,3,1,76.0,True
55583,6187, Note_on_c,70,108,5,3,1,81.0,False
55584,6187, Note_on_c,75,108,5,3,1,87.0,False
55585,6189, Note_on_c,65,108,5,3,1,76.0,True
55586,6195, Note_on_c,70,108,5,3,1,81.0,False
55587,6195, Note_on_c,75,108,5,3,1,87.0,False
55588,6197, Note_on_c,65,108,5,3,1,76.0,True
55589,6203, Note_on_c,70,108,5,3,1,81.0,False
55590,6203, Note_on_c,75,108,5,3,1,87.0,False
55591,6205, Note_on_c,65,108,5,3,1,76.0,True
55592,6211, Note_on_c,70,108,5,3,1,81.0,False
55593,6211, Note_on_c,75,108,5,3,1,87.0,False
55594,6213, Note_on_c,65,108,5,3,1,76.0,True
55595,6219, Note_on_c,70,108,5,3,1,81.0,False
55596,6219, Note_on_c,75,108,5,3,1,87.0,False
55597,6221, Note_on_c,65,108,5,3,1,76.0,True
55598,6227, Note_on_c,70,108,5,3,1,81.0,False
55599,6227, Note_on_c,75,108,5,3,1,87.0,False
55600,6229, Note_on_c,65,108,5,3,1,76.0,True
55601,6235, Note_on_c,70,108,5,3,1,81.0,False
55602,6235, Note_on_c,75,108,5,3,1,87.0,False
55603,6237, Note_on_c,65,108,5,3,1,76.0,True
55604,6242, Note_on_c,65,108,5,3,1,76.0,True
55605,6243, Note_on_c,70,108,5,3,1,81.0,False
55606,6243, Note_on_c,75,108,5,3,1,87.0,False
55607,6245, Note_on_c,65,108,5,3,1,76.0,True
55608,6250, Note_on_c,65,108,5,3,1,76.0,True
55609,6251, Note_on_c,70,108,5,3,1,81.0,False
55610,6251, Note_on_c,75,108,5,3,1,87.0,False
55611,6253, Note_on_c,65,108,5,3,1,76.0,True
55612,6258, Note_on_c,65,108,5,3,1,76.0,True
55613,6259, Note_on_c,70,108,5,3,1,81.0,False
55614,6259, Note_on_c,75,108,5,3,1,87.0,False
55615,6261, Note_on_c,65,108,5,3,1,76.0,True
55616,6266, Note_on_c,65,108,5,3,1,76.0,True
55617,6267, Note_on_c,70,108,5,3,1,81.0,False
55618,6267, Note_on_c,75,108,5,3,1,87.0,False
55619,6269, Note_on_c,65,108,5,3,1,76.0,True
55620,6274, Note_on_c,65,108,5,3,1,76.0,True
55621,6275, Note_on_c,70,108,5,3,1,81.0,False
55622,6275, Note_on_c,75,108,5,3,1,87.0,False
55623,6277, Note_on_c,65,108,5,3,1,76.0,True
55624,6282, Note_on_c,65,108,5,3,1,76.0,True
55625,6283, Note_on_c,70,108,5,3,1,81.0,False
55626,6283, Note_on_c,75,108,5,3,1,87.0,False
55627,6285, Note_on_c,65,108,5,3,1,76.0,True
55628,6290, Note_on_c,65,108,5,3,1,76.0,True
55629,6291, Note_on_c,70,108,5,3,1,81.0,False
55630,6291, Note_on_c,75,108,5,3,1,87.0,False
55631,6293, Note_on_c,65,108,5,3,1,76.0,True
55632,6298, Note_on_c,65,108,5,3,1,76.0,True
55633,6299, Note_on_c,70,108,5,3,1,81.0,False
55634,6299, Note_on_c,75,108,5,3,1,87.0,False
55635,6301, Note_on_c,65,108,5,3,1,76.0,True
55636,6306, Note_on_c,65,108,5,3,1,76.0,True
55637,6307, Note_on_c,70,108,5,3,1,81.0,False
55638,6307, Note_on_c,75,108,5,3,1,87.0,False
55639,6309, Note_on_c,65,108,5,3,1,76.0,True
55640,6310, Note_on_c,70,108,5,3,1,81.0,False
55641,6310, Note_on_c,75,108,5,3,1,87.0,False
55642,6314, Note_on_c,65,108,5,3,1,76.0,True
55643,6315, Note_on_c,70,108,5,3,1,81.0,False
55644,6315, Note_on_c,75,108,5,3,1,87.0,False
55645,6317, Note_on_c,65,108,5,3,1,76.0,True
55646,6318, Note_on_c,70,108,5,3,1,81.0,False
55647,6318, Note_on_c,75,108,5,3,1,87.0,False
55648,6322, Note_on_c,65,108,5,3,1,76.0,True
55649,6323, Note_on_c,70,108,5,3,1,81.0,False
55650,6323, Note_on_c,75,108,5,3,1,87.0,False
55651,6325, Note_on_c,65,108,5,3,1,76.0,True
55652,6326, Note_on_c,70,108,5,3,1,81.0,False
55653,6326, Note_on_c,75,108,5,3,1,87.0,False
55654,6330, Note_on_c,65,108,5,3,1,76.0,True
55655,6331, Note_on_c,70,108,5,3,1,81.0,False
55656,6331, Note_on_c,75,108,5,3,1,87.0,False
55657,6333, Note_on_c,65,108,5,3,1,76.0,True
55658,6334, Note_on_c,70,108,5,3,1,81.0,False
55659,6334, Note_on_c,75,108,5,3,1,87.0,False
55660,6338, Note_on_c,65,108,5,3,1,76.0,True
55661,6339, Note_on_c,70,108,5,3,1,81.0,False
55662,6339, Note_on_c,75,108,5,3,1,87.0,False
55663,6341, Note_on_c,65,108,5,3,1,76.0,True
55664,6342, Note_on_c,70,108,5,3,1,81.0,False
55665,6342, Note_on_c,75,108,5,3,1,87.0,False
55666,6346, Note_on_c,65,108,5,3,1,76.0,True
55667,6347, Note_on_c,70,108,5,3,1,81.0,False
55668,6347, Note_on_c,75,108,5,3,1,87.0,False
55669,6349, Note_on_c,65,108,5,3,1,76.0,True
55670,6350, Note_on_c,70,108,5,3,1,81.0,False
55671,6350, Note_on_c,75,108,5,3,1,87.0,False
55672,6354, Note_on_c,65,108,5,3,1,76.0,True
55673,6355, Note_on_c,70,108,5,3,1,81.0,False
55674,6355, Note_on_c,75,108,5,3,1,87.0,False
55675,6357, Note_on_c,65,108,5,3,1,76.0,True
55676,6358, Note_on_c,70,108,5,3,1,81.0,False
55677,6358, Note_on_c,75,108,5,3,1,87.0,False
55678,6362, Note_on_c,65,108,5,3,1,76.0,True
55679,6363, Note_on_c,70,108,5,3,1,81.0,False
55680,6363, Note_on_c,75,108,5,3,1,87.0,False
55681,6365, Note_on_c,65,108,5,3,1,76.0,True
55682,6366, Note_on_c,70,108,5,3,1,81.0,False
55683,6366, Note_on_c,75,108,5,3,1,87.0,False
55684,6370, Note_on_c,65,108,5,3,1,76.0,True
55685,6371, Note_on_c,70,108,5,3,1,81.0,False
55686,6371, Note_on_c,75,108,5,3,1,87.0,False
55687,6373, Note_on_c,65,108,5,3,1,76.0,True
55688,6374, Note_on_c,70,108,5,3,1,81.0,False
55689,6374, Note_on_c,75,108,5,3,1,87.0,False
55690,6376, Note_on_c,70,108,5,3,1,81.0,False
55691,6376, Note_on_c,75,108,5,3,1,87.0,False
55692,6378, Note_on_c,65,108,5,3,1,76.0,True
55693,6379, Note_on_c,70,108,5,3,1,81.0,False
55694,6379, Note_on_c,75,108,5,3,1,87.0,False
55695,6381, Note_on_c,65,108,5,3,1,76.0,True
55696,6382, Note_on_c,70,108,5,3,1,81.0,False
55697,6382, Note_on_c,75,108,5,3,1,87.0,False
55698,6384, Note_on_c,70,108,5,3,1,81.0,False
55699,6384, Note_on_c,75,108,5,3,1,87.0,False
55700,6386, Note_on_c,65,108,5,3,1,76.0,True
55701,6387, Note_on_c,70,108,5,3,1,81.0,False
55702,6387, Note_on_c,75,108,5,3,1,87.0,False
55703,6389, Note_on_c,65,108,5,3,1,76.0,True
55704,6390, Note_on_c,70,108,5,3,1,81.0,False
55705,6390, Note_on_c,75,108,5,3,1,87.0,False
55706,6392, Note_on_c,70,108,5,3,1,81.0,False
55707,6392, Note_on_c,75,108,5,3,1,87.0,False
55708,6394, Note_on_c,65,108,5,3,1,76.0,True
55709,6395, Note_on_c,70,108,5,3,1,81.0,False
55710,6395, Note_on_c,75,108,5,3,1,87.0,False
55711,6397, Note_on_c,65,108,5,3,1,76.0,True
55712,6398, Note_on_c,70,108,5,3,1,81.0,False
55713,6398, Note_on_c,75,108,5,3,1,87.0,False
55714,6400, Note_on_c,70,108,5,3,1,81.0,False
55715,6400, Note_on_c,75,108,5,3,1,87.0,False
55716,6402, Note_on_c,65,108,5,3,1,76.0,True
55717,6403, Note_on_c,70,108,5,3,1,81.0,False
55718,6403, Note_on_c,75,108,5,3,1,87.0,False
55719,6405, Note_on_c,65,108,5,3,1,76.0,True
55720,6406, Note_on_c,70,108,5,3,1,81.0,False
55721,6406, Note_on_c,75,108,5,3,1,87.0,False
55722,6408, Note_on_c,70,108,5,3,1,81.0,False
55723,6408, Note_on_c,75,108,5,3,1,87.0,False
55724,6410, Note_on_c,65,108,5,3,1,76.0,True
55725,6411, Note_on_c,70,108,5,3,1,81.0,False
55726,6411, Note_on_c,75,108,5,3,1,87.0,False
55727,6413, Note_on_c,65,108,5,3,1,76.0,True
55728,6414, Note_on_c,70,108,5,3,1,81.0,False
55729,6414, Note_on_c,75,108,5,3,1,87.0,False
55730,6416, Note_on_c,70,108,5,3,1,81.0,False
55731,6416, Note_on_c,75,108,5,3,1,87.0,False
55732,6418, Note_on_c,65,108,5,3,1,76.0,True
55733,6419, Note_on_c,70,108,5,3,1,81.0,False
55734,6419, Note_on_c,75,108,5,3,1,87.0,False
55735,6421, Note_on_c,65,108,5,3,1,76.0,True
55736,6422, Note_on_c,70,108,5,3,1,81.0,False
55737,6422, Note_on_c,75,108,5,3,1,87.0,False
55738,6424, Note_on_c,70,108,5,3,1,81.0,False
55739,6424, Note_on_c,75,108,5,3,1,87.0,False
55740,6426, Note_on_c,65,108,5,3,1,76.0,True
55741,6427, Note_on_c,70,108,5,3,1,81.0,False
55742,6427, Note_on_c,75,108,5,3,1,87.0,False
55743,6429, Note_on_c,65,108,5,3,1,76.0,True
55744,6430, Note_on_c,70,108,5,3,1,81.0,False
55745,6430, Note_on_c,75,108,5,3,1,87.0,False
55746,6432, Note_on_c,70,108,5,3,1,81.0,False
55747,6432, Note_on_c,75,108,5,3,1,87.0,False
55748,6434, Note_on_c,65,108,5,3,1,76.0,True
55749,6435, Note_on_c,70,108,5,3,1,81.0,False
55750,6435, Note_on_c,75,108,5,3,1,87.0,False
55751,6437, Note_on_c,65,108,5,3,1,76.0,True
55752,6438, Note_on_c,70,108,5,3,1,81.0,False
55753,6438, Note_on_c,75,108,5,3,1,87.0,False
55754,6439, Note_on_c,72,108,5,3,1,84.0,True
55755,6439, Note_on_c,77,108,5,3,1,90.0,True
55756,6440, Note_on_c,70,108,5,3,1,81.0,False
55757,6440, Note_on_c,75,108,5,3,1,87.0,False
55758,6442, Note_on_c,65,108,5,3,1,76.0,True
55759,6443, Note_on_c,70,108,5,3,1,81.0,False
55760,6443, Note_on_c,75,108,5,3,1,87.0,False
55761,6445, Note_on_c,65,108,5,3,1,76.0,True
55762,6446, Note_on_c,70,108,5,3,1,81.0,False
55763,6446, Note_on_c,75,108,5,3,1,87.0,False
55764,6447, Note_on_c,72,108,5,3,1,84.0,True
55765,6447, Note_on_c,77,108,5,3,1,90.0,True
55766,6448, Note_on_c,70,108,5,3,1,81.0,False
55767,6448, Note_on_c,75,108,5,3,1,87.0,False
55768,6450, Note_on_c,65,108,5,3,1,76.0,True
55769,6451, Note_on_c,70,108,5,3,1,81.0,False
55770,6451, Note_on_c,75,108,5,3,1,87.0,False
55771,6453, Note_on_c,65,108,5,3,1,76.0,True
55772,6454, Note_on_c,70,108,5,3,1,81.0,False
55773,6454, Note_on_c,75,108,5,3,1,87.0,False
55774,6455, Note_on_c,72,108,5,3,1,84.0,True
55775,6455, Note_on_c,77,108,5,3,1,90.0,True
55776,6456, Note_on_c,70,108,5,3,1,81.0,False
55777,6456, Note_on_c,75,108,5,3,1,87.0,False
55778,6458, Note_on_c,65,108,5,3,1,76.0,True
55779,6459, Note_on_c,70,108,5,3,1,81.0,False
55780,6459, Note_on_c,75,108,5,3,1,87.0,False
55781,6461, Note_on_c,65,108,5,3,1,76.0,True
55782,6462, Note_on_c,70,108,5,3,1,81.0,False
55783,6462, Note_on_c,75,108,5,3,1,87.0,False
55784,6463, Note_on_c,72,108,5,3,1,84.0,True
55785,6463, Note_on_c,77,108,5,3,1,90.0,True
55786,6464, Note_on_c,70,108,5,3,1,81.0,False
55787,6464, Note_on_c,75,108,5,3,1,87.0,False
55788,6466, Note_on_c,65,108,5,3,1,76.0,True
55789,6467, Note_on_c,70,108,5,3,1,81.0,False
55790,6467, Note_on_c,75,108,5,3,1,87.0,False
55791,6469, Note_on_c,65,108,5,3,1,76.0,True
55792,6470, Note_on_c,70,108,5,3,1,81.0,False
55793,6470, Note_on_c,75,108,5,3,1,87.0,False
55794,6471, Note_on_c,72,108,5,3,1,84.0,True
55795,6471, Note_on_c,77,108,5,3,1,90.0,True
55796,6472, Note_on_c,70,108,5,3,1,81.0,False
55797,6472, Note_on_c,75,108,5,3,1,87.0,False
55798,6474, Note_on_c,65,108,5,3,1,76.0,True
55799,6475, Note_on_c,70,108,5,3,1,81.0,False
55800,6475, Note_on_c,75,108,5,3,1,87.0,False
55801,6477, Note_on_c,65,108,5,3,1,76.0,True
55802,6478, Note_on_c,70,108,5,3,1,81.0,False
55803,6478, Note_on_c,75,108,5,3,1,87.0,False
55804,6479, Note_on_c,72,108,5,3,1,84.0,True
55805,6479, Note_on_c,77,108,5,3,1,90.0,True
55806,6480, Note_on_c,70,108,5,3,1,81.0,False
55807,6480, Note_on_c,75,108,5,3,1,87.0,False
55808,6482, Note_on_c,65,108,5,3,1,76.0,True
55809,6483, Note_on_c,70,108,5,3,1,81.0,False
55810,6483, Note_on_c,75,108,5,3,1,87.0,False
55811,6485, Note_on_c,65,108,5,3,1,76.0,True
55812,6486, Note_on_c,70,108,5,3,1,81.0,False
55813,6486, Note_on_c,75,108,5,3,1,87.0,False
55814,6487, Note_on_c,72,108,5,3,1,84.0,True
55815,6487, Note_on_c,77,108,5,3,1,90.0,True
55816,6488, Note_on_c,70,108,5,3,1,81.0,False
55817,6488, Note_on_c,75,108,5,3,1,87.0,False
55818,6490, Note_on_c,65,108,5,3,1,76.0,True
55819,6491, Note_on_c,70,108,5,3,1,81.0,False
55820,6491, Note_on_c,75,108,5,3,1,87.0,False
55821,6493, Note_on_c,65,108,5,3,1,76.0,True
55822,6494, Note_on_c,70,108,5,3,1,81.0,False
55823,6494, Note_on_c,75,108,5,3,1,87.0,False
55824,6495, Note_on_c,72,108,5,3,1,84.0,True
55825,6495, Note_on_c,77,108,5,3,1,90.0,True
55826,6496, Note_on_c,70,108,5,3,1,81.0,False
55827,6496, Note_on_c,75,108,5,3,1,87.0,False
55828,6497, Note_on_c,73,108,5,3,1,85.0,False
55829,6497, Note_on_c,77,108,5,3,1,90.0,True
55830,6498, Note_on_c,65,108,5,3,1,76.0,True
55831,6499, Note_on_c,70,108,5,3,1,81.0,False
55832,6499, Note_on_c,75,108,5,3,1,87.0,False
55833,6501, Note_on_c,65,108,5,3,1,76.0,True
55834,6502, Note_on_c,70,108,5,3,1,81.0,False
55835,6502, Note_on_c,75,108,5,3,1,87.0,False
55836,6503, Note_on_c,72,108,5,3,1,84.0,True
55837,6503, Note_on_c,77,108,5,3,1,90.0,True
55838,6504, Note_on_c,70,108,5,3,1,81.0,False
55839,6504, Note_on_c,75,108,5,3,1,87.0,False
55840,6505, Note_on_c,73,108,5,3,1,85.0,False
55841,6505, Note_on_c,77,108,5,3,1,90.0,True
55842,6506, Note_on_c,65,108,5,3,1,76.0,True
55843,6507, Note_on_c,70,108,5,3,1,81.0,False
55844,6507, Note_on_c,75,108,5,3,1,87.0,False
55845,6509, Note_on_c,65,108,5,3,1,76.0,True
55846,6510, Note_on_c,70,108,5,3,1,81.0,False
55847,6510, Note_on_c,75,108,5,3,1,87.0,False
55848,6511, Note_on_c,72,108,5,3,1,84.0,True
55849,6511, Note_on_c,77,108,5,3,1,90.0,True
55850,6512, Note_on_c,70,108,5,3,1,81.0,False
55851,6512, Note_on_c,75,108,5,3,1,87.0,False
55852,6513, Note_on_c,73,108,5,3,1,85.0,False
55853,6513, Note_on_c,77,108,5,3,1,90.0,True
55854,6514, Note_on_c,65,108,5,3,1,76.0,True
55855,6515, Note_on_c,70,108,5,3,1,81.0,False
55856,6515, Note_on_c,75,108,5,3,1,87.0,False
55857,6517, Note_on_c,65,108,5,3,1,76.0,True
55858,6518, Note_on_c,70,108,5,3,1,81.0,False
55859,6518, Note_on_c,75,108,5,3,1,87.0,False
55860,6519, Note_on_c,72,108,5,3,1,84.0,True
55861,6519, Note_on_c,77,108,5,3,1,90.0,True
55862,6520, Note_on_c,70,108,5,3,1,81.0,False
55863,6520, Note_on_c,75,108,5,3,1,87.0,False
55864,6521, Note_on_c,73,108,5,3,1,85.0,False
55865,6521, Note_on_c,77,108,5,3,1,90.0,True
55866,6522, Note_on_c,65,108,5,3,1,76.0,True
55867,6523, Note_on_c,70,108,5,3,1,81.0,False
55868,6523, Note_on_c,75,108,5,3,1,87.0,False
55869,6525, Note_on_c,65,108,5,3,1,76.0,True
55870,6526, Note_on_c,70,108,5,3,1,81.0,False
55871,6526, Note_on_c,75,108,5,3,1,87.0,False
55872,6527, Note_on_c,72,108,5,3,1,84.0,True
55873,6527, Note_on_c,77,108,5,3,1,90.0,True
55874,6528, Note_on_c,70,108,5,3,1,81.0,False
55875,6528, Note_on_c,75,108,5,3,1,87.0,False
55876,6529, Note_on_c,73,108,5,3,1,85.0,False
55877,6529, Note_on_c,77,108,5,3,1,90.0,True
55878,6530, Note_on_c,65,108,5,3,1,76.0,True
55879,6531, Note_on_c,70,108,5,3,1,81.0,False
55880,6531, Note_on_c,75,108,5,3,1,87.0,False
55881,6533, Note_on_c,65,108,5,3,1,76.0,True
55882,6534, Note_on_c,70,108,5,3,1,81.0,False
55883,6534, Note_on_c,75,108,5,3,1,87.0,False
55884,6535, Note_on_c,72,108,5,3,1,84.0,True
55885,6535, Note_on_c,77,108,5,3,1,90.0,True
55886,6536, Note_on_c,70,108,5,3,1,81.0,False
55887,6536, Note_on_c,75,108,5,3,1,87.0,False
55888,6537, Note_on_c,73,108,5,3,1,85.0,False
55889,6537, Note_on_c,77,108,5,3,1,90.0,True
55890,6538, Note_on_c,65,108,5,3,1,76.0,True
55891,6539, Note_on_c,70,108,5,3,1,81.0,False
55892,6539, Note_on_c,75,108,5,3,1,87.0,False
55893,6541, Note_on_c,65,108,5,3,1,76.0,True
55894,6542, Note_on_c,70,108,5,3,1,81.0,False
55895,6542, Note_on_c,75,108,5,3,1,87.0,False
55896,6543, Note_on_c,72,108,5,3,1,84.0,True
55897,6543, Note_on_c,77,108,5,3,1,90.0,True
55898,6544, Note_on_c,70,108,5,3,1,81.0,False
55899,6544, Note_on_c,75,108,5,3,1,87.0,False
55900,6545, Note_on_c,73,108,5,3,1,85.0,False
55901,6545, Note_on_c,77,108,5,3,1,90.0,True
55902,6546, Note_on_c,65,108,5,3,1,76.0,True
55903,6547, Note_on_c,70,108,5,3,1,81.0,False
55904,6547, Note_on_c,75,108,5,3,1,87.0,False
55905,6549, Note_on_c,65,108,5,3,1,76.0,True
55906,6550, Note_on_c,70,108,5,3,1,81.0,False
55907,6550, Note_on_c,75,108,5,3,1,87.0,False
55908,6551, Note_on_c,72,108,5,3,1,84.0,True
55909,6551, Note_on_c,77,108,5,3,1,90.0,True
55910,6552, Note_on_c,70,108,5,3,1,81.0,False
55911,6552, Note_on_c,75,108,5,3,1,87.0,False
55912,6553, Note_on_c,73,108,5,3,1,85.0,False
55913,6553, Note_on_c,77,108,5,3,1,90.0,True
55914,6554, Note_on_c,65,108,5,3,1,76.0,True
55915,6555, Note_on_c,70,108,5,3,1,81.0,False
55916,6555, Note_on_c,75,108,5,3,1,87.0,False
55917,6557, Note_on_c,65,108,5,3,1,76.0,True
55918,6558, Note_on_c,70,108,5,3,1,81.0,False
55919,6558, Note_on_c,75,108,5,3,1,87.0,False
55920,6559, Note_on_c,72,108,5,3,1,84.0,True
55921,6559, Note_on_c,77,108,5,3,1,90.0,True
55922,6560, Note_on_c,70,108,5,3,1,81.0,False
55923,6560, Note_on_c,75,108,5,3,1,87.0,False
55924,6561, Note_on_c,73,108,5,3,1,85.0,False
55925,6561, Note_on_c,77,108,5,3,1,90.0,True
55926,6562, Note_on_c,65,108,5,3,1,76.0,True
55927,6563, Note_on_c,70,108,5,3,1,81.0,False
55928,6563, Note_on_c,75,108,5,3,1,87.0,False
55929,6564, Note_on_c,72,108,5,3,1,84.0,True
55930,6564, Note_on_c,77,108,5,3,1,90.0,True
55931,6565, Note_on_c,65,108,5,3,1,76.0,True
55932,6566, Note_on_c,70,108,5,3,1,81.0,False
55933,6566, Note_on_c,75,108,5,3,1,87.0,False
55934,6567, Note_on_c,72,108,5,3,1,84.0,True
55935,6567, Note_on_c,77,108,5,3,1,90.0,True
55936,6568, Note_on_c,70,108,5,3,1,81.0,False
55937,6568, Note_on_c,75,108,5,3,1,87.0,False
55938,6569, Note_on_c,73,108,5,3,1,85.0,False
55939,6569, Note_on_c,77,108,5,3,1,90.0,True
55940,6570, Note_on_c,65,108,5,3,1,76.0,True
55941,6571, Note_on_c,70,108,5,3,1,81.0,False
55942,6571, Note_on_c,75,108,5,3,1,87.0,False
55943,6572, Note_on_c,72,108,5,3,1,84.0,True
55944,6572, Note_on_c,77,108,5,3,1,90.0,True
55945,6573, Note_on_c,65,108,5,3,1,76.0,True
55946,6574, Note_on_c,70,108,5,3,1,81.0,False
55947,6574, Note_on_c,75,108,5,3,1,87.0,False
55948,6575, Note_on_c,72,108,5,3,1,84.0,True
55949,6575, Note_on_c,77,108,5,3,1,90.0,True
55950,6576, Note_on_c,70,108,5,3,1,81.0,False
55951,6576, Note_on_c,75,108,5,3,1,87.0,False
55952,6577, Note_on_c,73,108,5,3,1,85.0,False
55953,6577, Note_on_c,77,108,5,3,1,90.0,True
55954,6578, Note_on_c,65,108,5,3,1,76.0,True
55955,6579, Note_on_c,70,108,5,3,1,81.0,False
55956,6579, Note_on_c,75,108,5,3,1,87.0,False
55957,6580, Note_on_c,72,108,5,3,1,84.0,True
55958,6580, Note_on_c,77,108,5,3,1,90.0,True
55959,6581, Note_on_c,65,108,5,3,1,76.0,True
55960,6582, Note_on_c,70,108,5,3,1,81.0,False
55961,6582, Note_on_c,75,108,5,3,1,87.0,False
55962,6583, Note_on_c,72,108,5,3,1,84.0,True
55963,6583, Note_on_c,77,108,5,3,1,90.0,True
55964,6584, Note_on_c,70,108,5,3,1,81.0,False
55965,6584, Note_on_c,75,108,5,3,1,87.0,False
55966,6585, Note_on_c,73,108,5,3,1,85.0,False
55967,6585, Note_on_c,77,108,5,3,1,90.0,True
55968,6586, Note_on_c,65,108,5,3,1,76.0,True
55969,6587, Note_on_c,70,108,5,3,1,81.0,False
55970,6587, Note_on_c,75,108,5,3,1,87.0,False
55971,6588, Note_on_c,72,108,5,3,1,84.0,True
55972,6588, Note_on_c,77,108,5,3,1,90.0,True
55973,6589, Note_on_c,65,108,5,3,1,76.0,True
55974,6590, Note_on_c,70,108,5,3,1,81.0,False
55975,6590, Note_on_c,75,108,5,3,1,87.0,False
55976,6591, Note_on_c,72,108,5,3,1,84.0,True
55977,6591, Note_on_c,77,108,5,3,1,90.0,True
55978,6592, Note_on_c,70,108,5,3,1,81.0,False
55979,6592, Note_on_c,75,108,5,3,1,87.0,False
55980,6593, Note_on_c,73,108,5,3,1,85.0,False
55981,6593, Note_on_c,77,108,5,3,1,90.0,True
55982,6594, Note_on_c,65,108,5,3,1,76.0,True
55983,6595, Note_on_c,70,108,5,3,1,81.0,False
55984,6595, Note_on_c,75,108,5,3,1,87.0,False
55985,6596, Note_on_c,72,108,5,3,1,84.0,True
55986,6596, Note_on_c,77,108,5,3,1,90.0,True
55987,6597, Note_on_c,65,108,5,3,1,76.0,True
55988,6598, Note_on_c,70,108,5,3,1,81.0,False
55989,6598, Note_on_c,75,108,5,3,1,87.0,False
55990,6599, Note_on_c,72,108,5,3,1,84.0,True
55991,6599, Note_on_c,77,108,5,3,1,90.0,True
55992,6600, Note_on_c,70,108,5,3,1,81.0,False
55993,6600, Note_on_c,75,108,5,3,1,87.0,False
55994,6601, Note_on_c,73,108,5,3,1,85.0,False
55995,6601, Note_on_c,77,108,5,3,1,90.0,True
55996,6602, Note_on_c,65,108,5,3,1,76.0,True
55997,6603, Note_on_c,70,108,5,3,1,81.0,False
55998,6603, Note_on_c,75,108,5,3,1,87.0,False
55999,6604, Note_on_c,72,108,5,3,1,84.0,True
56000,6604, Note_on_c,77,108,5,3,1,90.0,True
56001,6605, Note_on_c,65,108,5,3,1,76.0,True
56002,6606, Note_on_c,70,108,5,3,1,81.0,False
56003,6606, Note_on_c,75,108,5,3,1,87.0,False
56004,6607, Note_on_c,72,108,5,3,1,84.0,True
56005,6607, Note_on_c,77,108,5,3,1,90.0,True
56006,6608, Note_on_c,70,108,5,3,1,81.0,False
56007,6608, Note_on_c,75,108,5,3,1,87.0,False
56008,6609, Note_on_c,73,108,5,3,1,85.0,False
56009,6609, Note_on_c,77,108,5,3,1,90.0,True
56010,6610, Note_on_c,65,108,5,3,1,76.0,True
56011,6611, Note_on_c,70,108,5,3,1,81.0,False
56012,6611, Note_on_c,75,108,5,3,1,87.0,False
56013,6612, Note_on_c,72,108,5,3,1,84.0,True
56014,6612, Note_on_c,77,108,5,3,1,90.0,True
56015,6613, Note_on_c,65,108,5,3,1,76.0,True
56016,6614, Note_on_c,70,108,5,3,1,81.0,False
56017,6614, Note_on_c,75,108,5,3,1,87.0,False
56018,6615, Note_on_c,72,108,5,3,1,84.0,True
56019,6615, Note_on_c,77,108,5,3,1,90.0,True
56020,6616, Note_on_c,70,108,5,3,1,81.0,False
56021,6616, Note_on_c,75,108,5,3,1,87.0,False
56022,6617, Note_on_c,73,108,5,3,1,85.0,False
56023,6617, Note_on_c,77,108,5,3,1,90.0,True
56024,6618, Note_on_c,65,108,5,3,1,76.0,True
56025,6619, Note_on_c,70,108,5,3,1,81.0,False
56026,6619, Note_on_c,75,108,5,3,1,87.0,False
56027,6620, Note_on_c,72,108,5,3,1,84.0,True
56028,6620, Note_on_c,77,108,5,3,1,90.0,True
56029,6621, Note_on_c,65,108,5,3,1,76.0,True
56030,6622, Note_on_c,70,108,5,3,1,81.0,False
56031,6622, Note_on_c,75,108,5,3,1,87.0,False
56032,6623, Note_on_c,72,108,5,3,1,84.0,True
56033,6623, Note_on_c,77,108,5,3,1,90.0,True
56034,6624, Note_on_c,70,108,5,3,1,81.0,False
56035,6624, Note_on_c,75,108,5,3,1,87.0,False
56036,6625, Note_on_c,73,107,5,3,1,85.0,False
56037,6625, Note_on_c,77,107,5,3,1,90.0,True
56038,6626, Note_on_c,65,106,5,3,1,76.0,True
56039,6627, Note_on_c,70,106,5,3,1,81.0,False
56040,6627, Note_on_c,75,106,5,3,1,87.0,False
56041,6628, Note_on_c,72,105,5,3,1,84.0,True
56042,6628, Note_on_c,77,105,5,3,1,90.0,True
56043,6629, Note_on_c,65,104,5,3,1,76.0,True
56044,6630, Note_on_c,70,103,5,3,1,81.0,False
56045,6630, Note_on_c,75,103,5,3,1,87.0,False
56046,6631, Note_on_c,72,103,5,3,1,84.0,True
56047,6631, Note_on_c,77,103,5,3,1,90.0,True
56048,6632, Note_on_c,70,102,5,3,1,81.0,False
56049,6632, Note_on_c,75,102,5,3,1,87.0,False
56050,6633, Note_on_c,73,101,5,3,1,85.0,False
56051,6633, Note_on_c,77,101,5,3,1,90.0,True
56052,6634, Note_on_c,65,100,5,3,1,76.0,True
56053,6635, Note_on_c,70,99,5,3,1,81.0,False
56054,6635, Note_on_c,75,99,5,3,1,87.0,False
56055,6636, Note_on_c,72,99,5,3,1,84.0,True
56056,6636, Note_on_c,77,99,5,3,1,90.0,True
56057,6637, Note_on_c,65,98,5,3,1,76.0,True
56058,6638, Note_on_c,70,97,5,3,1,81.0,False
56059,6638, Note_on_c,75,97,5,3,1,87.0,False
56060,6639, Note_on_c,72,96,5,3,1,84.0,True
56061,6639, Note_on_c,77,96,5,3,1,90.0,True
56062,6640, Note_on_c,70,96,5,3,1,81.0,False
56063,6640, Note_on_c,75,96,5,3,1,87.0,False
56064,6641, Note_on_c,73,95,5,3,1,85.0,False
56065,6641, Note_on_c,77,95,5,3,1,90.0,True
56066,6642, Note_on_c,65,94,5,3,1,76.0,True
56067,6643, Note_on_c,70,93,5,3,1,81.0,False
56068,6643, Note_on_c,75,93,5,3,1,87.0,False
56069,6644, Note_on_c,72,93,5,3,1,84.0,True
56070,6644, Note_on_c,77,93,5,3,1,90.0,True
56071,6645, Note_on_c,65,92,5,3,1,76.0,True
56072,6646, Note_on_c,70,91,5,3,1,81.0,False
56073,6646, Note_on_c,75,91,5,3,1,87.0,False
56074,6647, Note_on_c,72,90,5,3,1,84.0,True
56075,6647, Note_on_c,77,90,5,3,1,90.0,True
56076,6648, Note_on_c,70,90,5,3,1,81.0,False
56077,6648, Note_on_c,75,90,5,3,1,87.0,False
56078,6649, Note_on_c,73,89,5,3,1,85.0,False
56079,6649, Note_on_c,77,89,5,3,1,90.0,True
56080,6650, Note_on_c,65,88,5,3,1,76.0,True
56081,6651, Note_on_c,70,87,5,3,1,81.0,False
56082,6651, Note_on_c,75,87,5,3,1,87.0,False
56083,6652, Note_on_c,72,86,5,3,1,84.0,True
56084,6652, Note_on_c,77,86,5,3,1,90.0,True
56085,6653, Note_on_c,65,86,5,3,1,76.0,True
56086,6654, Note_on_c,70,85,5,3,1,81.0,False
56087,6654, Note_on_c,75,85,5,3,1,87.0,False
56088,6655, Note_on_c,72,84,5,3,1,84.0,True
56089,6655, Note_on_c,77,84,5,3,1,90.0,True
56090,6656, Note_on_c,70,83,5,3,1,81.0,False
56091,6656, Note_on_c,75,83,5,3,1,87.0,False
56092,6657, Note_on_c,73,83,5,3,1,85.0,False
56093,6657, Note_on_c,77,83,5,3,1,90.0,True
56094,6658, Note_on_c,65,82,5,3,1,76.0,True
56095,6659, Note_on_c,70,81,5,3,1,81.0,False
56096,6659, Note_on_c,75,81,5,3,1,87.0,False
56097,6660, Note_on_c,72,80,5,3,1,84.0,True
56098,6660, Note_on_c,77,80,5,3,1,90.0,True
56099,6661, Note_on_c,65,80,5,3,1,76.0,True
56100,6662, Note_on_c,70,79,5,3,1,81.0,False
56101,6662, Note_on_c,75,79,5,3,1,87.0,False
56102,6663, Note_on_c,72,78,5,3,1,84.0,True
56103,6663, Note_on_c,77,78,5,3,1,90.0,True
56104,6664, Note_on_c,70,77,5,3,1,81.0,False
56105,6664, Note_on_c,75,77,5,3,1,87.0,False
56106,6665, Note_on_c,73,76,5,3,1,85.0,False
56107,6665, Note_on_c,77,76,5,3,1,90.0,True
56108,6666, Note_on_c,65,76,5,3,1,76.0,True
56109,6667, Note_on_c,70,76,5,3,1,81.0,False
56110,6667, Note_on_c,75,76,5,3,1,87.0,False
56111,6668, Note_on_c,72,76,5,3,1,84.0,True
56112,6668, Note_on_c,77,76,5,3,1,90.0,True
56113,6669, Note_on_c,65,76,5,3,1,76.0,True
56114,6670, Note_on_c,70,76,5,3,1,81.0,False
56115,6670, Note_on_c,75,76,5,3,1,87.0,False
56116,6671, Note_on_c,72,76,5,3,1,84.0,True
56117,6671, Note_on_c,77,76,5,3,1,90.0,True
56118,6672, Note_on_c,70,76,5,3,1,81.0,False
56119,6672, Note_on_c,75,76,5,3,1,87.0,False
56120,6673, Note_on_c,73,76,5,3,1,85.0,False
56121,6673, Note_on_c,77,76,5,3,1,90.0,True
56122,6674, Note_on_c,65,76,5,3,1,76.0,True
56123,6675, Note_on_c,70,76,5,3,1,81.0,False
56124,6675, Note_on_c,75,76,5,3,1,87.0,False
56125,6676, Note_on_c,72,76,5,3,1,84.0,True
56126,6676, Note_on_c,77,76,5,3,1,90.0,True
56127,6677, Note_on_c,65,76,5,3,1,76.0,True
56128,6678, Note_on_c,70,76,5,3,1,81.0,False
56129,6678, Note_on_c,75,76,5,3,1,87.0,False
56130,6679, Note_on_c,72,76,5,3,1,84.0,True
56131,6679, Note_on_c,77,76,5,3,1,90.0,True
56132,6680, Note_on_c,70,76,5,3,1,81.0,False
56133,6680, Note_on_c,75,76,5,3,1,87.0,False
56134,6681, Note_on_c,73,76,5,3,1,85.0,False
56135,6681, Note_on_c,77,76,5,3,1,90.0,True
56136,6682, Note_on_c,65,76,5,3,1,76.0,True
56137,6683, Note_on_c,70,76,5,3,1,81.0,False
56138,6683, Note_on_c,75,76,5,3,1,87.0,False
56139,6684, Note_on_c,72,76,5,3,1,84.0,True
56140,6684, Note_on_c,77,76,5,3,1,90.0,True
56141,6685, Note_on_c,65,76,5,3,1,76.0,True
56142,6686, Note_on_c,70,76,5,3,1,81.0,False
56143,6686, Note_on_c,75,76,5,3,1,87.0,False
56144,6687, Note_on_c,72,76,5,3,1,84.0,True
56145,6687, Note_on_c,77,76,5,3,1,90.0,True
56146,6688, Note_on_c,70,76,5,3,1,81.0,False
56147,6688, Note_on_c,75,76,5,3,1,87.0,False
56148,6689, Note_on_c,73,76,5,3,1,85.0,False
56149,6689, Note_on_c,77,76,5,3,1,90.0,True
56150,6690, Note_on_c,65,76,5,3,1,76.0,True
56151,6691, Note_on_c,70,76,5,3,1,81.0,False
56152,6691, Note_on_c,75,76,5,3,1,87.0,False
56153,6692, Note_on_c,72,76,5,3,1,84.0,True
56154,6692, Note_on_c,77,76,5,3,1,90.0,True
56155,6693, Note_on_c,65,76,5,3,1,76.0,True
56156,6694, Note_on_c,70,76,5,3,1,81.0,False
56157,6694, Note_on_c,75,76,5,3,1,87.0,False
56158,6695, Note_on_c,72,76,5,3,1,84.0,True
56159,6695, Note_on_c,77,76,5,3,1,90.0,True
56160,6696, Note_on_c,70,76,5,3,1,81.0,False
56161,6696, Note_on_c,75,76,5,3,1,87.0,False
56162,6697, Note_on_c,73,76,5,3,1,85.0,False
56163,6697, Note_on_c,77,76,5,3,1,90.0,True
56164,6698, Note_on_c,65,76,5,3,1,76.0,True
56165,6699, Note_on_c,70,76,5,3,1,81.0,False
56166,6699, Note_on_c,75,76,5,3,1,87.0,False
56167,6700, Note_on_c,72,76,5,3,1,84.0,True
56168,6700, Note_on_c,77,76,5,3,1,90.0,True
56169,6701, Note_on_c,65,76,5,3,1,76.0,True
56170,6702, Note_on_c,70,76,5,3,1,81.0,False
56171,6702, Note_on_c,75,76,5,3,1,87.0,False
56172,6703, Note_on_c,72,76,5,3,1,84.0,True
56173,6703, Note_on_c,77,76,5,3,1,90.0,True
56174,6704, Note_on_c,70,76,5,3,1,81.0,False
56175,6704, Note_on_c,75,76,5,3,1,87.0,False
56176,6705, Note_on_c,73,76,5,3,1,85.0,False
56177,6705, Note_on_c,77,76,5,3,1,90.0,True
56178,6706, Note_on_c,65,76,5,3,1,76.0,True
56179,6707, Note_on_c,70,76,5,3,1,81.0,False
56180,6707, Note_on_c,75,76,5,3,1,87.0,False
56181,6708, Note_on_c,72,76,5,3,1,84.0,True
56182,6708, Note_on_c,77,76,5,3,1,90.0,True
56183,6709, Note_on_c,65,76,5,3,1,76.0,True
56184,6710, Note_on_c,70,76,5,3,1,81.0,False
56185,6710, Note_on_c,75,76,5,3,1,87.0,False
56186,6711, Note_on_c,72,76,5,3,1,84.0,True
56187,6711, Note_on_c,77,76,5,3,1,90.0,True
56188,6712, Note_on_c,70,76,5,3,1,81.0,False
56189,6712, Note_on_c,75,76,5,3,1,87.0,False
56190,6713, Note_on_c,73,76,5,3,1,85.0,False
56191,6713, Note_on_c,77,76,5,3,1,90.0,True
56192,6714, Note_on_c,65,76,5,3,1,76.0,True
56193,6715, Note_on_c,70,76,5,3,1,81.0,False
56194,6715, Note_on_c,75,76,5,3,1,87.0,False
56195,6716, Note_on_c,72,76,5,3,1,84.0,True
56196,6716, Note_on_c,77,76,5,3,1,90.0,True
56197,6717, Note_on_c,65,76,5,3,1,76.0,True
56198,6718, Note_on_c,70,76,5,3,1,81.0,False
56199,6718, Note_on_c,75,76,5,3,1,87.0,False
56200,6719, Note_on_c,72,76,5,3,1,84.0,True
56201,6719, Note_on_c,77,76,5,3,1,90.0,True
56202,6720, Note_on_c,70,76,5,3,1,81.0,False
56203,6720, Note_on_c,75,76,5,3,1,87.0,False
56204,6721, Note_on_c,73,76,5,3,1,85.0,False
56205,6721, Note_on_c,77,76,5,3,1,90.0,True
56206,6722, Note_on_c,65,76,5,3,1,76.0,True
56207,6723, Note_on_c,70,76,5,3,1,81.0,False
56208,6723, Note_on_c,75,76,5,3,1,87.0,False
56209,6724, Note_on_c,72,76,5,3,1,84.0,True
56210,6724, Note_on_c,77,76,5,3,1,90.0,True
56211,6725, Note_on_c,65,76,5,3,1,76.0,True
56212,6726, Note_on_c,70,76,5,3,1,81.0,False
56213,6726, Note_on_c,75,76,5,3,1,87.0,False
56214,6727, Note_on_c,72,76,5,3,1,84.0,True
56215,6727, Note_on_c,77,76,5,3,1,90.0,True
56216,6728, Note_on_c,70,76,5,3,1,81.0,False
56217,6728, Note_on_c,75,76,5,3,1,87.0,False
56218,6729, Note_on_c,73,76,5,3,1,85.0,False
56219,6729, Note_on_c,77,76,5,3,1,90.0,True
56220,6730, Note_on_c,65,76,5,3,1,76.0,True
56221,6731, Note_on_c,70,76,5,3,1,81.0,False
56222,6731, Note_on_c,75,76,5,3,1,87.0,False
56223,6732, Note_on_c,72,76,5,3,1,84.0,True
56224,6732, Note_on_c,77,76,5,3,1,90.0,True
56225,6733, Note_on_c,65,76,5,3,1,76.0,True
56226,6734, Note_on_c,70,76,5,3,1,81.0,False
56227,6734, Note_on_c,75,76,5,3,1,87.0,False
56228,6735, Note_on_c,72,76,5,3,1,84.0,True
56229,6735, Note_on_c,77,76,5,3,1,90.0,True
56230,6736, Note_on_c,70,76,5,3,1,81.0,False
56231,6736, Note_on_c,75,76,5,3,1,87.0,False
56232,6737, Note_on_c,73,76,5,3,1,85.0,False
56233,6737, Note_on_c,77,76,5,3,1,90.0,True
56234,6738, Note_on_c,65,76,5,3,1,76.0,True
56235,6739, Note_on_c,70,76,5,3,1,81.0,False
56236,6739, Note_on_c,75,76,5,3,1,87.0,False
56237,6740, Note_on_c,72,76,5,3,1,84.0,True
56238,6740, Note_on_c,77,76,5,3,1,90.0,True
56239,6741, Note_on_c,65,76,5,3,1,76.0,True
56240,6742, Note_on_c,70,76,5,3,1,81.0,False
56241,6742, Note_on_c,75,76,5,3,1,87.0,False
56242,6743, Note_on_c,72,76,5,3,1,84.0,True
56243,6743, Note_on_c,77,76,5,3,1,90.0,True
56244,6744, Note_on_c,70,76,5,3,1,81.0,False
56245,6744, Note_on_c,75,76,5,3,1,87.0,False
56246,6745, Note_on_c,73,76,5,3,1,85.0,False
56247,6745, Note_on_c,77,76,5,3,1,90.0,True
56248,6746, Note_on_c,65,76,5,3,1,76.0,True
56249,6747, Note_on_c,70,76,5,3,1,81.0,False
56250,6747, Note_on_c,75,76,5,3,1,87.0,False
56251,6748, Note_on_c,72,76,5,3,1,84.0,True
56252,6748, Note_on_c,77,76,5,3,1,90.0,True
56253,6749, Note_on_c,65,76,5,3,1,76.0,True
56254,6750, Note_on_c,70,76,5,3,1,81.0,False
56255,6750, Note_on_c,75,76,5,3,1,87.0,False
56256,6751, Note_on_c,72,76,5,3,1,84.0,True
56257,6751, Note_on_c,77,76,5,3,1,90.0,True
56258,6752, Note_on_c,70,76,5,3,1,81.0,False
56259,6752, Note_on_c,75,76,5,3,1,87.0,False
56260,6753, Note_on_c,73,76,5,3,1,85.0,False
56261,6753, Note_on_c,77,76,5,3,1,90.0,True
56262,6754, Note_on_c,65,76,5,3,1,76.0,True
56263,6755, Note_on_c,70,76,5,3,1,81.0,False
56264,6755, Note_on_c,75,76,5,3,1,87.0,False
56265,6756, Note_on_c,72,76,5,3,1,84.0,True
56266,6756, Note_on_c,77,76,5,3,1,90.0,True
56267,6757, Note_on_c,65,76,5,3,1,76.0,True
56268,6758, Note_on_c,70,76,5,3,1,81.0,False
56269,6758, Note_on_c,75,76,5,3,1,87.0,False
56270,6759, Note_on_c,72,76,5,3,1,84.0,True
56271,6759, Note_on_c,77,76,5,3,1,90.0,True
56272,6760, Note_on_c,70,76,5,3,1,81.0,False
56273,6760, Note_on_c,75,76,5,3,1,87.0,False
56274,6761, Note_on_c,73,76,5,3,1,85.0,False
56275,6761, Note_on_c,77,76,5,3,1,90.0,True
56276,6762, Note_on_c,65,76,5,3,1,76.0,True
56277,6763, Note_on_c,70,76,5,3,1,81.0,False
56278,6763, Note_on_c,75,76,5,3,1,87.0,False
56279,6764, Note_on_c,72,76,5,3,1,84.0,True
56280,6764, Note_on_c,77,76,5,3,1,90.0,True
56281,6765, Note_on_c,65,76,5,3,1,76.0,True
56282,6766, Note_on_c,70,76,5,3,1,81.0,False
56283,6766, Note_on_c,75,76,5,3,1,87.0,False
56284,6767, Note_on_c,72,76,5,3,1,84.0,True
56285,6767, Note_on_c,77,76,5,3,1,90.0,True
56286,6768, Note_on_c,70,76,5,3,1,81.0,False
56287,6768, Note_on_c,75,76,5,3,1,87.0,False
56288,6769, Note_on_c,73,76,5,3,1,85.0,False
56289,6769, Note_on_c,77,76,5,3,1,90.0,True
56290,6770, Note_on_c,65,76,5,3,1,76.0,True
56291,6771, Note_on_c,70,76,5,3,1,81.0,False
56292,6771, Note_on_c,75,76,5,3,1,87.0,False
56293,6772, Note_on_c,72,76,5,3,1,84.0,True
56294,6772, Note_on_c,77,76,5,3,1,90.0,True
56295,6773, Note_on_c,65,76,5,3,1,76.0,True
56296,6774, Note_on_c,70,76,5,3,1,81.0,False
56297,6774, Note_on_c,75,76,5,3,1,87.0,False
56298,6775, Note_on_c,72,76,5,3,1,84.0,True
56299,6775, Note_on_c,77,76,5,3,1,90.0,True
56300,6776, Note_on_c,70,76,5,3,1,81.0,False
56301,6776, Note_on_c,75,76,5,3,1,87.0,False
56302,6777, Note_on_c,73,76,5,3,1,85.0,False
56303,6777, Note_on_c,77,76,5,3,1,90.0,True
56304,6778, Note_on_c,65,76,5,3,1,76.0,True
56305,6779, Note_on_c,70,76,5,3,1,81.0,False
56306,6779, Note_on_c,75,76,5,3,1,87.0,False
56307,6780, Note_on_c,72,76,5,3,1,84.0,True
56308,6780, Note_on_c,77,76,5,3,1,90.0,True
56309,6781, Note_on_c,65,76,5,3,1,76.0,True
56310,6782, Note_on_c,70,76,5,3,1,81.0,False
56311,6782, Note_on_c,75,76,5,3,1,87.0,False
56312,6783, Note_on_c,72,76,5,3,1,84.0,True
56313,6783, Note_on_c,77,76,5,3,1,90.0,True
56314,6784, Note_on_c,70,76,5,3,1,81.0,False
56315,6784, Note_on_c,75,76,5,3,1,87.0,False
56316,6785, Note_on_c,73,76,5,3,1,85.0,False
56317,6785, Note_on_c,77,76,5,3,1,90.0,True
56318,6786, Note_on_c,65,76,5,3,1,76.0,True
56319,6787, Note_on_c,70,76,5,3,1,81.0,False
56320,6787, Note_on_c,75,76,5,3,1,87.0,False
56321,6788, Note_on_c,72,76,5,3,1,84.0,True
56322,6788, Note_on_c,77,76,5,3,1,90.0,True
56323,6789, Note_on_c,65,76,5,3,1,76.0,True
56324,6790, Note_on_c,70,76,5,3,1,81.0,False
56325,6790, Note_on_c,75,76,5,3,1,87.0,False
56326,6791, Note_on_c,72,76,5,3,1,84.0,True
56327,6791, Note_on_c,77,76,5,3,1,90.0,True
56328,6792, Note_on_c,70,76,5,3,1,81.0,False
56329,6792, Note_on_c,75,76,5,3,1,87.0,False
56330,6793, Note_on_c,73,76,5,3,1,85.0,False
56331,6793, Note_on_c,77,76,5,3,1,90.0,True
56332,6794, Note_on_c,65,76,5,3,1,76.0,True
56333,6795, Note_on_c,70,76,5,3,1,81.0,False
56334,6795, Note_on_c,75,76,5,3,1,87.0,False
56335,6796, Note_on_c,72,76,5,3,1,84.0,True
56336,6796, Note_on_c,77,76,5,3,1,90.0,True
56337,6797, Note_on_c,65,76,5,3,1,76.0,True
56338,6798, Note_on_c,70,76,5,3,1,81.0,False
56339,6798, Note_on_c,75,76,5,3,1,87.0,False
56340,6799, Note_on_c,72,76,5,3,1,84.0,True
56341,6799, Note_on_c,77,76,5,3,1,90.0,True
56342,6800, Note_on_c,70,76,5,3,1,81.0,False
56343,6800, Note_on_c,75,76,5,3,1,87.0,False
56344,6801, Note_on_c,73,76,5,3,1,85.0,False
56345,6801, Note_on_c,77,76,5,3,1,90.0,True
56346,6802, Note_on_c,65,76,5,3,1,76.0,True
56347,6803, Note_on_c,70,76,5,3,1,81.0,False
56348,6803, Note_on_c,75,76,5,3,1,87.0,False
56349,6804, Note_on_c,72,76,5,3,1,84.0,True
56350,6804, Note_on_c,77,76,5,3,1,90.0,True
56351,6805, Note_on_c,65,76,5,3,1,76.0,True
56352,6806, Note_on_c,70,76,5,3,1,81.0,False
56353,6806, Note_on_c,75,76,5,3,1,87.0,False
56354,6807, Note_on_c,72,76,5,3,1,84.0,True
56355,6807, Note_on_c,77,76,5,3,1,90.0,True
56356,6808, Note_on_c,70,76,5,3,1,81.0,False
56357,6808, Note_on_c,75,76,5,3,1,87.0,False
56358,6809, Note_on_c,73,76,5,3,1,85.0,False
56359,6809, Note_on_c,77,76,5,3,1,90.0,True
56360,6810, Note_on_c,65,76,5,3,1,76.0,True
56361,6811, Note_on_c,70,76,5,3,1,81.0,False
56362,6811, Note_on_c,75,76,5,3,1,87.0,False
56363,6812, Note_on_c,72,76,5,3,1,84.0,True
56364,6812, Note_on_c,77,76,5,3,1,90.0,True
56365,6813, Note_on_c,65,76,5,3,1,76.0,True
56366,6814, Note_on_c,70,76,5,3,1,81.0,False
56367,6814, Note_on_c,75,76,5,3,1,87.0,False
56368,6815, Note_on_c,72,76,5,3,1,84.0,True
56369,6815, Note_on_c,77,76,5,3,1,90.0,True
56370,6816, Note_on_c,70,76,5,3,1,81.0,False
56371,6816, Note_on_c,75,76,5,3,1,87.0,False
56372,6817, Note_on_c,73,76,5,3,1,85.0,False
56373,6817, Note_on_c,77,76,5,3,1,90.0,True
56374,6818, Note_on_c,65,76,5,3,1,76.0,True
56375,6819, Note_on_c,70,76,5,3,1,81.0,False
56376,6819, Note_on_c,75,76,5,3,1,87.0,False
56377,6820, Note_on_c,72,76,5,3,1,84.0,True
56378,6820, Note_on_c,77,76,5,3,1,90.0,True
56379,6821, Note_on_c,65,76,5,3,1,76.0,True
56380,6822, Note_on_c,70,76,5,3,1,81.0,False
56381,6822, Note_on_c,75,76,5,3,1,87.0,False
56382,6823, Note_on_c,72,76,5,3,1,84.0,True
56383,6823, Note_on_c,77,76,5,3,1,90.0,True
56384,6824, Note_on_c,70,76,5,3,1,81.0,False
56385,6824, Note_on_c,75,76,5,3,1,87.0,False
56386,6825, Note_on_c,73,76,5,3,1,85.0,False
56387,6825, Note_on_c,77,76,5,3,1,90.0,True
56388,6826, Note_on_c,65,76,5,3,1,76.0,True
56389,6827, Note_on_c,70,76,5,3,1,81.0,False
56390,6827, Note_on_c,75,76,5,3,1,87.0,False
56391,6828, Note_on_c,72,76,5,3,1,84.0,True
56392,6828, Note_on_c,77,76,5,3,1,90.0,True
56393,6829, Note_on_c,65,76,5,3,1,76.0,True
56394,6830, Note_on_c,70,76,5,3,1,81.0,False
56395,6830, Note_on_c,75,76,5,3,1,87.0,False
56396,6831, Note_on_c,72,76,5,3,1,84.0,True
56397,6831, Note_on_c,77,76,5,3,1,90.0,True
56398,6832, Note_on_c,70,76,5,3,1,81.0,False
56399,6832, Note_on_c,75,76,5,3,1,87.0,False
56400,6833, Note_on_c,73,76,5,3,1,85.0,False
56401,6833, Note_on_c,77,76,5,3,1,90.0,True
56402,6834, Note_on_c,65,76,5,3,1,76.0,True
56403,6835, Note_on_c,70,76,5,3,1,81.0,False
56404,6835, Note_on_c,75,76,5,3,1,87.0,False
56405,6836, Note_on_c,72,76,5,3,1,84.0,True
56406,6836, Note_on_c,77,76,5,3,1,90.0,True
56407,6837, Note_on_c,65,76,5,3,1,76.0,True
56408,6838, Note_on_c,70,76,5,3,1,81.0,False
56409,6838, Note_on_c,75,76,5,3,1,87.0,False
56410,6839, Note_on_c,72,76,5,3,1,84.0,True
56411,6839, Note_on_c,77,76,5,3,1,90.0,True
56412,6840, Note_on_c,70,76,5,3,1,81.0,False
56413,6840, Note_on_c,75,76,5,3,1,87.0,False
56414,6841, Note_on_c,73,76,5,3,1,85.0,False
56415,6841, Note_on_c,77,76,5,3,1,90.0,True
56416,6842, Note_on_c,65,76,5,3,1,76.0,True
56417,6843, Note_on_c,70,76,5,3,1,81.0,False
56418,6843, Note_on_c,75,76,5,3,1,87.0,False
56419,6844, Note_on_c,72,76,5,3,1,84.0,True
56420,6844, Note_on_c,77,76,5,3,1,90.0,True
56421,6845, Note_on_c,65,76,5,3,1,76.0,True
56422,6846, Note_on_c,70,76,5,3,1,81.0,False
56423,6846, Note_on_c,75,76,5,3,1,87.0,False
56424,6847, Note_on_c,72,76,5,3,1,84.0,True
56425,6847, Note_on_c,77,76,5,3,1,90.0,True
56426,6848, Note_on_c,70,76,5,3,1,81.0,False
56427,6848, Note_on_c,75,76,5,3,1,87.0,False
56428,6849, Note_on_c,73,76,5,3,1,85.0,False
56429,6849, Note_on_c,77,76,5,3,1,90.0,True
56430,6850, Note_on_c,65,76,5,3,1,76.0,True
56431,6851, Note_on_c,70,76,5,3,1,81.0,False
56432,6851, Note_on_c,75,76,5,3,1,87.0,False
56433,6852, Note_on_c,72,76,5,3,1,84.0,True
56434,6852, Note_on_c,77,76,5,3,1,90.0,True
56435,6853, Note_on_c,65,76,5,3,1,76.0,True
56436,6854, Note_on_c,70,76,5,3,1,81.0,False
56437,6854, Note_on_c,75,76,5,3,1,87.0,False
56438,6855, Note_on_c,72,76,5,3,1,84.0,True
56439,6855, Note_on_c,77,76,5,3,1,90.0,True
56440,6856, Note_on_c,70,76,5,3,1,81.0,False
56441,6856, Note_on_c,75,76,5,3,1,87.0,False
56442,6857, Note_on_c,73,76,5,3,1,85.0,False
56443,6857, Note_on_c,77,76,5,3,1,90.0,True
56444,6858, Note_on_c,65,76,5,3,1,76.0,True
56445,6859, Note_on_c,70,76,5,3,1,81.0,False
56446,6859, Note_on_c,75,76,5,3,1,87.0,False
56447,6860, Note_on_c,72,76,5,3,1,84.0,True
56448,6860, Note_on_c,77,76,5,3,1,90.0,True
56449,6861, Note_on_c,65,76,5,3,1,76.0,True
56450,6862, Note_on_c,70,76,5,3,1,81.0,False
56451,6862, Note_on_c,75,76,5,3,1,87.0,False
56452,6863, Note_on_c,72,76,5,3,1,84.0,True
56453,6863, Note_on_c,77,76,5,3,1,90.0,True
56454,6864, Note_on_c,70,76,5,3,1,81.0,False
56455,6864, Note_on_c,75,76,5,3,1,87.0,False
56456,6865, Note_on_c,73,76,5,3,1,85.0,False
56457,6865, Note_on_c,77,76,5,3,1,90.0,True
56458,6866, Note_on_c,65,76,5,3,1,76.0,True
56459,6867, Note_on_c,70,76,5,3,1,81.0,False
56460,6867, Note_on_c,75,76,5,3,1,87.0,False
56461,6868, Note_on_c,72,76,5,3,1,84.0,True
56462,6868, Note_on_c,77,76,5,3,1,90.0,True
56463,6869, Note_on_c,65,76,5,3,1,76.0,True
56464,6870, Note_on_c,70,76,5,3,1,81.0,False
56465,6870, Note_on_c,75,76,5,3,1,87.0,False
56466,6871, Note_on_c,72,76,5,3,1,84.0,True
56467,6871, Note_on_c,77,76,5,3,1,90.0,True
56468,6872, Note_on_c,70,76,5,3,1,81.0,False
56469,6872, Note_on_c,75,76,5,3,1,87.0,False
56470,6873, Note_on_c,73,76,5,3,1,85.0,False
56471,6873, Note_on_c,77,76,5,3,1,90.0,True
56472,6874, Note_on_c,65,76,5,3,1,76.0,True
56473,6875, Note_on_c,70,76,5,3,1,81.0,False
56474,6875, Note_on_c,75,76,5,3,1,87.0,False
56475,6876, Note_on_c,72,76,5,3,1,84.0,True
56476,6876, Note_on_c,77,76,5,3,1,90.0,True
56477,6877, Note_on_c,65,76,5,3,1,76.0,True
56478,6878, Note_on_c,70,76,5,3,1,81.0,False
56479,6878, Note_on_c,75,76,5,3,1,87.0,False
56480,6879, Note_on_c,72,76,5,3,1,84.0,True
56481,6879, Note_on_c,77,76,5,3,1,90.0,True
56482,6880, Note_on_c,70,76,5,3,1,81.0,False
56483,6880, Note_on_c,75,76,5,3,1,87.0,False
56484,6881, Note_on_c,73,76,5,3,1,85.0,False
56485,6881, Note_on_c,77,76,5,3,1,90.0,True
56486,6882, Note_on_c,65,76,5,3,1,76.0,True
56487,6883, Note_on_c,70,76,5,3,1,81.0,False
56488,6883, Note_on_c,75,76,5,3,1,87.0,False
56489,6884, Note_on_c,72,76,5,3,1,84.0,True
56490,6884, Note_on_c,77,76,5,3,1,90.0,True
56491,6885, Note_on_c,65,76,5,3,1,76.0,True
56492,6886, Note_on_c,70,76,5,3,1,81.0,False
56493,6886, Note_on_c,75,76,5,3,1,87.0,False
56494,6887, Note_on_c,72,76,5,3,1,84.0,True
56495,6887, Note_on_c,77,76,5,3,1,90.0,True
56496,6888, Note_on_c,70,76,5,3,1,81.0,False
56497,6888, Note_on_c,75,76,5,3,1,87.0,False
56498,6889, Note_on_c,73,76,5,3,1,85.0,False
56499,6889, Note_on_c,77,76,5,3,1,90.0,True
56500,6890, Note_on_c,65,76,5,3,1,76.0,True
56501,6891, Note_on_c,70,76,5,3,1,81.0,False
56502,6891, Note_on_c,75,76,5,3,1,87.0,False
56503,6892, Note_on_c,72,76,5,3,1,84.0,True
56504,6892, Note_on_c,77,76,5,3,1,90.0,True
56505,6893, Note_on_c,65,76,5,3,1,76.0,True
56506,6894, Note_on_c,70,76,5,3,1,81.0,False
56507,6894, Note_on_c,75,76,5,3,1,87.0,False
56508,6895, Note_on_c,72,76,5,3,1,84.0,True
56509,6895, Note_on_c,77,76,5,3,1,90.0,True
56510,6896, Note_on_c,70,76,5,3,1,81.0,False
56511,6896, Note_on_c,75,76,5,3,1,87.0,False
56512,6897, Note_on_c,73,76,5,3,1,85.0,False
56513,6897, Note_on_c,77,76,5,3,1,90.0,True
56514,6898, Note_on_c,65,76,5,3,1,76.0,True
56515,6899, Note_on_c,70,76,5,3,1,81.0,False
56516,6899, Note_on_c,75,76,5,3,1,87.0,False
56517,6900, Note_on_c,72,76,5,3,1,84.0,True
56518,6900, Note_on_c,77,76,5,3,1,90.0,True
56519,6901, Note_on_c,65,76,5,3,1,76.0,True
56520,6902, Note_on_c,70,76,5,3,1,81.0,False
56521,6902, Note_on_c,75,76,5,3,1,87.0,False
56522,6903, Note_on_c,72,76,5,3,1,84.0,True
56523,6903, Note_on_c,77,76,5,3,1,90.0,True
56524,6904, Note_on_c,70,76,5,3,1,81.0,False
56525,6904, Note_on_c,75,76,5,3,1,87.0,False
56526,6905, Note_on_c,73,76,5,3,1,85.0,False
56527,6905, Note_on_c,77,76,5,3,1,90.0,True
56528,6906, Note_on_c,65,76,5,3,1,76.0,True
56529,6907, Note_on_c,70,76,5,3,1,81.0,False
56530,6907, Note_on_c,75,76,5,3,1,87.0,False
56531,6908, Note_on_c,72,76,5,3,1,84.0,True
56532,6908, Note_on_c,77,76,5,3,1,90.0,True
56533,6909, Note_on_c,65,76,5,3,1,76.0,True
56534,6910, Note_on_c,70,76,5,3,1,81.0,False
56535,6910, Note_on_c,75,76,5,3,1,87.0,False
56536,6911, Note_on_c,72,76,5,3,1,84.0,True
56537,6911, Note_on_c,77,76,5,3,1,90.0,True
56538,6912, Note_on_c,70,76,5,3,1,81.0,False
56539,6912, Note_on_c,75,76,5,3,1,87.0,False
56540,6913, Note_on_c,73,76,5,3,1,85.0,False
56541,6913, Note_on_c,77,76,5,3,1,90.0,True
56542,6914, Note_on_c,65,76,5,3,1,76.0,True
56543,6915, Note_on_c,70,76,5,3,1,81.0,False
56544,6915, Note_on_c,75,76,5,3,1,87.0,False
56545,6916, Note_on_c,72,76,5,3,1,84.0,True
56546,6916, Note_on_c,77,76,5,3,1,90.0,True
56547,6917, Note_on_c,65,76,5,3,1,76.0,True
56548,6918, Note_on_c,70,76,5,3,1,81.0,False
56549,6918, Note_on_c,75,76,5,3,1,87.0,False
56550,6919, Note_on_c,72,76,5,3,1,84.0,True
56551,6919, Note_on_c,77,76,5,3,1,90.0,True
56552,6920, Note_on_c,70,76,5,3,1,81.0,False
56553,6920, Note_on_c,75,76,5,3,1,87.0,False
56554,6921, Note_on_c,73,76,5,3,1,85.0,False
56555,6921, Note_on_c,77,76,5,3,1,90.0,True
56556,6922, Note_on_c,65,76,5,3,1,76.0,True
56557,6923, Note_on_c,70,76,5,3,1,81.0,False
56558,6923, Note_on_c,75,76,5,3,1,87.0,False
56559,6924, Note_on_c,72,76,5,3,1,84.0,True
56560,6924, Note_on_c,77,76,5,3,1,90.0,True
56561,6925, Note_on_c,65,76,5,3,1,76.0,True
56562,6926, Note_on_c,70,76,5,3,1,81.0,False
56563,6926, Note_on_c,75,76,5,3,1,87.0,False
56564,6927, Note_on_c,72,76,5,3,1,84.0,True
56565,6927, Note_on_c,77,76,5,3,1,90.0,True
56566,6928, Note_on_c,70,76,5,3,1,81.0,False
56567,6928, Note_on_c,75,76,5,3,1,87.0,False
56568,6929, Note_on_c,73,76,5,3,1,85.0,False
56569,6929, Note_on_c,77,76,5,3,1,90.0,True
56570,6930, Note_on_c,65,76,5,3,1,76.0,True
56571,6931, Note_on_c,70,76,5,3,1,81.0,False
56572,6931, Note_on_c,75,76,5,3,1,87.0,False
56573,6932, Note_on_c,72,76,5,3,1,84.0,True
56574,6932, Note_on_c,77,76,5,3,1,90.0,True
56575,6933, Note_on_c,65,76,5,3,1,76.0,True
56576,6934, Note_on_c,70,76,5,3,1,81.0,False
56577,6934, Note_on_c,75,76,5,3,1,87.0,False
56578,6935, Note_on_c,72,76,5,3,1,84.0,True
56579,6935, Note_on_c,77,76,5,3,1,90.0,True
56580,6936, Note_on_c,70,76,5,3,1,81.0,False
56581,6936, Note_on_c,75,76,5,3,1,87.0,False
56582,6937, Note_on_c,73,76,5,3,1,85.0,False
56583,6937, Note_on_c,77,76,5,3,1,90.0,True
56584,6938, Note_on_c,65,76,5,3,1,76.0,True
56585,6939, Note_on_c,70,76,5,3,1,81.0,False
56586,6939, Note_on_c,75,76,5,3,1,87.0,False
56587,6940, Note_on_c,72,76,5,3,1,84.0,True
56588,6940, Note_on_c,77,76,5,3,1,90.0,True
56589,6941, Note_on_c,65,76,5,3,1,76.0,True
56590,6942, Note_on_c,70,76,5,3,1,81.0,False
56591,6942, Note_on_c,75,76,5,3,1,87.0,False
56592,6943, Note_on_c,72,76,5,3,1,84.0,True
56593,6943, Note_on_c,77,76,5,3,1,90.0,True
56594,6944, Note_on_c,70,76,5,3,1,81.0,False
56595,6944, Note_on_c,75,76,5,3,1,87.0,False
56596,6945, Note_on_c,73,76,5,3,1,85.0,False
56597,6945, Note_on_c,77,76,5,3,1,90.0,True
56598,6946, Note_on_c,65,76,5,3,1,76.0,True
56599,6947, Note_on_c,70,76,5,3,1,81.0,False
56600,6947, Note_on_c,75,76,5,3,1,87.0,False
56601,6948, Note_on_c,72,76,5,3,1,84.0,True
56602,6948, Note_on_c,77,76,5,3,1,90.0,True
56603,6949, Note_on_c,65,76,5,3,1,76.0,True
56604,6950, Note_on_c,70,76,5,3,1,81.0,False
56605,6950, Note_on_c,75,76,5,3,1,87.0,False
56606,6951, Note_on_c,72,76,5,3,1,84.0,True
56607,6951, Note_on_c,77,76,5,3,1,90.0,True
56608,6952, Note_on_c,70,76,5,3,1,81.0,False
56609,6952, Note_on_c,75,76,5,3,1,87.0,False
56610,6953, Note_on_c,73,76,5,3,1,85.0,False
56611,6953, Note_on_c,77,76,5,3,1,90.0,True
56612,6954, Note_on_c,65,76,5,3,1,76.0,True
56613,6955, Note_on_c,70,76,5,3,1,81.0,False
56614,6955, Note_on_c,75,76,5,3,1,87.0,False
56615,6956, Note_on_c,72,76,5,3,1,84.0,True
56616,6956, Note_on_c,77,76,5,3,1,90.0,True
56617,6957, Note_on_c,65,76,5,3,1,76.0,True
56618,6958, Note_on_c,70,76,5,3,1,81.0,False
56619,6958, Note_on_c,75,76,5,3,1,87.0,False
56620,6959, Note_on_c,72,76,5,3,1,84.0,True
56621,6959, Note_on_c,77,76,5,3,1,90.0,True
56622,6960, Note_on_c,70,76,5,3,1,81.0,False
56623,6960, Note_on_c,75,76,5,3,1,87.0,False
56624,6961, Note_on_c,73,76,5,3,1,85.0,False
56625,6961, Note_on_c,77,76,5,3,1,90.0,True
56626,6962, Note_on_c,65,76,5,3,1,76.0,True
56627,6963, Note_on_c,70,76,5,3,1,81.0,False
56628,6963, Note_on_c,75,76,5,3,1,87.0,False
56629,6964, Note_on_c,72,76,5,3,1,84.0,True
56630,6964, Note_on_c,77,76,5,3,1,90.0,True
56631,6965, Note_on_c,65,76,5,3,1,76.0,True
56632,6966, Note_on_c,70,76,5,3,1,81.0,False
56633,6966, Note_on_c,75,76,5,3,1,87.0,False
56634,6967, Note_on_c,72,76,5,3,1,84.0,True
56635,6967, Note_on_c,77,76,5,3,1,90.0,True
56636,6968, Note_on_c,70,76,5,3,1,81.0,False
56637,6968, Note_on_c,75,76,5,3,1,87.0,False
56638,6969, Note_on_c,73,76,5,3,1,85.0,False
56639,6969, Note_on_c,77,76,5,3,1,90.0,True
56640,6970, Note_on_c,65,76,5,3,1,76.0,True
56641,6971, Note_on_c,70,76,5,3,1,81.0,False
56642,6971, Note_on_c,75,76,5,3,1,87.0,False
56643,6972, Note_on_c,72,76,5,3,1,84.0,True
56644,6972, Note_on_c,77,76,5,3,1,90.0,True
56645,6973, Note_on_c,65,76,5,3,1,76.0,True
56646,6974, Note_on_c,70,76,5,3,1,81.0,False
56647,6974, Note_on_c,75,76,5,3,1,87.0,False
56648,6975, Note_on_c,72,76,5,3,1,84.0,True
56649,6975, Note_on_c,77,76,5,3,1,90.0,True
56650,6976, Note_on_c,70,76,5,3,1,81.0,False
56651,6976, Note_on_c,75,76,5,3,1,87.0,False
56652,6977, Note_on_c,73,76,5,3,1,85.0,False
56653,6977, Note_on_c,77,76,5,3,1,90.0,True
56654,6978, Note_on_c,65,76,5,3,1,76.0,True
56655,6979, Note_on_c,70,76,5,3,1,81.0,False
56656,6979, Note_on_c,75,76,5,3,1,87.0,False
56657,6980, Note_on_c,72,76,5,3,1,84.0,True
56658,6980, Note_on_c,77,76,5,3,1,90.0,True
56659,6981, Note_on_c,65,76,5,3,1,76.0,True
56660,6982, Note_on_c,70,76,5,3,1,81.0,False
56661,6982, Note_on_c,75,76,5,3,1,87.0,False
56662,6983, Note_on_c,72,76,5,3,1,84.0,True
56663,6983, Note_on_c,77,76,5,3,1,90.0,True
56664,6984, Note_on_c,70,76,5,3,1,81.0,False
56665,6984, Note_on_c,75,76,5,3,1,87.0,False
56666,6985, Note_on_c,73,76,5,3,1,85.0,False
56667,6985, Note_on_c,77,76,5,3,1,90.0,True
56668,6986, Note_on_c,65,76,5,3,1,76.0,True
56669,6987, Note_on_c,70,76,5,3,1,81.0,False
56670,6987, Note_on_c,75,76,5,3,1,87.0,False
56671,6988, Note_on_c,72,76,5,3,1,84.0,True
56672,6988, Note_on_c,77,76,5,3,1,90.0,True
56673,6989, Note_on_c,65,76,5,3,1,76.0,True
56674,6990, Note_on_c,70,76,5,3,1,81.0,False
56675,6990, Note_on_c,75,76,5,3,1,87.0,False
56676,6991, Note_on_c,72,76,5,3,1,84.0,True
56677,6991, Note_on_c,77,76,5,3,1,90.0,True
56678,6992, Note_on_c,70,76,5,3,1,81.0,False
56679,6992, Note_on_c,75,76,5,3,1,87.0,False
56680,6993, Note_on_c,73,76,5,3,1,85.0,False
56681,6993, Note_on_c,77,76,5,3,1,90.0,True
56682,6994, Note_on_c,65,76,5,3,1,76.0,True
56683,6995, Note_on_c,70,76,5,3,1,81.0,False
56684,6995, Note_on_c,75,76,5,3,1,87.0,False
56685,6996, Note_on_c,72,76,5,3,1,84.0,True
56686,6996, Note_on_c,77,76,5,3,1,90.0,True
56687,6997, Note_on_c,65,76,5,3,1,76.0,True
56688,6998, Note_on_c,70,76,5,3,1,81.0,False
56689,6998, Note_on_c,75,76,5,3,1,87.0,False
56690,6999, Note_on_c,72,76,5,3,1,84.0,True
56691,6999, Note_on_c,77,76,5,3,1,90.0,True
56692,7000, Note_on_c,70,76,5,3,1,81.0,False
56693,7000, Note_on_c,75,76,5,3,1,87.0,False
56694,7001, Note_on_c,73,76,5,3,1,85.0,False
56695,7001, Note_on_c,77,76,5,3,1,90.0,True
56696,7002, Note_on_c,65,76,5,3,1,76.0,True
56697,7003, Note_on_c,70,76,5,3,1,81.0,False
56698,7003, Note_on_c,75,76,5,3,1,87.0,False
56699,7004, Note_on_c,72,76,5,3,1,84.0,True
56700,7004, Note_on_c,77,76,5,3,1,90.0,True
56701,7005, Note_on_c,65,76,5,3,1,76.0,True
56702,7006, Note_on_c,70,76,5,3,1,81.0,False
56703,7006, Note_on_c,75,76,5,3,1,87.0,False
56704,7007, Note_on_c,72,76,5,3,1,84.0,True
56705,7007, Note_on_c,77,76,5,3,1,90.0,True
56706,7008, Note_on_c,70,76,5,3,1,81.0,False
56707,7008, Note_on_c,75,76,5,3,1,87.0,False
56708,7009, Note_on_c,73,76,5,3,1,85.0,False
56709,7009, Note_on_c,77,76,5,3,1,90.0,True
56710,7010, Note_on_c,65,76,5,3,1,76.0,True
56711,7011, Note_on_c,70,76,5,3,1,81.0,False
56712,7011, Note_on_c,75,76,5,3,1,87.0,False
56713,7012, Note_on_c,72,76,5,3,1,84.0,True
56714,7012, Note_on_c,77,76,5,3,1,90.0,True
56715,7013, Note_on_c,65,76,5,3,1,76.0,True
56716,7014, Note_on_c,70,76,5,3,1,81.0,False
56717,7014, Note_on_c,75,76,5,3,1,87.0,False
56718,7015, Note_on_c,72,76,5,3,1,84.0,True
56719,7015, Note_on_c,77,76,5,3,1,90.0,True
56720,7016, Note_on_c,70,76,5,3,1,81.0,False
56721,7016, Note_on_c,75,76,5,3,1,87.0,False
56722,7017, Note_on_c,73,76,5,3,1,85.0,False
56723,7017, Note_on_c,77,76,5,3,1,90.0,True
56724,7018, Note_on_c,65,76,5,3,1,76.0,True
56725,7019, Note_on_c,70,76,5,3,1,81.0,False
56726,7019, Note_on_c,75,76,5,3,1,87.0,False
56727,7020, Note_on_c,72,76,5,3,1,84.0,True
56728,7020, Note_on_c,77,76,5,3,1,90.0,True
56729,7021, Note_on_c,65,76,5,3,1,76.0,True
56730,7022, Note_on_c,70,76,5,3,1,81.0,False
56731,7022, Note_on_c,75,76,5,3,1,87.0,False
56732,7023, Note_on_c,72,76,5,3,1,84.0,True
56733,7023, Note_on_c,77,76,5,3,1,90.0,True
56734,7024, Note_on_c,70,76,5,3,1,81.0,False
56735,7024, Note_on_c,75,76,5,3,1,87.0,False
56736,7025, Note_on_c,73,76,5,3,1,85.0,False
56737,7025, Note_on_c,77,76,5,3,1,90.0,True
56738,7026, Note_on_c,65,76,5,3,1,76.0,True
56739,7027, Note_on_c,70,76,5,3,1,81.0,False
56740,7027, Note_on_c,75,76,5,3,1,87.0,False
56741,7028, Note_on_c,72,76,5,3,1,84.0,True
56742,7028, Note_on_c,77,76,5,3,1,90.0,True
56743,7029, Note_on_c,65,76,5,3,1,76.0,True
56744,7030, Note_on_c,70,76,5,3,1,81.0,False
56745,7030, Note_on_c,75,76,5,3,1,87.0,False
56746,7031, Note_on_c,72,76,5,3,1,84.0,True
56747,7031, Note_on_c,77,76,5,3,1,90.0,True
56748,7032, Note_on_c,70,76,5,3,1,81.0,False
56749,7032, Note_on_c,75,76,5,3,1,87.0,False
56750,7033, Note_on_c,73,76,5,3,1,85.0,False
56751,7033, Note_on_c,77,76,5,3,1,90.0,True
56752,7034, Note_on_c,65,76,5,3,1,76.0,True
56753,7035, Note_on_c,70,76,5,3,1,81.0,False
56754,7035, Note_on_c,75,76,5,3,1,87.0,False
56755,7036, Note_on_c,72,76,5,3,1,84.0,True
56756,7036, Note_on_c,77,76,5,3,1,90.0,True
56757,7037, Note_on_c,65,76,5,3,1,76.0,True
56758,7038, Note_on_c,70,76,5,3,1,81.0,False
56759,7038, Note_on_c,75,76,5,3,1,87.0,False
56760,7039, Note_on_c,72,76,5,3,1,84.0,True
56761,7039, Note_on_c,77,76,5,3,1,90.0,True
56762,7040, Note_on_c,70,76,5,3,1,81.0,False
56763,7040, Note_on_c,75,76,5,3,1,87.0,False
56764,7041, Note_on_c,73,76,5,3,1,85.0,False
56765,7041, Note_on_c,77,76,5,3,1,90.0,True
56766,7042, Note_on_c,65,76,5,3,1,76.0,True
56767,7043, Note_on_c,70,76,5,3,1,81.0,False
56768,7043, Note_on_c,75,76,5,3,1,87.0,False
56769,7044, Note_on_c,72,76,5,3,1,84.0,True
56770,7044, Note_on_c,77,76,5,3,1,90.0,True
56771,7045, Note_on_c,65,76,5,3,1,76.0,True
56772,7046, Note_on_c,70,76,5,3,1,81.0,False
56773,7046, Note_on_c,75,76,5,3,1,87.0,False
56774,7047, Note_on_c,72,76,5,3,1,84.0,True
56775,7047, Note_on_c,77,76,5,3,1,90.0,True
56776,7048, Note_on_c,70,76,5,3,1,81.0,False
56777,7048, Note_on_c,75,76,5,3,1,87.0,False
56778,7049, Note_on_c,73,76,5,3,1,85.0,False
56779,7049, Note_on_c,77,76,5,3,1,90.0,True
56780,7050, Note_on_c,65,76,5,3,1,76.0,True
56781,7051, Note_on_c,70,76,5,3,1,81.0,False
56782,7051, Note_on_c,75,76,5,3,1,87.0,False
56783,7052, Note_on_c,72,76,5,3,1,84.0,True
56784,7052, Note_on_c,77,76,5,3,1,90.0,True
56785,7053, Note_on_c,65,76,5,3,1,76.0,True
56786,7054, Note_on_c,70,76,5,3,1,81.0,False
56787,7054, Note_on_c,75,76,5,3,1,87.0,False
56788,7055, Note_on_c,72,76,5,3,1,84.0,True
56789,7055, Note_on_c,77,76,5,3,1,90.0,True
56790,7056, Note_on_c,70,76,5,3,1,81.0,False
56791,7056, Note_on_c,75,76,5,3,1,87.0,False
56792,7057, Note_on_c,73,76,5,3,1,85.0,False
56793,7057, Note_on_c,77,76,5,3,1,90.0,True
56794,7058, Note_on_c,65,76,5,3,1,76.0,True
56795,7059, Note_on_c,70,76,5,3,1,81.0,False
56796,7059, Note_on_c,75,76,5,3,1,87.0,False
56797,7060, Note_on_c,72,76,5,3,1,84.0,True
56798,7060, Note_on_c,77,76,5,3,1,90.0,True
56799,7061, Note_on_c,65,76,5,3,1,76.0,True
56800,7062, Note_on_c,70,76,5,3,1,81.0,False
56801,7062, Note_on_c,75,76,5,3,1,87.0,False
56802,7063, Note_on_c,72,76,5,3,1,84.0,True
56803,7063, Note_on_c,77,76,5,3,1,90.0,True
56804,7064, Note_on_c,70,76,5,3,1,81.0,False
56805,7064, Note_on_c,75,76,5,3,1,87.0,False
56806,7065, Note_on_c,73,76,5,3,1,85.0,False
56807,7065, Note_on_c,77,76,5,3,1,90.0,True
56808,7066, Note_on_c,65,76,5,3,1,76.0,True
56809,7067, Note_on_c,70,76,5,3,1,81.0,False
56810,7067, Note_on_c,75,76,5,3,1,87.0,False
56811,7068, Note_on_c,72,76,5,3,1,84.0,True
56812,7068, Note_on_c,77,76,5,3,1,90.0,True
56813,7069, Note_on_c,65,76,5,3,1,76.0,True
56814,7070, Note_on_c,70,76,5,3,1,81.0,False
56815,7070, Note_on_c,75,76,5,3,1,87.0,False
56816,7071, Note_on_c,72,76,5,3,1,84.0,True
56817,7071, Note_on_c,77,76,5,3,1,90.0,True
56818,7072, Note_on_c,70,76,5,3,1,81.0,False
56819,7072, Note_on_c,75,76,5,3,1,87.0,False
56820,7073, Note_on_c,73,76,5,3,1,85.0,False
56821,7073, Note_on_c,77,76,5,3,1,90.0,True
56822,7074, Note_on_c,65,76,5,3,1,76.0,True
56823,7075, Note_on_c,70,76,5,3,1,81.0,False
56824,7075, Note_on_c,75,76,5,3,1,87.0,False
56825,7076, Note_on_c,72,76,5,3,1,84.0,True
56826,7076, Note_on_c,77,76,5,3,1,90.0,True
56827,7077, Note_on_c,65,76,5,3,1,76.0,True
56828,7078, Note_on_c,70,76,5,3,1,81.0,False
56829,7078, Note_on_c,75,76,5,3,1,87.0,False
56830,7079, Note_on_c,72,76,5,3,1,84.0,True
56831,7079, Note_on_c,77,76,5,3,1,90.0,True
56832,7080, Note_on_c,70,76,5,3,1,81.0,False
56833,7080, Note_on_c,75,76,5,3,1,87.0,False
56834,7081, Note_on_c,73,76,5,3,1,85.0,False
56835,7081, Note_on_c,77,76,5,3,1,90.0,True
56836,7082, Note_on_c,65,76,5,3,1,76.0,True
56837,7083, Note_on_c,70,76,5,3,1,81.0,False
56838,7083, Note_on_c,75,76,5,3,1,87.0,False
56839,7084, Note_on_c,72,76,5,3,1,84.0,True
56840,7084, Note_on_c,77,76,5,3,1,90.0,True
56841,7085, Note_on_c,65,76,5,3,1,76.0,True
56842,7086, Note_on_c,70,76,5,3,1,81.0,False
56843,7086, Note_on_c,75,76,5,3,1,87.0,False
56844,7087, Note_on_c,72,76,5,3,1,84.0,True
56845,7087, Note_on_c,77,76,5,3,1,90.0,True
56846,7088, Note_on_c,70,76,5,3,1,81.0,False
56847,7088, Note_on_c,75,76,5,3,1,87.0,False
56848,7089, Note_on_c,73,76,5,3,1,85.0,False
56849,7089, Note_on_c,77,76,5,3,1,90.0,True
56850,7090, Note_on_c,65,76,5,3,1,76.0,True
56851,7091, Note_on_c,70,76,5,3,1,81.0,False
56852,7091, Note_on_c,75,76,5,3,1,87.0,False
56853,7092, Note_on_c,72,76,5,3,1,84.0,True
56854,7092, Note_on_c,77,76,5,3,1,90.0,True
56855,7093, Note_on_c,65,76,5,3,1,76.0,True
56856,7094, Note_on_c,70,76,5,3,1,81.0,False
56857,7094, Note_on_c,75,76,5,3,1,87.0,False
56858,7095, Note_on_c,72,76,5,3,1,84.0,True
56859,7095, Note_on_c,77,76,5,3,1,90.0,True
56860,7096, Note_on_c,70,76,5,3,1,81.0,False
56861,7096, Note_on_c,75,76,5,3,1,87.0,False
56862,7097, Note_on_c,73,76,5,3,1,85.0,False
56863,7097, Note_on_c,77,76,5,3,1,90.0,True
56864,7098, Note_on_c,65,76,5,3,1,76.0,True
56865,7099, Note_on_c,70,76,5,3,1,81.0,False
56866,7099, Note_on_c,75,76,5,3,1,87.0,False
56867,7100, Note_on_c,72,76,5,3,1,84.0,True
56868,7100, Note_on_c,77,76,5,3,1,90.0,True
56869,7101, Note_on_c,65,76,5,3,1,76.0,True
56870,7102, Note_on_c,70,76,5,3,1,81.0,False
56871,7102, Note_on_c,75,76,5,3,1,87.0,False
56872,7103, Note_on_c,72,76,5,3,1,84.0,True
56873,7103, Note_on_c,77,76,5,3,1,90.0,True
56874,7104, Note_on_c,70,76,5,3,1,81.0,False
56875,7104, Note_on_c,75,76,5,3,1,87.0,False
56876,7105, Note_on_c,73,76,5,3,1,85.0,False
56877,7105, Note_on_c,77,76,5,3,1,90.0,True
56878,7106, Note_on_c,65,76,5,3,1,76.0,True
56879,7107, Note_on_c,70,76,5,3,1,81.0,False
56880,7107, Note_on_c,75,76,5,3,1,87.0,False
56881,7108, Note_on_c,72,76,5,3,1,84.0,True
56882,7108, Note_on_c,77,76,5,3,1,90.0,True
56883,7109, Note_on_c,65,76,5,3,1,76.0,True
56884,7110, Note_on_c,70,76,5,3,1,81.0,False
56885,7110, Note_on_c,75,76,5,3,1,87.0,False
56886,7111, Note_on_c,72,76,5,3,1,84.0,True
56887,7111, Note_on_c,77,76,5,3,1,90.0,True
56888,7112, Note_on_c,70,76,5,3,1,81.0,False
56889,7112, Note_on_c,75,76,5,3,1,87.0,False
56890,7113, Note_on_c,73,76,5,3,1,85.0,False
56891,7113, Note_on_c,77,76,5,3,1,90.0,True
56892,7114, Note_on_c,65,76,5,3,1,76.0,True
56893,7115, Note_on_c,70,76,5,3,1,81.0,False
56894,7115, Note_on_c,75,76,5,3,1,87.0,False
56895,7116, Note_on_c,72,76,5,3,1,84.0,True
56896,7116, Note_on_c,77,76,5,3,1,90.0,True
56897,7117, Note_on_c,65,76,5,3,1,76.0,True
56898,7118, Note_on_c,70,76,5,3,1,81.0,False
56899,7118, Note_on_c,75,76,5,3,1,87.0,False
56900,7119, Note_on_c,72,76,5,3,1,84.0,True
56901,7119, Note_on_c,77,76,5,3,1,90.0,True
56902,7120, Note_on_c,70,76,5,3,1,81.0,False
56903,7120, Note_on_c,75,76,5,3,1,87.0,False
56904,7121, Note_on_c,73,76,5,3,1,85.0,False
56905,7121, Note_on_c,77,76,5,3,1,90.0,True
56906,7122, Note_on_c,65,76,5,3,1,76.0,True
56907,7123, Note_on_c,70,76,5,3,1,81.0,False
56908,7123, Note_on_c,75,76,5,3,1,87.0,False
56909,7124, Note_on_c,72,76,5,3,1,84.0,True
56910,7124, Note_on_c,77,76,5,3,1,90.0,True
56911,7125, Note_on_c,65,76,5,3,1,76.0,True
56912,7126, Note_on_c,70,76,5,3,1,81.0,False
56913,7126, Note_on_c,75,76,5,3,1,87.0,False
56914,7127, Note_on_c,72,76,5,3,1,84.0,True
56915,7127, Note_on_c,77,76,5,3,1,90.0,True
56916,7128, Note_on_c,70,76,5,3,1,81.0,False
56917,7128, Note_on_c,75,76,5,3,1,87.0,False
56918,7129, Note_on_c,73,76,5,3,1,85.0,False
56919,7129, Note_on_c,77,76,5,3,1,90.0,True
56920,7130, Note_on_c,65,76,5,3,1,76.0,True
56921,7131, Note_on_c,70,76,5,3,1,81.0,False
56922,7131, Note_on_c,75,76,5,3,1,87.0,False
56923,7132, Note_on_c,72,76,5,3,1,84.0,True
56924,7132, Note_on_c,77,76,5,3,1,90.0,True
56925,7133, Note_on_c,65,76,5,3,1,76.0,True
56926,7134, Note_on_c,70,76,5,3,1,81.0,False
56927,7134, Note_on_c,75,76,5,3,1,87.0,False
56928,7135, Note_on_c,72,76,5,3,1,84.0,True
56929,7135, Note_on_c,77,76,5,3,1,90.0,True
56930,7136, Note_on_c,70,76,5,3,1,81.0,False
56931,7136, Note_on_c,75,76,5,3,1,87.0,False
56932,7137, Note_on_c,73,76,5,3,1,85.0,False
56933,7137, Note_on_c,77,76,5,3,1,90.0,True
56934,7138, Note_on_c,65,76,5,3,1,76.0,True
56935,7139, Note_on_c,70,76,5,3,1,81.0,False
56936,7139, Note_on_c,75,76,5,3,1,87.0,False
56937,7140, Note_on_c,72,76,5,3,1,84.0,True
56938,7140, Note_on_c,77,76,5,3,1,90.0,True
56939,7141, Note_on_c,65,76,5,3,1,76.0,True
56940,7142, Note_on_c,70,76,5,3,1,81.0,False
56941,7142, Note_on_c,75,76,5,3,1,87.0,False
56942,7143, Note_on_c,72,76,5,3,1,84.0,True
56943,7143, Note_on_c,77,76,5,3,1,90.0,True
56944,7144, Note_on_c,70,76,5,3,1,81.0,False
56945,7144, Note_on_c,75,76,5,3,1,87.0,False
56946,7145, Note_on_c,73,76,5,3,1,85.0,False
56947,7145, Note_on_c,77,76,5,3,1,90.0,True
56948,7146, Note_on_c,65,76,5,3,1,76.0,True
56949,7147, Note_on_c,70,76,5,3,1,81.0,False
56950,7147, Note_on_c,75,76,5,3,1,87.0,False
56951,7148, Note_on_c,72,76,5,3,1,84.0,True
56952,7148, Note_on_c,77,76,5,3,1,90.0,True
56953,7149, Note_on_c,65,76,5,3,1,76.0,True
56954,7150, Note_on_c,70,76,5,3,1,81.0,False
56955,7150, Note_on_c,75,76,5,3,1,87.0,False
56956,7151, Note_on_c,72,76,5,3,1,84.0,True
56957,7151, Note_on_c,77,76,5,3,1,90.0,True
56958,7152, Note_on_c,70,76,5,3,1,81.0,False
56959,7152, Note_on_c,75,76,5,3,1,87.0,False
56960,7153, Note_on_c,73,76,5,3,1,85.0,False
56961,7153, Note_on_c,77,76,5,3,1,90.0,True
56962,7154, Note_on_c,65,76,5,3,1,76.0,True
56963,7155, Note_on_c,70,76,5,3,1,81.0,False
56964,7155, Note_on_c,75,76,5,3,1,87.0,False
56965,7156, Note_on_c,72,76,5,3,1,84.0,True
56966,7156, Note_on_c,77,76,5,3,1,90.0,True
56967,7157, Note_on_c,65,76,5,3,1,76.0,True
56968,7158, Note_on_c,70,76,5,3,1,81.0,False
56969,7158, Note_on_c,75,76,5,3,1,87.0,False
56970,7159, Note_on_c,72,76,5,3,1,84.0,True
56971,7159, Note_on_c,77,76,5,3,1,90.0,True
56972,7160, Note_on_c,70,76,5,3,1,81.0,False
56973,7160, Note_on_c,75,76,5,3,1,87.0,False
56974,7161, Note_on_c,73,76,5,3,1,85.0,False
56975,7161, Note_on_c,77,76,5,3,1,90.0,True
56976,7162, Note_on_c,65,76,5,3,1,76.0,True
56977,7163, Note_on_c,70,76,5,3,1,81.0,False
56978,7163, Note_on_c,75,76,5,3,1,87.0,False
56979,7164, Note_on_c,72,76,5,3,1,84.0,True
56980,7164, Note_on_c,77,76,5,3,1,90.0,True
56981,7165, Note_on_c,65,76,5,3,1,76.0,True
56982,7166, Note_on_c,70,76,5,3,1,81.0,False
56983,7166, Note_on_c,75,76,5,3,1,87.0,False
56984,7167, Note_on_c,72,76,5,3,1,84.0,True
56985,7167, Note_on_c,77,76,5,3,1,90.0,True
56986,7168, Note_on_c,70,76,5,3,1,81.0,False
56987,7168, Note_on_c,75,76,5,3,1,87.0,False
56988,7169, Note_on_c,73,76,5,3,1,85.0,False
56989,7169, Note_on_c,77,76,5,3,1,90.0,True
56990,7170, Note_on_c,65,76,5,3,1,76.0,True
56991,7171, Note_on_c,70,76,5,3,1,81.0,False
56992,7171, Note_on_c,75,76,5,3,1,87.0,False
56993,7172, Note_on_c,72,76,5,3,1,84.0,True
56994,7172, Note_on_c,77,76,5,3,1,90.0,True
56995,7173, Note_on_c,65,76,5,3,1,76.0,True
56996,7174, Note_on_c,70,76,5,3,1,81.0,False
56997,7174, Note_on_c,75,76,5,3,1,87.0,False
56998,7175, Note_on_c,72,76,5,3,1,84.0,True
56999,7175, Note_on_c,77,76,5,3,1,90.0,True
57000,7176, Note_on_c,70,76,5,3,1,81.0,False
57001,7176, Note_on_c,75,76,5,3,1,87.0,False
57002,7177, Note_on_c,73,76,5,3,1,85.0,False
57003,7177, Note_on_c,77,76,5,3,1,90.0,True
57004,7178, Note_on_c,65,76,5,3,1,76.0,True
57005,7179, Note_on_c,70,76,5,3,1,81.0,False
57006,7179, Note_on_c,75,76,5,3,1,87.0,False
57007,7180, Note_on_c,72,76,5,3,1,84.0,True
57008,7180, Note_on_c,77,76,5,3,1,90.0,True
57009,7181, Note_on_c,65,76,5,3,1,76.0,True
57010,7182, Note_on_c,70,76,5,3,1,81.0,False
57011,7182, Note_on_c,75,76,5,3,1,87.0,False
57012,7183, Note_on_c,72,76,5,3,1,84.0,True
57013,7183, Note_on_c,77,76,5,3,1,90.0,True
57014,7184, Note_on_c,70,76,5,3,1,81.0,False
57015,7184, Note_on_c,75,76,5,3,1,87.0,False
57016,7185, Note_on_c,73,76,5,3,1,85.0,False
57017,7185, Note_on_c,77,76,5,3,1,90.0,True
57018,7186, Note_on_c,65,76,5,3,1,76.0,True
57019,7187, Note_on_c,70,76,5,3,1,81.0,False
57020,7187, Note_on_c,75,76,5,3,1,87.0,False
57021,7188, Note_on_c,72,76,5,3,1,84.0,True
57022,7188, Note_on_c,77,76,5,3,1,90.0,True
57023,7189, Note_on_c,65,76,5,3,1,76.0,True
57024,7190, Note_on_c,70,76,5,3,1,81.0,False
57025,7190, Note_on_c,75,76,5,3,1,87.0,False
57026,7191, Note_on_c,72,76,5,3,1,84.0,True
57027,7191, Note_on_c,77,76,5,3,1,90.0,True
57028,7192, Note_on_c,70,76,5,3,1,81.0,False
57029,7192, Note_on_c,75,76,5,3,1,87.0,False
57030,7193, Note_on_c,73,76,5,3,1,85.0,False
57031,7193, Note_on_c,77,76,5,3,1,90.0,True
57032,7194, Note_on_c,65,76,5,3,1,76.0,True
57033,7195, Note_on_c,70,76,5,3,1,81.0,False
57034,7195, Note_on_c,75,76,5,3,1,87.0,False
57035,7196, Note_on_c,72,76,5,3,1,84.0,True
57036,7196, Note_on_c,77,76,5,3,1,90.0,True
57037,7197, Note_on_c,65,76,5,3,1,76.0,True
57038,7198, Note_on_c,70,76,5,3,1,81.0,False
57039,7198, Note_on_c,75,76,5,3,1,87.0,False
57040,7199, Note_on_c,72,76,5,3,1,84.0,True
57041,7199, Note_on_c,77,76,5,3,1,90.0,True
57042,7200, Note_on_c,70,76,5,3,1,81.0,False
57043,7200, Note_on_c,75,76,5,3,1,87.0,False
57044,7201, Note_on_c,73,76,5,3,1,85.0,False
57045,7201, Note_on_c,77,76,5,3,1,90.0,True
57046,7202, Note_on_c,65,76,5,3,1,76.0,True
57047,7203, Note_on_c,70,76,5,3,1,81.0,False
57048,7203, Note_on_c,75,76,5,3,1,87.0,False
57049,7204, Note_on_c,72,76,5,3,1,84.0,True
57050,7204, Note_on_c,77,76,5,3,1,90.0,True
57051,7205, Note_on_c,65,76,5,3,1,76.0,True
57052,7206, Note_on_c,70,76,5,3,1,81.0,False
57053,7206, Note_on_c,75,76,5,3,1,87.0,False
57054,7207, Note_on_c,72,76,5,3,1,84.0,True
57055,7207, Note_on_c,77,76,5,3,1,90.0,True
57056,7208, Note_on_c,70,76,5,3,1,81.0,False
57057,7208, Note_on_c,75,76,5,3,1,87.0,False
57058,7209, Note_on_c,73,76,5,3,1,85.0,False
57059,7209, Note_on_c,77,76,5,3,1,90.0,True
57060,7210, Note_on_c,65,76,5,3,1,76.0,True
57061,7211, Note_on_c,70,76,5,3,1,81.0,False
57062,7211, Note_on_c,75,76,5,3,1,87.0,False
57063,7212, Note_on_c,72,76,5,3,1,84.0,True
57064,7212, Note_on_c,77,76,5,3,1,90.0,True
57065,7213, Note_on_c,65,76,5,3,1,76.0,True
57066,7214, Note_on_c,70,76,5,3,1,81.0,False
57067,7214, Note_on_c,75,76,5,3,1,87.0,False
57068,7215, Note_on_c,72,76,5,3,1,84.0,True
57069,7215, Note_on_c,77,76,5,3,1,90.0,True
57070,7216, Note_on_c,70,76,5,3,1,81.0,False
57071,7216, Note_on_c,75,76,5,3,1,87.0,False
57072,7217, Note_on_c,73,76,5,3,1,85.0,False
57073,7217, Note_on_c,77,76,5,3,1,90.0,True
57074,7218, Note_on_c,65,76,5,3,1,76.0,True
57075,7219, Note_on_c,70,76,5,3,1,81.0,False
57076,7219, Note_on_c,75,76,5,3,1,87.0,False
57077,7220, Note_on_c,72,76,5,3,1,84.0,True
57078,7220, Note_on_c,77,76,5,3,1,90.0,True
57079,7221, Note_on_c,65,76,5,3,1,76.0,True
57080,7222, Note_on_c,70,76,5,3,1,81.0,False
57081,7222, Note_on_c,75,76,5,3,1,87.0,False
57082,7223, Note_on_c,72,76,5,3,1,84.0,True
57083,7223, Note_on_c,77,76,5,3,1,90.0,True
57084,7224, Note_on_c,70,76,5,3,1,81.0,False
57085,7224, Note_on_c,75,76,5,3,1,87.0,False
57086,7225, Note_on_c,73,76,5,3,1,85.0,False
57087,7225, Note_on_c,77,76,5,3,1,90.0,True
57088,7226, Note_on_c,65,76,5,3,1,76.0,True
57089,7227, Note_on_c,70,76,5,3,1,81.0,False
57090,7227, Note_on_c,75,76,5,3,1,87.0,False
57091,7228, Note_on_c,72,76,5,3,1,84.0,True
57092,7228, Note_on_c,77,76,5,3,1,90.0,True
57093,7229, Note_on_c,65,76,5,3,1,76.0,True
57094,7230, Note_on_c,70,76,5,3,1,81.0,False
57095,7230, Note_on_c,75,76,5,3,1,87.0,False
57096,7231, Note_on_c,72,76,5,3,1,84.0,True
57097,7231, Note_on_c,77,76,5,3,1,90.0,True
57098,7232, Note_on_c,70,76,5,3,1,81.0,False
57099,7232, Note_on_c,75,76,5,3,1,87.0,False
57100,7233, Note_on_c,73,76,5,3,1,85.0,False
57101,7233, Note_on_c,77,76,5,3,1,90.0,True
57102,7234, Note_on_c,65,76,5,3,1,76.0,True
57103,7235, Note_on_c,70,76,5,3,1,81.0,False
57104,7235, Note_on_c,75,76,5,3,1,87.0,False
57105,7236, Note_on_c,72,76,5,3,1,84.0,True
57106,7236, Note_on_c,77,76,5,3,1,90.0,True
57107,7237, Note_on_c,65,76,5,3,1,76.0,True
57108,7238, Note_on_c,70,76,5,3,1,81.0,False
57109,7238, Note_on_c,75,76,5,3,1,87.0,False
57110,7239, Note_on_c,72,76,5,3,1,84.0,True
57111,7239, Note_on_c,77,76,5,3,1,90.0,True
57112,7240, Note_on_c,70,76,5,3,1,81.0,False
57113,7240, Note_on_c,75,76,5,3,1,87.0,False
57114,7241, Note_on_c,73,76,5,3,1,85.0,False
57115,7241, Note_on_c,77,76,5,3,1,90.0,True
57116,7242, Note_on_c,65,76,5,3,1,76.0,True
57117,7243, Note_on_c,70,76,5,3,1,81.0,False
57118,7243, Note_on_c,75,76,5,3,1,87.0,False
57119,7244, Note_on_c,72,76,5,3,1,84.0,True
57120,7244, Note_on_c,77,76,5,3,1,90.0,True
57121,7245, Note_on_c,65,76,5,3,1,76.0,True
57122,7246, Note_on_c,70,76,5,3,1,81.0,False
57123,7246, Note_on_c,75,76,5,3,1,87.0,False
57124,7247, Note_on_c,72,76,5,3,1,84.0,True
57125,7247, Note_on_c,77,76,5,3,1,90.0,True
57126,7248, Note_on_c,70,76,5,3,1,81.0,False
57127,7248, Note_on_c,75,76,5,3,1,87.0,False
57128,7249, Note_on_c,73,76,5,3,1,85.0,False
57129,7249, Note_on_c,77,76,5,3,1,90.0,True
57130,7250, Note_on_c,65,76,5,3,1,76.0,True
57131,7251, Note_on_c,70,76,5,3,1,81.0,False
57132,7251, Note_on_c,75,76,5,3,1,87.0,False
57133,7252, Note_on_c,72,76,5,3,1,84.0,True
57134,7252, Note_on_c,77,76,5,3,1,90.0,True
57135,7253, Note_on_c,65,76,5,3,1,76.0,True
57136,7254, Note_on_c,70,76,5,3,1,81.0,False
57137,7254, Note_on_c,75,76,5,3,1,87.0,False
57138,7255, Note_on_c,72,76,5,3,1,84.0,True
57139,7255, Note_on_c,77,76,5,3,1,90.0,True
57140,7256, Note_on_c,70,76,5,3,1,81.0,False
57141,7256, Note_on_c,75,76,5,3,1,87.0,False
57142,7257, Note_on_c,73,76,5,3,1,85.0,False
57143,7257, Note_on_c,77,76,5,3,1,90.0,True
57144,7258, Note_on_c,65,76,5,3,1,76.0,True
57145,7259, Note_on_c,70,76,5,3,1,81.0,False
57146,7259, Note_on_c,75,76,5,3,1,87.0,False
57147,7260, Note_on_c,72,76,5,3,1,84.0,True
57148,7260, Note_on_c,77,76,5,3,1,90.0,True
57149,7261, Note_on_c,65,76,5,3,1,76.0,True
57150,7262, Note_on_c,70,76,5,3,1,81.0,False
57151,7262, Note_on_c,75,76,5,3,1,87.0,False
57152,7263, Note_on_c,72,76,5,3,1,84.0,True
57153,7263, Note_on_c,77,76,5,3,1,90.0,True
57154,7264, Note_on_c,70,76,5,3,1,81.0,False
57155,7264, Note_on_c,75,76,5,3,1,87.0,False
57156,7265, Note_on_c,73,78,5,3,1,85.0,False
57157,7265, Note_on_c,77,78,5,3,1,90.0,True
57158,7266, Note_on_c,65,78,5,3,1,76.0,True
57159,7267, Note_on_c,70,79,5,3,1,81.0,False
57160,7267, Note_on_c,75,79,5,3,1,87.0,False
57161,7268, Note_on_c,72,80,5,3,1,84.0,True
57162,7268, Note_on_c,77,80,5,3,1,90.0,True
57163,7269, Note_on_c,65,80,5,3,1,76.0,True
57164,7270, Note_on_c,70,81,5,3,1,81.0,False
57165,7270, Note_on_c,75,81,5,3,1,87.0,False
57166,7271, Note_on_c,72,81,5,3,1,84.0,True
57167,7271, Note_on_c,77,81,5,3,1,90.0,True
57168,7272, Note_on_c,70,82,5,3,1,81.0,False
57169,7272, Note_on_c,75,82,5,3,1,87.0,False
57170,7273, Note_on_c,73,83,5,3,1,85.0,False
57171,7273, Note_on_c,77,83,5,3,1,90.0,True
57172,7274, Note_on_c,65,83,5,3,1,76.0,True
57173,7275, Note_on_c,70,84,5,3,1,81.0,False
57174,7275, Note_on_c,75,84,5,3,1,87.0,False
57175,7276, Note_on_c,72,85,5,3,1,84.0,True
57176,7276, Note_on_c,77,85,5,3,1,90.0,True
57177,7277, Note_on_c,65,85,5,3,1,76.0,True
57178,7278, Note_on_c,70,86,5,3,1,81.0,False
57179,7278, Note_on_c,75,86,5,3,1,87.0,False
57180,7279, Note_on_c,72,86,5,3,1,84.0,True
57181,7279, Note_on_c,77,86,5,3,1,90.0,True
57182,7280, Note_on_c,70,87,5,3,1,81.0,False
57183,7280, Note_on_c,75,87,5,3,1,87.0,False
57184,7281, Note_on_c,73,88,5,3,1,85.0,False
57185,7281, Note_on_c,77,88,5,3,1,90.0,True
57186,7282, Note_on_c,65,88,5,3,1,76.0,True
57187,7283, Note_on_c,70,89,5,3,1,81.0,False
57188,7283, Note_on_c,75,89,5,3,1,87.0,False
57189,7284, Note_on_c,72,90,5,3,1,84.0,True
57190,7284, Note_on_c,77,90,5,3,1,90.0,True
57191,7285, Note_on_c,65,90,5,3,1,76.0,True
57192,7286, Note_on_c,70,91,5,3,1,81.0,False
57193,7286, Note_on_c,75,91,5,3,1,87.0,False
57194,7287, Note_on_c,72,91,5,3,1,84.0,True
57195,7287, Note_on_c,77,91,5,3,1,90.0,True
57196,7288, Note_on_c,70,92,5,3,1,81.0,False
57197,7288, Note_on_c,75,92,5,3,1,87.0,False
57198,7289, Note_on_c,73,93,5,3,1,85.0,False
57199,7289, Note_on_c,77,93,5,3,1,90.0,True
57200,7290, Note_on_c,65,93,5,3,1,76.0,True
57201,7291, Note_on_c,70,94,5,3,1,81.0,False
57202,7291, Note_on_c,75,94,5,3,1,87.0,False
57203,7292, Note_on_c,72,94,5,3,1,84.0,True
57204,7292, Note_on_c,77,94,5,3,1,90.0,True
57205,7293, Note_on_c,65,95,5,3,1,76.0,True
57206,7294, Note_on_c,70,96,5,3,1,81.0,False
57207,7294, Note_on_c,75,96,5,3,1,87.0,False
57208,7295, Note_on_c,72,96,5,3,1,84.0,True
57209,7295, Note_on_c,77,96,5,3,1,90.0,True
57210,7296, Note_on_c,70,97,5,3,1,81.0,False
57211,7296, Note_on_c,75,97,5,3,1,87.0,False
57212,7297, Note_on_c,73,98,5,3,1,85.0,False
57213,7297, Note_on_c,77,98,5,3,1,90.0,True
57214,7298, Note_on_c,65,98,5,3,1,76.0,True
57215,7299, Note_on_c,70,99,5,3,1,81.0,False
57216,7299, Note_on_c,75,99,5,3,1,87.0,False
57217,7300, Note_on_c,72,99,5,3,1,84.0,True
57218,7300, Note_on_c,77,99,5,3,1,90.0,True
57219,7301, Note_on_c,65,100,5,3,1,76.0,True
57220,7302, Note_on_c,70,101,5,3,1,81.0,False
57221,7302, Note_on_c,75,101,5,3,1,87.0,False
57222,7303, Note_on_c,72,101,5,3,1,84.0,True
57223,7303, Note_on_c,77,101,5,3,1,90.0,True
57224,7304, Note_on_c,70,102,5,3,1,81.0,False
57225,7304, Note_on_c,75,102,5,3,1,87.0,False
57226,7305, Note_on_c,73,103,5,3,1,85.0,False
57227,7305, Note_on_c,77,103,5,3,1,90.0,True
57228,7306, Note_on_c,65,103,5,3,1,76.0,True
57229,7307, Note_on_c,70,104,5,3,1,81.0,False
57230,7307, Note_on_c,75,104,5,3,1,87.0,False
57231,7308, Note_on_c,72,104,5,3,1,84.0,True
57232,7308, Note_on_c,77,104,5,3,1,90.0,True
57233,7309, Note_on_c,65,105,5,3,1,76.0,True
57234,7310, Note_on_c,70,106,5,3,1,81.0,False
57235,7310, Note_on_c,75,106,5,3,1,87.0,False
57236,7311, Note_on_c,72,106,5,3,1,84.0,True
57237,7311, Note_on_c,77,106,5,3,1,90.0,True
57238,7312, Note_on_c,70,107,5,3,1,81.0,False
57239,7312, Note_on_c,75,107,5,3,1,87.0,False
57240,7313, End_track,,,5,3,-1,,False
57241,1, End_of_file,,,5,1,-1,,False
57242,1, Header,1,480,6,1,-1,1.0,False
57243,1, Start_track,,,6,1,-1,,False
57244,1, Channel_prefix,,,6,1,-1,,False
57245,1, Title_t,,,6,1,-1,,False
57246,1, Instrument_name_t,,,6,1,-1,,False
57247,1, Time_signature,2,24,6,1,-1,2.0,True
57248,1, Key_signature,,,6,1,-1,,False
57249,1, SMPTE_offset,0,0,6,1,-1,0.0,True
57250,1, Tempo,,,6,1,-1,,False
57251,1, Note_on_c,65,76,6,1,1,76.0,True
57252,2, Note_on_c,70,76,6,1,1,81.0,False
57253,2, Note_on_c,73,76,6,1,1,85.0,False
57254,3, Note_on_c,72,76,6,1,1,84.0,True
57255,3, Note_on_c,75,76,6,1,1,87.0,False
57256,4, Note_on_c,70,76,6,1,1,81.0,False
57257,4, Note_on_c,73,76,6,1,1,85.0,False
57258,5, Note_on_c,72,76,6,1,1,84.0,True
57259,5, Note_on_c,77,76,6,1,1,90.0,True
57260,6, Note_on_c,65,76,6,1,1,76.0,True
57261,7, Note_on_c,70,76,6,1,1,81.0,False
57262,7, Note_on_c,73,76,6,1,1,85.0,False
57263,8, Note_on_c,72,76,6,1,1,84.0,True
57264,8, Note_on_c,75,76,6,1,1,87.0,False
57265,9, Note_on_c,65,76,6,1,1,76.0,True
57266,10, Note_on_c,70,76,6,1,1,81.0,False
57267,10, Note_on_c,73,76,6,1,1,85.0,False
57268,11, Note_on_c,72,76,6,1,1,84.0,True
57269,11, Note_on_c,75,76,6,1,1,87.0,False
57270,12, Note_on_c,70,76,6,1,1,81.0,False
57271,12, Note_on_c,73,76,6,1,1,85.0,False
57272,13, Note_on_c,72,76,6,1,1,84.0,True
57273,13, Note_on_c,77,76,6,1,1,90.0,True
57274,14, Note_on_c,65,76,6,1,1,76.0,True
57275,15, Note_on_c,70,76,6,1,1,81.0,False
57276,15, Note_on_c,73,76,6,1,1,85.0,False
57277,16, Note_on_c,72,76,6,1,1,84.0,True
57278,16, Note_on_c,75,76,6,1,1,87.0,False
57279,17, Note_on_c,65,76,6,1,1,76.0,True
57280,18, Note_on_c,70,76,6,1,1,81.0,False
57281,18, Note_on_c,73,76,6,1,1,85.0,False
57282,19, Note_on_c,72,76,6,1,1,84.0,True
57283,19, Note_on_c,75,76,6,1,1,87.0,False
57284,20, Note_on_c,70,76,6,1,1,81.0,False
57285,20, Note_on_c,73,76,6,1,1,85.0,False
57286,21, Note_on_c,72,76,6,1,1,84.0,True
57287,21, Note_on_c,77,76,6,1,1,90.0,True
57288,22, Note_on_c,65,76,6,1,1,76.0,True
57289,23, Note_on_c,70,76,6,1,1,81.0,False
57290,23, Note_on_c,73,76,6,1,1,85.0,False
57291,24, Note_on_c,72,76,6,1,1,84.0,True
57292,24, Note_on_c,75,76,6,1,1,87.0,False
57293,25, Note_on_c,65,76,6,1,1,76.0,True
57294,26, Note_on_c,70,76,6,1,1,81.0,False
57295,26, Note_on_c,73,76,6,1,1,85.0,False
57296,27, Note_on_c,72,76,6,1,1,84.0,True
57297,27, Note_on_c,75,76,6,1,1,87.0,False
57298,28, Note_on_c,70,76,6,1,1,81.0,False
57299,28, Note_on_c,73,76,6,1,1,85.0,False
57300,29, Note_on_c,72,76,6,1,1,84.0,True
57301,29, Note_on_c,77,76,6,1,1,90.0,True
57302,30, Note_on_c,65,76,6,1,1,76.0,True
57303,31, Note_on_c,70,76,6,1,1,81.0,False
57304,31, Note_on_c,73,76,6,1,1,85.0,False
57305,32, Note_on_c,72,76,6,1,1,84.0,True
57306,32, Note_on_c,75,76,6,1,1,87.0,False
57307,33, Note_on_c,65,76,6,1,1,76.0,True
57308,34, Note_on_c,70,76,6,1,1,81.0,False
57309,34, Note_on_c,73,76,6,1,1,85.0,False
57310,35, Note_on_c,72,76,6,1,1,84.0,True
57311,35, Note_on_c,75,76,6,1,1,87.0,False
57312,36, Note_on_c,70,76,6,1,1,81.0,False
57313,36, Note_on_c,73,76,6,1,1,85.0,False
57314,37, Note_on_c,72,76,6,1,1,84.0,True
57315,37, Note_on_c,77,76,6,1,1,90.0,True
57316,38, Note_on_c,65,76,6,1,1,76.0,True
57317,39, Note_on_c,70,76,6,1,1,81.0,False
57318,39, Note_on_c,73,76,6,1,1,85.0,False
57319,40, Note_on_c,72,76,6,1,1,84.0,True
57320,40, Note_on_c,75,76,6,1,1,87.0,False
57321,41, Note_on_c,65,76,6,1,1,76.0,True
57322,42, Note_on_c,70,76,6,1,1,81.0,False
57323,42, Note_on_c,73,76,6,1,1,85.0,False
57324,43, Note_on_c,72,76,6,1,1,84.0,True
57325,43, Note_on_c,75,76,6,1,1,87.0,False
57326,44, Note_on_c,70,76,6,1,1,81.0,False
57327,44, Note_on_c,73,76,6,1,1,85.0,False
57328,45, Note_on_c,72,76,6,1,1,84.0,True
57329,45, Note_on_c,77,76,6,1,1,90.0,True
57330,46, Note_on_c,65,76,6,1,1,76.0,True
57331,47, Note_on_c,70,76,6,1,1,81.0,False
57332,47, Note_on_c,73,76,6,1,1,85.0,False
57333,48, Note_on_c,72,76,6,1,1,84.0,True
57334,48, Note_on_c,75,76,6,1,1,87.0,False
57335,49, Note_on_c,65,76,6,1,1,76.0,True
57336,50, Note_on_c,70,76,6,1,1,81.0,False
57337,50, Note_on_c,73,76,6,1,1,85.0,False
57338,51, Note_on_c,72,76,6,1,1,84.0,True
57339,51, Note_on_c,75,76,6,1,1,87.0,False
57340,52, Note_on_c,70,76,6,1,1,81.0,False
57341,52, Note_on_c,73,76,6,1,1,85.0,False
57342,53, Note_on_c,72,76,6,1,1,84.0,True
57343,53, Note_on_c,77,76,6,1,1,90.0,True
57344,54, Note_on_c,65,76,6,1,1,76.0,True
57345,55, Note_on_c,70,76,6,1,1,81.0,False
57346,55, Note_on_c,73,76,6,1,1,85.0,False
57347,56, Note_on_c,72,76,6,1,1,84.0,True
57348,56, Note_on_c,75,76,6,1,1,87.0,False
57349,57, Note_on_c,65,76,6,1,1,76.0,True
57350,58, Note_on_c,70,76,6,1,1,81.0,False
57351,58, Note_on_c,73,76,6,1,1,85.0,False
57352,59, Note_on_c,72,76,6,1,1,84.0,True
57353,59, Note_on_c,75,76,6,1,1,87.0,False
57354,60, Note_on_c,70,76,6,1,1,81.0,False
57355,60, Note_on_c,73,76,6,1,1,85.0,False
57356,61, Note_on_c,72,76,6,1,1,84.0,True
57357,61, Note_on_c,77,76,6,1,1,90.0,True
57358,62, Note_on_c,65,76,6,1,1,76.0,True
57359,63, Note_on_c,70,76,6,1,1,81.0,False
57360,63, Note_on_c,73,76,6,1,1,85.0,False
57361,64, Note_on_c,72,76,6,1,1,84.0,True
57362,64, Note_on_c,75,76,6,1,1,87.0,False
57363,65, Note_on_c,65,76,6,1,1,76.0,True
57364,66, Note_on_c,70,76,6,1,1,81.0,False
57365,66, Note_on_c,73,76,6,1,1,85.0,False
57366,67, Note_on_c,72,76,6,1,1,84.0,True
57367,67, Note_on_c,75,76,6,1,1,87.0,False
57368,68, Note_on_c,70,76,6,1,1,81.0,False
57369,68, Note_on_c,73,76,6,1,1,85.0,False
57370,69, Note_on_c,72,76,6,1,1,84.0,True
57371,69, Note_on_c,77,76,6,1,1,90.0,True
57372,70, Note_on_c,65,76,6,1,1,76.0,True
57373,71, Note_on_c,70,76,6,1,1,81.0,False
57374,71, Note_on_c,73,76,6,1,1,85.0,False
57375,72, Note_on_c,72,76,6,1,1,84.0,True
57376,72, Note_on_c,75,76,6,1,1,87.0,False
57377,73, Note_on_c,65,76,6,1,1,76.0,True
57378,74, Note_on_c,70,76,6,1,1,81.0,False
57379,74, Note_on_c,73,76,6,1,1,85.0,False
57380,75, Note_on_c,72,76,6,1,1,84.0,True
57381,75, Note_on_c,75,76,6,1,1,87.0,False
57382,76, Note_on_c,70,76,6,1,1,81.0,False
57383,76, Note_on_c,73,76,6,1,1,85.0,False
57384,77, Note_on_c,72,76,6,1,1,84.0,True
57385,77, Note_on_c,77,76,6,1,1,90.0,True
57386,78, Note_on_c,65,76,6,1,1,76.0,True
57387,79, Note_on_c,70,76,6,1,1,81.0,False
57388,79, Note_on_c,73,76,6,1,1,85.0,False
57389,80, Note_on_c,72,76,6,1,1,84.0,True
57390,80, Note_on_c,75,76,6,1,1,87.0,False
57391,81, Note_on_c,65,76,6,1,1,76.0,True
57392,82, Note_on_c,70,76,6,1,1,81.0,False
57393,82, Note_on_c,73,76,6,1,1,85.0,False
57394,83, Note_on_c,72,76,6,1,1,84.0,True
57395,83, Note_on_c,75,76,6,1,1,87.0,False
57396,84, Note_on_c,70,76,6,1,1,81.0,False
57397,84, Note_on_c,73,76,6,1,1,85.0,False
57398,85, Note_on_c,72,76,6,1,1,84.0,True
57399,85, Note_on_c,77,76,6,1,1,90.0,True
57400,86, Note_on_c,65,76,6,1,1,76.0,True
57401,87, Note_on_c,70,76,6,1,1,81.0,False
57402,87, Note_on_c,73,76,6,1,1,85.0,False
57403,88, Note_on_c,72,76,6,1,1,84.0,True
57404,88, Note_on_c,75,76,6,1,1,87.0,False
57405,89, Note_on_c,65,76,6,1,1,76.0,True
57406,90, Note_on_c,70,76,6,1,1,81.0,False
57407,90, Note_on_c,73,76,6,1,1,85.0,False
57408,91, Note_on_c,72,76,6,1,1,84.0,True
57409,91, Note_on_c,75,76,6,1,1,87.0,False
57410,92, Note_on_c,70,76,6,1,1,81.0,False
57411,92, Note_on_c,73,76,6,1,1,85.0,False
57412,93, Note_on_c,72,76,6,1,1,84.0,True
57413,93, Note_on_c,77,76,6,1,1,90.0,True
57414,94, Note_on_c,65,76,6,1,1,76.0,True
57415,95, Note_on_c,70,76,6,1,1,81.0,False
57416,95, Note_on_c,73,76,6,1,1,85.0,False
57417,96, Note_on_c,72,76,6,1,1,84.0,True
57418,96, Note_on_c,75,76,6,1,1,87.0,False
57419,97, Note_on_c,65,76,6,1,1,76.0,True
57420,98, Note_on_c,70,76,6,1,1,81.0,False
57421,98, Note_on_c,73,76,6,1,1,85.0,False
57422,99, Note_on_c,72,76,6,1,1,84.0,True
57423,99, Note_on_c,75,76,6,1,1,87.0,False
57424,100, Note_on_c,70,76,6,1,1,81.0,False
57425,100, Note_on_c,73,76,6,1,1,85.0,False
57426,101, Note_on_c,72,76,6,1,1,84.0,True
57427,101, Note_on_c,77,76,6,1,1,90.0,True
57428,102, Note_on_c,65,76,6,1,1,76.0,True
57429,103, Note_on_c,70,76,6,1,1,81.0,False
57430,103, Note_on_c,73,76,6,1,1,85.0,False
57431,104, Note_on_c,72,76,6,1,1,84.0,True
57432,104, Note_on_c,75,76,6,1,1,87.0,False
57433,105, Note_on_c,65,76,6,1,1,76.0,True
57434,106, Note_on_c,70,76,6,1,1,81.0,False
57435,106, Note_on_c,73,76,6,1,1,85.0,False
57436,107, Note_on_c,72,76,6,1,1,84.0,True
57437,107, Note_on_c,75,76,6,1,1,87.0,False
57438,108, Note_on_c,70,76,6,1,1,81.0,False
57439,108, Note_on_c,73,76,6,1,1,85.0,False
57440,109, Note_on_c,72,76,6,1,1,84.0,True
57441,109, Note_on_c,77,76,6,1,1,90.0,True
57442,110, Note_on_c,65,76,6,1,1,76.0,True
57443,111, Note_on_c,70,76,6,1,1,81.0,False
57444,111, Note_on_c,73,76,6,1,1,85.0,False
57445,112, Note_on_c,72,76,6,1,1,84.0,True
57446,112, Note_on_c,75,76,6,1,1,87.0,False
57447,113, Note_on_c,65,76,6,1,1,76.0,True
57448,114, Note_on_c,70,76,6,1,1,81.0,False
57449,114, Note_on_c,73,76,6,1,1,85.0,False
57450,115, Note_on_c,72,76,6,1,1,84.0,True
57451,115, Note_on_c,75,76,6,1,1,87.0,False
57452,116, Note_on_c,70,76,6,1,1,81.0,False
57453,116, Note_on_c,73,76,6,1,1,85.0,False
57454,117, Note_on_c,72,76,6,1,1,84.0,True
57455,117, Note_on_c,77,76,6,1,1,90.0,True
57456,118, Note_on_c,65,76,6,1,1,76.0,True
57457,119, Note_on_c,70,76,6,1,1,81.0,False
57458,119, Note_on_c,73,76,6,1,1,85.0,False
57459,120, Note_on_c,72,76,6,1,1,84.0,True
57460,120, Note_on_c,75,76,6,1,1,87.0,False
57461,121, Note_on_c,65,76,6,1,1,76.0,True
57462,122, Note_on_c,70,76,6,1,1,81.0,False
57463,122, Note_on_c,73,76,6,1,1,85.0,False
57464,123, Note_on_c,72,76,6,1,1,84.0,True
57465,123, Note_on_c,75,76,6,1,1,87.0,False
57466,124, Note_on_c,70,76,6,1,1,81.0,False
57467,124, Note_on_c,73,76,6,1,1,85.0,False
57468,125, Note_on_c,72,76,6,1,1,84.0,True
57469,125, Note_on_c,77,76,6,1,1,90.0,True
57470,126, Note_on_c,65,76,6,1,1,76.0,True
57471,127, Note_on_c,70,76,6,1,1,81.0,False
57472,127, Note_on_c,73,76,6,1,1,85.0,False
57473,128, Note_on_c,72,76,6,1,1,84.0,True
57474,128, Note_on_c,75,76,6,1,1,87.0,False
57475,129, Note_on_c,65,76,6,1,1,76.0,True
57476,130, Note_on_c,70,76,6,1,1,81.0,False
57477,130, Note_on_c,73,76,6,1,1,85.0,False
57478,131, Note_on_c,72,76,6,1,1,84.0,True
57479,131, Note_on_c,75,76,6,1,1,87.0,False
57480,132, Note_on_c,70,76,6,1,1,81.0,False
57481,132, Note_on_c,73,76,6,1,1,85.0,False
57482,133, Note_on_c,72,76,6,1,1,84.0,True
57483,133, Note_on_c,77,76,6,1,1,90.0,True
57484,134, Note_on_c,65,76,6,1,1,76.0,True
57485,135, Note_on_c,70,76,6,1,1,81.0,False
57486,135, Note_on_c,73,76,6,1,1,85.0,False
57487,136, Note_on_c,72,76,6,1,1,84.0,True
57488,136, Note_on_c,75,76,6,1,1,87.0,False
57489,137, Note_on_c,65,76,6,1,1,76.0,True
57490,138, Note_on_c,70,76,6,1,1,81.0,False
57491,138, Note_on_c,73,76,6,1,1,85.0,False
57492,139, Note_on_c,72,76,6,1,1,84.0,True
57493,139, Note_on_c,75,76,6,1,1,87.0,False
57494,140, Note_on_c,70,76,6,1,1,81.0,False
57495,140, Note_on_c,73,76,6,1,1,85.0,False
57496,141, Note_on_c,72,76,6,1,1,84.0,True
57497,141, Note_on_c,77,76,6,1,1,90.0,True
57498,142, Note_on_c,65,76,6,1,1,76.0,True
57499,143, Note_on_c,70,76,6,1,1,81.0,False
57500,143, Note_on_c,73,76,6,1,1,85.0,False
57501,144, Note_on_c,72,76,6,1,1,84.0,True
57502,144, Note_on_c,75,76,6,1,1,87.0,False
57503,145, Note_on_c,65,76,6,1,1,76.0,True
57504,146, Note_on_c,70,76,6,1,1,81.0,False
57505,146, Note_on_c,73,76,6,1,1,85.0,False
57506,147, Note_on_c,72,76,6,1,1,84.0,True
57507,147, Note_on_c,75,76,6,1,1,87.0,False
57508,148, Note_on_c,70,76,6,1,1,81.0,False
57509,148, Note_on_c,73,76,6,1,1,85.0,False
57510,149, Note_on_c,72,76,6,1,1,84.0,True
57511,149, Note_on_c,77,76,6,1,1,90.0,True
57512,150, Note_on_c,65,76,6,1,1,76.0,True
57513,151, Note_on_c,70,76,6,1,1,81.0,False
57514,151, Note_on_c,73,76,6,1,1,85.0,False
57515,152, Note_on_c,72,76,6,1,1,84.0,True
57516,152, Note_on_c,75,76,6,1,1,87.0,False
57517,153, Note_on_c,65,76,6,1,1,76.0,True
57518,154, Note_on_c,70,76,6,1,1,81.0,False
57519,154, Note_on_c,73,76,6,1,1,85.0,False
57520,155, Note_on_c,72,76,6,1,1,84.0,True
57521,155, Note_on_c,75,76,6,1,1,87.0,False
57522,156, Note_on_c,70,76,6,1,1,81.0,False
57523,156, Note_on_c,73,76,6,1,1,85.0,False
57524,157, Note_on_c,72,76,6,1,1,84.0,True
57525,157, Note_on_c,77,76,6,1,1,90.0,True
57526,158, Note_on_c,65,76,6,1,1,76.0,True
57527,159, Note_on_c,70,76,6,1,1,81.0,False
57528,159, Note_on_c,73,76,6,1,1,85.0,False
57529,160, Note_on_c,72,76,6,1,1,84.0,True
57530,160, Note_on_c,75,76,6,1,1,87.0,False
57531,161, Note_on_c,65,76,6,1,1,76.0,True
57532,162, Note_on_c,70,76,6,1,1,81.0,False
57533,162, Note_on_c,73,76,6,1,1,85.0,False
57534,163, Note_on_c,72,76,6,1,1,84.0,True
57535,163, Note_on_c,75,76,6,1,1,87.0,False
57536,164, Note_on_c,70,76,6,1,1,81.0,False
57537,164, Note_on_c,73,76,6,1,1,85.0,False
57538,165, Note_on_c,72,76,6,1,1,84.0,True
57539,165, Note_on_c,77,76,6,1,1,90.0,True
57540,166, Note_on_c,65,76,6,1,1,76.0,True
57541,167, Note_on_c,70,76,6,1,1,81.0,False
57542,167, Note_on_c,73,76,6,1,1,85.0,False
57543,168, Note_on_c,72,76,6,1,1,84.0,True
57544,168, Note_on_c,75,76,6,1,1,87.0,False
57545,169, Note_on_c,65,76,6,1,1,76.0,True
57546,170, Note_on_c,70,76,6,1,1,81.0,False
57547,170, Note_on_c,73,76,6,1,1,85.0,False
57548,171, Note_on_c,72,76,6,1,1,84.0,True
57549,171, Note_on_c,75,76,6,1,1,87.0,False
57550,172, Note_on_c,70,76,6,1,1,81.0,False
57551,172, Note_on_c,73,76,6,1,1,85.0,False
57552,173, Note_on_c,72,76,6,1,1,84.0,True
57553,173, Note_on_c,77,76,6,1,1,90.0,True
57554,174, Note_on_c,65,76,6,1,1,76.0,True
57555,175, Note_on_c,70,76,6,1,1,81.0,False
57556,175, Note_on_c,73,76,6,1,1,85.0,False
57557,176, Note_on_c,72,76,6,1,1,84.0,True
57558,176, Note_on_c,75,76,6,1,1,87.0,False
57559,177, Note_on_c,65,76,6,1,1,76.0,True
57560,178, Note_on_c,70,76,6,1,1,81.0,False
57561,178, Note_on_c,73,76,6,1,1,85.0,False
57562,179, Note_on_c,72,76,6,1,1,84.0,True
57563,179, Note_on_c,75,76,6,1,1,87.0,False
57564,180, Note_on_c,70,76,6,1,1,81.0,False
57565,180, Note_on_c,73,76,6,1,1,85.0,False
57566,181, Note_on_c,72,76,6,1,1,84.0,True
57567,181, Note_on_c,77,76,6,1,1,90.0,True
57568,182, Note_on_c,65,76,6,1,1,76.0,True
57569,183, Note_on_c,70,76,6,1,1,81.0,False
57570,183, Note_on_c,73,76,6,1,1,85.0,False
57571,184, Note_on_c,72,76,6,1,1,84.0,True
57572,184, Note_on_c,75,76,6,1,1,87.0,False
57573,185, Note_on_c,65,76,6,1,1,76.0,True
57574,186, Note_on_c,70,76,6,1,1,81.0,False
57575,186, Note_on_c,73,76,6,1,1,85.0,False
57576,187, Note_on_c,72,76,6,1,1,84.0,True
57577,187, Note_on_c,75,76,6,1,1,87.0,False
57578,188, Note_on_c,70,76,6,1,1,81.0,False
57579,188, Note_on_c,73,76,6,1,1,85.0,False
57580,189, Note_on_c,72,76,6,1,1,84.0,True
57581,189, Note_on_c,77,76,6,1,1,90.0,True
57582,190, Note_on_c,65,76,6,1,1,76.0,True
57583,191, Note_on_c,70,76,6,1,1,81.0,False
57584,191, Note_on_c,73,76,6,1,1,85.0,False
57585,192, Note_on_c,72,76,6,1,1,84.0,True
57586,192, Note_on_c,75,76,6,1,1,87.0,False
57587,193, Note_on_c,65,76,6,1,1,76.0,True
57588,194, Note_on_c,70,76,6,1,1,81.0,False
57589,194, Note_on_c,73,76,6,1,1,85.0,False
57590,195, Note_on_c,72,76,6,1,1,84.0,True
57591,195, Note_on_c,75,76,6,1,1,87.0,False
57592,196, Note_on_c,70,76,6,1,1,81.0,False
57593,196, Note_on_c,73,76,6,1,1,85.0,False
57594,197, Note_on_c,72,76,6,1,1,84.0,True
57595,197, Note_on_c,77,76,6,1,1,90.0,True
57596,198, Note_on_c,65,76,6,1,1,76.0,True
57597,199, Note_on_c,70,76,6,1,1,81.0,False
57598,199, Note_on_c,73,76,6,1,1,85.0,False
57599,200, Note_on_c,72,76,6,1,1,84.0,True
57600,200, Note_on_c,75,76,6,1,1,87.0,False
57601,201, Note_on_c,65,76,6,1,1,76.0,True
57602,202, Note_on_c,70,76,6,1,1,81.0,False
57603,202, Note_on_c,73,76,6,1,1,85.0,False
57604,203, Note_on_c,72,76,6,1,1,84.0,True
57605,203, Note_on_c,75,76,6,1,1,87.0,False
57606,204, Note_on_c,70,76,6,1,1,81.0,False
57607,204, Note_on_c,73,76,6,1,1,85.0,False
57608,205, Note_on_c,72,76,6,1,1,84.0,True
57609,205, Note_on_c,77,76,6,1,1,90.0,True
57610,206, Note_on_c,65,76,6,1,1,76.0,True
57611,207, Note_on_c,70,76,6,1,1,81.0,False
57612,207, Note_on_c,73,76,6,1,1,85.0,False
57613,208, Note_on_c,72,76,6,1,1,84.0,True
57614,208, Note_on_c,75,76,6,1,1,87.0,False
57615,209, Note_on_c,65,76,6,1,1,76.0,True
57616,210, Note_on_c,70,76,6,1,1,81.0,False
57617,210, Note_on_c,73,76,6,1,1,85.0,False
57618,211, Note_on_c,72,76,6,1,1,84.0,True
57619,211, Note_on_c,75,76,6,1,1,87.0,False
57620,212, Note_on_c,70,76,6,1,1,81.0,False
57621,212, Note_on_c,73,76,6,1,1,85.0,False
57622,213, Note_on_c,72,76,6,1,1,84.0,True
57623,213, Note_on_c,77,76,6,1,1,90.0,True
57624,214, Note_on_c,65,76,6,1,1,76.0,True
57625,215, Note_on_c,70,76,6,1,1,81.0,False
57626,215, Note_on_c,73,76,6,1,1,85.0,False
57627,216, Note_on_c,72,76,6,1,1,84.0,True
57628,216, Note_on_c,75,76,6,1,1,87.0,False
57629,217, Note_on_c,65,76,6,1,1,76.0,True
57630,218, Note_on_c,70,76,6,1,1,81.0,False
57631,218, Note_on_c,73,76,6,1,1,85.0,False
57632,219, Note_on_c,72,76,6,1,1,84.0,True
57633,219, Note_on_c,75,76,6,1,1,87.0,False
57634,220, Note_on_c,70,76,6,1,1,81.0,False
57635,220, Note_on_c,73,76,6,1,1,85.0,False
57636,221, Note_on_c,72,76,6,1,1,84.0,True
57637,221, Note_on_c,77,76,6,1,1,90.0,True
57638,222, Note_on_c,65,76,6,1,1,76.0,True
57639,223, Note_on_c,70,76,6,1,1,81.0,False
57640,223, Note_on_c,73,76,6,1,1,85.0,False
57641,224, Note_on_c,72,76,6,1,1,84.0,True
57642,224, Note_on_c,75,76,6,1,1,87.0,False
57643,225, Note_on_c,65,76,6,1,1,76.0,True
57644,226, Note_on_c,70,76,6,1,1,81.0,False
57645,226, Note_on_c,73,76,6,1,1,85.0,False
57646,227, Note_on_c,72,76,6,1,1,84.0,True
57647,227, Note_on_c,75,76,6,1,1,87.0,False
57648,228, Note_on_c,70,76,6,1,1,81.0,False
57649,228, Note_on_c,73,76,6,1,1,85.0,False
57650,229, Note_on_c,72,76,6,1,1,84.0,True
57651,229, Note_on_c,77,76,6,1,1,90.0,True
57652,230, Note_on_c,65,76,6,1,1,76.0,True
57653,231, Note_on_c,70,76,6,1,1,81.0,False
57654,231, Note_on_c,73,76,6,1,1,85.0,False
57655,232, Note_on_c,72,76,6,1,1,84.0,True
57656,232, Note_on_c,75,76,6,1,1,87.0,False
57657,233, Note_on_c,65,76,6,1,1,76.0,True
57658,234, Note_on_c,70,76,6,1,1,81.0,False
57659,234, Note_on_c,73,76,6,1,1,85.0,False
57660,235, Note_on_c,72,76,6,1,1,84.0,True
57661,235, Note_on_c,75,76,6,1,1,87.0,False
57662,236, Note_on_c,70,76,6,1,1,81.0,False
57663,236, Note_on_c,73,76,6,1,1,85.0,False
57664,237, Note_on_c,72,76,6,1,1,84.0,True
57665,237, Note_on_c,77,76,6,1,1,90.0,True
57666,238, Note_on_c,65,76,6,1,1,76.0,True
57667,239, Note_on_c,70,76,6,1,1,81.0,False
57668,239, Note_on_c,73,76,6,1,1,85.0,False
57669,240, Note_on_c,72,76,6,1,1,84.0,True
57670,240, Note_on_c,75,76,6,1,1,87.0,False
57671,241, Note_on_c,65,76,6,1,1,76.0,True
57672,242, Note_on_c,70,76,6,1,1,81.0,False
57673,242, Note_on_c,73,76,6,1,1,85.0,False
57674,243, Note_on_c,72,76,6,1,1,84.0,True
57675,243, Note_on_c,75,76,6,1,1,87.0,False
57676,244, Note_on_c,70,76,6,1,1,81.0,False
57677,244, Note_on_c,73,76,6,1,1,85.0,False
57678,245, Note_on_c,72,76,6,1,1,84.0,True
57679,245, Note_on_c,77,76,6,1,1,90.0,True
57680,246, Note_on_c,65,76,6,1,1,76.0,True
57681,247, Note_on_c,70,76,6,1,1,81.0,False
57682,247, Note_on_c,73,76,6,1,1,85.0,False
57683,248, Note_on_c,72,76,6,1,1,84.0,True
57684,248, Note_on_c,75,76,6,1,1,87.0,False
57685,249, Note_on_c,65,76,6,1,1,76.0,True
57686,250, Note_on_c,70,76,6,1,1,81.0,False
57687,250, Note_on_c,73,76,6,1,1,85.0,False
57688,251, Note_on_c,72,76,6,1,1,84.0,True
57689,251, Note_on_c,75,76,6,1,1,87.0,False
57690,252, Note_on_c,70,76,6,1,1,81.0,False
57691,252, Note_on_c,73,76,6,1,1,85.0,False
57692,253, Note_on_c,72,76,6,1,1,84.0,True
57693,253, Note_on_c,77,76,6,1,1,90.0,True
57694,254, Note_on_c,65,76,6,1,1,76.0,True
57695,255, Note_on_c,70,76,6,1,1,81.0,False
57696,255, Note_on_c,73,76,6,1,1,85.0,False
57697,256, Note_on_c,72,76,6,1,1,84.0,True
57698,256, Note_on_c,75,76,6,1,1,87.0,False
57699,257, Note_on_c,65,76,6,1,1,76.0,True
57700,258, Note_on_c,70,76,6,1,1,81.0,False
57701,258, Note_on_c,73,76,6,1,1,85.0,False
57702,259, Note_on_c,72,76,6,1,1,84.0,True
57703,259, Note_on_c,75,76,6,1,1,87.0,False
57704,260, Note_on_c,70,76,6,1,1,81.0,False
57705,260, Note_on_c,73,76,6,1,1,85.0,False
57706,261, Note_on_c,72,76,6,1,1,84.0,True
57707,261, Note_on_c,77,76,6,1,1,90.0,True
57708,262, Note_on_c,65,76,6,1,1,76.0,True
57709,263, Note_on_c,70,76,6,1,1,81.0,False
57710,263, Note_on_c,73,76,6,1,1,85.0,False
57711,264, Note_on_c,72,76,6,1,1,84.0,True
57712,264, Note_on_c,75,76,6,1,1,87.0,False
57713,265, Note_on_c,65,76,6,1,1,76.0,True
57714,266, Note_on_c,70,76,6,1,1,81.0,False
57715,266, Note_on_c,73,76,6,1,1,85.0,False
57716,267, Note_on_c,72,76,6,1,1,84.0,True
57717,267, Note_on_c,75,76,6,1,1,87.0,False
57718,268, Note_on_c,70,76,6,1,1,81.0,False
57719,268, Note_on_c,73,76,6,1,1,85.0,False
57720,269, Note_on_c,72,76,6,1,1,84.0,True
57721,269, Note_on_c,77,76,6,1,1,90.0,True
57722,270, Note_on_c,65,76,6,1,1,76.0,True
57723,271, Note_on_c,70,76,6,1,1,81.0,False
57724,271, Note_on_c,73,76,6,1,1,85.0,False
57725,272, Note_on_c,72,76,6,1,1,84.0,True
57726,272, Note_on_c,75,76,6,1,1,87.0,False
57727,273, Note_on_c,65,76,6,1,1,76.0,True
57728,274, Note_on_c,70,76,6,1,1,81.0,False
57729,274, Note_on_c,73,76,6,1,1,85.0,False
57730,275, Note_on_c,72,76,6,1,1,84.0,True
57731,275, Note_on_c,75,76,6,1,1,87.0,False
57732,276, Note_on_c,70,76,6,1,1,81.0,False
57733,276, Note_on_c,73,76,6,1,1,85.0,False
57734,277, Note_on_c,72,76,6,1,1,84.0,True
57735,277, Note_on_c,77,76,6,1,1,90.0,True
57736,278, Note_on_c,65,76,6,1,1,76.0,True
57737,279, Note_on_c,70,76,6,1,1,81.0,False
57738,279, Note_on_c,73,76,6,1,1,85.0,False
57739,280, Note_on_c,72,76,6,1,1,84.0,True
57740,280, Note_on_c,75,76,6,1,1,87.0,False
57741,281, Note_on_c,65,76,6,1,1,76.0,True
57742,282, Note_on_c,70,76,6,1,1,81.0,False
57743,282, Note_on_c,73,76,6,1,1,85.0,False
57744,283, Note_on_c,72,76,6,1,1,84.0,True
57745,283, Note_on_c,75,76,6,1,1,87.0,False
57746,284, Note_on_c,70,76,6,1,1,81.0,False
57747,284, Note_on_c,73,76,6,1,1,85.0,False
57748,285, Note_on_c,72,76,6,1,1,84.0,True
57749,285, Note_on_c,77,76,6,1,1,90.0,True
57750,286, Note_on_c,65,76,6,1,1,76.0,True
57751,287, Note_on_c,70,76,6,1,1,81.0,False
57752,287, Note_on_c,73,76,6,1,1,85.0,False
57753,288, Note_on_c,72,76,6,1,1,84.0,True
57754,288, Note_on_c,75,76,6,1,1,87.0,False
57755,289, Note_on_c,65,76,6,1,1,76.0,True
57756,290, Note_on_c,70,76,6,1,1,81.0,False
57757,290, Note_on_c,73,76,6,1,1,85.0,False
57758,291, Note_on_c,72,76,6,1,1,84.0,True
57759,291, Note_on_c,75,76,6,1,1,87.0,False
57760,292, Note_on_c,70,76,6,1,1,81.0,False
57761,292, Note_on_c,73,76,6,1,1,85.0,False
57762,293, Note_on_c,72,76,6,1,1,84.0,True
57763,293, Note_on_c,77,76,6,1,1,90.0,True
57764,294, Note_on_c,65,76,6,1,1,76.0,True
57765,295, Note_on_c,70,76,6,1,1,81.0,False
57766,295, Note_on_c,73,76,6,1,1,85.0,False
57767,296, Note_on_c,72,76,6,1,1,84.0,True
57768,296, Note_on_c,75,76,6,1,1,87.0,False
57769,297, Note_on_c,65,76,6,1,1,76.0,True
57770,298, Note_on_c,70,76,6,1,1,81.0,False
57771,298, Note_on_c,73,76,6,1,1,85.0,False
57772,299, Note_on_c,72,76,6,1,1,84.0,True
57773,299, Note_on_c,75,76,6,1,1,87.0,False
57774,300, Note_on_c,70,76,6,1,1,81.0,False
57775,300, Note_on_c,73,76,6,1,1,85.0,False
57776,301, Note_on_c,72,76,6,1,1,84.0,True
57777,301, Note_on_c,77,76,6,1,1,90.0,True
57778,302, Note_on_c,65,76,6,1,1,76.0,True
57779,303, Note_on_c,70,76,6,1,1,81.0,False
57780,303, Note_on_c,73,76,6,1,1,85.0,False
57781,304, Note_on_c,72,76,6,1,1,84.0,True
57782,304, Note_on_c,75,76,6,1,1,87.0,False
57783,305, Note_on_c,65,76,6,1,1,76.0,True
57784,306, Note_on_c,70,76,6,1,1,81.0,False
57785,306, Note_on_c,73,76,6,1,1,85.0,False
57786,307, Note_on_c,72,76,6,1,1,84.0,True
57787,307, Note_on_c,75,76,6,1,1,87.0,False
57788,308, Note_on_c,70,76,6,1,1,81.0,False
57789,308, Note_on_c,73,76,6,1,1,85.0,False
57790,309, Note_on_c,72,76,6,1,1,84.0,True
57791,309, Note_on_c,77,76,6,1,1,90.0,True
57792,310, Note_on_c,65,76,6,1,1,76.0,True
57793,311, Note_on_c,70,76,6,1,1,81.0,False
57794,311, Note_on_c,73,76,6,1,1,85.0,False
57795,312, Note_on_c,72,76,6,1,1,84.0,True
57796,312, Note_on_c,75,76,6,1,1,87.0,False
57797,313, Note_on_c,65,76,6,1,1,76.0,True
57798,314, Note_on_c,70,76,6,1,1,81.0,False
57799,314, Note_on_c,73,76,6,1,1,85.0,False
57800,315, Note_on_c,72,76,6,1,1,84.0,True
57801,315, Note_on_c,75,76,6,1,1,87.0,False
57802,316, Note_on_c,70,76,6,1,1,81.0,False
57803,316, Note_on_c,73,76,6,1,1,85.0,False
57804,317, Note_on_c,72,76,6,1,1,84.0,True
57805,317, Note_on_c,77,76,6,1,1,90.0,True
57806,318, Note_on_c,65,76,6,1,1,76.0,True
57807,319, Note_on_c,70,76,6,1,1,81.0,False
57808,319, Note_on_c,73,76,6,1,1,85.0,False
57809,320, Note_on_c,72,76,6,1,1,84.0,True
57810,320, Note_on_c,75,76,6,1,1,87.0,False
57811,321, Note_on_c,65,76,6,1,1,76.0,True
57812,322, Note_on_c,70,76,6,1,1,81.0,False
57813,322, Note_on_c,73,76,6,1,1,85.0,False
57814,323, Note_on_c,72,76,6,1,1,84.0,True
57815,323, Note_on_c,75,76,6,1,1,87.0,False
57816,324, Note_on_c,70,76,6,1,1,81.0,False
57817,324, Note_on_c,73,76,6,1,1,85.0,False
57818,325, Note_on_c,72,76,6,1,1,84.0,True
57819,325, Note_on_c,77,76,6,1,1,90.0,True
57820,326, Note_on_c,65,76,6,1,1,76.0,True
57821,327, Note_on_c,70,76,6,1,1,81.0,False
57822,327, Note_on_c,73,76,6,1,1,85.0,False
57823,328, Note_on_c,72,76,6,1,1,84.0,True
57824,328, Note_on_c,75,76,6,1,1,87.0,False
57825,329, Note_on_c,65,76,6,1,1,76.0,True
57826,330, Note_on_c,70,76,6,1,1,81.0,False
57827,330, Note_on_c,73,76,6,1,1,85.0,False
57828,331, Note_on_c,72,76,6,1,1,84.0,True
57829,331, Note_on_c,75,76,6,1,1,87.0,False
57830,332, Note_on_c,70,76,6,1,1,81.0,False
57831,332, Note_on_c,73,76,6,1,1,85.0,False
57832,333, Note_on_c,72,76,6,1,1,84.0,True
57833,333, Note_on_c,77,76,6,1,1,90.0,True
57834,334, Note_on_c,65,76,6,1,1,76.0,True
57835,335, Note_on_c,70,76,6,1,1,81.0,False
57836,335, Note_on_c,73,76,6,1,1,85.0,False
57837,336, Note_on_c,72,76,6,1,1,84.0,True
57838,336, Note_on_c,75,76,6,1,1,87.0,False
57839,337, Note_on_c,65,76,6,1,1,76.0,True
57840,338, Note_on_c,70,76,6,1,1,81.0,False
57841,338, Note_on_c,73,76,6,1,1,85.0,False
57842,339, Note_on_c,72,76,6,1,1,84.0,True
57843,339, Note_on_c,75,76,6,1,1,87.0,False
57844,340, Note_on_c,70,76,6,1,1,81.0,False
57845,340, Note_on_c,73,76,6,1,1,85.0,False
57846,341, Note_on_c,72,76,6,1,1,84.0,True
57847,341, Note_on_c,77,76,6,1,1,90.0,True
57848,342, Note_on_c,65,76,6,1,1,76.0,True
57849,343, Note_on_c,70,76,6,1,1,81.0,False
57850,343, Note_on_c,73,76,6,1,1,85.0,False
57851,344, Note_on_c,72,76,6,1,1,84.0,True
57852,344, Note_on_c,75,76,6,1,1,87.0,False
57853,345, Note_on_c,65,76,6,1,1,76.0,True
57854,346, Note_on_c,70,76,6,1,1,81.0,False
57855,346, Note_on_c,73,76,6,1,1,85.0,False
57856,347, Note_on_c,72,76,6,1,1,84.0,True
57857,347, Note_on_c,75,76,6,1,1,87.0,False
57858,348, Note_on_c,70,76,6,1,1,81.0,False
57859,348, Note_on_c,73,76,6,1,1,85.0,False
57860,349, Note_on_c,72,76,6,1,1,84.0,True
57861,349, Note_on_c,77,76,6,1,1,90.0,True
57862,350, Note_on_c,65,76,6,1,1,76.0,True
57863,351, Note_on_c,70,76,6,1,1,81.0,False
57864,351, Note_on_c,73,76,6,1,1,85.0,False
57865,352, Note_on_c,72,76,6,1,1,84.0,True
57866,352, Note_on_c,75,76,6,1,1,87.0,False
57867,353, Note_on_c,65,76,6,1,1,76.0,True
57868,354, Note_on_c,70,76,6,1,1,81.0,False
57869,354, Note_on_c,73,76,6,1,1,85.0,False
57870,355, Note_on_c,72,76,6,1,1,84.0,True
57871,355, Note_on_c,75,76,6,1,1,87.0,False
57872,356, Note_on_c,70,76,6,1,1,81.0,False
57873,356, Note_on_c,73,76,6,1,1,85.0,False
57874,357, Note_on_c,72,76,6,1,1,84.0,True
57875,357, Note_on_c,77,76,6,1,1,90.0,True
57876,358, Note_on_c,65,76,6,1,1,76.0,True
57877,359, Note_on_c,70,76,6,1,1,81.0,False
57878,359, Note_on_c,73,76,6,1,1,85.0,False
57879,360, Note_on_c,72,76,6,1,1,84.0,True
57880,360, Note_on_c,75,76,6,1,1,87.0,False
57881,361, Note_on_c,65,76,6,1,1,76.0,True
57882,362, Note_on_c,70,76,6,1,1,81.0,False
57883,362, Note_on_c,73,76,6,1,1,85.0,False
57884,363, Note_on_c,72,76,6,1,1,84.0,True
57885,363, Note_on_c,75,76,6,1,1,87.0,False
57886,364, Note_on_c,70,76,6,1,1,81.0,False
57887,364, Note_on_c,73,76,6,1,1,85.0,False
57888,365, Note_on_c,72,76,6,1,1,84.0,True
57889,365, Note_on_c,77,76,6,1,1,90.0,True
57890,366, Note_on_c,65,76,6,1,1,76.0,True
57891,367, Note_on_c,70,76,6,1,1,81.0,False
57892,367, Note_on_c,73,76,6,1,1,85.0,False
57893,368, Note_on_c,72,76,6,1,1,84.0,True
57894,368, Note_on_c,75,76,6,1,1,87.0,False
57895,369, Note_on_c,65,76,6,1,1,76.0,True
57896,370, Note_on_c,70,76,6,1,1,81.0,False
57897,370, Note_on_c,73,76,6,1,1,85.0,False
57898,371, Note_on_c,72,76,6,1,1,84.0,True
57899,371, Note_on_c,75,76,6,1,1,87.0,False
57900,372, Note_on_c,70,76,6,1,1,81.0,False
57901,372, Note_on_c,73,76,6,1,1,85.0,False
57902,373, Note_on_c,72,76,6,1,1,84.0,True
57903,373, Note_on_c,77,76,6,1,1,90.0,True
57904,374, Note_on_c,65,76,6,1,1,76.0,True
57905,375, Note_on_c,70,76,6,1,1,81.0,False
57906,375, Note_on_c,73,76,6,1,1,85.0,False
57907,376, Note_on_c,72,76,6,1,1,84.0,True
57908,376, Note_on_c,75,76,6,1,1,87.0,False
57909,377, Note_on_c,65,76,6,1,1,76.0,True
57910,378, Note_on_c,70,76,6,1,1,81.0,False
57911,378, Note_on_c,73,76,6,1,1,85.0,False
57912,379, Note_on_c,72,76,6,1,1,84.0,True
57913,379, Note_on_c,75,76,6,1,1,87.0,False
57914,380, Note_on_c,70,76,6,1,1,81.0,False
57915,380, Note_on_c,73,76,6,1,1,85.0,False
57916,381, Note_on_c,72,76,6,1,1,84.0,True
57917,381, Note_on_c,77,76,6,1,1,90.0,True
57918,382, Note_on_c,65,76,6,1,1,76.0,True
57919,383, Note_on_c,70,76,6,1,1,81.0,False
57920,383, Note_on_c,73,76,6,1,1,85.0,False
57921,384, Note_on_c,72,76,6,1,1,84.0,True
57922,384, Note_on_c,75,76,6,1,1,87.0,False
57923,385, Note_on_c,65,76,6,1,1,76.0,True
57924,386, Note_on_c,70,76,6,1,1,81.0,False
57925,386, Note_on_c,73,76,6,1,1,85.0,False
57926,387, Note_on_c,72,76,6,1,1,84.0,True
57927,387, Note_on_c,75,76,6,1,1,87.0,False
57928,388, Note_on_c,70,76,6,1,1,81.0,False
57929,388, Note_on_c,73,76,6,1,1,85.0,False
57930,389, Note_on_c,72,76,6,1,1,84.0,True
57931,389, Note_on_c,77,76,6,1,1,90.0,True
57932,390, Note_on_c,65,76,6,1,1,76.0,True
57933,391, Note_on_c,70,76,6,1,1,81.0,False
57934,391, Note_on_c,73,76,6,1,1,85.0,False
57935,392, Note_on_c,72,76,6,1,1,84.0,True
57936,392, Note_on_c,75,76,6,1,1,87.0,False
57937,393, Note_on_c,65,76,6,1,1,76.0,True
57938,394, Note_on_c,70,76,6,1,1,81.0,False
57939,394, Note_on_c,73,76,6,1,1,85.0,False
57940,395, Note_on_c,72,76,6,1,1,84.0,True
57941,395, Note_on_c,75,76,6,1,1,87.0,False
57942,396, Note_on_c,70,76,6,1,1,81.0,False
57943,396, Note_on_c,73,76,6,1,1,85.0,False
57944,397, Note_on_c,72,76,6,1,1,84.0,True
57945,397, Note_on_c,77,76,6,1,1,90.0,True
57946,398, Note_on_c,65,76,6,1,1,76.0,True
57947,399, Note_on_c,70,76,6,1,1,81.0,False
57948,399, Note_on_c,73,76,6,1,1,85.0,False
57949,400, Note_on_c,72,76,6,1,1,84.0,True
57950,400, Note_on_c,75,76,6,1,1,87.0,False
57951,401, Note_on_c,65,76,6,1,1,76.0,True
57952,402, Note_on_c,70,76,6,1,1,81.0,False
57953,402, Note_on_c,73,76,6,1,1,85.0,False
57954,403, Note_on_c,72,76,6,1,1,84.0,True
57955,403, Note_on_c,75,76,6,1,1,87.0,False
57956,404, Note_on_c,70,76,6,1,1,81.0,False
57957,404, Note_on_c,73,76,6,1,1,85.0,False
57958,405, Note_on_c,72,76,6,1,1,84.0,True
57959,405, Note_on_c,77,76,6,1,1,90.0,True
57960,406, Note_on_c,65,76,6,1,1,76.0,True
57961,407, Note_on_c,70,76,6,1,1,81.0,False
57962,407, Note_on_c,73,76,6,1,1,85.0,False
57963,408, Note_on_c,72,76,6,1,1,84.0,True
57964,408, Note_on_c,75,76,6,1,1,87.0,False
57965,409, Note_on_c,65,76,6,1,1,76.0,True
57966,410, Note_on_c,70,76,6,1,1,81.0,False
57967,410, Note_on_c,73,76,6,1,1,85.0,False
57968,411, Note_on_c,72,76,6,1,1,84.0,True
57969,411, Note_on_c,75,76,6,1,1,87.0,False
57970,412, Note_on_c,70,76,6,1,1,81.0,False
57971,412, Note_on_c,73,76,6,1,1,85.0,False
57972,413, Note_on_c,72,76,6,1,1,84.0,True
57973,413, Note_on_c,77,76,6,1,1,90.0,True
57974,414, Note_on_c,65,76,6,1,1,76.0,True
57975,415, Note_on_c,70,76,6,1,1,81.0,False
57976,415, Note_on_c,73,76,6,1,1,85.0,False
57977,416, Note_on_c,72,76,6,1,1,84.0,True
57978,416, Note_on_c,75,76,6,1,1,87.0,False
57979,417, Note_on_c,65,76,6,1,1,76.0,True
57980,418, Note_on_c,70,76,6,1,1,81.0,False
57981,418, Note_on_c,73,76,6,1,1,85.0,False
57982,419, Note_on_c,72,76,6,1,1,84.0,True
57983,419, Note_on_c,75,76,6,1,1,87.0,False
57984,420, Note_on_c,70,76,6,1,1,81.0,False
57985,420, Note_on_c,73,76,6,1,1,85.0,False
57986,421, Note_on_c,72,76,6,1,1,84.0,True
57987,421, Note_on_c,77,76,6,1,1,90.0,True
57988,422, Note_on_c,65,76,6,1,1,76.0,True
57989,423, Note_on_c,70,76,6,1,1,81.0,False
57990,423, Note_on_c,73,76,6,1,1,85.0,False
57991,424, Note_on_c,72,76,6,1,1,84.0,True
57992,424, Note_on_c,75,76,6,1,1,87.0,False
57993,425, Note_on_c,65,76,6,1,1,76.0,True
57994,426, Note_on_c,70,76,6,1,1,81.0,False
57995,426, Note_on_c,73,76,6,1,1,85.0,False
57996,427, Note_on_c,72,76,6,1,1,84.0,True
57997,427, Note_on_c,75,76,6,1,1,87.0,False
57998,428, Note_on_c,70,76,6,1,1,81.0,False
57999,428, Note_on_c,73,76,6,1,1,85.0,False
58000,429, Note_on_c,72,76,6,1,1,84.0,True
58001,429, Note_on_c,77,76,6,1,1,90.0,True
58002,430, Note_on_c,65,76,6,1,1,76.0,True
58003,431, Note_on_c,70,76,6,1,1,81.0,False
58004,431, Note_on_c,73,76,6,1,1,85.0,False
58005,432, Note_on_c,72,76,6,1,1,84.0,True
58006,432, Note_on_c,75,76,6,1,1,87.0,False
58007,433, Note_on_c,65,76,6,1,1,76.0,True
58008,434, Note_on_c,70,76,6,1,1,81.0,False
58009,434, Note_on_c,73,76,6,1,1,85.0,False
58010,435, Note_on_c,72,76,6,1,1,84.0,True
58011,435, Note_on_c,75,76,6,1,1,87.0,False
58012,436, Note_on_c,70,76,6,1,1,81.0,False
58013,436, Note_on_c,73,76,6,1,1,85.0,False
58014,437, Note_on_c,72,76,6,1,1,84.0,True
58015,437, Note_on_c,77,76,6,1,1,90.0,True
58016,438, Note_on_c,65,76,6,1,1,76.0,True
58017,439, Note_on_c,70,76,6,1,1,81.0,False
58018,439, Note_on_c,73,76,6,1,1,85.0,False
58019,440, Note_on_c,72,76,6,1,1,84.0,True
58020,440, Note_on_c,75,76,6,1,1,87.0,False
58021,441, Note_on_c,65,76,6,1,1,76.0,True
58022,442, Note_on_c,70,76,6,1,1,81.0,False
58023,442, Note_on_c,73,76,6,1,1,85.0,False
58024,443, Note_on_c,72,76,6,1,1,84.0,True
58025,443, Note_on_c,75,76,6,1,1,87.0,False
58026,444, Note_on_c,70,76,6,1,1,81.0,False
58027,444, Note_on_c,73,76,6,1,1,85.0,False
58028,445, Note_on_c,72,76,6,1,1,84.0,True
58029,445, Note_on_c,77,76,6,1,1,90.0,True
58030,446, Note_on_c,65,76,6,1,1,76.0,True
58031,447, Note_on_c,70,76,6,1,1,81.0,False
58032,447, Note_on_c,73,76,6,1,1,85.0,False
58033,448, Note_on_c,72,76,6,1,1,84.0,True
58034,448, Note_on_c,75,76,6,1,1,87.0,False
58035,449, Note_on_c,65,76,6,1,1,76.0,True
58036,450, Note_on_c,70,76,6,1,1,81.0,False
58037,450, Note_on_c,73,76,6,1,1,85.0,False
58038,451, Note_on_c,72,76,6,1,1,84.0,True
58039,451, Note_on_c,75,76,6,1,1,87.0,False
58040,452, Note_on_c,70,76,6,1,1,81.0,False
58041,452, Note_on_c,73,76,6,1,1,85.0,False
58042,453, Note_on_c,72,76,6,1,1,84.0,True
58043,453, Note_on_c,77,76,6,1,1,90.0,True
58044,454, Note_on_c,65,76,6,1,1,76.0,True
58045,455, Note_on_c,70,76,6,1,1,81.0,False
58046,455, Note_on_c,73,76,6,1,1,85.0,False
58047,456, Note_on_c,72,76,6,1,1,84.0,True
58048,456, Note_on_c,75,76,6,1,1,87.0,False
58049,457, Note_on_c,65,76,6,1,1,76.0,True
58050,458, Note_on_c,70,76,6,1,1,81.0,False
58051,458, Note_on_c,73,76,6,1,1,85.0,False
58052,459, Note_on_c,72,76,6,1,1,84.0,True
58053,459, Note_on_c,75,76,6,1,1,87.0,False
58054,460, Note_on_c,70,76,6,1,1,81.0,False
58055,460, Note_on_c,73,76,6,1,1,85.0,False
58056,461, Note_on_c,72,76,6,1,1,84.0,True
58057,461, Note_on_c,77,76,6,1,1,90.0,True
58058,462, Note_on_c,65,76,6,1,1,76.0,True
58059,463, Note_on_c,70,76,6,1,1,81.0,False
58060,463, Note_on_c,73,76,6,1,1,85.0,False
58061,464, Note_on_c,72,76,6,1,1,84.0,True
58062,464, Note_on_c,75,76,6,1,1,87.0,False
58063,465, Note_on_c,65,76,6,1,1,76.0,True
58064,466, Note_on_c,70,76,6,1,1,81.0,False
58065,466, Note_on_c,73,76,6,1,1,85.0,False
58066,467, Note_on_c,72,76,6,1,1,84.0,True
58067,467, Note_on_c,75,76,6,1,1,87.0,False
58068,468, Note_on_c,70,76,6,1,1,81.0,False
58069,468, Note_on_c,73,76,6,1,1,85.0,False
58070,469, Note_on_c,72,76,6,1,1,84.0,True
58071,469, Note_on_c,77,76,6,1,1,90.0,True
58072,470, Note_on_c,65,76,6,1,1,76.0,True
58073,471, Note_on_c,70,76,6,1,1,81.0,False
58074,471, Note_on_c,73,76,6,1,1,85.0,False
58075,472, Note_on_c,72,76,6,1,1,84.0,True
58076,472, Note_on_c,75,76,6,1,1,87.0,False
58077,473, Note_on_c,65,76,6,1,1,76.0,True
58078,474, Note_on_c,70,76,6,1,1,81.0,False
58079,474, Note_on_c,73,76,6,1,1,85.0,False
58080,475, Note_on_c,72,76,6,1,1,84.0,True
58081,475, Note_on_c,75,76,6,1,1,87.0,False
58082,476, Note_on_c,70,76,6,1,1,81.0,False
58083,476, Note_on_c,73,76,6,1,1,85.0,False
58084,477, Note_on_c,72,76,6,1,1,84.0,True
58085,477, Note_on_c,77,76,6,1,1,90.0,True
58086,478, Note_on_c,65,76,6,1,1,76.0,True
58087,479, Note_on_c,70,76,6,1,1,81.0,False
58088,479, Note_on_c,73,76,6,1,1,85.0,False
58089,480, Note_on_c,72,76,6,1,1,84.0,True
58090,480, Note_on_c,75,76,6,1,1,87.0,False
58091,481, Note_on_c,65,76,6,1,1,76.0,True
58092,482, Note_on_c,70,76,6,1,1,81.0,False
58093,482, Note_on_c,73,76,6,1,1,85.0,False
58094,483, Note_on_c,72,76,6,1,1,84.0,True
58095,483, Note_on_c,75,76,6,1,1,87.0,False
58096,484, Note_on_c,70,76,6,1,1,81.0,False
58097,484, Note_on_c,73,76,6,1,1,85.0,False
58098,485, Note_on_c,72,76,6,1,1,84.0,True
58099,485, Note_on_c,77,76,6,1,1,90.0,True
58100,486, Note_on_c,65,76,6,1,1,76.0,True
58101,487, Note_on_c,70,76,6,1,1,81.0,False
58102,487, Note_on_c,73,76,6,1,1,85.0,False
58103,488, Note_on_c,72,76,6,1,1,84.0,True
58104,488, Note_on_c,75,76,6,1,1,87.0,False
58105,489, Note_on_c,65,76,6,1,1,76.0,True
58106,490, Note_on_c,70,76,6,1,1,81.0,False
58107,490, Note_on_c,73,76,6,1,1,85.0,False
58108,491, Note_on_c,72,76,6,1,1,84.0,True
58109,491, Note_on_c,75,76,6,1,1,87.0,False
58110,492, Note_on_c,70,76,6,1,1,81.0,False
58111,492, Note_on_c,73,76,6,1,1,85.0,False
58112,493, Note_on_c,72,76,6,1,1,84.0,True
58113,493, Note_on_c,77,76,6,1,1,90.0,True
58114,494, Note_on_c,65,76,6,1,1,76.0,True
58115,495, Note_on_c,70,76,6,1,1,81.0,False
58116,495, Note_on_c,73,76,6,1,1,85.0,False
58117,496, Note_on_c,72,76,6,1,1,84.0,True
58118,496, Note_on_c,75,76,6,1,1,87.0,False
58119,497, Note_on_c,65,76,6,1,1,76.0,True
58120,498, Note_on_c,70,76,6,1,1,81.0,False
58121,498, Note_on_c,73,76,6,1,1,85.0,False
58122,499, Note_on_c,72,76,6,1,1,84.0,True
58123,499, Note_on_c,75,76,6,1,1,87.0,False
58124,500, Note_on_c,70,76,6,1,1,81.0,False
58125,500, Note_on_c,73,76,6,1,1,85.0,False
58126,501, Note_on_c,72,76,6,1,1,84.0,True
58127,501, Note_on_c,77,76,6,1,1,90.0,True
58128,502, Note_on_c,65,76,6,1,1,76.0,True
58129,503, Note_on_c,70,76,6,1,1,81.0,False
58130,503, Note_on_c,73,76,6,1,1,85.0,False
58131,504, Note_on_c,72,76,6,1,1,84.0,True
58132,504, Note_on_c,75,76,6,1,1,87.0,False
58133,505, Note_on_c,65,76,6,1,1,76.0,True
58134,506, Note_on_c,70,76,6,1,1,81.0,False
58135,506, Note_on_c,73,76,6,1,1,85.0,False
58136,507, Note_on_c,72,76,6,1,1,84.0,True
58137,507, Note_on_c,75,76,6,1,1,87.0,False
58138,508, Note_on_c,70,76,6,1,1,81.0,False
58139,508, Note_on_c,73,76,6,1,1,85.0,False
58140,509, Note_on_c,72,76,6,1,1,84.0,True
58141,509, Note_on_c,77,76,6,1,1,90.0,True
58142,510, Note_on_c,65,76,6,1,1,76.0,True
58143,511, Note_on_c,70,76,6,1,1,81.0,False
58144,511, Note_on_c,73,76,6,1,1,85.0,False
58145,512, Note_on_c,72,76,6,1,1,84.0,True
58146,512, Note_on_c,75,76,6,1,1,87.0,False
58147,513, Note_on_c,65,76,6,1,1,76.0,True
58148,514, Note_on_c,70,76,6,1,1,81.0,False
58149,514, Note_on_c,73,76,6,1,1,85.0,False
58150,515, Note_on_c,72,76,6,1,1,84.0,True
58151,515, Note_on_c,75,76,6,1,1,87.0,False
58152,516, Note_on_c,70,76,6,1,1,81.0,False
58153,516, Note_on_c,73,76,6,1,1,85.0,False
58154,517, Note_on_c,72,76,6,1,1,84.0,True
58155,517, Note_on_c,77,76,6,1,1,90.0,True
58156,518, Note_on_c,65,76,6,1,1,76.0,True
58157,519, Note_on_c,70,76,6,1,1,81.0,False
58158,519, Note_on_c,73,76,6,1,1,85.0,False
58159,520, Note_on_c,72,76,6,1,1,84.0,True
58160,520, Note_on_c,75,76,6,1,1,87.0,False
58161,521, Note_on_c,65,76,6,1,1,76.0,True
58162,522, Note_on_c,70,76,6,1,1,81.0,False
58163,522, Note_on_c,73,76,6,1,1,85.0,False
58164,523, Note_on_c,72,76,6,1,1,84.0,True
58165,523, Note_on_c,75,76,6,1,1,87.0,False
58166,524, Note_on_c,70,76,6,1,1,81.0,False
58167,524, Note_on_c,73,76,6,1,1,85.0,False
58168,525, Note_on_c,72,76,6,1,1,84.0,True
58169,525, Note_on_c,77,76,6,1,1,90.0,True
58170,526, Note_on_c,65,76,6,1,1,76.0,True
58171,527, Note_on_c,70,76,6,1,1,81.0,False
58172,527, Note_on_c,73,76,6,1,1,85.0,False
58173,528, Note_on_c,72,76,6,1,1,84.0,True
58174,528, Note_on_c,75,76,6,1,1,87.0,False
58175,529, Note_on_c,65,76,6,1,1,76.0,True
58176,530, Note_on_c,70,76,6,1,1,81.0,False
58177,530, Note_on_c,73,76,6,1,1,85.0,False
58178,531, Note_on_c,72,76,6,1,1,84.0,True
58179,531, Note_on_c,75,76,6,1,1,87.0,False
58180,532, Note_on_c,70,76,6,1,1,81.0,False
58181,532, Note_on_c,73,76,6,1,1,85.0,False
58182,533, Note_on_c,72,76,6,1,1,84.0,True
58183,533, Note_on_c,77,76,6,1,1,90.0,True
58184,534, Note_on_c,65,76,6,1,1,76.0,True
58185,535, Note_on_c,70,76,6,1,1,81.0,False
58186,535, Note_on_c,73,76,6,1,1,85.0,False
58187,536, Note_on_c,72,76,6,1,1,84.0,True
58188,536, Note_on_c,75,76,6,1,1,87.0,False
58189,537, Note_on_c,65,76,6,1,1,76.0,True
58190,538, Note_on_c,70,76,6,1,1,81.0,False
58191,538, Note_on_c,73,76,6,1,1,85.0,False
58192,539, Note_on_c,72,76,6,1,1,84.0,True
58193,539, Note_on_c,75,76,6,1,1,87.0,False
58194,540, Note_on_c,70,76,6,1,1,81.0,False
58195,540, Note_on_c,73,76,6,1,1,85.0,False
58196,541, Note_on_c,72,76,6,1,1,84.0,True
58197,541, Note_on_c,77,76,6,1,1,90.0,True
58198,542, Note_on_c,65,76,6,1,1,76.0,True
58199,543, Note_on_c,70,76,6,1,1,81.0,False
58200,543, Note_on_c,73,76,6,1,1,85.0,False
58201,544, Note_on_c,72,76,6,1,1,84.0,True
58202,544, Note_on_c,75,76,6,1,1,87.0,False
58203,545, Note_on_c,65,76,6,1,1,76.0,True
58204,546, Note_on_c,70,76,6,1,1,81.0,False
58205,546, Note_on_c,73,76,6,1,1,85.0,False
58206,547, Note_on_c,72,76,6,1,1,84.0,True
58207,547, Note_on_c,75,76,6,1,1,87.0,False
58208,548, Note_on_c,70,76,6,1,1,81.0,False
58209,548, Note_on_c,73,76,6,1,1,85.0,False
58210,549, Note_on_c,72,76,6,1,1,84.0,True
58211,549, Note_on_c,77,76,6,1,1,90.0,True
58212,550, Note_on_c,65,76,6,1,1,76.0,True
58213,551, Note_on_c,70,76,6,1,1,81.0,False
58214,551, Note_on_c,73,76,6,1,1,85.0,False
58215,552, Note_on_c,72,76,6,1,1,84.0,True
58216,552, Note_on_c,75,76,6,1,1,87.0,False
58217,553, Note_on_c,65,76,6,1,1,76.0,True
58218,554, Note_on_c,70,76,6,1,1,81.0,False
58219,554, Note_on_c,73,76,6,1,1,85.0,False
58220,555, Note_on_c,72,76,6,1,1,84.0,True
58221,555, Note_on_c,75,76,6,1,1,87.0,False
58222,556, Note_on_c,70,76,6,1,1,81.0,False
58223,556, Note_on_c,73,76,6,1,1,85.0,False
58224,557, Note_on_c,72,76,6,1,1,84.0,True
58225,557, Note_on_c,77,76,6,1,1,90.0,True
58226,558, Note_on_c,65,76,6,1,1,76.0,True
58227,559, Note_on_c,70,76,6,1,1,81.0,False
58228,559, Note_on_c,73,76,6,1,1,85.0,False
58229,560, Note_on_c,72,76,6,1,1,84.0,True
58230,560, Note_on_c,75,76,6,1,1,87.0,False
58231,561, Note_on_c,65,76,6,1,1,76.0,True
58232,562, Note_on_c,70,76,6,1,1,81.0,False
58233,562, Note_on_c,73,76,6,1,1,85.0,False
58234,563, Note_on_c,72,76,6,1,1,84.0,True
58235,563, Note_on_c,75,76,6,1,1,87.0,False
58236,564, Note_on_c,70,76,6,1,1,81.0,False
58237,564, Note_on_c,73,76,6,1,1,85.0,False
58238,565, Note_on_c,72,76,6,1,1,84.0,True
58239,565, Note_on_c,77,76,6,1,1,90.0,True
58240,566, Note_on_c,65,76,6,1,1,76.0,True
58241,567, Note_on_c,70,76,6,1,1,81.0,False
58242,567, Note_on_c,73,76,6,1,1,85.0,False
58243,568, Note_on_c,72,76,6,1,1,84.0,True
58244,568, Note_on_c,75,76,6,1,1,87.0,False
58245,569, Note_on_c,65,76,6,1,1,76.0,True
58246,570, Note_on_c,70,76,6,1,1,81.0,False
58247,570, Note_on_c,73,76,6,1,1,85.0,False
58248,571, Note_on_c,72,76,6,1,1,84.0,True
58249,571, Note_on_c,75,76,6,1,1,87.0,False
58250,572, Note_on_c,70,76,6,1,1,81.0,False
58251,572, Note_on_c,73,76,6,1,1,85.0,False
58252,573, Note_on_c,72,76,6,1,1,84.0,True
58253,573, Note_on_c,77,76,6,1,1,90.0,True
58254,574, Note_on_c,65,76,6,1,1,76.0,True
58255,575, Note_on_c,70,76,6,1,1,81.0,False
58256,575, Note_on_c,73,76,6,1,1,85.0,False
58257,576, Note_on_c,72,76,6,1,1,84.0,True
58258,576, Note_on_c,75,76,6,1,1,87.0,False
58259,577, Note_on_c,65,76,6,1,1,76.0,True
58260,578, Note_on_c,70,71,6,1,1,81.0,False
58261,578, Note_on_c,73,71,6,1,1,85.0,False
58262,579, Note_on_c,72,67,6,1,1,84.0,True
58263,579, Note_on_c,75,67,6,1,1,87.0,False
58264,580, Note_on_c,70,65,6,1,1,81.0,False
58265,580, Note_on_c,73,65,6,1,1,85.0,False
58266,581, Note_on_c,72,60,6,1,1,84.0,True
58267,581, Note_on_c,77,60,6,1,1,90.0,True
58268,582, Note_on_c,65,56,6,1,1,76.0,True
58269,583, Note_on_c,70,52,6,1,1,81.0,False
58270,583, Note_on_c,73,52,6,1,1,85.0,False
58271,584, Note_on_c,72,48,6,1,1,84.0,True
58272,584, Note_on_c,75,48,6,1,1,87.0,False
58273,585, Note_on_c,65,46,6,1,1,76.0,True
58274,586, Note_on_c,70,42,6,1,1,81.0,False
58275,586, Note_on_c,73,42,6,1,1,85.0,False
58276,587, Note_on_c,72,38,6,1,1,84.0,True
58277,587, Note_on_c,75,38,6,1,1,87.0,False
58278,588, Note_on_c,70,35,6,1,1,81.0,False
58279,588, Note_on_c,73,35,6,1,1,85.0,False
58280,589, Note_on_c,72,33,6,1,1,84.0,True
58281,589, Note_on_c,77,33,6,1,1,90.0,True
58282,590, Note_on_c,65,30,6,1,1,76.0,True
58283,591, Note_on_c,70,26,6,1,1,81.0,False
58284,591, Note_on_c,73,26,6,1,1,85.0,False
58285,592, Note_on_c,72,24,6,1,1,84.0,True
58286,592, Note_on_c,75,24,6,1,1,87.0,False
58287,593, Note_on_c,65,22,6,1,1,76.0,True
58288,594, Note_on_c,70,19,6,1,1,81.0,False
58289,594, Note_on_c,73,19,6,1,1,85.0,False
58290,595, Note_on_c,72,17,6,1,1,84.0,True
58291,595, Note_on_c,75,17,6,1,1,87.0,False
58292,596, Note_on_c,70,15,6,1,1,81.0,False
58293,596, Note_on_c,73,15,6,1,1,85.0,False
58294,597, Note_on_c,72,13,6,1,1,84.0,True
58295,597, Note_on_c,77,13,6,1,1,90.0,True
58296,598, Note_on_c,65,11,6,1,1,76.0,True
58297,599, Note_on_c,70,9,6,1,1,81.0,False
58298,599, Note_on_c,73,9,6,1,1,85.0,False
58299,600, Note_on_c,72,8,6,1,1,84.0,True
58300,600, Note_on_c,75,8,6,1,1,87.0,False
58301,626, Note_on_c,61,6,6,1,1,71.0,False
58302,627, Note_on_c,60,8,6,1,1,70.0,True
58303,628, Note_on_c,61,11,6,1,1,71.0,False
58304,629, Note_on_c,65,14,6,1,1,76.0,True
58305,631, Note_on_c,73,19,6,1,1,85.0,False
58306,632, Note_on_c,65,21,6,1,1,76.0,True
58307,632, Note_on_c,72,21,6,1,1,84.0,True
58308,634, Note_on_c,61,27,6,1,1,71.0,False
58309,635, Note_on_c,60,29,6,1,1,70.0,True
58310,636, Note_on_c,61,32,6,1,1,71.0,False
58311,637, Note_on_c,65,34,6,1,1,76.0,True
58312,639, Note_on_c,73,40,6,1,1,85.0,False
58313,640, Note_on_c,65,42,6,1,1,76.0,True
58314,640, Note_on_c,72,42,6,1,1,84.0,True
58315,642, Note_on_c,61,47,6,1,1,71.0,False
58316,643, Note_on_c,60,50,6,1,1,70.0,True
58317,644, Note_on_c,61,53,6,1,1,71.0,False
58318,645, Note_on_c,65,55,6,1,1,76.0,True
58319,647, Note_on_c,73,61,6,1,1,85.0,False
58320,648, Note_on_c,65,63,6,1,1,76.0,True
58321,648, Note_on_c,72,63,6,1,1,84.0,True
58322,650, Note_on_c,61,68,6,1,1,71.0,False
58323,651, Note_on_c,60,71,6,1,1,70.0,True
58324,652, Note_on_c,61,74,6,1,1,71.0,False
58325,653, Note_on_c,65,76,6,1,1,76.0,True
58326,655, Note_on_c,73,81,6,1,1,85.0,False
58327,656, Note_on_c,65,84,6,1,1,76.0,True
58328,656, Note_on_c,72,84,6,1,1,84.0,True
58329,658, Note_on_c,61,89,6,1,1,71.0,False
58330,659, Note_on_c,60,92,6,1,1,70.0,True
58331,660, Note_on_c,61,94,6,1,1,71.0,False
58332,661, Note_on_c,65,97,6,1,1,76.0,True
58333,663, Note_on_c,73,102,6,1,1,85.0,False
58334,664, Note_on_c,65,105,6,1,1,76.0,True
58335,664, Note_on_c,72,105,6,1,1,84.0,True
58336,666, Note_on_c,61,108,6,1,1,71.0,False
58337,667, Note_on_c,60,108,6,1,1,70.0,True
58338,668, Note_on_c,61,108,6,1,1,71.0,False
58339,669, Note_on_c,65,108,6,1,1,76.0,True
58340,671, Note_on_c,73,108,6,1,1,85.0,False
58341,672, Note_on_c,65,108,6,1,1,76.0,True
58342,672, Note_on_c,72,108,6,1,1,84.0,True
58343,674, Note_on_c,61,108,6,1,1,71.0,False
58344,675, Note_on_c,60,108,6,1,1,70.0,True
58345,676, Note_on_c,61,108,6,1,1,71.0,False
58346,677, Note_on_c,65,108,6,1,1,76.0,True
58347,679, Note_on_c,73,108,6,1,1,85.0,False
58348,680, Note_on_c,65,108,6,1,1,76.0,True
58349,680, Note_on_c,72,108,6,1,1,84.0,True
58350,682, Note_on_c,61,108,6,1,1,71.0,False
58351,683, Note_on_c,60,108,6,1,1,70.0,True
58352,684, Note_on_c,61,108,6,1,1,71.0,False
58353,685, Note_on_c,65,108,6,1,1,76.0,True
58354,687, Note_on_c,73,108,6,1,1,85.0,False
58355,688, Note_on_c,65,108,6,1,1,76.0,True
58356,688, Note_on_c,72,108,6,1,1,84.0,True
58357,690, Note_on_c,61,108,6,1,1,71.0,False
58358,691, Note_on_c,60,108,6,1,1,70.0,True
58359,692, Note_on_c,61,108,6,1,1,71.0,False
58360,693, Note_on_c,65,108,6,1,1,76.0,True
58361,695, Note_on_c,73,108,6,1,1,85.0,False
58362,696, Note_on_c,65,108,6,1,1,76.0,True
58363,696, Note_on_c,72,108,6,1,1,84.0,True
58364,698, Note_on_c,61,108,6,1,1,71.0,False
58365,699, Note_on_c,60,108,6,1,1,70.0,True
58366,700, Note_on_c,61,108,6,1,1,71.0,False
58367,701, Note_on_c,65,108,6,1,1,76.0,True
58368,703, Note_on_c,73,108,6,1,1,85.0,False
58369,704, Note_on_c,65,108,6,1,1,76.0,True
58370,704, Note_on_c,72,108,6,1,1,84.0,True
58371,706, Note_on_c,61,108,6,1,1,71.0,False
58372,707, Note_on_c,60,108,6,1,1,70.0,True
58373,708, Note_on_c,61,108,6,1,1,71.0,False
58374,709, Note_on_c,65,108,6,1,1,76.0,True
58375,711, Note_on_c,73,108,6,1,1,85.0,False
58376,712, Note_on_c,65,108,6,1,1,76.0,True
58377,712, Note_on_c,72,108,6,1,1,84.0,True
58378,714, Note_on_c,61,108,6,1,1,71.0,False
58379,715, Note_on_c,60,108,6,1,1,70.0,True
58380,716, Note_on_c,61,108,6,1,1,71.0,False
58381,717, Note_on_c,65,108,6,1,1,76.0,True
58382,719, Note_on_c,73,108,6,1,1,85.0,False
58383,720, Note_on_c,65,108,6,1,1,76.0,True
58384,720, Note_on_c,72,108,6,1,1,84.0,True
58385,722, Note_on_c,61,108,6,1,1,71.0,False
58386,723, Note_on_c,60,108,6,1,1,70.0,True
58387,724, Note_on_c,61,108,6,1,1,71.0,False
58388,725, Note_on_c,65,108,6,1,1,76.0,True
58389,727, Note_on_c,73,108,6,1,1,85.0,False
58390,728, Note_on_c,65,108,6,1,1,76.0,True
58391,728, Note_on_c,72,108,6,1,1,84.0,True
58392,730, Note_on_c,61,108,6,1,1,71.0,False
58393,731, Note_on_c,60,108,6,1,1,70.0,True
58394,732, Note_on_c,61,108,6,1,1,71.0,False
58395,733, Note_on_c,65,108,6,1,1,76.0,True
58396,735, Note_on_c,73,108,6,1,1,85.0,False
58397,736, Note_on_c,65,108,6,1,1,76.0,True
58398,736, Note_on_c,72,108,6,1,1,84.0,True
58399,738, Note_on_c,61,108,6,1,1,71.0,False
58400,739, Note_on_c,60,108,6,1,1,70.0,True
58401,740, Note_on_c,61,108,6,1,1,71.0,False
58402,741, Note_on_c,65,108,6,1,1,76.0,True
58403,743, Note_on_c,73,108,6,1,1,85.0,False
58404,744, Note_on_c,65,108,6,1,1,76.0,True
58405,744, Note_on_c,72,108,6,1,1,84.0,True
58406,746, Note_on_c,61,108,6,1,1,71.0,False
58407,747, Note_on_c,60,108,6,1,1,70.0,True
58408,748, Note_on_c,61,108,6,1,1,71.0,False
58409,749, Note_on_c,65,108,6,1,1,76.0,True
58410,751, Note_on_c,73,108,6,1,1,85.0,False
58411,752, Note_on_c,65,108,6,1,1,76.0,True
58412,752, Note_on_c,72,108,6,1,1,84.0,True
58413,754, Note_on_c,61,108,6,1,1,71.0,False
58414,755, Note_on_c,60,108,6,1,1,70.0,True
58415,756, Note_on_c,61,108,6,1,1,71.0,False
58416,757, Note_on_c,65,108,6,1,1,76.0,True
58417,759, Note_on_c,73,108,6,1,1,85.0,False
58418,760, Note_on_c,65,108,6,1,1,76.0,True
58419,760, Note_on_c,72,108,6,1,1,84.0,True
58420,762, Note_on_c,61,108,6,1,1,71.0,False
58421,763, Note_on_c,60,108,6,1,1,70.0,True
58422,764, Note_on_c,61,108,6,1,1,71.0,False
58423,765, Note_on_c,65,108,6,1,1,76.0,True
58424,767, Note_on_c,73,108,6,1,1,85.0,False
58425,768, Note_on_c,65,108,6,1,1,76.0,True
58426,768, Note_on_c,72,108,6,1,1,84.0,True
58427,770, Note_on_c,61,108,6,1,1,71.0,False
58428,771, Note_on_c,60,108,6,1,1,70.0,True
58429,772, Note_on_c,61,108,6,1,1,71.0,False
58430,773, Note_on_c,65,108,6,1,1,76.0,True
58431,775, Note_on_c,73,108,6,1,1,85.0,False
58432,776, Note_on_c,65,108,6,1,1,76.0,True
58433,776, Note_on_c,72,108,6,1,1,84.0,True
58434,778, Note_on_c,61,108,6,1,1,71.0,False
58435,779, Note_on_c,60,108,6,1,1,70.0,True
58436,780, Note_on_c,61,108,6,1,1,71.0,False
58437,781, Note_on_c,65,108,6,1,1,76.0,True
58438,783, Note_on_c,73,108,6,1,1,85.0,False
58439,784, Note_on_c,65,108,6,1,1,76.0,True
58440,784, Note_on_c,72,108,6,1,1,84.0,True
58441,786, Note_on_c,61,103,6,1,1,71.0,False
58442,787, Note_on_c,60,98,6,1,1,70.0,True
58443,788, Note_on_c,61,94,6,1,1,71.0,False
58444,789, Note_on_c,65,89,6,1,1,76.0,True
58445,791, Note_on_c,73,81,6,1,1,85.0,False
58446,792, Note_on_c,65,76,6,1,1,76.0,True
58447,792, Note_on_c,72,76,6,1,1,84.0,True
58448,794, Note_on_c,61,67,6,1,1,71.0,False
58449,795, Note_on_c,60,63,6,1,1,70.0,True
58450,796, Note_on_c,61,59,6,1,1,71.0,False
58451,797, Note_on_c,65,54,6,1,1,76.0,True
58452,799, Note_on_c,73,45,6,1,1,85.0,False
58453,800, Note_on_c,65,41,6,1,1,76.0,True
58454,800, Note_on_c,72,41,6,1,1,84.0,True
58455,802, Note_on_c,61,32,6,1,1,71.0,False
58456,803, Note_on_c,60,28,6,1,1,70.0,True
58457,804, Note_on_c,61,23,6,1,1,71.0,False
58458,805, Note_on_c,65,19,6,1,1,76.0,True
58459,807, Note_on_c,73,10,6,1,1,85.0,False
58460,808, Note_on_c,65,6,6,1,1,76.0,True
58461,808, Note_on_c,72,6,6,1,1,84.0,True
58462,849, Note_on_c,65,4,6,1,1,76.0,True
58463,850, Note_on_c,66,8,6,1,1,77.0,False
58464,851, Note_on_c,68,13,6,1,1,79.0,False
58465,852, Note_on_c,70,17,6,1,1,81.0,False
58466,853, Note_on_c,72,21,6,1,1,84.0,True
58467,854, Note_on_c,65,26,6,1,1,76.0,True
58468,855, Note_on_c,73,30,6,1,1,85.0,False
58469,856, Note_on_c,72,34,6,1,1,84.0,True
58470,857, Note_on_c,65,39,6,1,1,76.0,True
58471,858, Note_on_c,66,43,6,1,1,77.0,False
58472,859, Note_on_c,68,47,6,1,1,79.0,False
58473,860, Note_on_c,70,51,6,1,1,81.0,False
58474,861, Note_on_c,72,56,6,1,1,84.0,True
58475,862, Note_on_c,65,60,6,1,1,76.0,True
58476,863, Note_on_c,73,64,6,1,1,85.0,False
58477,864, Note_on_c,72,69,6,1,1,84.0,True
58478,865, Note_on_c,65,73,6,1,1,76.0,True
58479,866, Note_on_c,66,77,6,1,1,77.0,False
58480,867, Note_on_c,68,82,6,1,1,79.0,False
58481,868, Note_on_c,70,86,6,1,1,81.0,False
58482,869, Note_on_c,72,90,6,1,1,84.0,True
58483,870, Note_on_c,65,95,6,1,1,76.0,True
58484,871, Note_on_c,73,99,6,1,1,85.0,False
58485,872, Note_on_c,72,103,6,1,1,84.0,True
58486,873, Note_on_c,65,108,6,1,1,76.0,True
58487,874, Note_on_c,66,108,6,1,1,77.0,False
58488,875, Note_on_c,68,108,6,1,1,79.0,False
58489,876, Note_on_c,70,108,6,1,1,81.0,False
58490,877, Note_on_c,72,108,6,1,1,84.0,True
58491,878, Note_on_c,65,108,6,1,1,76.0,True
58492,879, Note_on_c,73,108,6,1,1,85.0,False
58493,880, Note_on_c,72,108,6,1,1,84.0,True
58494,881, Note_on_c,65,108,6,1,1,76.0,True
58495,882, Note_on_c,66,108,6,1,1,77.0,False
58496,883, Note_on_c,68,108,6,1,1,79.0,False
58497,884, Note_on_c,70,108,6,1,1,81.0,False
58498,885, Note_on_c,72,108,6,1,1,84.0,True
58499,886, Note_on_c,65,108,6,1,1,76.0,True
58500,887, Note_on_c,73,108,6,1,1,85.0,False
58501,888, Note_on_c,72,108,6,1,1,84.0,True
58502,889, Note_on_c,65,108,6,1,1,76.0,True
58503,890, Note_on_c,66,108,6,1,1,77.0,False
58504,891, Note_on_c,68,108,6,1,1,79.0,False
58505,892, Note_on_c,70,108,6,1,1,81.0,False
58506,893, Note_on_c,72,108,6,1,1,84.0,True
58507,894, Note_on_c,65,108,6,1,1,76.0,True
58508,895, Note_on_c,73,108,6,1,1,85.0,False
58509,896, Note_on_c,72,108,6,1,1,84.0,True
58510,897, Note_on_c,65,108,6,1,1,76.0,True
58511,898, Note_on_c,66,108,6,1,1,77.0,False
58512,899, Note_on_c,68,108,6,1,1,79.0,False
58513,900, Note_on_c,70,108,6,1,1,81.0,False
58514,901, Note_on_c,72,108,6,1,1,84.0,True
58515,902, Note_on_c,65,108,6,1,1,76.0,True
58516,903, Note_on_c,73,108,6,1,1,85.0,False
58517,904, Note_on_c,72,108,6,1,1,84.0,True
58518,905, Note_on_c,65,108,6,1,1,76.0,True
58519,906, Note_on_c,66,108,6,1,1,77.0,False
58520,907, Note_on_c,68,108,6,1,1,79.0,False
58521,908, Note_on_c,70,108,6,1,1,81.0,False
58522,909, Note_on_c,72,108,6,1,1,84.0,True
58523,910, Note_on_c,65,108,6,1,1,76.0,True
58524,911, Note_on_c,73,108,6,1,1,85.0,False
58525,912, Note_on_c,72,108,6,1,1,84.0,True
58526,913, Note_on_c,65,108,6,1,1,76.0,True
58527,914, Note_on_c,66,108,6,1,1,77.0,False
58528,915, Note_on_c,68,108,6,1,1,79.0,False
58529,916, Note_on_c,70,108,6,1,1,81.0,False
58530,917, Note_on_c,72,108,6,1,1,84.0,True
58531,918, Note_on_c,65,108,6,1,1,76.0,True
58532,919, Note_on_c,73,108,6,1,1,85.0,False
58533,920, Note_on_c,72,108,6,1,1,84.0,True
58534,921, Note_on_c,65,108,6,1,1,76.0,True
58535,922, Note_on_c,66,108,6,1,1,77.0,False
58536,923, Note_on_c,68,108,6,1,1,79.0,False
58537,924, Note_on_c,70,108,6,1,1,81.0,False
58538,925, Note_on_c,72,108,6,1,1,84.0,True
58539,926, Note_on_c,65,108,6,1,1,76.0,True
58540,927, Note_on_c,73,108,6,1,1,85.0,False
58541,928, Note_on_c,72,108,6,1,1,84.0,True
58542,929, Note_on_c,65,108,6,1,1,76.0,True
58543,930, Note_on_c,66,108,6,1,1,77.0,False
58544,931, Note_on_c,68,108,6,1,1,79.0,False
58545,932, Note_on_c,70,108,6,1,1,81.0,False
58546,933, Note_on_c,72,108,6,1,1,84.0,True
58547,934, Note_on_c,65,108,6,1,1,76.0,True
58548,935, Note_on_c,73,108,6,1,1,85.0,False
58549,936, Note_on_c,72,108,6,1,1,84.0,True
58550,937, Note_on_c,65,108,6,1,1,76.0,True
58551,938, Note_on_c,66,108,6,1,1,77.0,False
58552,939, Note_on_c,68,108,6,1,1,79.0,False
58553,940, Note_on_c,70,108,6,1,1,81.0,False
58554,941, Note_on_c,72,108,6,1,1,84.0,True
58555,942, Note_on_c,65,108,6,1,1,76.0,True
58556,943, Note_on_c,73,108,6,1,1,85.0,False
58557,944, Note_on_c,72,108,6,1,1,84.0,True
58558,945, Note_on_c,65,108,6,1,1,76.0,True
58559,946, Note_on_c,66,108,6,1,1,77.0,False
58560,947, Note_on_c,68,108,6,1,1,79.0,False
58561,948, Note_on_c,70,108,6,1,1,81.0,False
58562,949, Note_on_c,72,108,6,1,1,84.0,True
58563,950, Note_on_c,65,108,6,1,1,76.0,True
58564,951, Note_on_c,73,108,6,1,1,85.0,False
58565,952, Note_on_c,72,108,6,1,1,84.0,True
58566,953, Note_on_c,65,108,6,1,1,76.0,True
58567,954, Note_on_c,66,108,6,1,1,77.0,False
58568,955, Note_on_c,68,108,6,1,1,79.0,False
58569,956, Note_on_c,70,108,6,1,1,81.0,False
58570,957, Note_on_c,72,108,6,1,1,84.0,True
58571,958, Note_on_c,65,108,6,1,1,76.0,True
58572,959, Note_on_c,73,108,6,1,1,85.0,False
58573,960, Note_on_c,72,108,6,1,1,84.0,True
58574,961, Note_on_c,65,108,6,1,1,76.0,True
58575,962, Note_on_c,66,108,6,1,1,77.0,False
58576,963, Note_on_c,68,108,6,1,1,79.0,False
58577,964, Note_on_c,70,108,6,1,1,81.0,False
58578,965, Note_on_c,72,108,6,1,1,84.0,True
58579,966, Note_on_c,65,108,6,1,1,76.0,True
58580,967, Note_on_c,73,108,6,1,1,85.0,False
58581,968, Note_on_c,72,108,6,1,1,84.0,True
58582,969, Note_on_c,65,108,6,1,1,76.0,True
58583,970, Note_on_c,66,108,6,1,1,77.0,False
58584,971, Note_on_c,68,108,6,1,1,79.0,False
58585,972, Note_on_c,70,108,6,1,1,81.0,False
58586,973, Note_on_c,72,108,6,1,1,84.0,True
58587,974, Note_on_c,65,108,6,1,1,76.0,True
58588,975, Note_on_c,73,108,6,1,1,85.0,False
58589,976, Note_on_c,72,108,6,1,1,84.0,True
58590,977, Note_on_c,65,108,6,1,1,76.0,True
58591,978, Note_on_c,66,108,6,1,1,77.0,False
58592,979, Note_on_c,68,108,6,1,1,79.0,False
58593,980, Note_on_c,70,108,6,1,1,81.0,False
58594,981, Note_on_c,72,108,6,1,1,84.0,True
58595,982, Note_on_c,65,108,6,1,1,76.0,True
58596,983, Note_on_c,73,108,6,1,1,85.0,False
58597,984, Note_on_c,72,108,6,1,1,84.0,True
58598,985, Note_on_c,65,108,6,1,1,76.0,True
58599,986, Note_on_c,66,108,6,1,1,77.0,False
58600,987, Note_on_c,68,108,6,1,1,79.0,False
58601,988, Note_on_c,70,108,6,1,1,81.0,False
58602,989, Note_on_c,72,108,6,1,1,84.0,True
58603,990, Note_on_c,65,108,6,1,1,76.0,True
58604,991, Note_on_c,73,108,6,1,1,85.0,False
58605,992, Note_on_c,72,108,6,1,1,84.0,True
58606,993, Note_on_c,65,108,6,1,1,76.0,True
58607,994, Note_on_c,66,108,6,1,1,77.0,False
58608,995, Note_on_c,68,108,6,1,1,79.0,False
58609,996, Note_on_c,70,108,6,1,1,81.0,False
58610,997, Note_on_c,72,108,6,1,1,84.0,True
58611,998, Note_on_c,65,108,6,1,1,76.0,True
58612,999, Note_on_c,73,108,6,1,1,85.0,False
58613,1000, Note_on_c,72,108,6,1,1,84.0,True
58614,1001, Note_on_c,65,108,6,1,1,76.0,True
58615,1002, Note_on_c,66,108,6,1,1,77.0,False
58616,1003, Note_on_c,68,108,6,1,1,79.0,False
58617,1004, Note_on_c,70,108,6,1,1,81.0,False
58618,1005, Note_on_c,72,108,6,1,1,84.0,True
58619,1006, Note_on_c,65,108,6,1,1,76.0,True
58620,1007, Note_on_c,73,108,6,1,1,85.0,False
58621,1008, Note_on_c,72,108,6,1,1,84.0,True
58622,1009, Note_on_c,65,108,6,1,1,76.0,True
58623,1010, Note_on_c,66,108,6,1,1,77.0,False
58624,1011, Note_on_c,68,108,6,1,1,79.0,False
58625,1012, Note_on_c,70,108,6,1,1,81.0,False
58626,1013, Note_on_c,72,108,6,1,1,84.0,True
58627,1014, Note_on_c,65,108,6,1,1,76.0,True
58628,1015, Note_on_c,73,108,6,1,1,85.0,False
58629,1016, Note_on_c,72,108,6,1,1,84.0,True
58630,1017, Note_on_c,65,108,6,1,1,76.0,True
58631,1018, Note_on_c,66,108,6,1,1,77.0,False
58632,1019, Note_on_c,68,108,6,1,1,79.0,False
58633,1020, Note_on_c,70,108,6,1,1,81.0,False
58634,1021, Note_on_c,72,108,6,1,1,84.0,True
58635,1022, Note_on_c,65,108,6,1,1,76.0,True
58636,1023, Note_on_c,73,108,6,1,1,85.0,False
58637,1024, Note_on_c,72,108,6,1,1,84.0,True
58638,1025, Note_on_c,65,108,6,1,1,76.0,True
58639,1026, Note_on_c,66,108,6,1,1,77.0,False
58640,1027, Note_on_c,68,108,6,1,1,79.0,False
58641,1028, Note_on_c,70,108,6,1,1,81.0,False
58642,1029, Note_on_c,72,108,6,1,1,84.0,True
58643,1030, Note_on_c,65,108,6,1,1,76.0,True
58644,1031, Note_on_c,73,108,6,1,1,85.0,False
58645,1032, Note_on_c,72,108,6,1,1,84.0,True
58646,1033, Note_on_c,65,108,6,1,1,76.0,True
58647,1034, Note_on_c,66,108,6,1,1,77.0,False
58648,1035, Note_on_c,68,108,6,1,1,79.0,False
58649,1036, Note_on_c,70,108,6,1,1,81.0,False
58650,1037, Note_on_c,72,108,6,1,1,84.0,True
58651,1038, Note_on_c,65,108,6,1,1,76.0,True
58652,1039, Note_on_c,73,108,6,1,1,85.0,False
58653,1040, Note_on_c,72,108,6,1,1,84.0,True
58654,1041, Note_on_c,65,108,6,1,1,76.0,True
58655,1042, Note_on_c,66,108,6,1,1,77.0,False
58656,1043, Note_on_c,68,108,6,1,1,79.0,False
58657,1044, Note_on_c,70,108,6,1,1,81.0,False
58658,1045, Note_on_c,72,108,6,1,1,84.0,True
58659,1046, Note_on_c,65,108,6,1,1,76.0,True
58660,1047, Note_on_c,73,108,6,1,1,85.0,False
58661,1048, Note_on_c,72,108,6,1,1,84.0,True
58662,1049, Note_on_c,65,108,6,1,1,76.0,True
58663,1050, Note_on_c,66,108,6,1,1,77.0,False
58664,1051, Note_on_c,68,108,6,1,1,79.0,False
58665,1052, Note_on_c,70,108,6,1,1,81.0,False
58666,1053, Note_on_c,72,108,6,1,1,84.0,True
58667,1054, Note_on_c,65,108,6,1,1,76.0,True
58668,1055, Note_on_c,73,108,6,1,1,85.0,False
58669,1056, Note_on_c,72,108,6,1,1,84.0,True
58670,1057, Note_on_c,65,108,6,1,1,76.0,True
58671,1058, Note_on_c,66,108,6,1,1,77.0,False
58672,1059, Note_on_c,68,108,6,1,1,79.0,False
58673,1060, Note_on_c,70,108,6,1,1,81.0,False
58674,1061, Note_on_c,72,108,6,1,1,84.0,True
58675,1062, Note_on_c,65,108,6,1,1,76.0,True
58676,1063, Note_on_c,73,108,6,1,1,85.0,False
58677,1064, Note_on_c,72,108,6,1,1,84.0,True
58678,1065, Note_on_c,65,108,6,1,1,76.0,True
58679,1066, Note_on_c,66,108,6,1,1,77.0,False
58680,1067, Note_on_c,68,108,6,1,1,79.0,False
58681,1068, Note_on_c,70,108,6,1,1,81.0,False
58682,1069, Note_on_c,72,108,6,1,1,84.0,True
58683,1070, Note_on_c,65,108,6,1,1,76.0,True
58684,1071, Note_on_c,73,108,6,1,1,85.0,False
58685,1072, Note_on_c,72,108,6,1,1,84.0,True
58686,1073, Note_on_c,65,108,6,1,1,76.0,True
58687,1074, Note_on_c,66,108,6,1,1,77.0,False
58688,1075, Note_on_c,68,108,6,1,1,79.0,False
58689,1076, Note_on_c,70,108,6,1,1,81.0,False
58690,1077, Note_on_c,72,108,6,1,1,84.0,True
58691,1078, Note_on_c,65,108,6,1,1,76.0,True
58692,1079, Note_on_c,73,108,6,1,1,85.0,False
58693,1080, Note_on_c,72,108,6,1,1,84.0,True
58694,1081, Note_on_c,65,108,6,1,1,76.0,True
58695,1082, Note_on_c,66,108,6,1,1,77.0,False
58696,1083, Note_on_c,68,108,6,1,1,79.0,False
58697,1084, Note_on_c,70,108,6,1,1,81.0,False
58698,1085, Note_on_c,72,108,6,1,1,84.0,True
58699,1086, Note_on_c,65,108,6,1,1,76.0,True
58700,1087, Note_on_c,73,108,6,1,1,85.0,False
58701,1088, Note_on_c,72,108,6,1,1,84.0,True
58702,1089, Note_on_c,65,108,6,1,1,76.0,True
58703,1090, Note_on_c,66,108,6,1,1,77.0,False
58704,1091, Note_on_c,68,108,6,1,1,79.0,False
58705,1092, Note_on_c,70,108,6,1,1,81.0,False
58706,1093, Note_on_c,72,108,6,1,1,84.0,True
58707,1094, Note_on_c,65,108,6,1,1,76.0,True
58708,1095, Note_on_c,73,108,6,1,1,85.0,False
58709,1096, Note_on_c,72,108,6,1,1,84.0,True
58710,1097, Note_on_c,65,108,6,1,1,76.0,True
58711,1098, Note_on_c,66,108,6,1,1,77.0,False
58712,1099, Note_on_c,68,108,6,1,1,79.0,False
58713,1100, Note_on_c,70,108,6,1,1,81.0,False
58714,1101, Note_on_c,72,108,6,1,1,84.0,True
58715,1102, Note_on_c,65,108,6,1,1,76.0,True
58716,1103, Note_on_c,73,108,6,1,1,85.0,False
58717,1104, Note_on_c,72,108,6,1,1,84.0,True
58718,1105, Note_on_c,65,108,6,1,1,76.0,True
58719,1106, Note_on_c,66,108,6,1,1,77.0,False
58720,1107, Note_on_c,68,108,6,1,1,79.0,False
58721,1108, Note_on_c,70,108,6,1,1,81.0,False
58722,1109, Note_on_c,72,108,6,1,1,84.0,True
58723,1110, Note_on_c,65,108,6,1,1,76.0,True
58724,1111, Note_on_c,73,108,6,1,1,85.0,False
58725,1112, Note_on_c,72,108,6,1,1,84.0,True
58726,1113, Note_on_c,65,108,6,1,1,76.0,True
58727,1114, Note_on_c,66,104,6,1,1,77.0,False
58728,1115, Note_on_c,68,101,6,1,1,79.0,False
58729,1116, Note_on_c,70,99,6,1,1,81.0,False
58730,1117, Note_on_c,72,97,6,1,1,84.0,True
58731,1118, Note_on_c,65,95,6,1,1,76.0,True
58732,1119, Note_on_c,73,93,6,1,1,85.0,False
58733,1120, Note_on_c,72,90,6,1,1,84.0,True
58734,1121, Note_on_c,65,88,6,1,1,76.0,True
58735,1122, Note_on_c,66,86,6,1,1,77.0,False
58736,1123, Note_on_c,68,84,6,1,1,79.0,False
58737,1124, Note_on_c,70,82,6,1,1,81.0,False
58738,1125, Note_on_c,72,79,6,1,1,84.0,True
58739,1126, Note_on_c,65,77,6,1,1,76.0,True
58740,1127, Note_on_c,73,75,6,1,1,85.0,False
58741,1128, Note_on_c,72,73,6,1,1,84.0,True
58742,1129, Note_on_c,65,71,6,1,1,76.0,True
58743,1130, Note_on_c,66,68,6,1,1,77.0,False
58744,1131, Note_on_c,68,66,6,1,1,79.0,False
58745,1132, Note_on_c,70,64,6,1,1,81.0,False
58746,1133, Note_on_c,72,62,6,1,1,84.0,True
58747,1134, Note_on_c,65,60,6,1,1,76.0,True
58748,1135, Note_on_c,73,57,6,1,1,85.0,False
58749,1136, Note_on_c,72,55,6,1,1,84.0,True
58750,1137, Note_on_c,65,53,6,1,1,76.0,True
58751,1138, Note_on_c,66,51,6,1,1,77.0,False
58752,1139, Note_on_c,68,49,6,1,1,79.0,False
58753,1140, Note_on_c,70,46,6,1,1,81.0,False
58754,1141, Note_on_c,72,44,6,1,1,84.0,True
58755,1142, Note_on_c,65,42,6,1,1,76.0,True
58756,1143, Note_on_c,73,40,6,1,1,85.0,False
58757,1144, Note_on_c,72,38,6,1,1,84.0,True
58758,1145, Note_on_c,65,36,6,1,1,76.0,True
58759,1146, Note_on_c,66,33,6,1,1,77.0,False
58760,1147, Note_on_c,68,31,6,1,1,79.0,False
58761,1148, Note_on_c,70,29,6,1,1,81.0,False
58762,1149, Note_on_c,72,27,6,1,1,84.0,True
58763,1150, Note_on_c,65,25,6,1,1,76.0,True
58764,1151, Note_on_c,73,22,6,1,1,85.0,False
58765,1152, Note_on_c,72,20,6,1,1,84.0,True
58766,1153, Note_on_c,65,18,6,1,1,76.0,True
58767,1154, Note_on_c,66,16,6,1,1,77.0,False
58768,1155, Note_on_c,68,14,6,1,1,79.0,False
58769,1156, Note_on_c,70,11,6,1,1,81.0,False
58770,1157, Note_on_c,72,9,6,1,1,84.0,True
58771,1158, Note_on_c,65,7,6,1,1,76.0,True
58772,1159, Note_on_c,73,5,6,1,1,85.0,False
58773,1160, Note_on_c,72,3,6,1,1,84.0,True
58774,1347, Note_on_c,72,108,6,1,1,84.0,True
58775,1347, Note_on_c,77,108,6,1,1,90.0,True
58776,1355, Note_on_c,72,108,6,1,1,84.0,True
58777,1355, Note_on_c,77,108,6,1,1,90.0,True
58778,1363, Note_on_c,72,108,6,1,1,84.0,True
58779,1363, Note_on_c,77,108,6,1,1,90.0,True
58780,1371, Note_on_c,72,108,6,1,1,84.0,True
58781,1371, Note_on_c,77,108,6,1,1,90.0,True
58782,1379, Note_on_c,72,108,6,1,1,84.0,True
58783,1379, Note_on_c,77,108,6,1,1,90.0,True
58784,1387, Note_on_c,72,108,6,1,1,84.0,True
58785,1387, Note_on_c,77,108,6,1,1,90.0,True
58786,1395, Note_on_c,72,108,6,1,1,84.0,True
58787,1395, Note_on_c,77,108,6,1,1,90.0,True
58788,1403, Note_on_c,72,108,6,1,1,84.0,True
58789,1403, Note_on_c,77,108,6,1,1,90.0,True
58790,1410, Note_on_c,70,108,6,1,1,81.0,False
58791,1410, Note_on_c,73,108,6,1,1,85.0,False
58792,1411, Note_on_c,72,108,6,1,1,84.0,True
58793,1411, Note_on_c,77,108,6,1,1,90.0,True
58794,1418, Note_on_c,70,108,6,1,1,81.0,False
58795,1418, Note_on_c,73,108,6,1,1,85.0,False
58796,1419, Note_on_c,72,108,6,1,1,84.0,True
58797,1419, Note_on_c,77,108,6,1,1,90.0,True
58798,1426, Note_on_c,70,108,6,1,1,81.0,False
58799,1426, Note_on_c,73,108,6,1,1,85.0,False
58800,1427, Note_on_c,72,108,6,1,1,84.0,True
58801,1427, Note_on_c,77,108,6,1,1,90.0,True
58802,1434, Note_on_c,70,108,6,1,1,81.0,False
58803,1434, Note_on_c,73,108,6,1,1,85.0,False
58804,1435, Note_on_c,72,108,6,1,1,84.0,True
58805,1435, Note_on_c,77,108,6,1,1,90.0,True
58806,1442, Note_on_c,70,108,6,1,1,81.0,False
58807,1442, Note_on_c,73,108,6,1,1,85.0,False
58808,1443, Note_on_c,72,108,6,1,1,84.0,True
58809,1443, Note_on_c,77,108,6,1,1,90.0,True
58810,1450, Note_on_c,70,108,6,1,1,81.0,False
58811,1450, Note_on_c,73,108,6,1,1,85.0,False
58812,1451, Note_on_c,72,108,6,1,1,84.0,True
58813,1451, Note_on_c,77,108,6,1,1,90.0,True
58814,1458, Note_on_c,70,108,6,1,1,81.0,False
58815,1458, Note_on_c,73,108,6,1,1,85.0,False
58816,1459, Note_on_c,72,108,6,1,1,84.0,True
58817,1459, Note_on_c,77,108,6,1,1,90.0,True
58818,1466, Note_on_c,70,108,6,1,1,81.0,False
58819,1466, Note_on_c,73,108,6,1,1,85.0,False
58820,1467, Note_on_c,72,108,6,1,1,84.0,True
58821,1467, Note_on_c,77,108,6,1,1,90.0,True
58822,1474, Note_on_c,70,108,6,1,1,81.0,False
58823,1474, Note_on_c,73,108,6,1,1,85.0,False
58824,1475, Note_on_c,72,108,6,1,1,84.0,True
58825,1475, Note_on_c,77,108,6,1,1,90.0,True
58826,1476, Note_on_c,65,108,6,1,1,76.0,True
58827,1482, Note_on_c,70,108,6,1,1,81.0,False
58828,1482, Note_on_c,73,108,6,1,1,85.0,False
58829,1483, Note_on_c,72,108,6,1,1,84.0,True
58830,1483, Note_on_c,77,108,6,1,1,90.0,True
58831,1484, Note_on_c,65,108,6,1,1,76.0,True
58832,1490, Note_on_c,70,108,6,1,1,81.0,False
58833,1490, Note_on_c,73,108,6,1,1,85.0,False
58834,1491, Note_on_c,72,108,6,1,1,84.0,True
58835,1491, Note_on_c,77,108,6,1,1,90.0,True
58836,1492, Note_on_c,65,108,6,1,1,76.0,True
58837,1498, Note_on_c,70,108,6,1,1,81.0,False
58838,1498, Note_on_c,73,108,6,1,1,85.0,False
58839,1499, Note_on_c,72,108,6,1,1,84.0,True
58840,1499, Note_on_c,77,108,6,1,1,90.0,True
58841,1500, Note_on_c,65,108,6,1,1,76.0,True
58842,1506, Note_on_c,70,108,6,1,1,81.0,False
58843,1506, Note_on_c,73,108,6,1,1,85.0,False
58844,1507, Note_on_c,72,108,6,1,1,84.0,True
58845,1507, Note_on_c,77,108,6,1,1,90.0,True
58846,1508, Note_on_c,65,108,6,1,1,76.0,True
58847,1514, Note_on_c,70,108,6,1,1,81.0,False
58848,1514, Note_on_c,73,108,6,1,1,85.0,False
58849,1515, Note_on_c,72,108,6,1,1,84.0,True
58850,1515, Note_on_c,77,108,6,1,1,90.0,True
58851,1516, Note_on_c,65,108,6,1,1,76.0,True
58852,1522, Note_on_c,70,108,6,1,1,81.0,False
58853,1522, Note_on_c,73,108,6,1,1,85.0,False
58854,1523, Note_on_c,72,108,6,1,1,84.0,True
58855,1523, Note_on_c,77,108,6,1,1,90.0,True
58856,1524, Note_on_c,65,108,6,1,1,76.0,True
58857,1530, Note_on_c,70,108,6,1,1,81.0,False
58858,1530, Note_on_c,73,108,6,1,1,85.0,False
58859,1531, Note_on_c,72,108,6,1,1,84.0,True
58860,1531, Note_on_c,77,108,6,1,1,90.0,True
58861,1532, Note_on_c,65,108,6,1,1,76.0,True
58862,1538, Note_on_c,70,108,6,1,1,81.0,False
58863,1538, Note_on_c,73,108,6,1,1,85.0,False
58864,1539, Note_on_c,72,108,6,1,1,84.0,True
58865,1539, Note_on_c,77,108,6,1,1,90.0,True
58866,1540, Note_on_c,65,108,6,1,1,76.0,True
58867,1543, Note_on_c,65,108,6,1,1,76.0,True
58868,1546, Note_on_c,70,108,6,1,1,81.0,False
58869,1546, Note_on_c,73,108,6,1,1,85.0,False
58870,1547, Note_on_c,72,108,6,1,1,84.0,True
58871,1547, Note_on_c,77,108,6,1,1,90.0,True
58872,1548, Note_on_c,65,108,6,1,1,76.0,True
58873,1551, Note_on_c,65,108,6,1,1,76.0,True
58874,1554, Note_on_c,70,108,6,1,1,81.0,False
58875,1554, Note_on_c,73,108,6,1,1,85.0,False
58876,1555, Note_on_c,72,108,6,1,1,84.0,True
58877,1555, Note_on_c,77,108,6,1,1,90.0,True
58878,1556, Note_on_c,65,108,6,1,1,76.0,True
58879,1559, Note_on_c,65,108,6,1,1,76.0,True
58880,1562, Note_on_c,70,108,6,1,1,81.0,False
58881,1562, Note_on_c,73,108,6,1,1,85.0,False
58882,1563, Note_on_c,72,108,6,1,1,84.0,True
58883,1563, Note_on_c,77,108,6,1,1,90.0,True
58884,1564, Note_on_c,65,108,6,1,1,76.0,True
58885,1567, Note_on_c,65,108,6,1,1,76.0,True
58886,1570, Note_on_c,70,108,6,1,1,81.0,False
58887,1570, Note_on_c,73,108,6,1,1,85.0,False
58888,1571, Note_on_c,72,108,6,1,1,84.0,True
58889,1571, Note_on_c,77,108,6,1,1,90.0,True
58890,1572, Note_on_c,65,108,6,1,1,76.0,True
58891,1575, Note_on_c,65,108,6,1,1,76.0,True
58892,1578, Note_on_c,70,108,6,1,1,81.0,False
58893,1578, Note_on_c,73,108,6,1,1,85.0,False
58894,1579, Note_on_c,72,108,6,1,1,84.0,True
58895,1579, Note_on_c,77,108,6,1,1,90.0,True
58896,1580, Note_on_c,65,108,6,1,1,76.0,True
58897,1583, Note_on_c,65,108,6,1,1,76.0,True
58898,1586, Note_on_c,70,108,6,1,1,81.0,False
58899,1586, Note_on_c,73,108,6,1,1,85.0,False
58900,1587, Note_on_c,72,108,6,1,1,84.0,True
58901,1587, Note_on_c,77,108,6,1,1,90.0,True
58902,1588, Note_on_c,65,108,6,1,1,76.0,True
58903,1591, Note_on_c,65,108,6,1,1,76.0,True
58904,1594, Note_on_c,70,108,6,1,1,81.0,False
58905,1594, Note_on_c,73,108,6,1,1,85.0,False
58906,1595, Note_on_c,72,108,6,1,1,84.0,True
58907,1595, Note_on_c,77,108,6,1,1,90.0,True
58908,1596, Note_on_c,65,108,6,1,1,76.0,True
58909,1599, Note_on_c,65,108,6,1,1,76.0,True
58910,1602, Note_on_c,70,108,6,1,1,81.0,False
58911,1602, Note_on_c,73,108,6,1,1,85.0,False
58912,1603, Note_on_c,72,108,6,1,1,84.0,True
58913,1603, Note_on_c,77,108,6,1,1,90.0,True
58914,1604, Note_on_c,65,108,6,1,1,76.0,True
58915,1606, Note_on_c,72,108,6,1,1,84.0,True
58916,1606, Note_on_c,75,108,6,1,1,87.0,False
58917,1607, Note_on_c,65,108,6,1,1,76.0,True
58918,1610, Note_on_c,70,108,6,1,1,81.0,False
58919,1610, Note_on_c,73,108,6,1,1,85.0,False
58920,1611, Note_on_c,72,108,6,1,1,84.0,True
58921,1611, Note_on_c,77,108,6,1,1,90.0,True
58922,1612, Note_on_c,65,108,6,1,1,76.0,True
58923,1614, Note_on_c,72,108,6,1,1,84.0,True
58924,1614, Note_on_c,75,108,6,1,1,87.0,False
58925,1615, Note_on_c,65,108,6,1,1,76.0,True
58926,1618, Note_on_c,70,108,6,1,1,81.0,False
58927,1618, Note_on_c,73,108,6,1,1,85.0,False
58928,1619, Note_on_c,72,108,6,1,1,84.0,True
58929,1619, Note_on_c,77,108,6,1,1,90.0,True
58930,1620, Note_on_c,65,108,6,1,1,76.0,True
58931,1622, Note_on_c,72,108,6,1,1,84.0,True
58932,1622, Note_on_c,75,108,6,1,1,87.0,False
58933,1623, Note_on_c,65,108,6,1,1,76.0,True
58934,1626, Note_on_c,70,108,6,1,1,81.0,False
58935,1626, Note_on_c,73,108,6,1,1,85.0,False
58936,1627, Note_on_c,72,108,6,1,1,84.0,True
58937,1627, Note_on_c,77,108,6,1,1,90.0,True
58938,1628, Note_on_c,65,108,6,1,1,76.0,True
58939,1630, Note_on_c,72,108,6,1,1,84.0,True
58940,1630, Note_on_c,75,108,6,1,1,87.0,False
58941,1631, Note_on_c,65,108,6,1,1,76.0,True
58942,1634, Note_on_c,70,108,6,1,1,81.0,False
58943,1634, Note_on_c,73,108,6,1,1,85.0,False
58944,1635, Note_on_c,72,108,6,1,1,84.0,True
58945,1635, Note_on_c,77,108,6,1,1,90.0,True
58946,1636, Note_on_c,65,108,6,1,1,76.0,True
58947,1638, Note_on_c,72,108,6,1,1,84.0,True
58948,1638, Note_on_c,75,108,6,1,1,87.0,False
58949,1639, Note_on_c,65,108,6,1,1,76.0,True
58950,1642, Note_on_c,70,108,6,1,1,81.0,False
58951,1642, Note_on_c,73,108,6,1,1,85.0,False
58952,1643, Note_on_c,72,108,6,1,1,84.0,True
58953,1643, Note_on_c,77,108,6,1,1,90.0,True
58954,1644, Note_on_c,65,108,6,1,1,76.0,True
58955,1646, Note_on_c,72,108,6,1,1,84.0,True
58956,1646, Note_on_c,75,108,6,1,1,87.0,False
58957,1647, Note_on_c,65,108,6,1,1,76.0,True
58958,1650, Note_on_c,70,108,6,1,1,81.0,False
58959,1650, Note_on_c,73,108,6,1,1,85.0,False
58960,1651, Note_on_c,72,108,6,1,1,84.0,True
58961,1651, Note_on_c,77,108,6,1,1,90.0,True
58962,1652, Note_on_c,65,108,6,1,1,76.0,True
58963,1654, Note_on_c,72,108,6,1,1,84.0,True
58964,1654, Note_on_c,75,108,6,1,1,87.0,False
58965,1655, Note_on_c,65,108,6,1,1,76.0,True
58966,1658, Note_on_c,70,108,6,1,1,81.0,False
58967,1658, Note_on_c,73,108,6,1,1,85.0,False
58968,1659, Note_on_c,72,108,6,1,1,84.0,True
58969,1659, Note_on_c,77,108,6,1,1,90.0,True
58970,1660, Note_on_c,65,108,6,1,1,76.0,True
58971,1662, Note_on_c,72,108,6,1,1,84.0,True
58972,1662, Note_on_c,75,108,6,1,1,87.0,False
58973,1663, Note_on_c,65,108,6,1,1,76.0,True
58974,1666, Note_on_c,70,108,6,1,1,81.0,False
58975,1666, Note_on_c,73,108,6,1,1,85.0,False
58976,1667, Note_on_c,72,108,6,1,1,84.0,True
58977,1667, Note_on_c,77,108,6,1,1,90.0,True
58978,1668, Note_on_c,65,108,6,1,1,76.0,True
58979,1669, Note_on_c,70,108,6,1,1,81.0,False
58980,1669, Note_on_c,73,108,6,1,1,85.0,False
58981,1670, Note_on_c,72,108,6,1,1,84.0,True
58982,1670, Note_on_c,75,108,6,1,1,87.0,False
58983,1671, Note_on_c,65,108,6,1,1,76.0,True
58984,1674, Note_on_c,70,108,6,1,1,81.0,False
58985,1674, Note_on_c,73,108,6,1,1,85.0,False
58986,1675, Note_on_c,72,108,6,1,1,84.0,True
58987,1675, Note_on_c,77,108,6,1,1,90.0,True
58988,1676, Note_on_c,65,108,6,1,1,76.0,True
58989,1677, Note_on_c,70,108,6,1,1,81.0,False
58990,1677, Note_on_c,73,108,6,1,1,85.0,False
58991,1678, Note_on_c,72,108,6,1,1,84.0,True
58992,1678, Note_on_c,75,108,6,1,1,87.0,False
58993,1679, Note_on_c,65,108,6,1,1,76.0,True
58994,1682, Note_on_c,70,108,6,1,1,81.0,False
58995,1682, Note_on_c,73,108,6,1,1,85.0,False
58996,1683, Note_on_c,72,108,6,1,1,84.0,True
58997,1683, Note_on_c,77,108,6,1,1,90.0,True
58998,1684, Note_on_c,65,108,6,1,1,76.0,True
58999,1685, Note_on_c,70,108,6,1,1,81.0,False
59000,1685, Note_on_c,73,108,6,1,1,85.0,False
59001,1686, Note_on_c,72,108,6,1,1,84.0,True
59002,1686, Note_on_c,75,108,6,1,1,87.0,False
59003,1687, Note_on_c,65,108,6,1,1,76.0,True
59004,1690, Note_on_c,70,108,6,1,1,81.0,False
59005,1690, Note_on_c,73,108,6,1,1,85.0,False
59006,1691, Note_on_c,72,108,6,1,1,84.0,True
59007,1691, Note_on_c,77,108,6,1,1,90.0,True
59008,1692, Note_on_c,65,108,6,1,1,76.0,True
59009,1693, Note_on_c,70,108,6,1,1,81.0,False
59010,1693, Note_on_c,73,108,6,1,1,85.0,False
59011,1694, Note_on_c,72,108,6,1,1,84.0,True
59012,1694, Note_on_c,75,108,6,1,1,87.0,False
59013,1695, Note_on_c,65,108,6,1,1,76.0,True
59014,1698, Note_on_c,70,108,6,1,1,81.0,False
59015,1698, Note_on_c,73,108,6,1,1,85.0,False
59016,1699, Note_on_c,72,108,6,1,1,84.0,True
59017,1699, Note_on_c,77,108,6,1,1,90.0,True
59018,1700, Note_on_c,65,108,6,1,1,76.0,True
59019,1701, Note_on_c,70,108,6,1,1,81.0,False
59020,1701, Note_on_c,73,108,6,1,1,85.0,False
59021,1702, Note_on_c,72,108,6,1,1,84.0,True
59022,1702, Note_on_c,75,108,6,1,1,87.0,False
59023,1703, Note_on_c,65,108,6,1,1,76.0,True
59024,1706, Note_on_c,70,108,6,1,1,81.0,False
59025,1706, Note_on_c,73,108,6,1,1,85.0,False
59026,1707, Note_on_c,72,108,6,1,1,84.0,True
59027,1707, Note_on_c,77,108,6,1,1,90.0,True
59028,1708, Note_on_c,65,108,6,1,1,76.0,True
59029,1709, Note_on_c,70,108,6,1,1,81.0,False
59030,1709, Note_on_c,73,108,6,1,1,85.0,False
59031,1710, Note_on_c,72,108,6,1,1,84.0,True
59032,1710, Note_on_c,75,108,6,1,1,87.0,False
59033,1711, Note_on_c,65,108,6,1,1,76.0,True
59034,1714, Note_on_c,70,108,6,1,1,81.0,False
59035,1714, Note_on_c,73,108,6,1,1,85.0,False
59036,1715, Note_on_c,72,108,6,1,1,84.0,True
59037,1715, Note_on_c,77,108,6,1,1,90.0,True
59038,1716, Note_on_c,65,108,6,1,1,76.0,True
59039,1717, Note_on_c,70,108,6,1,1,81.0,False
59040,1717, Note_on_c,73,108,6,1,1,85.0,False
59041,1718, Note_on_c,72,108,6,1,1,84.0,True
59042,1718, Note_on_c,75,108,6,1,1,87.0,False
59043,1719, Note_on_c,65,108,6,1,1,76.0,True
59044,1722, Note_on_c,70,108,6,1,1,81.0,False
59045,1722, Note_on_c,73,108,6,1,1,85.0,False
59046,1723, Note_on_c,72,108,6,1,1,84.0,True
59047,1723, Note_on_c,77,108,6,1,1,90.0,True
59048,1724, Note_on_c,65,108,6,1,1,76.0,True
59049,1725, Note_on_c,70,108,6,1,1,81.0,False
59050,1725, Note_on_c,73,108,6,1,1,85.0,False
59051,1726, Note_on_c,72,108,6,1,1,84.0,True
59052,1726, Note_on_c,75,108,6,1,1,87.0,False
59053,1727, Note_on_c,65,108,6,1,1,76.0,True
59054,1730, Note_on_c,70,108,6,1,1,81.0,False
59055,1730, Note_on_c,73,108,6,1,1,85.0,False
59056,1731, Note_on_c,72,108,6,1,1,84.0,True
59057,1731, Note_on_c,77,108,6,1,1,90.0,True
59058,1732, Note_on_c,65,108,6,1,1,76.0,True
59059,1733, Note_on_c,70,108,6,1,1,81.0,False
59060,1733, Note_on_c,73,108,6,1,1,85.0,False
59061,1734, Note_on_c,72,108,6,1,1,84.0,True
59062,1734, Note_on_c,75,108,6,1,1,87.0,False
59063,1735, Note_on_c,65,108,6,1,1,76.0,True
59064,1736, Note_on_c,70,108,6,1,1,81.0,False
59065,1736, Note_on_c,73,108,6,1,1,85.0,False
59066,1738, Note_on_c,70,108,6,1,1,81.0,False
59067,1738, Note_on_c,73,108,6,1,1,85.0,False
59068,1739, Note_on_c,72,108,6,1,1,84.0,True
59069,1739, Note_on_c,77,108,6,1,1,90.0,True
59070,1740, Note_on_c,65,108,6,1,1,76.0,True
59071,1741, Note_on_c,70,108,6,1,1,81.0,False
59072,1741, Note_on_c,73,108,6,1,1,85.0,False
59073,1742, Note_on_c,72,108,6,1,1,84.0,True
59074,1742, Note_on_c,75,108,6,1,1,87.0,False
59075,1743, Note_on_c,65,108,6,1,1,76.0,True
59076,1744, Note_on_c,70,108,6,1,1,81.0,False
59077,1744, Note_on_c,73,108,6,1,1,85.0,False
59078,1746, Note_on_c,70,108,6,1,1,81.0,False
59079,1746, Note_on_c,73,108,6,1,1,85.0,False
59080,1747, Note_on_c,72,108,6,1,1,84.0,True
59081,1747, Note_on_c,77,108,6,1,1,90.0,True
59082,1748, Note_on_c,65,108,6,1,1,76.0,True
59083,1749, Note_on_c,70,108,6,1,1,81.0,False
59084,1749, Note_on_c,73,108,6,1,1,85.0,False
59085,1750, Note_on_c,72,108,6,1,1,84.0,True
59086,1750, Note_on_c,75,108,6,1,1,87.0,False
59087,1751, Note_on_c,65,108,6,1,1,76.0,True
59088,1752, Note_on_c,70,108,6,1,1,81.0,False
59089,1752, Note_on_c,73,108,6,1,1,85.0,False
59090,1754, Note_on_c,70,108,6,1,1,81.0,False
59091,1754, Note_on_c,73,108,6,1,1,85.0,False
59092,1755, Note_on_c,72,108,6,1,1,84.0,True
59093,1755, Note_on_c,77,108,6,1,1,90.0,True
59094,1756, Note_on_c,65,108,6,1,1,76.0,True
59095,1757, Note_on_c,70,108,6,1,1,81.0,False
59096,1757, Note_on_c,73,108,6,1,1,85.0,False
59097,1758, Note_on_c,72,108,6,1,1,84.0,True
59098,1758, Note_on_c,75,108,6,1,1,87.0,False
59099,1759, Note_on_c,65,108,6,1,1,76.0,True
59100,1760, Note_on_c,70,108,6,1,1,81.0,False
59101,1760, Note_on_c,73,108,6,1,1,85.0,False
59102,1762, Note_on_c,70,108,6,1,1,81.0,False
59103,1762, Note_on_c,73,108,6,1,1,85.0,False
59104,1763, Note_on_c,72,108,6,1,1,84.0,True
59105,1763, Note_on_c,77,108,6,1,1,90.0,True
59106,1764, Note_on_c,65,108,6,1,1,76.0,True
59107,1765, Note_on_c,70,108,6,1,1,81.0,False
59108,1765, Note_on_c,73,108,6,1,1,85.0,False
59109,1766, Note_on_c,72,108,6,1,1,84.0,True
59110,1766, Note_on_c,75,108,6,1,1,87.0,False
59111,1767, Note_on_c,65,108,6,1,1,76.0,True
59112,1768, Note_on_c,70,108,6,1,1,81.0,False
59113,1768, Note_on_c,73,108,6,1,1,85.0,False
59114,1770, Note_on_c,70,108,6,1,1,81.0,False
59115,1770, Note_on_c,73,108,6,1,1,85.0,False
59116,1771, Note_on_c,72,108,6,1,1,84.0,True
59117,1771, Note_on_c,77,108,6,1,1,90.0,True
59118,1772, Note_on_c,65,108,6,1,1,76.0,True
59119,1773, Note_on_c,70,108,6,1,1,81.0,False
59120,1773, Note_on_c,73,108,6,1,1,85.0,False
59121,1774, Note_on_c,72,108,6,1,1,84.0,True
59122,1774, Note_on_c,75,108,6,1,1,87.0,False
59123,1775, Note_on_c,65,108,6,1,1,76.0,True
59124,1776, Note_on_c,70,108,6,1,1,81.0,False
59125,1776, Note_on_c,73,108,6,1,1,85.0,False
59126,1778, Note_on_c,70,108,6,1,1,81.0,False
59127,1778, Note_on_c,73,108,6,1,1,85.0,False
59128,1779, Note_on_c,72,108,6,1,1,84.0,True
59129,1779, Note_on_c,77,108,6,1,1,90.0,True
59130,1780, Note_on_c,65,108,6,1,1,76.0,True
59131,1781, Note_on_c,70,108,6,1,1,81.0,False
59132,1781, Note_on_c,73,108,6,1,1,85.0,False
59133,1782, Note_on_c,72,108,6,1,1,84.0,True
59134,1782, Note_on_c,75,108,6,1,1,87.0,False
59135,1783, Note_on_c,65,108,6,1,1,76.0,True
59136,1784, Note_on_c,70,108,6,1,1,81.0,False
59137,1784, Note_on_c,73,108,6,1,1,85.0,False
59138,1786, Note_on_c,70,108,6,1,1,81.0,False
59139,1786, Note_on_c,73,108,6,1,1,85.0,False
59140,1787, Note_on_c,72,108,6,1,1,84.0,True
59141,1787, Note_on_c,77,108,6,1,1,90.0,True
59142,1788, Note_on_c,65,108,6,1,1,76.0,True
59143,1789, Note_on_c,70,108,6,1,1,81.0,False
59144,1789, Note_on_c,73,108,6,1,1,85.0,False
59145,1790, Note_on_c,72,108,6,1,1,84.0,True
59146,1790, Note_on_c,75,108,6,1,1,87.0,False
59147,1791, Note_on_c,65,108,6,1,1,76.0,True
59148,1792, Note_on_c,70,108,6,1,1,81.0,False
59149,1792, Note_on_c,73,108,6,1,1,85.0,False
59150,1793, Note_on_c,72,108,6,1,1,84.0,True
59151,1793, Note_on_c,75,108,6,1,1,87.0,False
59152,1794, Note_on_c,70,108,6,1,1,81.0,False
59153,1794, Note_on_c,73,108,6,1,1,85.0,False
59154,1795, Note_on_c,72,108,6,1,1,84.0,True
59155,1795, Note_on_c,77,108,6,1,1,90.0,True
59156,1796, Note_on_c,65,108,6,1,1,76.0,True
59157,1797, Note_on_c,70,108,6,1,1,81.0,False
59158,1797, Note_on_c,73,108,6,1,1,85.0,False
59159,1798, Note_on_c,72,108,6,1,1,84.0,True
59160,1798, Note_on_c,75,108,6,1,1,87.0,False
59161,1799, Note_on_c,65,108,6,1,1,76.0,True
59162,1800, Note_on_c,70,108,6,1,1,81.0,False
59163,1800, Note_on_c,73,108,6,1,1,85.0,False
59164,1801, Note_on_c,72,108,6,1,1,84.0,True
59165,1801, Note_on_c,75,108,6,1,1,87.0,False
59166,1802, Note_on_c,70,108,6,1,1,81.0,False
59167,1802, Note_on_c,73,108,6,1,1,85.0,False
59168,1803, Note_on_c,72,108,6,1,1,84.0,True
59169,1803, Note_on_c,77,108,6,1,1,90.0,True
59170,1804, Note_on_c,65,108,6,1,1,76.0,True
59171,1805, Note_on_c,70,108,6,1,1,81.0,False
59172,1805, Note_on_c,73,108,6,1,1,85.0,False
59173,1806, Note_on_c,72,108,6,1,1,84.0,True
59174,1806, Note_on_c,75,108,6,1,1,87.0,False
59175,1807, Note_on_c,65,108,6,1,1,76.0,True
59176,1808, Note_on_c,70,108,6,1,1,81.0,False
59177,1808, Note_on_c,73,108,6,1,1,85.0,False
59178,1809, Note_on_c,72,108,6,1,1,84.0,True
59179,1809, Note_on_c,75,108,6,1,1,87.0,False
59180,1810, Note_on_c,70,108,6,1,1,81.0,False
59181,1810, Note_on_c,73,108,6,1,1,85.0,False
59182,1811, Note_on_c,72,108,6,1,1,84.0,True
59183,1811, Note_on_c,77,108,6,1,1,90.0,True
59184,1812, Note_on_c,65,108,6,1,1,76.0,True
59185,1813, Note_on_c,70,108,6,1,1,81.0,False
59186,1813, Note_on_c,73,108,6,1,1,85.0,False
59187,1814, Note_on_c,72,108,6,1,1,84.0,True
59188,1814, Note_on_c,75,108,6,1,1,87.0,False
59189,1815, Note_on_c,65,108,6,1,1,76.0,True
59190,1816, Note_on_c,70,108,6,1,1,81.0,False
59191,1816, Note_on_c,73,108,6,1,1,85.0,False
59192,1817, Note_on_c,72,108,6,1,1,84.0,True
59193,1817, Note_on_c,75,108,6,1,1,87.0,False
59194,1818, Note_on_c,70,108,6,1,1,81.0,False
59195,1818, Note_on_c,73,108,6,1,1,85.0,False
59196,1819, Note_on_c,72,108,6,1,1,84.0,True
59197,1819, Note_on_c,77,108,6,1,1,90.0,True
59198,1820, Note_on_c,65,108,6,1,1,76.0,True
59199,1821, Note_on_c,70,108,6,1,1,81.0,False
59200,1821, Note_on_c,73,108,6,1,1,85.0,False
59201,1822, Note_on_c,72,108,6,1,1,84.0,True
59202,1822, Note_on_c,75,108,6,1,1,87.0,False
59203,1823, Note_on_c,65,108,6,1,1,76.0,True
59204,1824, Note_on_c,70,108,6,1,1,81.0,False
59205,1824, Note_on_c,73,108,6,1,1,85.0,False
59206,1825, Note_on_c,72,108,6,1,1,84.0,True
59207,1825, Note_on_c,75,108,6,1,1,87.0,False
59208,1826, Note_on_c,70,108,6,1,1,81.0,False
59209,1826, Note_on_c,73,108,6,1,1,85.0,False
59210,1827, Note_on_c,72,108,6,1,1,84.0,True
59211,1827, Note_on_c,77,108,6,1,1,90.0,True
59212,1828, Note_on_c,65,108,6,1,1,76.0,True
59213,1829, Note_on_c,70,108,6,1,1,81.0,False
59214,1829, Note_on_c,73,108,6,1,1,85.0,False
59215,1830, Note_on_c,72,108,6,1,1,84.0,True
59216,1830, Note_on_c,75,108,6,1,1,87.0,False
59217,1831, Note_on_c,65,108,6,1,1,76.0,True
59218,1832, Note_on_c,70,108,6,1,1,81.0,False
59219,1832, Note_on_c,73,108,6,1,1,85.0,False
59220,1833, Note_on_c,72,108,6,1,1,84.0,True
59221,1833, Note_on_c,75,108,6,1,1,87.0,False
59222,1834, Note_on_c,70,108,6,1,1,81.0,False
59223,1834, Note_on_c,73,108,6,1,1,85.0,False
59224,1835, Note_on_c,72,108,6,1,1,84.0,True
59225,1835, Note_on_c,77,108,6,1,1,90.0,True
59226,1836, Note_on_c,65,108,6,1,1,76.0,True
59227,1837, Note_on_c,70,108,6,1,1,81.0,False
59228,1837, Note_on_c,73,108,6,1,1,85.0,False
59229,1838, Note_on_c,72,108,6,1,1,84.0,True
59230,1838, Note_on_c,75,108,6,1,1,87.0,False
59231,1839, Note_on_c,65,108,6,1,1,76.0,True
59232,1840, Note_on_c,70,108,6,1,1,81.0,False
59233,1840, Note_on_c,73,108,6,1,1,85.0,False
59234,1841, Note_on_c,72,108,6,1,1,84.0,True
59235,1841, Note_on_c,75,108,6,1,1,87.0,False
59236,1842, Note_on_c,70,108,6,1,1,81.0,False
59237,1842, Note_on_c,73,108,6,1,1,85.0,False
59238,1843, Note_on_c,72,108,6,1,1,84.0,True
59239,1843, Note_on_c,77,108,6,1,1,90.0,True
59240,1844, Note_on_c,65,108,6,1,1,76.0,True
59241,1845, Note_on_c,70,108,6,1,1,81.0,False
59242,1845, Note_on_c,73,108,6,1,1,85.0,False
59243,1846, Note_on_c,72,108,6,1,1,84.0,True
59244,1846, Note_on_c,75,108,6,1,1,87.0,False
59245,1847, Note_on_c,65,108,6,1,1,76.0,True
59246,1848, Note_on_c,70,108,6,1,1,81.0,False
59247,1848, Note_on_c,73,108,6,1,1,85.0,False
59248,1849, Note_on_c,72,108,6,1,1,84.0,True
59249,1849, Note_on_c,75,108,6,1,1,87.0,False
59250,1850, Note_on_c,70,108,6,1,1,81.0,False
59251,1850, Note_on_c,73,108,6,1,1,85.0,False
59252,1851, Note_on_c,72,108,6,1,1,84.0,True
59253,1851, Note_on_c,77,108,6,1,1,90.0,True
59254,1852, Note_on_c,65,108,6,1,1,76.0,True
59255,1853, Note_on_c,70,108,6,1,1,81.0,False
59256,1853, Note_on_c,73,108,6,1,1,85.0,False
59257,1854, Note_on_c,72,108,6,1,1,84.0,True
59258,1854, Note_on_c,75,108,6,1,1,87.0,False
59259,1855, Note_on_c,65,108,6,1,1,76.0,True
59260,1856, Note_on_c,70,108,6,1,1,81.0,False
59261,1856, Note_on_c,73,108,6,1,1,85.0,False
59262,1857, Note_on_c,72,103,6,1,1,84.0,True
59263,1857, Note_on_c,75,103,6,1,1,87.0,False
59264,1858, Note_on_c,70,99,6,1,1,81.0,False
59265,1858, Note_on_c,73,99,6,1,1,85.0,False
59266,1859, Note_on_c,72,95,6,1,1,84.0,True
59267,1859, Note_on_c,77,95,6,1,1,90.0,True
59268,1860, Note_on_c,65,91,6,1,1,76.0,True
59269,1861, Note_on_c,70,86,6,1,1,81.0,False
59270,1861, Note_on_c,73,86,6,1,1,85.0,False
59271,1862, Note_on_c,72,82,6,1,1,84.0,True
59272,1862, Note_on_c,75,82,6,1,1,87.0,False
59273,1863, Note_on_c,65,78,6,1,1,76.0,True
59274,1864, Note_on_c,70,74,6,1,1,81.0,False
59275,1864, Note_on_c,73,74,6,1,1,85.0,False
59276,1865, Note_on_c,72,69,6,1,1,84.0,True
59277,1865, Note_on_c,75,69,6,1,1,87.0,False
59278,1866, Note_on_c,70,65,6,1,1,81.0,False
59279,1866, Note_on_c,73,65,6,1,1,85.0,False
59280,1867, Note_on_c,72,61,6,1,1,84.0,True
59281,1867, Note_on_c,77,61,6,1,1,90.0,True
59282,1868, Note_on_c,65,57,6,1,1,76.0,True
59283,1869, Note_on_c,70,52,6,1,1,81.0,False
59284,1869, Note_on_c,73,52,6,1,1,85.0,False
59285,1870, Note_on_c,72,48,6,1,1,84.0,True
59286,1870, Note_on_c,75,48,6,1,1,87.0,False
59287,1871, Note_on_c,65,44,6,1,1,76.0,True
59288,1872, Note_on_c,70,40,6,1,1,81.0,False
59289,1872, Note_on_c,73,40,6,1,1,85.0,False
59290,1873, Note_on_c,72,35,6,1,1,84.0,True
59291,1873, Note_on_c,75,35,6,1,1,87.0,False
59292,1874, Note_on_c,70,31,6,1,1,81.0,False
59293,1874, Note_on_c,73,31,6,1,1,85.0,False
59294,1875, Note_on_c,72,27,6,1,1,84.0,True
59295,1875, Note_on_c,77,27,6,1,1,90.0,True
59296,1876, Note_on_c,65,23,6,1,1,76.0,True
59297,1877, Note_on_c,70,18,6,1,1,81.0,False
59298,1877, Note_on_c,73,18,6,1,1,85.0,False
59299,1878, Note_on_c,72,14,6,1,1,84.0,True
59300,1878, Note_on_c,75,14,6,1,1,87.0,False
59301,1879, Note_on_c,65,10,6,1,1,76.0,True
59302,1880, Note_on_c,70,6,6,1,1,81.0,False
59303,1880, Note_on_c,73,6,6,1,1,85.0,False
59304,1897, Note_on_c,72,10,6,1,1,84.0,True
59305,1897, Note_on_c,75,6,6,1,1,87.0,False
59306,1898, Note_on_c,70,11,6,1,1,81.0,False
59307,1898, Note_on_c,73,11,6,1,1,85.0,False
59308,1899, Note_on_c,72,15,6,1,1,84.0,True
59309,1899, Note_on_c,77,15,6,1,1,90.0,True
59310,1900, Note_on_c,70,19,6,1,1,81.0,False
59311,1900, Note_on_c,73,19,6,1,1,85.0,False
59312,1901, Note_on_c,72,24,6,1,1,84.0,True
59313,1901, Note_on_c,77,24,6,1,1,90.0,True
59314,1902, Note_on_c,72,28,6,1,1,84.0,True
59315,1902, Note_on_c,75,28,6,1,1,87.0,False
59316,1903, Note_on_c,70,32,6,1,1,81.0,False
59317,1903, Note_on_c,73,32,6,1,1,85.0,False
59318,1904, Note_on_c,72,36,6,1,1,84.0,True
59319,1904, Note_on_c,75,36,6,1,1,87.0,False
59320,1905, Note_on_c,72,40,6,1,1,84.0,True
59321,1905, Note_on_c,75,40,6,1,1,87.0,False
59322,1906, Note_on_c,70,44,6,1,1,81.0,False
59323,1906, Note_on_c,73,44,6,1,1,85.0,False
59324,1907, Note_on_c,72,48,6,1,1,84.0,True
59325,1907, Note_on_c,77,48,6,1,1,90.0,True
59326,1908, Note_on_c,70,53,6,1,1,81.0,False
59327,1908, Note_on_c,73,53,6,1,1,85.0,False
59328,1909, Note_on_c,72,57,6,1,1,84.0,True
59329,1909, Note_on_c,77,57,6,1,1,90.0,True
59330,1910, Note_on_c,72,61,6,1,1,84.0,True
59331,1910, Note_on_c,75,61,6,1,1,87.0,False
59332,1911, Note_on_c,70,65,6,1,1,81.0,False
59333,1911, Note_on_c,73,65,6,1,1,85.0,False
59334,1912, Note_on_c,72,69,6,1,1,84.0,True
59335,1912, Note_on_c,75,69,6,1,1,87.0,False
59336,1913, Note_on_c,72,73,6,1,1,84.0,True
59337,1913, Note_on_c,75,73,6,1,1,87.0,False
59338,1914, Note_on_c,70,77,6,1,1,81.0,False
59339,1914, Note_on_c,73,77,6,1,1,85.0,False
59340,1915, Note_on_c,72,82,6,1,1,84.0,True
59341,1915, Note_on_c,77,82,6,1,1,90.0,True
59342,1916, Note_on_c,70,86,6,1,1,81.0,False
59343,1916, Note_on_c,73,86,6,1,1,85.0,False
59344,1917, Note_on_c,72,90,6,1,1,84.0,True
59345,1917, Note_on_c,77,90,6,1,1,90.0,True
59346,1918, Note_on_c,72,94,6,1,1,84.0,True
59347,1918, Note_on_c,75,94,6,1,1,87.0,False
59348,1919, Note_on_c,70,98,6,1,1,81.0,False
59349,1919, Note_on_c,73,98,6,1,1,85.0,False
59350,1920, Note_on_c,72,102,6,1,1,84.0,True
59351,1920, Note_on_c,75,102,6,1,1,87.0,False
59352,1921, Note_on_c,72,108,6,1,1,84.0,True
59353,1921, Note_on_c,75,108,6,1,1,87.0,False
59354,1922, Note_on_c,70,108,6,1,1,81.0,False
59355,1922, Note_on_c,73,108,6,1,1,85.0,False
59356,1923, Note_on_c,72,108,6,1,1,84.0,True
59357,1923, Note_on_c,77,108,6,1,1,90.0,True
59358,1924, Note_on_c,70,108,6,1,1,81.0,False
59359,1924, Note_on_c,73,108,6,1,1,85.0,False
59360,1925, Note_on_c,72,108,6,1,1,84.0,True
59361,1925, Note_on_c,77,108,6,1,1,90.0,True
59362,1926, Note_on_c,72,108,6,1,1,84.0,True
59363,1926, Note_on_c,75,108,6,1,1,87.0,False
59364,1927, Note_on_c,70,108,6,1,1,81.0,False
59365,1927, Note_on_c,73,108,6,1,1,85.0,False
59366,1928, Note_on_c,72,108,6,1,1,84.0,True
59367,1928, Note_on_c,75,108,6,1,1,87.0,False
59368,1929, Note_on_c,72,108,6,1,1,84.0,True
59369,1929, Note_on_c,75,108,6,1,1,87.0,False
59370,1930, Note_on_c,70,108,6,1,1,81.0,False
59371,1930, Note_on_c,73,108,6,1,1,85.0,False
59372,1931, Note_on_c,72,108,6,1,1,84.0,True
59373,1931, Note_on_c,77,108,6,1,1,90.0,True
59374,1932, Note_on_c,70,108,6,1,1,81.0,False
59375,1932, Note_on_c,73,108,6,1,1,85.0,False
59376,1933, Note_on_c,72,108,6,1,1,84.0,True
59377,1933, Note_on_c,77,108,6,1,1,90.0,True
59378,1934, Note_on_c,72,108,6,1,1,84.0,True
59379,1934, Note_on_c,75,108,6,1,1,87.0,False
59380,1935, Note_on_c,70,108,6,1,1,81.0,False
59381,1935, Note_on_c,73,108,6,1,1,85.0,False
59382,1936, Note_on_c,72,108,6,1,1,84.0,True
59383,1936, Note_on_c,75,108,6,1,1,87.0,False
59384,1937, Note_on_c,72,108,6,1,1,84.0,True
59385,1937, Note_on_c,75,108,6,1,1,87.0,False
59386,1938, Note_on_c,70,108,6,1,1,81.0,False
59387,1938, Note_on_c,73,108,6,1,1,85.0,False
59388,1939, Note_on_c,72,108,6,1,1,84.0,True
59389,1939, Note_on_c,77,108,6,1,1,90.0,True
59390,1940, Note_on_c,70,108,6,1,1,81.0,False
59391,1940, Note_on_c,73,108,6,1,1,85.0,False
59392,1941, Note_on_c,72,108,6,1,1,84.0,True
59393,1941, Note_on_c,77,108,6,1,1,90.0,True
59394,1942, Note_on_c,72,108,6,1,1,84.0,True
59395,1942, Note_on_c,75,108,6,1,1,87.0,False
59396,1943, Note_on_c,70,108,6,1,1,81.0,False
59397,1943, Note_on_c,73,108,6,1,1,85.0,False
59398,1944, Note_on_c,72,108,6,1,1,84.0,True
59399,1944, Note_on_c,75,108,6,1,1,87.0,False
59400,1945, Note_on_c,72,108,6,1,1,84.0,True
59401,1945, Note_on_c,75,108,6,1,1,87.0,False
59402,1946, Note_on_c,70,108,6,1,1,81.0,False
59403,1946, Note_on_c,73,108,6,1,1,85.0,False
59404,1947, Note_on_c,72,108,6,1,1,84.0,True
59405,1947, Note_on_c,77,108,6,1,1,90.0,True
59406,1948, Note_on_c,70,108,6,1,1,81.0,False
59407,1948, Note_on_c,73,108,6,1,1,85.0,False
59408,1949, Note_on_c,72,108,6,1,1,84.0,True
59409,1949, Note_on_c,77,108,6,1,1,90.0,True
59410,1950, Note_on_c,72,108,6,1,1,84.0,True
59411,1950, Note_on_c,75,108,6,1,1,87.0,False
59412,1951, Note_on_c,70,108,6,1,1,81.0,False
59413,1951, Note_on_c,73,108,6,1,1,85.0,False
59414,1952, Note_on_c,72,108,6,1,1,84.0,True
59415,1952, Note_on_c,75,108,6,1,1,87.0,False
59416,1953, Note_on_c,72,108,6,1,1,84.0,True
59417,1953, Note_on_c,75,108,6,1,1,87.0,False
59418,1954, Note_on_c,70,108,6,1,1,81.0,False
59419,1954, Note_on_c,73,108,6,1,1,85.0,False
59420,1955, Note_on_c,72,108,6,1,1,84.0,True
59421,1955, Note_on_c,77,108,6,1,1,90.0,True
59422,1956, Note_on_c,70,108,6,1,1,81.0,False
59423,1956, Note_on_c,73,108,6,1,1,85.0,False
59424,1957, Note_on_c,72,108,6,1,1,84.0,True
59425,1957, Note_on_c,77,108,6,1,1,90.0,True
59426,1958, Note_on_c,72,108,6,1,1,84.0,True
59427,1958, Note_on_c,75,108,6,1,1,87.0,False
59428,1959, Note_on_c,70,108,6,1,1,81.0,False
59429,1959, Note_on_c,73,108,6,1,1,85.0,False
59430,1960, Note_on_c,72,108,6,1,1,84.0,True
59431,1960, Note_on_c,75,108,6,1,1,87.0,False
59432,1961, Note_on_c,72,108,6,1,1,84.0,True
59433,1961, Note_on_c,75,108,6,1,1,87.0,False
59434,1962, Note_on_c,70,108,6,1,1,81.0,False
59435,1962, Note_on_c,73,108,6,1,1,85.0,False
59436,1963, Note_on_c,72,108,6,1,1,84.0,True
59437,1963, Note_on_c,77,108,6,1,1,90.0,True
59438,1964, Note_on_c,70,108,6,1,1,81.0,False
59439,1964, Note_on_c,73,108,6,1,1,85.0,False
59440,1965, Note_on_c,72,108,6,1,1,84.0,True
59441,1965, Note_on_c,77,108,6,1,1,90.0,True
59442,1966, Note_on_c,72,108,6,1,1,84.0,True
59443,1966, Note_on_c,75,108,6,1,1,87.0,False
59444,1967, Note_on_c,70,108,6,1,1,81.0,False
59445,1967, Note_on_c,73,108,6,1,1,85.0,False
59446,1968, Note_on_c,72,108,6,1,1,84.0,True
59447,1968, Note_on_c,75,108,6,1,1,87.0,False
59448,1969, Note_on_c,72,108,6,1,1,84.0,True
59449,1969, Note_on_c,75,108,6,1,1,87.0,False
59450,1970, Note_on_c,70,108,6,1,1,81.0,False
59451,1970, Note_on_c,73,108,6,1,1,85.0,False
59452,1971, Note_on_c,72,108,6,1,1,84.0,True
59453,1971, Note_on_c,77,108,6,1,1,90.0,True
59454,1972, Note_on_c,70,108,6,1,1,81.0,False
59455,1972, Note_on_c,73,108,6,1,1,85.0,False
59456,1973, Note_on_c,72,108,6,1,1,84.0,True
59457,1973, Note_on_c,77,108,6,1,1,90.0,True
59458,1974, Note_on_c,72,108,6,1,1,84.0,True
59459,1974, Note_on_c,75,108,6,1,1,87.0,False
59460,1975, Note_on_c,70,108,6,1,1,81.0,False
59461,1975, Note_on_c,73,108,6,1,1,85.0,False
59462,1976, Note_on_c,72,108,6,1,1,84.0,True
59463,1976, Note_on_c,75,108,6,1,1,87.0,False
59464,1977, Note_on_c,72,108,6,1,1,84.0,True
59465,1977, Note_on_c,75,108,6,1,1,87.0,False
59466,1978, Note_on_c,70,108,6,1,1,81.0,False
59467,1978, Note_on_c,73,108,6,1,1,85.0,False
59468,1979, Note_on_c,72,108,6,1,1,84.0,True
59469,1979, Note_on_c,77,108,6,1,1,90.0,True
59470,1980, Note_on_c,70,108,6,1,1,81.0,False
59471,1980, Note_on_c,73,108,6,1,1,85.0,False
59472,1981, Note_on_c,72,108,6,1,1,84.0,True
59473,1981, Note_on_c,77,108,6,1,1,90.0,True
59474,1982, Note_on_c,72,108,6,1,1,84.0,True
59475,1982, Note_on_c,75,108,6,1,1,87.0,False
59476,1983, Note_on_c,70,108,6,1,1,81.0,False
59477,1983, Note_on_c,73,108,6,1,1,85.0,False
59478,1984, Note_on_c,72,108,6,1,1,84.0,True
59479,1984, Note_on_c,75,108,6,1,1,87.0,False
59480,1985, Note_on_c,72,108,6,1,1,84.0,True
59481,1985, Note_on_c,75,108,6,1,1,87.0,False
59482,1986, Note_on_c,70,108,6,1,1,81.0,False
59483,1986, Note_on_c,73,108,6,1,1,85.0,False
59484,1987, Note_on_c,72,108,6,1,1,84.0,True
59485,1987, Note_on_c,77,108,6,1,1,90.0,True
59486,1988, Note_on_c,70,108,6,1,1,81.0,False
59487,1988, Note_on_c,73,108,6,1,1,85.0,False
59488,1989, Note_on_c,72,108,6,1,1,84.0,True
59489,1989, Note_on_c,77,108,6,1,1,90.0,True
59490,1990, Note_on_c,72,108,6,1,1,84.0,True
59491,1990, Note_on_c,75,108,6,1,1,87.0,False
59492,1991, Note_on_c,70,108,6,1,1,81.0,False
59493,1991, Note_on_c,73,108,6,1,1,85.0,False
59494,1992, Note_on_c,72,108,6,1,1,84.0,True
59495,1992, Note_on_c,75,108,6,1,1,87.0,False
59496,1993, Note_on_c,72,108,6,1,1,84.0,True
59497,1993, Note_on_c,75,108,6,1,1,87.0,False
59498,1994, Note_on_c,70,108,6,1,1,81.0,False
59499,1994, Note_on_c,73,108,6,1,1,85.0,False
59500,1995, Note_on_c,72,108,6,1,1,84.0,True
59501,1995, Note_on_c,77,108,6,1,1,90.0,True
59502,1996, Note_on_c,70,108,6,1,1,81.0,False
59503,1996, Note_on_c,73,108,6,1,1,85.0,False
59504,1997, Note_on_c,72,108,6,1,1,84.0,True
59505,1997, Note_on_c,77,108,6,1,1,90.0,True
59506,1998, Note_on_c,72,108,6,1,1,84.0,True
59507,1998, Note_on_c,75,108,6,1,1,87.0,False
59508,1999, Note_on_c,70,108,6,1,1,81.0,False
59509,1999, Note_on_c,73,108,6,1,1,85.0,False
59510,2000, Note_on_c,72,108,6,1,1,84.0,True
59511,2000, Note_on_c,75,108,6,1,1,87.0,False
59512,2001, Note_on_c,72,106,6,1,1,84.0,True
59513,2001, Note_on_c,75,108,6,1,1,87.0,False
59514,2002, Note_on_c,70,105,6,1,1,81.0,False
59515,2002, Note_on_c,73,105,6,1,1,85.0,False
59516,2003, Note_on_c,72,101,6,1,1,84.0,True
59517,2003, Note_on_c,77,101,6,1,1,90.0,True
59518,2004, Note_on_c,70,96,6,1,1,81.0,False
59519,2004, Note_on_c,73,96,6,1,1,85.0,False
59520,2005, Note_on_c,72,92,6,1,1,84.0,True
59521,2005, Note_on_c,77,92,6,1,1,90.0,True
59522,2006, Note_on_c,72,87,6,1,1,84.0,True
59523,2006, Note_on_c,75,87,6,1,1,87.0,False
59524,2007, Note_on_c,70,83,6,1,1,81.0,False
59525,2007, Note_on_c,73,83,6,1,1,85.0,False
59526,2008, Note_on_c,72,78,6,1,1,84.0,True
59527,2008, Note_on_c,75,78,6,1,1,87.0,False
59528,2009, Note_on_c,72,74,6,1,1,84.0,True
59529,2009, Note_on_c,75,74,6,1,1,87.0,False
59530,2010, Note_on_c,70,69,6,1,1,81.0,False
59531,2010, Note_on_c,73,69,6,1,1,85.0,False
59532,2011, Note_on_c,72,65,6,1,1,84.0,True
59533,2011, Note_on_c,77,65,6,1,1,90.0,True
59534,2012, Note_on_c,70,60,6,1,1,81.0,False
59535,2012, Note_on_c,73,60,6,1,1,85.0,False
59536,2013, Note_on_c,72,56,6,1,1,84.0,True
59537,2013, Note_on_c,77,56,6,1,1,90.0,True
59538,2014, Note_on_c,72,51,6,1,1,84.0,True
59539,2014, Note_on_c,75,51,6,1,1,87.0,False
59540,2015, Note_on_c,70,47,6,1,1,81.0,False
59541,2015, Note_on_c,73,47,6,1,1,85.0,False
59542,2016, Note_on_c,72,42,6,1,1,84.0,True
59543,2016, Note_on_c,75,42,6,1,1,87.0,False
59544,2017, Note_on_c,72,38,6,1,1,84.0,True
59545,2017, Note_on_c,75,38,6,1,1,87.0,False
59546,2018, Note_on_c,70,33,6,1,1,81.0,False
59547,2018, Note_on_c,73,33,6,1,1,85.0,False
59548,2019, Note_on_c,72,29,6,1,1,84.0,True
59549,2019, Note_on_c,77,29,6,1,1,90.0,True
59550,2020, Note_on_c,70,24,6,1,1,81.0,False
59551,2020, Note_on_c,73,24,6,1,1,85.0,False
59552,2021, Note_on_c,72,20,6,1,1,84.0,True
59553,2021, Note_on_c,77,20,6,1,1,90.0,True
59554,2022, Note_on_c,72,15,6,1,1,84.0,True
59555,2022, Note_on_c,75,15,6,1,1,87.0,False
59556,2023, Note_on_c,70,11,6,1,1,81.0,False
59557,2023, Note_on_c,73,11,6,1,1,85.0,False
59558,2024, Note_on_c,72,6,6,1,1,84.0,True
59559,2024, Note_on_c,75,6,6,1,1,87.0,False
59560,2049, Note_on_c,75,10,6,1,1,87.0,False
59561,2050, Note_on_c,73,14,6,1,1,85.0,False
59562,2051, Note_on_c,72,15,6,1,1,84.0,True
59563,2052, Note_on_c,65,20,6,1,1,76.0,True
59564,2053, Note_on_c,77,24,6,1,1,90.0,True
59565,2054, Note_on_c,75,28,6,1,1,87.0,False
59566,2055, Note_on_c,73,32,6,1,1,85.0,False
59567,2056, Note_on_c,72,36,6,1,1,84.0,True
59568,2057, Note_on_c,75,40,6,1,1,87.0,False
59569,2058, Note_on_c,73,44,6,1,1,85.0,False
59570,2059, Note_on_c,72,49,6,1,1,84.0,True
59571,2060, Note_on_c,65,53,6,1,1,76.0,True
59572,2061, Note_on_c,77,57,6,1,1,90.0,True
59573,2062, Note_on_c,75,61,6,1,1,87.0,False
59574,2063, Note_on_c,73,65,6,1,1,85.0,False
59575,2064, Note_on_c,72,69,6,1,1,84.0,True
59576,2065, Note_on_c,75,73,6,1,1,87.0,False
59577,2066, Note_on_c,73,78,6,1,1,85.0,False
59578,2067, Note_on_c,72,82,6,1,1,84.0,True
59579,2068, Note_on_c,65,86,6,1,1,76.0,True
59580,2069, Note_on_c,77,90,6,1,1,90.0,True
59581,2070, Note_on_c,75,94,6,1,1,87.0,False
59582,2071, Note_on_c,73,98,6,1,1,85.0,False
59583,2072, Note_on_c,72,102,6,1,1,84.0,True
59584,2073, Note_on_c,75,108,6,1,1,87.0,False
59585,2074, Note_on_c,73,108,6,1,1,85.0,False
59586,2075, Note_on_c,72,108,6,1,1,84.0,True
59587,2076, Note_on_c,65,108,6,1,1,76.0,True
59588,2077, Note_on_c,77,108,6,1,1,90.0,True
59589,2078, Note_on_c,75,108,6,1,1,87.0,False
59590,2079, Note_on_c,73,108,6,1,1,85.0,False
59591,2080, Note_on_c,72,108,6,1,1,84.0,True
59592,2081, Note_on_c,75,108,6,1,1,87.0,False
59593,2082, Note_on_c,73,108,6,1,1,85.0,False
59594,2083, Note_on_c,72,108,6,1,1,84.0,True
59595,2084, Note_on_c,65,108,6,1,1,76.0,True
59596,2085, Note_on_c,77,108,6,1,1,90.0,True
59597,2086, Note_on_c,75,108,6,1,1,87.0,False
59598,2087, Note_on_c,73,108,6,1,1,85.0,False
59599,2088, Note_on_c,72,108,6,1,1,84.0,True
59600,2089, Note_on_c,75,108,6,1,1,87.0,False
59601,2090, Note_on_c,73,108,6,1,1,85.0,False
59602,2091, Note_on_c,72,108,6,1,1,84.0,True
59603,2092, Note_on_c,65,108,6,1,1,76.0,True
59604,2093, Note_on_c,77,108,6,1,1,90.0,True
59605,2094, Note_on_c,75,108,6,1,1,87.0,False
59606,2095, Note_on_c,73,108,6,1,1,85.0,False
59607,2096, Note_on_c,72,108,6,1,1,84.0,True
59608,2097, Note_on_c,75,108,6,1,1,87.0,False
59609,2098, Note_on_c,73,108,6,1,1,85.0,False
59610,2099, Note_on_c,72,108,6,1,1,84.0,True
59611,2100, Note_on_c,65,108,6,1,1,76.0,True
59612,2101, Note_on_c,77,108,6,1,1,90.0,True
59613,2102, Note_on_c,75,108,6,1,1,87.0,False
59614,2103, Note_on_c,73,108,6,1,1,85.0,False
59615,2104, Note_on_c,72,108,6,1,1,84.0,True
59616,2105, Note_on_c,75,108,6,1,1,87.0,False
59617,2106, Note_on_c,73,108,6,1,1,85.0,False
59618,2107, Note_on_c,72,108,6,1,1,84.0,True
59619,2108, Note_on_c,65,108,6,1,1,76.0,True
59620,2109, Note_on_c,77,108,6,1,1,90.0,True
59621,2110, Note_on_c,75,108,6,1,1,87.0,False
59622,2111, Note_on_c,73,108,6,1,1,85.0,False
59623,2112, Note_on_c,72,108,6,1,1,84.0,True
59624,2113, Note_on_c,75,108,6,1,1,87.0,False
59625,2114, Note_on_c,73,108,6,1,1,85.0,False
59626,2115, Note_on_c,72,108,6,1,1,84.0,True
59627,2116, Note_on_c,65,108,6,1,1,76.0,True
59628,2117, Note_on_c,77,108,6,1,1,90.0,True
59629,2118, Note_on_c,75,108,6,1,1,87.0,False
59630,2119, Note_on_c,73,108,6,1,1,85.0,False
59631,2120, Note_on_c,72,108,6,1,1,84.0,True
59632,2121, Note_on_c,75,108,6,1,1,87.0,False
59633,2122, Note_on_c,73,108,6,1,1,85.0,False
59634,2123, Note_on_c,72,108,6,1,1,84.0,True
59635,2124, Note_on_c,65,108,6,1,1,76.0,True
59636,2125, Note_on_c,77,108,6,1,1,90.0,True
59637,2126, Note_on_c,75,108,6,1,1,87.0,False
59638,2127, Note_on_c,73,108,6,1,1,85.0,False
59639,2128, Note_on_c,72,108,6,1,1,84.0,True
59640,2129, Note_on_c,75,108,6,1,1,87.0,False
59641,2130, Note_on_c,73,108,6,1,1,85.0,False
59642,2131, Note_on_c,72,108,6,1,1,84.0,True
59643,2132, Note_on_c,65,108,6,1,1,76.0,True
59644,2133, Note_on_c,77,108,6,1,1,90.0,True
59645,2134, Note_on_c,75,108,6,1,1,87.0,False
59646,2135, Note_on_c,73,108,6,1,1,85.0,False
59647,2136, Note_on_c,72,108,6,1,1,84.0,True
59648,2137, Note_on_c,75,108,6,1,1,87.0,False
59649,2138, Note_on_c,73,108,6,1,1,85.0,False
59650,2139, Note_on_c,72,108,6,1,1,84.0,True
59651,2140, Note_on_c,65,108,6,1,1,76.0,True
59652,2141, Note_on_c,77,108,6,1,1,90.0,True
59653,2142, Note_on_c,75,108,6,1,1,87.0,False
59654,2143, Note_on_c,73,108,6,1,1,85.0,False
59655,2144, Note_on_c,72,108,6,1,1,84.0,True
59656,2145, Note_on_c,75,108,6,1,1,87.0,False
59657,2146, Note_on_c,73,108,6,1,1,85.0,False
59658,2147, Note_on_c,72,108,6,1,1,84.0,True
59659,2148, Note_on_c,65,108,6,1,1,76.0,True
59660,2149, Note_on_c,77,108,6,1,1,90.0,True
59661,2150, Note_on_c,75,108,6,1,1,87.0,False
59662,2151, Note_on_c,73,108,6,1,1,85.0,False
59663,2152, Note_on_c,72,108,6,1,1,84.0,True
59664,2153, Note_on_c,75,108,6,1,1,87.0,False
59665,2154, Note_on_c,73,108,6,1,1,85.0,False
59666,2155, Note_on_c,72,108,6,1,1,84.0,True
59667,2156, Note_on_c,65,108,6,1,1,76.0,True
59668,2157, Note_on_c,77,108,6,1,1,90.0,True
59669,2158, Note_on_c,75,108,6,1,1,87.0,False
59670,2159, Note_on_c,73,108,6,1,1,85.0,False
59671,2160, Note_on_c,72,108,6,1,1,84.0,True
59672,2161, Note_on_c,75,107,6,1,1,87.0,False
59673,2162, Note_on_c,73,105,6,1,1,85.0,False
59674,2163, Note_on_c,72,100,6,1,1,84.0,True
59675,2164, Note_on_c,65,96,6,1,1,76.0,True
59676,2165, Note_on_c,77,91,6,1,1,90.0,True
59677,2166, Note_on_c,75,87,6,1,1,87.0,False
59678,2167, Note_on_c,73,82,6,1,1,85.0,False
59679,2168, Note_on_c,72,77,6,1,1,84.0,True
59680,2169, Note_on_c,75,73,6,1,1,87.0,False
59681,2170, Note_on_c,73,68,6,1,1,85.0,False
59682,2171, Note_on_c,72,64,6,1,1,84.0,True
59683,2172, Note_on_c,65,59,6,1,1,76.0,True
59684,2173, Note_on_c,77,54,6,1,1,90.0,True
59685,2174, Note_on_c,75,50,6,1,1,87.0,False
59686,2175, Note_on_c,73,45,6,1,1,85.0,False
59687,2176, Note_on_c,72,41,6,1,1,84.0,True
59688,2177, Note_on_c,75,36,6,1,1,87.0,False
59689,2178, Note_on_c,73,31,6,1,1,85.0,False
59690,2179, Note_on_c,72,27,6,1,1,84.0,True
59691,2180, Note_on_c,65,22,6,1,1,76.0,True
59692,2181, Note_on_c,77,18,6,1,1,90.0,True
59693,2182, Note_on_c,75,13,6,1,1,87.0,False
59694,2183, Note_on_c,73,8,6,1,1,85.0,False
59695,2184, Note_on_c,72,4,6,1,1,84.0,True
59696,2209, Note_on_c,65,5,6,1,1,76.0,True
59697,2210, Note_on_c,73,7,6,1,1,85.0,False
59698,2211, Note_on_c,72,10,6,1,1,84.0,True
59699,2212, Note_on_c,73,12,6,1,1,85.0,False
59700,2213, Note_on_c,72,14,6,1,1,84.0,True
59701,2214, Note_on_c,65,16,6,1,1,76.0,True
59702,2215, Note_on_c,73,18,6,1,1,85.0,False
59703,2216, Note_on_c,72,20,6,1,1,84.0,True
59704,2218, Note_on_c,73,24,6,1,1,85.0,False
59705,2219, Note_on_c,72,27,6,1,1,84.0,True
59706,2220, Note_on_c,73,29,6,1,1,85.0,False
59707,2221, Note_on_c,72,31,6,1,1,84.0,True
59708,2222, Note_on_c,65,33,6,1,1,76.0,True
59709,2223, Note_on_c,73,35,6,1,1,85.0,False
59710,2224, Note_on_c,72,37,6,1,1,84.0,True
59711,2225, Note_on_c,65,39,6,1,1,76.0,True
59712,2226, Note_on_c,73,42,6,1,1,85.0,False
59713,2227, Note_on_c,72,44,6,1,1,84.0,True
59714,2228, Note_on_c,73,46,6,1,1,85.0,False
59715,2229, Note_on_c,72,48,6,1,1,84.0,True
59716,2230, Note_on_c,65,50,6,1,1,76.0,True
59717,2231, Note_on_c,73,52,6,1,1,85.0,False
59718,2232, Note_on_c,72,54,6,1,1,84.0,True
59719,2234, Note_on_c,73,59,6,1,1,85.0,False
59720,2235, Note_on_c,72,61,6,1,1,84.0,True
59721,2236, Note_on_c,73,63,6,1,1,85.0,False
59722,2237, Note_on_c,72,65,6,1,1,84.0,True
59723,2238, Note_on_c,65,67,6,1,1,76.0,True
59724,2239, Note_on_c,73,69,6,1,1,85.0,False
59725,2240, Note_on_c,72,71,6,1,1,84.0,True
59726,2241, Note_on_c,65,73,6,1,1,76.0,True
59727,2242, Note_on_c,73,76,6,1,1,85.0,False
59728,2243, Note_on_c,72,78,6,1,1,84.0,True
59729,2244, Note_on_c,73,80,6,1,1,85.0,False
59730,2245, Note_on_c,72,82,6,1,1,84.0,True
59731,2246, Note_on_c,65,84,6,1,1,76.0,True
59732,2247, Note_on_c,73,86,6,1,1,85.0,False
59733,2248, Note_on_c,72,88,6,1,1,84.0,True
59734,2250, Note_on_c,73,93,6,1,1,85.0,False
59735,2251, Note_on_c,72,95,6,1,1,84.0,True
59736,2252, Note_on_c,73,97,6,1,1,85.0,False
59737,2253, Note_on_c,72,99,6,1,1,84.0,True
59738,2254, Note_on_c,65,101,6,1,1,76.0,True
59739,2255, Note_on_c,73,103,6,1,1,85.0,False
59740,2256, Note_on_c,72,105,6,1,1,84.0,True
59741,2257, Note_on_c,65,108,6,1,1,76.0,True
59742,2258, Note_on_c,73,108,6,1,1,85.0,False
59743,2259, Note_on_c,72,108,6,1,1,84.0,True
59744,2260, Note_on_c,73,108,6,1,1,85.0,False
59745,2261, Note_on_c,72,108,6,1,1,84.0,True
59746,2262, Note_on_c,65,108,6,1,1,76.0,True
59747,2263, Note_on_c,73,108,6,1,1,85.0,False
59748,2264, Note_on_c,72,108,6,1,1,84.0,True
59749,2266, Note_on_c,73,108,6,1,1,85.0,False
59750,2267, Note_on_c,72,108,6,1,1,84.0,True
59751,2268, Note_on_c,73,108,6,1,1,85.0,False
59752,2269, Note_on_c,72,108,6,1,1,84.0,True
59753,2270, Note_on_c,65,108,6,1,1,76.0,True
59754,2271, Note_on_c,73,108,6,1,1,85.0,False
59755,2272, Note_on_c,72,108,6,1,1,84.0,True
59756,2273, Note_on_c,65,108,6,1,1,76.0,True
59757,2274, Note_on_c,73,108,6,1,1,85.0,False
59758,2275, Note_on_c,72,108,6,1,1,84.0,True
59759,2276, Note_on_c,73,108,6,1,1,85.0,False
59760,2277, Note_on_c,72,108,6,1,1,84.0,True
59761,2278, Note_on_c,65,108,6,1,1,76.0,True
59762,2279, Note_on_c,73,108,6,1,1,85.0,False
59763,2280, Note_on_c,72,108,6,1,1,84.0,True
59764,2282, Note_on_c,73,108,6,1,1,85.0,False
59765,2283, Note_on_c,72,108,6,1,1,84.0,True
59766,2284, Note_on_c,73,108,6,1,1,85.0,False
59767,2285, Note_on_c,72,108,6,1,1,84.0,True
59768,2286, Note_on_c,65,108,6,1,1,76.0,True
59769,2287, Note_on_c,73,108,6,1,1,85.0,False
59770,2288, Note_on_c,72,108,6,1,1,84.0,True
59771,2289, Note_on_c,65,108,6,1,1,76.0,True
59772,2290, Note_on_c,73,108,6,1,1,85.0,False
59773,2291, Note_on_c,72,108,6,1,1,84.0,True
59774,2292, Note_on_c,73,108,6,1,1,85.0,False
59775,2293, Note_on_c,72,108,6,1,1,84.0,True
59776,2294, Note_on_c,65,108,6,1,1,76.0,True
59777,2295, Note_on_c,73,108,6,1,1,85.0,False
59778,2296, Note_on_c,72,108,6,1,1,84.0,True
59779,2298, Note_on_c,73,108,6,1,1,85.0,False
59780,2299, Note_on_c,72,108,6,1,1,84.0,True
59781,2300, Note_on_c,73,108,6,1,1,85.0,False
59782,2301, Note_on_c,72,108,6,1,1,84.0,True
59783,2302, Note_on_c,65,108,6,1,1,76.0,True
59784,2303, Note_on_c,73,108,6,1,1,85.0,False
59785,2304, Note_on_c,72,108,6,1,1,84.0,True
59786,2305, Note_on_c,65,108,6,1,1,76.0,True
59787,2306, Note_on_c,73,108,6,1,1,85.0,False
59788,2307, Note_on_c,72,108,6,1,1,84.0,True
59789,2308, Note_on_c,73,108,6,1,1,85.0,False
59790,2309, Note_on_c,72,108,6,1,1,84.0,True
59791,2310, Note_on_c,65,108,6,1,1,76.0,True
59792,2311, Note_on_c,73,108,6,1,1,85.0,False
59793,2312, Note_on_c,72,108,6,1,1,84.0,True
59794,2314, Note_on_c,73,108,6,1,1,85.0,False
59795,2315, Note_on_c,72,108,6,1,1,84.0,True
59796,2316, Note_on_c,73,108,6,1,1,85.0,False
59797,2317, Note_on_c,72,108,6,1,1,84.0,True
59798,2318, Note_on_c,65,108,6,1,1,76.0,True
59799,2319, Note_on_c,73,108,6,1,1,85.0,False
59800,2320, Note_on_c,72,108,6,1,1,84.0,True
59801,2321, Note_on_c,65,108,6,1,1,76.0,True
59802,2322, Note_on_c,73,108,6,1,1,85.0,False
59803,2323, Note_on_c,72,108,6,1,1,84.0,True
59804,2324, Note_on_c,73,108,6,1,1,85.0,False
59805,2325, Note_on_c,72,108,6,1,1,84.0,True
59806,2326, Note_on_c,65,108,6,1,1,76.0,True
59807,2327, Note_on_c,73,108,6,1,1,85.0,False
59808,2328, Note_on_c,72,108,6,1,1,84.0,True
59809,2330, Note_on_c,73,108,6,1,1,85.0,False
59810,2331, Note_on_c,72,108,6,1,1,84.0,True
59811,2332, Note_on_c,73,108,6,1,1,85.0,False
59812,2333, Note_on_c,72,108,6,1,1,84.0,True
59813,2334, Note_on_c,65,108,6,1,1,76.0,True
59814,2335, Note_on_c,73,108,6,1,1,85.0,False
59815,2336, Note_on_c,72,108,6,1,1,84.0,True
59816,2337, Note_on_c,65,108,6,1,1,76.0,True
59817,2338, Note_on_c,73,108,6,1,1,85.0,False
59818,2339, Note_on_c,72,108,6,1,1,84.0,True
59819,2340, Note_on_c,73,108,6,1,1,85.0,False
59820,2341, Note_on_c,72,108,6,1,1,84.0,True
59821,2342, Note_on_c,65,108,6,1,1,76.0,True
59822,2343, Note_on_c,73,108,6,1,1,85.0,False
59823,2344, Note_on_c,72,108,6,1,1,84.0,True
59824,2346, Note_on_c,73,108,6,1,1,85.0,False
59825,2347, Note_on_c,72,108,6,1,1,84.0,True
59826,2348, Note_on_c,73,108,6,1,1,85.0,False
59827,2349, Note_on_c,72,108,6,1,1,84.0,True
59828,2350, Note_on_c,65,108,6,1,1,76.0,True
59829,2351, Note_on_c,73,108,6,1,1,85.0,False
59830,2352, Note_on_c,72,108,6,1,1,84.0,True
59831,2353, Note_on_c,65,108,6,1,1,76.0,True
59832,2354, Note_on_c,73,108,6,1,1,85.0,False
59833,2355, Note_on_c,72,108,6,1,1,84.0,True
59834,2356, Note_on_c,73,108,6,1,1,85.0,False
59835,2357, Note_on_c,72,108,6,1,1,84.0,True
59836,2358, Note_on_c,65,108,6,1,1,76.0,True
59837,2359, Note_on_c,73,108,6,1,1,85.0,False
59838,2360, Note_on_c,72,108,6,1,1,84.0,True
59839,2362, Note_on_c,73,108,6,1,1,85.0,False
59840,2363, Note_on_c,72,108,6,1,1,84.0,True
59841,2364, Note_on_c,73,108,6,1,1,85.0,False
59842,2365, Note_on_c,72,108,6,1,1,84.0,True
59843,2366, Note_on_c,65,108,6,1,1,76.0,True
59844,2367, Note_on_c,73,108,6,1,1,85.0,False
59845,2368, Note_on_c,72,108,6,1,1,84.0,True
59846,2369, Note_on_c,65,108,6,1,1,76.0,True
59847,2370, Note_on_c,73,108,6,1,1,85.0,False
59848,2371, Note_on_c,72,108,6,1,1,84.0,True
59849,2372, Note_on_c,73,108,6,1,1,85.0,False
59850,2373, Note_on_c,72,108,6,1,1,84.0,True
59851,2374, Note_on_c,65,108,6,1,1,76.0,True
59852,2375, Note_on_c,73,108,6,1,1,85.0,False
59853,2376, Note_on_c,72,108,6,1,1,84.0,True
59854,2378, Note_on_c,73,108,6,1,1,85.0,False
59855,2379, Note_on_c,72,108,6,1,1,84.0,True
59856,2380, Note_on_c,73,108,6,1,1,85.0,False
59857,2381, Note_on_c,72,108,6,1,1,84.0,True
59858,2382, Note_on_c,65,108,6,1,1,76.0,True
59859,2383, Note_on_c,73,108,6,1,1,85.0,False
59860,2384, Note_on_c,72,108,6,1,1,84.0,True
59861,2385, Note_on_c,65,108,6,1,1,76.0,True
59862,2386, Note_on_c,73,108,6,1,1,85.0,False
59863,2387, Note_on_c,72,108,6,1,1,84.0,True
59864,2388, Note_on_c,73,108,6,1,1,85.0,False
59865,2389, Note_on_c,72,108,6,1,1,84.0,True
59866,2390, Note_on_c,65,108,6,1,1,76.0,True
59867,2391, Note_on_c,73,108,6,1,1,85.0,False
59868,2392, Note_on_c,72,108,6,1,1,84.0,True
59869,2394, Note_on_c,73,108,6,1,1,85.0,False
59870,2395, Note_on_c,72,108,6,1,1,84.0,True
59871,2396, Note_on_c,73,108,6,1,1,85.0,False
59872,2397, Note_on_c,72,108,6,1,1,84.0,True
59873,2398, Note_on_c,65,108,6,1,1,76.0,True
59874,2399, Note_on_c,73,108,6,1,1,85.0,False
59875,2400, Note_on_c,72,108,6,1,1,84.0,True
59876,2401, Note_on_c,65,108,6,1,1,76.0,True
59877,2402, Note_on_c,73,106,6,1,1,85.0,False
59878,2403, Note_on_c,72,104,6,1,1,84.0,True
59879,2404, Note_on_c,73,102,6,1,1,85.0,False
59880,2405, Note_on_c,72,100,6,1,1,84.0,True
59881,2406, Note_on_c,65,97,6,1,1,76.0,True
59882,2407, Note_on_c,73,95,6,1,1,85.0,False
59883,2408, Note_on_c,72,93,6,1,1,84.0,True
59884,2410, Note_on_c,73,88,6,1,1,85.0,False
59885,2411, Note_on_c,72,86,6,1,1,84.0,True
59886,2412, Note_on_c,73,84,6,1,1,85.0,False
59887,2413, Note_on_c,72,82,6,1,1,84.0,True
59888,2414, Note_on_c,65,79,6,1,1,76.0,True
59889,2415, Note_on_c,73,77,6,1,1,85.0,False
59890,2416, Note_on_c,72,75,6,1,1,84.0,True
59891,2417, Note_on_c,65,73,6,1,1,76.0,True
59892,2418, Note_on_c,73,71,6,1,1,85.0,False
59893,2419, Note_on_c,72,68,6,1,1,84.0,True
59894,2420, Note_on_c,73,66,6,1,1,85.0,False
59895,2421, Note_on_c,72,64,6,1,1,84.0,True
59896,2422, Note_on_c,65,62,6,1,1,76.0,True
59897,2423, Note_on_c,73,59,6,1,1,85.0,False
59898,2424, Note_on_c,72,57,6,1,1,84.0,True
59899,2426, Note_on_c,73,53,6,1,1,85.0,False
59900,2427, Note_on_c,72,51,6,1,1,84.0,True
59901,2428, Note_on_c,73,48,6,1,1,85.0,False
59902,2429, Note_on_c,72,46,6,1,1,84.0,True
59903,2430, Note_on_c,65,44,6,1,1,76.0,True
59904,2431, Note_on_c,73,42,6,1,1,85.0,False
59905,2432, Note_on_c,72,39,6,1,1,84.0,True
59906,2433, Note_on_c,65,37,6,1,1,76.0,True
59907,2434, Note_on_c,73,35,6,1,1,85.0,False
59908,2435, Note_on_c,72,33,6,1,1,84.0,True
59909,2436, Note_on_c,73,30,6,1,1,85.0,False
59910,2437, Note_on_c,72,28,6,1,1,84.0,True
59911,2438, Note_on_c,65,26,6,1,1,76.0,True
59912,2439, Note_on_c,73,24,6,1,1,85.0,False
59913,2440, Note_on_c,72,22,6,1,1,84.0,True
59914,2442, Note_on_c,73,17,6,1,1,85.0,False
59915,2443, Note_on_c,72,15,6,1,1,84.0,True
59916,2444, Note_on_c,73,13,6,1,1,85.0,False
59917,2445, Note_on_c,72,10,6,1,1,84.0,True
59918,2446, Note_on_c,65,8,6,1,1,76.0,True
59919,2447, Note_on_c,73,6,6,1,1,85.0,False
59920,2448, Note_on_c,72,4,6,1,1,84.0,True
59921,2649, Note_on_c,58,6,6,2,1,67.0,False
59922,2650, Note_on_c,63,9,6,2,1,73.0,False
59923,2650, Note_on_c,66,9,6,2,1,77.0,False
59924,2651, Note_on_c,65,12,6,2,1,76.0,True
59925,2651, Note_on_c,68,12,6,2,1,79.0,False
59926,2652, Note_on_c,63,15,6,2,1,73.0,False
59927,2652, Note_on_c,66,15,6,2,1,77.0,False
59928,2653, Note_on_c,65,18,6,2,1,76.0,True
59929,2653, Note_on_c,70,18,6,2,1,81.0,False
59930,2654, Note_on_c,58,20,6,2,1,67.0,False
59931,2655, Note_on_c,63,23,6,2,1,73.0,False
59932,2655, Note_on_c,66,23,6,2,1,77.0,False
59933,2656, Note_on_c,65,26,6,2,1,76.0,True
59934,2656, Note_on_c,68,26,6,2,1,79.0,False
59935,2657, Note_on_c,58,29,6,2,1,67.0,False
59936,2658, Note_on_c,63,32,6,2,1,73.0,False
59937,2658, Note_on_c,66,32,6,2,1,77.0,False
59938,2659, Note_on_c,65,35,6,2,1,76.0,True
59939,2659, Note_on_c,68,35,6,2,1,79.0,False
59940,2660, Note_on_c,63,38,6,2,1,73.0,False
59941,2660, Note_on_c,66,38,6,2,1,77.0,False
59942,2661, Note_on_c,65,41,6,2,1,76.0,True
59943,2661, Note_on_c,70,41,6,2,1,81.0,False
59944,2662, Note_on_c,58,44,6,2,1,67.0,False
59945,2663, Note_on_c,63,47,6,2,1,73.0,False
59946,2663, Note_on_c,66,47,6,2,1,77.0,False
59947,2664, Note_on_c,65,49,6,2,1,76.0,True
59948,2664, Note_on_c,68,49,6,2,1,79.0,False
59949,2665, Note_on_c,58,52,6,2,1,67.0,False
59950,2666, Note_on_c,63,55,6,2,1,73.0,False
59951,2666, Note_on_c,66,55,6,2,1,77.0,False
59952,2667, Note_on_c,65,58,6,2,1,76.0,True
59953,2667, Note_on_c,68,58,6,2,1,79.0,False
59954,2668, Note_on_c,63,61,6,2,1,73.0,False
59955,2668, Note_on_c,66,61,6,2,1,77.0,False
59956,2669, Note_on_c,65,64,6,2,1,76.0,True
59957,2669, Note_on_c,70,64,6,2,1,81.0,False
59958,2670, Note_on_c,58,67,6,2,1,67.0,False
59959,2671, Note_on_c,63,70,6,2,1,73.0,False
59960,2671, Note_on_c,66,70,6,2,1,77.0,False
59961,2672, Note_on_c,65,73,6,2,1,76.0,True
59962,2672, Note_on_c,68,73,6,2,1,79.0,False
59963,2673, Note_on_c,58,76,6,2,1,67.0,False
59964,2674, Note_on_c,63,76,6,2,1,73.0,False
59965,2674, Note_on_c,66,76,6,2,1,77.0,False
59966,2675, Note_on_c,65,76,6,2,1,76.0,True
59967,2675, Note_on_c,68,76,6,2,1,79.0,False
59968,2676, Note_on_c,63,76,6,2,1,73.0,False
59969,2676, Note_on_c,66,76,6,2,1,77.0,False
59970,2677, Note_on_c,65,76,6,2,1,76.0,True
59971,2677, Note_on_c,70,76,6,2,1,81.0,False
59972,2678, Note_on_c,58,76,6,2,1,67.0,False
59973,2679, Note_on_c,63,76,6,2,1,73.0,False
59974,2679, Note_on_c,66,76,6,2,1,77.0,False
59975,2680, Note_on_c,65,76,6,2,1,76.0,True
59976,2680, Note_on_c,68,76,6,2,1,79.0,False
59977,2681, Note_on_c,58,76,6,2,1,67.0,False
59978,2682, Note_on_c,63,76,6,2,1,73.0,False
59979,2682, Note_on_c,66,76,6,2,1,77.0,False
59980,2683, Note_on_c,65,76,6,2,1,76.0,True
59981,2683, Note_on_c,68,76,6,2,1,79.0,False
59982,2684, Note_on_c,63,76,6,2,1,73.0,False
59983,2684, Note_on_c,66,76,6,2,1,77.0,False
59984,2685, Note_on_c,65,76,6,2,1,76.0,True
59985,2685, Note_on_c,70,76,6,2,1,81.0,False
59986,2686, Note_on_c,58,76,6,2,1,67.0,False
59987,2687, Note_on_c,63,76,6,2,1,73.0,False
59988,2687, Note_on_c,66,76,6,2,1,77.0,False
59989,2688, Note_on_c,65,76,6,2,1,76.0,True
59990,2688, Note_on_c,68,76,6,2,1,79.0,False
59991,2689, Note_on_c,58,76,6,2,1,67.0,False
59992,2690, Note_on_c,63,76,6,2,1,73.0,False
59993,2690, Note_on_c,66,76,6,2,1,77.0,False
59994,2691, Note_on_c,65,76,6,2,1,76.0,True
59995,2691, Note_on_c,68,76,6,2,1,79.0,False
59996,2692, Note_on_c,63,76,6,2,1,73.0,False
59997,2692, Note_on_c,66,76,6,2,1,77.0,False
59998,2693, Note_on_c,65,76,6,2,1,76.0,True
59999,2693, Note_on_c,70,76,6,2,1,81.0,False
60000,2694, Note_on_c,58,76,6,2,1,67.0,False
60001,2695, Note_on_c,63,76,6,2,1,73.0,False
60002,2695, Note_on_c,66,76,6,2,1,77.0,False
60003,2696, Note_on_c,65,76,6,2,1,76.0,True
60004,2696, Note_on_c,68,76,6,2,1,79.0,False
60005,2697, Note_on_c,58,76,6,2,1,67.0,False
60006,2698, Note_on_c,63,76,6,2,1,73.0,False
60007,2698, Note_on_c,66,76,6,2,1,77.0,False
60008,2699, Note_on_c,65,76,6,2,1,76.0,True
60009,2699, Note_on_c,68,76,6,2,1,79.0,False
60010,2700, Note_on_c,63,76,6,2,1,73.0,False
60011,2700, Note_on_c,66,76,6,2,1,77.0,False
60012,2701, Note_on_c,65,76,6,2,1,76.0,True
60013,2701, Note_on_c,70,76,6,2,1,81.0,False
60014,2702, Note_on_c,58,76,6,2,1,67.0,False
60015,2703, Note_on_c,63,76,6,2,1,73.0,False
60016,2703, Note_on_c,66,76,6,2,1,77.0,False
60017,2704, Note_on_c,65,76,6,2,1,76.0,True
60018,2704, Note_on_c,68,76,6,2,1,79.0,False
60019,2705, Note_on_c,58,76,6,2,1,67.0,False
60020,2706, Note_on_c,63,76,6,2,1,73.0,False
60021,2706, Note_on_c,66,76,6,2,1,77.0,False
60022,2707, Note_on_c,65,76,6,2,1,76.0,True
60023,2707, Note_on_c,68,76,6,2,1,79.0,False
60024,2708, Note_on_c,63,76,6,2,1,73.0,False
60025,2708, Note_on_c,66,76,6,2,1,77.0,False
60026,2709, Note_on_c,65,76,6,2,1,76.0,True
60027,2709, Note_on_c,70,76,6,2,1,81.0,False
60028,2710, Note_on_c,58,76,6,2,1,67.0,False
60029,2711, Note_on_c,63,76,6,2,1,73.0,False
60030,2711, Note_on_c,66,76,6,2,1,77.0,False
60031,2712, Note_on_c,65,76,6,2,1,76.0,True
60032,2712, Note_on_c,68,76,6,2,1,79.0,False
60033,2713, Note_on_c,58,76,6,2,1,67.0,False
60034,2714, Note_on_c,63,76,6,2,1,73.0,False
60035,2714, Note_on_c,66,76,6,2,1,77.0,False
60036,2715, Note_on_c,65,76,6,2,1,76.0,True
60037,2715, Note_on_c,68,76,6,2,1,79.0,False
60038,2716, Note_on_c,63,76,6,2,1,73.0,False
60039,2716, Note_on_c,66,76,6,2,1,77.0,False
60040,2717, Note_on_c,65,76,6,2,1,76.0,True
60041,2717, Note_on_c,70,76,6,2,1,81.0,False
60042,2718, Note_on_c,58,76,6,2,1,67.0,False
60043,2719, Note_on_c,63,76,6,2,1,73.0,False
60044,2719, Note_on_c,66,76,6,2,1,77.0,False
60045,2720, Note_on_c,65,76,6,2,1,76.0,True
60046,2720, Note_on_c,68,76,6,2,1,79.0,False
60047,2721, Note_on_c,58,76,6,2,1,67.0,False
60048,2722, Note_on_c,63,76,6,2,1,73.0,False
60049,2722, Note_on_c,66,76,6,2,1,77.0,False
60050,2723, Note_on_c,65,76,6,2,1,76.0,True
60051,2723, Note_on_c,68,76,6,2,1,79.0,False
60052,2724, Note_on_c,63,76,6,2,1,73.0,False
60053,2724, Note_on_c,66,76,6,2,1,77.0,False
60054,2725, Note_on_c,65,76,6,2,1,76.0,True
60055,2725, Note_on_c,70,76,6,2,1,81.0,False
60056,2726, Note_on_c,58,76,6,2,1,67.0,False
60057,2727, Note_on_c,63,76,6,2,1,73.0,False
60058,2727, Note_on_c,66,76,6,2,1,77.0,False
60059,2728, Note_on_c,65,76,6,2,1,76.0,True
60060,2728, Note_on_c,68,76,6,2,1,79.0,False
60061,2729, Note_on_c,58,76,6,2,1,67.0,False
60062,2730, Note_on_c,63,76,6,2,1,73.0,False
60063,2730, Note_on_c,66,76,6,2,1,77.0,False
60064,2731, Note_on_c,65,76,6,2,1,76.0,True
60065,2731, Note_on_c,68,76,6,2,1,79.0,False
60066,2732, Note_on_c,63,76,6,2,1,73.0,False
60067,2732, Note_on_c,66,76,6,2,1,77.0,False
60068,2733, Note_on_c,65,76,6,2,1,76.0,True
60069,2733, Note_on_c,70,76,6,2,1,81.0,False
60070,2734, Note_on_c,58,76,6,2,1,67.0,False
60071,2735, Note_on_c,63,76,6,2,1,73.0,False
60072,2735, Note_on_c,66,76,6,2,1,77.0,False
60073,2736, Note_on_c,65,76,6,2,1,76.0,True
60074,2736, Note_on_c,68,76,6,2,1,79.0,False
60075,2737, Note_on_c,58,76,6,2,1,67.0,False
60076,2738, Note_on_c,63,76,6,2,1,73.0,False
60077,2738, Note_on_c,66,76,6,2,1,77.0,False
60078,2739, Note_on_c,65,76,6,2,1,76.0,True
60079,2739, Note_on_c,68,76,6,2,1,79.0,False
60080,2740, Note_on_c,63,76,6,2,1,73.0,False
60081,2740, Note_on_c,66,76,6,2,1,77.0,False
60082,2741, Note_on_c,65,76,6,2,1,76.0,True
60083,2741, Note_on_c,70,76,6,2,1,81.0,False
60084,2742, Note_on_c,58,76,6,2,1,67.0,False
60085,2743, Note_on_c,63,76,6,2,1,73.0,False
60086,2743, Note_on_c,66,76,6,2,1,77.0,False
60087,2744, Note_on_c,65,76,6,2,1,76.0,True
60088,2744, Note_on_c,68,76,6,2,1,79.0,False
60089,2745, Note_on_c,58,76,6,2,1,67.0,False
60090,2746, Note_on_c,63,76,6,2,1,73.0,False
60091,2746, Note_on_c,66,76,6,2,1,77.0,False
60092,2747, Note_on_c,65,76,6,2,1,76.0,True
60093,2747, Note_on_c,68,76,6,2,1,79.0,False
60094,2748, Note_on_c,63,76,6,2,1,73.0,False
60095,2748, Note_on_c,66,76,6,2,1,77.0,False
60096,2749, Note_on_c,65,76,6,2,1,76.0,True
60097,2749, Note_on_c,70,76,6,2,1,81.0,False
60098,2750, Note_on_c,58,76,6,2,1,67.0,False
60099,2751, Note_on_c,63,76,6,2,1,73.0,False
60100,2751, Note_on_c,66,76,6,2,1,77.0,False
60101,2752, Note_on_c,65,76,6,2,1,76.0,True
60102,2752, Note_on_c,68,76,6,2,1,79.0,False
60103,2753, Note_on_c,58,76,6,2,1,67.0,False
60104,2754, Note_on_c,63,76,6,2,1,73.0,False
60105,2754, Note_on_c,66,76,6,2,1,77.0,False
60106,2755, Note_on_c,65,76,6,2,1,76.0,True
60107,2755, Note_on_c,68,76,6,2,1,79.0,False
60108,2756, Note_on_c,63,76,6,2,1,73.0,False
60109,2756, Note_on_c,66,76,6,2,1,77.0,False
60110,2757, Note_on_c,65,76,6,2,1,76.0,True
60111,2757, Note_on_c,70,76,6,2,1,81.0,False
60112,2758, Note_on_c,58,76,6,2,1,67.0,False
60113,2759, Note_on_c,63,76,6,2,1,73.0,False
60114,2759, Note_on_c,66,76,6,2,1,77.0,False
60115,2760, Note_on_c,65,76,6,2,1,76.0,True
60116,2760, Note_on_c,68,76,6,2,1,79.0,False
60117,2761, Note_on_c,58,76,6,2,1,67.0,False
60118,2762, Note_on_c,63,76,6,2,1,73.0,False
60119,2762, Note_on_c,66,76,6,2,1,77.0,False
60120,2763, Note_on_c,65,76,6,2,1,76.0,True
60121,2763, Note_on_c,68,76,6,2,1,79.0,False
60122,2764, Note_on_c,63,76,6,2,1,73.0,False
60123,2764, Note_on_c,66,76,6,2,1,77.0,False
60124,2765, Note_on_c,65,76,6,2,1,76.0,True
60125,2765, Note_on_c,70,76,6,2,1,81.0,False
60126,2766, Note_on_c,58,76,6,2,1,67.0,False
60127,2767, Note_on_c,63,76,6,2,1,73.0,False
60128,2767, Note_on_c,66,76,6,2,1,77.0,False
60129,2768, Note_on_c,65,76,6,2,1,76.0,True
60130,2768, Note_on_c,68,76,6,2,1,79.0,False
60131,2769, Note_on_c,58,76,6,2,1,67.0,False
60132,2770, Note_on_c,63,76,6,2,1,73.0,False
60133,2770, Note_on_c,66,76,6,2,1,77.0,False
60134,2771, Note_on_c,65,76,6,2,1,76.0,True
60135,2771, Note_on_c,68,76,6,2,1,79.0,False
60136,2772, Note_on_c,63,76,6,2,1,73.0,False
60137,2772, Note_on_c,66,76,6,2,1,77.0,False
60138,2773, Note_on_c,65,76,6,2,1,76.0,True
60139,2773, Note_on_c,70,76,6,2,1,81.0,False
60140,2774, Note_on_c,58,76,6,2,1,67.0,False
60141,2775, Note_on_c,63,76,6,2,1,73.0,False
60142,2775, Note_on_c,66,76,6,2,1,77.0,False
60143,2776, Note_on_c,65,76,6,2,1,76.0,True
60144,2776, Note_on_c,68,76,6,2,1,79.0,False
60145,2777, Note_on_c,58,76,6,2,1,67.0,False
60146,2778, Note_on_c,63,76,6,2,1,73.0,False
60147,2778, Note_on_c,66,76,6,2,1,77.0,False
60148,2779, Note_on_c,65,76,6,2,1,76.0,True
60149,2779, Note_on_c,68,76,6,2,1,79.0,False
60150,2780, Note_on_c,63,76,6,2,1,73.0,False
60151,2780, Note_on_c,66,76,6,2,1,77.0,False
60152,2781, Note_on_c,65,76,6,2,1,76.0,True
60153,2781, Note_on_c,70,76,6,2,1,81.0,False
60154,2782, Note_on_c,58,76,6,2,1,67.0,False
60155,2783, Note_on_c,63,76,6,2,1,73.0,False
60156,2783, Note_on_c,66,76,6,2,1,77.0,False
60157,2784, Note_on_c,65,76,6,2,1,76.0,True
60158,2784, Note_on_c,68,76,6,2,1,79.0,False
60159,2785, Note_on_c,58,76,6,2,1,67.0,False
60160,2786, Note_on_c,63,76,6,2,1,73.0,False
60161,2786, Note_on_c,66,76,6,2,1,77.0,False
60162,2787, Note_on_c,65,76,6,2,1,76.0,True
60163,2787, Note_on_c,68,76,6,2,1,79.0,False
60164,2788, Note_on_c,63,76,6,2,1,73.0,False
60165,2788, Note_on_c,66,76,6,2,1,77.0,False
60166,2789, Note_on_c,65,76,6,2,1,76.0,True
60167,2789, Note_on_c,70,76,6,2,1,81.0,False
60168,2790, Note_on_c,58,76,6,2,1,67.0,False
60169,2791, Note_on_c,63,76,6,2,1,73.0,False
60170,2791, Note_on_c,66,76,6,2,1,77.0,False
60171,2792, Note_on_c,65,76,6,2,1,76.0,True
60172,2792, Note_on_c,68,76,6,2,1,79.0,False
60173,2793, Note_on_c,58,76,6,2,1,67.0,False
60174,2794, Note_on_c,63,76,6,2,1,73.0,False
60175,2794, Note_on_c,66,76,6,2,1,77.0,False
60176,2795, Note_on_c,65,76,6,2,1,76.0,True
60177,2795, Note_on_c,68,76,6,2,1,79.0,False
60178,2796, Note_on_c,63,76,6,2,1,73.0,False
60179,2796, Note_on_c,66,76,6,2,1,77.0,False
60180,2797, Note_on_c,65,76,6,2,1,76.0,True
60181,2797, Note_on_c,70,76,6,2,1,81.0,False
60182,2798, Note_on_c,58,76,6,2,1,67.0,False
60183,2799, Note_on_c,63,76,6,2,1,73.0,False
60184,2799, Note_on_c,66,76,6,2,1,77.0,False
60185,2800, Note_on_c,65,76,6,2,1,76.0,True
60186,2800, Note_on_c,68,76,6,2,1,79.0,False
60187,2801, Note_on_c,58,76,6,2,1,67.0,False
60188,2802, Note_on_c,63,76,6,2,1,73.0,False
60189,2802, Note_on_c,66,76,6,2,1,77.0,False
60190,2803, Note_on_c,65,76,6,2,1,76.0,True
60191,2803, Note_on_c,68,76,6,2,1,79.0,False
60192,2804, Note_on_c,63,76,6,2,1,73.0,False
60193,2804, Note_on_c,66,76,6,2,1,77.0,False
60194,2805, Note_on_c,65,76,6,2,1,76.0,True
60195,2805, Note_on_c,70,76,6,2,1,81.0,False
60196,2806, Note_on_c,58,76,6,2,1,67.0,False
60197,2807, Note_on_c,63,76,6,2,1,73.0,False
60198,2807, Note_on_c,66,76,6,2,1,77.0,False
60199,2808, Note_on_c,65,76,6,2,1,76.0,True
60200,2808, Note_on_c,68,76,6,2,1,79.0,False
60201,2809, Note_on_c,58,76,6,2,1,67.0,False
60202,2810, Note_on_c,63,76,6,2,1,73.0,False
60203,2810, Note_on_c,66,76,6,2,1,77.0,False
60204,2811, Note_on_c,65,76,6,2,1,76.0,True
60205,2811, Note_on_c,68,76,6,2,1,79.0,False
60206,2812, Note_on_c,63,76,6,2,1,73.0,False
60207,2812, Note_on_c,66,76,6,2,1,77.0,False
60208,2813, Note_on_c,65,76,6,2,1,76.0,True
60209,2813, Note_on_c,70,76,6,2,1,81.0,False
60210,2814, Note_on_c,58,76,6,2,1,67.0,False
60211,2815, Note_on_c,63,76,6,2,1,73.0,False
60212,2815, Note_on_c,66,76,6,2,1,77.0,False
60213,2816, Note_on_c,65,76,6,2,1,76.0,True
60214,2816, Note_on_c,68,76,6,2,1,79.0,False
60215,2817, Note_on_c,58,76,6,2,1,67.0,False
60216,2818, Note_on_c,63,76,6,2,1,73.0,False
60217,2818, Note_on_c,66,76,6,2,1,77.0,False
60218,2819, Note_on_c,65,76,6,2,1,76.0,True
60219,2819, Note_on_c,68,76,6,2,1,79.0,False
60220,2820, Note_on_c,63,76,6,2,1,73.0,False
60221,2820, Note_on_c,66,76,6,2,1,77.0,False
60222,2821, Note_on_c,65,76,6,2,1,76.0,True
60223,2821, Note_on_c,70,76,6,2,1,81.0,False
60224,2822, Note_on_c,58,76,6,2,1,67.0,False
60225,2823, Note_on_c,63,76,6,2,1,73.0,False
60226,2823, Note_on_c,66,76,6,2,1,77.0,False
60227,2824, Note_on_c,65,76,6,2,1,76.0,True
60228,2824, Note_on_c,68,76,6,2,1,79.0,False
60229,2825, Note_on_c,58,76,6,2,1,67.0,False
60230,2826, Note_on_c,63,76,6,2,1,73.0,False
60231,2826, Note_on_c,66,76,6,2,1,77.0,False
60232,2827, Note_on_c,65,76,6,2,1,76.0,True
60233,2827, Note_on_c,68,76,6,2,1,79.0,False
60234,2828, Note_on_c,63,76,6,2,1,73.0,False
60235,2828, Note_on_c,66,76,6,2,1,77.0,False
60236,2829, Note_on_c,65,76,6,2,1,76.0,True
60237,2829, Note_on_c,70,76,6,2,1,81.0,False
60238,2830, Note_on_c,58,76,6,2,1,67.0,False
60239,2831, Note_on_c,63,76,6,2,1,73.0,False
60240,2831, Note_on_c,66,76,6,2,1,77.0,False
60241,2832, Note_on_c,65,76,6,2,1,76.0,True
60242,2832, Note_on_c,68,76,6,2,1,79.0,False
60243,2833, Note_on_c,58,76,6,2,1,67.0,False
60244,2834, Note_on_c,63,76,6,2,1,73.0,False
60245,2834, Note_on_c,66,76,6,2,1,77.0,False
60246,2835, Note_on_c,65,76,6,2,1,76.0,True
60247,2835, Note_on_c,68,76,6,2,1,79.0,False
60248,2836, Note_on_c,63,76,6,2,1,73.0,False
60249,2836, Note_on_c,66,76,6,2,1,77.0,False
60250,2837, Note_on_c,65,76,6,2,1,76.0,True
60251,2837, Note_on_c,70,76,6,2,1,81.0,False
60252,2838, Note_on_c,58,76,6,2,1,67.0,False
60253,2839, Note_on_c,63,76,6,2,1,73.0,False
60254,2839, Note_on_c,66,76,6,2,1,77.0,False
60255,2840, Note_on_c,65,76,6,2,1,76.0,True
60256,2840, Note_on_c,68,76,6,2,1,79.0,False
60257,2841, Note_on_c,58,76,6,2,1,67.0,False
60258,2842, Note_on_c,63,76,6,2,1,73.0,False
60259,2842, Note_on_c,66,76,6,2,1,77.0,False
60260,2843, Note_on_c,65,76,6,2,1,76.0,True
60261,2843, Note_on_c,68,76,6,2,1,79.0,False
60262,2844, Note_on_c,63,76,6,2,1,73.0,False
60263,2844, Note_on_c,66,76,6,2,1,77.0,False
60264,2845, Note_on_c,65,76,6,2,1,76.0,True
60265,2845, Note_on_c,70,76,6,2,1,81.0,False
60266,2846, Note_on_c,58,76,6,2,1,67.0,False
60267,2847, Note_on_c,63,76,6,2,1,73.0,False
60268,2847, Note_on_c,66,76,6,2,1,77.0,False
60269,2848, Note_on_c,65,76,6,2,1,76.0,True
60270,2848, Note_on_c,68,76,6,2,1,79.0,False
60271,2849, Note_on_c,58,76,6,2,1,67.0,False
60272,2850, Note_on_c,63,76,6,2,1,73.0,False
60273,2850, Note_on_c,66,76,6,2,1,77.0,False
60274,2851, Note_on_c,65,76,6,2,1,76.0,True
60275,2851, Note_on_c,68,76,6,2,1,79.0,False
60276,2852, Note_on_c,63,76,6,2,1,73.0,False
60277,2852, Note_on_c,66,76,6,2,1,77.0,False
60278,2853, Note_on_c,65,76,6,2,1,76.0,True
60279,2853, Note_on_c,70,76,6,2,1,81.0,False
60280,2854, Note_on_c,58,76,6,2,1,67.0,False
60281,2855, Note_on_c,63,76,6,2,1,73.0,False
60282,2855, Note_on_c,66,76,6,2,1,77.0,False
60283,2856, Note_on_c,65,76,6,2,1,76.0,True
60284,2856, Note_on_c,68,76,6,2,1,79.0,False
60285,2857, Note_on_c,58,76,6,2,1,67.0,False
60286,2858, Note_on_c,63,76,6,2,1,73.0,False
60287,2858, Note_on_c,66,76,6,2,1,77.0,False
60288,2859, Note_on_c,65,76,6,2,1,76.0,True
60289,2859, Note_on_c,68,76,6,2,1,79.0,False
60290,2860, Note_on_c,63,76,6,2,1,73.0,False
60291,2860, Note_on_c,66,76,6,2,1,77.0,False
60292,2861, Note_on_c,65,76,6,2,1,76.0,True
60293,2861, Note_on_c,70,76,6,2,1,81.0,False
60294,2862, Note_on_c,58,76,6,2,1,67.0,False
60295,2863, Note_on_c,63,76,6,2,1,73.0,False
60296,2863, Note_on_c,66,76,6,2,1,77.0,False
60297,2864, Note_on_c,65,76,6,2,1,76.0,True
60298,2864, Note_on_c,68,76,6,2,1,79.0,False
60299,2865, Note_on_c,58,76,6,2,1,67.0,False
60300,2866, Note_on_c,63,76,6,2,1,73.0,False
60301,2866, Note_on_c,66,76,6,2,1,77.0,False
60302,2867, Note_on_c,65,76,6,2,1,76.0,True
60303,2867, Note_on_c,68,76,6,2,1,79.0,False
60304,2868, Note_on_c,63,76,6,2,1,73.0,False
60305,2868, Note_on_c,66,76,6,2,1,77.0,False
60306,2869, Note_on_c,65,76,6,2,1,76.0,True
60307,2869, Note_on_c,70,76,6,2,1,81.0,False
60308,2870, Note_on_c,58,76,6,2,1,67.0,False
60309,2871, Note_on_c,63,76,6,2,1,73.0,False
60310,2871, Note_on_c,66,76,6,2,1,77.0,False
60311,2872, Note_on_c,65,76,6,2,1,76.0,True
60312,2872, Note_on_c,68,76,6,2,1,79.0,False
60313,2873, Note_on_c,58,76,6,2,1,67.0,False
60314,2874, Note_on_c,63,76,6,2,1,73.0,False
60315,2874, Note_on_c,66,76,6,2,1,77.0,False
60316,2875, Note_on_c,65,76,6,2,1,76.0,True
60317,2875, Note_on_c,68,76,6,2,1,79.0,False
60318,2876, Note_on_c,63,76,6,2,1,73.0,False
60319,2876, Note_on_c,66,76,6,2,1,77.0,False
60320,2877, Note_on_c,65,76,6,2,1,76.0,True
60321,2877, Note_on_c,70,76,6,2,1,81.0,False
60322,2878, Note_on_c,58,76,6,2,1,67.0,False
60323,2879, Note_on_c,63,76,6,2,1,73.0,False
60324,2879, Note_on_c,66,76,6,2,1,77.0,False
60325,2880, Note_on_c,65,76,6,2,1,76.0,True
60326,2880, Note_on_c,68,76,6,2,1,79.0,False
60327,2881, Note_on_c,58,76,6,2,1,67.0,False
60328,2882, Note_on_c,63,76,6,2,1,73.0,False
60329,2882, Note_on_c,66,76,6,2,1,77.0,False
60330,2883, Note_on_c,65,76,6,2,1,76.0,True
60331,2883, Note_on_c,68,76,6,2,1,79.0,False
60332,2884, Note_on_c,63,76,6,2,1,73.0,False
60333,2884, Note_on_c,66,76,6,2,1,77.0,False
60334,2885, Note_on_c,65,76,6,2,1,76.0,True
60335,2885, Note_on_c,70,76,6,2,1,81.0,False
60336,2886, Note_on_c,58,76,6,2,1,67.0,False
60337,2887, Note_on_c,63,76,6,2,1,73.0,False
60338,2887, Note_on_c,66,76,6,2,1,77.0,False
60339,2888, Note_on_c,65,76,6,2,1,76.0,True
60340,2888, Note_on_c,68,76,6,2,1,79.0,False
60341,2889, Note_on_c,58,76,6,2,1,67.0,False
60342,2890, Note_on_c,63,76,6,2,1,73.0,False
60343,2890, Note_on_c,66,76,6,2,1,77.0,False
60344,2891, Note_on_c,65,76,6,2,1,76.0,True
60345,2891, Note_on_c,68,76,6,2,1,79.0,False
60346,2892, Note_on_c,63,76,6,2,1,73.0,False
60347,2892, Note_on_c,66,76,6,2,1,77.0,False
60348,2893, Note_on_c,65,76,6,2,1,76.0,True
60349,2893, Note_on_c,70,76,6,2,1,81.0,False
60350,2894, Note_on_c,58,76,6,2,1,67.0,False
60351,2895, Note_on_c,63,76,6,2,1,73.0,False
60352,2895, Note_on_c,66,76,6,2,1,77.0,False
60353,2896, Note_on_c,65,76,6,2,1,76.0,True
60354,2896, Note_on_c,68,76,6,2,1,79.0,False
60355,2897, Note_on_c,58,76,6,2,1,67.0,False
60356,2898, Note_on_c,63,76,6,2,1,73.0,False
60357,2898, Note_on_c,66,76,6,2,1,77.0,False
60358,2899, Note_on_c,65,76,6,2,1,76.0,True
60359,2899, Note_on_c,68,76,6,2,1,79.0,False
60360,2900, Note_on_c,63,76,6,2,1,73.0,False
60361,2900, Note_on_c,66,76,6,2,1,77.0,False
60362,2901, Note_on_c,65,76,6,2,1,76.0,True
60363,2901, Note_on_c,70,76,6,2,1,81.0,False
60364,2902, Note_on_c,58,76,6,2,1,67.0,False
60365,2903, Note_on_c,63,76,6,2,1,73.0,False
60366,2903, Note_on_c,66,76,6,2,1,77.0,False
60367,2904, Note_on_c,65,76,6,2,1,76.0,True
60368,2904, Note_on_c,68,76,6,2,1,79.0,False
60369,2905, Note_on_c,58,76,6,2,1,67.0,False
60370,2906, Note_on_c,63,76,6,2,1,73.0,False
60371,2906, Note_on_c,66,76,6,2,1,77.0,False
60372,2907, Note_on_c,65,76,6,2,1,76.0,True
60373,2907, Note_on_c,68,76,6,2,1,79.0,False
60374,2908, Note_on_c,63,76,6,2,1,73.0,False
60375,2908, Note_on_c,66,76,6,2,1,77.0,False
60376,2909, Note_on_c,65,76,6,2,1,76.0,True
60377,2909, Note_on_c,70,76,6,2,1,81.0,False
60378,2910, Note_on_c,58,76,6,2,1,67.0,False
60379,2911, Note_on_c,63,76,6,2,1,73.0,False
60380,2911, Note_on_c,66,76,6,2,1,77.0,False
60381,2912, Note_on_c,65,76,6,2,1,76.0,True
60382,2912, Note_on_c,68,76,6,2,1,79.0,False
60383,2913, Note_on_c,58,76,6,2,1,67.0,False
60384,2914, Note_on_c,63,76,6,2,1,73.0,False
60385,2914, Note_on_c,66,76,6,2,1,77.0,False
60386,2915, Note_on_c,65,76,6,2,1,76.0,True
60387,2915, Note_on_c,68,76,6,2,1,79.0,False
60388,2916, Note_on_c,63,76,6,2,1,73.0,False
60389,2916, Note_on_c,66,76,6,2,1,77.0,False
60390,2917, Note_on_c,65,76,6,2,1,76.0,True
60391,2917, Note_on_c,70,76,6,2,1,81.0,False
60392,2918, Note_on_c,58,76,6,2,1,67.0,False
60393,2919, Note_on_c,63,76,6,2,1,73.0,False
60394,2919, Note_on_c,66,76,6,2,1,77.0,False
60395,2920, Note_on_c,65,76,6,2,1,76.0,True
60396,2920, Note_on_c,68,76,6,2,1,79.0,False
60397,2921, Note_on_c,58,76,6,2,1,67.0,False
60398,2922, Note_on_c,63,76,6,2,1,73.0,False
60399,2922, Note_on_c,66,76,6,2,1,77.0,False
60400,2923, Note_on_c,65,76,6,2,1,76.0,True
60401,2923, Note_on_c,68,76,6,2,1,79.0,False
60402,2924, Note_on_c,63,76,6,2,1,73.0,False
60403,2924, Note_on_c,66,76,6,2,1,77.0,False
60404,2925, Note_on_c,65,76,6,2,1,76.0,True
60405,2925, Note_on_c,70,76,6,2,1,81.0,False
60406,2926, Note_on_c,58,76,6,2,1,67.0,False
60407,2927, Note_on_c,63,76,6,2,1,73.0,False
60408,2927, Note_on_c,66,76,6,2,1,77.0,False
60409,2928, Note_on_c,65,76,6,2,1,76.0,True
60410,2928, Note_on_c,68,76,6,2,1,79.0,False
60411,2929, Note_on_c,58,76,6,2,1,67.0,False
60412,2930, Note_on_c,63,76,6,2,1,73.0,False
60413,2930, Note_on_c,66,76,6,2,1,77.0,False
60414,2931, Note_on_c,65,76,6,2,1,76.0,True
60415,2931, Note_on_c,68,76,6,2,1,79.0,False
60416,2932, Note_on_c,63,76,6,2,1,73.0,False
60417,2932, Note_on_c,66,76,6,2,1,77.0,False
60418,2933, Note_on_c,65,76,6,2,1,76.0,True
60419,2933, Note_on_c,70,76,6,2,1,81.0,False
60420,2934, Note_on_c,58,76,6,2,1,67.0,False
60421,2935, Note_on_c,63,76,6,2,1,73.0,False
60422,2935, Note_on_c,66,76,6,2,1,77.0,False
60423,2936, Note_on_c,65,76,6,2,1,76.0,True
60424,2936, Note_on_c,68,76,6,2,1,79.0,False
60425,2937, Note_on_c,58,76,6,2,1,67.0,False
60426,2938, Note_on_c,63,76,6,2,1,73.0,False
60427,2938, Note_on_c,66,76,6,2,1,77.0,False
60428,2939, Note_on_c,65,76,6,2,1,76.0,True
60429,2939, Note_on_c,68,76,6,2,1,79.0,False
60430,2940, Note_on_c,63,76,6,2,1,73.0,False
60431,2940, Note_on_c,66,76,6,2,1,77.0,False
60432,2941, Note_on_c,65,76,6,2,1,76.0,True
60433,2941, Note_on_c,70,76,6,2,1,81.0,False
60434,2942, Note_on_c,58,76,6,2,1,67.0,False
60435,2943, Note_on_c,63,76,6,2,1,73.0,False
60436,2943, Note_on_c,66,76,6,2,1,77.0,False
60437,2944, Note_on_c,65,76,6,2,1,76.0,True
60438,2944, Note_on_c,68,76,6,2,1,79.0,False
60439,2945, Note_on_c,58,76,6,2,1,67.0,False
60440,2946, Note_on_c,63,76,6,2,1,73.0,False
60441,2946, Note_on_c,66,76,6,2,1,77.0,False
60442,2947, Note_on_c,65,76,6,2,1,76.0,True
60443,2947, Note_on_c,68,76,6,2,1,79.0,False
60444,2948, Note_on_c,63,76,6,2,1,73.0,False
60445,2948, Note_on_c,66,76,6,2,1,77.0,False
60446,2949, Note_on_c,65,76,6,2,1,76.0,True
60447,2949, Note_on_c,70,76,6,2,1,81.0,False
60448,2950, Note_on_c,58,76,6,2,1,67.0,False
60449,2951, Note_on_c,63,76,6,2,1,73.0,False
60450,2951, Note_on_c,66,76,6,2,1,77.0,False
60451,2952, Note_on_c,65,76,6,2,1,76.0,True
60452,2952, Note_on_c,68,76,6,2,1,79.0,False
60453,2953, Note_on_c,58,76,6,2,1,67.0,False
60454,2954, Note_on_c,63,76,6,2,1,73.0,False
60455,2954, Note_on_c,66,76,6,2,1,77.0,False
60456,2955, Note_on_c,65,76,6,2,1,76.0,True
60457,2955, Note_on_c,68,76,6,2,1,79.0,False
60458,2956, Note_on_c,63,76,6,2,1,73.0,False
60459,2956, Note_on_c,66,76,6,2,1,77.0,False
60460,2957, Note_on_c,65,76,6,2,1,76.0,True
60461,2957, Note_on_c,70,76,6,2,1,81.0,False
60462,2958, Note_on_c,58,76,6,2,1,67.0,False
60463,2959, Note_on_c,63,76,6,2,1,73.0,False
60464,2959, Note_on_c,66,76,6,2,1,77.0,False
60465,2960, Note_on_c,65,76,6,2,1,76.0,True
60466,2960, Note_on_c,68,76,6,2,1,79.0,False
60467,2961, Note_on_c,58,76,6,2,1,67.0,False
60468,2962, Note_on_c,63,76,6,2,1,73.0,False
60469,2962, Note_on_c,66,76,6,2,1,77.0,False
60470,2963, Note_on_c,65,76,6,2,1,76.0,True
60471,2963, Note_on_c,68,76,6,2,1,79.0,False
60472,2964, Note_on_c,63,76,6,2,1,73.0,False
60473,2964, Note_on_c,66,76,6,2,1,77.0,False
60474,2965, Note_on_c,65,76,6,2,1,76.0,True
60475,2965, Note_on_c,70,76,6,2,1,81.0,False
60476,2966, Note_on_c,58,76,6,2,1,67.0,False
60477,2967, Note_on_c,63,76,6,2,1,73.0,False
60478,2967, Note_on_c,66,76,6,2,1,77.0,False
60479,2968, Note_on_c,65,76,6,2,1,76.0,True
60480,2968, Note_on_c,68,76,6,2,1,79.0,False
60481,2969, Note_on_c,58,76,6,2,1,67.0,False
60482,2970, Note_on_c,63,76,6,2,1,73.0,False
60483,2970, Note_on_c,66,76,6,2,1,77.0,False
60484,2971, Note_on_c,65,76,6,2,1,76.0,True
60485,2971, Note_on_c,68,76,6,2,1,79.0,False
60486,2972, Note_on_c,63,76,6,2,1,73.0,False
60487,2972, Note_on_c,66,76,6,2,1,77.0,False
60488,2973, Note_on_c,65,76,6,2,1,76.0,True
60489,2973, Note_on_c,70,76,6,2,1,81.0,False
60490,2974, Note_on_c,58,76,6,2,1,67.0,False
60491,2975, Note_on_c,63,76,6,2,1,73.0,False
60492,2975, Note_on_c,66,76,6,2,1,77.0,False
60493,2976, Note_on_c,65,76,6,2,1,76.0,True
60494,2976, Note_on_c,68,76,6,2,1,79.0,False
60495,2977, Note_on_c,58,76,6,2,1,67.0,False
60496,2978, Note_on_c,63,76,6,2,1,73.0,False
60497,2978, Note_on_c,66,76,6,2,1,77.0,False
60498,2979, Note_on_c,65,76,6,2,1,76.0,True
60499,2979, Note_on_c,68,76,6,2,1,79.0,False
60500,2980, Note_on_c,63,76,6,2,1,73.0,False
60501,2980, Note_on_c,66,76,6,2,1,77.0,False
60502,2981, Note_on_c,65,76,6,2,1,76.0,True
60503,2981, Note_on_c,70,76,6,2,1,81.0,False
60504,2982, Note_on_c,58,76,6,2,1,67.0,False
60505,2983, Note_on_c,63,76,6,2,1,73.0,False
60506,2983, Note_on_c,66,76,6,2,1,77.0,False
60507,2984, Note_on_c,65,76,6,2,1,76.0,True
60508,2984, Note_on_c,68,76,6,2,1,79.0,False
60509,2985, Note_on_c,58,76,6,2,1,67.0,False
60510,2986, Note_on_c,63,76,6,2,1,73.0,False
60511,2986, Note_on_c,66,76,6,2,1,77.0,False
60512,2987, Note_on_c,65,76,6,2,1,76.0,True
60513,2987, Note_on_c,68,76,6,2,1,79.0,False
60514,2988, Note_on_c,63,76,6,2,1,73.0,False
60515,2988, Note_on_c,66,76,6,2,1,77.0,False
60516,2989, Note_on_c,65,76,6,2,1,76.0,True
60517,2989, Note_on_c,70,76,6,2,1,81.0,False
60518,2990, Note_on_c,58,76,6,2,1,67.0,False
60519,2991, Note_on_c,63,76,6,2,1,73.0,False
60520,2991, Note_on_c,66,76,6,2,1,77.0,False
60521,2992, Note_on_c,65,76,6,2,1,76.0,True
60522,2992, Note_on_c,68,76,6,2,1,79.0,False
60523,2993, Note_on_c,58,76,6,2,1,67.0,False
60524,2994, Note_on_c,63,76,6,2,1,73.0,False
60525,2994, Note_on_c,66,76,6,2,1,77.0,False
60526,2995, Note_on_c,65,76,6,2,1,76.0,True
60527,2995, Note_on_c,68,76,6,2,1,79.0,False
60528,2996, Note_on_c,63,76,6,2,1,73.0,False
60529,2996, Note_on_c,66,76,6,2,1,77.0,False
60530,2997, Note_on_c,65,76,6,2,1,76.0,True
60531,2997, Note_on_c,70,76,6,2,1,81.0,False
60532,2998, Note_on_c,58,76,6,2,1,67.0,False
60533,2999, Note_on_c,63,76,6,2,1,73.0,False
60534,2999, Note_on_c,66,76,6,2,1,77.0,False
60535,3000, Note_on_c,65,76,6,2,1,76.0,True
60536,3000, Note_on_c,68,76,6,2,1,79.0,False
60537,3001, Note_on_c,58,76,6,2,1,67.0,False
60538,3002, Note_on_c,63,76,6,2,1,73.0,False
60539,3002, Note_on_c,66,76,6,2,1,77.0,False
60540,3003, Note_on_c,65,76,6,2,1,76.0,True
60541,3003, Note_on_c,68,76,6,2,1,79.0,False
60542,3004, Note_on_c,63,76,6,2,1,73.0,False
60543,3004, Note_on_c,66,76,6,2,1,77.0,False
60544,3005, Note_on_c,65,76,6,2,1,76.0,True
60545,3005, Note_on_c,70,76,6,2,1,81.0,False
60546,3006, Note_on_c,58,76,6,2,1,67.0,False
60547,3007, Note_on_c,63,76,6,2,1,73.0,False
60548,3007, Note_on_c,66,76,6,2,1,77.0,False
60549,3008, Note_on_c,65,76,6,2,1,76.0,True
60550,3008, Note_on_c,68,76,6,2,1,79.0,False
60551,3009, Note_on_c,58,76,6,2,1,67.0,False
60552,3010, Note_on_c,63,76,6,2,1,73.0,False
60553,3010, Note_on_c,66,76,6,2,1,77.0,False
60554,3011, Note_on_c,65,76,6,2,1,76.0,True
60555,3011, Note_on_c,68,76,6,2,1,79.0,False
60556,3012, Note_on_c,63,76,6,2,1,73.0,False
60557,3012, Note_on_c,66,76,6,2,1,77.0,False
60558,3013, Note_on_c,65,76,6,2,1,76.0,True
60559,3013, Note_on_c,70,76,6,2,1,81.0,False
60560,3014, Note_on_c,58,76,6,2,1,67.0,False
60561,3015, Note_on_c,63,76,6,2,1,73.0,False
60562,3015, Note_on_c,66,76,6,2,1,77.0,False
60563,3016, Note_on_c,65,76,6,2,1,76.0,True
60564,3016, Note_on_c,68,76,6,2,1,79.0,False
60565,3017, Note_on_c,58,76,6,2,1,67.0,False
60566,3018, Note_on_c,63,76,6,2,1,73.0,False
60567,3018, Note_on_c,66,76,6,2,1,77.0,False
60568,3019, Note_on_c,65,76,6,2,1,76.0,True
60569,3019, Note_on_c,68,76,6,2,1,79.0,False
60570,3020, Note_on_c,63,76,6,2,1,73.0,False
60571,3020, Note_on_c,66,76,6,2,1,77.0,False
60572,3021, Note_on_c,65,76,6,2,1,76.0,True
60573,3021, Note_on_c,70,76,6,2,1,81.0,False
60574,3022, Note_on_c,58,76,6,2,1,67.0,False
60575,3023, Note_on_c,63,76,6,2,1,73.0,False
60576,3023, Note_on_c,66,76,6,2,1,77.0,False
60577,3024, Note_on_c,65,76,6,2,1,76.0,True
60578,3024, Note_on_c,68,76,6,2,1,79.0,False
60579,3025, Note_on_c,58,76,6,2,1,67.0,False
60580,3026, Note_on_c,63,76,6,2,1,73.0,False
60581,3026, Note_on_c,66,76,6,2,1,77.0,False
60582,3027, Note_on_c,65,76,6,2,1,76.0,True
60583,3027, Note_on_c,68,76,6,2,1,79.0,False
60584,3028, Note_on_c,63,76,6,2,1,73.0,False
60585,3028, Note_on_c,66,76,6,2,1,77.0,False
60586,3029, Note_on_c,65,76,6,2,1,76.0,True
60587,3029, Note_on_c,70,76,6,2,1,81.0,False
60588,3030, Note_on_c,58,76,6,2,1,67.0,False
60589,3031, Note_on_c,63,76,6,2,1,73.0,False
60590,3031, Note_on_c,66,76,6,2,1,77.0,False
60591,3032, Note_on_c,65,76,6,2,1,76.0,True
60592,3032, Note_on_c,68,76,6,2,1,79.0,False
60593,3033, Note_on_c,58,76,6,2,1,67.0,False
60594,3034, Note_on_c,63,76,6,2,1,73.0,False
60595,3034, Note_on_c,66,76,6,2,1,77.0,False
60596,3035, Note_on_c,65,76,6,2,1,76.0,True
60597,3035, Note_on_c,68,76,6,2,1,79.0,False
60598,3036, Note_on_c,63,76,6,2,1,73.0,False
60599,3036, Note_on_c,66,76,6,2,1,77.0,False
60600,3037, Note_on_c,65,76,6,2,1,76.0,True
60601,3037, Note_on_c,70,76,6,2,1,81.0,False
60602,3038, Note_on_c,58,76,6,2,1,67.0,False
60603,3039, Note_on_c,63,76,6,2,1,73.0,False
60604,3039, Note_on_c,66,76,6,2,1,77.0,False
60605,3040, Note_on_c,65,76,6,2,1,76.0,True
60606,3040, Note_on_c,68,76,6,2,1,79.0,False
60607,3041, Note_on_c,58,76,6,2,1,67.0,False
60608,3042, Note_on_c,63,76,6,2,1,73.0,False
60609,3042, Note_on_c,66,76,6,2,1,77.0,False
60610,3043, Note_on_c,65,76,6,2,1,76.0,True
60611,3043, Note_on_c,68,76,6,2,1,79.0,False
60612,3044, Note_on_c,63,76,6,2,1,73.0,False
60613,3044, Note_on_c,66,76,6,2,1,77.0,False
60614,3045, Note_on_c,65,76,6,2,1,76.0,True
60615,3045, Note_on_c,70,76,6,2,1,81.0,False
60616,3046, Note_on_c,58,76,6,2,1,67.0,False
60617,3047, Note_on_c,63,76,6,2,1,73.0,False
60618,3047, Note_on_c,66,76,6,2,1,77.0,False
60619,3048, Note_on_c,65,76,6,2,1,76.0,True
60620,3048, Note_on_c,68,76,6,2,1,79.0,False
60621,3049, Note_on_c,58,76,6,2,1,67.0,False
60622,3050, Note_on_c,63,76,6,2,1,73.0,False
60623,3050, Note_on_c,66,76,6,2,1,77.0,False
60624,3051, Note_on_c,65,76,6,2,1,76.0,True
60625,3051, Note_on_c,68,76,6,2,1,79.0,False
60626,3052, Note_on_c,63,76,6,2,1,73.0,False
60627,3052, Note_on_c,66,76,6,2,1,77.0,False
60628,3053, Note_on_c,65,76,6,2,1,76.0,True
60629,3053, Note_on_c,70,76,6,2,1,81.0,False
60630,3054, Note_on_c,58,76,6,2,1,67.0,False
60631,3055, Note_on_c,63,76,6,2,1,73.0,False
60632,3055, Note_on_c,66,76,6,2,1,77.0,False
60633,3056, Note_on_c,65,76,6,2,1,76.0,True
60634,3056, Note_on_c,68,76,6,2,1,79.0,False
60635,3057, Note_on_c,58,76,6,2,1,67.0,False
60636,3058, Note_on_c,63,76,6,2,1,73.0,False
60637,3058, Note_on_c,66,76,6,2,1,77.0,False
60638,3059, Note_on_c,65,76,6,2,1,76.0,True
60639,3059, Note_on_c,68,76,6,2,1,79.0,False
60640,3060, Note_on_c,63,76,6,2,1,73.0,False
60641,3060, Note_on_c,66,76,6,2,1,77.0,False
60642,3061, Note_on_c,65,76,6,2,1,76.0,True
60643,3061, Note_on_c,70,76,6,2,1,81.0,False
60644,3062, Note_on_c,58,76,6,2,1,67.0,False
60645,3063, Note_on_c,63,76,6,2,1,73.0,False
60646,3063, Note_on_c,66,76,6,2,1,77.0,False
60647,3064, Note_on_c,65,76,6,2,1,76.0,True
60648,3064, Note_on_c,68,76,6,2,1,79.0,False
60649,3065, Note_on_c,58,76,6,2,1,67.0,False
60650,3066, Note_on_c,63,76,6,2,1,73.0,False
60651,3066, Note_on_c,66,76,6,2,1,77.0,False
60652,3067, Note_on_c,65,76,6,2,1,76.0,True
60653,3067, Note_on_c,68,76,6,2,1,79.0,False
60654,3068, Note_on_c,63,76,6,2,1,73.0,False
60655,3068, Note_on_c,66,76,6,2,1,77.0,False
60656,3069, Note_on_c,65,76,6,2,1,76.0,True
60657,3069, Note_on_c,70,76,6,2,1,81.0,False
60658,3070, Note_on_c,58,76,6,2,1,67.0,False
60659,3071, Note_on_c,63,76,6,2,1,73.0,False
60660,3071, Note_on_c,66,76,6,2,1,77.0,False
60661,3072, Note_on_c,65,76,6,2,1,76.0,True
60662,3072, Note_on_c,68,76,6,2,1,79.0,False
60663,3073, Note_on_c,58,76,6,2,1,67.0,False
60664,3074, Note_on_c,63,76,6,2,1,73.0,False
60665,3074, Note_on_c,66,76,6,2,1,77.0,False
60666,3075, Note_on_c,65,76,6,2,1,76.0,True
60667,3075, Note_on_c,68,76,6,2,1,79.0,False
60668,3076, Note_on_c,63,76,6,2,1,73.0,False
60669,3076, Note_on_c,66,76,6,2,1,77.0,False
60670,3077, Note_on_c,65,76,6,2,1,76.0,True
60671,3077, Note_on_c,70,76,6,2,1,81.0,False
60672,3078, Note_on_c,58,76,6,2,1,67.0,False
60673,3079, Note_on_c,63,76,6,2,1,73.0,False
60674,3079, Note_on_c,66,76,6,2,1,77.0,False
60675,3080, Note_on_c,65,76,6,2,1,76.0,True
60676,3080, Note_on_c,68,76,6,2,1,79.0,False
60677,3081, Note_on_c,58,76,6,2,1,67.0,False
60678,3082, Note_on_c,63,76,6,2,1,73.0,False
60679,3082, Note_on_c,66,76,6,2,1,77.0,False
60680,3083, Note_on_c,65,76,6,2,1,76.0,True
60681,3083, Note_on_c,68,76,6,2,1,79.0,False
60682,3084, Note_on_c,63,76,6,2,1,73.0,False
60683,3084, Note_on_c,66,76,6,2,1,77.0,False
60684,3085, Note_on_c,65,76,6,2,1,76.0,True
60685,3085, Note_on_c,70,76,6,2,1,81.0,False
60686,3086, Note_on_c,58,76,6,2,1,67.0,False
60687,3087, Note_on_c,63,76,6,2,1,73.0,False
60688,3087, Note_on_c,66,76,6,2,1,77.0,False
60689,3088, Note_on_c,65,76,6,2,1,76.0,True
60690,3088, Note_on_c,68,76,6,2,1,79.0,False
60691,3089, Note_on_c,58,76,6,2,1,67.0,False
60692,3090, Note_on_c,63,76,6,2,1,73.0,False
60693,3090, Note_on_c,66,76,6,2,1,77.0,False
60694,3091, Note_on_c,65,76,6,2,1,76.0,True
60695,3091, Note_on_c,68,76,6,2,1,79.0,False
60696,3092, Note_on_c,63,76,6,2,1,73.0,False
60697,3092, Note_on_c,66,76,6,2,1,77.0,False
60698,3093, Note_on_c,65,76,6,2,1,76.0,True
60699,3093, Note_on_c,70,76,6,2,1,81.0,False
60700,3094, Note_on_c,58,76,6,2,1,67.0,False
60701,3095, Note_on_c,63,76,6,2,1,73.0,False
60702,3095, Note_on_c,66,76,6,2,1,77.0,False
60703,3096, Note_on_c,65,76,6,2,1,76.0,True
60704,3096, Note_on_c,68,76,6,2,1,79.0,False
60705,3097, Note_on_c,58,76,6,2,1,67.0,False
60706,3098, Note_on_c,63,76,6,2,1,73.0,False
60707,3098, Note_on_c,66,76,6,2,1,77.0,False
60708,3099, Note_on_c,65,76,6,2,1,76.0,True
60709,3099, Note_on_c,68,76,6,2,1,79.0,False
60710,3100, Note_on_c,63,76,6,2,1,73.0,False
60711,3100, Note_on_c,66,76,6,2,1,77.0,False
60712,3101, Note_on_c,65,76,6,2,1,76.0,True
60713,3101, Note_on_c,70,76,6,2,1,81.0,False
60714,3102, Note_on_c,58,76,6,2,1,67.0,False
60715,3103, Note_on_c,63,76,6,2,1,73.0,False
60716,3103, Note_on_c,66,76,6,2,1,77.0,False
60717,3104, Note_on_c,65,76,6,2,1,76.0,True
60718,3104, Note_on_c,68,76,6,2,1,79.0,False
60719,3105, Note_on_c,58,76,6,2,1,67.0,False
60720,3106, Note_on_c,63,76,6,2,1,73.0,False
60721,3106, Note_on_c,66,76,6,2,1,77.0,False
60722,3107, Note_on_c,65,76,6,2,1,76.0,True
60723,3107, Note_on_c,68,76,6,2,1,79.0,False
60724,3108, Note_on_c,63,76,6,2,1,73.0,False
60725,3108, Note_on_c,66,76,6,2,1,77.0,False
60726,3109, Note_on_c,65,76,6,2,1,76.0,True
60727,3109, Note_on_c,70,76,6,2,1,81.0,False
60728,3110, Note_on_c,58,76,6,2,1,67.0,False
60729,3111, Note_on_c,63,76,6,2,1,73.0,False
60730,3111, Note_on_c,66,76,6,2,1,77.0,False
60731,3112, Note_on_c,65,76,6,2,1,76.0,True
60732,3112, Note_on_c,68,76,6,2,1,79.0,False
60733,3113, Note_on_c,58,76,6,2,1,67.0,False
60734,3114, Note_on_c,63,76,6,2,1,73.0,False
60735,3114, Note_on_c,66,76,6,2,1,77.0,False
60736,3115, Note_on_c,65,76,6,2,1,76.0,True
60737,3115, Note_on_c,68,76,6,2,1,79.0,False
60738,3116, Note_on_c,63,76,6,2,1,73.0,False
60739,3116, Note_on_c,66,76,6,2,1,77.0,False
60740,3117, Note_on_c,65,76,6,2,1,76.0,True
60741,3117, Note_on_c,70,76,6,2,1,81.0,False
60742,3118, Note_on_c,58,76,6,2,1,67.0,False
60743,3119, Note_on_c,63,76,6,2,1,73.0,False
60744,3119, Note_on_c,66,76,6,2,1,77.0,False
60745,3120, Note_on_c,65,76,6,2,1,76.0,True
60746,3120, Note_on_c,68,76,6,2,1,79.0,False
60747,3121, Note_on_c,58,76,6,2,1,67.0,False
60748,3122, Note_on_c,63,76,6,2,1,73.0,False
60749,3122, Note_on_c,66,76,6,2,1,77.0,False
60750,3123, Note_on_c,65,76,6,2,1,76.0,True
60751,3123, Note_on_c,68,76,6,2,1,79.0,False
60752,3124, Note_on_c,63,76,6,2,1,73.0,False
60753,3124, Note_on_c,66,76,6,2,1,77.0,False
60754,3125, Note_on_c,65,76,6,2,1,76.0,True
60755,3125, Note_on_c,70,76,6,2,1,81.0,False
60756,3126, Note_on_c,58,76,6,2,1,67.0,False
60757,3127, Note_on_c,63,76,6,2,1,73.0,False
60758,3127, Note_on_c,66,76,6,2,1,77.0,False
60759,3128, Note_on_c,65,76,6,2,1,76.0,True
60760,3128, Note_on_c,68,76,6,2,1,79.0,False
60761,3129, Note_on_c,58,76,6,2,1,67.0,False
60762,3130, Note_on_c,63,76,6,2,1,73.0,False
60763,3130, Note_on_c,66,76,6,2,1,77.0,False
60764,3131, Note_on_c,65,76,6,2,1,76.0,True
60765,3131, Note_on_c,68,76,6,2,1,79.0,False
60766,3132, Note_on_c,63,76,6,2,1,73.0,False
60767,3132, Note_on_c,66,76,6,2,1,77.0,False
60768,3133, Note_on_c,65,76,6,2,1,76.0,True
60769,3133, Note_on_c,70,76,6,2,1,81.0,False
60770,3134, Note_on_c,58,76,6,2,1,67.0,False
60771,3135, Note_on_c,63,76,6,2,1,73.0,False
60772,3135, Note_on_c,66,76,6,2,1,77.0,False
60773,3136, Note_on_c,65,76,6,2,1,76.0,True
60774,3136, Note_on_c,68,76,6,2,1,79.0,False
60775,3137, Note_on_c,58,76,6,2,1,67.0,False
60776,3138, Note_on_c,63,76,6,2,1,73.0,False
60777,3138, Note_on_c,66,76,6,2,1,77.0,False
60778,3139, Note_on_c,65,76,6,2,1,76.0,True
60779,3139, Note_on_c,68,76,6,2,1,79.0,False
60780,3140, Note_on_c,63,76,6,2,1,73.0,False
60781,3140, Note_on_c,66,76,6,2,1,77.0,False
60782,3141, Note_on_c,65,76,6,2,1,76.0,True
60783,3141, Note_on_c,70,76,6,2,1,81.0,False
60784,3142, Note_on_c,58,76,6,2,1,67.0,False
60785,3143, Note_on_c,63,76,6,2,1,73.0,False
60786,3143, Note_on_c,66,76,6,2,1,77.0,False
60787,3144, Note_on_c,65,76,6,2,1,76.0,True
60788,3144, Note_on_c,68,76,6,2,1,79.0,False
60789,3145, Note_on_c,58,76,6,2,1,67.0,False
60790,3146, Note_on_c,63,76,6,2,1,73.0,False
60791,3146, Note_on_c,66,76,6,2,1,77.0,False
60792,3147, Note_on_c,65,76,6,2,1,76.0,True
60793,3147, Note_on_c,68,76,6,2,1,79.0,False
60794,3148, Note_on_c,63,76,6,2,1,73.0,False
60795,3148, Note_on_c,66,76,6,2,1,77.0,False
60796,3149, Note_on_c,65,76,6,2,1,76.0,True
60797,3149, Note_on_c,70,76,6,2,1,81.0,False
60798,3150, Note_on_c,58,76,6,2,1,67.0,False
60799,3151, Note_on_c,63,76,6,2,1,73.0,False
60800,3151, Note_on_c,66,76,6,2,1,77.0,False
60801,3152, Note_on_c,65,76,6,2,1,76.0,True
60802,3152, Note_on_c,68,76,6,2,1,79.0,False
60803,3153, Note_on_c,58,76,6,2,1,67.0,False
60804,3154, Note_on_c,63,76,6,2,1,73.0,False
60805,3154, Note_on_c,66,76,6,2,1,77.0,False
60806,3155, Note_on_c,65,76,6,2,1,76.0,True
60807,3155, Note_on_c,68,76,6,2,1,79.0,False
60808,3156, Note_on_c,63,76,6,2,1,73.0,False
60809,3156, Note_on_c,66,76,6,2,1,77.0,False
60810,3157, Note_on_c,65,76,6,2,1,76.0,True
60811,3157, Note_on_c,70,76,6,2,1,81.0,False
60812,3158, Note_on_c,58,76,6,2,1,67.0,False
60813,3159, Note_on_c,63,76,6,2,1,73.0,False
60814,3159, Note_on_c,66,76,6,2,1,77.0,False
60815,3160, Note_on_c,65,76,6,2,1,76.0,True
60816,3160, Note_on_c,68,76,6,2,1,79.0,False
60817,3161, Note_on_c,58,76,6,2,1,67.0,False
60818,3162, Note_on_c,63,76,6,2,1,73.0,False
60819,3162, Note_on_c,66,76,6,2,1,77.0,False
60820,3163, Note_on_c,65,76,6,2,1,76.0,True
60821,3163, Note_on_c,68,76,6,2,1,79.0,False
60822,3164, Note_on_c,63,76,6,2,1,73.0,False
60823,3164, Note_on_c,66,76,6,2,1,77.0,False
60824,3165, Note_on_c,65,76,6,2,1,76.0,True
60825,3165, Note_on_c,70,76,6,2,1,81.0,False
60826,3166, Note_on_c,58,76,6,2,1,67.0,False
60827,3167, Note_on_c,63,76,6,2,1,73.0,False
60828,3167, Note_on_c,66,76,6,2,1,77.0,False
60829,3168, Note_on_c,65,76,6,2,1,76.0,True
60830,3168, Note_on_c,68,76,6,2,1,79.0,False
60831,3169, Note_on_c,58,76,6,2,1,67.0,False
60832,3170, Note_on_c,63,76,6,2,1,73.0,False
60833,3170, Note_on_c,66,76,6,2,1,77.0,False
60834,3171, Note_on_c,65,76,6,2,1,76.0,True
60835,3171, Note_on_c,68,76,6,2,1,79.0,False
60836,3172, Note_on_c,63,76,6,2,1,73.0,False
60837,3172, Note_on_c,66,76,6,2,1,77.0,False
60838,3173, Note_on_c,65,76,6,2,1,76.0,True
60839,3173, Note_on_c,70,76,6,2,1,81.0,False
60840,3174, Note_on_c,58,76,6,2,1,67.0,False
60841,3175, Note_on_c,63,76,6,2,1,73.0,False
60842,3175, Note_on_c,66,76,6,2,1,77.0,False
60843,3176, Note_on_c,65,76,6,2,1,76.0,True
60844,3176, Note_on_c,68,76,6,2,1,79.0,False
60845,3177, Note_on_c,58,76,6,2,1,67.0,False
60846,3178, Note_on_c,63,76,6,2,1,73.0,False
60847,3178, Note_on_c,66,76,6,2,1,77.0,False
60848,3179, Note_on_c,65,76,6,2,1,76.0,True
60849,3179, Note_on_c,68,76,6,2,1,79.0,False
60850,3180, Note_on_c,63,76,6,2,1,73.0,False
60851,3180, Note_on_c,66,76,6,2,1,77.0,False
60852,3181, Note_on_c,65,76,6,2,1,76.0,True
60853,3181, Note_on_c,70,76,6,2,1,81.0,False
60854,3182, Note_on_c,58,76,6,2,1,67.0,False
60855,3183, Note_on_c,63,76,6,2,1,73.0,False
60856,3183, Note_on_c,66,76,6,2,1,77.0,False
60857,3184, Note_on_c,65,76,6,2,1,76.0,True
60858,3184, Note_on_c,68,76,6,2,1,79.0,False
60859,3185, Note_on_c,58,76,6,2,1,67.0,False
60860,3186, Note_on_c,63,76,6,2,1,73.0,False
60861,3186, Note_on_c,66,76,6,2,1,77.0,False
60862,3187, Note_on_c,65,76,6,2,1,76.0,True
60863,3187, Note_on_c,68,76,6,2,1,79.0,False
60864,3188, Note_on_c,63,76,6,2,1,73.0,False
60865,3188, Note_on_c,66,76,6,2,1,77.0,False
60866,3189, Note_on_c,65,76,6,2,1,76.0,True
60867,3189, Note_on_c,70,76,6,2,1,81.0,False
60868,3190, Note_on_c,58,76,6,2,1,67.0,False
60869,3191, Note_on_c,63,76,6,2,1,73.0,False
60870,3191, Note_on_c,66,76,6,2,1,77.0,False
60871,3192, Note_on_c,65,76,6,2,1,76.0,True
60872,3192, Note_on_c,68,76,6,2,1,79.0,False
60873,3193, Note_on_c,58,76,6,2,1,67.0,False
60874,3194, Note_on_c,63,76,6,2,1,73.0,False
60875,3194, Note_on_c,66,76,6,2,1,77.0,False
60876,3195, Note_on_c,65,76,6,2,1,76.0,True
60877,3195, Note_on_c,68,76,6,2,1,79.0,False
60878,3196, Note_on_c,63,76,6,2,1,73.0,False
60879,3196, Note_on_c,66,76,6,2,1,77.0,False
60880,3197, Note_on_c,65,76,6,2,1,76.0,True
60881,3197, Note_on_c,70,76,6,2,1,81.0,False
60882,3198, Note_on_c,58,76,6,2,1,67.0,False
60883,3199, Note_on_c,63,76,6,2,1,73.0,False
60884,3199, Note_on_c,66,76,6,2,1,77.0,False
60885,3200, Note_on_c,65,76,6,2,1,76.0,True
60886,3200, Note_on_c,68,76,6,2,1,79.0,False
60887,3201, Note_on_c,58,76,6,2,1,67.0,False
60888,3202, Note_on_c,63,76,6,2,1,73.0,False
60889,3202, Note_on_c,66,76,6,2,1,77.0,False
60890,3203, Note_on_c,65,76,6,2,1,76.0,True
60891,3203, Note_on_c,68,76,6,2,1,79.0,False
60892,3204, Note_on_c,63,76,6,2,1,73.0,False
60893,3204, Note_on_c,66,76,6,2,1,77.0,False
60894,3205, Note_on_c,65,76,6,2,1,76.0,True
60895,3205, Note_on_c,70,76,6,2,1,81.0,False
60896,3206, Note_on_c,58,76,6,2,1,67.0,False
60897,3207, Note_on_c,63,76,6,2,1,73.0,False
60898,3207, Note_on_c,66,76,6,2,1,77.0,False
60899,3208, Note_on_c,65,76,6,2,1,76.0,True
60900,3208, Note_on_c,68,76,6,2,1,79.0,False
60901,3209, Note_on_c,58,75,6,2,1,67.0,False
60902,3210, Note_on_c,63,72,6,2,1,73.0,False
60903,3210, Note_on_c,66,72,6,2,1,77.0,False
60904,3211, Note_on_c,65,69,6,2,1,76.0,True
60905,3211, Note_on_c,68,69,6,2,1,79.0,False
60906,3212, Note_on_c,63,66,6,2,1,73.0,False
60907,3212, Note_on_c,66,66,6,2,1,77.0,False
60908,3213, Note_on_c,65,63,6,2,1,76.0,True
60909,3213, Note_on_c,70,63,6,2,1,81.0,False
60910,3214, Note_on_c,58,60,6,2,1,67.0,False
60911,3215, Note_on_c,63,57,6,2,1,73.0,False
60912,3215, Note_on_c,66,57,6,2,1,77.0,False
60913,3216, Note_on_c,65,54,6,2,1,76.0,True
60914,3216, Note_on_c,68,54,6,2,1,79.0,False
60915,3217, Note_on_c,58,51,6,2,1,67.0,False
60916,3218, Note_on_c,63,47,6,2,1,73.0,False
60917,3218, Note_on_c,66,47,6,2,1,77.0,False
60918,3219, Note_on_c,65,44,6,2,1,76.0,True
60919,3219, Note_on_c,68,44,6,2,1,79.0,False
60920,3220, Note_on_c,63,41,6,2,1,73.0,False
60921,3220, Note_on_c,66,41,6,2,1,77.0,False
60922,3221, Note_on_c,65,38,6,2,1,76.0,True
60923,3221, Note_on_c,70,38,6,2,1,81.0,False
60924,3222, Note_on_c,58,35,6,2,1,67.0,False
60925,3223, Note_on_c,63,32,6,2,1,73.0,False
60926,3223, Note_on_c,66,32,6,2,1,77.0,False
60927,3224, Note_on_c,65,29,6,2,1,76.0,True
60928,3224, Note_on_c,68,29,6,2,1,79.0,False
60929,3225, Note_on_c,58,26,6,2,1,67.0,False
60930,3226, Note_on_c,63,23,6,2,1,73.0,False
60931,3226, Note_on_c,66,23,6,2,1,77.0,False
60932,3227, Note_on_c,65,20,6,2,1,76.0,True
60933,3227, Note_on_c,68,20,6,2,1,79.0,False
60934,3228, Note_on_c,63,17,6,2,1,73.0,False
60935,3228, Note_on_c,66,17,6,2,1,77.0,False
60936,3229, Note_on_c,65,14,6,2,1,76.0,True
60937,3229, Note_on_c,70,14,6,2,1,81.0,False
60938,3230, Note_on_c,58,11,6,2,1,67.0,False
60939,3231, Note_on_c,63,8,6,2,1,73.0,False
60940,3231, Note_on_c,66,8,6,2,1,77.0,False
60941,3232, Note_on_c,65,5,6,2,1,76.0,True
60942,3232, Note_on_c,68,5,6,2,1,79.0,False
60943,3249, Note_on_c,65,5,6,2,1,76.0,True
60944,3250, Note_on_c,58,10,6,2,1,67.0,False
60945,3251, Note_on_c,63,14,6,2,1,73.0,False
60946,3252, Note_on_c,65,18,6,2,1,76.0,True
60947,3253, Note_on_c,66,22,6,2,1,77.0,False
60948,3254, Note_on_c,65,27,6,2,1,76.0,True
60949,3255, Note_on_c,58,31,6,2,1,67.0,False
60950,3256, Note_on_c,63,35,6,2,1,73.0,False
60951,3257, Note_on_c,65,39,6,2,1,76.0,True
60952,3258, Note_on_c,58,44,6,2,1,67.0,False
60953,3259, Note_on_c,63,48,6,2,1,73.0,False
60954,3260, Note_on_c,65,52,6,2,1,76.0,True
60955,3261, Note_on_c,66,56,6,2,1,77.0,False
60956,3262, Note_on_c,65,61,6,2,1,76.0,True
60957,3263, Note_on_c,58,65,6,2,1,67.0,False
60958,3264, Note_on_c,63,69,6,2,1,73.0,False
60959,3265, Note_on_c,65,73,6,2,1,76.0,True
60960,3266, Note_on_c,58,78,6,2,1,67.0,False
60961,3267, Note_on_c,63,82,6,2,1,73.0,False
60962,3268, Note_on_c,65,86,6,2,1,76.0,True
60963,3269, Note_on_c,66,90,6,2,1,77.0,False
60964,3270, Note_on_c,65,95,6,2,1,76.0,True
60965,3271, Note_on_c,58,99,6,2,1,67.0,False
60966,3272, Note_on_c,63,103,6,2,1,73.0,False
60967,3273, Note_on_c,65,108,6,2,1,76.0,True
60968,3274, Note_on_c,58,108,6,2,1,67.0,False
60969,3275, Note_on_c,63,108,6,2,1,73.0,False
60970,3276, Note_on_c,65,108,6,2,1,76.0,True
60971,3277, Note_on_c,66,108,6,2,1,77.0,False
60972,3278, Note_on_c,65,108,6,2,1,76.0,True
60973,3279, Note_on_c,58,108,6,2,1,67.0,False
60974,3280, Note_on_c,63,108,6,2,1,73.0,False
60975,3281, Note_on_c,65,108,6,2,1,76.0,True
60976,3282, Note_on_c,58,108,6,2,1,67.0,False
60977,3283, Note_on_c,63,108,6,2,1,73.0,False
60978,3284, Note_on_c,65,108,6,2,1,76.0,True
60979,3285, Note_on_c,66,108,6,2,1,77.0,False
60980,3286, Note_on_c,65,108,6,2,1,76.0,True
60981,3287, Note_on_c,58,108,6,2,1,67.0,False
60982,3288, Note_on_c,63,108,6,2,1,73.0,False
60983,3289, Note_on_c,65,108,6,2,1,76.0,True
60984,3290, Note_on_c,58,108,6,2,1,67.0,False
60985,3291, Note_on_c,63,108,6,2,1,73.0,False
60986,3292, Note_on_c,65,108,6,2,1,76.0,True
60987,3293, Note_on_c,66,108,6,2,1,77.0,False
60988,3294, Note_on_c,65,108,6,2,1,76.0,True
60989,3295, Note_on_c,58,108,6,2,1,67.0,False
60990,3296, Note_on_c,63,108,6,2,1,73.0,False
60991,3297, Note_on_c,65,108,6,2,1,76.0,True
60992,3298, Note_on_c,58,108,6,2,1,67.0,False
60993,3299, Note_on_c,63,108,6,2,1,73.0,False
60994,3300, Note_on_c,65,108,6,2,1,76.0,True
60995,3301, Note_on_c,66,108,6,2,1,77.0,False
60996,3302, Note_on_c,65,108,6,2,1,76.0,True
60997,3303, Note_on_c,58,108,6,2,1,67.0,False
60998,3304, Note_on_c,63,108,6,2,1,73.0,False
60999,3305, Note_on_c,65,108,6,2,1,76.0,True
61000,3306, Note_on_c,58,108,6,2,1,67.0,False
61001,3307, Note_on_c,63,108,6,2,1,73.0,False
61002,3308, Note_on_c,65,108,6,2,1,76.0,True
61003,3309, Note_on_c,66,108,6,2,1,77.0,False
61004,3310, Note_on_c,65,108,6,2,1,76.0,True
61005,3311, Note_on_c,58,108,6,2,1,67.0,False
61006,3312, Note_on_c,63,108,6,2,1,73.0,False
61007,3313, Note_on_c,65,108,6,2,1,76.0,True
61008,3314, Note_on_c,58,108,6,2,1,67.0,False
61009,3315, Note_on_c,63,108,6,2,1,73.0,False
61010,3316, Note_on_c,65,108,6,2,1,76.0,True
61011,3317, Note_on_c,66,108,6,2,1,77.0,False
61012,3318, Note_on_c,65,108,6,2,1,76.0,True
61013,3319, Note_on_c,58,108,6,2,1,67.0,False
61014,3320, Note_on_c,63,108,6,2,1,73.0,False
61015,3321, Note_on_c,65,108,6,2,1,76.0,True
61016,3322, Note_on_c,58,108,6,2,1,67.0,False
61017,3323, Note_on_c,63,108,6,2,1,73.0,False
61018,3324, Note_on_c,65,108,6,2,1,76.0,True
61019,3325, Note_on_c,66,108,6,2,1,77.0,False
61020,3326, Note_on_c,65,108,6,2,1,76.0,True
61021,3327, Note_on_c,58,108,6,2,1,67.0,False
61022,3328, Note_on_c,63,108,6,2,1,73.0,False
61023,3329, Note_on_c,65,108,6,2,1,76.0,True
61024,3330, Note_on_c,58,108,6,2,1,67.0,False
61025,3331, Note_on_c,63,108,6,2,1,73.0,False
61026,3332, Note_on_c,65,108,6,2,1,76.0,True
61027,3333, Note_on_c,66,108,6,2,1,77.0,False
61028,3334, Note_on_c,65,108,6,2,1,76.0,True
61029,3335, Note_on_c,58,108,6,2,1,67.0,False
61030,3336, Note_on_c,63,108,6,2,1,73.0,False
61031,3337, Note_on_c,65,108,6,2,1,76.0,True
61032,3338, Note_on_c,58,108,6,2,1,67.0,False
61033,3339, Note_on_c,63,108,6,2,1,73.0,False
61034,3340, Note_on_c,65,108,6,2,1,76.0,True
61035,3341, Note_on_c,66,108,6,2,1,77.0,False
61036,3342, Note_on_c,65,108,6,2,1,76.0,True
61037,3343, Note_on_c,58,108,6,2,1,67.0,False
61038,3344, Note_on_c,63,108,6,2,1,73.0,False
61039,3345, Note_on_c,65,108,6,2,1,76.0,True
61040,3346, Note_on_c,58,108,6,2,1,67.0,False
61041,3347, Note_on_c,63,108,6,2,1,73.0,False
61042,3348, Note_on_c,65,108,6,2,1,76.0,True
61043,3349, Note_on_c,66,108,6,2,1,77.0,False
61044,3350, Note_on_c,65,108,6,2,1,76.0,True
61045,3351, Note_on_c,58,108,6,2,1,67.0,False
61046,3352, Note_on_c,63,108,6,2,1,73.0,False
61047,3353, Note_on_c,65,108,6,2,1,76.0,True
61048,3354, Note_on_c,58,108,6,2,1,67.0,False
61049,3355, Note_on_c,63,108,6,2,1,73.0,False
61050,3356, Note_on_c,65,108,6,2,1,76.0,True
61051,3357, Note_on_c,66,108,6,2,1,77.0,False
61052,3358, Note_on_c,65,108,6,2,1,76.0,True
61053,3359, Note_on_c,58,108,6,2,1,67.0,False
61054,3360, Note_on_c,63,108,6,2,1,73.0,False
61055,3361, Note_on_c,65,108,6,2,1,76.0,True
61056,3362, Note_on_c,58,108,6,2,1,67.0,False
61057,3363, Note_on_c,63,108,6,2,1,73.0,False
61058,3364, Note_on_c,65,108,6,2,1,76.0,True
61059,3365, Note_on_c,66,108,6,2,1,77.0,False
61060,3366, Note_on_c,65,108,6,2,1,76.0,True
61061,3367, Note_on_c,58,108,6,2,1,67.0,False
61062,3368, Note_on_c,63,108,6,2,1,73.0,False
61063,3369, Note_on_c,65,108,6,2,1,76.0,True
61064,3370, Note_on_c,58,108,6,2,1,67.0,False
61065,3371, Note_on_c,63,108,6,2,1,73.0,False
61066,3372, Note_on_c,65,108,6,2,1,76.0,True
61067,3373, Note_on_c,66,108,6,2,1,77.0,False
61068,3374, Note_on_c,65,108,6,2,1,76.0,True
61069,3375, Note_on_c,58,108,6,2,1,67.0,False
61070,3376, Note_on_c,63,108,6,2,1,73.0,False
61071,3377, Note_on_c,65,108,6,2,1,76.0,True
61072,3378, Note_on_c,58,108,6,2,1,67.0,False
61073,3379, Note_on_c,63,108,6,2,1,73.0,False
61074,3380, Note_on_c,65,108,6,2,1,76.0,True
61075,3381, Note_on_c,66,108,6,2,1,77.0,False
61076,3382, Note_on_c,65,108,6,2,1,76.0,True
61077,3383, Note_on_c,58,108,6,2,1,67.0,False
61078,3384, Note_on_c,63,108,6,2,1,73.0,False
61079,3385, Note_on_c,65,108,6,2,1,76.0,True
61080,3386, Note_on_c,58,108,6,2,1,67.0,False
61081,3387, Note_on_c,63,108,6,2,1,73.0,False
61082,3388, Note_on_c,65,108,6,2,1,76.0,True
61083,3389, Note_on_c,66,108,6,2,1,77.0,False
61084,3390, Note_on_c,65,108,6,2,1,76.0,True
61085,3391, Note_on_c,58,108,6,2,1,67.0,False
61086,3392, Note_on_c,63,108,6,2,1,73.0,False
61087,3393, Note_on_c,65,108,6,2,1,76.0,True
61088,3394, Note_on_c,58,108,6,2,1,67.0,False
61089,3395, Note_on_c,63,108,6,2,1,73.0,False
61090,3396, Note_on_c,65,108,6,2,1,76.0,True
61091,3397, Note_on_c,66,108,6,2,1,77.0,False
61092,3398, Note_on_c,65,108,6,2,1,76.0,True
61093,3399, Note_on_c,58,108,6,2,1,67.0,False
61094,3400, Note_on_c,63,108,6,2,1,73.0,False
61095,3401, Note_on_c,65,108,6,2,1,76.0,True
61096,3402, Note_on_c,58,108,6,2,1,67.0,False
61097,3403, Note_on_c,63,108,6,2,1,73.0,False
61098,3404, Note_on_c,65,108,6,2,1,76.0,True
61099,3405, Note_on_c,66,108,6,2,1,77.0,False
61100,3406, Note_on_c,65,108,6,2,1,76.0,True
61101,3407, Note_on_c,58,108,6,2,1,67.0,False
61102,3408, Note_on_c,63,108,6,2,1,73.0,False
61103,3409, Note_on_c,65,108,6,2,1,76.0,True
61104,3410, Note_on_c,58,108,6,2,1,67.0,False
61105,3411, Note_on_c,63,108,6,2,1,73.0,False
61106,3412, Note_on_c,65,108,6,2,1,76.0,True
61107,3413, Note_on_c,66,108,6,2,1,77.0,False
61108,3414, Note_on_c,65,108,6,2,1,76.0,True
61109,3415, Note_on_c,58,108,6,2,1,67.0,False
61110,3416, Note_on_c,63,108,6,2,1,73.0,False
61111,3417, Note_on_c,65,108,6,2,1,76.0,True
61112,3418, Note_on_c,58,108,6,2,1,67.0,False
61113,3419, Note_on_c,63,108,6,2,1,73.0,False
61114,3420, Note_on_c,65,108,6,2,1,76.0,True
61115,3421, Note_on_c,66,108,6,2,1,77.0,False
61116,3422, Note_on_c,65,108,6,2,1,76.0,True
61117,3423, Note_on_c,58,108,6,2,1,67.0,False
61118,3424, Note_on_c,63,108,6,2,1,73.0,False
61119,3425, Note_on_c,65,108,6,2,1,76.0,True
61120,3426, Note_on_c,58,108,6,2,1,67.0,False
61121,3427, Note_on_c,63,108,6,2,1,73.0,False
61122,3428, Note_on_c,65,108,6,2,1,76.0,True
61123,3429, Note_on_c,66,108,6,2,1,77.0,False
61124,3430, Note_on_c,65,108,6,2,1,76.0,True
61125,3431, Note_on_c,58,108,6,2,1,67.0,False
61126,3432, Note_on_c,63,108,6,2,1,73.0,False
61127,3433, Note_on_c,65,108,6,2,1,76.0,True
61128,3434, Note_on_c,58,108,6,2,1,67.0,False
61129,3435, Note_on_c,63,108,6,2,1,73.0,False
61130,3436, Note_on_c,65,108,6,2,1,76.0,True
61131,3437, Note_on_c,66,108,6,2,1,77.0,False
61132,3438, Note_on_c,65,108,6,2,1,76.0,True
61133,3439, Note_on_c,58,108,6,2,1,67.0,False
61134,3440, Note_on_c,63,108,6,2,1,73.0,False
61135,3441, Note_on_c,65,108,6,2,1,76.0,True
61136,3442, Note_on_c,58,108,6,2,1,67.0,False
61137,3443, Note_on_c,63,108,6,2,1,73.0,False
61138,3444, Note_on_c,65,108,6,2,1,76.0,True
61139,3445, Note_on_c,66,108,6,2,1,77.0,False
61140,3446, Note_on_c,65,108,6,2,1,76.0,True
61141,3447, Note_on_c,58,108,6,2,1,67.0,False
61142,3448, Note_on_c,63,108,6,2,1,73.0,False
61143,3449, Note_on_c,65,108,6,2,1,76.0,True
61144,3450, Note_on_c,58,108,6,2,1,67.0,False
61145,3451, Note_on_c,63,108,6,2,1,73.0,False
61146,3452, Note_on_c,65,108,6,2,1,76.0,True
61147,3453, Note_on_c,66,108,6,2,1,77.0,False
61148,3454, Note_on_c,65,108,6,2,1,76.0,True
61149,3455, Note_on_c,58,108,6,2,1,67.0,False
61150,3456, Note_on_c,63,108,6,2,1,73.0,False
61151,3457, Note_on_c,65,108,6,2,1,76.0,True
61152,3458, Note_on_c,58,108,6,2,1,67.0,False
61153,3459, Note_on_c,63,108,6,2,1,73.0,False
61154,3460, Note_on_c,65,108,6,2,1,76.0,True
61155,3461, Note_on_c,66,108,6,2,1,77.0,False
61156,3462, Note_on_c,65,108,6,2,1,76.0,True
61157,3463, Note_on_c,58,108,6,2,1,67.0,False
61158,3464, Note_on_c,63,108,6,2,1,73.0,False
61159,3465, Note_on_c,65,108,6,2,1,76.0,True
61160,3466, Note_on_c,58,108,6,2,1,67.0,False
61161,3467, Note_on_c,63,108,6,2,1,73.0,False
61162,3468, Note_on_c,65,108,6,2,1,76.0,True
61163,3469, Note_on_c,66,108,6,2,1,77.0,False
61164,3470, Note_on_c,65,108,6,2,1,76.0,True
61165,3471, Note_on_c,58,108,6,2,1,67.0,False
61166,3472, Note_on_c,63,108,6,2,1,73.0,False
61167,3473, Note_on_c,65,107,6,2,1,76.0,True
61168,3474, Note_on_c,58,102,6,2,1,67.0,False
61169,3475, Note_on_c,63,98,6,2,1,73.0,False
61170,3476, Note_on_c,65,94,6,2,1,76.0,True
61171,3477, Note_on_c,66,89,6,2,1,77.0,False
61172,3478, Note_on_c,65,85,6,2,1,76.0,True
61173,3479, Note_on_c,58,81,6,2,1,67.0,False
61174,3480, Note_on_c,63,76,6,2,1,73.0,False
61175,3481, Note_on_c,65,72,6,2,1,76.0,True
61176,3482, Note_on_c,58,67,6,2,1,67.0,False
61177,3483, Note_on_c,63,63,6,2,1,73.0,False
61178,3484, Note_on_c,65,59,6,2,1,76.0,True
61179,3485, Note_on_c,66,54,6,2,1,77.0,False
61180,3486, Note_on_c,65,50,6,2,1,76.0,True
61181,3487, Note_on_c,58,45,6,2,1,67.0,False
61182,3488, Note_on_c,63,41,6,2,1,73.0,False
61183,3489, Note_on_c,65,37,6,2,1,76.0,True
61184,3490, Note_on_c,58,32,6,2,1,67.0,False
61185,3491, Note_on_c,63,28,6,2,1,73.0,False
61186,3492, Note_on_c,65,23,6,2,1,76.0,True
61187,3493, Note_on_c,66,19,6,2,1,77.0,False
61188,3494, Note_on_c,65,15,6,2,1,76.0,True
61189,3495, Note_on_c,58,10,6,2,1,67.0,False
61190,3496, Note_on_c,63,6,6,2,1,73.0,False
61191,3554, Note_on_c,73,9,6,2,1,85.0,False
61192,3555, Note_on_c,72,13,6,2,1,84.0,True
61193,3556, Note_on_c,73,17,6,2,1,85.0,False
61194,3557, Note_on_c,70,22,6,2,1,81.0,False
61195,3560, Note_on_c,72,35,6,2,1,84.0,True
61196,3560, Note_on_c,75,35,6,2,1,87.0,False
61197,3562, Note_on_c,73,43,6,2,1,85.0,False
61198,3563, Note_on_c,72,47,6,2,1,84.0,True
61199,3564, Note_on_c,73,52,6,2,1,85.0,False
61200,3565, Note_on_c,70,56,6,2,1,81.0,False
61201,3568, Note_on_c,72,69,6,2,1,84.0,True
61202,3568, Note_on_c,75,69,6,2,1,87.0,False
61203,3570, Note_on_c,73,77,6,2,1,85.0,False
61204,3571, Note_on_c,72,82,6,2,1,84.0,True
61205,3572, Note_on_c,73,86,6,2,1,85.0,False
61206,3573, Note_on_c,70,90,6,2,1,81.0,False
61207,3576, Note_on_c,72,103,6,2,1,84.0,True
61208,3576, Note_on_c,75,103,6,2,1,87.0,False
61209,3578, Note_on_c,73,108,6,2,1,85.0,False
61210,3579, Note_on_c,72,108,6,2,1,84.0,True
61211,3580, Note_on_c,73,108,6,2,1,85.0,False
61212,3581, Note_on_c,70,108,6,2,1,81.0,False
61213,3584, Note_on_c,72,108,6,2,1,84.0,True
61214,3584, Note_on_c,75,108,6,2,1,87.0,False
61215,3586, Note_on_c,73,108,6,2,1,85.0,False
61216,3587, Note_on_c,72,108,6,2,1,84.0,True
61217,3588, Note_on_c,73,108,6,2,1,85.0,False
61218,3589, Note_on_c,70,108,6,2,1,81.0,False
61219,3592, Note_on_c,72,108,6,2,1,84.0,True
61220,3592, Note_on_c,75,108,6,2,1,87.0,False
61221,3594, Note_on_c,73,108,6,2,1,85.0,False
61222,3595, Note_on_c,72,108,6,2,1,84.0,True
61223,3596, Note_on_c,73,108,6,2,1,85.0,False
61224,3597, Note_on_c,70,108,6,2,1,81.0,False
61225,3600, Note_on_c,72,108,6,2,1,84.0,True
61226,3600, Note_on_c,75,108,6,2,1,87.0,False
61227,3602, Note_on_c,73,108,6,2,1,85.0,False
61228,3603, Note_on_c,72,108,6,2,1,84.0,True
61229,3604, Note_on_c,73,108,6,2,1,85.0,False
61230,3605, Note_on_c,70,108,6,2,1,81.0,False
61231,3608, Note_on_c,72,108,6,2,1,84.0,True
61232,3608, Note_on_c,75,108,6,2,1,87.0,False
61233,3610, Note_on_c,73,108,6,2,1,85.0,False
61234,3611, Note_on_c,72,108,6,2,1,84.0,True
61235,3612, Note_on_c,73,108,6,2,1,85.0,False
61236,3613, Note_on_c,70,108,6,2,1,81.0,False
61237,3616, Note_on_c,72,108,6,2,1,84.0,True
61238,3616, Note_on_c,75,108,6,2,1,87.0,False
61239,3618, Note_on_c,73,108,6,2,1,85.0,False
61240,3619, Note_on_c,72,108,6,2,1,84.0,True
61241,3620, Note_on_c,73,108,6,2,1,85.0,False
61242,3621, Note_on_c,70,108,6,2,1,81.0,False
61243,3624, Note_on_c,72,108,6,2,1,84.0,True
61244,3624, Note_on_c,75,108,6,2,1,87.0,False
61245,3626, Note_on_c,73,108,6,2,1,85.0,False
61246,3627, Note_on_c,72,108,6,2,1,84.0,True
61247,3628, Note_on_c,73,108,6,2,1,85.0,False
61248,3629, Note_on_c,70,108,6,2,1,81.0,False
61249,3632, Note_on_c,72,108,6,2,1,84.0,True
61250,3632, Note_on_c,75,108,6,2,1,87.0,False
61251,3634, Note_on_c,73,108,6,2,1,85.0,False
61252,3635, Note_on_c,72,108,6,2,1,84.0,True
61253,3636, Note_on_c,73,108,6,2,1,85.0,False
61254,3637, Note_on_c,70,108,6,2,1,81.0,False
61255,3640, Note_on_c,72,108,6,2,1,84.0,True
61256,3640, Note_on_c,75,108,6,2,1,87.0,False
61257,3642, Note_on_c,73,108,6,2,1,85.0,False
61258,3643, Note_on_c,72,108,6,2,1,84.0,True
61259,3644, Note_on_c,73,108,6,2,1,85.0,False
61260,3645, Note_on_c,70,108,6,2,1,81.0,False
61261,3648, Note_on_c,72,108,6,2,1,84.0,True
61262,3648, Note_on_c,75,108,6,2,1,87.0,False
61263,3650, Note_on_c,73,108,6,2,1,85.0,False
61264,3651, Note_on_c,72,108,6,2,1,84.0,True
61265,3652, Note_on_c,73,108,6,2,1,85.0,False
61266,3653, Note_on_c,70,108,6,2,1,81.0,False
61267,3656, Note_on_c,72,108,6,2,1,84.0,True
61268,3656, Note_on_c,75,108,6,2,1,87.0,False
61269,3658, Note_on_c,73,108,6,2,1,85.0,False
61270,3659, Note_on_c,72,108,6,2,1,84.0,True
61271,3660, Note_on_c,73,108,6,2,1,85.0,False
61272,3661, Note_on_c,70,108,6,2,1,81.0,False
61273,3664, Note_on_c,72,108,6,2,1,84.0,True
61274,3664, Note_on_c,75,108,6,2,1,87.0,False
61275,3666, Note_on_c,73,108,6,2,1,85.0,False
61276,3667, Note_on_c,72,108,6,2,1,84.0,True
61277,3668, Note_on_c,73,108,6,2,1,85.0,False
61278,3669, Note_on_c,70,108,6,2,1,81.0,False
61279,3672, Note_on_c,72,108,6,2,1,84.0,True
61280,3672, Note_on_c,75,108,6,2,1,87.0,False
61281,3674, Note_on_c,73,108,6,2,1,85.0,False
61282,3675, Note_on_c,72,108,6,2,1,84.0,True
61283,3676, Note_on_c,73,108,6,2,1,85.0,False
61284,3677, Note_on_c,70,108,6,2,1,81.0,False
61285,3680, Note_on_c,72,108,6,2,1,84.0,True
61286,3680, Note_on_c,75,108,6,2,1,87.0,False
61287,3682, Note_on_c,73,108,6,2,1,85.0,False
61288,3683, Note_on_c,72,108,6,2,1,84.0,True
61289,3684, Note_on_c,73,108,6,2,1,85.0,False
61290,3685, Note_on_c,70,108,6,2,1,81.0,False
61291,3688, Note_on_c,72,108,6,2,1,84.0,True
61292,3688, Note_on_c,75,108,6,2,1,87.0,False
61293,3690, Note_on_c,73,108,6,2,1,85.0,False
61294,3691, Note_on_c,72,108,6,2,1,84.0,True
61295,3692, Note_on_c,73,108,6,2,1,85.0,False
61296,3693, Note_on_c,70,108,6,2,1,81.0,False
61297,3696, Note_on_c,72,108,6,2,1,84.0,True
61298,3696, Note_on_c,75,108,6,2,1,87.0,False
61299,3698, Note_on_c,73,108,6,2,1,85.0,False
61300,3699, Note_on_c,72,108,6,2,1,84.0,True
61301,3700, Note_on_c,73,108,6,2,1,85.0,False
61302,3701, Note_on_c,70,108,6,2,1,81.0,False
61303,3704, Note_on_c,72,108,6,2,1,84.0,True
61304,3704, Note_on_c,75,108,6,2,1,87.0,False
61305,3706, Note_on_c,73,108,6,2,1,85.0,False
61306,3707, Note_on_c,72,108,6,2,1,84.0,True
61307,3708, Note_on_c,73,108,6,2,1,85.0,False
61308,3709, Note_on_c,70,108,6,2,1,81.0,False
61309,3712, Note_on_c,72,108,6,2,1,84.0,True
61310,3712, Note_on_c,75,108,6,2,1,87.0,False
61311,3714, Note_on_c,73,108,6,2,1,85.0,False
61312,3715, Note_on_c,72,108,6,2,1,84.0,True
61313,3716, Note_on_c,73,108,6,2,1,85.0,False
61314,3717, Note_on_c,70,108,6,2,1,81.0,False
61315,3720, Note_on_c,72,108,6,2,1,84.0,True
61316,3720, Note_on_c,75,108,6,2,1,87.0,False
61317,3722, Note_on_c,73,108,6,2,1,85.0,False
61318,3723, Note_on_c,72,108,6,2,1,84.0,True
61319,3724, Note_on_c,73,108,6,2,1,85.0,False
61320,3725, Note_on_c,70,108,6,2,1,81.0,False
61321,3728, Note_on_c,72,108,6,2,1,84.0,True
61322,3728, Note_on_c,75,108,6,2,1,87.0,False
61323,3730, Note_on_c,73,108,6,2,1,85.0,False
61324,3731, Note_on_c,72,108,6,2,1,84.0,True
61325,3732, Note_on_c,73,108,6,2,1,85.0,False
61326,3733, Note_on_c,70,108,6,2,1,81.0,False
61327,3736, Note_on_c,72,108,6,2,1,84.0,True
61328,3736, Note_on_c,75,108,6,2,1,87.0,False
61329,3738, Note_on_c,73,108,6,2,1,85.0,False
61330,3739, Note_on_c,72,108,6,2,1,84.0,True
61331,3740, Note_on_c,73,108,6,2,1,85.0,False
61332,3741, Note_on_c,70,108,6,2,1,81.0,False
61333,3744, Note_on_c,72,108,6,2,1,84.0,True
61334,3744, Note_on_c,75,108,6,2,1,87.0,False
61335,3746, Note_on_c,73,108,6,2,1,85.0,False
61336,3747, Note_on_c,72,108,6,2,1,84.0,True
61337,3748, Note_on_c,73,108,6,2,1,85.0,False
61338,3749, Note_on_c,70,108,6,2,1,81.0,False
61339,3752, Note_on_c,72,108,6,2,1,84.0,True
61340,3752, Note_on_c,75,108,6,2,1,87.0,False
61341,3754, Note_on_c,73,108,6,2,1,85.0,False
61342,3755, Note_on_c,72,108,6,2,1,84.0,True
61343,3756, Note_on_c,73,108,6,2,1,85.0,False
61344,3757, Note_on_c,70,108,6,2,1,81.0,False
61345,3760, Note_on_c,72,108,6,2,1,84.0,True
61346,3760, Note_on_c,75,108,6,2,1,87.0,False
61347,3762, Note_on_c,73,108,6,2,1,85.0,False
61348,3763, Note_on_c,72,108,6,2,1,84.0,True
61349,3764, Note_on_c,73,108,6,2,1,85.0,False
61350,3765, Note_on_c,70,108,6,2,1,81.0,False
61351,3768, Note_on_c,72,108,6,2,1,84.0,True
61352,3768, Note_on_c,75,108,6,2,1,87.0,False
61353,3770, Note_on_c,73,108,6,2,1,85.0,False
61354,3771, Note_on_c,72,108,6,2,1,84.0,True
61355,3772, Note_on_c,73,108,6,2,1,85.0,False
61356,3773, Note_on_c,70,108,6,2,1,81.0,False
61357,3776, Note_on_c,72,108,6,2,1,84.0,True
61358,3776, Note_on_c,75,108,6,2,1,87.0,False
61359,3778, Note_on_c,73,108,6,2,1,85.0,False
61360,3779, Note_on_c,72,108,6,2,1,84.0,True
61361,3780, Note_on_c,73,108,6,2,1,85.0,False
61362,3781, Note_on_c,70,108,6,2,1,81.0,False
61363,3784, Note_on_c,72,108,6,2,1,84.0,True
61364,3784, Note_on_c,75,108,6,2,1,87.0,False
61365,3786, Note_on_c,73,108,6,2,1,85.0,False
61366,3787, Note_on_c,72,108,6,2,1,84.0,True
61367,3788, Note_on_c,73,108,6,2,1,85.0,False
61368,3789, Note_on_c,70,108,6,2,1,81.0,False
61369,3792, Note_on_c,72,108,6,2,1,84.0,True
61370,3792, Note_on_c,75,108,6,2,1,87.0,False
61371,3794, Note_on_c,73,108,6,2,1,85.0,False
61372,3795, Note_on_c,72,108,6,2,1,84.0,True
61373,3796, Note_on_c,73,108,6,2,1,85.0,False
61374,3797, Note_on_c,70,108,6,2,1,81.0,False
61375,3800, Note_on_c,72,108,6,2,1,84.0,True
61376,3800, Note_on_c,75,108,6,2,1,87.0,False
61377,3802, Note_on_c,73,108,6,2,1,85.0,False
61378,3803, Note_on_c,72,108,6,2,1,84.0,True
61379,3804, Note_on_c,73,108,6,2,1,85.0,False
61380,3805, Note_on_c,70,108,6,2,1,81.0,False
61381,3808, Note_on_c,72,108,6,2,1,84.0,True
61382,3808, Note_on_c,75,108,6,2,1,87.0,False
61383,3810, Note_on_c,73,108,6,2,1,85.0,False
61384,3811, Note_on_c,72,108,6,2,1,84.0,True
61385,3812, Note_on_c,73,108,6,2,1,85.0,False
61386,3813, Note_on_c,70,108,6,2,1,81.0,False
61387,3816, Note_on_c,72,108,6,2,1,84.0,True
61388,3816, Note_on_c,75,108,6,2,1,87.0,False
61389,3818, Note_on_c,73,108,6,2,1,85.0,False
61390,3819, Note_on_c,72,108,6,2,1,84.0,True
61391,3820, Note_on_c,73,108,6,2,1,85.0,False
61392,3821, Note_on_c,70,108,6,2,1,81.0,False
61393,3824, Note_on_c,72,108,6,2,1,84.0,True
61394,3824, Note_on_c,75,108,6,2,1,87.0,False
61395,3826, Note_on_c,73,108,6,2,1,85.0,False
61396,3827, Note_on_c,72,108,6,2,1,84.0,True
61397,3828, Note_on_c,73,108,6,2,1,85.0,False
61398,3829, Note_on_c,70,108,6,2,1,81.0,False
61399,3832, Note_on_c,72,108,6,2,1,84.0,True
61400,3832, Note_on_c,75,108,6,2,1,87.0,False
61401,3834, Note_on_c,73,108,6,2,1,85.0,False
61402,3835, Note_on_c,72,108,6,2,1,84.0,True
61403,3836, Note_on_c,73,108,6,2,1,85.0,False
61404,3837, Note_on_c,70,108,6,2,1,81.0,False
61405,3840, Note_on_c,72,108,6,2,1,84.0,True
61406,3840, Note_on_c,75,108,6,2,1,87.0,False
61407,3842, Note_on_c,73,108,6,2,1,85.0,False
61408,3843, Note_on_c,72,108,6,2,1,84.0,True
61409,3844, Note_on_c,73,108,6,2,1,85.0,False
61410,3845, Note_on_c,70,108,6,2,1,81.0,False
61411,3848, Note_on_c,72,108,6,2,1,84.0,True
61412,3848, Note_on_c,75,108,6,2,1,87.0,False
61413,3850, Note_on_c,73,103,6,2,1,85.0,False
61414,3851, Note_on_c,72,99,6,2,1,84.0,True
61415,3852, Note_on_c,73,95,6,2,1,85.0,False
61416,3853, Note_on_c,70,90,6,2,1,81.0,False
61417,3856, Note_on_c,72,77,6,2,1,84.0,True
61418,3856, Note_on_c,75,77,6,2,1,87.0,False
61419,3858, Note_on_c,73,69,6,2,1,85.0,False
61420,3859, Note_on_c,72,64,6,2,1,84.0,True
61421,3860, Note_on_c,73,60,6,2,1,85.0,False
61422,3861, Note_on_c,70,56,6,2,1,81.0,False
61423,3864, Note_on_c,72,43,6,2,1,84.0,True
61424,3864, Note_on_c,75,43,6,2,1,87.0,False
61425,3866, Note_on_c,73,34,6,2,1,85.0,False
61426,3867, Note_on_c,72,30,6,2,1,84.0,True
61427,3868, Note_on_c,73,25,6,2,1,85.0,False
61428,3869, Note_on_c,70,21,6,2,1,81.0,False
61429,3872, Note_on_c,72,8,6,2,1,84.0,True
61430,3872, Note_on_c,75,8,6,2,1,87.0,False
61431,3923, Note_on_c,68,7,6,2,1,79.0,False
61432,3923, Note_on_c,72,7,6,2,1,84.0,True
61433,3924, Note_on_c,63,10,6,2,1,73.0,False
61434,3924, Note_on_c,68,10,6,2,1,79.0,False
61435,3925, Note_on_c,66,12,6,2,1,77.0,False
61436,3925, Note_on_c,70,12,6,2,1,81.0,False
61437,3927, Note_on_c,58,16,6,2,1,67.0,False
61438,3927, Note_on_c,73,16,6,2,1,85.0,False
61439,3928, Note_on_c,68,18,6,2,1,79.0,False
61440,3928, Note_on_c,72,18,6,2,1,84.0,True
61441,3931, Note_on_c,68,25,6,2,1,79.0,False
61442,3931, Note_on_c,72,25,6,2,1,84.0,True
61443,3932, Note_on_c,63,27,6,2,1,73.0,False
61444,3932, Note_on_c,68,27,6,2,1,79.0,False
61445,3933, Note_on_c,66,30,6,2,1,77.0,False
61446,3933, Note_on_c,70,30,6,2,1,81.0,False
61447,3935, Note_on_c,58,34,6,2,1,67.0,False
61448,3935, Note_on_c,73,34,6,2,1,85.0,False
61449,3939, Note_on_c,68,43,6,2,1,79.0,False
61450,3939, Note_on_c,72,43,6,2,1,84.0,True
61451,3940, Note_on_c,63,45,6,2,1,73.0,False
61452,3940, Note_on_c,68,45,6,2,1,79.0,False
61453,3941, Note_on_c,66,47,6,2,1,77.0,False
61454,3941, Note_on_c,70,47,6,2,1,81.0,False
61455,3943, Note_on_c,58,52,6,2,1,67.0,False
61456,3943, Note_on_c,73,52,6,2,1,85.0,False
61457,3944, Note_on_c,68,54,6,2,1,79.0,False
61458,3944, Note_on_c,72,54,6,2,1,84.0,True
61459,3947, Note_on_c,68,61,6,2,1,79.0,False
61460,3947, Note_on_c,72,61,6,2,1,84.0,True
61461,3948, Note_on_c,63,63,6,2,1,73.0,False
61462,3948, Note_on_c,68,63,6,2,1,79.0,False
61463,3949, Note_on_c,66,65,6,2,1,77.0,False
61464,3949, Note_on_c,70,65,6,2,1,81.0,False
61465,3951, Note_on_c,58,70,6,2,1,67.0,False
61466,3951, Note_on_c,73,70,6,2,1,85.0,False
61467,3955, Note_on_c,68,79,6,2,1,79.0,False
61468,3955, Note_on_c,72,79,6,2,1,84.0,True
61469,3956, Note_on_c,63,81,6,2,1,73.0,False
61470,3956, Note_on_c,68,81,6,2,1,79.0,False
61471,3957, Note_on_c,66,83,6,2,1,77.0,False
61472,3957, Note_on_c,70,83,6,2,1,81.0,False
61473,3959, Note_on_c,58,88,6,2,1,67.0,False
61474,3959, Note_on_c,73,88,6,2,1,85.0,False
61475,3960, Note_on_c,68,90,6,2,1,79.0,False
61476,3960, Note_on_c,72,90,6,2,1,84.0,True
61477,3963, Note_on_c,68,96,6,2,1,79.0,False
61478,3963, Note_on_c,72,96,6,2,1,84.0,True
61479,3964, Note_on_c,63,99,6,2,1,73.0,False
61480,3964, Note_on_c,68,99,6,2,1,79.0,False
61481,3965, Note_on_c,66,101,6,2,1,77.0,False
61482,3965, Note_on_c,70,101,6,2,1,81.0,False
61483,3967, Note_on_c,58,105,6,2,1,67.0,False
61484,3967, Note_on_c,73,105,6,2,1,85.0,False
61485,3971, Note_on_c,68,108,6,2,1,79.0,False
61486,3971, Note_on_c,72,108,6,2,1,84.0,True
61487,3972, Note_on_c,63,108,6,2,1,73.0,False
61488,3972, Note_on_c,68,108,6,2,1,79.0,False
61489,3973, Note_on_c,66,108,6,2,1,77.0,False
61490,3973, Note_on_c,70,108,6,2,1,81.0,False
61491,3975, Note_on_c,58,108,6,2,1,67.0,False
61492,3975, Note_on_c,73,108,6,2,1,85.0,False
61493,3976, Note_on_c,68,108,6,2,1,79.0,False
61494,3976, Note_on_c,72,108,6,2,1,84.0,True
61495,3979, Note_on_c,68,108,6,2,1,79.0,False
61496,3979, Note_on_c,72,108,6,2,1,84.0,True
61497,3980, Note_on_c,63,108,6,2,1,73.0,False
61498,3980, Note_on_c,68,108,6,2,1,79.0,False
61499,3981, Note_on_c,66,108,6,2,1,77.0,False
61500,3981, Note_on_c,70,108,6,2,1,81.0,False
61501,3983, Note_on_c,58,108,6,2,1,67.0,False
61502,3983, Note_on_c,73,108,6,2,1,85.0,False
61503,3987, Note_on_c,68,108,6,2,1,79.0,False
61504,3987, Note_on_c,72,108,6,2,1,84.0,True
61505,3988, Note_on_c,63,108,6,2,1,73.0,False
61506,3988, Note_on_c,68,108,6,2,1,79.0,False
61507,3989, Note_on_c,66,108,6,2,1,77.0,False
61508,3989, Note_on_c,70,108,6,2,1,81.0,False
61509,3991, Note_on_c,58,108,6,2,1,67.0,False
61510,3991, Note_on_c,73,108,6,2,1,85.0,False
61511,3992, Note_on_c,68,108,6,2,1,79.0,False
61512,3992, Note_on_c,72,108,6,2,1,84.0,True
61513,3995, Note_on_c,68,108,6,2,1,79.0,False
61514,3995, Note_on_c,72,108,6,2,1,84.0,True
61515,3996, Note_on_c,63,108,6,2,1,73.0,False
61516,3996, Note_on_c,68,108,6,2,1,79.0,False
61517,3997, Note_on_c,66,108,6,2,1,77.0,False
61518,3997, Note_on_c,70,108,6,2,1,81.0,False
61519,3999, Note_on_c,58,108,6,2,1,67.0,False
61520,3999, Note_on_c,73,108,6,2,1,85.0,False
61521,4003, Note_on_c,68,108,6,2,1,79.0,False
61522,4003, Note_on_c,72,108,6,2,1,84.0,True
61523,4004, Note_on_c,63,108,6,2,1,73.0,False
61524,4004, Note_on_c,68,108,6,2,1,79.0,False
61525,4005, Note_on_c,66,108,6,2,1,77.0,False
61526,4005, Note_on_c,70,108,6,2,1,81.0,False
61527,4007, Note_on_c,58,108,6,2,1,67.0,False
61528,4007, Note_on_c,73,108,6,2,1,85.0,False
61529,4008, Note_on_c,68,108,6,2,1,79.0,False
61530,4008, Note_on_c,72,108,6,2,1,84.0,True
61531,4011, Note_on_c,68,108,6,2,1,79.0,False
61532,4011, Note_on_c,72,108,6,2,1,84.0,True
61533,4012, Note_on_c,63,108,6,2,1,73.0,False
61534,4012, Note_on_c,68,108,6,2,1,79.0,False
61535,4013, Note_on_c,66,108,6,2,1,77.0,False
61536,4013, Note_on_c,70,108,6,2,1,81.0,False
61537,4015, Note_on_c,58,108,6,2,1,67.0,False
61538,4015, Note_on_c,73,108,6,2,1,85.0,False
61539,4019, Note_on_c,68,108,6,2,1,79.0,False
61540,4019, Note_on_c,72,108,6,2,1,84.0,True
61541,4020, Note_on_c,63,108,6,2,1,73.0,False
61542,4020, Note_on_c,68,108,6,2,1,79.0,False
61543,4021, Note_on_c,66,108,6,2,1,77.0,False
61544,4021, Note_on_c,70,108,6,2,1,81.0,False
61545,4023, Note_on_c,58,108,6,2,1,67.0,False
61546,4023, Note_on_c,73,108,6,2,1,85.0,False
61547,4024, Note_on_c,68,108,6,2,1,79.0,False
61548,4024, Note_on_c,72,108,6,2,1,84.0,True
61549,4027, Note_on_c,68,108,6,2,1,79.0,False
61550,4027, Note_on_c,72,108,6,2,1,84.0,True
61551,4028, Note_on_c,63,108,6,2,1,73.0,False
61552,4028, Note_on_c,68,108,6,2,1,79.0,False
61553,4029, Note_on_c,66,108,6,2,1,77.0,False
61554,4029, Note_on_c,70,108,6,2,1,81.0,False
61555,4031, Note_on_c,58,108,6,2,1,67.0,False
61556,4031, Note_on_c,73,108,6,2,1,85.0,False
61557,4035, Note_on_c,68,108,6,2,1,79.0,False
61558,4035, Note_on_c,72,108,6,2,1,84.0,True
61559,4036, Note_on_c,63,108,6,2,1,73.0,False
61560,4036, Note_on_c,68,108,6,2,1,79.0,False
61561,4037, Note_on_c,66,108,6,2,1,77.0,False
61562,4037, Note_on_c,70,108,6,2,1,81.0,False
61563,4039, Note_on_c,58,108,6,2,1,67.0,False
61564,4039, Note_on_c,73,108,6,2,1,85.0,False
61565,4040, Note_on_c,68,108,6,2,1,79.0,False
61566,4040, Note_on_c,72,108,6,2,1,84.0,True
61567,4043, Note_on_c,68,108,6,2,1,79.0,False
61568,4043, Note_on_c,72,108,6,2,1,84.0,True
61569,4044, Note_on_c,63,108,6,2,1,73.0,False
61570,4044, Note_on_c,68,108,6,2,1,79.0,False
61571,4045, Note_on_c,66,108,6,2,1,77.0,False
61572,4045, Note_on_c,70,108,6,2,1,81.0,False
61573,4047, Note_on_c,58,108,6,2,1,67.0,False
61574,4047, Note_on_c,73,108,6,2,1,85.0,False
61575,4051, Note_on_c,68,108,6,2,1,79.0,False
61576,4051, Note_on_c,72,108,6,2,1,84.0,True
61577,4052, Note_on_c,63,108,6,2,1,73.0,False
61578,4052, Note_on_c,68,108,6,2,1,79.0,False
61579,4053, Note_on_c,66,108,6,2,1,77.0,False
61580,4053, Note_on_c,70,108,6,2,1,81.0,False
61581,4055, Note_on_c,58,108,6,2,1,67.0,False
61582,4055, Note_on_c,73,108,6,2,1,85.0,False
61583,4056, Note_on_c,68,108,6,2,1,79.0,False
61584,4056, Note_on_c,72,108,6,2,1,84.0,True
61585,4059, Note_on_c,68,108,6,2,1,79.0,False
61586,4059, Note_on_c,72,108,6,2,1,84.0,True
61587,4060, Note_on_c,63,108,6,2,1,73.0,False
61588,4060, Note_on_c,68,108,6,2,1,79.0,False
61589,4061, Note_on_c,66,108,6,2,1,77.0,False
61590,4061, Note_on_c,70,108,6,2,1,81.0,False
61591,4063, Note_on_c,58,108,6,2,1,67.0,False
61592,4063, Note_on_c,73,108,6,2,1,85.0,False
61593,4067, Note_on_c,68,108,6,2,1,79.0,False
61594,4067, Note_on_c,72,108,6,2,1,84.0,True
61595,4068, Note_on_c,63,108,6,2,1,73.0,False
61596,4068, Note_on_c,68,108,6,2,1,79.0,False
61597,4069, Note_on_c,66,108,6,2,1,77.0,False
61598,4069, Note_on_c,70,108,6,2,1,81.0,False
61599,4071, Note_on_c,58,108,6,2,1,67.0,False
61600,4071, Note_on_c,73,108,6,2,1,85.0,False
61601,4072, Note_on_c,68,108,6,2,1,79.0,False
61602,4072, Note_on_c,72,108,6,2,1,84.0,True
61603,4075, Note_on_c,68,108,6,2,1,79.0,False
61604,4075, Note_on_c,72,108,6,2,1,84.0,True
61605,4076, Note_on_c,63,108,6,2,1,73.0,False
61606,4076, Note_on_c,68,108,6,2,1,79.0,False
61607,4077, Note_on_c,66,108,6,2,1,77.0,False
61608,4077, Note_on_c,70,108,6,2,1,81.0,False
61609,4079, Note_on_c,58,108,6,2,1,67.0,False
61610,4079, Note_on_c,73,108,6,2,1,85.0,False
61611,4083, Note_on_c,68,108,6,2,1,79.0,False
61612,4083, Note_on_c,72,108,6,2,1,84.0,True
61613,4084, Note_on_c,63,108,6,2,1,73.0,False
61614,4084, Note_on_c,68,108,6,2,1,79.0,False
61615,4085, Note_on_c,66,108,6,2,1,77.0,False
61616,4085, Note_on_c,70,108,6,2,1,81.0,False
61617,4087, Note_on_c,58,108,6,2,1,67.0,False
61618,4087, Note_on_c,73,108,6,2,1,85.0,False
61619,4088, Note_on_c,68,108,6,2,1,79.0,False
61620,4088, Note_on_c,72,108,6,2,1,84.0,True
61621,4091, Note_on_c,68,108,6,2,1,79.0,False
61622,4091, Note_on_c,72,108,6,2,1,84.0,True
61623,4092, Note_on_c,63,108,6,2,1,73.0,False
61624,4092, Note_on_c,68,108,6,2,1,79.0,False
61625,4093, Note_on_c,66,108,6,2,1,77.0,False
61626,4093, Note_on_c,70,108,6,2,1,81.0,False
61627,4095, Note_on_c,58,108,6,2,1,67.0,False
61628,4095, Note_on_c,73,108,6,2,1,85.0,False
61629,4099, Note_on_c,68,108,6,2,1,79.0,False
61630,4099, Note_on_c,72,108,6,2,1,84.0,True
61631,4100, Note_on_c,63,108,6,2,1,73.0,False
61632,4100, Note_on_c,68,108,6,2,1,79.0,False
61633,4101, Note_on_c,66,108,6,2,1,77.0,False
61634,4101, Note_on_c,70,108,6,2,1,81.0,False
61635,4103, Note_on_c,58,108,6,2,1,67.0,False
61636,4103, Note_on_c,73,108,6,2,1,85.0,False
61637,4104, Note_on_c,68,108,6,2,1,79.0,False
61638,4104, Note_on_c,72,108,6,2,1,84.0,True
61639,4107, Note_on_c,68,108,6,2,1,79.0,False
61640,4107, Note_on_c,72,108,6,2,1,84.0,True
61641,4108, Note_on_c,63,108,6,2,1,73.0,False
61642,4108, Note_on_c,68,108,6,2,1,79.0,False
61643,4109, Note_on_c,66,108,6,2,1,77.0,False
61644,4109, Note_on_c,70,108,6,2,1,81.0,False
61645,4111, Note_on_c,58,108,6,2,1,67.0,False
61646,4111, Note_on_c,73,108,6,2,1,85.0,False
61647,4115, Note_on_c,68,108,6,2,1,79.0,False
61648,4115, Note_on_c,72,108,6,2,1,84.0,True
61649,4116, Note_on_c,63,108,6,2,1,73.0,False
61650,4116, Note_on_c,68,108,6,2,1,79.0,False
61651,4117, Note_on_c,66,108,6,2,1,77.0,False
61652,4117, Note_on_c,70,108,6,2,1,81.0,False
61653,4119, Note_on_c,58,108,6,2,1,67.0,False
61654,4119, Note_on_c,73,108,6,2,1,85.0,False
61655,4120, Note_on_c,68,108,6,2,1,79.0,False
61656,4120, Note_on_c,72,108,6,2,1,84.0,True
61657,4123, Note_on_c,68,108,6,2,1,79.0,False
61658,4123, Note_on_c,72,108,6,2,1,84.0,True
61659,4124, Note_on_c,63,108,6,2,1,73.0,False
61660,4124, Note_on_c,68,108,6,2,1,79.0,False
61661,4125, Note_on_c,66,108,6,2,1,77.0,False
61662,4125, Note_on_c,70,108,6,2,1,81.0,False
61663,4127, Note_on_c,58,108,6,2,1,67.0,False
61664,4127, Note_on_c,73,108,6,2,1,85.0,False
61665,4131, Note_on_c,68,102,6,2,1,79.0,False
61666,4131, Note_on_c,72,102,6,2,1,84.0,True
61667,4132, Note_on_c,63,99,6,2,1,73.0,False
61668,4132, Note_on_c,68,99,6,2,1,79.0,False
61669,4133, Note_on_c,66,96,6,2,1,77.0,False
61670,4133, Note_on_c,70,96,6,2,1,81.0,False
61671,4135, Note_on_c,58,89,6,2,1,67.0,False
61672,4135, Note_on_c,73,89,6,2,1,85.0,False
61673,4136, Note_on_c,68,85,6,2,1,79.0,False
61674,4136, Note_on_c,72,85,6,2,1,84.0,True
61675,4139, Note_on_c,68,75,6,2,1,79.0,False
61676,4139, Note_on_c,72,75,6,2,1,84.0,True
61677,4140, Note_on_c,63,72,6,2,1,73.0,False
61678,4140, Note_on_c,68,72,6,2,1,79.0,False
61679,4141, Note_on_c,66,69,6,2,1,77.0,False
61680,4141, Note_on_c,70,69,6,2,1,81.0,False
61681,4143, Note_on_c,58,62,6,2,1,67.0,False
61682,4143, Note_on_c,73,62,6,2,1,85.0,False
61683,4147, Note_on_c,68,49,6,2,1,79.0,False
61684,4147, Note_on_c,72,49,6,2,1,84.0,True
61685,4148, Note_on_c,63,45,6,2,1,73.0,False
61686,4148, Note_on_c,68,45,6,2,1,79.0,False
61687,4149, Note_on_c,66,42,6,2,1,77.0,False
61688,4149, Note_on_c,70,42,6,2,1,81.0,False
61689,4151, Note_on_c,58,35,6,2,1,67.0,False
61690,4151, Note_on_c,73,35,6,2,1,85.0,False
61691,4152, Note_on_c,68,32,6,2,1,79.0,False
61692,4152, Note_on_c,72,32,6,2,1,84.0,True
61693,4155, Note_on_c,68,22,6,2,1,79.0,False
61694,4155, Note_on_c,72,22,6,2,1,84.0,True
61695,4156, Note_on_c,63,18,6,2,1,73.0,False
61696,4156, Note_on_c,68,18,6,2,1,79.0,False
61697,4157, Note_on_c,66,15,6,2,1,77.0,False
61698,4157, Note_on_c,70,15,6,2,1,81.0,False
61699,4159, Note_on_c,58,8,6,2,1,67.0,False
61700,4159, Note_on_c,73,8,6,2,1,85.0,False
61701,4251, Note_on_c,68,108,6,2,1,79.0,False
61702,4251, Note_on_c,73,108,6,2,1,85.0,False
61703,4259, Note_on_c,68,108,6,2,1,79.0,False
61704,4259, Note_on_c,73,108,6,2,1,85.0,False
61705,4267, Note_on_c,68,108,6,2,1,79.0,False
61706,4267, Note_on_c,73,108,6,2,1,85.0,False
61707,4275, Note_on_c,68,108,6,2,1,79.0,False
61708,4275, Note_on_c,73,108,6,2,1,85.0,False
61709,4283, Note_on_c,68,108,6,2,1,79.0,False
61710,4283, Note_on_c,73,108,6,2,1,85.0,False
61711,4291, Note_on_c,68,108,6,2,1,79.0,False
61712,4291, Note_on_c,73,108,6,2,1,85.0,False
61713,4299, Note_on_c,68,108,6,2,1,79.0,False
61714,4299, Note_on_c,73,108,6,2,1,85.0,False
61715,4307, Note_on_c,68,108,6,2,1,79.0,False
61716,4307, Note_on_c,73,108,6,2,1,85.0,False
61717,4315, Note_on_c,68,108,6,2,1,79.0,False
61718,4315, Note_on_c,73,108,6,2,1,85.0,False
61719,4316, Note_on_c,70,108,6,2,1,81.0,False
61720,4316, Note_on_c,75,108,6,2,1,87.0,False
61721,4323, Note_on_c,68,108,6,2,1,79.0,False
61722,4323, Note_on_c,73,108,6,2,1,85.0,False
61723,4324, Note_on_c,70,108,6,2,1,81.0,False
61724,4324, Note_on_c,75,108,6,2,1,87.0,False
61725,4331, Note_on_c,68,108,6,2,1,79.0,False
61726,4331, Note_on_c,73,108,6,2,1,85.0,False
61727,4332, Note_on_c,70,108,6,2,1,81.0,False
61728,4332, Note_on_c,75,108,6,2,1,87.0,False
61729,4339, Note_on_c,68,108,6,2,1,79.0,False
61730,4339, Note_on_c,73,108,6,2,1,85.0,False
61731,4340, Note_on_c,70,108,6,2,1,81.0,False
61732,4340, Note_on_c,75,108,6,2,1,87.0,False
61733,4347, Note_on_c,68,108,6,2,1,79.0,False
61734,4347, Note_on_c,73,108,6,2,1,85.0,False
61735,4348, Note_on_c,70,108,6,2,1,81.0,False
61736,4348, Note_on_c,75,108,6,2,1,87.0,False
61737,4355, Note_on_c,68,108,6,2,1,79.0,False
61738,4355, Note_on_c,73,108,6,2,1,85.0,False
61739,4356, Note_on_c,70,108,6,2,1,81.0,False
61740,4356, Note_on_c,75,108,6,2,1,87.0,False
61741,4363, Note_on_c,68,108,6,2,1,79.0,False
61742,4363, Note_on_c,73,108,6,2,1,85.0,False
61743,4364, Note_on_c,70,108,6,2,1,81.0,False
61744,4364, Note_on_c,75,108,6,2,1,87.0,False
61745,4371, Note_on_c,68,108,6,2,1,79.0,False
61746,4371, Note_on_c,73,108,6,2,1,85.0,False
61747,4372, Note_on_c,70,108,6,2,1,81.0,False
61748,4372, Note_on_c,75,108,6,2,1,87.0,False
61749,4379, Note_on_c,68,108,6,2,1,79.0,False
61750,4379, Note_on_c,73,108,6,2,1,85.0,False
61751,4380, Note_on_c,70,108,6,2,1,81.0,False
61752,4380, Note_on_c,75,108,6,2,1,87.0,False
61753,4381, Note_on_c,63,108,6,2,1,73.0,False
61754,4387, Note_on_c,68,108,6,2,1,79.0,False
61755,4387, Note_on_c,73,108,6,2,1,85.0,False
61756,4388, Note_on_c,70,108,6,2,1,81.0,False
61757,4388, Note_on_c,75,108,6,2,1,87.0,False
61758,4389, Note_on_c,63,108,6,2,1,73.0,False
61759,4395, Note_on_c,68,108,6,2,1,79.0,False
61760,4395, Note_on_c,73,108,6,2,1,85.0,False
61761,4396, Note_on_c,70,108,6,2,1,81.0,False
61762,4396, Note_on_c,75,108,6,2,1,87.0,False
61763,4397, Note_on_c,63,108,6,2,1,73.0,False
61764,4403, Note_on_c,68,108,6,2,1,79.0,False
61765,4403, Note_on_c,73,108,6,2,1,85.0,False
61766,4404, Note_on_c,70,108,6,2,1,81.0,False
61767,4404, Note_on_c,75,108,6,2,1,87.0,False
61768,4405, Note_on_c,63,108,6,2,1,73.0,False
61769,4411, Note_on_c,68,108,6,2,1,79.0,False
61770,4411, Note_on_c,73,108,6,2,1,85.0,False
61771,4412, Note_on_c,70,108,6,2,1,81.0,False
61772,4412, Note_on_c,75,108,6,2,1,87.0,False
61773,4413, Note_on_c,63,108,6,2,1,73.0,False
61774,4419, Note_on_c,68,108,6,2,1,79.0,False
61775,4419, Note_on_c,73,108,6,2,1,85.0,False
61776,4420, Note_on_c,70,108,6,2,1,81.0,False
61777,4420, Note_on_c,75,108,6,2,1,87.0,False
61778,4421, Note_on_c,63,108,6,2,1,73.0,False
61779,4427, Note_on_c,68,108,6,2,1,79.0,False
61780,4427, Note_on_c,73,108,6,2,1,85.0,False
61781,4428, Note_on_c,70,108,6,2,1,81.0,False
61782,4428, Note_on_c,75,108,6,2,1,87.0,False
61783,4429, Note_on_c,63,108,6,2,1,73.0,False
61784,4435, Note_on_c,68,108,6,2,1,79.0,False
61785,4435, Note_on_c,73,108,6,2,1,85.0,False
61786,4436, Note_on_c,70,108,6,2,1,81.0,False
61787,4436, Note_on_c,75,108,6,2,1,87.0,False
61788,4437, Note_on_c,63,108,6,2,1,73.0,False
61789,4443, Note_on_c,68,108,6,2,1,79.0,False
61790,4443, Note_on_c,73,108,6,2,1,85.0,False
61791,4444, Note_on_c,70,108,6,2,1,81.0,False
61792,4444, Note_on_c,75,108,6,2,1,87.0,False
61793,4445, Note_on_c,63,108,6,2,1,73.0,False
61794,4447, Note_on_c,72,108,6,2,1,84.0,True
61795,4447, Note_on_c,75,108,6,2,1,87.0,False
61796,4451, Note_on_c,68,108,6,2,1,79.0,False
61797,4451, Note_on_c,73,108,6,2,1,85.0,False
61798,4452, Note_on_c,70,108,6,2,1,81.0,False
61799,4452, Note_on_c,75,108,6,2,1,87.0,False
61800,4453, Note_on_c,63,108,6,2,1,73.0,False
61801,4455, Note_on_c,72,108,6,2,1,84.0,True
61802,4455, Note_on_c,75,108,6,2,1,87.0,False
61803,4459, Note_on_c,68,108,6,2,1,79.0,False
61804,4459, Note_on_c,73,108,6,2,1,85.0,False
61805,4460, Note_on_c,70,108,6,2,1,81.0,False
61806,4460, Note_on_c,75,108,6,2,1,87.0,False
61807,4461, Note_on_c,63,108,6,2,1,73.0,False
61808,4463, Note_on_c,72,108,6,2,1,84.0,True
61809,4463, Note_on_c,75,108,6,2,1,87.0,False
61810,4467, Note_on_c,68,108,6,2,1,79.0,False
61811,4467, Note_on_c,73,108,6,2,1,85.0,False
61812,4468, Note_on_c,70,108,6,2,1,81.0,False
61813,4468, Note_on_c,75,108,6,2,1,87.0,False
61814,4469, Note_on_c,63,108,6,2,1,73.0,False
61815,4471, Note_on_c,72,108,6,2,1,84.0,True
61816,4471, Note_on_c,75,108,6,2,1,87.0,False
61817,4475, Note_on_c,68,108,6,2,1,79.0,False
61818,4475, Note_on_c,73,108,6,2,1,85.0,False
61819,4476, Note_on_c,70,108,6,2,1,81.0,False
61820,4476, Note_on_c,75,108,6,2,1,87.0,False
61821,4477, Note_on_c,63,108,6,2,1,73.0,False
61822,4479, Note_on_c,72,108,6,2,1,84.0,True
61823,4479, Note_on_c,75,108,6,2,1,87.0,False
61824,4483, Note_on_c,68,108,6,2,1,79.0,False
61825,4483, Note_on_c,73,108,6,2,1,85.0,False
61826,4484, Note_on_c,70,108,6,2,1,81.0,False
61827,4484, Note_on_c,75,108,6,2,1,87.0,False
61828,4485, Note_on_c,63,108,6,2,1,73.0,False
61829,4487, Note_on_c,72,108,6,2,1,84.0,True
61830,4487, Note_on_c,75,108,6,2,1,87.0,False
61831,4491, Note_on_c,68,108,6,2,1,79.0,False
61832,4491, Note_on_c,73,108,6,2,1,85.0,False
61833,4492, Note_on_c,70,108,6,2,1,81.0,False
61834,4492, Note_on_c,75,108,6,2,1,87.0,False
61835,4493, Note_on_c,63,108,6,2,1,73.0,False
61836,4495, Note_on_c,72,108,6,2,1,84.0,True
61837,4495, Note_on_c,75,108,6,2,1,87.0,False
61838,4499, Note_on_c,68,108,6,2,1,79.0,False
61839,4499, Note_on_c,73,108,6,2,1,85.0,False
61840,4500, Note_on_c,70,108,6,2,1,81.0,False
61841,4500, Note_on_c,75,108,6,2,1,87.0,False
61842,4501, Note_on_c,63,108,6,2,1,73.0,False
61843,4503, Note_on_c,72,108,6,2,1,84.0,True
61844,4503, Note_on_c,75,108,6,2,1,87.0,False
61845,4507, Note_on_c,68,108,6,2,1,79.0,False
61846,4507, Note_on_c,73,108,6,2,1,85.0,False
61847,4508, Note_on_c,70,108,6,2,1,81.0,False
61848,4508, Note_on_c,75,108,6,2,1,87.0,False
61849,4509, Note_on_c,63,108,6,2,1,73.0,False
61850,4511, Note_on_c,72,108,6,2,1,84.0,True
61851,4511, Note_on_c,75,108,6,2,1,87.0,False
61852,4512, Note_on_c,63,108,6,2,1,73.0,False
61853,4515, Note_on_c,68,108,6,2,1,79.0,False
61854,4515, Note_on_c,73,108,6,2,1,85.0,False
61855,4516, Note_on_c,70,108,6,2,1,81.0,False
61856,4516, Note_on_c,75,108,6,2,1,87.0,False
61857,4517, Note_on_c,63,108,6,2,1,73.0,False
61858,4519, Note_on_c,72,108,6,2,1,84.0,True
61859,4519, Note_on_c,75,108,6,2,1,87.0,False
61860,4520, Note_on_c,63,108,6,2,1,73.0,False
61861,4523, Note_on_c,68,108,6,2,1,79.0,False
61862,4523, Note_on_c,73,108,6,2,1,85.0,False
61863,4524, Note_on_c,70,108,6,2,1,81.0,False
61864,4524, Note_on_c,75,108,6,2,1,87.0,False
61865,4525, Note_on_c,63,108,6,2,1,73.0,False
61866,4527, Note_on_c,72,108,6,2,1,84.0,True
61867,4527, Note_on_c,75,108,6,2,1,87.0,False
61868,4528, Note_on_c,63,108,6,2,1,73.0,False
61869,4531, Note_on_c,68,108,6,2,1,79.0,False
61870,4531, Note_on_c,73,108,6,2,1,85.0,False
61871,4532, Note_on_c,70,108,6,2,1,81.0,False
61872,4532, Note_on_c,75,108,6,2,1,87.0,False
61873,4533, Note_on_c,63,108,6,2,1,73.0,False
61874,4535, Note_on_c,72,108,6,2,1,84.0,True
61875,4535, Note_on_c,75,108,6,2,1,87.0,False
61876,4536, Note_on_c,63,108,6,2,1,73.0,False
61877,4539, Note_on_c,68,108,6,2,1,79.0,False
61878,4539, Note_on_c,73,108,6,2,1,85.0,False
61879,4540, Note_on_c,70,108,6,2,1,81.0,False
61880,4540, Note_on_c,75,108,6,2,1,87.0,False
61881,4541, Note_on_c,63,108,6,2,1,73.0,False
61882,4543, Note_on_c,72,108,6,2,1,84.0,True
61883,4543, Note_on_c,75,108,6,2,1,87.0,False
61884,4544, Note_on_c,63,108,6,2,1,73.0,False
61885,4547, Note_on_c,68,108,6,2,1,79.0,False
61886,4547, Note_on_c,73,108,6,2,1,85.0,False
61887,4548, Note_on_c,70,108,6,2,1,81.0,False
61888,4548, Note_on_c,75,108,6,2,1,87.0,False
61889,4549, Note_on_c,63,108,6,2,1,73.0,False
61890,4551, Note_on_c,72,108,6,2,1,84.0,True
61891,4551, Note_on_c,75,108,6,2,1,87.0,False
61892,4552, Note_on_c,63,108,6,2,1,73.0,False
61893,4555, Note_on_c,68,108,6,2,1,79.0,False
61894,4555, Note_on_c,73,108,6,2,1,85.0,False
61895,4556, Note_on_c,70,108,6,2,1,81.0,False
61896,4556, Note_on_c,75,108,6,2,1,87.0,False
61897,4557, Note_on_c,63,108,6,2,1,73.0,False
61898,4559, Note_on_c,72,108,6,2,1,84.0,True
61899,4559, Note_on_c,75,108,6,2,1,87.0,False
61900,4560, Note_on_c,63,108,6,2,1,73.0,False
61901,4563, Note_on_c,68,108,6,2,1,79.0,False
61902,4563, Note_on_c,73,108,6,2,1,85.0,False
61903,4564, Note_on_c,70,108,6,2,1,81.0,False
61904,4564, Note_on_c,75,108,6,2,1,87.0,False
61905,4565, Note_on_c,63,108,6,2,1,73.0,False
61906,4567, Note_on_c,72,108,6,2,1,84.0,True
61907,4567, Note_on_c,75,108,6,2,1,87.0,False
61908,4568, Note_on_c,63,108,6,2,1,73.0,False
61909,4570, Note_on_c,72,108,6,2,1,84.0,True
61910,4570, Note_on_c,75,108,6,2,1,87.0,False
61911,4571, Note_on_c,68,108,6,2,1,79.0,False
61912,4571, Note_on_c,73,108,6,2,1,85.0,False
61913,4572, Note_on_c,70,108,6,2,1,81.0,False
61914,4572, Note_on_c,75,108,6,2,1,87.0,False
61915,4573, Note_on_c,63,108,6,2,1,73.0,False
61916,4575, Note_on_c,72,108,6,2,1,84.0,True
61917,4575, Note_on_c,75,108,6,2,1,87.0,False
61918,4576, Note_on_c,63,108,6,2,1,73.0,False
61919,4578, Note_on_c,72,108,6,2,1,84.0,True
61920,4578, Note_on_c,75,108,6,2,1,87.0,False
61921,4579, Note_on_c,68,108,6,2,1,79.0,False
61922,4579, Note_on_c,73,108,6,2,1,85.0,False
61923,4580, Note_on_c,70,108,6,2,1,81.0,False
61924,4580, Note_on_c,75,108,6,2,1,87.0,False
61925,4581, Note_on_c,63,108,6,2,1,73.0,False
61926,4583, Note_on_c,72,108,6,2,1,84.0,True
61927,4583, Note_on_c,75,108,6,2,1,87.0,False
61928,4584, Note_on_c,63,108,6,2,1,73.0,False
61929,4586, Note_on_c,72,108,6,2,1,84.0,True
61930,4586, Note_on_c,75,108,6,2,1,87.0,False
61931,4587, Note_on_c,68,108,6,2,1,79.0,False
61932,4587, Note_on_c,73,108,6,2,1,85.0,False
61933,4588, Note_on_c,70,108,6,2,1,81.0,False
61934,4588, Note_on_c,75,108,6,2,1,87.0,False
61935,4589, Note_on_c,63,108,6,2,1,73.0,False
61936,4591, Note_on_c,72,108,6,2,1,84.0,True
61937,4591, Note_on_c,75,108,6,2,1,87.0,False
61938,4592, Note_on_c,63,108,6,2,1,73.0,False
61939,4594, Note_on_c,72,108,6,2,1,84.0,True
61940,4594, Note_on_c,75,108,6,2,1,87.0,False
61941,4595, Note_on_c,68,108,6,2,1,79.0,False
61942,4595, Note_on_c,73,108,6,2,1,85.0,False
61943,4596, Note_on_c,70,108,6,2,1,81.0,False
61944,4596, Note_on_c,75,108,6,2,1,87.0,False
61945,4597, Note_on_c,63,108,6,2,1,73.0,False
61946,4599, Note_on_c,72,108,6,2,1,84.0,True
61947,4599, Note_on_c,75,108,6,2,1,87.0,False
61948,4600, Note_on_c,63,108,6,2,1,73.0,False
61949,4602, Note_on_c,72,108,6,2,1,84.0,True
61950,4602, Note_on_c,75,108,6,2,1,87.0,False
61951,4603, Note_on_c,68,108,6,2,1,79.0,False
61952,4603, Note_on_c,73,108,6,2,1,85.0,False
61953,4604, Note_on_c,70,108,6,2,1,81.0,False
61954,4604, Note_on_c,75,108,6,2,1,87.0,False
61955,4605, Note_on_c,63,108,6,2,1,73.0,False
61956,4607, Note_on_c,72,108,6,2,1,84.0,True
61957,4607, Note_on_c,75,108,6,2,1,87.0,False
61958,4608, Note_on_c,63,108,6,2,1,73.0,False
61959,4610, Note_on_c,72,108,6,2,1,84.0,True
61960,4610, Note_on_c,75,108,6,2,1,87.0,False
61961,4611, Note_on_c,68,108,6,2,1,79.0,False
61962,4611, Note_on_c,73,108,6,2,1,85.0,False
61963,4612, Note_on_c,70,108,6,2,1,81.0,False
61964,4612, Note_on_c,75,108,6,2,1,87.0,False
61965,4613, Note_on_c,63,108,6,2,1,73.0,False
61966,4615, Note_on_c,72,108,6,2,1,84.0,True
61967,4615, Note_on_c,75,108,6,2,1,87.0,False
61968,4616, Note_on_c,63,108,6,2,1,73.0,False
61969,4618, Note_on_c,72,108,6,2,1,84.0,True
61970,4618, Note_on_c,75,108,6,2,1,87.0,False
61971,4619, Note_on_c,68,108,6,2,1,79.0,False
61972,4619, Note_on_c,73,108,6,2,1,85.0,False
61973,4620, Note_on_c,70,108,6,2,1,81.0,False
61974,4620, Note_on_c,75,108,6,2,1,87.0,False
61975,4621, Note_on_c,63,108,6,2,1,73.0,False
61976,4623, Note_on_c,72,108,6,2,1,84.0,True
61977,4623, Note_on_c,75,108,6,2,1,87.0,False
61978,4624, Note_on_c,63,108,6,2,1,73.0,False
61979,4626, Note_on_c,72,108,6,2,1,84.0,True
61980,4626, Note_on_c,75,108,6,2,1,87.0,False
61981,4627, Note_on_c,68,108,6,2,1,79.0,False
61982,4627, Note_on_c,73,108,6,2,1,85.0,False
61983,4628, Note_on_c,70,108,6,2,1,81.0,False
61984,4628, Note_on_c,75,108,6,2,1,87.0,False
61985,4629, Note_on_c,63,108,6,2,1,73.0,False
61986,4631, Note_on_c,72,108,6,2,1,84.0,True
61987,4631, Note_on_c,75,108,6,2,1,87.0,False
61988,4632, Note_on_c,63,108,6,2,1,73.0,False
61989,4634, Note_on_c,72,108,6,2,1,84.0,True
61990,4634, Note_on_c,75,108,6,2,1,87.0,False
61991,4635, Note_on_c,68,108,6,2,1,79.0,False
61992,4635, Note_on_c,73,108,6,2,1,85.0,False
61993,4636, Note_on_c,70,108,6,2,1,81.0,False
61994,4636, Note_on_c,75,108,6,2,1,87.0,False
61995,4637, Note_on_c,63,108,6,2,1,73.0,False
61996,4638, Note_on_c,68,108,6,2,1,79.0,False
61997,4638, Note_on_c,73,108,6,2,1,85.0,False
61998,4639, Note_on_c,72,108,6,2,1,84.0,True
61999,4639, Note_on_c,75,108,6,2,1,87.0,False
62000,4640, Note_on_c,63,108,6,2,1,73.0,False
62001,4642, Note_on_c,72,108,6,2,1,84.0,True
62002,4642, Note_on_c,75,108,6,2,1,87.0,False
62003,4643, Note_on_c,68,108,6,2,1,79.0,False
62004,4643, Note_on_c,73,108,6,2,1,85.0,False
62005,4644, Note_on_c,70,108,6,2,1,81.0,False
62006,4644, Note_on_c,75,108,6,2,1,87.0,False
62007,4645, Note_on_c,63,108,6,2,1,73.0,False
62008,4646, Note_on_c,68,108,6,2,1,79.0,False
62009,4646, Note_on_c,73,108,6,2,1,85.0,False
62010,4647, Note_on_c,72,108,6,2,1,84.0,True
62011,4647, Note_on_c,75,108,6,2,1,87.0,False
62012,4648, Note_on_c,63,108,6,2,1,73.0,False
62013,4650, Note_on_c,72,108,6,2,1,84.0,True
62014,4650, Note_on_c,75,108,6,2,1,87.0,False
62015,4651, Note_on_c,68,108,6,2,1,79.0,False
62016,4651, Note_on_c,73,108,6,2,1,85.0,False
62017,4652, Note_on_c,70,108,6,2,1,81.0,False
62018,4652, Note_on_c,75,108,6,2,1,87.0,False
62019,4653, Note_on_c,63,108,6,2,1,73.0,False
62020,4654, Note_on_c,68,108,6,2,1,79.0,False
62021,4654, Note_on_c,73,108,6,2,1,85.0,False
62022,4655, Note_on_c,72,108,6,2,1,84.0,True
62023,4655, Note_on_c,75,108,6,2,1,87.0,False
62024,4656, Note_on_c,63,108,6,2,1,73.0,False
62025,4658, Note_on_c,72,108,6,2,1,84.0,True
62026,4658, Note_on_c,75,108,6,2,1,87.0,False
62027,4659, Note_on_c,68,108,6,2,1,79.0,False
62028,4659, Note_on_c,73,108,6,2,1,85.0,False
62029,4660, Note_on_c,70,108,6,2,1,81.0,False
62030,4660, Note_on_c,75,108,6,2,1,87.0,False
62031,4661, Note_on_c,63,108,6,2,1,73.0,False
62032,4662, Note_on_c,68,108,6,2,1,79.0,False
62033,4662, Note_on_c,73,108,6,2,1,85.0,False
62034,4663, Note_on_c,72,108,6,2,1,84.0,True
62035,4663, Note_on_c,75,108,6,2,1,87.0,False
62036,4664, Note_on_c,63,108,6,2,1,73.0,False
62037,4666, Note_on_c,72,108,6,2,1,84.0,True
62038,4666, Note_on_c,75,108,6,2,1,87.0,False
62039,4667, Note_on_c,68,108,6,2,1,79.0,False
62040,4667, Note_on_c,73,108,6,2,1,85.0,False
62041,4668, Note_on_c,70,108,6,2,1,81.0,False
62042,4668, Note_on_c,75,108,6,2,1,87.0,False
62043,4669, Note_on_c,63,108,6,2,1,73.0,False
62044,4670, Note_on_c,68,108,6,2,1,79.0,False
62045,4670, Note_on_c,73,108,6,2,1,85.0,False
62046,4671, Note_on_c,72,108,6,2,1,84.0,True
62047,4671, Note_on_c,75,108,6,2,1,87.0,False
62048,4672, Note_on_c,63,108,6,2,1,73.0,False
62049,4674, Note_on_c,72,108,6,2,1,84.0,True
62050,4674, Note_on_c,75,108,6,2,1,87.0,False
62051,4675, Note_on_c,68,108,6,2,1,79.0,False
62052,4675, Note_on_c,73,108,6,2,1,85.0,False
62053,4676, Note_on_c,70,108,6,2,1,81.0,False
62054,4676, Note_on_c,75,108,6,2,1,87.0,False
62055,4677, Note_on_c,63,108,6,2,1,73.0,False
62056,4678, Note_on_c,68,108,6,2,1,79.0,False
62057,4678, Note_on_c,73,108,6,2,1,85.0,False
62058,4679, Note_on_c,72,108,6,2,1,84.0,True
62059,4679, Note_on_c,75,108,6,2,1,87.0,False
62060,4680, Note_on_c,63,108,6,2,1,73.0,False
62061,4682, Note_on_c,72,108,6,2,1,84.0,True
62062,4682, Note_on_c,75,108,6,2,1,87.0,False
62063,4683, Note_on_c,68,108,6,2,1,79.0,False
62064,4683, Note_on_c,73,108,6,2,1,85.0,False
62065,4684, Note_on_c,70,108,6,2,1,81.0,False
62066,4684, Note_on_c,75,108,6,2,1,87.0,False
62067,4685, Note_on_c,63,108,6,2,1,73.0,False
62068,4686, Note_on_c,68,108,6,2,1,79.0,False
62069,4686, Note_on_c,73,108,6,2,1,85.0,False
62070,4687, Note_on_c,72,108,6,2,1,84.0,True
62071,4687, Note_on_c,75,108,6,2,1,87.0,False
62072,4688, Note_on_c,63,108,6,2,1,73.0,False
62073,4690, Note_on_c,72,108,6,2,1,84.0,True
62074,4690, Note_on_c,75,108,6,2,1,87.0,False
62075,4691, Note_on_c,68,108,6,2,1,79.0,False
62076,4691, Note_on_c,73,108,6,2,1,85.0,False
62077,4692, Note_on_c,70,108,6,2,1,81.0,False
62078,4692, Note_on_c,75,108,6,2,1,87.0,False
62079,4693, Note_on_c,63,108,6,2,1,73.0,False
62080,4694, Note_on_c,68,108,6,2,1,79.0,False
62081,4694, Note_on_c,73,108,6,2,1,85.0,False
62082,4695, Note_on_c,72,108,6,2,1,84.0,True
62083,4695, Note_on_c,75,108,6,2,1,87.0,False
62084,4696, Note_on_c,63,108,6,2,1,73.0,False
62085,4697, Note_on_c,68,108,6,2,1,79.0,False
62086,4697, Note_on_c,73,108,6,2,1,85.0,False
62087,4698, Note_on_c,72,108,6,2,1,84.0,True
62088,4698, Note_on_c,75,108,6,2,1,87.0,False
62089,4699, Note_on_c,68,108,6,2,1,79.0,False
62090,4699, Note_on_c,73,108,6,2,1,85.0,False
62091,4700, Note_on_c,70,108,6,2,1,81.0,False
62092,4700, Note_on_c,75,108,6,2,1,87.0,False
62093,4701, Note_on_c,63,108,6,2,1,73.0,False
62094,4702, Note_on_c,68,108,6,2,1,79.0,False
62095,4702, Note_on_c,73,108,6,2,1,85.0,False
62096,4703, Note_on_c,72,108,6,2,1,84.0,True
62097,4703, Note_on_c,75,108,6,2,1,87.0,False
62098,4704, Note_on_c,63,108,6,2,1,73.0,False
62099,4705, Note_on_c,68,108,6,2,1,79.0,False
62100,4705, Note_on_c,73,108,6,2,1,85.0,False
62101,4706, Note_on_c,72,108,6,2,1,84.0,True
62102,4706, Note_on_c,75,108,6,2,1,87.0,False
62103,4707, Note_on_c,68,108,6,2,1,79.0,False
62104,4707, Note_on_c,73,108,6,2,1,85.0,False
62105,4708, Note_on_c,70,108,6,2,1,81.0,False
62106,4708, Note_on_c,75,108,6,2,1,87.0,False
62107,4709, Note_on_c,63,108,6,2,1,73.0,False
62108,4710, Note_on_c,68,108,6,2,1,79.0,False
62109,4710, Note_on_c,73,108,6,2,1,85.0,False
62110,4711, Note_on_c,72,108,6,2,1,84.0,True
62111,4711, Note_on_c,75,108,6,2,1,87.0,False
62112,4712, Note_on_c,63,108,6,2,1,73.0,False
62113,4713, Note_on_c,68,108,6,2,1,79.0,False
62114,4713, Note_on_c,73,108,6,2,1,85.0,False
62115,4714, Note_on_c,72,108,6,2,1,84.0,True
62116,4714, Note_on_c,75,108,6,2,1,87.0,False
62117,4715, Note_on_c,68,108,6,2,1,79.0,False
62118,4715, Note_on_c,73,108,6,2,1,85.0,False
62119,4716, Note_on_c,70,108,6,2,1,81.0,False
62120,4716, Note_on_c,75,108,6,2,1,87.0,False
62121,4717, Note_on_c,63,108,6,2,1,73.0,False
62122,4718, Note_on_c,68,108,6,2,1,79.0,False
62123,4718, Note_on_c,73,108,6,2,1,85.0,False
62124,4719, Note_on_c,72,108,6,2,1,84.0,True
62125,4719, Note_on_c,75,108,6,2,1,87.0,False
62126,4720, Note_on_c,63,108,6,2,1,73.0,False
62127,4721, Note_on_c,68,108,6,2,1,79.0,False
62128,4721, Note_on_c,73,108,6,2,1,85.0,False
62129,4722, Note_on_c,72,108,6,2,1,84.0,True
62130,4722, Note_on_c,75,108,6,2,1,87.0,False
62131,4723, Note_on_c,68,108,6,2,1,79.0,False
62132,4723, Note_on_c,73,108,6,2,1,85.0,False
62133,4724, Note_on_c,70,108,6,2,1,81.0,False
62134,4724, Note_on_c,75,108,6,2,1,87.0,False
62135,4725, Note_on_c,63,108,6,2,1,73.0,False
62136,4726, Note_on_c,68,108,6,2,1,79.0,False
62137,4726, Note_on_c,73,108,6,2,1,85.0,False
62138,4727, Note_on_c,72,108,6,2,1,84.0,True
62139,4727, Note_on_c,75,108,6,2,1,87.0,False
62140,4728, Note_on_c,63,108,6,2,1,73.0,False
62141,4729, Note_on_c,68,108,6,2,1,79.0,False
62142,4729, Note_on_c,73,108,6,2,1,85.0,False
62143,4730, Note_on_c,72,108,6,2,1,84.0,True
62144,4730, Note_on_c,75,108,6,2,1,87.0,False
62145,4731, Note_on_c,68,108,6,2,1,79.0,False
62146,4731, Note_on_c,73,108,6,2,1,85.0,False
62147,4732, Note_on_c,70,108,6,2,1,81.0,False
62148,4732, Note_on_c,75,108,6,2,1,87.0,False
62149,4733, Note_on_c,63,108,6,2,1,73.0,False
62150,4734, Note_on_c,68,108,6,2,1,79.0,False
62151,4734, Note_on_c,73,108,6,2,1,85.0,False
62152,4735, Note_on_c,72,108,6,2,1,84.0,True
62153,4735, Note_on_c,75,108,6,2,1,87.0,False
62154,4736, Note_on_c,63,108,6,2,1,73.0,False
62155,4737, Note_on_c,68,108,6,2,1,79.0,False
62156,4737, Note_on_c,73,108,6,2,1,85.0,False
62157,4738, Note_on_c,72,108,6,2,1,84.0,True
62158,4738, Note_on_c,75,108,6,2,1,87.0,False
62159,4739, Note_on_c,68,108,6,2,1,79.0,False
62160,4739, Note_on_c,73,108,6,2,1,85.0,False
62161,4740, Note_on_c,70,108,6,2,1,81.0,False
62162,4740, Note_on_c,75,108,6,2,1,87.0,False
62163,4741, Note_on_c,63,108,6,2,1,73.0,False
62164,4742, Note_on_c,68,108,6,2,1,79.0,False
62165,4742, Note_on_c,73,108,6,2,1,85.0,False
62166,4743, Note_on_c,72,108,6,2,1,84.0,True
62167,4743, Note_on_c,75,108,6,2,1,87.0,False
62168,4744, Note_on_c,63,108,6,2,1,73.0,False
62169,4745, Note_on_c,68,108,6,2,1,79.0,False
62170,4745, Note_on_c,73,108,6,2,1,85.0,False
62171,4746, Note_on_c,72,108,6,2,1,84.0,True
62172,4746, Note_on_c,75,108,6,2,1,87.0,False
62173,4747, Note_on_c,68,108,6,2,1,79.0,False
62174,4747, Note_on_c,73,108,6,2,1,85.0,False
62175,4748, Note_on_c,70,108,6,2,1,81.0,False
62176,4748, Note_on_c,75,108,6,2,1,87.0,False
62177,4749, Note_on_c,63,108,6,2,1,73.0,False
62178,4750, Note_on_c,68,108,6,2,1,79.0,False
62179,4750, Note_on_c,73,108,6,2,1,85.0,False
62180,4751, Note_on_c,72,108,6,2,1,84.0,True
62181,4751, Note_on_c,75,108,6,2,1,87.0,False
62182,4752, Note_on_c,63,108,6,2,1,73.0,False
62183,4753, Note_on_c,68,108,6,2,1,79.0,False
62184,4753, Note_on_c,73,108,6,2,1,85.0,False
62185,4754, Note_on_c,72,108,6,2,1,84.0,True
62186,4754, Note_on_c,75,108,6,2,1,87.0,False
62187,4755, Note_on_c,68,108,6,2,1,79.0,False
62188,4755, Note_on_c,73,108,6,2,1,85.0,False
62189,4756, Note_on_c,70,108,6,2,1,81.0,False
62190,4756, Note_on_c,75,108,6,2,1,87.0,False
62191,4757, Note_on_c,63,108,6,2,1,73.0,False
62192,4758, Note_on_c,68,108,6,2,1,79.0,False
62193,4758, Note_on_c,73,108,6,2,1,85.0,False
62194,4759, Note_on_c,72,108,6,2,1,84.0,True
62195,4759, Note_on_c,75,108,6,2,1,87.0,False
62196,4760, Note_on_c,63,108,6,2,1,73.0,False
62197,4761, Note_on_c,68,107,6,2,1,79.0,False
62198,4761, Note_on_c,73,107,6,2,1,85.0,False
62199,4762, Note_on_c,72,106,6,2,1,84.0,True
62200,4762, Note_on_c,75,106,6,2,1,87.0,False
62201,4763, Note_on_c,68,104,6,2,1,79.0,False
62202,4763, Note_on_c,73,104,6,2,1,85.0,False
62203,4764, Note_on_c,70,103,6,2,1,81.0,False
62204,4764, Note_on_c,75,103,6,2,1,87.0,False
62205,4765, Note_on_c,63,102,6,2,1,73.0,False
62206,4766, Note_on_c,68,101,6,2,1,79.0,False
62207,4766, Note_on_c,73,101,6,2,1,85.0,False
62208,4767, Note_on_c,72,99,6,2,1,84.0,True
62209,4767, Note_on_c,75,99,6,2,1,87.0,False
62210,4768, Note_on_c,63,98,6,2,1,73.0,False
62211,4769, Note_on_c,68,97,6,2,1,79.0,False
62212,4769, Note_on_c,73,97,6,2,1,85.0,False
62213,4770, Note_on_c,72,96,6,2,1,84.0,True
62214,4770, Note_on_c,75,96,6,2,1,87.0,False
62215,4771, Note_on_c,68,94,6,2,1,79.0,False
62216,4771, Note_on_c,73,94,6,2,1,85.0,False
62217,4772, Note_on_c,70,93,6,2,1,81.0,False
62218,4772, Note_on_c,75,93,6,2,1,87.0,False
62219,4773, Note_on_c,63,92,6,2,1,73.0,False
62220,4774, Note_on_c,68,90,6,2,1,79.0,False
62221,4774, Note_on_c,73,90,6,2,1,85.0,False
62222,4775, Note_on_c,72,89,6,2,1,84.0,True
62223,4775, Note_on_c,75,89,6,2,1,87.0,False
62224,4776, Note_on_c,63,88,6,2,1,73.0,False
62225,4777, Note_on_c,68,87,6,2,1,79.0,False
62226,4777, Note_on_c,73,87,6,2,1,85.0,False
62227,4778, Note_on_c,72,85,6,2,1,84.0,True
62228,4778, Note_on_c,75,85,6,2,1,87.0,False
62229,4779, Note_on_c,68,84,6,2,1,79.0,False
62230,4779, Note_on_c,73,84,6,2,1,85.0,False
62231,4780, Note_on_c,70,83,6,2,1,81.0,False
62232,4780, Note_on_c,75,83,6,2,1,87.0,False
62233,4781, Note_on_c,63,82,6,2,1,73.0,False
62234,4782, Note_on_c,68,80,6,2,1,79.0,False
62235,4782, Note_on_c,73,80,6,2,1,85.0,False
62236,4783, Note_on_c,72,79,6,2,1,84.0,True
62237,4783, Note_on_c,75,79,6,2,1,87.0,False
62238,4784, Note_on_c,63,78,6,2,1,73.0,False
62239,4801, Note_on_c,63,6,6,2,1,73.0,False
62240,4802, Note_on_c,75,10,6,2,1,87.0,False
62241,4803, Note_on_c,63,14,6,2,1,73.0,False
62242,4804, Note_on_c,75,19,6,2,1,87.0,False
62243,4805, Note_on_c,63,23,6,2,1,73.0,False
62244,4806, Note_on_c,73,27,6,2,1,85.0,False
62245,4807, Note_on_c,75,31,6,2,1,87.0,False
62246,4808, Note_on_c,63,36,6,2,1,73.0,False
62247,4809, Note_on_c,63,40,6,2,1,73.0,False
62248,4810, Note_on_c,75,44,6,2,1,87.0,False
62249,4811, Note_on_c,63,48,6,2,1,73.0,False
62250,4812, Note_on_c,75,52,6,2,1,87.0,False
62251,4813, Note_on_c,63,57,6,2,1,73.0,False
62252,4814, Note_on_c,73,61,6,2,1,85.0,False
62253,4815, Note_on_c,75,65,6,2,1,87.0,False
62254,4816, Note_on_c,63,69,6,2,1,73.0,False
62255,4817, Note_on_c,63,74,6,2,1,73.0,False
62256,4818, Note_on_c,75,78,6,2,1,87.0,False
62257,4819, Note_on_c,63,82,6,2,1,73.0,False
62258,4820, Note_on_c,75,86,6,2,1,87.0,False
62259,4821, Note_on_c,63,91,6,2,1,73.0,False
62260,4822, Note_on_c,73,95,6,2,1,85.0,False
62261,4823, Note_on_c,75,99,6,2,1,87.0,False
62262,4824, Note_on_c,63,103,6,2,1,73.0,False
62263,4825, Note_on_c,63,108,6,2,1,73.0,False
62264,4826, Note_on_c,75,108,6,2,1,87.0,False
62265,4827, Note_on_c,63,108,6,2,1,73.0,False
62266,4828, Note_on_c,75,108,6,2,1,87.0,False
62267,4829, Note_on_c,63,108,6,2,1,73.0,False
62268,4830, Note_on_c,73,108,6,2,1,85.0,False
62269,4831, Note_on_c,75,108,6,2,1,87.0,False
62270,4832, Note_on_c,63,108,6,2,1,73.0,False
62271,4833, Note_on_c,63,108,6,2,1,73.0,False
62272,4834, Note_on_c,75,108,6,2,1,87.0,False
62273,4835, Note_on_c,63,108,6,2,1,73.0,False
62274,4836, Note_on_c,75,108,6,2,1,87.0,False
62275,4837, Note_on_c,63,108,6,2,1,73.0,False
62276,4838, Note_on_c,73,108,6,2,1,85.0,False
62277,4839, Note_on_c,75,108,6,2,1,87.0,False
62278,4840, Note_on_c,63,108,6,2,1,73.0,False
62279,4841, Note_on_c,63,108,6,2,1,73.0,False
62280,4842, Note_on_c,75,108,6,2,1,87.0,False
62281,4843, Note_on_c,63,108,6,2,1,73.0,False
62282,4844, Note_on_c,75,108,6,2,1,87.0,False
62283,4845, Note_on_c,63,108,6,2,1,73.0,False
62284,4846, Note_on_c,73,108,6,2,1,85.0,False
62285,4847, Note_on_c,75,108,6,2,1,87.0,False
62286,4848, Note_on_c,63,108,6,2,1,73.0,False
62287,4849, Note_on_c,63,108,6,2,1,73.0,False
62288,4850, Note_on_c,75,108,6,2,1,87.0,False
62289,4851, Note_on_c,63,108,6,2,1,73.0,False
62290,4852, Note_on_c,75,108,6,2,1,87.0,False
62291,4853, Note_on_c,63,108,6,2,1,73.0,False
62292,4854, Note_on_c,73,108,6,2,1,85.0,False
62293,4855, Note_on_c,75,108,6,2,1,87.0,False
62294,4856, Note_on_c,63,108,6,2,1,73.0,False
62295,4857, Note_on_c,63,108,6,2,1,73.0,False
62296,4858, Note_on_c,75,108,6,2,1,87.0,False
62297,4859, Note_on_c,63,108,6,2,1,73.0,False
62298,4860, Note_on_c,75,108,6,2,1,87.0,False
62299,4861, Note_on_c,63,108,6,2,1,73.0,False
62300,4862, Note_on_c,73,108,6,2,1,85.0,False
62301,4863, Note_on_c,75,108,6,2,1,87.0,False
62302,4864, Note_on_c,63,108,6,2,1,73.0,False
62303,4865, Note_on_c,63,108,6,2,1,73.0,False
62304,4866, Note_on_c,75,108,6,2,1,87.0,False
62305,4867, Note_on_c,63,108,6,2,1,73.0,False
62306,4868, Note_on_c,75,108,6,2,1,87.0,False
62307,4869, Note_on_c,63,108,6,2,1,73.0,False
62308,4870, Note_on_c,73,108,6,2,1,85.0,False
62309,4871, Note_on_c,75,108,6,2,1,87.0,False
62310,4872, Note_on_c,63,108,6,2,1,73.0,False
62311,4873, Note_on_c,63,108,6,2,1,73.0,False
62312,4874, Note_on_c,75,108,6,2,1,87.0,False
62313,4875, Note_on_c,63,108,6,2,1,73.0,False
62314,4876, Note_on_c,75,108,6,2,1,87.0,False
62315,4877, Note_on_c,63,108,6,2,1,73.0,False
62316,4878, Note_on_c,73,108,6,2,1,85.0,False
62317,4879, Note_on_c,75,108,6,2,1,87.0,False
62318,4880, Note_on_c,63,108,6,2,1,73.0,False
62319,4881, Note_on_c,63,108,6,2,1,73.0,False
62320,4882, Note_on_c,75,108,6,2,1,87.0,False
62321,4883, Note_on_c,63,108,6,2,1,73.0,False
62322,4884, Note_on_c,75,108,6,2,1,87.0,False
62323,4885, Note_on_c,63,108,6,2,1,73.0,False
62324,4886, Note_on_c,73,108,6,2,1,85.0,False
62325,4887, Note_on_c,75,108,6,2,1,87.0,False
62326,4888, Note_on_c,63,108,6,2,1,73.0,False
62327,4889, Note_on_c,63,108,6,2,1,73.0,False
62328,4890, Note_on_c,75,108,6,2,1,87.0,False
62329,4891, Note_on_c,63,108,6,2,1,73.0,False
62330,4892, Note_on_c,75,108,6,2,1,87.0,False
62331,4893, Note_on_c,63,108,6,2,1,73.0,False
62332,4894, Note_on_c,73,108,6,2,1,85.0,False
62333,4895, Note_on_c,75,108,6,2,1,87.0,False
62334,4896, Note_on_c,63,108,6,2,1,73.0,False
62335,4897, Note_on_c,63,108,6,2,1,73.0,False
62336,4898, Note_on_c,75,108,6,2,1,87.0,False
62337,4899, Note_on_c,63,108,6,2,1,73.0,False
62338,4900, Note_on_c,75,108,6,2,1,87.0,False
62339,4901, Note_on_c,63,108,6,2,1,73.0,False
62340,4902, Note_on_c,73,108,6,2,1,85.0,False
62341,4903, Note_on_c,75,108,6,2,1,87.0,False
62342,4904, Note_on_c,63,108,6,2,1,73.0,False
62343,4905, Note_on_c,63,108,6,2,1,73.0,False
62344,4906, Note_on_c,75,104,6,2,1,87.0,False
62345,4907, Note_on_c,63,100,6,2,1,73.0,False
62346,4908, Note_on_c,75,95,6,2,1,87.0,False
62347,4909, Note_on_c,63,91,6,2,1,73.0,False
62348,4910, Note_on_c,73,86,6,2,1,85.0,False
62349,4911, Note_on_c,75,82,6,2,1,87.0,False
62350,4912, Note_on_c,63,77,6,2,1,73.0,False
62351,4913, Note_on_c,63,73,6,2,1,73.0,False
62352,4914, Note_on_c,75,68,6,2,1,87.0,False
62353,4915, Note_on_c,63,64,6,2,1,73.0,False
62354,4916, Note_on_c,75,59,6,2,1,87.0,False
62355,4917, Note_on_c,63,55,6,2,1,73.0,False
62356,4918, Note_on_c,73,51,6,2,1,85.0,False
62357,4919, Note_on_c,75,46,6,2,1,87.0,False
62358,4920, Note_on_c,63,42,6,2,1,73.0,False
62359,4921, Note_on_c,63,37,6,2,1,73.0,False
62360,4922, Note_on_c,75,33,6,2,1,87.0,False
62361,4923, Note_on_c,63,28,6,2,1,73.0,False
62362,4924, Note_on_c,75,24,6,2,1,87.0,False
62363,4925, Note_on_c,63,19,6,2,1,73.0,False
62364,4926, Note_on_c,73,15,6,2,1,85.0,False
62365,4927, Note_on_c,75,10,6,2,1,87.0,False
62366,4928, Note_on_c,63,6,6,2,1,73.0,False
62367,4945, Note_on_c,51,6,6,2,1,59.0,False
62368,4946, Note_on_c,58,9,6,2,1,67.0,False
62369,4947, Note_on_c,65,13,6,2,1,76.0,True
62370,4948, Note_on_c,58,17,6,2,1,67.0,False
62371,4949, Note_on_c,61,22,6,2,1,71.0,False
62372,4950, Note_on_c,51,26,6,2,1,59.0,False
62373,4951, Note_on_c,58,30,6,2,1,67.0,False
62374,4952, Note_on_c,63,35,6,2,1,73.0,False
62375,4953, Note_on_c,51,39,6,2,1,59.0,False
62376,4954, Note_on_c,58,43,6,2,1,67.0,False
62377,4955, Note_on_c,65,47,6,2,1,76.0,True
62378,4956, Note_on_c,58,52,6,2,1,67.0,False
62379,4957, Note_on_c,61,56,6,2,1,71.0,False
62380,4958, Note_on_c,51,60,6,2,1,59.0,False
62381,4959, Note_on_c,58,65,6,2,1,67.0,False
62382,4960, Note_on_c,63,69,6,2,1,73.0,False
62383,4961, Note_on_c,51,73,6,2,1,59.0,False
62384,4962, Note_on_c,58,77,6,2,1,67.0,False
62385,4963, Note_on_c,65,82,6,2,1,76.0,True
62386,4964, Note_on_c,58,86,6,2,1,67.0,False
62387,4965, Note_on_c,61,90,6,2,1,71.0,False
62388,4966, Note_on_c,51,95,6,2,1,59.0,False
62389,4967, Note_on_c,58,99,6,2,1,67.0,False
62390,4968, Note_on_c,63,103,6,2,1,73.0,False
62391,4969, Note_on_c,51,108,6,2,1,59.0,False
62392,4970, Note_on_c,58,108,6,2,1,67.0,False
62393,4971, Note_on_c,65,108,6,2,1,76.0,True
62394,4972, Note_on_c,58,108,6,2,1,67.0,False
62395,4973, Note_on_c,61,108,6,2,1,71.0,False
62396,4974, Note_on_c,51,108,6,2,1,59.0,False
62397,4975, Note_on_c,58,108,6,2,1,67.0,False
62398,4976, Note_on_c,63,108,6,2,1,73.0,False
62399,4977, Note_on_c,51,108,6,2,1,59.0,False
62400,4978, Note_on_c,58,108,6,2,1,67.0,False
62401,4979, Note_on_c,65,108,6,2,1,76.0,True
62402,4980, Note_on_c,58,108,6,2,1,67.0,False
62403,4981, Note_on_c,61,108,6,2,1,71.0,False
62404,4982, Note_on_c,51,108,6,2,1,59.0,False
62405,4983, Note_on_c,58,108,6,2,1,67.0,False
62406,4984, Note_on_c,63,108,6,2,1,73.0,False
62407,4985, Note_on_c,51,108,6,2,1,59.0,False
62408,4986, Note_on_c,58,108,6,2,1,67.0,False
62409,4987, Note_on_c,65,108,6,2,1,76.0,True
62410,4988, Note_on_c,58,108,6,2,1,67.0,False
62411,4989, Note_on_c,61,108,6,2,1,71.0,False
62412,4990, Note_on_c,51,108,6,2,1,59.0,False
62413,4991, Note_on_c,58,108,6,2,1,67.0,False
62414,4992, Note_on_c,63,108,6,2,1,73.0,False
62415,4993, Note_on_c,51,108,6,2,1,59.0,False
62416,4994, Note_on_c,58,108,6,2,1,67.0,False
62417,4995, Note_on_c,65,108,6,2,1,76.0,True
62418,4996, Note_on_c,58,108,6,2,1,67.0,False
62419,4997, Note_on_c,61,108,6,2,1,71.0,False
62420,4998, Note_on_c,51,108,6,2,1,59.0,False
62421,4999, Note_on_c,58,108,6,2,1,67.0,False
62422,5000, Note_on_c,63,108,6,2,1,73.0,False
62423,5001, Note_on_c,51,108,6,2,1,59.0,False
62424,5002, Note_on_c,58,108,6,2,1,67.0,False
62425,5003, Note_on_c,65,108,6,2,1,76.0,True
62426,5004, Note_on_c,58,108,6,2,1,67.0,False
62427,5005, Note_on_c,61,108,6,2,1,71.0,False
62428,5006, Note_on_c,51,108,6,2,1,59.0,False
62429,5007, Note_on_c,58,108,6,2,1,67.0,False
62430,5008, Note_on_c,63,108,6,2,1,73.0,False
62431,5009, Note_on_c,51,108,6,2,1,59.0,False
62432,5010, Note_on_c,58,108,6,2,1,67.0,False
62433,5011, Note_on_c,65,108,6,2,1,76.0,True
62434,5012, Note_on_c,58,108,6,2,1,67.0,False
62435,5013, Note_on_c,61,108,6,2,1,71.0,False
62436,5014, Note_on_c,51,108,6,2,1,59.0,False
62437,5015, Note_on_c,58,108,6,2,1,67.0,False
62438,5016, Note_on_c,63,108,6,2,1,73.0,False
62439,5017, Note_on_c,51,108,6,2,1,59.0,False
62440,5018, Note_on_c,58,108,6,2,1,67.0,False
62441,5019, Note_on_c,65,108,6,2,1,76.0,True
62442,5020, Note_on_c,58,108,6,2,1,67.0,False
62443,5021, Note_on_c,61,108,6,2,1,71.0,False
62444,5022, Note_on_c,51,108,6,2,1,59.0,False
62445,5023, Note_on_c,58,108,6,2,1,67.0,False
62446,5024, Note_on_c,63,108,6,2,1,73.0,False
62447,5025, Note_on_c,51,108,6,2,1,59.0,False
62448,5026, Note_on_c,58,108,6,2,1,67.0,False
62449,5027, Note_on_c,65,108,6,2,1,76.0,True
62450,5028, Note_on_c,58,108,6,2,1,67.0,False
62451,5029, Note_on_c,61,108,6,2,1,71.0,False
62452,5030, Note_on_c,51,108,6,2,1,59.0,False
62453,5031, Note_on_c,58,108,6,2,1,67.0,False
62454,5032, Note_on_c,63,108,6,2,1,73.0,False
62455,5033, Note_on_c,51,108,6,2,1,59.0,False
62456,5034, Note_on_c,58,108,6,2,1,67.0,False
62457,5035, Note_on_c,65,108,6,2,1,76.0,True
62458,5036, Note_on_c,58,108,6,2,1,67.0,False
62459,5037, Note_on_c,61,108,6,2,1,71.0,False
62460,5038, Note_on_c,51,108,6,2,1,59.0,False
62461,5039, Note_on_c,58,108,6,2,1,67.0,False
62462,5040, Note_on_c,63,108,6,2,1,73.0,False
62463,5041, Note_on_c,51,108,6,2,1,59.0,False
62464,5042, Note_on_c,58,108,6,2,1,67.0,False
62465,5043, Note_on_c,65,108,6,2,1,76.0,True
62466,5044, Note_on_c,58,108,6,2,1,67.0,False
62467,5045, Note_on_c,61,108,6,2,1,71.0,False
62468,5046, Note_on_c,51,108,6,2,1,59.0,False
62469,5047, Note_on_c,58,108,6,2,1,67.0,False
62470,5048, Note_on_c,63,108,6,2,1,73.0,False
62471,5049, Note_on_c,51,108,6,2,1,59.0,False
62472,5050, Note_on_c,58,108,6,2,1,67.0,False
62473,5051, Note_on_c,65,108,6,2,1,76.0,True
62474,5052, Note_on_c,58,108,6,2,1,67.0,False
62475,5053, Note_on_c,61,108,6,2,1,71.0,False
62476,5054, Note_on_c,51,108,6,2,1,59.0,False
62477,5055, Note_on_c,58,108,6,2,1,67.0,False
62478,5056, Note_on_c,63,108,6,2,1,73.0,False
62479,5057, Note_on_c,51,107,6,2,1,59.0,False
62480,5058, Note_on_c,58,102,6,2,1,67.0,False
62481,5059, Note_on_c,65,98,6,2,1,76.0,True
62482,5060, Note_on_c,58,94,6,2,1,67.0,False
62483,5061, Note_on_c,61,89,6,2,1,71.0,False
62484,5062, Note_on_c,51,85,6,2,1,59.0,False
62485,5063, Note_on_c,58,80,6,2,1,67.0,False
62486,5064, Note_on_c,63,76,6,2,1,73.0,False
62487,5065, Note_on_c,51,72,6,2,1,59.0,False
62488,5066, Note_on_c,58,67,6,2,1,67.0,False
62489,5067, Note_on_c,65,63,6,2,1,76.0,True
62490,5068, Note_on_c,58,58,6,2,1,67.0,False
62491,5069, Note_on_c,61,54,6,2,1,71.0,False
62492,5070, Note_on_c,51,50,6,2,1,59.0,False
62493,5071, Note_on_c,58,45,6,2,1,67.0,False
62494,5072, Note_on_c,63,41,6,2,1,73.0,False
62495,5073, Note_on_c,51,37,6,2,1,59.0,False
62496,5074, Note_on_c,58,32,6,2,1,67.0,False
62497,5075, Note_on_c,65,28,6,2,1,76.0,True
62498,5076, Note_on_c,58,23,6,2,1,67.0,False
62499,5077, Note_on_c,61,19,6,2,1,71.0,False
62500,5078, Note_on_c,51,15,6,2,1,59.0,False
62501,5079, Note_on_c,58,10,6,2,1,67.0,False
62502,5080, Note_on_c,63,6,6,2,1,73.0,False
62503,5097, Note_on_c,68,5,6,2,1,79.0,False
62504,5097, Note_on_c,73,5,6,2,1,85.0,False
62505,5098, Note_on_c,72,9,6,2,1,84.0,True
62506,5099, Note_on_c,68,13,6,2,1,79.0,False
62507,5099, Note_on_c,73,13,6,2,1,85.0,False
62508,5100, Note_on_c,70,18,6,2,1,81.0,False
62509,5101, Note_on_c,70,22,6,2,1,81.0,False
62510,5102, Note_on_c,68,26,6,2,1,79.0,False
62511,5102, Note_on_c,73,26,6,2,1,85.0,False
62512,5103, Note_on_c,72,30,6,2,1,84.0,True
62513,5104, Note_on_c,72,35,6,2,1,84.0,True
62514,5105, Note_on_c,68,39,6,2,1,79.0,False
62515,5105, Note_on_c,73,39,6,2,1,85.0,False
62516,5106, Note_on_c,72,43,6,2,1,84.0,True
62517,5107, Note_on_c,68,47,6,2,1,79.0,False
62518,5107, Note_on_c,73,47,6,2,1,85.0,False
62519,5108, Note_on_c,70,51,6,2,1,81.0,False
62520,5109, Note_on_c,70,56,6,2,1,81.0,False
62521,5110, Note_on_c,68,60,6,2,1,79.0,False
62522,5110, Note_on_c,73,60,6,2,1,85.0,False
62523,5111, Note_on_c,72,64,6,2,1,84.0,True
62524,5112, Note_on_c,72,68,6,2,1,84.0,True
62525,5113, Note_on_c,68,73,6,2,1,79.0,False
62526,5113, Note_on_c,73,73,6,2,1,85.0,False
62527,5114, Note_on_c,72,77,6,2,1,84.0,True
62528,5115, Note_on_c,68,81,6,2,1,79.0,False
62529,5115, Note_on_c,73,81,6,2,1,85.0,False
62530,5116, Note_on_c,70,85,6,2,1,81.0,False
62531,5117, Note_on_c,70,90,6,2,1,81.0,False
62532,5118, Note_on_c,68,94,6,2,1,79.0,False
62533,5118, Note_on_c,73,94,6,2,1,85.0,False
62534,5119, Note_on_c,72,98,6,2,1,84.0,True
62535,5120, Note_on_c,72,102,6,2,1,84.0,True
62536,5121, Note_on_c,68,108,6,2,1,79.0,False
62537,5121, Note_on_c,73,108,6,2,1,85.0,False
62538,5122, Note_on_c,72,108,6,2,1,84.0,True
62539,5123, Note_on_c,68,108,6,2,1,79.0,False
62540,5123, Note_on_c,73,108,6,2,1,85.0,False
62541,5124, Note_on_c,70,108,6,2,1,81.0,False
62542,5125, Note_on_c,70,108,6,2,1,81.0,False
62543,5126, Note_on_c,68,108,6,2,1,79.0,False
62544,5126, Note_on_c,73,108,6,2,1,85.0,False
62545,5127, Note_on_c,72,108,6,2,1,84.0,True
62546,5128, Note_on_c,72,108,6,2,1,84.0,True
62547,5129, Note_on_c,68,108,6,2,1,79.0,False
62548,5129, Note_on_c,73,108,6,2,1,85.0,False
62549,5130, Note_on_c,72,108,6,2,1,84.0,True
62550,5131, Note_on_c,68,108,6,2,1,79.0,False
62551,5131, Note_on_c,73,108,6,2,1,85.0,False
62552,5132, Note_on_c,70,108,6,2,1,81.0,False
62553,5133, Note_on_c,70,108,6,2,1,81.0,False
62554,5134, Note_on_c,68,108,6,2,1,79.0,False
62555,5134, Note_on_c,73,108,6,2,1,85.0,False
62556,5135, Note_on_c,72,108,6,2,1,84.0,True
62557,5136, Note_on_c,72,108,6,2,1,84.0,True
62558,5137, Note_on_c,68,108,6,2,1,79.0,False
62559,5137, Note_on_c,73,108,6,2,1,85.0,False
62560,5138, Note_on_c,72,108,6,2,1,84.0,True
62561,5139, Note_on_c,68,108,6,2,1,79.0,False
62562,5139, Note_on_c,73,108,6,2,1,85.0,False
62563,5140, Note_on_c,70,108,6,2,1,81.0,False
62564,5141, Note_on_c,70,108,6,2,1,81.0,False
62565,5142, Note_on_c,68,108,6,2,1,79.0,False
62566,5142, Note_on_c,73,108,6,2,1,85.0,False
62567,5143, Note_on_c,72,108,6,2,1,84.0,True
62568,5144, Note_on_c,72,108,6,2,1,84.0,True
62569,5145, Note_on_c,68,108,6,2,1,79.0,False
62570,5145, Note_on_c,73,108,6,2,1,85.0,False
62571,5146, Note_on_c,72,108,6,2,1,84.0,True
62572,5147, Note_on_c,68,108,6,2,1,79.0,False
62573,5147, Note_on_c,73,108,6,2,1,85.0,False
62574,5148, Note_on_c,70,108,6,2,1,81.0,False
62575,5149, Note_on_c,70,108,6,2,1,81.0,False
62576,5150, Note_on_c,68,108,6,2,1,79.0,False
62577,5150, Note_on_c,73,108,6,2,1,85.0,False
62578,5151, Note_on_c,72,108,6,2,1,84.0,True
62579,5152, Note_on_c,72,108,6,2,1,84.0,True
62580,5153, Note_on_c,68,108,6,2,1,79.0,False
62581,5153, Note_on_c,73,108,6,2,1,85.0,False
62582,5154, Note_on_c,72,108,6,2,1,84.0,True
62583,5155, Note_on_c,68,108,6,2,1,79.0,False
62584,5155, Note_on_c,73,108,6,2,1,85.0,False
62585,5156, Note_on_c,70,108,6,2,1,81.0,False
62586,5157, Note_on_c,70,108,6,2,1,81.0,False
62587,5158, Note_on_c,68,108,6,2,1,79.0,False
62588,5158, Note_on_c,73,108,6,2,1,85.0,False
62589,5159, Note_on_c,72,108,6,2,1,84.0,True
62590,5160, Note_on_c,72,108,6,2,1,84.0,True
62591,5161, Note_on_c,68,108,6,2,1,79.0,False
62592,5161, Note_on_c,73,108,6,2,1,85.0,False
62593,5162, Note_on_c,72,108,6,2,1,84.0,True
62594,5163, Note_on_c,68,108,6,2,1,79.0,False
62595,5163, Note_on_c,73,108,6,2,1,85.0,False
62596,5164, Note_on_c,70,108,6,2,1,81.0,False
62597,5165, Note_on_c,70,108,6,2,1,81.0,False
62598,5166, Note_on_c,68,108,6,2,1,79.0,False
62599,5166, Note_on_c,73,108,6,2,1,85.0,False
62600,5167, Note_on_c,72,108,6,2,1,84.0,True
62601,5168, Note_on_c,72,108,6,2,1,84.0,True
62602,5169, Note_on_c,68,108,6,2,1,79.0,False
62603,5169, Note_on_c,73,108,6,2,1,85.0,False
62604,5170, Note_on_c,72,108,6,2,1,84.0,True
62605,5171, Note_on_c,68,108,6,2,1,79.0,False
62606,5171, Note_on_c,73,108,6,2,1,85.0,False
62607,5172, Note_on_c,70,108,6,2,1,81.0,False
62608,5173, Note_on_c,70,108,6,2,1,81.0,False
62609,5174, Note_on_c,68,108,6,2,1,79.0,False
62610,5174, Note_on_c,73,108,6,2,1,85.0,False
62611,5175, Note_on_c,72,108,6,2,1,84.0,True
62612,5176, Note_on_c,72,108,6,2,1,84.0,True
62613,5177, Note_on_c,68,108,6,2,1,79.0,False
62614,5177, Note_on_c,73,108,6,2,1,85.0,False
62615,5178, Note_on_c,72,108,6,2,1,84.0,True
62616,5179, Note_on_c,68,108,6,2,1,79.0,False
62617,5179, Note_on_c,73,108,6,2,1,85.0,False
62618,5180, Note_on_c,70,108,6,2,1,81.0,False
62619,5181, Note_on_c,70,108,6,2,1,81.0,False
62620,5182, Note_on_c,68,108,6,2,1,79.0,False
62621,5182, Note_on_c,73,108,6,2,1,85.0,False
62622,5183, Note_on_c,72,108,6,2,1,84.0,True
62623,5184, Note_on_c,72,108,6,2,1,84.0,True
62624,5185, Note_on_c,68,108,6,2,1,79.0,False
62625,5185, Note_on_c,73,108,6,2,1,85.0,False
62626,5186, Note_on_c,72,108,6,2,1,84.0,True
62627,5187, Note_on_c,68,108,6,2,1,79.0,False
62628,5187, Note_on_c,73,108,6,2,1,85.0,False
62629,5188, Note_on_c,70,108,6,2,1,81.0,False
62630,5189, Note_on_c,70,108,6,2,1,81.0,False
62631,5190, Note_on_c,68,108,6,2,1,79.0,False
62632,5190, Note_on_c,73,108,6,2,1,85.0,False
62633,5191, Note_on_c,72,108,6,2,1,84.0,True
62634,5192, Note_on_c,72,108,6,2,1,84.0,True
62635,5193, Note_on_c,68,108,6,2,1,79.0,False
62636,5193, Note_on_c,73,108,6,2,1,85.0,False
62637,5194, Note_on_c,72,108,6,2,1,84.0,True
62638,5195, Note_on_c,68,108,6,2,1,79.0,False
62639,5195, Note_on_c,73,108,6,2,1,85.0,False
62640,5196, Note_on_c,70,108,6,2,1,81.0,False
62641,5197, Note_on_c,70,108,6,2,1,81.0,False
62642,5198, Note_on_c,68,108,6,2,1,79.0,False
62643,5198, Note_on_c,73,108,6,2,1,85.0,False
62644,5199, Note_on_c,72,108,6,2,1,84.0,True
62645,5200, Note_on_c,72,108,6,2,1,84.0,True
62646,5201, Note_on_c,68,108,6,2,1,79.0,False
62647,5201, Note_on_c,73,108,6,2,1,85.0,False
62648,5202, Note_on_c,72,108,6,2,1,84.0,True
62649,5203, Note_on_c,68,108,6,2,1,79.0,False
62650,5203, Note_on_c,73,108,6,2,1,85.0,False
62651,5204, Note_on_c,70,108,6,2,1,81.0,False
62652,5205, Note_on_c,70,108,6,2,1,81.0,False
62653,5206, Note_on_c,68,108,6,2,1,79.0,False
62654,5206, Note_on_c,73,108,6,2,1,85.0,False
62655,5207, Note_on_c,72,108,6,2,1,84.0,True
62656,5208, Note_on_c,72,108,6,2,1,84.0,True
62657,5209, Note_on_c,68,107,6,2,1,79.0,False
62658,5209, Note_on_c,73,107,6,2,1,85.0,False
62659,5210, Note_on_c,72,102,6,2,1,84.0,True
62660,5211, Note_on_c,68,98,6,2,1,79.0,False
62661,5211, Note_on_c,73,98,6,2,1,85.0,False
62662,5212, Note_on_c,70,94,6,2,1,81.0,False
62663,5213, Note_on_c,70,89,6,2,1,81.0,False
62664,5214, Note_on_c,68,85,6,2,1,79.0,False
62665,5214, Note_on_c,73,85,6,2,1,85.0,False
62666,5215, Note_on_c,72,81,6,2,1,84.0,True
62667,5216, Note_on_c,72,76,6,2,1,84.0,True
62668,5217, Note_on_c,68,72,6,2,1,79.0,False
62669,5217, Note_on_c,73,72,6,2,1,85.0,False
62670,5218, Note_on_c,72,67,6,2,1,84.0,True
62671,5219, Note_on_c,68,63,6,2,1,79.0,False
62672,5219, Note_on_c,73,63,6,2,1,85.0,False
62673,5220, Note_on_c,70,59,6,2,1,81.0,False
62674,5221, Note_on_c,70,54,6,2,1,81.0,False
62675,5222, Note_on_c,68,50,6,2,1,79.0,False
62676,5222, Note_on_c,73,50,6,2,1,85.0,False
62677,5223, Note_on_c,72,45,6,2,1,84.0,True
62678,5224, Note_on_c,72,41,6,2,1,84.0,True
62679,5225, Note_on_c,68,37,6,2,1,79.0,False
62680,5225, Note_on_c,73,37,6,2,1,85.0,False
62681,5226, Note_on_c,72,32,6,2,1,84.0,True
62682,5227, Note_on_c,68,28,6,2,1,79.0,False
62683,5227, Note_on_c,73,28,6,2,1,85.0,False
62684,5228, Note_on_c,70,23,6,2,1,81.0,False
62685,5229, Note_on_c,70,19,6,2,1,81.0,False
62686,5230, Note_on_c,68,15,6,2,1,79.0,False
62687,5230, Note_on_c,73,15,6,2,1,85.0,False
62688,5231, Note_on_c,72,10,6,2,1,84.0,True
62689,5232, Note_on_c,72,6,6,2,1,84.0,True
62690,5441, Note_on_c,70,6,6,3,1,81.0,False
62691,5442, Note_on_c,77,7,6,3,1,90.0,True
62692,5442, Note_on_c,82,7,6,3,1,95.0,False
62693,5443, Note_on_c,68,9,6,3,1,79.0,False
62694,5443, Note_on_c,75,9,6,3,1,87.0,False
62695,5444, Note_on_c,77,11,6,3,1,90.0,True
62696,5444, Note_on_c,82,11,6,3,1,95.0,False
62697,5445, Note_on_c,68,13,6,3,1,79.0,False
62698,5445, Note_on_c,73,13,6,3,1,85.0,False
62699,5446, Note_on_c,70,14,6,3,1,81.0,False
62700,5447, Note_on_c,77,16,6,3,1,90.0,True
62701,5447, Note_on_c,82,16,6,3,1,95.0,False
62702,5448, Note_on_c,68,18,6,3,1,79.0,False
62703,5448, Note_on_c,75,18,6,3,1,87.0,False
62704,5449, Note_on_c,70,20,6,3,1,81.0,False
62705,5450, Note_on_c,77,21,6,3,1,90.0,True
62706,5450, Note_on_c,82,21,6,3,1,95.0,False
62707,5451, Note_on_c,68,23,6,3,1,79.0,False
62708,5451, Note_on_c,75,23,6,3,1,87.0,False
62709,5452, Note_on_c,77,25,6,3,1,90.0,True
62710,5452, Note_on_c,82,25,6,3,1,95.0,False
62711,5453, Note_on_c,68,27,6,3,1,79.0,False
62712,5453, Note_on_c,73,27,6,3,1,85.0,False
62713,5454, Note_on_c,70,28,6,3,1,81.0,False
62714,5455, Note_on_c,77,30,6,3,1,90.0,True
62715,5455, Note_on_c,82,30,6,3,1,95.0,False
62716,5456, Note_on_c,68,32,6,3,1,79.0,False
62717,5456, Note_on_c,75,32,6,3,1,87.0,False
62718,5457, Note_on_c,70,34,6,3,1,81.0,False
62719,5458, Note_on_c,77,35,6,3,1,90.0,True
62720,5458, Note_on_c,82,35,6,3,1,95.0,False
62721,5459, Note_on_c,68,37,6,3,1,79.0,False
62722,5459, Note_on_c,75,37,6,3,1,87.0,False
62723,5460, Note_on_c,77,39,6,3,1,90.0,True
62724,5460, Note_on_c,82,39,6,3,1,95.0,False
62725,5461, Note_on_c,68,41,6,3,1,79.0,False
62726,5461, Note_on_c,73,41,6,3,1,85.0,False
62727,5462, Note_on_c,70,42,6,3,1,81.0,False
62728,5463, Note_on_c,77,44,6,3,1,90.0,True
62729,5463, Note_on_c,82,44,6,3,1,95.0,False
62730,5464, Note_on_c,68,46,6,3,1,79.0,False
62731,5464, Note_on_c,75,46,6,3,1,87.0,False
62732,5465, Note_on_c,70,48,6,3,1,81.0,False
62733,5466, Note_on_c,77,49,6,3,1,90.0,True
62734,5466, Note_on_c,82,49,6,3,1,95.0,False
62735,5467, Note_on_c,68,51,6,3,1,79.0,False
62736,5467, Note_on_c,75,51,6,3,1,87.0,False
62737,5468, Note_on_c,77,53,6,3,1,90.0,True
62738,5468, Note_on_c,82,53,6,3,1,95.0,False
62739,5469, Note_on_c,68,55,6,3,1,79.0,False
62740,5469, Note_on_c,73,55,6,3,1,85.0,False
62741,5470, Note_on_c,70,56,6,3,1,81.0,False
62742,5471, Note_on_c,77,58,6,3,1,90.0,True
62743,5471, Note_on_c,82,58,6,3,1,95.0,False
62744,5472, Note_on_c,68,60,6,3,1,79.0,False
62745,5472, Note_on_c,75,60,6,3,1,87.0,False
62746,5473, Note_on_c,70,62,6,3,1,81.0,False
62747,5474, Note_on_c,77,63,6,3,1,90.0,True
62748,5474, Note_on_c,82,63,6,3,1,95.0,False
62749,5475, Note_on_c,68,65,6,3,1,79.0,False
62750,5475, Note_on_c,75,65,6,3,1,87.0,False
62751,5476, Note_on_c,77,67,6,3,1,90.0,True
62752,5476, Note_on_c,82,67,6,3,1,95.0,False
62753,5477, Note_on_c,68,69,6,3,1,79.0,False
62754,5477, Note_on_c,73,69,6,3,1,85.0,False
62755,5478, Note_on_c,70,70,6,3,1,81.0,False
62756,5479, Note_on_c,77,72,6,3,1,90.0,True
62757,5479, Note_on_c,82,72,6,3,1,95.0,False
62758,5480, Note_on_c,68,74,6,3,1,79.0,False
62759,5480, Note_on_c,75,74,6,3,1,87.0,False
62760,5481, Note_on_c,70,76,6,3,1,81.0,False
62761,5482, Note_on_c,77,76,6,3,1,90.0,True
62762,5482, Note_on_c,82,76,6,3,1,95.0,False
62763,5483, Note_on_c,68,76,6,3,1,79.0,False
62764,5483, Note_on_c,75,76,6,3,1,87.0,False
62765,5484, Note_on_c,77,76,6,3,1,90.0,True
62766,5484, Note_on_c,82,76,6,3,1,95.0,False
62767,5485, Note_on_c,68,76,6,3,1,79.0,False
62768,5485, Note_on_c,73,76,6,3,1,85.0,False
62769,5486, Note_on_c,70,76,6,3,1,81.0,False
62770,5487, Note_on_c,77,76,6,3,1,90.0,True
62771,5487, Note_on_c,82,76,6,3,1,95.0,False
62772,5488, Note_on_c,68,76,6,3,1,79.0,False
62773,5488, Note_on_c,75,76,6,3,1,87.0,False
62774,5489, Note_on_c,70,76,6,3,1,81.0,False
62775,5490, Note_on_c,77,76,6,3,1,90.0,True
62776,5490, Note_on_c,82,76,6,3,1,95.0,False
62777,5491, Note_on_c,68,76,6,3,1,79.0,False
62778,5491, Note_on_c,75,76,6,3,1,87.0,False
62779,5492, Note_on_c,77,76,6,3,1,90.0,True
62780,5492, Note_on_c,82,76,6,3,1,95.0,False
62781,5493, Note_on_c,68,76,6,3,1,79.0,False
62782,5493, Note_on_c,73,76,6,3,1,85.0,False
62783,5494, Note_on_c,70,76,6,3,1,81.0,False
62784,5495, Note_on_c,77,76,6,3,1,90.0,True
62785,5495, Note_on_c,82,76,6,3,1,95.0,False
62786,5496, Note_on_c,68,76,6,3,1,79.0,False
62787,5496, Note_on_c,75,76,6,3,1,87.0,False
62788,5497, Note_on_c,70,76,6,3,1,81.0,False
62789,5498, Note_on_c,77,76,6,3,1,90.0,True
62790,5498, Note_on_c,82,76,6,3,1,95.0,False
62791,5499, Note_on_c,68,76,6,3,1,79.0,False
62792,5499, Note_on_c,75,76,6,3,1,87.0,False
62793,5500, Note_on_c,77,76,6,3,1,90.0,True
62794,5500, Note_on_c,82,76,6,3,1,95.0,False
62795,5501, Note_on_c,68,76,6,3,1,79.0,False
62796,5501, Note_on_c,73,76,6,3,1,85.0,False
62797,5502, Note_on_c,70,76,6,3,1,81.0,False
62798,5503, Note_on_c,77,76,6,3,1,90.0,True
62799,5503, Note_on_c,82,76,6,3,1,95.0,False
62800,5504, Note_on_c,68,76,6,3,1,79.0,False
62801,5504, Note_on_c,75,76,6,3,1,87.0,False
62802,5505, Note_on_c,70,76,6,3,1,81.0,False
62803,5506, Note_on_c,77,76,6,3,1,90.0,True
62804,5506, Note_on_c,82,76,6,3,1,95.0,False
62805,5507, Note_on_c,68,76,6,3,1,79.0,False
62806,5507, Note_on_c,75,76,6,3,1,87.0,False
62807,5508, Note_on_c,77,76,6,3,1,90.0,True
62808,5508, Note_on_c,82,76,6,3,1,95.0,False
62809,5509, Note_on_c,68,76,6,3,1,79.0,False
62810,5509, Note_on_c,73,76,6,3,1,85.0,False
62811,5510, Note_on_c,70,76,6,3,1,81.0,False
62812,5511, Note_on_c,77,76,6,3,1,90.0,True
62813,5511, Note_on_c,82,76,6,3,1,95.0,False
62814,5512, Note_on_c,68,76,6,3,1,79.0,False
62815,5512, Note_on_c,75,76,6,3,1,87.0,False
62816,5513, Note_on_c,70,76,6,3,1,81.0,False
62817,5514, Note_on_c,77,76,6,3,1,90.0,True
62818,5514, Note_on_c,82,76,6,3,1,95.0,False
62819,5515, Note_on_c,68,76,6,3,1,79.0,False
62820,5515, Note_on_c,75,76,6,3,1,87.0,False
62821,5516, Note_on_c,77,76,6,3,1,90.0,True
62822,5516, Note_on_c,82,76,6,3,1,95.0,False
62823,5517, Note_on_c,68,76,6,3,1,79.0,False
62824,5517, Note_on_c,73,76,6,3,1,85.0,False
62825,5518, Note_on_c,70,76,6,3,1,81.0,False
62826,5519, Note_on_c,77,76,6,3,1,90.0,True
62827,5519, Note_on_c,82,76,6,3,1,95.0,False
62828,5520, Note_on_c,68,76,6,3,1,79.0,False
62829,5520, Note_on_c,75,76,6,3,1,87.0,False
62830,5521, Note_on_c,70,76,6,3,1,81.0,False
62831,5522, Note_on_c,77,76,6,3,1,90.0,True
62832,5522, Note_on_c,82,76,6,3,1,95.0,False
62833,5523, Note_on_c,68,76,6,3,1,79.0,False
62834,5523, Note_on_c,75,76,6,3,1,87.0,False
62835,5524, Note_on_c,77,76,6,3,1,90.0,True
62836,5524, Note_on_c,82,76,6,3,1,95.0,False
62837,5525, Note_on_c,68,76,6,3,1,79.0,False
62838,5525, Note_on_c,73,76,6,3,1,85.0,False
62839,5526, Note_on_c,70,76,6,3,1,81.0,False
62840,5527, Note_on_c,77,76,6,3,1,90.0,True
62841,5527, Note_on_c,82,76,6,3,1,95.0,False
62842,5528, Note_on_c,68,76,6,3,1,79.0,False
62843,5528, Note_on_c,75,76,6,3,1,87.0,False
62844,5529, Note_on_c,70,76,6,3,1,81.0,False
62845,5530, Note_on_c,77,76,6,3,1,90.0,True
62846,5530, Note_on_c,82,76,6,3,1,95.0,False
62847,5531, Note_on_c,68,76,6,3,1,79.0,False
62848,5531, Note_on_c,75,76,6,3,1,87.0,False
62849,5532, Note_on_c,77,76,6,3,1,90.0,True
62850,5532, Note_on_c,82,76,6,3,1,95.0,False
62851,5533, Note_on_c,68,76,6,3,1,79.0,False
62852,5533, Note_on_c,73,76,6,3,1,85.0,False
62853,5534, Note_on_c,70,76,6,3,1,81.0,False
62854,5535, Note_on_c,77,76,6,3,1,90.0,True
62855,5535, Note_on_c,82,76,6,3,1,95.0,False
62856,5536, Note_on_c,68,76,6,3,1,79.0,False
62857,5536, Note_on_c,75,76,6,3,1,87.0,False
62858,5537, Note_on_c,70,76,6,3,1,81.0,False
62859,5538, Note_on_c,77,76,6,3,1,90.0,True
62860,5538, Note_on_c,82,76,6,3,1,95.0,False
62861,5539, Note_on_c,68,76,6,3,1,79.0,False
62862,5539, Note_on_c,75,76,6,3,1,87.0,False
62863,5540, Note_on_c,77,76,6,3,1,90.0,True
62864,5540, Note_on_c,82,76,6,3,1,95.0,False
62865,5541, Note_on_c,68,76,6,3,1,79.0,False
62866,5541, Note_on_c,73,76,6,3,1,85.0,False
62867,5542, Note_on_c,70,76,6,3,1,81.0,False
62868,5543, Note_on_c,77,76,6,3,1,90.0,True
62869,5543, Note_on_c,82,76,6,3,1,95.0,False
62870,5544, Note_on_c,68,76,6,3,1,79.0,False
62871,5544, Note_on_c,75,76,6,3,1,87.0,False
62872,5545, Note_on_c,70,76,6,3,1,81.0,False
62873,5546, Note_on_c,77,76,6,3,1,90.0,True
62874,5546, Note_on_c,82,76,6,3,1,95.0,False
62875,5547, Note_on_c,68,76,6,3,1,79.0,False
62876,5547, Note_on_c,75,76,6,3,1,87.0,False
62877,5548, Note_on_c,77,76,6,3,1,90.0,True
62878,5548, Note_on_c,82,76,6,3,1,95.0,False
62879,5549, Note_on_c,68,76,6,3,1,79.0,False
62880,5549, Note_on_c,73,76,6,3,1,85.0,False
62881,5550, Note_on_c,70,76,6,3,1,81.0,False
62882,5551, Note_on_c,77,76,6,3,1,90.0,True
62883,5551, Note_on_c,82,76,6,3,1,95.0,False
62884,5552, Note_on_c,68,76,6,3,1,79.0,False
62885,5552, Note_on_c,75,76,6,3,1,87.0,False
62886,5553, Note_on_c,70,76,6,3,1,81.0,False
62887,5554, Note_on_c,77,76,6,3,1,90.0,True
62888,5554, Note_on_c,82,76,6,3,1,95.0,False
62889,5555, Note_on_c,68,76,6,3,1,79.0,False
62890,5555, Note_on_c,75,76,6,3,1,87.0,False
62891,5556, Note_on_c,77,76,6,3,1,90.0,True
62892,5556, Note_on_c,82,76,6,3,1,95.0,False
62893,5557, Note_on_c,68,76,6,3,1,79.0,False
62894,5557, Note_on_c,73,76,6,3,1,85.0,False
62895,5558, Note_on_c,70,76,6,3,1,81.0,False
62896,5559, Note_on_c,77,76,6,3,1,90.0,True
62897,5559, Note_on_c,82,76,6,3,1,95.0,False
62898,5560, Note_on_c,68,76,6,3,1,79.0,False
62899,5560, Note_on_c,75,76,6,3,1,87.0,False
62900,5561, Note_on_c,70,76,6,3,1,81.0,False
62901,5562, Note_on_c,77,76,6,3,1,90.0,True
62902,5562, Note_on_c,82,76,6,3,1,95.0,False
62903,5563, Note_on_c,68,76,6,3,1,79.0,False
62904,5563, Note_on_c,75,76,6,3,1,87.0,False
62905,5564, Note_on_c,77,76,6,3,1,90.0,True
62906,5564, Note_on_c,82,76,6,3,1,95.0,False
62907,5565, Note_on_c,68,76,6,3,1,79.0,False
62908,5565, Note_on_c,73,76,6,3,1,85.0,False
62909,5566, Note_on_c,70,76,6,3,1,81.0,False
62910,5567, Note_on_c,77,76,6,3,1,90.0,True
62911,5567, Note_on_c,82,76,6,3,1,95.0,False
62912,5568, Note_on_c,68,76,6,3,1,79.0,False
62913,5568, Note_on_c,75,76,6,3,1,87.0,False
62914,5569, Note_on_c,70,76,6,3,1,81.0,False
62915,5570, Note_on_c,77,76,6,3,1,90.0,True
62916,5570, Note_on_c,82,76,6,3,1,95.0,False
62917,5571, Note_on_c,68,76,6,3,1,79.0,False
62918,5571, Note_on_c,75,76,6,3,1,87.0,False
62919,5572, Note_on_c,77,76,6,3,1,90.0,True
62920,5572, Note_on_c,82,76,6,3,1,95.0,False
62921,5573, Note_on_c,68,76,6,3,1,79.0,False
62922,5573, Note_on_c,73,76,6,3,1,85.0,False
62923,5574, Note_on_c,70,76,6,3,1,81.0,False
62924,5575, Note_on_c,77,76,6,3,1,90.0,True
62925,5575, Note_on_c,82,76,6,3,1,95.0,False
62926,5576, Note_on_c,68,76,6,3,1,79.0,False
62927,5576, Note_on_c,75,76,6,3,1,87.0,False
62928,5577, Note_on_c,70,76,6,3,1,81.0,False
62929,5578, Note_on_c,77,76,6,3,1,90.0,True
62930,5578, Note_on_c,82,76,6,3,1,95.0,False
62931,5579, Note_on_c,68,76,6,3,1,79.0,False
62932,5579, Note_on_c,75,76,6,3,1,87.0,False
62933,5580, Note_on_c,77,76,6,3,1,90.0,True
62934,5580, Note_on_c,82,76,6,3,1,95.0,False
62935,5581, Note_on_c,68,76,6,3,1,79.0,False
62936,5581, Note_on_c,73,76,6,3,1,85.0,False
62937,5582, Note_on_c,70,76,6,3,1,81.0,False
62938,5583, Note_on_c,77,76,6,3,1,90.0,True
62939,5583, Note_on_c,82,76,6,3,1,95.0,False
62940,5584, Note_on_c,68,76,6,3,1,79.0,False
62941,5584, Note_on_c,75,76,6,3,1,87.0,False
62942,5585, Note_on_c,70,76,6,3,1,81.0,False
62943,5586, Note_on_c,77,76,6,3,1,90.0,True
62944,5586, Note_on_c,82,76,6,3,1,95.0,False
62945,5587, Note_on_c,68,76,6,3,1,79.0,False
62946,5587, Note_on_c,75,76,6,3,1,87.0,False
62947,5588, Note_on_c,77,76,6,3,1,90.0,True
62948,5588, Note_on_c,82,76,6,3,1,95.0,False
62949,5589, Note_on_c,68,76,6,3,1,79.0,False
62950,5589, Note_on_c,73,76,6,3,1,85.0,False
62951,5590, Note_on_c,70,76,6,3,1,81.0,False
62952,5591, Note_on_c,77,76,6,3,1,90.0,True
62953,5591, Note_on_c,82,76,6,3,1,95.0,False
62954,5592, Note_on_c,68,76,6,3,1,79.0,False
62955,5592, Note_on_c,75,76,6,3,1,87.0,False
62956,5593, Note_on_c,70,76,6,3,1,81.0,False
62957,5594, Note_on_c,77,76,6,3,1,90.0,True
62958,5594, Note_on_c,82,76,6,3,1,95.0,False
62959,5595, Note_on_c,68,76,6,3,1,79.0,False
62960,5595, Note_on_c,75,76,6,3,1,87.0,False
62961,5596, Note_on_c,77,76,6,3,1,90.0,True
62962,5596, Note_on_c,82,76,6,3,1,95.0,False
62963,5597, Note_on_c,68,76,6,3,1,79.0,False
62964,5597, Note_on_c,73,76,6,3,1,85.0,False
62965,5598, Note_on_c,70,76,6,3,1,81.0,False
62966,5599, Note_on_c,77,76,6,3,1,90.0,True
62967,5599, Note_on_c,82,76,6,3,1,95.0,False
62968,5600, Note_on_c,68,76,6,3,1,79.0,False
62969,5600, Note_on_c,75,76,6,3,1,87.0,False
62970,5601, Note_on_c,70,76,6,3,1,81.0,False
62971,5602, Note_on_c,77,76,6,3,1,90.0,True
62972,5602, Note_on_c,82,76,6,3,1,95.0,False
62973,5603, Note_on_c,68,76,6,3,1,79.0,False
62974,5603, Note_on_c,75,76,6,3,1,87.0,False
62975,5604, Note_on_c,77,76,6,3,1,90.0,True
62976,5604, Note_on_c,82,76,6,3,1,95.0,False
62977,5605, Note_on_c,68,76,6,3,1,79.0,False
62978,5605, Note_on_c,73,76,6,3,1,85.0,False
62979,5606, Note_on_c,70,76,6,3,1,81.0,False
62980,5607, Note_on_c,77,76,6,3,1,90.0,True
62981,5607, Note_on_c,82,76,6,3,1,95.0,False
62982,5608, Note_on_c,68,76,6,3,1,79.0,False
62983,5608, Note_on_c,75,76,6,3,1,87.0,False
62984,5609, Note_on_c,70,76,6,3,1,81.0,False
62985,5610, Note_on_c,77,76,6,3,1,90.0,True
62986,5610, Note_on_c,82,76,6,3,1,95.0,False
62987,5611, Note_on_c,68,76,6,3,1,79.0,False
62988,5611, Note_on_c,75,76,6,3,1,87.0,False
62989,5612, Note_on_c,77,76,6,3,1,90.0,True
62990,5612, Note_on_c,82,76,6,3,1,95.0,False
62991,5613, Note_on_c,68,76,6,3,1,79.0,False
62992,5613, Note_on_c,73,76,6,3,1,85.0,False
62993,5614, Note_on_c,70,76,6,3,1,81.0,False
62994,5615, Note_on_c,77,76,6,3,1,90.0,True
62995,5615, Note_on_c,82,76,6,3,1,95.0,False
62996,5616, Note_on_c,68,76,6,3,1,79.0,False
62997,5616, Note_on_c,75,76,6,3,1,87.0,False
62998,5617, Note_on_c,70,76,6,3,1,81.0,False
62999,5618, Note_on_c,77,76,6,3,1,90.0,True
63000,5618, Note_on_c,82,76,6,3,1,95.0,False
63001,5619, Note_on_c,68,76,6,3,1,79.0,False
63002,5619, Note_on_c,75,76,6,3,1,87.0,False
63003,5620, Note_on_c,77,76,6,3,1,90.0,True
63004,5620, Note_on_c,82,76,6,3,1,95.0,False
63005,5621, Note_on_c,68,76,6,3,1,79.0,False
63006,5621, Note_on_c,73,76,6,3,1,85.0,False
63007,5622, Note_on_c,70,76,6,3,1,81.0,False
63008,5623, Note_on_c,77,76,6,3,1,90.0,True
63009,5623, Note_on_c,82,76,6,3,1,95.0,False
63010,5624, Note_on_c,68,76,6,3,1,79.0,False
63011,5624, Note_on_c,75,76,6,3,1,87.0,False
63012,5625, Note_on_c,70,76,6,3,1,81.0,False
63013,5626, Note_on_c,77,76,6,3,1,90.0,True
63014,5626, Note_on_c,82,76,6,3,1,95.0,False
63015,5627, Note_on_c,68,76,6,3,1,79.0,False
63016,5627, Note_on_c,75,76,6,3,1,87.0,False
63017,5628, Note_on_c,77,76,6,3,1,90.0,True
63018,5628, Note_on_c,82,76,6,3,1,95.0,False
63019,5629, Note_on_c,68,76,6,3,1,79.0,False
63020,5629, Note_on_c,73,76,6,3,1,85.0,False
63021,5630, Note_on_c,70,76,6,3,1,81.0,False
63022,5631, Note_on_c,77,76,6,3,1,90.0,True
63023,5631, Note_on_c,82,76,6,3,1,95.0,False
63024,5632, Note_on_c,68,76,6,3,1,79.0,False
63025,5632, Note_on_c,75,76,6,3,1,87.0,False
63026,5633, Note_on_c,70,76,6,3,1,81.0,False
63027,5634, Note_on_c,77,76,6,3,1,90.0,True
63028,5634, Note_on_c,82,76,6,3,1,95.0,False
63029,5635, Note_on_c,68,76,6,3,1,79.0,False
63030,5635, Note_on_c,75,76,6,3,1,87.0,False
63031,5636, Note_on_c,77,76,6,3,1,90.0,True
63032,5636, Note_on_c,82,76,6,3,1,95.0,False
63033,5637, Note_on_c,68,76,6,3,1,79.0,False
63034,5637, Note_on_c,73,76,6,3,1,85.0,False
63035,5638, Note_on_c,70,76,6,3,1,81.0,False
63036,5639, Note_on_c,77,76,6,3,1,90.0,True
63037,5639, Note_on_c,82,76,6,3,1,95.0,False
63038,5640, Note_on_c,68,76,6,3,1,79.0,False
63039,5640, Note_on_c,75,76,6,3,1,87.0,False
63040,5641, Note_on_c,70,76,6,3,1,81.0,False
63041,5642, Note_on_c,77,76,6,3,1,90.0,True
63042,5642, Note_on_c,82,76,6,3,1,95.0,False
63043,5643, Note_on_c,68,76,6,3,1,79.0,False
63044,5643, Note_on_c,75,76,6,3,1,87.0,False
63045,5644, Note_on_c,77,76,6,3,1,90.0,True
63046,5644, Note_on_c,82,76,6,3,1,95.0,False
63047,5645, Note_on_c,68,76,6,3,1,79.0,False
63048,5645, Note_on_c,73,76,6,3,1,85.0,False
63049,5646, Note_on_c,70,76,6,3,1,81.0,False
63050,5647, Note_on_c,77,76,6,3,1,90.0,True
63051,5647, Note_on_c,82,76,6,3,1,95.0,False
63052,5648, Note_on_c,68,76,6,3,1,79.0,False
63053,5648, Note_on_c,75,76,6,3,1,87.0,False
63054,5649, Note_on_c,70,76,6,3,1,81.0,False
63055,5650, Note_on_c,77,76,6,3,1,90.0,True
63056,5650, Note_on_c,82,76,6,3,1,95.0,False
63057,5651, Note_on_c,68,76,6,3,1,79.0,False
63058,5651, Note_on_c,75,76,6,3,1,87.0,False
63059,5652, Note_on_c,77,76,6,3,1,90.0,True
63060,5652, Note_on_c,82,76,6,3,1,95.0,False
63061,5653, Note_on_c,68,76,6,3,1,79.0,False
63062,5653, Note_on_c,73,76,6,3,1,85.0,False
63063,5654, Note_on_c,70,76,6,3,1,81.0,False
63064,5655, Note_on_c,77,76,6,3,1,90.0,True
63065,5655, Note_on_c,82,76,6,3,1,95.0,False
63066,5656, Note_on_c,68,76,6,3,1,79.0,False
63067,5656, Note_on_c,75,76,6,3,1,87.0,False
63068,5657, Note_on_c,70,76,6,3,1,81.0,False
63069,5658, Note_on_c,77,76,6,3,1,90.0,True
63070,5658, Note_on_c,82,76,6,3,1,95.0,False
63071,5659, Note_on_c,68,76,6,3,1,79.0,False
63072,5659, Note_on_c,75,76,6,3,1,87.0,False
63073,5660, Note_on_c,77,76,6,3,1,90.0,True
63074,5660, Note_on_c,82,76,6,3,1,95.0,False
63075,5661, Note_on_c,68,76,6,3,1,79.0,False
63076,5661, Note_on_c,73,76,6,3,1,85.0,False
63077,5662, Note_on_c,70,76,6,3,1,81.0,False
63078,5663, Note_on_c,77,76,6,3,1,90.0,True
63079,5663, Note_on_c,82,76,6,3,1,95.0,False
63080,5664, Note_on_c,68,76,6,3,1,79.0,False
63081,5664, Note_on_c,75,76,6,3,1,87.0,False
63082,5665, Note_on_c,70,76,6,3,1,81.0,False
63083,5666, Note_on_c,77,76,6,3,1,90.0,True
63084,5666, Note_on_c,82,76,6,3,1,95.0,False
63085,5667, Note_on_c,68,76,6,3,1,79.0,False
63086,5667, Note_on_c,75,76,6,3,1,87.0,False
63087,5668, Note_on_c,77,76,6,3,1,90.0,True
63088,5668, Note_on_c,82,76,6,3,1,95.0,False
63089,5669, Note_on_c,68,76,6,3,1,79.0,False
63090,5669, Note_on_c,73,76,6,3,1,85.0,False
63091,5670, Note_on_c,70,76,6,3,1,81.0,False
63092,5671, Note_on_c,77,76,6,3,1,90.0,True
63093,5671, Note_on_c,82,76,6,3,1,95.0,False
63094,5672, Note_on_c,68,76,6,3,1,79.0,False
63095,5672, Note_on_c,75,76,6,3,1,87.0,False
63096,5673, Note_on_c,70,76,6,3,1,81.0,False
63097,5674, Note_on_c,77,76,6,3,1,90.0,True
63098,5674, Note_on_c,82,76,6,3,1,95.0,False
63099,5675, Note_on_c,68,76,6,3,1,79.0,False
63100,5675, Note_on_c,75,76,6,3,1,87.0,False
63101,5676, Note_on_c,77,76,6,3,1,90.0,True
63102,5676, Note_on_c,82,76,6,3,1,95.0,False
63103,5677, Note_on_c,68,76,6,3,1,79.0,False
63104,5677, Note_on_c,73,76,6,3,1,85.0,False
63105,5678, Note_on_c,70,76,6,3,1,81.0,False
63106,5679, Note_on_c,77,76,6,3,1,90.0,True
63107,5679, Note_on_c,82,76,6,3,1,95.0,False
63108,5680, Note_on_c,68,76,6,3,1,79.0,False
63109,5680, Note_on_c,75,76,6,3,1,87.0,False
63110,5681, Note_on_c,70,76,6,3,1,81.0,False
63111,5682, Note_on_c,77,76,6,3,1,90.0,True
63112,5682, Note_on_c,82,76,6,3,1,95.0,False
63113,5683, Note_on_c,68,76,6,3,1,79.0,False
63114,5683, Note_on_c,75,76,6,3,1,87.0,False
63115,5684, Note_on_c,77,76,6,3,1,90.0,True
63116,5684, Note_on_c,82,76,6,3,1,95.0,False
63117,5685, Note_on_c,68,76,6,3,1,79.0,False
63118,5685, Note_on_c,73,76,6,3,1,85.0,False
63119,5686, Note_on_c,70,76,6,3,1,81.0,False
63120,5687, Note_on_c,77,76,6,3,1,90.0,True
63121,5687, Note_on_c,82,76,6,3,1,95.0,False
63122,5688, Note_on_c,68,76,6,3,1,79.0,False
63123,5688, Note_on_c,75,76,6,3,1,87.0,False
63124,5689, Note_on_c,70,76,6,3,1,81.0,False
63125,5690, Note_on_c,77,76,6,3,1,90.0,True
63126,5690, Note_on_c,82,76,6,3,1,95.0,False
63127,5691, Note_on_c,68,76,6,3,1,79.0,False
63128,5691, Note_on_c,75,76,6,3,1,87.0,False
63129,5692, Note_on_c,77,76,6,3,1,90.0,True
63130,5692, Note_on_c,82,76,6,3,1,95.0,False
63131,5693, Note_on_c,68,76,6,3,1,79.0,False
63132,5693, Note_on_c,73,76,6,3,1,85.0,False
63133,5694, Note_on_c,70,76,6,3,1,81.0,False
63134,5695, Note_on_c,77,76,6,3,1,90.0,True
63135,5695, Note_on_c,82,76,6,3,1,95.0,False
63136,5696, Note_on_c,68,76,6,3,1,79.0,False
63137,5696, Note_on_c,75,76,6,3,1,87.0,False
63138,5697, Note_on_c,70,76,6,3,1,81.0,False
63139,5698, Note_on_c,77,76,6,3,1,90.0,True
63140,5698, Note_on_c,82,76,6,3,1,95.0,False
63141,5699, Note_on_c,68,76,6,3,1,79.0,False
63142,5699, Note_on_c,75,76,6,3,1,87.0,False
63143,5700, Note_on_c,77,76,6,3,1,90.0,True
63144,5700, Note_on_c,82,76,6,3,1,95.0,False
63145,5701, Note_on_c,68,76,6,3,1,79.0,False
63146,5701, Note_on_c,73,76,6,3,1,85.0,False
63147,5702, Note_on_c,70,76,6,3,1,81.0,False
63148,5703, Note_on_c,77,76,6,3,1,90.0,True
63149,5703, Note_on_c,82,76,6,3,1,95.0,False
63150,5704, Note_on_c,68,76,6,3,1,79.0,False
63151,5704, Note_on_c,75,76,6,3,1,87.0,False
63152,5705, Note_on_c,70,76,6,3,1,81.0,False
63153,5706, Note_on_c,77,76,6,3,1,90.0,True
63154,5706, Note_on_c,82,76,6,3,1,95.0,False
63155,5707, Note_on_c,68,76,6,3,1,79.0,False
63156,5707, Note_on_c,75,76,6,3,1,87.0,False
63157,5708, Note_on_c,77,76,6,3,1,90.0,True
63158,5708, Note_on_c,82,76,6,3,1,95.0,False
63159,5709, Note_on_c,68,76,6,3,1,79.0,False
63160,5709, Note_on_c,73,76,6,3,1,85.0,False
63161,5710, Note_on_c,70,76,6,3,1,81.0,False
63162,5711, Note_on_c,77,76,6,3,1,90.0,True
63163,5711, Note_on_c,82,76,6,3,1,95.0,False
63164,5712, Note_on_c,68,76,6,3,1,79.0,False
63165,5712, Note_on_c,75,76,6,3,1,87.0,False
63166,5713, Note_on_c,70,76,6,3,1,81.0,False
63167,5714, Note_on_c,77,76,6,3,1,90.0,True
63168,5714, Note_on_c,82,76,6,3,1,95.0,False
63169,5715, Note_on_c,68,76,6,3,1,79.0,False
63170,5715, Note_on_c,75,76,6,3,1,87.0,False
63171,5716, Note_on_c,77,76,6,3,1,90.0,True
63172,5716, Note_on_c,82,76,6,3,1,95.0,False
63173,5717, Note_on_c,68,76,6,3,1,79.0,False
63174,5717, Note_on_c,73,76,6,3,1,85.0,False
63175,5718, Note_on_c,70,76,6,3,1,81.0,False
63176,5719, Note_on_c,77,76,6,3,1,90.0,True
63177,5719, Note_on_c,82,76,6,3,1,95.0,False
63178,5720, Note_on_c,68,76,6,3,1,79.0,False
63179,5720, Note_on_c,75,76,6,3,1,87.0,False
63180,5721, Note_on_c,70,76,6,3,1,81.0,False
63181,5722, Note_on_c,77,76,6,3,1,90.0,True
63182,5722, Note_on_c,82,76,6,3,1,95.0,False
63183,5723, Note_on_c,68,76,6,3,1,79.0,False
63184,5723, Note_on_c,75,76,6,3,1,87.0,False
63185,5724, Note_on_c,77,76,6,3,1,90.0,True
63186,5724, Note_on_c,82,76,6,3,1,95.0,False
63187,5725, Note_on_c,68,76,6,3,1,79.0,False
63188,5725, Note_on_c,73,76,6,3,1,85.0,False
63189,5726, Note_on_c,70,76,6,3,1,81.0,False
63190,5727, Note_on_c,77,76,6,3,1,90.0,True
63191,5727, Note_on_c,82,76,6,3,1,95.0,False
63192,5728, Note_on_c,68,76,6,3,1,79.0,False
63193,5728, Note_on_c,75,76,6,3,1,87.0,False
63194,5729, Note_on_c,70,76,6,3,1,81.0,False
63195,5730, Note_on_c,77,76,6,3,1,90.0,True
63196,5730, Note_on_c,82,76,6,3,1,95.0,False
63197,5731, Note_on_c,68,76,6,3,1,79.0,False
63198,5731, Note_on_c,75,76,6,3,1,87.0,False
63199,5732, Note_on_c,77,76,6,3,1,90.0,True
63200,5732, Note_on_c,82,76,6,3,1,95.0,False
63201,5733, Note_on_c,68,76,6,3,1,79.0,False
63202,5733, Note_on_c,73,76,6,3,1,85.0,False
63203,5734, Note_on_c,70,76,6,3,1,81.0,False
63204,5735, Note_on_c,77,76,6,3,1,90.0,True
63205,5735, Note_on_c,82,76,6,3,1,95.0,False
63206,5736, Note_on_c,68,76,6,3,1,79.0,False
63207,5736, Note_on_c,75,76,6,3,1,87.0,False
63208,5737, Note_on_c,70,76,6,3,1,81.0,False
63209,5738, Note_on_c,77,76,6,3,1,90.0,True
63210,5738, Note_on_c,82,76,6,3,1,95.0,False
63211,5739, Note_on_c,68,76,6,3,1,79.0,False
63212,5739, Note_on_c,75,76,6,3,1,87.0,False
63213,5740, Note_on_c,77,76,6,3,1,90.0,True
63214,5740, Note_on_c,82,76,6,3,1,95.0,False
63215,5741, Note_on_c,68,76,6,3,1,79.0,False
63216,5741, Note_on_c,73,76,6,3,1,85.0,False
63217,5742, Note_on_c,70,76,6,3,1,81.0,False
63218,5743, Note_on_c,77,76,6,3,1,90.0,True
63219,5743, Note_on_c,82,76,6,3,1,95.0,False
63220,5744, Note_on_c,68,76,6,3,1,79.0,False
63221,5744, Note_on_c,75,76,6,3,1,87.0,False
63222,5745, Note_on_c,70,76,6,3,1,81.0,False
63223,5746, Note_on_c,77,76,6,3,1,90.0,True
63224,5746, Note_on_c,82,76,6,3,1,95.0,False
63225,5747, Note_on_c,68,76,6,3,1,79.0,False
63226,5747, Note_on_c,75,76,6,3,1,87.0,False
63227,5748, Note_on_c,77,76,6,3,1,90.0,True
63228,5748, Note_on_c,82,76,6,3,1,95.0,False
63229,5749, Note_on_c,68,76,6,3,1,79.0,False
63230,5749, Note_on_c,73,76,6,3,1,85.0,False
63231,5750, Note_on_c,70,76,6,3,1,81.0,False
63232,5751, Note_on_c,77,76,6,3,1,90.0,True
63233,5751, Note_on_c,82,76,6,3,1,95.0,False
63234,5752, Note_on_c,68,76,6,3,1,79.0,False
63235,5752, Note_on_c,75,76,6,3,1,87.0,False
63236,5753, Note_on_c,70,76,6,3,1,81.0,False
63237,5754, Note_on_c,77,76,6,3,1,90.0,True
63238,5754, Note_on_c,82,76,6,3,1,95.0,False
63239,5755, Note_on_c,68,76,6,3,1,79.0,False
63240,5755, Note_on_c,75,76,6,3,1,87.0,False
63241,5756, Note_on_c,77,76,6,3,1,90.0,True
63242,5756, Note_on_c,82,76,6,3,1,95.0,False
63243,5757, Note_on_c,68,76,6,3,1,79.0,False
63244,5757, Note_on_c,73,76,6,3,1,85.0,False
63245,5758, Note_on_c,70,76,6,3,1,81.0,False
63246,5759, Note_on_c,77,76,6,3,1,90.0,True
63247,5759, Note_on_c,82,76,6,3,1,95.0,False
63248,5760, Note_on_c,68,76,6,3,1,79.0,False
63249,5760, Note_on_c,75,76,6,3,1,87.0,False
63250,5761, Note_on_c,70,76,6,3,1,81.0,False
63251,5762, Note_on_c,77,76,6,3,1,90.0,True
63252,5762, Note_on_c,82,76,6,3,1,95.0,False
63253,5763, Note_on_c,68,76,6,3,1,79.0,False
63254,5763, Note_on_c,75,76,6,3,1,87.0,False
63255,5764, Note_on_c,77,76,6,3,1,90.0,True
63256,5764, Note_on_c,82,76,6,3,1,95.0,False
63257,5765, Note_on_c,68,76,6,3,1,79.0,False
63258,5765, Note_on_c,73,76,6,3,1,85.0,False
63259,5766, Note_on_c,70,76,6,3,1,81.0,False
63260,5767, Note_on_c,77,76,6,3,1,90.0,True
63261,5767, Note_on_c,82,76,6,3,1,95.0,False
63262,5768, Note_on_c,68,76,6,3,1,79.0,False
63263,5768, Note_on_c,75,76,6,3,1,87.0,False
63264,5769, Note_on_c,70,76,6,3,1,81.0,False
63265,5770, Note_on_c,77,76,6,3,1,90.0,True
63266,5770, Note_on_c,82,76,6,3,1,95.0,False
63267,5771, Note_on_c,68,76,6,3,1,79.0,False
63268,5771, Note_on_c,75,76,6,3,1,87.0,False
63269,5772, Note_on_c,77,76,6,3,1,90.0,True
63270,5772, Note_on_c,82,76,6,3,1,95.0,False
63271,5773, Note_on_c,68,76,6,3,1,79.0,False
63272,5773, Note_on_c,73,76,6,3,1,85.0,False
63273,5774, Note_on_c,70,76,6,3,1,81.0,False
63274,5775, Note_on_c,77,76,6,3,1,90.0,True
63275,5775, Note_on_c,82,76,6,3,1,95.0,False
63276,5776, Note_on_c,68,76,6,3,1,79.0,False
63277,5776, Note_on_c,75,76,6,3,1,87.0,False
63278,5777, Note_on_c,70,76,6,3,1,81.0,False
63279,5778, Note_on_c,77,76,6,3,1,90.0,True
63280,5778, Note_on_c,82,76,6,3,1,95.0,False
63281,5779, Note_on_c,68,76,6,3,1,79.0,False
63282,5779, Note_on_c,75,76,6,3,1,87.0,False
63283,5780, Note_on_c,77,76,6,3,1,90.0,True
63284,5780, Note_on_c,82,76,6,3,1,95.0,False
63285,5781, Note_on_c,68,76,6,3,1,79.0,False
63286,5781, Note_on_c,73,76,6,3,1,85.0,False
63287,5782, Note_on_c,70,76,6,3,1,81.0,False
63288,5783, Note_on_c,77,76,6,3,1,90.0,True
63289,5783, Note_on_c,82,76,6,3,1,95.0,False
63290,5784, Note_on_c,68,76,6,3,1,79.0,False
63291,5784, Note_on_c,75,76,6,3,1,87.0,False
63292,5785, Note_on_c,70,76,6,3,1,81.0,False
63293,5786, Note_on_c,77,76,6,3,1,90.0,True
63294,5786, Note_on_c,82,76,6,3,1,95.0,False
63295,5787, Note_on_c,68,76,6,3,1,79.0,False
63296,5787, Note_on_c,75,76,6,3,1,87.0,False
63297,5788, Note_on_c,77,76,6,3,1,90.0,True
63298,5788, Note_on_c,82,76,6,3,1,95.0,False
63299,5789, Note_on_c,68,76,6,3,1,79.0,False
63300,5789, Note_on_c,73,76,6,3,1,85.0,False
63301,5790, Note_on_c,70,76,6,3,1,81.0,False
63302,5791, Note_on_c,77,76,6,3,1,90.0,True
63303,5791, Note_on_c,82,76,6,3,1,95.0,False
63304,5792, Note_on_c,68,76,6,3,1,79.0,False
63305,5792, Note_on_c,75,76,6,3,1,87.0,False
63306,5793, Note_on_c,70,76,6,3,1,81.0,False
63307,5794, Note_on_c,77,76,6,3,1,90.0,True
63308,5794, Note_on_c,82,76,6,3,1,95.0,False
63309,5795, Note_on_c,68,76,6,3,1,79.0,False
63310,5795, Note_on_c,75,76,6,3,1,87.0,False
63311,5796, Note_on_c,77,76,6,3,1,90.0,True
63312,5796, Note_on_c,82,76,6,3,1,95.0,False
63313,5797, Note_on_c,68,76,6,3,1,79.0,False
63314,5797, Note_on_c,73,76,6,3,1,85.0,False
63315,5798, Note_on_c,70,76,6,3,1,81.0,False
63316,5799, Note_on_c,77,76,6,3,1,90.0,True
63317,5799, Note_on_c,82,76,6,3,1,95.0,False
63318,5800, Note_on_c,68,76,6,3,1,79.0,False
63319,5800, Note_on_c,75,76,6,3,1,87.0,False
63320,5801, Note_on_c,70,76,6,3,1,81.0,False
63321,5802, Note_on_c,77,76,6,3,1,90.0,True
63322,5802, Note_on_c,82,76,6,3,1,95.0,False
63323,5803, Note_on_c,68,76,6,3,1,79.0,False
63324,5803, Note_on_c,75,76,6,3,1,87.0,False
63325,5804, Note_on_c,77,76,6,3,1,90.0,True
63326,5804, Note_on_c,82,76,6,3,1,95.0,False
63327,5805, Note_on_c,68,76,6,3,1,79.0,False
63328,5805, Note_on_c,73,76,6,3,1,85.0,False
63329,5806, Note_on_c,70,76,6,3,1,81.0,False
63330,5807, Note_on_c,77,76,6,3,1,90.0,True
63331,5807, Note_on_c,82,76,6,3,1,95.0,False
63332,5808, Note_on_c,68,76,6,3,1,79.0,False
63333,5808, Note_on_c,75,76,6,3,1,87.0,False
63334,5809, Note_on_c,70,76,6,3,1,81.0,False
63335,5810, Note_on_c,77,76,6,3,1,90.0,True
63336,5810, Note_on_c,82,76,6,3,1,95.0,False
63337,5811, Note_on_c,68,76,6,3,1,79.0,False
63338,5811, Note_on_c,75,76,6,3,1,87.0,False
63339,5812, Note_on_c,77,76,6,3,1,90.0,True
63340,5812, Note_on_c,82,76,6,3,1,95.0,False
63341,5813, Note_on_c,68,76,6,3,1,79.0,False
63342,5813, Note_on_c,73,76,6,3,1,85.0,False
63343,5814, Note_on_c,70,76,6,3,1,81.0,False
63344,5815, Note_on_c,77,76,6,3,1,90.0,True
63345,5815, Note_on_c,82,76,6,3,1,95.0,False
63346,5816, Note_on_c,68,76,6,3,1,79.0,False
63347,5816, Note_on_c,75,76,6,3,1,87.0,False
63348,5817, Note_on_c,70,76,6,3,1,81.0,False
63349,5818, Note_on_c,77,76,6,3,1,90.0,True
63350,5818, Note_on_c,82,76,6,3,1,95.0,False
63351,5819, Note_on_c,68,76,6,3,1,79.0,False
63352,5819, Note_on_c,75,76,6,3,1,87.0,False
63353,5820, Note_on_c,77,76,6,3,1,90.0,True
63354,5820, Note_on_c,82,76,6,3,1,95.0,False
63355,5821, Note_on_c,68,76,6,3,1,79.0,False
63356,5821, Note_on_c,73,76,6,3,1,85.0,False
63357,5822, Note_on_c,70,76,6,3,1,81.0,False
63358,5823, Note_on_c,77,76,6,3,1,90.0,True
63359,5823, Note_on_c,82,76,6,3,1,95.0,False
63360,5824, Note_on_c,68,76,6,3,1,79.0,False
63361,5824, Note_on_c,75,76,6,3,1,87.0,False
63362,5825, Note_on_c,70,76,6,3,1,81.0,False
63363,5826, Note_on_c,77,76,6,3,1,90.0,True
63364,5826, Note_on_c,82,76,6,3,1,95.0,False
63365,5827, Note_on_c,68,76,6,3,1,79.0,False
63366,5827, Note_on_c,75,76,6,3,1,87.0,False
63367,5828, Note_on_c,77,76,6,3,1,90.0,True
63368,5828, Note_on_c,82,76,6,3,1,95.0,False
63369,5829, Note_on_c,68,76,6,3,1,79.0,False
63370,5829, Note_on_c,73,76,6,3,1,85.0,False
63371,5830, Note_on_c,70,76,6,3,1,81.0,False
63372,5831, Note_on_c,77,76,6,3,1,90.0,True
63373,5831, Note_on_c,82,76,6,3,1,95.0,False
63374,5832, Note_on_c,68,76,6,3,1,79.0,False
63375,5832, Note_on_c,75,76,6,3,1,87.0,False
63376,5833, Note_on_c,70,76,6,3,1,81.0,False
63377,5834, Note_on_c,77,76,6,3,1,90.0,True
63378,5834, Note_on_c,82,76,6,3,1,95.0,False
63379,5835, Note_on_c,68,76,6,3,1,79.0,False
63380,5835, Note_on_c,75,76,6,3,1,87.0,False
63381,5836, Note_on_c,77,76,6,3,1,90.0,True
63382,5836, Note_on_c,82,76,6,3,1,95.0,False
63383,5837, Note_on_c,68,76,6,3,1,79.0,False
63384,5837, Note_on_c,73,76,6,3,1,85.0,False
63385,5838, Note_on_c,70,76,6,3,1,81.0,False
63386,5839, Note_on_c,77,76,6,3,1,90.0,True
63387,5839, Note_on_c,82,76,6,3,1,95.0,False
63388,5840, Note_on_c,68,76,6,3,1,79.0,False
63389,5840, Note_on_c,75,76,6,3,1,87.0,False
63390,5841, Note_on_c,70,76,6,3,1,81.0,False
63391,5842, Note_on_c,77,76,6,3,1,90.0,True
63392,5842, Note_on_c,82,76,6,3,1,95.0,False
63393,5843, Note_on_c,68,76,6,3,1,79.0,False
63394,5843, Note_on_c,75,76,6,3,1,87.0,False
63395,5844, Note_on_c,77,76,6,3,1,90.0,True
63396,5844, Note_on_c,82,76,6,3,1,95.0,False
63397,5845, Note_on_c,68,76,6,3,1,79.0,False
63398,5845, Note_on_c,73,76,6,3,1,85.0,False
63399,5846, Note_on_c,70,76,6,3,1,81.0,False
63400,5847, Note_on_c,77,76,6,3,1,90.0,True
63401,5847, Note_on_c,82,76,6,3,1,95.0,False
63402,5848, Note_on_c,68,76,6,3,1,79.0,False
63403,5848, Note_on_c,75,76,6,3,1,87.0,False
63404,5849, Note_on_c,70,76,6,3,1,81.0,False
63405,5850, Note_on_c,77,76,6,3,1,90.0,True
63406,5850, Note_on_c,82,76,6,3,1,95.0,False
63407,5851, Note_on_c,68,76,6,3,1,79.0,False
63408,5851, Note_on_c,75,76,6,3,1,87.0,False
63409,5852, Note_on_c,77,76,6,3,1,90.0,True
63410,5852, Note_on_c,82,76,6,3,1,95.0,False
63411,5853, Note_on_c,68,76,6,3,1,79.0,False
63412,5853, Note_on_c,73,76,6,3,1,85.0,False
63413,5854, Note_on_c,70,76,6,3,1,81.0,False
63414,5855, Note_on_c,77,76,6,3,1,90.0,True
63415,5855, Note_on_c,82,76,6,3,1,95.0,False
63416,5856, Note_on_c,68,76,6,3,1,79.0,False
63417,5856, Note_on_c,75,76,6,3,1,87.0,False
63418,5857, Note_on_c,70,76,6,3,1,81.0,False
63419,5858, Note_on_c,77,76,6,3,1,90.0,True
63420,5858, Note_on_c,82,76,6,3,1,95.0,False
63421,5859, Note_on_c,68,76,6,3,1,79.0,False
63422,5859, Note_on_c,75,76,6,3,1,87.0,False
63423,5860, Note_on_c,77,76,6,3,1,90.0,True
63424,5860, Note_on_c,82,76,6,3,1,95.0,False
63425,5861, Note_on_c,68,76,6,3,1,79.0,False
63426,5861, Note_on_c,73,76,6,3,1,85.0,False
63427,5862, Note_on_c,70,76,6,3,1,81.0,False
63428,5863, Note_on_c,77,76,6,3,1,90.0,True
63429,5863, Note_on_c,82,76,6,3,1,95.0,False
63430,5864, Note_on_c,68,76,6,3,1,79.0,False
63431,5864, Note_on_c,75,76,6,3,1,87.0,False
63432,5865, Note_on_c,70,76,6,3,1,81.0,False
63433,5866, Note_on_c,77,76,6,3,1,90.0,True
63434,5866, Note_on_c,82,76,6,3,1,95.0,False
63435,5867, Note_on_c,68,76,6,3,1,79.0,False
63436,5867, Note_on_c,75,76,6,3,1,87.0,False
63437,5868, Note_on_c,77,76,6,3,1,90.0,True
63438,5868, Note_on_c,82,76,6,3,1,95.0,False
63439,5869, Note_on_c,68,76,6,3,1,79.0,False
63440,5869, Note_on_c,73,76,6,3,1,85.0,False
63441,5870, Note_on_c,70,76,6,3,1,81.0,False
63442,5871, Note_on_c,77,76,6,3,1,90.0,True
63443,5871, Note_on_c,82,76,6,3,1,95.0,False
63444,5872, Note_on_c,68,76,6,3,1,79.0,False
63445,5872, Note_on_c,75,76,6,3,1,87.0,False
63446,5873, Note_on_c,70,76,6,3,1,81.0,False
63447,5874, Note_on_c,77,76,6,3,1,90.0,True
63448,5874, Note_on_c,82,76,6,3,1,95.0,False
63449,5875, Note_on_c,68,76,6,3,1,79.0,False
63450,5875, Note_on_c,75,76,6,3,1,87.0,False
63451,5876, Note_on_c,77,76,6,3,1,90.0,True
63452,5876, Note_on_c,82,76,6,3,1,95.0,False
63453,5877, Note_on_c,68,76,6,3,1,79.0,False
63454,5877, Note_on_c,73,76,6,3,1,85.0,False
63455,5878, Note_on_c,70,76,6,3,1,81.0,False
63456,5879, Note_on_c,77,76,6,3,1,90.0,True
63457,5879, Note_on_c,82,76,6,3,1,95.0,False
63458,5880, Note_on_c,68,76,6,3,1,79.0,False
63459,5880, Note_on_c,75,76,6,3,1,87.0,False
63460,5881, Note_on_c,70,76,6,3,1,81.0,False
63461,5882, Note_on_c,77,76,6,3,1,90.0,True
63462,5882, Note_on_c,82,76,6,3,1,95.0,False
63463,5883, Note_on_c,68,76,6,3,1,79.0,False
63464,5883, Note_on_c,75,76,6,3,1,87.0,False
63465,5884, Note_on_c,77,76,6,3,1,90.0,True
63466,5884, Note_on_c,82,76,6,3,1,95.0,False
63467,5885, Note_on_c,68,76,6,3,1,79.0,False
63468,5885, Note_on_c,73,76,6,3,1,85.0,False
63469,5886, Note_on_c,70,76,6,3,1,81.0,False
63470,5887, Note_on_c,77,76,6,3,1,90.0,True
63471,5887, Note_on_c,82,76,6,3,1,95.0,False
63472,5888, Note_on_c,68,76,6,3,1,79.0,False
63473,5888, Note_on_c,75,76,6,3,1,87.0,False
63474,5889, Note_on_c,70,76,6,3,1,81.0,False
63475,5890, Note_on_c,77,76,6,3,1,90.0,True
63476,5890, Note_on_c,82,76,6,3,1,95.0,False
63477,5891, Note_on_c,68,76,6,3,1,79.0,False
63478,5891, Note_on_c,75,76,6,3,1,87.0,False
63479,5892, Note_on_c,77,76,6,3,1,90.0,True
63480,5892, Note_on_c,82,76,6,3,1,95.0,False
63481,5893, Note_on_c,68,76,6,3,1,79.0,False
63482,5893, Note_on_c,73,76,6,3,1,85.0,False
63483,5894, Note_on_c,70,76,6,3,1,81.0,False
63484,5895, Note_on_c,77,76,6,3,1,90.0,True
63485,5895, Note_on_c,82,76,6,3,1,95.0,False
63486,5896, Note_on_c,68,76,6,3,1,79.0,False
63487,5896, Note_on_c,75,76,6,3,1,87.0,False
63488,5897, Note_on_c,70,76,6,3,1,81.0,False
63489,5898, Note_on_c,77,76,6,3,1,90.0,True
63490,5898, Note_on_c,82,76,6,3,1,95.0,False
63491,5899, Note_on_c,68,76,6,3,1,79.0,False
63492,5899, Note_on_c,75,76,6,3,1,87.0,False
63493,5900, Note_on_c,77,76,6,3,1,90.0,True
63494,5900, Note_on_c,82,76,6,3,1,95.0,False
63495,5901, Note_on_c,68,76,6,3,1,79.0,False
63496,5901, Note_on_c,73,76,6,3,1,85.0,False
63497,5902, Note_on_c,70,76,6,3,1,81.0,False
63498,5903, Note_on_c,77,76,6,3,1,90.0,True
63499,5903, Note_on_c,82,76,6,3,1,95.0,False
63500,5904, Note_on_c,68,76,6,3,1,79.0,False
63501,5904, Note_on_c,75,76,6,3,1,87.0,False
63502,5905, Note_on_c,70,76,6,3,1,81.0,False
63503,5906, Note_on_c,77,76,6,3,1,90.0,True
63504,5906, Note_on_c,82,76,6,3,1,95.0,False
63505,5907, Note_on_c,68,76,6,3,1,79.0,False
63506,5907, Note_on_c,75,76,6,3,1,87.0,False
63507,5908, Note_on_c,77,76,6,3,1,90.0,True
63508,5908, Note_on_c,82,76,6,3,1,95.0,False
63509,5909, Note_on_c,68,76,6,3,1,79.0,False
63510,5909, Note_on_c,73,76,6,3,1,85.0,False
63511,5910, Note_on_c,70,76,6,3,1,81.0,False
63512,5911, Note_on_c,77,76,6,3,1,90.0,True
63513,5911, Note_on_c,82,76,6,3,1,95.0,False
63514,5912, Note_on_c,68,76,6,3,1,79.0,False
63515,5912, Note_on_c,75,76,6,3,1,87.0,False
63516,5913, Note_on_c,70,76,6,3,1,81.0,False
63517,5914, Note_on_c,77,76,6,3,1,90.0,True
63518,5914, Note_on_c,82,76,6,3,1,95.0,False
63519,5915, Note_on_c,68,76,6,3,1,79.0,False
63520,5915, Note_on_c,75,76,6,3,1,87.0,False
63521,5916, Note_on_c,77,76,6,3,1,90.0,True
63522,5916, Note_on_c,82,76,6,3,1,95.0,False
63523,5917, Note_on_c,68,76,6,3,1,79.0,False
63524,5917, Note_on_c,73,76,6,3,1,85.0,False
63525,5918, Note_on_c,70,76,6,3,1,81.0,False
63526,5919, Note_on_c,77,76,6,3,1,90.0,True
63527,5919, Note_on_c,82,76,6,3,1,95.0,False
63528,5920, Note_on_c,68,76,6,3,1,79.0,False
63529,5920, Note_on_c,75,76,6,3,1,87.0,False
63530,5921, Note_on_c,70,76,6,3,1,81.0,False
63531,5922, Note_on_c,77,76,6,3,1,90.0,True
63532,5922, Note_on_c,82,76,6,3,1,95.0,False
63533,5923, Note_on_c,68,76,6,3,1,79.0,False
63534,5923, Note_on_c,75,76,6,3,1,87.0,False
63535,5924, Note_on_c,77,76,6,3,1,90.0,True
63536,5924, Note_on_c,82,76,6,3,1,95.0,False
63537,5925, Note_on_c,68,76,6,3,1,79.0,False
63538,5925, Note_on_c,73,76,6,3,1,85.0,False
63539,5926, Note_on_c,70,76,6,3,1,81.0,False
63540,5927, Note_on_c,77,76,6,3,1,90.0,True
63541,5927, Note_on_c,82,76,6,3,1,95.0,False
63542,5928, Note_on_c,68,76,6,3,1,79.0,False
63543,5928, Note_on_c,75,76,6,3,1,87.0,False
63544,5929, Note_on_c,70,76,6,3,1,81.0,False
63545,5930, Note_on_c,77,76,6,3,1,90.0,True
63546,5930, Note_on_c,82,76,6,3,1,95.0,False
63547,5931, Note_on_c,68,76,6,3,1,79.0,False
63548,5931, Note_on_c,75,76,6,3,1,87.0,False
63549,5932, Note_on_c,77,76,6,3,1,90.0,True
63550,5932, Note_on_c,82,76,6,3,1,95.0,False
63551,5933, Note_on_c,68,76,6,3,1,79.0,False
63552,5933, Note_on_c,73,76,6,3,1,85.0,False
63553,5934, Note_on_c,70,76,6,3,1,81.0,False
63554,5935, Note_on_c,77,76,6,3,1,90.0,True
63555,5935, Note_on_c,82,76,6,3,1,95.0,False
63556,5936, Note_on_c,68,76,6,3,1,79.0,False
63557,5936, Note_on_c,75,76,6,3,1,87.0,False
63558,5937, Note_on_c,70,76,6,3,1,81.0,False
63559,5938, Note_on_c,77,76,6,3,1,90.0,True
63560,5938, Note_on_c,82,76,6,3,1,95.0,False
63561,5939, Note_on_c,68,76,6,3,1,79.0,False
63562,5939, Note_on_c,75,76,6,3,1,87.0,False
63563,5940, Note_on_c,77,76,6,3,1,90.0,True
63564,5940, Note_on_c,82,76,6,3,1,95.0,False
63565,5941, Note_on_c,68,76,6,3,1,79.0,False
63566,5941, Note_on_c,73,76,6,3,1,85.0,False
63567,5942, Note_on_c,70,76,6,3,1,81.0,False
63568,5943, Note_on_c,77,76,6,3,1,90.0,True
63569,5943, Note_on_c,82,76,6,3,1,95.0,False
63570,5944, Note_on_c,68,76,6,3,1,79.0,False
63571,5944, Note_on_c,75,76,6,3,1,87.0,False
63572,5945, Note_on_c,70,76,6,3,1,81.0,False
63573,5946, Note_on_c,77,76,6,3,1,90.0,True
63574,5946, Note_on_c,82,76,6,3,1,95.0,False
63575,5947, Note_on_c,68,76,6,3,1,79.0,False
63576,5947, Note_on_c,75,76,6,3,1,87.0,False
63577,5948, Note_on_c,77,76,6,3,1,90.0,True
63578,5948, Note_on_c,82,76,6,3,1,95.0,False
63579,5949, Note_on_c,68,76,6,3,1,79.0,False
63580,5949, Note_on_c,73,76,6,3,1,85.0,False
63581,5950, Note_on_c,70,76,6,3,1,81.0,False
63582,5951, Note_on_c,77,76,6,3,1,90.0,True
63583,5951, Note_on_c,82,76,6,3,1,95.0,False
63584,5952, Note_on_c,68,76,6,3,1,79.0,False
63585,5952, Note_on_c,75,76,6,3,1,87.0,False
63586,5953, Note_on_c,70,76,6,3,1,81.0,False
63587,5954, Note_on_c,77,76,6,3,1,90.0,True
63588,5954, Note_on_c,82,76,6,3,1,95.0,False
63589,5955, Note_on_c,68,76,6,3,1,79.0,False
63590,5955, Note_on_c,75,76,6,3,1,87.0,False
63591,5956, Note_on_c,77,76,6,3,1,90.0,True
63592,5956, Note_on_c,82,76,6,3,1,95.0,False
63593,5957, Note_on_c,68,76,6,3,1,79.0,False
63594,5957, Note_on_c,73,76,6,3,1,85.0,False
63595,5958, Note_on_c,70,76,6,3,1,81.0,False
63596,5959, Note_on_c,77,76,6,3,1,90.0,True
63597,5959, Note_on_c,82,76,6,3,1,95.0,False
63598,5960, Note_on_c,68,76,6,3,1,79.0,False
63599,5960, Note_on_c,75,76,6,3,1,87.0,False
63600,5961, Note_on_c,70,76,6,3,1,81.0,False
63601,5962, Note_on_c,77,76,6,3,1,90.0,True
63602,5962, Note_on_c,82,76,6,3,1,95.0,False
63603,5963, Note_on_c,68,76,6,3,1,79.0,False
63604,5963, Note_on_c,75,76,6,3,1,87.0,False
63605,5964, Note_on_c,77,76,6,3,1,90.0,True
63606,5964, Note_on_c,82,76,6,3,1,95.0,False
63607,5965, Note_on_c,68,76,6,3,1,79.0,False
63608,5965, Note_on_c,73,76,6,3,1,85.0,False
63609,5966, Note_on_c,70,76,6,3,1,81.0,False
63610,5967, Note_on_c,77,76,6,3,1,90.0,True
63611,5967, Note_on_c,82,76,6,3,1,95.0,False
63612,5968, Note_on_c,68,76,6,3,1,79.0,False
63613,5968, Note_on_c,75,76,6,3,1,87.0,False
63614,5969, Note_on_c,70,76,6,3,1,81.0,False
63615,5970, Note_on_c,77,76,6,3,1,90.0,True
63616,5970, Note_on_c,82,76,6,3,1,95.0,False
63617,5971, Note_on_c,68,76,6,3,1,79.0,False
63618,5971, Note_on_c,75,76,6,3,1,87.0,False
63619,5972, Note_on_c,77,76,6,3,1,90.0,True
63620,5972, Note_on_c,82,76,6,3,1,95.0,False
63621,5973, Note_on_c,68,76,6,3,1,79.0,False
63622,5973, Note_on_c,73,76,6,3,1,85.0,False
63623,5974, Note_on_c,70,76,6,3,1,81.0,False
63624,5975, Note_on_c,77,76,6,3,1,90.0,True
63625,5975, Note_on_c,82,76,6,3,1,95.0,False
63626,5976, Note_on_c,68,76,6,3,1,79.0,False
63627,5976, Note_on_c,75,76,6,3,1,87.0,False
63628,5977, Note_on_c,70,76,6,3,1,81.0,False
63629,5978, Note_on_c,77,76,6,3,1,90.0,True
63630,5978, Note_on_c,82,76,6,3,1,95.0,False
63631,5979, Note_on_c,68,76,6,3,1,79.0,False
63632,5979, Note_on_c,75,76,6,3,1,87.0,False
63633,5980, Note_on_c,77,76,6,3,1,90.0,True
63634,5980, Note_on_c,82,76,6,3,1,95.0,False
63635,5981, Note_on_c,68,76,6,3,1,79.0,False
63636,5981, Note_on_c,73,76,6,3,1,85.0,False
63637,5982, Note_on_c,70,76,6,3,1,81.0,False
63638,5983, Note_on_c,77,76,6,3,1,90.0,True
63639,5983, Note_on_c,82,76,6,3,1,95.0,False
63640,5984, Note_on_c,68,76,6,3,1,79.0,False
63641,5984, Note_on_c,75,76,6,3,1,87.0,False
63642,5985, Note_on_c,70,76,6,3,1,81.0,False
63643,5986, Note_on_c,77,76,6,3,1,90.0,True
63644,5986, Note_on_c,82,76,6,3,1,95.0,False
63645,5987, Note_on_c,68,76,6,3,1,79.0,False
63646,5987, Note_on_c,75,76,6,3,1,87.0,False
63647,5988, Note_on_c,77,76,6,3,1,90.0,True
63648,5988, Note_on_c,82,76,6,3,1,95.0,False
63649,5989, Note_on_c,68,76,6,3,1,79.0,False
63650,5989, Note_on_c,73,76,6,3,1,85.0,False
63651,5990, Note_on_c,70,76,6,3,1,81.0,False
63652,5991, Note_on_c,77,76,6,3,1,90.0,True
63653,5991, Note_on_c,82,76,6,3,1,95.0,False
63654,5992, Note_on_c,68,76,6,3,1,79.0,False
63655,5992, Note_on_c,75,76,6,3,1,87.0,False
63656,5993, Note_on_c,70,76,6,3,1,81.0,False
63657,5994, Note_on_c,77,76,6,3,1,90.0,True
63658,5994, Note_on_c,82,76,6,3,1,95.0,False
63659,5995, Note_on_c,68,76,6,3,1,79.0,False
63660,5995, Note_on_c,75,76,6,3,1,87.0,False
63661,5996, Note_on_c,77,76,6,3,1,90.0,True
63662,5996, Note_on_c,82,76,6,3,1,95.0,False
63663,5997, Note_on_c,68,76,6,3,1,79.0,False
63664,5997, Note_on_c,73,76,6,3,1,85.0,False
63665,5998, Note_on_c,70,76,6,3,1,81.0,False
63666,5999, Note_on_c,77,76,6,3,1,90.0,True
63667,5999, Note_on_c,82,76,6,3,1,95.0,False
63668,6000, Note_on_c,68,76,6,3,1,79.0,False
63669,6000, Note_on_c,75,76,6,3,1,87.0,False
63670,6001, Note_on_c,70,76,6,3,1,81.0,False
63671,6002, Note_on_c,77,76,6,3,1,90.0,True
63672,6002, Note_on_c,82,76,6,3,1,95.0,False
63673,6003, Note_on_c,68,76,6,3,1,79.0,False
63674,6003, Note_on_c,75,76,6,3,1,87.0,False
63675,6004, Note_on_c,77,76,6,3,1,90.0,True
63676,6004, Note_on_c,82,76,6,3,1,95.0,False
63677,6005, Note_on_c,68,76,6,3,1,79.0,False
63678,6005, Note_on_c,73,76,6,3,1,85.0,False
63679,6006, Note_on_c,70,76,6,3,1,81.0,False
63680,6007, Note_on_c,77,76,6,3,1,90.0,True
63681,6007, Note_on_c,82,76,6,3,1,95.0,False
63682,6008, Note_on_c,68,76,6,3,1,79.0,False
63683,6008, Note_on_c,75,76,6,3,1,87.0,False
63684,6009, Note_on_c,70,76,6,3,1,81.0,False
63685,6010, Note_on_c,77,76,6,3,1,90.0,True
63686,6010, Note_on_c,82,76,6,3,1,95.0,False
63687,6011, Note_on_c,68,76,6,3,1,79.0,False
63688,6011, Note_on_c,75,76,6,3,1,87.0,False
63689,6012, Note_on_c,77,76,6,3,1,90.0,True
63690,6012, Note_on_c,82,76,6,3,1,95.0,False
63691,6013, Note_on_c,68,76,6,3,1,79.0,False
63692,6013, Note_on_c,73,76,6,3,1,85.0,False
63693,6014, Note_on_c,70,76,6,3,1,81.0,False
63694,6015, Note_on_c,77,76,6,3,1,90.0,True
63695,6015, Note_on_c,82,76,6,3,1,95.0,False
63696,6016, Note_on_c,68,76,6,3,1,79.0,False
63697,6016, Note_on_c,75,76,6,3,1,87.0,False
63698,6017, Note_on_c,70,76,6,3,1,81.0,False
63699,6018, Note_on_c,77,76,6,3,1,90.0,True
63700,6018, Note_on_c,82,76,6,3,1,95.0,False
63701,6019, Note_on_c,68,76,6,3,1,79.0,False
63702,6019, Note_on_c,75,76,6,3,1,87.0,False
63703,6020, Note_on_c,77,76,6,3,1,90.0,True
63704,6020, Note_on_c,82,76,6,3,1,95.0,False
63705,6021, Note_on_c,68,76,6,3,1,79.0,False
63706,6021, Note_on_c,73,76,6,3,1,85.0,False
63707,6022, Note_on_c,70,76,6,3,1,81.0,False
63708,6023, Note_on_c,77,76,6,3,1,90.0,True
63709,6023, Note_on_c,82,76,6,3,1,95.0,False
63710,6024, Note_on_c,68,76,6,3,1,79.0,False
63711,6024, Note_on_c,75,76,6,3,1,87.0,False
63712,6025, Note_on_c,70,76,6,3,1,81.0,False
63713,6026, Note_on_c,77,76,6,3,1,90.0,True
63714,6026, Note_on_c,82,76,6,3,1,95.0,False
63715,6027, Note_on_c,68,76,6,3,1,79.0,False
63716,6027, Note_on_c,75,76,6,3,1,87.0,False
63717,6028, Note_on_c,77,76,6,3,1,90.0,True
63718,6028, Note_on_c,82,76,6,3,1,95.0,False
63719,6029, Note_on_c,68,76,6,3,1,79.0,False
63720,6029, Note_on_c,73,76,6,3,1,85.0,False
63721,6030, Note_on_c,70,76,6,3,1,81.0,False
63722,6031, Note_on_c,77,76,6,3,1,90.0,True
63723,6031, Note_on_c,82,76,6,3,1,95.0,False
63724,6032, Note_on_c,68,76,6,3,1,79.0,False
63725,6032, Note_on_c,75,76,6,3,1,87.0,False
63726,6033, Note_on_c,70,76,6,3,1,81.0,False
63727,6034, Note_on_c,77,76,6,3,1,90.0,True
63728,6034, Note_on_c,82,76,6,3,1,95.0,False
63729,6035, Note_on_c,68,76,6,3,1,79.0,False
63730,6035, Note_on_c,75,76,6,3,1,87.0,False
63731,6036, Note_on_c,77,76,6,3,1,90.0,True
63732,6036, Note_on_c,82,76,6,3,1,95.0,False
63733,6037, Note_on_c,68,76,6,3,1,79.0,False
63734,6037, Note_on_c,73,76,6,3,1,85.0,False
63735,6038, Note_on_c,70,76,6,3,1,81.0,False
63736,6039, Note_on_c,77,76,6,3,1,90.0,True
63737,6039, Note_on_c,82,76,6,3,1,95.0,False
63738,6040, Note_on_c,68,76,6,3,1,79.0,False
63739,6040, Note_on_c,75,76,6,3,1,87.0,False
63740,6041, Note_on_c,70,76,6,3,1,81.0,False
63741,6042, Note_on_c,77,76,6,3,1,90.0,True
63742,6042, Note_on_c,82,76,6,3,1,95.0,False
63743,6043, Note_on_c,68,76,6,3,1,79.0,False
63744,6043, Note_on_c,75,76,6,3,1,87.0,False
63745,6044, Note_on_c,77,76,6,3,1,90.0,True
63746,6044, Note_on_c,82,76,6,3,1,95.0,False
63747,6045, Note_on_c,68,76,6,3,1,79.0,False
63748,6045, Note_on_c,73,76,6,3,1,85.0,False
63749,6046, Note_on_c,70,76,6,3,1,81.0,False
63750,6047, Note_on_c,77,76,6,3,1,90.0,True
63751,6047, Note_on_c,82,76,6,3,1,95.0,False
63752,6048, Note_on_c,68,76,6,3,1,79.0,False
63753,6048, Note_on_c,75,76,6,3,1,87.0,False
63754,6049, Note_on_c,70,75,6,3,1,81.0,False
63755,6050, Note_on_c,77,73,6,3,1,90.0,True
63756,6050, Note_on_c,82,73,6,3,1,95.0,False
63757,6051, Note_on_c,68,71,6,3,1,79.0,False
63758,6051, Note_on_c,75,71,6,3,1,87.0,False
63759,6052, Note_on_c,77,69,6,3,1,90.0,True
63760,6052, Note_on_c,82,69,6,3,1,95.0,False
63761,6053, Note_on_c,68,68,6,3,1,79.0,False
63762,6053, Note_on_c,73,68,6,3,1,85.0,False
63763,6054, Note_on_c,70,66,6,3,1,81.0,False
63764,6055, Note_on_c,77,64,6,3,1,90.0,True
63765,6055, Note_on_c,82,64,6,3,1,95.0,False
63766,6056, Note_on_c,68,62,6,3,1,79.0,False
63767,6056, Note_on_c,75,62,6,3,1,87.0,False
63768,6057, Note_on_c,70,60,6,3,1,81.0,False
63769,6058, Note_on_c,77,58,6,3,1,90.0,True
63770,6058, Note_on_c,82,58,6,3,1,95.0,False
63771,6059, Note_on_c,68,57,6,3,1,79.0,False
63772,6059, Note_on_c,75,57,6,3,1,87.0,False
63773,6060, Note_on_c,77,55,6,3,1,90.0,True
63774,6060, Note_on_c,82,55,6,3,1,95.0,False
63775,6061, Note_on_c,68,53,6,3,1,79.0,False
63776,6061, Note_on_c,73,53,6,3,1,85.0,False
63777,6062, Note_on_c,70,51,6,3,1,81.0,False
63778,6063, Note_on_c,77,49,6,3,1,90.0,True
63779,6063, Note_on_c,82,49,6,3,1,95.0,False
63780,6064, Note_on_c,68,47,6,3,1,79.0,False
63781,6064, Note_on_c,75,47,6,3,1,87.0,False
63782,6065, Note_on_c,70,46,6,3,1,81.0,False
63783,6066, Note_on_c,77,44,6,3,1,90.0,True
63784,6066, Note_on_c,82,44,6,3,1,95.0,False
63785,6067, Note_on_c,68,42,6,3,1,79.0,False
63786,6067, Note_on_c,75,42,6,3,1,87.0,False
63787,6068, Note_on_c,77,40,6,3,1,90.0,True
63788,6068, Note_on_c,82,40,6,3,1,95.0,False
63789,6069, Note_on_c,68,38,6,3,1,79.0,False
63790,6069, Note_on_c,73,38,6,3,1,85.0,False
63791,6070, Note_on_c,70,36,6,3,1,81.0,False
63792,6071, Note_on_c,77,35,6,3,1,90.0,True
63793,6071, Note_on_c,82,35,6,3,1,95.0,False
63794,6072, Note_on_c,68,33,6,3,1,79.0,False
63795,6072, Note_on_c,75,33,6,3,1,87.0,False
63796,6073, Note_on_c,70,31,6,3,1,81.0,False
63797,6074, Note_on_c,77,29,6,3,1,90.0,True
63798,6074, Note_on_c,82,29,6,3,1,95.0,False
63799,6075, Note_on_c,68,27,6,3,1,79.0,False
63800,6075, Note_on_c,75,27,6,3,1,87.0,False
63801,6076, Note_on_c,77,25,6,3,1,90.0,True
63802,6076, Note_on_c,82,25,6,3,1,95.0,False
63803,6077, Note_on_c,68,24,6,3,1,79.0,False
63804,6077, Note_on_c,73,24,6,3,1,85.0,False
63805,6078, Note_on_c,70,22,6,3,1,81.0,False
63806,6079, Note_on_c,77,20,6,3,1,90.0,True
63807,6079, Note_on_c,82,20,6,3,1,95.0,False
63808,6080, Note_on_c,68,18,6,3,1,79.0,False
63809,6080, Note_on_c,75,18,6,3,1,87.0,False
63810,6081, Note_on_c,70,16,6,3,1,81.0,False
63811,6082, Note_on_c,77,14,6,3,1,90.0,True
63812,6082, Note_on_c,82,14,6,3,1,95.0,False
63813,6083, Note_on_c,68,13,6,3,1,79.0,False
63814,6083, Note_on_c,75,13,6,3,1,87.0,False
63815,6084, Note_on_c,77,11,6,3,1,90.0,True
63816,6084, Note_on_c,82,11,6,3,1,95.0,False
63817,6085, Note_on_c,68,9,6,3,1,79.0,False
63818,6085, Note_on_c,73,9,6,3,1,85.0,False
63819,6086, Note_on_c,70,7,6,3,1,81.0,False
63820,6087, Note_on_c,77,5,6,3,1,90.0,True
63821,6087, Note_on_c,82,5,6,3,1,95.0,False
63822,6088, Note_on_c,68,3,6,3,1,79.0,False
63823,6088, Note_on_c,75,3,6,3,1,87.0,False
63824,6115, Note_on_c,70,108,6,3,1,81.0,False
63825,6115, Note_on_c,75,108,6,3,1,87.0,False
63826,6123, Note_on_c,70,108,6,3,1,81.0,False
63827,6123, Note_on_c,75,108,6,3,1,87.0,False
63828,6131, Note_on_c,70,108,6,3,1,81.0,False
63829,6131, Note_on_c,75,108,6,3,1,87.0,False
63830,6139, Note_on_c,70,108,6,3,1,81.0,False
63831,6139, Note_on_c,75,108,6,3,1,87.0,False
63832,6147, Note_on_c,70,108,6,3,1,81.0,False
63833,6147, Note_on_c,75,108,6,3,1,87.0,False
63834,6155, Note_on_c,70,108,6,3,1,81.0,False
63835,6155, Note_on_c,75,108,6,3,1,87.0,False
63836,6163, Note_on_c,70,108,6,3,1,81.0,False
63837,6163, Note_on_c,75,108,6,3,1,87.0,False
63838,6171, Note_on_c,70,108,6,3,1,81.0,False
63839,6171, Note_on_c,75,108,6,3,1,87.0,False
63840,6179, Note_on_c,70,108,6,3,1,81.0,False
63841,6179, Note_on_c,75,108,6,3,1,87.0,False
63842,6181, Note_on_c,65,108,6,3,1,76.0,True
63843,6187, Note_on_c,70,108,6,3,1,81.0,False
63844,6187, Note_on_c,75,108,6,3,1,87.0,False
63845,6189, Note_on_c,65,108,6,3,1,76.0,True
63846,6195, Note_on_c,70,108,6,3,1,81.0,False
63847,6195, Note_on_c,75,108,6,3,1,87.0,False
63848,6197, Note_on_c,65,108,6,3,1,76.0,True
63849,6203, Note_on_c,70,108,6,3,1,81.0,False
63850,6203, Note_on_c,75,108,6,3,1,87.0,False
63851,6205, Note_on_c,65,108,6,3,1,76.0,True
63852,6211, Note_on_c,70,108,6,3,1,81.0,False
63853,6211, Note_on_c,75,108,6,3,1,87.0,False
63854,6213, Note_on_c,65,108,6,3,1,76.0,True
63855,6219, Note_on_c,70,108,6,3,1,81.0,False
63856,6219, Note_on_c,75,108,6,3,1,87.0,False
63857,6221, Note_on_c,65,108,6,3,1,76.0,True
63858,6227, Note_on_c,70,108,6,3,1,81.0,False
63859,6227, Note_on_c,75,108,6,3,1,87.0,False
63860,6229, Note_on_c,65,108,6,3,1,76.0,True
63861,6235, Note_on_c,70,108,6,3,1,81.0,False
63862,6235, Note_on_c,75,108,6,3,1,87.0,False
63863,6237, Note_on_c,65,108,6,3,1,76.0,True
63864,6242, Note_on_c,65,108,6,3,1,76.0,True
63865,6243, Note_on_c,70,108,6,3,1,81.0,False
63866,6243, Note_on_c,75,108,6,3,1,87.0,False
63867,6245, Note_on_c,65,108,6,3,1,76.0,True
63868,6250, Note_on_c,65,108,6,3,1,76.0,True
63869,6251, Note_on_c,70,108,6,3,1,81.0,False
63870,6251, Note_on_c,75,108,6,3,1,87.0,False
63871,6253, Note_on_c,65,108,6,3,1,76.0,True
63872,6258, Note_on_c,65,108,6,3,1,76.0,True
63873,6259, Note_on_c,70,108,6,3,1,81.0,False
63874,6259, Note_on_c,75,108,6,3,1,87.0,False
63875,6261, Note_on_c,65,108,6,3,1,76.0,True
63876,6266, Note_on_c,65,108,6,3,1,76.0,True
63877,6267, Note_on_c,70,108,6,3,1,81.0,False
63878,6267, Note_on_c,75,108,6,3,1,87.0,False
63879,6269, Note_on_c,65,108,6,3,1,76.0,True
63880,6274, Note_on_c,65,108,6,3,1,76.0,True
63881,6275, Note_on_c,70,108,6,3,1,81.0,False
63882,6275, Note_on_c,75,108,6,3,1,87.0,False
63883,6277, Note_on_c,65,108,6,3,1,76.0,True
63884,6282, Note_on_c,65,108,6,3,1,76.0,True
63885,6283, Note_on_c,70,108,6,3,1,81.0,False
63886,6283, Note_on_c,75,108,6,3,1,87.0,False
63887,6285, Note_on_c,65,108,6,3,1,76.0,True
63888,6290, Note_on_c,65,108,6,3,1,76.0,True
63889,6291, Note_on_c,70,108,6,3,1,81.0,False
63890,6291, Note_on_c,75,108,6,3,1,87.0,False
63891,6293, Note_on_c,65,108,6,3,1,76.0,True
63892,6298, Note_on_c,65,108,6,3,1,76.0,True
63893,6299, Note_on_c,70,108,6,3,1,81.0,False
63894,6299, Note_on_c,75,108,6,3,1,87.0,False
63895,6301, Note_on_c,65,108,6,3,1,76.0,True
63896,6306, Note_on_c,65,108,6,3,1,76.0,True
63897,6307, Note_on_c,70,108,6,3,1,81.0,False
63898,6307, Note_on_c,75,108,6,3,1,87.0,False
63899,6309, Note_on_c,65,108,6,3,1,76.0,True
63900,6310, Note_on_c,70,108,6,3,1,81.0,False
63901,6310, Note_on_c,75,108,6,3,1,87.0,False
63902,6314, Note_on_c,65,108,6,3,1,76.0,True
63903,6315, Note_on_c,70,108,6,3,1,81.0,False
63904,6315, Note_on_c,75,108,6,3,1,87.0,False
63905,6317, Note_on_c,65,108,6,3,1,76.0,True
63906,6318, Note_on_c,70,108,6,3,1,81.0,False
63907,6318, Note_on_c,75,108,6,3,1,87.0,False
63908,6322, Note_on_c,65,108,6,3,1,76.0,True
63909,6323, Note_on_c,70,108,6,3,1,81.0,False
63910,6323, Note_on_c,75,108,6,3,1,87.0,False
63911,6325, Note_on_c,65,108,6,3,1,76.0,True
63912,6326, Note_on_c,70,108,6,3,1,81.0,False
63913,6326, Note_on_c,75,108,6,3,1,87.0,False
63914,6330, Note_on_c,65,108,6,3,1,76.0,True
63915,6331, Note_on_c,70,108,6,3,1,81.0,False
63916,6331, Note_on_c,75,108,6,3,1,87.0,False
63917,6333, Note_on_c,65,108,6,3,1,76.0,True
63918,6334, Note_on_c,70,108,6,3,1,81.0,False
63919,6334, Note_on_c,75,108,6,3,1,87.0,False
63920,6338, Note_on_c,65,108,6,3,1,76.0,True
63921,6339, Note_on_c,70,108,6,3,1,81.0,False
63922,6339, Note_on_c,75,108,6,3,1,87.0,False
63923,6341, Note_on_c,65,108,6,3,1,76.0,True
63924,6342, Note_on_c,70,108,6,3,1,81.0,False
63925,6342, Note_on_c,75,108,6,3,1,87.0,False
63926,6346, Note_on_c,65,108,6,3,1,76.0,True
63927,6347, Note_on_c,70,108,6,3,1,81.0,False
63928,6347, Note_on_c,75,108,6,3,1,87.0,False
63929,6349, Note_on_c,65,108,6,3,1,76.0,True
63930,6350, Note_on_c,70,108,6,3,1,81.0,False
63931,6350, Note_on_c,75,108,6,3,1,87.0,False
63932,6354, Note_on_c,65,108,6,3,1,76.0,True
63933,6355, Note_on_c,70,108,6,3,1,81.0,False
63934,6355, Note_on_c,75,108,6,3,1,87.0,False
63935,6357, Note_on_c,65,108,6,3,1,76.0,True
63936,6358, Note_on_c,70,108,6,3,1,81.0,False
63937,6358, Note_on_c,75,108,6,3,1,87.0,False
63938,6362, Note_on_c,65,108,6,3,1,76.0,True
63939,6363, Note_on_c,70,108,6,3,1,81.0,False
63940,6363, Note_on_c,75,108,6,3,1,87.0,False
63941,6365, Note_on_c,65,108,6,3,1,76.0,True
63942,6366, Note_on_c,70,108,6,3,1,81.0,False
63943,6366, Note_on_c,75,108,6,3,1,87.0,False
63944,6370, Note_on_c,65,108,6,3,1,76.0,True
63945,6371, Note_on_c,70,108,6,3,1,81.0,False
63946,6371, Note_on_c,75,108,6,3,1,87.0,False
63947,6373, Note_on_c,65,108,6,3,1,76.0,True
63948,6374, Note_on_c,70,108,6,3,1,81.0,False
63949,6374, Note_on_c,75,108,6,3,1,87.0,False
63950,6376, Note_on_c,70,108,6,3,1,81.0,False
63951,6376, Note_on_c,75,108,6,3,1,87.0,False
63952,6378, Note_on_c,65,108,6,3,1,76.0,True
63953,6379, Note_on_c,70,108,6,3,1,81.0,False
63954,6379, Note_on_c,75,108,6,3,1,87.0,False
63955,6381, Note_on_c,65,108,6,3,1,76.0,True
63956,6382, Note_on_c,70,108,6,3,1,81.0,False
63957,6382, Note_on_c,75,108,6,3,1,87.0,False
63958,6384, Note_on_c,70,108,6,3,1,81.0,False
63959,6384, Note_on_c,75,108,6,3,1,87.0,False
63960,6386, Note_on_c,65,108,6,3,1,76.0,True
63961,6387, Note_on_c,70,108,6,3,1,81.0,False
63962,6387, Note_on_c,75,108,6,3,1,87.0,False
63963,6389, Note_on_c,65,108,6,3,1,76.0,True
63964,6390, Note_on_c,70,108,6,3,1,81.0,False
63965,6390, Note_on_c,75,108,6,3,1,87.0,False
63966,6392, Note_on_c,70,108,6,3,1,81.0,False
63967,6392, Note_on_c,75,108,6,3,1,87.0,False
63968,6394, Note_on_c,65,108,6,3,1,76.0,True
63969,6395, Note_on_c,70,108,6,3,1,81.0,False
63970,6395, Note_on_c,75,108,6,3,1,87.0,False
63971,6397, Note_on_c,65,108,6,3,1,76.0,True
63972,6398, Note_on_c,70,108,6,3,1,81.0,False
63973,6398, Note_on_c,75,108,6,3,1,87.0,False
63974,6400, Note_on_c,70,108,6,3,1,81.0,False
63975,6400, Note_on_c,75,108,6,3,1,87.0,False
63976,6402, Note_on_c,65,108,6,3,1,76.0,True
63977,6403, Note_on_c,70,108,6,3,1,81.0,False
63978,6403, Note_on_c,75,108,6,3,1,87.0,False
63979,6405, Note_on_c,65,108,6,3,1,76.0,True
63980,6406, Note_on_c,70,108,6,3,1,81.0,False
63981,6406, Note_on_c,75,108,6,3,1,87.0,False
63982,6408, Note_on_c,70,108,6,3,1,81.0,False
63983,6408, Note_on_c,75,108,6,3,1,87.0,False
63984,6410, Note_on_c,65,108,6,3,1,76.0,True
63985,6411, Note_on_c,70,108,6,3,1,81.0,False
63986,6411, Note_on_c,75,108,6,3,1,87.0,False
63987,6413, Note_on_c,65,108,6,3,1,76.0,True
63988,6414, Note_on_c,70,108,6,3,1,81.0,False
63989,6414, Note_on_c,75,108,6,3,1,87.0,False
63990,6416, Note_on_c,70,108,6,3,1,81.0,False
63991,6416, Note_on_c,75,108,6,3,1,87.0,False
63992,6418, Note_on_c,65,108,6,3,1,76.0,True
63993,6419, Note_on_c,70,108,6,3,1,81.0,False
63994,6419, Note_on_c,75,108,6,3,1,87.0,False
63995,6421, Note_on_c,65,108,6,3,1,76.0,True
63996,6422, Note_on_c,70,108,6,3,1,81.0,False
63997,6422, Note_on_c,75,108,6,3,1,87.0,False
63998,6424, Note_on_c,70,108,6,3,1,81.0,False
63999,6424, Note_on_c,75,108,6,3,1,87.0,False
64000,6426, Note_on_c,65,108,6,3,1,76.0,True
64001,6427, Note_on_c,70,108,6,3,1,81.0,False
64002,6427, Note_on_c,75,108,6,3,1,87.0,False
64003,6429, Note_on_c,65,108,6,3,1,76.0,True
64004,6430, Note_on_c,70,108,6,3,1,81.0,False
64005,6430, Note_on_c,75,108,6,3,1,87.0,False
64006,6432, Note_on_c,70,108,6,3,1,81.0,False
64007,6432, Note_on_c,75,108,6,3,1,87.0,False
64008,6434, Note_on_c,65,108,6,3,1,76.0,True
64009,6435, Note_on_c,70,108,6,3,1,81.0,False
64010,6435, Note_on_c,75,108,6,3,1,87.0,False
64011,6437, Note_on_c,65,108,6,3,1,76.0,True
64012,6438, Note_on_c,70,108,6,3,1,81.0,False
64013,6438, Note_on_c,75,108,6,3,1,87.0,False
64014,6439, Note_on_c,72,108,6,3,1,84.0,True
64015,6439, Note_on_c,77,108,6,3,1,90.0,True
64016,6440, Note_on_c,70,108,6,3,1,81.0,False
64017,6440, Note_on_c,75,108,6,3,1,87.0,False
64018,6442, Note_on_c,65,108,6,3,1,76.0,True
64019,6443, Note_on_c,70,108,6,3,1,81.0,False
64020,6443, Note_on_c,75,108,6,3,1,87.0,False
64021,6445, Note_on_c,65,108,6,3,1,76.0,True
64022,6446, Note_on_c,70,108,6,3,1,81.0,False
64023,6446, Note_on_c,75,108,6,3,1,87.0,False
64024,6447, Note_on_c,72,108,6,3,1,84.0,True
64025,6447, Note_on_c,77,108,6,3,1,90.0,True
64026,6448, Note_on_c,70,108,6,3,1,81.0,False
64027,6448, Note_on_c,75,108,6,3,1,87.0,False
64028,6450, Note_on_c,65,108,6,3,1,76.0,True
64029,6451, Note_on_c,70,108,6,3,1,81.0,False
64030,6451, Note_on_c,75,108,6,3,1,87.0,False
64031,6453, Note_on_c,65,108,6,3,1,76.0,True
64032,6454, Note_on_c,70,108,6,3,1,81.0,False
64033,6454, Note_on_c,75,108,6,3,1,87.0,False
64034,6455, Note_on_c,72,108,6,3,1,84.0,True
64035,6455, Note_on_c,77,108,6,3,1,90.0,True
64036,6456, Note_on_c,70,108,6,3,1,81.0,False
64037,6456, Note_on_c,75,108,6,3,1,87.0,False
64038,6458, Note_on_c,65,108,6,3,1,76.0,True
64039,6459, Note_on_c,70,108,6,3,1,81.0,False
64040,6459, Note_on_c,75,108,6,3,1,87.0,False
64041,6461, Note_on_c,65,108,6,3,1,76.0,True
64042,6462, Note_on_c,70,108,6,3,1,81.0,False
64043,6462, Note_on_c,75,108,6,3,1,87.0,False
64044,6463, Note_on_c,72,108,6,3,1,84.0,True
64045,6463, Note_on_c,77,108,6,3,1,90.0,True
64046,6464, Note_on_c,70,108,6,3,1,81.0,False
64047,6464, Note_on_c,75,108,6,3,1,87.0,False
64048,6466, Note_on_c,65,108,6,3,1,76.0,True
64049,6467, Note_on_c,70,108,6,3,1,81.0,False
64050,6467, Note_on_c,75,108,6,3,1,87.0,False
64051,6469, Note_on_c,65,108,6,3,1,76.0,True
64052,6470, Note_on_c,70,108,6,3,1,81.0,False
64053,6470, Note_on_c,75,108,6,3,1,87.0,False
64054,6471, Note_on_c,72,108,6,3,1,84.0,True
64055,6471, Note_on_c,77,108,6,3,1,90.0,True
64056,6472, Note_on_c,70,108,6,3,1,81.0,False
64057,6472, Note_on_c,75,108,6,3,1,87.0,False
64058,6474, Note_on_c,65,108,6,3,1,76.0,True
64059,6475, Note_on_c,70,108,6,3,1,81.0,False
64060,6475, Note_on_c,75,108,6,3,1,87.0,False
64061,6477, Note_on_c,65,108,6,3,1,76.0,True
64062,6478, Note_on_c,70,108,6,3,1,81.0,False
64063,6478, Note_on_c,75,108,6,3,1,87.0,False
64064,6479, Note_on_c,72,108,6,3,1,84.0,True
64065,6479, Note_on_c,77,108,6,3,1,90.0,True
64066,6480, Note_on_c,70,108,6,3,1,81.0,False
64067,6480, Note_on_c,75,108,6,3,1,87.0,False
64068,6482, Note_on_c,65,108,6,3,1,76.0,True
64069,6483, Note_on_c,70,108,6,3,1,81.0,False
64070,6483, Note_on_c,75,108,6,3,1,87.0,False
64071,6485, Note_on_c,65,108,6,3,1,76.0,True
64072,6486, Note_on_c,70,108,6,3,1,81.0,False
64073,6486, Note_on_c,75,108,6,3,1,87.0,False
64074,6487, Note_on_c,72,108,6,3,1,84.0,True
64075,6487, Note_on_c,77,108,6,3,1,90.0,True
64076,6488, Note_on_c,70,108,6,3,1,81.0,False
64077,6488, Note_on_c,75,108,6,3,1,87.0,False
64078,6490, Note_on_c,65,108,6,3,1,76.0,True
64079,6491, Note_on_c,70,108,6,3,1,81.0,False
64080,6491, Note_on_c,75,108,6,3,1,87.0,False
64081,6493, Note_on_c,65,108,6,3,1,76.0,True
64082,6494, Note_on_c,70,108,6,3,1,81.0,False
64083,6494, Note_on_c,75,108,6,3,1,87.0,False
64084,6495, Note_on_c,72,108,6,3,1,84.0,True
64085,6495, Note_on_c,77,108,6,3,1,90.0,True
64086,6496, Note_on_c,70,108,6,3,1,81.0,False
64087,6496, Note_on_c,75,108,6,3,1,87.0,False
64088,6497, Note_on_c,73,108,6,3,1,85.0,False
64089,6497, Note_on_c,77,108,6,3,1,90.0,True
64090,6498, Note_on_c,65,108,6,3,1,76.0,True
64091,6499, Note_on_c,70,108,6,3,1,81.0,False
64092,6499, Note_on_c,75,108,6,3,1,87.0,False
64093,6501, Note_on_c,65,108,6,3,1,76.0,True
64094,6502, Note_on_c,70,108,6,3,1,81.0,False
64095,6502, Note_on_c,75,108,6,3,1,87.0,False
64096,6503, Note_on_c,72,108,6,3,1,84.0,True
64097,6503, Note_on_c,77,108,6,3,1,90.0,True
64098,6504, Note_on_c,70,108,6,3,1,81.0,False
64099,6504, Note_on_c,75,108,6,3,1,87.0,False
64100,6505, Note_on_c,73,108,6,3,1,85.0,False
64101,6505, Note_on_c,77,108,6,3,1,90.0,True
64102,6506, Note_on_c,65,108,6,3,1,76.0,True
64103,6507, Note_on_c,70,108,6,3,1,81.0,False
64104,6507, Note_on_c,75,108,6,3,1,87.0,False
64105,6509, Note_on_c,65,108,6,3,1,76.0,True
64106,6510, Note_on_c,70,108,6,3,1,81.0,False
64107,6510, Note_on_c,75,108,6,3,1,87.0,False
64108,6511, Note_on_c,72,108,6,3,1,84.0,True
64109,6511, Note_on_c,77,108,6,3,1,90.0,True
64110,6512, Note_on_c,70,108,6,3,1,81.0,False
64111,6512, Note_on_c,75,108,6,3,1,87.0,False
64112,6513, Note_on_c,73,108,6,3,1,85.0,False
64113,6513, Note_on_c,77,108,6,3,1,90.0,True
64114,6514, Note_on_c,65,108,6,3,1,76.0,True
64115,6515, Note_on_c,70,108,6,3,1,81.0,False
64116,6515, Note_on_c,75,108,6,3,1,87.0,False
64117,6517, Note_on_c,65,108,6,3,1,76.0,True
64118,6518, Note_on_c,70,108,6,3,1,81.0,False
64119,6518, Note_on_c,75,108,6,3,1,87.0,False
64120,6519, Note_on_c,72,108,6,3,1,84.0,True
64121,6519, Note_on_c,77,108,6,3,1,90.0,True
64122,6520, Note_on_c,70,108,6,3,1,81.0,False
64123,6520, Note_on_c,75,108,6,3,1,87.0,False
64124,6521, Note_on_c,73,108,6,3,1,85.0,False
64125,6521, Note_on_c,77,108,6,3,1,90.0,True
64126,6522, Note_on_c,65,108,6,3,1,76.0,True
64127,6523, Note_on_c,70,108,6,3,1,81.0,False
64128,6523, Note_on_c,75,108,6,3,1,87.0,False
64129,6525, Note_on_c,65,108,6,3,1,76.0,True
64130,6526, Note_on_c,70,108,6,3,1,81.0,False
64131,6526, Note_on_c,75,108,6,3,1,87.0,False
64132,6527, Note_on_c,72,108,6,3,1,84.0,True
64133,6527, Note_on_c,77,108,6,3,1,90.0,True
64134,6528, Note_on_c,70,108,6,3,1,81.0,False
64135,6528, Note_on_c,75,108,6,3,1,87.0,False
64136,6529, Note_on_c,73,108,6,3,1,85.0,False
64137,6529, Note_on_c,77,108,6,3,1,90.0,True
64138,6530, Note_on_c,65,108,6,3,1,76.0,True
64139,6531, Note_on_c,70,108,6,3,1,81.0,False
64140,6531, Note_on_c,75,108,6,3,1,87.0,False
64141,6533, Note_on_c,65,108,6,3,1,76.0,True
64142,6534, Note_on_c,70,108,6,3,1,81.0,False
64143,6534, Note_on_c,75,108,6,3,1,87.0,False
64144,6535, Note_on_c,72,108,6,3,1,84.0,True
64145,6535, Note_on_c,77,108,6,3,1,90.0,True
64146,6536, Note_on_c,70,108,6,3,1,81.0,False
64147,6536, Note_on_c,75,108,6,3,1,87.0,False
64148,6537, Note_on_c,73,108,6,3,1,85.0,False
64149,6537, Note_on_c,77,108,6,3,1,90.0,True
64150,6538, Note_on_c,65,108,6,3,1,76.0,True
64151,6539, Note_on_c,70,108,6,3,1,81.0,False
64152,6539, Note_on_c,75,108,6,3,1,87.0,False
64153,6541, Note_on_c,65,108,6,3,1,76.0,True
64154,6542, Note_on_c,70,108,6,3,1,81.0,False
64155,6542, Note_on_c,75,108,6,3,1,87.0,False
64156,6543, Note_on_c,72,108,6,3,1,84.0,True
64157,6543, Note_on_c,77,108,6,3,1,90.0,True
64158,6544, Note_on_c,70,108,6,3,1,81.0,False
64159,6544, Note_on_c,75,108,6,3,1,87.0,False
64160,6545, Note_on_c,73,108,6,3,1,85.0,False
64161,6545, Note_on_c,77,108,6,3,1,90.0,True
64162,6546, Note_on_c,65,108,6,3,1,76.0,True
64163,6547, Note_on_c,70,108,6,3,1,81.0,False
64164,6547, Note_on_c,75,108,6,3,1,87.0,False
64165,6549, Note_on_c,65,108,6,3,1,76.0,True
64166,6550, Note_on_c,70,108,6,3,1,81.0,False
64167,6550, Note_on_c,75,108,6,3,1,87.0,False
64168,6551, Note_on_c,72,108,6,3,1,84.0,True
64169,6551, Note_on_c,77,108,6,3,1,90.0,True
64170,6552, Note_on_c,70,108,6,3,1,81.0,False
64171,6552, Note_on_c,75,108,6,3,1,87.0,False
64172,6553, Note_on_c,73,108,6,3,1,85.0,False
64173,6553, Note_on_c,77,108,6,3,1,90.0,True
64174,6554, Note_on_c,65,108,6,3,1,76.0,True
64175,6555, Note_on_c,70,108,6,3,1,81.0,False
64176,6555, Note_on_c,75,108,6,3,1,87.0,False
64177,6557, Note_on_c,65,108,6,3,1,76.0,True
64178,6558, Note_on_c,70,108,6,3,1,81.0,False
64179,6558, Note_on_c,75,108,6,3,1,87.0,False
64180,6559, Note_on_c,72,108,6,3,1,84.0,True
64181,6559, Note_on_c,77,108,6,3,1,90.0,True
64182,6560, Note_on_c,70,108,6,3,1,81.0,False
64183,6560, Note_on_c,75,108,6,3,1,87.0,False
64184,6561, Note_on_c,73,108,6,3,1,85.0,False
64185,6561, Note_on_c,77,108,6,3,1,90.0,True
64186,6562, Note_on_c,65,108,6,3,1,76.0,True
64187,6563, Note_on_c,70,108,6,3,1,81.0,False
64188,6563, Note_on_c,75,108,6,3,1,87.0,False
64189,6564, Note_on_c,72,108,6,3,1,84.0,True
64190,6564, Note_on_c,77,108,6,3,1,90.0,True
64191,6565, Note_on_c,65,108,6,3,1,76.0,True
64192,6566, Note_on_c,70,108,6,3,1,81.0,False
64193,6566, Note_on_c,75,108,6,3,1,87.0,False
64194,6567, Note_on_c,72,108,6,3,1,84.0,True
64195,6567, Note_on_c,77,108,6,3,1,90.0,True
64196,6568, Note_on_c,70,108,6,3,1,81.0,False
64197,6568, Note_on_c,75,108,6,3,1,87.0,False
64198,6569, Note_on_c,73,108,6,3,1,85.0,False
64199,6569, Note_on_c,77,108,6,3,1,90.0,True
64200,6570, Note_on_c,65,108,6,3,1,76.0,True
64201,6571, Note_on_c,70,108,6,3,1,81.0,False
64202,6571, Note_on_c,75,108,6,3,1,87.0,False
64203,6572, Note_on_c,72,108,6,3,1,84.0,True
64204,6572, Note_on_c,77,108,6,3,1,90.0,True
64205,6573, Note_on_c,65,108,6,3,1,76.0,True
64206,6574, Note_on_c,70,108,6,3,1,81.0,False
64207,6574, Note_on_c,75,108,6,3,1,87.0,False
64208,6575, Note_on_c,72,108,6,3,1,84.0,True
64209,6575, Note_on_c,77,108,6,3,1,90.0,True
64210,6576, Note_on_c,70,108,6,3,1,81.0,False
64211,6576, Note_on_c,75,108,6,3,1,87.0,False
64212,6577, Note_on_c,73,108,6,3,1,85.0,False
64213,6577, Note_on_c,77,108,6,3,1,90.0,True
64214,6578, Note_on_c,65,108,6,3,1,76.0,True
64215,6579, Note_on_c,70,108,6,3,1,81.0,False
64216,6579, Note_on_c,75,108,6,3,1,87.0,False
64217,6580, Note_on_c,72,108,6,3,1,84.0,True
64218,6580, Note_on_c,77,108,6,3,1,90.0,True
64219,6581, Note_on_c,65,108,6,3,1,76.0,True
64220,6582, Note_on_c,70,108,6,3,1,81.0,False
64221,6582, Note_on_c,75,108,6,3,1,87.0,False
64222,6583, Note_on_c,72,108,6,3,1,84.0,True
64223,6583, Note_on_c,77,108,6,3,1,90.0,True
64224,6584, Note_on_c,70,108,6,3,1,81.0,False
64225,6584, Note_on_c,75,108,6,3,1,87.0,False
64226,6585, Note_on_c,73,108,6,3,1,85.0,False
64227,6585, Note_on_c,77,108,6,3,1,90.0,True
64228,6586, Note_on_c,65,108,6,3,1,76.0,True
64229,6587, Note_on_c,70,108,6,3,1,81.0,False
64230,6587, Note_on_c,75,108,6,3,1,87.0,False
64231,6588, Note_on_c,72,108,6,3,1,84.0,True
64232,6588, Note_on_c,77,108,6,3,1,90.0,True
64233,6589, Note_on_c,65,108,6,3,1,76.0,True
64234,6590, Note_on_c,70,108,6,3,1,81.0,False
64235,6590, Note_on_c,75,108,6,3,1,87.0,False
64236,6591, Note_on_c,72,108,6,3,1,84.0,True
64237,6591, Note_on_c,77,108,6,3,1,90.0,True
64238,6592, Note_on_c,70,108,6,3,1,81.0,False
64239,6592, Note_on_c,75,108,6,3,1,87.0,False
64240,6593, Note_on_c,73,108,6,3,1,85.0,False
64241,6593, Note_on_c,77,108,6,3,1,90.0,True
64242,6594, Note_on_c,65,108,6,3,1,76.0,True
64243,6595, Note_on_c,70,108,6,3,1,81.0,False
64244,6595, Note_on_c,75,108,6,3,1,87.0,False
64245,6596, Note_on_c,72,108,6,3,1,84.0,True
64246,6596, Note_on_c,77,108,6,3,1,90.0,True
64247,6597, Note_on_c,65,108,6,3,1,76.0,True
64248,6598, Note_on_c,70,108,6,3,1,81.0,False
64249,6598, Note_on_c,75,108,6,3,1,87.0,False
64250,6599, Note_on_c,72,108,6,3,1,84.0,True
64251,6599, Note_on_c,77,108,6,3,1,90.0,True
64252,6600, Note_on_c,70,108,6,3,1,81.0,False
64253,6600, Note_on_c,75,108,6,3,1,87.0,False
64254,6601, Note_on_c,73,108,6,3,1,85.0,False
64255,6601, Note_on_c,77,108,6,3,1,90.0,True
64256,6602, Note_on_c,65,108,6,3,1,76.0,True
64257,6603, Note_on_c,70,108,6,3,1,81.0,False
64258,6603, Note_on_c,75,108,6,3,1,87.0,False
64259,6604, Note_on_c,72,108,6,3,1,84.0,True
64260,6604, Note_on_c,77,108,6,3,1,90.0,True
64261,6605, Note_on_c,65,108,6,3,1,76.0,True
64262,6606, Note_on_c,70,108,6,3,1,81.0,False
64263,6606, Note_on_c,75,108,6,3,1,87.0,False
64264,6607, Note_on_c,72,108,6,3,1,84.0,True
64265,6607, Note_on_c,77,108,6,3,1,90.0,True
64266,6608, Note_on_c,70,108,6,3,1,81.0,False
64267,6608, Note_on_c,75,108,6,3,1,87.0,False
64268,6609, Note_on_c,73,108,6,3,1,85.0,False
64269,6609, Note_on_c,77,108,6,3,1,90.0,True
64270,6610, Note_on_c,65,108,6,3,1,76.0,True
64271,6611, Note_on_c,70,108,6,3,1,81.0,False
64272,6611, Note_on_c,75,108,6,3,1,87.0,False
64273,6612, Note_on_c,72,108,6,3,1,84.0,True
64274,6612, Note_on_c,77,108,6,3,1,90.0,True
64275,6613, Note_on_c,65,108,6,3,1,76.0,True
64276,6614, Note_on_c,70,108,6,3,1,81.0,False
64277,6614, Note_on_c,75,108,6,3,1,87.0,False
64278,6615, Note_on_c,72,108,6,3,1,84.0,True
64279,6615, Note_on_c,77,108,6,3,1,90.0,True
64280,6616, Note_on_c,70,108,6,3,1,81.0,False
64281,6616, Note_on_c,75,108,6,3,1,87.0,False
64282,6617, Note_on_c,73,108,6,3,1,85.0,False
64283,6617, Note_on_c,77,108,6,3,1,90.0,True
64284,6618, Note_on_c,65,108,6,3,1,76.0,True
64285,6619, Note_on_c,70,108,6,3,1,81.0,False
64286,6619, Note_on_c,75,108,6,3,1,87.0,False
64287,6620, Note_on_c,72,108,6,3,1,84.0,True
64288,6620, Note_on_c,77,108,6,3,1,90.0,True
64289,6621, Note_on_c,65,108,6,3,1,76.0,True
64290,6622, Note_on_c,70,108,6,3,1,81.0,False
64291,6622, Note_on_c,75,108,6,3,1,87.0,False
64292,6623, Note_on_c,72,108,6,3,1,84.0,True
64293,6623, Note_on_c,77,108,6,3,1,90.0,True
64294,6624, Note_on_c,70,108,6,3,1,81.0,False
64295,6624, Note_on_c,75,108,6,3,1,87.0,False
64296,6625, Note_on_c,73,108,6,3,1,85.0,False
64297,6625, Note_on_c,77,108,6,3,1,90.0,True
64298,6626, Note_on_c,65,104,6,3,1,76.0,True
64299,6627, Note_on_c,70,101,6,3,1,81.0,False
64300,6627, Note_on_c,75,101,6,3,1,87.0,False
64301,6628, Note_on_c,72,99,6,3,1,84.0,True
64302,6628, Note_on_c,77,99,6,3,1,90.0,True
64303,6629, Note_on_c,65,96,6,3,1,76.0,True
64304,6630, Note_on_c,70,93,6,3,1,81.0,False
64305,6630, Note_on_c,75,93,6,3,1,87.0,False
64306,6631, Note_on_c,72,91,6,3,1,84.0,True
64307,6631, Note_on_c,77,91,6,3,1,90.0,True
64308,6632, Note_on_c,70,88,6,3,1,81.0,False
64309,6632, Note_on_c,75,88,6,3,1,87.0,False
64310,6633, Note_on_c,73,86,6,3,1,85.0,False
64311,6633, Note_on_c,77,86,6,3,1,90.0,True
64312,6634, Note_on_c,65,83,6,3,1,76.0,True
64313,6635, Note_on_c,70,80,6,3,1,81.0,False
64314,6635, Note_on_c,75,80,6,3,1,87.0,False
64315,6636, Note_on_c,72,78,6,3,1,84.0,True
64316,6636, Note_on_c,77,78,6,3,1,90.0,True
64317,6637, Note_on_c,65,75,6,3,1,76.0,True
64318,6638, Note_on_c,70,72,6,3,1,81.0,False
64319,6638, Note_on_c,75,72,6,3,1,87.0,False
64320,6639, Note_on_c,72,70,6,3,1,84.0,True
64321,6639, Note_on_c,77,70,6,3,1,90.0,True
64322,6640, Note_on_c,70,67,6,3,1,81.0,False
64323,6640, Note_on_c,75,67,6,3,1,87.0,False
64324,6641, Note_on_c,73,65,6,3,1,85.0,False
64325,6641, Note_on_c,77,65,6,3,1,90.0,True
64326,6642, Note_on_c,65,62,6,3,1,76.0,True
64327,6643, Note_on_c,70,59,6,3,1,81.0,False
64328,6643, Note_on_c,75,59,6,3,1,87.0,False
64329,6644, Note_on_c,72,57,6,3,1,84.0,True
64330,6644, Note_on_c,77,57,6,3,1,90.0,True
64331,6645, Note_on_c,65,54,6,3,1,76.0,True
64332,6646, Note_on_c,70,51,6,3,1,81.0,False
64333,6646, Note_on_c,75,51,6,3,1,87.0,False
64334,6647, Note_on_c,72,49,6,3,1,84.0,True
64335,6647, Note_on_c,77,49,6,3,1,90.0,True
64336,6648, Note_on_c,70,46,6,3,1,81.0,False
64337,6648, Note_on_c,75,46,6,3,1,87.0,False
64338,6649, Note_on_c,73,44,6,3,1,85.0,False
64339,6649, Note_on_c,77,44,6,3,1,90.0,True
64340,6650, Note_on_c,65,41,6,3,1,76.0,True
64341,6651, Note_on_c,70,38,6,3,1,81.0,False
64342,6651, Note_on_c,75,38,6,3,1,87.0,False
64343,6652, Note_on_c,72,36,6,3,1,84.0,True
64344,6652, Note_on_c,77,36,6,3,1,90.0,True
64345,6653, Note_on_c,65,33,6,3,1,76.0,True
64346,6654, Note_on_c,70,30,6,3,1,81.0,False
64347,6654, Note_on_c,75,30,6,3,1,87.0,False
64348,6655, Note_on_c,72,28,6,3,1,84.0,True
64349,6655, Note_on_c,77,28,6,3,1,90.0,True
64350,6656, Note_on_c,70,25,6,3,1,81.0,False
64351,6656, Note_on_c,75,25,6,3,1,87.0,False
64352,6657, Note_on_c,73,23,6,3,1,85.0,False
64353,6657, Note_on_c,77,23,6,3,1,90.0,True
64354,6658, Note_on_c,65,20,6,3,1,76.0,True
64355,6659, Note_on_c,70,17,6,3,1,81.0,False
64356,6659, Note_on_c,75,17,6,3,1,87.0,False
64357,6660, Note_on_c,72,15,6,3,1,84.0,True
64358,6660, Note_on_c,77,15,6,3,1,90.0,True
64359,6661, Note_on_c,65,12,6,3,1,76.0,True
64360,6662, Note_on_c,70,9,6,3,1,81.0,False
64361,6662, Note_on_c,75,9,6,3,1,87.0,False
64362,6663, Note_on_c,72,7,6,3,1,84.0,True
64363,6663, Note_on_c,77,7,6,3,1,90.0,True
64364,6664, Note_on_c,70,4,6,3,1,81.0,False
64365,6664, Note_on_c,75,4,6,3,1,87.0,False
64366,6695, Note_on_c,65,119,6,3,1,76.0,True
64367,6695, Note_on_c,70,119,6,3,1,81.0,False
64368,6703, Note_on_c,65,119,6,3,1,76.0,True
64369,6703, Note_on_c,70,119,6,3,1,81.0,False
64370,6711, Note_on_c,65,119,6,3,1,76.0,True
64371,6711, Note_on_c,70,119,6,3,1,81.0,False
64372,6719, Note_on_c,65,119,6,3,1,76.0,True
64373,6719, Note_on_c,70,119,6,3,1,81.0,False
64374,6727, Note_on_c,65,119,6,3,1,76.0,True
64375,6727, Note_on_c,70,119,6,3,1,81.0,False
64376,6735, Note_on_c,65,119,6,3,1,76.0,True
64377,6735, Note_on_c,70,119,6,3,1,81.0,False
64378,6743, Note_on_c,65,119,6,3,1,76.0,True
64379,6743, Note_on_c,70,119,6,3,1,81.0,False
64380,6751, Note_on_c,65,119,6,3,1,76.0,True
64381,6751, Note_on_c,70,119,6,3,1,81.0,False
64382,6758, Note_on_c,63,119,6,3,1,73.0,False
64383,6758, Note_on_c,68,119,6,3,1,79.0,False
64384,6759, Note_on_c,65,119,6,3,1,76.0,True
64385,6759, Note_on_c,70,119,6,3,1,81.0,False
64386,6766, Note_on_c,63,119,6,3,1,73.0,False
64387,6766, Note_on_c,68,119,6,3,1,79.0,False
64388,6767, Note_on_c,65,119,6,3,1,76.0,True
64389,6767, Note_on_c,70,119,6,3,1,81.0,False
64390,6774, Note_on_c,63,119,6,3,1,73.0,False
64391,6774, Note_on_c,68,119,6,3,1,79.0,False
64392,6775, Note_on_c,65,119,6,3,1,76.0,True
64393,6775, Note_on_c,70,119,6,3,1,81.0,False
64394,6782, Note_on_c,63,119,6,3,1,73.0,False
64395,6782, Note_on_c,68,119,6,3,1,79.0,False
64396,6783, Note_on_c,65,119,6,3,1,76.0,True
64397,6783, Note_on_c,70,119,6,3,1,81.0,False
64398,6790, Note_on_c,63,119,6,3,1,73.0,False
64399,6790, Note_on_c,68,119,6,3,1,79.0,False
64400,6791, Note_on_c,65,119,6,3,1,76.0,True
64401,6791, Note_on_c,70,119,6,3,1,81.0,False
64402,6798, Note_on_c,63,119,6,3,1,73.0,False
64403,6798, Note_on_c,68,119,6,3,1,79.0,False
64404,6799, Note_on_c,65,119,6,3,1,76.0,True
64405,6799, Note_on_c,70,119,6,3,1,81.0,False
64406,6806, Note_on_c,63,119,6,3,1,73.0,False
64407,6806, Note_on_c,68,119,6,3,1,79.0,False
64408,6807, Note_on_c,65,119,6,3,1,76.0,True
64409,6807, Note_on_c,70,119,6,3,1,81.0,False
64410,6814, Note_on_c,63,119,6,3,1,73.0,False
64411,6814, Note_on_c,68,119,6,3,1,79.0,False
64412,6815, Note_on_c,65,119,6,3,1,76.0,True
64413,6815, Note_on_c,70,119,6,3,1,81.0,False
64414,6822, Note_on_c,63,119,6,3,1,73.0,False
64415,6822, Note_on_c,68,119,6,3,1,79.0,False
64416,6823, Note_on_c,65,119,6,3,1,76.0,True
64417,6823, Note_on_c,70,119,6,3,1,81.0,False
64418,6824, Note_on_c,63,119,6,3,1,73.0,False
64419,6824, Note_on_c,68,119,6,3,1,79.0,False
64420,6830, Note_on_c,63,119,6,3,1,73.0,False
64421,6830, Note_on_c,68,119,6,3,1,79.0,False
64422,6831, Note_on_c,65,119,6,3,1,76.0,True
64423,6831, Note_on_c,70,119,6,3,1,81.0,False
64424,6832, Note_on_c,63,119,6,3,1,73.0,False
64425,6832, Note_on_c,68,119,6,3,1,79.0,False
64426,6838, Note_on_c,63,119,6,3,1,73.0,False
64427,6838, Note_on_c,68,119,6,3,1,79.0,False
64428,6839, Note_on_c,65,119,6,3,1,76.0,True
64429,6839, Note_on_c,70,119,6,3,1,81.0,False
64430,6840, Note_on_c,63,119,6,3,1,73.0,False
64431,6840, Note_on_c,68,119,6,3,1,79.0,False
64432,6846, Note_on_c,63,119,6,3,1,73.0,False
64433,6846, Note_on_c,68,119,6,3,1,79.0,False
64434,6847, Note_on_c,65,119,6,3,1,76.0,True
64435,6847, Note_on_c,70,119,6,3,1,81.0,False
64436,6848, Note_on_c,63,119,6,3,1,73.0,False
64437,6848, Note_on_c,68,119,6,3,1,79.0,False
64438,6854, Note_on_c,63,119,6,3,1,73.0,False
64439,6854, Note_on_c,68,119,6,3,1,79.0,False
64440,6855, Note_on_c,65,119,6,3,1,76.0,True
64441,6855, Note_on_c,70,119,6,3,1,81.0,False
64442,6856, Note_on_c,63,119,6,3,1,73.0,False
64443,6856, Note_on_c,68,119,6,3,1,79.0,False
64444,6862, Note_on_c,63,119,6,3,1,73.0,False
64445,6862, Note_on_c,68,119,6,3,1,79.0,False
64446,6863, Note_on_c,65,119,6,3,1,76.0,True
64447,6863, Note_on_c,70,119,6,3,1,81.0,False
64448,6864, Note_on_c,63,119,6,3,1,73.0,False
64449,6864, Note_on_c,68,119,6,3,1,79.0,False
64450,6870, Note_on_c,63,119,6,3,1,73.0,False
64451,6870, Note_on_c,68,119,6,3,1,79.0,False
64452,6871, Note_on_c,65,119,6,3,1,76.0,True
64453,6871, Note_on_c,70,119,6,3,1,81.0,False
64454,6872, Note_on_c,63,119,6,3,1,73.0,False
64455,6872, Note_on_c,68,119,6,3,1,79.0,False
64456,6878, Note_on_c,63,119,6,3,1,73.0,False
64457,6878, Note_on_c,68,119,6,3,1,79.0,False
64458,6879, Note_on_c,65,119,6,3,1,76.0,True
64459,6879, Note_on_c,70,119,6,3,1,81.0,False
64460,6880, Note_on_c,63,119,6,3,1,73.0,False
64461,6880, Note_on_c,68,119,6,3,1,79.0,False
64462,6883, Note_on_c,63,119,6,3,1,73.0,False
64463,6883, Note_on_c,68,119,6,3,1,79.0,False
64464,6886, Note_on_c,63,119,6,3,1,73.0,False
64465,6886, Note_on_c,68,119,6,3,1,79.0,False
64466,6887, Note_on_c,65,119,6,3,1,76.0,True
64467,6887, Note_on_c,70,119,6,3,1,81.0,False
64468,6888, Note_on_c,63,119,6,3,1,73.0,False
64469,6888, Note_on_c,68,119,6,3,1,79.0,False
64470,6891, Note_on_c,63,119,6,3,1,73.0,False
64471,6891, Note_on_c,68,119,6,3,1,79.0,False
64472,6894, Note_on_c,63,119,6,3,1,73.0,False
64473,6894, Note_on_c,68,119,6,3,1,79.0,False
64474,6895, Note_on_c,65,119,6,3,1,76.0,True
64475,6895, Note_on_c,70,119,6,3,1,81.0,False
64476,6896, Note_on_c,63,119,6,3,1,73.0,False
64477,6896, Note_on_c,68,119,6,3,1,79.0,False
64478,6899, Note_on_c,63,119,6,3,1,73.0,False
64479,6899, Note_on_c,68,119,6,3,1,79.0,False
64480,6902, Note_on_c,63,119,6,3,1,73.0,False
64481,6902, Note_on_c,68,119,6,3,1,79.0,False
64482,6903, Note_on_c,65,119,6,3,1,76.0,True
64483,6903, Note_on_c,70,119,6,3,1,81.0,False
64484,6904, Note_on_c,63,119,6,3,1,73.0,False
64485,6904, Note_on_c,68,119,6,3,1,79.0,False
64486,6907, Note_on_c,63,119,6,3,1,73.0,False
64487,6907, Note_on_c,68,119,6,3,1,79.0,False
64488,6910, Note_on_c,63,119,6,3,1,73.0,False
64489,6910, Note_on_c,68,119,6,3,1,79.0,False
64490,6911, Note_on_c,65,119,6,3,1,76.0,True
64491,6911, Note_on_c,70,119,6,3,1,81.0,False
64492,6912, Note_on_c,63,119,6,3,1,73.0,False
64493,6912, Note_on_c,68,119,6,3,1,79.0,False
64494,6915, Note_on_c,63,119,6,3,1,73.0,False
64495,6915, Note_on_c,68,119,6,3,1,79.0,False
64496,6918, Note_on_c,63,119,6,3,1,73.0,False
64497,6918, Note_on_c,68,119,6,3,1,79.0,False
64498,6919, Note_on_c,65,119,6,3,1,76.0,True
64499,6919, Note_on_c,70,119,6,3,1,81.0,False
64500,6920, Note_on_c,63,119,6,3,1,73.0,False
64501,6920, Note_on_c,68,119,6,3,1,79.0,False
64502,6923, Note_on_c,63,119,6,3,1,73.0,False
64503,6923, Note_on_c,68,119,6,3,1,79.0,False
64504,6926, Note_on_c,63,119,6,3,1,73.0,False
64505,6926, Note_on_c,68,119,6,3,1,79.0,False
64506,6927, Note_on_c,65,119,6,3,1,76.0,True
64507,6927, Note_on_c,70,119,6,3,1,81.0,False
64508,6928, Note_on_c,63,119,6,3,1,73.0,False
64509,6928, Note_on_c,68,119,6,3,1,79.0,False
64510,6931, Note_on_c,63,119,6,3,1,73.0,False
64511,6931, Note_on_c,68,119,6,3,1,79.0,False
64512,6934, Note_on_c,63,119,6,3,1,73.0,False
64513,6934, Note_on_c,68,119,6,3,1,79.0,False
64514,6935, Note_on_c,65,119,6,3,1,76.0,True
64515,6935, Note_on_c,70,119,6,3,1,81.0,False
64516,6936, Note_on_c,63,119,6,3,1,73.0,False
64517,6936, Note_on_c,68,119,6,3,1,79.0,False
64518,6939, Note_on_c,63,119,6,3,1,73.0,False
64519,6939, Note_on_c,68,119,6,3,1,79.0,False
64520,6942, Note_on_c,63,119,6,3,1,73.0,False
64521,6942, Note_on_c,68,119,6,3,1,79.0,False
64522,6943, Note_on_c,65,119,6,3,1,76.0,True
64523,6943, Note_on_c,70,119,6,3,1,81.0,False
64524,6944, Note_on_c,63,119,6,3,1,73.0,False
64525,6944, Note_on_c,68,119,6,3,1,79.0,False
64526,6947, Note_on_c,63,119,6,3,1,73.0,False
64527,6947, Note_on_c,68,119,6,3,1,79.0,False
64528,6948, Note_on_c,65,119,6,3,1,76.0,True
64529,6948, Note_on_c,70,119,6,3,1,81.0,False
64530,6950, Note_on_c,63,119,6,3,1,73.0,False
64531,6950, Note_on_c,68,119,6,3,1,79.0,False
64532,6951, Note_on_c,65,119,6,3,1,76.0,True
64533,6951, Note_on_c,70,119,6,3,1,81.0,False
64534,6952, Note_on_c,63,119,6,3,1,73.0,False
64535,6952, Note_on_c,68,119,6,3,1,79.0,False
64536,6955, Note_on_c,63,119,6,3,1,73.0,False
64537,6955, Note_on_c,68,119,6,3,1,79.0,False
64538,6956, Note_on_c,65,119,6,3,1,76.0,True
64539,6956, Note_on_c,70,119,6,3,1,81.0,False
64540,6958, Note_on_c,63,119,6,3,1,73.0,False
64541,6958, Note_on_c,68,119,6,3,1,79.0,False
64542,6959, Note_on_c,65,119,6,3,1,76.0,True
64543,6959, Note_on_c,70,119,6,3,1,81.0,False
64544,6960, Note_on_c,63,119,6,3,1,73.0,False
64545,6960, Note_on_c,68,119,6,3,1,79.0,False
64546,6963, Note_on_c,63,119,6,3,1,73.0,False
64547,6963, Note_on_c,68,119,6,3,1,79.0,False
64548,6964, Note_on_c,65,119,6,3,1,76.0,True
64549,6964, Note_on_c,70,119,6,3,1,81.0,False
64550,6966, Note_on_c,63,119,6,3,1,73.0,False
64551,6966, Note_on_c,68,119,6,3,1,79.0,False
64552,6967, Note_on_c,65,119,6,3,1,76.0,True
64553,6967, Note_on_c,70,119,6,3,1,81.0,False
64554,6968, Note_on_c,63,119,6,3,1,73.0,False
64555,6968, Note_on_c,68,119,6,3,1,79.0,False
64556,6971, Note_on_c,63,119,6,3,1,73.0,False
64557,6971, Note_on_c,68,119,6,3,1,79.0,False
64558,6972, Note_on_c,65,119,6,3,1,76.0,True
64559,6972, Note_on_c,70,119,6,3,1,81.0,False
64560,6974, Note_on_c,63,119,6,3,1,73.0,False
64561,6974, Note_on_c,68,119,6,3,1,79.0,False
64562,6975, Note_on_c,65,119,6,3,1,76.0,True
64563,6975, Note_on_c,70,119,6,3,1,81.0,False
64564,6976, Note_on_c,63,119,6,3,1,73.0,False
64565,6976, Note_on_c,68,119,6,3,1,79.0,False
64566,6979, Note_on_c,63,119,6,3,1,73.0,False
64567,6979, Note_on_c,68,119,6,3,1,79.0,False
64568,6980, Note_on_c,65,119,6,3,1,76.0,True
64569,6980, Note_on_c,70,119,6,3,1,81.0,False
64570,6982, Note_on_c,63,119,6,3,1,73.0,False
64571,6982, Note_on_c,68,119,6,3,1,79.0,False
64572,6983, Note_on_c,65,119,6,3,1,76.0,True
64573,6983, Note_on_c,70,119,6,3,1,81.0,False
64574,6984, Note_on_c,63,119,6,3,1,73.0,False
64575,6984, Note_on_c,68,119,6,3,1,79.0,False
64576,6987, Note_on_c,63,119,6,3,1,73.0,False
64577,6987, Note_on_c,68,119,6,3,1,79.0,False
64578,6988, Note_on_c,65,119,6,3,1,76.0,True
64579,6988, Note_on_c,70,119,6,3,1,81.0,False
64580,6990, Note_on_c,63,119,6,3,1,73.0,False
64581,6990, Note_on_c,68,119,6,3,1,79.0,False
64582,6991, Note_on_c,65,119,6,3,1,76.0,True
64583,6991, Note_on_c,70,119,6,3,1,81.0,False
64584,6992, Note_on_c,63,119,6,3,1,73.0,False
64585,6992, Note_on_c,68,119,6,3,1,79.0,False
64586,6995, Note_on_c,63,119,6,3,1,73.0,False
64587,6995, Note_on_c,68,119,6,3,1,79.0,False
64588,6996, Note_on_c,65,119,6,3,1,76.0,True
64589,6996, Note_on_c,70,119,6,3,1,81.0,False
64590,6998, Note_on_c,63,119,6,3,1,73.0,False
64591,6998, Note_on_c,68,119,6,3,1,79.0,False
64592,6999, Note_on_c,65,119,6,3,1,76.0,True
64593,6999, Note_on_c,70,119,6,3,1,81.0,False
64594,7000, Note_on_c,63,119,6,3,1,73.0,False
64595,7000, Note_on_c,68,119,6,3,1,79.0,False
64596,7003, Note_on_c,63,119,6,3,1,73.0,False
64597,7003, Note_on_c,68,119,6,3,1,79.0,False
64598,7004, Note_on_c,65,119,6,3,1,76.0,True
64599,7004, Note_on_c,70,119,6,3,1,81.0,False
64600,7006, Note_on_c,63,119,6,3,1,73.0,False
64601,7006, Note_on_c,68,119,6,3,1,79.0,False
64602,7007, Note_on_c,65,119,6,3,1,76.0,True
64603,7007, Note_on_c,70,119,6,3,1,81.0,False
64604,7008, Note_on_c,63,119,6,3,1,73.0,False
64605,7008, Note_on_c,68,119,6,3,1,79.0,False
64606,7010, Note_on_c,58,119,6,3,1,67.0,False
64607,7011, Note_on_c,63,119,6,3,1,73.0,False
64608,7011, Note_on_c,68,119,6,3,1,79.0,False
64609,7012, Note_on_c,65,119,6,3,1,76.0,True
64610,7012, Note_on_c,70,119,6,3,1,81.0,False
64611,7014, Note_on_c,63,119,6,3,1,73.0,False
64612,7014, Note_on_c,68,119,6,3,1,79.0,False
64613,7015, Note_on_c,65,119,6,3,1,76.0,True
64614,7015, Note_on_c,70,119,6,3,1,81.0,False
64615,7016, Note_on_c,63,119,6,3,1,73.0,False
64616,7016, Note_on_c,68,119,6,3,1,79.0,False
64617,7018, Note_on_c,58,119,6,3,1,67.0,False
64618,7019, Note_on_c,63,119,6,3,1,73.0,False
64619,7019, Note_on_c,68,119,6,3,1,79.0,False
64620,7020, Note_on_c,65,119,6,3,1,76.0,True
64621,7020, Note_on_c,70,119,6,3,1,81.0,False
64622,7022, Note_on_c,63,119,6,3,1,73.0,False
64623,7022, Note_on_c,68,119,6,3,1,79.0,False
64624,7023, Note_on_c,65,119,6,3,1,76.0,True
64625,7023, Note_on_c,70,119,6,3,1,81.0,False
64626,7024, Note_on_c,63,119,6,3,1,73.0,False
64627,7024, Note_on_c,68,119,6,3,1,79.0,False
64628,7026, Note_on_c,58,119,6,3,1,67.0,False
64629,7027, Note_on_c,63,119,6,3,1,73.0,False
64630,7027, Note_on_c,68,119,6,3,1,79.0,False
64631,7028, Note_on_c,65,119,6,3,1,76.0,True
64632,7028, Note_on_c,70,119,6,3,1,81.0,False
64633,7030, Note_on_c,63,119,6,3,1,73.0,False
64634,7030, Note_on_c,68,119,6,3,1,79.0,False
64635,7031, Note_on_c,65,119,6,3,1,76.0,True
64636,7031, Note_on_c,70,119,6,3,1,81.0,False
64637,7032, Note_on_c,63,119,6,3,1,73.0,False
64638,7032, Note_on_c,68,119,6,3,1,79.0,False
64639,7034, Note_on_c,58,119,6,3,1,67.0,False
64640,7035, Note_on_c,63,119,6,3,1,73.0,False
64641,7035, Note_on_c,68,119,6,3,1,79.0,False
64642,7036, Note_on_c,65,119,6,3,1,76.0,True
64643,7036, Note_on_c,70,119,6,3,1,81.0,False
64644,7038, Note_on_c,63,119,6,3,1,73.0,False
64645,7038, Note_on_c,68,119,6,3,1,79.0,False
64646,7039, Note_on_c,65,119,6,3,1,76.0,True
64647,7039, Note_on_c,70,119,6,3,1,81.0,False
64648,7040, Note_on_c,63,119,6,3,1,73.0,False
64649,7040, Note_on_c,68,119,6,3,1,79.0,False
64650,7042, Note_on_c,58,119,6,3,1,67.0,False
64651,7043, Note_on_c,63,119,6,3,1,73.0,False
64652,7043, Note_on_c,68,119,6,3,1,79.0,False
64653,7044, Note_on_c,65,119,6,3,1,76.0,True
64654,7044, Note_on_c,70,119,6,3,1,81.0,False
64655,7046, Note_on_c,63,119,6,3,1,73.0,False
64656,7046, Note_on_c,68,119,6,3,1,79.0,False
64657,7047, Note_on_c,65,119,6,3,1,76.0,True
64658,7047, Note_on_c,70,119,6,3,1,81.0,False
64659,7048, Note_on_c,63,119,6,3,1,73.0,False
64660,7048, Note_on_c,68,119,6,3,1,79.0,False
64661,7050, Note_on_c,58,119,6,3,1,67.0,False
64662,7051, Note_on_c,63,119,6,3,1,73.0,False
64663,7051, Note_on_c,68,119,6,3,1,79.0,False
64664,7052, Note_on_c,65,119,6,3,1,76.0,True
64665,7052, Note_on_c,70,119,6,3,1,81.0,False
64666,7054, Note_on_c,63,119,6,3,1,73.0,False
64667,7054, Note_on_c,68,119,6,3,1,79.0,False
64668,7055, Note_on_c,65,119,6,3,1,76.0,True
64669,7055, Note_on_c,70,119,6,3,1,81.0,False
64670,7056, Note_on_c,63,119,6,3,1,73.0,False
64671,7056, Note_on_c,68,119,6,3,1,79.0,False
64672,7058, Note_on_c,58,119,6,3,1,67.0,False
64673,7059, Note_on_c,63,119,6,3,1,73.0,False
64674,7059, Note_on_c,68,119,6,3,1,79.0,False
64675,7060, Note_on_c,65,119,6,3,1,76.0,True
64676,7060, Note_on_c,70,119,6,3,1,81.0,False
64677,7062, Note_on_c,63,119,6,3,1,73.0,False
64678,7062, Note_on_c,68,119,6,3,1,79.0,False
64679,7063, Note_on_c,65,119,6,3,1,76.0,True
64680,7063, Note_on_c,70,119,6,3,1,81.0,False
64681,7064, Note_on_c,63,119,6,3,1,73.0,False
64682,7064, Note_on_c,68,119,6,3,1,79.0,False
64683,7066, Note_on_c,58,119,6,3,1,67.0,False
64684,7067, Note_on_c,63,119,6,3,1,73.0,False
64685,7067, Note_on_c,68,119,6,3,1,79.0,False
64686,7068, Note_on_c,65,119,6,3,1,76.0,True
64687,7068, Note_on_c,70,119,6,3,1,81.0,False
64688,7070, Note_on_c,63,119,6,3,1,73.0,False
64689,7070, Note_on_c,68,119,6,3,1,79.0,False
64690,7071, Note_on_c,65,119,6,3,1,76.0,True
64691,7071, Note_on_c,70,119,6,3,1,81.0,False
64692,7072, Note_on_c,63,119,6,3,1,73.0,False
64693,7072, Note_on_c,68,119,6,3,1,79.0,False
64694,7073, Note_on_c,66,119,6,3,1,77.0,False
64695,7073, Note_on_c,70,119,6,3,1,81.0,False
64696,7074, Note_on_c,58,119,6,3,1,67.0,False
64697,7075, Note_on_c,63,119,6,3,1,73.0,False
64698,7075, Note_on_c,68,119,6,3,1,79.0,False
64699,7076, Note_on_c,65,119,6,3,1,76.0,True
64700,7076, Note_on_c,70,119,6,3,1,81.0,False
64701,7078, Note_on_c,63,119,6,3,1,73.0,False
64702,7078, Note_on_c,68,119,6,3,1,79.0,False
64703,7079, Note_on_c,65,119,6,3,1,76.0,True
64704,7079, Note_on_c,70,119,6,3,1,81.0,False
64705,7080, Note_on_c,63,119,6,3,1,73.0,False
64706,7080, Note_on_c,68,119,6,3,1,79.0,False
64707,7081, Note_on_c,66,119,6,3,1,77.0,False
64708,7081, Note_on_c,70,119,6,3,1,81.0,False
64709,7082, Note_on_c,58,119,6,3,1,67.0,False
64710,7083, Note_on_c,63,119,6,3,1,73.0,False
64711,7083, Note_on_c,68,119,6,3,1,79.0,False
64712,7084, Note_on_c,65,119,6,3,1,76.0,True
64713,7084, Note_on_c,70,119,6,3,1,81.0,False
64714,7086, Note_on_c,63,119,6,3,1,73.0,False
64715,7086, Note_on_c,68,119,6,3,1,79.0,False
64716,7087, Note_on_c,65,119,6,3,1,76.0,True
64717,7087, Note_on_c,70,119,6,3,1,81.0,False
64718,7088, Note_on_c,63,119,6,3,1,73.0,False
64719,7088, Note_on_c,68,119,6,3,1,79.0,False
64720,7089, Note_on_c,66,119,6,3,1,77.0,False
64721,7089, Note_on_c,70,119,6,3,1,81.0,False
64722,7090, Note_on_c,58,119,6,3,1,67.0,False
64723,7091, Note_on_c,63,119,6,3,1,73.0,False
64724,7091, Note_on_c,68,119,6,3,1,79.0,False
64725,7092, Note_on_c,65,119,6,3,1,76.0,True
64726,7092, Note_on_c,70,119,6,3,1,81.0,False
64727,7094, Note_on_c,63,119,6,3,1,73.0,False
64728,7094, Note_on_c,68,119,6,3,1,79.0,False
64729,7095, Note_on_c,65,119,6,3,1,76.0,True
64730,7095, Note_on_c,70,119,6,3,1,81.0,False
64731,7096, Note_on_c,63,119,6,3,1,73.0,False
64732,7096, Note_on_c,68,119,6,3,1,79.0,False
64733,7097, Note_on_c,66,119,6,3,1,77.0,False
64734,7097, Note_on_c,70,119,6,3,1,81.0,False
64735,7098, Note_on_c,58,119,6,3,1,67.0,False
64736,7099, Note_on_c,63,119,6,3,1,73.0,False
64737,7099, Note_on_c,68,119,6,3,1,79.0,False
64738,7100, Note_on_c,65,119,6,3,1,76.0,True
64739,7100, Note_on_c,70,119,6,3,1,81.0,False
64740,7102, Note_on_c,63,119,6,3,1,73.0,False
64741,7102, Note_on_c,68,119,6,3,1,79.0,False
64742,7103, Note_on_c,65,119,6,3,1,76.0,True
64743,7103, Note_on_c,70,119,6,3,1,81.0,False
64744,7104, Note_on_c,63,119,6,3,1,73.0,False
64745,7104, Note_on_c,68,119,6,3,1,79.0,False
64746,7105, Note_on_c,66,119,6,3,1,77.0,False
64747,7105, Note_on_c,70,119,6,3,1,81.0,False
64748,7106, Note_on_c,58,119,6,3,1,67.0,False
64749,7107, Note_on_c,63,119,6,3,1,73.0,False
64750,7107, Note_on_c,68,119,6,3,1,79.0,False
64751,7108, Note_on_c,65,119,6,3,1,76.0,True
64752,7108, Note_on_c,70,119,6,3,1,81.0,False
64753,7110, Note_on_c,63,119,6,3,1,73.0,False
64754,7110, Note_on_c,68,119,6,3,1,79.0,False
64755,7111, Note_on_c,65,119,6,3,1,76.0,True
64756,7111, Note_on_c,70,119,6,3,1,81.0,False
64757,7112, Note_on_c,63,119,6,3,1,73.0,False
64758,7112, Note_on_c,68,119,6,3,1,79.0,False
64759,7113, Note_on_c,66,119,6,3,1,77.0,False
64760,7113, Note_on_c,70,119,6,3,1,81.0,False
64761,7114, Note_on_c,58,119,6,3,1,67.0,False
64762,7115, Note_on_c,63,119,6,3,1,73.0,False
64763,7115, Note_on_c,68,119,6,3,1,79.0,False
64764,7116, Note_on_c,65,119,6,3,1,76.0,True
64765,7116, Note_on_c,70,119,6,3,1,81.0,False
64766,7118, Note_on_c,63,119,6,3,1,73.0,False
64767,7118, Note_on_c,68,119,6,3,1,79.0,False
64768,7119, Note_on_c,65,119,6,3,1,76.0,True
64769,7119, Note_on_c,70,119,6,3,1,81.0,False
64770,7120, Note_on_c,63,119,6,3,1,73.0,False
64771,7120, Note_on_c,68,119,6,3,1,79.0,False
64772,7121, Note_on_c,66,119,6,3,1,77.0,False
64773,7121, Note_on_c,70,119,6,3,1,81.0,False
64774,7122, Note_on_c,58,119,6,3,1,67.0,False
64775,7123, Note_on_c,63,119,6,3,1,73.0,False
64776,7123, Note_on_c,68,119,6,3,1,79.0,False
64777,7124, Note_on_c,65,119,6,3,1,76.0,True
64778,7124, Note_on_c,70,119,6,3,1,81.0,False
64779,7126, Note_on_c,63,119,6,3,1,73.0,False
64780,7126, Note_on_c,68,119,6,3,1,79.0,False
64781,7127, Note_on_c,65,119,6,3,1,76.0,True
64782,7127, Note_on_c,70,119,6,3,1,81.0,False
64783,7128, Note_on_c,63,119,6,3,1,73.0,False
64784,7128, Note_on_c,68,119,6,3,1,79.0,False
64785,7129, Note_on_c,66,119,6,3,1,77.0,False
64786,7129, Note_on_c,70,119,6,3,1,81.0,False
64787,7130, Note_on_c,58,119,6,3,1,67.0,False
64788,7131, Note_on_c,63,119,6,3,1,73.0,False
64789,7131, Note_on_c,68,119,6,3,1,79.0,False
64790,7132, Note_on_c,65,119,6,3,1,76.0,True
64791,7132, Note_on_c,70,119,6,3,1,81.0,False
64792,7134, Note_on_c,63,119,6,3,1,73.0,False
64793,7134, Note_on_c,68,119,6,3,1,79.0,False
64794,7135, Note_on_c,65,119,6,3,1,76.0,True
64795,7135, Note_on_c,70,119,6,3,1,81.0,False
64796,7136, Note_on_c,63,119,6,3,1,73.0,False
64797,7136, Note_on_c,68,119,6,3,1,79.0,False
64798,7137, Note_on_c,66,119,6,3,1,77.0,False
64799,7137, Note_on_c,70,119,6,3,1,81.0,False
64800,7138, Note_on_c,58,119,6,3,1,67.0,False
64801,7139, Note_on_c,63,119,6,3,1,73.0,False
64802,7139, Note_on_c,68,119,6,3,1,79.0,False
64803,7140, Note_on_c,65,119,6,3,1,76.0,True
64804,7140, Note_on_c,70,119,6,3,1,81.0,False
64805,7141, Note_on_c,58,119,6,3,1,67.0,False
64806,7142, Note_on_c,63,119,6,3,1,73.0,False
64807,7142, Note_on_c,68,119,6,3,1,79.0,False
64808,7143, Note_on_c,65,119,6,3,1,76.0,True
64809,7143, Note_on_c,70,119,6,3,1,81.0,False
64810,7144, Note_on_c,63,119,6,3,1,73.0,False
64811,7144, Note_on_c,68,119,6,3,1,79.0,False
64812,7145, Note_on_c,66,119,6,3,1,77.0,False
64813,7145, Note_on_c,70,119,6,3,1,81.0,False
64814,7146, Note_on_c,58,119,6,3,1,67.0,False
64815,7147, Note_on_c,63,119,6,3,1,73.0,False
64816,7147, Note_on_c,68,119,6,3,1,79.0,False
64817,7148, Note_on_c,65,119,6,3,1,76.0,True
64818,7148, Note_on_c,70,119,6,3,1,81.0,False
64819,7149, Note_on_c,58,119,6,3,1,67.0,False
64820,7150, Note_on_c,63,119,6,3,1,73.0,False
64821,7150, Note_on_c,68,119,6,3,1,79.0,False
64822,7151, Note_on_c,65,119,6,3,1,76.0,True
64823,7151, Note_on_c,70,119,6,3,1,81.0,False
64824,7152, Note_on_c,63,119,6,3,1,73.0,False
64825,7152, Note_on_c,68,119,6,3,1,79.0,False
64826,7153, Note_on_c,66,119,6,3,1,77.0,False
64827,7153, Note_on_c,70,119,6,3,1,81.0,False
64828,7154, Note_on_c,58,119,6,3,1,67.0,False
64829,7155, Note_on_c,63,119,6,3,1,73.0,False
64830,7155, Note_on_c,68,119,6,3,1,79.0,False
64831,7156, Note_on_c,65,119,6,3,1,76.0,True
64832,7156, Note_on_c,70,119,6,3,1,81.0,False
64833,7157, Note_on_c,58,119,6,3,1,67.0,False
64834,7158, Note_on_c,63,119,6,3,1,73.0,False
64835,7158, Note_on_c,68,119,6,3,1,79.0,False
64836,7159, Note_on_c,65,119,6,3,1,76.0,True
64837,7159, Note_on_c,70,119,6,3,1,81.0,False
64838,7160, Note_on_c,63,119,6,3,1,73.0,False
64839,7160, Note_on_c,68,119,6,3,1,79.0,False
64840,7161, Note_on_c,66,119,6,3,1,77.0,False
64841,7161, Note_on_c,70,119,6,3,1,81.0,False
64842,7162, Note_on_c,58,119,6,3,1,67.0,False
64843,7163, Note_on_c,63,119,6,3,1,73.0,False
64844,7163, Note_on_c,68,119,6,3,1,79.0,False
64845,7164, Note_on_c,65,119,6,3,1,76.0,True
64846,7164, Note_on_c,70,119,6,3,1,81.0,False
64847,7165, Note_on_c,58,119,6,3,1,67.0,False
64848,7166, Note_on_c,63,119,6,3,1,73.0,False
64849,7166, Note_on_c,68,119,6,3,1,79.0,False
64850,7167, Note_on_c,65,119,6,3,1,76.0,True
64851,7167, Note_on_c,70,119,6,3,1,81.0,False
64852,7168, Note_on_c,63,119,6,3,1,73.0,False
64853,7168, Note_on_c,68,119,6,3,1,79.0,False
64854,7169, Note_on_c,66,119,6,3,1,77.0,False
64855,7169, Note_on_c,70,119,6,3,1,81.0,False
64856,7170, Note_on_c,58,119,6,3,1,67.0,False
64857,7171, Note_on_c,63,119,6,3,1,73.0,False
64858,7171, Note_on_c,68,119,6,3,1,79.0,False
64859,7172, Note_on_c,65,119,6,3,1,76.0,True
64860,7172, Note_on_c,70,119,6,3,1,81.0,False
64861,7173, Note_on_c,58,119,6,3,1,67.0,False
64862,7174, Note_on_c,63,119,6,3,1,73.0,False
64863,7174, Note_on_c,68,119,6,3,1,79.0,False
64864,7175, Note_on_c,65,119,6,3,1,76.0,True
64865,7175, Note_on_c,70,119,6,3,1,81.0,False
64866,7176, Note_on_c,63,119,6,3,1,73.0,False
64867,7176, Note_on_c,68,119,6,3,1,79.0,False
64868,7177, Note_on_c,66,119,6,3,1,77.0,False
64869,7177, Note_on_c,70,119,6,3,1,81.0,False
64870,7178, Note_on_c,58,119,6,3,1,67.0,False
64871,7179, Note_on_c,63,119,6,3,1,73.0,False
64872,7179, Note_on_c,68,119,6,3,1,79.0,False
64873,7180, Note_on_c,65,119,6,3,1,76.0,True
64874,7180, Note_on_c,70,119,6,3,1,81.0,False
64875,7181, Note_on_c,58,119,6,3,1,67.0,False
64876,7182, Note_on_c,63,119,6,3,1,73.0,False
64877,7182, Note_on_c,68,119,6,3,1,79.0,False
64878,7183, Note_on_c,65,119,6,3,1,76.0,True
64879,7183, Note_on_c,70,119,6,3,1,81.0,False
64880,7184, Note_on_c,63,119,6,3,1,73.0,False
64881,7184, Note_on_c,68,119,6,3,1,79.0,False
64882,7185, Note_on_c,66,119,6,3,1,77.0,False
64883,7185, Note_on_c,70,119,6,3,1,81.0,False
64884,7186, Note_on_c,58,119,6,3,1,67.0,False
64885,7187, Note_on_c,63,119,6,3,1,73.0,False
64886,7187, Note_on_c,68,119,6,3,1,79.0,False
64887,7188, Note_on_c,65,119,6,3,1,76.0,True
64888,7188, Note_on_c,70,119,6,3,1,81.0,False
64889,7189, Note_on_c,58,119,6,3,1,67.0,False
64890,7190, Note_on_c,63,119,6,3,1,73.0,False
64891,7190, Note_on_c,68,119,6,3,1,79.0,False
64892,7191, Note_on_c,65,119,6,3,1,76.0,True
64893,7191, Note_on_c,70,119,6,3,1,81.0,False
64894,7192, Note_on_c,63,119,6,3,1,73.0,False
64895,7192, Note_on_c,68,119,6,3,1,79.0,False
64896,7193, Note_on_c,66,119,6,3,1,77.0,False
64897,7193, Note_on_c,70,119,6,3,1,81.0,False
64898,7194, Note_on_c,58,119,6,3,1,67.0,False
64899,7195, Note_on_c,63,119,6,3,1,73.0,False
64900,7195, Note_on_c,68,119,6,3,1,79.0,False
64901,7196, Note_on_c,65,119,6,3,1,76.0,True
64902,7196, Note_on_c,70,119,6,3,1,81.0,False
64903,7197, Note_on_c,58,119,6,3,1,67.0,False
64904,7198, Note_on_c,63,119,6,3,1,73.0,False
64905,7198, Note_on_c,68,119,6,3,1,79.0,False
64906,7199, Note_on_c,65,119,6,3,1,76.0,True
64907,7199, Note_on_c,70,119,6,3,1,81.0,False
64908,7200, Note_on_c,63,119,6,3,1,73.0,False
64909,7200, Note_on_c,68,119,6,3,1,79.0,False
64910,7201, Note_on_c,66,119,6,3,1,77.0,False
64911,7201, Note_on_c,70,119,6,3,1,81.0,False
64912,7202, Note_on_c,58,117,6,3,1,67.0,False
64913,7203, Note_on_c,63,115,6,3,1,73.0,False
64914,7203, Note_on_c,68,115,6,3,1,79.0,False
64915,7204, Note_on_c,65,114,6,3,1,76.0,True
64916,7204, Note_on_c,70,114,6,3,1,81.0,False
64917,7205, Note_on_c,58,112,6,3,1,67.0,False
64918,7206, Note_on_c,63,110,6,3,1,73.0,False
64919,7206, Note_on_c,68,110,6,3,1,79.0,False
64920,7207, Note_on_c,65,108,6,3,1,76.0,True
64921,7207, Note_on_c,70,108,6,3,1,81.0,False
64922,7208, Note_on_c,63,107,6,3,1,73.0,False
64923,7208, Note_on_c,68,107,6,3,1,79.0,False
64924,7209, Note_on_c,66,105,6,3,1,77.0,False
64925,7209, Note_on_c,70,105,6,3,1,81.0,False
64926,7210, Note_on_c,58,103,6,3,1,67.0,False
64927,7211, Note_on_c,63,102,6,3,1,73.0,False
64928,7211, Note_on_c,68,102,6,3,1,79.0,False
64929,7212, Note_on_c,65,100,6,3,1,76.0,True
64930,7212, Note_on_c,70,100,6,3,1,81.0,False
64931,7213, Note_on_c,58,98,6,3,1,67.0,False
64932,7214, Note_on_c,63,96,6,3,1,73.0,False
64933,7214, Note_on_c,68,96,6,3,1,79.0,False
64934,7215, Note_on_c,65,95,6,3,1,76.0,True
64935,7215, Note_on_c,70,95,6,3,1,81.0,False
64936,7216, Note_on_c,63,93,6,3,1,73.0,False
64937,7216, Note_on_c,68,93,6,3,1,79.0,False
64938,7217, Note_on_c,66,91,6,3,1,77.0,False
64939,7217, Note_on_c,70,91,6,3,1,81.0,False
64940,7218, Note_on_c,58,90,6,3,1,67.0,False
64941,7219, Note_on_c,63,88,6,3,1,73.0,False
64942,7219, Note_on_c,68,88,6,3,1,79.0,False
64943,7220, Note_on_c,65,86,6,3,1,76.0,True
64944,7220, Note_on_c,70,86,6,3,1,81.0,False
64945,7221, Note_on_c,58,84,6,3,1,67.0,False
64946,7222, Note_on_c,63,83,6,3,1,73.0,False
64947,7222, Note_on_c,68,83,6,3,1,79.0,False
64948,7223, Note_on_c,65,81,6,3,1,76.0,True
64949,7223, Note_on_c,70,81,6,3,1,81.0,False
64950,7224, Note_on_c,63,79,6,3,1,73.0,False
64951,7224, Note_on_c,68,79,6,3,1,79.0,False
64952,7225, Note_on_c,66,76,6,3,1,77.0,False
64953,7225, Note_on_c,70,76,6,3,1,81.0,False
64954,7226, Note_on_c,58,76,6,3,1,67.0,False
64955,7227, Note_on_c,63,76,6,3,1,73.0,False
64956,7227, Note_on_c,68,76,6,3,1,79.0,False
64957,7228, Note_on_c,65,76,6,3,1,76.0,True
64958,7228, Note_on_c,70,76,6,3,1,81.0,False
64959,7229, Note_on_c,58,76,6,3,1,67.0,False
64960,7230, Note_on_c,63,76,6,3,1,73.0,False
64961,7230, Note_on_c,68,76,6,3,1,79.0,False
64962,7231, Note_on_c,65,76,6,3,1,76.0,True
64963,7231, Note_on_c,70,76,6,3,1,81.0,False
64964,7232, Note_on_c,63,76,6,3,1,73.0,False
64965,7232, Note_on_c,68,76,6,3,1,79.0,False
64966,7233, Note_on_c,66,76,6,3,1,77.0,False
64967,7233, Note_on_c,70,76,6,3,1,81.0,False
64968,7234, Note_on_c,58,76,6,3,1,67.0,False
64969,7235, Note_on_c,63,76,6,3,1,73.0,False
64970,7235, Note_on_c,68,76,6,3,1,79.0,False
64971,7236, Note_on_c,65,76,6,3,1,76.0,True
64972,7236, Note_on_c,70,76,6,3,1,81.0,False
64973,7237, Note_on_c,58,76,6,3,1,67.0,False
64974,7238, Note_on_c,63,76,6,3,1,73.0,False
64975,7238, Note_on_c,68,76,6,3,1,79.0,False
64976,7239, Note_on_c,65,76,6,3,1,76.0,True
64977,7239, Note_on_c,70,76,6,3,1,81.0,False
64978,7240, Note_on_c,63,76,6,3,1,73.0,False
64979,7240, Note_on_c,68,76,6,3,1,79.0,False
64980,7241, Note_on_c,66,76,6,3,1,77.0,False
64981,7241, Note_on_c,70,76,6,3,1,81.0,False
64982,7242, Note_on_c,58,76,6,3,1,67.0,False
64983,7243, Note_on_c,63,76,6,3,1,73.0,False
64984,7243, Note_on_c,68,76,6,3,1,79.0,False
64985,7244, Note_on_c,65,76,6,3,1,76.0,True
64986,7244, Note_on_c,70,76,6,3,1,81.0,False
64987,7245, Note_on_c,58,76,6,3,1,67.0,False
64988,7246, Note_on_c,63,76,6,3,1,73.0,False
64989,7246, Note_on_c,68,76,6,3,1,79.0,False
64990,7247, Note_on_c,65,76,6,3,1,76.0,True
64991,7247, Note_on_c,70,76,6,3,1,81.0,False
64992,7248, Note_on_c,63,76,6,3,1,73.0,False
64993,7248, Note_on_c,68,76,6,3,1,79.0,False
64994,7249, Note_on_c,66,76,6,3,1,77.0,False
64995,7249, Note_on_c,70,76,6,3,1,81.0,False
64996,7250, Note_on_c,58,76,6,3,1,67.0,False
64997,7251, Note_on_c,63,76,6,3,1,73.0,False
64998,7251, Note_on_c,68,76,6,3,1,79.0,False
64999,7252, Note_on_c,65,76,6,3,1,76.0,True
65000,7252, Note_on_c,70,76,6,3,1,81.0,False
65001,7253, Note_on_c,58,76,6,3,1,67.0,False
65002,7254, Note_on_c,63,76,6,3,1,73.0,False
65003,7254, Note_on_c,68,76,6,3,1,79.0,False
65004,7255, Note_on_c,65,76,6,3,1,76.0,True
65005,7255, Note_on_c,70,76,6,3,1,81.0,False
65006,7256, Note_on_c,63,76,6,3,1,73.0,False
65007,7256, Note_on_c,68,76,6,3,1,79.0,False
65008,7257, Note_on_c,66,76,6,3,1,77.0,False
65009,7257, Note_on_c,70,76,6,3,1,81.0,False
65010,7258, Note_on_c,58,76,6,3,1,67.0,False
65011,7259, Note_on_c,63,76,6,3,1,73.0,False
65012,7259, Note_on_c,68,76,6,3,1,79.0,False
65013,7260, Note_on_c,65,76,6,3,1,76.0,True
65014,7260, Note_on_c,70,76,6,3,1,81.0,False
65015,7261, Note_on_c,58,76,6,3,1,67.0,False
65016,7262, Note_on_c,63,76,6,3,1,73.0,False
65017,7262, Note_on_c,68,76,6,3,1,79.0,False
65018,7263, Note_on_c,65,76,6,3,1,76.0,True
65019,7263, Note_on_c,70,76,6,3,1,81.0,False
65020,7264, Note_on_c,63,76,6,3,1,73.0,False
65021,7264, Note_on_c,68,76,6,3,1,79.0,False
65022,7265, Note_on_c,66,77,6,3,1,77.0,False
65023,7265, Note_on_c,70,77,6,3,1,81.0,False
65024,7266, Note_on_c,58,77,6,3,1,67.0,False
65025,7267, Note_on_c,63,78,6,3,1,73.0,False
65026,7267, Note_on_c,68,78,6,3,1,79.0,False
65027,7268, Note_on_c,65,79,6,3,1,76.0,True
65028,7268, Note_on_c,70,79,6,3,1,81.0,False
65029,7269, Note_on_c,58,79,6,3,1,67.0,False
65030,7270, Note_on_c,63,80,6,3,1,73.0,False
65031,7270, Note_on_c,68,80,6,3,1,79.0,False
65032,7271, Note_on_c,65,80,6,3,1,76.0,True
65033,7271, Note_on_c,70,80,6,3,1,81.0,False
65034,7272, Note_on_c,63,81,6,3,1,73.0,False
65035,7272, Note_on_c,68,81,6,3,1,79.0,False
65036,7273, Note_on_c,66,82,6,3,1,77.0,False
65037,7273, Note_on_c,70,82,6,3,1,81.0,False
65038,7274, Note_on_c,58,82,6,3,1,67.0,False
65039,7275, Note_on_c,63,83,6,3,1,73.0,False
65040,7275, Note_on_c,68,83,6,3,1,79.0,False
65041,7276, Note_on_c,65,84,6,3,1,76.0,True
65042,7276, Note_on_c,70,84,6,3,1,81.0,False
65043,7277, Note_on_c,58,84,6,3,1,67.0,False
65044,7278, Note_on_c,63,85,6,3,1,73.0,False
65045,7278, Note_on_c,68,85,6,3,1,79.0,False
65046,7279, Note_on_c,65,86,6,3,1,76.0,True
65047,7279, Note_on_c,70,86,6,3,1,81.0,False
65048,7280, Note_on_c,63,86,6,3,1,73.0,False
65049,7280, Note_on_c,68,86,6,3,1,79.0,False
65050,7281, Note_on_c,66,87,6,3,1,77.0,False
65051,7281, Note_on_c,70,87,6,3,1,81.0,False
65052,7282, Note_on_c,58,88,6,3,1,67.0,False
65053,7283, Note_on_c,63,88,6,3,1,73.0,False
65054,7283, Note_on_c,68,88,6,3,1,79.0,False
65055,7284, Note_on_c,65,89,6,3,1,76.0,True
65056,7284, Note_on_c,70,89,6,3,1,81.0,False
65057,7285, Note_on_c,58,89,6,3,1,67.0,False
65058,7286, Note_on_c,63,90,6,3,1,73.0,False
65059,7286, Note_on_c,68,90,6,3,1,79.0,False
65060,7287, Note_on_c,65,91,6,3,1,76.0,True
65061,7287, Note_on_c,70,91,6,3,1,81.0,False
65062,7288, Note_on_c,63,91,6,3,1,73.0,False
65063,7288, Note_on_c,68,91,6,3,1,79.0,False
65064,7289, Note_on_c,66,92,6,3,1,77.0,False
65065,7289, Note_on_c,70,92,6,3,1,81.0,False
65066,7290, Note_on_c,58,93,6,3,1,67.0,False
65067,7291, Note_on_c,63,93,6,3,1,73.0,False
65068,7291, Note_on_c,68,93,6,3,1,79.0,False
65069,7292, Note_on_c,65,94,6,3,1,76.0,True
65070,7292, Note_on_c,70,94,6,3,1,81.0,False
65071,7293, Note_on_c,58,95,6,3,1,67.0,False
65072,7294, Note_on_c,63,95,6,3,1,73.0,False
65073,7294, Note_on_c,68,95,6,3,1,79.0,False
65074,7295, Note_on_c,65,96,6,3,1,76.0,True
65075,7295, Note_on_c,70,96,6,3,1,81.0,False
65076,7296, Note_on_c,63,97,6,3,1,73.0,False
65077,7296, Note_on_c,68,97,6,3,1,79.0,False
65078,7297, Note_on_c,66,97,6,3,1,77.0,False
65079,7297, Note_on_c,70,97,6,3,1,81.0,False
65080,7298, Note_on_c,58,98,6,3,1,67.0,False
65081,7299, Note_on_c,63,98,6,3,1,73.0,False
65082,7299, Note_on_c,68,98,6,3,1,79.0,False
65083,7300, Note_on_c,65,99,6,3,1,76.0,True
65084,7300, Note_on_c,70,99,6,3,1,81.0,False
65085,7301, Note_on_c,58,100,6,3,1,67.0,False
65086,7302, Note_on_c,63,100,6,3,1,73.0,False
65087,7302, Note_on_c,68,100,6,3,1,79.0,False
65088,7303, Note_on_c,65,101,6,3,1,76.0,True
65089,7303, Note_on_c,70,101,6,3,1,81.0,False
65090,7304, Note_on_c,63,102,6,3,1,73.0,False
65091,7304, Note_on_c,68,102,6,3,1,79.0,False
65092,7305, Note_on_c,66,102,6,3,1,77.0,False
65093,7305, Note_on_c,70,102,6,3,1,81.0,False
65094,7306, Note_on_c,58,103,6,3,1,67.0,False
65095,7307, Note_on_c,63,104,6,3,1,73.0,False
65096,7307, Note_on_c,68,104,6,3,1,79.0,False
65097,7308, Note_on_c,65,104,6,3,1,76.0,True
65098,7308, Note_on_c,70,104,6,3,1,81.0,False
65099,7309, Note_on_c,58,105,6,3,1,67.0,False
65100,7310, Note_on_c,63,106,6,3,1,73.0,False
65101,7310, Note_on_c,68,106,6,3,1,79.0,False
65102,7311, Note_on_c,65,106,6,3,1,76.0,True
65103,7311, Note_on_c,70,106,6,3,1,81.0,False
65104,7312, Note_on_c,63,107,6,3,1,73.0,False
65105,7312, Note_on_c,68,107,6,3,1,79.0,False
